M48
; DRILL file {KiCad (6.0.11)} date Tue Feb 14 01:18:08 2023
; FORMAT={-:-/ absolute / inch / decimal}
; #@! TF.CreationDate,2023-02-14T01:18:08-06:00
; #@! TF.GenerationSoftware,Kicad,Pcbnew,(6.0.11)
; #@! TF.FileFunction,Plated,1,2,PTH
FMAT,2
INCH
; #@! TA.AperFunction,Plated,PTH,ViaDrill
T1C0.0157
; #@! TA.AperFunction,Plated,PTH,ComponentDrill
T2C0.0300
; #@! TA.AperFunction,Plated,PTH,ComponentDrill
T3C0.0315
; #@! TA.AperFunction,Plated,PTH,ComponentDrill
T4C0.0354
; #@! TA.AperFunction,Plated,PTH,ComponentDrill
T5C0.0394
; #@! TA.AperFunction,Plated,PTH,ComponentDrill
T6C0.0433
; #@! TA.AperFunction,Plated,PTH,ComponentDrill
T7C0.0472
; #@! TA.AperFunction,Plated,PTH,ComponentDrill
T8C0.0591
; #@! TA.AperFunction,Plated,PTH,ComponentDrill
T9C0.0598
; #@! TA.AperFunction,Plated,PTH,ComponentDrill
T10C0.1200
%
G90
G05
T1
X2.0524Y-4.2228
X2.3002Y-4.1817
X2.5433Y-3.5748
X2.5661Y-4.1642
X2.8134Y-4.1594
X2.863Y-3.0539
X3.052Y-3.8591
X3.052Y-3.9992
X3.0563Y-3.902
X3.0587Y-3.9484
X3.1307Y-4.2902
X3.2039Y-3.9559
X3.2043Y-3.8335
X3.2051Y-3.8701
X3.2075Y-3.9067
X3.2343Y-4.2461
X3.7217Y-3.2583
X4.4059Y-4.376
X4.4768Y-4.385
X4.5071Y-3.6705
T2
X4.0565Y-3.0843
X4.2065Y-3.0843
X6.2018Y-3.2638
X6.3518Y-3.2638
X6.8504Y-5.5
X7.0029Y-5.39
X7.0029Y-5.61
X7.1504Y-5.5
T3
X1.9669Y-3.65
X1.9669Y-3.7484
X1.9681Y-2.8618
X1.9681Y-2.9602
X1.9776Y-3.1913
X1.9776Y-3.4913
X1.9969Y-4.915
X1.9969Y-5.015
X1.9969Y-5.115
X2.0051Y-5.2228
X2.0144Y-4.4266
X2.0144Y-4.7266
X2.048Y-3.8953
X2.0524Y-4.0362
X2.0524Y-4.3362
X2.1035Y-5.2228
X2.1087Y-5.4437
X2.1087Y-5.5815
X2.1138Y-2.8437
X2.1138Y-2.9437
X2.1839Y-4.0374
X2.1839Y-4.3374
X2.2295Y-5.2205
X2.315Y-4.0358
X2.315Y-4.3358
X2.328Y-5.2205
X2.348Y-3.8953
X2.4138Y-2.8437
X2.4138Y-2.9437
X2.4207Y-2.6498
X2.4441Y-4.0402
X2.4441Y-4.3402
X2.452Y-5.4547
X2.452Y-5.5531
X2.4567Y-4.8248
X2.4665Y-3.5823
X2.4665Y-3.8823
X2.4827Y-4.95
X2.4827Y-5.25
X2.5191Y-2.6498
X2.5437Y-2.7783
X2.5551Y-4.8248
X2.5752Y-4.0409
X2.5752Y-4.3409
X2.5921Y-4.9799
X2.5957Y-3.8571
X2.613Y-5.0862
X2.613Y-5.2831
X2.6421Y-2.7783
X2.6756Y-2.952
X2.6756Y-3.0898
X2.6925Y-3.5366
X2.6925Y-3.635
X2.7059Y-4.0421
X2.7059Y-4.3421
X2.7335Y-4.8303
X2.7917Y-2.6661
X2.7917Y-2.7646
X2.7925Y-3.8571
X2.8319Y-4.8303
X2.8378Y-4.0469
X2.8378Y-4.3469
X2.8591Y-5.1831
X2.9575Y-5.1831
X2.9697Y-4.0469
X2.9697Y-4.3469
X2.9921Y-4.9799
X3.0976Y-4.885
X3.0976Y-4.985
X3.0976Y-5.085
X3.0976Y-5.185
X3.2067Y-5.3087
X3.2429Y-4.0744
X3.2429Y-4.3744
X3.3051Y-5.3087
X3.3713Y-4.0709
X3.3713Y-4.3709
X3.3976Y-4.885
X3.3976Y-4.985
X3.3976Y-5.085
X3.3976Y-5.185
X3.46Y-4.5942
X3.4992Y-4.0709
X3.4992Y-4.3709
X3.552Y-5.052
X3.552Y-5.352
X3.56Y-4.5942
X3.6335Y-4.0693
X3.6335Y-4.3693
X3.66Y-4.5942
X3.6795Y-5.05
X3.6795Y-5.2469
X3.6811Y-5.3567
X3.7071Y-5.5516
X3.7394Y-3.3803
X3.7602Y-4.8303
X3.7626Y-2.8441
X3.7626Y-3.1441
X3.7642Y-3.5276
X3.7642Y-3.8276
X3.7665Y-4.0559
X3.7665Y-4.1543
X3.7795Y-5.3567
X3.8087Y-4.9484
X3.8087Y-5.2484
X3.8179Y-2.6014
X3.8179Y-2.7116
X3.9006Y-2.6014
X3.9059Y-3.4961
X3.9059Y-3.8961
X3.9094Y-2.8433
X3.9094Y-3.1433
X3.9406Y-4.95
X3.9406Y-5.25
X3.9571Y-4.8303
X4.003Y-2.6014
X4.0071Y-5.5516
X4.0531Y-4.8913
X4.0657Y-5.0039
X4.0657Y-5.3039
X4.0724Y-3.513
X4.0724Y-3.813
X4.0856Y-2.6014
X4.0856Y-2.7116
X4.1394Y-3.3803
X4.1728Y-5.4193
X4.1728Y-5.5177
X4.1878Y-4.513
X4.1933Y-5.0059
X4.1933Y-5.3059
X4.1969Y-3.513
X4.1969Y-3.813
X4.2055Y-4.0303
X4.2091Y-4.1382
X4.2854Y-4.6472
X4.2854Y-4.7457
X4.3087Y-2.8929
X4.3087Y-2.9913
X4.3236Y-3.4362
X4.3244Y-5.0055
X4.3244Y-5.3055
X4.3531Y-4.8913
X4.3657Y-3.2071
X4.3657Y-3.3055
X4.3724Y-3.6409
X4.3724Y-3.8331
X4.4087Y-2.6795
X4.422Y-3.4362
X4.4461Y-2.7866
X4.4461Y-3.0866
X4.4579Y-4.9469
X4.4579Y-5.1437
X4.4614Y-2.3496
X4.4717Y-4.6213
X4.4717Y-4.8181
X4.4878Y-4.513
X4.4913Y-5.248
X4.4913Y-5.3465
X4.5Y-2.5343
X4.5055Y-4.0303
X4.5091Y-4.1382
X4.5555Y-3.5071
X4.5614Y-2.3496
X4.5896Y-4.5906
X4.5937Y-4.7256
X4.5937Y-4.8256
X4.5937Y-4.9256
X4.5937Y-5.0256
X4.6008Y-5.3386
X4.6016Y-4.4539
X4.6043Y-5.2008
X4.6228Y-3.1051
X4.6228Y-3.2972
X4.6264Y-3.928
X4.6614Y-2.3496
X4.6618Y-2.85
X4.7087Y-2.6795
X4.7248Y-3.928
X4.7618Y-2.85
X4.8Y-2.5343
X4.8136Y-2.7026
X4.8524Y-3.1035
X4.8524Y-3.2957
X4.8555Y-3.5071
X4.8618Y-2.85
X4.8896Y-4.5906
X4.8937Y-4.7256
X4.8937Y-4.8256
X4.8937Y-4.9256
X4.8937Y-5.0256
X4.9008Y-5.3386
X4.9016Y-4.4539
X4.9043Y-5.2008
X4.926Y-3.7276
X4.9291Y-3.8551
X4.9449Y-3.5063
X4.9571Y-2.8445
X5.0104Y-2.7026
X5.0181Y-4.2075
X5.0181Y-4.5075
X5.0567Y-4.7114
X5.0744Y-3.1067
X5.0744Y-3.2988
X5.076Y-4.8425
X5.076Y-4.9409
X5.0862Y-5.2142
X5.0866Y-5.0854
X5.1209Y-4.422
X5.1224Y-4.5539
X5.1268Y-4.1998
X5.1409Y-4.0291
X5.1417Y-3.5063
X5.226Y-3.7276
X5.2268Y-4.1998
X5.2291Y-3.8551
X5.2394Y-4.0291
X5.2571Y-2.8445
X5.2579Y-2.65
X5.3146Y-4.8555
X5.3146Y-4.9539
X5.3268Y-4.1998
X5.3567Y-4.7114
X5.3579Y-2.65
X5.3689Y-2.8161
X5.3689Y-3.013
X5.3862Y-5.2142
X5.3866Y-5.0854
X5.4209Y-4.422
X5.4224Y-4.5539
X5.4579Y-2.65
X5.5169Y-4.1984
X5.5185Y-2.435
X5.5276Y-5.5197
X5.5297Y-2.9144
X5.5297Y-3.2144
X5.5303Y-4.3051
X5.5303Y-4.6051
X5.5433Y-4.8315
X5.5433Y-4.9315
X5.5433Y-5.0315
X5.5476Y-2.5992
X5.5709Y-5.1661
X5.5709Y-5.2661
X5.5709Y-5.3661
X5.6154Y-4.1984
X5.626Y-5.5197
X5.6299Y-3.7354
X5.6299Y-4.0354
X5.6508Y-2.7752
X5.6839Y-3.2492
X5.6839Y-3.3476
X5.6858Y-3.4736
X5.6858Y-3.572
X5.7134Y-4.8555
X5.7134Y-5.1555
X5.7378Y-5.5748
X5.7508Y-2.7752
X5.7844Y-3.8018
X5.7844Y-3.9018
X5.7844Y-4.0018
X5.8004Y-3.1417
X5.8008Y-3.2571
X5.8122Y-5.3402
X5.8122Y-5.4386
X5.8146Y-3.352
X5.8146Y-3.652
X5.8185Y-2.435
X5.8396Y-4.1654
X5.8465Y-4.8244
X5.8465Y-5.2244
X5.8476Y-2.5992
X5.8508Y-2.7752
X5.8533Y-4.2689
X5.8533Y-4.5689
X5.9433Y-3.3516
X5.9433Y-3.6516
X5.952Y-4.5581
X5.9551Y-2.4201
X5.9551Y-2.7201
X5.9819Y-4.8252
X5.9819Y-5.022
X6.0378Y-5.5748
X6.0539Y-5.1165
X6.0539Y-5.4165
X6.0677Y-2.4465
X6.0681Y-2.3177
X6.0732Y-3.3516
X6.0732Y-3.6516
X6.0844Y-3.8018
X6.0844Y-3.9018
X6.0844Y-4.0018
X6.1004Y-3.1417
X6.1008Y-3.2571
X6.1396Y-4.1654
X6.1783Y-5.1736
X6.1783Y-5.3705
X6.1953Y-2.6567
X6.1953Y-2.7551
X6.2039Y-3.5862
X6.2039Y-3.8862
X6.2118Y-2.8874
X6.2118Y-2.9858
X6.2382Y-4.1585
X6.2382Y-4.4585
X6.252Y-4.5581
X6.3055Y-3.7772
X6.3295Y-3.5299
X6.3295Y-3.6283
X6.35Y-4.0
X6.3677Y-2.4465
X6.3705Y-2.6744
X6.3705Y-2.9744
X6.3969Y-4.1717
X6.3969Y-4.4717
X6.4055Y-3.7772
X6.4681Y-2.3177
X6.4724Y-3.0583
X6.4724Y-3.2551
X6.474Y-3.3449
X6.474Y-3.6449
X6.4969Y-4.1717
X6.4969Y-4.4717
X6.5055Y-3.7772
X6.5594Y-5.3087
X6.5683Y-2.4805
X6.5969Y-4.1717
X6.5969Y-4.4717
X6.5978Y-2.3285
X6.6Y-3.0358
X6.6Y-3.3358
X6.6667Y-2.4805
X6.688Y-2.636
X6.688Y-2.7344
X6.7067Y-2.9776
X6.7118Y-3.5701
X6.7291Y-4.1358
X6.7291Y-4.4358
X6.7354Y-4.7488
X6.7543Y-3.7531
X6.8067Y-2.9776
X6.81Y-2.4451
X6.8118Y-3.5701
X6.85Y-4.0
X6.8594Y-5.3087
X6.8978Y-2.3285
X6.9067Y-2.9776
X6.9118Y-3.5701
X6.9323Y-4.7488
X6.9512Y-3.7531
X6.9683Y-2.562
X6.9683Y-2.662
X6.9683Y-2.762
X7.085Y-2.9732
X7.0969Y-3.576
X7.1037Y-2.7281
X7.11Y-2.4451
X7.185Y-2.9732
X7.1969Y-3.576
X7.285Y-2.9732
X7.2969Y-3.576
X7.4037Y-2.7281
T4
X5.3098Y-5.4185
X5.3646Y-2.3736
X5.3646Y-2.4736
X5.4098Y-5.4185
X7.0004Y-5.1504
X7.0004Y-5.2504
X7.1632Y-4.9955
X7.1632Y-5.0955
T5
X1.7307Y-2.8543
X1.7307Y-2.9543
X1.7307Y-3.0543
X1.7307Y-3.1543
X1.7307Y-3.2543
X1.7307Y-3.3543
X1.7307Y-3.4543
X1.7307Y-3.5543
X1.7307Y-3.6543
X1.7307Y-3.7543
X1.7307Y-3.8543
X1.7307Y-3.9543
X1.7307Y-4.0543
X1.7307Y-4.1543
X1.7307Y-4.2543
X1.7307Y-4.3543
X1.7307Y-4.4543
X1.7307Y-4.5543
X1.7307Y-4.6543
X1.7307Y-4.7543
X1.8307Y-2.8543
X1.8307Y-2.9543
X1.8307Y-3.0543
X1.8307Y-3.1543
X1.8307Y-3.2543
X1.8307Y-3.3543
X1.8307Y-3.4543
X1.8307Y-3.5543
X1.8307Y-3.6543
X1.8307Y-3.7543
X1.8307Y-3.8543
X1.8307Y-3.9543
X1.8307Y-4.0543
X1.8307Y-4.1543
X1.8307Y-4.2543
X1.8307Y-4.3543
X1.8307Y-4.4543
X1.8307Y-4.5543
X1.8307Y-4.6543
X1.8307Y-4.7543
X2.515Y-3.2766
X2.615Y-3.2766
X2.715Y-3.2766
X2.9291Y-2.4185
X2.9291Y-2.5185
X2.9291Y-2.6185
X2.9291Y-2.7185
X2.9291Y-2.8185
X2.9291Y-2.9185
X2.9291Y-3.0185
X2.9291Y-3.1185
X2.9291Y-3.2185
X2.9291Y-3.3185
X2.9291Y-3.4185
X2.9291Y-3.5185
X2.9291Y-3.6185
X2.9291Y-3.7185
X2.9291Y-3.8185
X3.274Y-5.6374
X3.3724Y-5.6374
X3.4709Y-5.6374
X3.5291Y-2.4185
X3.5291Y-2.5185
X3.5291Y-2.6185
X3.5291Y-2.7185
X3.5291Y-2.8185
X3.5291Y-2.9185
X3.5291Y-3.0185
X3.5291Y-3.1185
X3.5291Y-3.2185
X3.5291Y-3.3185
X3.5291Y-3.4185
X3.5291Y-3.5185
X3.5291Y-3.6185
X3.5291Y-3.7185
X3.5291Y-3.8185
X4.2575Y-4.2768
X4.3575Y-4.2768
X4.4575Y-4.2768
X4.4945Y-5.6236
X4.5575Y-4.2768
X4.5929Y-5.6236
X4.6575Y-4.2768
X4.6913Y-5.6236
X4.7575Y-4.2768
X4.8575Y-4.2768
X5.2622Y-3.128
X5.3622Y-3.128
X5.5305Y-3.4033
X5.5305Y-3.5033
X5.5305Y-3.6033
X6.1303Y-4.9921
X6.2Y-4.75
X6.2Y-5.55
X6.3Y-4.75
X6.3Y-5.55
X6.4Y-4.75
X6.4Y-5.55
X6.5Y-4.75
X6.5Y-5.55
X6.5065Y-2.6258
X6.5065Y-2.7258
X6.6795Y-4.9996
X6.6795Y-5.0996
X6.7512Y-4.5976
X6.828Y-4.9965
X6.828Y-5.0965
X6.8512Y-4.5976
X6.9512Y-4.5976
X7.0827Y-2.3189
X7.3705Y-3.1799
X7.3705Y-3.2799
X7.3705Y-3.3799
T6
X2.0894Y-3.6004
X2.0894Y-3.7776
X2.1362Y-3.0748
X2.1388Y-4.4415
X2.1388Y-4.6974
X2.1435Y-4.8419
X2.1435Y-5.0978
X2.3159Y-4.4415
X2.3159Y-4.6974
X2.3207Y-4.8419
X2.3207Y-5.0978
X2.3453Y-3.6004
X2.3453Y-3.7776
X2.4362Y-3.0748
X2.4553Y-4.4459
X2.4553Y-4.7018
X2.6325Y-4.4459
X2.6325Y-4.7018
X2.7852Y-4.4518
X2.7852Y-4.7077
X2.9624Y-4.4518
X2.9624Y-4.7077
X7.0575Y-3.7531
X7.0935Y-3.8915
X7.0935Y-4.1915
X7.0935Y-4.3915
X7.0935Y-4.5915
X7.1104Y-2.5939
X7.3575Y-3.7531
X7.3927Y-3.8915
X7.3927Y-4.1915
X7.3927Y-4.3915
X7.3927Y-4.5915
X7.4104Y-2.5939
T7
X2.1197Y-3.4498
X2.2181Y-3.2514
X2.3165Y-3.4498
X3.1756Y-5.5193
X3.3724Y-5.5193
X3.5693Y-5.5193
X4.3961Y-5.5055
X4.5929Y-5.5055
X4.7898Y-5.5055
T8
X5.2559Y-3.2642
X5.2559Y-3.5642
X5.3937Y-3.265
X5.3937Y-3.565
T9
X2.4848Y-2.4344
X2.6848Y-2.4344
X2.748Y-5.4862
X2.948Y-5.4862
X7.2706Y-4.9855
X7.2706Y-5.1855
T10
X1.7913Y-2.3819
X1.7913Y-5.5315
X5.0591Y-2.3819
X5.0591Y-5.5315
X7.3031Y-2.3819
X7.3031Y-5.5315
T5
G00X1.9785Y-2.4923
M15
G01X1.9785Y-2.5711
M16
G05
G00X2.203Y-2.4136
M15
G01X2.1242Y-2.4136
M16
G05
G00X2.203Y-2.6498
M15
G01X2.1242Y-2.6498
M16
G05
G00X3.6821Y-2.5187
M15
G01X3.6821Y-2.4596
M16
G05
G00X3.9911Y-2.4577
M15
G01X3.9124Y-2.4577
M16
G05
G00X4.2215Y-2.5187
M15
G01X4.2215Y-2.4596
M16
G05
T0
M30
