%TF.GenerationSoftware,KiCad,Pcbnew,(6.0.11)*%
%TF.CreationDate,2023-05-29T12:42:38-05:00*%
%TF.ProjectId,LowPassFilter,4c6f7750-6173-4734-9669-6c7465722e6b,rev?*%
%TF.SameCoordinates,Original*%
%TF.FileFunction,Copper,L1,Top*%
%TF.FilePolarity,Positive*%
%FSLAX46Y46*%
G04 Gerber Fmt 4.6, Leading zero omitted, Abs format (unit mm)*
G04 Created by KiCad (PCBNEW (6.0.11)) date 2023-05-29 12:42:38*
%MOMM*%
%LPD*%
G01*
G04 APERTURE LIST*
G04 Aperture macros list*
%AMRoundRect*
0 Rectangle with rounded corners*
0 $1 Rounding radius*
0 $2 $3 $4 $5 $6 $7 $8 $9 X,Y pos of 4 corners*
0 Add a 4 corners polygon primitive as box body*
4,1,4,$2,$3,$4,$5,$6,$7,$8,$9,$2,$3,0*
0 Add four circle primitives for the rounded corners*
1,1,$1+$1,$2,$3*
1,1,$1+$1,$4,$5*
1,1,$1+$1,$6,$7*
1,1,$1+$1,$8,$9*
0 Add four rect primitives between the rounded corners*
20,1,$1+$1,$2,$3,$4,$5,0*
20,1,$1+$1,$4,$5,$6,$7,0*
20,1,$1+$1,$6,$7,$8,$9,0*
20,1,$1+$1,$8,$9,$2,$3,0*%
G04 Aperture macros list end*
%TA.AperFunction,SMDPad,CuDef*%
%ADD10RoundRect,0.381000X0.381000X0.381000X-0.381000X0.381000X-0.381000X-0.381000X0.381000X-0.381000X0*%
%TD*%
%TA.AperFunction,ComponentPad*%
%ADD11C,1.600000*%
%TD*%
%TA.AperFunction,SMDPad,CuDef*%
%ADD12RoundRect,0.381000X-0.381000X-0.381000X0.381000X-0.381000X0.381000X0.381000X-0.381000X0.381000X0*%
%TD*%
%TA.AperFunction,ComponentPad*%
%ADD13R,1.700000X1.700000*%
%TD*%
%TA.AperFunction,ComponentPad*%
%ADD14O,1.700000X1.700000*%
%TD*%
%TA.AperFunction,ComponentPad*%
%ADD15C,2.400000*%
%TD*%
%TA.AperFunction,ComponentPad*%
%ADD16C,1.500000*%
%TD*%
%TA.AperFunction,Conductor*%
%ADD17C,1.000000*%
%TD*%
G04 APERTURE END LIST*
D10*
%TO.P,C1,1*%
%TO.N,GND*%
X147750000Y-107950000D03*
D11*
X148550000Y-107950000D03*
%TO.P,C1,2*%
%TO.N,Net-(C2-Pad1)*%
X143550000Y-107950000D03*
D10*
X144350000Y-107950000D03*
%TD*%
%TO.P,C2,1*%
%TO.N,Net-(C2-Pad1)*%
X140170000Y-107188000D03*
D11*
X140970000Y-107188000D03*
D10*
%TO.P,C2,2*%
%TO.N,Net-(C2-Pad2)*%
X136770000Y-107188000D03*
D11*
X135970000Y-107188000D03*
%TD*%
D12*
%TO.P,C3,1*%
%TO.N,Net-(L2-Pad1)*%
X131904000Y-98806000D03*
D11*
X131104000Y-98806000D03*
%TO.P,C3,2*%
%TO.N,GND*%
X136104000Y-98806000D03*
D12*
X135304000Y-98806000D03*
%TD*%
D10*
%TO.P,C4,1*%
%TO.N,Net-(L2-Pad2)*%
X135090000Y-102616000D03*
D11*
X135890000Y-102616000D03*
%TO.P,C4,2*%
%TO.N,Net-(L2-Pad1)*%
X130890000Y-102616000D03*
D10*
X131690000Y-102616000D03*
%TD*%
D12*
%TO.P,C5,1*%
%TO.N,Net-(L2-Pad2)*%
X144350000Y-111506000D03*
D11*
X143550000Y-111506000D03*
%TO.P,C5,2*%
%TO.N,GND*%
X148550000Y-111506000D03*
D12*
X147750000Y-111506000D03*
%TD*%
D10*
%TO.P,C6,1*%
%TO.N,Net-(C2-Pad1)*%
X147900000Y-91330000D03*
D11*
X148700000Y-91330000D03*
D10*
%TO.P,C6,2*%
%TO.N,Net-(C6-Pad2)*%
X144500000Y-91330000D03*
D11*
X143700000Y-91330000D03*
%TD*%
D13*
%TO.P,J1,1,Pin_1*%
%TO.N,GND*%
X132588000Y-111760000D03*
D14*
%TO.P,J1,2,Pin_2*%
X135128000Y-111760000D03*
%TO.P,J1,3,Pin_3*%
%TO.N,Net-(L2-Pad2)*%
X137668000Y-111760000D03*
%TO.P,J1,4,Pin_4*%
X140208000Y-111760000D03*
%TD*%
D13*
%TO.P,J2,1,Pin_1*%
%TO.N,GND*%
X132588000Y-91440000D03*
D14*
%TO.P,J2,2,Pin_2*%
X135128000Y-91440000D03*
%TO.P,J2,3,Pin_3*%
%TO.N,Net-(J2-Pad3)*%
X137668000Y-91440000D03*
%TO.P,J2,4,Pin_4*%
%TO.N,Net-(C6-Pad2)*%
X140208000Y-91440000D03*
%TD*%
D15*
%TO.P,L1,1*%
%TO.N,Net-(C2-Pad2)*%
X131360000Y-95100000D03*
%TO.P,L1,2*%
%TO.N,Net-(L2-Pad1)*%
X116370000Y-95230000D03*
%TD*%
D16*
%TO.P,T1,1*%
%TO.N,Net-(J2-Pad3)*%
X142264000Y-104322000D03*
%TO.P,T1,2*%
%TO.N,GND*%
X142264000Y-95322000D03*
%TO.P,T1,3*%
%TO.N,Net-(C2-Pad1)*%
X145264000Y-104322000D03*
%TO.P,T1,4*%
%TO.N,Net-(J2-Pad3)*%
X145264000Y-95322000D03*
%TD*%
D15*
%TO.P,L2,1*%
%TO.N,Net-(L2-Pad1)*%
X117252000Y-108204000D03*
%TO.P,L2,2*%
%TO.N,Net-(L2-Pad2)*%
X132242000Y-108074000D03*
%TD*%
D17*
%TO.N,Net-(C6-Pad2)*%
X140318000Y-91330000D02*
X140208000Y-91440000D01*
X143700000Y-91330000D02*
X140318000Y-91330000D01*
%TO.N,Net-(J2-Pad3)*%
X142264000Y-99872000D02*
X142264000Y-104322000D01*
X137668000Y-91928000D02*
X137668000Y-91440000D01*
X145264000Y-95322000D02*
X145264000Y-96872000D01*
X145264000Y-95322000D02*
X143482000Y-93540000D01*
X139280000Y-93540000D02*
X137668000Y-91928000D01*
X145264000Y-96872000D02*
X142264000Y-99872000D01*
X143482000Y-93540000D02*
X139280000Y-93540000D01*
%TO.N,Net-(C2-Pad1)*%
X145264000Y-104322000D02*
X145264000Y-106236000D01*
X143550000Y-107950000D02*
X140932000Y-107950000D01*
X148700000Y-91330000D02*
X148700000Y-100450000D01*
X145264000Y-106236000D02*
X143550000Y-107950000D01*
X148700000Y-100450000D02*
X145264000Y-103886000D01*
X140932000Y-107950000D02*
X140170000Y-107188000D01*
X145264000Y-103886000D02*
X145264000Y-104322000D01*
%TO.N,Net-(C2-Pad2)*%
X137922000Y-104902000D02*
X135970000Y-106854000D01*
X131360000Y-95100000D02*
X131464000Y-94996000D01*
X136652000Y-94996000D02*
X137922000Y-96266000D01*
X131464000Y-94996000D02*
X136652000Y-94996000D01*
X137922000Y-96266000D02*
X137922000Y-104902000D01*
X135970000Y-106854000D02*
X135970000Y-107188000D01*
%TO.N,Net-(L2-Pad1)*%
X120716000Y-98910000D02*
X131000000Y-98910000D01*
X130890000Y-102616000D02*
X130890000Y-99020000D01*
X117252000Y-108204000D02*
X116300000Y-107252000D01*
X116300000Y-95300000D02*
X116370000Y-95230000D01*
X116370000Y-95230000D02*
X117036000Y-95230000D01*
X131000000Y-98910000D02*
X131104000Y-98806000D01*
X130890000Y-99020000D02*
X131104000Y-98806000D01*
X116300000Y-107252000D02*
X116300000Y-95300000D01*
X117036000Y-95230000D02*
X120716000Y-98910000D01*
%TO.N,Net-(L2-Pad2)*%
X137160000Y-109474000D02*
X137668000Y-109982000D01*
X137668000Y-109982000D02*
X137668000Y-111760000D01*
X133350000Y-109474000D02*
X137160000Y-109474000D01*
X137668000Y-111760000D02*
X140208000Y-111760000D01*
X132242000Y-108074000D02*
X132242000Y-108366000D01*
X140208000Y-111760000D02*
X143296000Y-111760000D01*
X143296000Y-111760000D02*
X143550000Y-111506000D01*
X135090000Y-102616000D02*
X132080000Y-105626000D01*
X132080000Y-107912000D02*
X132242000Y-108074000D01*
X132242000Y-108366000D02*
X133350000Y-109474000D01*
X132080000Y-105626000D02*
X132080000Y-107912000D01*
%TD*%
M02*
