%TF.GenerationSoftware,KiCad,Pcbnew,(6.0.11)*%
%TF.CreationDate,2023-05-29T12:42:38-05:00*%
%TF.ProjectId,LowPassFilter,4c6f7750-6173-4734-9669-6c7465722e6b,rev?*%
%TF.SameCoordinates,Original*%
%TF.FileFunction,Soldermask,Top*%
%TF.FilePolarity,Negative*%
%FSLAX46Y46*%
G04 Gerber Fmt 4.6, Leading zero omitted, Abs format (unit mm)*
G04 Created by KiCad (PCBNEW (6.0.11)) date 2023-05-29 12:42:38*
%MOMM*%
%LPD*%
G01*
G04 APERTURE LIST*
G04 Aperture macros list*
%AMRoundRect*
0 Rectangle with rounded corners*
0 $1 Rounding radius*
0 $2 $3 $4 $5 $6 $7 $8 $9 X,Y pos of 4 corners*
0 Add a 4 corners polygon primitive as box body*
4,1,4,$2,$3,$4,$5,$6,$7,$8,$9,$2,$3,0*
0 Add four circle primitives for the rounded corners*
1,1,$1+$1,$2,$3*
1,1,$1+$1,$4,$5*
1,1,$1+$1,$6,$7*
1,1,$1+$1,$8,$9*
0 Add four rect primitives between the rounded corners*
20,1,$1+$1,$2,$3,$4,$5,0*
20,1,$1+$1,$4,$5,$6,$7,0*
20,1,$1+$1,$6,$7,$8,$9,0*
20,1,$1+$1,$8,$9,$2,$3,0*%
G04 Aperture macros list end*
%ADD10RoundRect,0.581000X0.381000X0.381000X-0.381000X0.381000X-0.381000X-0.381000X0.381000X-0.381000X0*%
%ADD11C,2.000000*%
%ADD12RoundRect,0.581000X-0.381000X-0.381000X0.381000X-0.381000X0.381000X0.381000X-0.381000X0.381000X0*%
%ADD13RoundRect,0.200000X0.850000X-0.850000X0.850000X0.850000X-0.850000X0.850000X-0.850000X-0.850000X0*%
%ADD14O,2.100000X2.100000*%
%ADD15C,2.800000*%
%ADD16C,1.900000*%
G04 APERTURE END LIST*
D10*
%TO.C,C1*%
X147750000Y-107950000D03*
D11*
X148550000Y-107950000D03*
X143550000Y-107950000D03*
D10*
X144350000Y-107950000D03*
%TD*%
%TO.C,C2*%
X140170000Y-107188000D03*
D11*
X140970000Y-107188000D03*
D10*
X136770000Y-107188000D03*
D11*
X135970000Y-107188000D03*
%TD*%
D12*
%TO.C,C3*%
X131904000Y-98806000D03*
D11*
X131104000Y-98806000D03*
X136104000Y-98806000D03*
D12*
X135304000Y-98806000D03*
%TD*%
D10*
%TO.C,C4*%
X135090000Y-102616000D03*
D11*
X135890000Y-102616000D03*
X130890000Y-102616000D03*
D10*
X131690000Y-102616000D03*
%TD*%
D12*
%TO.C,C5*%
X144350000Y-111506000D03*
D11*
X143550000Y-111506000D03*
X148550000Y-111506000D03*
D12*
X147750000Y-111506000D03*
%TD*%
D10*
%TO.C,C6*%
X147900000Y-91330000D03*
D11*
X148700000Y-91330000D03*
D10*
X144500000Y-91330000D03*
D11*
X143700000Y-91330000D03*
%TD*%
D13*
%TO.C,J1*%
X132588000Y-111760000D03*
D14*
X135128000Y-111760000D03*
X137668000Y-111760000D03*
X140208000Y-111760000D03*
%TD*%
D13*
%TO.C,J2*%
X132588000Y-91440000D03*
D14*
X135128000Y-91440000D03*
X137668000Y-91440000D03*
X140208000Y-91440000D03*
%TD*%
D15*
%TO.C,L1*%
X131360000Y-95100000D03*
X116370000Y-95230000D03*
%TD*%
D16*
%TO.C,T1*%
X142264000Y-104322000D03*
X142264000Y-95322000D03*
X145264000Y-104322000D03*
X145264000Y-95322000D03*
%TD*%
D15*
%TO.C,L2*%
X117252000Y-108204000D03*
X132242000Y-108074000D03*
%TD*%
M02*
