M48
;DRILL file {KiCad 4.0.7} date 04/12/19 10:09:24
;FORMAT={-:-/ absolute / metric / decimal}
FMAT,2
METRIC,TZ
T1C0.400
T2C0.800
T3C0.900
T4C1.000
T5C1.100
T6C1.500
T7C1.520
T8C3.048
%
G90
G05
M71
T1
X41.275Y-88.773
X41.402Y-65.151
X42.672Y-88.773
X43.815Y-65.151
X44.958Y-88.9
X45.212Y-65.151
X48.26Y-65.278
X49.784Y-65.278
X53.086Y-66.294
X53.594Y-88.773
X53.975Y-67.691
X55.702Y-70.523
X56.515Y-88.773
X56.807Y-70.561
X60.236Y-70.447
X61.646Y-70.371
X65.646Y-70.333
X65.659Y-89.154
X67.208Y-70.333
X70.612Y-89.154
X71.285Y-70.218
X72.695Y-70.485
X78.735Y-70.409
X78.867Y-89.408
X80.02Y-70.353
X80.899Y-89.281
X84.658Y-70.353
X87.757Y-89.154
X89.662Y-89.154
X89.911Y-70.353
X94.325Y-70.297
X95.667Y-70.353
X98.552Y-89.027
X100.711Y-89.154
X101.199Y-70.353
X106.116Y-70.409
X109.347Y-89.027
X111.214Y-70.409
X111.76Y-88.9
X113.703Y-70.409
X120.015Y-70.498
X122.149Y-70.498
X123.317Y-67.437
X124.079Y-66.294
X126.619Y-64.897
X127.762Y-64.897
X131.318Y-64.77
X132.588Y-64.897
X134.81Y-64.897
T2
X59.055Y-85.344
X59.182Y-82.55
X62.484Y-41.986
X62.484Y-54.686
X66.446Y-42.024
X66.446Y-54.724
X66.675Y-85.344
X66.802Y-82.55
X68.961Y-82.55
X68.961Y-85.217
X71.323Y-42.062
X71.323Y-49.682
X74.168Y-41.91
X74.168Y-46.91
X76.581Y-82.55
X76.581Y-85.217
X77.47Y-41.91
X77.47Y-49.53
X79.502Y-82.423
X80.772Y-41.91
X80.772Y-49.53
X82.002Y-82.423
X83.566Y-48.768
X88.566Y-48.768
X90.504Y-48.768
X95.504Y-48.768
X98.298Y-41.91
X98.298Y-49.53
X101.346Y-41.91
X101.346Y-49.53
X104.648Y-41.91
X104.648Y-46.91
X107.747Y-41.834
X107.747Y-49.454
X110.045Y-121.111
X110.045Y-126.111
X111.023Y-41.415
X111.023Y-54.115
X113.284Y-121.174
X113.284Y-126.174
X114.948Y-41.338
X114.948Y-54.038
X119.774Y-76.06
X119.774Y-78.956
X119.825Y-82.004
X124.774Y-76.06
X124.774Y-78.956
X124.825Y-82.004
T3
X52.639Y-73.406
X52.639Y-75.946
X52.766Y-56.769
X52.766Y-59.309
X127.32Y-70.612
X127.32Y-73.152
X127.447Y-54.356
X127.447Y-56.896
T4
X56.134Y-80.01
X56.134Y-82.55
X56.451Y-60.071
X58.547Y-52.832
X58.547Y-55.372
X58.991Y-60.071
X69.736Y-57.417
X69.736Y-59.957
X79.502Y-85.471
X82.042Y-85.471
X86.106Y-42.672
X88.646Y-42.672
X91.186Y-42.672
X103.569Y-102.806
X103.569Y-105.346
X108.598Y-57.467
X108.598Y-60.008
X118.935Y-51.943
X118.935Y-54.483
X120.269Y-120.396
X120.269Y-122.936
X120.777Y-58.928
X123.317Y-58.928
T5
X94.996Y-112.649
X94.996Y-122.809
X100.139Y-112.522
X100.139Y-122.682
X104.076Y-112.459
X104.076Y-122.618
T6
X75.Y-55.
X75.Y-62.5
X87.478Y-62.687
X87.516Y-55.029
X91.008Y-78.064
X91.008Y-85.064
X100.Y-55.
X100.Y-62.5
X103.734Y-78.384
X103.759Y-85.09
X115.508Y-78.064
X115.508Y-85.064
X130.302Y-82.95
X130.302Y-117.95
X130.302Y-132.95
T7
X49.911Y-71.12
X49.911Y-76.2
X50.038Y-54.483
X50.038Y-59.563
X90.678Y-133.477
X95.758Y-133.477
X102.362Y-133.477
X107.442Y-133.477
X113.919Y-133.477
X118.999Y-133.477
X130.048Y-70.358
X130.048Y-75.438
X130.175Y-54.102
X130.175Y-59.182
T8
X43.Y-43.
X43.Y-85.
X43.Y-137.
X43.053Y-96.012
X137.Y-43.
X137.Y-85.
X137.Y-96.
X137.Y-137.
T4
X81.169Y-123.888G85X83.169Y-123.888
G05
X81.169Y-129.888G85X83.169Y-129.888
G05
X86.869Y-127.888G85X86.869Y-125.888
G05
T6
X112.328Y-103.393G85X111.828Y-103.393
G05
X112.328Y-107.093G85X111.828Y-107.093
G05
X112.328Y-110.843G85X111.828Y-110.843
G05
X112.328Y-114.793G85X111.828Y-114.793
G05
T0
M30
