G04 #@! TF.FileFunction,Soldermask,Top*
%FSLAX46Y46*%
G04 Gerber Fmt 4.6, Leading zero omitted, Abs format (unit mm)*
G04 Created by KiCad (PCBNEW 4.0.7) date 11/09/21 19:46:40*
%MOMM*%
%LPD*%
G01*
G04 APERTURE LIST*
%ADD10C,0.100000*%
%ADD11R,2.100000X2.100000*%
%ADD12O,2.100000X2.100000*%
%ADD13C,2.000000*%
%ADD14O,2.000000X2.000000*%
%ADD15R,5.400000X3.400000*%
%ADD16C,3.900000*%
%ADD17C,4.400000*%
%ADD18C,5.400000*%
%ADD19R,2.000000X2.000000*%
%ADD20C,1.900000*%
%ADD21C,2.500000*%
%ADD22R,3.400000X3.400000*%
%ADD23C,3.400000*%
%ADD24C,4.464000*%
%ADD25R,2.200000X2.200000*%
%ADD26C,2.200000*%
%ADD27C,1.840000*%
G04 APERTURE END LIST*
D10*
D11*
X106950000Y-76050000D03*
D12*
X106950000Y-78590000D03*
X106950000Y-81130000D03*
D13*
X91390000Y-85854000D03*
D14*
X104090000Y-85854000D03*
D15*
X93930000Y-85854000D03*
X101550000Y-85854000D03*
D13*
X104090000Y-81790000D03*
D14*
X91390000Y-81790000D03*
D15*
X101550000Y-81790000D03*
X93930000Y-81790000D03*
D13*
X104090000Y-77726000D03*
D14*
X91390000Y-77726000D03*
D15*
X101550000Y-77726000D03*
X93930000Y-77726000D03*
D13*
X117348000Y-42672000D03*
D14*
X104648000Y-42672000D03*
D15*
X114808000Y-42672000D03*
X107188000Y-42672000D03*
D13*
X47498000Y-42926000D03*
D14*
X60198000Y-42926000D03*
D15*
X50038000Y-42926000D03*
X57658000Y-42926000D03*
D13*
X117348000Y-47244000D03*
D14*
X104648000Y-47244000D03*
D15*
X114808000Y-47244000D03*
X107188000Y-47244000D03*
D16*
X58166000Y-58166000D03*
D17*
X64008000Y-58166000D03*
D16*
X85852000Y-57912000D03*
D17*
X91694000Y-57912000D03*
D16*
X79756000Y-57912000D03*
D17*
X73914000Y-58166000D03*
D16*
X106934000Y-57658000D03*
D17*
X101346000Y-57912000D03*
D18*
X43000000Y-43000000D03*
X122000000Y-43000000D03*
D16*
X68834000Y-54610000D03*
X68834000Y-61976000D03*
X96774000Y-53848000D03*
D13*
X66294000Y-41656000D03*
X66294000Y-46656000D03*
X76454000Y-48768000D03*
X81454000Y-48768000D03*
X98806000Y-41656000D03*
X98806000Y-46656000D03*
X88900000Y-48768000D03*
X83900000Y-48768000D03*
D11*
X80518000Y-42418000D03*
D12*
X83058000Y-42418000D03*
X85598000Y-42418000D03*
D13*
X69850000Y-49276000D03*
D14*
X69850000Y-41656000D03*
D13*
X73406000Y-41656000D03*
D14*
X73406000Y-49276000D03*
D13*
X95504000Y-49276000D03*
D14*
X95504000Y-41656000D03*
D13*
X91948000Y-41656000D03*
D14*
X91948000Y-49276000D03*
D19*
X62992000Y-41656000D03*
D14*
X62992000Y-49276000D03*
D19*
X101854000Y-41656000D03*
D14*
X101854000Y-49276000D03*
D13*
X47498000Y-46990000D03*
D14*
X60198000Y-46990000D03*
D15*
X50038000Y-46990000D03*
X57658000Y-46990000D03*
D20*
X52512000Y-57150000D03*
X52512000Y-59690000D03*
D21*
X47432000Y-62230000D03*
X47432000Y-52070000D03*
D22*
X49784000Y-54864000D03*
D23*
X49784000Y-59944000D03*
D20*
X111620000Y-58000000D03*
X111620000Y-55460000D03*
D21*
X116700000Y-52920000D03*
X116700000Y-63080000D03*
D22*
X114348000Y-60286000D03*
D23*
X114348000Y-55206000D03*
D24*
X122000000Y-91000000D03*
X43000000Y-91000000D03*
D16*
X97028000Y-61722000D03*
D19*
X75388000Y-78488000D03*
D14*
X83008000Y-78488000D03*
D25*
X87072000Y-84838000D03*
D26*
X87072000Y-82298000D03*
D20*
X111620000Y-78000000D03*
X111620000Y-75460000D03*
D21*
X116700000Y-72920000D03*
X116700000Y-83080000D03*
D22*
X114348000Y-80286000D03*
D23*
X114348000Y-75206000D03*
D20*
X52380000Y-78000000D03*
X52380000Y-80540000D03*
D21*
X47300000Y-83080000D03*
X47300000Y-72920000D03*
D22*
X49652000Y-75714000D03*
D23*
X49652000Y-80794000D03*
D11*
X56950000Y-81050000D03*
D12*
X56950000Y-78510000D03*
X56950000Y-75970000D03*
D13*
X72848000Y-78996000D03*
D14*
X60148000Y-78996000D03*
D15*
X70308000Y-78996000D03*
X62688000Y-78996000D03*
D13*
X72848000Y-83060000D03*
D14*
X60148000Y-83060000D03*
D15*
X70308000Y-83060000D03*
X62688000Y-83060000D03*
D13*
X91390000Y-89918000D03*
D14*
X104090000Y-89918000D03*
D15*
X93930000Y-89918000D03*
X101550000Y-89918000D03*
D13*
X75388000Y-81536000D03*
D14*
X83008000Y-81536000D03*
D13*
X85802000Y-78488000D03*
X88302000Y-78488000D03*
X60530000Y-86720000D03*
X63030000Y-86720000D03*
X78690000Y-84838000D03*
X81190000Y-84838000D03*
D11*
X78690000Y-88648000D03*
D12*
X81230000Y-88648000D03*
D27*
X72340000Y-87886000D03*
X69800000Y-87886000D03*
X67260000Y-87886000D03*
M02*
