G04 #@! TF.FileFunction,Copper,L1,Top,Signal*
%FSLAX46Y46*%
G04 Gerber Fmt 4.6, Leading zero omitted, Abs format (unit mm)*
G04 Created by KiCad (PCBNEW 4.0.7) date 11/09/21 19:46:40*
%MOMM*%
%LPD*%
G01*
G04 APERTURE LIST*
%ADD10C,0.100000*%
%ADD11R,1.700000X1.700000*%
%ADD12O,1.700000X1.700000*%
%ADD13C,1.600000*%
%ADD14O,1.600000X1.600000*%
%ADD15R,5.000000X3.000000*%
%ADD16C,3.500000*%
%ADD17C,5.000000*%
%ADD18R,1.600000X1.600000*%
%ADD19C,1.500000*%
%ADD20R,3.000000X3.000000*%
%ADD21C,3.000000*%
%ADD22C,4.064000*%
%ADD23R,1.800000X1.800000*%
%ADD24C,1.800000*%
%ADD25C,1.440000*%
%ADD26C,1.000000*%
%ADD27C,0.500000*%
G04 APERTURE END LIST*
D10*
D11*
X106950000Y-76050000D03*
D12*
X106950000Y-78590000D03*
X106950000Y-81130000D03*
D13*
X91390000Y-85854000D03*
D14*
X104090000Y-85854000D03*
D15*
X93930000Y-85854000D03*
X101550000Y-85854000D03*
D13*
X104090000Y-81790000D03*
D14*
X91390000Y-81790000D03*
D15*
X101550000Y-81790000D03*
X93930000Y-81790000D03*
D13*
X104090000Y-77726000D03*
D14*
X91390000Y-77726000D03*
D15*
X101550000Y-77726000D03*
X93930000Y-77726000D03*
D13*
X117348000Y-42672000D03*
D14*
X104648000Y-42672000D03*
D15*
X114808000Y-42672000D03*
X107188000Y-42672000D03*
D13*
X47498000Y-42926000D03*
D14*
X60198000Y-42926000D03*
D15*
X50038000Y-42926000D03*
X57658000Y-42926000D03*
D13*
X117348000Y-47244000D03*
D14*
X104648000Y-47244000D03*
D15*
X114808000Y-47244000D03*
X107188000Y-47244000D03*
D16*
X58166000Y-58166000D03*
X85852000Y-57912000D03*
X79756000Y-57912000D03*
X106934000Y-57658000D03*
D17*
X43000000Y-43000000D03*
X122000000Y-43000000D03*
D16*
X68834000Y-54610000D03*
X68834000Y-61976000D03*
X96774000Y-53848000D03*
D13*
X66294000Y-41656000D03*
X66294000Y-46656000D03*
X76454000Y-48768000D03*
X81454000Y-48768000D03*
X98806000Y-41656000D03*
X98806000Y-46656000D03*
X88900000Y-48768000D03*
X83900000Y-48768000D03*
D11*
X80518000Y-42418000D03*
D12*
X83058000Y-42418000D03*
X85598000Y-42418000D03*
D13*
X69850000Y-49276000D03*
D14*
X69850000Y-41656000D03*
D13*
X73406000Y-41656000D03*
D14*
X73406000Y-49276000D03*
D13*
X95504000Y-49276000D03*
D14*
X95504000Y-41656000D03*
D13*
X91948000Y-41656000D03*
D14*
X91948000Y-49276000D03*
D18*
X62992000Y-41656000D03*
D14*
X62992000Y-49276000D03*
D18*
X101854000Y-41656000D03*
D14*
X101854000Y-49276000D03*
D13*
X47498000Y-46990000D03*
D14*
X60198000Y-46990000D03*
D15*
X50038000Y-46990000D03*
X57658000Y-46990000D03*
D19*
X52512000Y-57150000D03*
X52512000Y-59690000D03*
D20*
X49784000Y-54864000D03*
D21*
X49784000Y-59944000D03*
D19*
X111620000Y-58000000D03*
X111620000Y-55460000D03*
D20*
X114348000Y-60286000D03*
D21*
X114348000Y-55206000D03*
D22*
X122000000Y-91000000D03*
X43000000Y-91000000D03*
D16*
X97028000Y-61722000D03*
D18*
X75388000Y-78488000D03*
D14*
X83008000Y-78488000D03*
D23*
X87072000Y-84838000D03*
D24*
X87072000Y-82298000D03*
D19*
X111620000Y-78000000D03*
X111620000Y-75460000D03*
D20*
X114348000Y-80286000D03*
D21*
X114348000Y-75206000D03*
D19*
X52380000Y-78000000D03*
X52380000Y-80540000D03*
D20*
X49652000Y-75714000D03*
D21*
X49652000Y-80794000D03*
D11*
X56950000Y-81050000D03*
D12*
X56950000Y-78510000D03*
X56950000Y-75970000D03*
D13*
X72848000Y-78996000D03*
D14*
X60148000Y-78996000D03*
D15*
X70308000Y-78996000D03*
X62688000Y-78996000D03*
D13*
X72848000Y-83060000D03*
D14*
X60148000Y-83060000D03*
D15*
X70308000Y-83060000D03*
X62688000Y-83060000D03*
D13*
X91390000Y-89918000D03*
D14*
X104090000Y-89918000D03*
D15*
X93930000Y-89918000D03*
X101550000Y-89918000D03*
D13*
X75388000Y-81536000D03*
D14*
X83008000Y-81536000D03*
D13*
X85802000Y-78488000D03*
X88302000Y-78488000D03*
X60530000Y-86720000D03*
X63030000Y-86720000D03*
X78690000Y-84838000D03*
X81190000Y-84838000D03*
D11*
X78690000Y-88648000D03*
D12*
X81230000Y-88648000D03*
D25*
X72340000Y-87886000D03*
X69800000Y-87886000D03*
X67260000Y-87886000D03*
D26*
X60148000Y-83060000D02*
X62688000Y-83060000D01*
X60148000Y-78996000D02*
X62688000Y-78996000D01*
X114808000Y-47244000D02*
X117348000Y-47244000D01*
X114808000Y-42672000D02*
X117348000Y-42672000D01*
X50038000Y-46990000D02*
X47498000Y-46990000D01*
X50038000Y-42926000D02*
X47498000Y-42926000D01*
X57658000Y-46990000D02*
X60198000Y-46990000D01*
X57658000Y-42926000D02*
X60198000Y-42926000D01*
X107188000Y-47244000D02*
X104648000Y-47244000D01*
X107188000Y-42672000D02*
X104648000Y-42672000D01*
X91390000Y-89918000D02*
X93930000Y-89918000D01*
X91390000Y-85854000D02*
X93930000Y-85854000D01*
X104090000Y-85854000D02*
X101550000Y-85854000D01*
X104090000Y-89918000D02*
X101550000Y-89918000D01*
X104090000Y-81790000D02*
X101550000Y-81790000D01*
X104090000Y-77726000D02*
X101550000Y-77726000D01*
X72848000Y-78996000D02*
X70308000Y-78996000D01*
X72848000Y-83060000D02*
X70308000Y-83060000D01*
X91390000Y-77726000D02*
X93930000Y-77726000D01*
X91390000Y-81790000D02*
X93930000Y-81790000D01*
D27*
G36*
X54138409Y-41426000D02*
X54138409Y-44426000D01*
X54208138Y-44796578D01*
X54311617Y-44957389D01*
X54218738Y-45093322D01*
X54138409Y-45490000D01*
X54138409Y-48490000D01*
X54208138Y-48860578D01*
X54427149Y-49200931D01*
X54761322Y-49429262D01*
X55158000Y-49509591D01*
X60158000Y-49509591D01*
X60528578Y-49439862D01*
X60838028Y-49240736D01*
X61192000Y-49240736D01*
X61192000Y-49311264D01*
X61329017Y-50000094D01*
X61719208Y-50584056D01*
X62303170Y-50974247D01*
X62992000Y-51111264D01*
X63680830Y-50974247D01*
X64264792Y-50584056D01*
X64654983Y-50000094D01*
X64728107Y-49632471D01*
X68049688Y-49632471D01*
X68323145Y-50294286D01*
X68829051Y-50801076D01*
X69490387Y-51075687D01*
X70206471Y-51076312D01*
X70868286Y-50802855D01*
X71375076Y-50296949D01*
X71649687Y-49635613D01*
X71649778Y-49531351D01*
X71743017Y-50000094D01*
X72133208Y-50584056D01*
X72717170Y-50974247D01*
X73406000Y-51111264D01*
X74094830Y-50974247D01*
X74678792Y-50584056D01*
X75068983Y-50000094D01*
X75080879Y-49940289D01*
X75433051Y-50293076D01*
X76094387Y-50567687D01*
X76810471Y-50568312D01*
X77472286Y-50294855D01*
X77768853Y-49998805D01*
X80788881Y-49998805D01*
X80873983Y-50246846D01*
X81484064Y-50356239D01*
X82034017Y-50246846D01*
X82119119Y-49998805D01*
X83234881Y-49998805D01*
X83319983Y-50246846D01*
X83930064Y-50356239D01*
X84480017Y-50246846D01*
X84565119Y-49998805D01*
X83900000Y-49333685D01*
X83234881Y-49998805D01*
X82119119Y-49998805D01*
X81454000Y-49333685D01*
X80788881Y-49998805D01*
X77768853Y-49998805D01*
X77979076Y-49788949D01*
X78253687Y-49127613D01*
X78253974Y-48798064D01*
X79865761Y-48798064D01*
X79975154Y-49348017D01*
X80223195Y-49433119D01*
X80888315Y-48768000D01*
X82019685Y-48768000D01*
X82376820Y-49125134D01*
X82421154Y-49348017D01*
X82669195Y-49433119D01*
X82677000Y-49425314D01*
X82684805Y-49433119D01*
X82932846Y-49348017D01*
X82971856Y-49130458D01*
X83334315Y-48768000D01*
X84465685Y-48768000D01*
X85130805Y-49433119D01*
X85378846Y-49348017D01*
X85418929Y-49124471D01*
X87099688Y-49124471D01*
X87373145Y-49786286D01*
X87879051Y-50293076D01*
X88540387Y-50567687D01*
X89256471Y-50568312D01*
X89918286Y-50294855D01*
X90273179Y-49940581D01*
X90285017Y-50000094D01*
X90675208Y-50584056D01*
X91259170Y-50974247D01*
X91948000Y-51111264D01*
X92636830Y-50974247D01*
X93220792Y-50584056D01*
X93610983Y-50000094D01*
X93703774Y-49533601D01*
X93703688Y-49632471D01*
X93977145Y-50294286D01*
X94483051Y-50801076D01*
X95144387Y-51075687D01*
X95860471Y-51076312D01*
X96522286Y-50802855D01*
X97029076Y-50296949D01*
X97303687Y-49635613D01*
X97304312Y-48919529D01*
X97030855Y-48257714D01*
X96660593Y-47886805D01*
X98140881Y-47886805D01*
X98225983Y-48134846D01*
X98836064Y-48244239D01*
X99386017Y-48134846D01*
X99471119Y-47886805D01*
X98806000Y-47221685D01*
X98140881Y-47886805D01*
X96660593Y-47886805D01*
X96524949Y-47750924D01*
X95863613Y-47476313D01*
X95147529Y-47475688D01*
X94485714Y-47749145D01*
X93978924Y-48255051D01*
X93704313Y-48916387D01*
X93704222Y-49020649D01*
X93610983Y-48551906D01*
X93220792Y-47967944D01*
X92636830Y-47577753D01*
X91948000Y-47440736D01*
X91259170Y-47577753D01*
X90675208Y-47967944D01*
X90577467Y-48114223D01*
X90426855Y-47749714D01*
X89920949Y-47242924D01*
X89259613Y-46968313D01*
X88543529Y-46967688D01*
X87881714Y-47241145D01*
X87374924Y-47747051D01*
X87100313Y-48408387D01*
X87099688Y-49124471D01*
X85418929Y-49124471D01*
X85488239Y-48737936D01*
X85378846Y-48187983D01*
X85130805Y-48102881D01*
X84465685Y-48768000D01*
X83334315Y-48768000D01*
X82977180Y-48410866D01*
X82932846Y-48187983D01*
X82684805Y-48102881D01*
X82677000Y-48110686D01*
X82669195Y-48102881D01*
X82421154Y-48187983D01*
X82382144Y-48405542D01*
X82019685Y-48768000D01*
X80888315Y-48768000D01*
X80223195Y-48102881D01*
X79975154Y-48187983D01*
X79865761Y-48798064D01*
X78253974Y-48798064D01*
X78254312Y-48411529D01*
X77980855Y-47749714D01*
X77768707Y-47537195D01*
X80788881Y-47537195D01*
X81454000Y-48202315D01*
X82119119Y-47537195D01*
X83234881Y-47537195D01*
X83900000Y-48202315D01*
X84565119Y-47537195D01*
X84480017Y-47289154D01*
X83869936Y-47179761D01*
X83319983Y-47289154D01*
X83234881Y-47537195D01*
X82119119Y-47537195D01*
X82034017Y-47289154D01*
X81423936Y-47179761D01*
X80873983Y-47289154D01*
X80788881Y-47537195D01*
X77768707Y-47537195D01*
X77474949Y-47242924D01*
X76813613Y-46968313D01*
X76097529Y-46967688D01*
X75435714Y-47241145D01*
X74928924Y-47747051D01*
X74776488Y-48114157D01*
X74678792Y-47967944D01*
X74094830Y-47577753D01*
X73406000Y-47440736D01*
X72717170Y-47577753D01*
X72133208Y-47967944D01*
X71743017Y-48551906D01*
X71650226Y-49018399D01*
X71650312Y-48919529D01*
X71376855Y-48257714D01*
X70870949Y-47750924D01*
X70209613Y-47476313D01*
X69493529Y-47475688D01*
X68831714Y-47749145D01*
X68324924Y-48255051D01*
X68050313Y-48916387D01*
X68049688Y-49632471D01*
X64728107Y-49632471D01*
X64792000Y-49311264D01*
X64792000Y-49240736D01*
X64654983Y-48551906D01*
X64264792Y-47967944D01*
X64143359Y-47886805D01*
X65628881Y-47886805D01*
X65713983Y-48134846D01*
X66324064Y-48244239D01*
X66874017Y-48134846D01*
X66959119Y-47886805D01*
X66294000Y-47221685D01*
X65628881Y-47886805D01*
X64143359Y-47886805D01*
X63680830Y-47577753D01*
X62992000Y-47440736D01*
X62303170Y-47577753D01*
X61719208Y-47967944D01*
X61329017Y-48551906D01*
X61192000Y-49240736D01*
X60838028Y-49240736D01*
X60868931Y-49220851D01*
X61097262Y-48886678D01*
X61177591Y-48490000D01*
X61177591Y-48482265D01*
X61506056Y-48262792D01*
X61896247Y-47678830D01*
X62033264Y-46990000D01*
X61972808Y-46686064D01*
X64705761Y-46686064D01*
X64815154Y-47236017D01*
X65063195Y-47321119D01*
X65728315Y-46656000D01*
X66859685Y-46656000D01*
X67524805Y-47321119D01*
X67772846Y-47236017D01*
X67871457Y-46686064D01*
X97217761Y-46686064D01*
X97327154Y-47236017D01*
X97575195Y-47321119D01*
X98240315Y-46656000D01*
X99371685Y-46656000D01*
X100036805Y-47321119D01*
X100284846Y-47236017D01*
X100394239Y-46625936D01*
X100284846Y-46075983D01*
X100036805Y-45990881D01*
X99371685Y-46656000D01*
X98240315Y-46656000D01*
X97575195Y-45990881D01*
X97327154Y-46075983D01*
X97217761Y-46686064D01*
X67871457Y-46686064D01*
X67882239Y-46625936D01*
X67772846Y-46075983D01*
X67524805Y-45990881D01*
X66859685Y-46656000D01*
X65728315Y-46656000D01*
X65063195Y-45990881D01*
X64815154Y-46075983D01*
X64705761Y-46686064D01*
X61972808Y-46686064D01*
X61896247Y-46301170D01*
X61506056Y-45717208D01*
X61177591Y-45497735D01*
X61177591Y-45490000D01*
X61165398Y-45425195D01*
X65628881Y-45425195D01*
X66294000Y-46090315D01*
X66959119Y-45425195D01*
X98140881Y-45425195D01*
X98806000Y-46090315D01*
X99471119Y-45425195D01*
X99386017Y-45177154D01*
X98775936Y-45067761D01*
X98225983Y-45177154D01*
X98140881Y-45425195D01*
X66959119Y-45425195D01*
X66874017Y-45177154D01*
X66263936Y-45067761D01*
X65713983Y-45177154D01*
X65628881Y-45425195D01*
X61165398Y-45425195D01*
X61107862Y-45119422D01*
X61004383Y-44958611D01*
X61097262Y-44822678D01*
X61177591Y-44426000D01*
X61177591Y-44418265D01*
X61506056Y-44198792D01*
X61896247Y-43614830D01*
X61934323Y-43423410D01*
X62192000Y-43475591D01*
X63792000Y-43475591D01*
X64162578Y-43405862D01*
X64502931Y-43186851D01*
X64731262Y-42852678D01*
X64767346Y-42674488D01*
X65273051Y-43181076D01*
X65934387Y-43455687D01*
X66650471Y-43456312D01*
X67312286Y-43182855D01*
X67819076Y-42676949D01*
X68093687Y-42015613D01*
X68093778Y-41911351D01*
X68187017Y-42380094D01*
X68577208Y-42964056D01*
X69161170Y-43354247D01*
X69850000Y-43491264D01*
X70538830Y-43354247D01*
X71122792Y-42964056D01*
X71174409Y-42886805D01*
X72740881Y-42886805D01*
X72825983Y-43134846D01*
X73436064Y-43244239D01*
X73986017Y-43134846D01*
X74071119Y-42886805D01*
X73406000Y-42221685D01*
X72740881Y-42886805D01*
X71174409Y-42886805D01*
X71512983Y-42380094D01*
X71650000Y-41691264D01*
X71650000Y-41667770D01*
X71854874Y-41872643D01*
X71927154Y-42236017D01*
X72175195Y-42321119D01*
X72840315Y-41656000D01*
X72557472Y-41373157D01*
X72855629Y-41075000D01*
X73390685Y-41075000D01*
X73406000Y-41090315D01*
X73421315Y-41075000D01*
X73956371Y-41075000D01*
X74254528Y-41373157D01*
X73971685Y-41656000D01*
X74636805Y-42321119D01*
X74884846Y-42236017D01*
X74948446Y-41881323D01*
X75409677Y-41420093D01*
X75064584Y-41075000D01*
X78794552Y-41075000D01*
X78728738Y-41171322D01*
X78648409Y-41568000D01*
X78648409Y-43268000D01*
X78718138Y-43638578D01*
X78937149Y-43978931D01*
X79271322Y-44207262D01*
X79668000Y-44287591D01*
X81368000Y-44287591D01*
X81738578Y-44217862D01*
X82078931Y-43998851D01*
X82086707Y-43987471D01*
X82350036Y-44163421D01*
X83058000Y-44304244D01*
X83765964Y-44163421D01*
X84366148Y-43762392D01*
X84429217Y-43668002D01*
X84613466Y-43668002D01*
X84935631Y-43883241D01*
X85173000Y-43771336D01*
X85173000Y-42843000D01*
X86023000Y-42843000D01*
X86023000Y-43771336D01*
X86260369Y-43883241D01*
X86698255Y-43590689D01*
X87063272Y-43080374D01*
X86978528Y-42886805D01*
X91282881Y-42886805D01*
X91367983Y-43134846D01*
X91978064Y-43244239D01*
X92528017Y-43134846D01*
X92613119Y-42886805D01*
X91948000Y-42221685D01*
X91282881Y-42886805D01*
X86978528Y-42886805D01*
X86959350Y-42843000D01*
X86023000Y-42843000D01*
X85173000Y-42843000D01*
X84830672Y-42843000D01*
X84908000Y-42454244D01*
X84908000Y-42381756D01*
X84830672Y-41993000D01*
X85173000Y-41993000D01*
X85173000Y-41568000D01*
X86023000Y-41568000D01*
X86023000Y-41993000D01*
X86959350Y-41993000D01*
X87063272Y-41755626D01*
X86848002Y-41454666D01*
X86848002Y-41075000D01*
X90289416Y-41075000D01*
X89944323Y-41420093D01*
X90396874Y-41872643D01*
X90469154Y-42236017D01*
X90717195Y-42321119D01*
X91382315Y-41656000D01*
X91099472Y-41373157D01*
X91397629Y-41075000D01*
X91932685Y-41075000D01*
X91948000Y-41090315D01*
X91963315Y-41075000D01*
X92498371Y-41075000D01*
X92796528Y-41373157D01*
X92513685Y-41656000D01*
X93178805Y-42321119D01*
X93426846Y-42236017D01*
X93490446Y-41881323D01*
X93704000Y-41667770D01*
X93704000Y-41691264D01*
X93841017Y-42380094D01*
X94231208Y-42964056D01*
X94815170Y-43354247D01*
X95504000Y-43491264D01*
X96192830Y-43354247D01*
X96776792Y-42964056D01*
X97161177Y-42388783D01*
X97279145Y-42674286D01*
X97785051Y-43181076D01*
X98446387Y-43455687D01*
X99162471Y-43456312D01*
X99824286Y-43182855D01*
X100134273Y-42873409D01*
X100323149Y-43166931D01*
X100657322Y-43395262D01*
X101054000Y-43475591D01*
X102654000Y-43475591D01*
X102984839Y-43413339D01*
X103339944Y-43944792D01*
X103668409Y-44164265D01*
X103668409Y-44172000D01*
X103738138Y-44542578D01*
X103957149Y-44882931D01*
X104064958Y-44956594D01*
X103977069Y-45013149D01*
X103748738Y-45347322D01*
X103668409Y-45744000D01*
X103668409Y-45751735D01*
X103339944Y-45971208D01*
X102949753Y-46555170D01*
X102812736Y-47244000D01*
X102930671Y-47836900D01*
X102542830Y-47577753D01*
X101854000Y-47440736D01*
X101165170Y-47577753D01*
X100581208Y-47967944D01*
X100191017Y-48551906D01*
X100054000Y-49240736D01*
X100054000Y-49311264D01*
X100191017Y-50000094D01*
X100581208Y-50584056D01*
X101165170Y-50974247D01*
X101854000Y-51111264D01*
X102542830Y-50974247D01*
X103126792Y-50584056D01*
X103516983Y-50000094D01*
X103654000Y-49311264D01*
X103654000Y-49240736D01*
X103536065Y-48647836D01*
X103668409Y-48736265D01*
X103668409Y-48744000D01*
X103738138Y-49114578D01*
X103957149Y-49454931D01*
X104291322Y-49683262D01*
X104688000Y-49763591D01*
X109688000Y-49763591D01*
X110058578Y-49693862D01*
X110398931Y-49474851D01*
X110627262Y-49140678D01*
X110707591Y-48744000D01*
X110707591Y-48183500D01*
X111550000Y-48183500D01*
X111550000Y-48894775D01*
X111665398Y-49173372D01*
X111878627Y-49386601D01*
X112157224Y-49502000D01*
X113368500Y-49502000D01*
X113558000Y-49312500D01*
X113558000Y-47994000D01*
X111739500Y-47994000D01*
X111550000Y-48183500D01*
X110707591Y-48183500D01*
X110707591Y-47008093D01*
X115344323Y-47008093D01*
X115580230Y-47244000D01*
X115344323Y-47479907D01*
X116058000Y-48193584D01*
X116058000Y-49312500D01*
X116247500Y-49502000D01*
X117458776Y-49502000D01*
X117737373Y-49386601D01*
X117950602Y-49173372D01*
X118066000Y-48894775D01*
X118066000Y-47396315D01*
X118578805Y-47909119D01*
X118826846Y-47824017D01*
X118936239Y-47213936D01*
X118826846Y-46663983D01*
X118578805Y-46578881D01*
X118066000Y-47091685D01*
X118066000Y-45593225D01*
X117950602Y-45314628D01*
X117737373Y-45101399D01*
X117458776Y-44986000D01*
X116247500Y-44986000D01*
X116058000Y-45175500D01*
X116058000Y-46294416D01*
X115344323Y-47008093D01*
X110707591Y-47008093D01*
X110707591Y-45744000D01*
X110679221Y-45593225D01*
X111550000Y-45593225D01*
X111550000Y-46304500D01*
X111739500Y-46494000D01*
X113558000Y-46494000D01*
X113558000Y-45175500D01*
X113368500Y-44986000D01*
X112157224Y-44986000D01*
X111878627Y-45101399D01*
X111665398Y-45314628D01*
X111550000Y-45593225D01*
X110679221Y-45593225D01*
X110637862Y-45373422D01*
X110418851Y-45033069D01*
X110311042Y-44959406D01*
X110398931Y-44902851D01*
X110627262Y-44568678D01*
X110707591Y-44172000D01*
X110707591Y-43611500D01*
X111550000Y-43611500D01*
X111550000Y-44322775D01*
X111665398Y-44601372D01*
X111878627Y-44814601D01*
X112157224Y-44930000D01*
X113368500Y-44930000D01*
X113558000Y-44740500D01*
X113558000Y-43422000D01*
X111739500Y-43422000D01*
X111550000Y-43611500D01*
X110707591Y-43611500D01*
X110707591Y-41172000D01*
X110689339Y-41075000D01*
X111550000Y-41075000D01*
X111550000Y-41732500D01*
X111739500Y-41922000D01*
X113558000Y-41922000D01*
X113558000Y-41402000D01*
X116058000Y-41402000D01*
X116058000Y-41722416D01*
X115344323Y-42436093D01*
X115580230Y-42672000D01*
X115344323Y-42907907D01*
X116058000Y-43621584D01*
X116058000Y-44740500D01*
X116247500Y-44930000D01*
X117458776Y-44930000D01*
X117737373Y-44814601D01*
X117950602Y-44601372D01*
X118066000Y-44322775D01*
X118066000Y-42824315D01*
X118578805Y-43337119D01*
X118725270Y-43286867D01*
X118715561Y-43496996D01*
X118775382Y-43797737D01*
X119085232Y-44147001D01*
X120232233Y-43000000D01*
X120218091Y-42985858D01*
X121985858Y-41218091D01*
X122000000Y-41232233D01*
X122014143Y-41218091D01*
X123781910Y-42985858D01*
X123767767Y-43000000D01*
X123781910Y-43014143D01*
X122014143Y-44781910D01*
X122000000Y-44767767D01*
X120852999Y-45914768D01*
X121202263Y-46224618D01*
X122496996Y-46284439D01*
X122797737Y-46224618D01*
X123146999Y-45914769D01*
X123461539Y-46229309D01*
X123925000Y-45765848D01*
X123925000Y-88908970D01*
X123124130Y-88108100D01*
X122855755Y-88376475D01*
X122739804Y-88253225D01*
X121632344Y-88179200D01*
X121260196Y-88253225D01*
X120983830Y-88546989D01*
X122000000Y-89563159D01*
X122179606Y-89383554D01*
X123616447Y-90820395D01*
X123436841Y-91000000D01*
X123616447Y-91179606D01*
X122179606Y-92616447D01*
X122000000Y-92436841D01*
X121820395Y-92616447D01*
X120383554Y-91179606D01*
X120563159Y-91000000D01*
X119546989Y-89983830D01*
X119253225Y-90260196D01*
X119179200Y-91367656D01*
X119253225Y-91739804D01*
X119376475Y-91855755D01*
X119108100Y-92124130D01*
X119908970Y-92925000D01*
X45091030Y-92925000D01*
X45891900Y-92124130D01*
X45623525Y-91855755D01*
X45746775Y-91739804D01*
X45820800Y-90632344D01*
X45746775Y-90260196D01*
X45453011Y-89983830D01*
X44436841Y-91000000D01*
X44616447Y-91179606D01*
X43179606Y-92616447D01*
X43000000Y-92436841D01*
X42820395Y-92616447D01*
X41383554Y-91179606D01*
X41563159Y-91000000D01*
X41383554Y-90820395D01*
X42820395Y-89383554D01*
X43000000Y-89563159D01*
X44016170Y-88546989D01*
X43739804Y-88253225D01*
X42632344Y-88179200D01*
X42260196Y-88253225D01*
X42144245Y-88376475D01*
X41875870Y-88108100D01*
X41075000Y-88908970D01*
X41075000Y-83485981D01*
X45249645Y-83485981D01*
X45561081Y-84239715D01*
X46137252Y-84816892D01*
X46890441Y-85129643D01*
X47705981Y-85130355D01*
X48459715Y-84818919D01*
X49036892Y-84242748D01*
X49266150Y-83690631D01*
X58723335Y-83690631D01*
X58897998Y-83952061D01*
X58897998Y-84618000D01*
X59430000Y-84618000D01*
X59430000Y-84710775D01*
X59545398Y-84989372D01*
X59679743Y-85123717D01*
X59511714Y-85193145D01*
X59004924Y-85699051D01*
X58730313Y-86360387D01*
X58729688Y-87076471D01*
X59003145Y-87738286D01*
X59509051Y-88245076D01*
X60170387Y-88519687D01*
X60886471Y-88520312D01*
X61548286Y-88246855D01*
X61779960Y-88015585D01*
X62009051Y-88245076D01*
X62670387Y-88519687D01*
X63386471Y-88520312D01*
X64048286Y-88246855D01*
X64068548Y-88226628D01*
X65539702Y-88226628D01*
X65801005Y-88859029D01*
X66284426Y-89343295D01*
X66916370Y-89605701D01*
X67600628Y-89606298D01*
X68233029Y-89344995D01*
X68530094Y-89048448D01*
X68824426Y-89343295D01*
X69456370Y-89605701D01*
X70140628Y-89606298D01*
X70773029Y-89344995D01*
X71070094Y-89048448D01*
X71364426Y-89343295D01*
X71996370Y-89605701D01*
X72680628Y-89606298D01*
X73313029Y-89344995D01*
X73797295Y-88861574D01*
X74059701Y-88229630D01*
X74060077Y-87798000D01*
X76820409Y-87798000D01*
X76820409Y-89498000D01*
X76890138Y-89868578D01*
X77109149Y-90208931D01*
X77443322Y-90437262D01*
X77840000Y-90517591D01*
X79540000Y-90517591D01*
X79910578Y-90447862D01*
X80250931Y-90228851D01*
X80404426Y-90004204D01*
X80567631Y-90113241D01*
X80805000Y-90001336D01*
X80805000Y-89073000D01*
X81655000Y-89073000D01*
X81655000Y-90001336D01*
X81892369Y-90113241D01*
X82330255Y-89820689D01*
X82695272Y-89310374D01*
X82591350Y-89073000D01*
X81655000Y-89073000D01*
X80805000Y-89073000D01*
X80559591Y-89073000D01*
X80559591Y-88223000D01*
X80805000Y-88223000D01*
X80805000Y-87294664D01*
X81655000Y-87294664D01*
X81655000Y-88223000D01*
X82591350Y-88223000D01*
X82695272Y-87985626D01*
X82330255Y-87475311D01*
X81892369Y-87182759D01*
X81655000Y-87294664D01*
X80805000Y-87294664D01*
X80567631Y-87182759D01*
X80403142Y-87292655D01*
X80270851Y-87087069D01*
X79936678Y-86858738D01*
X79540000Y-86778409D01*
X77840000Y-86778409D01*
X77469422Y-86848138D01*
X77129069Y-87067149D01*
X76900738Y-87401322D01*
X76820409Y-87798000D01*
X74060077Y-87798000D01*
X74060298Y-87545372D01*
X73798995Y-86912971D01*
X73315574Y-86428705D01*
X72683630Y-86166299D01*
X71999372Y-86165702D01*
X71366971Y-86427005D01*
X71069906Y-86723552D01*
X70775574Y-86428705D01*
X70143630Y-86166299D01*
X69459372Y-86165702D01*
X68826971Y-86427005D01*
X68529906Y-86723552D01*
X68235574Y-86428705D01*
X67603630Y-86166299D01*
X66919372Y-86165702D01*
X66286971Y-86427005D01*
X65802705Y-86910426D01*
X65540299Y-87542370D01*
X65539702Y-88226628D01*
X64068548Y-88226628D01*
X64555076Y-87740949D01*
X64829687Y-87079613D01*
X64830312Y-86363529D01*
X64556855Y-85701714D01*
X64173810Y-85318000D01*
X65338776Y-85318000D01*
X65617373Y-85202601D01*
X65830602Y-84989372D01*
X65946000Y-84710775D01*
X65946000Y-83999500D01*
X65756500Y-83810000D01*
X63938000Y-83810000D01*
X63938000Y-84330000D01*
X61438000Y-84330000D01*
X61438000Y-83892193D01*
X61572665Y-83690631D01*
X61456737Y-83460000D01*
X60548000Y-83460000D01*
X60548000Y-83810000D01*
X59748000Y-83810000D01*
X59748000Y-83460000D01*
X58839263Y-83460000D01*
X58723335Y-83690631D01*
X49266150Y-83690631D01*
X49349643Y-83489559D01*
X49350042Y-83033030D01*
X49873149Y-83085592D01*
X50324639Y-82995784D01*
X50518301Y-82720961D01*
X49652000Y-81854660D01*
X49284304Y-82222356D01*
X49078833Y-82016885D01*
X49038919Y-81920285D01*
X48839733Y-81720751D01*
X51729579Y-81720751D01*
X51806928Y-81966753D01*
X52396546Y-82077453D01*
X52953072Y-81966753D01*
X53030421Y-81720751D01*
X52380000Y-81070330D01*
X51729579Y-81720751D01*
X48839733Y-81720751D01*
X48462748Y-81343108D01*
X48364089Y-81302141D01*
X48223644Y-81161696D01*
X48591340Y-80794000D01*
X47725039Y-79927699D01*
X47450216Y-80121361D01*
X47360408Y-81015149D01*
X47363373Y-81030055D01*
X46894019Y-81029645D01*
X46140285Y-81341081D01*
X45563108Y-81917252D01*
X45250357Y-82670441D01*
X45249645Y-83485981D01*
X41075000Y-83485981D01*
X41075000Y-73325981D01*
X45249645Y-73325981D01*
X45561081Y-74079715D01*
X46137252Y-74656892D01*
X46890441Y-74969643D01*
X47132409Y-74969854D01*
X47132409Y-77214000D01*
X47202138Y-77584578D01*
X47421149Y-77924931D01*
X47755322Y-78153262D01*
X48152000Y-78233591D01*
X50629795Y-78233591D01*
X50629696Y-78346569D01*
X50753764Y-78646836D01*
X50392579Y-78285651D01*
X50107802Y-78570428D01*
X49430851Y-78502408D01*
X48979361Y-78592216D01*
X48785699Y-78867039D01*
X49652000Y-79733340D01*
X50019696Y-79365644D01*
X50900725Y-80246673D01*
X50842547Y-80556546D01*
X50860394Y-80646266D01*
X50712660Y-80794000D01*
X50933759Y-81015099D01*
X50953247Y-81113072D01*
X51067727Y-81149067D01*
X51578961Y-81660301D01*
X51853784Y-81466639D01*
X51943592Y-80572851D01*
X51937058Y-80540000D01*
X52910330Y-80540000D01*
X53560751Y-81190421D01*
X53806753Y-81113072D01*
X53917453Y-80523454D01*
X53806753Y-79966928D01*
X53560751Y-79889579D01*
X52910330Y-80540000D01*
X51937058Y-80540000D01*
X51893375Y-80320395D01*
X52160349Y-80053421D01*
X51733244Y-79626316D01*
X52030376Y-79749696D01*
X52120104Y-79749774D01*
X52380000Y-80009670D01*
X52639442Y-79750228D01*
X52726569Y-79750304D01*
X53370001Y-79484443D01*
X53862713Y-78992590D01*
X54129696Y-78349624D01*
X54130304Y-77653431D01*
X53864443Y-77009999D01*
X53372590Y-76517287D01*
X52729624Y-76250304D01*
X52171591Y-76249817D01*
X52171591Y-75970000D01*
X55063756Y-75970000D01*
X55204579Y-76677964D01*
X55580118Y-77240000D01*
X55204579Y-77802036D01*
X55063756Y-78510000D01*
X55204579Y-79217964D01*
X55380649Y-79481472D01*
X55160738Y-79803322D01*
X55080409Y-80200000D01*
X55080409Y-81900000D01*
X55150138Y-82270578D01*
X55369149Y-82610931D01*
X55703322Y-82839262D01*
X56100000Y-82919591D01*
X57800000Y-82919591D01*
X58170578Y-82849862D01*
X58510931Y-82630851D01*
X58739262Y-82296678D01*
X58819591Y-81900000D01*
X58819591Y-80246002D01*
X58897998Y-80246002D01*
X58897998Y-80554000D01*
X59430000Y-80554000D01*
X59430000Y-80646775D01*
X59545398Y-80925372D01*
X59648026Y-81028000D01*
X59545398Y-81130628D01*
X59430000Y-81409225D01*
X59430000Y-81502000D01*
X58897998Y-81502000D01*
X58897998Y-82167939D01*
X58723335Y-82429369D01*
X58839263Y-82660000D01*
X59748000Y-82660000D01*
X59748000Y-82310000D01*
X60548000Y-82310000D01*
X60548000Y-82660000D01*
X61456737Y-82660000D01*
X61572665Y-82429369D01*
X61438000Y-82227807D01*
X61438000Y-79828193D01*
X61492913Y-79746000D01*
X63938000Y-79746000D01*
X63938000Y-82310000D01*
X65756500Y-82310000D01*
X65946000Y-82120500D01*
X65946000Y-81409225D01*
X65830602Y-81130628D01*
X65727974Y-81028000D01*
X65830602Y-80925372D01*
X65946000Y-80646775D01*
X65946000Y-79935500D01*
X65756500Y-79746000D01*
X63938000Y-79746000D01*
X61492913Y-79746000D01*
X61572665Y-79626631D01*
X61456737Y-79396000D01*
X60548000Y-79396000D01*
X60548000Y-79746000D01*
X59748000Y-79746000D01*
X59748000Y-79396000D01*
X59348000Y-79396000D01*
X59348000Y-78596000D01*
X59748000Y-78596000D01*
X59748000Y-78246000D01*
X60548000Y-78246000D01*
X60548000Y-78596000D01*
X61456737Y-78596000D01*
X61572665Y-78365369D01*
X61438000Y-78163807D01*
X61438000Y-76927500D01*
X63938000Y-76927500D01*
X63938000Y-78246000D01*
X65756500Y-78246000D01*
X65946000Y-78056500D01*
X65946000Y-77496000D01*
X66788409Y-77496000D01*
X66788409Y-80496000D01*
X66858138Y-80866578D01*
X66961617Y-81027389D01*
X66868738Y-81163322D01*
X66788409Y-81560000D01*
X66788409Y-84560000D01*
X66858138Y-84930578D01*
X67077149Y-85270931D01*
X67411322Y-85499262D01*
X67808000Y-85579591D01*
X72808000Y-85579591D01*
X73178578Y-85509862D01*
X73518931Y-85290851D01*
X73584784Y-85194471D01*
X76889688Y-85194471D01*
X77163145Y-85856286D01*
X77669051Y-86363076D01*
X78330387Y-86637687D01*
X79046471Y-86638312D01*
X79708286Y-86364855D01*
X80093114Y-85980698D01*
X80954093Y-86841677D01*
X81406643Y-86389126D01*
X81770017Y-86316846D01*
X81855119Y-86068805D01*
X81190000Y-85403685D01*
X80907157Y-85686528D01*
X80468725Y-85248096D01*
X80489687Y-85197613D01*
X80489884Y-84972431D01*
X80624315Y-84838000D01*
X81755685Y-84838000D01*
X82420805Y-85503119D01*
X82495474Y-85477500D01*
X85414000Y-85477500D01*
X85414000Y-85888776D01*
X85529399Y-86167373D01*
X85742628Y-86380602D01*
X86021225Y-86496000D01*
X86432500Y-86496000D01*
X86622000Y-86306500D01*
X86622000Y-85288000D01*
X87522000Y-85288000D01*
X87522000Y-86306500D01*
X87711500Y-86496000D01*
X88122775Y-86496000D01*
X88401372Y-86380602D01*
X88614601Y-86167373D01*
X88730000Y-85888776D01*
X88730000Y-85477500D01*
X88540500Y-85288000D01*
X87522000Y-85288000D01*
X86622000Y-85288000D01*
X85603500Y-85288000D01*
X85414000Y-85477500D01*
X82495474Y-85477500D01*
X82668846Y-85418017D01*
X82778239Y-84807936D01*
X82668846Y-84257983D01*
X82420805Y-84172881D01*
X81755685Y-84838000D01*
X80624315Y-84838000D01*
X80490118Y-84703803D01*
X80490312Y-84481529D01*
X80468321Y-84428308D01*
X80907157Y-83989472D01*
X81190000Y-84272315D01*
X81855119Y-83607195D01*
X81770017Y-83359154D01*
X81415323Y-83295554D01*
X80954093Y-82834323D01*
X80092887Y-83695529D01*
X79710949Y-83312924D01*
X79049613Y-83038313D01*
X78333529Y-83037688D01*
X77671714Y-83311145D01*
X77164924Y-83817051D01*
X76890313Y-84478387D01*
X76889688Y-85194471D01*
X73584784Y-85194471D01*
X73747262Y-84956678D01*
X73818123Y-84606756D01*
X73866286Y-84586855D01*
X74373076Y-84080949D01*
X74647687Y-83419613D01*
X74647898Y-83177694D01*
X75028387Y-83335687D01*
X75744471Y-83336312D01*
X76406286Y-83062855D01*
X76913076Y-82556949D01*
X77187687Y-81895613D01*
X77188312Y-81179529D01*
X76914855Y-80517714D01*
X76605409Y-80207727D01*
X76898931Y-80018851D01*
X77127262Y-79684678D01*
X77207591Y-79288000D01*
X77207591Y-78488000D01*
X81172736Y-78488000D01*
X81309753Y-79176830D01*
X81699944Y-79760792D01*
X82075903Y-80012000D01*
X81699944Y-80263208D01*
X81309753Y-80847170D01*
X81172736Y-81536000D01*
X81309753Y-82224830D01*
X81699944Y-82808792D01*
X82283906Y-83198983D01*
X82972736Y-83336000D01*
X83043264Y-83336000D01*
X83732094Y-83198983D01*
X84316056Y-82808792D01*
X84405937Y-82674275D01*
X85171671Y-82674275D01*
X85460319Y-83372857D01*
X85562655Y-83475371D01*
X85529399Y-83508627D01*
X85414000Y-83787224D01*
X85414000Y-84198500D01*
X85603500Y-84388000D01*
X86622000Y-84388000D01*
X86622000Y-84168433D01*
X86692409Y-84197669D01*
X87448275Y-84198329D01*
X87522000Y-84167866D01*
X87522000Y-84388000D01*
X88540500Y-84388000D01*
X88730000Y-84198500D01*
X88730000Y-83787224D01*
X88614601Y-83508627D01*
X88581635Y-83475661D01*
X88681802Y-83375669D01*
X88971669Y-82677591D01*
X88972329Y-81921725D01*
X88683681Y-81223143D01*
X88149669Y-80688198D01*
X87451591Y-80398331D01*
X86695725Y-80397671D01*
X85997143Y-80686319D01*
X85462198Y-81220331D01*
X85172331Y-81918409D01*
X85171671Y-82674275D01*
X84405937Y-82674275D01*
X84706247Y-82224830D01*
X84843264Y-81536000D01*
X84706247Y-80847170D01*
X84316056Y-80263208D01*
X83940097Y-80012000D01*
X84316056Y-79760792D01*
X84401522Y-79632884D01*
X84781051Y-80013076D01*
X85442387Y-80287687D01*
X86158471Y-80288312D01*
X86820286Y-80014855D01*
X87205114Y-79630698D01*
X88066093Y-80491677D01*
X88518643Y-80039126D01*
X88882017Y-79966846D01*
X88967119Y-79718805D01*
X88302000Y-79053685D01*
X88019157Y-79336528D01*
X87580725Y-78898096D01*
X87601687Y-78847613D01*
X87601884Y-78622431D01*
X87736315Y-78488000D01*
X88867685Y-78488000D01*
X89532805Y-79153119D01*
X89780846Y-79068017D01*
X89854338Y-78658155D01*
X90081944Y-78998792D01*
X90410409Y-79218265D01*
X90410409Y-79226000D01*
X90480138Y-79596578D01*
X90583617Y-79757389D01*
X90490738Y-79893322D01*
X90410409Y-80290000D01*
X90410409Y-80297735D01*
X90081944Y-80517208D01*
X89691753Y-81101170D01*
X89554736Y-81790000D01*
X89691753Y-82478830D01*
X90081944Y-83062792D01*
X90410409Y-83282265D01*
X90410409Y-83290000D01*
X90480138Y-83660578D01*
X90583617Y-83821389D01*
X90490738Y-83957322D01*
X90419877Y-84307244D01*
X90371714Y-84327145D01*
X89864924Y-84833051D01*
X89590313Y-85494387D01*
X89589688Y-86210471D01*
X89863145Y-86872286D01*
X90369051Y-87379076D01*
X90419033Y-87399830D01*
X90480138Y-87724578D01*
X90583617Y-87885389D01*
X90490738Y-88021322D01*
X90419877Y-88371244D01*
X90371714Y-88391145D01*
X89864924Y-88897051D01*
X89590313Y-89558387D01*
X89589688Y-90274471D01*
X89863145Y-90936286D01*
X90369051Y-91443076D01*
X90419033Y-91463830D01*
X90480138Y-91788578D01*
X90699149Y-92128931D01*
X91033322Y-92357262D01*
X91430000Y-92437591D01*
X96430000Y-92437591D01*
X96800578Y-92367862D01*
X97140931Y-92148851D01*
X97369262Y-91814678D01*
X97449591Y-91418000D01*
X97449591Y-88418000D01*
X97379862Y-88047422D01*
X97276383Y-87886611D01*
X97369262Y-87750678D01*
X97449591Y-87354000D01*
X97449591Y-84354000D01*
X97379862Y-83983422D01*
X97276383Y-83822611D01*
X97369262Y-83686678D01*
X97449591Y-83290000D01*
X97449591Y-80290000D01*
X97379862Y-79919422D01*
X97276383Y-79758611D01*
X97369262Y-79622678D01*
X97449591Y-79226000D01*
X97449591Y-76226000D01*
X98030409Y-76226000D01*
X98030409Y-79226000D01*
X98100138Y-79596578D01*
X98203617Y-79757389D01*
X98110738Y-79893322D01*
X98030409Y-80290000D01*
X98030409Y-83290000D01*
X98100138Y-83660578D01*
X98203617Y-83821389D01*
X98110738Y-83957322D01*
X98030409Y-84354000D01*
X98030409Y-87354000D01*
X98100138Y-87724578D01*
X98203617Y-87885389D01*
X98110738Y-88021322D01*
X98030409Y-88418000D01*
X98030409Y-91418000D01*
X98100138Y-91788578D01*
X98319149Y-92128931D01*
X98653322Y-92357262D01*
X99050000Y-92437591D01*
X104050000Y-92437591D01*
X104420578Y-92367862D01*
X104760931Y-92148851D01*
X104989262Y-91814678D01*
X105069591Y-91418000D01*
X105069591Y-91410265D01*
X105398056Y-91190792D01*
X105788247Y-90606830D01*
X105925264Y-89918000D01*
X105788247Y-89229170D01*
X105398056Y-88645208D01*
X105069591Y-88425735D01*
X105069591Y-88418000D01*
X104999862Y-88047422D01*
X104896383Y-87886611D01*
X104989262Y-87750678D01*
X105069591Y-87354000D01*
X105069591Y-87346265D01*
X105398056Y-87126792D01*
X105788247Y-86542830D01*
X105925264Y-85854000D01*
X105788247Y-85165170D01*
X105398056Y-84581208D01*
X105069591Y-84361735D01*
X105069591Y-84354000D01*
X104999862Y-83983422D01*
X104896383Y-83822611D01*
X104989262Y-83686678D01*
X105060123Y-83336756D01*
X105108286Y-83316855D01*
X105615076Y-82810949D01*
X105734199Y-82524069D01*
X106205792Y-82839177D01*
X106913756Y-82980000D01*
X106986244Y-82980000D01*
X107694208Y-82839177D01*
X108294392Y-82438148D01*
X108695421Y-81837964D01*
X108836244Y-81130000D01*
X108695421Y-80422036D01*
X108319882Y-79860000D01*
X108695421Y-79297964D01*
X108836244Y-78590000D01*
X108787823Y-78346569D01*
X109869696Y-78346569D01*
X110135557Y-78990001D01*
X110627410Y-79482713D01*
X111270376Y-79749696D01*
X111828409Y-79750183D01*
X111828409Y-81786000D01*
X111898138Y-82156578D01*
X112117149Y-82496931D01*
X112451322Y-82725262D01*
X112848000Y-82805591D01*
X114650239Y-82805591D01*
X114649645Y-83485981D01*
X114961081Y-84239715D01*
X115537252Y-84816892D01*
X116290441Y-85129643D01*
X117105981Y-85130355D01*
X117859715Y-84818919D01*
X118436892Y-84242748D01*
X118749643Y-83489559D01*
X118750355Y-82674019D01*
X118438919Y-81920285D01*
X117862748Y-81343108D01*
X117109559Y-81030357D01*
X116867591Y-81030146D01*
X116867591Y-78786000D01*
X116797862Y-78415422D01*
X116578851Y-78075069D01*
X116244678Y-77846738D01*
X115848000Y-77766409D01*
X113370205Y-77766409D01*
X113370304Y-77653431D01*
X113246236Y-77353164D01*
X113607421Y-77714349D01*
X113892198Y-77429572D01*
X114569149Y-77497592D01*
X115020639Y-77407784D01*
X115214301Y-77132961D01*
X114348000Y-76266660D01*
X113980304Y-76634356D01*
X113099275Y-75753327D01*
X113157453Y-75443454D01*
X113139606Y-75353734D01*
X113287340Y-75206000D01*
X113066241Y-74984901D01*
X113046753Y-74886928D01*
X112932273Y-74850933D01*
X112421039Y-74339699D01*
X112146216Y-74533361D01*
X112056408Y-75427149D01*
X112106625Y-75679605D01*
X111839651Y-75946579D01*
X112266756Y-76373684D01*
X111969624Y-76250304D01*
X111879896Y-76250226D01*
X111620000Y-75990330D01*
X111360558Y-76249772D01*
X111273431Y-76249696D01*
X110629999Y-76515557D01*
X110137287Y-77007410D01*
X109870304Y-77650376D01*
X109869696Y-78346569D01*
X108787823Y-78346569D01*
X108695421Y-77882036D01*
X108519351Y-77618528D01*
X108739262Y-77296678D01*
X108819591Y-76900000D01*
X108819591Y-75476546D01*
X110082547Y-75476546D01*
X110193247Y-76033072D01*
X110439249Y-76110421D01*
X111089670Y-75460000D01*
X110439249Y-74809579D01*
X110193247Y-74886928D01*
X110082547Y-75476546D01*
X108819591Y-75476546D01*
X108819591Y-75200000D01*
X108749862Y-74829422D01*
X108530851Y-74489069D01*
X108223770Y-74279249D01*
X110969579Y-74279249D01*
X111620000Y-74929670D01*
X112270421Y-74279249D01*
X112193072Y-74033247D01*
X111603454Y-73922547D01*
X111046928Y-74033247D01*
X110969579Y-74279249D01*
X108223770Y-74279249D01*
X108196678Y-74260738D01*
X107800000Y-74180409D01*
X106100000Y-74180409D01*
X105729422Y-74250138D01*
X105389069Y-74469149D01*
X105160738Y-74803322D01*
X105080409Y-75200000D01*
X105080409Y-76188243D01*
X105060967Y-76180170D01*
X104999862Y-75855422D01*
X104780851Y-75515069D01*
X104446678Y-75286738D01*
X104050000Y-75206409D01*
X99050000Y-75206409D01*
X98679422Y-75276138D01*
X98339069Y-75495149D01*
X98110738Y-75829322D01*
X98030409Y-76226000D01*
X97449591Y-76226000D01*
X97379862Y-75855422D01*
X97160851Y-75515069D01*
X96826678Y-75286738D01*
X96430000Y-75206409D01*
X91430000Y-75206409D01*
X91059422Y-75276138D01*
X90719069Y-75495149D01*
X90490738Y-75829322D01*
X90410409Y-76226000D01*
X90410409Y-76233735D01*
X90081944Y-76453208D01*
X89691753Y-77037170D01*
X89554736Y-77726000D01*
X89577025Y-77838053D01*
X89532805Y-77822881D01*
X88867685Y-78488000D01*
X87736315Y-78488000D01*
X87602118Y-78353803D01*
X87602312Y-78131529D01*
X87580321Y-78078308D01*
X88019157Y-77639472D01*
X88302000Y-77922315D01*
X88967119Y-77257195D01*
X88882017Y-77009154D01*
X88527323Y-76945554D01*
X88066093Y-76484323D01*
X87204887Y-77345529D01*
X86822949Y-76962924D01*
X86161613Y-76688313D01*
X85445529Y-76687688D01*
X84783714Y-76961145D01*
X84401343Y-77342849D01*
X84316056Y-77215208D01*
X83732094Y-76825017D01*
X83043264Y-76688000D01*
X82972736Y-76688000D01*
X82283906Y-76825017D01*
X81699944Y-77215208D01*
X81309753Y-77799170D01*
X81172736Y-78488000D01*
X77207591Y-78488000D01*
X77207591Y-77688000D01*
X77137862Y-77317422D01*
X76918851Y-76977069D01*
X76584678Y-76748738D01*
X76188000Y-76668409D01*
X74588000Y-76668409D01*
X74217422Y-76738138D01*
X73877069Y-76957149D01*
X73758776Y-77130277D01*
X73757862Y-77125422D01*
X73538851Y-76785069D01*
X73204678Y-76556738D01*
X72808000Y-76476409D01*
X67808000Y-76476409D01*
X67437422Y-76546138D01*
X67097069Y-76765149D01*
X66868738Y-77099322D01*
X66788409Y-77496000D01*
X65946000Y-77496000D01*
X65946000Y-77345225D01*
X65830602Y-77066628D01*
X65617373Y-76853399D01*
X65338776Y-76738000D01*
X64127500Y-76738000D01*
X63938000Y-76927500D01*
X61438000Y-76927500D01*
X61248500Y-76738000D01*
X60037224Y-76738000D01*
X59758627Y-76853399D01*
X59545398Y-77066628D01*
X59430000Y-77345225D01*
X59430000Y-77438000D01*
X58897998Y-77438000D01*
X58897998Y-77745998D01*
X58657978Y-77745998D01*
X58319882Y-77240000D01*
X58695421Y-76677964D01*
X58836244Y-75970000D01*
X58695421Y-75262036D01*
X58294392Y-74661852D01*
X57694208Y-74260823D01*
X56986244Y-74120000D01*
X56913756Y-74120000D01*
X56205792Y-74260823D01*
X55605608Y-74661852D01*
X55204579Y-75262036D01*
X55063756Y-75970000D01*
X52171591Y-75970000D01*
X52171591Y-74214000D01*
X52101862Y-73843422D01*
X51882851Y-73503069D01*
X51554973Y-73279039D01*
X113481699Y-73279039D01*
X114348000Y-74145340D01*
X114715696Y-73777644D01*
X114921167Y-73983115D01*
X114961081Y-74079715D01*
X115537252Y-74656892D01*
X115635911Y-74697859D01*
X115776356Y-74838304D01*
X115408660Y-75206000D01*
X116274961Y-76072301D01*
X116549784Y-75878639D01*
X116639592Y-74984851D01*
X116636627Y-74969945D01*
X117105981Y-74970355D01*
X117859715Y-74658919D01*
X118436892Y-74082748D01*
X118749643Y-73329559D01*
X118750355Y-72514019D01*
X118438919Y-71760285D01*
X117862748Y-71183108D01*
X117109559Y-70870357D01*
X116294019Y-70869645D01*
X115540285Y-71181081D01*
X114963108Y-71757252D01*
X114650357Y-72510441D01*
X114649958Y-72966970D01*
X114126851Y-72914408D01*
X113675361Y-73004216D01*
X113481699Y-73279039D01*
X51554973Y-73279039D01*
X51548678Y-73274738D01*
X51152000Y-73194409D01*
X49349761Y-73194409D01*
X49350355Y-72514019D01*
X49038919Y-71760285D01*
X48462748Y-71183108D01*
X47709559Y-70870357D01*
X46894019Y-70869645D01*
X46140285Y-71181081D01*
X45563108Y-71757252D01*
X45250357Y-72510441D01*
X45249645Y-73325981D01*
X41075000Y-73325981D01*
X41075000Y-62635981D01*
X45381645Y-62635981D01*
X45693081Y-63389715D01*
X46269252Y-63966892D01*
X47022441Y-64279643D01*
X47837981Y-64280355D01*
X48591715Y-63968919D01*
X49168892Y-63392748D01*
X49481643Y-62639559D01*
X49481746Y-62520609D01*
X66083523Y-62520609D01*
X66501304Y-63531715D01*
X67274216Y-64305977D01*
X68284591Y-64725522D01*
X69378609Y-64726477D01*
X70389715Y-64308696D01*
X70802766Y-63896365D01*
X96091072Y-63896365D01*
X96323576Y-64180196D01*
X97317907Y-64262648D01*
X97732424Y-64180196D01*
X97964928Y-63896365D01*
X97028000Y-62959437D01*
X96091072Y-63896365D01*
X70802766Y-63896365D01*
X71163977Y-63535784D01*
X71583522Y-62525409D01*
X71583970Y-62011907D01*
X94487352Y-62011907D01*
X94569804Y-62426424D01*
X94853635Y-62658928D01*
X95790563Y-61722000D01*
X98265437Y-61722000D01*
X99202365Y-62658928D01*
X99486196Y-62426424D01*
X99568648Y-61432093D01*
X99486196Y-61017576D01*
X99202365Y-60785072D01*
X98265437Y-61722000D01*
X95790563Y-61722000D01*
X94853635Y-60785072D01*
X94569804Y-61017576D01*
X94487352Y-62011907D01*
X71583970Y-62011907D01*
X71584477Y-61431391D01*
X71166696Y-60420285D01*
X70393784Y-59646023D01*
X69383409Y-59226478D01*
X68289391Y-59225523D01*
X67278285Y-59643304D01*
X66504023Y-60416216D01*
X66084478Y-61426591D01*
X66083523Y-62520609D01*
X49481746Y-62520609D01*
X49482042Y-62183030D01*
X50005149Y-62235592D01*
X50456639Y-62145784D01*
X50650301Y-61870961D01*
X49784000Y-61004660D01*
X49416304Y-61372356D01*
X49210833Y-61166885D01*
X49170919Y-61070285D01*
X48971733Y-60870751D01*
X51861579Y-60870751D01*
X51938928Y-61116753D01*
X52528546Y-61227453D01*
X53085072Y-61116753D01*
X53162421Y-60870751D01*
X52512000Y-60220330D01*
X51861579Y-60870751D01*
X48971733Y-60870751D01*
X48594748Y-60493108D01*
X48496089Y-60452141D01*
X48355644Y-60311696D01*
X48723340Y-59944000D01*
X47857039Y-59077699D01*
X47582216Y-59271361D01*
X47492408Y-60165149D01*
X47495373Y-60180055D01*
X47026019Y-60179645D01*
X46272285Y-60491081D01*
X45695108Y-61067252D01*
X45382357Y-61820441D01*
X45381645Y-62635981D01*
X41075000Y-62635981D01*
X41075000Y-52475981D01*
X45381645Y-52475981D01*
X45693081Y-53229715D01*
X46269252Y-53806892D01*
X47022441Y-54119643D01*
X47264409Y-54119854D01*
X47264409Y-56364000D01*
X47334138Y-56734578D01*
X47553149Y-57074931D01*
X47887322Y-57303262D01*
X48284000Y-57383591D01*
X50761795Y-57383591D01*
X50761696Y-57496569D01*
X50885764Y-57796836D01*
X50524579Y-57435651D01*
X50239802Y-57720428D01*
X49562851Y-57652408D01*
X49111361Y-57742216D01*
X48917699Y-58017039D01*
X49784000Y-58883340D01*
X50151696Y-58515644D01*
X51032725Y-59396673D01*
X50974547Y-59706546D01*
X50992394Y-59796266D01*
X50844660Y-59944000D01*
X51065759Y-60165099D01*
X51085247Y-60263072D01*
X51199727Y-60299067D01*
X51710961Y-60810301D01*
X51985784Y-60616639D01*
X52075592Y-59722851D01*
X52069058Y-59690000D01*
X53042330Y-59690000D01*
X53692751Y-60340421D01*
X53938753Y-60263072D01*
X54049453Y-59673454D01*
X53938753Y-59116928D01*
X53692751Y-59039579D01*
X53042330Y-59690000D01*
X52069058Y-59690000D01*
X52025375Y-59470395D01*
X52292349Y-59203421D01*
X51865244Y-58776316D01*
X52162376Y-58899696D01*
X52252104Y-58899774D01*
X52512000Y-59159670D01*
X52771442Y-58900228D01*
X52858569Y-58900304D01*
X53317665Y-58710609D01*
X55415523Y-58710609D01*
X55833304Y-59721715D01*
X56606216Y-60495977D01*
X57616591Y-60915522D01*
X58710609Y-60916477D01*
X59721715Y-60498696D01*
X60495977Y-59725784D01*
X60896956Y-58760119D01*
X61007481Y-58760119D01*
X61463241Y-59863143D01*
X62306418Y-60707793D01*
X63408645Y-61165478D01*
X64602119Y-61166519D01*
X65705143Y-60710759D01*
X66549793Y-59867582D01*
X67007478Y-58765355D01*
X67007482Y-58760119D01*
X70913481Y-58760119D01*
X71369241Y-59863143D01*
X72212418Y-60707793D01*
X73314645Y-61165478D01*
X74508119Y-61166519D01*
X75611143Y-60710759D01*
X76455793Y-59867582D01*
X76913478Y-58765355D01*
X76913747Y-58456609D01*
X77005523Y-58456609D01*
X77423304Y-59467715D01*
X78196216Y-60241977D01*
X79206591Y-60661522D01*
X80300609Y-60662477D01*
X81311715Y-60244696D01*
X82085977Y-59471784D01*
X82505522Y-58461409D01*
X82505526Y-58456609D01*
X83101523Y-58456609D01*
X83519304Y-59467715D01*
X84292216Y-60241977D01*
X85302591Y-60661522D01*
X86396609Y-60662477D01*
X87407715Y-60244696D01*
X88181977Y-59471784D01*
X88582956Y-58506119D01*
X88693481Y-58506119D01*
X89149241Y-59609143D01*
X89992418Y-60453793D01*
X91094645Y-60911478D01*
X92288119Y-60912519D01*
X93391143Y-60456759D01*
X94235793Y-59613582D01*
X94263176Y-59547635D01*
X96091072Y-59547635D01*
X97028000Y-60484563D01*
X97964928Y-59547635D01*
X97732424Y-59263804D01*
X96738093Y-59181352D01*
X96323576Y-59263804D01*
X96091072Y-59547635D01*
X94263176Y-59547635D01*
X94693478Y-58511355D01*
X94693482Y-58506119D01*
X98345481Y-58506119D01*
X98801241Y-59609143D01*
X99644418Y-60453793D01*
X100746645Y-60911478D01*
X101940119Y-60912519D01*
X103043143Y-60456759D01*
X103887793Y-59613582D01*
X104328244Y-58552860D01*
X104601304Y-59213715D01*
X105374216Y-59987977D01*
X106384591Y-60407522D01*
X107478609Y-60408477D01*
X108489715Y-59990696D01*
X109263977Y-59217784D01*
X109625737Y-58346569D01*
X109869696Y-58346569D01*
X110135557Y-58990001D01*
X110627410Y-59482713D01*
X111270376Y-59749696D01*
X111828409Y-59750183D01*
X111828409Y-61786000D01*
X111898138Y-62156578D01*
X112117149Y-62496931D01*
X112451322Y-62725262D01*
X112848000Y-62805591D01*
X114650239Y-62805591D01*
X114649645Y-63485981D01*
X114961081Y-64239715D01*
X115537252Y-64816892D01*
X116290441Y-65129643D01*
X117105981Y-65130355D01*
X117859715Y-64818919D01*
X118436892Y-64242748D01*
X118749643Y-63489559D01*
X118750355Y-62674019D01*
X118438919Y-61920285D01*
X117862748Y-61343108D01*
X117109559Y-61030357D01*
X116867591Y-61030146D01*
X116867591Y-58786000D01*
X116797862Y-58415422D01*
X116578851Y-58075069D01*
X116244678Y-57846738D01*
X115848000Y-57766409D01*
X113370205Y-57766409D01*
X113370304Y-57653431D01*
X113246236Y-57353164D01*
X113607421Y-57714349D01*
X113892198Y-57429572D01*
X114569149Y-57497592D01*
X115020639Y-57407784D01*
X115214301Y-57132961D01*
X114348000Y-56266660D01*
X113980304Y-56634356D01*
X113099275Y-55753327D01*
X113157453Y-55443454D01*
X113139606Y-55353734D01*
X113287340Y-55206000D01*
X113066241Y-54984901D01*
X113046753Y-54886928D01*
X112932273Y-54850933D01*
X112421039Y-54339699D01*
X112146216Y-54533361D01*
X112056408Y-55427149D01*
X112106625Y-55679605D01*
X111839651Y-55946579D01*
X112266756Y-56373684D01*
X111969624Y-56250304D01*
X111879896Y-56250226D01*
X111620000Y-55990330D01*
X111360558Y-56249772D01*
X111273431Y-56249696D01*
X110629999Y-56515557D01*
X110137287Y-57007410D01*
X109870304Y-57650376D01*
X109869696Y-58346569D01*
X109625737Y-58346569D01*
X109683522Y-58207409D01*
X109684477Y-57113391D01*
X109266696Y-56102285D01*
X108642049Y-55476546D01*
X110082547Y-55476546D01*
X110193247Y-56033072D01*
X110439249Y-56110421D01*
X111089670Y-55460000D01*
X110439249Y-54809579D01*
X110193247Y-54886928D01*
X110082547Y-55476546D01*
X108642049Y-55476546D01*
X108493784Y-55328023D01*
X107483409Y-54908478D01*
X106389391Y-54907523D01*
X105378285Y-55325304D01*
X104604023Y-56098216D01*
X104222353Y-57017377D01*
X103890759Y-56214857D01*
X103047582Y-55370207D01*
X101945355Y-54912522D01*
X100751881Y-54911481D01*
X99648857Y-55367241D01*
X98804207Y-56210418D01*
X98346522Y-57312645D01*
X98345481Y-58506119D01*
X94693482Y-58506119D01*
X94694519Y-57317881D01*
X94238759Y-56214857D01*
X93395582Y-55370207D01*
X92293355Y-54912522D01*
X91099881Y-54911481D01*
X89996857Y-55367241D01*
X89152207Y-56210418D01*
X88694522Y-57312645D01*
X88693481Y-58506119D01*
X88582956Y-58506119D01*
X88601522Y-58461409D01*
X88602477Y-57367391D01*
X88184696Y-56356285D01*
X87411784Y-55582023D01*
X86401409Y-55162478D01*
X85307391Y-55161523D01*
X84296285Y-55579304D01*
X83522023Y-56352216D01*
X83102478Y-57362591D01*
X83101523Y-58456609D01*
X82505526Y-58456609D01*
X82506477Y-57367391D01*
X82088696Y-56356285D01*
X81315784Y-55582023D01*
X80305409Y-55162478D01*
X79211391Y-55161523D01*
X78200285Y-55579304D01*
X77426023Y-56352216D01*
X77006478Y-57362591D01*
X77005523Y-58456609D01*
X76913747Y-58456609D01*
X76914519Y-57571881D01*
X76458759Y-56468857D01*
X75615582Y-55624207D01*
X74513355Y-55166522D01*
X73319881Y-55165481D01*
X72216857Y-55621241D01*
X71372207Y-56464418D01*
X70914522Y-57566645D01*
X70913481Y-58760119D01*
X67007482Y-58760119D01*
X67008519Y-57571881D01*
X66683125Y-56784365D01*
X67897072Y-56784365D01*
X68129576Y-57068196D01*
X69123907Y-57150648D01*
X69538424Y-57068196D01*
X69770928Y-56784365D01*
X68834000Y-55847437D01*
X67897072Y-56784365D01*
X66683125Y-56784365D01*
X66552759Y-56468857D01*
X65709582Y-55624207D01*
X64607355Y-55166522D01*
X63413881Y-55165481D01*
X62310857Y-55621241D01*
X61466207Y-56464418D01*
X61008522Y-57566645D01*
X61007481Y-58760119D01*
X60896956Y-58760119D01*
X60915522Y-58715409D01*
X60916477Y-57621391D01*
X60498696Y-56610285D01*
X59725784Y-55836023D01*
X58715409Y-55416478D01*
X57621391Y-55415523D01*
X56610285Y-55833304D01*
X55836023Y-56606216D01*
X55416478Y-57616591D01*
X55415523Y-58710609D01*
X53317665Y-58710609D01*
X53502001Y-58634443D01*
X53994713Y-58142590D01*
X54261696Y-57499624D01*
X54262304Y-56803431D01*
X53996443Y-56159999D01*
X53504590Y-55667287D01*
X52861624Y-55400304D01*
X52303591Y-55399817D01*
X52303591Y-54899907D01*
X66293352Y-54899907D01*
X66375804Y-55314424D01*
X66659635Y-55546928D01*
X67596563Y-54610000D01*
X70071437Y-54610000D01*
X71008365Y-55546928D01*
X71292196Y-55314424D01*
X71368634Y-54392609D01*
X94023523Y-54392609D01*
X94441304Y-55403715D01*
X95214216Y-56177977D01*
X96224591Y-56597522D01*
X97318609Y-56598477D01*
X98329715Y-56180696D01*
X99103977Y-55407784D01*
X99523522Y-54397409D01*
X99523625Y-54279249D01*
X110969579Y-54279249D01*
X111620000Y-54929670D01*
X112270421Y-54279249D01*
X112193072Y-54033247D01*
X111603454Y-53922547D01*
X111046928Y-54033247D01*
X110969579Y-54279249D01*
X99523625Y-54279249D01*
X99524477Y-53303391D01*
X99514415Y-53279039D01*
X113481699Y-53279039D01*
X114348000Y-54145340D01*
X114715696Y-53777644D01*
X114921167Y-53983115D01*
X114961081Y-54079715D01*
X115537252Y-54656892D01*
X115635911Y-54697859D01*
X115776356Y-54838304D01*
X115408660Y-55206000D01*
X116274961Y-56072301D01*
X116549784Y-55878639D01*
X116639592Y-54984851D01*
X116636627Y-54969945D01*
X117105981Y-54970355D01*
X117859715Y-54658919D01*
X118436892Y-54082748D01*
X118749643Y-53329559D01*
X118750355Y-52514019D01*
X118438919Y-51760285D01*
X117862748Y-51183108D01*
X117109559Y-50870357D01*
X116294019Y-50869645D01*
X115540285Y-51181081D01*
X114963108Y-51757252D01*
X114650357Y-52510441D01*
X114649958Y-52966970D01*
X114126851Y-52914408D01*
X113675361Y-53004216D01*
X113481699Y-53279039D01*
X99514415Y-53279039D01*
X99106696Y-52292285D01*
X98333784Y-51518023D01*
X97323409Y-51098478D01*
X96229391Y-51097523D01*
X95218285Y-51515304D01*
X94444023Y-52288216D01*
X94024478Y-53298591D01*
X94023523Y-54392609D01*
X71368634Y-54392609D01*
X71374648Y-54320093D01*
X71292196Y-53905576D01*
X71008365Y-53673072D01*
X70071437Y-54610000D01*
X67596563Y-54610000D01*
X66659635Y-53673072D01*
X66375804Y-53905576D01*
X66293352Y-54899907D01*
X52303591Y-54899907D01*
X52303591Y-53364000D01*
X52233862Y-52993422D01*
X52014851Y-52653069D01*
X51696627Y-52435635D01*
X67897072Y-52435635D01*
X68834000Y-53372563D01*
X69770928Y-52435635D01*
X69538424Y-52151804D01*
X68544093Y-52069352D01*
X68129576Y-52151804D01*
X67897072Y-52435635D01*
X51696627Y-52435635D01*
X51680678Y-52424738D01*
X51284000Y-52344409D01*
X49481761Y-52344409D01*
X49482355Y-51664019D01*
X49170919Y-50910285D01*
X48594748Y-50333108D01*
X47841559Y-50020357D01*
X47026019Y-50019645D01*
X46272285Y-50331081D01*
X45695108Y-50907252D01*
X45382357Y-51660441D01*
X45381645Y-52475981D01*
X41075000Y-52475981D01*
X41075000Y-45765848D01*
X41538461Y-46229309D01*
X41853001Y-45914769D01*
X42202263Y-46224618D01*
X43496996Y-46284439D01*
X43797737Y-46224618D01*
X44147001Y-45914768D01*
X43000000Y-44767767D01*
X42985858Y-44781910D01*
X41218091Y-43014143D01*
X41232233Y-43000000D01*
X41218091Y-42985858D01*
X42985858Y-41218091D01*
X43000000Y-41232233D01*
X43014143Y-41218091D01*
X44781910Y-42985858D01*
X44767767Y-43000000D01*
X45914768Y-44147001D01*
X46224618Y-43797737D01*
X46234680Y-43579963D01*
X46267195Y-43591119D01*
X46780000Y-43078315D01*
X46780000Y-44576775D01*
X46895398Y-44855372D01*
X46998026Y-44958000D01*
X46895398Y-45060628D01*
X46780000Y-45339225D01*
X46780000Y-46837685D01*
X46267195Y-46324881D01*
X46019154Y-46409983D01*
X45909761Y-47020064D01*
X46019154Y-47570017D01*
X46267195Y-47655119D01*
X46780000Y-47142315D01*
X46780000Y-48640775D01*
X46895398Y-48919372D01*
X47108627Y-49132601D01*
X47387224Y-49248000D01*
X48598500Y-49248000D01*
X48788000Y-49058500D01*
X48788000Y-47939584D01*
X48987584Y-47740000D01*
X51288000Y-47740000D01*
X51288000Y-49058500D01*
X51477500Y-49248000D01*
X52688776Y-49248000D01*
X52967373Y-49132601D01*
X53180602Y-48919372D01*
X53296000Y-48640775D01*
X53296000Y-47929500D01*
X53106500Y-47740000D01*
X51288000Y-47740000D01*
X48987584Y-47740000D01*
X49501677Y-47225907D01*
X49265770Y-46990000D01*
X49501677Y-46754093D01*
X48788000Y-46040416D01*
X48788000Y-43875584D01*
X48987584Y-43676000D01*
X51288000Y-43676000D01*
X51288000Y-46240000D01*
X53106500Y-46240000D01*
X53296000Y-46050500D01*
X53296000Y-45339225D01*
X53180602Y-45060628D01*
X53077974Y-44958000D01*
X53180602Y-44855372D01*
X53296000Y-44576775D01*
X53296000Y-43865500D01*
X53106500Y-43676000D01*
X51288000Y-43676000D01*
X48987584Y-43676000D01*
X49501677Y-43161907D01*
X49265770Y-42926000D01*
X49501677Y-42690093D01*
X48788000Y-41976416D01*
X48788000Y-41656000D01*
X51288000Y-41656000D01*
X51288000Y-42176000D01*
X53106500Y-42176000D01*
X53296000Y-41986500D01*
X53296000Y-41275225D01*
X53213065Y-41075000D01*
X54209488Y-41075000D01*
X54138409Y-41426000D01*
X54138409Y-41426000D01*
G37*
X54138409Y-41426000D02*
X54138409Y-44426000D01*
X54208138Y-44796578D01*
X54311617Y-44957389D01*
X54218738Y-45093322D01*
X54138409Y-45490000D01*
X54138409Y-48490000D01*
X54208138Y-48860578D01*
X54427149Y-49200931D01*
X54761322Y-49429262D01*
X55158000Y-49509591D01*
X60158000Y-49509591D01*
X60528578Y-49439862D01*
X60838028Y-49240736D01*
X61192000Y-49240736D01*
X61192000Y-49311264D01*
X61329017Y-50000094D01*
X61719208Y-50584056D01*
X62303170Y-50974247D01*
X62992000Y-51111264D01*
X63680830Y-50974247D01*
X64264792Y-50584056D01*
X64654983Y-50000094D01*
X64728107Y-49632471D01*
X68049688Y-49632471D01*
X68323145Y-50294286D01*
X68829051Y-50801076D01*
X69490387Y-51075687D01*
X70206471Y-51076312D01*
X70868286Y-50802855D01*
X71375076Y-50296949D01*
X71649687Y-49635613D01*
X71649778Y-49531351D01*
X71743017Y-50000094D01*
X72133208Y-50584056D01*
X72717170Y-50974247D01*
X73406000Y-51111264D01*
X74094830Y-50974247D01*
X74678792Y-50584056D01*
X75068983Y-50000094D01*
X75080879Y-49940289D01*
X75433051Y-50293076D01*
X76094387Y-50567687D01*
X76810471Y-50568312D01*
X77472286Y-50294855D01*
X77768853Y-49998805D01*
X80788881Y-49998805D01*
X80873983Y-50246846D01*
X81484064Y-50356239D01*
X82034017Y-50246846D01*
X82119119Y-49998805D01*
X83234881Y-49998805D01*
X83319983Y-50246846D01*
X83930064Y-50356239D01*
X84480017Y-50246846D01*
X84565119Y-49998805D01*
X83900000Y-49333685D01*
X83234881Y-49998805D01*
X82119119Y-49998805D01*
X81454000Y-49333685D01*
X80788881Y-49998805D01*
X77768853Y-49998805D01*
X77979076Y-49788949D01*
X78253687Y-49127613D01*
X78253974Y-48798064D01*
X79865761Y-48798064D01*
X79975154Y-49348017D01*
X80223195Y-49433119D01*
X80888315Y-48768000D01*
X82019685Y-48768000D01*
X82376820Y-49125134D01*
X82421154Y-49348017D01*
X82669195Y-49433119D01*
X82677000Y-49425314D01*
X82684805Y-49433119D01*
X82932846Y-49348017D01*
X82971856Y-49130458D01*
X83334315Y-48768000D01*
X84465685Y-48768000D01*
X85130805Y-49433119D01*
X85378846Y-49348017D01*
X85418929Y-49124471D01*
X87099688Y-49124471D01*
X87373145Y-49786286D01*
X87879051Y-50293076D01*
X88540387Y-50567687D01*
X89256471Y-50568312D01*
X89918286Y-50294855D01*
X90273179Y-49940581D01*
X90285017Y-50000094D01*
X90675208Y-50584056D01*
X91259170Y-50974247D01*
X91948000Y-51111264D01*
X92636830Y-50974247D01*
X93220792Y-50584056D01*
X93610983Y-50000094D01*
X93703774Y-49533601D01*
X93703688Y-49632471D01*
X93977145Y-50294286D01*
X94483051Y-50801076D01*
X95144387Y-51075687D01*
X95860471Y-51076312D01*
X96522286Y-50802855D01*
X97029076Y-50296949D01*
X97303687Y-49635613D01*
X97304312Y-48919529D01*
X97030855Y-48257714D01*
X96660593Y-47886805D01*
X98140881Y-47886805D01*
X98225983Y-48134846D01*
X98836064Y-48244239D01*
X99386017Y-48134846D01*
X99471119Y-47886805D01*
X98806000Y-47221685D01*
X98140881Y-47886805D01*
X96660593Y-47886805D01*
X96524949Y-47750924D01*
X95863613Y-47476313D01*
X95147529Y-47475688D01*
X94485714Y-47749145D01*
X93978924Y-48255051D01*
X93704313Y-48916387D01*
X93704222Y-49020649D01*
X93610983Y-48551906D01*
X93220792Y-47967944D01*
X92636830Y-47577753D01*
X91948000Y-47440736D01*
X91259170Y-47577753D01*
X90675208Y-47967944D01*
X90577467Y-48114223D01*
X90426855Y-47749714D01*
X89920949Y-47242924D01*
X89259613Y-46968313D01*
X88543529Y-46967688D01*
X87881714Y-47241145D01*
X87374924Y-47747051D01*
X87100313Y-48408387D01*
X87099688Y-49124471D01*
X85418929Y-49124471D01*
X85488239Y-48737936D01*
X85378846Y-48187983D01*
X85130805Y-48102881D01*
X84465685Y-48768000D01*
X83334315Y-48768000D01*
X82977180Y-48410866D01*
X82932846Y-48187983D01*
X82684805Y-48102881D01*
X82677000Y-48110686D01*
X82669195Y-48102881D01*
X82421154Y-48187983D01*
X82382144Y-48405542D01*
X82019685Y-48768000D01*
X80888315Y-48768000D01*
X80223195Y-48102881D01*
X79975154Y-48187983D01*
X79865761Y-48798064D01*
X78253974Y-48798064D01*
X78254312Y-48411529D01*
X77980855Y-47749714D01*
X77768707Y-47537195D01*
X80788881Y-47537195D01*
X81454000Y-48202315D01*
X82119119Y-47537195D01*
X83234881Y-47537195D01*
X83900000Y-48202315D01*
X84565119Y-47537195D01*
X84480017Y-47289154D01*
X83869936Y-47179761D01*
X83319983Y-47289154D01*
X83234881Y-47537195D01*
X82119119Y-47537195D01*
X82034017Y-47289154D01*
X81423936Y-47179761D01*
X80873983Y-47289154D01*
X80788881Y-47537195D01*
X77768707Y-47537195D01*
X77474949Y-47242924D01*
X76813613Y-46968313D01*
X76097529Y-46967688D01*
X75435714Y-47241145D01*
X74928924Y-47747051D01*
X74776488Y-48114157D01*
X74678792Y-47967944D01*
X74094830Y-47577753D01*
X73406000Y-47440736D01*
X72717170Y-47577753D01*
X72133208Y-47967944D01*
X71743017Y-48551906D01*
X71650226Y-49018399D01*
X71650312Y-48919529D01*
X71376855Y-48257714D01*
X70870949Y-47750924D01*
X70209613Y-47476313D01*
X69493529Y-47475688D01*
X68831714Y-47749145D01*
X68324924Y-48255051D01*
X68050313Y-48916387D01*
X68049688Y-49632471D01*
X64728107Y-49632471D01*
X64792000Y-49311264D01*
X64792000Y-49240736D01*
X64654983Y-48551906D01*
X64264792Y-47967944D01*
X64143359Y-47886805D01*
X65628881Y-47886805D01*
X65713983Y-48134846D01*
X66324064Y-48244239D01*
X66874017Y-48134846D01*
X66959119Y-47886805D01*
X66294000Y-47221685D01*
X65628881Y-47886805D01*
X64143359Y-47886805D01*
X63680830Y-47577753D01*
X62992000Y-47440736D01*
X62303170Y-47577753D01*
X61719208Y-47967944D01*
X61329017Y-48551906D01*
X61192000Y-49240736D01*
X60838028Y-49240736D01*
X60868931Y-49220851D01*
X61097262Y-48886678D01*
X61177591Y-48490000D01*
X61177591Y-48482265D01*
X61506056Y-48262792D01*
X61896247Y-47678830D01*
X62033264Y-46990000D01*
X61972808Y-46686064D01*
X64705761Y-46686064D01*
X64815154Y-47236017D01*
X65063195Y-47321119D01*
X65728315Y-46656000D01*
X66859685Y-46656000D01*
X67524805Y-47321119D01*
X67772846Y-47236017D01*
X67871457Y-46686064D01*
X97217761Y-46686064D01*
X97327154Y-47236017D01*
X97575195Y-47321119D01*
X98240315Y-46656000D01*
X99371685Y-46656000D01*
X100036805Y-47321119D01*
X100284846Y-47236017D01*
X100394239Y-46625936D01*
X100284846Y-46075983D01*
X100036805Y-45990881D01*
X99371685Y-46656000D01*
X98240315Y-46656000D01*
X97575195Y-45990881D01*
X97327154Y-46075983D01*
X97217761Y-46686064D01*
X67871457Y-46686064D01*
X67882239Y-46625936D01*
X67772846Y-46075983D01*
X67524805Y-45990881D01*
X66859685Y-46656000D01*
X65728315Y-46656000D01*
X65063195Y-45990881D01*
X64815154Y-46075983D01*
X64705761Y-46686064D01*
X61972808Y-46686064D01*
X61896247Y-46301170D01*
X61506056Y-45717208D01*
X61177591Y-45497735D01*
X61177591Y-45490000D01*
X61165398Y-45425195D01*
X65628881Y-45425195D01*
X66294000Y-46090315D01*
X66959119Y-45425195D01*
X98140881Y-45425195D01*
X98806000Y-46090315D01*
X99471119Y-45425195D01*
X99386017Y-45177154D01*
X98775936Y-45067761D01*
X98225983Y-45177154D01*
X98140881Y-45425195D01*
X66959119Y-45425195D01*
X66874017Y-45177154D01*
X66263936Y-45067761D01*
X65713983Y-45177154D01*
X65628881Y-45425195D01*
X61165398Y-45425195D01*
X61107862Y-45119422D01*
X61004383Y-44958611D01*
X61097262Y-44822678D01*
X61177591Y-44426000D01*
X61177591Y-44418265D01*
X61506056Y-44198792D01*
X61896247Y-43614830D01*
X61934323Y-43423410D01*
X62192000Y-43475591D01*
X63792000Y-43475591D01*
X64162578Y-43405862D01*
X64502931Y-43186851D01*
X64731262Y-42852678D01*
X64767346Y-42674488D01*
X65273051Y-43181076D01*
X65934387Y-43455687D01*
X66650471Y-43456312D01*
X67312286Y-43182855D01*
X67819076Y-42676949D01*
X68093687Y-42015613D01*
X68093778Y-41911351D01*
X68187017Y-42380094D01*
X68577208Y-42964056D01*
X69161170Y-43354247D01*
X69850000Y-43491264D01*
X70538830Y-43354247D01*
X71122792Y-42964056D01*
X71174409Y-42886805D01*
X72740881Y-42886805D01*
X72825983Y-43134846D01*
X73436064Y-43244239D01*
X73986017Y-43134846D01*
X74071119Y-42886805D01*
X73406000Y-42221685D01*
X72740881Y-42886805D01*
X71174409Y-42886805D01*
X71512983Y-42380094D01*
X71650000Y-41691264D01*
X71650000Y-41667770D01*
X71854874Y-41872643D01*
X71927154Y-42236017D01*
X72175195Y-42321119D01*
X72840315Y-41656000D01*
X72557472Y-41373157D01*
X72855629Y-41075000D01*
X73390685Y-41075000D01*
X73406000Y-41090315D01*
X73421315Y-41075000D01*
X73956371Y-41075000D01*
X74254528Y-41373157D01*
X73971685Y-41656000D01*
X74636805Y-42321119D01*
X74884846Y-42236017D01*
X74948446Y-41881323D01*
X75409677Y-41420093D01*
X75064584Y-41075000D01*
X78794552Y-41075000D01*
X78728738Y-41171322D01*
X78648409Y-41568000D01*
X78648409Y-43268000D01*
X78718138Y-43638578D01*
X78937149Y-43978931D01*
X79271322Y-44207262D01*
X79668000Y-44287591D01*
X81368000Y-44287591D01*
X81738578Y-44217862D01*
X82078931Y-43998851D01*
X82086707Y-43987471D01*
X82350036Y-44163421D01*
X83058000Y-44304244D01*
X83765964Y-44163421D01*
X84366148Y-43762392D01*
X84429217Y-43668002D01*
X84613466Y-43668002D01*
X84935631Y-43883241D01*
X85173000Y-43771336D01*
X85173000Y-42843000D01*
X86023000Y-42843000D01*
X86023000Y-43771336D01*
X86260369Y-43883241D01*
X86698255Y-43590689D01*
X87063272Y-43080374D01*
X86978528Y-42886805D01*
X91282881Y-42886805D01*
X91367983Y-43134846D01*
X91978064Y-43244239D01*
X92528017Y-43134846D01*
X92613119Y-42886805D01*
X91948000Y-42221685D01*
X91282881Y-42886805D01*
X86978528Y-42886805D01*
X86959350Y-42843000D01*
X86023000Y-42843000D01*
X85173000Y-42843000D01*
X84830672Y-42843000D01*
X84908000Y-42454244D01*
X84908000Y-42381756D01*
X84830672Y-41993000D01*
X85173000Y-41993000D01*
X85173000Y-41568000D01*
X86023000Y-41568000D01*
X86023000Y-41993000D01*
X86959350Y-41993000D01*
X87063272Y-41755626D01*
X86848002Y-41454666D01*
X86848002Y-41075000D01*
X90289416Y-41075000D01*
X89944323Y-41420093D01*
X90396874Y-41872643D01*
X90469154Y-42236017D01*
X90717195Y-42321119D01*
X91382315Y-41656000D01*
X91099472Y-41373157D01*
X91397629Y-41075000D01*
X91932685Y-41075000D01*
X91948000Y-41090315D01*
X91963315Y-41075000D01*
X92498371Y-41075000D01*
X92796528Y-41373157D01*
X92513685Y-41656000D01*
X93178805Y-42321119D01*
X93426846Y-42236017D01*
X93490446Y-41881323D01*
X93704000Y-41667770D01*
X93704000Y-41691264D01*
X93841017Y-42380094D01*
X94231208Y-42964056D01*
X94815170Y-43354247D01*
X95504000Y-43491264D01*
X96192830Y-43354247D01*
X96776792Y-42964056D01*
X97161177Y-42388783D01*
X97279145Y-42674286D01*
X97785051Y-43181076D01*
X98446387Y-43455687D01*
X99162471Y-43456312D01*
X99824286Y-43182855D01*
X100134273Y-42873409D01*
X100323149Y-43166931D01*
X100657322Y-43395262D01*
X101054000Y-43475591D01*
X102654000Y-43475591D01*
X102984839Y-43413339D01*
X103339944Y-43944792D01*
X103668409Y-44164265D01*
X103668409Y-44172000D01*
X103738138Y-44542578D01*
X103957149Y-44882931D01*
X104064958Y-44956594D01*
X103977069Y-45013149D01*
X103748738Y-45347322D01*
X103668409Y-45744000D01*
X103668409Y-45751735D01*
X103339944Y-45971208D01*
X102949753Y-46555170D01*
X102812736Y-47244000D01*
X102930671Y-47836900D01*
X102542830Y-47577753D01*
X101854000Y-47440736D01*
X101165170Y-47577753D01*
X100581208Y-47967944D01*
X100191017Y-48551906D01*
X100054000Y-49240736D01*
X100054000Y-49311264D01*
X100191017Y-50000094D01*
X100581208Y-50584056D01*
X101165170Y-50974247D01*
X101854000Y-51111264D01*
X102542830Y-50974247D01*
X103126792Y-50584056D01*
X103516983Y-50000094D01*
X103654000Y-49311264D01*
X103654000Y-49240736D01*
X103536065Y-48647836D01*
X103668409Y-48736265D01*
X103668409Y-48744000D01*
X103738138Y-49114578D01*
X103957149Y-49454931D01*
X104291322Y-49683262D01*
X104688000Y-49763591D01*
X109688000Y-49763591D01*
X110058578Y-49693862D01*
X110398931Y-49474851D01*
X110627262Y-49140678D01*
X110707591Y-48744000D01*
X110707591Y-48183500D01*
X111550000Y-48183500D01*
X111550000Y-48894775D01*
X111665398Y-49173372D01*
X111878627Y-49386601D01*
X112157224Y-49502000D01*
X113368500Y-49502000D01*
X113558000Y-49312500D01*
X113558000Y-47994000D01*
X111739500Y-47994000D01*
X111550000Y-48183500D01*
X110707591Y-48183500D01*
X110707591Y-47008093D01*
X115344323Y-47008093D01*
X115580230Y-47244000D01*
X115344323Y-47479907D01*
X116058000Y-48193584D01*
X116058000Y-49312500D01*
X116247500Y-49502000D01*
X117458776Y-49502000D01*
X117737373Y-49386601D01*
X117950602Y-49173372D01*
X118066000Y-48894775D01*
X118066000Y-47396315D01*
X118578805Y-47909119D01*
X118826846Y-47824017D01*
X118936239Y-47213936D01*
X118826846Y-46663983D01*
X118578805Y-46578881D01*
X118066000Y-47091685D01*
X118066000Y-45593225D01*
X117950602Y-45314628D01*
X117737373Y-45101399D01*
X117458776Y-44986000D01*
X116247500Y-44986000D01*
X116058000Y-45175500D01*
X116058000Y-46294416D01*
X115344323Y-47008093D01*
X110707591Y-47008093D01*
X110707591Y-45744000D01*
X110679221Y-45593225D01*
X111550000Y-45593225D01*
X111550000Y-46304500D01*
X111739500Y-46494000D01*
X113558000Y-46494000D01*
X113558000Y-45175500D01*
X113368500Y-44986000D01*
X112157224Y-44986000D01*
X111878627Y-45101399D01*
X111665398Y-45314628D01*
X111550000Y-45593225D01*
X110679221Y-45593225D01*
X110637862Y-45373422D01*
X110418851Y-45033069D01*
X110311042Y-44959406D01*
X110398931Y-44902851D01*
X110627262Y-44568678D01*
X110707591Y-44172000D01*
X110707591Y-43611500D01*
X111550000Y-43611500D01*
X111550000Y-44322775D01*
X111665398Y-44601372D01*
X111878627Y-44814601D01*
X112157224Y-44930000D01*
X113368500Y-44930000D01*
X113558000Y-44740500D01*
X113558000Y-43422000D01*
X111739500Y-43422000D01*
X111550000Y-43611500D01*
X110707591Y-43611500D01*
X110707591Y-41172000D01*
X110689339Y-41075000D01*
X111550000Y-41075000D01*
X111550000Y-41732500D01*
X111739500Y-41922000D01*
X113558000Y-41922000D01*
X113558000Y-41402000D01*
X116058000Y-41402000D01*
X116058000Y-41722416D01*
X115344323Y-42436093D01*
X115580230Y-42672000D01*
X115344323Y-42907907D01*
X116058000Y-43621584D01*
X116058000Y-44740500D01*
X116247500Y-44930000D01*
X117458776Y-44930000D01*
X117737373Y-44814601D01*
X117950602Y-44601372D01*
X118066000Y-44322775D01*
X118066000Y-42824315D01*
X118578805Y-43337119D01*
X118725270Y-43286867D01*
X118715561Y-43496996D01*
X118775382Y-43797737D01*
X119085232Y-44147001D01*
X120232233Y-43000000D01*
X120218091Y-42985858D01*
X121985858Y-41218091D01*
X122000000Y-41232233D01*
X122014143Y-41218091D01*
X123781910Y-42985858D01*
X123767767Y-43000000D01*
X123781910Y-43014143D01*
X122014143Y-44781910D01*
X122000000Y-44767767D01*
X120852999Y-45914768D01*
X121202263Y-46224618D01*
X122496996Y-46284439D01*
X122797737Y-46224618D01*
X123146999Y-45914769D01*
X123461539Y-46229309D01*
X123925000Y-45765848D01*
X123925000Y-88908970D01*
X123124130Y-88108100D01*
X122855755Y-88376475D01*
X122739804Y-88253225D01*
X121632344Y-88179200D01*
X121260196Y-88253225D01*
X120983830Y-88546989D01*
X122000000Y-89563159D01*
X122179606Y-89383554D01*
X123616447Y-90820395D01*
X123436841Y-91000000D01*
X123616447Y-91179606D01*
X122179606Y-92616447D01*
X122000000Y-92436841D01*
X121820395Y-92616447D01*
X120383554Y-91179606D01*
X120563159Y-91000000D01*
X119546989Y-89983830D01*
X119253225Y-90260196D01*
X119179200Y-91367656D01*
X119253225Y-91739804D01*
X119376475Y-91855755D01*
X119108100Y-92124130D01*
X119908970Y-92925000D01*
X45091030Y-92925000D01*
X45891900Y-92124130D01*
X45623525Y-91855755D01*
X45746775Y-91739804D01*
X45820800Y-90632344D01*
X45746775Y-90260196D01*
X45453011Y-89983830D01*
X44436841Y-91000000D01*
X44616447Y-91179606D01*
X43179606Y-92616447D01*
X43000000Y-92436841D01*
X42820395Y-92616447D01*
X41383554Y-91179606D01*
X41563159Y-91000000D01*
X41383554Y-90820395D01*
X42820395Y-89383554D01*
X43000000Y-89563159D01*
X44016170Y-88546989D01*
X43739804Y-88253225D01*
X42632344Y-88179200D01*
X42260196Y-88253225D01*
X42144245Y-88376475D01*
X41875870Y-88108100D01*
X41075000Y-88908970D01*
X41075000Y-83485981D01*
X45249645Y-83485981D01*
X45561081Y-84239715D01*
X46137252Y-84816892D01*
X46890441Y-85129643D01*
X47705981Y-85130355D01*
X48459715Y-84818919D01*
X49036892Y-84242748D01*
X49266150Y-83690631D01*
X58723335Y-83690631D01*
X58897998Y-83952061D01*
X58897998Y-84618000D01*
X59430000Y-84618000D01*
X59430000Y-84710775D01*
X59545398Y-84989372D01*
X59679743Y-85123717D01*
X59511714Y-85193145D01*
X59004924Y-85699051D01*
X58730313Y-86360387D01*
X58729688Y-87076471D01*
X59003145Y-87738286D01*
X59509051Y-88245076D01*
X60170387Y-88519687D01*
X60886471Y-88520312D01*
X61548286Y-88246855D01*
X61779960Y-88015585D01*
X62009051Y-88245076D01*
X62670387Y-88519687D01*
X63386471Y-88520312D01*
X64048286Y-88246855D01*
X64068548Y-88226628D01*
X65539702Y-88226628D01*
X65801005Y-88859029D01*
X66284426Y-89343295D01*
X66916370Y-89605701D01*
X67600628Y-89606298D01*
X68233029Y-89344995D01*
X68530094Y-89048448D01*
X68824426Y-89343295D01*
X69456370Y-89605701D01*
X70140628Y-89606298D01*
X70773029Y-89344995D01*
X71070094Y-89048448D01*
X71364426Y-89343295D01*
X71996370Y-89605701D01*
X72680628Y-89606298D01*
X73313029Y-89344995D01*
X73797295Y-88861574D01*
X74059701Y-88229630D01*
X74060077Y-87798000D01*
X76820409Y-87798000D01*
X76820409Y-89498000D01*
X76890138Y-89868578D01*
X77109149Y-90208931D01*
X77443322Y-90437262D01*
X77840000Y-90517591D01*
X79540000Y-90517591D01*
X79910578Y-90447862D01*
X80250931Y-90228851D01*
X80404426Y-90004204D01*
X80567631Y-90113241D01*
X80805000Y-90001336D01*
X80805000Y-89073000D01*
X81655000Y-89073000D01*
X81655000Y-90001336D01*
X81892369Y-90113241D01*
X82330255Y-89820689D01*
X82695272Y-89310374D01*
X82591350Y-89073000D01*
X81655000Y-89073000D01*
X80805000Y-89073000D01*
X80559591Y-89073000D01*
X80559591Y-88223000D01*
X80805000Y-88223000D01*
X80805000Y-87294664D01*
X81655000Y-87294664D01*
X81655000Y-88223000D01*
X82591350Y-88223000D01*
X82695272Y-87985626D01*
X82330255Y-87475311D01*
X81892369Y-87182759D01*
X81655000Y-87294664D01*
X80805000Y-87294664D01*
X80567631Y-87182759D01*
X80403142Y-87292655D01*
X80270851Y-87087069D01*
X79936678Y-86858738D01*
X79540000Y-86778409D01*
X77840000Y-86778409D01*
X77469422Y-86848138D01*
X77129069Y-87067149D01*
X76900738Y-87401322D01*
X76820409Y-87798000D01*
X74060077Y-87798000D01*
X74060298Y-87545372D01*
X73798995Y-86912971D01*
X73315574Y-86428705D01*
X72683630Y-86166299D01*
X71999372Y-86165702D01*
X71366971Y-86427005D01*
X71069906Y-86723552D01*
X70775574Y-86428705D01*
X70143630Y-86166299D01*
X69459372Y-86165702D01*
X68826971Y-86427005D01*
X68529906Y-86723552D01*
X68235574Y-86428705D01*
X67603630Y-86166299D01*
X66919372Y-86165702D01*
X66286971Y-86427005D01*
X65802705Y-86910426D01*
X65540299Y-87542370D01*
X65539702Y-88226628D01*
X64068548Y-88226628D01*
X64555076Y-87740949D01*
X64829687Y-87079613D01*
X64830312Y-86363529D01*
X64556855Y-85701714D01*
X64173810Y-85318000D01*
X65338776Y-85318000D01*
X65617373Y-85202601D01*
X65830602Y-84989372D01*
X65946000Y-84710775D01*
X65946000Y-83999500D01*
X65756500Y-83810000D01*
X63938000Y-83810000D01*
X63938000Y-84330000D01*
X61438000Y-84330000D01*
X61438000Y-83892193D01*
X61572665Y-83690631D01*
X61456737Y-83460000D01*
X60548000Y-83460000D01*
X60548000Y-83810000D01*
X59748000Y-83810000D01*
X59748000Y-83460000D01*
X58839263Y-83460000D01*
X58723335Y-83690631D01*
X49266150Y-83690631D01*
X49349643Y-83489559D01*
X49350042Y-83033030D01*
X49873149Y-83085592D01*
X50324639Y-82995784D01*
X50518301Y-82720961D01*
X49652000Y-81854660D01*
X49284304Y-82222356D01*
X49078833Y-82016885D01*
X49038919Y-81920285D01*
X48839733Y-81720751D01*
X51729579Y-81720751D01*
X51806928Y-81966753D01*
X52396546Y-82077453D01*
X52953072Y-81966753D01*
X53030421Y-81720751D01*
X52380000Y-81070330D01*
X51729579Y-81720751D01*
X48839733Y-81720751D01*
X48462748Y-81343108D01*
X48364089Y-81302141D01*
X48223644Y-81161696D01*
X48591340Y-80794000D01*
X47725039Y-79927699D01*
X47450216Y-80121361D01*
X47360408Y-81015149D01*
X47363373Y-81030055D01*
X46894019Y-81029645D01*
X46140285Y-81341081D01*
X45563108Y-81917252D01*
X45250357Y-82670441D01*
X45249645Y-83485981D01*
X41075000Y-83485981D01*
X41075000Y-73325981D01*
X45249645Y-73325981D01*
X45561081Y-74079715D01*
X46137252Y-74656892D01*
X46890441Y-74969643D01*
X47132409Y-74969854D01*
X47132409Y-77214000D01*
X47202138Y-77584578D01*
X47421149Y-77924931D01*
X47755322Y-78153262D01*
X48152000Y-78233591D01*
X50629795Y-78233591D01*
X50629696Y-78346569D01*
X50753764Y-78646836D01*
X50392579Y-78285651D01*
X50107802Y-78570428D01*
X49430851Y-78502408D01*
X48979361Y-78592216D01*
X48785699Y-78867039D01*
X49652000Y-79733340D01*
X50019696Y-79365644D01*
X50900725Y-80246673D01*
X50842547Y-80556546D01*
X50860394Y-80646266D01*
X50712660Y-80794000D01*
X50933759Y-81015099D01*
X50953247Y-81113072D01*
X51067727Y-81149067D01*
X51578961Y-81660301D01*
X51853784Y-81466639D01*
X51943592Y-80572851D01*
X51937058Y-80540000D01*
X52910330Y-80540000D01*
X53560751Y-81190421D01*
X53806753Y-81113072D01*
X53917453Y-80523454D01*
X53806753Y-79966928D01*
X53560751Y-79889579D01*
X52910330Y-80540000D01*
X51937058Y-80540000D01*
X51893375Y-80320395D01*
X52160349Y-80053421D01*
X51733244Y-79626316D01*
X52030376Y-79749696D01*
X52120104Y-79749774D01*
X52380000Y-80009670D01*
X52639442Y-79750228D01*
X52726569Y-79750304D01*
X53370001Y-79484443D01*
X53862713Y-78992590D01*
X54129696Y-78349624D01*
X54130304Y-77653431D01*
X53864443Y-77009999D01*
X53372590Y-76517287D01*
X52729624Y-76250304D01*
X52171591Y-76249817D01*
X52171591Y-75970000D01*
X55063756Y-75970000D01*
X55204579Y-76677964D01*
X55580118Y-77240000D01*
X55204579Y-77802036D01*
X55063756Y-78510000D01*
X55204579Y-79217964D01*
X55380649Y-79481472D01*
X55160738Y-79803322D01*
X55080409Y-80200000D01*
X55080409Y-81900000D01*
X55150138Y-82270578D01*
X55369149Y-82610931D01*
X55703322Y-82839262D01*
X56100000Y-82919591D01*
X57800000Y-82919591D01*
X58170578Y-82849862D01*
X58510931Y-82630851D01*
X58739262Y-82296678D01*
X58819591Y-81900000D01*
X58819591Y-80246002D01*
X58897998Y-80246002D01*
X58897998Y-80554000D01*
X59430000Y-80554000D01*
X59430000Y-80646775D01*
X59545398Y-80925372D01*
X59648026Y-81028000D01*
X59545398Y-81130628D01*
X59430000Y-81409225D01*
X59430000Y-81502000D01*
X58897998Y-81502000D01*
X58897998Y-82167939D01*
X58723335Y-82429369D01*
X58839263Y-82660000D01*
X59748000Y-82660000D01*
X59748000Y-82310000D01*
X60548000Y-82310000D01*
X60548000Y-82660000D01*
X61456737Y-82660000D01*
X61572665Y-82429369D01*
X61438000Y-82227807D01*
X61438000Y-79828193D01*
X61492913Y-79746000D01*
X63938000Y-79746000D01*
X63938000Y-82310000D01*
X65756500Y-82310000D01*
X65946000Y-82120500D01*
X65946000Y-81409225D01*
X65830602Y-81130628D01*
X65727974Y-81028000D01*
X65830602Y-80925372D01*
X65946000Y-80646775D01*
X65946000Y-79935500D01*
X65756500Y-79746000D01*
X63938000Y-79746000D01*
X61492913Y-79746000D01*
X61572665Y-79626631D01*
X61456737Y-79396000D01*
X60548000Y-79396000D01*
X60548000Y-79746000D01*
X59748000Y-79746000D01*
X59748000Y-79396000D01*
X59348000Y-79396000D01*
X59348000Y-78596000D01*
X59748000Y-78596000D01*
X59748000Y-78246000D01*
X60548000Y-78246000D01*
X60548000Y-78596000D01*
X61456737Y-78596000D01*
X61572665Y-78365369D01*
X61438000Y-78163807D01*
X61438000Y-76927500D01*
X63938000Y-76927500D01*
X63938000Y-78246000D01*
X65756500Y-78246000D01*
X65946000Y-78056500D01*
X65946000Y-77496000D01*
X66788409Y-77496000D01*
X66788409Y-80496000D01*
X66858138Y-80866578D01*
X66961617Y-81027389D01*
X66868738Y-81163322D01*
X66788409Y-81560000D01*
X66788409Y-84560000D01*
X66858138Y-84930578D01*
X67077149Y-85270931D01*
X67411322Y-85499262D01*
X67808000Y-85579591D01*
X72808000Y-85579591D01*
X73178578Y-85509862D01*
X73518931Y-85290851D01*
X73584784Y-85194471D01*
X76889688Y-85194471D01*
X77163145Y-85856286D01*
X77669051Y-86363076D01*
X78330387Y-86637687D01*
X79046471Y-86638312D01*
X79708286Y-86364855D01*
X80093114Y-85980698D01*
X80954093Y-86841677D01*
X81406643Y-86389126D01*
X81770017Y-86316846D01*
X81855119Y-86068805D01*
X81190000Y-85403685D01*
X80907157Y-85686528D01*
X80468725Y-85248096D01*
X80489687Y-85197613D01*
X80489884Y-84972431D01*
X80624315Y-84838000D01*
X81755685Y-84838000D01*
X82420805Y-85503119D01*
X82495474Y-85477500D01*
X85414000Y-85477500D01*
X85414000Y-85888776D01*
X85529399Y-86167373D01*
X85742628Y-86380602D01*
X86021225Y-86496000D01*
X86432500Y-86496000D01*
X86622000Y-86306500D01*
X86622000Y-85288000D01*
X87522000Y-85288000D01*
X87522000Y-86306500D01*
X87711500Y-86496000D01*
X88122775Y-86496000D01*
X88401372Y-86380602D01*
X88614601Y-86167373D01*
X88730000Y-85888776D01*
X88730000Y-85477500D01*
X88540500Y-85288000D01*
X87522000Y-85288000D01*
X86622000Y-85288000D01*
X85603500Y-85288000D01*
X85414000Y-85477500D01*
X82495474Y-85477500D01*
X82668846Y-85418017D01*
X82778239Y-84807936D01*
X82668846Y-84257983D01*
X82420805Y-84172881D01*
X81755685Y-84838000D01*
X80624315Y-84838000D01*
X80490118Y-84703803D01*
X80490312Y-84481529D01*
X80468321Y-84428308D01*
X80907157Y-83989472D01*
X81190000Y-84272315D01*
X81855119Y-83607195D01*
X81770017Y-83359154D01*
X81415323Y-83295554D01*
X80954093Y-82834323D01*
X80092887Y-83695529D01*
X79710949Y-83312924D01*
X79049613Y-83038313D01*
X78333529Y-83037688D01*
X77671714Y-83311145D01*
X77164924Y-83817051D01*
X76890313Y-84478387D01*
X76889688Y-85194471D01*
X73584784Y-85194471D01*
X73747262Y-84956678D01*
X73818123Y-84606756D01*
X73866286Y-84586855D01*
X74373076Y-84080949D01*
X74647687Y-83419613D01*
X74647898Y-83177694D01*
X75028387Y-83335687D01*
X75744471Y-83336312D01*
X76406286Y-83062855D01*
X76913076Y-82556949D01*
X77187687Y-81895613D01*
X77188312Y-81179529D01*
X76914855Y-80517714D01*
X76605409Y-80207727D01*
X76898931Y-80018851D01*
X77127262Y-79684678D01*
X77207591Y-79288000D01*
X77207591Y-78488000D01*
X81172736Y-78488000D01*
X81309753Y-79176830D01*
X81699944Y-79760792D01*
X82075903Y-80012000D01*
X81699944Y-80263208D01*
X81309753Y-80847170D01*
X81172736Y-81536000D01*
X81309753Y-82224830D01*
X81699944Y-82808792D01*
X82283906Y-83198983D01*
X82972736Y-83336000D01*
X83043264Y-83336000D01*
X83732094Y-83198983D01*
X84316056Y-82808792D01*
X84405937Y-82674275D01*
X85171671Y-82674275D01*
X85460319Y-83372857D01*
X85562655Y-83475371D01*
X85529399Y-83508627D01*
X85414000Y-83787224D01*
X85414000Y-84198500D01*
X85603500Y-84388000D01*
X86622000Y-84388000D01*
X86622000Y-84168433D01*
X86692409Y-84197669D01*
X87448275Y-84198329D01*
X87522000Y-84167866D01*
X87522000Y-84388000D01*
X88540500Y-84388000D01*
X88730000Y-84198500D01*
X88730000Y-83787224D01*
X88614601Y-83508627D01*
X88581635Y-83475661D01*
X88681802Y-83375669D01*
X88971669Y-82677591D01*
X88972329Y-81921725D01*
X88683681Y-81223143D01*
X88149669Y-80688198D01*
X87451591Y-80398331D01*
X86695725Y-80397671D01*
X85997143Y-80686319D01*
X85462198Y-81220331D01*
X85172331Y-81918409D01*
X85171671Y-82674275D01*
X84405937Y-82674275D01*
X84706247Y-82224830D01*
X84843264Y-81536000D01*
X84706247Y-80847170D01*
X84316056Y-80263208D01*
X83940097Y-80012000D01*
X84316056Y-79760792D01*
X84401522Y-79632884D01*
X84781051Y-80013076D01*
X85442387Y-80287687D01*
X86158471Y-80288312D01*
X86820286Y-80014855D01*
X87205114Y-79630698D01*
X88066093Y-80491677D01*
X88518643Y-80039126D01*
X88882017Y-79966846D01*
X88967119Y-79718805D01*
X88302000Y-79053685D01*
X88019157Y-79336528D01*
X87580725Y-78898096D01*
X87601687Y-78847613D01*
X87601884Y-78622431D01*
X87736315Y-78488000D01*
X88867685Y-78488000D01*
X89532805Y-79153119D01*
X89780846Y-79068017D01*
X89854338Y-78658155D01*
X90081944Y-78998792D01*
X90410409Y-79218265D01*
X90410409Y-79226000D01*
X90480138Y-79596578D01*
X90583617Y-79757389D01*
X90490738Y-79893322D01*
X90410409Y-80290000D01*
X90410409Y-80297735D01*
X90081944Y-80517208D01*
X89691753Y-81101170D01*
X89554736Y-81790000D01*
X89691753Y-82478830D01*
X90081944Y-83062792D01*
X90410409Y-83282265D01*
X90410409Y-83290000D01*
X90480138Y-83660578D01*
X90583617Y-83821389D01*
X90490738Y-83957322D01*
X90419877Y-84307244D01*
X90371714Y-84327145D01*
X89864924Y-84833051D01*
X89590313Y-85494387D01*
X89589688Y-86210471D01*
X89863145Y-86872286D01*
X90369051Y-87379076D01*
X90419033Y-87399830D01*
X90480138Y-87724578D01*
X90583617Y-87885389D01*
X90490738Y-88021322D01*
X90419877Y-88371244D01*
X90371714Y-88391145D01*
X89864924Y-88897051D01*
X89590313Y-89558387D01*
X89589688Y-90274471D01*
X89863145Y-90936286D01*
X90369051Y-91443076D01*
X90419033Y-91463830D01*
X90480138Y-91788578D01*
X90699149Y-92128931D01*
X91033322Y-92357262D01*
X91430000Y-92437591D01*
X96430000Y-92437591D01*
X96800578Y-92367862D01*
X97140931Y-92148851D01*
X97369262Y-91814678D01*
X97449591Y-91418000D01*
X97449591Y-88418000D01*
X97379862Y-88047422D01*
X97276383Y-87886611D01*
X97369262Y-87750678D01*
X97449591Y-87354000D01*
X97449591Y-84354000D01*
X97379862Y-83983422D01*
X97276383Y-83822611D01*
X97369262Y-83686678D01*
X97449591Y-83290000D01*
X97449591Y-80290000D01*
X97379862Y-79919422D01*
X97276383Y-79758611D01*
X97369262Y-79622678D01*
X97449591Y-79226000D01*
X97449591Y-76226000D01*
X98030409Y-76226000D01*
X98030409Y-79226000D01*
X98100138Y-79596578D01*
X98203617Y-79757389D01*
X98110738Y-79893322D01*
X98030409Y-80290000D01*
X98030409Y-83290000D01*
X98100138Y-83660578D01*
X98203617Y-83821389D01*
X98110738Y-83957322D01*
X98030409Y-84354000D01*
X98030409Y-87354000D01*
X98100138Y-87724578D01*
X98203617Y-87885389D01*
X98110738Y-88021322D01*
X98030409Y-88418000D01*
X98030409Y-91418000D01*
X98100138Y-91788578D01*
X98319149Y-92128931D01*
X98653322Y-92357262D01*
X99050000Y-92437591D01*
X104050000Y-92437591D01*
X104420578Y-92367862D01*
X104760931Y-92148851D01*
X104989262Y-91814678D01*
X105069591Y-91418000D01*
X105069591Y-91410265D01*
X105398056Y-91190792D01*
X105788247Y-90606830D01*
X105925264Y-89918000D01*
X105788247Y-89229170D01*
X105398056Y-88645208D01*
X105069591Y-88425735D01*
X105069591Y-88418000D01*
X104999862Y-88047422D01*
X104896383Y-87886611D01*
X104989262Y-87750678D01*
X105069591Y-87354000D01*
X105069591Y-87346265D01*
X105398056Y-87126792D01*
X105788247Y-86542830D01*
X105925264Y-85854000D01*
X105788247Y-85165170D01*
X105398056Y-84581208D01*
X105069591Y-84361735D01*
X105069591Y-84354000D01*
X104999862Y-83983422D01*
X104896383Y-83822611D01*
X104989262Y-83686678D01*
X105060123Y-83336756D01*
X105108286Y-83316855D01*
X105615076Y-82810949D01*
X105734199Y-82524069D01*
X106205792Y-82839177D01*
X106913756Y-82980000D01*
X106986244Y-82980000D01*
X107694208Y-82839177D01*
X108294392Y-82438148D01*
X108695421Y-81837964D01*
X108836244Y-81130000D01*
X108695421Y-80422036D01*
X108319882Y-79860000D01*
X108695421Y-79297964D01*
X108836244Y-78590000D01*
X108787823Y-78346569D01*
X109869696Y-78346569D01*
X110135557Y-78990001D01*
X110627410Y-79482713D01*
X111270376Y-79749696D01*
X111828409Y-79750183D01*
X111828409Y-81786000D01*
X111898138Y-82156578D01*
X112117149Y-82496931D01*
X112451322Y-82725262D01*
X112848000Y-82805591D01*
X114650239Y-82805591D01*
X114649645Y-83485981D01*
X114961081Y-84239715D01*
X115537252Y-84816892D01*
X116290441Y-85129643D01*
X117105981Y-85130355D01*
X117859715Y-84818919D01*
X118436892Y-84242748D01*
X118749643Y-83489559D01*
X118750355Y-82674019D01*
X118438919Y-81920285D01*
X117862748Y-81343108D01*
X117109559Y-81030357D01*
X116867591Y-81030146D01*
X116867591Y-78786000D01*
X116797862Y-78415422D01*
X116578851Y-78075069D01*
X116244678Y-77846738D01*
X115848000Y-77766409D01*
X113370205Y-77766409D01*
X113370304Y-77653431D01*
X113246236Y-77353164D01*
X113607421Y-77714349D01*
X113892198Y-77429572D01*
X114569149Y-77497592D01*
X115020639Y-77407784D01*
X115214301Y-77132961D01*
X114348000Y-76266660D01*
X113980304Y-76634356D01*
X113099275Y-75753327D01*
X113157453Y-75443454D01*
X113139606Y-75353734D01*
X113287340Y-75206000D01*
X113066241Y-74984901D01*
X113046753Y-74886928D01*
X112932273Y-74850933D01*
X112421039Y-74339699D01*
X112146216Y-74533361D01*
X112056408Y-75427149D01*
X112106625Y-75679605D01*
X111839651Y-75946579D01*
X112266756Y-76373684D01*
X111969624Y-76250304D01*
X111879896Y-76250226D01*
X111620000Y-75990330D01*
X111360558Y-76249772D01*
X111273431Y-76249696D01*
X110629999Y-76515557D01*
X110137287Y-77007410D01*
X109870304Y-77650376D01*
X109869696Y-78346569D01*
X108787823Y-78346569D01*
X108695421Y-77882036D01*
X108519351Y-77618528D01*
X108739262Y-77296678D01*
X108819591Y-76900000D01*
X108819591Y-75476546D01*
X110082547Y-75476546D01*
X110193247Y-76033072D01*
X110439249Y-76110421D01*
X111089670Y-75460000D01*
X110439249Y-74809579D01*
X110193247Y-74886928D01*
X110082547Y-75476546D01*
X108819591Y-75476546D01*
X108819591Y-75200000D01*
X108749862Y-74829422D01*
X108530851Y-74489069D01*
X108223770Y-74279249D01*
X110969579Y-74279249D01*
X111620000Y-74929670D01*
X112270421Y-74279249D01*
X112193072Y-74033247D01*
X111603454Y-73922547D01*
X111046928Y-74033247D01*
X110969579Y-74279249D01*
X108223770Y-74279249D01*
X108196678Y-74260738D01*
X107800000Y-74180409D01*
X106100000Y-74180409D01*
X105729422Y-74250138D01*
X105389069Y-74469149D01*
X105160738Y-74803322D01*
X105080409Y-75200000D01*
X105080409Y-76188243D01*
X105060967Y-76180170D01*
X104999862Y-75855422D01*
X104780851Y-75515069D01*
X104446678Y-75286738D01*
X104050000Y-75206409D01*
X99050000Y-75206409D01*
X98679422Y-75276138D01*
X98339069Y-75495149D01*
X98110738Y-75829322D01*
X98030409Y-76226000D01*
X97449591Y-76226000D01*
X97379862Y-75855422D01*
X97160851Y-75515069D01*
X96826678Y-75286738D01*
X96430000Y-75206409D01*
X91430000Y-75206409D01*
X91059422Y-75276138D01*
X90719069Y-75495149D01*
X90490738Y-75829322D01*
X90410409Y-76226000D01*
X90410409Y-76233735D01*
X90081944Y-76453208D01*
X89691753Y-77037170D01*
X89554736Y-77726000D01*
X89577025Y-77838053D01*
X89532805Y-77822881D01*
X88867685Y-78488000D01*
X87736315Y-78488000D01*
X87602118Y-78353803D01*
X87602312Y-78131529D01*
X87580321Y-78078308D01*
X88019157Y-77639472D01*
X88302000Y-77922315D01*
X88967119Y-77257195D01*
X88882017Y-77009154D01*
X88527323Y-76945554D01*
X88066093Y-76484323D01*
X87204887Y-77345529D01*
X86822949Y-76962924D01*
X86161613Y-76688313D01*
X85445529Y-76687688D01*
X84783714Y-76961145D01*
X84401343Y-77342849D01*
X84316056Y-77215208D01*
X83732094Y-76825017D01*
X83043264Y-76688000D01*
X82972736Y-76688000D01*
X82283906Y-76825017D01*
X81699944Y-77215208D01*
X81309753Y-77799170D01*
X81172736Y-78488000D01*
X77207591Y-78488000D01*
X77207591Y-77688000D01*
X77137862Y-77317422D01*
X76918851Y-76977069D01*
X76584678Y-76748738D01*
X76188000Y-76668409D01*
X74588000Y-76668409D01*
X74217422Y-76738138D01*
X73877069Y-76957149D01*
X73758776Y-77130277D01*
X73757862Y-77125422D01*
X73538851Y-76785069D01*
X73204678Y-76556738D01*
X72808000Y-76476409D01*
X67808000Y-76476409D01*
X67437422Y-76546138D01*
X67097069Y-76765149D01*
X66868738Y-77099322D01*
X66788409Y-77496000D01*
X65946000Y-77496000D01*
X65946000Y-77345225D01*
X65830602Y-77066628D01*
X65617373Y-76853399D01*
X65338776Y-76738000D01*
X64127500Y-76738000D01*
X63938000Y-76927500D01*
X61438000Y-76927500D01*
X61248500Y-76738000D01*
X60037224Y-76738000D01*
X59758627Y-76853399D01*
X59545398Y-77066628D01*
X59430000Y-77345225D01*
X59430000Y-77438000D01*
X58897998Y-77438000D01*
X58897998Y-77745998D01*
X58657978Y-77745998D01*
X58319882Y-77240000D01*
X58695421Y-76677964D01*
X58836244Y-75970000D01*
X58695421Y-75262036D01*
X58294392Y-74661852D01*
X57694208Y-74260823D01*
X56986244Y-74120000D01*
X56913756Y-74120000D01*
X56205792Y-74260823D01*
X55605608Y-74661852D01*
X55204579Y-75262036D01*
X55063756Y-75970000D01*
X52171591Y-75970000D01*
X52171591Y-74214000D01*
X52101862Y-73843422D01*
X51882851Y-73503069D01*
X51554973Y-73279039D01*
X113481699Y-73279039D01*
X114348000Y-74145340D01*
X114715696Y-73777644D01*
X114921167Y-73983115D01*
X114961081Y-74079715D01*
X115537252Y-74656892D01*
X115635911Y-74697859D01*
X115776356Y-74838304D01*
X115408660Y-75206000D01*
X116274961Y-76072301D01*
X116549784Y-75878639D01*
X116639592Y-74984851D01*
X116636627Y-74969945D01*
X117105981Y-74970355D01*
X117859715Y-74658919D01*
X118436892Y-74082748D01*
X118749643Y-73329559D01*
X118750355Y-72514019D01*
X118438919Y-71760285D01*
X117862748Y-71183108D01*
X117109559Y-70870357D01*
X116294019Y-70869645D01*
X115540285Y-71181081D01*
X114963108Y-71757252D01*
X114650357Y-72510441D01*
X114649958Y-72966970D01*
X114126851Y-72914408D01*
X113675361Y-73004216D01*
X113481699Y-73279039D01*
X51554973Y-73279039D01*
X51548678Y-73274738D01*
X51152000Y-73194409D01*
X49349761Y-73194409D01*
X49350355Y-72514019D01*
X49038919Y-71760285D01*
X48462748Y-71183108D01*
X47709559Y-70870357D01*
X46894019Y-70869645D01*
X46140285Y-71181081D01*
X45563108Y-71757252D01*
X45250357Y-72510441D01*
X45249645Y-73325981D01*
X41075000Y-73325981D01*
X41075000Y-62635981D01*
X45381645Y-62635981D01*
X45693081Y-63389715D01*
X46269252Y-63966892D01*
X47022441Y-64279643D01*
X47837981Y-64280355D01*
X48591715Y-63968919D01*
X49168892Y-63392748D01*
X49481643Y-62639559D01*
X49481746Y-62520609D01*
X66083523Y-62520609D01*
X66501304Y-63531715D01*
X67274216Y-64305977D01*
X68284591Y-64725522D01*
X69378609Y-64726477D01*
X70389715Y-64308696D01*
X70802766Y-63896365D01*
X96091072Y-63896365D01*
X96323576Y-64180196D01*
X97317907Y-64262648D01*
X97732424Y-64180196D01*
X97964928Y-63896365D01*
X97028000Y-62959437D01*
X96091072Y-63896365D01*
X70802766Y-63896365D01*
X71163977Y-63535784D01*
X71583522Y-62525409D01*
X71583970Y-62011907D01*
X94487352Y-62011907D01*
X94569804Y-62426424D01*
X94853635Y-62658928D01*
X95790563Y-61722000D01*
X98265437Y-61722000D01*
X99202365Y-62658928D01*
X99486196Y-62426424D01*
X99568648Y-61432093D01*
X99486196Y-61017576D01*
X99202365Y-60785072D01*
X98265437Y-61722000D01*
X95790563Y-61722000D01*
X94853635Y-60785072D01*
X94569804Y-61017576D01*
X94487352Y-62011907D01*
X71583970Y-62011907D01*
X71584477Y-61431391D01*
X71166696Y-60420285D01*
X70393784Y-59646023D01*
X69383409Y-59226478D01*
X68289391Y-59225523D01*
X67278285Y-59643304D01*
X66504023Y-60416216D01*
X66084478Y-61426591D01*
X66083523Y-62520609D01*
X49481746Y-62520609D01*
X49482042Y-62183030D01*
X50005149Y-62235592D01*
X50456639Y-62145784D01*
X50650301Y-61870961D01*
X49784000Y-61004660D01*
X49416304Y-61372356D01*
X49210833Y-61166885D01*
X49170919Y-61070285D01*
X48971733Y-60870751D01*
X51861579Y-60870751D01*
X51938928Y-61116753D01*
X52528546Y-61227453D01*
X53085072Y-61116753D01*
X53162421Y-60870751D01*
X52512000Y-60220330D01*
X51861579Y-60870751D01*
X48971733Y-60870751D01*
X48594748Y-60493108D01*
X48496089Y-60452141D01*
X48355644Y-60311696D01*
X48723340Y-59944000D01*
X47857039Y-59077699D01*
X47582216Y-59271361D01*
X47492408Y-60165149D01*
X47495373Y-60180055D01*
X47026019Y-60179645D01*
X46272285Y-60491081D01*
X45695108Y-61067252D01*
X45382357Y-61820441D01*
X45381645Y-62635981D01*
X41075000Y-62635981D01*
X41075000Y-52475981D01*
X45381645Y-52475981D01*
X45693081Y-53229715D01*
X46269252Y-53806892D01*
X47022441Y-54119643D01*
X47264409Y-54119854D01*
X47264409Y-56364000D01*
X47334138Y-56734578D01*
X47553149Y-57074931D01*
X47887322Y-57303262D01*
X48284000Y-57383591D01*
X50761795Y-57383591D01*
X50761696Y-57496569D01*
X50885764Y-57796836D01*
X50524579Y-57435651D01*
X50239802Y-57720428D01*
X49562851Y-57652408D01*
X49111361Y-57742216D01*
X48917699Y-58017039D01*
X49784000Y-58883340D01*
X50151696Y-58515644D01*
X51032725Y-59396673D01*
X50974547Y-59706546D01*
X50992394Y-59796266D01*
X50844660Y-59944000D01*
X51065759Y-60165099D01*
X51085247Y-60263072D01*
X51199727Y-60299067D01*
X51710961Y-60810301D01*
X51985784Y-60616639D01*
X52075592Y-59722851D01*
X52069058Y-59690000D01*
X53042330Y-59690000D01*
X53692751Y-60340421D01*
X53938753Y-60263072D01*
X54049453Y-59673454D01*
X53938753Y-59116928D01*
X53692751Y-59039579D01*
X53042330Y-59690000D01*
X52069058Y-59690000D01*
X52025375Y-59470395D01*
X52292349Y-59203421D01*
X51865244Y-58776316D01*
X52162376Y-58899696D01*
X52252104Y-58899774D01*
X52512000Y-59159670D01*
X52771442Y-58900228D01*
X52858569Y-58900304D01*
X53317665Y-58710609D01*
X55415523Y-58710609D01*
X55833304Y-59721715D01*
X56606216Y-60495977D01*
X57616591Y-60915522D01*
X58710609Y-60916477D01*
X59721715Y-60498696D01*
X60495977Y-59725784D01*
X60896956Y-58760119D01*
X61007481Y-58760119D01*
X61463241Y-59863143D01*
X62306418Y-60707793D01*
X63408645Y-61165478D01*
X64602119Y-61166519D01*
X65705143Y-60710759D01*
X66549793Y-59867582D01*
X67007478Y-58765355D01*
X67007482Y-58760119D01*
X70913481Y-58760119D01*
X71369241Y-59863143D01*
X72212418Y-60707793D01*
X73314645Y-61165478D01*
X74508119Y-61166519D01*
X75611143Y-60710759D01*
X76455793Y-59867582D01*
X76913478Y-58765355D01*
X76913747Y-58456609D01*
X77005523Y-58456609D01*
X77423304Y-59467715D01*
X78196216Y-60241977D01*
X79206591Y-60661522D01*
X80300609Y-60662477D01*
X81311715Y-60244696D01*
X82085977Y-59471784D01*
X82505522Y-58461409D01*
X82505526Y-58456609D01*
X83101523Y-58456609D01*
X83519304Y-59467715D01*
X84292216Y-60241977D01*
X85302591Y-60661522D01*
X86396609Y-60662477D01*
X87407715Y-60244696D01*
X88181977Y-59471784D01*
X88582956Y-58506119D01*
X88693481Y-58506119D01*
X89149241Y-59609143D01*
X89992418Y-60453793D01*
X91094645Y-60911478D01*
X92288119Y-60912519D01*
X93391143Y-60456759D01*
X94235793Y-59613582D01*
X94263176Y-59547635D01*
X96091072Y-59547635D01*
X97028000Y-60484563D01*
X97964928Y-59547635D01*
X97732424Y-59263804D01*
X96738093Y-59181352D01*
X96323576Y-59263804D01*
X96091072Y-59547635D01*
X94263176Y-59547635D01*
X94693478Y-58511355D01*
X94693482Y-58506119D01*
X98345481Y-58506119D01*
X98801241Y-59609143D01*
X99644418Y-60453793D01*
X100746645Y-60911478D01*
X101940119Y-60912519D01*
X103043143Y-60456759D01*
X103887793Y-59613582D01*
X104328244Y-58552860D01*
X104601304Y-59213715D01*
X105374216Y-59987977D01*
X106384591Y-60407522D01*
X107478609Y-60408477D01*
X108489715Y-59990696D01*
X109263977Y-59217784D01*
X109625737Y-58346569D01*
X109869696Y-58346569D01*
X110135557Y-58990001D01*
X110627410Y-59482713D01*
X111270376Y-59749696D01*
X111828409Y-59750183D01*
X111828409Y-61786000D01*
X111898138Y-62156578D01*
X112117149Y-62496931D01*
X112451322Y-62725262D01*
X112848000Y-62805591D01*
X114650239Y-62805591D01*
X114649645Y-63485981D01*
X114961081Y-64239715D01*
X115537252Y-64816892D01*
X116290441Y-65129643D01*
X117105981Y-65130355D01*
X117859715Y-64818919D01*
X118436892Y-64242748D01*
X118749643Y-63489559D01*
X118750355Y-62674019D01*
X118438919Y-61920285D01*
X117862748Y-61343108D01*
X117109559Y-61030357D01*
X116867591Y-61030146D01*
X116867591Y-58786000D01*
X116797862Y-58415422D01*
X116578851Y-58075069D01*
X116244678Y-57846738D01*
X115848000Y-57766409D01*
X113370205Y-57766409D01*
X113370304Y-57653431D01*
X113246236Y-57353164D01*
X113607421Y-57714349D01*
X113892198Y-57429572D01*
X114569149Y-57497592D01*
X115020639Y-57407784D01*
X115214301Y-57132961D01*
X114348000Y-56266660D01*
X113980304Y-56634356D01*
X113099275Y-55753327D01*
X113157453Y-55443454D01*
X113139606Y-55353734D01*
X113287340Y-55206000D01*
X113066241Y-54984901D01*
X113046753Y-54886928D01*
X112932273Y-54850933D01*
X112421039Y-54339699D01*
X112146216Y-54533361D01*
X112056408Y-55427149D01*
X112106625Y-55679605D01*
X111839651Y-55946579D01*
X112266756Y-56373684D01*
X111969624Y-56250304D01*
X111879896Y-56250226D01*
X111620000Y-55990330D01*
X111360558Y-56249772D01*
X111273431Y-56249696D01*
X110629999Y-56515557D01*
X110137287Y-57007410D01*
X109870304Y-57650376D01*
X109869696Y-58346569D01*
X109625737Y-58346569D01*
X109683522Y-58207409D01*
X109684477Y-57113391D01*
X109266696Y-56102285D01*
X108642049Y-55476546D01*
X110082547Y-55476546D01*
X110193247Y-56033072D01*
X110439249Y-56110421D01*
X111089670Y-55460000D01*
X110439249Y-54809579D01*
X110193247Y-54886928D01*
X110082547Y-55476546D01*
X108642049Y-55476546D01*
X108493784Y-55328023D01*
X107483409Y-54908478D01*
X106389391Y-54907523D01*
X105378285Y-55325304D01*
X104604023Y-56098216D01*
X104222353Y-57017377D01*
X103890759Y-56214857D01*
X103047582Y-55370207D01*
X101945355Y-54912522D01*
X100751881Y-54911481D01*
X99648857Y-55367241D01*
X98804207Y-56210418D01*
X98346522Y-57312645D01*
X98345481Y-58506119D01*
X94693482Y-58506119D01*
X94694519Y-57317881D01*
X94238759Y-56214857D01*
X93395582Y-55370207D01*
X92293355Y-54912522D01*
X91099881Y-54911481D01*
X89996857Y-55367241D01*
X89152207Y-56210418D01*
X88694522Y-57312645D01*
X88693481Y-58506119D01*
X88582956Y-58506119D01*
X88601522Y-58461409D01*
X88602477Y-57367391D01*
X88184696Y-56356285D01*
X87411784Y-55582023D01*
X86401409Y-55162478D01*
X85307391Y-55161523D01*
X84296285Y-55579304D01*
X83522023Y-56352216D01*
X83102478Y-57362591D01*
X83101523Y-58456609D01*
X82505526Y-58456609D01*
X82506477Y-57367391D01*
X82088696Y-56356285D01*
X81315784Y-55582023D01*
X80305409Y-55162478D01*
X79211391Y-55161523D01*
X78200285Y-55579304D01*
X77426023Y-56352216D01*
X77006478Y-57362591D01*
X77005523Y-58456609D01*
X76913747Y-58456609D01*
X76914519Y-57571881D01*
X76458759Y-56468857D01*
X75615582Y-55624207D01*
X74513355Y-55166522D01*
X73319881Y-55165481D01*
X72216857Y-55621241D01*
X71372207Y-56464418D01*
X70914522Y-57566645D01*
X70913481Y-58760119D01*
X67007482Y-58760119D01*
X67008519Y-57571881D01*
X66683125Y-56784365D01*
X67897072Y-56784365D01*
X68129576Y-57068196D01*
X69123907Y-57150648D01*
X69538424Y-57068196D01*
X69770928Y-56784365D01*
X68834000Y-55847437D01*
X67897072Y-56784365D01*
X66683125Y-56784365D01*
X66552759Y-56468857D01*
X65709582Y-55624207D01*
X64607355Y-55166522D01*
X63413881Y-55165481D01*
X62310857Y-55621241D01*
X61466207Y-56464418D01*
X61008522Y-57566645D01*
X61007481Y-58760119D01*
X60896956Y-58760119D01*
X60915522Y-58715409D01*
X60916477Y-57621391D01*
X60498696Y-56610285D01*
X59725784Y-55836023D01*
X58715409Y-55416478D01*
X57621391Y-55415523D01*
X56610285Y-55833304D01*
X55836023Y-56606216D01*
X55416478Y-57616591D01*
X55415523Y-58710609D01*
X53317665Y-58710609D01*
X53502001Y-58634443D01*
X53994713Y-58142590D01*
X54261696Y-57499624D01*
X54262304Y-56803431D01*
X53996443Y-56159999D01*
X53504590Y-55667287D01*
X52861624Y-55400304D01*
X52303591Y-55399817D01*
X52303591Y-54899907D01*
X66293352Y-54899907D01*
X66375804Y-55314424D01*
X66659635Y-55546928D01*
X67596563Y-54610000D01*
X70071437Y-54610000D01*
X71008365Y-55546928D01*
X71292196Y-55314424D01*
X71368634Y-54392609D01*
X94023523Y-54392609D01*
X94441304Y-55403715D01*
X95214216Y-56177977D01*
X96224591Y-56597522D01*
X97318609Y-56598477D01*
X98329715Y-56180696D01*
X99103977Y-55407784D01*
X99523522Y-54397409D01*
X99523625Y-54279249D01*
X110969579Y-54279249D01*
X111620000Y-54929670D01*
X112270421Y-54279249D01*
X112193072Y-54033247D01*
X111603454Y-53922547D01*
X111046928Y-54033247D01*
X110969579Y-54279249D01*
X99523625Y-54279249D01*
X99524477Y-53303391D01*
X99514415Y-53279039D01*
X113481699Y-53279039D01*
X114348000Y-54145340D01*
X114715696Y-53777644D01*
X114921167Y-53983115D01*
X114961081Y-54079715D01*
X115537252Y-54656892D01*
X115635911Y-54697859D01*
X115776356Y-54838304D01*
X115408660Y-55206000D01*
X116274961Y-56072301D01*
X116549784Y-55878639D01*
X116639592Y-54984851D01*
X116636627Y-54969945D01*
X117105981Y-54970355D01*
X117859715Y-54658919D01*
X118436892Y-54082748D01*
X118749643Y-53329559D01*
X118750355Y-52514019D01*
X118438919Y-51760285D01*
X117862748Y-51183108D01*
X117109559Y-50870357D01*
X116294019Y-50869645D01*
X115540285Y-51181081D01*
X114963108Y-51757252D01*
X114650357Y-52510441D01*
X114649958Y-52966970D01*
X114126851Y-52914408D01*
X113675361Y-53004216D01*
X113481699Y-53279039D01*
X99514415Y-53279039D01*
X99106696Y-52292285D01*
X98333784Y-51518023D01*
X97323409Y-51098478D01*
X96229391Y-51097523D01*
X95218285Y-51515304D01*
X94444023Y-52288216D01*
X94024478Y-53298591D01*
X94023523Y-54392609D01*
X71368634Y-54392609D01*
X71374648Y-54320093D01*
X71292196Y-53905576D01*
X71008365Y-53673072D01*
X70071437Y-54610000D01*
X67596563Y-54610000D01*
X66659635Y-53673072D01*
X66375804Y-53905576D01*
X66293352Y-54899907D01*
X52303591Y-54899907D01*
X52303591Y-53364000D01*
X52233862Y-52993422D01*
X52014851Y-52653069D01*
X51696627Y-52435635D01*
X67897072Y-52435635D01*
X68834000Y-53372563D01*
X69770928Y-52435635D01*
X69538424Y-52151804D01*
X68544093Y-52069352D01*
X68129576Y-52151804D01*
X67897072Y-52435635D01*
X51696627Y-52435635D01*
X51680678Y-52424738D01*
X51284000Y-52344409D01*
X49481761Y-52344409D01*
X49482355Y-51664019D01*
X49170919Y-50910285D01*
X48594748Y-50333108D01*
X47841559Y-50020357D01*
X47026019Y-50019645D01*
X46272285Y-50331081D01*
X45695108Y-50907252D01*
X45382357Y-51660441D01*
X45381645Y-52475981D01*
X41075000Y-52475981D01*
X41075000Y-45765848D01*
X41538461Y-46229309D01*
X41853001Y-45914769D01*
X42202263Y-46224618D01*
X43496996Y-46284439D01*
X43797737Y-46224618D01*
X44147001Y-45914768D01*
X43000000Y-44767767D01*
X42985858Y-44781910D01*
X41218091Y-43014143D01*
X41232233Y-43000000D01*
X41218091Y-42985858D01*
X42985858Y-41218091D01*
X43000000Y-41232233D01*
X43014143Y-41218091D01*
X44781910Y-42985858D01*
X44767767Y-43000000D01*
X45914768Y-44147001D01*
X46224618Y-43797737D01*
X46234680Y-43579963D01*
X46267195Y-43591119D01*
X46780000Y-43078315D01*
X46780000Y-44576775D01*
X46895398Y-44855372D01*
X46998026Y-44958000D01*
X46895398Y-45060628D01*
X46780000Y-45339225D01*
X46780000Y-46837685D01*
X46267195Y-46324881D01*
X46019154Y-46409983D01*
X45909761Y-47020064D01*
X46019154Y-47570017D01*
X46267195Y-47655119D01*
X46780000Y-47142315D01*
X46780000Y-48640775D01*
X46895398Y-48919372D01*
X47108627Y-49132601D01*
X47387224Y-49248000D01*
X48598500Y-49248000D01*
X48788000Y-49058500D01*
X48788000Y-47939584D01*
X48987584Y-47740000D01*
X51288000Y-47740000D01*
X51288000Y-49058500D01*
X51477500Y-49248000D01*
X52688776Y-49248000D01*
X52967373Y-49132601D01*
X53180602Y-48919372D01*
X53296000Y-48640775D01*
X53296000Y-47929500D01*
X53106500Y-47740000D01*
X51288000Y-47740000D01*
X48987584Y-47740000D01*
X49501677Y-47225907D01*
X49265770Y-46990000D01*
X49501677Y-46754093D01*
X48788000Y-46040416D01*
X48788000Y-43875584D01*
X48987584Y-43676000D01*
X51288000Y-43676000D01*
X51288000Y-46240000D01*
X53106500Y-46240000D01*
X53296000Y-46050500D01*
X53296000Y-45339225D01*
X53180602Y-45060628D01*
X53077974Y-44958000D01*
X53180602Y-44855372D01*
X53296000Y-44576775D01*
X53296000Y-43865500D01*
X53106500Y-43676000D01*
X51288000Y-43676000D01*
X48987584Y-43676000D01*
X49501677Y-43161907D01*
X49265770Y-42926000D01*
X49501677Y-42690093D01*
X48788000Y-41976416D01*
X48788000Y-41656000D01*
X51288000Y-41656000D01*
X51288000Y-42176000D01*
X53106500Y-42176000D01*
X53296000Y-41986500D01*
X53296000Y-41275225D01*
X53213065Y-41075000D01*
X54209488Y-41075000D01*
X54138409Y-41426000D01*
M02*
