%TF.GenerationSoftware,KiCad,Pcbnew,(6.0.11)*%
%TF.CreationDate,2023-02-05T16:51:29-06:00*%
%TF.ProjectId,MatchTester,4d617463-6854-4657-9374-65722e6b6963,rev?*%
%TF.SameCoordinates,Original*%
%TF.FileFunction,Copper,L2,Bot*%
%TF.FilePolarity,Positive*%
%FSLAX46Y46*%
G04 Gerber Fmt 4.6, Leading zero omitted, Abs format (unit mm)*
G04 Created by KiCad (PCBNEW (6.0.11)) date 2023-02-05 16:51:29*
%MOMM*%
%LPD*%
G01*
G04 APERTURE LIST*
%TA.AperFunction,ComponentPad*%
%ADD10R,1.700000X1.700000*%
%TD*%
%TA.AperFunction,ComponentPad*%
%ADD11O,1.700000X1.700000*%
%TD*%
%TA.AperFunction,ComponentPad*%
%ADD12C,1.600000*%
%TD*%
%TA.AperFunction,ComponentPad*%
%ADD13O,1.600000X1.600000*%
%TD*%
%TA.AperFunction,ComponentPad*%
%ADD14C,3.500000*%
%TD*%
%TA.AperFunction,ComponentPad*%
%ADD15C,5.000000*%
%TD*%
%TA.AperFunction,ComponentPad*%
%ADD16R,1.600000X1.600000*%
%TD*%
%TA.AperFunction,ComponentPad*%
%ADD17C,1.500000*%
%TD*%
%TA.AperFunction,ComponentPad*%
%ADD18R,3.000000X3.000000*%
%TD*%
%TA.AperFunction,ComponentPad*%
%ADD19C,3.000000*%
%TD*%
%TA.AperFunction,ComponentPad*%
%ADD20C,4.064000*%
%TD*%
%TA.AperFunction,ComponentPad*%
%ADD21R,1.800000X1.800000*%
%TD*%
%TA.AperFunction,ComponentPad*%
%ADD22C,1.800000*%
%TD*%
%TA.AperFunction,ComponentPad*%
%ADD23C,1.440000*%
%TD*%
%TA.AperFunction,Conductor*%
%ADD24C,1.000000*%
%TD*%
%TA.AperFunction,Conductor*%
%ADD25C,2.000000*%
%TD*%
G04 APERTURE END LIST*
D10*
%TO.P,JP1,1,1*%
%TO.N,Net-(JP1-Pad1)*%
X106950000Y-76050000D03*
D11*
%TO.P,JP1,2,2*%
%TO.N,Net-(J2-Pad1)*%
X106950000Y-78590000D03*
%TO.P,JP1,3,3*%
%TO.N,Net-(R13-Pad2)*%
X106950000Y-81130000D03*
%TD*%
D12*
%TO.P,R13,1*%
%TO.N,Net-(C6-Pad1)*%
X91390000Y-85854000D03*
D13*
%TO.P,R13,2*%
%TO.N,Net-(R13-Pad2)*%
X104090000Y-85854000D03*
%TD*%
D12*
%TO.P,R11,1*%
%TO.N,Net-(R13-Pad2)*%
X104090000Y-81790000D03*
D13*
%TO.P,R11,2*%
%TO.N,Net-(D4-Pad2)*%
X91390000Y-81790000D03*
%TD*%
D12*
%TO.P,R9,1*%
%TO.N,Net-(R13-Pad2)*%
X104090000Y-77726000D03*
D13*
%TO.P,R9,2*%
%TO.N,Net-(D4-Pad2)*%
X91390000Y-77726000D03*
%TD*%
D12*
%TO.P,R3,1*%
%TO.N,GND*%
X117348000Y-42672000D03*
D13*
%TO.P,R3,2*%
%TO.N,Net-(D2-Pad2)*%
X104648000Y-42672000D03*
%TD*%
D12*
%TO.P,R2,1*%
%TO.N,GND*%
X47498000Y-42926000D03*
D13*
%TO.P,R2,2*%
%TO.N,Net-(R1-Pad2)*%
X60198000Y-42926000D03*
%TD*%
D12*
%TO.P,R4,1*%
%TO.N,GND*%
X117348000Y-47244000D03*
D13*
%TO.P,R4,2*%
%TO.N,Net-(D2-Pad2)*%
X104648000Y-47244000D03*
%TD*%
D14*
%TO.P,J7,1,Pin_1*%
%TO.N,Net-(R1-Pad2)*%
X58166000Y-58166000D03*
%TD*%
%TO.P,J9,1,Pin_1*%
%TO.N,Net-(J30-Pad1)*%
X85852000Y-57912000D03*
%TD*%
%TO.P,J11,1,Pin_1*%
%TO.N,Net-(D2-Pad2)*%
X79756000Y-57912000D03*
%TD*%
%TO.P,J13,1,Pin_1*%
%TO.N,Net-(J13-Pad1)*%
X106934000Y-57658000D03*
%TD*%
D15*
%TO.P,J21,1,Pin_1*%
%TO.N,GND*%
X43000000Y-43000000D03*
%TD*%
%TO.P,J22,1,Pin_1*%
%TO.N,GND*%
X122000000Y-43000000D03*
%TD*%
D14*
%TO.P,J29,1,Pin_1*%
%TO.N,GND*%
X68834000Y-54610000D03*
%TD*%
%TO.P,J30,1,Pin_1*%
%TO.N,Net-(J30-Pad1)*%
X68834000Y-61976000D03*
%TD*%
%TO.P,J31,1,Pin_1*%
%TO.N,Net-(D2-Pad2)*%
X96774000Y-53848000D03*
%TD*%
D12*
%TO.P,C1,1*%
%TO.N,Net-(R5-Pad2)*%
X66294000Y-41656000D03*
%TO.P,C1,2*%
%TO.N,GND*%
X66294000Y-46656000D03*
%TD*%
%TO.P,C2,1*%
%TO.N,Net-(C2-Pad1)*%
X76454000Y-48768000D03*
%TO.P,C2,2*%
%TO.N,GND*%
X81454000Y-48768000D03*
%TD*%
%TO.P,C3,1*%
%TO.N,Net-(R7-Pad2)*%
X98806000Y-41656000D03*
%TO.P,C3,2*%
%TO.N,GND*%
X98806000Y-46656000D03*
%TD*%
%TO.P,C4,1*%
%TO.N,Net-(C4-Pad1)*%
X88900000Y-48768000D03*
%TO.P,C4,2*%
%TO.N,GND*%
X83900000Y-48768000D03*
%TD*%
D10*
%TO.P,J33,1,Pin_1*%
%TO.N,Net-(C2-Pad1)*%
X80518000Y-42418000D03*
D11*
%TO.P,J33,2,Pin_2*%
%TO.N,Net-(C4-Pad1)*%
X83058000Y-42418000D03*
%TO.P,J33,3,Pin_3*%
%TO.N,GND*%
X85598000Y-42418000D03*
%TD*%
D12*
%TO.P,R5,1*%
%TO.N,Net-(C2-Pad1)*%
X69850000Y-49276000D03*
D13*
%TO.P,R5,2*%
%TO.N,Net-(R5-Pad2)*%
X69850000Y-41656000D03*
%TD*%
D12*
%TO.P,R6,1*%
%TO.N,GND*%
X73406000Y-41656000D03*
D13*
%TO.P,R6,2*%
%TO.N,Net-(C2-Pad1)*%
X73406000Y-49276000D03*
%TD*%
D12*
%TO.P,R7,1*%
%TO.N,Net-(C4-Pad1)*%
X95504000Y-49276000D03*
D13*
%TO.P,R7,2*%
%TO.N,Net-(R7-Pad2)*%
X95504000Y-41656000D03*
%TD*%
D12*
%TO.P,R8,1*%
%TO.N,GND*%
X91948000Y-41656000D03*
D13*
%TO.P,R8,2*%
%TO.N,Net-(C4-Pad1)*%
X91948000Y-49276000D03*
%TD*%
D16*
%TO.P,D1,1,K*%
%TO.N,Net-(R5-Pad2)*%
X62992000Y-41656000D03*
D13*
%TO.P,D1,2,A*%
%TO.N,Net-(R1-Pad2)*%
X62992000Y-49276000D03*
%TD*%
D16*
%TO.P,D2,1,K*%
%TO.N,Net-(R7-Pad2)*%
X101854000Y-41656000D03*
D13*
%TO.P,D2,2,A*%
%TO.N,Net-(D2-Pad2)*%
X101854000Y-49276000D03*
%TD*%
D12*
%TO.P,R1,1*%
%TO.N,GND*%
X47498000Y-46990000D03*
D13*
%TO.P,R1,2*%
%TO.N,Net-(R1-Pad2)*%
X60198000Y-46990000D03*
%TD*%
D17*
%TO.P,J4,1,In*%
%TO.N,Net-(J30-Pad1)*%
X52512000Y-57150000D03*
%TO.P,J4,2,Ext*%
%TO.N,GND*%
X52512000Y-59690000D03*
D18*
%TO.P,J4,1,In*%
%TO.N,Net-(J30-Pad1)*%
X49784000Y-54864000D03*
D19*
%TO.P,J4,2,Ext*%
%TO.N,GND*%
X49784000Y-59944000D03*
%TD*%
D17*
%TO.P,J20,1,In*%
%TO.N,Net-(J13-Pad1)*%
X111620000Y-58000000D03*
%TO.P,J20,2,Ext*%
%TO.N,GND*%
X111620000Y-55460000D03*
D18*
%TO.P,J20,1,In*%
%TO.N,Net-(J13-Pad1)*%
X114348000Y-60286000D03*
D19*
%TO.P,J20,2,Ext*%
%TO.N,GND*%
X114348000Y-55206000D03*
%TD*%
D20*
%TO.P,J25,1,Pin_1*%
%TO.N,GND*%
X122000000Y-91000000D03*
%TD*%
%TO.P,J26,1,Pin_1*%
%TO.N,GND*%
X43000000Y-91000000D03*
%TD*%
D14*
%TO.P,J1,1,Pin_1*%
%TO.N,GND*%
X97028000Y-61722000D03*
%TD*%
D16*
%TO.P,D4,1,K*%
%TO.N,Net-(C6-Pad2)*%
X75388000Y-78488000D03*
D13*
%TO.P,D4,2,A*%
%TO.N,Net-(D4-Pad2)*%
X83008000Y-78488000D03*
%TD*%
D21*
%TO.P,D5,1,K*%
%TO.N,GND*%
X87072000Y-84838000D03*
D22*
%TO.P,D5,2,A*%
%TO.N,Net-(D5-Pad2)*%
X87072000Y-82298000D03*
%TD*%
D17*
%TO.P,J2,1,In*%
%TO.N,Net-(J2-Pad1)*%
X111620000Y-78000000D03*
%TO.P,J2,2,Ext*%
%TO.N,GND*%
X111620000Y-75460000D03*
D18*
%TO.P,J2,1,In*%
%TO.N,Net-(J2-Pad1)*%
X114348000Y-80286000D03*
D19*
%TO.P,J2,2,Ext*%
%TO.N,GND*%
X114348000Y-75206000D03*
%TD*%
D17*
%TO.P,J3,1,In*%
%TO.N,Net-(J3-Pad1)*%
X52380000Y-78000000D03*
%TO.P,J3,2,Ext*%
%TO.N,GND*%
X52380000Y-80540000D03*
D18*
%TO.P,J3,1,In*%
%TO.N,Net-(J3-Pad1)*%
X49652000Y-75714000D03*
D19*
%TO.P,J3,2,Ext*%
%TO.N,GND*%
X49652000Y-80794000D03*
%TD*%
D10*
%TO.P,JP2,1,1*%
%TO.N,Net-(C6-Pad1)*%
X56950000Y-81050000D03*
D11*
%TO.P,JP2,2,2*%
%TO.N,Net-(J3-Pad1)*%
X56950000Y-78510000D03*
%TO.P,JP2,3,3*%
%TO.N,Net-(JP1-Pad1)*%
X56950000Y-75970000D03*
%TD*%
D12*
%TO.P,R10,1*%
%TO.N,Net-(D4-Pad2)*%
X72848000Y-78996000D03*
D13*
%TO.P,R10,2*%
%TO.N,GND*%
X60148000Y-78996000D03*
%TD*%
D12*
%TO.P,R12,1*%
%TO.N,Net-(D4-Pad2)*%
X72848000Y-83060000D03*
D13*
%TO.P,R12,2*%
%TO.N,GND*%
X60148000Y-83060000D03*
%TD*%
D12*
%TO.P,R14,1*%
%TO.N,Net-(C6-Pad1)*%
X91390000Y-89918000D03*
D13*
%TO.P,R14,2*%
%TO.N,Net-(R13-Pad2)*%
X104090000Y-89918000D03*
%TD*%
D12*
%TO.P,R15,1*%
%TO.N,Net-(C6-Pad2)*%
X75388000Y-81536000D03*
D13*
%TO.P,R15,2*%
%TO.N,Net-(D5-Pad2)*%
X83008000Y-81536000D03*
%TD*%
D12*
%TO.P,C5,1*%
%TO.N,Net-(D5-Pad2)*%
X85802000Y-78488000D03*
%TO.P,C5,2*%
%TO.N,GND*%
X88302000Y-78488000D03*
%TD*%
%TO.P,C6,1*%
%TO.N,Net-(C6-Pad1)*%
X60530000Y-86720000D03*
%TO.P,C6,2*%
%TO.N,Net-(C6-Pad2)*%
X63030000Y-86720000D03*
%TD*%
%TO.P,C7,1*%
%TO.N,Net-(C7-Pad1)*%
X78690000Y-84838000D03*
%TO.P,C7,2*%
%TO.N,GND*%
X81190000Y-84838000D03*
%TD*%
D10*
%TO.P,J5,1,Pin_1*%
%TO.N,Net-(C7-Pad1)*%
X78690000Y-88648000D03*
D11*
%TO.P,J5,2,Pin_2*%
%TO.N,GND*%
X81230000Y-88648000D03*
%TD*%
D23*
%TO.P,RV1,1,1*%
%TO.N,Net-(C7-Pad1)*%
X72340000Y-87886000D03*
%TO.P,RV1,2,2*%
X69800000Y-87886000D03*
%TO.P,RV1,3,3*%
%TO.N,Net-(C6-Pad2)*%
X67260000Y-87886000D03*
%TD*%
D24*
%TO.N,Net-(R5-Pad2)*%
X69850000Y-41656000D02*
X66040000Y-41656000D01*
X66294000Y-41656000D02*
X62992000Y-41656000D01*
%TO.N,Net-(C2-Pad1)*%
X76454000Y-48768000D02*
X76708000Y-48768000D01*
X76708000Y-48768000D02*
X80518000Y-44958000D01*
X80518000Y-44958000D02*
X80518000Y-42418000D01*
X73406000Y-49276000D02*
X75946000Y-49276000D01*
X75946000Y-49276000D02*
X76454000Y-48768000D01*
X69850000Y-49276000D02*
X73406000Y-49276000D01*
%TO.N,Net-(R7-Pad2)*%
X98806000Y-41656000D02*
X101854000Y-41656000D01*
X95504000Y-41656000D02*
X98806000Y-41656000D01*
%TO.N,Net-(C4-Pad1)*%
X95504000Y-49276000D02*
X91948000Y-49276000D01*
X91948000Y-49276000D02*
X89408000Y-49276000D01*
X89408000Y-49276000D02*
X88900000Y-48768000D01*
X83058000Y-42418000D02*
X83058000Y-44704000D01*
X88900000Y-47498000D02*
X88900000Y-48768000D01*
X87122000Y-45720000D02*
X88900000Y-47498000D01*
X84074000Y-45720000D02*
X87122000Y-45720000D01*
X83058000Y-44704000D02*
X84074000Y-45720000D01*
%TO.N,Net-(R1-Pad2)*%
X60198000Y-46990000D02*
X60198000Y-42164000D01*
X60198000Y-42164000D02*
X60198000Y-42926000D01*
X60198000Y-46990000D02*
X60706000Y-46990000D01*
X60706000Y-46990000D02*
X62992000Y-49276000D01*
X58166000Y-58166000D02*
X58166000Y-49022000D01*
X58166000Y-49022000D02*
X60198000Y-46990000D01*
%TO.N,Net-(D2-Pad2)*%
X101854000Y-49276000D02*
X102616000Y-49276000D01*
X102616000Y-49276000D02*
X104648000Y-47244000D01*
X96774000Y-53848000D02*
X102362000Y-53848000D01*
X104648000Y-51562000D02*
X104648000Y-47244000D01*
X102362000Y-53848000D02*
X104648000Y-51562000D01*
X104648000Y-42672000D02*
X104648000Y-47244000D01*
X79756000Y-57912000D02*
X79756000Y-56388000D01*
X79756000Y-56388000D02*
X82296000Y-53848000D01*
X82296000Y-53848000D02*
X96774000Y-53848000D01*
%TO.N,Net-(D5-Pad2)*%
X87072000Y-82298000D02*
X83770000Y-82298000D01*
X83770000Y-82298000D02*
X83008000Y-81536000D01*
X85802000Y-78488000D02*
X85802000Y-81028000D01*
X85802000Y-81028000D02*
X87072000Y-82298000D01*
%TO.N,Net-(J3-Pad1)*%
X56950000Y-78510000D02*
X52890000Y-78510000D01*
X52890000Y-78510000D02*
X52380000Y-78000000D01*
X49652000Y-75714000D02*
X50094000Y-75714000D01*
X50094000Y-75714000D02*
X52380000Y-78000000D01*
%TO.N,Net-(J30-Pad1)*%
X52512000Y-57150000D02*
X52070000Y-57150000D01*
X52070000Y-57150000D02*
X49784000Y-54864000D01*
X85852000Y-57912000D02*
X85852000Y-60706000D01*
X84582000Y-61976000D02*
X68834000Y-61976000D01*
X85852000Y-60706000D02*
X84582000Y-61976000D01*
X68834000Y-61976000D02*
X68072000Y-61976000D01*
X68072000Y-61976000D02*
X67564000Y-62484000D01*
X67564000Y-62484000D02*
X56134000Y-62484000D01*
X56134000Y-62484000D02*
X54610000Y-60960000D01*
X54610000Y-60960000D02*
X54610000Y-58674000D01*
X54610000Y-58674000D02*
X53086000Y-57150000D01*
X53086000Y-57150000D02*
X52512000Y-57150000D01*
%TO.N,Net-(J13-Pad1)*%
X111620000Y-58000000D02*
X112062000Y-58000000D01*
X112062000Y-58000000D02*
X114348000Y-60286000D01*
X106934000Y-57658000D02*
X111366000Y-57746000D01*
X111366000Y-57746000D02*
X111620000Y-58000000D01*
%TO.N,Net-(C6-Pad1)*%
X60530000Y-86720000D02*
X60530000Y-89030000D01*
X90120000Y-91188000D02*
X91390000Y-89918000D01*
X62688000Y-91188000D02*
X90120000Y-91188000D01*
X60530000Y-89030000D02*
X62688000Y-91188000D01*
X91390000Y-85854000D02*
X91390000Y-89918000D01*
X56950000Y-81050000D02*
X56950000Y-83140000D01*
X56950000Y-83140000D02*
X60530000Y-86720000D01*
%TO.N,Net-(C6-Pad2)*%
X67260000Y-87886000D02*
X67260000Y-87100000D01*
X75388000Y-84922000D02*
X75388000Y-81536000D01*
X74400000Y-85910000D02*
X75388000Y-84922000D01*
X68450000Y-85910000D02*
X74400000Y-85910000D01*
X67260000Y-87100000D02*
X68450000Y-85910000D01*
X63030000Y-86720000D02*
X66094000Y-86720000D01*
X66094000Y-86720000D02*
X67260000Y-87886000D01*
X75388000Y-78488000D02*
X75388000Y-81536000D01*
%TO.N,Net-(J2-Pad1)*%
X106950000Y-78590000D02*
X111030000Y-78590000D01*
X111030000Y-78590000D02*
X111620000Y-78000000D01*
X111620000Y-78000000D02*
X112062000Y-78000000D01*
X112062000Y-78000000D02*
X114348000Y-80286000D01*
D25*
%TO.N,Net-(JP1-Pad1)*%
X56950000Y-75970000D02*
X56950000Y-75336000D01*
X56950000Y-75336000D02*
X58370000Y-73916000D01*
X58370000Y-73916000D02*
X104816000Y-73916000D01*
X104816000Y-73916000D02*
X106950000Y-76050000D01*
D24*
%TO.N,Net-(R13-Pad2)*%
X104090000Y-85854000D02*
X104090000Y-89918000D01*
X104090000Y-81790000D02*
X104090000Y-85854000D01*
X104090000Y-81790000D02*
X105360000Y-81790000D01*
X105360000Y-81790000D02*
X106122000Y-81028000D01*
X106122000Y-81028000D02*
X106950000Y-81130000D01*
X104090000Y-81790000D02*
X104090000Y-77726000D01*
%TO.N,Net-(D4-Pad2)*%
X83008000Y-78488000D02*
X83008000Y-77218000D01*
X83008000Y-77218000D02*
X82246000Y-76456000D01*
X72848000Y-78996000D02*
X72848000Y-83060000D01*
X82246000Y-76456000D02*
X90120000Y-76456000D01*
X90120000Y-76456000D02*
X91390000Y-77726000D01*
X91390000Y-77726000D02*
X91390000Y-81790000D01*
X72848000Y-78996000D02*
X72848000Y-77980000D01*
X73770000Y-76450000D02*
X82246000Y-76456000D01*
X72848000Y-77980000D02*
X73770000Y-76450000D01*
%TO.N,Net-(C7-Pad1)*%
X72340000Y-87886000D02*
X77674000Y-87886000D01*
X77674000Y-87886000D02*
X78690000Y-86870000D01*
X78690000Y-84838000D02*
X78690000Y-86870000D01*
X78690000Y-86870000D02*
X78690000Y-88648000D01*
X72340000Y-87886000D02*
X69800000Y-87886000D01*
%TD*%
M02*
