M48
;DRILL file {KiCad 4.0.7} date 11/09/21 19:46:42
;FORMAT={-:-/ absolute / inch / decimal}
FMAT,2
INCH,TZ
T1C0.031
T2C0.035
T3C0.039
T4C0.059
T5C0.060
T6C0.120
%
G90
G05
M72
T1
X1.87Y-1.69
X1.87Y-1.85
X2.368Y-3.1101
X2.368Y-3.2701
X2.37Y-1.69
X2.37Y-1.85
X2.3831Y-3.4142
X2.48Y-1.64
X2.48Y-1.94
X2.4815Y-3.4142
X2.61Y-1.64
X2.61Y-1.8369
X2.648Y-3.4601
X2.748Y-3.4601
X2.75Y-1.64
X2.75Y-1.94
X2.848Y-3.4601
X2.868Y-3.1101
X2.868Y-3.2701
X2.89Y-1.64
X2.89Y-1.94
X2.968Y-3.0901
X2.968Y-3.2101
X3.01Y-1.92
X3.098Y-3.3401
X3.1965Y-3.3401
X3.2069Y-1.92
X3.268Y-3.0901
X3.268Y-3.2101
X3.3031Y-1.92
X3.378Y-3.0901
X3.4765Y-3.0901
X3.5Y-1.92
X3.598Y-3.0601
X3.598Y-3.2201
X3.598Y-3.3801
X3.598Y-3.5401
X3.62Y-1.64
X3.62Y-1.94
X3.76Y-1.64
X3.76Y-1.94
X3.89Y-1.64
X3.89Y-1.8369
X4.01Y-1.64
X4.01Y-1.94
X4.098Y-3.0601
X4.098Y-3.2201
X4.098Y-3.3801
X4.098Y-3.5401
X4.12Y-1.68
X4.12Y-1.86
X4.62Y-1.68
X4.62Y-1.86
T2
X2.0622Y-3.0709
X2.0622Y-3.1709
X2.0674Y-2.25
X2.0674Y-2.35
X3.428Y-3.2401
X3.428Y-3.3401
X4.3945Y-2.1835
X4.3945Y-2.2835
X4.3945Y-2.9709
X4.3945Y-3.0709
T3
X2.2421Y-2.9909
X2.2421Y-3.0909
X2.2421Y-3.1909
X2.29Y-2.29
X2.71Y-2.15
X2.71Y-2.44
X3.098Y-3.4901
X3.14Y-2.28
X3.17Y-1.67
X3.198Y-3.4901
X3.27Y-1.67
X3.37Y-1.67
X3.38Y-2.28
X3.81Y-2.12
X4.21Y-2.27
X4.2106Y-2.9941
X4.2106Y-3.0941
X4.2106Y-3.1941
T4
X3.82Y-2.43
T5
X1.9548Y-2.9809
X1.9548Y-3.1809
X1.96Y-2.16
X1.96Y-2.36
X4.5019Y-2.1735
X4.5019Y-2.3735
X4.5019Y-2.9609
X4.5019Y-3.1609
T6
X1.6929Y-1.6929
X1.6929Y-3.5827
X4.8031Y-1.6929
X4.8031Y-3.5827
T0
M30
