G04 #@! TF.FileFunction,Copper,L2,Bot,Signal*
%FSLAX46Y46*%
G04 Gerber Fmt 4.6, Leading zero omitted, Abs format (unit mm)*
G04 Created by KiCad (PCBNEW 4.0.7) date 11/26/21 21:25:52*
%MOMM*%
%LPD*%
G01*
G04 APERTURE LIST*
%ADD10C,0.100000*%
%ADD11R,1.700000X1.700000*%
%ADD12O,1.700000X1.700000*%
%ADD13C,1.600000*%
%ADD14O,1.600000X1.600000*%
%ADD15C,3.500000*%
%ADD16C,5.000000*%
%ADD17R,1.600000X1.600000*%
%ADD18C,1.500000*%
%ADD19R,3.000000X3.000000*%
%ADD20C,3.000000*%
%ADD21C,4.064000*%
%ADD22R,1.800000X1.800000*%
%ADD23C,1.800000*%
%ADD24C,1.440000*%
%ADD25C,1.000000*%
%ADD26C,2.000000*%
G04 APERTURE END LIST*
D10*
D11*
X106950000Y-76050000D03*
D12*
X106950000Y-78590000D03*
X106950000Y-81130000D03*
D13*
X91390000Y-85854000D03*
D14*
X104090000Y-85854000D03*
D13*
X104090000Y-81790000D03*
D14*
X91390000Y-81790000D03*
D13*
X104090000Y-77726000D03*
D14*
X91390000Y-77726000D03*
D13*
X117348000Y-42672000D03*
D14*
X104648000Y-42672000D03*
D13*
X47498000Y-42926000D03*
D14*
X60198000Y-42926000D03*
D13*
X117348000Y-47244000D03*
D14*
X104648000Y-47244000D03*
D15*
X58166000Y-58166000D03*
X85852000Y-57912000D03*
X79756000Y-57912000D03*
X106934000Y-57658000D03*
D16*
X43000000Y-43000000D03*
X122000000Y-43000000D03*
D15*
X68834000Y-54610000D03*
X68834000Y-61976000D03*
X96774000Y-53848000D03*
D13*
X66294000Y-41656000D03*
X66294000Y-46656000D03*
X76454000Y-48768000D03*
X81454000Y-48768000D03*
X98806000Y-41656000D03*
X98806000Y-46656000D03*
X88900000Y-48768000D03*
X83900000Y-48768000D03*
D11*
X80518000Y-42418000D03*
D12*
X83058000Y-42418000D03*
X85598000Y-42418000D03*
D13*
X69850000Y-49276000D03*
D14*
X69850000Y-41656000D03*
D13*
X73406000Y-41656000D03*
D14*
X73406000Y-49276000D03*
D13*
X95504000Y-49276000D03*
D14*
X95504000Y-41656000D03*
D13*
X91948000Y-41656000D03*
D14*
X91948000Y-49276000D03*
D17*
X62992000Y-41656000D03*
D14*
X62992000Y-49276000D03*
D17*
X101854000Y-41656000D03*
D14*
X101854000Y-49276000D03*
D13*
X47498000Y-46990000D03*
D14*
X60198000Y-46990000D03*
D18*
X52512000Y-57150000D03*
X52512000Y-59690000D03*
D19*
X49784000Y-54864000D03*
D20*
X49784000Y-59944000D03*
D18*
X111620000Y-58000000D03*
X111620000Y-55460000D03*
D19*
X114348000Y-60286000D03*
D20*
X114348000Y-55206000D03*
D21*
X122000000Y-91000000D03*
X43000000Y-91000000D03*
D15*
X97028000Y-61722000D03*
D17*
X75388000Y-78488000D03*
D14*
X83008000Y-78488000D03*
D22*
X87072000Y-84838000D03*
D23*
X87072000Y-82298000D03*
D18*
X111620000Y-78000000D03*
X111620000Y-75460000D03*
D19*
X114348000Y-80286000D03*
D20*
X114348000Y-75206000D03*
D18*
X52380000Y-78000000D03*
X52380000Y-80540000D03*
D19*
X49652000Y-75714000D03*
D20*
X49652000Y-80794000D03*
D11*
X56950000Y-81050000D03*
D12*
X56950000Y-78510000D03*
X56950000Y-75970000D03*
D13*
X72848000Y-78996000D03*
D14*
X60148000Y-78996000D03*
D13*
X72848000Y-83060000D03*
D14*
X60148000Y-83060000D03*
D13*
X91390000Y-89918000D03*
D14*
X104090000Y-89918000D03*
D13*
X75388000Y-81536000D03*
D14*
X83008000Y-81536000D03*
D13*
X85802000Y-78488000D03*
X88302000Y-78488000D03*
X60530000Y-86720000D03*
X63030000Y-86720000D03*
X78690000Y-84838000D03*
X81190000Y-84838000D03*
D11*
X78690000Y-88648000D03*
D12*
X81230000Y-88648000D03*
D24*
X72340000Y-87886000D03*
X69800000Y-87886000D03*
X67260000Y-87886000D03*
D25*
X69850000Y-41656000D02*
X66040000Y-41656000D01*
X66040000Y-41656000D02*
X65532000Y-41148000D01*
X66294000Y-41656000D02*
X62992000Y-41656000D01*
X76454000Y-48768000D02*
X76708000Y-48768000D01*
X76708000Y-48768000D02*
X80518000Y-44958000D01*
X80518000Y-44958000D02*
X80518000Y-42418000D01*
X73406000Y-49276000D02*
X75946000Y-49276000D01*
X75946000Y-49276000D02*
X76454000Y-48768000D01*
X69850000Y-49276000D02*
X73406000Y-49276000D01*
X98806000Y-41656000D02*
X101854000Y-41656000D01*
X95504000Y-41656000D02*
X98806000Y-41656000D01*
X95504000Y-49276000D02*
X91948000Y-49276000D01*
X91948000Y-49276000D02*
X89408000Y-49276000D01*
X89408000Y-49276000D02*
X88900000Y-48768000D01*
X83058000Y-42418000D02*
X83058000Y-44704000D01*
X88900000Y-47498000D02*
X88900000Y-48768000D01*
X87122000Y-45720000D02*
X88900000Y-47498000D01*
X84074000Y-45720000D02*
X87122000Y-45720000D01*
X83058000Y-44704000D02*
X84074000Y-45720000D01*
X60198000Y-46990000D02*
X60198000Y-42164000D01*
X60198000Y-42164000D02*
X60198000Y-42926000D01*
X60198000Y-46990000D02*
X60706000Y-46990000D01*
X60706000Y-46990000D02*
X62992000Y-49276000D01*
X58166000Y-58166000D02*
X58166000Y-49022000D01*
X58166000Y-49022000D02*
X60198000Y-46990000D01*
X101854000Y-49276000D02*
X102616000Y-49276000D01*
X102616000Y-49276000D02*
X104648000Y-47244000D01*
X96774000Y-53848000D02*
X102362000Y-53848000D01*
X104648000Y-51562000D02*
X104648000Y-47244000D01*
X102362000Y-53848000D02*
X104648000Y-51562000D01*
X104648000Y-42672000D02*
X104648000Y-47244000D01*
X79756000Y-57912000D02*
X79756000Y-56388000D01*
X79756000Y-56388000D02*
X82296000Y-53848000D01*
X82296000Y-53848000D02*
X96774000Y-53848000D01*
X87072000Y-82298000D02*
X83770000Y-82298000D01*
X83770000Y-82298000D02*
X83008000Y-81536000D01*
X85802000Y-78488000D02*
X85802000Y-81028000D01*
X85802000Y-81028000D02*
X87072000Y-82298000D01*
X56950000Y-78510000D02*
X52890000Y-78510000D01*
X52890000Y-78510000D02*
X52380000Y-78000000D01*
X49652000Y-75714000D02*
X50094000Y-75714000D01*
X50094000Y-75714000D02*
X52380000Y-78000000D01*
X52512000Y-57150000D02*
X52070000Y-57150000D01*
X52070000Y-57150000D02*
X49784000Y-54864000D01*
X85852000Y-57912000D02*
X85852000Y-60706000D01*
X84582000Y-61976000D02*
X68834000Y-61976000D01*
X85852000Y-60706000D02*
X84582000Y-61976000D01*
X68834000Y-61976000D02*
X68072000Y-61976000D01*
X68072000Y-61976000D02*
X67564000Y-62484000D01*
X67564000Y-62484000D02*
X56134000Y-62484000D01*
X56134000Y-62484000D02*
X54610000Y-60960000D01*
X54610000Y-60960000D02*
X54610000Y-58674000D01*
X54610000Y-58674000D02*
X53086000Y-57150000D01*
X53086000Y-57150000D02*
X52512000Y-57150000D01*
X111620000Y-58000000D02*
X112062000Y-58000000D01*
X112062000Y-58000000D02*
X114348000Y-60286000D01*
X106934000Y-57658000D02*
X111366000Y-57746000D01*
X111366000Y-57746000D02*
X111620000Y-58000000D01*
X60530000Y-86720000D02*
X60530000Y-89030000D01*
X90120000Y-91188000D02*
X91390000Y-89918000D01*
X62688000Y-91188000D02*
X90120000Y-91188000D01*
X60530000Y-89030000D02*
X62688000Y-91188000D01*
X91390000Y-85854000D02*
X91390000Y-89918000D01*
X56950000Y-81050000D02*
X56950000Y-83140000D01*
X56950000Y-83140000D02*
X60530000Y-86720000D01*
X67260000Y-87886000D02*
X67260000Y-87100000D01*
X75388000Y-84922000D02*
X75388000Y-81536000D01*
X74400000Y-85910000D02*
X75388000Y-84922000D01*
X68450000Y-85910000D02*
X74400000Y-85910000D01*
X67260000Y-87100000D02*
X68450000Y-85910000D01*
X75388000Y-81536000D02*
X75388000Y-82298000D01*
X63030000Y-86720000D02*
X66094000Y-86720000D01*
X66094000Y-86720000D02*
X67260000Y-87886000D01*
X75388000Y-78488000D02*
X75388000Y-81536000D01*
X106950000Y-78590000D02*
X111030000Y-78590000D01*
X111030000Y-78590000D02*
X111620000Y-78000000D01*
X111620000Y-78000000D02*
X112062000Y-78000000D01*
X112062000Y-78000000D02*
X114348000Y-80286000D01*
D26*
X56950000Y-75970000D02*
X56950000Y-75336000D01*
X56950000Y-75336000D02*
X58370000Y-73916000D01*
X58370000Y-73916000D02*
X104816000Y-73916000D01*
X104816000Y-73916000D02*
X106950000Y-76050000D01*
D25*
X104090000Y-85854000D02*
X104090000Y-89918000D01*
X104090000Y-81790000D02*
X104090000Y-85854000D01*
X104090000Y-81790000D02*
X105360000Y-81790000D01*
X105360000Y-81790000D02*
X106122000Y-81028000D01*
X106122000Y-81028000D02*
X106950000Y-81130000D01*
X104090000Y-81790000D02*
X104090000Y-77726000D01*
X83008000Y-78488000D02*
X83008000Y-77218000D01*
X83008000Y-77218000D02*
X82246000Y-76456000D01*
X72848000Y-78996000D02*
X72848000Y-83060000D01*
X84786000Y-76456000D02*
X90120000Y-76456000D01*
X90120000Y-76456000D02*
X91390000Y-77726000D01*
X91390000Y-77726000D02*
X91390000Y-81790000D01*
X72848000Y-78996000D02*
X72848000Y-77980000D01*
X73770000Y-76450000D02*
X82246000Y-76456000D01*
X82246000Y-76456000D02*
X84786000Y-76456000D01*
X72848000Y-77980000D02*
X73770000Y-76450000D01*
X72340000Y-87886000D02*
X77674000Y-87886000D01*
X77674000Y-87886000D02*
X78690000Y-86870000D01*
X78690000Y-84838000D02*
X78690000Y-86870000D01*
X78690000Y-86870000D02*
X78690000Y-88648000D01*
X72340000Y-87886000D02*
X69800000Y-87886000D01*
M02*
