%TF.GenerationSoftware,KiCad,Pcbnew,(6.0.11)*%
%TF.CreationDate,2023-05-26T21:19:34-05:00*%
%TF.ProjectId,RFBitBangSMT,52464269-7442-4616-9e67-534d542e6b69,rev?*%
%TF.SameCoordinates,Original*%
%TF.FileFunction,Copper,L1,Top*%
%TF.FilePolarity,Positive*%
%FSLAX46Y46*%
G04 Gerber Fmt 4.6, Leading zero omitted, Abs format (unit mm)*
G04 Created by KiCad (PCBNEW (6.0.11)) date 2023-05-26 21:19:34*
%MOMM*%
%LPD*%
G01*
G04 APERTURE LIST*
G04 Aperture macros list*
%AMRoundRect*
0 Rectangle with rounded corners*
0 $1 Rounding radius*
0 $2 $3 $4 $5 $6 $7 $8 $9 X,Y pos of 4 corners*
0 Add a 4 corners polygon primitive as box body*
4,1,4,$2,$3,$4,$5,$6,$7,$8,$9,$2,$3,0*
0 Add four circle primitives for the rounded corners*
1,1,$1+$1,$2,$3*
1,1,$1+$1,$4,$5*
1,1,$1+$1,$6,$7*
1,1,$1+$1,$8,$9*
0 Add four rect primitives between the rounded corners*
20,1,$1+$1,$2,$3,$4,$5,0*
20,1,$1+$1,$4,$5,$6,$7,0*
20,1,$1+$1,$6,$7,$8,$9,0*
20,1,$1+$1,$8,$9,$2,$3,0*%
G04 Aperture macros list end*
%TA.AperFunction,SMDPad,CuDef*%
%ADD10RoundRect,0.250000X-0.475000X0.337500X-0.475000X-0.337500X0.475000X-0.337500X0.475000X0.337500X0*%
%TD*%
%TA.AperFunction,SMDPad,CuDef*%
%ADD11RoundRect,0.250000X0.337500X0.475000X-0.337500X0.475000X-0.337500X-0.475000X0.337500X-0.475000X0*%
%TD*%
%TA.AperFunction,SMDPad,CuDef*%
%ADD12RoundRect,0.250000X-0.337500X-0.475000X0.337500X-0.475000X0.337500X0.475000X-0.337500X0.475000X0*%
%TD*%
%TA.AperFunction,ComponentPad*%
%ADD13R,1.600000X1.600000*%
%TD*%
%TA.AperFunction,ComponentPad*%
%ADD14C,1.600000*%
%TD*%
%TA.AperFunction,SMDPad,CuDef*%
%ADD15RoundRect,0.250000X0.475000X-0.337500X0.475000X0.337500X-0.475000X0.337500X-0.475000X-0.337500X0*%
%TD*%
%TA.AperFunction,ComponentPad*%
%ADD16R,2.200000X2.200000*%
%TD*%
%TA.AperFunction,ComponentPad*%
%ADD17O,2.200000X2.200000*%
%TD*%
%TA.AperFunction,SMDPad,CuDef*%
%ADD18R,0.900000X1.200000*%
%TD*%
%TA.AperFunction,SMDPad,CuDef*%
%ADD19RoundRect,0.250000X-0.325000X-0.450000X0.325000X-0.450000X0.325000X0.450000X-0.325000X0.450000X0*%
%TD*%
%TA.AperFunction,SMDPad,CuDef*%
%ADD20R,1.800000X3.500000*%
%TD*%
%TA.AperFunction,ComponentPad*%
%ADD21R,3.000000X3.000000*%
%TD*%
%TA.AperFunction,ComponentPad*%
%ADD22C,3.000000*%
%TD*%
%TA.AperFunction,ComponentPad*%
%ADD23R,3.500000X3.500000*%
%TD*%
%TA.AperFunction,ComponentPad*%
%ADD24R,2.000000X3.500000*%
%TD*%
%TA.AperFunction,ComponentPad*%
%ADD25R,1.700000X1.700000*%
%TD*%
%TA.AperFunction,ComponentPad*%
%ADD26O,1.700000X1.700000*%
%TD*%
%TA.AperFunction,SMDPad,CuDef*%
%ADD27RoundRect,0.250000X-0.450000X0.325000X-0.450000X-0.325000X0.450000X-0.325000X0.450000X0.325000X0*%
%TD*%
%TA.AperFunction,SMDPad,CuDef*%
%ADD28RoundRect,0.150000X0.587500X0.150000X-0.587500X0.150000X-0.587500X-0.150000X0.587500X-0.150000X0*%
%TD*%
%TA.AperFunction,SMDPad,CuDef*%
%ADD29RoundRect,0.150000X-0.587500X-0.150000X0.587500X-0.150000X0.587500X0.150000X-0.587500X0.150000X0*%
%TD*%
%TA.AperFunction,ComponentPad*%
%ADD30R,1.520000X1.520000*%
%TD*%
%TA.AperFunction,ComponentPad*%
%ADD31C,1.520000*%
%TD*%
%TA.AperFunction,SMDPad,CuDef*%
%ADD32RoundRect,0.150000X-0.150000X0.587500X-0.150000X-0.587500X0.150000X-0.587500X0.150000X0.587500X0*%
%TD*%
%TA.AperFunction,ComponentPad*%
%ADD33C,2.000000*%
%TD*%
%TA.AperFunction,SMDPad,CuDef*%
%ADD34R,1.200000X2.200000*%
%TD*%
%TA.AperFunction,SMDPad,CuDef*%
%ADD35R,5.800000X6.400000*%
%TD*%
%TA.AperFunction,SMDPad,CuDef*%
%ADD36R,1.800000X2.100000*%
%TD*%
%TA.AperFunction,ComponentPad*%
%ADD37C,1.500000*%
%TD*%
%TA.AperFunction,SMDPad,CuDef*%
%ADD38R,1.600000X0.550000*%
%TD*%
%TA.AperFunction,SMDPad,CuDef*%
%ADD39R,0.550000X1.600000*%
%TD*%
%TA.AperFunction,SMDPad,CuDef*%
%ADD40RoundRect,0.150000X0.675000X0.150000X-0.675000X0.150000X-0.675000X-0.150000X0.675000X-0.150000X0*%
%TD*%
%TA.AperFunction,ComponentPad*%
%ADD41C,2.500000*%
%TD*%
%TA.AperFunction,SMDPad,CuDef*%
%ADD42RoundRect,0.250000X-0.350000X-0.450000X0.350000X-0.450000X0.350000X0.450000X-0.350000X0.450000X0*%
%TD*%
%TA.AperFunction,SMDPad,CuDef*%
%ADD43RoundRect,0.250000X0.450000X-0.350000X0.450000X0.350000X-0.450000X0.350000X-0.450000X-0.350000X0*%
%TD*%
%TA.AperFunction,SMDPad,CuDef*%
%ADD44RoundRect,0.250000X-0.450000X0.350000X-0.450000X-0.350000X0.450000X-0.350000X0.450000X0.350000X0*%
%TD*%
%TA.AperFunction,SMDPad,CuDef*%
%ADD45RoundRect,0.250000X0.350000X0.450000X-0.350000X0.450000X-0.350000X-0.450000X0.350000X-0.450000X0*%
%TD*%
%TA.AperFunction,SMDPad,CuDef*%
%ADD46R,1.200000X0.900000*%
%TD*%
%TA.AperFunction,SMDPad,CuDef*%
%ADD47R,1.400000X0.300000*%
%TD*%
%TA.AperFunction,ComponentPad*%
%ADD48C,1.800000*%
%TD*%
%TA.AperFunction,SMDPad,CuDef*%
%ADD49RoundRect,0.150000X0.150000X-0.587500X0.150000X0.587500X-0.150000X0.587500X-0.150000X-0.587500X0*%
%TD*%
%TA.AperFunction,ComponentPad*%
%ADD50C,1.524000*%
%TD*%
%TA.AperFunction,ComponentPad*%
%ADD51O,2.000000X3.500000*%
%TD*%
%TA.AperFunction,ComponentPad*%
%ADD52O,4.000000X2.000000*%
%TD*%
%TA.AperFunction,SMDPad,CuDef*%
%ADD53RoundRect,0.250000X0.450000X-0.325000X0.450000X0.325000X-0.450000X0.325000X-0.450000X-0.325000X0*%
%TD*%
%TA.AperFunction,ComponentPad*%
%ADD54C,1.440000*%
%TD*%
%TA.AperFunction,ComponentPad*%
%ADD55C,5.000000*%
%TD*%
%TA.AperFunction,ComponentPad*%
%ADD56O,1.600000X1.600000*%
%TD*%
%TA.AperFunction,SMDPad,CuDef*%
%ADD57RoundRect,0.250000X0.325000X0.450000X-0.325000X0.450000X-0.325000X-0.450000X0.325000X-0.450000X0*%
%TD*%
%TA.AperFunction,ComponentPad*%
%ADD58R,1.800000X1.800000*%
%TD*%
%TA.AperFunction,ComponentPad*%
%ADD59O,1.800000X1.800000*%
%TD*%
%TA.AperFunction,SMDPad,CuDef*%
%ADD60R,3.500000X1.800000*%
%TD*%
%TA.AperFunction,ComponentPad*%
%ADD61O,1.000000X2.000000*%
%TD*%
%TA.AperFunction,ComponentPad*%
%ADD62O,2.000000X1.000000*%
%TD*%
%TA.AperFunction,ComponentPad*%
%ADD63O,2.000000X1.500000*%
%TD*%
%TA.AperFunction,ComponentPad*%
%ADD64O,1.500000X2.000000*%
%TD*%
%TA.AperFunction,SMDPad,CuDef*%
%ADD65RoundRect,0.150000X0.150000X-0.675000X0.150000X0.675000X-0.150000X0.675000X-0.150000X-0.675000X0*%
%TD*%
%TA.AperFunction,ComponentPad*%
%ADD66R,1.500000X1.500000*%
%TD*%
%TA.AperFunction,ComponentPad*%
%ADD67R,1.500000X2.600000*%
%TD*%
%TA.AperFunction,ComponentPad*%
%ADD68O,1.500000X2.600000*%
%TD*%
%TA.AperFunction,ComponentPad*%
%ADD69O,1.800000X2.600000*%
%TD*%
%TA.AperFunction,ViaPad*%
%ADD70C,0.600000*%
%TD*%
%TA.AperFunction,Conductor*%
%ADD71C,0.350000*%
%TD*%
%TA.AperFunction,Conductor*%
%ADD72C,0.500000*%
%TD*%
%TA.AperFunction,Conductor*%
%ADD73C,0.250000*%
%TD*%
G04 APERTURE END LIST*
D10*
%TO.P,C1,1*%
%TO.N,+5V*%
X100076000Y-94445000D03*
%TO.P,C1,2*%
%TO.N,GND*%
X100076000Y-96520000D03*
%TD*%
D11*
%TO.P,C2,1*%
%TO.N,RESET*%
X51329500Y-83312000D03*
%TO.P,C2,2*%
%TO.N,Net-(C2-Pad2)*%
X49254500Y-83312000D03*
%TD*%
D12*
%TO.P,C4,1*%
%TO.N,Net-(C4-Pad1)*%
X52302500Y-85598000D03*
%TO.P,C4,2*%
%TO.N,GND*%
X54377500Y-85598000D03*
%TD*%
%TO.P,C5,1*%
%TO.N,Net-(C5-Pad1)*%
X44174500Y-83566000D03*
%TO.P,C5,2*%
%TO.N,GND*%
X46249500Y-83566000D03*
%TD*%
D13*
%TO.P,C6,1*%
%TO.N,+5V*%
X113030000Y-61297500D03*
D14*
%TO.P,C6,2*%
%TO.N,GND*%
X113030000Y-63797500D03*
%TD*%
D12*
%TO.P,C8,1*%
%TO.N,GND*%
X102086500Y-97282000D03*
%TO.P,C8,2*%
%TO.N,Net-(C8-Pad2)*%
X104161500Y-97282000D03*
%TD*%
%TO.P,C9,1*%
%TO.N,GND*%
X102065000Y-88138000D03*
%TO.P,C9,2*%
%TO.N,Net-(C9-Pad2)*%
X104140000Y-88138000D03*
%TD*%
D11*
%TO.P,C10,1*%
%TO.N,GND*%
X82063500Y-129540000D03*
%TO.P,C10,2*%
%TO.N,Net-(C10-Pad2)*%
X79988500Y-129540000D03*
%TD*%
%TO.P,C11,1*%
%TO.N,GND*%
X82063500Y-136398000D03*
%TO.P,C11,2*%
%TO.N,Net-(C11-Pad2)*%
X79988500Y-136398000D03*
%TD*%
D15*
%TO.P,C12,1*%
%TO.N,Net-(C12-Pad1)*%
X119126000Y-97557500D03*
%TO.P,C12,2*%
%TO.N,GND*%
X119126000Y-95482500D03*
%TD*%
%TO.P,C13,1*%
%TO.N,Net-(C12-Pad1)*%
X115570000Y-97536000D03*
%TO.P,C13,2*%
%TO.N,GND*%
X115570000Y-95461000D03*
%TD*%
D11*
%TO.P,C15,1*%
%TO.N,Net-(C15-Pad1)*%
X97850000Y-140230000D03*
%TO.P,C15,2*%
%TO.N,GND*%
X95775000Y-140230000D03*
%TD*%
%TO.P,C16,1*%
%TO.N,GND*%
X86614000Y-115824000D03*
%TO.P,C16,2*%
%TO.N,Net-(C16-Pad2)*%
X84539000Y-115824000D03*
%TD*%
%TO.P,C17,1*%
%TO.N,GND*%
X86635500Y-119380000D03*
%TO.P,C17,2*%
%TO.N,Net-(C17-Pad2)*%
X84560500Y-119380000D03*
%TD*%
D13*
%TO.P,C19,1*%
%TO.N,Net-(C19-Pad1)*%
X60420000Y-124440000D03*
D14*
%TO.P,C19,2*%
%TO.N,SPKR*%
X57920000Y-124440000D03*
%TD*%
D15*
%TO.P,C20,1*%
%TO.N,GND*%
X159766000Y-93493500D03*
%TO.P,C20,2*%
%TO.N,Net-(C14-Pad1)*%
X159766000Y-91418500D03*
%TD*%
%TO.P,C21,1*%
%TO.N,Net-(C21-Pad1)*%
X130810000Y-100351500D03*
%TO.P,C21,2*%
%TO.N,Net-(C21-Pad2)*%
X130810000Y-98276500D03*
%TD*%
D10*
%TO.P,C22,1*%
%TO.N,Net-(C21-Pad1)*%
X133350000Y-98022500D03*
%TO.P,C22,2*%
%TO.N,GND*%
X133350000Y-100097500D03*
%TD*%
%TO.P,C25,1*%
%TO.N,+5V*%
X123550000Y-124602500D03*
%TO.P,C25,2*%
%TO.N,GND*%
X123550000Y-126677500D03*
%TD*%
D11*
%TO.P,C33,1*%
%TO.N,AUDIOFILT*%
X80285500Y-96520000D03*
%TO.P,C33,2*%
%TO.N,GND*%
X78210500Y-96520000D03*
%TD*%
%TO.P,C34,1*%
%TO.N,Net-(C34-Pad1)*%
X114170000Y-131690000D03*
%TO.P,C34,2*%
%TO.N,Net-(C34-Pad2)*%
X112095000Y-131690000D03*
%TD*%
D10*
%TO.P,C35,1*%
%TO.N,Net-(C28-Pad1)*%
X117370000Y-119080000D03*
%TO.P,C35,2*%
%TO.N,AUDIO*%
X117370000Y-121155000D03*
%TD*%
D16*
%TO.P,D1,1,K*%
%TO.N,+12V*%
X71650000Y-68330000D03*
D17*
%TO.P,D1,2,A*%
%TO.N,GND*%
X79270000Y-68330000D03*
%TD*%
D18*
%TO.P,D2,1,K*%
%TO.N,+5V*%
X49658000Y-98298000D03*
%TO.P,D2,2,A*%
%TO.N,RESET*%
X52958000Y-98298000D03*
%TD*%
D19*
%TO.P,D3,1,K*%
%TO.N,GND*%
X101582000Y-143510000D03*
%TO.P,D3,2,A*%
%TO.N,Net-(D3-Pad2)*%
X103632000Y-143510000D03*
%TD*%
D20*
%TO.P,D4,1,K*%
%TO.N,Net-(C48-Pad2)*%
X127762000Y-99862000D03*
%TO.P,D4,2,A*%
%TO.N,GND*%
X127762000Y-104862000D03*
%TD*%
%TO.P,D5,1,K*%
%TO.N,Net-(C48-Pad2)*%
X123952000Y-99862000D03*
%TO.P,D5,2,A*%
%TO.N,GND*%
X123952000Y-104862000D03*
%TD*%
D21*
%TO.P,J1,1,Pin_1*%
%TO.N,Net-(C58-Pad1)*%
X68195000Y-61835000D03*
D22*
%TO.P,J1,2,Pin_2*%
%TO.N,Net-(C58-Pad2)*%
X63115000Y-61835000D03*
%TD*%
D23*
%TO.P,J2,1*%
%TO.N,Net-(C58-Pad2)*%
X54955000Y-67305000D03*
%TO.P,J2,2*%
%TO.N,Net-(C58-Pad1)*%
X54955000Y-61305000D03*
D24*
%TO.P,J2,3*%
%TO.N,unconnected-(J2-Pad3)*%
X50255000Y-64305000D03*
%TD*%
D25*
%TO.P,J5,1,Pin_1*%
%TO.N,GND*%
X40220000Y-84090000D03*
D26*
%TO.P,J5,2,Pin_2*%
%TO.N,Net-(C5-Pad1)*%
X40220000Y-81550000D03*
%TO.P,J5,3,Pin_3*%
%TO.N,Net-(C4-Pad1)*%
X40220000Y-79010000D03*
%TO.P,J5,4,Pin_4*%
%TO.N,Net-(C2-Pad2)*%
X40220000Y-76470000D03*
%TD*%
D19*
%TO.P,L1,1,1*%
%TO.N,Net-(C4-Pad1)*%
X52306000Y-88392000D03*
%TO.P,L1,2,2*%
%TO.N,TXD*%
X54356000Y-88392000D03*
%TD*%
%TO.P,L2,1,1*%
%TO.N,Net-(C5-Pad1)*%
X52315000Y-91694000D03*
%TO.P,L2,2,2*%
%TO.N,RXD*%
X54365000Y-91694000D03*
%TD*%
D27*
%TO.P,L3,1,1*%
%TO.N,Net-(C12-Pad1)*%
X118618000Y-100067000D03*
%TO.P,L3,2,2*%
%TO.N,Net-(L3-Pad2)*%
X118618000Y-102117000D03*
%TD*%
D19*
%TO.P,L9,1,1*%
%TO.N,TRANSMIT*%
X117856000Y-70866000D03*
%TO.P,L9,2,2*%
%TO.N,Net-(L9-Pad2)*%
X119906000Y-70866000D03*
%TD*%
D28*
%TO.P,Q1,1,B*%
%TO.N,Net-(C50-Pad1)*%
X142923500Y-120330000D03*
%TO.P,Q1,2,E*%
%TO.N,Net-(C49-Pad2)*%
X142923500Y-118430000D03*
%TO.P,Q1,3,C*%
%TO.N,Net-(C54-Pad1)*%
X141048500Y-119380000D03*
%TD*%
D29*
%TO.P,Q2,1,B*%
%TO.N,Net-(C21-Pad2)*%
X136730500Y-95824000D03*
%TO.P,Q2,2,E*%
%TO.N,Net-(C21-Pad1)*%
X136730500Y-97724000D03*
%TO.P,Q2,3,C*%
%TO.N,Net-(C31-Pad2)*%
X138605500Y-96774000D03*
%TD*%
D30*
%TO.P,Q3,1,S*%
%TO.N,GND*%
X170350000Y-75630000D03*
D31*
%TO.P,Q3,2,G*%
%TO.N,Net-(C23-Pad2)*%
X172890000Y-75630000D03*
%TO.P,Q3,3,D*%
%TO.N,AMPOUT*%
X175430000Y-75630000D03*
%TD*%
D32*
%TO.P,Q4,1,B*%
%TO.N,Net-(Q4-Pad1)*%
X109650000Y-122122500D03*
%TO.P,Q4,2,E*%
%TO.N,GND*%
X107750000Y-122122500D03*
%TO.P,Q4,3,C*%
%TO.N,Net-(C18-Pad1)*%
X108700000Y-123997500D03*
%TD*%
D33*
%TO.P,SW1,1,1*%
%TO.N,GND*%
X40550000Y-93020000D03*
X47050000Y-93020000D03*
%TO.P,SW1,2,2*%
%TO.N,RESET*%
X40550000Y-88520000D03*
X47050000Y-88520000D03*
%TD*%
%TO.P,SW2,1,1*%
%TO.N,Net-(C10-Pad2)*%
X76858000Y-128524000D03*
X70358000Y-128524000D03*
%TO.P,SW2,2,2*%
%TO.N,GND*%
X76858000Y-133024000D03*
X70358000Y-133024000D03*
%TD*%
%TO.P,SW3,1,1*%
%TO.N,Net-(C16-Pad2)*%
X71778000Y-118110000D03*
X65278000Y-118110000D03*
%TO.P,SW3,2,2*%
%TO.N,GND*%
X65278000Y-122610000D03*
X71778000Y-122610000D03*
%TD*%
%TO.P,SW4,1,1*%
%TO.N,Net-(C17-Pad2)*%
X75184000Y-118110000D03*
X81684000Y-118110000D03*
%TO.P,SW4,2,2*%
%TO.N,GND*%
X81684000Y-122610000D03*
X75184000Y-122610000D03*
%TD*%
%TO.P,SW5,1,1*%
%TO.N,Net-(C11-Pad2)*%
X76858000Y-136144000D03*
X70358000Y-136144000D03*
%TO.P,SW5,2,2*%
%TO.N,GND*%
X76858000Y-140644000D03*
X70358000Y-140644000D03*
%TD*%
D34*
%TO.P,U2,1,VI*%
%TO.N,+12V*%
X82048000Y-68935000D03*
D35*
%TO.P,U2,2,GND*%
%TO.N,GND*%
X84328000Y-62635000D03*
D34*
%TO.P,U2,3,VO*%
%TO.N,+5V*%
X86608000Y-68935000D03*
%TD*%
D36*
%TO.P,Y1,1,1*%
%TO.N,Net-(C9-Pad2)*%
X103050000Y-90930000D03*
%TO.P,Y1,2,2*%
%TO.N,unconnected-(Y1-Pad2)*%
X103050000Y-93830000D03*
%TO.P,Y1,3,3*%
%TO.N,Net-(C8-Pad2)*%
X105350000Y-93830000D03*
%TO.P,Y1,4,4*%
%TO.N,unconnected-(Y1-Pad4)*%
X105350000Y-90930000D03*
%TD*%
D37*
%TO.P,Y2,1,1*%
%TO.N,Net-(C21-Pad2)*%
X125730000Y-84836000D03*
%TO.P,Y2,2,2*%
%TO.N,Net-(C48-Pad1)*%
X125730000Y-89716000D03*
%TD*%
D38*
%TO.P,U1,1,PD3*%
%TO.N,BEEPOUT*%
X97208000Y-96204000D03*
%TO.P,U1,2,PD4*%
%TO.N,MUTEAUDIO*%
X97208000Y-95404000D03*
%TO.P,U1,3,GND*%
%TO.N,GND*%
X97208000Y-94604000D03*
%TO.P,U1,4,VCC*%
%TO.N,+5V*%
X97208000Y-93804000D03*
%TO.P,U1,5,GND*%
%TO.N,GND*%
X97208000Y-93004000D03*
%TO.P,U1,6,VCC*%
%TO.N,+5V*%
X97208000Y-92204000D03*
%TO.P,U1,7,XTAL1/PB6*%
%TO.N,Net-(C8-Pad2)*%
X97208000Y-91404000D03*
%TO.P,U1,8,XTAL2/PB7*%
%TO.N,Net-(C9-Pad2)*%
X97208000Y-90604000D03*
D39*
%TO.P,U1,9,PD5*%
%TO.N,DB4*%
X95758000Y-89154000D03*
%TO.P,U1,10,PD6*%
%TO.N,DB5*%
X94958000Y-89154000D03*
%TO.P,U1,11,PD7*%
%TO.N,DB6*%
X94158000Y-89154000D03*
%TO.P,U1,12,PB0*%
%TO.N,DB7*%
X93358000Y-89154000D03*
%TO.P,U1,13,PB1*%
%TO.N,TRANSMIT*%
X92558000Y-89154000D03*
%TO.P,U1,14,PB2*%
%TO.N,TUNING*%
X91758000Y-89154000D03*
%TO.P,U1,15,PB3*%
%TO.N,MOSI*%
X90958000Y-89154000D03*
%TO.P,U1,16,PB4*%
%TO.N,MISO*%
X90158000Y-89154000D03*
D38*
%TO.P,U1,17,PB5*%
%TO.N,SCK*%
X88708000Y-90604000D03*
%TO.P,U1,18,AVCC*%
%TO.N,+5V*%
X88708000Y-91404000D03*
%TO.P,U1,19,ADC6*%
%TO.N,unconnected-(U1-Pad19)*%
X88708000Y-92204000D03*
%TO.P,U1,20,AREF*%
%TO.N,Net-(C57-Pad1)*%
X88708000Y-93004000D03*
%TO.P,U1,21,GND*%
%TO.N,GND*%
X88708000Y-93804000D03*
%TO.P,U1,22,ADC7*%
%TO.N,unconnected-(U1-Pad22)*%
X88708000Y-94604000D03*
%TO.P,U1,23,PC0*%
%TO.N,AUDIOFILT*%
X88708000Y-95404000D03*
%TO.P,U1,24,PC1*%
%TO.N,MICPADDLE*%
X88708000Y-96204000D03*
D39*
%TO.P,U1,25,PC2*%
%TO.N,E*%
X90158000Y-97654000D03*
%TO.P,U1,26,PC3*%
%TO.N,RS*%
X90958000Y-97654000D03*
%TO.P,U1,27,PC4*%
%TO.N,SDA*%
X91758000Y-97654000D03*
%TO.P,U1,28,PC5*%
%TO.N,SCL*%
X92558000Y-97654000D03*
%TO.P,U1,29,~{RESET}/PC6*%
%TO.N,RESET*%
X93358000Y-97654000D03*
%TO.P,U1,30,PD0*%
%TO.N,RXD*%
X94158000Y-97654000D03*
%TO.P,U1,31,PD1*%
%TO.N,TXD*%
X94958000Y-97654000D03*
%TO.P,U1,32,PD2*%
%TO.N,PS2CLK*%
X95758000Y-97654000D03*
%TD*%
D25*
%TO.P,J9,1,Pin_1*%
%TO.N,MISO*%
X94130000Y-79900000D03*
D26*
%TO.P,J9,2,Pin_2*%
%TO.N,Net-(J9-Pad2)*%
X94130000Y-77360000D03*
%TO.P,J9,3,Pin_3*%
%TO.N,SCK*%
X96670000Y-79900000D03*
%TO.P,J9,4,Pin_4*%
%TO.N,MOSI*%
X96670000Y-77360000D03*
%TO.P,J9,5,Pin_5*%
%TO.N,RESET*%
X99210000Y-79900000D03*
%TO.P,J9,6,Pin_6*%
%TO.N,GND*%
X99210000Y-77360000D03*
%TD*%
D12*
%TO.P,C37,1*%
%TO.N,+12V*%
X101578500Y-129794000D03*
%TO.P,C37,2*%
%TO.N,GND*%
X103653500Y-129794000D03*
%TD*%
D40*
%TO.P,U3,1*%
%TO.N,unconnected-(U3-Pad1)*%
X105495000Y-136779000D03*
%TO.P,U3,2,-*%
%TO.N,Net-(RV1-Pad2)*%
X105495000Y-135509000D03*
%TO.P,U3,3,+*%
%TO.N,GND*%
X105495000Y-134239000D03*
%TO.P,U3,4,Gnd*%
X105495000Y-132969000D03*
%TO.P,U3,5*%
%TO.N,Net-(L10-Pad1)*%
X100245000Y-132969000D03*
%TO.P,U3,6,V+*%
%TO.N,+12V*%
X100245000Y-134239000D03*
%TO.P,U3,7*%
%TO.N,Net-(C15-Pad1)*%
X100245000Y-135509000D03*
%TO.P,U3,8*%
%TO.N,unconnected-(U3-Pad8)*%
X100245000Y-136779000D03*
%TD*%
%TO.P,U4,1*%
%TO.N,Net-(C39-Pad1)*%
X128825000Y-121885000D03*
%TO.P,U4,2,-*%
%TO.N,Net-(R63-Pad1)*%
X128825000Y-120615000D03*
%TO.P,U4,3,+*%
%TO.N,Net-(C54-Pad2)*%
X128825000Y-119345000D03*
%TO.P,U4,4,V-*%
%TO.N,GND*%
X128825000Y-118075000D03*
%TO.P,U4,5,+*%
%TO.N,Net-(C40-Pad1)*%
X123575000Y-118075000D03*
%TO.P,U4,6,-*%
%TO.N,Net-(C28-Pad1)*%
X123575000Y-119345000D03*
%TO.P,U4,7*%
%TO.N,AUDIO*%
X123575000Y-120615000D03*
%TO.P,U4,8,V+*%
%TO.N,+5V*%
X123575000Y-121885000D03*
%TD*%
D30*
%TO.P,Q5,1,S*%
%TO.N,GND*%
X185340000Y-90830000D03*
D31*
%TO.P,Q5,2,G*%
%TO.N,Net-(C23-Pad2)*%
X182800000Y-90830000D03*
%TO.P,Q5,3,D*%
%TO.N,AMPOUT*%
X180260000Y-90830000D03*
%TD*%
D30*
%TO.P,Q6,1,S*%
%TO.N,GND*%
X175560000Y-90680000D03*
D31*
%TO.P,Q6,2,G*%
%TO.N,Net-(C23-Pad2)*%
X173020000Y-90680000D03*
%TO.P,Q6,3,D*%
%TO.N,AMPOUT*%
X170480000Y-90680000D03*
%TD*%
D30*
%TO.P,Q7,1,S*%
%TO.N,GND*%
X179960000Y-75520000D03*
D31*
%TO.P,Q7,2,G*%
%TO.N,Net-(C23-Pad2)*%
X182500000Y-75520000D03*
%TO.P,Q7,3,D*%
%TO.N,AMPOUT*%
X185040000Y-75520000D03*
%TD*%
D10*
%TO.P,C14,1*%
%TO.N,Net-(C14-Pad1)*%
X162090000Y-63752500D03*
%TO.P,C14,2*%
%TO.N,Net-(C14-Pad2)*%
X162090000Y-65827500D03*
%TD*%
D41*
%TO.P,RV3,1,1*%
%TO.N,GND*%
X40520000Y-101455000D03*
%TO.P,RV3,2,2*%
%TO.N,Net-(DS1-Pad3)*%
X43020000Y-96415000D03*
%TO.P,RV3,3,3*%
%TO.N,+5V*%
X45520000Y-101455000D03*
%TD*%
D11*
%TO.P,C42,1*%
%TO.N,+5V*%
X52387500Y-71930000D03*
%TO.P,C42,2*%
%TO.N,GND*%
X50312500Y-71930000D03*
%TD*%
D25*
%TO.P,JP3,1,1*%
%TO.N,Net-(J9-Pad2)*%
X105535000Y-80810000D03*
D26*
%TO.P,JP3,2,2*%
%TO.N,+5V*%
X108075000Y-80810000D03*
%TD*%
D42*
%TO.P,R1,1*%
%TO.N,+5V*%
X49800000Y-94996000D03*
%TO.P,R1,2*%
%TO.N,RESET*%
X51800000Y-94996000D03*
%TD*%
D43*
%TO.P,R2,1*%
%TO.N,Net-(DS1-Pad15)*%
X85852000Y-73660000D03*
%TO.P,R2,2*%
%TO.N,+5V*%
X85852000Y-71660000D03*
%TD*%
%TO.P,R3,1*%
%TO.N,Net-(C11-Pad2)*%
X100584000Y-108188000D03*
%TO.P,R3,2*%
%TO.N,DB5*%
X100584000Y-106188000D03*
%TD*%
D44*
%TO.P,R4,1*%
%TO.N,+5V*%
X127260000Y-124690000D03*
%TO.P,R4,2*%
%TO.N,Net-(D3-Pad2)*%
X127260000Y-126690000D03*
%TD*%
D42*
%TO.P,R6,1*%
%TO.N,Net-(C10-Pad2)*%
X80026000Y-125984000D03*
%TO.P,R6,2*%
%TO.N,+5V*%
X82026000Y-125984000D03*
%TD*%
D43*
%TO.P,R7,1*%
%TO.N,Net-(L3-Pad2)*%
X115316000Y-102092000D03*
%TO.P,R7,2*%
%TO.N,TUNING*%
X115316000Y-100092000D03*
%TD*%
D42*
%TO.P,R8,1*%
%TO.N,Net-(C14-Pad2)*%
X165624000Y-63246000D03*
%TO.P,R8,2*%
%TO.N,Net-(C31-Pad2)*%
X167624000Y-63246000D03*
%TD*%
D43*
%TO.P,R9,1*%
%TO.N,Net-(C12-Pad1)*%
X122428000Y-96758000D03*
%TO.P,R9,2*%
%TO.N,Net-(C48-Pad2)*%
X122428000Y-94758000D03*
%TD*%
D42*
%TO.P,R11,1*%
%TO.N,Net-(C19-Pad1)*%
X95670000Y-135360000D03*
%TO.P,R11,2*%
%TO.N,Net-(L10-Pad1)*%
X97670000Y-135360000D03*
%TD*%
%TO.P,R12,1*%
%TO.N,Net-(C16-Pad2)*%
X84598000Y-112268000D03*
%TO.P,R12,2*%
%TO.N,+5V*%
X86598000Y-112268000D03*
%TD*%
%TO.P,R13,1*%
%TO.N,Net-(C17-Pad2)*%
X84598000Y-121666000D03*
%TO.P,R13,2*%
%TO.N,+5V*%
X86598000Y-121666000D03*
%TD*%
D44*
%TO.P,R14,1*%
%TO.N,Net-(C14-Pad2)*%
X155194000Y-68002400D03*
%TO.P,R14,2*%
%TO.N,Net-(D18-Pad2)*%
X155194000Y-70002400D03*
%TD*%
D45*
%TO.P,R15,1*%
%TO.N,Net-(C31-Pad2)*%
X138668000Y-91186000D03*
%TO.P,R15,2*%
%TO.N,Net-(C21-Pad2)*%
X136668000Y-91186000D03*
%TD*%
D42*
%TO.P,R16,1*%
%TO.N,GND*%
X131604000Y-95504000D03*
%TO.P,R16,2*%
%TO.N,Net-(C21-Pad2)*%
X133604000Y-95504000D03*
%TD*%
D45*
%TO.P,R17,1*%
%TO.N,GND*%
X138938000Y-100584000D03*
%TO.P,R17,2*%
%TO.N,Net-(C21-Pad1)*%
X136938000Y-100584000D03*
%TD*%
D43*
%TO.P,R18,1*%
%TO.N,+5V*%
X129510000Y-115560000D03*
%TO.P,R18,2*%
%TO.N,Net-(C40-Pad1)*%
X129510000Y-113560000D03*
%TD*%
%TO.P,R19,1*%
%TO.N,Net-(C40-Pad1)*%
X132140000Y-115600000D03*
%TO.P,R19,2*%
%TO.N,GND*%
X132140000Y-113600000D03*
%TD*%
D45*
%TO.P,R20,1*%
%TO.N,Net-(Q9-Pad2)*%
X157667200Y-89128600D03*
%TO.P,R20,2*%
%TO.N,Net-(C56-Pad1)*%
X155667200Y-89128600D03*
%TD*%
D44*
%TO.P,R21,1*%
%TO.N,GND*%
X149352000Y-112808000D03*
%TO.P,R21,2*%
%TO.N,Net-(C27-Pad1)*%
X149352000Y-114808000D03*
%TD*%
D43*
%TO.P,R23,1*%
%TO.N,AUDIO*%
X113910000Y-121100000D03*
%TO.P,R23,2*%
%TO.N,Net-(C45-Pad2)*%
X113910000Y-119100000D03*
%TD*%
D45*
%TO.P,R26,1*%
%TO.N,Net-(C28-Pad1)*%
X116610000Y-116690000D03*
%TO.P,R26,2*%
%TO.N,Net-(C45-Pad2)*%
X114610000Y-116690000D03*
%TD*%
D42*
%TO.P,R27,1*%
%TO.N,Net-(C45-Pad2)*%
X112790000Y-123430000D03*
%TO.P,R27,2*%
%TO.N,Net-(C39-Pad2)*%
X114790000Y-123430000D03*
%TD*%
D43*
%TO.P,R29,1*%
%TO.N,Net-(C10-Pad2)*%
X97536000Y-108170000D03*
%TO.P,R29,2*%
%TO.N,DB4*%
X97536000Y-106170000D03*
%TD*%
%TO.P,R30,1*%
%TO.N,Net-(Q4-Pad1)*%
X94488000Y-108188000D03*
%TO.P,R30,2*%
%TO.N,MUTEAUDIO*%
X94488000Y-106188000D03*
%TD*%
%TO.P,R31,1*%
%TO.N,Net-(C60-Pad2)*%
X109220000Y-132270000D03*
%TO.P,R31,2*%
%TO.N,Net-(C34-Pad1)*%
X109220000Y-130270000D03*
%TD*%
D45*
%TO.P,R32,1*%
%TO.N,AUDIO*%
X113540000Y-127120000D03*
%TO.P,R32,2*%
%TO.N,Net-(C18-Pad1)*%
X111540000Y-127120000D03*
%TD*%
D42*
%TO.P,R33,1*%
%TO.N,Net-(C11-Pad2)*%
X80026000Y-132842000D03*
%TO.P,R33,2*%
%TO.N,+5V*%
X82026000Y-132842000D03*
%TD*%
D45*
%TO.P,R34,1*%
%TO.N,Net-(C18-Pad1)*%
X118390000Y-131690000D03*
%TO.P,R34,2*%
%TO.N,Net-(C34-Pad1)*%
X116390000Y-131690000D03*
%TD*%
D43*
%TO.P,R36,1*%
%TO.N,GND*%
X117348000Y-125222000D03*
%TO.P,R36,2*%
%TO.N,AUDIO*%
X117348000Y-123222000D03*
%TD*%
%TO.P,R37,1*%
%TO.N,GND*%
X128010000Y-130950000D03*
%TO.P,R37,2*%
%TO.N,Net-(C39-Pad1)*%
X128010000Y-128950000D03*
%TD*%
%TO.P,R46,1*%
%TO.N,Net-(C17-Pad2)*%
X106172000Y-108150000D03*
%TO.P,R46,2*%
%TO.N,DB7*%
X106172000Y-106150000D03*
%TD*%
%TO.P,R47,1*%
%TO.N,Net-(C16-Pad2)*%
X103632000Y-108188000D03*
%TO.P,R47,2*%
%TO.N,DB6*%
X103632000Y-106188000D03*
%TD*%
D44*
%TO.P,R24,1*%
%TO.N,AUDIOFILT*%
X110744000Y-110014000D03*
%TO.P,R24,2*%
%TO.N,AUDIO*%
X110744000Y-112014000D03*
%TD*%
D15*
%TO.P,C44,1*%
%TO.N,GND*%
X45060000Y-71987500D03*
%TO.P,C44,2*%
%TO.N,+12V*%
X45060000Y-69912500D03*
%TD*%
D25*
%TO.P,JP4,1,1*%
%TO.N,Net-(C26-Pad2)*%
X169660000Y-126990000D03*
D26*
%TO.P,JP4,2,2*%
%TO.N,Net-(J18-Pad3)*%
X169660000Y-129530000D03*
%TD*%
D11*
%TO.P,C47,1*%
%TO.N,GND*%
X135128000Y-70930000D03*
%TO.P,C47,2*%
%TO.N,Net-(C47-Pad2)*%
X133053000Y-70930000D03*
%TD*%
D46*
%TO.P,D10,1,K*%
%TO.N,Net-(D10-Pad1)*%
X121958000Y-67182000D03*
%TO.P,D10,2,A*%
%TO.N,+5V*%
X121958000Y-63882000D03*
%TD*%
%TO.P,D14,1,K*%
%TO.N,Net-(C47-Pad2)*%
X124768000Y-70688000D03*
%TO.P,D14,2,A*%
%TO.N,Net-(D10-Pad1)*%
X124768000Y-67388000D03*
%TD*%
D25*
%TO.P,JP5,1,1*%
%TO.N,PLLOSC*%
X151670000Y-77990000D03*
D26*
%TO.P,JP5,2,2*%
%TO.N,Net-(C51-Pad1)*%
X151670000Y-80530000D03*
%TO.P,JP5,3,3*%
%TO.N,XOSC*%
X151670000Y-83070000D03*
%TD*%
D43*
%TO.P,R35,1*%
%TO.N,SCL*%
X115062000Y-77200000D03*
%TO.P,R35,2*%
%TO.N,Net-(C47-Pad2)*%
X115062000Y-75200000D03*
%TD*%
%TO.P,R48,1*%
%TO.N,SDA*%
X112650000Y-77180000D03*
%TO.P,R48,2*%
%TO.N,Net-(C47-Pad2)*%
X112650000Y-75180000D03*
%TD*%
D42*
%TO.P,R49,1*%
%TO.N,Net-(J10-Pad1)*%
X146580000Y-76150000D03*
%TO.P,R49,2*%
%TO.N,PLLOSC*%
X148580000Y-76150000D03*
%TD*%
%TO.P,R50,1*%
%TO.N,Net-(J10-Pad2)*%
X146570000Y-79710000D03*
%TO.P,R50,2*%
%TO.N,PLLOSC*%
X148570000Y-79710000D03*
%TD*%
D47*
%TO.P,U6,1,Vdd*%
%TO.N,Net-(C47-Pad2)*%
X131220000Y-74180000D03*
%TO.P,U6,2,XA*%
%TO.N,Net-(U6-Pad2)*%
X131220000Y-74680000D03*
%TO.P,U6,3,XB*%
%TO.N,Net-(U6-Pad3)*%
X131220000Y-75180000D03*
%TO.P,U6,4,SCL*%
%TO.N,SCL*%
X131220000Y-75680000D03*
%TO.P,U6,5,SDA*%
%TO.N,SDA*%
X131220000Y-76180000D03*
%TO.P,U6,6,CLK2*%
%TO.N,unconnected-(U6-Pad6)*%
X135620000Y-76180000D03*
%TO.P,U6,7,VDDO*%
%TO.N,Net-(C47-Pad2)*%
X135620000Y-75680000D03*
%TO.P,U6,8,GND*%
%TO.N,GND*%
X135620000Y-75180000D03*
%TO.P,U6,9,CLK1*%
%TO.N,Net-(J10-Pad2)*%
X135620000Y-74680000D03*
%TO.P,U6,10,CLK0*%
%TO.N,Net-(J10-Pad1)*%
X135620000Y-74180000D03*
%TD*%
D36*
%TO.P,Y3,1,1*%
%TO.N,Net-(U6-Pad3)*%
X127134000Y-77396000D03*
%TO.P,Y3,2,2*%
%TO.N,unconnected-(Y3-Pad2)*%
X127134000Y-74496000D03*
%TO.P,Y3,3,3*%
%TO.N,Net-(U6-Pad2)*%
X124834000Y-74496000D03*
%TO.P,Y3,4,4*%
%TO.N,unconnected-(Y3-Pad4)*%
X124834000Y-77396000D03*
%TD*%
D37*
%TO.P,J12,1,In*%
%TO.N,Net-(J12-Pad1)*%
X181945000Y-129425000D03*
D21*
X184673000Y-131711000D03*
D37*
%TO.P,J12,2,Ext*%
%TO.N,GND*%
X181945000Y-126885000D03*
D22*
X184673000Y-126631000D03*
%TD*%
D48*
%TO.P,RLY1,1,Coil*%
%TO.N,TXRELAY*%
X187775000Y-98845000D03*
%TO.P,RLY1,2,Pole*%
%TO.N,AMPOUT*%
X187775000Y-106465000D03*
%TO.P,RLY1,3,NC*%
%TO.N,Net-(RLY1-Pad3)*%
X187775000Y-111545000D03*
%TO.P,RLY1,4,NO*%
%TO.N,Net-(C26-Pad1)*%
X187775000Y-116625000D03*
%TO.P,RLY1,5,Coil*%
%TO.N,GND*%
X180175000Y-98845000D03*
%TO.P,RLY1,6,Pole*%
%TO.N,RF*%
X180175000Y-106465000D03*
%TO.P,RLY1,7,NC*%
%TO.N,Net-(JP7-Pad2)*%
X180175000Y-111545000D03*
%TO.P,RLY1,8,NO*%
%TO.N,unconnected-(RLY1-Pad8)*%
X180175000Y-116625000D03*
%TD*%
D15*
%TO.P,C30,1*%
%TO.N,Net-(C30-Pad1)*%
X144070000Y-100077500D03*
%TO.P,C30,2*%
%TO.N,Net-(C30-Pad2)*%
X144070000Y-98002500D03*
%TD*%
D46*
%TO.P,D9,1,K*%
%TO.N,Net-(D11-Pad2)*%
X161852000Y-108124000D03*
%TO.P,D9,2,A*%
%TO.N,Net-(D12-Pad1)*%
X161852000Y-111424000D03*
%TD*%
D18*
%TO.P,D11,1,K*%
%TO.N,Net-(D11-Pad1)*%
X156292000Y-105448000D03*
%TO.P,D11,2,A*%
%TO.N,Net-(D11-Pad2)*%
X159592000Y-105448000D03*
%TD*%
%TO.P,D12,1,K*%
%TO.N,Net-(D12-Pad1)*%
X159766000Y-113284000D03*
%TO.P,D12,2,A*%
%TO.N,Net-(D12-Pad2)*%
X156466000Y-113284000D03*
%TD*%
D46*
%TO.P,D13,1,K*%
%TO.N,Net-(D12-Pad2)*%
X154178000Y-111378000D03*
%TO.P,D13,2,A*%
%TO.N,Net-(D11-Pad1)*%
X154178000Y-108078000D03*
%TD*%
D43*
%TO.P,R5,1*%
%TO.N,Net-(C30-Pad1)*%
X141990000Y-94240000D03*
%TO.P,R5,2*%
%TO.N,Net-(Q10-Pad2)*%
X141990000Y-92240000D03*
%TD*%
D44*
%TO.P,R22,1*%
%TO.N,Net-(C49-Pad2)*%
X145796000Y-121682000D03*
%TO.P,R22,2*%
%TO.N,GND*%
X145796000Y-123682000D03*
%TD*%
D45*
%TO.P,R25,1*%
%TO.N,RF*%
X176768000Y-106426000D03*
%TO.P,R25,2*%
%TO.N,Net-(R25-Pad2)*%
X174768000Y-106426000D03*
%TD*%
D49*
%TO.P,Q8,1,B*%
%TO.N,Net-(C14-Pad2)*%
X165928000Y-68247500D03*
%TO.P,Q8,2,E*%
%TO.N,Net-(C31-Pad2)*%
X167828000Y-68247500D03*
%TO.P,Q8,3,C*%
%TO.N,Net-(C14-Pad1)*%
X166878000Y-66372500D03*
%TD*%
D42*
%TO.P,R38,1*%
%TO.N,Net-(D18-Pad1)*%
X167910000Y-60600000D03*
%TO.P,R38,2*%
%TO.N,Net-(D15-Pad1)*%
X169910000Y-60600000D03*
%TD*%
D45*
%TO.P,R39,1*%
%TO.N,Net-(Q13-Pad1)*%
X173466000Y-65024000D03*
%TO.P,R39,2*%
%TO.N,Net-(D15-Pad2)*%
X171466000Y-65024000D03*
%TD*%
D25*
%TO.P,JP1,1,1*%
%TO.N,Net-(D15-Pad2)*%
X171151000Y-68834000D03*
D26*
%TO.P,JP1,2,2*%
%TO.N,Net-(C31-Pad1)*%
X173691000Y-68834000D03*
%TD*%
D11*
%TO.P,C39,1*%
%TO.N,Net-(C39-Pad1)*%
X125265000Y-129286000D03*
%TO.P,C39,2*%
%TO.N,Net-(C39-Pad2)*%
X123190000Y-129286000D03*
%TD*%
D13*
%TO.P,C40,1*%
%TO.N,Net-(C40-Pad1)*%
X142020000Y-107560000D03*
D14*
%TO.P,C40,2*%
%TO.N,GND*%
X144520000Y-107560000D03*
%TD*%
D25*
%TO.P,JP2,1,1*%
%TO.N,Net-(J12-Pad1)*%
X173430000Y-126910000D03*
D26*
%TO.P,JP2,2,2*%
%TO.N,Net-(J18-Pad3)*%
X173430000Y-129450000D03*
%TD*%
D50*
%TO.P,T3,1,RF*%
%TO.N,Net-(J18-Pad3)*%
X174000000Y-139700000D03*
%TO.P,T3,2,RF*%
%TO.N,Net-(J12-Pad1)*%
X181620000Y-139700000D03*
%TO.P,T3,3,SAMPLE*%
%TO.N,GND*%
X177873500Y-142494000D03*
%TO.P,T3,4,SAMPLE*%
%TO.N,Net-(D16-Pad2)*%
X177873500Y-136906000D03*
%TD*%
D19*
%TO.P,D16,1,K*%
%TO.N,Net-(D16-Pad1)*%
X176750000Y-133220000D03*
%TO.P,D16,2,A*%
%TO.N,Net-(D16-Pad2)*%
X178800000Y-133220000D03*
%TD*%
D45*
%TO.P,R28,1*%
%TO.N,Net-(D16-Pad1)*%
X174660000Y-133250000D03*
%TO.P,R28,2*%
%TO.N,GND*%
X172660000Y-133250000D03*
%TD*%
D46*
%TO.P,D17,1,K*%
%TO.N,Net-(C23-Pad2)*%
X156972000Y-82271600D03*
%TO.P,D17,2,A*%
%TO.N,GND*%
X156972000Y-85571600D03*
%TD*%
D30*
%TO.P,Q9,1,S*%
%TO.N,Net-(Q9-Pad1)*%
X167640000Y-91948000D03*
D31*
%TO.P,Q9,2,G*%
%TO.N,Net-(Q9-Pad2)*%
X165100000Y-91948000D03*
%TO.P,Q9,3,D*%
%TO.N,Net-(C14-Pad1)*%
X162560000Y-91948000D03*
%TD*%
D12*
%TO.P,C46,1*%
%TO.N,GND*%
X149838500Y-64262000D03*
%TO.P,C46,2*%
%TO.N,Net-(C31-Pad2)*%
X151913500Y-64262000D03*
%TD*%
D45*
%TO.P,R51,1*%
%TO.N,Net-(Q9-Pad1)*%
X165084000Y-87630000D03*
%TO.P,R51,2*%
%TO.N,Net-(C23-Pad1)*%
X163084000Y-87630000D03*
%TD*%
D44*
%TO.P,R52,1*%
%TO.N,Net-(C14-Pad1)*%
X159766000Y-87138000D03*
%TO.P,R52,2*%
%TO.N,Net-(Q9-Pad2)*%
X159766000Y-89138000D03*
%TD*%
D15*
%TO.P,C24,1*%
%TO.N,GND*%
X155956000Y-65807500D03*
%TO.P,C24,2*%
%TO.N,Net-(C14-Pad1)*%
X155956000Y-63732500D03*
%TD*%
D43*
%TO.P,R53,1*%
%TO.N,Net-(C23-Pad2)*%
X160528000Y-78724000D03*
%TO.P,R53,2*%
%TO.N,Net-(C14-Pad1)*%
X160528000Y-76724000D03*
%TD*%
D11*
%TO.P,C49,1*%
%TO.N,Net-(C43-Pad1)*%
X147849500Y-118618000D03*
%TO.P,C49,2*%
%TO.N,Net-(C49-Pad2)*%
X145774500Y-118618000D03*
%TD*%
%TO.P,C50,1*%
%TO.N,Net-(C50-Pad1)*%
X141450000Y-123870000D03*
%TO.P,C50,2*%
%TO.N,GND*%
X139375000Y-123870000D03*
%TD*%
D15*
%TO.P,C51,1*%
%TO.N,Net-(C51-Pad1)*%
X152750000Y-94205000D03*
%TO.P,C51,2*%
%TO.N,Net-(C51-Pad2)*%
X152750000Y-92130000D03*
%TD*%
D11*
%TO.P,C52,1*%
%TO.N,Net-(C52-Pad1)*%
X134187500Y-110060000D03*
%TO.P,C52,2*%
%TO.N,GND*%
X132112500Y-110060000D03*
%TD*%
%TO.P,C54,1*%
%TO.N,Net-(C54-Pad1)*%
X135987500Y-119330000D03*
%TO.P,C54,2*%
%TO.N,Net-(C54-Pad2)*%
X133912500Y-119330000D03*
%TD*%
D10*
%TO.P,C55,1*%
%TO.N,GND*%
X146120000Y-85632500D03*
%TO.P,C55,2*%
%TO.N,Net-(C31-Pad2)*%
X146120000Y-87707500D03*
%TD*%
D15*
%TO.P,C56,1*%
%TO.N,Net-(C56-Pad1)*%
X155651200Y-94157800D03*
%TO.P,C56,2*%
%TO.N,Net-(C51-Pad1)*%
X155651200Y-92082800D03*
%TD*%
D25*
%TO.P,JP7,1,1*%
%TO.N,Net-(J17-Pad4)*%
X176560000Y-116780000D03*
D26*
%TO.P,JP7,2,2*%
%TO.N,Net-(JP7-Pad2)*%
X174020000Y-116780000D03*
%TO.P,JP7,3,3*%
%TO.N,Net-(J18-Pad3)*%
X171480000Y-116780000D03*
%TD*%
D27*
%TO.P,L5,1,1*%
%TO.N,IF*%
X150876000Y-118609000D03*
%TO.P,L5,2,2*%
%TO.N,Net-(C43-Pad1)*%
X150876000Y-120659000D03*
%TD*%
D32*
%TO.P,Q10,1,B*%
%TO.N,Net-(Q10-Pad1)*%
X147070000Y-92142500D03*
%TO.P,Q10,2,E*%
%TO.N,Net-(Q10-Pad2)*%
X145170000Y-92142500D03*
%TO.P,Q10,3,C*%
%TO.N,Net-(C31-Pad2)*%
X146120000Y-94017500D03*
%TD*%
D49*
%TO.P,Q11,1,B*%
%TO.N,Net-(C52-Pad1)*%
X136464000Y-115237500D03*
%TO.P,Q11,2,E*%
%TO.N,Net-(Q11-Pad2)*%
X138364000Y-115237500D03*
%TO.P,Q11,3,C*%
%TO.N,+5V*%
X137414000Y-113362500D03*
%TD*%
%TO.P,Q12,1,B*%
%TO.N,Net-(Q12-Pad1)*%
X150180000Y-69907500D03*
%TO.P,Q12,2,E*%
%TO.N,GND*%
X152080000Y-69907500D03*
%TO.P,Q12,3,C*%
%TO.N,Net-(D18-Pad1)*%
X151130000Y-68032500D03*
%TD*%
D29*
%TO.P,Q13,1,B*%
%TO.N,Net-(Q13-Pad1)*%
X176572500Y-63900000D03*
%TO.P,Q13,2,E*%
%TO.N,Net-(C31-Pad2)*%
X176572500Y-65800000D03*
%TO.P,Q13,3,C*%
%TO.N,TXRELAY*%
X178447500Y-64850000D03*
%TD*%
D44*
%TO.P,R54,1*%
%TO.N,Net-(Q10-Pad1)*%
X152750000Y-87640000D03*
%TO.P,R54,2*%
%TO.N,Net-(C51-Pad2)*%
X152750000Y-89640000D03*
%TD*%
D43*
%TO.P,R55,1*%
%TO.N,Net-(C31-Pad2)*%
X149500000Y-89700000D03*
%TO.P,R55,2*%
%TO.N,Net-(Q10-Pad1)*%
X149500000Y-87700000D03*
%TD*%
D44*
%TO.P,R56,1*%
%TO.N,Net-(Q10-Pad1)*%
X149360000Y-91900000D03*
%TO.P,R56,2*%
%TO.N,GND*%
X149360000Y-93900000D03*
%TD*%
D42*
%TO.P,R57,1*%
%TO.N,Net-(Q11-Pad2)*%
X141224000Y-114554000D03*
%TO.P,R57,2*%
%TO.N,Net-(C54-Pad1)*%
X143224000Y-114554000D03*
%TD*%
D45*
%TO.P,R58,1*%
%TO.N,Net-(C50-Pad1)*%
X141430000Y-127470000D03*
%TO.P,R58,2*%
%TO.N,GND*%
X139430000Y-127470000D03*
%TD*%
%TO.P,R59,1*%
%TO.N,GND*%
X144010000Y-89780000D03*
%TO.P,R59,2*%
%TO.N,Net-(Q10-Pad2)*%
X142010000Y-89780000D03*
%TD*%
D44*
%TO.P,R60,1*%
%TO.N,Net-(Q11-Pad2)*%
X138430000Y-118380000D03*
%TO.P,R60,2*%
%TO.N,Net-(C50-Pad1)*%
X138430000Y-120380000D03*
%TD*%
D45*
%TO.P,R61,1*%
%TO.N,+5V*%
X138240000Y-110800000D03*
%TO.P,R61,2*%
%TO.N,Net-(C52-Pad1)*%
X136240000Y-110800000D03*
%TD*%
D42*
%TO.P,R62,1*%
%TO.N,Net-(C40-Pad1)*%
X125190000Y-114260000D03*
%TO.P,R62,2*%
%TO.N,Net-(C54-Pad2)*%
X127190000Y-114260000D03*
%TD*%
D43*
%TO.P,R63,1*%
%TO.N,Net-(R63-Pad1)*%
X131180000Y-120370000D03*
%TO.P,R63,2*%
%TO.N,Net-(C40-Pad1)*%
X131180000Y-118370000D03*
%TD*%
D45*
%TO.P,R65,1*%
%TO.N,Net-(Q12-Pad1)*%
X144710000Y-70050000D03*
%TO.P,R65,2*%
%TO.N,Net-(L9-Pad2)*%
X142710000Y-70050000D03*
%TD*%
D44*
%TO.P,R66,1*%
%TO.N,Net-(Q9-Pad2)*%
X161036000Y-96028000D03*
%TO.P,R66,2*%
%TO.N,GND*%
X161036000Y-98028000D03*
%TD*%
D43*
%TO.P,R67,1*%
%TO.N,GND*%
X160528000Y-84550000D03*
%TO.P,R67,2*%
%TO.N,Net-(C23-Pad2)*%
X160528000Y-82550000D03*
%TD*%
D45*
%TO.P,R68,1*%
%TO.N,XOSC*%
X148580000Y-83400000D03*
%TO.P,R68,2*%
%TO.N,Net-(C21-Pad1)*%
X146580000Y-83400000D03*
%TD*%
D37*
%TO.P,Y4,1,1*%
%TO.N,Net-(C21-Pad2)*%
X119888000Y-84836000D03*
%TO.P,Y4,2,2*%
%TO.N,Net-(C48-Pad1)*%
X119888000Y-89716000D03*
%TD*%
D13*
%TO.P,P1,1*%
%TO.N,MISO*%
X99075000Y-66075000D03*
D14*
%TO.P,P1,2*%
%TO.N,N/C*%
X101675000Y-66075000D03*
%TO.P,P1,3*%
%TO.N,GND*%
X96975000Y-66075000D03*
%TO.P,P1,4*%
%TO.N,+5V*%
X103775000Y-66075000D03*
%TO.P,P1,5*%
%TO.N,PS2CLK*%
X96975000Y-68875000D03*
%TO.P,P1,6*%
%TO.N,N/C*%
X103775000Y-68875000D03*
D51*
%TO.P,P1,7*%
%TO.N,GND*%
X93525000Y-63225000D03*
X107225000Y-63225000D03*
D52*
X100375000Y-62425000D03*
%TD*%
D42*
%TO.P,R64,1*%
%TO.N,PS2CLK*%
X110268000Y-68326000D03*
%TO.P,R64,2*%
%TO.N,+5V*%
X112268000Y-68326000D03*
%TD*%
D45*
%TO.P,R70,1*%
%TO.N,+5V*%
X117078000Y-68326000D03*
%TO.P,R70,2*%
%TO.N,MISO*%
X115078000Y-68326000D03*
%TD*%
D10*
%TO.P,C43,1*%
%TO.N,Net-(C43-Pad1)*%
X150876000Y-122914500D03*
%TO.P,C43,2*%
%TO.N,GND*%
X150876000Y-124989500D03*
%TD*%
D53*
%TO.P,D19,1,K*%
%TO.N,Net-(D19-Pad1)*%
X160880000Y-60615000D03*
%TO.P,D19,2,A*%
%TO.N,+12V*%
X160880000Y-58565000D03*
%TD*%
D45*
%TO.P,R71,1*%
%TO.N,Net-(D18-Pad1)*%
X165640000Y-60640000D03*
%TO.P,R71,2*%
%TO.N,Net-(D19-Pad1)*%
X163640000Y-60640000D03*
%TD*%
D11*
%TO.P,C32,1*%
%TO.N,AMPOUT*%
X176551500Y-95250000D03*
%TO.P,C32,2*%
%TO.N,GND*%
X174476500Y-95250000D03*
%TD*%
D29*
%TO.P,Q14,1,B*%
%TO.N,Net-(Q14-Pad1)*%
X103972500Y-74530000D03*
%TO.P,Q14,2,E*%
%TO.N,GND*%
X103972500Y-76430000D03*
%TO.P,Q14,3,C*%
%TO.N,Net-(DS1-Pad16)*%
X105847500Y-75480000D03*
%TD*%
D44*
%TO.P,R72,1*%
%TO.N,Net-(Q14-Pad1)*%
X108130000Y-74410000D03*
%TO.P,R72,2*%
%TO.N,MOSI*%
X108130000Y-76410000D03*
%TD*%
D11*
%TO.P,C38,1*%
%TO.N,Net-(C38-Pad1)*%
X157755500Y-74930000D03*
%TO.P,C38,2*%
%TO.N,GND*%
X155680500Y-74930000D03*
%TD*%
D44*
%TO.P,R73,1*%
%TO.N,Net-(C38-Pad1)*%
X157734000Y-76978000D03*
%TO.P,R73,2*%
%TO.N,Net-(C23-Pad2)*%
X157734000Y-78978000D03*
%TD*%
D54*
%TO.P,RV4,1,1*%
%TO.N,+5V*%
X142790000Y-59940000D03*
%TO.P,RV4,2,2*%
%TO.N,Net-(L11-Pad2)*%
X142790000Y-62480000D03*
%TO.P,RV4,3,3*%
%TO.N,GND*%
X142790000Y-65020000D03*
%TD*%
D44*
%TO.P,R74,1*%
%TO.N,AMPOUT*%
X167386000Y-82566000D03*
%TO.P,R74,2*%
X167386000Y-84566000D03*
%TD*%
D53*
%TO.P,L11,1,1*%
%TO.N,Net-(C38-Pad1)*%
X148082000Y-70225000D03*
%TO.P,L11,2,2*%
%TO.N,Net-(L11-Pad2)*%
X148082000Y-68175000D03*
%TD*%
D55*
%TO.P,J3,1,Pin_1*%
%TO.N,GND*%
X45500000Y-60500000D03*
%TD*%
%TO.P,J4,1,Pin_1*%
%TO.N,GND*%
X185500000Y-60500000D03*
%TD*%
%TO.P,J6,1,Pin_1*%
%TO.N,GND*%
X185500000Y-140500000D03*
%TD*%
%TO.P,J7,1,Pin_1*%
%TO.N,GND*%
X45500000Y-140500000D03*
%TD*%
D12*
%TO.P,C41,1*%
%TO.N,Net-(C19-Pad1)*%
X95461000Y-129286000D03*
%TO.P,C41,2*%
%TO.N,GND*%
X97536000Y-129286000D03*
%TD*%
D15*
%TO.P,C58,1*%
%TO.N,Net-(C58-Pad1)*%
X44958000Y-67564000D03*
%TO.P,C58,2*%
%TO.N,Net-(C58-Pad2)*%
X44958000Y-65489000D03*
%TD*%
D37*
%TO.P,T4,1*%
%TO.N,Net-(C58-Pad2)*%
X41656000Y-64262000D03*
%TO.P,T4,2*%
%TO.N,+12V*%
X41656000Y-71882000D03*
%TO.P,T4,3*%
%TO.N,Net-(C58-Pad1)*%
X39116000Y-64262000D03*
%TO.P,T4,4*%
%TO.N,GND*%
X39116000Y-71882000D03*
%TD*%
%TO.P,Y5,1,1*%
%TO.N,Net-(C21-Pad2)*%
X114046000Y-84836000D03*
%TO.P,Y5,2,2*%
%TO.N,Net-(C48-Pad1)*%
X114046000Y-89716000D03*
%TD*%
D12*
%TO.P,C27,1*%
%TO.N,Net-(C27-Pad1)*%
X151849000Y-114808000D03*
%TO.P,C27,2*%
%TO.N,IF*%
X153924000Y-114808000D03*
%TD*%
D16*
%TO.P,D6,1,K*%
%TO.N,AMPOUT*%
X186880000Y-95330000D03*
D17*
%TO.P,D6,2,A*%
%TO.N,GND*%
X179260000Y-95330000D03*
%TD*%
D11*
%TO.P,C59,1*%
%TO.N,+5V*%
X85360000Y-91940000D03*
%TO.P,C59,2*%
%TO.N,GND*%
X83285000Y-91940000D03*
%TD*%
D44*
%TO.P,R76,1*%
%TO.N,Net-(C66-Pad2)*%
X64450000Y-106840000D03*
%TO.P,R76,2*%
%TO.N,Net-(C66-Pad1)*%
X64450000Y-108840000D03*
%TD*%
D14*
%TO.P,R41,1*%
%TO.N,GND*%
X176530000Y-98552000D03*
D56*
%TO.P,R41,2*%
%TO.N,Net-(Q9-Pad1)*%
X163830000Y-98552000D03*
%TD*%
D12*
%TO.P,C7,1*%
%TO.N,GND*%
X86362500Y-101660000D03*
%TO.P,C7,2*%
%TO.N,MICPADDLE*%
X88437500Y-101660000D03*
%TD*%
D57*
%TO.P,L10,1,1*%
%TO.N,Net-(L10-Pad1)*%
X97755000Y-132800000D03*
%TO.P,L10,2,2*%
%TO.N,Net-(C19-Pad1)*%
X95705000Y-132800000D03*
%TD*%
D25*
%TO.P,J14,1,Pin_1*%
%TO.N,AUDIOFILT*%
X109190000Y-114970000D03*
%TD*%
%TO.P,J15,1,Pin_1*%
%TO.N,GND*%
X155710000Y-126800000D03*
%TD*%
%TO.P,J16,1,Pin_1*%
%TO.N,GND*%
X179900000Y-58900000D03*
%TD*%
D13*
%TO.P,C3,1*%
%TO.N,+12V*%
X77530000Y-61230000D03*
D14*
%TO.P,C3,2*%
%TO.N,GND*%
X74030000Y-61230000D03*
%TD*%
D50*
%TO.P,L4,1,1*%
%TO.N,+12V*%
X152146000Y-58039000D03*
%TO.P,L4,2,2*%
%TO.N,Net-(C31-Pad2)*%
X152146000Y-61849000D03*
%TD*%
%TO.P,L6,1,1*%
%TO.N,Net-(C14-Pad1)*%
X162941000Y-77724000D03*
%TO.P,L6,2,2*%
%TO.N,AMPOUT*%
X166751000Y-77724000D03*
%TD*%
D37*
%TO.P,T1,1*%
%TO.N,GND*%
X155560000Y-97500000D03*
%TO.P,T1,2*%
%TO.N,Net-(C30-Pad2)*%
X147940000Y-97500000D03*
%TO.P,T1,3*%
%TO.N,Net-(D11-Pad2)*%
X155560000Y-100040000D03*
%TO.P,T1,4*%
%TO.N,GND*%
X147940000Y-100040000D03*
%TO.P,T1,5*%
X155560000Y-102580000D03*
%TO.P,T1,6*%
%TO.N,Net-(D12-Pad2)*%
X147940000Y-102580000D03*
%TD*%
%TO.P,T2,1*%
%TO.N,Net-(R25-Pad2)*%
X171196000Y-112267997D03*
%TO.P,T2,2*%
%TO.N,GND*%
X171196000Y-104647997D03*
%TO.P,T2,3*%
%TO.N,Net-(D12-Pad1)*%
X168656000Y-112267997D03*
%TO.P,T2,4*%
%TO.N,IF*%
X168656000Y-104647997D03*
%TO.P,T2,5*%
X166116000Y-112267997D03*
%TO.P,T2,6*%
%TO.N,Net-(D11-Pad1)*%
X166116000Y-104647997D03*
%TD*%
D58*
%TO.P,Q15,1,G*%
%TO.N,Net-(C23-Pad2)*%
X187210000Y-80770000D03*
D59*
%TO.P,Q15,2,D*%
%TO.N,AMPOUT*%
X187210000Y-83310000D03*
%TO.P,Q15,3,S*%
%TO.N,GND*%
X187210000Y-85850000D03*
%TD*%
D11*
%TO.P,C57,1*%
%TO.N,Net-(C57-Pad1)*%
X85447500Y-94130000D03*
%TO.P,C57,2*%
%TO.N,GND*%
X83372500Y-94130000D03*
%TD*%
%TO.P,C45,1*%
%TO.N,Net-(C40-Pad1)*%
X121145000Y-116530000D03*
%TO.P,C45,2*%
%TO.N,Net-(C45-Pad2)*%
X119070000Y-116530000D03*
%TD*%
D12*
%TO.P,C18,1*%
%TO.N,Net-(C18-Pad1)*%
X116312500Y-128190000D03*
%TO.P,C18,2*%
%TO.N,GND*%
X118387500Y-128190000D03*
%TD*%
%TO.P,C60,1*%
%TO.N,GND*%
X102340500Y-140208000D03*
%TO.P,C60,2*%
%TO.N,Net-(C60-Pad2)*%
X104415500Y-140208000D03*
%TD*%
D44*
%TO.P,R10,1*%
%TO.N,BEEPOUT*%
X92240000Y-106140000D03*
%TO.P,R10,2*%
%TO.N,Net-(C60-Pad2)*%
X92240000Y-108140000D03*
%TD*%
D25*
%TO.P,JP8,1,1*%
%TO.N,Net-(C21-Pad2)*%
X133609000Y-91186000D03*
D26*
%TO.P,JP8,2,2*%
%TO.N,GND*%
X131069000Y-91186000D03*
%TD*%
D55*
%TO.P,J20,1,Pin_1*%
%TO.N,GND*%
X128500000Y-60500000D03*
%TD*%
%TO.P,J21,1,Pin_1*%
%TO.N,GND*%
X128500000Y-140500000D03*
%TD*%
D18*
%TO.P,D15,1,K*%
%TO.N,Net-(D15-Pad1)*%
X172330000Y-60600000D03*
%TO.P,D15,2,A*%
%TO.N,Net-(D15-Pad2)*%
X175630000Y-60600000D03*
%TD*%
%TO.P,D18,1,K*%
%TO.N,Net-(D18-Pad1)*%
X152020000Y-72390000D03*
%TO.P,D18,2,A*%
%TO.N,Net-(D18-Pad2)*%
X155320000Y-72390000D03*
%TD*%
D48*
%TO.P,RV1,1,1*%
%TO.N,Net-(C34-Pad2)*%
X88160000Y-143190000D03*
D41*
X90660000Y-140190000D03*
D48*
%TO.P,RV1,2,2*%
%TO.N,Net-(RV1-Pad2)*%
X85660000Y-143190000D03*
D41*
X85660000Y-140190000D03*
D48*
%TO.P,RV1,3,3*%
%TO.N,GND*%
X83160000Y-143190000D03*
D41*
X80660000Y-140190000D03*
%TD*%
%TO.P,RV2,1,1*%
%TO.N,Net-(R63-Pad1)*%
X121660000Y-139840000D03*
D48*
X119160000Y-142840000D03*
D41*
%TO.P,RV2,2,2*%
X116660000Y-139840000D03*
D48*
X116660000Y-142840000D03*
%TO.P,RV2,3,3*%
%TO.N,Net-(C39-Pad1)*%
X114160000Y-142840000D03*
D41*
X111660000Y-139840000D03*
%TD*%
D10*
%TO.P,C48,1*%
%TO.N,Net-(C48-Pad1)*%
X125730000Y-94720500D03*
%TO.P,C48,2*%
%TO.N,Net-(C48-Pad2)*%
X125730000Y-96795500D03*
%TD*%
D60*
%TO.P,D8,1,K*%
%TO.N,TXRELAY*%
X181890000Y-66040000D03*
%TO.P,D8,2,A*%
%TO.N,GND*%
X186890000Y-66040000D03*
%TD*%
D25*
%TO.P,J10,1,Pin_1*%
%TO.N,Net-(J10-Pad1)*%
X139700000Y-70800000D03*
D26*
%TO.P,J10,2,Pin_2*%
%TO.N,Net-(J10-Pad2)*%
X139700000Y-73340000D03*
%TO.P,J10,3,Pin_3*%
%TO.N,unconnected-(J10-Pad3)*%
X139700000Y-75880000D03*
%TO.P,J10,4,Pin_4*%
%TO.N,SCL*%
X139700000Y-78420000D03*
%TO.P,J10,5,Pin_5*%
%TO.N,SDA*%
X139700000Y-80960000D03*
%TO.P,J10,6,Pin_6*%
%TO.N,GND*%
X139700000Y-83500000D03*
%TO.P,J10,7,Pin_7*%
%TO.N,+5V*%
X139700000Y-86040000D03*
%TD*%
D11*
%TO.P,C61,1*%
%TO.N,GND*%
X97790000Y-125984000D03*
%TO.P,C61,2*%
%TO.N,Net-(C61-Pad2)*%
X95715000Y-125984000D03*
%TD*%
D43*
%TO.P,R40,1*%
%TO.N,Net-(C61-Pad2)*%
X88990000Y-105690000D03*
%TO.P,R40,2*%
%TO.N,RS*%
X88990000Y-103690000D03*
%TD*%
D45*
%TO.P,R75,1*%
%TO.N,Net-(C61-Pad2)*%
X91660000Y-125480000D03*
%TO.P,R75,2*%
%TO.N,+5V*%
X89660000Y-125480000D03*
%TD*%
D33*
%TO.P,SW6,1,1*%
%TO.N,Net-(C61-Pad2)*%
X85344000Y-128524000D03*
X91844000Y-128524000D03*
%TO.P,SW6,2,2*%
%TO.N,GND*%
X91844000Y-133024000D03*
X85344000Y-133024000D03*
%TD*%
D13*
%TO.P,C53,1*%
%TO.N,+12V*%
X100076000Y-120876000D03*
D14*
%TO.P,C53,2*%
%TO.N,GND*%
X100076000Y-117376000D03*
%TD*%
D25*
%TO.P,J17,1,Pin_1*%
%TO.N,GND*%
X157480000Y-120650000D03*
D26*
%TO.P,J17,2,Pin_2*%
X160020000Y-120650000D03*
%TO.P,J17,3,Pin_3*%
%TO.N,Net-(C26-Pad2)*%
X162560000Y-120650000D03*
%TO.P,J17,4,Pin_4*%
%TO.N,Net-(J17-Pad4)*%
X165100000Y-120650000D03*
%TD*%
D25*
%TO.P,J18,1,Pin_1*%
%TO.N,GND*%
X157480000Y-140970000D03*
D26*
%TO.P,J18,2,Pin_2*%
X160020000Y-140970000D03*
%TO.P,J18,3,Pin_3*%
%TO.N,Net-(J18-Pad3)*%
X162560000Y-140970000D03*
%TO.P,J18,4,Pin_4*%
X165100000Y-140970000D03*
%TD*%
D11*
%TO.P,C26,1*%
%TO.N,Net-(C26-Pad1)*%
X172657500Y-121240000D03*
%TO.P,C26,2*%
%TO.N,Net-(C26-Pad2)*%
X170582500Y-121240000D03*
%TD*%
D12*
%TO.P,C23,1*%
%TO.N,Net-(C23-Pad1)*%
X163046500Y-84328000D03*
%TO.P,C23,2*%
%TO.N,Net-(C23-Pad2)*%
X165121500Y-84328000D03*
%TD*%
D61*
%TO.P,J19,G*%
%TO.N,GND*%
X42086000Y-117602000D03*
D62*
%TO.P,J19,S1*%
%TO.N,Net-(C68-Pad2)*%
X49986000Y-112402000D03*
D63*
%TO.P,J19,SN1*%
%TO.N,unconnected-(J19-PadSN1)*%
X48986000Y-115002000D03*
D62*
%TO.P,J19,T1*%
%TO.N,Net-(C67-Pad2)*%
X46486000Y-122402000D03*
D64*
%TO.P,J19,TN1*%
%TO.N,unconnected-(J19-PadTN1)*%
X53386000Y-121902000D03*
%TD*%
D15*
%TO.P,C36,1*%
%TO.N,GND*%
X39878000Y-141753500D03*
%TO.P,C36,2*%
%TO.N,+5V*%
X39878000Y-139678500D03*
%TD*%
D45*
%TO.P,R80,1*%
%TO.N,SCK*%
X56626000Y-104140000D03*
%TO.P,R80,2*%
%TO.N,Net-(L8-Pad1)*%
X54626000Y-104140000D03*
%TD*%
D65*
%TO.P,U5,1*%
%TO.N,Net-(C66-Pad2)*%
X66525000Y-106465000D03*
%TO.P,U5,2,-*%
%TO.N,Net-(C66-Pad1)*%
X67795000Y-106465000D03*
%TO.P,U5,3,+*%
%TO.N,Net-(C64-Pad2)*%
X69065000Y-106465000D03*
%TO.P,U5,4,V-*%
%TO.N,GND*%
X70335000Y-106465000D03*
%TO.P,U5,5,+*%
%TO.N,Net-(C64-Pad2)*%
X70335000Y-101215000D03*
%TO.P,U5,6,-*%
%TO.N,Net-(C69-Pad1)*%
X69065000Y-101215000D03*
%TO.P,U5,7*%
%TO.N,Net-(C69-Pad2)*%
X67795000Y-101215000D03*
%TO.P,U5,8,V+*%
%TO.N,+5V*%
X66525000Y-101215000D03*
%TD*%
D11*
%TO.P,C69,1*%
%TO.N,Net-(C69-Pad1)*%
X73449000Y-93726000D03*
%TO.P,C69,2*%
%TO.N,Net-(C69-Pad2)*%
X71374000Y-93726000D03*
%TD*%
D10*
%TO.P,C67,1*%
%TO.N,GND*%
X56134000Y-117072500D03*
%TO.P,C67,2*%
%TO.N,Net-(C67-Pad2)*%
X56134000Y-119147500D03*
%TD*%
D27*
%TO.P,L12,1,1*%
%TO.N,Net-(L12-Pad1)*%
X56134000Y-112758000D03*
%TO.P,L12,2,2*%
%TO.N,Net-(C67-Pad2)*%
X56134000Y-114808000D03*
%TD*%
D66*
%TO.P,Q16,1,E*%
%TO.N,Net-(C31-Pad2)*%
X163068000Y-69850000D03*
D37*
%TO.P,Q16,2,B*%
%TO.N,Net-(C14-Pad2)*%
X160528000Y-69850000D03*
%TO.P,Q16,3,C*%
%TO.N,Net-(C14-Pad1)*%
X157988000Y-69850000D03*
%TD*%
D42*
%TO.P,R42,1*%
%TO.N,+5V*%
X39656000Y-137668000D03*
%TO.P,R42,2*%
%TO.N,Net-(C62-Pad2)*%
X41656000Y-137668000D03*
%TD*%
D43*
%TO.P,R77,1*%
%TO.N,Net-(C66-Pad2)*%
X59436000Y-98266000D03*
%TO.P,R77,2*%
%TO.N,GND*%
X59436000Y-96266000D03*
%TD*%
D44*
%TO.P,R69,1*%
%TO.N,Net-(C66-Pad1)*%
X63110000Y-112850000D03*
%TO.P,R69,2*%
%TO.N,Net-(JP6-Pad2)*%
X63110000Y-114850000D03*
%TD*%
D22*
%TO.P,DS1,*%
%TO.N,*%
X44620900Y-77140000D03*
X44620900Y-108140700D03*
X119620000Y-77140000D03*
X119619480Y-108140700D03*
D67*
%TO.P,DS1,1,VSS*%
%TO.N,GND*%
X50120000Y-77140000D03*
D68*
%TO.P,DS1,2,VDD*%
%TO.N,+5V*%
X52660000Y-77140000D03*
D69*
%TO.P,DS1,3,VO*%
%TO.N,Net-(DS1-Pad3)*%
X55200000Y-77140000D03*
%TO.P,DS1,4,RS*%
%TO.N,RS*%
X57740000Y-77140000D03*
%TO.P,DS1,5,R/W*%
%TO.N,GND*%
X60280000Y-77140000D03*
%TO.P,DS1,6,E*%
%TO.N,E*%
X62820000Y-77140000D03*
%TO.P,DS1,7,D0*%
%TO.N,unconnected-(DS1-Pad7)*%
X65360000Y-77140000D03*
D68*
%TO.P,DS1,8,D1*%
%TO.N,unconnected-(DS1-Pad8)*%
X67900000Y-77140000D03*
%TO.P,DS1,9,D2*%
%TO.N,unconnected-(DS1-Pad9)*%
X70440000Y-77140000D03*
%TO.P,DS1,10,D3*%
%TO.N,unconnected-(DS1-Pad10)*%
X72980000Y-77140000D03*
%TO.P,DS1,11,D4*%
%TO.N,DB4*%
X75520000Y-77140000D03*
%TO.P,DS1,12,D5*%
%TO.N,DB5*%
X78060000Y-77140000D03*
%TO.P,DS1,13,D6*%
%TO.N,DB6*%
X80600000Y-77140000D03*
%TO.P,DS1,14,D7*%
%TO.N,DB7*%
X83140000Y-77140000D03*
%TO.P,DS1,15,LED(+)*%
%TO.N,Net-(DS1-Pad15)*%
X85680000Y-77140000D03*
D69*
%TO.P,DS1,16,LED(-)*%
%TO.N,Net-(DS1-Pad16)*%
X88220000Y-77140000D03*
%TD*%
D43*
%TO.P,R43,1*%
%TO.N,Net-(C63-Pad2)*%
X59460000Y-114870000D03*
%TO.P,R43,2*%
%TO.N,Net-(JP6-Pad2)*%
X59460000Y-112870000D03*
%TD*%
%TO.P,R44,1*%
%TO.N,Net-(C64-Pad2)*%
X63020000Y-98840000D03*
%TO.P,R44,2*%
%TO.N,GND*%
X63020000Y-96840000D03*
%TD*%
D15*
%TO.P,C63,1*%
%TO.N,Net-(C63-Pad1)*%
X59436000Y-119147500D03*
%TO.P,C63,2*%
%TO.N,Net-(C63-Pad2)*%
X59436000Y-117072500D03*
%TD*%
D25*
%TO.P,JP9,1,1*%
%TO.N,Net-(C69-Pad1)*%
X80010000Y-113538000D03*
D26*
%TO.P,JP9,2,2*%
%TO.N,Net-(JP9-Pad2)*%
X77470000Y-113538000D03*
%TD*%
D27*
%TO.P,L7,1,1*%
%TO.N,Net-(C63-Pad1)*%
X54040000Y-140755000D03*
%TO.P,L7,2,2*%
%TO.N,Net-(C62-Pad2)*%
X54040000Y-142805000D03*
%TD*%
D11*
%TO.P,C65,1*%
%TO.N,GND*%
X67585500Y-96774000D03*
%TO.P,C65,2*%
%TO.N,+5V*%
X65510500Y-96774000D03*
%TD*%
D45*
%TO.P,R81,1*%
%TO.N,MICPADDLE*%
X84328000Y-98298000D03*
%TO.P,R81,2*%
%TO.N,Net-(L12-Pad1)*%
X82328000Y-98298000D03*
%TD*%
%TO.P,R84,1*%
%TO.N,MICPADDLE*%
X84312000Y-101600000D03*
%TO.P,R84,2*%
%TO.N,Net-(C69-Pad2)*%
X82312000Y-101600000D03*
%TD*%
D62*
%TO.P,J8,G*%
%TO.N,GND*%
X61214000Y-141810000D03*
D61*
%TO.P,J8,S1*%
%TO.N,SPKR*%
X56014000Y-133910000D03*
D64*
%TO.P,J8,SN1*%
%TO.N,unconnected-(J8-PadSN1)*%
X58614000Y-134910000D03*
D61*
%TO.P,J8,T1*%
%TO.N,SPKR*%
X66014000Y-137410000D03*
D63*
%TO.P,J8,TN1*%
%TO.N,unconnected-(J8-PadTN1)*%
X65514000Y-130510000D03*
%TD*%
D10*
%TO.P,C68,1*%
%TO.N,GND*%
X51840000Y-107442500D03*
%TO.P,C68,2*%
%TO.N,Net-(C68-Pad2)*%
X51840000Y-109517500D03*
%TD*%
D42*
%TO.P,R83,1*%
%TO.N,Net-(C69-Pad2)*%
X71390000Y-97282000D03*
%TO.P,R83,2*%
%TO.N,Net-(C69-Pad1)*%
X73390000Y-97282000D03*
%TD*%
D10*
%TO.P,C62,1*%
%TO.N,GND*%
X51290000Y-139412500D03*
%TO.P,C62,2*%
%TO.N,Net-(C62-Pad2)*%
X51290000Y-141487500D03*
%TD*%
D44*
%TO.P,R85,1*%
%TO.N,Net-(C69-Pad2)*%
X80010000Y-101632000D03*
%TO.P,R85,2*%
%TO.N,GND*%
X80010000Y-103632000D03*
%TD*%
D45*
%TO.P,R79,1*%
%TO.N,Net-(C69-Pad1)*%
X75930000Y-106680000D03*
%TO.P,R79,2*%
%TO.N,Net-(JP9-Pad2)*%
X73930000Y-106680000D03*
%TD*%
D10*
%TO.P,C29,1*%
%TO.N,Net-(C14-Pad1)*%
X158570000Y-63732500D03*
%TO.P,C29,2*%
%TO.N,Net-(C14-Pad2)*%
X158570000Y-65807500D03*
%TD*%
D25*
%TO.P,JP6,1,1*%
%TO.N,Net-(C66-Pad1)*%
X70670000Y-113670000D03*
D26*
%TO.P,JP6,2,2*%
%TO.N,Net-(JP6-Pad2)*%
X68130000Y-113670000D03*
%TD*%
D61*
%TO.P,J11,G*%
%TO.N,GND*%
X42086000Y-130302000D03*
D62*
%TO.P,J11,S1*%
%TO.N,unconnected-(J11-PadS1)*%
X49986000Y-125102000D03*
D63*
%TO.P,J11,SN1*%
%TO.N,unconnected-(J11-PadSN1)*%
X48986000Y-127702000D03*
D62*
%TO.P,J11,T1*%
%TO.N,Net-(C62-Pad2)*%
X46486000Y-135102000D03*
D64*
%TO.P,J11,TN1*%
%TO.N,unconnected-(J11-PadTN1)*%
X53386000Y-134602000D03*
%TD*%
D15*
%TO.P,C66,1*%
%TO.N,Net-(C66-Pad1)*%
X61060000Y-108897500D03*
%TO.P,C66,2*%
%TO.N,Net-(C66-Pad2)*%
X61060000Y-106822500D03*
%TD*%
D44*
%TO.P,R45,1*%
%TO.N,+5V*%
X63246000Y-101108000D03*
%TO.P,R45,2*%
%TO.N,Net-(C64-Pad2)*%
X63246000Y-103108000D03*
%TD*%
D12*
%TO.P,C31,1*%
%TO.N,Net-(C31-Pad1)*%
X176508500Y-69088000D03*
%TO.P,C31,2*%
%TO.N,Net-(C31-Pad2)*%
X178583500Y-69088000D03*
%TD*%
D27*
%TO.P,L8,1,1*%
%TO.N,Net-(L8-Pad1)*%
X55626000Y-107433000D03*
%TO.P,L8,2,2*%
%TO.N,Net-(C68-Pad2)*%
X55626000Y-109483000D03*
%TD*%
D44*
%TO.P,R82,1*%
%TO.N,+5V*%
X51562000Y-101616000D03*
%TO.P,R82,2*%
%TO.N,SCK*%
X51562000Y-103616000D03*
%TD*%
D10*
%TO.P,C28,1*%
%TO.N,Net-(C28-Pad1)*%
X120740000Y-119112500D03*
%TO.P,C28,2*%
%TO.N,AUDIO*%
X120740000Y-121187500D03*
%TD*%
D42*
%TO.P,R78,1*%
%TO.N,Net-(C66-Pad2)*%
X67326000Y-108966000D03*
%TO.P,R78,2*%
%TO.N,Net-(JP9-Pad2)*%
X69326000Y-108966000D03*
%TD*%
D11*
%TO.P,C64,1*%
%TO.N,GND*%
X64995000Y-94310000D03*
%TO.P,C64,2*%
%TO.N,Net-(C64-Pad2)*%
X62920000Y-94310000D03*
%TD*%
D70*
%TO.N,+5V*%
X111840000Y-72220000D03*
X87884000Y-121666000D03*
X55880000Y-91948000D03*
X55880000Y-84582000D03*
X111760000Y-70104000D03*
X87376000Y-125476000D03*
X60730000Y-100590000D03*
X128060000Y-123250000D03*
X67110000Y-141080000D03*
X68580000Y-139300000D03*
X118872000Y-72644000D03*
X122600000Y-81120000D03*
X130850000Y-123090000D03*
X53594000Y-80010000D03*
X56235500Y-99340000D03*
X140220000Y-90150000D03*
%TO.N,GND*%
X149352000Y-94996000D03*
X81920000Y-94320000D03*
X119730000Y-128880000D03*
X71374000Y-106680000D03*
X115824000Y-93980000D03*
X105890000Y-131680000D03*
X159512000Y-85598000D03*
X100700000Y-97680000D03*
X180340000Y-79756000D03*
X83566000Y-136398000D03*
X98670000Y-94770000D03*
X157226000Y-66802000D03*
X63570000Y-95730000D03*
X87020000Y-94410000D03*
X46736000Y-82296000D03*
X81280000Y-104140000D03*
X86300000Y-103320000D03*
X180848000Y-87376000D03*
X127762000Y-132334000D03*
X121920000Y-126238000D03*
X98806000Y-128524000D03*
X176784000Y-87376000D03*
X152146000Y-68326000D03*
X96080000Y-141740000D03*
X104902000Y-130302000D03*
X187960000Y-67564000D03*
X130048000Y-104902000D03*
X50440000Y-138080000D03*
X183896000Y-84836000D03*
X171170000Y-133460000D03*
X46440000Y-72180000D03*
X140208000Y-100330000D03*
X182880000Y-86868000D03*
X180848000Y-78740000D03*
X129286000Y-116840000D03*
X183896000Y-79248000D03*
X121412000Y-102108000D03*
X173736000Y-78740000D03*
X162306000Y-97536000D03*
X81880000Y-93330000D03*
X158242000Y-85852000D03*
X100838000Y-87376000D03*
X66294000Y-93726000D03*
X87884000Y-119634000D03*
X99060000Y-126492000D03*
X181864000Y-81280000D03*
X171196000Y-82804000D03*
X150876000Y-112014000D03*
X177800000Y-78740000D03*
X183896000Y-80772000D03*
X54864000Y-83820000D03*
X77978000Y-94742000D03*
X137620000Y-123960000D03*
X134874000Y-100838000D03*
X50980000Y-106200000D03*
X133690000Y-114040000D03*
X174244000Y-97282000D03*
X88030000Y-115540000D03*
X134390000Y-74780000D03*
X144190000Y-124280000D03*
X130302000Y-96774000D03*
X161036000Y-93726000D03*
X43650000Y-72240000D03*
X67056000Y-94996000D03*
X107188000Y-123444000D03*
X145230000Y-89910000D03*
X149606000Y-62738000D03*
X54610000Y-117094000D03*
X90424000Y-61214000D03*
X80264000Y-60706000D03*
X98860000Y-92980000D03*
X100330000Y-143510000D03*
X95752000Y-92134000D03*
X60706000Y-97028000D03*
X175260000Y-79756000D03*
X102670000Y-76410000D03*
X119634000Y-93726000D03*
X173228000Y-86868000D03*
X144890000Y-85900000D03*
X40380000Y-142890000D03*
X138150000Y-127120000D03*
X171196000Y-80772000D03*
X170688000Y-78740000D03*
X137449416Y-74653762D03*
X154432000Y-75438000D03*
X130900000Y-110360000D03*
X100970000Y-140730000D03*
X149190000Y-125700000D03*
X136398000Y-70612000D03*
X82550000Y-130810000D03*
X116078000Y-124968000D03*
X181356000Y-84328000D03*
X171196000Y-85344000D03*
%TO.N,RESET*%
X91360000Y-87070000D03*
X91795000Y-93265000D03*
X83610000Y-86460000D03*
%TO.N,Net-(C11-Pad2)*%
X96860000Y-112944000D03*
X99568000Y-108966000D03*
%TO.N,SCK*%
X75692000Y-88900000D03*
X87590000Y-88860000D03*
%TO.N,MOSI*%
X98340000Y-75800000D03*
%TO.N,TXD*%
X92304500Y-94166000D03*
X82210000Y-90650000D03*
%TO.N,RXD*%
X81420000Y-91470000D03*
X92520000Y-95250000D03*
%TO.N,TUNING*%
X113382000Y-99568000D03*
X108839000Y-99949000D03*
X95620000Y-99060000D03*
X95590000Y-93570000D03*
%TO.N,TRANSMIT*%
X84230000Y-85560000D03*
X92370000Y-86300000D03*
%TO.N,MUTEAUDIO*%
X94488000Y-104814500D03*
X99308000Y-97976000D03*
%TO.N,BEEPOUT*%
X92330000Y-104820000D03*
X97784000Y-97722000D03*
%TO.N,Net-(C10-Pad2)*%
X95250000Y-112600000D03*
X97282000Y-109220000D03*
%TO.N,Net-(C17-Pad2)*%
X105664000Y-109220000D03*
X93390500Y-113920250D03*
%TO.N,MISO*%
X92090000Y-73590000D03*
%TO.N,DB5*%
X85320000Y-83770000D03*
X95290000Y-84630000D03*
X104140000Y-100584000D03*
X102108000Y-104814500D03*
%TO.N,DB4*%
X96000000Y-85390000D03*
X84680000Y-84570000D03*
X100070750Y-101086750D03*
X99568000Y-104814500D03*
%TO.N,DB7*%
X92970000Y-83080000D03*
X106553000Y-100711000D03*
X85590000Y-81720000D03*
X106680000Y-104814500D03*
%TO.N,DB6*%
X93920000Y-83920000D03*
X105410000Y-100584000D03*
X104648000Y-104814500D03*
X85470000Y-82870000D03*
%TO.N,Net-(DS1-Pad3)*%
X56642000Y-84328000D03*
X56642000Y-90932000D03*
X55880000Y-80772000D03*
%TO.N,RS*%
X82830000Y-88240000D03*
X91227500Y-92287960D03*
X57890000Y-81340000D03*
%TO.N,E*%
X63500000Y-81610000D03*
X82460000Y-89670000D03*
X90132000Y-92166000D03*
%TO.N,Net-(C16-Pad2)*%
X102362000Y-108966000D03*
X99822000Y-112522000D03*
%TO.N,Net-(J9-Pad2)*%
X100140000Y-78600000D03*
%TO.N,PS2CLK*%
X110490000Y-73880000D03*
X96768000Y-98992000D03*
X96760000Y-101400000D03*
X110744000Y-69850000D03*
%TO.N,Net-(C61-Pad2)*%
X91390000Y-113080000D03*
X91390000Y-118060000D03*
%TD*%
D71*
%TO.N,+5V*%
X88708000Y-91404000D02*
X85896000Y-91404000D01*
X56220000Y-92288000D02*
X55880000Y-91948000D01*
X46550000Y-132420000D02*
X41316000Y-132420000D01*
X51562000Y-100584000D02*
X51816000Y-100330000D01*
X49800000Y-98156000D02*
X49658000Y-98298000D01*
X87884000Y-121666000D02*
X86598000Y-121666000D01*
X81026000Y-131318000D02*
X81026000Y-126984000D01*
X138240000Y-112536500D02*
X137414000Y-113362500D01*
X56970000Y-143210000D02*
X55520000Y-141760000D01*
X140220000Y-90150000D02*
X140883000Y-90813000D01*
X40640000Y-97790000D02*
X40640000Y-95504000D01*
X41910000Y-94234000D02*
X44958000Y-94234000D01*
D72*
X132572000Y-65040000D02*
X125570000Y-65040000D01*
D71*
X56235500Y-99340000D02*
X55980000Y-99340000D01*
X126190000Y-120410000D02*
X126190000Y-113390000D01*
X88902000Y-126238000D02*
X87376000Y-126238000D01*
X135520000Y-117390000D02*
X134940000Y-117970000D01*
D72*
X91186000Y-61468000D02*
X91186000Y-64770000D01*
D71*
X97208000Y-93804000D02*
X96376000Y-93804000D01*
X124715000Y-121885000D02*
X126190000Y-120410000D01*
X41316000Y-132420000D02*
X41032000Y-132420000D01*
X95530000Y-94650000D02*
X94660000Y-94650000D01*
X85852000Y-69691000D02*
X85852000Y-71660000D01*
X87376000Y-126238000D02*
X87376000Y-125476000D01*
X39116000Y-130504000D02*
X39116000Y-106934000D01*
X84836000Y-66548000D02*
X89408000Y-66548000D01*
X134940000Y-117970000D02*
X134940000Y-120370000D01*
X89660000Y-125480000D02*
X88902000Y-126238000D01*
X127570000Y-112760000D02*
X128330000Y-113520000D01*
X55880000Y-82296000D02*
X53594000Y-80010000D01*
D72*
X113030000Y-59132000D02*
X112928000Y-59030000D01*
D71*
X67110000Y-141080000D02*
X67080000Y-141080000D01*
X127260000Y-124050000D02*
X128060000Y-123250000D01*
X52640000Y-72182500D02*
X52387500Y-71930000D01*
X83210000Y-87520000D02*
X81640000Y-87520000D01*
X146390000Y-106430000D02*
X145170000Y-105210000D01*
X67080000Y-141080000D02*
X64950000Y-143210000D01*
D72*
X118872000Y-69596000D02*
X118872000Y-67818000D01*
D71*
X52760000Y-141300000D02*
X52760000Y-138630000D01*
X97208000Y-93804000D02*
X99435000Y-93804000D01*
X39656000Y-134080000D02*
X41316000Y-132420000D01*
X55485000Y-98845000D02*
X56220000Y-98110000D01*
X123575000Y-121885000D02*
X123575000Y-124577500D01*
X83524000Y-67860000D02*
X84836000Y-66548000D01*
D72*
X119560000Y-59030000D02*
X112928000Y-59030000D01*
D71*
X128900000Y-115560000D02*
X129510000Y-115560000D01*
X49658000Y-98298000D02*
X49658000Y-99188000D01*
X137414000Y-116156000D02*
X136180000Y-117390000D01*
X41032000Y-132420000D02*
X39116000Y-130504000D01*
X54000000Y-100330000D02*
X55485000Y-98845000D01*
X88729783Y-91382217D02*
X88708000Y-91404000D01*
X132220000Y-123090000D02*
X134940000Y-120370000D01*
X87376000Y-126238000D02*
X82280000Y-126238000D01*
X65510500Y-96774000D02*
X65510500Y-101070500D01*
X82687000Y-70729000D02*
X83524000Y-69892000D01*
X81026000Y-126984000D02*
X82026000Y-125984000D01*
X122600000Y-81120000D02*
X133040000Y-81120000D01*
X137414000Y-113362500D02*
X137414000Y-116156000D01*
X127260000Y-124690000D02*
X127260000Y-124050000D01*
X61248000Y-101108000D02*
X60730000Y-100590000D01*
X127260000Y-124690000D02*
X123637500Y-124690000D01*
X52640000Y-77262500D02*
X52640000Y-72182500D01*
X109474000Y-72644000D02*
X109474000Y-79411000D01*
X64950000Y-143210000D02*
X56970000Y-143210000D01*
X55980000Y-99340000D02*
X55485000Y-98845000D01*
X137960000Y-86040000D02*
X139700000Y-86040000D01*
X97208000Y-92204000D02*
X99604000Y-92204000D01*
X52387500Y-71930000D02*
X58920000Y-71930000D01*
X60121000Y-70729000D02*
X82687000Y-70729000D01*
D72*
X142790000Y-59940000D02*
X137672000Y-59940000D01*
D71*
X51562000Y-101616000D02*
X51562000Y-100584000D01*
X49658000Y-99188000D02*
X50800000Y-100330000D01*
X111840000Y-72220000D02*
X109898000Y-72220000D01*
X50800000Y-100330000D02*
X51816000Y-100330000D01*
X55880000Y-84582000D02*
X55880000Y-82296000D01*
X58920000Y-71930000D02*
X60121000Y-70729000D01*
X45520000Y-101455000D02*
X44305000Y-101455000D01*
X39878000Y-137890000D02*
X39656000Y-137668000D01*
X53594000Y-80010000D02*
X73010000Y-80010000D01*
X56220000Y-98110000D02*
X56220000Y-92288000D01*
X111760000Y-70104000D02*
X111760000Y-68834000D01*
X39878000Y-139678500D02*
X39878000Y-137890000D01*
D72*
X112928000Y-59030000D02*
X107100000Y-59030000D01*
D71*
X40640000Y-95504000D02*
X41910000Y-94234000D01*
D72*
X125570000Y-65040000D02*
X123229000Y-62699000D01*
D71*
X128330000Y-113520000D02*
X128330000Y-114990000D01*
D72*
X123229000Y-62699000D02*
X119560000Y-59030000D01*
D71*
X94660000Y-94650000D02*
X91392217Y-91382217D01*
X39116000Y-106934000D02*
X44595000Y-101455000D01*
X68580000Y-131830000D02*
X68580000Y-139300000D01*
X112268000Y-68326000D02*
X112268000Y-69088000D01*
X146390000Y-109330000D02*
X146390000Y-106430000D01*
X138240000Y-110800000D02*
X138240000Y-112536500D01*
X44958000Y-94234000D02*
X45720000Y-94996000D01*
X86598000Y-121666000D02*
X86598000Y-121650000D01*
X85598000Y-113268000D02*
X86598000Y-112268000D01*
X117078000Y-68326000D02*
X118364000Y-68326000D01*
X83524000Y-69892000D02*
X83524000Y-67860000D01*
X123575000Y-121885000D02*
X124715000Y-121885000D01*
X91392217Y-91382217D02*
X88729783Y-91382217D01*
X74400000Y-81400000D02*
X73010000Y-80010000D01*
D72*
X90323000Y-68935000D02*
X86608000Y-68935000D01*
D71*
X55520000Y-141760000D02*
X53220000Y-141760000D01*
X39656000Y-137668000D02*
X39656000Y-134080000D01*
X136180000Y-117390000D02*
X135520000Y-117390000D01*
X85360000Y-91940000D02*
X84600000Y-91180000D01*
X123575000Y-124577500D02*
X123550000Y-124602500D01*
D72*
X91186000Y-64770000D02*
X91186000Y-68072000D01*
D71*
X126190000Y-113390000D02*
X126820000Y-112760000D01*
X63246000Y-101108000D02*
X61248000Y-101108000D01*
X99604000Y-92204000D02*
X100076000Y-92676000D01*
D72*
X93624000Y-59030000D02*
X91186000Y-61468000D01*
D71*
X111760000Y-68834000D02*
X112268000Y-68326000D01*
X53220000Y-141760000D02*
X52760000Y-141300000D01*
X130850000Y-123090000D02*
X132220000Y-123090000D01*
X66525000Y-101215000D02*
X65655000Y-101215000D01*
D72*
X107100000Y-59030000D02*
X103775000Y-62355000D01*
D71*
X49800000Y-94996000D02*
X49800000Y-98156000D01*
X146320000Y-109400000D02*
X146390000Y-109330000D01*
X140883000Y-90813000D02*
X140883000Y-104323000D01*
X44305000Y-101455000D02*
X40640000Y-97790000D01*
D72*
X118872000Y-66968000D02*
X121958000Y-63882000D01*
D71*
X118364000Y-68326000D02*
X118872000Y-67818000D01*
X138240000Y-110800000D02*
X144920000Y-110800000D01*
X85598000Y-120650000D02*
X85598000Y-113268000D01*
X140883000Y-104323000D02*
X141770000Y-105210000D01*
D72*
X103775000Y-62355000D02*
X103775000Y-66075000D01*
D71*
X126820000Y-112760000D02*
X127570000Y-112760000D01*
D72*
X137672000Y-59940000D02*
X132572000Y-65040000D01*
D71*
X89408000Y-66548000D02*
X91186000Y-64770000D01*
X118872000Y-72644000D02*
X118872000Y-69596000D01*
X84600000Y-88910000D02*
X83210000Y-87520000D01*
D72*
X113030000Y-61297500D02*
X113030000Y-59132000D01*
D71*
X100076000Y-92676000D02*
X100076000Y-94445000D01*
X68580000Y-131830000D02*
X69092000Y-131318000D01*
X133040000Y-81120000D02*
X137960000Y-86040000D01*
X65510500Y-101070500D02*
X65655000Y-101215000D01*
X84600000Y-91180000D02*
X84600000Y-88910000D01*
X44595000Y-101455000D02*
X45520000Y-101455000D01*
X85896000Y-91404000D02*
X85360000Y-91940000D01*
X99435000Y-93804000D02*
X100076000Y-94445000D01*
D72*
X121958000Y-63882000D02*
X122046000Y-63882000D01*
X118872000Y-67818000D02*
X118872000Y-66968000D01*
D71*
X45720000Y-94996000D02*
X49800000Y-94996000D01*
D72*
X107100000Y-59030000D02*
X93624000Y-59030000D01*
D71*
X63353000Y-101215000D02*
X63246000Y-101108000D01*
X109474000Y-79411000D02*
X108075000Y-80810000D01*
X112776000Y-69596000D02*
X118872000Y-69596000D01*
X86598000Y-121650000D02*
X85598000Y-120650000D01*
X109898000Y-72220000D02*
X109474000Y-72644000D01*
X86608000Y-68935000D02*
X85852000Y-69691000D01*
X82026000Y-132842000D02*
X82026000Y-132318000D01*
X96376000Y-93804000D02*
X95530000Y-94650000D01*
X51816000Y-100330000D02*
X54000000Y-100330000D01*
X112268000Y-69088000D02*
X112776000Y-69596000D01*
X52760000Y-138630000D02*
X46550000Y-132420000D01*
X123637500Y-124690000D02*
X123550000Y-124602500D01*
X82026000Y-132318000D02*
X81026000Y-131318000D01*
X81640000Y-87520000D02*
X75520000Y-81400000D01*
X81026000Y-131318000D02*
X69092000Y-131318000D01*
X145170000Y-105210000D02*
X141770000Y-105210000D01*
X65655000Y-101215000D02*
X63353000Y-101215000D01*
X144920000Y-110800000D02*
X146320000Y-109400000D01*
D72*
X91186000Y-68072000D02*
X90323000Y-68935000D01*
D71*
X75520000Y-81400000D02*
X74400000Y-81400000D01*
X82280000Y-126238000D02*
X82026000Y-125984000D01*
X128330000Y-114990000D02*
X128900000Y-115560000D01*
D72*
X122046000Y-63882000D02*
X123229000Y-62699000D01*
D71*
%TO.N,GND*%
X81920000Y-94320000D02*
X83202500Y-94320000D01*
D72*
X160528000Y-84550000D02*
X160528000Y-84582000D01*
X183388000Y-78740000D02*
X183896000Y-79248000D01*
X149838500Y-62970500D02*
X149606000Y-62738000D01*
X135128000Y-70930000D02*
X136080000Y-70930000D01*
X149360000Y-93900000D02*
X149360000Y-94988000D01*
X46247500Y-71987500D02*
X46440000Y-72180000D01*
D71*
X50292000Y-71950500D02*
X50292000Y-76708000D01*
X70335000Y-106465000D02*
X71159000Y-106465000D01*
D72*
X89003000Y-62635000D02*
X90424000Y-61214000D01*
X84328000Y-62635000D02*
X82193000Y-62635000D01*
D71*
X63020000Y-96280000D02*
X63570000Y-95730000D01*
D72*
X180848000Y-78740000D02*
X183388000Y-78740000D01*
D71*
X86614000Y-115824000D02*
X87746000Y-115824000D01*
X96033000Y-92854000D02*
X97058000Y-92854000D01*
D72*
X105495000Y-132969000D02*
X105495000Y-132075000D01*
X149352000Y-112808000D02*
X150082000Y-112808000D01*
D71*
X98504000Y-94604000D02*
X98670000Y-94770000D01*
D72*
X186890000Y-66040000D02*
X186890000Y-66494000D01*
D71*
X101600000Y-88138000D02*
X100838000Y-87376000D01*
X102670000Y-76410000D02*
X103952500Y-76410000D01*
D72*
X115570000Y-94234000D02*
X115824000Y-93980000D01*
D71*
X78210500Y-94974500D02*
X77978000Y-94742000D01*
X88708000Y-93804000D02*
X87626000Y-93804000D01*
X102065000Y-88138000D02*
X101600000Y-88138000D01*
D72*
X82193000Y-62635000D02*
X80264000Y-60706000D01*
X171196000Y-82804000D02*
X171196000Y-80772000D01*
D71*
X87626000Y-93804000D02*
X87020000Y-94410000D01*
X50440000Y-138080000D02*
X51290000Y-138930000D01*
X54377500Y-84306500D02*
X54864000Y-83820000D01*
D72*
X145100000Y-89780000D02*
X145230000Y-89910000D01*
X156231500Y-65807500D02*
X157226000Y-66802000D01*
X156972000Y-85571600D02*
X157961600Y-85571600D01*
X134133500Y-100097500D02*
X134874000Y-100838000D01*
X138938000Y-100584000D02*
X139954000Y-100584000D01*
X181864000Y-83820000D02*
X181356000Y-84328000D01*
X173736000Y-78740000D02*
X177800000Y-78740000D01*
X170350000Y-75630000D02*
X170350000Y-78402000D01*
X152146000Y-68326000D02*
X152080000Y-68392000D01*
D73*
X136923178Y-75180000D02*
X137449416Y-74653762D01*
D71*
X155680500Y-74930000D02*
X154940000Y-74930000D01*
D72*
X149838500Y-64262000D02*
X149838500Y-62970500D01*
D71*
X39878000Y-141753500D02*
X39878000Y-142388000D01*
X87630000Y-119380000D02*
X86635500Y-119380000D01*
D72*
X127762000Y-104862000D02*
X130008000Y-104862000D01*
D71*
X119040000Y-128190000D02*
X119730000Y-128880000D01*
D72*
X172720000Y-86868000D02*
X171196000Y-85344000D01*
D71*
X87746000Y-115824000D02*
X88030000Y-115540000D01*
X65710000Y-94310000D02*
X66294000Y-93726000D01*
D73*
X135620000Y-75180000D02*
X134790000Y-75180000D01*
D71*
X95775000Y-140230000D02*
X95775000Y-141435000D01*
X98836000Y-93004000D02*
X98860000Y-92980000D01*
X139430000Y-127470000D02*
X138500000Y-127470000D01*
X107750000Y-122122500D02*
X107750000Y-122882000D01*
X46249500Y-82782500D02*
X46736000Y-82296000D01*
X133690000Y-114040000D02*
X133250000Y-113600000D01*
D72*
X105495000Y-134239000D02*
X105495000Y-132969000D01*
D71*
X133250000Y-113600000D02*
X132140000Y-113600000D01*
D72*
X157961600Y-85571600D02*
X158242000Y-85852000D01*
D71*
X101582000Y-143510000D02*
X100330000Y-143510000D01*
D72*
X119126000Y-95482500D02*
X119126000Y-94234000D01*
X155956000Y-65807500D02*
X156231500Y-65807500D01*
D71*
X80772000Y-103632000D02*
X81280000Y-104140000D01*
D72*
X119126000Y-94234000D02*
X119634000Y-93726000D01*
D71*
X103952500Y-76410000D02*
X103972500Y-76430000D01*
D72*
X183896000Y-84836000D02*
X183896000Y-85852000D01*
X97790000Y-125984000D02*
X98552000Y-125984000D01*
X98044000Y-129286000D02*
X98806000Y-128524000D01*
D71*
X59436000Y-96266000D02*
X59690000Y-96266000D01*
X78210500Y-96520000D02*
X78210500Y-94974500D01*
D72*
X149900500Y-124989500D02*
X149190000Y-125700000D01*
X133350000Y-100097500D02*
X134133500Y-100097500D01*
X186890000Y-66494000D02*
X187960000Y-67564000D01*
X115570000Y-95461000D02*
X115570000Y-94234000D01*
X84328000Y-62635000D02*
X89003000Y-62635000D01*
X174476500Y-97049500D02*
X174244000Y-97282000D01*
X97536000Y-129286000D02*
X98044000Y-129286000D01*
D71*
X51840000Y-107060000D02*
X50980000Y-106200000D01*
X128010000Y-132086000D02*
X127762000Y-132334000D01*
X83202500Y-94320000D02*
X83372500Y-94150000D01*
D72*
X183896000Y-85852000D02*
X182880000Y-86868000D01*
D71*
X51840000Y-107442500D02*
X51840000Y-107060000D01*
D72*
X161036000Y-98028000D02*
X161814000Y-98028000D01*
X160528000Y-84582000D02*
X159512000Y-85598000D01*
X82063500Y-130323500D02*
X82550000Y-130810000D01*
X181864000Y-81280000D02*
X181864000Y-83820000D01*
X43902500Y-71987500D02*
X43650000Y-72240000D01*
D71*
X118387500Y-128190000D02*
X119040000Y-128190000D01*
X123550000Y-126677500D02*
X122359500Y-126677500D01*
X130900000Y-110360000D02*
X131200000Y-110060000D01*
X138500000Y-127470000D02*
X138150000Y-127120000D01*
D72*
X127762000Y-104862000D02*
X123952000Y-104862000D01*
D71*
X102340500Y-140208000D02*
X101492000Y-140208000D01*
D72*
X146120000Y-85632500D02*
X145157500Y-85632500D01*
X180848000Y-87376000D02*
X176784000Y-87376000D01*
D71*
X51290000Y-138930000D02*
X51290000Y-139412500D01*
D73*
X135620000Y-75180000D02*
X136923178Y-75180000D01*
D71*
X122359500Y-126677500D02*
X121920000Y-126238000D01*
X128825000Y-117301000D02*
X129286000Y-116840000D01*
D72*
X145796000Y-123682000D02*
X144788000Y-123682000D01*
D71*
X154940000Y-74930000D02*
X154432000Y-75438000D01*
X107750000Y-122882000D02*
X107188000Y-123444000D01*
D72*
X174476500Y-95250000D02*
X174476500Y-97049500D01*
X159766000Y-93493500D02*
X160803500Y-93493500D01*
X172660000Y-133250000D02*
X171380000Y-133250000D01*
D71*
X80010000Y-103632000D02*
X80772000Y-103632000D01*
X139375000Y-123870000D02*
X137710000Y-123870000D01*
D72*
X130334000Y-96774000D02*
X131604000Y-95504000D01*
D71*
X117348000Y-125222000D02*
X116332000Y-125222000D01*
D72*
X82063500Y-129540000D02*
X82063500Y-130323500D01*
X123952000Y-104648000D02*
X121412000Y-102108000D01*
D71*
X54377500Y-85598000D02*
X54377500Y-84306500D01*
X59436000Y-96266000D02*
X59944000Y-96266000D01*
D72*
X150082000Y-112808000D02*
X150876000Y-112014000D01*
D71*
X97208000Y-94604000D02*
X98504000Y-94604000D01*
X81880000Y-93330000D02*
X83270000Y-91940000D01*
X54610000Y-117094000D02*
X56112500Y-117094000D01*
X116332000Y-125222000D02*
X116078000Y-124968000D01*
X97058000Y-92854000D02*
X97208000Y-93004000D01*
D72*
X160803500Y-93493500D02*
X161036000Y-93726000D01*
D71*
X95752000Y-92134000D02*
X95752000Y-92573000D01*
D72*
X144788000Y-123682000D02*
X144190000Y-124280000D01*
X171380000Y-133250000D02*
X171170000Y-133460000D01*
D73*
X134790000Y-75180000D02*
X134390000Y-74780000D01*
D72*
X105495000Y-132075000D02*
X105890000Y-131680000D01*
X136080000Y-70930000D02*
X136398000Y-70612000D01*
X150876000Y-124989500D02*
X149900500Y-124989500D01*
D71*
X71159000Y-106465000D02*
X71374000Y-106680000D01*
X86300000Y-103320000D02*
X86362500Y-103257500D01*
X100076000Y-96520000D02*
X100076000Y-97056000D01*
X100076000Y-96520000D02*
X101324500Y-96520000D01*
D72*
X45060000Y-71987500D02*
X43902500Y-71987500D01*
X139954000Y-100584000D02*
X140208000Y-100330000D01*
D71*
X101324500Y-96520000D02*
X102086500Y-97282000D01*
D72*
X170350000Y-78402000D02*
X170688000Y-78740000D01*
D71*
X128825000Y-118075000D02*
X128825000Y-117301000D01*
D72*
X183896000Y-79248000D02*
X183896000Y-80772000D01*
D71*
X46249500Y-83566000D02*
X46249500Y-82782500D01*
X128010000Y-130950000D02*
X128010000Y-132086000D01*
X87884000Y-119634000D02*
X87630000Y-119380000D01*
X67585500Y-95525500D02*
X67056000Y-94996000D01*
X131200000Y-110060000D02*
X132112500Y-110060000D01*
D72*
X152080000Y-68392000D02*
X152080000Y-69907500D01*
X175260000Y-79756000D02*
X180340000Y-79756000D01*
D71*
X95775000Y-141435000D02*
X96080000Y-141740000D01*
D72*
X174476500Y-95250000D02*
X174476500Y-96498500D01*
D71*
X56112500Y-117094000D02*
X56134000Y-117072500D01*
X104394000Y-129794000D02*
X104902000Y-130302000D01*
D72*
X98552000Y-125984000D02*
X99060000Y-126492000D01*
D71*
X101492000Y-140208000D02*
X100970000Y-140730000D01*
D72*
X145157500Y-85632500D02*
X144890000Y-85900000D01*
X144010000Y-89780000D02*
X145100000Y-89780000D01*
X45060000Y-71987500D02*
X46247500Y-71987500D01*
D71*
X100076000Y-97056000D02*
X100700000Y-97680000D01*
D72*
X173228000Y-86868000D02*
X172720000Y-86868000D01*
X174476500Y-96498500D02*
X176530000Y-98552000D01*
D71*
X50312500Y-71930000D02*
X50292000Y-71950500D01*
D72*
X161814000Y-98028000D02*
X162306000Y-97536000D01*
D71*
X86362500Y-103257500D02*
X86362500Y-101660000D01*
D72*
X130302000Y-96774000D02*
X130334000Y-96774000D01*
D71*
X63020000Y-96840000D02*
X63020000Y-96280000D01*
X97208000Y-93004000D02*
X98836000Y-93004000D01*
D72*
X123952000Y-104862000D02*
X123952000Y-104648000D01*
D71*
X83270000Y-91940000D02*
X83285000Y-91940000D01*
X64995000Y-94310000D02*
X65710000Y-94310000D01*
D72*
X130008000Y-104862000D02*
X130048000Y-104902000D01*
D71*
X137710000Y-123870000D02*
X137620000Y-123960000D01*
D72*
X82063500Y-136398000D02*
X83566000Y-136398000D01*
D71*
X39878000Y-142388000D02*
X40380000Y-142890000D01*
X67585500Y-96774000D02*
X67585500Y-95525500D01*
X95752000Y-92573000D02*
X96033000Y-92854000D01*
X103653500Y-129794000D02*
X104394000Y-129794000D01*
X59944000Y-96266000D02*
X60706000Y-97028000D01*
D72*
X149360000Y-94988000D02*
X149352000Y-94996000D01*
D71*
%TO.N,RESET*%
X52070000Y-93218000D02*
X51308000Y-93218000D01*
X52070000Y-83312000D02*
X53340000Y-84582000D01*
X52832000Y-79248000D02*
X51329500Y-80750500D01*
X91360000Y-87070000D02*
X91380000Y-87050000D01*
X51329500Y-83312000D02*
X52070000Y-83312000D01*
X53340000Y-84582000D02*
X53340000Y-92710000D01*
X91630000Y-95820000D02*
X92008000Y-96198000D01*
X52832000Y-93218000D02*
X52070000Y-93218000D01*
X93358000Y-96629000D02*
X93358000Y-97654000D01*
X51308000Y-93218000D02*
X47050000Y-88960000D01*
X92600000Y-82300000D02*
X97190000Y-82300000D01*
X53340000Y-92710000D02*
X52832000Y-93218000D01*
X91795000Y-93265000D02*
X91630000Y-93430000D01*
X91380000Y-87050000D02*
X91380000Y-83520000D01*
X51329500Y-80750500D02*
X51329500Y-83312000D01*
X47050000Y-88960000D02*
X47050000Y-88520000D01*
X83610000Y-86460000D02*
X81890000Y-86460000D01*
X91380000Y-83520000D02*
X92600000Y-82300000D01*
X91630000Y-93430000D02*
X91630000Y-95820000D01*
X73718000Y-79248000D02*
X52832000Y-79248000D01*
X51800000Y-94996000D02*
X52958000Y-96154000D01*
X92008000Y-96198000D02*
X92927000Y-96198000D01*
X52958000Y-96154000D02*
X52958000Y-98298000D01*
X81890000Y-86460000D02*
X76110000Y-80680000D01*
X51800000Y-94996000D02*
X51800000Y-93488000D01*
X75150000Y-80680000D02*
X73718000Y-79248000D01*
X51800000Y-93488000D02*
X52070000Y-93218000D01*
X76110000Y-80680000D02*
X75150000Y-80680000D01*
X99210000Y-80280000D02*
X99210000Y-79900000D01*
X92927000Y-96198000D02*
X93358000Y-96629000D01*
X97190000Y-82300000D02*
X99210000Y-80280000D01*
X47050000Y-88520000D02*
X40550000Y-88520000D01*
%TO.N,Net-(C2-Pad2)*%
X47310000Y-80380000D02*
X43860000Y-80380000D01*
X49254500Y-82324500D02*
X47310000Y-80380000D01*
X40220000Y-76740000D02*
X40220000Y-76470000D01*
X49254500Y-83312000D02*
X49254500Y-82324500D01*
X43860000Y-80380000D02*
X40220000Y-76740000D01*
D72*
%TO.N,+12V*%
X160354000Y-58039000D02*
X160880000Y-58565000D01*
X79756000Y-62484000D02*
X78502000Y-61230000D01*
X99491000Y-134239000D02*
X98790000Y-134940000D01*
X137831000Y-58039000D02*
X131800000Y-64070000D01*
X100076000Y-128291500D02*
X100076000Y-120876000D01*
X82048000Y-67824000D02*
X79756000Y-65532000D01*
X98790000Y-134940000D02*
X98790000Y-136150000D01*
X43625500Y-69912500D02*
X41656000Y-71882000D01*
X72136000Y-64516000D02*
X63246000Y-64516000D01*
X102108000Y-130323500D02*
X101578500Y-129794000D01*
X78502000Y-61230000D02*
X77530000Y-61230000D01*
X45060000Y-69912500D02*
X43625500Y-69912500D01*
X131800000Y-64070000D02*
X126120000Y-64070000D01*
X86360000Y-136906000D02*
X79248000Y-144018000D01*
X71650000Y-68330000D02*
X71650000Y-65002000D01*
X79756000Y-65532000D02*
X79756000Y-62484000D01*
X126120000Y-64070000D02*
X120220000Y-58170000D01*
X98790000Y-136150000D02*
X98034000Y-136906000D01*
X102108000Y-133350000D02*
X102108000Y-130323500D01*
X120220000Y-58170000D02*
X80590000Y-58170000D01*
X100245000Y-134239000D02*
X99491000Y-134239000D01*
X101219000Y-134239000D02*
X102108000Y-133350000D01*
X38354000Y-142240000D02*
X38354000Y-75184000D01*
X63246000Y-64516000D02*
X57658000Y-70104000D01*
X152146000Y-58039000D02*
X137831000Y-58039000D01*
X71650000Y-65002000D02*
X72136000Y-64516000D01*
X152146000Y-58039000D02*
X160354000Y-58039000D01*
X40132000Y-144018000D02*
X38354000Y-142240000D01*
X79248000Y-144018000D02*
X40132000Y-144018000D01*
X82048000Y-68935000D02*
X82048000Y-67824000D01*
X74244000Y-64516000D02*
X77530000Y-61230000D01*
X57658000Y-70104000D02*
X45251500Y-70104000D01*
X80590000Y-58170000D02*
X77530000Y-61230000D01*
X101578500Y-129794000D02*
X100076000Y-128291500D01*
X100245000Y-134239000D02*
X101219000Y-134239000D01*
X45251500Y-70104000D02*
X45060000Y-69912500D01*
X38354000Y-75184000D02*
X41656000Y-71882000D01*
X72136000Y-64516000D02*
X74244000Y-64516000D01*
X98034000Y-136906000D02*
X86360000Y-136906000D01*
D71*
%TO.N,Net-(C4-Pad1)*%
X42496318Y-81110000D02*
X42386318Y-81000000D01*
X52302500Y-85598000D02*
X49022000Y-85598000D01*
X47752000Y-84328000D02*
X47752000Y-82192000D01*
X52302500Y-85598000D02*
X52302500Y-88388500D01*
X47752000Y-82192000D02*
X46670000Y-81110000D01*
X42386318Y-81000000D02*
X42210000Y-81000000D01*
X49022000Y-85598000D02*
X47752000Y-84328000D01*
X46670000Y-81110000D02*
X42496318Y-81110000D01*
X42210000Y-81000000D02*
X40220000Y-79010000D01*
X52302500Y-88388500D02*
X52306000Y-88392000D01*
%TO.N,Net-(C5-Pad1)*%
X40220000Y-81550000D02*
X42158500Y-81550000D01*
X50038000Y-90170000D02*
X50038000Y-88392000D01*
X52315000Y-91694000D02*
X51562000Y-91694000D01*
X51562000Y-91694000D02*
X50038000Y-90170000D01*
X47498000Y-85852000D02*
X45212000Y-85852000D01*
X50038000Y-88392000D02*
X47498000Y-85852000D01*
X44174500Y-84814500D02*
X44174500Y-83566000D01*
X42158500Y-81550000D02*
X44174500Y-83566000D01*
X45212000Y-85852000D02*
X44174500Y-84814500D01*
%TO.N,Net-(C8-Pad2)*%
X105350000Y-93830000D02*
X105350000Y-96093500D01*
X103600000Y-95920000D02*
X102010000Y-95920000D01*
X102010000Y-95920000D02*
X101490000Y-95400000D01*
X100134000Y-91404000D02*
X97208000Y-91404000D01*
X104161500Y-96481500D02*
X103600000Y-95920000D01*
X101490000Y-92760000D02*
X100134000Y-91404000D01*
X101490000Y-95400000D02*
X101490000Y-92760000D01*
X104161500Y-97282000D02*
X104161500Y-96481500D01*
X105350000Y-96093500D02*
X104161500Y-97282000D01*
D72*
%TO.N,Net-(C11-Pad2)*%
X99568000Y-108966000D02*
X100346000Y-108188000D01*
D71*
X96860000Y-112944000D02*
X96860000Y-113452000D01*
X79988500Y-136398000D02*
X77112000Y-136398000D01*
X80026000Y-133156000D02*
X81590000Y-134720000D01*
X82270000Y-134720000D02*
X81666500Y-134720000D01*
D72*
X100346000Y-108188000D02*
X100584000Y-108188000D01*
D71*
X81590000Y-134720000D02*
X82270000Y-134720000D01*
X82660000Y-134720000D02*
X82270000Y-134720000D01*
X90100000Y-126920000D02*
X84420000Y-126920000D01*
X84420000Y-126920000D02*
X83460000Y-127880000D01*
X83460000Y-127880000D02*
X83460000Y-133920000D01*
X83460000Y-133920000D02*
X82660000Y-134720000D01*
X96860000Y-113452000D02*
X93472000Y-116840000D01*
X77112000Y-136398000D02*
X76858000Y-136144000D01*
X90685000Y-122675000D02*
X90685000Y-126335000D01*
X90424000Y-122414000D02*
X90685000Y-122675000D01*
X81666500Y-134720000D02*
X79988500Y-136398000D01*
X91440000Y-116840000D02*
X90424000Y-117856000D01*
X70358000Y-136144000D02*
X76858000Y-136144000D01*
X93472000Y-116840000D02*
X91440000Y-116840000D01*
X90685000Y-126335000D02*
X90100000Y-126920000D01*
X80026000Y-132842000D02*
X80026000Y-133156000D01*
X90424000Y-117856000D02*
X90424000Y-122414000D01*
D72*
%TO.N,Net-(C21-Pad2)*%
X136730500Y-91248500D02*
X136668000Y-91186000D01*
X130556000Y-84836000D02*
X125730000Y-84836000D01*
X133609000Y-87889000D02*
X130556000Y-84836000D01*
X133609000Y-91186000D02*
X133609000Y-87889000D01*
X130831500Y-98276500D02*
X133604000Y-95504000D01*
X136668000Y-91186000D02*
X133609000Y-91186000D01*
X136730500Y-95824000D02*
X136730500Y-91248500D01*
X133924000Y-95824000D02*
X133604000Y-95504000D01*
X136730500Y-95824000D02*
X133924000Y-95824000D01*
X119888000Y-84836000D02*
X114046000Y-84836000D01*
X130810000Y-98276500D02*
X130831500Y-98276500D01*
X125730000Y-84836000D02*
X119888000Y-84836000D01*
%TO.N,Net-(C23-Pad2)*%
X157734000Y-78978000D02*
X159782000Y-81026000D01*
X160528000Y-82550000D02*
X160528000Y-80772000D01*
X182800000Y-90830000D02*
X182800000Y-90758000D01*
D71*
X168910000Y-83820000D02*
X168656000Y-83566000D01*
D72*
X160528000Y-80772000D02*
X160274000Y-81026000D01*
D71*
X165883500Y-83566000D02*
X165121500Y-84328000D01*
D72*
X181058000Y-76962000D02*
X182500000Y-75520000D01*
X182800000Y-90758000D02*
X185674000Y-87884000D01*
X173020000Y-89616000D02*
X173020000Y-90680000D01*
X173736000Y-88900000D02*
X173020000Y-89616000D01*
X158536400Y-82271600D02*
X156972000Y-82271600D01*
X185674000Y-82306000D02*
X187210000Y-80770000D01*
X172890000Y-75630000D02*
X174222000Y-76962000D01*
X159782000Y-81026000D02*
X160274000Y-81026000D01*
X162560000Y-81788000D02*
X162581500Y-81788000D01*
X174222000Y-76962000D02*
X181058000Y-76962000D01*
D71*
X170220000Y-88940000D02*
X168910000Y-87630000D01*
X173696000Y-88940000D02*
X170220000Y-88940000D01*
D72*
X162581500Y-81788000D02*
X165121500Y-84328000D01*
X182708000Y-75520000D02*
X187210000Y-80022000D01*
D71*
X168910000Y-87630000D02*
X168910000Y-83820000D01*
X173736000Y-88900000D02*
X173696000Y-88940000D01*
D72*
X160274000Y-81026000D02*
X161798000Y-81026000D01*
X185674000Y-87884000D02*
X185674000Y-82306000D01*
X173736000Y-88900000D02*
X173746000Y-88910000D01*
X182500000Y-75520000D02*
X182708000Y-75520000D01*
X160528000Y-78724000D02*
X160528000Y-80772000D01*
D71*
X168656000Y-83566000D02*
X165883500Y-83566000D01*
D72*
X187210000Y-80022000D02*
X187210000Y-80770000D01*
X180880000Y-88910000D02*
X182800000Y-90830000D01*
X159782000Y-81026000D02*
X158536400Y-82271600D01*
X173746000Y-88910000D02*
X180880000Y-88910000D01*
X161798000Y-81026000D02*
X162560000Y-81788000D01*
%TO.N,Net-(C26-Pad1)*%
X183780000Y-120620000D02*
X187775000Y-116625000D01*
X173277500Y-120620000D02*
X183780000Y-120620000D01*
X172657500Y-121240000D02*
X173277500Y-120620000D01*
%TO.N,Net-(C26-Pad2)*%
X169660000Y-126990000D02*
X168900000Y-126990000D01*
X168900000Y-126990000D02*
X162560000Y-120650000D01*
X169660000Y-122162500D02*
X170582500Y-121240000D01*
X169660000Y-126990000D02*
X169660000Y-122162500D01*
D71*
%TO.N,Net-(C34-Pad1)*%
X116390000Y-131690000D02*
X114170000Y-131690000D01*
X109220000Y-130270000D02*
X113506000Y-130270000D01*
X113506000Y-130270000D02*
X114170000Y-130934000D01*
X114170000Y-130934000D02*
X114170000Y-131690000D01*
%TO.N,Net-(C34-Pad2)*%
X90660000Y-140190000D02*
X88160000Y-142690000D01*
X105156000Y-141986000D02*
X112095000Y-135047000D01*
X91980000Y-141510000D02*
X90660000Y-140190000D01*
X91980000Y-143190000D02*
X88160000Y-143190000D01*
X88160000Y-142690000D02*
X88160000Y-143190000D01*
X98540000Y-143190000D02*
X99744000Y-141986000D01*
X91980000Y-143190000D02*
X98540000Y-143190000D01*
X112095000Y-135047000D02*
X112095000Y-131690000D01*
X91980000Y-143190000D02*
X91980000Y-141510000D01*
X99744000Y-141986000D02*
X105156000Y-141986000D01*
%TO.N,Net-(D3-Pad2)*%
X126640000Y-134218000D02*
X123952000Y-136906000D01*
X126640000Y-127502000D02*
X126640000Y-134218000D01*
X123952000Y-136906000D02*
X111506000Y-136906000D01*
X127260000Y-126690000D02*
X127452000Y-126690000D01*
X111506000Y-136906000D02*
X104902000Y-143510000D01*
X127452000Y-126690000D02*
X126640000Y-127502000D01*
X104902000Y-143510000D02*
X103632000Y-143510000D01*
%TO.N,SCK*%
X56626000Y-102124000D02*
X56626000Y-104140000D01*
X88708000Y-88888000D02*
X88708000Y-90604000D01*
X57530000Y-94616000D02*
X57530000Y-101220000D01*
X97940000Y-78630000D02*
X97940000Y-76620000D01*
X90840000Y-76470000D02*
X90840000Y-78660000D01*
X63246000Y-88900000D02*
X57530000Y-94616000D01*
X51562000Y-103616000D02*
X52848000Y-103616000D01*
X75692000Y-88900000D02*
X63246000Y-88900000D01*
X91690000Y-75620000D02*
X90840000Y-76470000D01*
X90840000Y-78660000D02*
X88708000Y-80792000D01*
X97940000Y-76620000D02*
X96940000Y-75620000D01*
X52848000Y-103616000D02*
X54340000Y-102124000D01*
X88708000Y-88888000D02*
X87618000Y-88888000D01*
X96670000Y-79900000D02*
X97940000Y-78630000D01*
X96940000Y-75620000D02*
X91690000Y-75620000D01*
X88708000Y-80792000D02*
X88708000Y-88888000D01*
X54340000Y-102124000D02*
X56626000Y-102124000D01*
X57530000Y-101220000D02*
X56626000Y-102124000D01*
X87618000Y-88888000D02*
X87590000Y-88860000D01*
%TO.N,MOSI*%
X90720000Y-81650000D02*
X95080000Y-81650000D01*
X95080000Y-81650000D02*
X95445000Y-81285000D01*
X100280000Y-75800000D02*
X98340000Y-75800000D01*
X108130000Y-76410000D02*
X108130000Y-76770000D01*
X100280000Y-75800000D02*
X102520000Y-78040000D01*
X90958000Y-88129000D02*
X90460000Y-87631000D01*
X102520000Y-78040000D02*
X106860000Y-78040000D01*
X90460000Y-87631000D02*
X90460000Y-81910000D01*
X95445000Y-81285000D02*
X95445000Y-78585000D01*
X106860000Y-78040000D02*
X108130000Y-76770000D01*
X90958000Y-89154000D02*
X90958000Y-88129000D01*
X90460000Y-81910000D02*
X90720000Y-81650000D01*
X95445000Y-78585000D02*
X96670000Y-77360000D01*
%TO.N,TXD*%
X59830000Y-82440000D02*
X54356000Y-87914000D01*
X54356000Y-87914000D02*
X54356000Y-88392000D01*
X72220000Y-82440000D02*
X59830000Y-82440000D01*
X82210000Y-90650000D02*
X80940000Y-90650000D01*
X80940000Y-90650000D02*
X74630000Y-84340000D01*
X74120000Y-84340000D02*
X72220000Y-82440000D01*
X94958000Y-96166000D02*
X94958000Y-97654000D01*
X92304500Y-94166000D02*
X92958000Y-94166000D01*
X74630000Y-84340000D02*
X74120000Y-84340000D01*
X92958000Y-94166000D02*
X94958000Y-96166000D01*
%TO.N,RXD*%
X54365000Y-91685000D02*
X54365000Y-91694000D01*
X94158000Y-96458000D02*
X94158000Y-97654000D01*
X55626000Y-90424000D02*
X54365000Y-91685000D01*
X80200000Y-91470000D02*
X71900000Y-83170000D01*
X60340000Y-83170000D02*
X55626000Y-87884000D01*
X92520000Y-95250000D02*
X92946682Y-95250000D01*
X92946682Y-95250000D02*
X93491682Y-95795000D01*
X71900000Y-83170000D02*
X60340000Y-83170000D01*
X81420000Y-91470000D02*
X80200000Y-91470000D01*
X93491682Y-95795000D02*
X93495000Y-95795000D01*
X55626000Y-87884000D02*
X55626000Y-90424000D01*
X93495000Y-95795000D02*
X94158000Y-96458000D01*
%TO.N,TUNING*%
X95410000Y-93570000D02*
X92169000Y-90329000D01*
X114792000Y-99568000D02*
X115316000Y-100092000D01*
X91908000Y-90329000D02*
X91758000Y-90179000D01*
X113382000Y-99568000D02*
X114792000Y-99568000D01*
X91758000Y-90179000D02*
X91758000Y-89154000D01*
X106778000Y-102010000D02*
X108839000Y-99949000D01*
X95590000Y-93570000D02*
X95410000Y-93570000D01*
X98720000Y-102010000D02*
X106778000Y-102010000D01*
X95620000Y-99060000D02*
X95770000Y-99060000D01*
X95770000Y-99060000D02*
X98720000Y-102010000D01*
X92169000Y-90329000D02*
X91908000Y-90329000D01*
D72*
%TO.N,Net-(L3-Pad2)*%
X115341000Y-102117000D02*
X115316000Y-102092000D01*
X118618000Y-102117000D02*
X115341000Y-102117000D01*
D71*
%TO.N,TRANSMIT*%
X109220000Y-70866000D02*
X107401000Y-72685000D01*
X92558000Y-89154000D02*
X92558000Y-86488000D01*
X75430000Y-79880000D02*
X77010000Y-79880000D01*
X77010000Y-79880000D02*
X82690000Y-85560000D01*
X102805000Y-72685000D02*
X101210000Y-74280000D01*
X88880000Y-74280000D02*
X87285000Y-72685000D01*
X82690000Y-85560000D02*
X84230000Y-85560000D01*
X75805000Y-72685000D02*
X74230000Y-74260000D01*
X117856000Y-70866000D02*
X109220000Y-70866000D01*
X92558000Y-86488000D02*
X92370000Y-86300000D01*
X107401000Y-72685000D02*
X102805000Y-72685000D01*
X74230000Y-78680000D02*
X75430000Y-79880000D01*
X101210000Y-74280000D02*
X88880000Y-74280000D01*
X74230000Y-74260000D02*
X74230000Y-78680000D01*
X87285000Y-72685000D02*
X75805000Y-72685000D01*
%TO.N,MUTEAUDIO*%
X99308000Y-97976000D02*
X98383000Y-97051000D01*
X98233000Y-95404000D02*
X97208000Y-95404000D01*
X94488000Y-104814500D02*
X94488000Y-106188000D01*
X98383000Y-95554000D02*
X98233000Y-95404000D01*
X98383000Y-97051000D02*
X98383000Y-95554000D01*
%TO.N,BEEPOUT*%
X92240000Y-104910000D02*
X92330000Y-104820000D01*
X97784000Y-97722000D02*
X97208000Y-97146000D01*
X92240000Y-106140000D02*
X92240000Y-104910000D01*
X97208000Y-97146000D02*
X97208000Y-96204000D01*
%TO.N,Net-(RV1-Pad2)*%
X105495000Y-135509000D02*
X104775000Y-135509000D01*
X85660000Y-140190000D02*
X85660000Y-143190000D01*
X86868000Y-137922000D02*
X85660000Y-139130000D01*
X93726000Y-139192000D02*
X92456000Y-137922000D01*
X93726000Y-141732000D02*
X93726000Y-139192000D01*
X97790000Y-142494000D02*
X94488000Y-142494000D01*
X94488000Y-142494000D02*
X93726000Y-141732000D01*
X92456000Y-137922000D02*
X86868000Y-137922000D01*
X85660000Y-139130000D02*
X85660000Y-140190000D01*
X104775000Y-135509000D02*
X97790000Y-142494000D01*
%TO.N,AUDIO*%
X113815000Y-126845000D02*
X113540000Y-127120000D01*
X113965000Y-121155000D02*
X113910000Y-121100000D01*
X113540000Y-126748000D02*
X111760000Y-124968000D01*
X117348000Y-123222000D02*
X117348000Y-121177000D01*
X117402500Y-121187500D02*
X117370000Y-121155000D01*
X113815000Y-121195000D02*
X113815000Y-126845000D01*
X113910000Y-121100000D02*
X113815000Y-121195000D01*
X117348000Y-121177000D02*
X117370000Y-121155000D01*
X120740000Y-121187500D02*
X117402500Y-121187500D01*
X121312500Y-120615000D02*
X120740000Y-121187500D01*
X117370000Y-121155000D02*
X113965000Y-121155000D01*
X111760000Y-124968000D02*
X111760000Y-113030000D01*
X123575000Y-120615000D02*
X121312500Y-120615000D01*
X111760000Y-113030000D02*
X110744000Y-112014000D01*
X113540000Y-127120000D02*
X113540000Y-126748000D01*
%TO.N,Net-(C9-Pad2)*%
X102724000Y-90604000D02*
X103050000Y-90930000D01*
X97208000Y-90604000D02*
X102724000Y-90604000D01*
X103050000Y-90930000D02*
X103050000Y-89228000D01*
X103050000Y-89228000D02*
X104140000Y-88138000D01*
D72*
%TO.N,Net-(C12-Pad1)*%
X122158000Y-97028000D02*
X119655500Y-97028000D01*
X118618000Y-98065500D02*
X119126000Y-97557500D01*
X122428000Y-96758000D02*
X122158000Y-97028000D01*
X115591500Y-97557500D02*
X115570000Y-97536000D01*
X118618000Y-100067000D02*
X118618000Y-98065500D01*
X119126000Y-97557500D02*
X115591500Y-97557500D01*
X119655500Y-97028000D02*
X119126000Y-97557500D01*
%TO.N,Net-(D11-Pad1)*%
X166116000Y-106644000D02*
X166116000Y-104647997D01*
X157330000Y-109420000D02*
X163340000Y-109420000D01*
X163340000Y-109420000D02*
X166116000Y-106644000D01*
X156292000Y-105448000D02*
X156292000Y-105964000D01*
X156292000Y-105964000D02*
X154178000Y-108078000D01*
X154178000Y-108078000D02*
X155988000Y-108078000D01*
X155988000Y-108078000D02*
X157330000Y-109420000D01*
D71*
%TO.N,AUDIOFILT*%
X107893000Y-107163000D02*
X110744000Y-110014000D01*
X90260000Y-104690000D02*
X90640000Y-105070000D01*
X109190000Y-111568000D02*
X110744000Y-110014000D01*
X83108000Y-96520000D02*
X83337000Y-96749000D01*
X84624000Y-104690000D02*
X90260000Y-104690000D01*
X84624000Y-104690000D02*
X83337000Y-103403000D01*
X91579117Y-107163000D02*
X107893000Y-107163000D01*
X83337000Y-96749000D02*
X84682000Y-95404000D01*
X90640000Y-105070000D02*
X90640000Y-106223883D01*
X84682000Y-95404000D02*
X88708000Y-95404000D01*
X80285500Y-96520000D02*
X83108000Y-96520000D01*
X90640000Y-106223883D02*
X91579117Y-107163000D01*
X109190000Y-114970000D02*
X109190000Y-111568000D01*
X83337000Y-103403000D02*
X83337000Y-96749000D01*
D72*
%TO.N,Net-(C10-Pad2)*%
X95250000Y-112600000D02*
X95250000Y-113350000D01*
X97282000Y-109220000D02*
X97282000Y-108424000D01*
X77874000Y-129540000D02*
X76858000Y-128524000D01*
X78952000Y-124460000D02*
X76858000Y-126554000D01*
X89662000Y-123063000D02*
X88265000Y-124460000D01*
X92776000Y-115824000D02*
X91440000Y-115824000D01*
X91440000Y-115824000D02*
X89662000Y-117602000D01*
X95250000Y-113350000D02*
X92776000Y-115824000D01*
X89662000Y-117602000D02*
X89662000Y-123063000D01*
X80026000Y-125984000D02*
X80026000Y-129502500D01*
X97282000Y-108424000D02*
X97536000Y-108170000D01*
X76858000Y-126554000D02*
X76858000Y-128524000D01*
X80026000Y-129502500D02*
X79988500Y-129540000D01*
X88265000Y-124460000D02*
X78952000Y-124460000D01*
X76858000Y-128524000D02*
X70358000Y-128524000D01*
X79988500Y-129540000D02*
X77874000Y-129540000D01*
D71*
%TO.N,Net-(C17-Pad2)*%
X84598000Y-121666000D02*
X84598000Y-122190000D01*
X75184000Y-118110000D02*
X81684000Y-118110000D01*
X92502750Y-114808000D02*
X93390500Y-113920250D01*
X105664000Y-109220000D02*
X105664000Y-108658000D01*
X85852000Y-123444000D02*
X87376000Y-123444000D01*
X84560500Y-121628500D02*
X84598000Y-121666000D01*
X88646000Y-122174000D02*
X88646000Y-117348000D01*
X84560500Y-119380000D02*
X84560500Y-121628500D01*
X87376000Y-123444000D02*
X88646000Y-122174000D01*
X84560500Y-119380000D02*
X82954000Y-119380000D01*
X82954000Y-119380000D02*
X81684000Y-118110000D01*
X88646000Y-117348000D02*
X91186000Y-114808000D01*
X91186000Y-114808000D02*
X92502750Y-114808000D01*
X105664000Y-108658000D02*
X106172000Y-108150000D01*
X84598000Y-122190000D02*
X85852000Y-123444000D01*
%TO.N,MISO*%
X90158000Y-89154000D02*
X89420000Y-88416000D01*
X102470000Y-71280000D02*
X105130000Y-71280000D01*
X105130000Y-71280000D02*
X110116000Y-66294000D01*
X94100000Y-79930000D02*
X94130000Y-79900000D01*
X113046000Y-66294000D02*
X115078000Y-68326000D01*
X90740000Y-79930000D02*
X94100000Y-79930000D01*
X101330000Y-70140000D02*
X102470000Y-71280000D01*
X110116000Y-66294000D02*
X113046000Y-66294000D01*
X92090000Y-73590000D02*
X92090000Y-70380000D01*
X99075000Y-66075000D02*
X101330000Y-68330000D01*
X101330000Y-68330000D02*
X101330000Y-70140000D01*
X97670000Y-67480000D02*
X99075000Y-66075000D01*
X89420000Y-88416000D02*
X89420000Y-81250000D01*
X92090000Y-70380000D02*
X94990000Y-67480000D01*
X89420000Y-81250000D02*
X90740000Y-79930000D01*
X94990000Y-67480000D02*
X97670000Y-67480000D01*
%TO.N,Net-(DS1-Pad15)*%
X85852000Y-73660000D02*
X85852000Y-76708000D01*
%TO.N,DB5*%
X102108000Y-104814500D02*
X100734500Y-106188000D01*
X85320000Y-83770000D02*
X83970000Y-83770000D01*
X94958000Y-84962000D02*
X94958000Y-89154000D01*
X95290000Y-84630000D02*
X94958000Y-84962000D01*
X95310000Y-84610000D02*
X106050000Y-84610000D01*
X107950000Y-86510000D02*
X106050000Y-84610000D01*
X100734500Y-106188000D02*
X100584000Y-106188000D01*
X83970000Y-83770000D02*
X78020000Y-77820000D01*
X78020000Y-77820000D02*
X78020000Y-77302500D01*
X95290000Y-84630000D02*
X95310000Y-84610000D01*
X107950000Y-96774000D02*
X107950000Y-86510000D01*
X104140000Y-100584000D02*
X107950000Y-96774000D01*
%TO.N,DB4*%
X96000000Y-85390000D02*
X95758000Y-85632000D01*
X95758000Y-85632000D02*
X95758000Y-89154000D01*
X107050000Y-96150000D02*
X102108000Y-101092000D01*
X102108000Y-101092000D02*
X100076000Y-101092000D01*
X84680000Y-84570000D02*
X83080000Y-84570000D01*
X76080000Y-79240000D02*
X75480000Y-78640000D01*
X99568000Y-104814500D02*
X98212500Y-106170000D01*
X77750000Y-79240000D02*
X76080000Y-79240000D01*
X96000000Y-85390000D02*
X96080000Y-85310000D01*
X98212500Y-106170000D02*
X97536000Y-106170000D01*
X100076000Y-101092000D02*
X100070750Y-101086750D01*
X75480000Y-78640000D02*
X75480000Y-77302500D01*
X105820000Y-85310000D02*
X107008000Y-86498000D01*
X107008000Y-96108000D02*
X107050000Y-96150000D01*
X96080000Y-85310000D02*
X105820000Y-85310000D01*
X83080000Y-84570000D02*
X77750000Y-79240000D01*
X107008000Y-86498000D02*
X107008000Y-96108000D01*
%TO.N,DB7*%
X106680000Y-105410000D02*
X106172000Y-105918000D01*
X107200000Y-83040000D02*
X109500000Y-85340000D01*
X92740000Y-84280000D02*
X93358000Y-84898000D01*
X106680000Y-104814500D02*
X106680000Y-105410000D01*
X109500000Y-85340000D02*
X109500000Y-98018000D01*
X92970000Y-83080000D02*
X93010000Y-83040000D01*
X83100000Y-79230000D02*
X83100000Y-77302500D01*
X93010000Y-83040000D02*
X107200000Y-83040000D01*
X109500000Y-98018000D02*
X106807000Y-100711000D01*
X93358000Y-84898000D02*
X93358000Y-89154000D01*
X85590000Y-81720000D02*
X83100000Y-79230000D01*
X92970000Y-83080000D02*
X92740000Y-83310000D01*
X92740000Y-83310000D02*
X92740000Y-84280000D01*
X106807000Y-100711000D02*
X106553000Y-100711000D01*
X106172000Y-105918000D02*
X106172000Y-106150000D01*
%TO.N,DB6*%
X80560000Y-78990000D02*
X80560000Y-77302500D01*
X106520000Y-83880000D02*
X108712000Y-86072000D01*
X94158000Y-89154000D02*
X94158000Y-84158000D01*
X93960000Y-83880000D02*
X106520000Y-83880000D01*
X80772000Y-78442000D02*
X80772000Y-76708000D01*
X84440000Y-82870000D02*
X80560000Y-78990000D01*
X85470000Y-82870000D02*
X84440000Y-82870000D01*
X108712000Y-86072000D02*
X108712000Y-97282000D01*
X108712000Y-97282000D02*
X105410000Y-100584000D01*
X93920000Y-83920000D02*
X94158000Y-84158000D01*
X93920000Y-83920000D02*
X93960000Y-83880000D01*
X104648000Y-104814500D02*
X103632000Y-105830500D01*
X103632000Y-105830500D02*
X103632000Y-106188000D01*
%TO.N,Net-(DS1-Pad3)*%
X56910000Y-91200000D02*
X56642000Y-90932000D01*
X54594182Y-101092000D02*
X55943500Y-101092000D01*
X53070182Y-102616000D02*
X54594182Y-101092000D01*
X44345000Y-96415000D02*
X50546000Y-102616000D01*
X55943500Y-101092000D02*
X56910000Y-100125500D01*
X43020000Y-96415000D02*
X44345000Y-96415000D01*
X56910000Y-100125500D02*
X56910000Y-91200000D01*
X56642000Y-81534000D02*
X55880000Y-80772000D01*
X50546000Y-102616000D02*
X53070182Y-102616000D01*
X56642000Y-84328000D02*
X56642000Y-81534000D01*
%TO.N,RS*%
X82830000Y-88240000D02*
X81240000Y-88240000D01*
X91227500Y-92287960D02*
X90958000Y-92557460D01*
X74370000Y-82300000D02*
X72870000Y-80800000D01*
X81240000Y-88240000D02*
X75300000Y-82300000D01*
X88990000Y-103690000D02*
X89240000Y-103690000D01*
X90958000Y-92557460D02*
X90958000Y-97654000D01*
X72870000Y-80800000D02*
X58430000Y-80800000D01*
X90958000Y-101972000D02*
X90958000Y-97654000D01*
X75300000Y-82300000D02*
X74370000Y-82300000D01*
X58430000Y-80800000D02*
X57890000Y-81340000D01*
X89240000Y-103690000D02*
X90958000Y-101972000D01*
%TO.N,E*%
X74350000Y-83330000D02*
X74980000Y-83330000D01*
X72630000Y-81610000D02*
X74350000Y-83330000D01*
X90132000Y-97628000D02*
X90132000Y-92166000D01*
X81320000Y-89670000D02*
X82460000Y-89670000D01*
X74980000Y-83330000D02*
X81320000Y-89670000D01*
X90158000Y-97654000D02*
X90132000Y-97628000D01*
X63500000Y-81610000D02*
X72630000Y-81610000D01*
%TO.N,Net-(C16-Pad2)*%
X88392000Y-111506000D02*
X88392000Y-113030000D01*
D72*
X92470000Y-112750000D02*
X92470000Y-113524000D01*
X93680000Y-111540000D02*
X92470000Y-112750000D01*
D71*
X89408000Y-114046000D02*
X91948000Y-114046000D01*
X88392000Y-113030000D02*
X89408000Y-114046000D01*
X74064000Y-115824000D02*
X84539000Y-115824000D01*
D72*
X103140000Y-108188000D02*
X103632000Y-108188000D01*
D71*
X84598000Y-112268000D02*
X84598000Y-111998000D01*
D72*
X99822000Y-112522000D02*
X98840000Y-111540000D01*
D71*
X85598000Y-110998000D02*
X87884000Y-110998000D01*
X84539000Y-115824000D02*
X84539000Y-112327000D01*
D72*
X102362000Y-108966000D02*
X103140000Y-108188000D01*
D71*
X71778000Y-118110000D02*
X74064000Y-115824000D01*
X87884000Y-110998000D02*
X88392000Y-111506000D01*
X71778000Y-118110000D02*
X65278000Y-118110000D01*
X91948000Y-114046000D02*
X92470000Y-113524000D01*
X84539000Y-112327000D02*
X84598000Y-112268000D01*
X84598000Y-111998000D02*
X85598000Y-110998000D01*
D72*
X98840000Y-111540000D02*
X93680000Y-111540000D01*
D71*
%TO.N,Net-(J9-Pad2)*%
X101650000Y-78600000D02*
X100140000Y-78600000D01*
X105535000Y-80810000D02*
X103860000Y-80810000D01*
X101650000Y-78600000D02*
X103860000Y-80810000D01*
%TO.N,Net-(C45-Pad2)*%
X113910000Y-117390000D02*
X114610000Y-116690000D01*
X112790000Y-123430000D02*
X112790000Y-120220000D01*
X118290000Y-114820000D02*
X116010000Y-114820000D01*
X113910000Y-119100000D02*
X113910000Y-117390000D01*
X114610000Y-116220000D02*
X114610000Y-116690000D01*
X119070000Y-115600000D02*
X118290000Y-114820000D01*
X119070000Y-116530000D02*
X119070000Y-115600000D01*
X112790000Y-120220000D02*
X113910000Y-119100000D01*
X116010000Y-114820000D02*
X114610000Y-116220000D01*
%TO.N,SDA*%
X91758000Y-101968000D02*
X91758000Y-97654000D01*
X112014000Y-100838000D02*
X112014000Y-77724000D01*
D73*
X138496000Y-79756000D02*
X139700000Y-80960000D01*
D71*
X108712000Y-104140000D02*
X112014000Y-100838000D01*
D73*
X131220000Y-76180000D02*
X131220000Y-78076000D01*
X131220000Y-78076000D02*
X131220000Y-78330000D01*
X115480000Y-80010000D02*
X129830000Y-80010000D01*
D71*
X93930000Y-104140000D02*
X91758000Y-101968000D01*
D73*
X131220000Y-78330000D02*
X132646000Y-79756000D01*
X112650000Y-77180000D02*
X115480000Y-80010000D01*
D71*
X112558000Y-77180000D02*
X112650000Y-77180000D01*
X93930000Y-104140000D02*
X108712000Y-104140000D01*
D73*
X131220000Y-78620000D02*
X129830000Y-80010000D01*
X132646000Y-79756000D02*
X138496000Y-79756000D01*
D71*
X112014000Y-77724000D02*
X112558000Y-77180000D01*
D73*
X131220000Y-78076000D02*
X131220000Y-78620000D01*
%TO.N,SCL*%
X131220000Y-75680000D02*
X131214000Y-75674000D01*
D71*
X108458000Y-103378000D02*
X111252000Y-100584000D01*
X94828000Y-103378000D02*
X92558000Y-101108000D01*
D73*
X134808000Y-78420000D02*
X139700000Y-78420000D01*
D71*
X111252000Y-100584000D02*
X111252000Y-76708000D01*
D73*
X131214000Y-75674000D02*
X130066000Y-75674000D01*
X115140000Y-77200000D02*
X115062000Y-77200000D01*
D71*
X111760000Y-76200000D02*
X114062000Y-76200000D01*
X94828000Y-103378000D02*
X108458000Y-103378000D01*
D73*
X117442000Y-79502000D02*
X115140000Y-77200000D01*
X130066000Y-75674000D02*
X129540000Y-76200000D01*
X129540000Y-78486000D02*
X128524000Y-79502000D01*
X129540000Y-76200000D02*
X129540000Y-78486000D01*
D71*
X114062000Y-76200000D02*
X115062000Y-77200000D01*
D73*
X128524000Y-79502000D02*
X117442000Y-79502000D01*
X132068000Y-75680000D02*
X134808000Y-78420000D01*
D71*
X92558000Y-101108000D02*
X92558000Y-97654000D01*
D73*
X131220000Y-75680000D02*
X132068000Y-75680000D01*
D71*
X111252000Y-76708000D02*
X111760000Y-76200000D01*
D72*
%TO.N,Net-(C23-Pad1)*%
X163046500Y-84328000D02*
X163068000Y-84349500D01*
X163068000Y-87614000D02*
X163084000Y-87630000D01*
X163068000Y-84349500D02*
X163068000Y-87614000D01*
D73*
%TO.N,Net-(C47-Pad2)*%
X131220000Y-74180000D02*
X128011500Y-70971500D01*
X135620000Y-75680000D02*
X133690000Y-75680000D01*
X127884000Y-70971500D02*
X127842500Y-70930000D01*
X128011500Y-70971500D02*
X127884000Y-70971500D01*
X132930000Y-74180000D02*
X131220000Y-74180000D01*
X133690000Y-75680000D02*
X132930000Y-74920000D01*
D72*
X127600500Y-70688000D02*
X127842500Y-70930000D01*
D73*
X132930000Y-71053000D02*
X133053000Y-70930000D01*
X132930000Y-74180000D02*
X132930000Y-71053000D01*
X132930000Y-74920000D02*
X132930000Y-74180000D01*
D72*
X112650000Y-75180000D02*
X112730000Y-75100000D01*
X122098000Y-70688000D02*
X124768000Y-70688000D01*
X124768000Y-70688000D02*
X127600500Y-70688000D01*
X117686000Y-75100000D02*
X122098000Y-70688000D01*
X112730000Y-75100000D02*
X117686000Y-75100000D01*
%TO.N,Net-(D10-Pad1)*%
X124768000Y-67388000D02*
X122164000Y-67388000D01*
X122164000Y-67388000D02*
X121958000Y-67182000D01*
D73*
%TO.N,Net-(U6-Pad2)*%
X125476000Y-72390000D02*
X124834000Y-73032000D01*
X131220000Y-74680000D02*
X130052000Y-74680000D01*
X124834000Y-73032000D02*
X124834000Y-74496000D01*
X128778000Y-72898000D02*
X128270000Y-72390000D01*
X128778000Y-73406000D02*
X128778000Y-72898000D01*
X128270000Y-72390000D02*
X125476000Y-72390000D01*
X130052000Y-74680000D02*
X128778000Y-73406000D01*
D72*
%TO.N,Net-(C27-Pad1)*%
X151849000Y-114808000D02*
X149352000Y-114808000D01*
%TO.N,Net-(C30-Pad2)*%
X144070000Y-98002500D02*
X147437500Y-98002500D01*
X147437500Y-98002500D02*
X147940000Y-97500000D01*
%TO.N,Net-(D11-Pad2)*%
X155560000Y-100040000D02*
X157020000Y-100040000D01*
X159592000Y-102612000D02*
X159592000Y-105448000D01*
X157020000Y-100040000D02*
X159592000Y-102612000D01*
X161852000Y-107708000D02*
X159592000Y-105448000D01*
X161852000Y-108124000D02*
X161852000Y-107708000D01*
%TO.N,Net-(D12-Pad1)*%
X167410000Y-113560000D02*
X167410000Y-113513997D01*
X159992000Y-113284000D02*
X161852000Y-111424000D01*
X159766000Y-113284000D02*
X159992000Y-113284000D01*
X167410000Y-113513997D02*
X168656000Y-112267997D01*
X161852000Y-111424000D02*
X161852000Y-112202000D01*
X163490000Y-113840000D02*
X167130000Y-113840000D01*
X167130000Y-113840000D02*
X167410000Y-113560000D01*
X161852000Y-112202000D02*
X163490000Y-113840000D01*
%TO.N,Net-(D12-Pad2)*%
X154560000Y-111378000D02*
X156466000Y-113284000D01*
X149060000Y-105990000D02*
X154178000Y-111108000D01*
X149060000Y-103700000D02*
X149060000Y-105990000D01*
X154178000Y-111378000D02*
X154560000Y-111378000D01*
X147940000Y-102580000D02*
X149060000Y-103700000D01*
X154178000Y-111108000D02*
X154178000Y-111378000D01*
%TO.N,Net-(R25-Pad2)*%
X174768000Y-108695997D02*
X171196000Y-112267997D01*
X174768000Y-106426000D02*
X174768000Y-108695997D01*
%TO.N,Net-(C30-Pad1)*%
X142230000Y-99700000D02*
X142660000Y-100130000D01*
X142230000Y-94480000D02*
X142230000Y-99700000D01*
X142660000Y-100130000D02*
X144017500Y-100130000D01*
X141990000Y-94240000D02*
X142230000Y-94480000D01*
X144017500Y-100130000D02*
X144070000Y-100077500D01*
%TO.N,Net-(D15-Pad2)*%
X174254000Y-61976000D02*
X175630000Y-60600000D01*
X171466000Y-68519000D02*
X171151000Y-68834000D01*
X171466000Y-65024000D02*
X171466000Y-62976000D01*
X171466000Y-62976000D02*
X172466000Y-61976000D01*
X171466000Y-65024000D02*
X171466000Y-68519000D01*
X172466000Y-61976000D02*
X174254000Y-61976000D01*
D71*
%TO.N,Net-(L9-Pad2)*%
X127000000Y-69088000D02*
X128524000Y-67564000D01*
X119906000Y-70594000D02*
X121412000Y-69088000D01*
X121412000Y-69088000D02*
X127000000Y-69088000D01*
X140224000Y-67564000D02*
X142710000Y-70050000D01*
X128524000Y-67564000D02*
X140224000Y-67564000D01*
X119906000Y-70866000D02*
X119906000Y-70594000D01*
%TO.N,Net-(C40-Pad1)*%
X141376000Y-108204000D02*
X142020000Y-107560000D01*
X122690000Y-118075000D02*
X121145000Y-116530000D01*
X126240000Y-111620000D02*
X129400000Y-111620000D01*
X125190000Y-114260000D02*
X125190000Y-112670000D01*
X125190000Y-112670000D02*
X126240000Y-111620000D01*
X129440000Y-113490000D02*
X129440000Y-111620000D01*
X129440000Y-111620000D02*
X133290000Y-111620000D01*
X131550000Y-115600000D02*
X129510000Y-113560000D01*
X129400000Y-111620000D02*
X129400000Y-109868000D01*
X125190000Y-116460000D02*
X123575000Y-118075000D01*
X133290000Y-111620000D02*
X134460000Y-112790000D01*
X129510000Y-113560000D02*
X129440000Y-113490000D01*
X129400000Y-111620000D02*
X129440000Y-111620000D01*
X132140000Y-115600000D02*
X131550000Y-115600000D01*
X134460000Y-116190000D02*
X132280000Y-118370000D01*
X134460000Y-112790000D02*
X134460000Y-116190000D01*
X132280000Y-118370000D02*
X131180000Y-118370000D01*
X129400000Y-109868000D02*
X131064000Y-108204000D01*
X125190000Y-114260000D02*
X125190000Y-116460000D01*
X123575000Y-118075000D02*
X122690000Y-118075000D01*
X131064000Y-108204000D02*
X141376000Y-108204000D01*
D72*
%TO.N,Net-(J12-Pad1)*%
X181620000Y-134764000D02*
X184673000Y-131711000D01*
X173430000Y-126910000D02*
X179430000Y-126910000D01*
X181620000Y-139700000D02*
X181620000Y-134764000D01*
X184673000Y-131711000D02*
X184231000Y-131711000D01*
X179430000Y-126910000D02*
X181945000Y-129425000D01*
X184231000Y-131711000D02*
X181945000Y-129425000D01*
%TO.N,Net-(D16-Pad2)*%
X177873500Y-136906000D02*
X177873500Y-134146500D01*
X177873500Y-134146500D02*
X178800000Y-133220000D01*
%TO.N,Net-(D16-Pad1)*%
X176750000Y-133220000D02*
X174690000Y-133220000D01*
X174690000Y-133220000D02*
X174660000Y-133250000D01*
%TO.N,Net-(Q9-Pad2)*%
X161036000Y-96028000D02*
X161036000Y-96012000D01*
X162290000Y-89138000D02*
X165100000Y-91948000D01*
X159766000Y-89138000D02*
X157676600Y-89138000D01*
X157676600Y-89138000D02*
X157667200Y-89128600D01*
X159766000Y-89138000D02*
X162290000Y-89138000D01*
X161036000Y-96012000D02*
X165100000Y-91948000D01*
%TO.N,Net-(Q9-Pad1)*%
X167640000Y-94488000D02*
X163830000Y-98298000D01*
X165862000Y-90170000D02*
X165862000Y-88408000D01*
X167640000Y-91948000D02*
X165862000Y-90170000D01*
X167640000Y-91948000D02*
X167640000Y-94488000D01*
X165862000Y-88408000D02*
X165084000Y-87630000D01*
X163830000Y-98298000D02*
X163830000Y-98552000D01*
%TO.N,Net-(C48-Pad1)*%
X125730000Y-89716000D02*
X119888000Y-89716000D01*
X119888000Y-89716000D02*
X114046000Y-89716000D01*
X125730000Y-94720500D02*
X125730000Y-89716000D01*
%TO.N,Net-(C48-Pad2)*%
X126259500Y-96795500D02*
X127762000Y-98298000D01*
X123692500Y-94758000D02*
X125730000Y-96795500D01*
X125730000Y-96795500D02*
X126259500Y-96795500D01*
X127762000Y-98298000D02*
X127762000Y-99862000D01*
X122428000Y-94758000D02*
X123692500Y-94758000D01*
X124166000Y-100076000D02*
X123952000Y-99862000D01*
X127762000Y-99862000D02*
X127548000Y-100076000D01*
X127548000Y-100076000D02*
X124166000Y-100076000D01*
%TO.N,XOSC*%
X151670000Y-83070000D02*
X148910000Y-83070000D01*
X148910000Y-83070000D02*
X148580000Y-83400000D01*
%TO.N,IF*%
X158390000Y-115168000D02*
X155448000Y-118110000D01*
X158390000Y-113898000D02*
X158390000Y-115168000D01*
X158390000Y-113898000D02*
X157226000Y-115062000D01*
X154178000Y-115062000D02*
X153924000Y-114808000D01*
X157226000Y-115062000D02*
X154178000Y-115062000D01*
X166325000Y-110475000D02*
X160425000Y-110475000D01*
X151393000Y-118609000D02*
X150876000Y-118609000D01*
X168656000Y-108144000D02*
X168656000Y-104647997D01*
X158390000Y-112510000D02*
X158390000Y-113898000D01*
X166116000Y-112267997D02*
X166116000Y-110684000D01*
X166116000Y-110684000D02*
X166325000Y-110475000D01*
X160425000Y-110475000D02*
X158390000Y-112510000D01*
X151892000Y-118110000D02*
X151393000Y-118609000D01*
X166325000Y-110475000D02*
X168656000Y-108144000D01*
X155448000Y-118110000D02*
X151892000Y-118110000D01*
%TO.N,Net-(C43-Pad1)*%
X150876000Y-120659000D02*
X149890500Y-120659000D01*
X149890500Y-120659000D02*
X147849500Y-118618000D01*
X150876000Y-120659000D02*
X150876000Y-122914500D01*
%TO.N,Net-(C50-Pad1)*%
X138430000Y-120380000D02*
X138430000Y-120650000D01*
X142923500Y-121093500D02*
X142923500Y-122396500D01*
X138430000Y-120650000D02*
X139446000Y-121666000D01*
X139446000Y-121666000D02*
X142748000Y-121666000D01*
X142923500Y-120330000D02*
X142923500Y-121093500D01*
X142748000Y-121666000D02*
X142923500Y-121490500D01*
X142923500Y-121093500D02*
X142923500Y-121490500D01*
D71*
X141430000Y-127470000D02*
X141430000Y-123890000D01*
X141430000Y-123890000D02*
X141450000Y-123870000D01*
D72*
X142923500Y-122396500D02*
X141450000Y-123870000D01*
%TO.N,Net-(C51-Pad1)*%
X154380000Y-90811600D02*
X155651200Y-92082800D01*
X155651200Y-92082800D02*
X154872200Y-92082800D01*
X151670000Y-80530000D02*
X152990000Y-80530000D01*
X152990000Y-80530000D02*
X154380000Y-81920000D01*
X154872200Y-92082800D02*
X152750000Y-94205000D01*
X154380000Y-81920000D02*
X154380000Y-90811600D01*
%TO.N,Net-(C51-Pad2)*%
X152750000Y-92130000D02*
X152750000Y-89640000D01*
D71*
%TO.N,Net-(C52-Pad1)*%
X134927500Y-110800000D02*
X134187500Y-110060000D01*
X136240000Y-115013500D02*
X136464000Y-115237500D01*
X136240000Y-110800000D02*
X134927500Y-110800000D01*
X136240000Y-110800000D02*
X136240000Y-115013500D01*
D72*
%TO.N,Net-(C54-Pad1)*%
X141048500Y-119380000D02*
X141048500Y-116729500D01*
D71*
X135987500Y-119330000D02*
X136037500Y-119380000D01*
D72*
X141048500Y-116729500D02*
X143224000Y-114554000D01*
D71*
X136037500Y-119380000D02*
X141048500Y-119380000D01*
%TO.N,Net-(C54-Pad2)*%
X128825000Y-119345000D02*
X127715000Y-119345000D01*
X133862500Y-119380000D02*
X128860000Y-119380000D01*
X127170000Y-118800000D02*
X127170000Y-114280000D01*
X127715000Y-119345000D02*
X127170000Y-118800000D01*
X128860000Y-119380000D02*
X128825000Y-119345000D01*
X127170000Y-114280000D02*
X127190000Y-114260000D01*
X133912500Y-119330000D02*
X133862500Y-119380000D01*
D72*
%TO.N,Net-(C56-Pad1)*%
X156900000Y-93250000D02*
X155992200Y-94157800D01*
X155992200Y-94157800D02*
X155651200Y-94157800D01*
X156900000Y-91370000D02*
X156900000Y-93250000D01*
X155667200Y-89128600D02*
X155667200Y-90137200D01*
X155667200Y-90137200D02*
X156900000Y-91370000D01*
%TO.N,TXRELAY*%
X189620000Y-74930000D02*
X189620000Y-97000000D01*
X181890000Y-66040000D02*
X181890000Y-67200000D01*
X180700000Y-64850000D02*
X181890000Y-66040000D01*
X189620000Y-97000000D02*
X187775000Y-98845000D01*
X181890000Y-67200000D02*
X189620000Y-74930000D01*
X178447500Y-64850000D02*
X180700000Y-64850000D01*
%TO.N,Net-(D15-Pad1)*%
X172330000Y-60600000D02*
X169910000Y-60600000D01*
%TO.N,Net-(D18-Pad1)*%
X167910000Y-60600000D02*
X165680000Y-60600000D01*
X153670000Y-65532000D02*
X153670000Y-62484000D01*
X151130000Y-71500000D02*
X152020000Y-72390000D01*
X151130000Y-68032500D02*
X151169500Y-68032500D01*
X165680000Y-60600000D02*
X165640000Y-60640000D01*
X151169500Y-68032500D02*
X153670000Y-65532000D01*
X154178000Y-61976000D02*
X164304000Y-61976000D01*
X151130000Y-68032500D02*
X151130000Y-71500000D01*
X153670000Y-62484000D02*
X154178000Y-61976000D01*
X164304000Y-61976000D02*
X165640000Y-60640000D01*
%TO.N,Net-(D18-Pad2)*%
X155194000Y-70002400D02*
X155194000Y-72264000D01*
X155194000Y-72264000D02*
X155320000Y-72390000D01*
%TO.N,PLLOSC*%
X148580000Y-76150000D02*
X148580000Y-77600000D01*
X148580000Y-79700000D02*
X148570000Y-79710000D01*
X151670000Y-77990000D02*
X148970000Y-77990000D01*
X148580000Y-77600000D02*
X148580000Y-79700000D01*
X148970000Y-77990000D02*
X148580000Y-77600000D01*
%TO.N,Net-(JP7-Pad2)*%
X182290000Y-117890000D02*
X182290000Y-113660000D01*
X180950000Y-119230000D02*
X182290000Y-117890000D01*
X174020000Y-118280000D02*
X174970000Y-119230000D01*
X174020000Y-116780000D02*
X174020000Y-118280000D01*
X182290000Y-113660000D02*
X180175000Y-111545000D01*
X174970000Y-119230000D02*
X180950000Y-119230000D01*
%TO.N,AMPOUT*%
X173990000Y-72644000D02*
X183642000Y-72644000D01*
X188290000Y-83310000D02*
X188730000Y-82870000D01*
X167386000Y-87586000D02*
X170480000Y-90680000D01*
X172510000Y-92710000D02*
X176530000Y-92710000D01*
X185166000Y-97044000D02*
X186880000Y-95330000D01*
X187210000Y-83310000D02*
X188290000Y-83310000D01*
X176530000Y-92710000D02*
X178380000Y-92710000D01*
X167386000Y-82566000D02*
X166751000Y-81931000D01*
X185166000Y-103856000D02*
X185166000Y-97044000D01*
X175430000Y-75630000D02*
X175430000Y-74084000D01*
X166751000Y-81931000D02*
X166751000Y-77724000D01*
X185040000Y-74042000D02*
X185040000Y-75520000D01*
X188730000Y-79210000D02*
X185040000Y-75520000D01*
X166751000Y-75819000D02*
X169926000Y-72644000D01*
X169926000Y-72644000D02*
X173990000Y-72644000D01*
X167386000Y-84566000D02*
X167386000Y-87586000D01*
X175430000Y-74084000D02*
X173990000Y-72644000D01*
X170480000Y-90680000D02*
X172510000Y-92710000D01*
X166751000Y-77724000D02*
X166751000Y-75819000D01*
X186880000Y-95330000D02*
X186880000Y-89472000D01*
X187775000Y-106465000D02*
X185166000Y-103856000D01*
X184760000Y-95330000D02*
X186880000Y-95330000D01*
X178380000Y-92710000D02*
X180260000Y-90830000D01*
X176551500Y-92731500D02*
X176530000Y-92710000D01*
X188730000Y-82870000D02*
X188730000Y-79210000D01*
X183642000Y-72644000D02*
X185040000Y-74042000D01*
X186880000Y-89472000D02*
X188730000Y-87622000D01*
X180260000Y-90830000D02*
X184760000Y-95330000D01*
X188730000Y-87622000D02*
X188730000Y-82870000D01*
X176551500Y-95250000D02*
X176551500Y-92731500D01*
%TO.N,RF*%
X180175000Y-106465000D02*
X176807000Y-106465000D01*
X176807000Y-106465000D02*
X176768000Y-106426000D01*
D71*
%TO.N,Net-(R63-Pad1)*%
X123140000Y-142840000D02*
X119160000Y-142840000D01*
X131180000Y-120370000D02*
X130025000Y-121525000D01*
X124300000Y-139120000D02*
X123580000Y-139840000D01*
X130025000Y-121525000D02*
X130025000Y-133395000D01*
X116660000Y-139840000D02*
X116660000Y-142840000D01*
X124300000Y-139120000D02*
X124300000Y-141680000D01*
X130935000Y-120615000D02*
X131180000Y-120370000D01*
X121660000Y-139840000D02*
X119160000Y-142340000D01*
X119160000Y-142840000D02*
X116660000Y-142840000D01*
X123580000Y-139840000D02*
X121660000Y-139840000D01*
X116660000Y-139840000D02*
X121660000Y-139840000D01*
X128825000Y-120615000D02*
X130935000Y-120615000D01*
X124300000Y-141680000D02*
X123140000Y-142840000D01*
X130025000Y-133395000D02*
X124300000Y-139120000D01*
X119160000Y-142340000D02*
X119160000Y-142840000D01*
%TO.N,PS2CLK*%
X95758000Y-97982000D02*
X96768000Y-98992000D01*
X110490000Y-73880000D02*
X110490000Y-99822000D01*
X101848000Y-72130000D02*
X106464000Y-72130000D01*
X110268000Y-69374000D02*
X110268000Y-68326000D01*
X96975000Y-68875000D02*
X98593000Y-68875000D01*
X110744000Y-69850000D02*
X110268000Y-69374000D01*
X106464000Y-72130000D02*
X110268000Y-68326000D01*
X98593000Y-68875000D02*
X101848000Y-72130000D01*
X97976000Y-102616000D02*
X96760000Y-101400000D01*
X95758000Y-97654000D02*
X95758000Y-97982000D01*
X107696000Y-102616000D02*
X97976000Y-102616000D01*
X110490000Y-99822000D02*
X107696000Y-102616000D01*
D73*
%TO.N,Net-(C21-Pad1)*%
X137668000Y-95352249D02*
X137668000Y-89792000D01*
X145990000Y-83400000D02*
X146580000Y-83400000D01*
X142360000Y-87030000D02*
X145990000Y-83400000D01*
D72*
X136938000Y-100584000D02*
X136938000Y-97931500D01*
X136938000Y-97931500D02*
X136730500Y-97724000D01*
D73*
X136730500Y-97233251D02*
X137793000Y-96170751D01*
D72*
X133350000Y-98022500D02*
X133582500Y-97790000D01*
X133648500Y-97724000D02*
X133350000Y-98022500D01*
D73*
X136730500Y-97724000D02*
X136730500Y-97233251D01*
X140430000Y-87030000D02*
X142360000Y-87030000D01*
D72*
X133582500Y-97790000D02*
X136664500Y-97790000D01*
X136664500Y-97790000D02*
X136730500Y-97724000D01*
X133139000Y-98022500D02*
X130810000Y-100351500D01*
D73*
X137668000Y-89792000D02*
X140430000Y-87030000D01*
X137793000Y-95477249D02*
X137668000Y-95352249D01*
D72*
X133350000Y-98022500D02*
X133139000Y-98022500D01*
D73*
X137793000Y-96170751D02*
X137793000Y-95477249D01*
D72*
%TO.N,Net-(D19-Pad1)*%
X160905000Y-60640000D02*
X160880000Y-60615000D01*
X163640000Y-60640000D02*
X160905000Y-60640000D01*
D71*
%TO.N,Net-(DS1-Pad16)*%
X105837500Y-75470000D02*
X101410000Y-75470000D01*
X100880000Y-74940000D02*
X90542500Y-74940000D01*
X101410000Y-75470000D02*
X100880000Y-74940000D01*
X90542500Y-74940000D02*
X88180000Y-77302500D01*
X105847500Y-75480000D02*
X105837500Y-75470000D01*
D72*
%TO.N,Net-(C38-Pad1)*%
X157734000Y-74951500D02*
X157755500Y-74930000D01*
X157734000Y-76978000D02*
X157718000Y-76962000D01*
X148082000Y-70886000D02*
X148082000Y-70225000D01*
X157734000Y-76978000D02*
X157734000Y-74951500D01*
X154158000Y-76962000D02*
X148082000Y-70886000D01*
X157718000Y-76962000D02*
X154158000Y-76962000D01*
%TO.N,Net-(L11-Pad2)*%
X148082000Y-67772000D02*
X142790000Y-62480000D01*
X148082000Y-68175000D02*
X148082000Y-67772000D01*
%TO.N,Net-(C58-Pad1)*%
X47498000Y-64008000D02*
X43688000Y-64008000D01*
X65670000Y-59310000D02*
X68195000Y-61835000D01*
X55281000Y-61305000D02*
X57276000Y-59310000D01*
X57276000Y-59310000D02*
X65670000Y-59310000D01*
X54955000Y-61305000D02*
X55281000Y-61305000D01*
X40386000Y-62992000D02*
X39116000Y-64262000D01*
X42672000Y-62992000D02*
X40386000Y-62992000D01*
X39116000Y-66294000D02*
X39116000Y-64262000D01*
X49621000Y-61305000D02*
X49530000Y-61214000D01*
X54955000Y-61305000D02*
X49621000Y-61305000D01*
X49530000Y-61214000D02*
X48514000Y-62230000D01*
X48514000Y-62992000D02*
X47498000Y-64008000D01*
X43688000Y-64008000D02*
X42672000Y-62992000D01*
X48514000Y-62230000D02*
X48514000Y-62992000D01*
X44958000Y-67564000D02*
X40386000Y-67564000D01*
X40386000Y-67564000D02*
X39116000Y-66294000D01*
%TO.N,Net-(C58-Pad2)*%
X48001000Y-67305000D02*
X46185000Y-65489000D01*
X41656000Y-64516000D02*
X41656000Y-64262000D01*
X46185000Y-65489000D02*
X44958000Y-65489000D01*
X44958000Y-65489000D02*
X42629000Y-65489000D01*
X42629000Y-65489000D02*
X41656000Y-64516000D01*
X63115000Y-61835000D02*
X60425000Y-61835000D01*
X54955000Y-67305000D02*
X48001000Y-67305000D01*
X60425000Y-61835000D02*
X54955000Y-67305000D01*
%TO.N,Net-(C19-Pad1)*%
X78740000Y-141732000D02*
X77724000Y-142748000D01*
D71*
X95461000Y-129286000D02*
X95461000Y-132556000D01*
D72*
X95670000Y-135360000D02*
X95018000Y-135360000D01*
X78740000Y-138684000D02*
X78740000Y-141732000D01*
X66294000Y-126238000D02*
X62230000Y-126238000D01*
X85598000Y-135890000D02*
X83566000Y-137922000D01*
X67818000Y-127762000D02*
X66294000Y-126238000D01*
X62230000Y-126238000D02*
X60452000Y-124460000D01*
X94488000Y-135890000D02*
X85598000Y-135890000D01*
D71*
X95670000Y-135360000D02*
X95670000Y-132835000D01*
D72*
X69850000Y-142748000D02*
X77724000Y-142748000D01*
X69850000Y-142748000D02*
X67818000Y-140716000D01*
X95018000Y-135360000D02*
X94488000Y-135890000D01*
D71*
X95670000Y-132835000D02*
X95705000Y-132800000D01*
D72*
X67818000Y-140716000D02*
X67818000Y-127762000D01*
D71*
X95461000Y-132556000D02*
X95705000Y-132800000D01*
D72*
X79502000Y-137922000D02*
X78740000Y-138684000D01*
X83566000Y-137922000D02*
X79502000Y-137922000D01*
D71*
%TO.N,Net-(L10-Pad1)*%
X97755000Y-132800000D02*
X97755000Y-135275000D01*
X100245000Y-132969000D02*
X97924000Y-132969000D01*
X97755000Y-135275000D02*
X97670000Y-135360000D01*
X97924000Y-132969000D02*
X97755000Y-132800000D01*
%TO.N,Net-(C18-Pad1)*%
X108700000Y-123997500D02*
X108700000Y-124280000D01*
X111540000Y-128080000D02*
X112460000Y-129000000D01*
X116312500Y-129612500D02*
X118390000Y-131690000D01*
X115502500Y-129000000D02*
X116312500Y-128190000D01*
X116312500Y-128190000D02*
X116312500Y-129612500D01*
X111540000Y-127120000D02*
X111540000Y-128080000D01*
X112460000Y-129000000D02*
X115502500Y-129000000D01*
X108700000Y-124280000D02*
X111540000Y-127120000D01*
%TO.N,Net-(C60-Pad2)*%
X94960000Y-110860000D02*
X105780000Y-110860000D01*
X106172000Y-111252000D02*
X106172000Y-129222000D01*
X92240000Y-108140000D02*
X94960000Y-110860000D01*
X106172000Y-129222000D02*
X109220000Y-132270000D01*
X105780000Y-110860000D02*
X106172000Y-111252000D01*
X109220000Y-132270000D02*
X109220000Y-136652000D01*
X105664000Y-140208000D02*
X104415500Y-140208000D01*
X109220000Y-136652000D02*
X105664000Y-140208000D01*
%TO.N,MICPADDLE*%
X84312000Y-101600000D02*
X84312000Y-98314000D01*
X88708000Y-96204000D02*
X86422000Y-96204000D01*
X88708000Y-101389500D02*
X88437500Y-101660000D01*
X88708000Y-96204000D02*
X88708000Y-101389500D01*
X86422000Y-96204000D02*
X84328000Y-98298000D01*
X84312000Y-98314000D02*
X84328000Y-98298000D01*
%TO.N,SPKR*%
X56014000Y-136024000D02*
X56014000Y-133910000D01*
X57400000Y-137410000D02*
X56014000Y-136024000D01*
X57952000Y-124460000D02*
X57952000Y-131972000D01*
X57952000Y-131972000D02*
X56014000Y-133910000D01*
X66014000Y-137410000D02*
X57400000Y-137410000D01*
D73*
%TO.N,Net-(J10-Pad1)*%
X137440000Y-70800000D02*
X139700000Y-70800000D01*
D71*
X146580000Y-76150000D02*
X146130000Y-76150000D01*
X140780000Y-70800000D02*
X139700000Y-70800000D01*
X146130000Y-76150000D02*
X140780000Y-70800000D01*
D73*
X135620000Y-72620000D02*
X137440000Y-70800000D01*
X135620000Y-74180000D02*
X135620000Y-72620000D01*
D72*
%TO.N,Net-(J10-Pad2)*%
X140142000Y-73340000D02*
X139700000Y-73340000D01*
D73*
X137160000Y-74060000D02*
X137160000Y-73490000D01*
X135620000Y-74680000D02*
X136540000Y-74680000D01*
X136540000Y-74680000D02*
X137160000Y-74060000D01*
X137310000Y-73340000D02*
X139700000Y-73340000D01*
X137160000Y-73490000D02*
X137310000Y-73340000D01*
D72*
X146512000Y-79710000D02*
X140142000Y-73340000D01*
X146570000Y-79710000D02*
X146512000Y-79710000D01*
D71*
%TO.N,Net-(C61-Pad2)*%
X91390000Y-118060000D02*
X91660000Y-118330000D01*
D72*
X91844000Y-128524000D02*
X85344000Y-128524000D01*
D71*
X91390000Y-109330000D02*
X88990000Y-106930000D01*
X94384000Y-125984000D02*
X91844000Y-128524000D01*
X88990000Y-106930000D02*
X88990000Y-105690000D01*
X95715000Y-125984000D02*
X94384000Y-125984000D01*
X91390000Y-113080000D02*
X91390000Y-109330000D01*
X91660000Y-118330000D02*
X91660000Y-125480000D01*
X91660000Y-128340000D02*
X91844000Y-128524000D01*
X91660000Y-125480000D02*
X91660000Y-128340000D01*
D72*
%TO.N,Net-(J18-Pad3)*%
X165100000Y-140970000D02*
X169926000Y-140970000D01*
X169660000Y-140704000D02*
X169926000Y-140970000D01*
X171760000Y-129450000D02*
X169740000Y-129450000D01*
X169926000Y-140970000D02*
X172730000Y-140970000D01*
X173430000Y-129450000D02*
X171760000Y-129450000D01*
X169660000Y-129530000D02*
X169660000Y-140704000D01*
D71*
X171480000Y-116780000D02*
X171545000Y-116845000D01*
D72*
X172730000Y-140970000D02*
X174000000Y-139700000D01*
D71*
X171545000Y-129235000D02*
X171760000Y-129450000D01*
D72*
X162560000Y-140970000D02*
X165100000Y-140970000D01*
D71*
X171545000Y-116845000D02*
X171545000Y-129235000D01*
D72*
X169740000Y-129450000D02*
X169660000Y-129530000D01*
%TO.N,Net-(J17-Pad4)*%
X174160000Y-114380000D02*
X176560000Y-116780000D01*
X168680000Y-114380000D02*
X174160000Y-114380000D01*
X165100000Y-117960000D02*
X168680000Y-114380000D01*
X165100000Y-120650000D02*
X165100000Y-117960000D01*
%TO.N,Net-(C14-Pad1)*%
X162560000Y-67056000D02*
X161544000Y-67056000D01*
X161036000Y-67056000D02*
X160529500Y-66549500D01*
D71*
X155244800Y-86156800D02*
X155244800Y-79146400D01*
D72*
X161798000Y-71120000D02*
X159448500Y-73469500D01*
X166878000Y-66372500D02*
X166878000Y-69596000D01*
D71*
X159274000Y-77978000D02*
X160528000Y-76724000D01*
D72*
X161544000Y-67056000D02*
X161798000Y-67310000D01*
D71*
X156632800Y-87172800D02*
X156260800Y-87172800D01*
D72*
X157988000Y-69850000D02*
X157988000Y-72009000D01*
X159448500Y-73469500D02*
X162941000Y-76962000D01*
D71*
X160295500Y-91948000D02*
X159766000Y-91418500D01*
D72*
X162941000Y-76962000D02*
X162941000Y-77724000D01*
X158570000Y-63732500D02*
X155956000Y-63732500D01*
X161528000Y-77724000D02*
X160528000Y-76724000D01*
X161544000Y-67056000D02*
X161036000Y-67056000D01*
X165354000Y-69850000D02*
X162560000Y-67056000D01*
X166624000Y-69850000D02*
X165354000Y-69850000D01*
D71*
X156260800Y-87172800D02*
X155244800Y-86156800D01*
X159766000Y-87138000D02*
X159731200Y-87172800D01*
D72*
X157988000Y-72009000D02*
X159448500Y-73469500D01*
D71*
X156660000Y-89960000D02*
X156660000Y-87200000D01*
D72*
X160529500Y-66549500D02*
X160529500Y-63752500D01*
D71*
X159731200Y-87172800D02*
X156632800Y-87172800D01*
X158118500Y-91418500D02*
X156660000Y-89960000D01*
D72*
X162941000Y-77724000D02*
X161528000Y-77724000D01*
X162090000Y-63752500D02*
X160529500Y-63752500D01*
D71*
X155244800Y-79146400D02*
X156413200Y-77978000D01*
X156660000Y-87200000D02*
X156632800Y-87172800D01*
X156413200Y-77978000D02*
X159274000Y-77978000D01*
D72*
X161798000Y-67310000D02*
X161798000Y-71120000D01*
X166878000Y-69596000D02*
X166624000Y-69850000D01*
X160529500Y-63752500D02*
X158590000Y-63752500D01*
X158590000Y-63752500D02*
X158570000Y-63732500D01*
D71*
X162560000Y-91948000D02*
X160295500Y-91948000D01*
X159766000Y-91418500D02*
X158118500Y-91418500D01*
D72*
%TO.N,Net-(C14-Pad2)*%
X165928000Y-68247500D02*
X165275500Y-68247500D01*
X157857600Y-68002400D02*
X158570000Y-67290000D01*
D71*
X154823000Y-62601000D02*
X164979000Y-62601000D01*
X154432000Y-67240400D02*
X154432000Y-62992000D01*
X154432000Y-62992000D02*
X154823000Y-62601000D01*
D72*
X158570000Y-67290000D02*
X158570000Y-65807500D01*
X165275500Y-68247500D02*
X162855500Y-65827500D01*
X160528000Y-69248000D02*
X158570000Y-67290000D01*
X155194000Y-68002400D02*
X157857600Y-68002400D01*
X162090000Y-65827500D02*
X163042500Y-65827500D01*
D71*
X155194000Y-68002400D02*
X154432000Y-67240400D01*
D72*
X163042500Y-65827500D02*
X165624000Y-63246000D01*
X160528000Y-69850000D02*
X160528000Y-69248000D01*
D71*
X164979000Y-62601000D02*
X165624000Y-63246000D01*
%TO.N,Net-(C15-Pad1)*%
X101750000Y-136330000D02*
X101750000Y-137090000D01*
X101750000Y-137090000D02*
X98610000Y-140230000D01*
X100245000Y-135509000D02*
X100929000Y-135509000D01*
X100929000Y-135509000D02*
X101750000Y-136330000D01*
X98610000Y-140230000D02*
X97850000Y-140230000D01*
%TO.N,Net-(C28-Pad1)*%
X120740000Y-119112500D02*
X117402500Y-119112500D01*
X117370000Y-117450000D02*
X116610000Y-116690000D01*
X117370000Y-119080000D02*
X117370000Y-117450000D01*
X120972500Y-119345000D02*
X120740000Y-119112500D01*
X117402500Y-119112500D02*
X117370000Y-119080000D01*
X123575000Y-119345000D02*
X120972500Y-119345000D01*
D72*
%TO.N,Net-(C31-Pad1)*%
X173945000Y-69088000D02*
X173691000Y-68834000D01*
X176508500Y-69088000D02*
X173945000Y-69088000D01*
D71*
%TO.N,Net-(C31-Pad2)*%
X143735000Y-68695000D02*
X140840000Y-65800000D01*
D72*
X163576000Y-69850000D02*
X164592000Y-70866000D01*
D71*
X177038000Y-59182000D02*
X177038000Y-61214000D01*
D72*
X167066000Y-70866000D02*
X167828000Y-70104000D01*
X178583500Y-67811000D02*
X176572500Y-65800000D01*
D71*
X151340000Y-61090000D02*
X152099000Y-61849000D01*
X144200000Y-71390000D02*
X143735000Y-70925000D01*
X152099000Y-61849000D02*
X152146000Y-61849000D01*
X175260000Y-62992000D02*
X173482000Y-62992000D01*
X147595000Y-87625000D02*
X147595000Y-72535000D01*
D72*
X167828000Y-70104000D02*
X167828000Y-68247500D01*
D71*
X168885000Y-59891117D02*
X168796941Y-59803059D01*
D72*
X178583500Y-69088000D02*
X178583500Y-67811000D01*
D71*
X146450000Y-71390000D02*
X144200000Y-71390000D01*
D72*
X152146000Y-61849000D02*
X152146000Y-64029500D01*
X167828000Y-68247500D02*
X167828000Y-63450000D01*
D71*
X177038000Y-61214000D02*
X175260000Y-62992000D01*
X172466000Y-66294000D02*
X172720000Y-66548000D01*
D72*
X164592000Y-70866000D02*
X167066000Y-70866000D01*
D71*
X169926000Y-58674000D02*
X176530000Y-58674000D01*
X168796941Y-59803059D02*
X169926000Y-58674000D01*
X172720000Y-66548000D02*
X175824500Y-66548000D01*
X140840000Y-65800000D02*
X140840000Y-62060000D01*
X147595000Y-87625000D02*
X146202500Y-87625000D01*
X168518883Y-59525000D02*
X154470000Y-59525000D01*
D72*
X167828000Y-63450000D02*
X167624000Y-63246000D01*
D71*
X168796941Y-59803059D02*
X168518883Y-59525000D01*
X149490000Y-89700000D02*
X147595000Y-87805000D01*
X146202500Y-87625000D02*
X146120000Y-87707500D01*
D72*
X163068000Y-69850000D02*
X163576000Y-69850000D01*
X146072500Y-87660000D02*
X140670000Y-87660000D01*
D71*
X173482000Y-62992000D02*
X172466000Y-64008000D01*
X172466000Y-64008000D02*
X172466000Y-66294000D01*
D72*
X152146000Y-64029500D02*
X151913500Y-64262000D01*
D71*
X175824500Y-66548000D02*
X176572500Y-65800000D01*
D72*
X146120000Y-94017500D02*
X146120000Y-87707500D01*
D71*
X154470000Y-59525000D02*
X152146000Y-61849000D01*
D72*
X146120000Y-87707500D02*
X146072500Y-87660000D01*
X138668000Y-91186000D02*
X138668000Y-96711500D01*
D71*
X143735000Y-70925000D02*
X143735000Y-68695000D01*
X168885000Y-61697000D02*
X168885000Y-59891117D01*
D72*
X138668000Y-89662000D02*
X138668000Y-91186000D01*
D71*
X141810000Y-61090000D02*
X151340000Y-61090000D01*
X168885000Y-61697000D02*
X167624000Y-62958000D01*
X167624000Y-62958000D02*
X167624000Y-63246000D01*
D72*
X140670000Y-87660000D02*
X138668000Y-89662000D01*
D71*
X140840000Y-62060000D02*
X141810000Y-61090000D01*
D72*
X138668000Y-96711500D02*
X138605500Y-96774000D01*
D71*
X149500000Y-89700000D02*
X149490000Y-89700000D01*
X147595000Y-72535000D02*
X146450000Y-71390000D01*
X176530000Y-58674000D02*
X177038000Y-59182000D01*
X147595000Y-87805000D02*
X147595000Y-87625000D01*
%TO.N,Net-(C39-Pad1)*%
X117940000Y-137770000D02*
X113730000Y-137770000D01*
X115370000Y-137770000D02*
X117940000Y-137770000D01*
X129300000Y-132960000D02*
X129300000Y-128764000D01*
X124490000Y-137770000D02*
X129300000Y-132960000D01*
X125265000Y-126715000D02*
X126280000Y-125700000D01*
X117940000Y-137770000D02*
X124490000Y-137770000D01*
X126280000Y-125700000D02*
X129230000Y-125700000D01*
X128010000Y-128950000D02*
X129114000Y-128950000D01*
X125265000Y-129286000D02*
X125265000Y-126715000D01*
X114160000Y-142840000D02*
X114160000Y-138980000D01*
X129300000Y-125770000D02*
X129300000Y-122360000D01*
X114160000Y-138980000D02*
X115370000Y-137770000D01*
X129300000Y-128764000D02*
X129300000Y-125770000D01*
X129300000Y-122360000D02*
X128825000Y-121885000D01*
X114160000Y-142840000D02*
X111660000Y-140340000D01*
X113730000Y-137770000D02*
X111660000Y-139840000D01*
X111660000Y-140340000D02*
X111660000Y-139840000D01*
X129114000Y-128950000D02*
X129300000Y-128764000D01*
X129230000Y-125700000D02*
X129300000Y-125770000D01*
D72*
%TO.N,Net-(C49-Pad2)*%
X145774500Y-121660500D02*
X145796000Y-121682000D01*
X143111500Y-118618000D02*
X142923500Y-118430000D01*
X145774500Y-118618000D02*
X143111500Y-118618000D01*
X145774500Y-118618000D02*
X145774500Y-121660500D01*
D71*
%TO.N,Net-(C39-Pad2)*%
X122146000Y-129286000D02*
X119610000Y-126750000D01*
X123190000Y-129286000D02*
X122146000Y-129286000D01*
X116130000Y-126750000D02*
X115390000Y-126010000D01*
X115390000Y-124030000D02*
X114790000Y-123430000D01*
X115390000Y-126010000D02*
X115390000Y-124030000D01*
X119610000Y-126750000D02*
X116130000Y-126750000D01*
%TO.N,Net-(C57-Pad1)*%
X86593500Y-93004000D02*
X85447500Y-94150000D01*
X88708000Y-93004000D02*
X86593500Y-93004000D01*
%TO.N,Net-(Q4-Pad1)*%
X109650000Y-121590000D02*
X106940000Y-118880000D01*
X96450000Y-110150000D02*
X94488000Y-108188000D01*
X106940000Y-110780000D02*
X106310000Y-110150000D01*
X106940000Y-118880000D02*
X106940000Y-110780000D01*
X109650000Y-122122500D02*
X109650000Y-121590000D01*
X106310000Y-110150000D02*
X96450000Y-110150000D01*
D72*
%TO.N,Net-(Q10-Pad1)*%
X149117500Y-92142500D02*
X149360000Y-91900000D01*
X147070000Y-92142500D02*
X149117500Y-92142500D01*
X150940000Y-90820000D02*
X150940000Y-87700000D01*
X150940000Y-87700000D02*
X152690000Y-87700000D01*
X149860000Y-91900000D02*
X150940000Y-90820000D01*
X149500000Y-87700000D02*
X150940000Y-87700000D01*
X152690000Y-87700000D02*
X152750000Y-87640000D01*
X149360000Y-91900000D02*
X149860000Y-91900000D01*
%TO.N,Net-(Q10-Pad2)*%
X142010000Y-92220000D02*
X141990000Y-92240000D01*
X142010000Y-89780000D02*
X142010000Y-92220000D01*
X142087500Y-92142500D02*
X141990000Y-92240000D01*
X145170000Y-92142500D02*
X142087500Y-92142500D01*
%TO.N,Net-(Q11-Pad2)*%
X138430000Y-115303500D02*
X138364000Y-115237500D01*
X138430000Y-118380000D02*
X138430000Y-115303500D01*
X139047500Y-114554000D02*
X138364000Y-115237500D01*
X141224000Y-114554000D02*
X139047500Y-114554000D01*
D71*
%TO.N,Net-(Q12-Pad1)*%
X146160000Y-69260000D02*
X149532500Y-69260000D01*
X149532500Y-69260000D02*
X150180000Y-69907500D01*
X144710000Y-70050000D02*
X145370000Y-70050000D01*
X145370000Y-70050000D02*
X146160000Y-69260000D01*
%TO.N,Net-(Q14-Pad1)*%
X108010000Y-74530000D02*
X108130000Y-74410000D01*
X103972500Y-74530000D02*
X108010000Y-74530000D01*
D72*
%TO.N,Net-(Q13-Pad1)*%
X174590000Y-63900000D02*
X173466000Y-65024000D01*
X176572500Y-63900000D02*
X174590000Y-63900000D01*
D73*
%TO.N,Net-(U6-Pad3)*%
X128778000Y-76708000D02*
X128090000Y-77396000D01*
X131220000Y-75180000D02*
X129544000Y-75180000D01*
X128778000Y-75946000D02*
X128778000Y-76708000D01*
X128090000Y-77396000D02*
X127134000Y-77396000D01*
X129544000Y-75180000D02*
X128778000Y-75946000D01*
D71*
%TO.N,Net-(C62-Pad2)*%
X51290000Y-141487500D02*
X51290000Y-142570000D01*
X51290000Y-142570000D02*
X51060000Y-142800000D01*
X49610000Y-142070000D02*
X50340000Y-142800000D01*
X46964000Y-135102000D02*
X49610000Y-137748000D01*
X43206000Y-135102000D02*
X41656000Y-136652000D01*
X41656000Y-136652000D02*
X41656000Y-137668000D01*
X51060000Y-142800000D02*
X54035000Y-142800000D01*
X54035000Y-142800000D02*
X54040000Y-142805000D01*
X46486000Y-135102000D02*
X46964000Y-135102000D01*
X49610000Y-137748000D02*
X49610000Y-142070000D01*
X50340000Y-142800000D02*
X51060000Y-142800000D01*
X46486000Y-135102000D02*
X43206000Y-135102000D01*
%TO.N,Net-(C63-Pad1)*%
X54040000Y-138660000D02*
X51500000Y-136120000D01*
X54040000Y-140755000D02*
X54040000Y-138660000D01*
X55620000Y-122180000D02*
X58652500Y-119147500D01*
X55620000Y-129000000D02*
X55620000Y-122180000D01*
X51500000Y-133120000D02*
X55620000Y-129000000D01*
X58652500Y-119147500D02*
X59436000Y-119147500D01*
X51500000Y-136120000D02*
X51500000Y-133120000D01*
%TO.N,Net-(C63-Pad2)*%
X59460000Y-114870000D02*
X59460000Y-117048500D01*
X59460000Y-117048500D02*
X59436000Y-117072500D01*
%TO.N,Net-(C66-Pad1)*%
X64450000Y-108840000D02*
X61117500Y-108840000D01*
X68326000Y-107950000D02*
X68326000Y-111760000D01*
X64450000Y-108840000D02*
X64450000Y-110870000D01*
X64250000Y-112850000D02*
X65340000Y-111760000D01*
X61117500Y-108840000D02*
X61060000Y-108897500D01*
X67795000Y-106465000D02*
X67795000Y-107419000D01*
X67795000Y-107419000D02*
X68326000Y-107950000D01*
X68326000Y-111760000D02*
X69450000Y-111760000D01*
X70670000Y-112980000D02*
X70670000Y-113670000D01*
X63110000Y-112850000D02*
X64250000Y-112850000D01*
X64450000Y-110870000D02*
X65340000Y-111760000D01*
X65340000Y-111760000D02*
X68326000Y-111760000D01*
X69450000Y-111760000D02*
X70670000Y-112980000D01*
%TO.N,Net-(C66-Pad2)*%
X58870000Y-98832000D02*
X58870000Y-104632500D01*
X64450000Y-106840000D02*
X61077500Y-106840000D01*
X58870000Y-104632500D02*
X61060000Y-106822500D01*
X61077500Y-106840000D02*
X61060000Y-106822500D01*
X64825000Y-106465000D02*
X64450000Y-106840000D01*
X59436000Y-98266000D02*
X58870000Y-98832000D01*
X66525000Y-106465000D02*
X64825000Y-106465000D01*
X66525000Y-108165000D02*
X67326000Y-108966000D01*
X66525000Y-106465000D02*
X66525000Y-108165000D01*
%TO.N,Net-(C67-Pad2)*%
X57658000Y-118110000D02*
X56620500Y-119147500D01*
X49740500Y-119147500D02*
X46486000Y-122402000D01*
X56620500Y-119147500D02*
X56134000Y-119147500D01*
X56134000Y-119147500D02*
X49740500Y-119147500D01*
X57658000Y-116332000D02*
X57658000Y-118110000D01*
X56134000Y-114808000D02*
X57658000Y-116332000D01*
%TO.N,Net-(C68-Pad2)*%
X55626000Y-109483000D02*
X51874500Y-109483000D01*
X51874500Y-109483000D02*
X51840000Y-109517500D01*
X51840000Y-109517500D02*
X49986000Y-111371500D01*
X49986000Y-111371500D02*
X49986000Y-112402000D01*
%TO.N,Net-(C69-Pad1)*%
X73449000Y-93726000D02*
X73449000Y-97223000D01*
X69065000Y-100607000D02*
X69065000Y-101215000D01*
X73449000Y-97223000D02*
X73390000Y-97282000D01*
X72644000Y-100076000D02*
X72390000Y-99822000D01*
X75930000Y-106680000D02*
X76200000Y-106680000D01*
X72390000Y-99822000D02*
X69850000Y-99822000D01*
X69850000Y-99822000D02*
X69065000Y-100607000D01*
X75930000Y-106680000D02*
X75930000Y-103362000D01*
X73390000Y-97282000D02*
X73390000Y-99330000D01*
X80010000Y-110490000D02*
X80010000Y-113538000D01*
X75930000Y-103362000D02*
X72644000Y-100076000D01*
X73390000Y-99330000D02*
X72644000Y-100076000D01*
X76200000Y-106680000D02*
X80010000Y-110490000D01*
%TO.N,Net-(C69-Pad2)*%
X76454000Y-98076000D02*
X80010000Y-101632000D01*
X67795000Y-100877000D02*
X71390000Y-97282000D01*
X71374000Y-93726000D02*
X71390000Y-93742000D01*
X67795000Y-101215000D02*
X67795000Y-100877000D01*
X74930000Y-91948000D02*
X76454000Y-93472000D01*
X71374000Y-93726000D02*
X73152000Y-91948000D01*
X73152000Y-91948000D02*
X74930000Y-91948000D01*
X76454000Y-93472000D02*
X76454000Y-98076000D01*
X82312000Y-101600000D02*
X80042000Y-101600000D01*
X71390000Y-93742000D02*
X71390000Y-97282000D01*
X80042000Y-101600000D02*
X80010000Y-101632000D01*
%TO.N,Net-(L8-Pad1)*%
X54356000Y-106163000D02*
X54356000Y-104410000D01*
X55626000Y-107433000D02*
X54356000Y-106163000D01*
X54356000Y-104410000D02*
X54626000Y-104140000D01*
%TO.N,Net-(L12-Pad1)*%
X79248000Y-94234000D02*
X75184000Y-90170000D01*
X75184000Y-90170000D02*
X63500000Y-90170000D01*
X82328000Y-98298000D02*
X80264000Y-98298000D01*
X58166000Y-110726000D02*
X56134000Y-112758000D01*
X63500000Y-90170000D02*
X58176000Y-95494000D01*
X80264000Y-98298000D02*
X79248000Y-97282000D01*
X58176000Y-101351817D02*
X58166000Y-101361817D01*
X58176000Y-95494000D02*
X58176000Y-101351817D01*
X79248000Y-97282000D02*
X79248000Y-94234000D01*
X58166000Y-101361817D02*
X58166000Y-110726000D01*
%TO.N,Net-(JP6-Pad2)*%
X62620000Y-114850000D02*
X60640000Y-112870000D01*
X63110000Y-114850000D02*
X66950000Y-114850000D01*
X60640000Y-112870000D02*
X59460000Y-112870000D01*
X63110000Y-114850000D02*
X62620000Y-114850000D01*
X66950000Y-114850000D02*
X68130000Y-113670000D01*
%TO.N,Net-(JP9-Pad2)*%
X71890000Y-108720000D02*
X72652000Y-108720000D01*
X72652000Y-108720000D02*
X77470000Y-113538000D01*
X71644000Y-108966000D02*
X71890000Y-108720000D01*
X71890000Y-108720000D02*
X73930000Y-106680000D01*
X69326000Y-108966000D02*
X71644000Y-108966000D01*
%TO.N,Net-(C64-Pad2)*%
X70335000Y-101215000D02*
X70335000Y-102225000D01*
X67640000Y-103130000D02*
X63268000Y-103130000D01*
X61502000Y-98840000D02*
X61450000Y-98788000D01*
X61450000Y-98788000D02*
X61450000Y-95780000D01*
X59650000Y-99990000D02*
X60852000Y-98788000D01*
X63246000Y-103108000D02*
X60238000Y-103108000D01*
X60238000Y-103108000D02*
X59650000Y-102520000D01*
X70335000Y-102225000D02*
X69430000Y-103130000D01*
X69430000Y-103130000D02*
X67640000Y-103130000D01*
X69065000Y-104555000D02*
X67640000Y-103130000D01*
X60852000Y-98788000D02*
X61450000Y-98788000D01*
X59650000Y-102520000D02*
X59650000Y-99990000D01*
X63268000Y-103130000D02*
X63246000Y-103108000D01*
X61450000Y-95780000D02*
X62920000Y-94310000D01*
X63020000Y-98840000D02*
X61502000Y-98840000D01*
X69065000Y-106465000D02*
X69065000Y-104555000D01*
%TD*%
%TA.AperFunction,Conductor*%
%TO.N,GND*%
G36*
X173579913Y-77742954D02*
G01*
X173642001Y-77780040D01*
X173668403Y-77801573D01*
X173686858Y-77811221D01*
X173714312Y-77827913D01*
X173731379Y-77839863D01*
X173782623Y-77862039D01*
X173799044Y-77869871D01*
X173848530Y-77895741D01*
X173868556Y-77901483D01*
X173898807Y-77912315D01*
X173917919Y-77920586D01*
X173961373Y-77929664D01*
X173972559Y-77932001D01*
X173990262Y-77936382D01*
X174043913Y-77951766D01*
X174064684Y-77953364D01*
X174096488Y-77957891D01*
X174116880Y-77962151D01*
X174123539Y-77962500D01*
X174173846Y-77962500D01*
X174192949Y-77963234D01*
X174246570Y-77967360D01*
X174269502Y-77964463D01*
X174300710Y-77962500D01*
X181040114Y-77962500D01*
X181047067Y-77962597D01*
X181119048Y-77964608D01*
X181119049Y-77964608D01*
X181131653Y-77964960D01*
X181186628Y-77955266D01*
X181204707Y-77952758D01*
X181247667Y-77948395D01*
X181247671Y-77948394D01*
X181260216Y-77947120D01*
X181272246Y-77943350D01*
X181272251Y-77943349D01*
X181280093Y-77940891D01*
X181311310Y-77933281D01*
X181331821Y-77929664D01*
X181343547Y-77925021D01*
X181343552Y-77925020D01*
X181383707Y-77909122D01*
X181400902Y-77903033D01*
X181442135Y-77890111D01*
X181442142Y-77890108D01*
X181454172Y-77886338D01*
X181465201Y-77880224D01*
X181465204Y-77880223D01*
X181472385Y-77876242D01*
X181501447Y-77862504D01*
X181502647Y-77862029D01*
X181520805Y-77854840D01*
X181536040Y-77844871D01*
X181567506Y-77824280D01*
X181583127Y-77814857D01*
X181631944Y-77787797D01*
X181641523Y-77779587D01*
X181651878Y-77772390D01*
X181653313Y-77774455D01*
X181721126Y-77736322D01*
X181798485Y-77724000D01*
X183393939Y-77724000D01*
X183489227Y-77742954D01*
X183570009Y-77796930D01*
X185347070Y-79573991D01*
X185401046Y-79654773D01*
X185420000Y-79750061D01*
X185420000Y-81041940D01*
X185401046Y-81137228D01*
X185347070Y-81218010D01*
X184979180Y-81585900D01*
X184974195Y-81590747D01*
X184912720Y-81648881D01*
X184905487Y-81659211D01*
X184880703Y-81694606D01*
X184869696Y-81709159D01*
X184834427Y-81752403D01*
X184828584Y-81763581D01*
X184828582Y-81763583D01*
X184824780Y-81770856D01*
X184808086Y-81798315D01*
X184796137Y-81815379D01*
X184791129Y-81826952D01*
X184773975Y-81866593D01*
X184766117Y-81883067D01*
X184740258Y-81932530D01*
X184734514Y-81952563D01*
X184723683Y-81982810D01*
X184715414Y-82001919D01*
X184712836Y-82014260D01*
X184704002Y-82056546D01*
X184699619Y-82074256D01*
X184695713Y-82087880D01*
X184684234Y-82127913D01*
X184682636Y-82148684D01*
X184678109Y-82180488D01*
X184673849Y-82200880D01*
X184673500Y-82207539D01*
X184673500Y-82257847D01*
X184672766Y-82276950D01*
X184668640Y-82330571D01*
X184671538Y-82353509D01*
X184673500Y-82384704D01*
X184673500Y-87366439D01*
X184654546Y-87461727D01*
X184600570Y-87542509D01*
X183824009Y-88319070D01*
X183743227Y-88373046D01*
X183647939Y-88392000D01*
X181880060Y-88392000D01*
X181784772Y-88373046D01*
X181703990Y-88319070D01*
X181600100Y-88215180D01*
X181595253Y-88210195D01*
X181545784Y-88157883D01*
X181537119Y-88148720D01*
X181491394Y-88116703D01*
X181476841Y-88105696D01*
X181443372Y-88078399D01*
X181443370Y-88078397D01*
X181433597Y-88070427D01*
X181422419Y-88064584D01*
X181422417Y-88064582D01*
X181415144Y-88060780D01*
X181387684Y-88044085D01*
X181370621Y-88032137D01*
X181354736Y-88025263D01*
X181319407Y-88009975D01*
X181302930Y-88002116D01*
X181295226Y-87998088D01*
X181253470Y-87976258D01*
X181233437Y-87970514D01*
X181203190Y-87959683D01*
X181200472Y-87958507D01*
X181195655Y-87956422D01*
X181195651Y-87956421D01*
X181184081Y-87951414D01*
X181129451Y-87940001D01*
X181111744Y-87935619D01*
X181070210Y-87923710D01*
X181070209Y-87923710D01*
X181058087Y-87920234D01*
X181037316Y-87918636D01*
X181005512Y-87914109D01*
X180985120Y-87909849D01*
X180978461Y-87909500D01*
X180928153Y-87909500D01*
X180909050Y-87908766D01*
X180868012Y-87905608D01*
X180868010Y-87905608D01*
X180855429Y-87904640D01*
X180832491Y-87907538D01*
X180801296Y-87909500D01*
X173923259Y-87909500D01*
X173890509Y-87905710D01*
X173890313Y-87907220D01*
X173877798Y-87905595D01*
X173865524Y-87902716D01*
X173794449Y-87900731D01*
X173782312Y-87900095D01*
X173711429Y-87894640D01*
X173698915Y-87896221D01*
X173686904Y-87896514D01*
X173674951Y-87897392D01*
X173662347Y-87897040D01*
X173610275Y-87906222D01*
X173592337Y-87909385D01*
X173580305Y-87911205D01*
X173522287Y-87918534D01*
X173522282Y-87918535D01*
X173509776Y-87920115D01*
X173497835Y-87924180D01*
X173486139Y-87926881D01*
X173474603Y-87930146D01*
X173462179Y-87932336D01*
X173450448Y-87936981D01*
X173450447Y-87936981D01*
X173396078Y-87958507D01*
X173384664Y-87962707D01*
X173317363Y-87985618D01*
X173306626Y-87991917D01*
X173203050Y-88014500D01*
X170706495Y-88014500D01*
X170611207Y-87995546D01*
X170530425Y-87941570D01*
X169908430Y-87319575D01*
X169854454Y-87238793D01*
X169835500Y-87143505D01*
X169835500Y-83912440D01*
X169836901Y-83894640D01*
X169836599Y-83894624D01*
X169837282Y-83881590D01*
X169839323Y-83868703D01*
X169835841Y-83802263D01*
X169835500Y-83789232D01*
X169835500Y-83771496D01*
X169833646Y-83753855D01*
X169832623Y-83740860D01*
X169829824Y-83687453D01*
X169829824Y-83687452D01*
X169829141Y-83674422D01*
X169825763Y-83661816D01*
X169823986Y-83650596D01*
X169821626Y-83639493D01*
X169820262Y-83626518D01*
X169799702Y-83563240D01*
X169796016Y-83550800D01*
X169778788Y-83486503D01*
X169772863Y-83474874D01*
X169768795Y-83464278D01*
X169764178Y-83453907D01*
X169760144Y-83441492D01*
X169726881Y-83383879D01*
X169720659Y-83372419D01*
X169699139Y-83330183D01*
X169675887Y-83247740D01*
X175320909Y-83247740D01*
X175347243Y-83548745D01*
X175413156Y-83843623D01*
X175416005Y-83851366D01*
X175514638Y-84119443D01*
X175514641Y-84119450D01*
X175517490Y-84127193D01*
X175658411Y-84394474D01*
X175833444Y-84640768D01*
X175839074Y-84646805D01*
X176033878Y-84855708D01*
X176033884Y-84855714D01*
X176039513Y-84861750D01*
X176272998Y-85053537D01*
X176529797Y-85212759D01*
X176537322Y-85216141D01*
X176537326Y-85216143D01*
X176624405Y-85255278D01*
X176805398Y-85336620D01*
X176980080Y-85388695D01*
X177087043Y-85420582D01*
X177087045Y-85420582D01*
X177094960Y-85422942D01*
X177393395Y-85470209D01*
X177400342Y-85470524D01*
X177400347Y-85470525D01*
X177485081Y-85474373D01*
X177485103Y-85474374D01*
X177487889Y-85474500D01*
X177676648Y-85474500D01*
X177680738Y-85474228D01*
X177680748Y-85474228D01*
X177803761Y-85466057D01*
X177901490Y-85459566D01*
X178197684Y-85399843D01*
X178483377Y-85301471D01*
X178753550Y-85166178D01*
X178760385Y-85161533D01*
X178760390Y-85161530D01*
X178996631Y-85000980D01*
X179003456Y-84996342D01*
X179160747Y-84855708D01*
X179222545Y-84800454D01*
X179222548Y-84800451D01*
X179228705Y-84794946D01*
X179234079Y-84788676D01*
X179234084Y-84788671D01*
X179419964Y-84571801D01*
X179425340Y-84565529D01*
X179589905Y-84312120D01*
X179719510Y-84039173D01*
X179722034Y-84031311D01*
X179722037Y-84031304D01*
X179803357Y-83778020D01*
X179811877Y-83751483D01*
X179865384Y-83454104D01*
X179879091Y-83152260D01*
X179852757Y-82851255D01*
X179786844Y-82556377D01*
X179766610Y-82501383D01*
X179685362Y-82280557D01*
X179685359Y-82280550D01*
X179682510Y-82272807D01*
X179541589Y-82005526D01*
X179366556Y-81759232D01*
X179255572Y-81640216D01*
X179166122Y-81544292D01*
X179166116Y-81544286D01*
X179160487Y-81538250D01*
X178927002Y-81346463D01*
X178670203Y-81187241D01*
X178662678Y-81183859D01*
X178662674Y-81183857D01*
X178558920Y-81137228D01*
X178394602Y-81063380D01*
X178219920Y-81011305D01*
X178112957Y-80979418D01*
X178112955Y-80979418D01*
X178105040Y-80977058D01*
X177806605Y-80929791D01*
X177799658Y-80929476D01*
X177799653Y-80929475D01*
X177714919Y-80925627D01*
X177714897Y-80925626D01*
X177712111Y-80925500D01*
X177523352Y-80925500D01*
X177519262Y-80925772D01*
X177519252Y-80925772D01*
X177396239Y-80933943D01*
X177298510Y-80940434D01*
X177002316Y-81000157D01*
X176716623Y-81098529D01*
X176446450Y-81233822D01*
X176439615Y-81238467D01*
X176439610Y-81238470D01*
X176314350Y-81323597D01*
X176196544Y-81403658D01*
X176190395Y-81409156D01*
X176190391Y-81409159D01*
X175989982Y-81588346D01*
X175971295Y-81605054D01*
X175965921Y-81611324D01*
X175965916Y-81611329D01*
X175894539Y-81694606D01*
X175774660Y-81834471D01*
X175770164Y-81841395D01*
X175770162Y-81841397D01*
X175718239Y-81921352D01*
X175610095Y-82087880D01*
X175480490Y-82360827D01*
X175477966Y-82368689D01*
X175477963Y-82368696D01*
X175420192Y-82548634D01*
X175388123Y-82648517D01*
X175334616Y-82945896D01*
X175334242Y-82954141D01*
X175322227Y-83218727D01*
X175320909Y-83247740D01*
X169675887Y-83247740D01*
X169672767Y-83236676D01*
X169672000Y-83217141D01*
X169672000Y-77973000D01*
X169690954Y-77877712D01*
X169744930Y-77796930D01*
X169825712Y-77742954D01*
X169921000Y-77724000D01*
X173484625Y-77724000D01*
X173579913Y-77742954D01*
G37*
%TD.AperFunction*%
%TD*%
M02*
