M48
; DRILL file {KiCad (6.0.11)} date Sun Oct 29 15:33:10 2023
; FORMAT={-:-/ absolute / inch / decimal}
; #@! TF.CreationDate,2023-10-29T15:33:10-05:00
; #@! TF.GenerationSoftware,Kicad,Pcbnew,(6.0.11)
; #@! TF.FileFunction,Plated,1,2,PTH
FMAT,2
INCH
; #@! TA.AperFunction,Plated,PTH,ViaDrill
T1C0.0157
; #@! TA.AperFunction,Plated,PTH,ComponentDrill
T2C0.0295
; #@! TA.AperFunction,Plated,PTH,ComponentDrill
T3C0.0300
; #@! TA.AperFunction,Plated,PTH,ComponentDrill
T4C0.0315
; #@! TA.AperFunction,Plated,PTH,ComponentDrill
T5C0.0354
; #@! TA.AperFunction,Plated,PTH,ComponentDrill
T6C0.0394
; #@! TA.AperFunction,Plated,PTH,ComponentDrill
T7C0.0433
; #@! TA.AperFunction,Plated,PTH,ComponentDrill
T8C0.0472
; #@! TA.AperFunction,Plated,PTH,ComponentDrill
T9C0.0598
; #@! TA.AperFunction,Plated,PTH,ComponentDrill
T10C0.0984
; #@! TA.AperFunction,Plated,PTH,ComponentDrill
T11C0.1200
%
G90
G05
T1
X1.88Y-3.37
X1.9409Y-4.1693
X2.0646Y-5.4807
X2.11Y-3.15
X2.16Y-3.3
X2.1831Y-4.2949
X2.2Y-3.18
X2.2Y-3.3402
X2.2Y-3.5717
X2.23Y-3.3009
X2.23Y-3.5011
X2.2331Y-3.911
X2.2717Y-3.1949
X2.3882Y-3.6634
X2.4547Y-3.848
X2.5Y-3.213
X2.5Y-4.98
X2.5323Y-3.7595
X2.55Y-3.7264
X2.6382Y-3.6382
X2.6421Y-5.5543
X2.7Y-5.4843
X2.7772Y-4.0736
X3.07Y-3.73
X3.1055Y-5.6091
X3.16Y-2.39
X3.1713Y-3.5343
X3.2008Y-4.0591
X3.2134Y-3.576
X3.2236Y-3.6744
X3.2252Y-3.7134
X3.2593Y-5.1319
X3.2819Y-5.3102
X3.2933Y-3.537
X3.3091Y-2.6193
X3.3276Y-3.5689
X3.3291Y-3.4689
X3.3976Y-4.0677
X3.4041Y-3.3238
X3.4065Y-3.2801
X3.4126Y-3.4339
X3.4161Y-3.2406
X3.4183Y-3.5006
X3.426Y-3.7169
X3.4343Y-3.2106
X3.4512Y-4.748
X3.4614Y-4.5748
X3.463Y-4.5079
X3.4923Y-2.4659
X3.4988Y-2.8102
X3.4996Y-4.8575
X3.5485Y-3.6286
X3.5916Y-3.6334
X3.5969Y-3.428
X3.598Y-4.3425
X3.602Y-2.8114
X3.6028Y-4.5567
X3.614Y-3.6719
X3.6244Y-2.8961
X3.634Y-3.7073
X3.635Y-4.1268
X3.6425Y-3.75
X3.66Y-4.71
X3.72Y-4.1266
X3.7634Y-3.6839
X3.7677Y-3.9287
X3.7689Y-3.9846
X3.7698Y-3.6273
X3.7787Y-5.4673
X3.8154Y-4.4315
X3.8228Y-3.9104
X3.83Y-3.42
X3.8498Y-3.8473
X3.86Y-3.37
X3.8693Y-4.3101
X3.8693Y-4.4311
X3.8717Y-2.9843
X3.8846Y-3.7311
X3.89Y-3.34
X3.8921Y-3.6606
X3.9098Y-3.8573
X3.92Y-3.31
X3.92Y-4.1266
X3.9425Y-3.0945
X3.9492Y-3.8547
X3.95Y-5.65
X3.9587Y-4.4213
X3.9594Y-4.3101
X3.97Y-3.44
X3.9744Y-3.8906
X4.0107Y-3.0093
X4.02Y-4.1266
X4.0201Y-3.9882
X4.0319Y-4.4075
X4.0803Y-4.3031
X4.0865Y-3.9863
X4.12Y-4.1266
X4.13Y-4.97
X4.15Y-3.9858
X4.1689Y-5.1843
X4.1803Y-4.3059
X4.195Y-3.9778
X4.2Y-4.1266
X4.2146Y-5.3098
X4.22Y-4.86
X4.2949Y-3.9272
X4.3421Y-2.7543
X4.37Y-2.89
X4.3882Y-2.7535
X4.4169Y-2.8189
X4.4639Y-3.92
X4.5173Y-3.7094
X4.57Y-4.92
X4.576Y-3.7083
X4.6055Y-2.8461
X4.6638Y-3.6909
X4.7138Y-5.074
X4.7165Y-3.6992
X4.8Y-4.97
X4.8126Y-4.0327
X4.8138Y-4.128
X4.8346Y-3.2677
X5.0187Y-5.1959
X5.0417Y-4.8524
X5.09Y-4.6
X5.0902Y-4.0492
X5.0944Y-4.1284
X5.13Y-3.81
X5.1811Y-4.8461
X5.2634Y-4.4898
X5.2909Y-2.9441
X5.31Y-3.97
X5.37Y-2.78
X5.4114Y-2.9391
X5.4409Y-5.0256
X5.5205Y-3.5492
X5.5299Y-3.978
X5.6585Y-3.5981
X5.6642Y-4.3059
X5.7422Y-3.3838
X5.7569Y-2.9597
X5.7846Y-4.2606
X5.8346Y-3.7411
X5.88Y-3.74
X5.9087Y-4.3295
X5.9094Y-4.2846
X5.9252Y-2.8947
X5.9632Y-2.6195
X5.9996Y-4.811
X6.1441Y-2.9083
X6.1457Y-2.98
X6.1465Y-2.8768
X6.148Y-2.8256
X6.1531Y-3.0181
X6.1614Y-2.9331
X6.1713Y-2.7953
X6.1713Y-2.8543
X6.1835Y-2.9579
X6.1841Y-3.3268
X6.1894Y-3.0358
X6.1933Y-2.9988
X6.1978Y-3.4054
X6.1992Y-2.8854
X6.2091Y-2.8346
X6.2185Y-2.911
X6.2205Y-2.7953
X6.2244Y-2.9366
X6.2283Y-2.9638
X6.2331Y-2.9984
X6.2366Y-3.037
X6.237Y-2.8646
X6.2425Y-2.8272
X6.2598Y-2.7953
X6.2622Y-2.9043
X6.2693Y-2.8661
X6.2697Y-3.0067
X6.278Y-2.9815
X6.2795Y-2.9429
X6.2839Y-3.0378
X6.2992Y-2.8346
X6.3091Y-2.7953
X6.3189Y-2.9035
X6.3209Y-2.9713
X6.324Y-3.0346
X6.3244Y-2.8748
X6.3315Y-2.8366
X6.3323Y-2.9413
X6.3376Y-3.8238
X6.3543Y-3.0185
X6.3583Y-2.8051
X6.3583Y-2.8642
X6.3583Y-2.9134
X6.3752Y-2.9728
X6.376Y-4.003
X6.56Y-2.4951
X6.6909Y-3.3421
X6.6909Y-3.3906
X6.6925Y-3.1437
X6.6945Y-3.2138
X6.6961Y-3.2528
X6.6961Y-3.289
X6.6976Y-3.4429
X6.702Y-3.1004
X6.7378Y-3.0799
X6.739Y-5.2543
X6.74Y-3.18
X6.74Y-3.2203
X6.74Y-3.26
X6.74Y-3.3128
X6.74Y-3.36
X6.7406Y-3.122
X6.7429Y-3.4488
X6.7441Y-3.4043
X6.7701Y-3.2827
X6.7748Y-3.3413
X6.7764Y-3.3964
X6.7768Y-3.137
X6.7811Y-3.2197
X6.7811Y-3.3134
X6.7862Y-3.2543
X6.7912Y-3.4488
X6.7913Y-3.0799
X6.802Y-3.1689
X6.8067Y-3.1102
X6.8165Y-3.3559
X6.8181Y-3.2728
X6.8181Y-3.3197
X6.82Y-3.42
X6.8441Y-3.1421
X6.8445Y-3.1949
X6.8445Y-3.4075
X6.8496Y-3.1091
X6.8579Y-3.0795
X6.86Y-3.86
X6.8661Y-3.3331
X6.8669Y-3.2909
X6.8719Y-3.1675
X6.8736Y-3.2425
X6.8811Y-3.3898
X6.8906Y-3.1917
X6.8925Y-3.4378
X6.9Y-3.14
X6.902Y-3.1083
X6.9031Y-3.0795
X6.9051Y-3.3575
X6.9234Y-3.4321
X6.9346Y-3.1689
X6.9378Y-3.3898
X6.9496Y-3.1079
X6.9571Y-3.0776
X6.96Y-3.44
X6.9815Y-3.137
X6.9831Y-3.3961
X7.0004Y-3.4217
X7.0154Y-3.0776
X7.0181Y-3.1079
X7.0193Y-3.1665
X7.0264Y-3.3961
X7.0323Y-3.4437
X7.048Y-3.3661
X7.0677Y-3.0783
X7.0701Y-3.1122
X7.0744Y-3.1697
X7.0791Y-3.3366
X7.0854Y-3.3862
X7.0862Y-3.4437
X7.1083Y-3.3517
X7.1138Y-3.2012
X7.1181Y-3.2504
X7.1181Y-3.2917
X7.12Y-3.44
X7.1209Y-3.1268
X7.1268Y-3.0768
X7.14Y-3.32
X7.1429Y-3.4075
X7.1583Y-3.2543
X7.16Y-3.2
X7.1612Y-3.1136
X7.163Y-3.15
X7.1697Y-3.3339
X7.1799Y-3.3776
X7.185Y-3.2165
X7.187Y-3.4594
X7.1894Y-3.0854
X7.1902Y-3.1213
X7.2071Y-3.1594
X7.2114Y-3.2571
X7.2114Y-3.3059
X7.2114Y-3.4083
X7.2295Y-3.3571
X7.2329Y-3.1179
X7.2331Y-3.2244
X7.2413Y-3.1811
X7.2469Y-3.4469
X7.2689Y-3.0819
X7.2689Y-3.3299
X7.2689Y-3.378
X7.2697Y-3.2374
X7.2697Y-3.2941
X7.2705Y-3.1394
X7.2736Y-2.7362
X7.2831Y-2.8244
T3
X5.9945Y-2.3624
X5.9945Y-2.5124
X6.3738Y-3.2628
X6.5238Y-3.2628
X6.775Y-5.55
X6.9275Y-5.44
X6.9275Y-5.66
X7.075Y-5.55
T4
X1.6047Y-2.7165
X1.6047Y-2.8165
X1.9047Y-2.7165
X1.9047Y-2.8165
X2.2803Y-4.9189
X2.3787Y-4.9189
X2.9146Y-2.4106
X3.0524Y-2.4106
X3.77Y-4.8
X3.77Y-5.2
X3.8179Y-2.6014
X3.8179Y-2.7116
X3.9006Y-2.6014
X3.9422Y-4.81
X4.003Y-2.6014
X4.08Y-4.81
X4.0856Y-2.6014
X4.0856Y-2.7116
X4.45Y-2.4133
X4.45Y-2.5117
X4.49Y-3.34
X4.49Y-3.5321
X4.72Y-3.34
X4.72Y-3.5321
X4.95Y-3.34
X4.95Y-3.5321
X5.161Y-4.2787
X5.2Y-4.97
X5.2Y-5.0684
X5.2594Y-4.2787
X5.4429Y-4.1012
X5.4429Y-4.1996
X5.63Y-2.3704
X5.63Y-2.4704
X5.63Y-2.5704
X5.7409Y-4.5445
X5.8244Y-3.8386
X5.8244Y-3.9386
X5.8244Y-4.0386
X5.8394Y-4.5445
X6.1244Y-3.8386
X6.1244Y-3.9386
X6.1244Y-4.0386
X6.3974Y-3.75
X6.4715Y-3.9803
X6.4974Y-3.75
X6.52Y-2.81
X6.52Y-2.91
X6.52Y-3.01
X6.54Y-4.12
X6.54Y-4.42
X6.5974Y-3.75
X6.64Y-4.12
X6.64Y-4.42
X6.7067Y-2.9776
X6.7118Y-3.5701
X6.74Y-4.12
X6.74Y-4.42
X6.8067Y-2.9776
X6.8118Y-3.5701
X6.9067Y-2.9776
X6.9118Y-3.5701
X6.9715Y-3.9803
X7.085Y-2.9732
X7.0969Y-3.576
X7.185Y-2.9732
X7.1969Y-3.576
X7.285Y-2.9732
X7.2969Y-3.576
T5
X7.1632Y-4.9955
X7.1632Y-5.0955
T6
X1.5835Y-3.0106
X1.5835Y-3.1106
X1.5835Y-3.2106
X1.5835Y-3.3106
X2.2803Y-4.5173
X2.2803Y-4.6173
X2.9026Y-4.2559
X3.0026Y-4.2559
X3.1894Y-4.2579
X3.2827Y-5.5894
X3.2894Y-4.2579
X3.3811Y-5.5894
X3.4795Y-5.5894
X3.7059Y-3.0457
X3.7059Y-3.1457
X3.8059Y-3.0457
X3.8059Y-3.1457
X3.9059Y-3.0457
X3.9059Y-3.1457
X4.15Y-3.18
X4.25Y-3.18
X4.2988Y-4.5264
X4.4933Y-5.5886
X4.5917Y-5.5886
X4.6902Y-5.5886
X5.17Y-3.52
X5.27Y-3.52
X5.3157Y-5.5516
X5.45Y-2.48
X5.45Y-2.58
X5.5555Y-2.7866
X5.5555Y-2.8866
X5.5555Y-2.9866
X5.5555Y-3.0866
X5.5555Y-3.1866
X5.5555Y-3.2866
X5.5555Y-3.3866
X5.9709Y-3.0953
X5.9709Y-3.1953
X5.9709Y-3.2953
X6.1Y-4.75
X6.1Y-5.55
X6.2Y-4.75
X6.2Y-5.55
X6.3Y-4.75
X6.3Y-5.55
X6.4Y-4.75
X6.4Y-5.55
X6.6795Y-4.9996
X6.6795Y-5.0996
X6.7512Y-4.5976
X6.828Y-4.9965
X6.828Y-5.0965
X6.8512Y-4.5976
X6.8539Y-2.7228
X6.9512Y-4.5976
X6.9539Y-2.7228
X7.0827Y-2.3189
X7.3705Y-3.1799
X7.3705Y-3.2799
X7.3705Y-3.3799
T7
X1.5965Y-3.485
X1.5965Y-3.6622
X1.8524Y-3.485
X1.8524Y-3.6622
X2.57Y-4.65
X2.57Y-4.8272
X2.7795Y-4.9638
X2.7795Y-5.1409
X2.7807Y-5.272
X2.7807Y-5.4492
X2.8165Y-2.7224
X2.8259Y-4.65
X2.8259Y-4.8272
X2.96Y-4.65
X2.96Y-4.8272
X3.0354Y-4.9638
X3.0354Y-5.1409
X3.0366Y-5.272
X3.0366Y-5.4492
X3.1165Y-2.7224
X3.2159Y-4.65
X3.2159Y-4.8272
X3.36Y-5.06
X3.36Y-5.2372
X3.6159Y-5.06
X3.6159Y-5.2372
X7.0575Y-3.7531
X7.0935Y-3.8915
X7.0935Y-4.1915
X7.0935Y-4.3915
X7.0935Y-4.5915
X7.3575Y-3.7531
X7.3927Y-3.8915
X7.3927Y-4.1915
X7.3927Y-4.3915
X7.3927Y-4.5915
T8
X1.5953Y-3.9943
X1.6937Y-3.7959
X1.7921Y-3.9943
X1.9732Y-3.0343
X2.0732Y-3.0343
X2.1732Y-3.0343
X2.2732Y-3.0343
X2.3732Y-3.0343
X2.4732Y-3.0343
X2.5732Y-3.0343
X2.6732Y-3.0343
X2.7732Y-3.0343
X2.8732Y-3.0343
X2.9732Y-3.0343
X3.0732Y-3.0343
X3.1732Y-3.0343
X3.1843Y-5.4713
X3.2732Y-3.0343
X3.3732Y-3.0343
X3.3811Y-5.4713
X3.4732Y-3.0343
X3.578Y-5.4713
X4.3949Y-5.4705
X4.5917Y-5.4705
X4.7886Y-5.4705
T9
X2.4689Y-2.4925
X2.6689Y-2.4925
X7.2706Y-4.9855
X7.2706Y-5.1855
T10
X1.7567Y-3.0343
X1.7567Y-4.2548
X4.7094Y-4.2548
X4.7094Y-3.0343
T11
X1.7913Y-2.3819
X1.7913Y-5.5315
X5.0591Y-2.3819
X5.0591Y-5.5315
X7.3031Y-2.3819
X7.3031Y-5.5315
T2
G00X1.5969Y-4.6448
M15
G01X1.5969Y-4.6152
M16
G05
G00X1.6019Y-5.1598
M15
G01X1.6019Y-5.1302
M16
G05
G00X1.7554Y-4.819
M15
G01X1.7849Y-4.819
M16
G05
G00X1.7604Y-5.334
M15
G01X1.7899Y-5.334
M16
G05
G00X1.8932Y-4.4253
M15
G01X1.9227Y-4.4253
M16
G05
G00X1.8982Y-4.9403
M15
G01X1.9277Y-4.9403
M16
G05
G00X2.1953Y-5.2855
M15
G01X2.1953Y-5.2559
M16
G05
G00X2.4148Y-5.5817
M15
G01X2.3852Y-5.5817
M16
G05
G00X2.589Y-5.4233
M15
G01X2.589Y-5.3937
M16
G05
T6
G00X1.8587Y-4.5276
M15
G01X1.8784Y-4.5276
M16
G05
G00X1.8637Y-5.0426
M15
G01X1.8834Y-5.0426
M16
G05
G00X1.9785Y-2.4923
M15
G01X1.9785Y-2.5711
M16
G05
G00X2.0418Y-4.8091
M15
G01X2.0418Y-4.7894
M16
G05
G00X2.0468Y-5.3241
M15
G01X2.0468Y-5.3044
M16
G05
G00X2.203Y-2.4136
M15
G01X2.1242Y-2.4136
M16
G05
G00X2.203Y-2.6498
M15
G01X2.1242Y-2.6498
M16
G05
G00X2.2976Y-5.3199
M15
G01X2.2976Y-5.3002
M16
G05
G00X2.5791Y-5.1369
M15
G01X2.5594Y-5.1369
M16
G05
G00X3.6821Y-2.5187
M15
G01X3.6821Y-2.4596
M16
G05
G00X3.9911Y-2.4577
M15
G01X3.9124Y-2.4577
M16
G05
G00X4.2215Y-2.5187
M15
G01X4.2215Y-2.4596
M16
G05
T0
M30
