%TF.GenerationSoftware,KiCad,Pcbnew,(6.0.11)*%
%TF.CreationDate,2023-03-05T01:45:00-06:00*%
%TF.ProjectId,BandPassFilter,42616e64-5061-4737-9346-696c7465722e,rev?*%
%TF.SameCoordinates,Original*%
%TF.FileFunction,Soldermask,Top*%
%TF.FilePolarity,Negative*%
%FSLAX46Y46*%
G04 Gerber Fmt 4.6, Leading zero omitted, Abs format (unit mm)*
G04 Created by KiCad (PCBNEW (6.0.11)) date 2023-03-05 01:45:00*
%MOMM*%
%LPD*%
G01*
G04 APERTURE LIST*
G04 Aperture macros list*
%AMRoundRect*
0 Rectangle with rounded corners*
0 $1 Rounding radius*
0 $2 $3 $4 $5 $6 $7 $8 $9 X,Y pos of 4 corners*
0 Add a 4 corners polygon primitive as box body*
4,1,4,$2,$3,$4,$5,$6,$7,$8,$9,$2,$3,0*
0 Add four circle primitives for the rounded corners*
1,1,$1+$1,$2,$3*
1,1,$1+$1,$4,$5*
1,1,$1+$1,$6,$7*
1,1,$1+$1,$8,$9*
0 Add four rect primitives between the rounded corners*
20,1,$1+$1,$2,$3,$4,$5,0*
20,1,$1+$1,$4,$5,$6,$7,0*
20,1,$1+$1,$6,$7,$8,$9,0*
20,1,$1+$1,$8,$9,$2,$3,0*%
G04 Aperture macros list end*
%ADD10C,2.000000*%
%ADD11RoundRect,0.200000X-0.762000X0.762000X-0.762000X-0.762000X0.762000X-0.762000X0.762000X0.762000X0*%
%ADD12RoundRect,0.200000X0.762000X0.762000X-0.762000X0.762000X-0.762000X-0.762000X0.762000X-0.762000X0*%
%ADD13RoundRect,0.200000X-0.976665X0.455426X-0.455426X-0.976665X0.976665X-0.455426X0.455426X0.976665X0*%
%ADD14RoundRect,0.200000X0.762000X-0.762000X0.762000X0.762000X-0.762000X0.762000X-0.762000X-0.762000X0*%
%ADD15RoundRect,0.200000X0.187129X1.061259X-1.061259X0.187129X-0.187129X-1.061259X1.061259X-0.187129X0*%
%ADD16RoundRect,0.200000X-0.762000X-0.762000X0.762000X-0.762000X0.762000X0.762000X-0.762000X0.762000X0*%
%ADD17RoundRect,0.200000X0.000000X1.077631X-1.077631X0.000000X0.000000X-1.077631X1.077631X0.000000X0*%
%ADD18C,2.800000*%
%ADD19RoundRect,0.200000X-2.540000X1.250000X-2.540000X-1.250000X2.540000X-1.250000X2.540000X1.250000X0*%
%ADD20RoundRect,0.200000X-2.540000X0.750000X-2.540000X-0.750000X2.540000X-0.750000X2.540000X0.750000X0*%
%ADD21RoundRect,0.200000X1.250000X2.540000X-1.250000X2.540000X-1.250000X-2.540000X1.250000X-2.540000X0*%
%ADD22RoundRect,0.200000X0.750000X2.540000X-0.750000X2.540000X-0.750000X-2.540000X0.750000X-2.540000X0*%
%ADD23RoundRect,0.200000X0.850000X-0.850000X0.850000X0.850000X-0.850000X0.850000X-0.850000X-0.850000X0*%
%ADD24O,2.100000X2.100000*%
%ADD25RoundRect,0.200000X0.850000X0.850000X-0.850000X0.850000X-0.850000X-0.850000X0.850000X-0.850000X0*%
G04 APERTURE END LIST*
D10*
%TO.C,C6*%
X147701000Y-107442000D03*
D11*
X147701000Y-108842000D03*
D10*
X147701000Y-112442000D03*
D11*
X147701000Y-111042000D03*
%TD*%
D10*
%TO.C,C4*%
X121580000Y-90450000D03*
D11*
X121580000Y-91850000D03*
D10*
X121580000Y-95450000D03*
D11*
X121580000Y-94050000D03*
%TD*%
D10*
%TO.C,C1*%
X147940000Y-90330000D03*
D11*
X147940000Y-91730000D03*
D10*
X147940000Y-95330000D03*
D11*
X147940000Y-93930000D03*
%TD*%
D10*
%TO.C,C2*%
X129400000Y-91360000D03*
D12*
X128000000Y-91360000D03*
D10*
X124400000Y-91360000D03*
D12*
X125800000Y-91360000D03*
%TD*%
D10*
%TO.C,C3*%
X129420000Y-94720000D03*
D12*
X128020000Y-94720000D03*
D10*
X124420000Y-94720000D03*
D12*
X125820000Y-94720000D03*
%TD*%
D10*
%TO.C,C5*%
X126200000Y-98180000D03*
D12*
X124800000Y-98180000D03*
D10*
X121200000Y-98180000D03*
D12*
X122600000Y-98180000D03*
%TD*%
D10*
%TO.C,C7*%
X133096000Y-101854000D03*
D13*
X133574828Y-103169570D03*
D10*
X134806101Y-106552463D03*
D13*
X134327273Y-105236893D03*
%TD*%
D10*
%TO.C,C8*%
X183760000Y-95950000D03*
D14*
X183760000Y-94550000D03*
D10*
X183760000Y-90950000D03*
D14*
X183760000Y-92350000D03*
%TD*%
D10*
%TO.C,C9*%
X164610000Y-90730000D03*
D12*
X163210000Y-90730000D03*
D10*
X159610000Y-90730000D03*
D12*
X161010000Y-90730000D03*
%TD*%
D10*
%TO.C,C10*%
X164630000Y-93950000D03*
D12*
X163230000Y-93950000D03*
D10*
X159630000Y-93950000D03*
D12*
X161030000Y-93950000D03*
%TD*%
D10*
%TO.C,C11*%
X156770000Y-90250000D03*
D11*
X156770000Y-91650000D03*
D10*
X156770000Y-95250000D03*
D11*
X156770000Y-93850000D03*
%TD*%
D10*
%TO.C,C12*%
X168370000Y-101390000D03*
D13*
X168848828Y-102705570D03*
D10*
X170080101Y-106088463D03*
D13*
X169601273Y-104772893D03*
%TD*%
D10*
%TO.C,C13*%
X161300000Y-98100000D03*
D12*
X159900000Y-98100000D03*
D10*
X156300000Y-98100000D03*
D12*
X157700000Y-98100000D03*
%TD*%
D10*
%TO.C,C14*%
X183850000Y-107460000D03*
D11*
X183850000Y-108860000D03*
D10*
X183850000Y-112460000D03*
D11*
X183850000Y-111060000D03*
%TD*%
D10*
%TO.C,C15*%
X149420000Y-119970000D03*
D11*
X149420000Y-121370000D03*
D10*
X149420000Y-124970000D03*
D11*
X149420000Y-123570000D03*
%TD*%
D10*
%TO.C,C16*%
X129920000Y-120090000D03*
D12*
X128520000Y-120090000D03*
D10*
X124920000Y-120090000D03*
D12*
X126320000Y-120090000D03*
%TD*%
D10*
%TO.C,C17*%
X129890000Y-123440000D03*
D12*
X128490000Y-123440000D03*
D10*
X124890000Y-123440000D03*
D12*
X126290000Y-123440000D03*
%TD*%
D10*
%TO.C,C18*%
X122140000Y-119190000D03*
D11*
X122140000Y-120590000D03*
D10*
X122140000Y-124190000D03*
D11*
X122140000Y-122790000D03*
%TD*%
D10*
%TO.C,C19*%
X134530000Y-131790000D03*
D13*
X135008828Y-133105570D03*
D10*
X136240101Y-136488463D03*
D13*
X135761273Y-135172893D03*
%TD*%
D10*
%TO.C,C20*%
X126650000Y-126960000D03*
D12*
X125250000Y-126960000D03*
D10*
X121650000Y-126960000D03*
D12*
X123050000Y-126960000D03*
%TD*%
D10*
%TO.C,C21*%
X149420000Y-136510000D03*
D11*
X149420000Y-137910000D03*
D10*
X149420000Y-141510000D03*
D11*
X149420000Y-140110000D03*
%TD*%
D10*
%TO.C,C22*%
X183680000Y-119300000D03*
D11*
X183680000Y-120700000D03*
D10*
X183680000Y-124300000D03*
D11*
X183680000Y-122900000D03*
%TD*%
D10*
%TO.C,C23*%
X183620000Y-136930000D03*
D15*
X182473187Y-137733007D03*
D10*
X179524240Y-139797882D03*
D15*
X180671053Y-138994875D03*
%TD*%
D10*
%TO.C,C24*%
X158310000Y-119750000D03*
D16*
X159710000Y-119750000D03*
D10*
X163310000Y-119750000D03*
D16*
X161910000Y-119750000D03*
%TD*%
D10*
%TO.C,C25*%
X163230000Y-123100000D03*
D12*
X161830000Y-123100000D03*
D10*
X158230000Y-123100000D03*
D12*
X159630000Y-123100000D03*
%TD*%
D10*
%TO.C,C26*%
X158380000Y-140930000D03*
D16*
X159780000Y-140930000D03*
D10*
X163380000Y-140930000D03*
D16*
X161980000Y-140930000D03*
%TD*%
D10*
%TO.C,C27*%
X214375000Y-62050000D03*
D11*
X214375000Y-63450000D03*
D10*
X214375000Y-67050000D03*
D11*
X214375000Y-65650000D03*
%TD*%
D10*
%TO.C,C28*%
X215075000Y-79200000D03*
D15*
X213928187Y-80003007D03*
D10*
X210979240Y-82067882D03*
D15*
X212126053Y-81264875D03*
%TD*%
D10*
%TO.C,C29*%
X203360000Y-67000000D03*
D12*
X201960000Y-67000000D03*
D10*
X198360000Y-67000000D03*
D12*
X199760000Y-67000000D03*
%TD*%
D10*
%TO.C,C30*%
X186930000Y-76050000D03*
D11*
X186930000Y-77450000D03*
D10*
X186930000Y-81050000D03*
D11*
X186930000Y-79650000D03*
%TD*%
D10*
%TO.C,C31*%
X192520000Y-83880000D03*
D12*
X191120000Y-83880000D03*
D10*
X187520000Y-83880000D03*
D12*
X188920000Y-83880000D03*
%TD*%
D10*
%TO.C,C32*%
X183580000Y-82140000D03*
D14*
X183580000Y-80740000D03*
D10*
X183580000Y-77140000D03*
D14*
X183580000Y-78540000D03*
%TD*%
D10*
%TO.C,C33*%
X180170000Y-77060000D03*
D11*
X180170000Y-78460000D03*
D10*
X180170000Y-82060000D03*
D11*
X180170000Y-80660000D03*
%TD*%
D10*
%TO.C,C34*%
X196726000Y-101856000D03*
D17*
X195736051Y-102845949D03*
D10*
X193190466Y-105391534D03*
D17*
X194180416Y-104401584D03*
%TD*%
D10*
%TO.C,C35*%
X192610000Y-122890000D03*
D11*
X192610000Y-124290000D03*
D10*
X192610000Y-127890000D03*
D11*
X192610000Y-126490000D03*
%TD*%
D10*
%TO.C,C36*%
X196000000Y-122810000D03*
D11*
X196000000Y-124210000D03*
D10*
X196000000Y-127810000D03*
D11*
X196000000Y-126410000D03*
%TD*%
D10*
%TO.C,C37*%
X191900000Y-133098000D03*
D16*
X193300000Y-133098000D03*
D10*
X196900000Y-133098000D03*
D16*
X195500000Y-133098000D03*
%TD*%
D10*
%TO.C,C38*%
X196472000Y-135892000D03*
D11*
X196472000Y-137292000D03*
D10*
X196472000Y-140892000D03*
D11*
X196472000Y-139492000D03*
%TD*%
D10*
%TO.C,C39*%
X192916000Y-135892000D03*
D11*
X192916000Y-137292000D03*
D10*
X192916000Y-140892000D03*
D11*
X192916000Y-139492000D03*
%TD*%
D10*
%TO.C,C40*%
X214610000Y-141220000D03*
D12*
X213210000Y-141220000D03*
D10*
X209610000Y-141220000D03*
D12*
X211010000Y-141220000D03*
%TD*%
D10*
%TO.C,C41*%
X214160000Y-135380000D03*
D14*
X214160000Y-133980000D03*
D10*
X214160000Y-130380000D03*
D14*
X214160000Y-131780000D03*
%TD*%
D10*
%TO.C,C42*%
X214270000Y-127910000D03*
D14*
X214270000Y-126510000D03*
D10*
X214270000Y-122910000D03*
D14*
X214270000Y-124310000D03*
%TD*%
D18*
%TO.C,L2*%
X143868600Y-93639452D03*
X140114472Y-108152326D03*
%TD*%
%TO.C,L3*%
X129720000Y-99739705D03*
X122337583Y-112786425D03*
%TD*%
%TO.C,L1*%
X179132600Y-93813452D03*
X175378472Y-108326326D03*
%TD*%
%TO.C,L4*%
X165360000Y-99849705D03*
X157977583Y-112896425D03*
%TD*%
%TO.C,L5*%
X144692600Y-122083452D03*
X140938472Y-136596326D03*
%TD*%
%TO.C,L6*%
X130820000Y-128579705D03*
X123437583Y-141626425D03*
%TD*%
%TO.C,L7*%
X180282600Y-123213452D03*
X176528472Y-137726326D03*
%TD*%
%TO.C,L8*%
X167880000Y-124409705D03*
X160497583Y-137456425D03*
%TD*%
%TO.C,L9*%
X210642600Y-65803452D03*
X206888472Y-80316326D03*
%TD*%
%TO.C,L10*%
X195310000Y-67140000D03*
X195440000Y-82130000D03*
%TD*%
%TO.C,L11*%
X178496051Y-73253949D03*
X189003658Y-62562494D03*
%TD*%
%TO.C,L12*%
X197990000Y-107125000D03*
X212980000Y-106995000D03*
%TD*%
%TO.C,L13*%
X198649705Y-130845000D03*
X211696425Y-138227417D03*
%TD*%
%TO.C,L14*%
X211125295Y-124830000D03*
X198078575Y-117447583D03*
%TD*%
D19*
%TO.C,J13*%
X122000000Y-68250000D03*
X122000000Y-75750000D03*
D20*
X122000000Y-72000000D03*
%TD*%
D21*
%TO.C,J16*%
X164750000Y-63000000D03*
X157250000Y-63000000D03*
D22*
X161000000Y-63000000D03*
%TD*%
D23*
%TO.C,J1*%
X132588000Y-111760000D03*
D24*
X135128000Y-111760000D03*
X137668000Y-111760000D03*
X140208000Y-111760000D03*
%TD*%
D23*
%TO.C,J2*%
X132588000Y-91440000D03*
D24*
X135128000Y-91440000D03*
X137668000Y-91440000D03*
X140208000Y-91440000D03*
%TD*%
D23*
%TO.C,J3*%
X167640000Y-91440000D03*
D24*
X170180000Y-91440000D03*
X172720000Y-91440000D03*
X175260000Y-91440000D03*
%TD*%
D23*
%TO.C,J4*%
X167640000Y-111760000D03*
D24*
X170180000Y-111760000D03*
X172720000Y-111760000D03*
X175260000Y-111760000D03*
%TD*%
D23*
%TO.C,J5*%
X133350000Y-120650000D03*
D24*
X135890000Y-120650000D03*
X138430000Y-120650000D03*
X140970000Y-120650000D03*
%TD*%
D23*
%TO.C,J6*%
X133350000Y-140970000D03*
D24*
X135890000Y-140970000D03*
X138430000Y-140970000D03*
X140970000Y-140970000D03*
%TD*%
D23*
%TO.C,J7*%
X167640000Y-120650000D03*
D24*
X170180000Y-120650000D03*
X172720000Y-120650000D03*
X175260000Y-120650000D03*
%TD*%
D23*
%TO.C,J8*%
X167640000Y-140970000D03*
D24*
X170180000Y-140970000D03*
X172720000Y-140970000D03*
X175260000Y-140970000D03*
%TD*%
D23*
%TO.C,J9*%
X199390000Y-63500000D03*
D24*
X201930000Y-63500000D03*
X204470000Y-63500000D03*
X207010000Y-63500000D03*
%TD*%
D23*
%TO.C,J10*%
X199390000Y-83820000D03*
D24*
X201930000Y-83820000D03*
X204470000Y-83820000D03*
X207010000Y-83820000D03*
%TD*%
D25*
%TO.C,J11*%
X193170000Y-118620000D03*
D24*
X193170000Y-116080000D03*
X193170000Y-113540000D03*
X193170000Y-111000000D03*
%TD*%
D25*
%TO.C,J12*%
X213490000Y-118620000D03*
D24*
X213490000Y-116080000D03*
X213490000Y-113540000D03*
X213490000Y-111000000D03*
%TD*%
D25*
%TO.C,J14*%
X132000000Y-77000000D03*
D24*
X132000000Y-74460000D03*
X132000000Y-71920000D03*
X132000000Y-69380000D03*
%TD*%
D25*
%TO.C,J15*%
X152000000Y-77000000D03*
D24*
X152000000Y-74460000D03*
X152000000Y-71920000D03*
X152000000Y-69380000D03*
%TD*%
M02*
