G04 #@! TF.FileFunction,Copper,L2,Bot,Signal*
%FSLAX46Y46*%
G04 Gerber Fmt 4.6, Leading zero omitted, Abs format (unit mm)*
G04 Created by KiCad (PCBNEW 4.0.7) date 12/28/22 10:35:37*
%MOMM*%
%LPD*%
G01*
G04 APERTURE LIST*
%ADD10C,0.100000*%
%ADD11C,2.400000*%
%ADD12C,1.600000*%
%ADD13R,1.700000X1.700000*%
%ADD14O,1.700000X1.700000*%
%ADD15C,0.254000*%
G04 APERTURE END LIST*
D10*
D11*
X129720000Y-99739705D03*
X122337583Y-112786425D03*
D12*
X147940000Y-90330000D03*
X147940000Y-95330000D03*
X129400000Y-91360000D03*
X124400000Y-91360000D03*
X129420000Y-94720000D03*
X124420000Y-94720000D03*
X121580000Y-90450000D03*
X121580000Y-95450000D03*
X126200000Y-98180000D03*
X121200000Y-98180000D03*
X147701000Y-107442000D03*
X147701000Y-112442000D03*
D11*
X143868600Y-93639452D03*
X140114472Y-108152326D03*
D13*
X132588000Y-111760000D03*
D14*
X135128000Y-111760000D03*
X137668000Y-111760000D03*
X140208000Y-111760000D03*
D13*
X132588000Y-91440000D03*
D14*
X135128000Y-91440000D03*
X137668000Y-91440000D03*
X140208000Y-91440000D03*
D12*
X133096000Y-101854000D03*
X134806101Y-106552463D03*
D15*
G36*
X120572253Y-89621861D02*
X120326136Y-89695995D01*
X120133035Y-90233223D01*
X120160222Y-90803454D01*
X120326136Y-91204005D01*
X120572255Y-91278139D01*
X121400395Y-90450000D01*
X121386252Y-90435858D01*
X121565858Y-90256252D01*
X121580000Y-90270395D01*
X121594142Y-90256252D01*
X121773748Y-90435858D01*
X121759605Y-90450000D01*
X122587745Y-91278139D01*
X122833864Y-91204005D01*
X123026965Y-90666777D01*
X122999778Y-90096546D01*
X122833864Y-89695995D01*
X122587747Y-89621861D01*
X122599608Y-89610000D01*
X146673913Y-89610000D01*
X146493035Y-90113223D01*
X146520222Y-90683454D01*
X146686136Y-91084005D01*
X146932255Y-91158139D01*
X147760395Y-90330000D01*
X147746252Y-90315858D01*
X147925858Y-90136252D01*
X147940000Y-90150395D01*
X147954142Y-90136252D01*
X148133748Y-90315858D01*
X148119605Y-90330000D01*
X148947745Y-91158139D01*
X149150000Y-91097217D01*
X149150000Y-94510944D01*
X148753923Y-94114176D01*
X148226691Y-93895250D01*
X147655813Y-93894752D01*
X147128200Y-94112757D01*
X146724176Y-94516077D01*
X146505250Y-95043309D01*
X146504752Y-95614187D01*
X146722757Y-96141800D01*
X147126077Y-96545824D01*
X147653309Y-96764750D01*
X148224187Y-96765248D01*
X148751800Y-96547243D01*
X149150000Y-96149737D01*
X149150000Y-113590000D01*
X148582164Y-113590000D01*
X148916824Y-113255923D01*
X149135750Y-112728691D01*
X149136248Y-112157813D01*
X148918243Y-111630200D01*
X148514923Y-111226176D01*
X147987691Y-111007250D01*
X147416813Y-111006752D01*
X146889200Y-111224757D01*
X146485176Y-111628077D01*
X146266250Y-112155309D01*
X146265752Y-112726187D01*
X146483757Y-113253800D01*
X146819371Y-113590000D01*
X123990818Y-113590000D01*
X124172264Y-113153030D01*
X124172901Y-112423022D01*
X124017016Y-112045750D01*
X131103000Y-112045750D01*
X131103000Y-112736309D01*
X131199673Y-112969698D01*
X131378301Y-113148327D01*
X131611690Y-113245000D01*
X132302250Y-113245000D01*
X132461000Y-113086250D01*
X132461000Y-111887000D01*
X132715000Y-111887000D01*
X132715000Y-113086250D01*
X132873750Y-113245000D01*
X133564310Y-113245000D01*
X133797699Y-113148327D01*
X133976327Y-112969698D01*
X134063136Y-112760122D01*
X134361076Y-113031645D01*
X134771110Y-113201476D01*
X135001000Y-113080155D01*
X135001000Y-111887000D01*
X132715000Y-111887000D01*
X132461000Y-111887000D01*
X131261750Y-111887000D01*
X131103000Y-112045750D01*
X124017016Y-112045750D01*
X123894128Y-111748339D01*
X123378384Y-111231695D01*
X122704188Y-110951744D01*
X121974180Y-110951107D01*
X121299497Y-111229880D01*
X120782853Y-111745624D01*
X120502902Y-112419820D01*
X120502265Y-113149828D01*
X120684140Y-113590000D01*
X120090000Y-113590000D01*
X120090000Y-110783691D01*
X131103000Y-110783691D01*
X131103000Y-111474250D01*
X131261750Y-111633000D01*
X132461000Y-111633000D01*
X132461000Y-110433750D01*
X132715000Y-110433750D01*
X132715000Y-111633000D01*
X135001000Y-111633000D01*
X135001000Y-110439845D01*
X135255000Y-110439845D01*
X135255000Y-111633000D01*
X135275000Y-111633000D01*
X135275000Y-111887000D01*
X135255000Y-111887000D01*
X135255000Y-113080155D01*
X135484890Y-113201476D01*
X135894924Y-113031645D01*
X136323183Y-112641358D01*
X136390298Y-112498447D01*
X136617946Y-112839147D01*
X137099715Y-113161054D01*
X137668000Y-113274093D01*
X138236285Y-113161054D01*
X138718054Y-112839147D01*
X138938000Y-112509974D01*
X139157946Y-112839147D01*
X139639715Y-113161054D01*
X140208000Y-113274093D01*
X140776285Y-113161054D01*
X141258054Y-112839147D01*
X141579961Y-112357378D01*
X141693000Y-111789093D01*
X141693000Y-111730907D01*
X141579961Y-111162622D01*
X141258054Y-110680853D01*
X140776285Y-110358946D01*
X140208000Y-110245907D01*
X139639715Y-110358946D01*
X139157946Y-110680853D01*
X138938000Y-111010026D01*
X138718054Y-110680853D01*
X138236285Y-110358946D01*
X137668000Y-110245907D01*
X137099715Y-110358946D01*
X136617946Y-110680853D01*
X136390298Y-111021553D01*
X136323183Y-110878642D01*
X135894924Y-110488355D01*
X135484890Y-110318524D01*
X135255000Y-110439845D01*
X135001000Y-110439845D01*
X134771110Y-110318524D01*
X134361076Y-110488355D01*
X134063136Y-110759878D01*
X133976327Y-110550302D01*
X133797699Y-110371673D01*
X133564310Y-110275000D01*
X132873750Y-110275000D01*
X132715000Y-110433750D01*
X132461000Y-110433750D01*
X132302250Y-110275000D01*
X131611690Y-110275000D01*
X131378301Y-110371673D01*
X131199673Y-110550302D01*
X131103000Y-110783691D01*
X120090000Y-110783691D01*
X120090000Y-108515729D01*
X138279154Y-108515729D01*
X138557927Y-109190412D01*
X139073671Y-109707056D01*
X139747867Y-109987007D01*
X140477875Y-109987644D01*
X141152558Y-109708871D01*
X141669202Y-109193127D01*
X141949153Y-108518931D01*
X141949213Y-108449745D01*
X146872861Y-108449745D01*
X146946995Y-108695864D01*
X147484223Y-108888965D01*
X148054454Y-108861778D01*
X148455005Y-108695864D01*
X148529139Y-108449745D01*
X147701000Y-107621605D01*
X146872861Y-108449745D01*
X141949213Y-108449745D01*
X141949790Y-107788923D01*
X141716875Y-107225223D01*
X146254035Y-107225223D01*
X146281222Y-107795454D01*
X146447136Y-108196005D01*
X146693255Y-108270139D01*
X147521395Y-107442000D01*
X147880605Y-107442000D01*
X148708745Y-108270139D01*
X148954864Y-108196005D01*
X149147965Y-107658777D01*
X149120778Y-107088546D01*
X148954864Y-106687995D01*
X148708745Y-106613861D01*
X147880605Y-107442000D01*
X147521395Y-107442000D01*
X146693255Y-106613861D01*
X146447136Y-106687995D01*
X146254035Y-107225223D01*
X141716875Y-107225223D01*
X141671017Y-107114240D01*
X141155273Y-106597596D01*
X140761905Y-106434255D01*
X146872861Y-106434255D01*
X147701000Y-107262395D01*
X148529139Y-106434255D01*
X148455005Y-106188136D01*
X147917777Y-105995035D01*
X147347546Y-106022222D01*
X146946995Y-106188136D01*
X146872861Y-106434255D01*
X140761905Y-106434255D01*
X140481077Y-106317645D01*
X139751069Y-106317008D01*
X139076386Y-106595781D01*
X138559742Y-107111525D01*
X138279791Y-107785721D01*
X138279154Y-108515729D01*
X120090000Y-108515729D01*
X120090000Y-106836650D01*
X133370853Y-106836650D01*
X133588858Y-107364263D01*
X133992178Y-107768287D01*
X134519410Y-107987213D01*
X135090288Y-107987711D01*
X135617901Y-107769706D01*
X136021925Y-107366386D01*
X136240851Y-106839154D01*
X136241349Y-106268276D01*
X136023344Y-105740663D01*
X135620024Y-105336639D01*
X135092792Y-105117713D01*
X134521914Y-105117215D01*
X133994301Y-105335220D01*
X133590277Y-105738540D01*
X133371351Y-106265772D01*
X133370853Y-106836650D01*
X120090000Y-106836650D01*
X120090000Y-102138187D01*
X131660752Y-102138187D01*
X131878757Y-102665800D01*
X132282077Y-103069824D01*
X132809309Y-103288750D01*
X133380187Y-103289248D01*
X133907800Y-103071243D01*
X134311824Y-102667923D01*
X134530750Y-102140691D01*
X134531248Y-101569813D01*
X134313243Y-101042200D01*
X133909923Y-100638176D01*
X133382691Y-100419250D01*
X132811813Y-100418752D01*
X132284200Y-100636757D01*
X131880176Y-101040077D01*
X131661250Y-101567309D01*
X131660752Y-102138187D01*
X120090000Y-102138187D01*
X120090000Y-100103108D01*
X127884682Y-100103108D01*
X128163455Y-100777791D01*
X128679199Y-101294435D01*
X129353395Y-101574386D01*
X130083403Y-101575023D01*
X130758086Y-101296250D01*
X131274730Y-100780506D01*
X131554681Y-100106310D01*
X131555318Y-99376302D01*
X131276545Y-98701619D01*
X130760801Y-98184975D01*
X130086605Y-97905024D01*
X129356597Y-97904387D01*
X128681914Y-98183160D01*
X128165270Y-98698904D01*
X127885319Y-99373100D01*
X127884682Y-100103108D01*
X120090000Y-100103108D01*
X120090000Y-99099230D01*
X120386077Y-99395824D01*
X120913309Y-99614750D01*
X121484187Y-99615248D01*
X122011800Y-99397243D01*
X122415824Y-98993923D01*
X122634750Y-98466691D01*
X122634752Y-98464187D01*
X124764752Y-98464187D01*
X124982757Y-98991800D01*
X125386077Y-99395824D01*
X125913309Y-99614750D01*
X126484187Y-99615248D01*
X127011800Y-99397243D01*
X127415824Y-98993923D01*
X127634750Y-98466691D01*
X127635248Y-97895813D01*
X127417243Y-97368200D01*
X127013923Y-96964176D01*
X126486691Y-96745250D01*
X125915813Y-96744752D01*
X125388200Y-96962757D01*
X124984176Y-97366077D01*
X124765250Y-97893309D01*
X124764752Y-98464187D01*
X122634752Y-98464187D01*
X122635248Y-97895813D01*
X122417243Y-97368200D01*
X122013923Y-96964176D01*
X121823758Y-96885213D01*
X121864187Y-96885248D01*
X122391800Y-96667243D01*
X122795824Y-96263923D01*
X123014750Y-95736691D01*
X123015248Y-95165813D01*
X122948466Y-95004187D01*
X122984752Y-95004187D01*
X123202757Y-95531800D01*
X123606077Y-95935824D01*
X124133309Y-96154750D01*
X124704187Y-96155248D01*
X125231800Y-95937243D01*
X125635824Y-95533923D01*
X125854750Y-95006691D01*
X125854752Y-95004187D01*
X127984752Y-95004187D01*
X128202757Y-95531800D01*
X128606077Y-95935824D01*
X129133309Y-96154750D01*
X129704187Y-96155248D01*
X130231800Y-95937243D01*
X130635824Y-95533923D01*
X130854750Y-95006691D01*
X130855248Y-94435813D01*
X130676354Y-94002855D01*
X142033282Y-94002855D01*
X142312055Y-94677538D01*
X142827799Y-95194182D01*
X143501995Y-95474133D01*
X144232003Y-95474770D01*
X144906686Y-95195997D01*
X145423330Y-94680253D01*
X145703281Y-94006057D01*
X145703918Y-93276049D01*
X145425145Y-92601366D01*
X144909401Y-92084722D01*
X144235205Y-91804771D01*
X143505197Y-91804134D01*
X142830514Y-92082907D01*
X142313870Y-92598651D01*
X142033919Y-93272847D01*
X142033282Y-94002855D01*
X130676354Y-94002855D01*
X130637243Y-93908200D01*
X130233923Y-93504176D01*
X129706691Y-93285250D01*
X129135813Y-93284752D01*
X128608200Y-93502757D01*
X128204176Y-93906077D01*
X127985250Y-94433309D01*
X127984752Y-95004187D01*
X125854752Y-95004187D01*
X125855248Y-94435813D01*
X125637243Y-93908200D01*
X125233923Y-93504176D01*
X124706691Y-93285250D01*
X124135813Y-93284752D01*
X123608200Y-93502757D01*
X123204176Y-93906077D01*
X122985250Y-94433309D01*
X122984752Y-95004187D01*
X122948466Y-95004187D01*
X122797243Y-94638200D01*
X122393923Y-94234176D01*
X121866691Y-94015250D01*
X121295813Y-94014752D01*
X120768200Y-94232757D01*
X120364176Y-94636077D01*
X120145250Y-95163309D01*
X120144752Y-95734187D01*
X120362757Y-96261800D01*
X120766077Y-96665824D01*
X120956242Y-96744787D01*
X120915813Y-96744752D01*
X120388200Y-96962757D01*
X120090000Y-97260437D01*
X120090000Y-91457745D01*
X120751861Y-91457745D01*
X120825995Y-91703864D01*
X121363223Y-91896965D01*
X121933454Y-91869778D01*
X122334005Y-91703864D01*
X122351980Y-91644187D01*
X122964752Y-91644187D01*
X123182757Y-92171800D01*
X123586077Y-92575824D01*
X124113309Y-92794750D01*
X124684187Y-92795248D01*
X125211800Y-92577243D01*
X125615824Y-92173923D01*
X125834750Y-91646691D01*
X125834752Y-91644187D01*
X127964752Y-91644187D01*
X128182757Y-92171800D01*
X128586077Y-92575824D01*
X129113309Y-92794750D01*
X129684187Y-92795248D01*
X130211800Y-92577243D01*
X130615824Y-92173923D01*
X130801921Y-91725750D01*
X131103000Y-91725750D01*
X131103000Y-92416309D01*
X131199673Y-92649698D01*
X131378301Y-92828327D01*
X131611690Y-92925000D01*
X132302250Y-92925000D01*
X132461000Y-92766250D01*
X132461000Y-91567000D01*
X132715000Y-91567000D01*
X132715000Y-92766250D01*
X132873750Y-92925000D01*
X133564310Y-92925000D01*
X133797699Y-92828327D01*
X133976327Y-92649698D01*
X134063136Y-92440122D01*
X134361076Y-92711645D01*
X134771110Y-92881476D01*
X135001000Y-92760155D01*
X135001000Y-91567000D01*
X132715000Y-91567000D01*
X132461000Y-91567000D01*
X131261750Y-91567000D01*
X131103000Y-91725750D01*
X130801921Y-91725750D01*
X130834750Y-91646691D01*
X130835248Y-91075813D01*
X130617243Y-90548200D01*
X130532882Y-90463691D01*
X131103000Y-90463691D01*
X131103000Y-91154250D01*
X131261750Y-91313000D01*
X132461000Y-91313000D01*
X132461000Y-90113750D01*
X132715000Y-90113750D01*
X132715000Y-91313000D01*
X135001000Y-91313000D01*
X135001000Y-90119845D01*
X135255000Y-90119845D01*
X135255000Y-91313000D01*
X135275000Y-91313000D01*
X135275000Y-91567000D01*
X135255000Y-91567000D01*
X135255000Y-92760155D01*
X135484890Y-92881476D01*
X135894924Y-92711645D01*
X136323183Y-92321358D01*
X136390298Y-92178447D01*
X136617946Y-92519147D01*
X137099715Y-92841054D01*
X137668000Y-92954093D01*
X138236285Y-92841054D01*
X138718054Y-92519147D01*
X138938000Y-92189974D01*
X139157946Y-92519147D01*
X139639715Y-92841054D01*
X140208000Y-92954093D01*
X140776285Y-92841054D01*
X141258054Y-92519147D01*
X141579961Y-92037378D01*
X141693000Y-91469093D01*
X141693000Y-91410907D01*
X141678448Y-91337745D01*
X147111861Y-91337745D01*
X147185995Y-91583864D01*
X147723223Y-91776965D01*
X148293454Y-91749778D01*
X148694005Y-91583864D01*
X148768139Y-91337745D01*
X147940000Y-90509605D01*
X147111861Y-91337745D01*
X141678448Y-91337745D01*
X141579961Y-90842622D01*
X141258054Y-90360853D01*
X140776285Y-90038946D01*
X140208000Y-89925907D01*
X139639715Y-90038946D01*
X139157946Y-90360853D01*
X138938000Y-90690026D01*
X138718054Y-90360853D01*
X138236285Y-90038946D01*
X137668000Y-89925907D01*
X137099715Y-90038946D01*
X136617946Y-90360853D01*
X136390298Y-90701553D01*
X136323183Y-90558642D01*
X135894924Y-90168355D01*
X135484890Y-89998524D01*
X135255000Y-90119845D01*
X135001000Y-90119845D01*
X134771110Y-89998524D01*
X134361076Y-90168355D01*
X134063136Y-90439878D01*
X133976327Y-90230302D01*
X133797699Y-90051673D01*
X133564310Y-89955000D01*
X132873750Y-89955000D01*
X132715000Y-90113750D01*
X132461000Y-90113750D01*
X132302250Y-89955000D01*
X131611690Y-89955000D01*
X131378301Y-90051673D01*
X131199673Y-90230302D01*
X131103000Y-90463691D01*
X130532882Y-90463691D01*
X130213923Y-90144176D01*
X129686691Y-89925250D01*
X129115813Y-89924752D01*
X128588200Y-90142757D01*
X128184176Y-90546077D01*
X127965250Y-91073309D01*
X127964752Y-91644187D01*
X125834752Y-91644187D01*
X125835248Y-91075813D01*
X125617243Y-90548200D01*
X125213923Y-90144176D01*
X124686691Y-89925250D01*
X124115813Y-89924752D01*
X123588200Y-90142757D01*
X123184176Y-90546077D01*
X122965250Y-91073309D01*
X122964752Y-91644187D01*
X122351980Y-91644187D01*
X122408139Y-91457745D01*
X121580000Y-90629605D01*
X120751861Y-91457745D01*
X120090000Y-91457745D01*
X120090000Y-89610000D01*
X120560392Y-89610000D01*
X120572253Y-89621861D01*
X120572253Y-89621861D01*
G37*
X120572253Y-89621861D02*
X120326136Y-89695995D01*
X120133035Y-90233223D01*
X120160222Y-90803454D01*
X120326136Y-91204005D01*
X120572255Y-91278139D01*
X121400395Y-90450000D01*
X121386252Y-90435858D01*
X121565858Y-90256252D01*
X121580000Y-90270395D01*
X121594142Y-90256252D01*
X121773748Y-90435858D01*
X121759605Y-90450000D01*
X122587745Y-91278139D01*
X122833864Y-91204005D01*
X123026965Y-90666777D01*
X122999778Y-90096546D01*
X122833864Y-89695995D01*
X122587747Y-89621861D01*
X122599608Y-89610000D01*
X146673913Y-89610000D01*
X146493035Y-90113223D01*
X146520222Y-90683454D01*
X146686136Y-91084005D01*
X146932255Y-91158139D01*
X147760395Y-90330000D01*
X147746252Y-90315858D01*
X147925858Y-90136252D01*
X147940000Y-90150395D01*
X147954142Y-90136252D01*
X148133748Y-90315858D01*
X148119605Y-90330000D01*
X148947745Y-91158139D01*
X149150000Y-91097217D01*
X149150000Y-94510944D01*
X148753923Y-94114176D01*
X148226691Y-93895250D01*
X147655813Y-93894752D01*
X147128200Y-94112757D01*
X146724176Y-94516077D01*
X146505250Y-95043309D01*
X146504752Y-95614187D01*
X146722757Y-96141800D01*
X147126077Y-96545824D01*
X147653309Y-96764750D01*
X148224187Y-96765248D01*
X148751800Y-96547243D01*
X149150000Y-96149737D01*
X149150000Y-113590000D01*
X148582164Y-113590000D01*
X148916824Y-113255923D01*
X149135750Y-112728691D01*
X149136248Y-112157813D01*
X148918243Y-111630200D01*
X148514923Y-111226176D01*
X147987691Y-111007250D01*
X147416813Y-111006752D01*
X146889200Y-111224757D01*
X146485176Y-111628077D01*
X146266250Y-112155309D01*
X146265752Y-112726187D01*
X146483757Y-113253800D01*
X146819371Y-113590000D01*
X123990818Y-113590000D01*
X124172264Y-113153030D01*
X124172901Y-112423022D01*
X124017016Y-112045750D01*
X131103000Y-112045750D01*
X131103000Y-112736309D01*
X131199673Y-112969698D01*
X131378301Y-113148327D01*
X131611690Y-113245000D01*
X132302250Y-113245000D01*
X132461000Y-113086250D01*
X132461000Y-111887000D01*
X132715000Y-111887000D01*
X132715000Y-113086250D01*
X132873750Y-113245000D01*
X133564310Y-113245000D01*
X133797699Y-113148327D01*
X133976327Y-112969698D01*
X134063136Y-112760122D01*
X134361076Y-113031645D01*
X134771110Y-113201476D01*
X135001000Y-113080155D01*
X135001000Y-111887000D01*
X132715000Y-111887000D01*
X132461000Y-111887000D01*
X131261750Y-111887000D01*
X131103000Y-112045750D01*
X124017016Y-112045750D01*
X123894128Y-111748339D01*
X123378384Y-111231695D01*
X122704188Y-110951744D01*
X121974180Y-110951107D01*
X121299497Y-111229880D01*
X120782853Y-111745624D01*
X120502902Y-112419820D01*
X120502265Y-113149828D01*
X120684140Y-113590000D01*
X120090000Y-113590000D01*
X120090000Y-110783691D01*
X131103000Y-110783691D01*
X131103000Y-111474250D01*
X131261750Y-111633000D01*
X132461000Y-111633000D01*
X132461000Y-110433750D01*
X132715000Y-110433750D01*
X132715000Y-111633000D01*
X135001000Y-111633000D01*
X135001000Y-110439845D01*
X135255000Y-110439845D01*
X135255000Y-111633000D01*
X135275000Y-111633000D01*
X135275000Y-111887000D01*
X135255000Y-111887000D01*
X135255000Y-113080155D01*
X135484890Y-113201476D01*
X135894924Y-113031645D01*
X136323183Y-112641358D01*
X136390298Y-112498447D01*
X136617946Y-112839147D01*
X137099715Y-113161054D01*
X137668000Y-113274093D01*
X138236285Y-113161054D01*
X138718054Y-112839147D01*
X138938000Y-112509974D01*
X139157946Y-112839147D01*
X139639715Y-113161054D01*
X140208000Y-113274093D01*
X140776285Y-113161054D01*
X141258054Y-112839147D01*
X141579961Y-112357378D01*
X141693000Y-111789093D01*
X141693000Y-111730907D01*
X141579961Y-111162622D01*
X141258054Y-110680853D01*
X140776285Y-110358946D01*
X140208000Y-110245907D01*
X139639715Y-110358946D01*
X139157946Y-110680853D01*
X138938000Y-111010026D01*
X138718054Y-110680853D01*
X138236285Y-110358946D01*
X137668000Y-110245907D01*
X137099715Y-110358946D01*
X136617946Y-110680853D01*
X136390298Y-111021553D01*
X136323183Y-110878642D01*
X135894924Y-110488355D01*
X135484890Y-110318524D01*
X135255000Y-110439845D01*
X135001000Y-110439845D01*
X134771110Y-110318524D01*
X134361076Y-110488355D01*
X134063136Y-110759878D01*
X133976327Y-110550302D01*
X133797699Y-110371673D01*
X133564310Y-110275000D01*
X132873750Y-110275000D01*
X132715000Y-110433750D01*
X132461000Y-110433750D01*
X132302250Y-110275000D01*
X131611690Y-110275000D01*
X131378301Y-110371673D01*
X131199673Y-110550302D01*
X131103000Y-110783691D01*
X120090000Y-110783691D01*
X120090000Y-108515729D01*
X138279154Y-108515729D01*
X138557927Y-109190412D01*
X139073671Y-109707056D01*
X139747867Y-109987007D01*
X140477875Y-109987644D01*
X141152558Y-109708871D01*
X141669202Y-109193127D01*
X141949153Y-108518931D01*
X141949213Y-108449745D01*
X146872861Y-108449745D01*
X146946995Y-108695864D01*
X147484223Y-108888965D01*
X148054454Y-108861778D01*
X148455005Y-108695864D01*
X148529139Y-108449745D01*
X147701000Y-107621605D01*
X146872861Y-108449745D01*
X141949213Y-108449745D01*
X141949790Y-107788923D01*
X141716875Y-107225223D01*
X146254035Y-107225223D01*
X146281222Y-107795454D01*
X146447136Y-108196005D01*
X146693255Y-108270139D01*
X147521395Y-107442000D01*
X147880605Y-107442000D01*
X148708745Y-108270139D01*
X148954864Y-108196005D01*
X149147965Y-107658777D01*
X149120778Y-107088546D01*
X148954864Y-106687995D01*
X148708745Y-106613861D01*
X147880605Y-107442000D01*
X147521395Y-107442000D01*
X146693255Y-106613861D01*
X146447136Y-106687995D01*
X146254035Y-107225223D01*
X141716875Y-107225223D01*
X141671017Y-107114240D01*
X141155273Y-106597596D01*
X140761905Y-106434255D01*
X146872861Y-106434255D01*
X147701000Y-107262395D01*
X148529139Y-106434255D01*
X148455005Y-106188136D01*
X147917777Y-105995035D01*
X147347546Y-106022222D01*
X146946995Y-106188136D01*
X146872861Y-106434255D01*
X140761905Y-106434255D01*
X140481077Y-106317645D01*
X139751069Y-106317008D01*
X139076386Y-106595781D01*
X138559742Y-107111525D01*
X138279791Y-107785721D01*
X138279154Y-108515729D01*
X120090000Y-108515729D01*
X120090000Y-106836650D01*
X133370853Y-106836650D01*
X133588858Y-107364263D01*
X133992178Y-107768287D01*
X134519410Y-107987213D01*
X135090288Y-107987711D01*
X135617901Y-107769706D01*
X136021925Y-107366386D01*
X136240851Y-106839154D01*
X136241349Y-106268276D01*
X136023344Y-105740663D01*
X135620024Y-105336639D01*
X135092792Y-105117713D01*
X134521914Y-105117215D01*
X133994301Y-105335220D01*
X133590277Y-105738540D01*
X133371351Y-106265772D01*
X133370853Y-106836650D01*
X120090000Y-106836650D01*
X120090000Y-102138187D01*
X131660752Y-102138187D01*
X131878757Y-102665800D01*
X132282077Y-103069824D01*
X132809309Y-103288750D01*
X133380187Y-103289248D01*
X133907800Y-103071243D01*
X134311824Y-102667923D01*
X134530750Y-102140691D01*
X134531248Y-101569813D01*
X134313243Y-101042200D01*
X133909923Y-100638176D01*
X133382691Y-100419250D01*
X132811813Y-100418752D01*
X132284200Y-100636757D01*
X131880176Y-101040077D01*
X131661250Y-101567309D01*
X131660752Y-102138187D01*
X120090000Y-102138187D01*
X120090000Y-100103108D01*
X127884682Y-100103108D01*
X128163455Y-100777791D01*
X128679199Y-101294435D01*
X129353395Y-101574386D01*
X130083403Y-101575023D01*
X130758086Y-101296250D01*
X131274730Y-100780506D01*
X131554681Y-100106310D01*
X131555318Y-99376302D01*
X131276545Y-98701619D01*
X130760801Y-98184975D01*
X130086605Y-97905024D01*
X129356597Y-97904387D01*
X128681914Y-98183160D01*
X128165270Y-98698904D01*
X127885319Y-99373100D01*
X127884682Y-100103108D01*
X120090000Y-100103108D01*
X120090000Y-99099230D01*
X120386077Y-99395824D01*
X120913309Y-99614750D01*
X121484187Y-99615248D01*
X122011800Y-99397243D01*
X122415824Y-98993923D01*
X122634750Y-98466691D01*
X122634752Y-98464187D01*
X124764752Y-98464187D01*
X124982757Y-98991800D01*
X125386077Y-99395824D01*
X125913309Y-99614750D01*
X126484187Y-99615248D01*
X127011800Y-99397243D01*
X127415824Y-98993923D01*
X127634750Y-98466691D01*
X127635248Y-97895813D01*
X127417243Y-97368200D01*
X127013923Y-96964176D01*
X126486691Y-96745250D01*
X125915813Y-96744752D01*
X125388200Y-96962757D01*
X124984176Y-97366077D01*
X124765250Y-97893309D01*
X124764752Y-98464187D01*
X122634752Y-98464187D01*
X122635248Y-97895813D01*
X122417243Y-97368200D01*
X122013923Y-96964176D01*
X121823758Y-96885213D01*
X121864187Y-96885248D01*
X122391800Y-96667243D01*
X122795824Y-96263923D01*
X123014750Y-95736691D01*
X123015248Y-95165813D01*
X122948466Y-95004187D01*
X122984752Y-95004187D01*
X123202757Y-95531800D01*
X123606077Y-95935824D01*
X124133309Y-96154750D01*
X124704187Y-96155248D01*
X125231800Y-95937243D01*
X125635824Y-95533923D01*
X125854750Y-95006691D01*
X125854752Y-95004187D01*
X127984752Y-95004187D01*
X128202757Y-95531800D01*
X128606077Y-95935824D01*
X129133309Y-96154750D01*
X129704187Y-96155248D01*
X130231800Y-95937243D01*
X130635824Y-95533923D01*
X130854750Y-95006691D01*
X130855248Y-94435813D01*
X130676354Y-94002855D01*
X142033282Y-94002855D01*
X142312055Y-94677538D01*
X142827799Y-95194182D01*
X143501995Y-95474133D01*
X144232003Y-95474770D01*
X144906686Y-95195997D01*
X145423330Y-94680253D01*
X145703281Y-94006057D01*
X145703918Y-93276049D01*
X145425145Y-92601366D01*
X144909401Y-92084722D01*
X144235205Y-91804771D01*
X143505197Y-91804134D01*
X142830514Y-92082907D01*
X142313870Y-92598651D01*
X142033919Y-93272847D01*
X142033282Y-94002855D01*
X130676354Y-94002855D01*
X130637243Y-93908200D01*
X130233923Y-93504176D01*
X129706691Y-93285250D01*
X129135813Y-93284752D01*
X128608200Y-93502757D01*
X128204176Y-93906077D01*
X127985250Y-94433309D01*
X127984752Y-95004187D01*
X125854752Y-95004187D01*
X125855248Y-94435813D01*
X125637243Y-93908200D01*
X125233923Y-93504176D01*
X124706691Y-93285250D01*
X124135813Y-93284752D01*
X123608200Y-93502757D01*
X123204176Y-93906077D01*
X122985250Y-94433309D01*
X122984752Y-95004187D01*
X122948466Y-95004187D01*
X122797243Y-94638200D01*
X122393923Y-94234176D01*
X121866691Y-94015250D01*
X121295813Y-94014752D01*
X120768200Y-94232757D01*
X120364176Y-94636077D01*
X120145250Y-95163309D01*
X120144752Y-95734187D01*
X120362757Y-96261800D01*
X120766077Y-96665824D01*
X120956242Y-96744787D01*
X120915813Y-96744752D01*
X120388200Y-96962757D01*
X120090000Y-97260437D01*
X120090000Y-91457745D01*
X120751861Y-91457745D01*
X120825995Y-91703864D01*
X121363223Y-91896965D01*
X121933454Y-91869778D01*
X122334005Y-91703864D01*
X122351980Y-91644187D01*
X122964752Y-91644187D01*
X123182757Y-92171800D01*
X123586077Y-92575824D01*
X124113309Y-92794750D01*
X124684187Y-92795248D01*
X125211800Y-92577243D01*
X125615824Y-92173923D01*
X125834750Y-91646691D01*
X125834752Y-91644187D01*
X127964752Y-91644187D01*
X128182757Y-92171800D01*
X128586077Y-92575824D01*
X129113309Y-92794750D01*
X129684187Y-92795248D01*
X130211800Y-92577243D01*
X130615824Y-92173923D01*
X130801921Y-91725750D01*
X131103000Y-91725750D01*
X131103000Y-92416309D01*
X131199673Y-92649698D01*
X131378301Y-92828327D01*
X131611690Y-92925000D01*
X132302250Y-92925000D01*
X132461000Y-92766250D01*
X132461000Y-91567000D01*
X132715000Y-91567000D01*
X132715000Y-92766250D01*
X132873750Y-92925000D01*
X133564310Y-92925000D01*
X133797699Y-92828327D01*
X133976327Y-92649698D01*
X134063136Y-92440122D01*
X134361076Y-92711645D01*
X134771110Y-92881476D01*
X135001000Y-92760155D01*
X135001000Y-91567000D01*
X132715000Y-91567000D01*
X132461000Y-91567000D01*
X131261750Y-91567000D01*
X131103000Y-91725750D01*
X130801921Y-91725750D01*
X130834750Y-91646691D01*
X130835248Y-91075813D01*
X130617243Y-90548200D01*
X130532882Y-90463691D01*
X131103000Y-90463691D01*
X131103000Y-91154250D01*
X131261750Y-91313000D01*
X132461000Y-91313000D01*
X132461000Y-90113750D01*
X132715000Y-90113750D01*
X132715000Y-91313000D01*
X135001000Y-91313000D01*
X135001000Y-90119845D01*
X135255000Y-90119845D01*
X135255000Y-91313000D01*
X135275000Y-91313000D01*
X135275000Y-91567000D01*
X135255000Y-91567000D01*
X135255000Y-92760155D01*
X135484890Y-92881476D01*
X135894924Y-92711645D01*
X136323183Y-92321358D01*
X136390298Y-92178447D01*
X136617946Y-92519147D01*
X137099715Y-92841054D01*
X137668000Y-92954093D01*
X138236285Y-92841054D01*
X138718054Y-92519147D01*
X138938000Y-92189974D01*
X139157946Y-92519147D01*
X139639715Y-92841054D01*
X140208000Y-92954093D01*
X140776285Y-92841054D01*
X141258054Y-92519147D01*
X141579961Y-92037378D01*
X141693000Y-91469093D01*
X141693000Y-91410907D01*
X141678448Y-91337745D01*
X147111861Y-91337745D01*
X147185995Y-91583864D01*
X147723223Y-91776965D01*
X148293454Y-91749778D01*
X148694005Y-91583864D01*
X148768139Y-91337745D01*
X147940000Y-90509605D01*
X147111861Y-91337745D01*
X141678448Y-91337745D01*
X141579961Y-90842622D01*
X141258054Y-90360853D01*
X140776285Y-90038946D01*
X140208000Y-89925907D01*
X139639715Y-90038946D01*
X139157946Y-90360853D01*
X138938000Y-90690026D01*
X138718054Y-90360853D01*
X138236285Y-90038946D01*
X137668000Y-89925907D01*
X137099715Y-90038946D01*
X136617946Y-90360853D01*
X136390298Y-90701553D01*
X136323183Y-90558642D01*
X135894924Y-90168355D01*
X135484890Y-89998524D01*
X135255000Y-90119845D01*
X135001000Y-90119845D01*
X134771110Y-89998524D01*
X134361076Y-90168355D01*
X134063136Y-90439878D01*
X133976327Y-90230302D01*
X133797699Y-90051673D01*
X133564310Y-89955000D01*
X132873750Y-89955000D01*
X132715000Y-90113750D01*
X132461000Y-90113750D01*
X132302250Y-89955000D01*
X131611690Y-89955000D01*
X131378301Y-90051673D01*
X131199673Y-90230302D01*
X131103000Y-90463691D01*
X130532882Y-90463691D01*
X130213923Y-90144176D01*
X129686691Y-89925250D01*
X129115813Y-89924752D01*
X128588200Y-90142757D01*
X128184176Y-90546077D01*
X127965250Y-91073309D01*
X127964752Y-91644187D01*
X125834752Y-91644187D01*
X125835248Y-91075813D01*
X125617243Y-90548200D01*
X125213923Y-90144176D01*
X124686691Y-89925250D01*
X124115813Y-89924752D01*
X123588200Y-90142757D01*
X123184176Y-90546077D01*
X122965250Y-91073309D01*
X122964752Y-91644187D01*
X122351980Y-91644187D01*
X122408139Y-91457745D01*
X121580000Y-90629605D01*
X120751861Y-91457745D01*
X120090000Y-91457745D01*
X120090000Y-89610000D01*
X120560392Y-89610000D01*
X120572253Y-89621861D01*
M02*
