%TF.GenerationSoftware,KiCad,Pcbnew,(6.0.11)*%
%TF.CreationDate,2023-05-06T11:30:12-05:00*%
%TF.ProjectId,BandPassFilter,42616e64-5061-4737-9346-696c7465722e,rev?*%
%TF.SameCoordinates,Original*%
%TF.FileFunction,Legend,Top*%
%TF.FilePolarity,Positive*%
%FSLAX46Y46*%
G04 Gerber Fmt 4.6, Leading zero omitted, Abs format (unit mm)*
G04 Created by KiCad (PCBNEW (6.0.11)) date 2023-05-06 11:30:12*
%MOMM*%
%LPD*%
G01*
G04 APERTURE LIST*
%ADD10C,5.000000*%
%ADD11C,3.500000*%
%ADD12C,0.200000*%
%ADD13C,4.000000*%
%ADD14C,0.150000*%
%ADD15C,0.120000*%
G04 APERTURE END LIST*
D10*
X179554500Y-110282000D02*
X179554500Y-111361500D01*
X145294500Y-139782000D02*
X145294500Y-140861500D01*
D11*
X213960000Y-84660000D02*
X211420000Y-84660000D01*
D12*
X149860000Y-88900000D02*
X149860000Y-114300000D01*
X215900000Y-60960000D02*
X215900000Y-86360000D01*
X216030000Y-142750000D02*
X190630000Y-142750000D01*
X170000000Y-60000000D02*
X170000000Y-85000000D01*
X151130000Y-118110000D02*
X151130000Y-143510000D01*
X151130000Y-143510000D02*
X120650000Y-143510000D01*
X119380000Y-88900000D02*
X149860000Y-88900000D01*
X170000000Y-85000000D02*
X119000000Y-85000000D01*
X176530000Y-62230000D02*
X176530000Y-60960000D01*
X190630000Y-142750000D02*
X190630000Y-100840000D01*
D13*
X197730000Y-110800000D02*
X197730000Y-113930000D01*
D12*
X185420000Y-142240000D02*
X185420000Y-143510000D01*
X176530000Y-60960000D02*
X176530000Y-62230000D01*
D11*
X172310000Y-137270000D02*
X169770000Y-137270000D01*
D12*
X157480000Y-143510000D02*
X157480000Y-142240000D01*
X176530000Y-86360000D02*
X176530000Y-60960000D01*
X216030000Y-100840000D02*
X216030000Y-142750000D01*
X119380000Y-114300000D02*
X119380000Y-88900000D01*
X154940000Y-114300000D02*
X154940000Y-88900000D01*
X176530000Y-60960000D02*
X215900000Y-60960000D01*
X120650000Y-143510000D02*
X120650000Y-118110000D01*
X185420000Y-118110000D02*
X185420000Y-142240000D01*
X185420000Y-143510000D02*
X157480000Y-143510000D01*
X157480000Y-118110000D02*
X185420000Y-118110000D01*
X119000000Y-60000000D02*
X170000000Y-60000000D01*
X157480000Y-142240000D02*
X157480000Y-118110000D01*
X154940000Y-88900000D02*
X185420000Y-88900000D01*
X120650000Y-118110000D02*
X151130000Y-118110000D01*
X190630000Y-100840000D02*
X216030000Y-100840000D01*
D10*
X143954500Y-109982000D02*
X143954500Y-111061500D01*
D12*
X185420000Y-88900000D02*
X185420000Y-114300000D01*
X185420000Y-114300000D02*
X154940000Y-114300000D01*
X215900000Y-86360000D02*
X176530000Y-86360000D01*
X119000000Y-85000000D02*
X119000000Y-60000000D01*
X149860000Y-114300000D02*
X119380000Y-114300000D01*
D14*
X129120000Y-141972380D02*
X129310476Y-141972380D01*
X129405714Y-142020000D01*
X129500952Y-142115238D01*
X129548571Y-142305714D01*
X129548571Y-142639047D01*
X129500952Y-142829523D01*
X129405714Y-142924761D01*
X129310476Y-142972380D01*
X129120000Y-142972380D01*
X129024761Y-142924761D01*
X128929523Y-142829523D01*
X128881904Y-142639047D01*
X128881904Y-142305714D01*
X128929523Y-142115238D01*
X129024761Y-142020000D01*
X129120000Y-141972380D01*
X129977142Y-141972380D02*
X129977142Y-142781904D01*
X130024761Y-142877142D01*
X130072380Y-142924761D01*
X130167619Y-142972380D01*
X130358095Y-142972380D01*
X130453333Y-142924761D01*
X130500952Y-142877142D01*
X130548571Y-142781904D01*
X130548571Y-141972380D01*
X130881904Y-141972380D02*
X131453333Y-141972380D01*
X131167619Y-142972380D02*
X131167619Y-141972380D01*
X161377333Y-106624380D02*
X160901142Y-106624380D01*
X160901142Y-105624380D01*
X161615428Y-105624380D02*
X162234476Y-105624380D01*
X161901142Y-106005333D01*
X162044000Y-106005333D01*
X162139238Y-106052952D01*
X162186857Y-106100571D01*
X162234476Y-106195809D01*
X162234476Y-106433904D01*
X162186857Y-106529142D01*
X162139238Y-106576761D01*
X162044000Y-106624380D01*
X161758285Y-106624380D01*
X161663047Y-106576761D01*
X161615428Y-106529142D01*
X127777142Y-123566666D02*
X127824761Y-123614285D01*
X127872380Y-123757142D01*
X127872380Y-123852380D01*
X127824761Y-123995238D01*
X127729523Y-124090476D01*
X127634285Y-124138095D01*
X127443809Y-124185714D01*
X127300952Y-124185714D01*
X127110476Y-124138095D01*
X127015238Y-124090476D01*
X126920000Y-123995238D01*
X126872380Y-123852380D01*
X126872380Y-123757142D01*
X126920000Y-123614285D01*
X126967619Y-123566666D01*
X126872380Y-123233333D02*
X126872380Y-122614285D01*
X127253333Y-122947619D01*
X127253333Y-122804761D01*
X127300952Y-122709523D01*
X127348571Y-122661904D01*
X127443809Y-122614285D01*
X127681904Y-122614285D01*
X127777142Y-122661904D01*
X127824761Y-122709523D01*
X127872380Y-122804761D01*
X127872380Y-123090476D01*
X127824761Y-123185714D01*
X127777142Y-123233333D01*
X183633333Y-68572380D02*
X183157142Y-68572380D01*
X183157142Y-67572380D01*
X183871428Y-67572380D02*
X184490476Y-67572380D01*
X184157142Y-67953333D01*
X184300000Y-67953333D01*
X184395238Y-68000952D01*
X184442857Y-68048571D01*
X184490476Y-68143809D01*
X184490476Y-68381904D01*
X184442857Y-68477142D01*
X184395238Y-68524761D01*
X184300000Y-68572380D01*
X184014285Y-68572380D01*
X183919047Y-68524761D01*
X183871428Y-68477142D01*
X135335534Y-134502607D02*
X135307074Y-134563641D01*
X135189118Y-134657249D01*
X135099624Y-134689822D01*
X134949095Y-134693935D01*
X134827027Y-134637014D01*
X134749707Y-134563806D01*
X134639813Y-134401103D01*
X134590953Y-134266861D01*
X134570553Y-134071586D01*
X134582727Y-133965804D01*
X134639649Y-133843737D01*
X134757604Y-133750129D01*
X134847098Y-133717556D01*
X134997627Y-133713443D01*
X135058661Y-133741904D01*
X135339318Y-133538403D02*
X135965780Y-133310389D01*
X135905075Y-134396662D01*
X156603333Y-93127142D02*
X156555714Y-93174761D01*
X156412857Y-93222380D01*
X156317619Y-93222380D01*
X156174761Y-93174761D01*
X156079523Y-93079523D01*
X156031904Y-92984285D01*
X155984285Y-92793809D01*
X155984285Y-92650952D01*
X156031904Y-92460476D01*
X156079523Y-92365238D01*
X156174761Y-92270000D01*
X156317619Y-92222380D01*
X156412857Y-92222380D01*
X156555714Y-92270000D01*
X156603333Y-92317619D01*
X157460476Y-92555714D02*
X157460476Y-93222380D01*
X157222380Y-92174761D02*
X156984285Y-92889047D01*
X157603333Y-92889047D01*
X130976190Y-67452380D02*
X130976190Y-66452380D01*
X131452380Y-67452380D02*
X131452380Y-66452380D01*
X132023809Y-67452380D01*
X132023809Y-66452380D01*
X132500000Y-67452380D02*
X132500000Y-66452380D01*
X132880952Y-66452380D01*
X132976190Y-66500000D01*
X133023809Y-66547619D01*
X133071428Y-66642857D01*
X133071428Y-66785714D01*
X133023809Y-66880952D01*
X132976190Y-66928571D01*
X132880952Y-66976190D01*
X132500000Y-66976190D01*
X125643333Y-106792380D02*
X125167142Y-106792380D01*
X125167142Y-105792380D01*
X125881428Y-105792380D02*
X126500476Y-105792380D01*
X126167142Y-106173333D01*
X126310000Y-106173333D01*
X126405238Y-106220952D01*
X126452857Y-106268571D01*
X126500476Y-106363809D01*
X126500476Y-106601904D01*
X126452857Y-106697142D01*
X126405238Y-106744761D01*
X126310000Y-106792380D01*
X126024285Y-106792380D01*
X125929047Y-106744761D01*
X125881428Y-106697142D01*
X142443333Y-129952380D02*
X141967142Y-129952380D01*
X141967142Y-128952380D01*
X142729047Y-129047619D02*
X142776666Y-129000000D01*
X142871904Y-128952380D01*
X143110000Y-128952380D01*
X143205238Y-129000000D01*
X143252857Y-129047619D01*
X143300476Y-129142857D01*
X143300476Y-129238095D01*
X143252857Y-129380952D01*
X142681428Y-129952380D01*
X143300476Y-129952380D01*
X192703333Y-138777142D02*
X192655714Y-138824761D01*
X192512857Y-138872380D01*
X192417619Y-138872380D01*
X192274761Y-138824761D01*
X192179523Y-138729523D01*
X192131904Y-138634285D01*
X192084285Y-138443809D01*
X192084285Y-138300952D01*
X192131904Y-138110476D01*
X192179523Y-138015238D01*
X192274761Y-137920000D01*
X192417619Y-137872380D01*
X192512857Y-137872380D01*
X192655714Y-137920000D01*
X192703333Y-137967619D01*
X193608095Y-137872380D02*
X193131904Y-137872380D01*
X193084285Y-138348571D01*
X193131904Y-138300952D01*
X193227142Y-138253333D01*
X193465238Y-138253333D01*
X193560476Y-138300952D01*
X193608095Y-138348571D01*
X193655714Y-138443809D01*
X193655714Y-138681904D01*
X193608095Y-138777142D01*
X193560476Y-138824761D01*
X193465238Y-138872380D01*
X193227142Y-138872380D01*
X193131904Y-138824761D01*
X193084285Y-138777142D01*
X132059047Y-94038571D02*
X132201904Y-94086190D01*
X132249523Y-94133809D01*
X132297142Y-94229047D01*
X132297142Y-94371904D01*
X132249523Y-94467142D01*
X132201904Y-94514761D01*
X132106666Y-94562380D01*
X131725714Y-94562380D01*
X131725714Y-93562380D01*
X132059047Y-93562380D01*
X132154285Y-93610000D01*
X132201904Y-93657619D01*
X132249523Y-93752857D01*
X132249523Y-93848095D01*
X132201904Y-93943333D01*
X132154285Y-93990952D01*
X132059047Y-94038571D01*
X131725714Y-94038571D01*
X132678095Y-94276666D02*
X133154285Y-94276666D01*
X132582857Y-94562380D02*
X132916190Y-93562380D01*
X133249523Y-94562380D01*
X133582857Y-94562380D02*
X133582857Y-93562380D01*
X134154285Y-94562380D01*
X134154285Y-93562380D01*
X134630476Y-94562380D02*
X134630476Y-93562380D01*
X134868571Y-93562380D01*
X135011428Y-93610000D01*
X135106666Y-93705238D01*
X135154285Y-93800476D01*
X135201904Y-93990952D01*
X135201904Y-94133809D01*
X135154285Y-94324285D01*
X135106666Y-94419523D01*
X135011428Y-94514761D01*
X134868571Y-94562380D01*
X134630476Y-94562380D01*
X131797142Y-96172380D02*
X131797142Y-95172380D01*
X132178095Y-95172380D01*
X132273333Y-95220000D01*
X132320952Y-95267619D01*
X132368571Y-95362857D01*
X132368571Y-95505714D01*
X132320952Y-95600952D01*
X132273333Y-95648571D01*
X132178095Y-95696190D01*
X131797142Y-95696190D01*
X132749523Y-95886666D02*
X133225714Y-95886666D01*
X132654285Y-96172380D02*
X132987619Y-95172380D01*
X133320952Y-96172380D01*
X133606666Y-96124761D02*
X133749523Y-96172380D01*
X133987619Y-96172380D01*
X134082857Y-96124761D01*
X134130476Y-96077142D01*
X134178095Y-95981904D01*
X134178095Y-95886666D01*
X134130476Y-95791428D01*
X134082857Y-95743809D01*
X133987619Y-95696190D01*
X133797142Y-95648571D01*
X133701904Y-95600952D01*
X133654285Y-95553333D01*
X133606666Y-95458095D01*
X133606666Y-95362857D01*
X133654285Y-95267619D01*
X133701904Y-95220000D01*
X133797142Y-95172380D01*
X134035238Y-95172380D01*
X134178095Y-95220000D01*
X134559047Y-96124761D02*
X134701904Y-96172380D01*
X134940000Y-96172380D01*
X135035238Y-96124761D01*
X135082857Y-96077142D01*
X135130476Y-95981904D01*
X135130476Y-95886666D01*
X135082857Y-95791428D01*
X135035238Y-95743809D01*
X134940000Y-95696190D01*
X134749523Y-95648571D01*
X134654285Y-95600952D01*
X134606666Y-95553333D01*
X134559047Y-95458095D01*
X134559047Y-95362857D01*
X134606666Y-95267619D01*
X134654285Y-95220000D01*
X134749523Y-95172380D01*
X134987619Y-95172380D01*
X135130476Y-95220000D01*
X131606666Y-97258571D02*
X131273333Y-97258571D01*
X131273333Y-97782380D02*
X131273333Y-96782380D01*
X131749523Y-96782380D01*
X132130476Y-97782380D02*
X132130476Y-96782380D01*
X133082857Y-97782380D02*
X132606666Y-97782380D01*
X132606666Y-96782380D01*
X133273333Y-96782380D02*
X133844761Y-96782380D01*
X133559047Y-97782380D02*
X133559047Y-96782380D01*
X134178095Y-97258571D02*
X134511428Y-97258571D01*
X134654285Y-97782380D02*
X134178095Y-97782380D01*
X134178095Y-96782380D01*
X134654285Y-96782380D01*
X135654285Y-97782380D02*
X135320952Y-97306190D01*
X135082857Y-97782380D02*
X135082857Y-96782380D01*
X135463809Y-96782380D01*
X135559047Y-96830000D01*
X135606666Y-96877619D01*
X135654285Y-96972857D01*
X135654285Y-97115714D01*
X135606666Y-97210952D01*
X135559047Y-97258571D01*
X135463809Y-97306190D01*
X135082857Y-97306190D01*
X141713333Y-101452380D02*
X141237142Y-101452380D01*
X141237142Y-100452380D01*
X141999047Y-100547619D02*
X142046666Y-100500000D01*
X142141904Y-100452380D01*
X142380000Y-100452380D01*
X142475238Y-100500000D01*
X142522857Y-100547619D01*
X142570476Y-100642857D01*
X142570476Y-100738095D01*
X142522857Y-100880952D01*
X141951428Y-101452380D01*
X142570476Y-101452380D01*
X213963333Y-133297142D02*
X213915714Y-133344761D01*
X213772857Y-133392380D01*
X213677619Y-133392380D01*
X213534761Y-133344761D01*
X213439523Y-133249523D01*
X213391904Y-133154285D01*
X213344285Y-132963809D01*
X213344285Y-132820952D01*
X213391904Y-132630476D01*
X213439523Y-132535238D01*
X213534761Y-132440000D01*
X213677619Y-132392380D01*
X213772857Y-132392380D01*
X213915714Y-132440000D01*
X213963333Y-132487619D01*
X214534761Y-132820952D02*
X214439523Y-132773333D01*
X214391904Y-132725714D01*
X214344285Y-132630476D01*
X214344285Y-132582857D01*
X214391904Y-132487619D01*
X214439523Y-132440000D01*
X214534761Y-132392380D01*
X214725238Y-132392380D01*
X214820476Y-132440000D01*
X214868095Y-132487619D01*
X214915714Y-132582857D01*
X214915714Y-132630476D01*
X214868095Y-132725714D01*
X214820476Y-132773333D01*
X214725238Y-132820952D01*
X214534761Y-132820952D01*
X214439523Y-132868571D01*
X214391904Y-132916190D01*
X214344285Y-133011428D01*
X214344285Y-133201904D01*
X214391904Y-133297142D01*
X214439523Y-133344761D01*
X214534761Y-133392380D01*
X214725238Y-133392380D01*
X214820476Y-133344761D01*
X214868095Y-133297142D01*
X214915714Y-133201904D01*
X214915714Y-133011428D01*
X214868095Y-132916190D01*
X214820476Y-132868571D01*
X214725238Y-132820952D01*
X124487142Y-127086666D02*
X124534761Y-127134285D01*
X124582380Y-127277142D01*
X124582380Y-127372380D01*
X124534761Y-127515238D01*
X124439523Y-127610476D01*
X124344285Y-127658095D01*
X124153809Y-127705714D01*
X124010952Y-127705714D01*
X123820476Y-127658095D01*
X123725238Y-127610476D01*
X123630000Y-127515238D01*
X123582380Y-127372380D01*
X123582380Y-127277142D01*
X123630000Y-127134285D01*
X123677619Y-127086666D01*
X123582380Y-126181904D02*
X123582380Y-126658095D01*
X124058571Y-126705714D01*
X124010952Y-126658095D01*
X123963333Y-126562857D01*
X123963333Y-126324761D01*
X124010952Y-126229523D01*
X124058571Y-126181904D01*
X124153809Y-126134285D01*
X124391904Y-126134285D01*
X124487142Y-126181904D01*
X124534761Y-126229523D01*
X124582380Y-126324761D01*
X124582380Y-126562857D01*
X124534761Y-126658095D01*
X124487142Y-126705714D01*
X214700000Y-121567619D02*
X214509523Y-121567619D01*
X214414285Y-121520000D01*
X214319047Y-121424761D01*
X214271428Y-121234285D01*
X214271428Y-120900952D01*
X214319047Y-120710476D01*
X214414285Y-120615238D01*
X214509523Y-120567619D01*
X214700000Y-120567619D01*
X214795238Y-120615238D01*
X214890476Y-120710476D01*
X214938095Y-120900952D01*
X214938095Y-121234285D01*
X214890476Y-121424761D01*
X214795238Y-121520000D01*
X214700000Y-121567619D01*
X213842857Y-121567619D02*
X213842857Y-120758095D01*
X213795238Y-120662857D01*
X213747619Y-120615238D01*
X213652380Y-120567619D01*
X213461904Y-120567619D01*
X213366666Y-120615238D01*
X213319047Y-120662857D01*
X213271428Y-120758095D01*
X213271428Y-121567619D01*
X212938095Y-121567619D02*
X212366666Y-121567619D01*
X212652380Y-120567619D02*
X212652380Y-121567619D01*
X205282380Y-120826666D02*
X205282380Y-121302857D01*
X204282380Y-121302857D01*
X204615714Y-120064761D02*
X205282380Y-120064761D01*
X204234761Y-120302857D02*
X204949047Y-120540952D01*
X204949047Y-119921904D01*
X149283333Y-122857142D02*
X149235714Y-122904761D01*
X149092857Y-122952380D01*
X148997619Y-122952380D01*
X148854761Y-122904761D01*
X148759523Y-122809523D01*
X148711904Y-122714285D01*
X148664285Y-122523809D01*
X148664285Y-122380952D01*
X148711904Y-122190476D01*
X148759523Y-122095238D01*
X148854761Y-122000000D01*
X148997619Y-121952380D01*
X149092857Y-121952380D01*
X149235714Y-122000000D01*
X149283333Y-122047619D01*
X150235714Y-122952380D02*
X149664285Y-122952380D01*
X149950000Y-122952380D02*
X149950000Y-121952380D01*
X149854761Y-122095238D01*
X149759523Y-122190476D01*
X149664285Y-122238095D01*
X177292380Y-141710000D02*
X177292380Y-141519523D01*
X177340000Y-141424285D01*
X177435238Y-141329047D01*
X177625714Y-141281428D01*
X177959047Y-141281428D01*
X178149523Y-141329047D01*
X178244761Y-141424285D01*
X178292380Y-141519523D01*
X178292380Y-141710000D01*
X178244761Y-141805238D01*
X178149523Y-141900476D01*
X177959047Y-141948095D01*
X177625714Y-141948095D01*
X177435238Y-141900476D01*
X177340000Y-141805238D01*
X177292380Y-141710000D01*
X177292380Y-140852857D02*
X178101904Y-140852857D01*
X178197142Y-140805238D01*
X178244761Y-140757619D01*
X178292380Y-140662380D01*
X178292380Y-140471904D01*
X178244761Y-140376666D01*
X178197142Y-140329047D01*
X178101904Y-140281428D01*
X177292380Y-140281428D01*
X177292380Y-139948095D02*
X177292380Y-139376666D01*
X178292380Y-139662380D02*
X177292380Y-139662380D01*
X212487142Y-141406666D02*
X212534761Y-141454285D01*
X212582380Y-141597142D01*
X212582380Y-141692380D01*
X212534761Y-141835238D01*
X212439523Y-141930476D01*
X212344285Y-141978095D01*
X212153809Y-142025714D01*
X212010952Y-142025714D01*
X211820476Y-141978095D01*
X211725238Y-141930476D01*
X211630000Y-141835238D01*
X211582380Y-141692380D01*
X211582380Y-141597142D01*
X211630000Y-141454285D01*
X211677619Y-141406666D01*
X211582380Y-140549523D02*
X211582380Y-140740000D01*
X211630000Y-140835238D01*
X211677619Y-140882857D01*
X211820476Y-140978095D01*
X212010952Y-141025714D01*
X212391904Y-141025714D01*
X212487142Y-140978095D01*
X212534761Y-140930476D01*
X212582380Y-140835238D01*
X212582380Y-140644761D01*
X212534761Y-140549523D01*
X212487142Y-140501904D01*
X212391904Y-140454285D01*
X212153809Y-140454285D01*
X212058571Y-140501904D01*
X212010952Y-140549523D01*
X211963333Y-140644761D01*
X211963333Y-140835238D01*
X212010952Y-140930476D01*
X212058571Y-140978095D01*
X212153809Y-141025714D01*
X196333333Y-138777142D02*
X196285714Y-138824761D01*
X196142857Y-138872380D01*
X196047619Y-138872380D01*
X195904761Y-138824761D01*
X195809523Y-138729523D01*
X195761904Y-138634285D01*
X195714285Y-138443809D01*
X195714285Y-138300952D01*
X195761904Y-138110476D01*
X195809523Y-138015238D01*
X195904761Y-137920000D01*
X196047619Y-137872380D01*
X196142857Y-137872380D01*
X196285714Y-137920000D01*
X196333333Y-137967619D01*
X196666666Y-137872380D02*
X197333333Y-137872380D01*
X196904761Y-138872380D01*
X207943333Y-73912380D02*
X207467142Y-73912380D01*
X207467142Y-72912380D01*
X208800476Y-73912380D02*
X208229047Y-73912380D01*
X208514761Y-73912380D02*
X208514761Y-72912380D01*
X208419523Y-73055238D01*
X208324285Y-73150476D01*
X208229047Y-73198095D01*
X210002380Y-63798809D02*
X209002380Y-63798809D01*
X210002380Y-63322619D02*
X209002380Y-63322619D01*
X210002380Y-62751190D01*
X209002380Y-62751190D01*
X210002380Y-62275000D02*
X209002380Y-62275000D01*
X209002380Y-61894047D01*
X209050000Y-61798809D01*
X209097619Y-61751190D01*
X209192857Y-61703571D01*
X209335714Y-61703571D01*
X209430952Y-61751190D01*
X209478571Y-61798809D01*
X209526190Y-61894047D01*
X209526190Y-62275000D01*
X126863333Y-135672380D02*
X126387142Y-135672380D01*
X126387142Y-134672380D01*
X127101428Y-134672380D02*
X127720476Y-134672380D01*
X127387142Y-135053333D01*
X127530000Y-135053333D01*
X127625238Y-135100952D01*
X127672857Y-135148571D01*
X127720476Y-135243809D01*
X127720476Y-135481904D01*
X127672857Y-135577142D01*
X127625238Y-135624761D01*
X127530000Y-135672380D01*
X127244285Y-135672380D01*
X127149047Y-135624761D01*
X127101428Y-135577142D01*
X132699047Y-123208571D02*
X132841904Y-123256190D01*
X132889523Y-123303809D01*
X132937142Y-123399047D01*
X132937142Y-123541904D01*
X132889523Y-123637142D01*
X132841904Y-123684761D01*
X132746666Y-123732380D01*
X132365714Y-123732380D01*
X132365714Y-122732380D01*
X132699047Y-122732380D01*
X132794285Y-122780000D01*
X132841904Y-122827619D01*
X132889523Y-122922857D01*
X132889523Y-123018095D01*
X132841904Y-123113333D01*
X132794285Y-123160952D01*
X132699047Y-123208571D01*
X132365714Y-123208571D01*
X133318095Y-123446666D02*
X133794285Y-123446666D01*
X133222857Y-123732380D02*
X133556190Y-122732380D01*
X133889523Y-123732380D01*
X134222857Y-123732380D02*
X134222857Y-122732380D01*
X134794285Y-123732380D01*
X134794285Y-122732380D01*
X135270476Y-123732380D02*
X135270476Y-122732380D01*
X135508571Y-122732380D01*
X135651428Y-122780000D01*
X135746666Y-122875238D01*
X135794285Y-122970476D01*
X135841904Y-123160952D01*
X135841904Y-123303809D01*
X135794285Y-123494285D01*
X135746666Y-123589523D01*
X135651428Y-123684761D01*
X135508571Y-123732380D01*
X135270476Y-123732380D01*
X132437142Y-125342380D02*
X132437142Y-124342380D01*
X132818095Y-124342380D01*
X132913333Y-124390000D01*
X132960952Y-124437619D01*
X133008571Y-124532857D01*
X133008571Y-124675714D01*
X132960952Y-124770952D01*
X132913333Y-124818571D01*
X132818095Y-124866190D01*
X132437142Y-124866190D01*
X133389523Y-125056666D02*
X133865714Y-125056666D01*
X133294285Y-125342380D02*
X133627619Y-124342380D01*
X133960952Y-125342380D01*
X134246666Y-125294761D02*
X134389523Y-125342380D01*
X134627619Y-125342380D01*
X134722857Y-125294761D01*
X134770476Y-125247142D01*
X134818095Y-125151904D01*
X134818095Y-125056666D01*
X134770476Y-124961428D01*
X134722857Y-124913809D01*
X134627619Y-124866190D01*
X134437142Y-124818571D01*
X134341904Y-124770952D01*
X134294285Y-124723333D01*
X134246666Y-124628095D01*
X134246666Y-124532857D01*
X134294285Y-124437619D01*
X134341904Y-124390000D01*
X134437142Y-124342380D01*
X134675238Y-124342380D01*
X134818095Y-124390000D01*
X135199047Y-125294761D02*
X135341904Y-125342380D01*
X135580000Y-125342380D01*
X135675238Y-125294761D01*
X135722857Y-125247142D01*
X135770476Y-125151904D01*
X135770476Y-125056666D01*
X135722857Y-124961428D01*
X135675238Y-124913809D01*
X135580000Y-124866190D01*
X135389523Y-124818571D01*
X135294285Y-124770952D01*
X135246666Y-124723333D01*
X135199047Y-124628095D01*
X135199047Y-124532857D01*
X135246666Y-124437619D01*
X135294285Y-124390000D01*
X135389523Y-124342380D01*
X135627619Y-124342380D01*
X135770476Y-124390000D01*
X132246666Y-126428571D02*
X131913333Y-126428571D01*
X131913333Y-126952380D02*
X131913333Y-125952380D01*
X132389523Y-125952380D01*
X132770476Y-126952380D02*
X132770476Y-125952380D01*
X133722857Y-126952380D02*
X133246666Y-126952380D01*
X133246666Y-125952380D01*
X133913333Y-125952380D02*
X134484761Y-125952380D01*
X134199047Y-126952380D02*
X134199047Y-125952380D01*
X134818095Y-126428571D02*
X135151428Y-126428571D01*
X135294285Y-126952380D02*
X134818095Y-126952380D01*
X134818095Y-125952380D01*
X135294285Y-125952380D01*
X136294285Y-126952380D02*
X135960952Y-126476190D01*
X135722857Y-126952380D02*
X135722857Y-125952380D01*
X136103809Y-125952380D01*
X136199047Y-126000000D01*
X136246666Y-126047619D01*
X136294285Y-126142857D01*
X136294285Y-126285714D01*
X136246666Y-126380952D01*
X136199047Y-126428571D01*
X136103809Y-126476190D01*
X135722857Y-126476190D01*
X201247142Y-67236666D02*
X201294761Y-67284285D01*
X201342380Y-67427142D01*
X201342380Y-67522380D01*
X201294761Y-67665238D01*
X201199523Y-67760476D01*
X201104285Y-67808095D01*
X200913809Y-67855714D01*
X200770952Y-67855714D01*
X200580476Y-67808095D01*
X200485238Y-67760476D01*
X200390000Y-67665238D01*
X200342380Y-67522380D01*
X200342380Y-67427142D01*
X200390000Y-67284285D01*
X200437619Y-67236666D01*
X200342380Y-66903333D02*
X200342380Y-66284285D01*
X200723333Y-66617619D01*
X200723333Y-66474761D01*
X200770952Y-66379523D01*
X200818571Y-66331904D01*
X200913809Y-66284285D01*
X201151904Y-66284285D01*
X201247142Y-66331904D01*
X201294761Y-66379523D01*
X201342380Y-66474761D01*
X201342380Y-66760476D01*
X201294761Y-66855714D01*
X201247142Y-66903333D01*
X192403333Y-125787142D02*
X192355714Y-125834761D01*
X192212857Y-125882380D01*
X192117619Y-125882380D01*
X191974761Y-125834761D01*
X191879523Y-125739523D01*
X191831904Y-125644285D01*
X191784285Y-125453809D01*
X191784285Y-125310952D01*
X191831904Y-125120476D01*
X191879523Y-125025238D01*
X191974761Y-124930000D01*
X192117619Y-124882380D01*
X192212857Y-124882380D01*
X192355714Y-124930000D01*
X192403333Y-124977619D01*
X192784285Y-124977619D02*
X192831904Y-124930000D01*
X192927142Y-124882380D01*
X193165238Y-124882380D01*
X193260476Y-124930000D01*
X193308095Y-124977619D01*
X193355714Y-125072857D01*
X193355714Y-125168095D01*
X193308095Y-125310952D01*
X192736666Y-125882380D01*
X193355714Y-125882380D01*
X121333333Y-93307142D02*
X121285714Y-93354761D01*
X121142857Y-93402380D01*
X121047619Y-93402380D01*
X120904761Y-93354761D01*
X120809523Y-93259523D01*
X120761904Y-93164285D01*
X120714285Y-92973809D01*
X120714285Y-92830952D01*
X120761904Y-92640476D01*
X120809523Y-92545238D01*
X120904761Y-92450000D01*
X121047619Y-92402380D01*
X121142857Y-92402380D01*
X121285714Y-92450000D01*
X121333333Y-92497619D01*
X122190476Y-92735714D02*
X122190476Y-93402380D01*
X121952380Y-92354761D02*
X121714285Y-93069047D01*
X122333333Y-93069047D01*
X183573333Y-122197142D02*
X183525714Y-122244761D01*
X183382857Y-122292380D01*
X183287619Y-122292380D01*
X183144761Y-122244761D01*
X183049523Y-122149523D01*
X183001904Y-122054285D01*
X182954285Y-121863809D01*
X182954285Y-121720952D01*
X183001904Y-121530476D01*
X183049523Y-121435238D01*
X183144761Y-121340000D01*
X183287619Y-121292380D01*
X183382857Y-121292380D01*
X183525714Y-121340000D01*
X183573333Y-121387619D01*
X184525714Y-122292380D02*
X183954285Y-122292380D01*
X184240000Y-122292380D02*
X184240000Y-121292380D01*
X184144761Y-121435238D01*
X184049523Y-121530476D01*
X183954285Y-121578095D01*
X200011904Y-92293571D02*
X199678571Y-92293571D01*
X199678571Y-92817380D02*
X199678571Y-91817380D01*
X200154761Y-91817380D01*
X200535714Y-92817380D02*
X200535714Y-91817380D01*
X201488095Y-92817380D02*
X201011904Y-92817380D01*
X201011904Y-91817380D01*
X201678571Y-91817380D02*
X202250000Y-91817380D01*
X201964285Y-92817380D02*
X201964285Y-91817380D01*
X202583333Y-92293571D02*
X202916666Y-92293571D01*
X203059523Y-92817380D02*
X202583333Y-92817380D01*
X202583333Y-91817380D01*
X203059523Y-91817380D01*
X204059523Y-92817380D02*
X203726190Y-92341190D01*
X203488095Y-92817380D02*
X203488095Y-91817380D01*
X203869047Y-91817380D01*
X203964285Y-91865000D01*
X204011904Y-91912619D01*
X204059523Y-92007857D01*
X204059523Y-92150714D01*
X204011904Y-92245952D01*
X203964285Y-92293571D01*
X203869047Y-92341190D01*
X203488095Y-92341190D01*
X205107142Y-91817380D02*
X205678571Y-91817380D01*
X205392857Y-92817380D02*
X205392857Y-91817380D01*
X206011904Y-92293571D02*
X206345238Y-92293571D01*
X206488095Y-92817380D02*
X206011904Y-92817380D01*
X206011904Y-91817380D01*
X206488095Y-91817380D01*
X206869047Y-92769761D02*
X207011904Y-92817380D01*
X207250000Y-92817380D01*
X207345238Y-92769761D01*
X207392857Y-92722142D01*
X207440476Y-92626904D01*
X207440476Y-92531666D01*
X207392857Y-92436428D01*
X207345238Y-92388809D01*
X207250000Y-92341190D01*
X207059523Y-92293571D01*
X206964285Y-92245952D01*
X206916666Y-92198333D01*
X206869047Y-92103095D01*
X206869047Y-92007857D01*
X206916666Y-91912619D01*
X206964285Y-91865000D01*
X207059523Y-91817380D01*
X207297619Y-91817380D01*
X207440476Y-91865000D01*
X207726190Y-91817380D02*
X208297619Y-91817380D01*
X208011904Y-92817380D02*
X208011904Y-91817380D01*
X209726190Y-92293571D02*
X209869047Y-92341190D01*
X209916666Y-92388809D01*
X209964285Y-92484047D01*
X209964285Y-92626904D01*
X209916666Y-92722142D01*
X209869047Y-92769761D01*
X209773809Y-92817380D01*
X209392857Y-92817380D01*
X209392857Y-91817380D01*
X209726190Y-91817380D01*
X209821428Y-91865000D01*
X209869047Y-91912619D01*
X209916666Y-92007857D01*
X209916666Y-92103095D01*
X209869047Y-92198333D01*
X209821428Y-92245952D01*
X209726190Y-92293571D01*
X209392857Y-92293571D01*
X210583333Y-91817380D02*
X210773809Y-91817380D01*
X210869047Y-91865000D01*
X210964285Y-91960238D01*
X211011904Y-92150714D01*
X211011904Y-92484047D01*
X210964285Y-92674523D01*
X210869047Y-92769761D01*
X210773809Y-92817380D01*
X210583333Y-92817380D01*
X210488095Y-92769761D01*
X210392857Y-92674523D01*
X210345238Y-92484047D01*
X210345238Y-92150714D01*
X210392857Y-91960238D01*
X210488095Y-91865000D01*
X210583333Y-91817380D01*
X211392857Y-92531666D02*
X211869047Y-92531666D01*
X211297619Y-92817380D02*
X211630952Y-91817380D01*
X211964285Y-92817380D01*
X212869047Y-92817380D02*
X212535714Y-92341190D01*
X212297619Y-92817380D02*
X212297619Y-91817380D01*
X212678571Y-91817380D01*
X212773809Y-91865000D01*
X212821428Y-91912619D01*
X212869047Y-92007857D01*
X212869047Y-92150714D01*
X212821428Y-92245952D01*
X212773809Y-92293571D01*
X212678571Y-92341190D01*
X212297619Y-92341190D01*
X213297619Y-92817380D02*
X213297619Y-91817380D01*
X213535714Y-91817380D01*
X213678571Y-91865000D01*
X213773809Y-91960238D01*
X213821428Y-92055476D01*
X213869047Y-92245952D01*
X213869047Y-92388809D01*
X213821428Y-92579285D01*
X213773809Y-92674523D01*
X213678571Y-92769761D01*
X213535714Y-92817380D01*
X213297619Y-92817380D01*
X199464285Y-93903571D02*
X199607142Y-93951190D01*
X199654761Y-93998809D01*
X199702380Y-94094047D01*
X199702380Y-94236904D01*
X199654761Y-94332142D01*
X199607142Y-94379761D01*
X199511904Y-94427380D01*
X199130952Y-94427380D01*
X199130952Y-93427380D01*
X199464285Y-93427380D01*
X199559523Y-93475000D01*
X199607142Y-93522619D01*
X199654761Y-93617857D01*
X199654761Y-93713095D01*
X199607142Y-93808333D01*
X199559523Y-93855952D01*
X199464285Y-93903571D01*
X199130952Y-93903571D01*
X200321428Y-93951190D02*
X200321428Y-94427380D01*
X199988095Y-93427380D02*
X200321428Y-93951190D01*
X200654761Y-93427380D01*
X201750000Y-94427380D02*
X201750000Y-93427380D01*
X201988095Y-93427380D01*
X202130952Y-93475000D01*
X202226190Y-93570238D01*
X202273809Y-93665476D01*
X202321428Y-93855952D01*
X202321428Y-93998809D01*
X202273809Y-94189285D01*
X202226190Y-94284523D01*
X202130952Y-94379761D01*
X201988095Y-94427380D01*
X201750000Y-94427380D01*
X203226190Y-94427380D02*
X202750000Y-94427380D01*
X202750000Y-93427380D01*
X204321428Y-94427380D02*
X204321428Y-93427380D01*
X204654761Y-94141666D01*
X204988095Y-93427380D01*
X204988095Y-94427380D01*
X205416666Y-94141666D02*
X205892857Y-94141666D01*
X205321428Y-94427380D02*
X205654761Y-93427380D01*
X205988095Y-94427380D01*
X206892857Y-94427380D02*
X206559523Y-93951190D01*
X206321428Y-94427380D02*
X206321428Y-93427380D01*
X206702380Y-93427380D01*
X206797619Y-93475000D01*
X206845238Y-93522619D01*
X206892857Y-93617857D01*
X206892857Y-93760714D01*
X206845238Y-93855952D01*
X206797619Y-93903571D01*
X206702380Y-93951190D01*
X206321428Y-93951190D01*
X207321428Y-94427380D02*
X207321428Y-93427380D01*
X207892857Y-94427380D02*
X207464285Y-93855952D01*
X207892857Y-93427380D02*
X207321428Y-93998809D01*
X208273809Y-94379761D02*
X208416666Y-94427380D01*
X208654761Y-94427380D01*
X208750000Y-94379761D01*
X208797619Y-94332142D01*
X208845238Y-94236904D01*
X208845238Y-94141666D01*
X208797619Y-94046428D01*
X208750000Y-93998809D01*
X208654761Y-93951190D01*
X208464285Y-93903571D01*
X208369047Y-93855952D01*
X208321428Y-93808333D01*
X208273809Y-93713095D01*
X208273809Y-93617857D01*
X208321428Y-93522619D01*
X208369047Y-93475000D01*
X208464285Y-93427380D01*
X208702380Y-93427380D01*
X208845238Y-93475000D01*
X209321428Y-94379761D02*
X209321428Y-94427380D01*
X209273809Y-94522619D01*
X209226190Y-94570238D01*
X210511904Y-94427380D02*
X210511904Y-93427380D01*
X211083333Y-94427380D02*
X210654761Y-93855952D01*
X211083333Y-93427380D02*
X210511904Y-93998809D01*
X211416666Y-93427380D02*
X211654761Y-94427380D01*
X211845238Y-93713095D01*
X212035714Y-94427380D01*
X212273809Y-93427380D01*
X213083333Y-93760714D02*
X213083333Y-94427380D01*
X212845238Y-93379761D02*
X212607142Y-94094047D01*
X213226190Y-94094047D01*
X213464285Y-93427380D02*
X214035714Y-93427380D01*
X213750000Y-94427380D02*
X213750000Y-93427380D01*
X214369047Y-94427380D02*
X214369047Y-93427380D01*
X201916666Y-95942142D02*
X201869047Y-95989761D01*
X201726190Y-96037380D01*
X201630952Y-96037380D01*
X201488095Y-95989761D01*
X201392857Y-95894523D01*
X201345238Y-95799285D01*
X201297619Y-95608809D01*
X201297619Y-95465952D01*
X201345238Y-95275476D01*
X201392857Y-95180238D01*
X201488095Y-95085000D01*
X201630952Y-95037380D01*
X201726190Y-95037380D01*
X201869047Y-95085000D01*
X201916666Y-95132619D01*
X202916666Y-95942142D02*
X202869047Y-95989761D01*
X202726190Y-96037380D01*
X202630952Y-96037380D01*
X202488095Y-95989761D01*
X202392857Y-95894523D01*
X202345238Y-95799285D01*
X202297619Y-95608809D01*
X202297619Y-95465952D01*
X202345238Y-95275476D01*
X202392857Y-95180238D01*
X202488095Y-95085000D01*
X202630952Y-95037380D01*
X202726190Y-95037380D01*
X202869047Y-95085000D01*
X202916666Y-95132619D01*
X203345238Y-95656428D02*
X204107142Y-95656428D01*
X204916666Y-95513571D02*
X205059523Y-95561190D01*
X205107142Y-95608809D01*
X205154761Y-95704047D01*
X205154761Y-95846904D01*
X205107142Y-95942142D01*
X205059523Y-95989761D01*
X204964285Y-96037380D01*
X204583333Y-96037380D01*
X204583333Y-95037380D01*
X204916666Y-95037380D01*
X205011904Y-95085000D01*
X205059523Y-95132619D01*
X205107142Y-95227857D01*
X205107142Y-95323095D01*
X205059523Y-95418333D01*
X205011904Y-95465952D01*
X204916666Y-95513571D01*
X204583333Y-95513571D01*
X205773809Y-95561190D02*
X205773809Y-96037380D01*
X205440476Y-95037380D02*
X205773809Y-95561190D01*
X206107142Y-95037380D01*
X206440476Y-95656428D02*
X207202380Y-95656428D01*
X207630952Y-95989761D02*
X207773809Y-96037380D01*
X208011904Y-96037380D01*
X208107142Y-95989761D01*
X208154761Y-95942142D01*
X208202380Y-95846904D01*
X208202380Y-95751666D01*
X208154761Y-95656428D01*
X208107142Y-95608809D01*
X208011904Y-95561190D01*
X207821428Y-95513571D01*
X207726190Y-95465952D01*
X207678571Y-95418333D01*
X207630952Y-95323095D01*
X207630952Y-95227857D01*
X207678571Y-95132619D01*
X207726190Y-95085000D01*
X207821428Y-95037380D01*
X208059523Y-95037380D01*
X208202380Y-95085000D01*
X208583333Y-95751666D02*
X209059523Y-95751666D01*
X208488095Y-96037380D02*
X208821428Y-95037380D01*
X209154761Y-96037380D01*
X210678571Y-95370714D02*
X210678571Y-96037380D01*
X210440476Y-94989761D02*
X210202380Y-95704047D01*
X210821428Y-95704047D01*
X211202380Y-95942142D02*
X211250000Y-95989761D01*
X211202380Y-96037380D01*
X211154761Y-95989761D01*
X211202380Y-95942142D01*
X211202380Y-96037380D01*
X211869047Y-95037380D02*
X211964285Y-95037380D01*
X212059523Y-95085000D01*
X212107142Y-95132619D01*
X212154761Y-95227857D01*
X212202380Y-95418333D01*
X212202380Y-95656428D01*
X212154761Y-95846904D01*
X212107142Y-95942142D01*
X212059523Y-95989761D01*
X211964285Y-96037380D01*
X211869047Y-96037380D01*
X211773809Y-95989761D01*
X211726190Y-95942142D01*
X211678571Y-95846904D01*
X211630952Y-95656428D01*
X211630952Y-95418333D01*
X211678571Y-95227857D01*
X211726190Y-95132619D01*
X211773809Y-95085000D01*
X211869047Y-95037380D01*
X167479047Y-93868571D02*
X167621904Y-93916190D01*
X167669523Y-93963809D01*
X167717142Y-94059047D01*
X167717142Y-94201904D01*
X167669523Y-94297142D01*
X167621904Y-94344761D01*
X167526666Y-94392380D01*
X167145714Y-94392380D01*
X167145714Y-93392380D01*
X167479047Y-93392380D01*
X167574285Y-93440000D01*
X167621904Y-93487619D01*
X167669523Y-93582857D01*
X167669523Y-93678095D01*
X167621904Y-93773333D01*
X167574285Y-93820952D01*
X167479047Y-93868571D01*
X167145714Y-93868571D01*
X168098095Y-94106666D02*
X168574285Y-94106666D01*
X168002857Y-94392380D02*
X168336190Y-93392380D01*
X168669523Y-94392380D01*
X169002857Y-94392380D02*
X169002857Y-93392380D01*
X169574285Y-94392380D01*
X169574285Y-93392380D01*
X170050476Y-94392380D02*
X170050476Y-93392380D01*
X170288571Y-93392380D01*
X170431428Y-93440000D01*
X170526666Y-93535238D01*
X170574285Y-93630476D01*
X170621904Y-93820952D01*
X170621904Y-93963809D01*
X170574285Y-94154285D01*
X170526666Y-94249523D01*
X170431428Y-94344761D01*
X170288571Y-94392380D01*
X170050476Y-94392380D01*
X167217142Y-96002380D02*
X167217142Y-95002380D01*
X167598095Y-95002380D01*
X167693333Y-95050000D01*
X167740952Y-95097619D01*
X167788571Y-95192857D01*
X167788571Y-95335714D01*
X167740952Y-95430952D01*
X167693333Y-95478571D01*
X167598095Y-95526190D01*
X167217142Y-95526190D01*
X168169523Y-95716666D02*
X168645714Y-95716666D01*
X168074285Y-96002380D02*
X168407619Y-95002380D01*
X168740952Y-96002380D01*
X169026666Y-95954761D02*
X169169523Y-96002380D01*
X169407619Y-96002380D01*
X169502857Y-95954761D01*
X169550476Y-95907142D01*
X169598095Y-95811904D01*
X169598095Y-95716666D01*
X169550476Y-95621428D01*
X169502857Y-95573809D01*
X169407619Y-95526190D01*
X169217142Y-95478571D01*
X169121904Y-95430952D01*
X169074285Y-95383333D01*
X169026666Y-95288095D01*
X169026666Y-95192857D01*
X169074285Y-95097619D01*
X169121904Y-95050000D01*
X169217142Y-95002380D01*
X169455238Y-95002380D01*
X169598095Y-95050000D01*
X169979047Y-95954761D02*
X170121904Y-96002380D01*
X170360000Y-96002380D01*
X170455238Y-95954761D01*
X170502857Y-95907142D01*
X170550476Y-95811904D01*
X170550476Y-95716666D01*
X170502857Y-95621428D01*
X170455238Y-95573809D01*
X170360000Y-95526190D01*
X170169523Y-95478571D01*
X170074285Y-95430952D01*
X170026666Y-95383333D01*
X169979047Y-95288095D01*
X169979047Y-95192857D01*
X170026666Y-95097619D01*
X170074285Y-95050000D01*
X170169523Y-95002380D01*
X170407619Y-95002380D01*
X170550476Y-95050000D01*
X167026666Y-97088571D02*
X166693333Y-97088571D01*
X166693333Y-97612380D02*
X166693333Y-96612380D01*
X167169523Y-96612380D01*
X167550476Y-97612380D02*
X167550476Y-96612380D01*
X168502857Y-97612380D02*
X168026666Y-97612380D01*
X168026666Y-96612380D01*
X168693333Y-96612380D02*
X169264761Y-96612380D01*
X168979047Y-97612380D02*
X168979047Y-96612380D01*
X169598095Y-97088571D02*
X169931428Y-97088571D01*
X170074285Y-97612380D02*
X169598095Y-97612380D01*
X169598095Y-96612380D01*
X170074285Y-96612380D01*
X171074285Y-97612380D02*
X170740952Y-97136190D01*
X170502857Y-97612380D02*
X170502857Y-96612380D01*
X170883809Y-96612380D01*
X170979047Y-96660000D01*
X171026666Y-96707619D01*
X171074285Y-96802857D01*
X171074285Y-96945714D01*
X171026666Y-97040952D01*
X170979047Y-97088571D01*
X170883809Y-97136190D01*
X170502857Y-97136190D01*
X183373333Y-80027142D02*
X183325714Y-80074761D01*
X183182857Y-80122380D01*
X183087619Y-80122380D01*
X182944761Y-80074761D01*
X182849523Y-79979523D01*
X182801904Y-79884285D01*
X182754285Y-79693809D01*
X182754285Y-79550952D01*
X182801904Y-79360476D01*
X182849523Y-79265238D01*
X182944761Y-79170000D01*
X183087619Y-79122380D01*
X183182857Y-79122380D01*
X183325714Y-79170000D01*
X183373333Y-79217619D01*
X184230476Y-79122380D02*
X184040000Y-79122380D01*
X183944761Y-79170000D01*
X183897142Y-79217619D01*
X183801904Y-79360476D01*
X183754285Y-79550952D01*
X183754285Y-79931904D01*
X183801904Y-80027142D01*
X183849523Y-80074761D01*
X183944761Y-80122380D01*
X184135238Y-80122380D01*
X184230476Y-80074761D01*
X184278095Y-80027142D01*
X184325714Y-79931904D01*
X184325714Y-79693809D01*
X184278095Y-79598571D01*
X184230476Y-79550952D01*
X184135238Y-79503333D01*
X183944761Y-79503333D01*
X183849523Y-79550952D01*
X183801904Y-79598571D01*
X183754285Y-79693809D01*
X149253333Y-139367142D02*
X149205714Y-139414761D01*
X149062857Y-139462380D01*
X148967619Y-139462380D01*
X148824761Y-139414761D01*
X148729523Y-139319523D01*
X148681904Y-139224285D01*
X148634285Y-139033809D01*
X148634285Y-138890952D01*
X148681904Y-138700476D01*
X148729523Y-138605238D01*
X148824761Y-138510000D01*
X148967619Y-138462380D01*
X149062857Y-138462380D01*
X149205714Y-138510000D01*
X149253333Y-138557619D01*
X150110476Y-138462380D02*
X149920000Y-138462380D01*
X149824761Y-138510000D01*
X149777142Y-138557619D01*
X149681904Y-138700476D01*
X149634285Y-138890952D01*
X149634285Y-139271904D01*
X149681904Y-139367142D01*
X149729523Y-139414761D01*
X149824761Y-139462380D01*
X150015238Y-139462380D01*
X150110476Y-139414761D01*
X150158095Y-139367142D01*
X150205714Y-139271904D01*
X150205714Y-139033809D01*
X150158095Y-138938571D01*
X150110476Y-138890952D01*
X150015238Y-138843333D01*
X149824761Y-138843333D01*
X149729523Y-138890952D01*
X149681904Y-138938571D01*
X149634285Y-139033809D01*
X161307142Y-141086666D02*
X161354761Y-141134285D01*
X161402380Y-141277142D01*
X161402380Y-141372380D01*
X161354761Y-141515238D01*
X161259523Y-141610476D01*
X161164285Y-141658095D01*
X160973809Y-141705714D01*
X160830952Y-141705714D01*
X160640476Y-141658095D01*
X160545238Y-141610476D01*
X160450000Y-141515238D01*
X160402380Y-141372380D01*
X160402380Y-141277142D01*
X160450000Y-141134285D01*
X160497619Y-141086666D01*
X160402380Y-140181904D02*
X160402380Y-140658095D01*
X160878571Y-140705714D01*
X160830952Y-140658095D01*
X160783333Y-140562857D01*
X160783333Y-140324761D01*
X160830952Y-140229523D01*
X160878571Y-140181904D01*
X160973809Y-140134285D01*
X161211904Y-140134285D01*
X161307142Y-140181904D01*
X161354761Y-140229523D01*
X161402380Y-140324761D01*
X161402380Y-140562857D01*
X161354761Y-140658095D01*
X161307142Y-140705714D01*
X160633333Y-123487142D02*
X160585714Y-123534761D01*
X160442857Y-123582380D01*
X160347619Y-123582380D01*
X160204761Y-123534761D01*
X160109523Y-123439523D01*
X160061904Y-123344285D01*
X160014285Y-123153809D01*
X160014285Y-123010952D01*
X160061904Y-122820476D01*
X160109523Y-122725238D01*
X160204761Y-122630000D01*
X160347619Y-122582380D01*
X160442857Y-122582380D01*
X160585714Y-122630000D01*
X160633333Y-122677619D01*
X161490476Y-122915714D02*
X161490476Y-123582380D01*
X161252380Y-122534761D02*
X161014285Y-123249047D01*
X161633333Y-123249047D01*
X181179610Y-138474687D02*
X181112267Y-138474687D01*
X180977580Y-138407343D01*
X180910236Y-138340000D01*
X180842893Y-138205312D01*
X180842893Y-138070625D01*
X180876564Y-137969610D01*
X180977580Y-137801251D01*
X181078595Y-137700236D01*
X181246954Y-137599221D01*
X181347969Y-137565549D01*
X181482656Y-137565549D01*
X181617343Y-137632893D01*
X181684687Y-137700236D01*
X181752030Y-137834923D01*
X181752030Y-137902267D01*
X182021404Y-138171641D02*
X182088748Y-138171641D01*
X182189763Y-138205312D01*
X182358122Y-138373671D01*
X182391793Y-138474687D01*
X182391793Y-138542030D01*
X182358122Y-138643045D01*
X182290778Y-138710389D01*
X182156091Y-138777732D01*
X181347969Y-138777732D01*
X181785702Y-139215465D01*
X127247142Y-94856666D02*
X127294761Y-94904285D01*
X127342380Y-95047142D01*
X127342380Y-95142380D01*
X127294761Y-95285238D01*
X127199523Y-95380476D01*
X127104285Y-95428095D01*
X126913809Y-95475714D01*
X126770952Y-95475714D01*
X126580476Y-95428095D01*
X126485238Y-95380476D01*
X126390000Y-95285238D01*
X126342380Y-95142380D01*
X126342380Y-95047142D01*
X126390000Y-94904285D01*
X126437619Y-94856666D01*
X126342380Y-94523333D02*
X126342380Y-93904285D01*
X126723333Y-94237619D01*
X126723333Y-94094761D01*
X126770952Y-93999523D01*
X126818571Y-93951904D01*
X126913809Y-93904285D01*
X127151904Y-93904285D01*
X127247142Y-93951904D01*
X127294761Y-93999523D01*
X127342380Y-94094761D01*
X127342380Y-94380476D01*
X127294761Y-94475714D01*
X127247142Y-94523333D01*
X121943333Y-122107142D02*
X121895714Y-122154761D01*
X121752857Y-122202380D01*
X121657619Y-122202380D01*
X121514761Y-122154761D01*
X121419523Y-122059523D01*
X121371904Y-121964285D01*
X121324285Y-121773809D01*
X121324285Y-121630952D01*
X121371904Y-121440476D01*
X121419523Y-121345238D01*
X121514761Y-121250000D01*
X121657619Y-121202380D01*
X121752857Y-121202380D01*
X121895714Y-121250000D01*
X121943333Y-121297619D01*
X122800476Y-121535714D02*
X122800476Y-122202380D01*
X122562380Y-121154761D02*
X122324285Y-121869047D01*
X122943333Y-121869047D01*
X194003809Y-108107619D02*
X194003809Y-109107619D01*
X193527619Y-108107619D02*
X193527619Y-109107619D01*
X192956190Y-108107619D01*
X192956190Y-109107619D01*
X192480000Y-108107619D02*
X192480000Y-109107619D01*
X192099047Y-109107619D01*
X192003809Y-109060000D01*
X191956190Y-109012380D01*
X191908571Y-108917142D01*
X191908571Y-108774285D01*
X191956190Y-108679047D01*
X192003809Y-108631428D01*
X192099047Y-108583809D01*
X192480000Y-108583809D01*
X176871333Y-101544380D02*
X176395142Y-101544380D01*
X176395142Y-100544380D01*
X177157047Y-100639619D02*
X177204666Y-100592000D01*
X177299904Y-100544380D01*
X177538000Y-100544380D01*
X177633238Y-100592000D01*
X177680857Y-100639619D01*
X177728476Y-100734857D01*
X177728476Y-100830095D01*
X177680857Y-100972952D01*
X177109428Y-101544380D01*
X177728476Y-101544380D01*
X128260000Y-112532380D02*
X128450476Y-112532380D01*
X128545714Y-112580000D01*
X128640952Y-112675238D01*
X128688571Y-112865714D01*
X128688571Y-113199047D01*
X128640952Y-113389523D01*
X128545714Y-113484761D01*
X128450476Y-113532380D01*
X128260000Y-113532380D01*
X128164761Y-113484761D01*
X128069523Y-113389523D01*
X128021904Y-113199047D01*
X128021904Y-112865714D01*
X128069523Y-112675238D01*
X128164761Y-112580000D01*
X128260000Y-112532380D01*
X129117142Y-112532380D02*
X129117142Y-113341904D01*
X129164761Y-113437142D01*
X129212380Y-113484761D01*
X129307619Y-113532380D01*
X129498095Y-113532380D01*
X129593333Y-113484761D01*
X129640952Y-113437142D01*
X129688571Y-113341904D01*
X129688571Y-112532380D01*
X130021904Y-112532380D02*
X130593333Y-112532380D01*
X130307619Y-113532380D02*
X130307619Y-112532380D01*
X190337142Y-84066666D02*
X190384761Y-84114285D01*
X190432380Y-84257142D01*
X190432380Y-84352380D01*
X190384761Y-84495238D01*
X190289523Y-84590476D01*
X190194285Y-84638095D01*
X190003809Y-84685714D01*
X189860952Y-84685714D01*
X189670476Y-84638095D01*
X189575238Y-84590476D01*
X189480000Y-84495238D01*
X189432380Y-84352380D01*
X189432380Y-84257142D01*
X189480000Y-84114285D01*
X189527619Y-84066666D01*
X189432380Y-83161904D02*
X189432380Y-83638095D01*
X189908571Y-83685714D01*
X189860952Y-83638095D01*
X189813333Y-83542857D01*
X189813333Y-83304761D01*
X189860952Y-83209523D01*
X189908571Y-83161904D01*
X190003809Y-83114285D01*
X190241904Y-83114285D01*
X190337142Y-83161904D01*
X190384761Y-83209523D01*
X190432380Y-83304761D01*
X190432380Y-83542857D01*
X190384761Y-83638095D01*
X190337142Y-83685714D01*
X183653333Y-110417142D02*
X183605714Y-110464761D01*
X183462857Y-110512380D01*
X183367619Y-110512380D01*
X183224761Y-110464761D01*
X183129523Y-110369523D01*
X183081904Y-110274285D01*
X183034285Y-110083809D01*
X183034285Y-109940952D01*
X183081904Y-109750476D01*
X183129523Y-109655238D01*
X183224761Y-109560000D01*
X183367619Y-109512380D01*
X183462857Y-109512380D01*
X183605714Y-109560000D01*
X183653333Y-109607619D01*
X184510476Y-109512380D02*
X184320000Y-109512380D01*
X184224761Y-109560000D01*
X184177142Y-109607619D01*
X184081904Y-109750476D01*
X184034285Y-109940952D01*
X184034285Y-110321904D01*
X184081904Y-110417142D01*
X184129523Y-110464761D01*
X184224761Y-110512380D01*
X184415238Y-110512380D01*
X184510476Y-110464761D01*
X184558095Y-110417142D01*
X184605714Y-110321904D01*
X184605714Y-110083809D01*
X184558095Y-109988571D01*
X184510476Y-109940952D01*
X184415238Y-109893333D01*
X184224761Y-109893333D01*
X184129523Y-109940952D01*
X184081904Y-109988571D01*
X184034285Y-110083809D01*
X159167142Y-98246666D02*
X159214761Y-98294285D01*
X159262380Y-98437142D01*
X159262380Y-98532380D01*
X159214761Y-98675238D01*
X159119523Y-98770476D01*
X159024285Y-98818095D01*
X158833809Y-98865714D01*
X158690952Y-98865714D01*
X158500476Y-98818095D01*
X158405238Y-98770476D01*
X158310000Y-98675238D01*
X158262380Y-98532380D01*
X158262380Y-98437142D01*
X158310000Y-98294285D01*
X158357619Y-98246666D01*
X158262380Y-97341904D02*
X158262380Y-97818095D01*
X158738571Y-97865714D01*
X158690952Y-97818095D01*
X158643333Y-97722857D01*
X158643333Y-97484761D01*
X158690952Y-97389523D01*
X158738571Y-97341904D01*
X158833809Y-97294285D01*
X159071904Y-97294285D01*
X159167142Y-97341904D01*
X159214761Y-97389523D01*
X159262380Y-97484761D01*
X159262380Y-97722857D01*
X159214761Y-97818095D01*
X159167142Y-97865714D01*
X195803333Y-125807142D02*
X195755714Y-125854761D01*
X195612857Y-125902380D01*
X195517619Y-125902380D01*
X195374761Y-125854761D01*
X195279523Y-125759523D01*
X195231904Y-125664285D01*
X195184285Y-125473809D01*
X195184285Y-125330952D01*
X195231904Y-125140476D01*
X195279523Y-125045238D01*
X195374761Y-124950000D01*
X195517619Y-124902380D01*
X195612857Y-124902380D01*
X195755714Y-124950000D01*
X195803333Y-124997619D01*
X196136666Y-124902380D02*
X196755714Y-124902380D01*
X196422380Y-125283333D01*
X196565238Y-125283333D01*
X196660476Y-125330952D01*
X196708095Y-125378571D01*
X196755714Y-125473809D01*
X196755714Y-125711904D01*
X196708095Y-125807142D01*
X196660476Y-125854761D01*
X196565238Y-125902380D01*
X196279523Y-125902380D01*
X196184285Y-125854761D01*
X196136666Y-125807142D01*
X151000000Y-66452380D02*
X151190476Y-66452380D01*
X151285714Y-66500000D01*
X151380952Y-66595238D01*
X151428571Y-66785714D01*
X151428571Y-67119047D01*
X151380952Y-67309523D01*
X151285714Y-67404761D01*
X151190476Y-67452380D01*
X151000000Y-67452380D01*
X150904761Y-67404761D01*
X150809523Y-67309523D01*
X150761904Y-67119047D01*
X150761904Y-66785714D01*
X150809523Y-66595238D01*
X150904761Y-66500000D01*
X151000000Y-66452380D01*
X151857142Y-66452380D02*
X151857142Y-67261904D01*
X151904761Y-67357142D01*
X151952380Y-67404761D01*
X152047619Y-67452380D01*
X152238095Y-67452380D01*
X152333333Y-67404761D01*
X152380952Y-67357142D01*
X152428571Y-67261904D01*
X152428571Y-66452380D01*
X152761904Y-66452380D02*
X153333333Y-66452380D01*
X153047619Y-67452380D02*
X153047619Y-66452380D01*
X134025534Y-104532607D02*
X133997074Y-104593641D01*
X133879118Y-104687249D01*
X133789624Y-104719822D01*
X133639095Y-104723935D01*
X133517027Y-104667014D01*
X133439707Y-104593806D01*
X133329813Y-104431103D01*
X133280953Y-104296861D01*
X133260553Y-104101586D01*
X133272727Y-103995804D01*
X133329649Y-103873737D01*
X133447604Y-103780129D01*
X133537098Y-103747556D01*
X133687627Y-103743443D01*
X133748661Y-103771904D01*
X134029318Y-103568403D02*
X134655780Y-103340389D01*
X134595075Y-104426662D01*
X186663333Y-78867142D02*
X186615714Y-78914761D01*
X186472857Y-78962380D01*
X186377619Y-78962380D01*
X186234761Y-78914761D01*
X186139523Y-78819523D01*
X186091904Y-78724285D01*
X186044285Y-78533809D01*
X186044285Y-78390952D01*
X186091904Y-78200476D01*
X186139523Y-78105238D01*
X186234761Y-78010000D01*
X186377619Y-77962380D01*
X186472857Y-77962380D01*
X186615714Y-78010000D01*
X186663333Y-78057619D01*
X187520476Y-78295714D02*
X187520476Y-78962380D01*
X187282380Y-77914761D02*
X187044285Y-78629047D01*
X187663333Y-78629047D01*
X206172380Y-106896666D02*
X206172380Y-107372857D01*
X205172380Y-107372857D01*
X205267619Y-106610952D02*
X205220000Y-106563333D01*
X205172380Y-106468095D01*
X205172380Y-106230000D01*
X205220000Y-106134761D01*
X205267619Y-106087142D01*
X205362857Y-106039523D01*
X205458095Y-106039523D01*
X205600952Y-106087142D01*
X206172380Y-106658571D01*
X206172380Y-106039523D01*
X127757142Y-120216666D02*
X127804761Y-120264285D01*
X127852380Y-120407142D01*
X127852380Y-120502380D01*
X127804761Y-120645238D01*
X127709523Y-120740476D01*
X127614285Y-120788095D01*
X127423809Y-120835714D01*
X127280952Y-120835714D01*
X127090476Y-120788095D01*
X126995238Y-120740476D01*
X126900000Y-120645238D01*
X126852380Y-120502380D01*
X126852380Y-120407142D01*
X126900000Y-120264285D01*
X126947619Y-120216666D01*
X126947619Y-119835714D02*
X126900000Y-119788095D01*
X126852380Y-119692857D01*
X126852380Y-119454761D01*
X126900000Y-119359523D01*
X126947619Y-119311904D01*
X127042857Y-119264285D01*
X127138095Y-119264285D01*
X127280952Y-119311904D01*
X127852380Y-119883333D01*
X127852380Y-119264285D01*
X162457142Y-90916666D02*
X162504761Y-90964285D01*
X162552380Y-91107142D01*
X162552380Y-91202380D01*
X162504761Y-91345238D01*
X162409523Y-91440476D01*
X162314285Y-91488095D01*
X162123809Y-91535714D01*
X161980952Y-91535714D01*
X161790476Y-91488095D01*
X161695238Y-91440476D01*
X161600000Y-91345238D01*
X161552380Y-91202380D01*
X161552380Y-91107142D01*
X161600000Y-90964285D01*
X161647619Y-90916666D01*
X161647619Y-90535714D02*
X161600000Y-90488095D01*
X161552380Y-90392857D01*
X161552380Y-90154761D01*
X161600000Y-90059523D01*
X161647619Y-90011904D01*
X161742857Y-89964285D01*
X161838095Y-89964285D01*
X161980952Y-90011904D01*
X162552380Y-90583333D01*
X162552380Y-89964285D01*
X160563333Y-123517142D02*
X160515714Y-123564761D01*
X160372857Y-123612380D01*
X160277619Y-123612380D01*
X160134761Y-123564761D01*
X160039523Y-123469523D01*
X159991904Y-123374285D01*
X159944285Y-123183809D01*
X159944285Y-123040952D01*
X159991904Y-122850476D01*
X160039523Y-122755238D01*
X160134761Y-122660000D01*
X160277619Y-122612380D01*
X160372857Y-122612380D01*
X160515714Y-122660000D01*
X160563333Y-122707619D01*
X161420476Y-122945714D02*
X161420476Y-123612380D01*
X161182380Y-122564761D02*
X160944285Y-123279047D01*
X161563333Y-123279047D01*
X214263333Y-64927142D02*
X214215714Y-64974761D01*
X214072857Y-65022380D01*
X213977619Y-65022380D01*
X213834761Y-64974761D01*
X213739523Y-64879523D01*
X213691904Y-64784285D01*
X213644285Y-64593809D01*
X213644285Y-64450952D01*
X213691904Y-64260476D01*
X213739523Y-64165238D01*
X213834761Y-64070000D01*
X213977619Y-64022380D01*
X214072857Y-64022380D01*
X214215714Y-64070000D01*
X214263333Y-64117619D01*
X215215714Y-65022380D02*
X214644285Y-65022380D01*
X214930000Y-65022380D02*
X214930000Y-64022380D01*
X214834761Y-64165238D01*
X214739523Y-64260476D01*
X214644285Y-64308095D01*
X161207142Y-119956666D02*
X161254761Y-120004285D01*
X161302380Y-120147142D01*
X161302380Y-120242380D01*
X161254761Y-120385238D01*
X161159523Y-120480476D01*
X161064285Y-120528095D01*
X160873809Y-120575714D01*
X160730952Y-120575714D01*
X160540476Y-120528095D01*
X160445238Y-120480476D01*
X160350000Y-120385238D01*
X160302380Y-120242380D01*
X160302380Y-120147142D01*
X160350000Y-120004285D01*
X160397619Y-119956666D01*
X160302380Y-119623333D02*
X160302380Y-119004285D01*
X160683333Y-119337619D01*
X160683333Y-119194761D01*
X160730952Y-119099523D01*
X160778571Y-119051904D01*
X160873809Y-119004285D01*
X161111904Y-119004285D01*
X161207142Y-119051904D01*
X161254761Y-119099523D01*
X161302380Y-119194761D01*
X161302380Y-119480476D01*
X161254761Y-119575714D01*
X161207142Y-119623333D01*
X212539610Y-80744687D02*
X212472267Y-80744687D01*
X212337580Y-80677343D01*
X212270236Y-80610000D01*
X212202893Y-80475312D01*
X212202893Y-80340625D01*
X212236564Y-80239610D01*
X212337580Y-80071251D01*
X212438595Y-79970236D01*
X212606954Y-79869221D01*
X212707969Y-79835549D01*
X212842656Y-79835549D01*
X212977343Y-79902893D01*
X213044687Y-79970236D01*
X213112030Y-80104923D01*
X213112030Y-80172267D01*
X213381404Y-80441641D02*
X213448748Y-80441641D01*
X213549763Y-80475312D01*
X213718122Y-80643671D01*
X213751793Y-80744687D01*
X213751793Y-80812030D01*
X213718122Y-80913045D01*
X213650778Y-80980389D01*
X213516091Y-81047732D01*
X212707969Y-81047732D01*
X213145702Y-81485465D01*
X194757142Y-133216666D02*
X194804761Y-133264285D01*
X194852380Y-133407142D01*
X194852380Y-133502380D01*
X194804761Y-133645238D01*
X194709523Y-133740476D01*
X194614285Y-133788095D01*
X194423809Y-133835714D01*
X194280952Y-133835714D01*
X194090476Y-133788095D01*
X193995238Y-133740476D01*
X193900000Y-133645238D01*
X193852380Y-133502380D01*
X193852380Y-133407142D01*
X193900000Y-133264285D01*
X193947619Y-133216666D01*
X194185714Y-132359523D02*
X194852380Y-132359523D01*
X193804761Y-132597619D02*
X194519047Y-132835714D01*
X194519047Y-132216666D01*
X195150000Y-84602380D02*
X195340476Y-84602380D01*
X195435714Y-84650000D01*
X195530952Y-84745238D01*
X195578571Y-84935714D01*
X195578571Y-85269047D01*
X195530952Y-85459523D01*
X195435714Y-85554761D01*
X195340476Y-85602380D01*
X195150000Y-85602380D01*
X195054761Y-85554761D01*
X194959523Y-85459523D01*
X194911904Y-85269047D01*
X194911904Y-84935714D01*
X194959523Y-84745238D01*
X195054761Y-84650000D01*
X195150000Y-84602380D01*
X196007142Y-84602380D02*
X196007142Y-85411904D01*
X196054761Y-85507142D01*
X196102380Y-85554761D01*
X196197619Y-85602380D01*
X196388095Y-85602380D01*
X196483333Y-85554761D01*
X196530952Y-85507142D01*
X196578571Y-85411904D01*
X196578571Y-84602380D01*
X196911904Y-84602380D02*
X197483333Y-84602380D01*
X197197619Y-85602380D02*
X197197619Y-84602380D01*
X206042380Y-134546666D02*
X206042380Y-135022857D01*
X205042380Y-135022857D01*
X205042380Y-134308571D02*
X205042380Y-133689523D01*
X205423333Y-134022857D01*
X205423333Y-133880000D01*
X205470952Y-133784761D01*
X205518571Y-133737142D01*
X205613809Y-133689523D01*
X205851904Y-133689523D01*
X205947142Y-133737142D01*
X205994761Y-133784761D01*
X206042380Y-133880000D01*
X206042380Y-134165714D01*
X205994761Y-134260952D01*
X205947142Y-134308571D01*
X143892380Y-120943809D02*
X142892380Y-120943809D01*
X143892380Y-120467619D02*
X142892380Y-120467619D01*
X143892380Y-119896190D01*
X142892380Y-119896190D01*
X143892380Y-119420000D02*
X142892380Y-119420000D01*
X142892380Y-119039047D01*
X142940000Y-118943809D01*
X142987619Y-118896190D01*
X143082857Y-118848571D01*
X143225714Y-118848571D01*
X143320952Y-118896190D01*
X143368571Y-118943809D01*
X143416190Y-119039047D01*
X143416190Y-119420000D01*
X178303333Y-131052380D02*
X177827142Y-131052380D01*
X177827142Y-130052380D01*
X179160476Y-131052380D02*
X178589047Y-131052380D01*
X178874761Y-131052380D02*
X178874761Y-130052380D01*
X178779523Y-130195238D01*
X178684285Y-130290476D01*
X178589047Y-130338095D01*
X195033333Y-75322380D02*
X194557142Y-75322380D01*
X194557142Y-74322380D01*
X195319047Y-74417619D02*
X195366666Y-74370000D01*
X195461904Y-74322380D01*
X195700000Y-74322380D01*
X195795238Y-74370000D01*
X195842857Y-74417619D01*
X195890476Y-74512857D01*
X195890476Y-74608095D01*
X195842857Y-74750952D01*
X195271428Y-75322380D01*
X195890476Y-75322380D01*
X127287142Y-91526666D02*
X127334761Y-91574285D01*
X127382380Y-91717142D01*
X127382380Y-91812380D01*
X127334761Y-91955238D01*
X127239523Y-92050476D01*
X127144285Y-92098095D01*
X126953809Y-92145714D01*
X126810952Y-92145714D01*
X126620476Y-92098095D01*
X126525238Y-92050476D01*
X126430000Y-91955238D01*
X126382380Y-91812380D01*
X126382380Y-91717142D01*
X126430000Y-91574285D01*
X126477619Y-91526666D01*
X126477619Y-91145714D02*
X126430000Y-91098095D01*
X126382380Y-91002857D01*
X126382380Y-90764761D01*
X126430000Y-90669523D01*
X126477619Y-90621904D01*
X126572857Y-90574285D01*
X126668095Y-90574285D01*
X126810952Y-90621904D01*
X127382380Y-91193333D01*
X127382380Y-90574285D01*
X163733333Y-131492380D02*
X163257142Y-131492380D01*
X163257142Y-130492380D01*
X164019047Y-130587619D02*
X164066666Y-130540000D01*
X164161904Y-130492380D01*
X164400000Y-130492380D01*
X164495238Y-130540000D01*
X164542857Y-130587619D01*
X164590476Y-130682857D01*
X164590476Y-130778095D01*
X164542857Y-130920952D01*
X163971428Y-131492380D01*
X164590476Y-131492380D01*
X147853333Y-93277142D02*
X147805714Y-93324761D01*
X147662857Y-93372380D01*
X147567619Y-93372380D01*
X147424761Y-93324761D01*
X147329523Y-93229523D01*
X147281904Y-93134285D01*
X147234285Y-92943809D01*
X147234285Y-92800952D01*
X147281904Y-92610476D01*
X147329523Y-92515238D01*
X147424761Y-92420000D01*
X147567619Y-92372380D01*
X147662857Y-92372380D01*
X147805714Y-92420000D01*
X147853333Y-92467619D01*
X148805714Y-93372380D02*
X148234285Y-93372380D01*
X148520000Y-93372380D02*
X148520000Y-92372380D01*
X148424761Y-92515238D01*
X148329523Y-92610476D01*
X148234285Y-92658095D01*
X123957142Y-98356666D02*
X124004761Y-98404285D01*
X124052380Y-98547142D01*
X124052380Y-98642380D01*
X124004761Y-98785238D01*
X123909523Y-98880476D01*
X123814285Y-98928095D01*
X123623809Y-98975714D01*
X123480952Y-98975714D01*
X123290476Y-98928095D01*
X123195238Y-98880476D01*
X123100000Y-98785238D01*
X123052380Y-98642380D01*
X123052380Y-98547142D01*
X123100000Y-98404285D01*
X123147619Y-98356666D01*
X123052380Y-97451904D02*
X123052380Y-97928095D01*
X123528571Y-97975714D01*
X123480952Y-97928095D01*
X123433333Y-97832857D01*
X123433333Y-97594761D01*
X123480952Y-97499523D01*
X123528571Y-97451904D01*
X123623809Y-97404285D01*
X123861904Y-97404285D01*
X123957142Y-97451904D01*
X124004761Y-97499523D01*
X124052380Y-97594761D01*
X124052380Y-97832857D01*
X124004761Y-97928095D01*
X123957142Y-97975714D01*
X163440000Y-113062380D02*
X163630476Y-113062380D01*
X163725714Y-113110000D01*
X163820952Y-113205238D01*
X163868571Y-113395714D01*
X163868571Y-113729047D01*
X163820952Y-113919523D01*
X163725714Y-114014761D01*
X163630476Y-114062380D01*
X163440000Y-114062380D01*
X163344761Y-114014761D01*
X163249523Y-113919523D01*
X163201904Y-113729047D01*
X163201904Y-113395714D01*
X163249523Y-113205238D01*
X163344761Y-113110000D01*
X163440000Y-113062380D01*
X164297142Y-113062380D02*
X164297142Y-113871904D01*
X164344761Y-113967142D01*
X164392380Y-114014761D01*
X164487619Y-114062380D01*
X164678095Y-114062380D01*
X164773333Y-114014761D01*
X164820952Y-113967142D01*
X164868571Y-113871904D01*
X164868571Y-113062380D01*
X165201904Y-113062380D02*
X165773333Y-113062380D01*
X165487619Y-114062380D02*
X165487619Y-113062380D01*
X183633333Y-93767142D02*
X183585714Y-93814761D01*
X183442857Y-93862380D01*
X183347619Y-93862380D01*
X183204761Y-93814761D01*
X183109523Y-93719523D01*
X183061904Y-93624285D01*
X183014285Y-93433809D01*
X183014285Y-93290952D01*
X183061904Y-93100476D01*
X183109523Y-93005238D01*
X183204761Y-92910000D01*
X183347619Y-92862380D01*
X183442857Y-92862380D01*
X183585714Y-92910000D01*
X183633333Y-92957619D01*
X184585714Y-93862380D02*
X184014285Y-93862380D01*
X184300000Y-93862380D02*
X184300000Y-92862380D01*
X184204761Y-93005238D01*
X184109523Y-93100476D01*
X184014285Y-93148095D01*
X178182380Y-91693809D02*
X177182380Y-91693809D01*
X178182380Y-91217619D02*
X177182380Y-91217619D01*
X178182380Y-90646190D01*
X177182380Y-90646190D01*
X178182380Y-90170000D02*
X177182380Y-90170000D01*
X177182380Y-89789047D01*
X177230000Y-89693809D01*
X177277619Y-89646190D01*
X177372857Y-89598571D01*
X177515714Y-89598571D01*
X177610952Y-89646190D01*
X177658571Y-89693809D01*
X177706190Y-89789047D01*
X177706190Y-90170000D01*
X194491849Y-103748323D02*
X194425529Y-103736629D01*
X194304582Y-103646920D01*
X194249956Y-103568906D01*
X194207023Y-103424571D01*
X194230412Y-103291930D01*
X194281113Y-103198297D01*
X194409829Y-103050037D01*
X194526850Y-102968097D01*
X194710193Y-102897852D01*
X194815520Y-102882233D01*
X194948161Y-102905621D01*
X195069108Y-102995329D01*
X195123734Y-103073344D01*
X195166666Y-103217679D01*
X195154972Y-103283999D01*
X194960098Y-104583094D02*
X194632340Y-104115007D01*
X194796219Y-104349051D02*
X195615371Y-103775474D01*
X195443723Y-103779399D01*
X195311082Y-103756011D01*
X195217449Y-103705310D01*
X147463333Y-110277142D02*
X147415714Y-110324761D01*
X147272857Y-110372380D01*
X147177619Y-110372380D01*
X147034761Y-110324761D01*
X146939523Y-110229523D01*
X146891904Y-110134285D01*
X146844285Y-109943809D01*
X146844285Y-109800952D01*
X146891904Y-109610476D01*
X146939523Y-109515238D01*
X147034761Y-109420000D01*
X147177619Y-109372380D01*
X147272857Y-109372380D01*
X147415714Y-109420000D01*
X147463333Y-109467619D01*
X148320476Y-109372380D02*
X148130000Y-109372380D01*
X148034761Y-109420000D01*
X147987142Y-109467619D01*
X147891904Y-109610476D01*
X147844285Y-109800952D01*
X147844285Y-110181904D01*
X147891904Y-110277142D01*
X147939523Y-110324761D01*
X148034761Y-110372380D01*
X148225238Y-110372380D01*
X148320476Y-110324761D01*
X148368095Y-110277142D01*
X148415714Y-110181904D01*
X148415714Y-109943809D01*
X148368095Y-109848571D01*
X148320476Y-109800952D01*
X148225238Y-109753333D01*
X148034761Y-109753333D01*
X147939523Y-109800952D01*
X147891904Y-109848571D01*
X147844285Y-109943809D01*
X162527142Y-94136666D02*
X162574761Y-94184285D01*
X162622380Y-94327142D01*
X162622380Y-94422380D01*
X162574761Y-94565238D01*
X162479523Y-94660476D01*
X162384285Y-94708095D01*
X162193809Y-94755714D01*
X162050952Y-94755714D01*
X161860476Y-94708095D01*
X161765238Y-94660476D01*
X161670000Y-94565238D01*
X161622380Y-94422380D01*
X161622380Y-94327142D01*
X161670000Y-94184285D01*
X161717619Y-94136666D01*
X161622380Y-93803333D02*
X161622380Y-93184285D01*
X162003333Y-93517619D01*
X162003333Y-93374761D01*
X162050952Y-93279523D01*
X162098571Y-93231904D01*
X162193809Y-93184285D01*
X162431904Y-93184285D01*
X162527142Y-93231904D01*
X162574761Y-93279523D01*
X162622380Y-93374761D01*
X162622380Y-93660476D01*
X162574761Y-93755714D01*
X162527142Y-93803333D01*
X178212380Y-120893809D02*
X177212380Y-120893809D01*
X178212380Y-120417619D02*
X177212380Y-120417619D01*
X178212380Y-119846190D01*
X177212380Y-119846190D01*
X178212380Y-119370000D02*
X177212380Y-119370000D01*
X177212380Y-118989047D01*
X177260000Y-118893809D01*
X177307619Y-118846190D01*
X177402857Y-118798571D01*
X177545714Y-118798571D01*
X177640952Y-118846190D01*
X177688571Y-118893809D01*
X177736190Y-118989047D01*
X177736190Y-119370000D01*
X179983333Y-79937142D02*
X179935714Y-79984761D01*
X179792857Y-80032380D01*
X179697619Y-80032380D01*
X179554761Y-79984761D01*
X179459523Y-79889523D01*
X179411904Y-79794285D01*
X179364285Y-79603809D01*
X179364285Y-79460952D01*
X179411904Y-79270476D01*
X179459523Y-79175238D01*
X179554761Y-79080000D01*
X179697619Y-79032380D01*
X179792857Y-79032380D01*
X179935714Y-79080000D01*
X179983333Y-79127619D01*
X180316666Y-79032380D02*
X180983333Y-79032380D01*
X180554761Y-80032380D01*
X214013333Y-125747142D02*
X213965714Y-125794761D01*
X213822857Y-125842380D01*
X213727619Y-125842380D01*
X213584761Y-125794761D01*
X213489523Y-125699523D01*
X213441904Y-125604285D01*
X213394285Y-125413809D01*
X213394285Y-125270952D01*
X213441904Y-125080476D01*
X213489523Y-124985238D01*
X213584761Y-124890000D01*
X213727619Y-124842380D01*
X213822857Y-124842380D01*
X213965714Y-124890000D01*
X214013333Y-124937619D01*
X214489523Y-125842380D02*
X214680000Y-125842380D01*
X214775238Y-125794761D01*
X214822857Y-125747142D01*
X214918095Y-125604285D01*
X214965714Y-125413809D01*
X214965714Y-125032857D01*
X214918095Y-124937619D01*
X214870476Y-124890000D01*
X214775238Y-124842380D01*
X214584761Y-124842380D01*
X214489523Y-124890000D01*
X214441904Y-124937619D01*
X214394285Y-125032857D01*
X214394285Y-125270952D01*
X214441904Y-125366190D01*
X214489523Y-125413809D01*
X214584761Y-125461428D01*
X214775238Y-125461428D01*
X214870476Y-125413809D01*
X214918095Y-125366190D01*
X214965714Y-125270952D01*
X169255534Y-104092607D02*
X169227074Y-104153641D01*
X169109118Y-104247249D01*
X169019624Y-104279822D01*
X168869095Y-104283935D01*
X168747027Y-104227014D01*
X168669707Y-104153806D01*
X168559813Y-103991103D01*
X168510953Y-103856861D01*
X168490553Y-103661586D01*
X168502727Y-103555804D01*
X168559649Y-103433737D01*
X168677604Y-103340129D01*
X168767098Y-103307556D01*
X168917627Y-103303443D01*
X168978661Y-103331904D01*
X169259318Y-103128403D02*
X169885780Y-102900389D01*
X169825075Y-103986662D01*
X143192380Y-91873809D02*
X142192380Y-91873809D01*
X143192380Y-91397619D02*
X142192380Y-91397619D01*
X143192380Y-90826190D01*
X142192380Y-90826190D01*
X143192380Y-90350000D02*
X142192380Y-90350000D01*
X142192380Y-89969047D01*
X142240000Y-89873809D01*
X142287619Y-89826190D01*
X142382857Y-89778571D01*
X142525714Y-89778571D01*
X142620952Y-89826190D01*
X142668571Y-89873809D01*
X142716190Y-89969047D01*
X142716190Y-90350000D01*
%TO.C,J1*%
X133816666Y-108672380D02*
X133816666Y-109386666D01*
X133769047Y-109529523D01*
X133673809Y-109624761D01*
X133530952Y-109672380D01*
X133435714Y-109672380D01*
X134816666Y-109672380D02*
X134245238Y-109672380D01*
X134530952Y-109672380D02*
X134530952Y-108672380D01*
X134435714Y-108815238D01*
X134340476Y-108910476D01*
X134245238Y-108958095D01*
%TO.C,J2*%
X143552380Y-90763333D02*
X144266666Y-90763333D01*
X144409523Y-90810952D01*
X144504761Y-90906190D01*
X144552380Y-91049047D01*
X144552380Y-91144285D01*
X143647619Y-90334761D02*
X143600000Y-90287142D01*
X143552380Y-90191904D01*
X143552380Y-89953809D01*
X143600000Y-89858571D01*
X143647619Y-89810952D01*
X143742857Y-89763333D01*
X143838095Y-89763333D01*
X143980952Y-89810952D01*
X144552380Y-90382380D01*
X144552380Y-89763333D01*
%TO.C,J3*%
X178462380Y-90603333D02*
X179176666Y-90603333D01*
X179319523Y-90650952D01*
X179414761Y-90746190D01*
X179462380Y-90889047D01*
X179462380Y-90984285D01*
X178462380Y-90222380D02*
X178462380Y-89603333D01*
X178843333Y-89936666D01*
X178843333Y-89793809D01*
X178890952Y-89698571D01*
X178938571Y-89650952D01*
X179033809Y-89603333D01*
X179271904Y-89603333D01*
X179367142Y-89650952D01*
X179414761Y-89698571D01*
X179462380Y-89793809D01*
X179462380Y-90079523D01*
X179414761Y-90174761D01*
X179367142Y-90222380D01*
%TO.C,J4*%
X169596666Y-108852380D02*
X169596666Y-109566666D01*
X169549047Y-109709523D01*
X169453809Y-109804761D01*
X169310952Y-109852380D01*
X169215714Y-109852380D01*
X170501428Y-109185714D02*
X170501428Y-109852380D01*
X170263333Y-108804761D02*
X170025238Y-109519047D01*
X170644285Y-109519047D01*
%TO.C,J5*%
X144262380Y-119943333D02*
X144976666Y-119943333D01*
X145119523Y-119990952D01*
X145214761Y-120086190D01*
X145262380Y-120229047D01*
X145262380Y-120324285D01*
X144262380Y-118990952D02*
X144262380Y-119467142D01*
X144738571Y-119514761D01*
X144690952Y-119467142D01*
X144643333Y-119371904D01*
X144643333Y-119133809D01*
X144690952Y-119038571D01*
X144738571Y-118990952D01*
X144833809Y-118943333D01*
X145071904Y-118943333D01*
X145167142Y-118990952D01*
X145214761Y-119038571D01*
X145262380Y-119133809D01*
X145262380Y-119371904D01*
X145214761Y-119467142D01*
X145167142Y-119514761D01*
%TO.C,J6*%
X133776666Y-137952380D02*
X133776666Y-138666666D01*
X133729047Y-138809523D01*
X133633809Y-138904761D01*
X133490952Y-138952380D01*
X133395714Y-138952380D01*
X134681428Y-137952380D02*
X134490952Y-137952380D01*
X134395714Y-138000000D01*
X134348095Y-138047619D01*
X134252857Y-138190476D01*
X134205238Y-138380952D01*
X134205238Y-138761904D01*
X134252857Y-138857142D01*
X134300476Y-138904761D01*
X134395714Y-138952380D01*
X134586190Y-138952380D01*
X134681428Y-138904761D01*
X134729047Y-138857142D01*
X134776666Y-138761904D01*
X134776666Y-138523809D01*
X134729047Y-138428571D01*
X134681428Y-138380952D01*
X134586190Y-138333333D01*
X134395714Y-138333333D01*
X134300476Y-138380952D01*
X134252857Y-138428571D01*
X134205238Y-138523809D01*
%TO.C,J7*%
X178522380Y-119663333D02*
X179236666Y-119663333D01*
X179379523Y-119710952D01*
X179474761Y-119806190D01*
X179522380Y-119949047D01*
X179522380Y-120044285D01*
X178522380Y-119282380D02*
X178522380Y-118615714D01*
X179522380Y-119044285D01*
%TO.C,J8*%
X164762380Y-141303333D02*
X165476666Y-141303333D01*
X165619523Y-141350952D01*
X165714761Y-141446190D01*
X165762380Y-141589047D01*
X165762380Y-141684285D01*
X165190952Y-140684285D02*
X165143333Y-140779523D01*
X165095714Y-140827142D01*
X165000476Y-140874761D01*
X164952857Y-140874761D01*
X164857619Y-140827142D01*
X164810000Y-140779523D01*
X164762380Y-140684285D01*
X164762380Y-140493809D01*
X164810000Y-140398571D01*
X164857619Y-140350952D01*
X164952857Y-140303333D01*
X165000476Y-140303333D01*
X165095714Y-140350952D01*
X165143333Y-140398571D01*
X165190952Y-140493809D01*
X165190952Y-140684285D01*
X165238571Y-140779523D01*
X165286190Y-140827142D01*
X165381428Y-140874761D01*
X165571904Y-140874761D01*
X165667142Y-140827142D01*
X165714761Y-140779523D01*
X165762380Y-140684285D01*
X165762380Y-140493809D01*
X165714761Y-140398571D01*
X165667142Y-140350952D01*
X165571904Y-140303333D01*
X165381428Y-140303333D01*
X165286190Y-140350952D01*
X165238571Y-140398571D01*
X165190952Y-140493809D01*
%TO.C,J9*%
X210477380Y-62708333D02*
X211191666Y-62708333D01*
X211334523Y-62755952D01*
X211429761Y-62851190D01*
X211477380Y-62994047D01*
X211477380Y-63089285D01*
X211477380Y-62184523D02*
X211477380Y-61994047D01*
X211429761Y-61898809D01*
X211382142Y-61851190D01*
X211239285Y-61755952D01*
X211048809Y-61708333D01*
X210667857Y-61708333D01*
X210572619Y-61755952D01*
X210525000Y-61803571D01*
X210477380Y-61898809D01*
X210477380Y-62089285D01*
X210525000Y-62184523D01*
X210572619Y-62232142D01*
X210667857Y-62279761D01*
X210905952Y-62279761D01*
X211001190Y-62232142D01*
X211048809Y-62184523D01*
X211096428Y-62089285D01*
X211096428Y-61898809D01*
X211048809Y-61803571D01*
X211001190Y-61755952D01*
X210905952Y-61708333D01*
%TO.C,J10*%
X199700476Y-80842380D02*
X199700476Y-81556666D01*
X199652857Y-81699523D01*
X199557619Y-81794761D01*
X199414761Y-81842380D01*
X199319523Y-81842380D01*
X200700476Y-81842380D02*
X200129047Y-81842380D01*
X200414761Y-81842380D02*
X200414761Y-80842380D01*
X200319523Y-80985238D01*
X200224285Y-81080476D01*
X200129047Y-81128095D01*
X201319523Y-80842380D02*
X201414761Y-80842380D01*
X201510000Y-80890000D01*
X201557619Y-80937619D01*
X201605238Y-81032857D01*
X201652857Y-81223333D01*
X201652857Y-81461428D01*
X201605238Y-81651904D01*
X201557619Y-81747142D01*
X201510000Y-81794761D01*
X201414761Y-81842380D01*
X201319523Y-81842380D01*
X201224285Y-81794761D01*
X201176666Y-81747142D01*
X201129047Y-81651904D01*
X201081428Y-81461428D01*
X201081428Y-81223333D01*
X201129047Y-81032857D01*
X201176666Y-80937619D01*
X201224285Y-80890000D01*
X201319523Y-80842380D01*
%TO.C,J11*%
X192280476Y-106752380D02*
X192280476Y-107466666D01*
X192232857Y-107609523D01*
X192137619Y-107704761D01*
X191994761Y-107752380D01*
X191899523Y-107752380D01*
X193280476Y-107752380D02*
X192709047Y-107752380D01*
X192994761Y-107752380D02*
X192994761Y-106752380D01*
X192899523Y-106895238D01*
X192804285Y-106990476D01*
X192709047Y-107038095D01*
X194232857Y-107752380D02*
X193661428Y-107752380D01*
X193947142Y-107752380D02*
X193947142Y-106752380D01*
X193851904Y-106895238D01*
X193756666Y-106990476D01*
X193661428Y-107038095D01*
%TO.C,J12*%
X210482380Y-115879523D02*
X211196666Y-115879523D01*
X211339523Y-115927142D01*
X211434761Y-116022380D01*
X211482380Y-116165238D01*
X211482380Y-116260476D01*
X211482380Y-114879523D02*
X211482380Y-115450952D01*
X211482380Y-115165238D02*
X210482380Y-115165238D01*
X210625238Y-115260476D01*
X210720476Y-115355714D01*
X210768095Y-115450952D01*
X210577619Y-114498571D02*
X210530000Y-114450952D01*
X210482380Y-114355714D01*
X210482380Y-114117619D01*
X210530000Y-114022380D01*
X210577619Y-113974761D01*
X210672857Y-113927142D01*
X210768095Y-113927142D01*
X210910952Y-113974761D01*
X211482380Y-114546190D01*
X211482380Y-113927142D01*
%TO.C,J13*%
X125262380Y-69634523D02*
X125976666Y-69634523D01*
X126119523Y-69682142D01*
X126214761Y-69777380D01*
X126262380Y-69920238D01*
X126262380Y-70015476D01*
X126262380Y-68634523D02*
X126262380Y-69205952D01*
X126262380Y-68920238D02*
X125262380Y-68920238D01*
X125405238Y-69015476D01*
X125500476Y-69110714D01*
X125548095Y-69205952D01*
X125262380Y-68301190D02*
X125262380Y-67682142D01*
X125643333Y-68015476D01*
X125643333Y-67872619D01*
X125690952Y-67777380D01*
X125738571Y-67729761D01*
X125833809Y-67682142D01*
X126071904Y-67682142D01*
X126167142Y-67729761D01*
X126214761Y-67777380D01*
X126262380Y-67872619D01*
X126262380Y-68158333D01*
X126214761Y-68253571D01*
X126167142Y-68301190D01*
%TO.C,J14*%
X131190476Y-78782380D02*
X131190476Y-79496666D01*
X131142857Y-79639523D01*
X131047619Y-79734761D01*
X130904761Y-79782380D01*
X130809523Y-79782380D01*
X132190476Y-79782380D02*
X131619047Y-79782380D01*
X131904761Y-79782380D02*
X131904761Y-78782380D01*
X131809523Y-78925238D01*
X131714285Y-79020476D01*
X131619047Y-79068095D01*
X133047619Y-79115714D02*
X133047619Y-79782380D01*
X132809523Y-78734761D02*
X132571428Y-79449047D01*
X133190476Y-79449047D01*
%TO.C,J15*%
X151190476Y-78782380D02*
X151190476Y-79496666D01*
X151142857Y-79639523D01*
X151047619Y-79734761D01*
X150904761Y-79782380D01*
X150809523Y-79782380D01*
X152190476Y-79782380D02*
X151619047Y-79782380D01*
X151904761Y-79782380D02*
X151904761Y-78782380D01*
X151809523Y-78925238D01*
X151714285Y-79020476D01*
X151619047Y-79068095D01*
X153095238Y-78782380D02*
X152619047Y-78782380D01*
X152571428Y-79258571D01*
X152619047Y-79210952D01*
X152714285Y-79163333D01*
X152952380Y-79163333D01*
X153047619Y-79210952D01*
X153095238Y-79258571D01*
X153142857Y-79353809D01*
X153142857Y-79591904D01*
X153095238Y-79687142D01*
X153047619Y-79734761D01*
X152952380Y-79782380D01*
X152714285Y-79782380D01*
X152619047Y-79734761D01*
X152571428Y-79687142D01*
%TO.C,J16*%
X163365476Y-66262380D02*
X163365476Y-66976666D01*
X163317857Y-67119523D01*
X163222619Y-67214761D01*
X163079761Y-67262380D01*
X162984523Y-67262380D01*
X164365476Y-67262380D02*
X163794047Y-67262380D01*
X164079761Y-67262380D02*
X164079761Y-66262380D01*
X163984523Y-66405238D01*
X163889285Y-66500476D01*
X163794047Y-66548095D01*
X165222619Y-66262380D02*
X165032142Y-66262380D01*
X164936904Y-66310000D01*
X164889285Y-66357619D01*
X164794047Y-66500476D01*
X164746428Y-66690952D01*
X164746428Y-67071904D01*
X164794047Y-67167142D01*
X164841666Y-67214761D01*
X164936904Y-67262380D01*
X165127380Y-67262380D01*
X165222619Y-67214761D01*
X165270238Y-67167142D01*
X165317857Y-67071904D01*
X165317857Y-66833809D01*
X165270238Y-66738571D01*
X165222619Y-66690952D01*
X165127380Y-66643333D01*
X164936904Y-66643333D01*
X164841666Y-66690952D01*
X164794047Y-66738571D01*
X164746428Y-66833809D01*
D15*
%TO.C,C1*%
X146944000Y-90270000D02*
X146630000Y-90270000D01*
X149250000Y-95390000D02*
X148936000Y-95390000D01*
X149250000Y-90270000D02*
X149250000Y-95390000D01*
X149250000Y-90270000D02*
X148936000Y-90270000D01*
X146944000Y-95390000D02*
X146630000Y-95390000D01*
X146630000Y-90270000D02*
X146630000Y-95390000D01*
%TO.C,C2*%
X129460000Y-90364000D02*
X129460000Y-90050000D01*
X124340000Y-92670000D02*
X124340000Y-92356000D01*
X129460000Y-92670000D02*
X124340000Y-92670000D01*
X129460000Y-92670000D02*
X129460000Y-92356000D01*
X124340000Y-90364000D02*
X124340000Y-90050000D01*
X129460000Y-90050000D02*
X124340000Y-90050000D01*
%TO.C,C3*%
X129480000Y-93724000D02*
X129480000Y-93410000D01*
X124360000Y-96030000D02*
X124360000Y-95716000D01*
X129480000Y-96030000D02*
X124360000Y-96030000D01*
X129480000Y-96030000D02*
X129480000Y-95716000D01*
X124360000Y-93724000D02*
X124360000Y-93410000D01*
X129480000Y-93410000D02*
X124360000Y-93410000D01*
%TO.C,C4*%
X120584000Y-90390000D02*
X120270000Y-90390000D01*
X122890000Y-95510000D02*
X122576000Y-95510000D01*
X122890000Y-90390000D02*
X122890000Y-95510000D01*
X122890000Y-90390000D02*
X122576000Y-90390000D01*
X120584000Y-95510000D02*
X120270000Y-95510000D01*
X120270000Y-90390000D02*
X120270000Y-95510000D01*
%TO.C,C5*%
X126260000Y-97184000D02*
X126260000Y-96870000D01*
X121140000Y-99490000D02*
X121140000Y-99176000D01*
X126260000Y-99490000D02*
X121140000Y-99490000D01*
X126260000Y-99490000D02*
X126260000Y-99176000D01*
X121140000Y-97184000D02*
X121140000Y-96870000D01*
X126260000Y-96870000D02*
X121140000Y-96870000D01*
%TO.C,C6*%
X146705000Y-107382000D02*
X146391000Y-107382000D01*
X149011000Y-112502000D02*
X148697000Y-112502000D01*
X149011000Y-107382000D02*
X149011000Y-112502000D01*
X149011000Y-107382000D02*
X148697000Y-107382000D01*
X146705000Y-112502000D02*
X146391000Y-112502000D01*
X146391000Y-107382000D02*
X146391000Y-112502000D01*
%TO.C,C7*%
X132139545Y-102138271D02*
X131844481Y-102245665D01*
X136057619Y-106160798D02*
X135762556Y-106268193D01*
X134306476Y-101349572D02*
X136057619Y-106160798D01*
X134306476Y-101349572D02*
X134011413Y-101456966D01*
X133890688Y-106949497D02*
X133595625Y-107056891D01*
X131844481Y-102245665D02*
X133595625Y-107056891D01*
%TO.C,C8*%
X184756000Y-96010000D02*
X185070000Y-96010000D01*
X182450000Y-90890000D02*
X182764000Y-90890000D01*
X182450000Y-96010000D02*
X182450000Y-90890000D01*
X182450000Y-96010000D02*
X182764000Y-96010000D01*
X184756000Y-90890000D02*
X185070000Y-90890000D01*
X185070000Y-96010000D02*
X185070000Y-90890000D01*
%TO.C,C9*%
X164670000Y-89734000D02*
X164670000Y-89420000D01*
X159550000Y-92040000D02*
X159550000Y-91726000D01*
X164670000Y-92040000D02*
X159550000Y-92040000D01*
X164670000Y-92040000D02*
X164670000Y-91726000D01*
X159550000Y-89734000D02*
X159550000Y-89420000D01*
X164670000Y-89420000D02*
X159550000Y-89420000D01*
%TO.C,C10*%
X164690000Y-92954000D02*
X164690000Y-92640000D01*
X159570000Y-95260000D02*
X159570000Y-94946000D01*
X164690000Y-95260000D02*
X159570000Y-95260000D01*
X164690000Y-95260000D02*
X164690000Y-94946000D01*
X159570000Y-92954000D02*
X159570000Y-92640000D01*
X164690000Y-92640000D02*
X159570000Y-92640000D01*
%TO.C,C11*%
X155774000Y-90190000D02*
X155460000Y-90190000D01*
X158080000Y-95310000D02*
X157766000Y-95310000D01*
X158080000Y-90190000D02*
X158080000Y-95310000D01*
X158080000Y-90190000D02*
X157766000Y-90190000D01*
X155774000Y-95310000D02*
X155460000Y-95310000D01*
X155460000Y-90190000D02*
X155460000Y-95310000D01*
%TO.C,C12*%
X167413545Y-101674271D02*
X167118481Y-101781665D01*
X171331619Y-105696798D02*
X171036556Y-105804193D01*
X169580476Y-100885572D02*
X171331619Y-105696798D01*
X169580476Y-100885572D02*
X169285413Y-100992966D01*
X169164688Y-106485497D02*
X168869625Y-106592891D01*
X167118481Y-101781665D02*
X168869625Y-106592891D01*
%TO.C,C13*%
X161360000Y-97104000D02*
X161360000Y-96790000D01*
X156240000Y-99410000D02*
X156240000Y-99096000D01*
X161360000Y-99410000D02*
X156240000Y-99410000D01*
X161360000Y-99410000D02*
X161360000Y-99096000D01*
X156240000Y-97104000D02*
X156240000Y-96790000D01*
X161360000Y-96790000D02*
X156240000Y-96790000D01*
%TO.C,C14*%
X182854000Y-107400000D02*
X182540000Y-107400000D01*
X185160000Y-112520000D02*
X184846000Y-112520000D01*
X185160000Y-107400000D02*
X185160000Y-112520000D01*
X185160000Y-107400000D02*
X184846000Y-107400000D01*
X182854000Y-112520000D02*
X182540000Y-112520000D01*
X182540000Y-107400000D02*
X182540000Y-112520000D01*
%TO.C,C15*%
X148424000Y-119910000D02*
X148110000Y-119910000D01*
X150730000Y-125030000D02*
X150416000Y-125030000D01*
X150730000Y-119910000D02*
X150730000Y-125030000D01*
X150730000Y-119910000D02*
X150416000Y-119910000D01*
X148424000Y-125030000D02*
X148110000Y-125030000D01*
X148110000Y-119910000D02*
X148110000Y-125030000D01*
%TO.C,C16*%
X129980000Y-119094000D02*
X129980000Y-118780000D01*
X124860000Y-121400000D02*
X124860000Y-121086000D01*
X129980000Y-121400000D02*
X124860000Y-121400000D01*
X129980000Y-121400000D02*
X129980000Y-121086000D01*
X124860000Y-119094000D02*
X124860000Y-118780000D01*
X129980000Y-118780000D02*
X124860000Y-118780000D01*
%TO.C,C17*%
X129950000Y-122444000D02*
X129950000Y-122130000D01*
X124830000Y-124750000D02*
X124830000Y-124436000D01*
X129950000Y-124750000D02*
X124830000Y-124750000D01*
X129950000Y-124750000D02*
X129950000Y-124436000D01*
X124830000Y-122444000D02*
X124830000Y-122130000D01*
X129950000Y-122130000D02*
X124830000Y-122130000D01*
%TO.C,C18*%
X121144000Y-119130000D02*
X120830000Y-119130000D01*
X123450000Y-124250000D02*
X123136000Y-124250000D01*
X123450000Y-119130000D02*
X123450000Y-124250000D01*
X123450000Y-119130000D02*
X123136000Y-119130000D01*
X121144000Y-124250000D02*
X120830000Y-124250000D01*
X120830000Y-119130000D02*
X120830000Y-124250000D01*
%TO.C,C19*%
X133573545Y-132074271D02*
X133278481Y-132181665D01*
X137491619Y-136096798D02*
X137196556Y-136204193D01*
X135740476Y-131285572D02*
X137491619Y-136096798D01*
X135740476Y-131285572D02*
X135445413Y-131392966D01*
X135324688Y-136885497D02*
X135029625Y-136992891D01*
X133278481Y-132181665D02*
X135029625Y-136992891D01*
%TO.C,C20*%
X126710000Y-125964000D02*
X126710000Y-125650000D01*
X121590000Y-128270000D02*
X121590000Y-127956000D01*
X126710000Y-128270000D02*
X121590000Y-128270000D01*
X126710000Y-128270000D02*
X126710000Y-127956000D01*
X121590000Y-125964000D02*
X121590000Y-125650000D01*
X126710000Y-125650000D02*
X121590000Y-125650000D01*
%TO.C,C21*%
X148424000Y-136450000D02*
X148110000Y-136450000D01*
X150730000Y-141570000D02*
X150416000Y-141570000D01*
X150730000Y-136450000D02*
X150730000Y-141570000D01*
X150730000Y-136450000D02*
X150416000Y-136450000D01*
X148424000Y-141570000D02*
X148110000Y-141570000D01*
X148110000Y-136450000D02*
X148110000Y-141570000D01*
%TO.C,C22*%
X182684000Y-119240000D02*
X182370000Y-119240000D01*
X184990000Y-124360000D02*
X184676000Y-124360000D01*
X184990000Y-119240000D02*
X184990000Y-124360000D01*
X184990000Y-119240000D02*
X184676000Y-119240000D01*
X182684000Y-124360000D02*
X182370000Y-124360000D01*
X182370000Y-119240000D02*
X182370000Y-124360000D01*
%TO.C,C23*%
X183097867Y-136079710D02*
X182917764Y-135822496D01*
X180226476Y-140905386D02*
X180046373Y-140648172D01*
X184420534Y-137968675D02*
X180226476Y-140905386D01*
X184420534Y-137968675D02*
X184240431Y-137711461D01*
X178903809Y-139016421D02*
X178723706Y-138759208D01*
X182917764Y-135822496D02*
X178723706Y-138759208D01*
%TO.C,C24*%
X158250000Y-120746000D02*
X158250000Y-121060000D01*
X163370000Y-118440000D02*
X163370000Y-118754000D01*
X158250000Y-118440000D02*
X163370000Y-118440000D01*
X158250000Y-118440000D02*
X158250000Y-118754000D01*
X163370000Y-120746000D02*
X163370000Y-121060000D01*
X158250000Y-121060000D02*
X163370000Y-121060000D01*
%TO.C,C25*%
X163290000Y-121790000D02*
X158170000Y-121790000D01*
X158170000Y-122104000D02*
X158170000Y-121790000D01*
X163290000Y-124410000D02*
X163290000Y-124096000D01*
X163290000Y-124410000D02*
X158170000Y-124410000D01*
X158170000Y-124410000D02*
X158170000Y-124096000D01*
X163290000Y-122104000D02*
X163290000Y-121790000D01*
%TO.C,C26*%
X158320000Y-141926000D02*
X158320000Y-142240000D01*
X163440000Y-139620000D02*
X163440000Y-139934000D01*
X158320000Y-139620000D02*
X163440000Y-139620000D01*
X158320000Y-139620000D02*
X158320000Y-139934000D01*
X163440000Y-141926000D02*
X163440000Y-142240000D01*
X158320000Y-142240000D02*
X163440000Y-142240000D01*
%TO.C,C27*%
X213379000Y-61990000D02*
X213065000Y-61990000D01*
X215685000Y-67110000D02*
X215371000Y-67110000D01*
X215685000Y-61990000D02*
X215685000Y-67110000D01*
X215685000Y-61990000D02*
X215371000Y-61990000D01*
X213379000Y-67110000D02*
X213065000Y-67110000D01*
X213065000Y-61990000D02*
X213065000Y-67110000D01*
%TO.C,C28*%
X214552867Y-78349710D02*
X214372764Y-78092496D01*
X211681476Y-83175386D02*
X211501373Y-82918172D01*
X215875534Y-80238675D02*
X211681476Y-83175386D01*
X215875534Y-80238675D02*
X215695431Y-79981461D01*
X210358809Y-81286421D02*
X210178706Y-81029208D01*
X214372764Y-78092496D02*
X210178706Y-81029208D01*
%TO.C,C29*%
X203420000Y-66004000D02*
X203420000Y-65690000D01*
X198300000Y-68310000D02*
X198300000Y-67996000D01*
X203420000Y-68310000D02*
X198300000Y-68310000D01*
X203420000Y-68310000D02*
X203420000Y-67996000D01*
X198300000Y-66004000D02*
X198300000Y-65690000D01*
X203420000Y-65690000D02*
X198300000Y-65690000D01*
%TO.C,C30*%
X185934000Y-75990000D02*
X185620000Y-75990000D01*
X188240000Y-81110000D02*
X187926000Y-81110000D01*
X188240000Y-75990000D02*
X188240000Y-81110000D01*
X188240000Y-75990000D02*
X187926000Y-75990000D01*
X185934000Y-81110000D02*
X185620000Y-81110000D01*
X185620000Y-75990000D02*
X185620000Y-81110000D01*
%TO.C,C31*%
X192580000Y-82884000D02*
X192580000Y-82570000D01*
X187460000Y-85190000D02*
X187460000Y-84876000D01*
X192580000Y-85190000D02*
X187460000Y-85190000D01*
X192580000Y-85190000D02*
X192580000Y-84876000D01*
X187460000Y-82884000D02*
X187460000Y-82570000D01*
X192580000Y-82570000D02*
X187460000Y-82570000D01*
%TO.C,C32*%
X184576000Y-82200000D02*
X184890000Y-82200000D01*
X182270000Y-77080000D02*
X182584000Y-77080000D01*
X182270000Y-82200000D02*
X182270000Y-77080000D01*
X182270000Y-82200000D02*
X182584000Y-82200000D01*
X184576000Y-77080000D02*
X184890000Y-77080000D01*
X184890000Y-82200000D02*
X184890000Y-77080000D01*
%TO.C,C33*%
X179174000Y-77000000D02*
X178860000Y-77000000D01*
X181480000Y-82120000D02*
X181166000Y-82120000D01*
X181480000Y-77000000D02*
X181480000Y-82120000D01*
X181480000Y-77000000D02*
X181166000Y-77000000D01*
X179174000Y-82120000D02*
X178860000Y-82120000D01*
X178860000Y-77000000D02*
X178860000Y-82120000D01*
%TO.C,C34*%
X196064148Y-101109295D02*
X195842117Y-100887264D01*
X194074350Y-106360270D02*
X193852318Y-106138239D01*
X197694736Y-102739883D02*
X194074350Y-106360270D01*
X197694736Y-102739883D02*
X197472705Y-102517852D01*
X192443761Y-104729682D02*
X192221730Y-104507650D01*
X195842117Y-100887264D02*
X192221730Y-104507650D01*
%TO.C,C35*%
X191614000Y-122830000D02*
X191300000Y-122830000D01*
X193920000Y-127950000D02*
X193606000Y-127950000D01*
X193920000Y-122830000D02*
X193920000Y-127950000D01*
X193920000Y-122830000D02*
X193606000Y-122830000D01*
X191614000Y-127950000D02*
X191300000Y-127950000D01*
X191300000Y-122830000D02*
X191300000Y-127950000D01*
%TO.C,C36*%
X195004000Y-122750000D02*
X194690000Y-122750000D01*
X197310000Y-127870000D02*
X196996000Y-127870000D01*
X197310000Y-122750000D02*
X197310000Y-127870000D01*
X197310000Y-122750000D02*
X196996000Y-122750000D01*
X195004000Y-127870000D02*
X194690000Y-127870000D01*
X194690000Y-122750000D02*
X194690000Y-127870000D01*
%TO.C,C37*%
X191840000Y-134094000D02*
X191840000Y-134408000D01*
X196960000Y-131788000D02*
X196960000Y-132102000D01*
X191840000Y-131788000D02*
X196960000Y-131788000D01*
X191840000Y-131788000D02*
X191840000Y-132102000D01*
X196960000Y-134094000D02*
X196960000Y-134408000D01*
X191840000Y-134408000D02*
X196960000Y-134408000D01*
%TO.C,C38*%
X195476000Y-135832000D02*
X195162000Y-135832000D01*
X197782000Y-140952000D02*
X197468000Y-140952000D01*
X197782000Y-135832000D02*
X197782000Y-140952000D01*
X197782000Y-135832000D02*
X197468000Y-135832000D01*
X195476000Y-140952000D02*
X195162000Y-140952000D01*
X195162000Y-135832000D02*
X195162000Y-140952000D01*
%TO.C,C39*%
X191920000Y-135832000D02*
X191606000Y-135832000D01*
X194226000Y-140952000D02*
X193912000Y-140952000D01*
X194226000Y-135832000D02*
X194226000Y-140952000D01*
X194226000Y-135832000D02*
X193912000Y-135832000D01*
X191920000Y-140952000D02*
X191606000Y-140952000D01*
X191606000Y-135832000D02*
X191606000Y-140952000D01*
%TO.C,C40*%
X214670000Y-140224000D02*
X214670000Y-139910000D01*
X209550000Y-142530000D02*
X209550000Y-142216000D01*
X214670000Y-142530000D02*
X209550000Y-142530000D01*
X214670000Y-142530000D02*
X214670000Y-142216000D01*
X209550000Y-140224000D02*
X209550000Y-139910000D01*
X214670000Y-139910000D02*
X209550000Y-139910000D01*
%TO.C,C41*%
X215156000Y-135440000D02*
X215470000Y-135440000D01*
X212850000Y-130320000D02*
X213164000Y-130320000D01*
X212850000Y-135440000D02*
X212850000Y-130320000D01*
X212850000Y-135440000D02*
X213164000Y-135440000D01*
X215156000Y-130320000D02*
X215470000Y-130320000D01*
X215470000Y-135440000D02*
X215470000Y-130320000D01*
%TO.C,C42*%
X215266000Y-127970000D02*
X215580000Y-127970000D01*
X212960000Y-122850000D02*
X213274000Y-122850000D01*
X212960000Y-127970000D02*
X212960000Y-122850000D01*
X212960000Y-127970000D02*
X213274000Y-127970000D01*
X215266000Y-122850000D02*
X215580000Y-122850000D01*
X215580000Y-127970000D02*
X215580000Y-122850000D01*
%TO.C,L2*%
X145695910Y-100845258D02*
G75*
G03*
X145695910Y-100845258I-3758100J0D01*
G01*
X148377811Y-100845258D02*
G75*
G03*
X148377811Y-100845258I-6440001J0D01*
G01*
%TO.C,L3*%
X129748100Y-106200254D02*
G75*
G03*
X129748100Y-106200254I-3758100J0D01*
G01*
X132430000Y-106200254D02*
G75*
G03*
X132430000Y-106200254I-6440000J0D01*
G01*
%TO.C,J1*%
X132588000Y-113090000D02*
X131258000Y-113090000D01*
X133858000Y-113090000D02*
X141538000Y-113090000D01*
X131258000Y-113090000D02*
X131258000Y-111760000D01*
X141538000Y-113090000D02*
X141538000Y-110430000D01*
X133858000Y-113090000D02*
X133858000Y-110430000D01*
X133858000Y-110430000D02*
X141538000Y-110430000D01*
%TO.C,J2*%
X133858000Y-90110000D02*
X141538000Y-90110000D01*
X133858000Y-92770000D02*
X141538000Y-92770000D01*
X132588000Y-92770000D02*
X131258000Y-92770000D01*
X131258000Y-92770000D02*
X131258000Y-91440000D01*
X141538000Y-92770000D02*
X141538000Y-90110000D01*
X133858000Y-92770000D02*
X133858000Y-90110000D01*
%TO.C,J3*%
X168910000Y-90110000D02*
X176590000Y-90110000D01*
X168910000Y-92770000D02*
X176590000Y-92770000D01*
X176590000Y-92770000D02*
X176590000Y-90110000D01*
X168910000Y-92770000D02*
X168910000Y-90110000D01*
X166310000Y-92770000D02*
X166310000Y-91440000D01*
X167640000Y-92770000D02*
X166310000Y-92770000D01*
%TO.C,J4*%
X166310000Y-113090000D02*
X166310000Y-111760000D01*
X167640000Y-113090000D02*
X166310000Y-113090000D01*
X176590000Y-113090000D02*
X176590000Y-110430000D01*
X168910000Y-110430000D02*
X176590000Y-110430000D01*
X168910000Y-113090000D02*
X176590000Y-113090000D01*
X168910000Y-113090000D02*
X168910000Y-110430000D01*
%TO.C,L1*%
X183641811Y-101019258D02*
G75*
G03*
X183641811Y-101019258I-6440001J0D01*
G01*
X180959910Y-101019258D02*
G75*
G03*
X180959910Y-101019258I-3758100J0D01*
G01*
%TO.C,L4*%
X165388100Y-106310254D02*
G75*
G03*
X165388100Y-106310254I-3758100J0D01*
G01*
X168070000Y-106310254D02*
G75*
G03*
X168070000Y-106310254I-6440000J0D01*
G01*
%TO.C,J5*%
X133350000Y-121980000D02*
X132020000Y-121980000D01*
X134620000Y-121980000D02*
X142300000Y-121980000D01*
X132020000Y-121980000D02*
X132020000Y-120650000D01*
X142300000Y-121980000D02*
X142300000Y-119320000D01*
X134620000Y-121980000D02*
X134620000Y-119320000D01*
X134620000Y-119320000D02*
X142300000Y-119320000D01*
%TO.C,J6*%
X134620000Y-142300000D02*
X134620000Y-139640000D01*
X134620000Y-139640000D02*
X142300000Y-139640000D01*
X133350000Y-142300000D02*
X132020000Y-142300000D01*
X142300000Y-142300000D02*
X142300000Y-139640000D01*
X132020000Y-142300000D02*
X132020000Y-140970000D01*
X134620000Y-142300000D02*
X142300000Y-142300000D01*
%TO.C,L5*%
X146519910Y-129289258D02*
G75*
G03*
X146519910Y-129289258I-3758100J0D01*
G01*
X149201811Y-129289258D02*
G75*
G03*
X149201811Y-129289258I-6440001J0D01*
G01*
%TO.C,L6*%
X130848100Y-135040254D02*
G75*
G03*
X130848100Y-135040254I-3758100J0D01*
G01*
X133530000Y-135040254D02*
G75*
G03*
X133530000Y-135040254I-6440000J0D01*
G01*
%TO.C,J7*%
X167640000Y-121980000D02*
X166310000Y-121980000D01*
X168910000Y-121980000D02*
X168910000Y-119320000D01*
X168910000Y-121980000D02*
X176590000Y-121980000D01*
X166310000Y-121980000D02*
X166310000Y-120650000D01*
X176590000Y-121980000D02*
X176590000Y-119320000D01*
X168910000Y-119320000D02*
X176590000Y-119320000D01*
%TO.C,J8*%
X168910000Y-139640000D02*
X176590000Y-139640000D01*
X168910000Y-142300000D02*
X176590000Y-142300000D01*
X166310000Y-142300000D02*
X166310000Y-140970000D01*
X176590000Y-142300000D02*
X176590000Y-139640000D01*
X168910000Y-142300000D02*
X168910000Y-139640000D01*
X167640000Y-142300000D02*
X166310000Y-142300000D01*
%TO.C,L7*%
X182109910Y-130419258D02*
G75*
G03*
X182109910Y-130419258I-3758100J0D01*
G01*
X184791811Y-130419258D02*
G75*
G03*
X184791811Y-130419258I-6440001J0D01*
G01*
%TO.C,L8*%
X170590000Y-130870254D02*
G75*
G03*
X170590000Y-130870254I-6440000J0D01*
G01*
X167908100Y-130870254D02*
G75*
G03*
X167908100Y-130870254I-3758100J0D01*
G01*
%TO.C,J9*%
X199390000Y-64830000D02*
X198060000Y-64830000D01*
X208340000Y-64830000D02*
X208340000Y-62170000D01*
X198060000Y-64830000D02*
X198060000Y-63500000D01*
X200660000Y-62170000D02*
X208340000Y-62170000D01*
X200660000Y-64830000D02*
X208340000Y-64830000D01*
X200660000Y-64830000D02*
X200660000Y-62170000D01*
%TO.C,J10*%
X200660000Y-82490000D02*
X208340000Y-82490000D01*
X198060000Y-85150000D02*
X198060000Y-83820000D01*
X208340000Y-85150000D02*
X208340000Y-82490000D01*
X200660000Y-85150000D02*
X208340000Y-85150000D01*
X199390000Y-85150000D02*
X198060000Y-85150000D01*
X200660000Y-85150000D02*
X200660000Y-82490000D01*
%TO.C,L9*%
X212469910Y-73009258D02*
G75*
G03*
X212469910Y-73009258I-3758100J0D01*
G01*
X215151811Y-73009258D02*
G75*
G03*
X215151811Y-73009258I-6440001J0D01*
G01*
%TO.C,L10*%
X201750000Y-74600000D02*
G75*
G03*
X201750000Y-74600000I-6440000J0D01*
G01*
X199068100Y-74600000D02*
G75*
G03*
X199068100Y-74600000I-3758100J0D01*
G01*
%TO.C,L11*%
X187529168Y-67978932D02*
G75*
G03*
X187529168Y-67978932I-3758100J0D01*
G01*
X190211067Y-67978932D02*
G75*
G03*
X190211067Y-67978932I-6439999J0D01*
G01*
%TO.C,J11*%
X194500000Y-117350000D02*
X191840000Y-117350000D01*
X194500000Y-119950000D02*
X193170000Y-119950000D01*
X194500000Y-109670000D02*
X191840000Y-109670000D01*
X194500000Y-117350000D02*
X194500000Y-109670000D01*
X194500000Y-118620000D02*
X194500000Y-119950000D01*
X191840000Y-117350000D02*
X191840000Y-109670000D01*
%TO.C,J12*%
X214820000Y-117350000D02*
X214820000Y-109670000D01*
X214820000Y-117350000D02*
X212160000Y-117350000D01*
X212160000Y-117350000D02*
X212160000Y-109670000D01*
X214820000Y-109670000D02*
X212160000Y-109670000D01*
X214820000Y-119950000D02*
X213490000Y-119950000D01*
X214820000Y-118620000D02*
X214820000Y-119950000D01*
%TO.C,L12*%
X209208100Y-107125000D02*
G75*
G03*
X209208100Y-107125000I-3758100J0D01*
G01*
X211890000Y-107125000D02*
G75*
G03*
X211890000Y-107125000I-6440000J0D01*
G01*
%TO.C,L13*%
X211550254Y-134575000D02*
G75*
G03*
X211550254Y-134575000I-6440000J0D01*
G01*
X208868354Y-134575000D02*
G75*
G03*
X208868354Y-134575000I-3758100J0D01*
G01*
%TO.C,L14*%
X211104746Y-121100000D02*
G75*
G03*
X211104746Y-121100000I-6440000J0D01*
G01*
X208422846Y-121100000D02*
G75*
G03*
X208422846Y-121100000I-3758100J0D01*
G01*
%TO.C,J14*%
X133330000Y-78330000D02*
X132000000Y-78330000D01*
X133330000Y-77000000D02*
X133330000Y-78330000D01*
X133330000Y-75730000D02*
X133330000Y-68050000D01*
X130670000Y-75730000D02*
X130670000Y-68050000D01*
X133330000Y-75730000D02*
X130670000Y-75730000D01*
X133330000Y-68050000D02*
X130670000Y-68050000D01*
%TO.C,J15*%
X153330000Y-75730000D02*
X153330000Y-68050000D01*
X153330000Y-68050000D02*
X150670000Y-68050000D01*
X153330000Y-77000000D02*
X153330000Y-78330000D01*
X153330000Y-75730000D02*
X150670000Y-75730000D01*
X150670000Y-75730000D02*
X150670000Y-68050000D01*
X153330000Y-78330000D02*
X152000000Y-78330000D01*
%TD*%
M02*
