M48
; DRILL file {KiCad (6.0.11)} date Sun Mar  5 01:45:04 2023
; FORMAT={-:-/ absolute / inch / decimal}
; #@! TF.CreationDate,2023-03-05T01:45:04-06:00
; #@! TF.GenerationSoftware,Kicad,Pcbnew,(6.0.11)
; #@! TF.FileFunction,Plated,1,2,PTH
FMAT,2
INCH
; #@! TA.AperFunction,Plated,PTH,ViaDrill
T1C0.0157
; #@! TA.AperFunction,Plated,PTH,ComponentDrill
T2C0.0315
; #@! TA.AperFunction,Plated,PTH,ComponentDrill
T3C0.0394
; #@! TA.AperFunction,Plated,PTH,ComponentDrill
T4C0.0472
%
G90
G05
T1
X4.8031Y-3.1102
X4.9606Y-2.9921
X5.0Y-2.6772
X6.063Y-2.4803
X6.1811Y-2.6378
X6.4961Y-2.6772
X6.6142Y-2.4803
T2
X4.7717Y-3.8654
X4.7866Y-3.561
X4.7866Y-3.7579
X4.7894Y-4.9984
X4.8087Y-4.6925
X4.8087Y-4.8894
X4.8976Y-3.5969
X4.8984Y-3.7291
X4.9169Y-4.8598
X4.9181Y-4.728
X4.9685Y-3.8654
X4.9862Y-4.9984
X5.0945Y-3.5969
X5.0953Y-3.7291
X5.1138Y-4.8598
X5.115Y-4.728
X5.24Y-4.01
X5.2965Y-5.1886
X5.3073Y-4.195
X5.3638Y-5.3736
X5.815Y-4.23
X5.815Y-4.4269
X5.8244Y-3.5563
X5.8244Y-3.7531
X5.8827Y-4.7232
X5.8827Y-4.9201
X5.8827Y-5.3744
X5.8827Y-5.5713
X6.1535Y-3.8622
X6.172Y-3.5531
X6.172Y-3.75
X6.2295Y-4.8465
X6.2327Y-4.7146
X6.2354Y-5.5484
X6.2839Y-3.572
X6.2846Y-3.6988
X6.3504Y-3.8622
X6.4264Y-4.8465
X6.4295Y-4.7146
X6.4323Y-5.5484
X6.4807Y-3.572
X6.4815Y-3.6988
X6.6287Y-3.9917
X6.6961Y-4.1767
X7.0679Y-5.5039
X7.0933Y-3.0339
X7.0933Y-3.2307
X7.2276Y-3.037
X7.2276Y-3.2339
X7.2291Y-5.3909
X7.2315Y-4.6969
X7.2315Y-4.8937
X7.2346Y-3.5807
X7.2346Y-3.7776
X7.2382Y-4.2307
X7.2382Y-4.4276
X7.3594Y-2.9941
X7.3594Y-3.1909
X7.3827Y-3.3024
X7.5551Y-5.2401
X7.5795Y-3.3024
X7.5831Y-4.8382
X7.5831Y-5.035
X7.5951Y-5.3501
X7.5951Y-5.5469
X7.6059Y-4.1493
X7.7165Y-4.835
X7.7165Y-5.0319
X7.7351Y-5.3501
X7.7351Y-5.5469
X7.7451Y-4.0101
X7.752Y-5.2401
X7.8094Y-2.6378
X8.0063Y-2.6378
X8.2524Y-5.5598
X8.3063Y-3.231
X8.4315Y-5.1331
X8.4315Y-5.3299
X8.4358Y-4.839
X8.4358Y-5.0358
X8.44Y-2.4429
X8.44Y-2.6398
X8.4492Y-5.5598
X8.4675Y-3.1181
T3
X5.1969Y-2.7315
X5.1969Y-2.8315
X5.1969Y-2.9315
X5.1969Y-3.0315
X5.22Y-3.6
X5.22Y-4.4
X5.25Y-4.75
X5.25Y-5.55
X5.32Y-3.6
X5.32Y-4.4
X5.35Y-4.75
X5.35Y-5.55
X5.42Y-3.6
X5.42Y-4.4
X5.45Y-4.75
X5.45Y-5.55
X5.52Y-3.6
X5.52Y-4.4
X5.55Y-4.75
X5.55Y-5.55
X5.9843Y-2.7315
X5.9843Y-2.8315
X5.9843Y-2.9315
X5.9843Y-3.0315
X6.6Y-3.6
X6.6Y-4.4
X6.6Y-4.75
X6.6Y-5.55
X6.7Y-3.6
X6.7Y-4.4
X6.7Y-4.75
X6.7Y-5.55
X6.8Y-3.6
X6.8Y-4.4
X6.8Y-4.75
X6.8Y-5.55
X6.9Y-3.6
X6.9Y-4.4
X6.9Y-4.75
X6.9Y-5.55
X7.6051Y-4.3701
X7.6051Y-4.4701
X7.6051Y-4.5701
X7.6051Y-4.6701
X7.85Y-2.5
X7.85Y-3.3
X7.95Y-2.5
X7.95Y-3.3
X8.05Y-2.5
X8.05Y-3.3
X8.15Y-2.5
X8.15Y-3.3
X8.4051Y-4.3701
X8.4051Y-4.4701
X8.4051Y-4.5701
X8.4051Y-4.6701
T4
X4.8164Y-4.4404
X4.8597Y-5.5758
X5.1071Y-3.9268
X5.1504Y-5.0622
X5.5163Y-4.258
X5.5488Y-5.3778
X5.6641Y-3.6866
X5.6966Y-4.8064
X6.2196Y-4.4447
X6.3188Y-5.4117
X6.5102Y-3.9311
X6.6094Y-4.898
X6.9047Y-4.2648
X6.9499Y-5.4223
X7.0274Y-2.884
X7.0525Y-3.6934
X7.0977Y-4.8509
X7.4411Y-2.4631
X7.6894Y-2.6433
X7.6945Y-3.2335
X7.7949Y-4.2175
X7.7984Y-4.6239
X7.8209Y-5.1514
X8.1452Y-3.1621
X8.293Y-2.5907
X8.312Y-4.9146
X8.3345Y-5.442
X8.385Y-4.2124
T0
M30
