%TF.GenerationSoftware,KiCad,Pcbnew,(6.0.11)*%
%TF.CreationDate,2023-02-05T16:57:11-06:00*%
%TF.ProjectId,BandPassFilter,42616e64-5061-4737-9346-696c7465722e,rev?*%
%TF.SameCoordinates,Original*%
%TF.FileFunction,Legend,Bot*%
%TF.FilePolarity,Positive*%
%FSLAX46Y46*%
G04 Gerber Fmt 4.6, Leading zero omitted, Abs format (unit mm)*
G04 Created by KiCad (PCBNEW (6.0.11)) date 2023-02-05 16:57:11*
%MOMM*%
%LPD*%
G01*
G04 APERTURE LIST*
%ADD10C,0.200000*%
G04 APERTURE END LIST*
D10*
X190500000Y-143000000D02*
X190500000Y-100500000D01*
X216000000Y-143000000D02*
X190500000Y-143000000D01*
X216000000Y-100500000D02*
X216000000Y-143000000D01*
X190500000Y-100500000D02*
X216000000Y-100500000D01*
X157500000Y-143500000D02*
X157500000Y-118000000D01*
X185500000Y-143500000D02*
X157500000Y-143500000D01*
X185500000Y-118000000D02*
X185500000Y-143500000D01*
X157500000Y-118000000D02*
X185500000Y-118000000D01*
X120500000Y-118500000D02*
X120500000Y-118000000D01*
X120500000Y-143500000D02*
X120500000Y-118500000D01*
X151000000Y-143500000D02*
X120500000Y-143500000D01*
X151000000Y-118000000D02*
X151000000Y-143500000D01*
X120500000Y-118000000D02*
X151000000Y-118000000D01*
X155000000Y-114500000D02*
X155000000Y-89000000D01*
X185500000Y-89000000D02*
X185000000Y-89000000D01*
X185500000Y-114500000D02*
X185500000Y-89000000D01*
X185000000Y-114500000D02*
X185500000Y-114500000D01*
X185000000Y-114500000D02*
X155000000Y-114500000D01*
X155000000Y-89000000D02*
X185000000Y-89000000D01*
X123000000Y-89000000D02*
X119500000Y-89000000D01*
X148500000Y-89000000D02*
X123000000Y-89000000D01*
X119500000Y-114000000D02*
X119500000Y-89000000D01*
X149500000Y-114000000D02*
X119500000Y-114000000D01*
X149500000Y-89000000D02*
X149500000Y-114000000D01*
X148500000Y-89000000D02*
X149500000Y-89000000D01*
X176500000Y-86500000D02*
X176500000Y-61000000D01*
X216000000Y-86500000D02*
X176500000Y-86500000D01*
X216000000Y-61000000D02*
X216000000Y-86500000D01*
X176500000Y-61000000D02*
X216000000Y-61000000D01*
X119000000Y-60000000D02*
X119000000Y-85000000D01*
X170000000Y-60000000D02*
X119000000Y-60000000D01*
X170000000Y-85000000D02*
X170000000Y-60000000D01*
X119000000Y-85000000D02*
X170000000Y-85000000D01*
M02*
