%TF.GenerationSoftware,KiCad,Pcbnew,(6.0.11)*%
%TF.CreationDate,2023-03-05T11:56:58-06:00*%
%TF.ProjectId,BandPassFilter,42616e64-5061-4737-9346-696c7465722e,rev?*%
%TF.SameCoordinates,Original*%
%TF.FileFunction,Legend,Top*%
%TF.FilePolarity,Positive*%
%FSLAX46Y46*%
G04 Gerber Fmt 4.6, Leading zero omitted, Abs format (unit mm)*
G04 Created by KiCad (PCBNEW (6.0.11)) date 2023-03-05 11:56:58*
%MOMM*%
%LPD*%
G01*
G04 APERTURE LIST*
%ADD10C,0.150000*%
%ADD11C,5.000000*%
%ADD12C,3.500000*%
%ADD13C,0.200000*%
%ADD14C,4.000000*%
%ADD15C,0.120000*%
G04 APERTURE END LIST*
D10*
X184273333Y-126487142D02*
X184225714Y-126534761D01*
X184082857Y-126582380D01*
X183987619Y-126582380D01*
X183844761Y-126534761D01*
X183749523Y-126439523D01*
X183701904Y-126344285D01*
X183654285Y-126153809D01*
X183654285Y-126010952D01*
X183701904Y-125820476D01*
X183749523Y-125725238D01*
X183844761Y-125630000D01*
X183987619Y-125582380D01*
X184082857Y-125582380D01*
X184225714Y-125630000D01*
X184273333Y-125677619D01*
X185225714Y-126582380D02*
X184654285Y-126582380D01*
X184940000Y-126582380D02*
X184940000Y-125582380D01*
X184844761Y-125725238D01*
X184749523Y-125820476D01*
X184654285Y-125868095D01*
X165487142Y-119906666D02*
X165534761Y-119954285D01*
X165582380Y-120097142D01*
X165582380Y-120192380D01*
X165534761Y-120335238D01*
X165439523Y-120430476D01*
X165344285Y-120478095D01*
X165153809Y-120525714D01*
X165010952Y-120525714D01*
X164820476Y-120478095D01*
X164725238Y-120430476D01*
X164630000Y-120335238D01*
X164582380Y-120192380D01*
X164582380Y-120097142D01*
X164630000Y-119954285D01*
X164677619Y-119906666D01*
X164582380Y-119573333D02*
X164582380Y-118954285D01*
X164963333Y-119287619D01*
X164963333Y-119144761D01*
X165010952Y-119049523D01*
X165058571Y-119001904D01*
X165153809Y-118954285D01*
X165391904Y-118954285D01*
X165487142Y-119001904D01*
X165534761Y-119049523D01*
X165582380Y-119144761D01*
X165582380Y-119430476D01*
X165534761Y-119525714D01*
X165487142Y-119573333D01*
X158383333Y-125887142D02*
X158335714Y-125934761D01*
X158192857Y-125982380D01*
X158097619Y-125982380D01*
X157954761Y-125934761D01*
X157859523Y-125839523D01*
X157811904Y-125744285D01*
X157764285Y-125553809D01*
X157764285Y-125410952D01*
X157811904Y-125220476D01*
X157859523Y-125125238D01*
X157954761Y-125030000D01*
X158097619Y-124982380D01*
X158192857Y-124982380D01*
X158335714Y-125030000D01*
X158383333Y-125077619D01*
X159240476Y-125315714D02*
X159240476Y-125982380D01*
X159002380Y-124934761D02*
X158764285Y-125649047D01*
X159383333Y-125649047D01*
X121423333Y-129577142D02*
X121375714Y-129624761D01*
X121232857Y-129672380D01*
X121137619Y-129672380D01*
X120994761Y-129624761D01*
X120899523Y-129529523D01*
X120851904Y-129434285D01*
X120804285Y-129243809D01*
X120804285Y-129100952D01*
X120851904Y-128910476D01*
X120899523Y-128815238D01*
X120994761Y-128720000D01*
X121137619Y-128672380D01*
X121232857Y-128672380D01*
X121375714Y-128720000D01*
X121423333Y-128767619D01*
X122328095Y-128672380D02*
X121851904Y-128672380D01*
X121804285Y-129148571D01*
X121851904Y-129100952D01*
X121947142Y-129053333D01*
X122185238Y-129053333D01*
X122280476Y-129100952D01*
X122328095Y-129148571D01*
X122375714Y-129243809D01*
X122375714Y-129481904D01*
X122328095Y-129577142D01*
X122280476Y-129624761D01*
X122185238Y-129672380D01*
X121947142Y-129672380D01*
X121851904Y-129624761D01*
X121804285Y-129577142D01*
X130833333Y-119207142D02*
X130785714Y-119254761D01*
X130642857Y-119302380D01*
X130547619Y-119302380D01*
X130404761Y-119254761D01*
X130309523Y-119159523D01*
X130261904Y-119064285D01*
X130214285Y-118873809D01*
X130214285Y-118730952D01*
X130261904Y-118540476D01*
X130309523Y-118445238D01*
X130404761Y-118350000D01*
X130547619Y-118302380D01*
X130642857Y-118302380D01*
X130785714Y-118350000D01*
X130833333Y-118397619D01*
X131214285Y-118397619D02*
X131261904Y-118350000D01*
X131357142Y-118302380D01*
X131595238Y-118302380D01*
X131690476Y-118350000D01*
X131738095Y-118397619D01*
X131785714Y-118492857D01*
X131785714Y-118588095D01*
X131738095Y-118730952D01*
X131166666Y-119302380D01*
X131785714Y-119302380D01*
X123733333Y-125267142D02*
X123685714Y-125314761D01*
X123542857Y-125362380D01*
X123447619Y-125362380D01*
X123304761Y-125314761D01*
X123209523Y-125219523D01*
X123161904Y-125124285D01*
X123114285Y-124933809D01*
X123114285Y-124790952D01*
X123161904Y-124600476D01*
X123209523Y-124505238D01*
X123304761Y-124410000D01*
X123447619Y-124362380D01*
X123542857Y-124362380D01*
X123685714Y-124410000D01*
X123733333Y-124457619D01*
X124590476Y-124695714D02*
X124590476Y-125362380D01*
X124352380Y-124314761D02*
X124114285Y-125029047D01*
X124733333Y-125029047D01*
X130033333Y-126387142D02*
X129985714Y-126434761D01*
X129842857Y-126482380D01*
X129747619Y-126482380D01*
X129604761Y-126434761D01*
X129509523Y-126339523D01*
X129461904Y-126244285D01*
X129414285Y-126053809D01*
X129414285Y-125910952D01*
X129461904Y-125720476D01*
X129509523Y-125625238D01*
X129604761Y-125530000D01*
X129747619Y-125482380D01*
X129842857Y-125482380D01*
X129985714Y-125530000D01*
X130033333Y-125577619D01*
X130366666Y-125482380D02*
X130985714Y-125482380D01*
X130652380Y-125863333D01*
X130795238Y-125863333D01*
X130890476Y-125910952D01*
X130938095Y-125958571D01*
X130985714Y-126053809D01*
X130985714Y-126291904D01*
X130938095Y-126387142D01*
X130890476Y-126434761D01*
X130795238Y-126482380D01*
X130509523Y-126482380D01*
X130414285Y-126434761D01*
X130366666Y-126387142D01*
X136945534Y-138542607D02*
X136917074Y-138603641D01*
X136799118Y-138697249D01*
X136709624Y-138729822D01*
X136559095Y-138733935D01*
X136437027Y-138677014D01*
X136359707Y-138603806D01*
X136249813Y-138441103D01*
X136200953Y-138306861D01*
X136180553Y-138111586D01*
X136192727Y-138005804D01*
X136249649Y-137883737D01*
X136367604Y-137790129D01*
X136457098Y-137757556D01*
X136607627Y-137753443D01*
X136668661Y-137781904D01*
X136949318Y-137578403D02*
X137575780Y-137350389D01*
X137515075Y-138436662D01*
X149733333Y-127187142D02*
X149685714Y-127234761D01*
X149542857Y-127282380D01*
X149447619Y-127282380D01*
X149304761Y-127234761D01*
X149209523Y-127139523D01*
X149161904Y-127044285D01*
X149114285Y-126853809D01*
X149114285Y-126710952D01*
X149161904Y-126520476D01*
X149209523Y-126425238D01*
X149304761Y-126330000D01*
X149447619Y-126282380D01*
X149542857Y-126282380D01*
X149685714Y-126330000D01*
X149733333Y-126377619D01*
X150685714Y-127282380D02*
X150114285Y-127282380D01*
X150400000Y-127282380D02*
X150400000Y-126282380D01*
X150304761Y-126425238D01*
X150209523Y-126520476D01*
X150114285Y-126568095D01*
X149253333Y-134977142D02*
X149205714Y-135024761D01*
X149062857Y-135072380D01*
X148967619Y-135072380D01*
X148824761Y-135024761D01*
X148729523Y-134929523D01*
X148681904Y-134834285D01*
X148634285Y-134643809D01*
X148634285Y-134500952D01*
X148681904Y-134310476D01*
X148729523Y-134215238D01*
X148824761Y-134120000D01*
X148967619Y-134072380D01*
X149062857Y-134072380D01*
X149205714Y-134120000D01*
X149253333Y-134167619D01*
X150110476Y-134072380D02*
X149920000Y-134072380D01*
X149824761Y-134120000D01*
X149777142Y-134167619D01*
X149681904Y-134310476D01*
X149634285Y-134500952D01*
X149634285Y-134881904D01*
X149681904Y-134977142D01*
X149729523Y-135024761D01*
X149824761Y-135072380D01*
X150015238Y-135072380D01*
X150110476Y-135024761D01*
X150158095Y-134977142D01*
X150205714Y-134881904D01*
X150205714Y-134643809D01*
X150158095Y-134548571D01*
X150110476Y-134500952D01*
X150015238Y-134453333D01*
X149824761Y-134453333D01*
X149729523Y-134500952D01*
X149681904Y-134548571D01*
X149634285Y-134643809D01*
X148173333Y-97717142D02*
X148125714Y-97764761D01*
X147982857Y-97812380D01*
X147887619Y-97812380D01*
X147744761Y-97764761D01*
X147649523Y-97669523D01*
X147601904Y-97574285D01*
X147554285Y-97383809D01*
X147554285Y-97240952D01*
X147601904Y-97050476D01*
X147649523Y-96955238D01*
X147744761Y-96860000D01*
X147887619Y-96812380D01*
X147982857Y-96812380D01*
X148125714Y-96860000D01*
X148173333Y-96907619D01*
X149125714Y-97812380D02*
X148554285Y-97812380D01*
X148840000Y-97812380D02*
X148840000Y-96812380D01*
X148744761Y-96955238D01*
X148649523Y-97050476D01*
X148554285Y-97098095D01*
X147823333Y-105927142D02*
X147775714Y-105974761D01*
X147632857Y-106022380D01*
X147537619Y-106022380D01*
X147394761Y-105974761D01*
X147299523Y-105879523D01*
X147251904Y-105784285D01*
X147204285Y-105593809D01*
X147204285Y-105450952D01*
X147251904Y-105260476D01*
X147299523Y-105165238D01*
X147394761Y-105070000D01*
X147537619Y-105022380D01*
X147632857Y-105022380D01*
X147775714Y-105070000D01*
X147823333Y-105117619D01*
X148680476Y-105022380D02*
X148490000Y-105022380D01*
X148394761Y-105070000D01*
X148347142Y-105117619D01*
X148251904Y-105260476D01*
X148204285Y-105450952D01*
X148204285Y-105831904D01*
X148251904Y-105927142D01*
X148299523Y-105974761D01*
X148394761Y-106022380D01*
X148585238Y-106022380D01*
X148680476Y-105974761D01*
X148728095Y-105927142D01*
X148775714Y-105831904D01*
X148775714Y-105593809D01*
X148728095Y-105498571D01*
X148680476Y-105450952D01*
X148585238Y-105403333D01*
X148394761Y-105403333D01*
X148299523Y-105450952D01*
X148251904Y-105498571D01*
X148204285Y-105593809D01*
X135435534Y-108582607D02*
X135407074Y-108643641D01*
X135289118Y-108737249D01*
X135199624Y-108769822D01*
X135049095Y-108773935D01*
X134927027Y-108717014D01*
X134849707Y-108643806D01*
X134739813Y-108481103D01*
X134690953Y-108346861D01*
X134670553Y-108151586D01*
X134682727Y-108045804D01*
X134739649Y-107923737D01*
X134857604Y-107830129D01*
X134947098Y-107797556D01*
X135097627Y-107793443D01*
X135158661Y-107821904D01*
X135439318Y-107618403D02*
X136065780Y-107390389D01*
X136005075Y-108476662D01*
X130113333Y-89977142D02*
X130065714Y-90024761D01*
X129922857Y-90072380D01*
X129827619Y-90072380D01*
X129684761Y-90024761D01*
X129589523Y-89929523D01*
X129541904Y-89834285D01*
X129494285Y-89643809D01*
X129494285Y-89500952D01*
X129541904Y-89310476D01*
X129589523Y-89215238D01*
X129684761Y-89120000D01*
X129827619Y-89072380D01*
X129922857Y-89072380D01*
X130065714Y-89120000D01*
X130113333Y-89167619D01*
X130494285Y-89167619D02*
X130541904Y-89120000D01*
X130637142Y-89072380D01*
X130875238Y-89072380D01*
X130970476Y-89120000D01*
X131018095Y-89167619D01*
X131065714Y-89262857D01*
X131065714Y-89358095D01*
X131018095Y-89500952D01*
X130446666Y-90072380D01*
X131065714Y-90072380D01*
X129563333Y-97447142D02*
X129515714Y-97494761D01*
X129372857Y-97542380D01*
X129277619Y-97542380D01*
X129134761Y-97494761D01*
X129039523Y-97399523D01*
X128991904Y-97304285D01*
X128944285Y-97113809D01*
X128944285Y-96970952D01*
X128991904Y-96780476D01*
X129039523Y-96685238D01*
X129134761Y-96590000D01*
X129277619Y-96542380D01*
X129372857Y-96542380D01*
X129515714Y-96590000D01*
X129563333Y-96637619D01*
X129896666Y-96542380D02*
X130515714Y-96542380D01*
X130182380Y-96923333D01*
X130325238Y-96923333D01*
X130420476Y-96970952D01*
X130468095Y-97018571D01*
X130515714Y-97113809D01*
X130515714Y-97351904D01*
X130468095Y-97447142D01*
X130420476Y-97494761D01*
X130325238Y-97542380D01*
X130039523Y-97542380D01*
X129944285Y-97494761D01*
X129896666Y-97447142D01*
X120493333Y-101007142D02*
X120445714Y-101054761D01*
X120302857Y-101102380D01*
X120207619Y-101102380D01*
X120064761Y-101054761D01*
X119969523Y-100959523D01*
X119921904Y-100864285D01*
X119874285Y-100673809D01*
X119874285Y-100530952D01*
X119921904Y-100340476D01*
X119969523Y-100245238D01*
X120064761Y-100150000D01*
X120207619Y-100102380D01*
X120302857Y-100102380D01*
X120445714Y-100150000D01*
X120493333Y-100197619D01*
X121398095Y-100102380D02*
X120921904Y-100102380D01*
X120874285Y-100578571D01*
X120921904Y-100530952D01*
X121017142Y-100483333D01*
X121255238Y-100483333D01*
X121350476Y-100530952D01*
X121398095Y-100578571D01*
X121445714Y-100673809D01*
X121445714Y-100911904D01*
X121398095Y-101007142D01*
X121350476Y-101054761D01*
X121255238Y-101102380D01*
X121017142Y-101102380D01*
X120921904Y-101054761D01*
X120874285Y-101007142D01*
X123413333Y-96627142D02*
X123365714Y-96674761D01*
X123222857Y-96722380D01*
X123127619Y-96722380D01*
X122984761Y-96674761D01*
X122889523Y-96579523D01*
X122841904Y-96484285D01*
X122794285Y-96293809D01*
X122794285Y-96150952D01*
X122841904Y-95960476D01*
X122889523Y-95865238D01*
X122984761Y-95770000D01*
X123127619Y-95722380D01*
X123222857Y-95722380D01*
X123365714Y-95770000D01*
X123413333Y-95817619D01*
X124270476Y-96055714D02*
X124270476Y-96722380D01*
X124032380Y-95674761D02*
X123794285Y-96389047D01*
X124413333Y-96389047D01*
D11*
X179554500Y-110282000D02*
X179554500Y-111361500D01*
X145294500Y-139782000D02*
X145294500Y-140861500D01*
D12*
X213960000Y-84660000D02*
X211420000Y-84660000D01*
D13*
X149860000Y-88900000D02*
X149860000Y-114300000D01*
X215900000Y-60960000D02*
X215900000Y-86360000D01*
X216030000Y-142750000D02*
X190630000Y-142750000D01*
X170000000Y-60000000D02*
X170000000Y-85000000D01*
X151130000Y-118110000D02*
X151130000Y-143510000D01*
X151130000Y-143510000D02*
X120650000Y-143510000D01*
X119380000Y-88900000D02*
X149860000Y-88900000D01*
X170000000Y-85000000D02*
X119000000Y-85000000D01*
X176530000Y-62230000D02*
X176530000Y-60960000D01*
X190630000Y-142750000D02*
X190630000Y-100840000D01*
D14*
X197730000Y-110800000D02*
X197730000Y-113930000D01*
D13*
X185420000Y-142240000D02*
X185420000Y-143510000D01*
X176530000Y-60960000D02*
X176530000Y-62230000D01*
D12*
X172310000Y-137270000D02*
X169770000Y-137270000D01*
D13*
X157480000Y-143510000D02*
X157480000Y-142240000D01*
X176530000Y-86360000D02*
X176530000Y-60960000D01*
X216030000Y-100840000D02*
X216030000Y-142750000D01*
X119380000Y-114300000D02*
X119380000Y-88900000D01*
X154940000Y-114300000D02*
X154940000Y-88900000D01*
X176530000Y-60960000D02*
X215900000Y-60960000D01*
X120650000Y-143510000D02*
X120650000Y-118110000D01*
X185420000Y-118110000D02*
X185420000Y-142240000D01*
X185420000Y-143510000D02*
X157480000Y-143510000D01*
X157480000Y-118110000D02*
X185420000Y-118110000D01*
X119000000Y-60000000D02*
X170000000Y-60000000D01*
X157480000Y-142240000D02*
X157480000Y-118110000D01*
X154940000Y-88900000D02*
X185420000Y-88900000D01*
X120650000Y-118110000D02*
X151130000Y-118110000D01*
X190630000Y-100840000D02*
X216030000Y-100840000D01*
D11*
X143954500Y-109982000D02*
X143954500Y-111061500D01*
D13*
X185420000Y-88900000D02*
X185420000Y-114300000D01*
X185420000Y-114300000D02*
X154940000Y-114300000D01*
X215900000Y-86360000D02*
X176530000Y-86360000D01*
X119000000Y-85000000D02*
X119000000Y-60000000D01*
X149860000Y-114300000D02*
X119380000Y-114300000D01*
D10*
X129120000Y-141972380D02*
X129310476Y-141972380D01*
X129405714Y-142020000D01*
X129500952Y-142115238D01*
X129548571Y-142305714D01*
X129548571Y-142639047D01*
X129500952Y-142829523D01*
X129405714Y-142924761D01*
X129310476Y-142972380D01*
X129120000Y-142972380D01*
X129024761Y-142924761D01*
X128929523Y-142829523D01*
X128881904Y-142639047D01*
X128881904Y-142305714D01*
X128929523Y-142115238D01*
X129024761Y-142020000D01*
X129120000Y-141972380D01*
X129977142Y-141972380D02*
X129977142Y-142781904D01*
X130024761Y-142877142D01*
X130072380Y-142924761D01*
X130167619Y-142972380D01*
X130358095Y-142972380D01*
X130453333Y-142924761D01*
X130500952Y-142877142D01*
X130548571Y-142781904D01*
X130548571Y-141972380D01*
X130881904Y-141972380D02*
X131453333Y-141972380D01*
X131167619Y-142972380D02*
X131167619Y-141972380D01*
X161377333Y-106624380D02*
X160901142Y-106624380D01*
X160901142Y-105624380D01*
X161615428Y-105624380D02*
X162234476Y-105624380D01*
X161901142Y-106005333D01*
X162044000Y-106005333D01*
X162139238Y-106052952D01*
X162186857Y-106100571D01*
X162234476Y-106195809D01*
X162234476Y-106433904D01*
X162186857Y-106529142D01*
X162139238Y-106576761D01*
X162044000Y-106624380D01*
X161758285Y-106624380D01*
X161663047Y-106576761D01*
X161615428Y-106529142D01*
X183633333Y-68572380D02*
X183157142Y-68572380D01*
X183157142Y-67572380D01*
X183871428Y-67572380D02*
X184490476Y-67572380D01*
X184157142Y-67953333D01*
X184300000Y-67953333D01*
X184395238Y-68000952D01*
X184442857Y-68048571D01*
X184490476Y-68143809D01*
X184490476Y-68381904D01*
X184442857Y-68477142D01*
X184395238Y-68524761D01*
X184300000Y-68572380D01*
X184014285Y-68572380D01*
X183919047Y-68524761D01*
X183871428Y-68477142D01*
X158533333Y-96257142D02*
X158485714Y-96304761D01*
X158342857Y-96352380D01*
X158247619Y-96352380D01*
X158104761Y-96304761D01*
X158009523Y-96209523D01*
X157961904Y-96114285D01*
X157914285Y-95923809D01*
X157914285Y-95780952D01*
X157961904Y-95590476D01*
X158009523Y-95495238D01*
X158104761Y-95400000D01*
X158247619Y-95352380D01*
X158342857Y-95352380D01*
X158485714Y-95400000D01*
X158533333Y-95447619D01*
X159390476Y-95685714D02*
X159390476Y-96352380D01*
X159152380Y-95304761D02*
X158914285Y-96019047D01*
X159533333Y-96019047D01*
X130976190Y-67452380D02*
X130976190Y-66452380D01*
X131452380Y-67452380D02*
X131452380Y-66452380D01*
X132023809Y-67452380D01*
X132023809Y-66452380D01*
X132500000Y-67452380D02*
X132500000Y-66452380D01*
X132880952Y-66452380D01*
X132976190Y-66500000D01*
X133023809Y-66547619D01*
X133071428Y-66642857D01*
X133071428Y-66785714D01*
X133023809Y-66880952D01*
X132976190Y-66928571D01*
X132880952Y-66976190D01*
X132500000Y-66976190D01*
X125643333Y-106792380D02*
X125167142Y-106792380D01*
X125167142Y-105792380D01*
X125881428Y-105792380D02*
X126500476Y-105792380D01*
X126167142Y-106173333D01*
X126310000Y-106173333D01*
X126405238Y-106220952D01*
X126452857Y-106268571D01*
X126500476Y-106363809D01*
X126500476Y-106601904D01*
X126452857Y-106697142D01*
X126405238Y-106744761D01*
X126310000Y-106792380D01*
X126024285Y-106792380D01*
X125929047Y-106744761D01*
X125881428Y-106697142D01*
X142443333Y-129952380D02*
X141967142Y-129952380D01*
X141967142Y-128952380D01*
X142729047Y-129047619D02*
X142776666Y-129000000D01*
X142871904Y-128952380D01*
X143110000Y-128952380D01*
X143205238Y-129000000D01*
X143252857Y-129047619D01*
X143300476Y-129142857D01*
X143300476Y-129238095D01*
X143252857Y-129380952D01*
X142681428Y-129952380D01*
X143300476Y-129952380D01*
X191563333Y-142537142D02*
X191515714Y-142584761D01*
X191372857Y-142632380D01*
X191277619Y-142632380D01*
X191134761Y-142584761D01*
X191039523Y-142489523D01*
X190991904Y-142394285D01*
X190944285Y-142203809D01*
X190944285Y-142060952D01*
X190991904Y-141870476D01*
X191039523Y-141775238D01*
X191134761Y-141680000D01*
X191277619Y-141632380D01*
X191372857Y-141632380D01*
X191515714Y-141680000D01*
X191563333Y-141727619D01*
X192468095Y-141632380D02*
X191991904Y-141632380D01*
X191944285Y-142108571D01*
X191991904Y-142060952D01*
X192087142Y-142013333D01*
X192325238Y-142013333D01*
X192420476Y-142060952D01*
X192468095Y-142108571D01*
X192515714Y-142203809D01*
X192515714Y-142441904D01*
X192468095Y-142537142D01*
X192420476Y-142584761D01*
X192325238Y-142632380D01*
X192087142Y-142632380D01*
X191991904Y-142584761D01*
X191944285Y-142537142D01*
X132059047Y-94038571D02*
X132201904Y-94086190D01*
X132249523Y-94133809D01*
X132297142Y-94229047D01*
X132297142Y-94371904D01*
X132249523Y-94467142D01*
X132201904Y-94514761D01*
X132106666Y-94562380D01*
X131725714Y-94562380D01*
X131725714Y-93562380D01*
X132059047Y-93562380D01*
X132154285Y-93610000D01*
X132201904Y-93657619D01*
X132249523Y-93752857D01*
X132249523Y-93848095D01*
X132201904Y-93943333D01*
X132154285Y-93990952D01*
X132059047Y-94038571D01*
X131725714Y-94038571D01*
X132678095Y-94276666D02*
X133154285Y-94276666D01*
X132582857Y-94562380D02*
X132916190Y-93562380D01*
X133249523Y-94562380D01*
X133582857Y-94562380D02*
X133582857Y-93562380D01*
X134154285Y-94562380D01*
X134154285Y-93562380D01*
X134630476Y-94562380D02*
X134630476Y-93562380D01*
X134868571Y-93562380D01*
X135011428Y-93610000D01*
X135106666Y-93705238D01*
X135154285Y-93800476D01*
X135201904Y-93990952D01*
X135201904Y-94133809D01*
X135154285Y-94324285D01*
X135106666Y-94419523D01*
X135011428Y-94514761D01*
X134868571Y-94562380D01*
X134630476Y-94562380D01*
X131797142Y-96172380D02*
X131797142Y-95172380D01*
X132178095Y-95172380D01*
X132273333Y-95220000D01*
X132320952Y-95267619D01*
X132368571Y-95362857D01*
X132368571Y-95505714D01*
X132320952Y-95600952D01*
X132273333Y-95648571D01*
X132178095Y-95696190D01*
X131797142Y-95696190D01*
X132749523Y-95886666D02*
X133225714Y-95886666D01*
X132654285Y-96172380D02*
X132987619Y-95172380D01*
X133320952Y-96172380D01*
X133606666Y-96124761D02*
X133749523Y-96172380D01*
X133987619Y-96172380D01*
X134082857Y-96124761D01*
X134130476Y-96077142D01*
X134178095Y-95981904D01*
X134178095Y-95886666D01*
X134130476Y-95791428D01*
X134082857Y-95743809D01*
X133987619Y-95696190D01*
X133797142Y-95648571D01*
X133701904Y-95600952D01*
X133654285Y-95553333D01*
X133606666Y-95458095D01*
X133606666Y-95362857D01*
X133654285Y-95267619D01*
X133701904Y-95220000D01*
X133797142Y-95172380D01*
X134035238Y-95172380D01*
X134178095Y-95220000D01*
X134559047Y-96124761D02*
X134701904Y-96172380D01*
X134940000Y-96172380D01*
X135035238Y-96124761D01*
X135082857Y-96077142D01*
X135130476Y-95981904D01*
X135130476Y-95886666D01*
X135082857Y-95791428D01*
X135035238Y-95743809D01*
X134940000Y-95696190D01*
X134749523Y-95648571D01*
X134654285Y-95600952D01*
X134606666Y-95553333D01*
X134559047Y-95458095D01*
X134559047Y-95362857D01*
X134606666Y-95267619D01*
X134654285Y-95220000D01*
X134749523Y-95172380D01*
X134987619Y-95172380D01*
X135130476Y-95220000D01*
X131606666Y-97258571D02*
X131273333Y-97258571D01*
X131273333Y-97782380D02*
X131273333Y-96782380D01*
X131749523Y-96782380D01*
X132130476Y-97782380D02*
X132130476Y-96782380D01*
X133082857Y-97782380D02*
X132606666Y-97782380D01*
X132606666Y-96782380D01*
X133273333Y-96782380D02*
X133844761Y-96782380D01*
X133559047Y-97782380D02*
X133559047Y-96782380D01*
X134178095Y-97258571D02*
X134511428Y-97258571D01*
X134654285Y-97782380D02*
X134178095Y-97782380D01*
X134178095Y-96782380D01*
X134654285Y-96782380D01*
X135654285Y-97782380D02*
X135320952Y-97306190D01*
X135082857Y-97782380D02*
X135082857Y-96782380D01*
X135463809Y-96782380D01*
X135559047Y-96830000D01*
X135606666Y-96877619D01*
X135654285Y-96972857D01*
X135654285Y-97115714D01*
X135606666Y-97210952D01*
X135559047Y-97258571D01*
X135463809Y-97306190D01*
X135082857Y-97306190D01*
X141713333Y-101452380D02*
X141237142Y-101452380D01*
X141237142Y-100452380D01*
X141999047Y-100547619D02*
X142046666Y-100500000D01*
X142141904Y-100452380D01*
X142380000Y-100452380D01*
X142475238Y-100500000D01*
X142522857Y-100547619D01*
X142570476Y-100642857D01*
X142570476Y-100738095D01*
X142522857Y-100880952D01*
X141951428Y-101452380D01*
X142570476Y-101452380D01*
X214063333Y-137477142D02*
X214015714Y-137524761D01*
X213872857Y-137572380D01*
X213777619Y-137572380D01*
X213634761Y-137524761D01*
X213539523Y-137429523D01*
X213491904Y-137334285D01*
X213444285Y-137143809D01*
X213444285Y-137000952D01*
X213491904Y-136810476D01*
X213539523Y-136715238D01*
X213634761Y-136620000D01*
X213777619Y-136572380D01*
X213872857Y-136572380D01*
X214015714Y-136620000D01*
X214063333Y-136667619D01*
X214634761Y-137000952D02*
X214539523Y-136953333D01*
X214491904Y-136905714D01*
X214444285Y-136810476D01*
X214444285Y-136762857D01*
X214491904Y-136667619D01*
X214539523Y-136620000D01*
X214634761Y-136572380D01*
X214825238Y-136572380D01*
X214920476Y-136620000D01*
X214968095Y-136667619D01*
X215015714Y-136762857D01*
X215015714Y-136810476D01*
X214968095Y-136905714D01*
X214920476Y-136953333D01*
X214825238Y-137000952D01*
X214634761Y-137000952D01*
X214539523Y-137048571D01*
X214491904Y-137096190D01*
X214444285Y-137191428D01*
X214444285Y-137381904D01*
X214491904Y-137477142D01*
X214539523Y-137524761D01*
X214634761Y-137572380D01*
X214825238Y-137572380D01*
X214920476Y-137524761D01*
X214968095Y-137477142D01*
X215015714Y-137381904D01*
X215015714Y-137191428D01*
X214968095Y-137096190D01*
X214920476Y-137048571D01*
X214825238Y-137000952D01*
X214700000Y-121567619D02*
X214509523Y-121567619D01*
X214414285Y-121520000D01*
X214319047Y-121424761D01*
X214271428Y-121234285D01*
X214271428Y-120900952D01*
X214319047Y-120710476D01*
X214414285Y-120615238D01*
X214509523Y-120567619D01*
X214700000Y-120567619D01*
X214795238Y-120615238D01*
X214890476Y-120710476D01*
X214938095Y-120900952D01*
X214938095Y-121234285D01*
X214890476Y-121424761D01*
X214795238Y-121520000D01*
X214700000Y-121567619D01*
X213842857Y-121567619D02*
X213842857Y-120758095D01*
X213795238Y-120662857D01*
X213747619Y-120615238D01*
X213652380Y-120567619D01*
X213461904Y-120567619D01*
X213366666Y-120615238D01*
X213319047Y-120662857D01*
X213271428Y-120758095D01*
X213271428Y-121567619D01*
X212938095Y-121567619D02*
X212366666Y-121567619D01*
X212652380Y-120567619D02*
X212652380Y-121567619D01*
X205282380Y-120826666D02*
X205282380Y-121302857D01*
X204282380Y-121302857D01*
X204615714Y-120064761D02*
X205282380Y-120064761D01*
X204234761Y-120302857D02*
X204949047Y-120540952D01*
X204949047Y-119921904D01*
X177292380Y-141710000D02*
X177292380Y-141519523D01*
X177340000Y-141424285D01*
X177435238Y-141329047D01*
X177625714Y-141281428D01*
X177959047Y-141281428D01*
X178149523Y-141329047D01*
X178244761Y-141424285D01*
X178292380Y-141519523D01*
X178292380Y-141710000D01*
X178244761Y-141805238D01*
X178149523Y-141900476D01*
X177959047Y-141948095D01*
X177625714Y-141948095D01*
X177435238Y-141900476D01*
X177340000Y-141805238D01*
X177292380Y-141710000D01*
X177292380Y-140852857D02*
X178101904Y-140852857D01*
X178197142Y-140805238D01*
X178244761Y-140757619D01*
X178292380Y-140662380D01*
X178292380Y-140471904D01*
X178244761Y-140376666D01*
X178197142Y-140329047D01*
X178101904Y-140281428D01*
X177292380Y-140281428D01*
X177292380Y-139948095D02*
X177292380Y-139376666D01*
X178292380Y-139662380D02*
X177292380Y-139662380D01*
X213953333Y-139387142D02*
X213905714Y-139434761D01*
X213762857Y-139482380D01*
X213667619Y-139482380D01*
X213524761Y-139434761D01*
X213429523Y-139339523D01*
X213381904Y-139244285D01*
X213334285Y-139053809D01*
X213334285Y-138910952D01*
X213381904Y-138720476D01*
X213429523Y-138625238D01*
X213524761Y-138530000D01*
X213667619Y-138482380D01*
X213762857Y-138482380D01*
X213905714Y-138530000D01*
X213953333Y-138577619D01*
X214810476Y-138482380D02*
X214620000Y-138482380D01*
X214524761Y-138530000D01*
X214477142Y-138577619D01*
X214381904Y-138720476D01*
X214334285Y-138910952D01*
X214334285Y-139291904D01*
X214381904Y-139387142D01*
X214429523Y-139434761D01*
X214524761Y-139482380D01*
X214715238Y-139482380D01*
X214810476Y-139434761D01*
X214858095Y-139387142D01*
X214905714Y-139291904D01*
X214905714Y-139053809D01*
X214858095Y-138958571D01*
X214810476Y-138910952D01*
X214715238Y-138863333D01*
X214524761Y-138863333D01*
X214429523Y-138910952D01*
X214381904Y-138958571D01*
X214334285Y-139053809D01*
X198033333Y-142457142D02*
X197985714Y-142504761D01*
X197842857Y-142552380D01*
X197747619Y-142552380D01*
X197604761Y-142504761D01*
X197509523Y-142409523D01*
X197461904Y-142314285D01*
X197414285Y-142123809D01*
X197414285Y-141980952D01*
X197461904Y-141790476D01*
X197509523Y-141695238D01*
X197604761Y-141600000D01*
X197747619Y-141552380D01*
X197842857Y-141552380D01*
X197985714Y-141600000D01*
X198033333Y-141647619D01*
X198366666Y-141552380D02*
X199033333Y-141552380D01*
X198604761Y-142552380D01*
X207943333Y-73912380D02*
X207467142Y-73912380D01*
X207467142Y-72912380D01*
X208800476Y-73912380D02*
X208229047Y-73912380D01*
X208514761Y-73912380D02*
X208514761Y-72912380D01*
X208419523Y-73055238D01*
X208324285Y-73150476D01*
X208229047Y-73198095D01*
X210002380Y-63798809D02*
X209002380Y-63798809D01*
X210002380Y-63322619D02*
X209002380Y-63322619D01*
X210002380Y-62751190D01*
X209002380Y-62751190D01*
X210002380Y-62275000D02*
X209002380Y-62275000D01*
X209002380Y-61894047D01*
X209050000Y-61798809D01*
X209097619Y-61751190D01*
X209192857Y-61703571D01*
X209335714Y-61703571D01*
X209430952Y-61751190D01*
X209478571Y-61798809D01*
X209526190Y-61894047D01*
X209526190Y-62275000D01*
X126863333Y-135672380D02*
X126387142Y-135672380D01*
X126387142Y-134672380D01*
X127101428Y-134672380D02*
X127720476Y-134672380D01*
X127387142Y-135053333D01*
X127530000Y-135053333D01*
X127625238Y-135100952D01*
X127672857Y-135148571D01*
X127720476Y-135243809D01*
X127720476Y-135481904D01*
X127672857Y-135577142D01*
X127625238Y-135624761D01*
X127530000Y-135672380D01*
X127244285Y-135672380D01*
X127149047Y-135624761D01*
X127101428Y-135577142D01*
X132699047Y-123208571D02*
X132841904Y-123256190D01*
X132889523Y-123303809D01*
X132937142Y-123399047D01*
X132937142Y-123541904D01*
X132889523Y-123637142D01*
X132841904Y-123684761D01*
X132746666Y-123732380D01*
X132365714Y-123732380D01*
X132365714Y-122732380D01*
X132699047Y-122732380D01*
X132794285Y-122780000D01*
X132841904Y-122827619D01*
X132889523Y-122922857D01*
X132889523Y-123018095D01*
X132841904Y-123113333D01*
X132794285Y-123160952D01*
X132699047Y-123208571D01*
X132365714Y-123208571D01*
X133318095Y-123446666D02*
X133794285Y-123446666D01*
X133222857Y-123732380D02*
X133556190Y-122732380D01*
X133889523Y-123732380D01*
X134222857Y-123732380D02*
X134222857Y-122732380D01*
X134794285Y-123732380D01*
X134794285Y-122732380D01*
X135270476Y-123732380D02*
X135270476Y-122732380D01*
X135508571Y-122732380D01*
X135651428Y-122780000D01*
X135746666Y-122875238D01*
X135794285Y-122970476D01*
X135841904Y-123160952D01*
X135841904Y-123303809D01*
X135794285Y-123494285D01*
X135746666Y-123589523D01*
X135651428Y-123684761D01*
X135508571Y-123732380D01*
X135270476Y-123732380D01*
X132437142Y-125342380D02*
X132437142Y-124342380D01*
X132818095Y-124342380D01*
X132913333Y-124390000D01*
X132960952Y-124437619D01*
X133008571Y-124532857D01*
X133008571Y-124675714D01*
X132960952Y-124770952D01*
X132913333Y-124818571D01*
X132818095Y-124866190D01*
X132437142Y-124866190D01*
X133389523Y-125056666D02*
X133865714Y-125056666D01*
X133294285Y-125342380D02*
X133627619Y-124342380D01*
X133960952Y-125342380D01*
X134246666Y-125294761D02*
X134389523Y-125342380D01*
X134627619Y-125342380D01*
X134722857Y-125294761D01*
X134770476Y-125247142D01*
X134818095Y-125151904D01*
X134818095Y-125056666D01*
X134770476Y-124961428D01*
X134722857Y-124913809D01*
X134627619Y-124866190D01*
X134437142Y-124818571D01*
X134341904Y-124770952D01*
X134294285Y-124723333D01*
X134246666Y-124628095D01*
X134246666Y-124532857D01*
X134294285Y-124437619D01*
X134341904Y-124390000D01*
X134437142Y-124342380D01*
X134675238Y-124342380D01*
X134818095Y-124390000D01*
X135199047Y-125294761D02*
X135341904Y-125342380D01*
X135580000Y-125342380D01*
X135675238Y-125294761D01*
X135722857Y-125247142D01*
X135770476Y-125151904D01*
X135770476Y-125056666D01*
X135722857Y-124961428D01*
X135675238Y-124913809D01*
X135580000Y-124866190D01*
X135389523Y-124818571D01*
X135294285Y-124770952D01*
X135246666Y-124723333D01*
X135199047Y-124628095D01*
X135199047Y-124532857D01*
X135246666Y-124437619D01*
X135294285Y-124390000D01*
X135389523Y-124342380D01*
X135627619Y-124342380D01*
X135770476Y-124390000D01*
X132246666Y-126428571D02*
X131913333Y-126428571D01*
X131913333Y-126952380D02*
X131913333Y-125952380D01*
X132389523Y-125952380D01*
X132770476Y-126952380D02*
X132770476Y-125952380D01*
X133722857Y-126952380D02*
X133246666Y-126952380D01*
X133246666Y-125952380D01*
X133913333Y-125952380D02*
X134484761Y-125952380D01*
X134199047Y-126952380D02*
X134199047Y-125952380D01*
X134818095Y-126428571D02*
X135151428Y-126428571D01*
X135294285Y-126952380D02*
X134818095Y-126952380D01*
X134818095Y-125952380D01*
X135294285Y-125952380D01*
X136294285Y-126952380D02*
X135960952Y-126476190D01*
X135722857Y-126952380D02*
X135722857Y-125952380D01*
X136103809Y-125952380D01*
X136199047Y-126000000D01*
X136246666Y-126047619D01*
X136294285Y-126142857D01*
X136294285Y-126285714D01*
X136246666Y-126380952D01*
X136199047Y-126428571D01*
X136103809Y-126476190D01*
X135722857Y-126476190D01*
X200773333Y-69677142D02*
X200725714Y-69724761D01*
X200582857Y-69772380D01*
X200487619Y-69772380D01*
X200344761Y-69724761D01*
X200249523Y-69629523D01*
X200201904Y-69534285D01*
X200154285Y-69343809D01*
X200154285Y-69200952D01*
X200201904Y-69010476D01*
X200249523Y-68915238D01*
X200344761Y-68820000D01*
X200487619Y-68772380D01*
X200582857Y-68772380D01*
X200725714Y-68820000D01*
X200773333Y-68867619D01*
X201106666Y-68772380D02*
X201725714Y-68772380D01*
X201392380Y-69153333D01*
X201535238Y-69153333D01*
X201630476Y-69200952D01*
X201678095Y-69248571D01*
X201725714Y-69343809D01*
X201725714Y-69581904D01*
X201678095Y-69677142D01*
X201630476Y-69724761D01*
X201535238Y-69772380D01*
X201249523Y-69772380D01*
X201154285Y-69724761D01*
X201106666Y-69677142D01*
X192513333Y-129987142D02*
X192465714Y-130034761D01*
X192322857Y-130082380D01*
X192227619Y-130082380D01*
X192084761Y-130034761D01*
X191989523Y-129939523D01*
X191941904Y-129844285D01*
X191894285Y-129653809D01*
X191894285Y-129510952D01*
X191941904Y-129320476D01*
X191989523Y-129225238D01*
X192084761Y-129130000D01*
X192227619Y-129082380D01*
X192322857Y-129082380D01*
X192465714Y-129130000D01*
X192513333Y-129177619D01*
X192894285Y-129177619D02*
X192941904Y-129130000D01*
X193037142Y-129082380D01*
X193275238Y-129082380D01*
X193370476Y-129130000D01*
X193418095Y-129177619D01*
X193465714Y-129272857D01*
X193465714Y-129368095D01*
X193418095Y-129510952D01*
X192846666Y-130082380D01*
X193465714Y-130082380D01*
X200011904Y-92293571D02*
X199678571Y-92293571D01*
X199678571Y-92817380D02*
X199678571Y-91817380D01*
X200154761Y-91817380D01*
X200535714Y-92817380D02*
X200535714Y-91817380D01*
X201488095Y-92817380D02*
X201011904Y-92817380D01*
X201011904Y-91817380D01*
X201678571Y-91817380D02*
X202250000Y-91817380D01*
X201964285Y-92817380D02*
X201964285Y-91817380D01*
X202583333Y-92293571D02*
X202916666Y-92293571D01*
X203059523Y-92817380D02*
X202583333Y-92817380D01*
X202583333Y-91817380D01*
X203059523Y-91817380D01*
X204059523Y-92817380D02*
X203726190Y-92341190D01*
X203488095Y-92817380D02*
X203488095Y-91817380D01*
X203869047Y-91817380D01*
X203964285Y-91865000D01*
X204011904Y-91912619D01*
X204059523Y-92007857D01*
X204059523Y-92150714D01*
X204011904Y-92245952D01*
X203964285Y-92293571D01*
X203869047Y-92341190D01*
X203488095Y-92341190D01*
X205107142Y-91817380D02*
X205678571Y-91817380D01*
X205392857Y-92817380D02*
X205392857Y-91817380D01*
X206011904Y-92293571D02*
X206345238Y-92293571D01*
X206488095Y-92817380D02*
X206011904Y-92817380D01*
X206011904Y-91817380D01*
X206488095Y-91817380D01*
X206869047Y-92769761D02*
X207011904Y-92817380D01*
X207250000Y-92817380D01*
X207345238Y-92769761D01*
X207392857Y-92722142D01*
X207440476Y-92626904D01*
X207440476Y-92531666D01*
X207392857Y-92436428D01*
X207345238Y-92388809D01*
X207250000Y-92341190D01*
X207059523Y-92293571D01*
X206964285Y-92245952D01*
X206916666Y-92198333D01*
X206869047Y-92103095D01*
X206869047Y-92007857D01*
X206916666Y-91912619D01*
X206964285Y-91865000D01*
X207059523Y-91817380D01*
X207297619Y-91817380D01*
X207440476Y-91865000D01*
X207726190Y-91817380D02*
X208297619Y-91817380D01*
X208011904Y-92817380D02*
X208011904Y-91817380D01*
X209726190Y-92293571D02*
X209869047Y-92341190D01*
X209916666Y-92388809D01*
X209964285Y-92484047D01*
X209964285Y-92626904D01*
X209916666Y-92722142D01*
X209869047Y-92769761D01*
X209773809Y-92817380D01*
X209392857Y-92817380D01*
X209392857Y-91817380D01*
X209726190Y-91817380D01*
X209821428Y-91865000D01*
X209869047Y-91912619D01*
X209916666Y-92007857D01*
X209916666Y-92103095D01*
X209869047Y-92198333D01*
X209821428Y-92245952D01*
X209726190Y-92293571D01*
X209392857Y-92293571D01*
X210583333Y-91817380D02*
X210773809Y-91817380D01*
X210869047Y-91865000D01*
X210964285Y-91960238D01*
X211011904Y-92150714D01*
X211011904Y-92484047D01*
X210964285Y-92674523D01*
X210869047Y-92769761D01*
X210773809Y-92817380D01*
X210583333Y-92817380D01*
X210488095Y-92769761D01*
X210392857Y-92674523D01*
X210345238Y-92484047D01*
X210345238Y-92150714D01*
X210392857Y-91960238D01*
X210488095Y-91865000D01*
X210583333Y-91817380D01*
X211392857Y-92531666D02*
X211869047Y-92531666D01*
X211297619Y-92817380D02*
X211630952Y-91817380D01*
X211964285Y-92817380D01*
X212869047Y-92817380D02*
X212535714Y-92341190D01*
X212297619Y-92817380D02*
X212297619Y-91817380D01*
X212678571Y-91817380D01*
X212773809Y-91865000D01*
X212821428Y-91912619D01*
X212869047Y-92007857D01*
X212869047Y-92150714D01*
X212821428Y-92245952D01*
X212773809Y-92293571D01*
X212678571Y-92341190D01*
X212297619Y-92341190D01*
X213297619Y-92817380D02*
X213297619Y-91817380D01*
X213535714Y-91817380D01*
X213678571Y-91865000D01*
X213773809Y-91960238D01*
X213821428Y-92055476D01*
X213869047Y-92245952D01*
X213869047Y-92388809D01*
X213821428Y-92579285D01*
X213773809Y-92674523D01*
X213678571Y-92769761D01*
X213535714Y-92817380D01*
X213297619Y-92817380D01*
X199464285Y-93903571D02*
X199607142Y-93951190D01*
X199654761Y-93998809D01*
X199702380Y-94094047D01*
X199702380Y-94236904D01*
X199654761Y-94332142D01*
X199607142Y-94379761D01*
X199511904Y-94427380D01*
X199130952Y-94427380D01*
X199130952Y-93427380D01*
X199464285Y-93427380D01*
X199559523Y-93475000D01*
X199607142Y-93522619D01*
X199654761Y-93617857D01*
X199654761Y-93713095D01*
X199607142Y-93808333D01*
X199559523Y-93855952D01*
X199464285Y-93903571D01*
X199130952Y-93903571D01*
X200321428Y-93951190D02*
X200321428Y-94427380D01*
X199988095Y-93427380D02*
X200321428Y-93951190D01*
X200654761Y-93427380D01*
X201750000Y-94427380D02*
X201750000Y-93427380D01*
X201988095Y-93427380D01*
X202130952Y-93475000D01*
X202226190Y-93570238D01*
X202273809Y-93665476D01*
X202321428Y-93855952D01*
X202321428Y-93998809D01*
X202273809Y-94189285D01*
X202226190Y-94284523D01*
X202130952Y-94379761D01*
X201988095Y-94427380D01*
X201750000Y-94427380D01*
X203226190Y-94427380D02*
X202750000Y-94427380D01*
X202750000Y-93427380D01*
X204321428Y-94427380D02*
X204321428Y-93427380D01*
X204654761Y-94141666D01*
X204988095Y-93427380D01*
X204988095Y-94427380D01*
X205416666Y-94141666D02*
X205892857Y-94141666D01*
X205321428Y-94427380D02*
X205654761Y-93427380D01*
X205988095Y-94427380D01*
X206892857Y-94427380D02*
X206559523Y-93951190D01*
X206321428Y-94427380D02*
X206321428Y-93427380D01*
X206702380Y-93427380D01*
X206797619Y-93475000D01*
X206845238Y-93522619D01*
X206892857Y-93617857D01*
X206892857Y-93760714D01*
X206845238Y-93855952D01*
X206797619Y-93903571D01*
X206702380Y-93951190D01*
X206321428Y-93951190D01*
X207321428Y-94427380D02*
X207321428Y-93427380D01*
X207892857Y-94427380D02*
X207464285Y-93855952D01*
X207892857Y-93427380D02*
X207321428Y-93998809D01*
X208273809Y-94379761D02*
X208416666Y-94427380D01*
X208654761Y-94427380D01*
X208750000Y-94379761D01*
X208797619Y-94332142D01*
X208845238Y-94236904D01*
X208845238Y-94141666D01*
X208797619Y-94046428D01*
X208750000Y-93998809D01*
X208654761Y-93951190D01*
X208464285Y-93903571D01*
X208369047Y-93855952D01*
X208321428Y-93808333D01*
X208273809Y-93713095D01*
X208273809Y-93617857D01*
X208321428Y-93522619D01*
X208369047Y-93475000D01*
X208464285Y-93427380D01*
X208702380Y-93427380D01*
X208845238Y-93475000D01*
X209321428Y-94379761D02*
X209321428Y-94427380D01*
X209273809Y-94522619D01*
X209226190Y-94570238D01*
X210511904Y-94427380D02*
X210511904Y-93427380D01*
X211083333Y-94427380D02*
X210654761Y-93855952D01*
X211083333Y-93427380D02*
X210511904Y-93998809D01*
X211416666Y-93427380D02*
X211654761Y-94427380D01*
X211845238Y-93713095D01*
X212035714Y-94427380D01*
X212273809Y-93427380D01*
X213083333Y-93760714D02*
X213083333Y-94427380D01*
X212845238Y-93379761D02*
X212607142Y-94094047D01*
X213226190Y-94094047D01*
X213464285Y-93427380D02*
X214035714Y-93427380D01*
X213750000Y-94427380D02*
X213750000Y-93427380D01*
X214369047Y-94427380D02*
X214369047Y-93427380D01*
X201916666Y-95942142D02*
X201869047Y-95989761D01*
X201726190Y-96037380D01*
X201630952Y-96037380D01*
X201488095Y-95989761D01*
X201392857Y-95894523D01*
X201345238Y-95799285D01*
X201297619Y-95608809D01*
X201297619Y-95465952D01*
X201345238Y-95275476D01*
X201392857Y-95180238D01*
X201488095Y-95085000D01*
X201630952Y-95037380D01*
X201726190Y-95037380D01*
X201869047Y-95085000D01*
X201916666Y-95132619D01*
X202916666Y-95942142D02*
X202869047Y-95989761D01*
X202726190Y-96037380D01*
X202630952Y-96037380D01*
X202488095Y-95989761D01*
X202392857Y-95894523D01*
X202345238Y-95799285D01*
X202297619Y-95608809D01*
X202297619Y-95465952D01*
X202345238Y-95275476D01*
X202392857Y-95180238D01*
X202488095Y-95085000D01*
X202630952Y-95037380D01*
X202726190Y-95037380D01*
X202869047Y-95085000D01*
X202916666Y-95132619D01*
X203345238Y-95656428D02*
X204107142Y-95656428D01*
X204916666Y-95513571D02*
X205059523Y-95561190D01*
X205107142Y-95608809D01*
X205154761Y-95704047D01*
X205154761Y-95846904D01*
X205107142Y-95942142D01*
X205059523Y-95989761D01*
X204964285Y-96037380D01*
X204583333Y-96037380D01*
X204583333Y-95037380D01*
X204916666Y-95037380D01*
X205011904Y-95085000D01*
X205059523Y-95132619D01*
X205107142Y-95227857D01*
X205107142Y-95323095D01*
X205059523Y-95418333D01*
X205011904Y-95465952D01*
X204916666Y-95513571D01*
X204583333Y-95513571D01*
X205773809Y-95561190D02*
X205773809Y-96037380D01*
X205440476Y-95037380D02*
X205773809Y-95561190D01*
X206107142Y-95037380D01*
X206440476Y-95656428D02*
X207202380Y-95656428D01*
X207630952Y-95989761D02*
X207773809Y-96037380D01*
X208011904Y-96037380D01*
X208107142Y-95989761D01*
X208154761Y-95942142D01*
X208202380Y-95846904D01*
X208202380Y-95751666D01*
X208154761Y-95656428D01*
X208107142Y-95608809D01*
X208011904Y-95561190D01*
X207821428Y-95513571D01*
X207726190Y-95465952D01*
X207678571Y-95418333D01*
X207630952Y-95323095D01*
X207630952Y-95227857D01*
X207678571Y-95132619D01*
X207726190Y-95085000D01*
X207821428Y-95037380D01*
X208059523Y-95037380D01*
X208202380Y-95085000D01*
X208583333Y-95751666D02*
X209059523Y-95751666D01*
X208488095Y-96037380D02*
X208821428Y-95037380D01*
X209154761Y-96037380D01*
X210678571Y-95370714D02*
X210678571Y-96037380D01*
X210440476Y-94989761D02*
X210202380Y-95704047D01*
X210821428Y-95704047D01*
X211202380Y-95942142D02*
X211250000Y-95989761D01*
X211202380Y-96037380D01*
X211154761Y-95989761D01*
X211202380Y-95942142D01*
X211202380Y-96037380D01*
X211869047Y-95037380D02*
X211964285Y-95037380D01*
X212059523Y-95085000D01*
X212107142Y-95132619D01*
X212154761Y-95227857D01*
X212202380Y-95418333D01*
X212202380Y-95656428D01*
X212154761Y-95846904D01*
X212107142Y-95942142D01*
X212059523Y-95989761D01*
X211964285Y-96037380D01*
X211869047Y-96037380D01*
X211773809Y-95989761D01*
X211726190Y-95942142D01*
X211678571Y-95846904D01*
X211630952Y-95656428D01*
X211630952Y-95418333D01*
X211678571Y-95227857D01*
X211726190Y-95132619D01*
X211773809Y-95085000D01*
X211869047Y-95037380D01*
X167479047Y-93868571D02*
X167621904Y-93916190D01*
X167669523Y-93963809D01*
X167717142Y-94059047D01*
X167717142Y-94201904D01*
X167669523Y-94297142D01*
X167621904Y-94344761D01*
X167526666Y-94392380D01*
X167145714Y-94392380D01*
X167145714Y-93392380D01*
X167479047Y-93392380D01*
X167574285Y-93440000D01*
X167621904Y-93487619D01*
X167669523Y-93582857D01*
X167669523Y-93678095D01*
X167621904Y-93773333D01*
X167574285Y-93820952D01*
X167479047Y-93868571D01*
X167145714Y-93868571D01*
X168098095Y-94106666D02*
X168574285Y-94106666D01*
X168002857Y-94392380D02*
X168336190Y-93392380D01*
X168669523Y-94392380D01*
X169002857Y-94392380D02*
X169002857Y-93392380D01*
X169574285Y-94392380D01*
X169574285Y-93392380D01*
X170050476Y-94392380D02*
X170050476Y-93392380D01*
X170288571Y-93392380D01*
X170431428Y-93440000D01*
X170526666Y-93535238D01*
X170574285Y-93630476D01*
X170621904Y-93820952D01*
X170621904Y-93963809D01*
X170574285Y-94154285D01*
X170526666Y-94249523D01*
X170431428Y-94344761D01*
X170288571Y-94392380D01*
X170050476Y-94392380D01*
X167217142Y-96002380D02*
X167217142Y-95002380D01*
X167598095Y-95002380D01*
X167693333Y-95050000D01*
X167740952Y-95097619D01*
X167788571Y-95192857D01*
X167788571Y-95335714D01*
X167740952Y-95430952D01*
X167693333Y-95478571D01*
X167598095Y-95526190D01*
X167217142Y-95526190D01*
X168169523Y-95716666D02*
X168645714Y-95716666D01*
X168074285Y-96002380D02*
X168407619Y-95002380D01*
X168740952Y-96002380D01*
X169026666Y-95954761D02*
X169169523Y-96002380D01*
X169407619Y-96002380D01*
X169502857Y-95954761D01*
X169550476Y-95907142D01*
X169598095Y-95811904D01*
X169598095Y-95716666D01*
X169550476Y-95621428D01*
X169502857Y-95573809D01*
X169407619Y-95526190D01*
X169217142Y-95478571D01*
X169121904Y-95430952D01*
X169074285Y-95383333D01*
X169026666Y-95288095D01*
X169026666Y-95192857D01*
X169074285Y-95097619D01*
X169121904Y-95050000D01*
X169217142Y-95002380D01*
X169455238Y-95002380D01*
X169598095Y-95050000D01*
X169979047Y-95954761D02*
X170121904Y-96002380D01*
X170360000Y-96002380D01*
X170455238Y-95954761D01*
X170502857Y-95907142D01*
X170550476Y-95811904D01*
X170550476Y-95716666D01*
X170502857Y-95621428D01*
X170455238Y-95573809D01*
X170360000Y-95526190D01*
X170169523Y-95478571D01*
X170074285Y-95430952D01*
X170026666Y-95383333D01*
X169979047Y-95288095D01*
X169979047Y-95192857D01*
X170026666Y-95097619D01*
X170074285Y-95050000D01*
X170169523Y-95002380D01*
X170407619Y-95002380D01*
X170550476Y-95050000D01*
X167026666Y-97088571D02*
X166693333Y-97088571D01*
X166693333Y-97612380D02*
X166693333Y-96612380D01*
X167169523Y-96612380D01*
X167550476Y-97612380D02*
X167550476Y-96612380D01*
X168502857Y-97612380D02*
X168026666Y-97612380D01*
X168026666Y-96612380D01*
X168693333Y-96612380D02*
X169264761Y-96612380D01*
X168979047Y-97612380D02*
X168979047Y-96612380D01*
X169598095Y-97088571D02*
X169931428Y-97088571D01*
X170074285Y-97612380D02*
X169598095Y-97612380D01*
X169598095Y-96612380D01*
X170074285Y-96612380D01*
X171074285Y-97612380D02*
X170740952Y-97136190D01*
X170502857Y-97612380D02*
X170502857Y-96612380D01*
X170883809Y-96612380D01*
X170979047Y-96660000D01*
X171026666Y-96707619D01*
X171074285Y-96802857D01*
X171074285Y-96945714D01*
X171026666Y-97040952D01*
X170979047Y-97088571D01*
X170883809Y-97136190D01*
X170502857Y-97136190D01*
X183483333Y-84467142D02*
X183435714Y-84514761D01*
X183292857Y-84562380D01*
X183197619Y-84562380D01*
X183054761Y-84514761D01*
X182959523Y-84419523D01*
X182911904Y-84324285D01*
X182864285Y-84133809D01*
X182864285Y-83990952D01*
X182911904Y-83800476D01*
X182959523Y-83705238D01*
X183054761Y-83610000D01*
X183197619Y-83562380D01*
X183292857Y-83562380D01*
X183435714Y-83610000D01*
X183483333Y-83657619D01*
X184340476Y-83562380D02*
X184150000Y-83562380D01*
X184054761Y-83610000D01*
X184007142Y-83657619D01*
X183911904Y-83800476D01*
X183864285Y-83990952D01*
X183864285Y-84371904D01*
X183911904Y-84467142D01*
X183959523Y-84514761D01*
X184054761Y-84562380D01*
X184245238Y-84562380D01*
X184340476Y-84514761D01*
X184388095Y-84467142D01*
X184435714Y-84371904D01*
X184435714Y-84133809D01*
X184388095Y-84038571D01*
X184340476Y-83990952D01*
X184245238Y-83943333D01*
X184054761Y-83943333D01*
X183959523Y-83990952D01*
X183911904Y-84038571D01*
X183864285Y-84133809D01*
X160793333Y-143287142D02*
X160745714Y-143334761D01*
X160602857Y-143382380D01*
X160507619Y-143382380D01*
X160364761Y-143334761D01*
X160269523Y-143239523D01*
X160221904Y-143144285D01*
X160174285Y-142953809D01*
X160174285Y-142810952D01*
X160221904Y-142620476D01*
X160269523Y-142525238D01*
X160364761Y-142430000D01*
X160507619Y-142382380D01*
X160602857Y-142382380D01*
X160745714Y-142430000D01*
X160793333Y-142477619D01*
X161698095Y-142382380D02*
X161221904Y-142382380D01*
X161174285Y-142858571D01*
X161221904Y-142810952D01*
X161317142Y-142763333D01*
X161555238Y-142763333D01*
X161650476Y-142810952D01*
X161698095Y-142858571D01*
X161745714Y-142953809D01*
X161745714Y-143191904D01*
X161698095Y-143287142D01*
X161650476Y-143334761D01*
X161555238Y-143382380D01*
X161317142Y-143382380D01*
X161221904Y-143334761D01*
X161174285Y-143287142D01*
X183074687Y-140680389D02*
X183074687Y-140747732D01*
X183007343Y-140882419D01*
X182940000Y-140949763D01*
X182805312Y-141017106D01*
X182670625Y-141017106D01*
X182569610Y-140983435D01*
X182401251Y-140882419D01*
X182300236Y-140781404D01*
X182199221Y-140613045D01*
X182165549Y-140512030D01*
X182165549Y-140377343D01*
X182232893Y-140242656D01*
X182300236Y-140175312D01*
X182434923Y-140107969D01*
X182502267Y-140107969D01*
X182771641Y-139838595D02*
X182771641Y-139771251D01*
X182805312Y-139670236D01*
X182973671Y-139501877D01*
X183074687Y-139468206D01*
X183142030Y-139468206D01*
X183243045Y-139501877D01*
X183310389Y-139569221D01*
X183377732Y-139703908D01*
X183377732Y-140512030D01*
X183815465Y-140074297D01*
X194003809Y-108107619D02*
X194003809Y-109107619D01*
X193527619Y-108107619D02*
X193527619Y-109107619D01*
X192956190Y-108107619D01*
X192956190Y-109107619D01*
X192480000Y-108107619D02*
X192480000Y-109107619D01*
X192099047Y-109107619D01*
X192003809Y-109060000D01*
X191956190Y-109012380D01*
X191908571Y-108917142D01*
X191908571Y-108774285D01*
X191956190Y-108679047D01*
X192003809Y-108631428D01*
X192099047Y-108583809D01*
X192480000Y-108583809D01*
X176871333Y-101544380D02*
X176395142Y-101544380D01*
X176395142Y-100544380D01*
X177157047Y-100639619D02*
X177204666Y-100592000D01*
X177299904Y-100544380D01*
X177538000Y-100544380D01*
X177633238Y-100592000D01*
X177680857Y-100639619D01*
X177728476Y-100734857D01*
X177728476Y-100830095D01*
X177680857Y-100972952D01*
X177109428Y-101544380D01*
X177728476Y-101544380D01*
X128260000Y-112532380D02*
X128450476Y-112532380D01*
X128545714Y-112580000D01*
X128640952Y-112675238D01*
X128688571Y-112865714D01*
X128688571Y-113199047D01*
X128640952Y-113389523D01*
X128545714Y-113484761D01*
X128450476Y-113532380D01*
X128260000Y-113532380D01*
X128164761Y-113484761D01*
X128069523Y-113389523D01*
X128021904Y-113199047D01*
X128021904Y-112865714D01*
X128069523Y-112675238D01*
X128164761Y-112580000D01*
X128260000Y-112532380D01*
X129117142Y-112532380D02*
X129117142Y-113341904D01*
X129164761Y-113437142D01*
X129212380Y-113484761D01*
X129307619Y-113532380D01*
X129498095Y-113532380D01*
X129593333Y-113484761D01*
X129640952Y-113437142D01*
X129688571Y-113341904D01*
X129688571Y-112532380D01*
X130021904Y-112532380D02*
X130593333Y-112532380D01*
X130307619Y-113532380D02*
X130307619Y-112532380D01*
X189883333Y-82057142D02*
X189835714Y-82104761D01*
X189692857Y-82152380D01*
X189597619Y-82152380D01*
X189454761Y-82104761D01*
X189359523Y-82009523D01*
X189311904Y-81914285D01*
X189264285Y-81723809D01*
X189264285Y-81580952D01*
X189311904Y-81390476D01*
X189359523Y-81295238D01*
X189454761Y-81200000D01*
X189597619Y-81152380D01*
X189692857Y-81152380D01*
X189835714Y-81200000D01*
X189883333Y-81247619D01*
X190788095Y-81152380D02*
X190311904Y-81152380D01*
X190264285Y-81628571D01*
X190311904Y-81580952D01*
X190407142Y-81533333D01*
X190645238Y-81533333D01*
X190740476Y-81580952D01*
X190788095Y-81628571D01*
X190835714Y-81723809D01*
X190835714Y-81961904D01*
X190788095Y-82057142D01*
X190740476Y-82104761D01*
X190645238Y-82152380D01*
X190407142Y-82152380D01*
X190311904Y-82104761D01*
X190264285Y-82057142D01*
X183633333Y-106137142D02*
X183585714Y-106184761D01*
X183442857Y-106232380D01*
X183347619Y-106232380D01*
X183204761Y-106184761D01*
X183109523Y-106089523D01*
X183061904Y-105994285D01*
X183014285Y-105803809D01*
X183014285Y-105660952D01*
X183061904Y-105470476D01*
X183109523Y-105375238D01*
X183204761Y-105280000D01*
X183347619Y-105232380D01*
X183442857Y-105232380D01*
X183585714Y-105280000D01*
X183633333Y-105327619D01*
X184490476Y-105232380D02*
X184300000Y-105232380D01*
X184204761Y-105280000D01*
X184157142Y-105327619D01*
X184061904Y-105470476D01*
X184014285Y-105660952D01*
X184014285Y-106041904D01*
X184061904Y-106137142D01*
X184109523Y-106184761D01*
X184204761Y-106232380D01*
X184395238Y-106232380D01*
X184490476Y-106184761D01*
X184538095Y-106137142D01*
X184585714Y-106041904D01*
X184585714Y-105803809D01*
X184538095Y-105708571D01*
X184490476Y-105660952D01*
X184395238Y-105613333D01*
X184204761Y-105613333D01*
X184109523Y-105660952D01*
X184061904Y-105708571D01*
X184014285Y-105803809D01*
X155883333Y-100867142D02*
X155835714Y-100914761D01*
X155692857Y-100962380D01*
X155597619Y-100962380D01*
X155454761Y-100914761D01*
X155359523Y-100819523D01*
X155311904Y-100724285D01*
X155264285Y-100533809D01*
X155264285Y-100390952D01*
X155311904Y-100200476D01*
X155359523Y-100105238D01*
X155454761Y-100010000D01*
X155597619Y-99962380D01*
X155692857Y-99962380D01*
X155835714Y-100010000D01*
X155883333Y-100057619D01*
X156788095Y-99962380D02*
X156311904Y-99962380D01*
X156264285Y-100438571D01*
X156311904Y-100390952D01*
X156407142Y-100343333D01*
X156645238Y-100343333D01*
X156740476Y-100390952D01*
X156788095Y-100438571D01*
X156835714Y-100533809D01*
X156835714Y-100771904D01*
X156788095Y-100867142D01*
X156740476Y-100914761D01*
X156645238Y-100962380D01*
X156407142Y-100962380D01*
X156311904Y-100914761D01*
X156264285Y-100867142D01*
X195763333Y-129997142D02*
X195715714Y-130044761D01*
X195572857Y-130092380D01*
X195477619Y-130092380D01*
X195334761Y-130044761D01*
X195239523Y-129949523D01*
X195191904Y-129854285D01*
X195144285Y-129663809D01*
X195144285Y-129520952D01*
X195191904Y-129330476D01*
X195239523Y-129235238D01*
X195334761Y-129140000D01*
X195477619Y-129092380D01*
X195572857Y-129092380D01*
X195715714Y-129140000D01*
X195763333Y-129187619D01*
X196096666Y-129092380D02*
X196715714Y-129092380D01*
X196382380Y-129473333D01*
X196525238Y-129473333D01*
X196620476Y-129520952D01*
X196668095Y-129568571D01*
X196715714Y-129663809D01*
X196715714Y-129901904D01*
X196668095Y-129997142D01*
X196620476Y-130044761D01*
X196525238Y-130092380D01*
X196239523Y-130092380D01*
X196144285Y-130044761D01*
X196096666Y-129997142D01*
X151000000Y-66452380D02*
X151190476Y-66452380D01*
X151285714Y-66500000D01*
X151380952Y-66595238D01*
X151428571Y-66785714D01*
X151428571Y-67119047D01*
X151380952Y-67309523D01*
X151285714Y-67404761D01*
X151190476Y-67452380D01*
X151000000Y-67452380D01*
X150904761Y-67404761D01*
X150809523Y-67309523D01*
X150761904Y-67119047D01*
X150761904Y-66785714D01*
X150809523Y-66595238D01*
X150904761Y-66500000D01*
X151000000Y-66452380D01*
X151857142Y-66452380D02*
X151857142Y-67261904D01*
X151904761Y-67357142D01*
X151952380Y-67404761D01*
X152047619Y-67452380D01*
X152238095Y-67452380D01*
X152333333Y-67404761D01*
X152380952Y-67357142D01*
X152428571Y-67261904D01*
X152428571Y-66452380D01*
X152761904Y-66452380D02*
X153333333Y-66452380D01*
X153047619Y-67452380D02*
X153047619Y-66452380D01*
X189597142Y-79506666D02*
X189644761Y-79554285D01*
X189692380Y-79697142D01*
X189692380Y-79792380D01*
X189644761Y-79935238D01*
X189549523Y-80030476D01*
X189454285Y-80078095D01*
X189263809Y-80125714D01*
X189120952Y-80125714D01*
X188930476Y-80078095D01*
X188835238Y-80030476D01*
X188740000Y-79935238D01*
X188692380Y-79792380D01*
X188692380Y-79697142D01*
X188740000Y-79554285D01*
X188787619Y-79506666D01*
X189025714Y-78649523D02*
X189692380Y-78649523D01*
X188644761Y-78887619D02*
X189359047Y-79125714D01*
X189359047Y-78506666D01*
X206172380Y-106896666D02*
X206172380Y-107372857D01*
X205172380Y-107372857D01*
X205267619Y-106610952D02*
X205220000Y-106563333D01*
X205172380Y-106468095D01*
X205172380Y-106230000D01*
X205220000Y-106134761D01*
X205267619Y-106087142D01*
X205362857Y-106039523D01*
X205458095Y-106039523D01*
X205600952Y-106087142D01*
X206172380Y-106658571D01*
X206172380Y-106039523D01*
X166103333Y-89987142D02*
X166055714Y-90034761D01*
X165912857Y-90082380D01*
X165817619Y-90082380D01*
X165674761Y-90034761D01*
X165579523Y-89939523D01*
X165531904Y-89844285D01*
X165484285Y-89653809D01*
X165484285Y-89510952D01*
X165531904Y-89320476D01*
X165579523Y-89225238D01*
X165674761Y-89130000D01*
X165817619Y-89082380D01*
X165912857Y-89082380D01*
X166055714Y-89130000D01*
X166103333Y-89177619D01*
X166484285Y-89177619D02*
X166531904Y-89130000D01*
X166627142Y-89082380D01*
X166865238Y-89082380D01*
X166960476Y-89130000D01*
X167008095Y-89177619D01*
X167055714Y-89272857D01*
X167055714Y-89368095D01*
X167008095Y-89510952D01*
X166436666Y-90082380D01*
X167055714Y-90082380D01*
X160563333Y-123517142D02*
X160515714Y-123564761D01*
X160372857Y-123612380D01*
X160277619Y-123612380D01*
X160134761Y-123564761D01*
X160039523Y-123469523D01*
X159991904Y-123374285D01*
X159944285Y-123183809D01*
X159944285Y-123040952D01*
X159991904Y-122850476D01*
X160039523Y-122755238D01*
X160134761Y-122660000D01*
X160277619Y-122612380D01*
X160372857Y-122612380D01*
X160515714Y-122660000D01*
X160563333Y-122707619D01*
X161420476Y-122945714D02*
X161420476Y-123612380D01*
X161182380Y-122564761D02*
X160944285Y-123279047D01*
X161563333Y-123279047D01*
X212487142Y-63976666D02*
X212534761Y-64024285D01*
X212582380Y-64167142D01*
X212582380Y-64262380D01*
X212534761Y-64405238D01*
X212439523Y-64500476D01*
X212344285Y-64548095D01*
X212153809Y-64595714D01*
X212010952Y-64595714D01*
X211820476Y-64548095D01*
X211725238Y-64500476D01*
X211630000Y-64405238D01*
X211582380Y-64262380D01*
X211582380Y-64167142D01*
X211630000Y-64024285D01*
X211677619Y-63976666D01*
X212582380Y-63024285D02*
X212582380Y-63595714D01*
X212582380Y-63310000D02*
X211582380Y-63310000D01*
X211725238Y-63405238D01*
X211820476Y-63500476D01*
X211868095Y-63595714D01*
X214904687Y-82420389D02*
X214904687Y-82487732D01*
X214837343Y-82622419D01*
X214770000Y-82689763D01*
X214635312Y-82757106D01*
X214500625Y-82757106D01*
X214399610Y-82723435D01*
X214231251Y-82622419D01*
X214130236Y-82521404D01*
X214029221Y-82353045D01*
X213995549Y-82252030D01*
X213995549Y-82117343D01*
X214062893Y-81982656D01*
X214130236Y-81915312D01*
X214264923Y-81847969D01*
X214332267Y-81847969D01*
X214601641Y-81578595D02*
X214601641Y-81511251D01*
X214635312Y-81410236D01*
X214803671Y-81241877D01*
X214904687Y-81208206D01*
X214972030Y-81208206D01*
X215073045Y-81241877D01*
X215140389Y-81309221D01*
X215207732Y-81443908D01*
X215207732Y-82252030D01*
X215645465Y-81814297D01*
X194153333Y-131357142D02*
X194105714Y-131404761D01*
X193962857Y-131452380D01*
X193867619Y-131452380D01*
X193724761Y-131404761D01*
X193629523Y-131309523D01*
X193581904Y-131214285D01*
X193534285Y-131023809D01*
X193534285Y-130880952D01*
X193581904Y-130690476D01*
X193629523Y-130595238D01*
X193724761Y-130500000D01*
X193867619Y-130452380D01*
X193962857Y-130452380D01*
X194105714Y-130500000D01*
X194153333Y-130547619D01*
X195010476Y-130785714D02*
X195010476Y-131452380D01*
X194772380Y-130404761D02*
X194534285Y-131119047D01*
X195153333Y-131119047D01*
X195150000Y-84602380D02*
X195340476Y-84602380D01*
X195435714Y-84650000D01*
X195530952Y-84745238D01*
X195578571Y-84935714D01*
X195578571Y-85269047D01*
X195530952Y-85459523D01*
X195435714Y-85554761D01*
X195340476Y-85602380D01*
X195150000Y-85602380D01*
X195054761Y-85554761D01*
X194959523Y-85459523D01*
X194911904Y-85269047D01*
X194911904Y-84935714D01*
X194959523Y-84745238D01*
X195054761Y-84650000D01*
X195150000Y-84602380D01*
X196007142Y-84602380D02*
X196007142Y-85411904D01*
X196054761Y-85507142D01*
X196102380Y-85554761D01*
X196197619Y-85602380D01*
X196388095Y-85602380D01*
X196483333Y-85554761D01*
X196530952Y-85507142D01*
X196578571Y-85411904D01*
X196578571Y-84602380D01*
X196911904Y-84602380D02*
X197483333Y-84602380D01*
X197197619Y-85602380D02*
X197197619Y-84602380D01*
X206042380Y-134546666D02*
X206042380Y-135022857D01*
X205042380Y-135022857D01*
X205042380Y-134308571D02*
X205042380Y-133689523D01*
X205423333Y-134022857D01*
X205423333Y-133880000D01*
X205470952Y-133784761D01*
X205518571Y-133737142D01*
X205613809Y-133689523D01*
X205851904Y-133689523D01*
X205947142Y-133737142D01*
X205994761Y-133784761D01*
X206042380Y-133880000D01*
X206042380Y-134165714D01*
X205994761Y-134260952D01*
X205947142Y-134308571D01*
X143892380Y-120943809D02*
X142892380Y-120943809D01*
X143892380Y-120467619D02*
X142892380Y-120467619D01*
X143892380Y-119896190D01*
X142892380Y-119896190D01*
X143892380Y-119420000D02*
X142892380Y-119420000D01*
X142892380Y-119039047D01*
X142940000Y-118943809D01*
X142987619Y-118896190D01*
X143082857Y-118848571D01*
X143225714Y-118848571D01*
X143320952Y-118896190D01*
X143368571Y-118943809D01*
X143416190Y-119039047D01*
X143416190Y-119420000D01*
X178303333Y-131052380D02*
X177827142Y-131052380D01*
X177827142Y-130052380D01*
X179160476Y-131052380D02*
X178589047Y-131052380D01*
X178874761Y-131052380D02*
X178874761Y-130052380D01*
X178779523Y-130195238D01*
X178684285Y-130290476D01*
X178589047Y-130338095D01*
X195033333Y-75322380D02*
X194557142Y-75322380D01*
X194557142Y-74322380D01*
X195319047Y-74417619D02*
X195366666Y-74370000D01*
X195461904Y-74322380D01*
X195700000Y-74322380D01*
X195795238Y-74370000D01*
X195842857Y-74417619D01*
X195890476Y-74512857D01*
X195890476Y-74608095D01*
X195842857Y-74750952D01*
X195271428Y-75322380D01*
X195890476Y-75322380D01*
X163733333Y-131492380D02*
X163257142Y-131492380D01*
X163257142Y-130492380D01*
X164019047Y-130587619D02*
X164066666Y-130540000D01*
X164161904Y-130492380D01*
X164400000Y-130492380D01*
X164495238Y-130540000D01*
X164542857Y-130587619D01*
X164590476Y-130682857D01*
X164590476Y-130778095D01*
X164542857Y-130920952D01*
X163971428Y-131492380D01*
X164590476Y-131492380D01*
X163440000Y-113062380D02*
X163630476Y-113062380D01*
X163725714Y-113110000D01*
X163820952Y-113205238D01*
X163868571Y-113395714D01*
X163868571Y-113729047D01*
X163820952Y-113919523D01*
X163725714Y-114014761D01*
X163630476Y-114062380D01*
X163440000Y-114062380D01*
X163344761Y-114014761D01*
X163249523Y-113919523D01*
X163201904Y-113729047D01*
X163201904Y-113395714D01*
X163249523Y-113205238D01*
X163344761Y-113110000D01*
X163440000Y-113062380D01*
X164297142Y-113062380D02*
X164297142Y-113871904D01*
X164344761Y-113967142D01*
X164392380Y-114014761D01*
X164487619Y-114062380D01*
X164678095Y-114062380D01*
X164773333Y-114014761D01*
X164820952Y-113967142D01*
X164868571Y-113871904D01*
X164868571Y-113062380D01*
X165201904Y-113062380D02*
X165773333Y-113062380D01*
X165487619Y-114062380D02*
X165487619Y-113062380D01*
X183653333Y-98017142D02*
X183605714Y-98064761D01*
X183462857Y-98112380D01*
X183367619Y-98112380D01*
X183224761Y-98064761D01*
X183129523Y-97969523D01*
X183081904Y-97874285D01*
X183034285Y-97683809D01*
X183034285Y-97540952D01*
X183081904Y-97350476D01*
X183129523Y-97255238D01*
X183224761Y-97160000D01*
X183367619Y-97112380D01*
X183462857Y-97112380D01*
X183605714Y-97160000D01*
X183653333Y-97207619D01*
X184605714Y-98112380D02*
X184034285Y-98112380D01*
X184320000Y-98112380D02*
X184320000Y-97112380D01*
X184224761Y-97255238D01*
X184129523Y-97350476D01*
X184034285Y-97398095D01*
X178182380Y-91693809D02*
X177182380Y-91693809D01*
X178182380Y-91217619D02*
X177182380Y-91217619D01*
X178182380Y-90646190D01*
X177182380Y-90646190D01*
X178182380Y-90170000D02*
X177182380Y-90170000D01*
X177182380Y-89789047D01*
X177230000Y-89693809D01*
X177277619Y-89646190D01*
X177372857Y-89598571D01*
X177515714Y-89598571D01*
X177610952Y-89646190D01*
X177658571Y-89693809D01*
X177706190Y-89789047D01*
X177706190Y-90170000D01*
X192988323Y-102678150D02*
X192976629Y-102744470D01*
X192886920Y-102865417D01*
X192808906Y-102920043D01*
X192664571Y-102962976D01*
X192531930Y-102939587D01*
X192438297Y-102888886D01*
X192290037Y-102760170D01*
X192208097Y-102643149D01*
X192137852Y-102459806D01*
X192122233Y-102354479D01*
X192145621Y-102221838D01*
X192235329Y-102100891D01*
X192313344Y-102046265D01*
X192457679Y-102003333D01*
X192523999Y-102015027D01*
X193823094Y-102209901D02*
X193355007Y-102537659D01*
X193589051Y-102373780D02*
X193015474Y-101554628D01*
X193019399Y-101726276D01*
X192996011Y-101858917D01*
X192945310Y-101952550D01*
X164593333Y-96637142D02*
X164545714Y-96684761D01*
X164402857Y-96732380D01*
X164307619Y-96732380D01*
X164164761Y-96684761D01*
X164069523Y-96589523D01*
X164021904Y-96494285D01*
X163974285Y-96303809D01*
X163974285Y-96160952D01*
X164021904Y-95970476D01*
X164069523Y-95875238D01*
X164164761Y-95780000D01*
X164307619Y-95732380D01*
X164402857Y-95732380D01*
X164545714Y-95780000D01*
X164593333Y-95827619D01*
X164926666Y-95732380D02*
X165545714Y-95732380D01*
X165212380Y-96113333D01*
X165355238Y-96113333D01*
X165450476Y-96160952D01*
X165498095Y-96208571D01*
X165545714Y-96303809D01*
X165545714Y-96541904D01*
X165498095Y-96637142D01*
X165450476Y-96684761D01*
X165355238Y-96732380D01*
X165069523Y-96732380D01*
X164974285Y-96684761D01*
X164926666Y-96637142D01*
X178212380Y-120893809D02*
X177212380Y-120893809D01*
X178212380Y-120417619D02*
X177212380Y-120417619D01*
X178212380Y-119846190D01*
X177212380Y-119846190D01*
X178212380Y-119370000D02*
X177212380Y-119370000D01*
X177212380Y-118989047D01*
X177260000Y-118893809D01*
X177307619Y-118846190D01*
X177402857Y-118798571D01*
X177545714Y-118798571D01*
X177640952Y-118846190D01*
X177688571Y-118893809D01*
X177736190Y-118989047D01*
X177736190Y-119370000D01*
X178297142Y-79746666D02*
X178344761Y-79794285D01*
X178392380Y-79937142D01*
X178392380Y-80032380D01*
X178344761Y-80175238D01*
X178249523Y-80270476D01*
X178154285Y-80318095D01*
X177963809Y-80365714D01*
X177820952Y-80365714D01*
X177630476Y-80318095D01*
X177535238Y-80270476D01*
X177440000Y-80175238D01*
X177392380Y-80032380D01*
X177392380Y-79937142D01*
X177440000Y-79794285D01*
X177487619Y-79746666D01*
X177392380Y-79413333D02*
X177392380Y-78746666D01*
X178392380Y-79175238D01*
X212357142Y-127676666D02*
X212404761Y-127724285D01*
X212452380Y-127867142D01*
X212452380Y-127962380D01*
X212404761Y-128105238D01*
X212309523Y-128200476D01*
X212214285Y-128248095D01*
X212023809Y-128295714D01*
X211880952Y-128295714D01*
X211690476Y-128248095D01*
X211595238Y-128200476D01*
X211500000Y-128105238D01*
X211452380Y-127962380D01*
X211452380Y-127867142D01*
X211500000Y-127724285D01*
X211547619Y-127676666D01*
X212452380Y-127200476D02*
X212452380Y-127010000D01*
X212404761Y-126914761D01*
X212357142Y-126867142D01*
X212214285Y-126771904D01*
X212023809Y-126724285D01*
X211642857Y-126724285D01*
X211547619Y-126771904D01*
X211500000Y-126819523D01*
X211452380Y-126914761D01*
X211452380Y-127105238D01*
X211500000Y-127200476D01*
X211547619Y-127248095D01*
X211642857Y-127295714D01*
X211880952Y-127295714D01*
X211976190Y-127248095D01*
X212023809Y-127200476D01*
X212071428Y-127105238D01*
X212071428Y-126914761D01*
X212023809Y-126819523D01*
X211976190Y-126771904D01*
X211880952Y-126724285D01*
X170615534Y-108162607D02*
X170587074Y-108223641D01*
X170469118Y-108317249D01*
X170379624Y-108349822D01*
X170229095Y-108353935D01*
X170107027Y-108297014D01*
X170029707Y-108223806D01*
X169919813Y-108061103D01*
X169870953Y-107926861D01*
X169850553Y-107731586D01*
X169862727Y-107625804D01*
X169919649Y-107503737D01*
X170037604Y-107410129D01*
X170127098Y-107377556D01*
X170277627Y-107373443D01*
X170338661Y-107401904D01*
X170619318Y-107198403D02*
X171245780Y-106970389D01*
X171185075Y-108056662D01*
X143192380Y-91873809D02*
X142192380Y-91873809D01*
X143192380Y-91397619D02*
X142192380Y-91397619D01*
X143192380Y-90826190D01*
X142192380Y-90826190D01*
X143192380Y-90350000D02*
X142192380Y-90350000D01*
X142192380Y-89969047D01*
X142240000Y-89873809D01*
X142287619Y-89826190D01*
X142382857Y-89778571D01*
X142525714Y-89778571D01*
X142620952Y-89826190D01*
X142668571Y-89873809D01*
X142716190Y-89969047D01*
X142716190Y-90350000D01*
%TO.C,J1*%
X133816666Y-108672380D02*
X133816666Y-109386666D01*
X133769047Y-109529523D01*
X133673809Y-109624761D01*
X133530952Y-109672380D01*
X133435714Y-109672380D01*
X134816666Y-109672380D02*
X134245238Y-109672380D01*
X134530952Y-109672380D02*
X134530952Y-108672380D01*
X134435714Y-108815238D01*
X134340476Y-108910476D01*
X134245238Y-108958095D01*
%TO.C,J2*%
X143552380Y-90763333D02*
X144266666Y-90763333D01*
X144409523Y-90810952D01*
X144504761Y-90906190D01*
X144552380Y-91049047D01*
X144552380Y-91144285D01*
X143647619Y-90334761D02*
X143600000Y-90287142D01*
X143552380Y-90191904D01*
X143552380Y-89953809D01*
X143600000Y-89858571D01*
X143647619Y-89810952D01*
X143742857Y-89763333D01*
X143838095Y-89763333D01*
X143980952Y-89810952D01*
X144552380Y-90382380D01*
X144552380Y-89763333D01*
%TO.C,J3*%
X178462380Y-90603333D02*
X179176666Y-90603333D01*
X179319523Y-90650952D01*
X179414761Y-90746190D01*
X179462380Y-90889047D01*
X179462380Y-90984285D01*
X178462380Y-90222380D02*
X178462380Y-89603333D01*
X178843333Y-89936666D01*
X178843333Y-89793809D01*
X178890952Y-89698571D01*
X178938571Y-89650952D01*
X179033809Y-89603333D01*
X179271904Y-89603333D01*
X179367142Y-89650952D01*
X179414761Y-89698571D01*
X179462380Y-89793809D01*
X179462380Y-90079523D01*
X179414761Y-90174761D01*
X179367142Y-90222380D01*
%TO.C,J4*%
X169596666Y-108852380D02*
X169596666Y-109566666D01*
X169549047Y-109709523D01*
X169453809Y-109804761D01*
X169310952Y-109852380D01*
X169215714Y-109852380D01*
X170501428Y-109185714D02*
X170501428Y-109852380D01*
X170263333Y-108804761D02*
X170025238Y-109519047D01*
X170644285Y-109519047D01*
%TO.C,J5*%
X144262380Y-119943333D02*
X144976666Y-119943333D01*
X145119523Y-119990952D01*
X145214761Y-120086190D01*
X145262380Y-120229047D01*
X145262380Y-120324285D01*
X144262380Y-118990952D02*
X144262380Y-119467142D01*
X144738571Y-119514761D01*
X144690952Y-119467142D01*
X144643333Y-119371904D01*
X144643333Y-119133809D01*
X144690952Y-119038571D01*
X144738571Y-118990952D01*
X144833809Y-118943333D01*
X145071904Y-118943333D01*
X145167142Y-118990952D01*
X145214761Y-119038571D01*
X145262380Y-119133809D01*
X145262380Y-119371904D01*
X145214761Y-119467142D01*
X145167142Y-119514761D01*
%TO.C,J6*%
X133776666Y-137952380D02*
X133776666Y-138666666D01*
X133729047Y-138809523D01*
X133633809Y-138904761D01*
X133490952Y-138952380D01*
X133395714Y-138952380D01*
X134681428Y-137952380D02*
X134490952Y-137952380D01*
X134395714Y-138000000D01*
X134348095Y-138047619D01*
X134252857Y-138190476D01*
X134205238Y-138380952D01*
X134205238Y-138761904D01*
X134252857Y-138857142D01*
X134300476Y-138904761D01*
X134395714Y-138952380D01*
X134586190Y-138952380D01*
X134681428Y-138904761D01*
X134729047Y-138857142D01*
X134776666Y-138761904D01*
X134776666Y-138523809D01*
X134729047Y-138428571D01*
X134681428Y-138380952D01*
X134586190Y-138333333D01*
X134395714Y-138333333D01*
X134300476Y-138380952D01*
X134252857Y-138428571D01*
X134205238Y-138523809D01*
%TO.C,J7*%
X178522380Y-119663333D02*
X179236666Y-119663333D01*
X179379523Y-119710952D01*
X179474761Y-119806190D01*
X179522380Y-119949047D01*
X179522380Y-120044285D01*
X178522380Y-119282380D02*
X178522380Y-118615714D01*
X179522380Y-119044285D01*
%TO.C,J8*%
X164762380Y-141303333D02*
X165476666Y-141303333D01*
X165619523Y-141350952D01*
X165714761Y-141446190D01*
X165762380Y-141589047D01*
X165762380Y-141684285D01*
X165190952Y-140684285D02*
X165143333Y-140779523D01*
X165095714Y-140827142D01*
X165000476Y-140874761D01*
X164952857Y-140874761D01*
X164857619Y-140827142D01*
X164810000Y-140779523D01*
X164762380Y-140684285D01*
X164762380Y-140493809D01*
X164810000Y-140398571D01*
X164857619Y-140350952D01*
X164952857Y-140303333D01*
X165000476Y-140303333D01*
X165095714Y-140350952D01*
X165143333Y-140398571D01*
X165190952Y-140493809D01*
X165190952Y-140684285D01*
X165238571Y-140779523D01*
X165286190Y-140827142D01*
X165381428Y-140874761D01*
X165571904Y-140874761D01*
X165667142Y-140827142D01*
X165714761Y-140779523D01*
X165762380Y-140684285D01*
X165762380Y-140493809D01*
X165714761Y-140398571D01*
X165667142Y-140350952D01*
X165571904Y-140303333D01*
X165381428Y-140303333D01*
X165286190Y-140350952D01*
X165238571Y-140398571D01*
X165190952Y-140493809D01*
%TO.C,J9*%
X210477380Y-62708333D02*
X211191666Y-62708333D01*
X211334523Y-62755952D01*
X211429761Y-62851190D01*
X211477380Y-62994047D01*
X211477380Y-63089285D01*
X211477380Y-62184523D02*
X211477380Y-61994047D01*
X211429761Y-61898809D01*
X211382142Y-61851190D01*
X211239285Y-61755952D01*
X211048809Y-61708333D01*
X210667857Y-61708333D01*
X210572619Y-61755952D01*
X210525000Y-61803571D01*
X210477380Y-61898809D01*
X210477380Y-62089285D01*
X210525000Y-62184523D01*
X210572619Y-62232142D01*
X210667857Y-62279761D01*
X210905952Y-62279761D01*
X211001190Y-62232142D01*
X211048809Y-62184523D01*
X211096428Y-62089285D01*
X211096428Y-61898809D01*
X211048809Y-61803571D01*
X211001190Y-61755952D01*
X210905952Y-61708333D01*
%TO.C,J10*%
X199700476Y-80842380D02*
X199700476Y-81556666D01*
X199652857Y-81699523D01*
X199557619Y-81794761D01*
X199414761Y-81842380D01*
X199319523Y-81842380D01*
X200700476Y-81842380D02*
X200129047Y-81842380D01*
X200414761Y-81842380D02*
X200414761Y-80842380D01*
X200319523Y-80985238D01*
X200224285Y-81080476D01*
X200129047Y-81128095D01*
X201319523Y-80842380D02*
X201414761Y-80842380D01*
X201510000Y-80890000D01*
X201557619Y-80937619D01*
X201605238Y-81032857D01*
X201652857Y-81223333D01*
X201652857Y-81461428D01*
X201605238Y-81651904D01*
X201557619Y-81747142D01*
X201510000Y-81794761D01*
X201414761Y-81842380D01*
X201319523Y-81842380D01*
X201224285Y-81794761D01*
X201176666Y-81747142D01*
X201129047Y-81651904D01*
X201081428Y-81461428D01*
X201081428Y-81223333D01*
X201129047Y-81032857D01*
X201176666Y-80937619D01*
X201224285Y-80890000D01*
X201319523Y-80842380D01*
%TO.C,J11*%
X192280476Y-106752380D02*
X192280476Y-107466666D01*
X192232857Y-107609523D01*
X192137619Y-107704761D01*
X191994761Y-107752380D01*
X191899523Y-107752380D01*
X193280476Y-107752380D02*
X192709047Y-107752380D01*
X192994761Y-107752380D02*
X192994761Y-106752380D01*
X192899523Y-106895238D01*
X192804285Y-106990476D01*
X192709047Y-107038095D01*
X194232857Y-107752380D02*
X193661428Y-107752380D01*
X193947142Y-107752380D02*
X193947142Y-106752380D01*
X193851904Y-106895238D01*
X193756666Y-106990476D01*
X193661428Y-107038095D01*
%TO.C,J12*%
X210482380Y-115879523D02*
X211196666Y-115879523D01*
X211339523Y-115927142D01*
X211434761Y-116022380D01*
X211482380Y-116165238D01*
X211482380Y-116260476D01*
X211482380Y-114879523D02*
X211482380Y-115450952D01*
X211482380Y-115165238D02*
X210482380Y-115165238D01*
X210625238Y-115260476D01*
X210720476Y-115355714D01*
X210768095Y-115450952D01*
X210577619Y-114498571D02*
X210530000Y-114450952D01*
X210482380Y-114355714D01*
X210482380Y-114117619D01*
X210530000Y-114022380D01*
X210577619Y-113974761D01*
X210672857Y-113927142D01*
X210768095Y-113927142D01*
X210910952Y-113974761D01*
X211482380Y-114546190D01*
X211482380Y-113927142D01*
%TO.C,J13*%
X125262380Y-69634523D02*
X125976666Y-69634523D01*
X126119523Y-69682142D01*
X126214761Y-69777380D01*
X126262380Y-69920238D01*
X126262380Y-70015476D01*
X126262380Y-68634523D02*
X126262380Y-69205952D01*
X126262380Y-68920238D02*
X125262380Y-68920238D01*
X125405238Y-69015476D01*
X125500476Y-69110714D01*
X125548095Y-69205952D01*
X125262380Y-68301190D02*
X125262380Y-67682142D01*
X125643333Y-68015476D01*
X125643333Y-67872619D01*
X125690952Y-67777380D01*
X125738571Y-67729761D01*
X125833809Y-67682142D01*
X126071904Y-67682142D01*
X126167142Y-67729761D01*
X126214761Y-67777380D01*
X126262380Y-67872619D01*
X126262380Y-68158333D01*
X126214761Y-68253571D01*
X126167142Y-68301190D01*
%TO.C,J14*%
X131190476Y-78782380D02*
X131190476Y-79496666D01*
X131142857Y-79639523D01*
X131047619Y-79734761D01*
X130904761Y-79782380D01*
X130809523Y-79782380D01*
X132190476Y-79782380D02*
X131619047Y-79782380D01*
X131904761Y-79782380D02*
X131904761Y-78782380D01*
X131809523Y-78925238D01*
X131714285Y-79020476D01*
X131619047Y-79068095D01*
X133047619Y-79115714D02*
X133047619Y-79782380D01*
X132809523Y-78734761D02*
X132571428Y-79449047D01*
X133190476Y-79449047D01*
%TO.C,J15*%
X151190476Y-78782380D02*
X151190476Y-79496666D01*
X151142857Y-79639523D01*
X151047619Y-79734761D01*
X150904761Y-79782380D01*
X150809523Y-79782380D01*
X152190476Y-79782380D02*
X151619047Y-79782380D01*
X151904761Y-79782380D02*
X151904761Y-78782380D01*
X151809523Y-78925238D01*
X151714285Y-79020476D01*
X151619047Y-79068095D01*
X153095238Y-78782380D02*
X152619047Y-78782380D01*
X152571428Y-79258571D01*
X152619047Y-79210952D01*
X152714285Y-79163333D01*
X152952380Y-79163333D01*
X153047619Y-79210952D01*
X153095238Y-79258571D01*
X153142857Y-79353809D01*
X153142857Y-79591904D01*
X153095238Y-79687142D01*
X153047619Y-79734761D01*
X152952380Y-79782380D01*
X152714285Y-79782380D01*
X152619047Y-79734761D01*
X152571428Y-79687142D01*
%TO.C,J16*%
X163365476Y-66262380D02*
X163365476Y-66976666D01*
X163317857Y-67119523D01*
X163222619Y-67214761D01*
X163079761Y-67262380D01*
X162984523Y-67262380D01*
X164365476Y-67262380D02*
X163794047Y-67262380D01*
X164079761Y-67262380D02*
X164079761Y-66262380D01*
X163984523Y-66405238D01*
X163889285Y-66500476D01*
X163794047Y-66548095D01*
X165222619Y-66262380D02*
X165032142Y-66262380D01*
X164936904Y-66310000D01*
X164889285Y-66357619D01*
X164794047Y-66500476D01*
X164746428Y-66690952D01*
X164746428Y-67071904D01*
X164794047Y-67167142D01*
X164841666Y-67214761D01*
X164936904Y-67262380D01*
X165127380Y-67262380D01*
X165222619Y-67214761D01*
X165270238Y-67167142D01*
X165317857Y-67071904D01*
X165317857Y-66833809D01*
X165270238Y-66738571D01*
X165222619Y-66690952D01*
X165127380Y-66643333D01*
X164936904Y-66643333D01*
X164841666Y-66690952D01*
X164794047Y-66738571D01*
X164746428Y-66833809D01*
D15*
%TO.C,C1*%
X146944000Y-90270000D02*
X146630000Y-90270000D01*
X149250000Y-95390000D02*
X148936000Y-95390000D01*
X149250000Y-90270000D02*
X149250000Y-95390000D01*
X149250000Y-90270000D02*
X148936000Y-90270000D01*
X146944000Y-95390000D02*
X146630000Y-95390000D01*
X146630000Y-90270000D02*
X146630000Y-95390000D01*
%TO.C,C2*%
X129460000Y-90364000D02*
X129460000Y-90050000D01*
X124340000Y-92670000D02*
X124340000Y-92356000D01*
X129460000Y-92670000D02*
X124340000Y-92670000D01*
X129460000Y-92670000D02*
X129460000Y-92356000D01*
X124340000Y-90364000D02*
X124340000Y-90050000D01*
X129460000Y-90050000D02*
X124340000Y-90050000D01*
%TO.C,C3*%
X129480000Y-93724000D02*
X129480000Y-93410000D01*
X124360000Y-96030000D02*
X124360000Y-95716000D01*
X129480000Y-96030000D02*
X124360000Y-96030000D01*
X129480000Y-96030000D02*
X129480000Y-95716000D01*
X124360000Y-93724000D02*
X124360000Y-93410000D01*
X129480000Y-93410000D02*
X124360000Y-93410000D01*
%TO.C,C4*%
X120584000Y-90390000D02*
X120270000Y-90390000D01*
X122890000Y-95510000D02*
X122576000Y-95510000D01*
X122890000Y-90390000D02*
X122890000Y-95510000D01*
X122890000Y-90390000D02*
X122576000Y-90390000D01*
X120584000Y-95510000D02*
X120270000Y-95510000D01*
X120270000Y-90390000D02*
X120270000Y-95510000D01*
%TO.C,C5*%
X126260000Y-97184000D02*
X126260000Y-96870000D01*
X121140000Y-99490000D02*
X121140000Y-99176000D01*
X126260000Y-99490000D02*
X121140000Y-99490000D01*
X126260000Y-99490000D02*
X126260000Y-99176000D01*
X121140000Y-97184000D02*
X121140000Y-96870000D01*
X126260000Y-96870000D02*
X121140000Y-96870000D01*
%TO.C,C6*%
X146705000Y-107382000D02*
X146391000Y-107382000D01*
X149011000Y-112502000D02*
X148697000Y-112502000D01*
X149011000Y-107382000D02*
X149011000Y-112502000D01*
X149011000Y-107382000D02*
X148697000Y-107382000D01*
X146705000Y-112502000D02*
X146391000Y-112502000D01*
X146391000Y-107382000D02*
X146391000Y-112502000D01*
%TO.C,C7*%
X132139545Y-102138271D02*
X131844481Y-102245665D01*
X136057619Y-106160798D02*
X135762556Y-106268193D01*
X134306476Y-101349572D02*
X136057619Y-106160798D01*
X134306476Y-101349572D02*
X134011413Y-101456966D01*
X133890688Y-106949497D02*
X133595625Y-107056891D01*
X131844481Y-102245665D02*
X133595625Y-107056891D01*
%TO.C,C8*%
X184756000Y-96010000D02*
X185070000Y-96010000D01*
X182450000Y-90890000D02*
X182764000Y-90890000D01*
X182450000Y-96010000D02*
X182450000Y-90890000D01*
X182450000Y-96010000D02*
X182764000Y-96010000D01*
X184756000Y-90890000D02*
X185070000Y-90890000D01*
X185070000Y-96010000D02*
X185070000Y-90890000D01*
%TO.C,C9*%
X164670000Y-89734000D02*
X164670000Y-89420000D01*
X159550000Y-92040000D02*
X159550000Y-91726000D01*
X164670000Y-92040000D02*
X159550000Y-92040000D01*
X164670000Y-92040000D02*
X164670000Y-91726000D01*
X159550000Y-89734000D02*
X159550000Y-89420000D01*
X164670000Y-89420000D02*
X159550000Y-89420000D01*
%TO.C,C10*%
X164690000Y-92954000D02*
X164690000Y-92640000D01*
X159570000Y-95260000D02*
X159570000Y-94946000D01*
X164690000Y-95260000D02*
X159570000Y-95260000D01*
X164690000Y-95260000D02*
X164690000Y-94946000D01*
X159570000Y-92954000D02*
X159570000Y-92640000D01*
X164690000Y-92640000D02*
X159570000Y-92640000D01*
%TO.C,C11*%
X155774000Y-90190000D02*
X155460000Y-90190000D01*
X158080000Y-95310000D02*
X157766000Y-95310000D01*
X158080000Y-90190000D02*
X158080000Y-95310000D01*
X158080000Y-90190000D02*
X157766000Y-90190000D01*
X155774000Y-95310000D02*
X155460000Y-95310000D01*
X155460000Y-90190000D02*
X155460000Y-95310000D01*
%TO.C,C12*%
X167413545Y-101674271D02*
X167118481Y-101781665D01*
X171331619Y-105696798D02*
X171036556Y-105804193D01*
X169580476Y-100885572D02*
X171331619Y-105696798D01*
X169580476Y-100885572D02*
X169285413Y-100992966D01*
X169164688Y-106485497D02*
X168869625Y-106592891D01*
X167118481Y-101781665D02*
X168869625Y-106592891D01*
%TO.C,C13*%
X161360000Y-96790000D02*
X156240000Y-96790000D01*
X156240000Y-97104000D02*
X156240000Y-96790000D01*
X161360000Y-99410000D02*
X161360000Y-99096000D01*
X161360000Y-99410000D02*
X156240000Y-99410000D01*
X156240000Y-99410000D02*
X156240000Y-99096000D01*
X161360000Y-97104000D02*
X161360000Y-96790000D01*
%TO.C,C14*%
X182854000Y-107400000D02*
X182540000Y-107400000D01*
X185160000Y-112520000D02*
X184846000Y-112520000D01*
X185160000Y-107400000D02*
X185160000Y-112520000D01*
X185160000Y-107400000D02*
X184846000Y-107400000D01*
X182854000Y-112520000D02*
X182540000Y-112520000D01*
X182540000Y-107400000D02*
X182540000Y-112520000D01*
%TO.C,C15*%
X148424000Y-119910000D02*
X148110000Y-119910000D01*
X150730000Y-125030000D02*
X150416000Y-125030000D01*
X150730000Y-119910000D02*
X150730000Y-125030000D01*
X150730000Y-119910000D02*
X150416000Y-119910000D01*
X148424000Y-125030000D02*
X148110000Y-125030000D01*
X148110000Y-119910000D02*
X148110000Y-125030000D01*
%TO.C,C16*%
X129980000Y-119094000D02*
X129980000Y-118780000D01*
X124860000Y-121400000D02*
X124860000Y-121086000D01*
X129980000Y-121400000D02*
X124860000Y-121400000D01*
X129980000Y-121400000D02*
X129980000Y-121086000D01*
X124860000Y-119094000D02*
X124860000Y-118780000D01*
X129980000Y-118780000D02*
X124860000Y-118780000D01*
%TO.C,C17*%
X129950000Y-122444000D02*
X129950000Y-122130000D01*
X124830000Y-124750000D02*
X124830000Y-124436000D01*
X129950000Y-124750000D02*
X124830000Y-124750000D01*
X129950000Y-124750000D02*
X129950000Y-124436000D01*
X124830000Y-122444000D02*
X124830000Y-122130000D01*
X129950000Y-122130000D02*
X124830000Y-122130000D01*
%TO.C,C18*%
X121144000Y-119130000D02*
X120830000Y-119130000D01*
X123450000Y-124250000D02*
X123136000Y-124250000D01*
X123450000Y-119130000D02*
X123450000Y-124250000D01*
X123450000Y-119130000D02*
X123136000Y-119130000D01*
X121144000Y-124250000D02*
X120830000Y-124250000D01*
X120830000Y-119130000D02*
X120830000Y-124250000D01*
%TO.C,C19*%
X133573545Y-132074271D02*
X133278481Y-132181665D01*
X137491619Y-136096798D02*
X137196556Y-136204193D01*
X135740476Y-131285572D02*
X137491619Y-136096798D01*
X135740476Y-131285572D02*
X135445413Y-131392966D01*
X135324688Y-136885497D02*
X135029625Y-136992891D01*
X133278481Y-132181665D02*
X135029625Y-136992891D01*
%TO.C,C20*%
X126710000Y-125964000D02*
X126710000Y-125650000D01*
X121590000Y-128270000D02*
X121590000Y-127956000D01*
X126710000Y-128270000D02*
X121590000Y-128270000D01*
X126710000Y-128270000D02*
X126710000Y-127956000D01*
X121590000Y-125964000D02*
X121590000Y-125650000D01*
X126710000Y-125650000D02*
X121590000Y-125650000D01*
%TO.C,C21*%
X148424000Y-136450000D02*
X148110000Y-136450000D01*
X150730000Y-141570000D02*
X150416000Y-141570000D01*
X150730000Y-136450000D02*
X150730000Y-141570000D01*
X150730000Y-136450000D02*
X150416000Y-136450000D01*
X148424000Y-141570000D02*
X148110000Y-141570000D01*
X148110000Y-136450000D02*
X148110000Y-141570000D01*
%TO.C,C22*%
X182684000Y-119240000D02*
X182370000Y-119240000D01*
X184990000Y-124360000D02*
X184676000Y-124360000D01*
X184990000Y-119240000D02*
X184990000Y-124360000D01*
X184990000Y-119240000D02*
X184676000Y-119240000D01*
X182684000Y-124360000D02*
X182370000Y-124360000D01*
X182370000Y-119240000D02*
X182370000Y-124360000D01*
%TO.C,C23*%
X183097867Y-136079710D02*
X182917764Y-135822496D01*
X180226476Y-140905386D02*
X180046373Y-140648172D01*
X184420534Y-137968675D02*
X180226476Y-140905386D01*
X184420534Y-137968675D02*
X184240431Y-137711461D01*
X178903809Y-139016421D02*
X178723706Y-138759208D01*
X182917764Y-135822496D02*
X178723706Y-138759208D01*
%TO.C,C24*%
X158250000Y-120746000D02*
X158250000Y-121060000D01*
X163370000Y-118440000D02*
X163370000Y-118754000D01*
X158250000Y-118440000D02*
X163370000Y-118440000D01*
X158250000Y-118440000D02*
X158250000Y-118754000D01*
X163370000Y-120746000D02*
X163370000Y-121060000D01*
X158250000Y-121060000D02*
X163370000Y-121060000D01*
%TO.C,C25*%
X163290000Y-122104000D02*
X163290000Y-121790000D01*
X158170000Y-124410000D02*
X158170000Y-124096000D01*
X163290000Y-124410000D02*
X158170000Y-124410000D01*
X163290000Y-124410000D02*
X163290000Y-124096000D01*
X158170000Y-122104000D02*
X158170000Y-121790000D01*
X163290000Y-121790000D02*
X158170000Y-121790000D01*
%TO.C,C26*%
X158320000Y-141926000D02*
X158320000Y-142240000D01*
X163440000Y-139620000D02*
X163440000Y-139934000D01*
X158320000Y-139620000D02*
X163440000Y-139620000D01*
X158320000Y-139620000D02*
X158320000Y-139934000D01*
X163440000Y-141926000D02*
X163440000Y-142240000D01*
X158320000Y-142240000D02*
X163440000Y-142240000D01*
%TO.C,C27*%
X213379000Y-61990000D02*
X213065000Y-61990000D01*
X215685000Y-67110000D02*
X215371000Y-67110000D01*
X215685000Y-61990000D02*
X215685000Y-67110000D01*
X215685000Y-61990000D02*
X215371000Y-61990000D01*
X213379000Y-67110000D02*
X213065000Y-67110000D01*
X213065000Y-61990000D02*
X213065000Y-67110000D01*
%TO.C,C28*%
X214552867Y-78349710D02*
X214372764Y-78092496D01*
X211681476Y-83175386D02*
X211501373Y-82918172D01*
X215875534Y-80238675D02*
X211681476Y-83175386D01*
X215875534Y-80238675D02*
X215695431Y-79981461D01*
X210358809Y-81286421D02*
X210178706Y-81029208D01*
X214372764Y-78092496D02*
X210178706Y-81029208D01*
%TO.C,C29*%
X203420000Y-66004000D02*
X203420000Y-65690000D01*
X198300000Y-68310000D02*
X198300000Y-67996000D01*
X203420000Y-68310000D02*
X198300000Y-68310000D01*
X203420000Y-68310000D02*
X203420000Y-67996000D01*
X198300000Y-66004000D02*
X198300000Y-65690000D01*
X203420000Y-65690000D02*
X198300000Y-65690000D01*
%TO.C,C30*%
X185934000Y-75990000D02*
X185620000Y-75990000D01*
X188240000Y-81110000D02*
X187926000Y-81110000D01*
X188240000Y-75990000D02*
X188240000Y-81110000D01*
X188240000Y-75990000D02*
X187926000Y-75990000D01*
X185934000Y-81110000D02*
X185620000Y-81110000D01*
X185620000Y-75990000D02*
X185620000Y-81110000D01*
%TO.C,C31*%
X192580000Y-82884000D02*
X192580000Y-82570000D01*
X187460000Y-85190000D02*
X187460000Y-84876000D01*
X192580000Y-85190000D02*
X187460000Y-85190000D01*
X192580000Y-85190000D02*
X192580000Y-84876000D01*
X187460000Y-82884000D02*
X187460000Y-82570000D01*
X192580000Y-82570000D02*
X187460000Y-82570000D01*
%TO.C,C32*%
X184576000Y-82200000D02*
X184890000Y-82200000D01*
X182270000Y-77080000D02*
X182584000Y-77080000D01*
X182270000Y-82200000D02*
X182270000Y-77080000D01*
X182270000Y-82200000D02*
X182584000Y-82200000D01*
X184576000Y-77080000D02*
X184890000Y-77080000D01*
X184890000Y-82200000D02*
X184890000Y-77080000D01*
%TO.C,C33*%
X179174000Y-77000000D02*
X178860000Y-77000000D01*
X181480000Y-82120000D02*
X181166000Y-82120000D01*
X181480000Y-77000000D02*
X181480000Y-82120000D01*
X181480000Y-77000000D02*
X181166000Y-77000000D01*
X179174000Y-82120000D02*
X178860000Y-82120000D01*
X178860000Y-77000000D02*
X178860000Y-82120000D01*
%TO.C,C34*%
X196064148Y-101109295D02*
X195842117Y-100887264D01*
X194074350Y-106360270D02*
X193852318Y-106138239D01*
X197694736Y-102739883D02*
X194074350Y-106360270D01*
X197694736Y-102739883D02*
X197472705Y-102517852D01*
X192443761Y-104729682D02*
X192221730Y-104507650D01*
X195842117Y-100887264D02*
X192221730Y-104507650D01*
%TO.C,C35*%
X191614000Y-122830000D02*
X191300000Y-122830000D01*
X193920000Y-127950000D02*
X193606000Y-127950000D01*
X193920000Y-122830000D02*
X193920000Y-127950000D01*
X193920000Y-122830000D02*
X193606000Y-122830000D01*
X191614000Y-127950000D02*
X191300000Y-127950000D01*
X191300000Y-122830000D02*
X191300000Y-127950000D01*
%TO.C,C36*%
X195004000Y-122750000D02*
X194690000Y-122750000D01*
X197310000Y-127870000D02*
X196996000Y-127870000D01*
X197310000Y-122750000D02*
X197310000Y-127870000D01*
X197310000Y-122750000D02*
X196996000Y-122750000D01*
X195004000Y-127870000D02*
X194690000Y-127870000D01*
X194690000Y-122750000D02*
X194690000Y-127870000D01*
%TO.C,C37*%
X191840000Y-134094000D02*
X191840000Y-134408000D01*
X196960000Y-131788000D02*
X196960000Y-132102000D01*
X191840000Y-131788000D02*
X196960000Y-131788000D01*
X191840000Y-131788000D02*
X191840000Y-132102000D01*
X196960000Y-134094000D02*
X196960000Y-134408000D01*
X191840000Y-134408000D02*
X196960000Y-134408000D01*
%TO.C,C38*%
X195476000Y-135832000D02*
X195162000Y-135832000D01*
X197782000Y-140952000D02*
X197468000Y-140952000D01*
X197782000Y-135832000D02*
X197782000Y-140952000D01*
X197782000Y-135832000D02*
X197468000Y-135832000D01*
X195476000Y-140952000D02*
X195162000Y-140952000D01*
X195162000Y-135832000D02*
X195162000Y-140952000D01*
%TO.C,C39*%
X191920000Y-135832000D02*
X191606000Y-135832000D01*
X194226000Y-140952000D02*
X193912000Y-140952000D01*
X194226000Y-135832000D02*
X194226000Y-140952000D01*
X194226000Y-135832000D02*
X193912000Y-135832000D01*
X191920000Y-140952000D02*
X191606000Y-140952000D01*
X191606000Y-135832000D02*
X191606000Y-140952000D01*
%TO.C,C40*%
X214670000Y-140224000D02*
X214670000Y-139910000D01*
X209550000Y-142530000D02*
X209550000Y-142216000D01*
X214670000Y-142530000D02*
X209550000Y-142530000D01*
X214670000Y-142530000D02*
X214670000Y-142216000D01*
X209550000Y-140224000D02*
X209550000Y-139910000D01*
X214670000Y-139910000D02*
X209550000Y-139910000D01*
%TO.C,C41*%
X215156000Y-135440000D02*
X215470000Y-135440000D01*
X212850000Y-130320000D02*
X213164000Y-130320000D01*
X212850000Y-135440000D02*
X212850000Y-130320000D01*
X212850000Y-135440000D02*
X213164000Y-135440000D01*
X215156000Y-130320000D02*
X215470000Y-130320000D01*
X215470000Y-135440000D02*
X215470000Y-130320000D01*
%TO.C,C42*%
X215266000Y-127970000D02*
X215580000Y-127970000D01*
X212960000Y-122850000D02*
X213274000Y-122850000D01*
X212960000Y-127970000D02*
X212960000Y-122850000D01*
X212960000Y-127970000D02*
X213274000Y-127970000D01*
X215266000Y-122850000D02*
X215580000Y-122850000D01*
X215580000Y-127970000D02*
X215580000Y-122850000D01*
%TO.C,L2*%
X145695910Y-100845258D02*
G75*
G03*
X145695910Y-100845258I-3758100J0D01*
G01*
X148377811Y-100845258D02*
G75*
G03*
X148377811Y-100845258I-6440001J0D01*
G01*
%TO.C,L3*%
X129748100Y-106200254D02*
G75*
G03*
X129748100Y-106200254I-3758100J0D01*
G01*
X132430000Y-106200254D02*
G75*
G03*
X132430000Y-106200254I-6440000J0D01*
G01*
%TO.C,J1*%
X132588000Y-113090000D02*
X131258000Y-113090000D01*
X133858000Y-113090000D02*
X141538000Y-113090000D01*
X131258000Y-113090000D02*
X131258000Y-111760000D01*
X141538000Y-113090000D02*
X141538000Y-110430000D01*
X133858000Y-113090000D02*
X133858000Y-110430000D01*
X133858000Y-110430000D02*
X141538000Y-110430000D01*
%TO.C,J2*%
X133858000Y-90110000D02*
X141538000Y-90110000D01*
X133858000Y-92770000D02*
X141538000Y-92770000D01*
X132588000Y-92770000D02*
X131258000Y-92770000D01*
X131258000Y-92770000D02*
X131258000Y-91440000D01*
X141538000Y-92770000D02*
X141538000Y-90110000D01*
X133858000Y-92770000D02*
X133858000Y-90110000D01*
%TO.C,J3*%
X168910000Y-90110000D02*
X176590000Y-90110000D01*
X168910000Y-92770000D02*
X176590000Y-92770000D01*
X176590000Y-92770000D02*
X176590000Y-90110000D01*
X168910000Y-92770000D02*
X168910000Y-90110000D01*
X166310000Y-92770000D02*
X166310000Y-91440000D01*
X167640000Y-92770000D02*
X166310000Y-92770000D01*
%TO.C,J4*%
X166310000Y-113090000D02*
X166310000Y-111760000D01*
X167640000Y-113090000D02*
X166310000Y-113090000D01*
X176590000Y-113090000D02*
X176590000Y-110430000D01*
X168910000Y-110430000D02*
X176590000Y-110430000D01*
X168910000Y-113090000D02*
X176590000Y-113090000D01*
X168910000Y-113090000D02*
X168910000Y-110430000D01*
%TO.C,L1*%
X183641811Y-101019258D02*
G75*
G03*
X183641811Y-101019258I-6440001J0D01*
G01*
X180959910Y-101019258D02*
G75*
G03*
X180959910Y-101019258I-3758100J0D01*
G01*
%TO.C,L4*%
X165388100Y-106310254D02*
G75*
G03*
X165388100Y-106310254I-3758100J0D01*
G01*
X168070000Y-106310254D02*
G75*
G03*
X168070000Y-106310254I-6440000J0D01*
G01*
%TO.C,J5*%
X133350000Y-121980000D02*
X132020000Y-121980000D01*
X134620000Y-121980000D02*
X142300000Y-121980000D01*
X132020000Y-121980000D02*
X132020000Y-120650000D01*
X142300000Y-121980000D02*
X142300000Y-119320000D01*
X134620000Y-121980000D02*
X134620000Y-119320000D01*
X134620000Y-119320000D02*
X142300000Y-119320000D01*
%TO.C,J6*%
X134620000Y-142300000D02*
X134620000Y-139640000D01*
X134620000Y-139640000D02*
X142300000Y-139640000D01*
X133350000Y-142300000D02*
X132020000Y-142300000D01*
X142300000Y-142300000D02*
X142300000Y-139640000D01*
X132020000Y-142300000D02*
X132020000Y-140970000D01*
X134620000Y-142300000D02*
X142300000Y-142300000D01*
%TO.C,L5*%
X146519910Y-129289258D02*
G75*
G03*
X146519910Y-129289258I-3758100J0D01*
G01*
X149201811Y-129289258D02*
G75*
G03*
X149201811Y-129289258I-6440001J0D01*
G01*
%TO.C,L6*%
X130848100Y-135040254D02*
G75*
G03*
X130848100Y-135040254I-3758100J0D01*
G01*
X133530000Y-135040254D02*
G75*
G03*
X133530000Y-135040254I-6440000J0D01*
G01*
%TO.C,J7*%
X167640000Y-121980000D02*
X166310000Y-121980000D01*
X168910000Y-121980000D02*
X168910000Y-119320000D01*
X168910000Y-121980000D02*
X176590000Y-121980000D01*
X166310000Y-121980000D02*
X166310000Y-120650000D01*
X176590000Y-121980000D02*
X176590000Y-119320000D01*
X168910000Y-119320000D02*
X176590000Y-119320000D01*
%TO.C,J8*%
X168910000Y-139640000D02*
X176590000Y-139640000D01*
X168910000Y-142300000D02*
X176590000Y-142300000D01*
X166310000Y-142300000D02*
X166310000Y-140970000D01*
X176590000Y-142300000D02*
X176590000Y-139640000D01*
X168910000Y-142300000D02*
X168910000Y-139640000D01*
X167640000Y-142300000D02*
X166310000Y-142300000D01*
%TO.C,L7*%
X182109910Y-130419258D02*
G75*
G03*
X182109910Y-130419258I-3758100J0D01*
G01*
X184791811Y-130419258D02*
G75*
G03*
X184791811Y-130419258I-6440001J0D01*
G01*
%TO.C,L8*%
X170590000Y-130870254D02*
G75*
G03*
X170590000Y-130870254I-6440000J0D01*
G01*
X167908100Y-130870254D02*
G75*
G03*
X167908100Y-130870254I-3758100J0D01*
G01*
%TO.C,J9*%
X199390000Y-64830000D02*
X198060000Y-64830000D01*
X208340000Y-64830000D02*
X208340000Y-62170000D01*
X198060000Y-64830000D02*
X198060000Y-63500000D01*
X200660000Y-62170000D02*
X208340000Y-62170000D01*
X200660000Y-64830000D02*
X208340000Y-64830000D01*
X200660000Y-64830000D02*
X200660000Y-62170000D01*
%TO.C,J10*%
X200660000Y-82490000D02*
X208340000Y-82490000D01*
X198060000Y-85150000D02*
X198060000Y-83820000D01*
X208340000Y-85150000D02*
X208340000Y-82490000D01*
X200660000Y-85150000D02*
X208340000Y-85150000D01*
X199390000Y-85150000D02*
X198060000Y-85150000D01*
X200660000Y-85150000D02*
X200660000Y-82490000D01*
%TO.C,L9*%
X212469910Y-73009258D02*
G75*
G03*
X212469910Y-73009258I-3758100J0D01*
G01*
X215151811Y-73009258D02*
G75*
G03*
X215151811Y-73009258I-6440001J0D01*
G01*
%TO.C,L10*%
X201750000Y-74600000D02*
G75*
G03*
X201750000Y-74600000I-6440000J0D01*
G01*
X199068100Y-74600000D02*
G75*
G03*
X199068100Y-74600000I-3758100J0D01*
G01*
%TO.C,L11*%
X187529168Y-67978932D02*
G75*
G03*
X187529168Y-67978932I-3758100J0D01*
G01*
X190211067Y-67978932D02*
G75*
G03*
X190211067Y-67978932I-6439999J0D01*
G01*
%TO.C,J11*%
X194500000Y-117350000D02*
X191840000Y-117350000D01*
X194500000Y-119950000D02*
X193170000Y-119950000D01*
X194500000Y-109670000D02*
X191840000Y-109670000D01*
X194500000Y-117350000D02*
X194500000Y-109670000D01*
X194500000Y-118620000D02*
X194500000Y-119950000D01*
X191840000Y-117350000D02*
X191840000Y-109670000D01*
%TO.C,J12*%
X214820000Y-117350000D02*
X214820000Y-109670000D01*
X214820000Y-117350000D02*
X212160000Y-117350000D01*
X212160000Y-117350000D02*
X212160000Y-109670000D01*
X214820000Y-109670000D02*
X212160000Y-109670000D01*
X214820000Y-119950000D02*
X213490000Y-119950000D01*
X214820000Y-118620000D02*
X214820000Y-119950000D01*
%TO.C,L12*%
X209208100Y-107125000D02*
G75*
G03*
X209208100Y-107125000I-3758100J0D01*
G01*
X211890000Y-107125000D02*
G75*
G03*
X211890000Y-107125000I-6440000J0D01*
G01*
%TO.C,L13*%
X211550254Y-134575000D02*
G75*
G03*
X211550254Y-134575000I-6440000J0D01*
G01*
X208868354Y-134575000D02*
G75*
G03*
X208868354Y-134575000I-3758100J0D01*
G01*
%TO.C,L14*%
X211104746Y-121100000D02*
G75*
G03*
X211104746Y-121100000I-6440000J0D01*
G01*
X208422846Y-121100000D02*
G75*
G03*
X208422846Y-121100000I-3758100J0D01*
G01*
%TO.C,J14*%
X133330000Y-78330000D02*
X132000000Y-78330000D01*
X133330000Y-77000000D02*
X133330000Y-78330000D01*
X133330000Y-75730000D02*
X133330000Y-68050000D01*
X130670000Y-75730000D02*
X130670000Y-68050000D01*
X133330000Y-75730000D02*
X130670000Y-75730000D01*
X133330000Y-68050000D02*
X130670000Y-68050000D01*
%TO.C,J15*%
X153330000Y-75730000D02*
X153330000Y-68050000D01*
X153330000Y-68050000D02*
X150670000Y-68050000D01*
X153330000Y-77000000D02*
X153330000Y-78330000D01*
X153330000Y-75730000D02*
X150670000Y-75730000D01*
X150670000Y-75730000D02*
X150670000Y-68050000D01*
X153330000Y-78330000D02*
X152000000Y-78330000D01*
%TD*%
M02*
