G04 #@! TF.FileFunction,Soldermask,Top*
%FSLAX46Y46*%
G04 Gerber Fmt 4.6, Leading zero omitted, Abs format (unit mm)*
G04 Created by KiCad (PCBNEW 4.0.7) date 01/18/23 11:50:24*
%MOMM*%
%LPD*%
G01*
G04 APERTURE LIST*
%ADD10C,0.100000*%
%ADD11C,2.800000*%
%ADD12C,2.000000*%
%ADD13R,2.100000X2.100000*%
%ADD14O,2.100000X2.100000*%
%ADD15R,5.480000X2.900000*%
%ADD16R,5.480000X1.900000*%
%ADD17R,2.900000X5.480000*%
%ADD18R,1.900000X5.480000*%
G04 APERTURE END LIST*
D10*
D11*
X165360000Y-99849705D03*
X157977583Y-112896425D03*
X129720000Y-99739705D03*
X122337583Y-112786425D03*
D12*
X147940000Y-90330000D03*
X147940000Y-95330000D03*
X129400000Y-91360000D03*
X124400000Y-91360000D03*
X129420000Y-94720000D03*
X124420000Y-94720000D03*
X121580000Y-90450000D03*
X121580000Y-95450000D03*
X126200000Y-98180000D03*
X121200000Y-98180000D03*
X147701000Y-107442000D03*
X147701000Y-112442000D03*
D11*
X143868600Y-93639452D03*
X140114472Y-108152326D03*
D13*
X132588000Y-111760000D03*
D14*
X135128000Y-111760000D03*
X137668000Y-111760000D03*
X140208000Y-111760000D03*
D13*
X132588000Y-91440000D03*
D14*
X135128000Y-91440000D03*
X137668000Y-91440000D03*
X140208000Y-91440000D03*
D12*
X133096000Y-101854000D03*
X134806101Y-106552463D03*
X183760000Y-95950000D03*
X183760000Y-90950000D03*
X164610000Y-90730000D03*
X159610000Y-90730000D03*
X164630000Y-93950000D03*
X159630000Y-93950000D03*
X156770000Y-90250000D03*
X156770000Y-95250000D03*
X168370000Y-101390000D03*
X170080101Y-106088463D03*
X161300000Y-98100000D03*
X156300000Y-98100000D03*
X183850000Y-107460000D03*
X183850000Y-112460000D03*
D13*
X167640000Y-91440000D03*
D14*
X170180000Y-91440000D03*
X172720000Y-91440000D03*
X175260000Y-91440000D03*
D13*
X167640000Y-111760000D03*
D14*
X170180000Y-111760000D03*
X172720000Y-111760000D03*
X175260000Y-111760000D03*
D11*
X179132600Y-93813452D03*
X175378472Y-108326326D03*
D12*
X149420000Y-119970000D03*
X149420000Y-124970000D03*
X129920000Y-120090000D03*
X124920000Y-120090000D03*
X129890000Y-123440000D03*
X124890000Y-123440000D03*
X122150000Y-119580000D03*
X122150000Y-124580000D03*
X134530000Y-131790000D03*
X136240101Y-136488463D03*
X126650000Y-126960000D03*
X121650000Y-126960000D03*
X149420000Y-136510000D03*
X149420000Y-141510000D03*
D13*
X133350000Y-120650000D03*
D14*
X135890000Y-120650000D03*
X138430000Y-120650000D03*
X140970000Y-120650000D03*
D13*
X133350000Y-140970000D03*
D14*
X135890000Y-140970000D03*
X138430000Y-140970000D03*
X140970000Y-140970000D03*
D11*
X144692600Y-122083452D03*
X140938472Y-136596326D03*
X130820000Y-128579705D03*
X123437583Y-141626425D03*
D12*
X183680000Y-119300000D03*
X183680000Y-124300000D03*
X183620000Y-136930000D03*
X179524240Y-139797882D03*
X158310000Y-119750000D03*
X163310000Y-119750000D03*
X163230000Y-123100000D03*
X158230000Y-123100000D03*
X158380000Y-140930000D03*
X163380000Y-140930000D03*
D13*
X167640000Y-120650000D03*
D14*
X170180000Y-120650000D03*
X172720000Y-120650000D03*
X175260000Y-120650000D03*
D13*
X167640000Y-140970000D03*
D14*
X170180000Y-140970000D03*
X172720000Y-140970000D03*
X175260000Y-140970000D03*
D11*
X180282600Y-123213452D03*
X176528472Y-137726326D03*
X167880000Y-124409705D03*
X160497583Y-137456425D03*
D12*
X214375000Y-62050000D03*
X214375000Y-67050000D03*
X215075000Y-79200000D03*
X210979240Y-82067882D03*
X203360000Y-67000000D03*
X198360000Y-67000000D03*
X186930000Y-76050000D03*
X186930000Y-81050000D03*
X192520000Y-83880000D03*
X187520000Y-83880000D03*
X183580000Y-82140000D03*
X183580000Y-77140000D03*
X180170000Y-77060000D03*
X180170000Y-82060000D03*
D13*
X199390000Y-63500000D03*
D14*
X201930000Y-63500000D03*
X204470000Y-63500000D03*
X207010000Y-63500000D03*
D13*
X199390000Y-83820000D03*
D14*
X201930000Y-83820000D03*
X204470000Y-83820000D03*
X207010000Y-83820000D03*
D11*
X210642600Y-65803452D03*
X206888472Y-80316326D03*
X195310000Y-67140000D03*
X195440000Y-82130000D03*
X178496051Y-73253949D03*
X189003658Y-62562494D03*
D12*
X196726000Y-101856000D03*
X193190466Y-105391534D03*
X192610000Y-122890000D03*
X192610000Y-127890000D03*
X196000000Y-122810000D03*
X196000000Y-127810000D03*
X191900000Y-133098000D03*
X196900000Y-133098000D03*
X196472000Y-135892000D03*
X196472000Y-140892000D03*
X192916000Y-135892000D03*
X192916000Y-140892000D03*
X214610000Y-141220000D03*
X209610000Y-141220000D03*
X214160000Y-135380000D03*
X214160000Y-130380000D03*
D13*
X193170000Y-118620000D03*
D14*
X193170000Y-116080000D03*
X193170000Y-113540000D03*
X193170000Y-111000000D03*
D13*
X213490000Y-118620000D03*
D14*
X213490000Y-116080000D03*
X213490000Y-113540000D03*
X213490000Y-111000000D03*
D11*
X197990000Y-107125000D03*
X212980000Y-106995000D03*
X198649705Y-130845000D03*
X211696425Y-138227417D03*
X211125295Y-124830000D03*
X198078575Y-117447583D03*
D12*
X214270000Y-127910000D03*
X214270000Y-122910000D03*
D15*
X122000000Y-68250000D03*
X122000000Y-75750000D03*
D16*
X122000000Y-72000000D03*
D13*
X132000000Y-77000000D03*
D14*
X132000000Y-74460000D03*
X132000000Y-71920000D03*
X132000000Y-69380000D03*
D13*
X152000000Y-77000000D03*
D14*
X152000000Y-74460000D03*
X152000000Y-71920000D03*
X152000000Y-69380000D03*
D17*
X164750000Y-63000000D03*
X157250000Y-63000000D03*
D18*
X161000000Y-63000000D03*
M02*
