%TF.GenerationSoftware,KiCad,Pcbnew,(6.0.11)*%
%TF.CreationDate,2023-03-05T01:45:00-06:00*%
%TF.ProjectId,BandPassFilter,42616e64-5061-4737-9346-696c7465722e,rev?*%
%TF.SameCoordinates,Original*%
%TF.FileFunction,Legend,Top*%
%TF.FilePolarity,Positive*%
%FSLAX46Y46*%
G04 Gerber Fmt 4.6, Leading zero omitted, Abs format (unit mm)*
G04 Created by KiCad (PCBNEW (6.0.11)) date 2023-03-05 01:45:00*
%MOMM*%
%LPD*%
G01*
G04 APERTURE LIST*
%ADD10C,5.000000*%
%ADD11C,3.500000*%
%ADD12C,0.200000*%
%ADD13C,4.000000*%
%ADD14C,0.150000*%
%ADD15C,0.125000*%
%ADD16C,0.120000*%
G04 APERTURE END LIST*
D10*
X179554500Y-110282000D02*
X179554500Y-111361500D01*
X145294500Y-139782000D02*
X145294500Y-140861500D01*
D11*
X213960000Y-84660000D02*
X211420000Y-84660000D01*
D12*
X149860000Y-88900000D02*
X149860000Y-114300000D01*
X215900000Y-60960000D02*
X215900000Y-86360000D01*
X216030000Y-142750000D02*
X190630000Y-142750000D01*
X170000000Y-60000000D02*
X170000000Y-85000000D01*
X151130000Y-118110000D02*
X151130000Y-143510000D01*
X151130000Y-143510000D02*
X120650000Y-143510000D01*
X119380000Y-88900000D02*
X149860000Y-88900000D01*
X170000000Y-85000000D02*
X119000000Y-85000000D01*
X176530000Y-62230000D02*
X176530000Y-60960000D01*
X190630000Y-142750000D02*
X190630000Y-100840000D01*
D13*
X197730000Y-110800000D02*
X197730000Y-113930000D01*
D12*
X185420000Y-142240000D02*
X185420000Y-143510000D01*
X176530000Y-60960000D02*
X176530000Y-62230000D01*
D11*
X172310000Y-137270000D02*
X169770000Y-137270000D01*
D12*
X157480000Y-143510000D02*
X157480000Y-142240000D01*
X176530000Y-86360000D02*
X176530000Y-60960000D01*
X216030000Y-100840000D02*
X216030000Y-142750000D01*
X119380000Y-114300000D02*
X119380000Y-88900000D01*
X154940000Y-114300000D02*
X154940000Y-88900000D01*
X176530000Y-60960000D02*
X215900000Y-60960000D01*
X120650000Y-143510000D02*
X120650000Y-118110000D01*
X185420000Y-118110000D02*
X185420000Y-142240000D01*
X185420000Y-143510000D02*
X157480000Y-143510000D01*
X157480000Y-118110000D02*
X185420000Y-118110000D01*
X119000000Y-60000000D02*
X170000000Y-60000000D01*
X157480000Y-142240000D02*
X157480000Y-118110000D01*
X154940000Y-88900000D02*
X185420000Y-88900000D01*
X120650000Y-118110000D02*
X151130000Y-118110000D01*
X190630000Y-100840000D02*
X216030000Y-100840000D01*
D10*
X143954500Y-109982000D02*
X143954500Y-111061500D01*
D12*
X185420000Y-88900000D02*
X185420000Y-114300000D01*
X185420000Y-114300000D02*
X154940000Y-114300000D01*
X215900000Y-86360000D02*
X176530000Y-86360000D01*
X119000000Y-85000000D02*
X119000000Y-60000000D01*
X149860000Y-114300000D02*
X119380000Y-114300000D01*
D14*
X129120000Y-141972380D02*
X129310476Y-141972380D01*
X129405714Y-142020000D01*
X129500952Y-142115238D01*
X129548571Y-142305714D01*
X129548571Y-142639047D01*
X129500952Y-142829523D01*
X129405714Y-142924761D01*
X129310476Y-142972380D01*
X129120000Y-142972380D01*
X129024761Y-142924761D01*
X128929523Y-142829523D01*
X128881904Y-142639047D01*
X128881904Y-142305714D01*
X128929523Y-142115238D01*
X129024761Y-142020000D01*
X129120000Y-141972380D01*
X129977142Y-141972380D02*
X129977142Y-142781904D01*
X130024761Y-142877142D01*
X130072380Y-142924761D01*
X130167619Y-142972380D01*
X130358095Y-142972380D01*
X130453333Y-142924761D01*
X130500952Y-142877142D01*
X130548571Y-142781904D01*
X130548571Y-141972380D01*
X130881904Y-141972380D02*
X131453333Y-141972380D01*
X131167619Y-142972380D02*
X131167619Y-141972380D01*
X161377333Y-106624380D02*
X160901142Y-106624380D01*
X160901142Y-105624380D01*
X161615428Y-105624380D02*
X162234476Y-105624380D01*
X161901142Y-106005333D01*
X162044000Y-106005333D01*
X162139238Y-106052952D01*
X162186857Y-106100571D01*
X162234476Y-106195809D01*
X162234476Y-106433904D01*
X162186857Y-106529142D01*
X162139238Y-106576761D01*
X162044000Y-106624380D01*
X161758285Y-106624380D01*
X161663047Y-106576761D01*
X161615428Y-106529142D01*
X183633333Y-68572380D02*
X183157142Y-68572380D01*
X183157142Y-67572380D01*
X183871428Y-67572380D02*
X184490476Y-67572380D01*
X184157142Y-67953333D01*
X184300000Y-67953333D01*
X184395238Y-68000952D01*
X184442857Y-68048571D01*
X184490476Y-68143809D01*
X184490476Y-68381904D01*
X184442857Y-68477142D01*
X184395238Y-68524761D01*
X184300000Y-68572380D01*
X184014285Y-68572380D01*
X183919047Y-68524761D01*
X183871428Y-68477142D01*
X157075142Y-92876666D02*
X157122761Y-92924285D01*
X157170380Y-93067142D01*
X157170380Y-93162380D01*
X157122761Y-93305238D01*
X157027523Y-93400476D01*
X156932285Y-93448095D01*
X156741809Y-93495714D01*
X156598952Y-93495714D01*
X156408476Y-93448095D01*
X156313238Y-93400476D01*
X156218000Y-93305238D01*
X156170380Y-93162380D01*
X156170380Y-93067142D01*
X156218000Y-92924285D01*
X156265619Y-92876666D01*
X156503714Y-92019523D02*
X157170380Y-92019523D01*
X156122761Y-92257619D02*
X156837047Y-92495714D01*
X156837047Y-91876666D01*
X130976190Y-67452380D02*
X130976190Y-66452380D01*
X131452380Y-67452380D02*
X131452380Y-66452380D01*
X132023809Y-67452380D01*
X132023809Y-66452380D01*
X132500000Y-67452380D02*
X132500000Y-66452380D01*
X132880952Y-66452380D01*
X132976190Y-66500000D01*
X133023809Y-66547619D01*
X133071428Y-66642857D01*
X133071428Y-66785714D01*
X133023809Y-66880952D01*
X132976190Y-66928571D01*
X132880952Y-66976190D01*
X132500000Y-66976190D01*
X184027142Y-121826666D02*
X184074761Y-121874285D01*
X184122380Y-122017142D01*
X184122380Y-122112380D01*
X184074761Y-122255238D01*
X183979523Y-122350476D01*
X183884285Y-122398095D01*
X183693809Y-122445714D01*
X183550952Y-122445714D01*
X183360476Y-122398095D01*
X183265238Y-122350476D01*
X183170000Y-122255238D01*
X183122380Y-122112380D01*
X183122380Y-122017142D01*
X183170000Y-121874285D01*
X183217619Y-121826666D01*
X184122380Y-120874285D02*
X184122380Y-121445714D01*
X184122380Y-121160000D02*
X183122380Y-121160000D01*
X183265238Y-121255238D01*
X183360476Y-121350476D01*
X183408095Y-121445714D01*
X125643333Y-106792380D02*
X125167142Y-106792380D01*
X125167142Y-105792380D01*
X125881428Y-105792380D02*
X126500476Y-105792380D01*
X126167142Y-106173333D01*
X126310000Y-106173333D01*
X126405238Y-106220952D01*
X126452857Y-106268571D01*
X126500476Y-106363809D01*
X126500476Y-106601904D01*
X126452857Y-106697142D01*
X126405238Y-106744761D01*
X126310000Y-106792380D01*
X126024285Y-106792380D01*
X125929047Y-106744761D01*
X125881428Y-106697142D01*
X142443333Y-129952380D02*
X141967142Y-129952380D01*
X141967142Y-128952380D01*
X142729047Y-129047619D02*
X142776666Y-129000000D01*
X142871904Y-128952380D01*
X143110000Y-128952380D01*
X143205238Y-129000000D01*
X143252857Y-129047619D01*
X143300476Y-129142857D01*
X143300476Y-129238095D01*
X143252857Y-129380952D01*
X142681428Y-129952380D01*
X143300476Y-129952380D01*
X193227142Y-138566666D02*
X193274761Y-138614285D01*
X193322380Y-138757142D01*
X193322380Y-138852380D01*
X193274761Y-138995238D01*
X193179523Y-139090476D01*
X193084285Y-139138095D01*
X192893809Y-139185714D01*
X192750952Y-139185714D01*
X192560476Y-139138095D01*
X192465238Y-139090476D01*
X192370000Y-138995238D01*
X192322380Y-138852380D01*
X192322380Y-138757142D01*
X192370000Y-138614285D01*
X192417619Y-138566666D01*
X192322380Y-137661904D02*
X192322380Y-138138095D01*
X192798571Y-138185714D01*
X192750952Y-138138095D01*
X192703333Y-138042857D01*
X192703333Y-137804761D01*
X192750952Y-137709523D01*
X192798571Y-137661904D01*
X192893809Y-137614285D01*
X193131904Y-137614285D01*
X193227142Y-137661904D01*
X193274761Y-137709523D01*
X193322380Y-137804761D01*
X193322380Y-138042857D01*
X193274761Y-138138095D01*
X193227142Y-138185714D01*
X132059047Y-94038571D02*
X132201904Y-94086190D01*
X132249523Y-94133809D01*
X132297142Y-94229047D01*
X132297142Y-94371904D01*
X132249523Y-94467142D01*
X132201904Y-94514761D01*
X132106666Y-94562380D01*
X131725714Y-94562380D01*
X131725714Y-93562380D01*
X132059047Y-93562380D01*
X132154285Y-93610000D01*
X132201904Y-93657619D01*
X132249523Y-93752857D01*
X132249523Y-93848095D01*
X132201904Y-93943333D01*
X132154285Y-93990952D01*
X132059047Y-94038571D01*
X131725714Y-94038571D01*
X132678095Y-94276666D02*
X133154285Y-94276666D01*
X132582857Y-94562380D02*
X132916190Y-93562380D01*
X133249523Y-94562380D01*
X133582857Y-94562380D02*
X133582857Y-93562380D01*
X134154285Y-94562380D01*
X134154285Y-93562380D01*
X134630476Y-94562380D02*
X134630476Y-93562380D01*
X134868571Y-93562380D01*
X135011428Y-93610000D01*
X135106666Y-93705238D01*
X135154285Y-93800476D01*
X135201904Y-93990952D01*
X135201904Y-94133809D01*
X135154285Y-94324285D01*
X135106666Y-94419523D01*
X135011428Y-94514761D01*
X134868571Y-94562380D01*
X134630476Y-94562380D01*
X131797142Y-96172380D02*
X131797142Y-95172380D01*
X132178095Y-95172380D01*
X132273333Y-95220000D01*
X132320952Y-95267619D01*
X132368571Y-95362857D01*
X132368571Y-95505714D01*
X132320952Y-95600952D01*
X132273333Y-95648571D01*
X132178095Y-95696190D01*
X131797142Y-95696190D01*
X132749523Y-95886666D02*
X133225714Y-95886666D01*
X132654285Y-96172380D02*
X132987619Y-95172380D01*
X133320952Y-96172380D01*
X133606666Y-96124761D02*
X133749523Y-96172380D01*
X133987619Y-96172380D01*
X134082857Y-96124761D01*
X134130476Y-96077142D01*
X134178095Y-95981904D01*
X134178095Y-95886666D01*
X134130476Y-95791428D01*
X134082857Y-95743809D01*
X133987619Y-95696190D01*
X133797142Y-95648571D01*
X133701904Y-95600952D01*
X133654285Y-95553333D01*
X133606666Y-95458095D01*
X133606666Y-95362857D01*
X133654285Y-95267619D01*
X133701904Y-95220000D01*
X133797142Y-95172380D01*
X134035238Y-95172380D01*
X134178095Y-95220000D01*
X134559047Y-96124761D02*
X134701904Y-96172380D01*
X134940000Y-96172380D01*
X135035238Y-96124761D01*
X135082857Y-96077142D01*
X135130476Y-95981904D01*
X135130476Y-95886666D01*
X135082857Y-95791428D01*
X135035238Y-95743809D01*
X134940000Y-95696190D01*
X134749523Y-95648571D01*
X134654285Y-95600952D01*
X134606666Y-95553333D01*
X134559047Y-95458095D01*
X134559047Y-95362857D01*
X134606666Y-95267619D01*
X134654285Y-95220000D01*
X134749523Y-95172380D01*
X134987619Y-95172380D01*
X135130476Y-95220000D01*
X131606666Y-97258571D02*
X131273333Y-97258571D01*
X131273333Y-97782380D02*
X131273333Y-96782380D01*
X131749523Y-96782380D01*
X132130476Y-97782380D02*
X132130476Y-96782380D01*
X133082857Y-97782380D02*
X132606666Y-97782380D01*
X132606666Y-96782380D01*
X133273333Y-96782380D02*
X133844761Y-96782380D01*
X133559047Y-97782380D02*
X133559047Y-96782380D01*
X134178095Y-97258571D02*
X134511428Y-97258571D01*
X134654285Y-97782380D02*
X134178095Y-97782380D01*
X134178095Y-96782380D01*
X134654285Y-96782380D01*
X135654285Y-97782380D02*
X135320952Y-97306190D01*
X135082857Y-97782380D02*
X135082857Y-96782380D01*
X135463809Y-96782380D01*
X135559047Y-96830000D01*
X135606666Y-96877619D01*
X135654285Y-96972857D01*
X135654285Y-97115714D01*
X135606666Y-97210952D01*
X135559047Y-97258571D01*
X135463809Y-97306190D01*
X135082857Y-97306190D01*
X141713333Y-101452380D02*
X141237142Y-101452380D01*
X141237142Y-100452380D01*
X141999047Y-100547619D02*
X142046666Y-100500000D01*
X142141904Y-100452380D01*
X142380000Y-100452380D01*
X142475238Y-100500000D01*
X142522857Y-100547619D01*
X142570476Y-100642857D01*
X142570476Y-100738095D01*
X142522857Y-100880952D01*
X141951428Y-101452380D01*
X142570476Y-101452380D01*
X214567142Y-133076666D02*
X214614761Y-133124285D01*
X214662380Y-133267142D01*
X214662380Y-133362380D01*
X214614761Y-133505238D01*
X214519523Y-133600476D01*
X214424285Y-133648095D01*
X214233809Y-133695714D01*
X214090952Y-133695714D01*
X213900476Y-133648095D01*
X213805238Y-133600476D01*
X213710000Y-133505238D01*
X213662380Y-133362380D01*
X213662380Y-133267142D01*
X213710000Y-133124285D01*
X213757619Y-133076666D01*
X214090952Y-132505238D02*
X214043333Y-132600476D01*
X213995714Y-132648095D01*
X213900476Y-132695714D01*
X213852857Y-132695714D01*
X213757619Y-132648095D01*
X213710000Y-132600476D01*
X213662380Y-132505238D01*
X213662380Y-132314761D01*
X213710000Y-132219523D01*
X213757619Y-132171904D01*
X213852857Y-132124285D01*
X213900476Y-132124285D01*
X213995714Y-132171904D01*
X214043333Y-132219523D01*
X214090952Y-132314761D01*
X214090952Y-132505238D01*
X214138571Y-132600476D01*
X214186190Y-132648095D01*
X214281428Y-132695714D01*
X214471904Y-132695714D01*
X214567142Y-132648095D01*
X214614761Y-132600476D01*
X214662380Y-132505238D01*
X214662380Y-132314761D01*
X214614761Y-132219523D01*
X214567142Y-132171904D01*
X214471904Y-132124285D01*
X214281428Y-132124285D01*
X214186190Y-132171904D01*
X214138571Y-132219523D01*
X214090952Y-132314761D01*
X214700000Y-121567619D02*
X214509523Y-121567619D01*
X214414285Y-121520000D01*
X214319047Y-121424761D01*
X214271428Y-121234285D01*
X214271428Y-120900952D01*
X214319047Y-120710476D01*
X214414285Y-120615238D01*
X214509523Y-120567619D01*
X214700000Y-120567619D01*
X214795238Y-120615238D01*
X214890476Y-120710476D01*
X214938095Y-120900952D01*
X214938095Y-121234285D01*
X214890476Y-121424761D01*
X214795238Y-121520000D01*
X214700000Y-121567619D01*
X213842857Y-121567619D02*
X213842857Y-120758095D01*
X213795238Y-120662857D01*
X213747619Y-120615238D01*
X213652380Y-120567619D01*
X213461904Y-120567619D01*
X213366666Y-120615238D01*
X213319047Y-120662857D01*
X213271428Y-120758095D01*
X213271428Y-121567619D01*
X212938095Y-121567619D02*
X212366666Y-121567619D01*
X212652380Y-120567619D02*
X212652380Y-121567619D01*
X205282380Y-120826666D02*
X205282380Y-121302857D01*
X204282380Y-121302857D01*
X204615714Y-120064761D02*
X205282380Y-120064761D01*
X204234761Y-120302857D02*
X204949047Y-120540952D01*
X204949047Y-119921904D01*
X177292380Y-141710000D02*
X177292380Y-141519523D01*
X177340000Y-141424285D01*
X177435238Y-141329047D01*
X177625714Y-141281428D01*
X177959047Y-141281428D01*
X178149523Y-141329047D01*
X178244761Y-141424285D01*
X178292380Y-141519523D01*
X178292380Y-141710000D01*
X178244761Y-141805238D01*
X178149523Y-141900476D01*
X177959047Y-141948095D01*
X177625714Y-141948095D01*
X177435238Y-141900476D01*
X177340000Y-141805238D01*
X177292380Y-141710000D01*
X177292380Y-140852857D02*
X178101904Y-140852857D01*
X178197142Y-140805238D01*
X178244761Y-140757619D01*
X178292380Y-140662380D01*
X178292380Y-140471904D01*
X178244761Y-140376666D01*
X178197142Y-140329047D01*
X178101904Y-140281428D01*
X177292380Y-140281428D01*
X177292380Y-139948095D02*
X177292380Y-139376666D01*
X178292380Y-139662380D02*
X177292380Y-139662380D01*
X212306666Y-140702857D02*
X212354285Y-140655238D01*
X212497142Y-140607619D01*
X212592380Y-140607619D01*
X212735238Y-140655238D01*
X212830476Y-140750476D01*
X212878095Y-140845714D01*
X212925714Y-141036190D01*
X212925714Y-141179047D01*
X212878095Y-141369523D01*
X212830476Y-141464761D01*
X212735238Y-141560000D01*
X212592380Y-141607619D01*
X212497142Y-141607619D01*
X212354285Y-141560000D01*
X212306666Y-141512380D01*
X211449523Y-141607619D02*
X211640000Y-141607619D01*
X211735238Y-141560000D01*
X211782857Y-141512380D01*
X211878095Y-141369523D01*
X211925714Y-141179047D01*
X211925714Y-140798095D01*
X211878095Y-140702857D01*
X211830476Y-140655238D01*
X211735238Y-140607619D01*
X211544761Y-140607619D01*
X211449523Y-140655238D01*
X211401904Y-140702857D01*
X211354285Y-140798095D01*
X211354285Y-141036190D01*
X211401904Y-141131428D01*
X211449523Y-141179047D01*
X211544761Y-141226666D01*
X211735238Y-141226666D01*
X211830476Y-141179047D01*
X211878095Y-141131428D01*
X211925714Y-141036190D01*
X196857142Y-138626666D02*
X196904761Y-138674285D01*
X196952380Y-138817142D01*
X196952380Y-138912380D01*
X196904761Y-139055238D01*
X196809523Y-139150476D01*
X196714285Y-139198095D01*
X196523809Y-139245714D01*
X196380952Y-139245714D01*
X196190476Y-139198095D01*
X196095238Y-139150476D01*
X196000000Y-139055238D01*
X195952380Y-138912380D01*
X195952380Y-138817142D01*
X196000000Y-138674285D01*
X196047619Y-138626666D01*
X195952380Y-138293333D02*
X195952380Y-137626666D01*
X196952380Y-138055238D01*
X207943333Y-73912380D02*
X207467142Y-73912380D01*
X207467142Y-72912380D01*
X208800476Y-73912380D02*
X208229047Y-73912380D01*
X208514761Y-73912380D02*
X208514761Y-72912380D01*
X208419523Y-73055238D01*
X208324285Y-73150476D01*
X208229047Y-73198095D01*
X210002380Y-63798809D02*
X209002380Y-63798809D01*
X210002380Y-63322619D02*
X209002380Y-63322619D01*
X210002380Y-62751190D01*
X209002380Y-62751190D01*
X210002380Y-62275000D02*
X209002380Y-62275000D01*
X209002380Y-61894047D01*
X209050000Y-61798809D01*
X209097619Y-61751190D01*
X209192857Y-61703571D01*
X209335714Y-61703571D01*
X209430952Y-61751190D01*
X209478571Y-61798809D01*
X209526190Y-61894047D01*
X209526190Y-62275000D01*
X126863333Y-135672380D02*
X126387142Y-135672380D01*
X126387142Y-134672380D01*
X127101428Y-134672380D02*
X127720476Y-134672380D01*
X127387142Y-135053333D01*
X127530000Y-135053333D01*
X127625238Y-135100952D01*
X127672857Y-135148571D01*
X127720476Y-135243809D01*
X127720476Y-135481904D01*
X127672857Y-135577142D01*
X127625238Y-135624761D01*
X127530000Y-135672380D01*
X127244285Y-135672380D01*
X127149047Y-135624761D01*
X127101428Y-135577142D01*
X132699047Y-123208571D02*
X132841904Y-123256190D01*
X132889523Y-123303809D01*
X132937142Y-123399047D01*
X132937142Y-123541904D01*
X132889523Y-123637142D01*
X132841904Y-123684761D01*
X132746666Y-123732380D01*
X132365714Y-123732380D01*
X132365714Y-122732380D01*
X132699047Y-122732380D01*
X132794285Y-122780000D01*
X132841904Y-122827619D01*
X132889523Y-122922857D01*
X132889523Y-123018095D01*
X132841904Y-123113333D01*
X132794285Y-123160952D01*
X132699047Y-123208571D01*
X132365714Y-123208571D01*
X133318095Y-123446666D02*
X133794285Y-123446666D01*
X133222857Y-123732380D02*
X133556190Y-122732380D01*
X133889523Y-123732380D01*
X134222857Y-123732380D02*
X134222857Y-122732380D01*
X134794285Y-123732380D01*
X134794285Y-122732380D01*
X135270476Y-123732380D02*
X135270476Y-122732380D01*
X135508571Y-122732380D01*
X135651428Y-122780000D01*
X135746666Y-122875238D01*
X135794285Y-122970476D01*
X135841904Y-123160952D01*
X135841904Y-123303809D01*
X135794285Y-123494285D01*
X135746666Y-123589523D01*
X135651428Y-123684761D01*
X135508571Y-123732380D01*
X135270476Y-123732380D01*
X132437142Y-125342380D02*
X132437142Y-124342380D01*
X132818095Y-124342380D01*
X132913333Y-124390000D01*
X132960952Y-124437619D01*
X133008571Y-124532857D01*
X133008571Y-124675714D01*
X132960952Y-124770952D01*
X132913333Y-124818571D01*
X132818095Y-124866190D01*
X132437142Y-124866190D01*
X133389523Y-125056666D02*
X133865714Y-125056666D01*
X133294285Y-125342380D02*
X133627619Y-124342380D01*
X133960952Y-125342380D01*
X134246666Y-125294761D02*
X134389523Y-125342380D01*
X134627619Y-125342380D01*
X134722857Y-125294761D01*
X134770476Y-125247142D01*
X134818095Y-125151904D01*
X134818095Y-125056666D01*
X134770476Y-124961428D01*
X134722857Y-124913809D01*
X134627619Y-124866190D01*
X134437142Y-124818571D01*
X134341904Y-124770952D01*
X134294285Y-124723333D01*
X134246666Y-124628095D01*
X134246666Y-124532857D01*
X134294285Y-124437619D01*
X134341904Y-124390000D01*
X134437142Y-124342380D01*
X134675238Y-124342380D01*
X134818095Y-124390000D01*
X135199047Y-125294761D02*
X135341904Y-125342380D01*
X135580000Y-125342380D01*
X135675238Y-125294761D01*
X135722857Y-125247142D01*
X135770476Y-125151904D01*
X135770476Y-125056666D01*
X135722857Y-124961428D01*
X135675238Y-124913809D01*
X135580000Y-124866190D01*
X135389523Y-124818571D01*
X135294285Y-124770952D01*
X135246666Y-124723333D01*
X135199047Y-124628095D01*
X135199047Y-124532857D01*
X135246666Y-124437619D01*
X135294285Y-124390000D01*
X135389523Y-124342380D01*
X135627619Y-124342380D01*
X135770476Y-124390000D01*
X132246666Y-126428571D02*
X131913333Y-126428571D01*
X131913333Y-126952380D02*
X131913333Y-125952380D01*
X132389523Y-125952380D01*
X132770476Y-126952380D02*
X132770476Y-125952380D01*
X133722857Y-126952380D02*
X133246666Y-126952380D01*
X133246666Y-125952380D01*
X133913333Y-125952380D02*
X134484761Y-125952380D01*
X134199047Y-126952380D02*
X134199047Y-125952380D01*
X134818095Y-126428571D02*
X135151428Y-126428571D01*
X135294285Y-126952380D02*
X134818095Y-126952380D01*
X134818095Y-125952380D01*
X135294285Y-125952380D01*
X136294285Y-126952380D02*
X135960952Y-126476190D01*
X135722857Y-126952380D02*
X135722857Y-125952380D01*
X136103809Y-125952380D01*
X136199047Y-126000000D01*
X136246666Y-126047619D01*
X136294285Y-126142857D01*
X136294285Y-126285714D01*
X136246666Y-126380952D01*
X136199047Y-126428571D01*
X136103809Y-126476190D01*
X135722857Y-126476190D01*
X200633333Y-67257142D02*
X200585714Y-67304761D01*
X200442857Y-67352380D01*
X200347619Y-67352380D01*
X200204761Y-67304761D01*
X200109523Y-67209523D01*
X200061904Y-67114285D01*
X200014285Y-66923809D01*
X200014285Y-66780952D01*
X200061904Y-66590476D01*
X200109523Y-66495238D01*
X200204761Y-66400000D01*
X200347619Y-66352380D01*
X200442857Y-66352380D01*
X200585714Y-66400000D01*
X200633333Y-66447619D01*
X200966666Y-66352380D02*
X201585714Y-66352380D01*
X201252380Y-66733333D01*
X201395238Y-66733333D01*
X201490476Y-66780952D01*
X201538095Y-66828571D01*
X201585714Y-66923809D01*
X201585714Y-67161904D01*
X201538095Y-67257142D01*
X201490476Y-67304761D01*
X201395238Y-67352380D01*
X201109523Y-67352380D01*
X201014285Y-67304761D01*
X200966666Y-67257142D01*
X192977142Y-125546666D02*
X193024761Y-125594285D01*
X193072380Y-125737142D01*
X193072380Y-125832380D01*
X193024761Y-125975238D01*
X192929523Y-126070476D01*
X192834285Y-126118095D01*
X192643809Y-126165714D01*
X192500952Y-126165714D01*
X192310476Y-126118095D01*
X192215238Y-126070476D01*
X192120000Y-125975238D01*
X192072380Y-125832380D01*
X192072380Y-125737142D01*
X192120000Y-125594285D01*
X192167619Y-125546666D01*
X192167619Y-125165714D02*
X192120000Y-125118095D01*
X192072380Y-125022857D01*
X192072380Y-124784761D01*
X192120000Y-124689523D01*
X192167619Y-124641904D01*
X192262857Y-124594285D01*
X192358095Y-124594285D01*
X192500952Y-124641904D01*
X193072380Y-125213333D01*
X193072380Y-124594285D01*
X200011904Y-92293571D02*
X199678571Y-92293571D01*
X199678571Y-92817380D02*
X199678571Y-91817380D01*
X200154761Y-91817380D01*
X200535714Y-92817380D02*
X200535714Y-91817380D01*
X201488095Y-92817380D02*
X201011904Y-92817380D01*
X201011904Y-91817380D01*
X201678571Y-91817380D02*
X202250000Y-91817380D01*
X201964285Y-92817380D02*
X201964285Y-91817380D01*
X202583333Y-92293571D02*
X202916666Y-92293571D01*
X203059523Y-92817380D02*
X202583333Y-92817380D01*
X202583333Y-91817380D01*
X203059523Y-91817380D01*
X204059523Y-92817380D02*
X203726190Y-92341190D01*
X203488095Y-92817380D02*
X203488095Y-91817380D01*
X203869047Y-91817380D01*
X203964285Y-91865000D01*
X204011904Y-91912619D01*
X204059523Y-92007857D01*
X204059523Y-92150714D01*
X204011904Y-92245952D01*
X203964285Y-92293571D01*
X203869047Y-92341190D01*
X203488095Y-92341190D01*
X205107142Y-91817380D02*
X205678571Y-91817380D01*
X205392857Y-92817380D02*
X205392857Y-91817380D01*
X206011904Y-92293571D02*
X206345238Y-92293571D01*
X206488095Y-92817380D02*
X206011904Y-92817380D01*
X206011904Y-91817380D01*
X206488095Y-91817380D01*
X206869047Y-92769761D02*
X207011904Y-92817380D01*
X207250000Y-92817380D01*
X207345238Y-92769761D01*
X207392857Y-92722142D01*
X207440476Y-92626904D01*
X207440476Y-92531666D01*
X207392857Y-92436428D01*
X207345238Y-92388809D01*
X207250000Y-92341190D01*
X207059523Y-92293571D01*
X206964285Y-92245952D01*
X206916666Y-92198333D01*
X206869047Y-92103095D01*
X206869047Y-92007857D01*
X206916666Y-91912619D01*
X206964285Y-91865000D01*
X207059523Y-91817380D01*
X207297619Y-91817380D01*
X207440476Y-91865000D01*
X207726190Y-91817380D02*
X208297619Y-91817380D01*
X208011904Y-92817380D02*
X208011904Y-91817380D01*
X209726190Y-92293571D02*
X209869047Y-92341190D01*
X209916666Y-92388809D01*
X209964285Y-92484047D01*
X209964285Y-92626904D01*
X209916666Y-92722142D01*
X209869047Y-92769761D01*
X209773809Y-92817380D01*
X209392857Y-92817380D01*
X209392857Y-91817380D01*
X209726190Y-91817380D01*
X209821428Y-91865000D01*
X209869047Y-91912619D01*
X209916666Y-92007857D01*
X209916666Y-92103095D01*
X209869047Y-92198333D01*
X209821428Y-92245952D01*
X209726190Y-92293571D01*
X209392857Y-92293571D01*
X210583333Y-91817380D02*
X210773809Y-91817380D01*
X210869047Y-91865000D01*
X210964285Y-91960238D01*
X211011904Y-92150714D01*
X211011904Y-92484047D01*
X210964285Y-92674523D01*
X210869047Y-92769761D01*
X210773809Y-92817380D01*
X210583333Y-92817380D01*
X210488095Y-92769761D01*
X210392857Y-92674523D01*
X210345238Y-92484047D01*
X210345238Y-92150714D01*
X210392857Y-91960238D01*
X210488095Y-91865000D01*
X210583333Y-91817380D01*
X211392857Y-92531666D02*
X211869047Y-92531666D01*
X211297619Y-92817380D02*
X211630952Y-91817380D01*
X211964285Y-92817380D01*
X212869047Y-92817380D02*
X212535714Y-92341190D01*
X212297619Y-92817380D02*
X212297619Y-91817380D01*
X212678571Y-91817380D01*
X212773809Y-91865000D01*
X212821428Y-91912619D01*
X212869047Y-92007857D01*
X212869047Y-92150714D01*
X212821428Y-92245952D01*
X212773809Y-92293571D01*
X212678571Y-92341190D01*
X212297619Y-92341190D01*
X213297619Y-92817380D02*
X213297619Y-91817380D01*
X213535714Y-91817380D01*
X213678571Y-91865000D01*
X213773809Y-91960238D01*
X213821428Y-92055476D01*
X213869047Y-92245952D01*
X213869047Y-92388809D01*
X213821428Y-92579285D01*
X213773809Y-92674523D01*
X213678571Y-92769761D01*
X213535714Y-92817380D01*
X213297619Y-92817380D01*
X199464285Y-93903571D02*
X199607142Y-93951190D01*
X199654761Y-93998809D01*
X199702380Y-94094047D01*
X199702380Y-94236904D01*
X199654761Y-94332142D01*
X199607142Y-94379761D01*
X199511904Y-94427380D01*
X199130952Y-94427380D01*
X199130952Y-93427380D01*
X199464285Y-93427380D01*
X199559523Y-93475000D01*
X199607142Y-93522619D01*
X199654761Y-93617857D01*
X199654761Y-93713095D01*
X199607142Y-93808333D01*
X199559523Y-93855952D01*
X199464285Y-93903571D01*
X199130952Y-93903571D01*
X200321428Y-93951190D02*
X200321428Y-94427380D01*
X199988095Y-93427380D02*
X200321428Y-93951190D01*
X200654761Y-93427380D01*
X201750000Y-94427380D02*
X201750000Y-93427380D01*
X201988095Y-93427380D01*
X202130952Y-93475000D01*
X202226190Y-93570238D01*
X202273809Y-93665476D01*
X202321428Y-93855952D01*
X202321428Y-93998809D01*
X202273809Y-94189285D01*
X202226190Y-94284523D01*
X202130952Y-94379761D01*
X201988095Y-94427380D01*
X201750000Y-94427380D01*
X203226190Y-94427380D02*
X202750000Y-94427380D01*
X202750000Y-93427380D01*
X204321428Y-94427380D02*
X204321428Y-93427380D01*
X204654761Y-94141666D01*
X204988095Y-93427380D01*
X204988095Y-94427380D01*
X205416666Y-94141666D02*
X205892857Y-94141666D01*
X205321428Y-94427380D02*
X205654761Y-93427380D01*
X205988095Y-94427380D01*
X206892857Y-94427380D02*
X206559523Y-93951190D01*
X206321428Y-94427380D02*
X206321428Y-93427380D01*
X206702380Y-93427380D01*
X206797619Y-93475000D01*
X206845238Y-93522619D01*
X206892857Y-93617857D01*
X206892857Y-93760714D01*
X206845238Y-93855952D01*
X206797619Y-93903571D01*
X206702380Y-93951190D01*
X206321428Y-93951190D01*
X207321428Y-94427380D02*
X207321428Y-93427380D01*
X207892857Y-94427380D02*
X207464285Y-93855952D01*
X207892857Y-93427380D02*
X207321428Y-93998809D01*
X208273809Y-94379761D02*
X208416666Y-94427380D01*
X208654761Y-94427380D01*
X208750000Y-94379761D01*
X208797619Y-94332142D01*
X208845238Y-94236904D01*
X208845238Y-94141666D01*
X208797619Y-94046428D01*
X208750000Y-93998809D01*
X208654761Y-93951190D01*
X208464285Y-93903571D01*
X208369047Y-93855952D01*
X208321428Y-93808333D01*
X208273809Y-93713095D01*
X208273809Y-93617857D01*
X208321428Y-93522619D01*
X208369047Y-93475000D01*
X208464285Y-93427380D01*
X208702380Y-93427380D01*
X208845238Y-93475000D01*
X209321428Y-94379761D02*
X209321428Y-94427380D01*
X209273809Y-94522619D01*
X209226190Y-94570238D01*
X210511904Y-94427380D02*
X210511904Y-93427380D01*
X211083333Y-94427380D02*
X210654761Y-93855952D01*
X211083333Y-93427380D02*
X210511904Y-93998809D01*
X211416666Y-93427380D02*
X211654761Y-94427380D01*
X211845238Y-93713095D01*
X212035714Y-94427380D01*
X212273809Y-93427380D01*
X213083333Y-93760714D02*
X213083333Y-94427380D01*
X212845238Y-93379761D02*
X212607142Y-94094047D01*
X213226190Y-94094047D01*
X213464285Y-93427380D02*
X214035714Y-93427380D01*
X213750000Y-94427380D02*
X213750000Y-93427380D01*
X214369047Y-94427380D02*
X214369047Y-93427380D01*
X201916666Y-95942142D02*
X201869047Y-95989761D01*
X201726190Y-96037380D01*
X201630952Y-96037380D01*
X201488095Y-95989761D01*
X201392857Y-95894523D01*
X201345238Y-95799285D01*
X201297619Y-95608809D01*
X201297619Y-95465952D01*
X201345238Y-95275476D01*
X201392857Y-95180238D01*
X201488095Y-95085000D01*
X201630952Y-95037380D01*
X201726190Y-95037380D01*
X201869047Y-95085000D01*
X201916666Y-95132619D01*
X202916666Y-95942142D02*
X202869047Y-95989761D01*
X202726190Y-96037380D01*
X202630952Y-96037380D01*
X202488095Y-95989761D01*
X202392857Y-95894523D01*
X202345238Y-95799285D01*
X202297619Y-95608809D01*
X202297619Y-95465952D01*
X202345238Y-95275476D01*
X202392857Y-95180238D01*
X202488095Y-95085000D01*
X202630952Y-95037380D01*
X202726190Y-95037380D01*
X202869047Y-95085000D01*
X202916666Y-95132619D01*
X203345238Y-95656428D02*
X204107142Y-95656428D01*
X204916666Y-95513571D02*
X205059523Y-95561190D01*
X205107142Y-95608809D01*
X205154761Y-95704047D01*
X205154761Y-95846904D01*
X205107142Y-95942142D01*
X205059523Y-95989761D01*
X204964285Y-96037380D01*
X204583333Y-96037380D01*
X204583333Y-95037380D01*
X204916666Y-95037380D01*
X205011904Y-95085000D01*
X205059523Y-95132619D01*
X205107142Y-95227857D01*
X205107142Y-95323095D01*
X205059523Y-95418333D01*
X205011904Y-95465952D01*
X204916666Y-95513571D01*
X204583333Y-95513571D01*
X205773809Y-95561190D02*
X205773809Y-96037380D01*
X205440476Y-95037380D02*
X205773809Y-95561190D01*
X206107142Y-95037380D01*
X206440476Y-95656428D02*
X207202380Y-95656428D01*
X207630952Y-95989761D02*
X207773809Y-96037380D01*
X208011904Y-96037380D01*
X208107142Y-95989761D01*
X208154761Y-95942142D01*
X208202380Y-95846904D01*
X208202380Y-95751666D01*
X208154761Y-95656428D01*
X208107142Y-95608809D01*
X208011904Y-95561190D01*
X207821428Y-95513571D01*
X207726190Y-95465952D01*
X207678571Y-95418333D01*
X207630952Y-95323095D01*
X207630952Y-95227857D01*
X207678571Y-95132619D01*
X207726190Y-95085000D01*
X207821428Y-95037380D01*
X208059523Y-95037380D01*
X208202380Y-95085000D01*
X208583333Y-95751666D02*
X209059523Y-95751666D01*
X208488095Y-96037380D02*
X208821428Y-95037380D01*
X209154761Y-96037380D01*
X210678571Y-95370714D02*
X210678571Y-96037380D01*
X210440476Y-94989761D02*
X210202380Y-95704047D01*
X210821428Y-95704047D01*
X211202380Y-95942142D02*
X211250000Y-95989761D01*
X211202380Y-96037380D01*
X211154761Y-95989761D01*
X211202380Y-95942142D01*
X211202380Y-96037380D01*
X211869047Y-95037380D02*
X211964285Y-95037380D01*
X212059523Y-95085000D01*
X212107142Y-95132619D01*
X212154761Y-95227857D01*
X212202380Y-95418333D01*
X212202380Y-95656428D01*
X212154761Y-95846904D01*
X212107142Y-95942142D01*
X212059523Y-95989761D01*
X211964285Y-96037380D01*
X211869047Y-96037380D01*
X211773809Y-95989761D01*
X211726190Y-95942142D01*
X211678571Y-95846904D01*
X211630952Y-95656428D01*
X211630952Y-95418333D01*
X211678571Y-95227857D01*
X211726190Y-95132619D01*
X211773809Y-95085000D01*
X211869047Y-95037380D01*
X167479047Y-93868571D02*
X167621904Y-93916190D01*
X167669523Y-93963809D01*
X167717142Y-94059047D01*
X167717142Y-94201904D01*
X167669523Y-94297142D01*
X167621904Y-94344761D01*
X167526666Y-94392380D01*
X167145714Y-94392380D01*
X167145714Y-93392380D01*
X167479047Y-93392380D01*
X167574285Y-93440000D01*
X167621904Y-93487619D01*
X167669523Y-93582857D01*
X167669523Y-93678095D01*
X167621904Y-93773333D01*
X167574285Y-93820952D01*
X167479047Y-93868571D01*
X167145714Y-93868571D01*
X168098095Y-94106666D02*
X168574285Y-94106666D01*
X168002857Y-94392380D02*
X168336190Y-93392380D01*
X168669523Y-94392380D01*
X169002857Y-94392380D02*
X169002857Y-93392380D01*
X169574285Y-94392380D01*
X169574285Y-93392380D01*
X170050476Y-94392380D02*
X170050476Y-93392380D01*
X170288571Y-93392380D01*
X170431428Y-93440000D01*
X170526666Y-93535238D01*
X170574285Y-93630476D01*
X170621904Y-93820952D01*
X170621904Y-93963809D01*
X170574285Y-94154285D01*
X170526666Y-94249523D01*
X170431428Y-94344761D01*
X170288571Y-94392380D01*
X170050476Y-94392380D01*
X167217142Y-96002380D02*
X167217142Y-95002380D01*
X167598095Y-95002380D01*
X167693333Y-95050000D01*
X167740952Y-95097619D01*
X167788571Y-95192857D01*
X167788571Y-95335714D01*
X167740952Y-95430952D01*
X167693333Y-95478571D01*
X167598095Y-95526190D01*
X167217142Y-95526190D01*
X168169523Y-95716666D02*
X168645714Y-95716666D01*
X168074285Y-96002380D02*
X168407619Y-95002380D01*
X168740952Y-96002380D01*
X169026666Y-95954761D02*
X169169523Y-96002380D01*
X169407619Y-96002380D01*
X169502857Y-95954761D01*
X169550476Y-95907142D01*
X169598095Y-95811904D01*
X169598095Y-95716666D01*
X169550476Y-95621428D01*
X169502857Y-95573809D01*
X169407619Y-95526190D01*
X169217142Y-95478571D01*
X169121904Y-95430952D01*
X169074285Y-95383333D01*
X169026666Y-95288095D01*
X169026666Y-95192857D01*
X169074285Y-95097619D01*
X169121904Y-95050000D01*
X169217142Y-95002380D01*
X169455238Y-95002380D01*
X169598095Y-95050000D01*
X169979047Y-95954761D02*
X170121904Y-96002380D01*
X170360000Y-96002380D01*
X170455238Y-95954761D01*
X170502857Y-95907142D01*
X170550476Y-95811904D01*
X170550476Y-95716666D01*
X170502857Y-95621428D01*
X170455238Y-95573809D01*
X170360000Y-95526190D01*
X170169523Y-95478571D01*
X170074285Y-95430952D01*
X170026666Y-95383333D01*
X169979047Y-95288095D01*
X169979047Y-95192857D01*
X170026666Y-95097619D01*
X170074285Y-95050000D01*
X170169523Y-95002380D01*
X170407619Y-95002380D01*
X170550476Y-95050000D01*
X167026666Y-97088571D02*
X166693333Y-97088571D01*
X166693333Y-97612380D02*
X166693333Y-96612380D01*
X167169523Y-96612380D01*
X167550476Y-97612380D02*
X167550476Y-96612380D01*
X168502857Y-97612380D02*
X168026666Y-97612380D01*
X168026666Y-96612380D01*
X168693333Y-96612380D02*
X169264761Y-96612380D01*
X168979047Y-97612380D02*
X168979047Y-96612380D01*
X169598095Y-97088571D02*
X169931428Y-97088571D01*
X170074285Y-97612380D02*
X169598095Y-97612380D01*
X169598095Y-96612380D01*
X170074285Y-96612380D01*
X171074285Y-97612380D02*
X170740952Y-97136190D01*
X170502857Y-97612380D02*
X170502857Y-96612380D01*
X170883809Y-96612380D01*
X170979047Y-96660000D01*
X171026666Y-96707619D01*
X171074285Y-96802857D01*
X171074285Y-96945714D01*
X171026666Y-97040952D01*
X170979047Y-97088571D01*
X170883809Y-97136190D01*
X170502857Y-97136190D01*
X183947142Y-79716666D02*
X183994761Y-79764285D01*
X184042380Y-79907142D01*
X184042380Y-80002380D01*
X183994761Y-80145238D01*
X183899523Y-80240476D01*
X183804285Y-80288095D01*
X183613809Y-80335714D01*
X183470952Y-80335714D01*
X183280476Y-80288095D01*
X183185238Y-80240476D01*
X183090000Y-80145238D01*
X183042380Y-80002380D01*
X183042380Y-79907142D01*
X183090000Y-79764285D01*
X183137619Y-79716666D01*
X183042380Y-78859523D02*
X183042380Y-79050000D01*
X183090000Y-79145238D01*
X183137619Y-79192857D01*
X183280476Y-79288095D01*
X183470952Y-79335714D01*
X183851904Y-79335714D01*
X183947142Y-79288095D01*
X183994761Y-79240476D01*
X184042380Y-79145238D01*
X184042380Y-78954761D01*
X183994761Y-78859523D01*
X183947142Y-78811904D01*
X183851904Y-78764285D01*
X183613809Y-78764285D01*
X183518571Y-78811904D01*
X183470952Y-78859523D01*
X183423333Y-78954761D01*
X183423333Y-79145238D01*
X183470952Y-79240476D01*
X183518571Y-79288095D01*
X183613809Y-79335714D01*
X160673333Y-141307142D02*
X160625714Y-141354761D01*
X160482857Y-141402380D01*
X160387619Y-141402380D01*
X160244761Y-141354761D01*
X160149523Y-141259523D01*
X160101904Y-141164285D01*
X160054285Y-140973809D01*
X160054285Y-140830952D01*
X160101904Y-140640476D01*
X160149523Y-140545238D01*
X160244761Y-140450000D01*
X160387619Y-140402380D01*
X160482857Y-140402380D01*
X160625714Y-140450000D01*
X160673333Y-140497619D01*
X161578095Y-140402380D02*
X161101904Y-140402380D01*
X161054285Y-140878571D01*
X161101904Y-140830952D01*
X161197142Y-140783333D01*
X161435238Y-140783333D01*
X161530476Y-140830952D01*
X161578095Y-140878571D01*
X161625714Y-140973809D01*
X161625714Y-141211904D01*
X161578095Y-141307142D01*
X161530476Y-141354761D01*
X161435238Y-141402380D01*
X161197142Y-141402380D01*
X161101904Y-141354761D01*
X161054285Y-141307142D01*
X181664687Y-138780389D02*
X181664687Y-138847732D01*
X181597343Y-138982419D01*
X181530000Y-139049763D01*
X181395312Y-139117106D01*
X181260625Y-139117106D01*
X181159610Y-139083435D01*
X180991251Y-138982419D01*
X180890236Y-138881404D01*
X180789221Y-138713045D01*
X180755549Y-138612030D01*
X180755549Y-138477343D01*
X180822893Y-138342656D01*
X180890236Y-138275312D01*
X181024923Y-138207969D01*
X181092267Y-138207969D01*
X181361641Y-137938595D02*
X181361641Y-137871251D01*
X181395312Y-137770236D01*
X181563671Y-137601877D01*
X181664687Y-137568206D01*
X181732030Y-137568206D01*
X181833045Y-137601877D01*
X181900389Y-137669221D01*
X181967732Y-137803908D01*
X181967732Y-138612030D01*
X182405465Y-138174297D01*
X134977392Y-134075534D02*
X134916358Y-134047074D01*
X134822750Y-133929118D01*
X134790177Y-133839624D01*
X134786064Y-133689095D01*
X134842985Y-133567027D01*
X134916193Y-133489707D01*
X135078896Y-133379813D01*
X135213138Y-133330953D01*
X135408413Y-133310553D01*
X135514195Y-133322727D01*
X135636262Y-133379649D01*
X135729870Y-133497604D01*
X135762443Y-133587098D01*
X135766556Y-133737627D01*
X135738095Y-133798661D01*
X135941596Y-134079318D02*
X136169610Y-134705780D01*
X135083337Y-134645075D01*
X127103333Y-120447142D02*
X127055714Y-120494761D01*
X126912857Y-120542380D01*
X126817619Y-120542380D01*
X126674761Y-120494761D01*
X126579523Y-120399523D01*
X126531904Y-120304285D01*
X126484285Y-120113809D01*
X126484285Y-119970952D01*
X126531904Y-119780476D01*
X126579523Y-119685238D01*
X126674761Y-119590000D01*
X126817619Y-119542380D01*
X126912857Y-119542380D01*
X127055714Y-119590000D01*
X127103333Y-119637619D01*
X127436666Y-119542380D02*
X128055714Y-119542380D01*
X127722380Y-119923333D01*
X127865238Y-119923333D01*
X127960476Y-119970952D01*
X128008095Y-120018571D01*
X128055714Y-120113809D01*
X128055714Y-120351904D01*
X128008095Y-120447142D01*
X127960476Y-120494761D01*
X127865238Y-120542380D01*
X127579523Y-120542380D01*
X127484285Y-120494761D01*
X127436666Y-120447142D01*
X123943333Y-127317142D02*
X123895714Y-127364761D01*
X123752857Y-127412380D01*
X123657619Y-127412380D01*
X123514761Y-127364761D01*
X123419523Y-127269523D01*
X123371904Y-127174285D01*
X123324285Y-126983809D01*
X123324285Y-126840952D01*
X123371904Y-126650476D01*
X123419523Y-126555238D01*
X123514761Y-126460000D01*
X123657619Y-126412380D01*
X123752857Y-126412380D01*
X123895714Y-126460000D01*
X123943333Y-126507619D01*
X124848095Y-126412380D02*
X124371904Y-126412380D01*
X124324285Y-126888571D01*
X124371904Y-126840952D01*
X124467142Y-126793333D01*
X124705238Y-126793333D01*
X124800476Y-126840952D01*
X124848095Y-126888571D01*
X124895714Y-126983809D01*
X124895714Y-127221904D01*
X124848095Y-127317142D01*
X124800476Y-127364761D01*
X124705238Y-127412380D01*
X124467142Y-127412380D01*
X124371904Y-127364761D01*
X124324285Y-127317142D01*
X194003809Y-108107619D02*
X194003809Y-109107619D01*
X193527619Y-108107619D02*
X193527619Y-109107619D01*
X192956190Y-108107619D01*
X192956190Y-109107619D01*
X192480000Y-108107619D02*
X192480000Y-109107619D01*
X192099047Y-109107619D01*
X192003809Y-109060000D01*
X191956190Y-109012380D01*
X191908571Y-108917142D01*
X191908571Y-108774285D01*
X191956190Y-108679047D01*
X192003809Y-108631428D01*
X192099047Y-108583809D01*
X192480000Y-108583809D01*
X176871333Y-101544380D02*
X176395142Y-101544380D01*
X176395142Y-100544380D01*
X177157047Y-100639619D02*
X177204666Y-100592000D01*
X177299904Y-100544380D01*
X177538000Y-100544380D01*
X177633238Y-100592000D01*
X177680857Y-100639619D01*
X177728476Y-100734857D01*
X177728476Y-100830095D01*
X177680857Y-100972952D01*
X177109428Y-101544380D01*
X177728476Y-101544380D01*
X128260000Y-112532380D02*
X128450476Y-112532380D01*
X128545714Y-112580000D01*
X128640952Y-112675238D01*
X128688571Y-112865714D01*
X128688571Y-113199047D01*
X128640952Y-113389523D01*
X128545714Y-113484761D01*
X128450476Y-113532380D01*
X128260000Y-113532380D01*
X128164761Y-113484761D01*
X128069523Y-113389523D01*
X128021904Y-113199047D01*
X128021904Y-112865714D01*
X128069523Y-112675238D01*
X128164761Y-112580000D01*
X128260000Y-112532380D01*
X129117142Y-112532380D02*
X129117142Y-113341904D01*
X129164761Y-113437142D01*
X129212380Y-113484761D01*
X129307619Y-113532380D01*
X129498095Y-113532380D01*
X129593333Y-113484761D01*
X129640952Y-113437142D01*
X129688571Y-113341904D01*
X129688571Y-112532380D01*
X130021904Y-112532380D02*
X130593333Y-112532380D01*
X130307619Y-113532380D02*
X130307619Y-112532380D01*
X189893333Y-84287142D02*
X189845714Y-84334761D01*
X189702857Y-84382380D01*
X189607619Y-84382380D01*
X189464761Y-84334761D01*
X189369523Y-84239523D01*
X189321904Y-84144285D01*
X189274285Y-83953809D01*
X189274285Y-83810952D01*
X189321904Y-83620476D01*
X189369523Y-83525238D01*
X189464761Y-83430000D01*
X189607619Y-83382380D01*
X189702857Y-83382380D01*
X189845714Y-83430000D01*
X189893333Y-83477619D01*
X190798095Y-83382380D02*
X190321904Y-83382380D01*
X190274285Y-83858571D01*
X190321904Y-83810952D01*
X190417142Y-83763333D01*
X190655238Y-83763333D01*
X190750476Y-83810952D01*
X190798095Y-83858571D01*
X190845714Y-83953809D01*
X190845714Y-84191904D01*
X190798095Y-84287142D01*
X190750476Y-84334761D01*
X190655238Y-84382380D01*
X190417142Y-84382380D01*
X190321904Y-84334761D01*
X190274285Y-84287142D01*
X184253142Y-110148666D02*
X184300761Y-110196285D01*
X184348380Y-110339142D01*
X184348380Y-110434380D01*
X184300761Y-110577238D01*
X184205523Y-110672476D01*
X184110285Y-110720095D01*
X183919809Y-110767714D01*
X183776952Y-110767714D01*
X183586476Y-110720095D01*
X183491238Y-110672476D01*
X183396000Y-110577238D01*
X183348380Y-110434380D01*
X183348380Y-110339142D01*
X183396000Y-110196285D01*
X183443619Y-110148666D01*
X183348380Y-109291523D02*
X183348380Y-109482000D01*
X183396000Y-109577238D01*
X183443619Y-109624857D01*
X183586476Y-109720095D01*
X183776952Y-109767714D01*
X184157904Y-109767714D01*
X184253142Y-109720095D01*
X184300761Y-109672476D01*
X184348380Y-109577238D01*
X184348380Y-109386761D01*
X184300761Y-109291523D01*
X184253142Y-109243904D01*
X184157904Y-109196285D01*
X183919809Y-109196285D01*
X183824571Y-109243904D01*
X183776952Y-109291523D01*
X183729333Y-109386761D01*
X183729333Y-109577238D01*
X183776952Y-109672476D01*
X183824571Y-109720095D01*
X183919809Y-109767714D01*
X158703333Y-98487142D02*
X158655714Y-98534761D01*
X158512857Y-98582380D01*
X158417619Y-98582380D01*
X158274761Y-98534761D01*
X158179523Y-98439523D01*
X158131904Y-98344285D01*
X158084285Y-98153809D01*
X158084285Y-98010952D01*
X158131904Y-97820476D01*
X158179523Y-97725238D01*
X158274761Y-97630000D01*
X158417619Y-97582380D01*
X158512857Y-97582380D01*
X158655714Y-97630000D01*
X158703333Y-97677619D01*
X159608095Y-97582380D02*
X159131904Y-97582380D01*
X159084285Y-98058571D01*
X159131904Y-98010952D01*
X159227142Y-97963333D01*
X159465238Y-97963333D01*
X159560476Y-98010952D01*
X159608095Y-98058571D01*
X159655714Y-98153809D01*
X159655714Y-98391904D01*
X159608095Y-98487142D01*
X159560476Y-98534761D01*
X159465238Y-98582380D01*
X159227142Y-98582380D01*
X159131904Y-98534761D01*
X159084285Y-98487142D01*
X196347142Y-125496666D02*
X196394761Y-125544285D01*
X196442380Y-125687142D01*
X196442380Y-125782380D01*
X196394761Y-125925238D01*
X196299523Y-126020476D01*
X196204285Y-126068095D01*
X196013809Y-126115714D01*
X195870952Y-126115714D01*
X195680476Y-126068095D01*
X195585238Y-126020476D01*
X195490000Y-125925238D01*
X195442380Y-125782380D01*
X195442380Y-125687142D01*
X195490000Y-125544285D01*
X195537619Y-125496666D01*
X195442380Y-125163333D02*
X195442380Y-124544285D01*
X195823333Y-124877619D01*
X195823333Y-124734761D01*
X195870952Y-124639523D01*
X195918571Y-124591904D01*
X196013809Y-124544285D01*
X196251904Y-124544285D01*
X196347142Y-124591904D01*
X196394761Y-124639523D01*
X196442380Y-124734761D01*
X196442380Y-125020476D01*
X196394761Y-125115714D01*
X196347142Y-125163333D01*
X151000000Y-66452380D02*
X151190476Y-66452380D01*
X151285714Y-66500000D01*
X151380952Y-66595238D01*
X151428571Y-66785714D01*
X151428571Y-67119047D01*
X151380952Y-67309523D01*
X151285714Y-67404761D01*
X151190476Y-67452380D01*
X151000000Y-67452380D01*
X150904761Y-67404761D01*
X150809523Y-67309523D01*
X150761904Y-67119047D01*
X150761904Y-66785714D01*
X150809523Y-66595238D01*
X150904761Y-66500000D01*
X151000000Y-66452380D01*
X151857142Y-66452380D02*
X151857142Y-67261904D01*
X151904761Y-67357142D01*
X151952380Y-67404761D01*
X152047619Y-67452380D01*
X152238095Y-67452380D01*
X152333333Y-67404761D01*
X152380952Y-67357142D01*
X152428571Y-67261904D01*
X152428571Y-66452380D01*
X152761904Y-66452380D02*
X153333333Y-66452380D01*
X153047619Y-67452380D02*
X153047619Y-66452380D01*
X187257142Y-78646666D02*
X187304761Y-78694285D01*
X187352380Y-78837142D01*
X187352380Y-78932380D01*
X187304761Y-79075238D01*
X187209523Y-79170476D01*
X187114285Y-79218095D01*
X186923809Y-79265714D01*
X186780952Y-79265714D01*
X186590476Y-79218095D01*
X186495238Y-79170476D01*
X186400000Y-79075238D01*
X186352380Y-78932380D01*
X186352380Y-78837142D01*
X186400000Y-78694285D01*
X186447619Y-78646666D01*
X186685714Y-77789523D02*
X187352380Y-77789523D01*
X186304761Y-78027619D02*
X187019047Y-78265714D01*
X187019047Y-77646666D01*
X122347142Y-122176666D02*
X122394761Y-122224285D01*
X122442380Y-122367142D01*
X122442380Y-122462380D01*
X122394761Y-122605238D01*
X122299523Y-122700476D01*
X122204285Y-122748095D01*
X122013809Y-122795714D01*
X121870952Y-122795714D01*
X121680476Y-122748095D01*
X121585238Y-122700476D01*
X121490000Y-122605238D01*
X121442380Y-122462380D01*
X121442380Y-122367142D01*
X121490000Y-122224285D01*
X121537619Y-122176666D01*
X121775714Y-121319523D02*
X122442380Y-121319523D01*
X121394761Y-121557619D02*
X122109047Y-121795714D01*
X122109047Y-121176666D01*
X206172380Y-106896666D02*
X206172380Y-107372857D01*
X205172380Y-107372857D01*
X205267619Y-106610952D02*
X205220000Y-106563333D01*
X205172380Y-106468095D01*
X205172380Y-106230000D01*
X205220000Y-106134761D01*
X205267619Y-106087142D01*
X205362857Y-106039523D01*
X205458095Y-106039523D01*
X205600952Y-106087142D01*
X206172380Y-106658571D01*
X206172380Y-106039523D01*
X161953333Y-91107142D02*
X161905714Y-91154761D01*
X161762857Y-91202380D01*
X161667619Y-91202380D01*
X161524761Y-91154761D01*
X161429523Y-91059523D01*
X161381904Y-90964285D01*
X161334285Y-90773809D01*
X161334285Y-90630952D01*
X161381904Y-90440476D01*
X161429523Y-90345238D01*
X161524761Y-90250000D01*
X161667619Y-90202380D01*
X161762857Y-90202380D01*
X161905714Y-90250000D01*
X161953333Y-90297619D01*
X162334285Y-90297619D02*
X162381904Y-90250000D01*
X162477142Y-90202380D01*
X162715238Y-90202380D01*
X162810476Y-90250000D01*
X162858095Y-90297619D01*
X162905714Y-90392857D01*
X162905714Y-90488095D01*
X162858095Y-90630952D01*
X162286666Y-91202380D01*
X162905714Y-91202380D01*
X160563333Y-123517142D02*
X160515714Y-123564761D01*
X160372857Y-123612380D01*
X160277619Y-123612380D01*
X160134761Y-123564761D01*
X160039523Y-123469523D01*
X159991904Y-123374285D01*
X159944285Y-123183809D01*
X159944285Y-123040952D01*
X159991904Y-122850476D01*
X160039523Y-122755238D01*
X160134761Y-122660000D01*
X160277619Y-122612380D01*
X160372857Y-122612380D01*
X160515714Y-122660000D01*
X160563333Y-122707619D01*
X161420476Y-122945714D02*
X161420476Y-123612380D01*
X161182380Y-122564761D02*
X160944285Y-123279047D01*
X161563333Y-123279047D01*
X127213333Y-123797142D02*
X127165714Y-123844761D01*
X127022857Y-123892380D01*
X126927619Y-123892380D01*
X126784761Y-123844761D01*
X126689523Y-123749523D01*
X126641904Y-123654285D01*
X126594285Y-123463809D01*
X126594285Y-123320952D01*
X126641904Y-123130476D01*
X126689523Y-123035238D01*
X126784761Y-122940000D01*
X126927619Y-122892380D01*
X127022857Y-122892380D01*
X127165714Y-122940000D01*
X127213333Y-122987619D01*
X127594285Y-122987619D02*
X127641904Y-122940000D01*
X127737142Y-122892380D01*
X127975238Y-122892380D01*
X128070476Y-122940000D01*
X128118095Y-122987619D01*
X128165714Y-123082857D01*
X128165714Y-123178095D01*
X128118095Y-123320952D01*
X127546666Y-123892380D01*
X128165714Y-123892380D01*
X214707142Y-64641666D02*
X214754761Y-64689285D01*
X214802380Y-64832142D01*
X214802380Y-64927380D01*
X214754761Y-65070238D01*
X214659523Y-65165476D01*
X214564285Y-65213095D01*
X214373809Y-65260714D01*
X214230952Y-65260714D01*
X214040476Y-65213095D01*
X213945238Y-65165476D01*
X213850000Y-65070238D01*
X213802380Y-64927380D01*
X213802380Y-64832142D01*
X213850000Y-64689285D01*
X213897619Y-64641666D01*
X214802380Y-63689285D02*
X214802380Y-64260714D01*
X214802380Y-63975000D02*
X213802380Y-63975000D01*
X213945238Y-64070238D01*
X214040476Y-64165476D01*
X214088095Y-64260714D01*
X213044687Y-80530389D02*
X213044687Y-80597732D01*
X212977343Y-80732419D01*
X212910000Y-80799763D01*
X212775312Y-80867106D01*
X212640625Y-80867106D01*
X212539610Y-80833435D01*
X212371251Y-80732419D01*
X212270236Y-80631404D01*
X212169221Y-80463045D01*
X212135549Y-80362030D01*
X212135549Y-80227343D01*
X212202893Y-80092656D01*
X212270236Y-80025312D01*
X212404923Y-79957969D01*
X212472267Y-79957969D01*
X212741641Y-79688595D02*
X212741641Y-79621251D01*
X212775312Y-79520236D01*
X212943671Y-79351877D01*
X213044687Y-79318206D01*
X213112030Y-79318206D01*
X213213045Y-79351877D01*
X213280389Y-79419221D01*
X213347732Y-79553908D01*
X213347732Y-80362030D01*
X213785465Y-79924297D01*
X194436666Y-132652857D02*
X194484285Y-132605238D01*
X194627142Y-132557619D01*
X194722380Y-132557619D01*
X194865238Y-132605238D01*
X194960476Y-132700476D01*
X195008095Y-132795714D01*
X195055714Y-132986190D01*
X195055714Y-133129047D01*
X195008095Y-133319523D01*
X194960476Y-133414761D01*
X194865238Y-133510000D01*
X194722380Y-133557619D01*
X194627142Y-133557619D01*
X194484285Y-133510000D01*
X194436666Y-133462380D01*
X193579523Y-133224285D02*
X193579523Y-132557619D01*
X193817619Y-133605238D02*
X194055714Y-132890952D01*
X193436666Y-132890952D01*
X195150000Y-84602380D02*
X195340476Y-84602380D01*
X195435714Y-84650000D01*
X195530952Y-84745238D01*
X195578571Y-84935714D01*
X195578571Y-85269047D01*
X195530952Y-85459523D01*
X195435714Y-85554761D01*
X195340476Y-85602380D01*
X195150000Y-85602380D01*
X195054761Y-85554761D01*
X194959523Y-85459523D01*
X194911904Y-85269047D01*
X194911904Y-84935714D01*
X194959523Y-84745238D01*
X195054761Y-84650000D01*
X195150000Y-84602380D01*
X196007142Y-84602380D02*
X196007142Y-85411904D01*
X196054761Y-85507142D01*
X196102380Y-85554761D01*
X196197619Y-85602380D01*
X196388095Y-85602380D01*
X196483333Y-85554761D01*
X196530952Y-85507142D01*
X196578571Y-85411904D01*
X196578571Y-84602380D01*
X196911904Y-84602380D02*
X197483333Y-84602380D01*
X197197619Y-85602380D02*
X197197619Y-84602380D01*
X206042380Y-134546666D02*
X206042380Y-135022857D01*
X205042380Y-135022857D01*
X205042380Y-134308571D02*
X205042380Y-133689523D01*
X205423333Y-134022857D01*
X205423333Y-133880000D01*
X205470952Y-133784761D01*
X205518571Y-133737142D01*
X205613809Y-133689523D01*
X205851904Y-133689523D01*
X205947142Y-133737142D01*
X205994761Y-133784761D01*
X206042380Y-133880000D01*
X206042380Y-134165714D01*
X205994761Y-134260952D01*
X205947142Y-134308571D01*
X160403333Y-120077142D02*
X160355714Y-120124761D01*
X160212857Y-120172380D01*
X160117619Y-120172380D01*
X159974761Y-120124761D01*
X159879523Y-120029523D01*
X159831904Y-119934285D01*
X159784285Y-119743809D01*
X159784285Y-119600952D01*
X159831904Y-119410476D01*
X159879523Y-119315238D01*
X159974761Y-119220000D01*
X160117619Y-119172380D01*
X160212857Y-119172380D01*
X160355714Y-119220000D01*
X160403333Y-119267619D01*
X160736666Y-119172380D02*
X161355714Y-119172380D01*
X161022380Y-119553333D01*
X161165238Y-119553333D01*
X161260476Y-119600952D01*
X161308095Y-119648571D01*
X161355714Y-119743809D01*
X161355714Y-119981904D01*
X161308095Y-120077142D01*
X161260476Y-120124761D01*
X161165238Y-120172380D01*
X160879523Y-120172380D01*
X160784285Y-120124761D01*
X160736666Y-120077142D01*
X143892380Y-120943809D02*
X142892380Y-120943809D01*
X143892380Y-120467619D02*
X142892380Y-120467619D01*
X143892380Y-119896190D01*
X142892380Y-119896190D01*
X143892380Y-119420000D02*
X142892380Y-119420000D01*
X142892380Y-119039047D01*
X142940000Y-118943809D01*
X142987619Y-118896190D01*
X143082857Y-118848571D01*
X143225714Y-118848571D01*
X143320952Y-118896190D01*
X143368571Y-118943809D01*
X143416190Y-119039047D01*
X143416190Y-119420000D01*
X178303333Y-131052380D02*
X177827142Y-131052380D01*
X177827142Y-130052380D01*
X179160476Y-131052380D02*
X178589047Y-131052380D01*
X178874761Y-131052380D02*
X178874761Y-130052380D01*
X178779523Y-130195238D01*
X178684285Y-130290476D01*
X178589047Y-130338095D01*
X195033333Y-75322380D02*
X194557142Y-75322380D01*
X194557142Y-74322380D01*
X195319047Y-74417619D02*
X195366666Y-74370000D01*
X195461904Y-74322380D01*
X195700000Y-74322380D01*
X195795238Y-74370000D01*
X195842857Y-74417619D01*
X195890476Y-74512857D01*
X195890476Y-74608095D01*
X195842857Y-74750952D01*
X195271428Y-75322380D01*
X195890476Y-75322380D01*
X163733333Y-131492380D02*
X163257142Y-131492380D01*
X163257142Y-130492380D01*
X164019047Y-130587619D02*
X164066666Y-130540000D01*
X164161904Y-130492380D01*
X164400000Y-130492380D01*
X164495238Y-130540000D01*
X164542857Y-130587619D01*
X164590476Y-130682857D01*
X164590476Y-130778095D01*
X164542857Y-130920952D01*
X163971428Y-131492380D01*
X164590476Y-131492380D01*
X163440000Y-113062380D02*
X163630476Y-113062380D01*
X163725714Y-113110000D01*
X163820952Y-113205238D01*
X163868571Y-113395714D01*
X163868571Y-113729047D01*
X163820952Y-113919523D01*
X163725714Y-114014761D01*
X163630476Y-114062380D01*
X163440000Y-114062380D01*
X163344761Y-114014761D01*
X163249523Y-113919523D01*
X163201904Y-113729047D01*
X163201904Y-113395714D01*
X163249523Y-113205238D01*
X163344761Y-113110000D01*
X163440000Y-113062380D01*
X164297142Y-113062380D02*
X164297142Y-113871904D01*
X164344761Y-113967142D01*
X164392380Y-114014761D01*
X164487619Y-114062380D01*
X164678095Y-114062380D01*
X164773333Y-114014761D01*
X164820952Y-113967142D01*
X164868571Y-113871904D01*
X164868571Y-113062380D01*
X165201904Y-113062380D02*
X165773333Y-113062380D01*
X165487619Y-114062380D02*
X165487619Y-113062380D01*
X184253142Y-93638666D02*
X184300761Y-93686285D01*
X184348380Y-93829142D01*
X184348380Y-93924380D01*
X184300761Y-94067238D01*
X184205523Y-94162476D01*
X184110285Y-94210095D01*
X183919809Y-94257714D01*
X183776952Y-94257714D01*
X183586476Y-94210095D01*
X183491238Y-94162476D01*
X183396000Y-94067238D01*
X183348380Y-93924380D01*
X183348380Y-93829142D01*
X183396000Y-93686285D01*
X183443619Y-93638666D01*
X184348380Y-92686285D02*
X184348380Y-93257714D01*
X184348380Y-92972000D02*
X183348380Y-92972000D01*
X183491238Y-93067238D01*
X183586476Y-93162476D01*
X183634095Y-93257714D01*
X178182380Y-91693809D02*
X177182380Y-91693809D01*
X178182380Y-91217619D02*
X177182380Y-91217619D01*
X178182380Y-90646190D01*
X177182380Y-90646190D01*
X178182380Y-90170000D02*
X177182380Y-90170000D01*
X177182380Y-89789047D01*
X177230000Y-89693809D01*
X177277619Y-89646190D01*
X177372857Y-89598571D01*
X177515714Y-89598571D01*
X177610952Y-89646190D01*
X177658571Y-89693809D01*
X177706190Y-89789047D01*
X177706190Y-90170000D01*
X149837142Y-139166666D02*
X149884761Y-139214285D01*
X149932380Y-139357142D01*
X149932380Y-139452380D01*
X149884761Y-139595238D01*
X149789523Y-139690476D01*
X149694285Y-139738095D01*
X149503809Y-139785714D01*
X149360952Y-139785714D01*
X149170476Y-139738095D01*
X149075238Y-139690476D01*
X148980000Y-139595238D01*
X148932380Y-139452380D01*
X148932380Y-139357142D01*
X148980000Y-139214285D01*
X149027619Y-139166666D01*
X148932380Y-138309523D02*
X148932380Y-138500000D01*
X148980000Y-138595238D01*
X149027619Y-138642857D01*
X149170476Y-138738095D01*
X149360952Y-138785714D01*
X149741904Y-138785714D01*
X149837142Y-138738095D01*
X149884761Y-138690476D01*
X149932380Y-138595238D01*
X149932380Y-138404761D01*
X149884761Y-138309523D01*
X149837142Y-138261904D01*
X149741904Y-138214285D01*
X149503809Y-138214285D01*
X149408571Y-138261904D01*
X149360952Y-138309523D01*
X149313333Y-138404761D01*
X149313333Y-138595238D01*
X149360952Y-138690476D01*
X149408571Y-138738095D01*
X149503809Y-138785714D01*
X195078323Y-103998150D02*
X195066629Y-104064470D01*
X194976920Y-104185417D01*
X194898906Y-104240043D01*
X194754571Y-104282976D01*
X194621930Y-104259587D01*
X194528297Y-104208886D01*
X194380037Y-104080170D01*
X194298097Y-103963149D01*
X194227852Y-103779806D01*
X194212233Y-103674479D01*
X194235621Y-103541838D01*
X194325329Y-103420891D01*
X194403344Y-103366265D01*
X194547679Y-103323333D01*
X194613999Y-103335027D01*
X195913094Y-103529901D02*
X195445007Y-103857659D01*
X195679051Y-103693780D02*
X195105474Y-102874628D01*
X195109399Y-103046276D01*
X195086011Y-103178917D01*
X195035310Y-103272550D01*
X161833333Y-94307142D02*
X161785714Y-94354761D01*
X161642857Y-94402380D01*
X161547619Y-94402380D01*
X161404761Y-94354761D01*
X161309523Y-94259523D01*
X161261904Y-94164285D01*
X161214285Y-93973809D01*
X161214285Y-93830952D01*
X161261904Y-93640476D01*
X161309523Y-93545238D01*
X161404761Y-93450000D01*
X161547619Y-93402380D01*
X161642857Y-93402380D01*
X161785714Y-93450000D01*
X161833333Y-93497619D01*
X162166666Y-93402380D02*
X162785714Y-93402380D01*
X162452380Y-93783333D01*
X162595238Y-93783333D01*
X162690476Y-93830952D01*
X162738095Y-93878571D01*
X162785714Y-93973809D01*
X162785714Y-94211904D01*
X162738095Y-94307142D01*
X162690476Y-94354761D01*
X162595238Y-94402380D01*
X162309523Y-94402380D01*
X162214285Y-94354761D01*
X162166666Y-94307142D01*
X178212380Y-120893809D02*
X177212380Y-120893809D01*
X178212380Y-120417619D02*
X177212380Y-120417619D01*
X178212380Y-119846190D01*
X177212380Y-119846190D01*
X178212380Y-119370000D02*
X177212380Y-119370000D01*
X177212380Y-118989047D01*
X177260000Y-118893809D01*
X177307619Y-118846190D01*
X177402857Y-118798571D01*
X177545714Y-118798571D01*
X177640952Y-118846190D01*
X177688571Y-118893809D01*
X177736190Y-118989047D01*
X177736190Y-119370000D01*
X180527142Y-79736666D02*
X180574761Y-79784285D01*
X180622380Y-79927142D01*
X180622380Y-80022380D01*
X180574761Y-80165238D01*
X180479523Y-80260476D01*
X180384285Y-80308095D01*
X180193809Y-80355714D01*
X180050952Y-80355714D01*
X179860476Y-80308095D01*
X179765238Y-80260476D01*
X179670000Y-80165238D01*
X179622380Y-80022380D01*
X179622380Y-79927142D01*
X179670000Y-79784285D01*
X179717619Y-79736666D01*
X179622380Y-79403333D02*
X179622380Y-78736666D01*
X180622380Y-79165238D01*
X149727142Y-122546666D02*
X149774761Y-122594285D01*
X149822380Y-122737142D01*
X149822380Y-122832380D01*
X149774761Y-122975238D01*
X149679523Y-123070476D01*
X149584285Y-123118095D01*
X149393809Y-123165714D01*
X149250952Y-123165714D01*
X149060476Y-123118095D01*
X148965238Y-123070476D01*
X148870000Y-122975238D01*
X148822380Y-122832380D01*
X148822380Y-122737142D01*
X148870000Y-122594285D01*
X148917619Y-122546666D01*
X149822380Y-121594285D02*
X149822380Y-122165714D01*
X149822380Y-121880000D02*
X148822380Y-121880000D01*
X148965238Y-121975238D01*
X149060476Y-122070476D01*
X149108095Y-122165714D01*
X214587142Y-125666666D02*
X214634761Y-125714285D01*
X214682380Y-125857142D01*
X214682380Y-125952380D01*
X214634761Y-126095238D01*
X214539523Y-126190476D01*
X214444285Y-126238095D01*
X214253809Y-126285714D01*
X214110952Y-126285714D01*
X213920476Y-126238095D01*
X213825238Y-126190476D01*
X213730000Y-126095238D01*
X213682380Y-125952380D01*
X213682380Y-125857142D01*
X213730000Y-125714285D01*
X213777619Y-125666666D01*
X214682380Y-125190476D02*
X214682380Y-125000000D01*
X214634761Y-124904761D01*
X214587142Y-124857142D01*
X214444285Y-124761904D01*
X214253809Y-124714285D01*
X213872857Y-124714285D01*
X213777619Y-124761904D01*
X213730000Y-124809523D01*
X213682380Y-124904761D01*
X213682380Y-125095238D01*
X213730000Y-125190476D01*
X213777619Y-125238095D01*
X213872857Y-125285714D01*
X214110952Y-125285714D01*
X214206190Y-125238095D01*
X214253809Y-125190476D01*
X214301428Y-125095238D01*
X214301428Y-124904761D01*
X214253809Y-124809523D01*
X214206190Y-124761904D01*
X214110952Y-124714285D01*
X168771392Y-103597534D02*
X168710358Y-103569074D01*
X168616750Y-103451118D01*
X168584177Y-103361624D01*
X168580064Y-103211095D01*
X168636985Y-103089027D01*
X168710193Y-103011707D01*
X168872896Y-102901813D01*
X169007138Y-102852953D01*
X169202413Y-102832553D01*
X169308195Y-102844727D01*
X169430262Y-102901649D01*
X169523870Y-103019604D01*
X169556443Y-103109098D01*
X169560556Y-103259627D01*
X169532095Y-103320661D01*
X169735596Y-103601318D02*
X169963610Y-104227780D01*
X168877337Y-104167075D01*
X143192380Y-91873809D02*
X142192380Y-91873809D01*
X143192380Y-91397619D02*
X142192380Y-91397619D01*
X143192380Y-90826190D01*
X142192380Y-90826190D01*
X143192380Y-90350000D02*
X142192380Y-90350000D01*
X142192380Y-89969047D01*
X142240000Y-89873809D01*
X142287619Y-89826190D01*
X142382857Y-89778571D01*
X142525714Y-89778571D01*
X142620952Y-89826190D01*
X142668571Y-89873809D01*
X142716190Y-89969047D01*
X142716190Y-90350000D01*
D15*
%TO.C,C6*%
X147617666Y-110160571D02*
X147593857Y-110184380D01*
X147522428Y-110208190D01*
X147474809Y-110208190D01*
X147403380Y-110184380D01*
X147355761Y-110136761D01*
X147331952Y-110089142D01*
X147308142Y-109993904D01*
X147308142Y-109922476D01*
X147331952Y-109827238D01*
X147355761Y-109779619D01*
X147403380Y-109732000D01*
X147474809Y-109708190D01*
X147522428Y-109708190D01*
X147593857Y-109732000D01*
X147617666Y-109755809D01*
X148046238Y-109708190D02*
X147951000Y-109708190D01*
X147903380Y-109732000D01*
X147879571Y-109755809D01*
X147831952Y-109827238D01*
X147808142Y-109922476D01*
X147808142Y-110112952D01*
X147831952Y-110160571D01*
X147855761Y-110184380D01*
X147903380Y-110208190D01*
X147998619Y-110208190D01*
X148046238Y-110184380D01*
X148070047Y-110160571D01*
X148093857Y-110112952D01*
X148093857Y-109993904D01*
X148070047Y-109946285D01*
X148046238Y-109922476D01*
X147998619Y-109898666D01*
X147903380Y-109898666D01*
X147855761Y-109922476D01*
X147831952Y-109946285D01*
X147808142Y-109993904D01*
%TO.C,C4*%
X121496666Y-93168571D02*
X121472857Y-93192380D01*
X121401428Y-93216190D01*
X121353809Y-93216190D01*
X121282380Y-93192380D01*
X121234761Y-93144761D01*
X121210952Y-93097142D01*
X121187142Y-93001904D01*
X121187142Y-92930476D01*
X121210952Y-92835238D01*
X121234761Y-92787619D01*
X121282380Y-92740000D01*
X121353809Y-92716190D01*
X121401428Y-92716190D01*
X121472857Y-92740000D01*
X121496666Y-92763809D01*
X121925238Y-92882857D02*
X121925238Y-93216190D01*
X121806190Y-92692380D02*
X121687142Y-93049523D01*
X121996666Y-93049523D01*
%TO.C,C1*%
X147856666Y-93048571D02*
X147832857Y-93072380D01*
X147761428Y-93096190D01*
X147713809Y-93096190D01*
X147642380Y-93072380D01*
X147594761Y-93024761D01*
X147570952Y-92977142D01*
X147547142Y-92881904D01*
X147547142Y-92810476D01*
X147570952Y-92715238D01*
X147594761Y-92667619D01*
X147642380Y-92620000D01*
X147713809Y-92596190D01*
X147761428Y-92596190D01*
X147832857Y-92620000D01*
X147856666Y-92643809D01*
X148332857Y-93096190D02*
X148047142Y-93096190D01*
X148190000Y-93096190D02*
X148190000Y-92596190D01*
X148142380Y-92667619D01*
X148094761Y-92715238D01*
X148047142Y-92739047D01*
%TO.C,C2*%
X127038571Y-91443333D02*
X127062380Y-91467142D01*
X127086190Y-91538571D01*
X127086190Y-91586190D01*
X127062380Y-91657619D01*
X127014761Y-91705238D01*
X126967142Y-91729047D01*
X126871904Y-91752857D01*
X126800476Y-91752857D01*
X126705238Y-91729047D01*
X126657619Y-91705238D01*
X126610000Y-91657619D01*
X126586190Y-91586190D01*
X126586190Y-91538571D01*
X126610000Y-91467142D01*
X126633809Y-91443333D01*
X126633809Y-91252857D02*
X126610000Y-91229047D01*
X126586190Y-91181428D01*
X126586190Y-91062380D01*
X126610000Y-91014761D01*
X126633809Y-90990952D01*
X126681428Y-90967142D01*
X126729047Y-90967142D01*
X126800476Y-90990952D01*
X127086190Y-91276666D01*
X127086190Y-90967142D01*
%TO.C,C3*%
X127058571Y-94803333D02*
X127082380Y-94827142D01*
X127106190Y-94898571D01*
X127106190Y-94946190D01*
X127082380Y-95017619D01*
X127034761Y-95065238D01*
X126987142Y-95089047D01*
X126891904Y-95112857D01*
X126820476Y-95112857D01*
X126725238Y-95089047D01*
X126677619Y-95065238D01*
X126630000Y-95017619D01*
X126606190Y-94946190D01*
X126606190Y-94898571D01*
X126630000Y-94827142D01*
X126653809Y-94803333D01*
X126606190Y-94636666D02*
X126606190Y-94327142D01*
X126796666Y-94493809D01*
X126796666Y-94422380D01*
X126820476Y-94374761D01*
X126844285Y-94350952D01*
X126891904Y-94327142D01*
X127010952Y-94327142D01*
X127058571Y-94350952D01*
X127082380Y-94374761D01*
X127106190Y-94422380D01*
X127106190Y-94565238D01*
X127082380Y-94612857D01*
X127058571Y-94636666D01*
%TO.C,C5*%
X123838571Y-98263333D02*
X123862380Y-98287142D01*
X123886190Y-98358571D01*
X123886190Y-98406190D01*
X123862380Y-98477619D01*
X123814761Y-98525238D01*
X123767142Y-98549047D01*
X123671904Y-98572857D01*
X123600476Y-98572857D01*
X123505238Y-98549047D01*
X123457619Y-98525238D01*
X123410000Y-98477619D01*
X123386190Y-98406190D01*
X123386190Y-98358571D01*
X123410000Y-98287142D01*
X123433809Y-98263333D01*
X123386190Y-97810952D02*
X123386190Y-98049047D01*
X123624285Y-98072857D01*
X123600476Y-98049047D01*
X123576666Y-98001428D01*
X123576666Y-97882380D01*
X123600476Y-97834761D01*
X123624285Y-97810952D01*
X123671904Y-97787142D01*
X123790952Y-97787142D01*
X123838571Y-97810952D01*
X123862380Y-97834761D01*
X123886190Y-97882380D01*
X123886190Y-98001428D01*
X123862380Y-98049047D01*
X123838571Y-98072857D01*
%TO.C,C7*%
X133947498Y-104437122D02*
X133933268Y-104467639D01*
X133874290Y-104514443D01*
X133829543Y-104530730D01*
X133754278Y-104532786D01*
X133693244Y-104504326D01*
X133654584Y-104467722D01*
X133599637Y-104386370D01*
X133575207Y-104319249D01*
X133565007Y-104221612D01*
X133571094Y-104168721D01*
X133599555Y-104107687D01*
X133658533Y-104060883D01*
X133703280Y-104044597D01*
X133778544Y-104042540D01*
X133809061Y-104056771D01*
X133949390Y-103955020D02*
X134262621Y-103841013D01*
X134232268Y-104384150D01*
%TO.C,C8*%
X183676666Y-93588571D02*
X183652857Y-93612380D01*
X183581428Y-93636190D01*
X183533809Y-93636190D01*
X183462380Y-93612380D01*
X183414761Y-93564761D01*
X183390952Y-93517142D01*
X183367142Y-93421904D01*
X183367142Y-93350476D01*
X183390952Y-93255238D01*
X183414761Y-93207619D01*
X183462380Y-93160000D01*
X183533809Y-93136190D01*
X183581428Y-93136190D01*
X183652857Y-93160000D01*
X183676666Y-93183809D01*
X183962380Y-93350476D02*
X183914761Y-93326666D01*
X183890952Y-93302857D01*
X183867142Y-93255238D01*
X183867142Y-93231428D01*
X183890952Y-93183809D01*
X183914761Y-93160000D01*
X183962380Y-93136190D01*
X184057619Y-93136190D01*
X184105238Y-93160000D01*
X184129047Y-93183809D01*
X184152857Y-93231428D01*
X184152857Y-93255238D01*
X184129047Y-93302857D01*
X184105238Y-93326666D01*
X184057619Y-93350476D01*
X183962380Y-93350476D01*
X183914761Y-93374285D01*
X183890952Y-93398095D01*
X183867142Y-93445714D01*
X183867142Y-93540952D01*
X183890952Y-93588571D01*
X183914761Y-93612380D01*
X183962380Y-93636190D01*
X184057619Y-93636190D01*
X184105238Y-93612380D01*
X184129047Y-93588571D01*
X184152857Y-93540952D01*
X184152857Y-93445714D01*
X184129047Y-93398095D01*
X184105238Y-93374285D01*
X184057619Y-93350476D01*
%TO.C,C9*%
X162248571Y-90813333D02*
X162272380Y-90837142D01*
X162296190Y-90908571D01*
X162296190Y-90956190D01*
X162272380Y-91027619D01*
X162224761Y-91075238D01*
X162177142Y-91099047D01*
X162081904Y-91122857D01*
X162010476Y-91122857D01*
X161915238Y-91099047D01*
X161867619Y-91075238D01*
X161820000Y-91027619D01*
X161796190Y-90956190D01*
X161796190Y-90908571D01*
X161820000Y-90837142D01*
X161843809Y-90813333D01*
X162296190Y-90575238D02*
X162296190Y-90480000D01*
X162272380Y-90432380D01*
X162248571Y-90408571D01*
X162177142Y-90360952D01*
X162081904Y-90337142D01*
X161891428Y-90337142D01*
X161843809Y-90360952D01*
X161820000Y-90384761D01*
X161796190Y-90432380D01*
X161796190Y-90527619D01*
X161820000Y-90575238D01*
X161843809Y-90599047D01*
X161891428Y-90622857D01*
X162010476Y-90622857D01*
X162058095Y-90599047D01*
X162081904Y-90575238D01*
X162105714Y-90527619D01*
X162105714Y-90432380D01*
X162081904Y-90384761D01*
X162058095Y-90360952D01*
X162010476Y-90337142D01*
%TO.C,C10*%
X162268571Y-94271428D02*
X162292380Y-94295238D01*
X162316190Y-94366666D01*
X162316190Y-94414285D01*
X162292380Y-94485714D01*
X162244761Y-94533333D01*
X162197142Y-94557142D01*
X162101904Y-94580952D01*
X162030476Y-94580952D01*
X161935238Y-94557142D01*
X161887619Y-94533333D01*
X161840000Y-94485714D01*
X161816190Y-94414285D01*
X161816190Y-94366666D01*
X161840000Y-94295238D01*
X161863809Y-94271428D01*
X162316190Y-93795238D02*
X162316190Y-94080952D01*
X162316190Y-93938095D02*
X161816190Y-93938095D01*
X161887619Y-93985714D01*
X161935238Y-94033333D01*
X161959047Y-94080952D01*
X161816190Y-93485714D02*
X161816190Y-93438095D01*
X161840000Y-93390476D01*
X161863809Y-93366666D01*
X161911428Y-93342857D01*
X162006666Y-93319047D01*
X162125714Y-93319047D01*
X162220952Y-93342857D01*
X162268571Y-93366666D01*
X162292380Y-93390476D01*
X162316190Y-93438095D01*
X162316190Y-93485714D01*
X162292380Y-93533333D01*
X162268571Y-93557142D01*
X162220952Y-93580952D01*
X162125714Y-93604761D01*
X162006666Y-93604761D01*
X161911428Y-93580952D01*
X161863809Y-93557142D01*
X161840000Y-93533333D01*
X161816190Y-93485714D01*
%TO.C,C11*%
X156448571Y-92968571D02*
X156424761Y-92992380D01*
X156353333Y-93016190D01*
X156305714Y-93016190D01*
X156234285Y-92992380D01*
X156186666Y-92944761D01*
X156162857Y-92897142D01*
X156139047Y-92801904D01*
X156139047Y-92730476D01*
X156162857Y-92635238D01*
X156186666Y-92587619D01*
X156234285Y-92540000D01*
X156305714Y-92516190D01*
X156353333Y-92516190D01*
X156424761Y-92540000D01*
X156448571Y-92563809D01*
X156924761Y-93016190D02*
X156639047Y-93016190D01*
X156781904Y-93016190D02*
X156781904Y-92516190D01*
X156734285Y-92587619D01*
X156686666Y-92635238D01*
X156639047Y-92659047D01*
X157400952Y-93016190D02*
X157115238Y-93016190D01*
X157258095Y-93016190D02*
X157258095Y-92516190D01*
X157210476Y-92587619D01*
X157162857Y-92635238D01*
X157115238Y-92659047D01*
%TO.C,C12*%
X168997761Y-104054556D02*
X168983531Y-104085073D01*
X168924554Y-104131876D01*
X168879806Y-104148163D01*
X168804542Y-104150219D01*
X168743508Y-104121759D01*
X168704848Y-104085155D01*
X168649901Y-104003804D01*
X168625471Y-103936683D01*
X168615271Y-103839045D01*
X168621358Y-103786154D01*
X168649819Y-103725120D01*
X168708796Y-103678317D01*
X168753544Y-103662030D01*
X168828808Y-103659974D01*
X168859325Y-103674204D01*
X169461521Y-103936436D02*
X169193037Y-104034156D01*
X169327279Y-103985296D02*
X169156269Y-103515450D01*
X169135952Y-103598858D01*
X169107491Y-103659892D01*
X169070887Y-103698552D01*
X169485786Y-103446191D02*
X169500017Y-103415674D01*
X169536621Y-103377013D01*
X169648489Y-103336297D01*
X169701379Y-103342384D01*
X169731896Y-103356614D01*
X169770557Y-103393218D01*
X169786843Y-103437965D01*
X169788900Y-103513229D01*
X169618136Y-103879433D01*
X169908993Y-103773570D01*
%TO.C,C13*%
X158938571Y-98421428D02*
X158962380Y-98445238D01*
X158986190Y-98516666D01*
X158986190Y-98564285D01*
X158962380Y-98635714D01*
X158914761Y-98683333D01*
X158867142Y-98707142D01*
X158771904Y-98730952D01*
X158700476Y-98730952D01*
X158605238Y-98707142D01*
X158557619Y-98683333D01*
X158510000Y-98635714D01*
X158486190Y-98564285D01*
X158486190Y-98516666D01*
X158510000Y-98445238D01*
X158533809Y-98421428D01*
X158986190Y-97945238D02*
X158986190Y-98230952D01*
X158986190Y-98088095D02*
X158486190Y-98088095D01*
X158557619Y-98135714D01*
X158605238Y-98183333D01*
X158629047Y-98230952D01*
X158486190Y-97778571D02*
X158486190Y-97469047D01*
X158676666Y-97635714D01*
X158676666Y-97564285D01*
X158700476Y-97516666D01*
X158724285Y-97492857D01*
X158771904Y-97469047D01*
X158890952Y-97469047D01*
X158938571Y-97492857D01*
X158962380Y-97516666D01*
X158986190Y-97564285D01*
X158986190Y-97707142D01*
X158962380Y-97754761D01*
X158938571Y-97778571D01*
%TO.C,C14*%
X183528571Y-110178571D02*
X183504761Y-110202380D01*
X183433333Y-110226190D01*
X183385714Y-110226190D01*
X183314285Y-110202380D01*
X183266666Y-110154761D01*
X183242857Y-110107142D01*
X183219047Y-110011904D01*
X183219047Y-109940476D01*
X183242857Y-109845238D01*
X183266666Y-109797619D01*
X183314285Y-109750000D01*
X183385714Y-109726190D01*
X183433333Y-109726190D01*
X183504761Y-109750000D01*
X183528571Y-109773809D01*
X184004761Y-110226190D02*
X183719047Y-110226190D01*
X183861904Y-110226190D02*
X183861904Y-109726190D01*
X183814285Y-109797619D01*
X183766666Y-109845238D01*
X183719047Y-109869047D01*
X184433333Y-109892857D02*
X184433333Y-110226190D01*
X184314285Y-109702380D02*
X184195238Y-110059523D01*
X184504761Y-110059523D01*
%TO.C,C15*%
X149098571Y-122688571D02*
X149074761Y-122712380D01*
X149003333Y-122736190D01*
X148955714Y-122736190D01*
X148884285Y-122712380D01*
X148836666Y-122664761D01*
X148812857Y-122617142D01*
X148789047Y-122521904D01*
X148789047Y-122450476D01*
X148812857Y-122355238D01*
X148836666Y-122307619D01*
X148884285Y-122260000D01*
X148955714Y-122236190D01*
X149003333Y-122236190D01*
X149074761Y-122260000D01*
X149098571Y-122283809D01*
X149574761Y-122736190D02*
X149289047Y-122736190D01*
X149431904Y-122736190D02*
X149431904Y-122236190D01*
X149384285Y-122307619D01*
X149336666Y-122355238D01*
X149289047Y-122379047D01*
X150027142Y-122236190D02*
X149789047Y-122236190D01*
X149765238Y-122474285D01*
X149789047Y-122450476D01*
X149836666Y-122426666D01*
X149955714Y-122426666D01*
X150003333Y-122450476D01*
X150027142Y-122474285D01*
X150050952Y-122521904D01*
X150050952Y-122640952D01*
X150027142Y-122688571D01*
X150003333Y-122712380D01*
X149955714Y-122736190D01*
X149836666Y-122736190D01*
X149789047Y-122712380D01*
X149765238Y-122688571D01*
%TO.C,C16*%
X127558571Y-120411428D02*
X127582380Y-120435238D01*
X127606190Y-120506666D01*
X127606190Y-120554285D01*
X127582380Y-120625714D01*
X127534761Y-120673333D01*
X127487142Y-120697142D01*
X127391904Y-120720952D01*
X127320476Y-120720952D01*
X127225238Y-120697142D01*
X127177619Y-120673333D01*
X127130000Y-120625714D01*
X127106190Y-120554285D01*
X127106190Y-120506666D01*
X127130000Y-120435238D01*
X127153809Y-120411428D01*
X127606190Y-119935238D02*
X127606190Y-120220952D01*
X127606190Y-120078095D02*
X127106190Y-120078095D01*
X127177619Y-120125714D01*
X127225238Y-120173333D01*
X127249047Y-120220952D01*
X127106190Y-119506666D02*
X127106190Y-119601904D01*
X127130000Y-119649523D01*
X127153809Y-119673333D01*
X127225238Y-119720952D01*
X127320476Y-119744761D01*
X127510952Y-119744761D01*
X127558571Y-119720952D01*
X127582380Y-119697142D01*
X127606190Y-119649523D01*
X127606190Y-119554285D01*
X127582380Y-119506666D01*
X127558571Y-119482857D01*
X127510952Y-119459047D01*
X127391904Y-119459047D01*
X127344285Y-119482857D01*
X127320476Y-119506666D01*
X127296666Y-119554285D01*
X127296666Y-119649523D01*
X127320476Y-119697142D01*
X127344285Y-119720952D01*
X127391904Y-119744761D01*
%TO.C,C17*%
X127528571Y-123761428D02*
X127552380Y-123785238D01*
X127576190Y-123856666D01*
X127576190Y-123904285D01*
X127552380Y-123975714D01*
X127504761Y-124023333D01*
X127457142Y-124047142D01*
X127361904Y-124070952D01*
X127290476Y-124070952D01*
X127195238Y-124047142D01*
X127147619Y-124023333D01*
X127100000Y-123975714D01*
X127076190Y-123904285D01*
X127076190Y-123856666D01*
X127100000Y-123785238D01*
X127123809Y-123761428D01*
X127576190Y-123285238D02*
X127576190Y-123570952D01*
X127576190Y-123428095D02*
X127076190Y-123428095D01*
X127147619Y-123475714D01*
X127195238Y-123523333D01*
X127219047Y-123570952D01*
X127076190Y-123118571D02*
X127076190Y-122785238D01*
X127576190Y-122999523D01*
%TO.C,C18*%
X121818571Y-121908571D02*
X121794761Y-121932380D01*
X121723333Y-121956190D01*
X121675714Y-121956190D01*
X121604285Y-121932380D01*
X121556666Y-121884761D01*
X121532857Y-121837142D01*
X121509047Y-121741904D01*
X121509047Y-121670476D01*
X121532857Y-121575238D01*
X121556666Y-121527619D01*
X121604285Y-121480000D01*
X121675714Y-121456190D01*
X121723333Y-121456190D01*
X121794761Y-121480000D01*
X121818571Y-121503809D01*
X122294761Y-121956190D02*
X122009047Y-121956190D01*
X122151904Y-121956190D02*
X122151904Y-121456190D01*
X122104285Y-121527619D01*
X122056666Y-121575238D01*
X122009047Y-121599047D01*
X122580476Y-121670476D02*
X122532857Y-121646666D01*
X122509047Y-121622857D01*
X122485238Y-121575238D01*
X122485238Y-121551428D01*
X122509047Y-121503809D01*
X122532857Y-121480000D01*
X122580476Y-121456190D01*
X122675714Y-121456190D01*
X122723333Y-121480000D01*
X122747142Y-121503809D01*
X122770952Y-121551428D01*
X122770952Y-121575238D01*
X122747142Y-121622857D01*
X122723333Y-121646666D01*
X122675714Y-121670476D01*
X122580476Y-121670476D01*
X122532857Y-121694285D01*
X122509047Y-121718095D01*
X122485238Y-121765714D01*
X122485238Y-121860952D01*
X122509047Y-121908571D01*
X122532857Y-121932380D01*
X122580476Y-121956190D01*
X122675714Y-121956190D01*
X122723333Y-121932380D01*
X122747142Y-121908571D01*
X122770952Y-121860952D01*
X122770952Y-121765714D01*
X122747142Y-121718095D01*
X122723333Y-121694285D01*
X122675714Y-121670476D01*
%TO.C,C19*%
X135157761Y-134454556D02*
X135143531Y-134485073D01*
X135084554Y-134531876D01*
X135039806Y-134548163D01*
X134964542Y-134550219D01*
X134903508Y-134521759D01*
X134864848Y-134485155D01*
X134809901Y-134403804D01*
X134785471Y-134336683D01*
X134775271Y-134239045D01*
X134781358Y-134186154D01*
X134809819Y-134125120D01*
X134868796Y-134078317D01*
X134913544Y-134062030D01*
X134988808Y-134059974D01*
X135019325Y-134074204D01*
X135621521Y-134336436D02*
X135353037Y-134434156D01*
X135487279Y-134385296D02*
X135316269Y-133915450D01*
X135295952Y-133998858D01*
X135267491Y-134059892D01*
X135230887Y-134098552D01*
X135845257Y-134255003D02*
X135934752Y-134222430D01*
X135971356Y-134183769D01*
X135985586Y-134153252D01*
X136005903Y-134069845D01*
X135995703Y-133972207D01*
X135930557Y-133793218D01*
X135891896Y-133756614D01*
X135861379Y-133742384D01*
X135808489Y-133736297D01*
X135718994Y-133768870D01*
X135682390Y-133807530D01*
X135668160Y-133838047D01*
X135662073Y-133890938D01*
X135702790Y-134002806D01*
X135741450Y-134039410D01*
X135771967Y-134053640D01*
X135824858Y-134059727D01*
X135914352Y-134027154D01*
X135950956Y-133988494D01*
X135965186Y-133957977D01*
X135971273Y-133905086D01*
%TO.C,C20*%
X124288571Y-127281428D02*
X124312380Y-127305238D01*
X124336190Y-127376666D01*
X124336190Y-127424285D01*
X124312380Y-127495714D01*
X124264761Y-127543333D01*
X124217142Y-127567142D01*
X124121904Y-127590952D01*
X124050476Y-127590952D01*
X123955238Y-127567142D01*
X123907619Y-127543333D01*
X123860000Y-127495714D01*
X123836190Y-127424285D01*
X123836190Y-127376666D01*
X123860000Y-127305238D01*
X123883809Y-127281428D01*
X123883809Y-127090952D02*
X123860000Y-127067142D01*
X123836190Y-127019523D01*
X123836190Y-126900476D01*
X123860000Y-126852857D01*
X123883809Y-126829047D01*
X123931428Y-126805238D01*
X123979047Y-126805238D01*
X124050476Y-126829047D01*
X124336190Y-127114761D01*
X124336190Y-126805238D01*
X123836190Y-126495714D02*
X123836190Y-126448095D01*
X123860000Y-126400476D01*
X123883809Y-126376666D01*
X123931428Y-126352857D01*
X124026666Y-126329047D01*
X124145714Y-126329047D01*
X124240952Y-126352857D01*
X124288571Y-126376666D01*
X124312380Y-126400476D01*
X124336190Y-126448095D01*
X124336190Y-126495714D01*
X124312380Y-126543333D01*
X124288571Y-126567142D01*
X124240952Y-126590952D01*
X124145714Y-126614761D01*
X124026666Y-126614761D01*
X123931428Y-126590952D01*
X123883809Y-126567142D01*
X123860000Y-126543333D01*
X123836190Y-126495714D01*
%TO.C,C21*%
X149098571Y-139228571D02*
X149074761Y-139252380D01*
X149003333Y-139276190D01*
X148955714Y-139276190D01*
X148884285Y-139252380D01*
X148836666Y-139204761D01*
X148812857Y-139157142D01*
X148789047Y-139061904D01*
X148789047Y-138990476D01*
X148812857Y-138895238D01*
X148836666Y-138847619D01*
X148884285Y-138800000D01*
X148955714Y-138776190D01*
X149003333Y-138776190D01*
X149074761Y-138800000D01*
X149098571Y-138823809D01*
X149289047Y-138823809D02*
X149312857Y-138800000D01*
X149360476Y-138776190D01*
X149479523Y-138776190D01*
X149527142Y-138800000D01*
X149550952Y-138823809D01*
X149574761Y-138871428D01*
X149574761Y-138919047D01*
X149550952Y-138990476D01*
X149265238Y-139276190D01*
X149574761Y-139276190D01*
X150050952Y-139276190D02*
X149765238Y-139276190D01*
X149908095Y-139276190D02*
X149908095Y-138776190D01*
X149860476Y-138847619D01*
X149812857Y-138895238D01*
X149765238Y-138919047D01*
%TO.C,C22*%
X183358571Y-122018571D02*
X183334761Y-122042380D01*
X183263333Y-122066190D01*
X183215714Y-122066190D01*
X183144285Y-122042380D01*
X183096666Y-121994761D01*
X183072857Y-121947142D01*
X183049047Y-121851904D01*
X183049047Y-121780476D01*
X183072857Y-121685238D01*
X183096666Y-121637619D01*
X183144285Y-121590000D01*
X183215714Y-121566190D01*
X183263333Y-121566190D01*
X183334761Y-121590000D01*
X183358571Y-121613809D01*
X183549047Y-121613809D02*
X183572857Y-121590000D01*
X183620476Y-121566190D01*
X183739523Y-121566190D01*
X183787142Y-121590000D01*
X183810952Y-121613809D01*
X183834761Y-121661428D01*
X183834761Y-121709047D01*
X183810952Y-121780476D01*
X183525238Y-122066190D01*
X183834761Y-122066190D01*
X184025238Y-121613809D02*
X184049047Y-121590000D01*
X184096666Y-121566190D01*
X184215714Y-121566190D01*
X184263333Y-121590000D01*
X184287142Y-121613809D01*
X184310952Y-121661428D01*
X184310952Y-121709047D01*
X184287142Y-121780476D01*
X184001428Y-122066190D01*
X184310952Y-122066190D01*
%TO.C,C23*%
X181869995Y-138547758D02*
X181903155Y-138553605D01*
X181963628Y-138598459D01*
X181990941Y-138637467D01*
X182012407Y-138709634D01*
X182000713Y-138775954D01*
X181975363Y-138822771D01*
X181911005Y-138896901D01*
X181852494Y-138937871D01*
X181760823Y-138972994D01*
X181708159Y-138980803D01*
X181641839Y-138969109D01*
X181581365Y-138924255D01*
X181554052Y-138885248D01*
X181532586Y-138813080D01*
X181538433Y-138779920D01*
X181429180Y-138623891D02*
X181396020Y-138618044D01*
X181349203Y-138592693D01*
X181280920Y-138495175D01*
X181273111Y-138442511D01*
X181278958Y-138409351D01*
X181304309Y-138362534D01*
X181343316Y-138335221D01*
X181415483Y-138313755D01*
X181813406Y-138383920D01*
X181635870Y-138130372D01*
X181130698Y-138280635D02*
X180953162Y-138027088D01*
X181204787Y-138054361D01*
X181163818Y-137995850D01*
X181156008Y-137943186D01*
X181161855Y-137910026D01*
X181187206Y-137863209D01*
X181284724Y-137794926D01*
X181337388Y-137787117D01*
X181370548Y-137792964D01*
X181417365Y-137818315D01*
X181499304Y-137935336D01*
X181507114Y-137988000D01*
X181501267Y-138021160D01*
%TO.C,C24*%
X161028571Y-120071428D02*
X161052380Y-120095238D01*
X161076190Y-120166666D01*
X161076190Y-120214285D01*
X161052380Y-120285714D01*
X161004761Y-120333333D01*
X160957142Y-120357142D01*
X160861904Y-120380952D01*
X160790476Y-120380952D01*
X160695238Y-120357142D01*
X160647619Y-120333333D01*
X160600000Y-120285714D01*
X160576190Y-120214285D01*
X160576190Y-120166666D01*
X160600000Y-120095238D01*
X160623809Y-120071428D01*
X160623809Y-119880952D02*
X160600000Y-119857142D01*
X160576190Y-119809523D01*
X160576190Y-119690476D01*
X160600000Y-119642857D01*
X160623809Y-119619047D01*
X160671428Y-119595238D01*
X160719047Y-119595238D01*
X160790476Y-119619047D01*
X161076190Y-119904761D01*
X161076190Y-119595238D01*
X160742857Y-119166666D02*
X161076190Y-119166666D01*
X160552380Y-119285714D02*
X160909523Y-119404761D01*
X160909523Y-119095238D01*
%TO.C,C25*%
X160868571Y-123421428D02*
X160892380Y-123445238D01*
X160916190Y-123516666D01*
X160916190Y-123564285D01*
X160892380Y-123635714D01*
X160844761Y-123683333D01*
X160797142Y-123707142D01*
X160701904Y-123730952D01*
X160630476Y-123730952D01*
X160535238Y-123707142D01*
X160487619Y-123683333D01*
X160440000Y-123635714D01*
X160416190Y-123564285D01*
X160416190Y-123516666D01*
X160440000Y-123445238D01*
X160463809Y-123421428D01*
X160463809Y-123230952D02*
X160440000Y-123207142D01*
X160416190Y-123159523D01*
X160416190Y-123040476D01*
X160440000Y-122992857D01*
X160463809Y-122969047D01*
X160511428Y-122945238D01*
X160559047Y-122945238D01*
X160630476Y-122969047D01*
X160916190Y-123254761D01*
X160916190Y-122945238D01*
X160416190Y-122492857D02*
X160416190Y-122730952D01*
X160654285Y-122754761D01*
X160630476Y-122730952D01*
X160606666Y-122683333D01*
X160606666Y-122564285D01*
X160630476Y-122516666D01*
X160654285Y-122492857D01*
X160701904Y-122469047D01*
X160820952Y-122469047D01*
X160868571Y-122492857D01*
X160892380Y-122516666D01*
X160916190Y-122564285D01*
X160916190Y-122683333D01*
X160892380Y-122730952D01*
X160868571Y-122754761D01*
%TO.C,C26*%
X161098571Y-141251428D02*
X161122380Y-141275238D01*
X161146190Y-141346666D01*
X161146190Y-141394285D01*
X161122380Y-141465714D01*
X161074761Y-141513333D01*
X161027142Y-141537142D01*
X160931904Y-141560952D01*
X160860476Y-141560952D01*
X160765238Y-141537142D01*
X160717619Y-141513333D01*
X160670000Y-141465714D01*
X160646190Y-141394285D01*
X160646190Y-141346666D01*
X160670000Y-141275238D01*
X160693809Y-141251428D01*
X160693809Y-141060952D02*
X160670000Y-141037142D01*
X160646190Y-140989523D01*
X160646190Y-140870476D01*
X160670000Y-140822857D01*
X160693809Y-140799047D01*
X160741428Y-140775238D01*
X160789047Y-140775238D01*
X160860476Y-140799047D01*
X161146190Y-141084761D01*
X161146190Y-140775238D01*
X160646190Y-140346666D02*
X160646190Y-140441904D01*
X160670000Y-140489523D01*
X160693809Y-140513333D01*
X160765238Y-140560952D01*
X160860476Y-140584761D01*
X161050952Y-140584761D01*
X161098571Y-140560952D01*
X161122380Y-140537142D01*
X161146190Y-140489523D01*
X161146190Y-140394285D01*
X161122380Y-140346666D01*
X161098571Y-140322857D01*
X161050952Y-140299047D01*
X160931904Y-140299047D01*
X160884285Y-140322857D01*
X160860476Y-140346666D01*
X160836666Y-140394285D01*
X160836666Y-140489523D01*
X160860476Y-140537142D01*
X160884285Y-140560952D01*
X160931904Y-140584761D01*
%TO.C,C27*%
X214053571Y-64768571D02*
X214029761Y-64792380D01*
X213958333Y-64816190D01*
X213910714Y-64816190D01*
X213839285Y-64792380D01*
X213791666Y-64744761D01*
X213767857Y-64697142D01*
X213744047Y-64601904D01*
X213744047Y-64530476D01*
X213767857Y-64435238D01*
X213791666Y-64387619D01*
X213839285Y-64340000D01*
X213910714Y-64316190D01*
X213958333Y-64316190D01*
X214029761Y-64340000D01*
X214053571Y-64363809D01*
X214244047Y-64363809D02*
X214267857Y-64340000D01*
X214315476Y-64316190D01*
X214434523Y-64316190D01*
X214482142Y-64340000D01*
X214505952Y-64363809D01*
X214529761Y-64411428D01*
X214529761Y-64459047D01*
X214505952Y-64530476D01*
X214220238Y-64816190D01*
X214529761Y-64816190D01*
X214696428Y-64316190D02*
X215029761Y-64316190D01*
X214815476Y-64816190D01*
%TO.C,C28*%
X213324995Y-80817758D02*
X213358155Y-80823605D01*
X213418628Y-80868459D01*
X213445941Y-80907467D01*
X213467407Y-80979634D01*
X213455713Y-81045954D01*
X213430363Y-81092771D01*
X213366005Y-81166901D01*
X213307494Y-81207871D01*
X213215823Y-81242994D01*
X213163159Y-81250803D01*
X213096839Y-81239109D01*
X213036365Y-81194255D01*
X213009052Y-81155248D01*
X212987586Y-81083080D01*
X212993433Y-81049920D01*
X212884180Y-80893891D02*
X212851020Y-80888044D01*
X212804203Y-80862693D01*
X212735920Y-80765175D01*
X212728111Y-80712511D01*
X212733958Y-80679351D01*
X212759309Y-80632534D01*
X212798316Y-80605221D01*
X212870483Y-80583755D01*
X213268406Y-80653920D01*
X213090870Y-80400372D01*
X212692948Y-80330208D02*
X212700757Y-80382872D01*
X212694910Y-80416032D01*
X212669560Y-80462849D01*
X212650056Y-80476505D01*
X212597392Y-80484315D01*
X212564232Y-80478468D01*
X212517415Y-80453117D01*
X212462789Y-80375103D01*
X212454979Y-80322439D01*
X212460826Y-80289279D01*
X212486177Y-80242462D01*
X212505681Y-80228805D01*
X212558344Y-80220996D01*
X212591505Y-80226843D01*
X212638321Y-80252194D01*
X212692948Y-80330208D01*
X212739764Y-80355559D01*
X212772925Y-80361406D01*
X212825588Y-80353596D01*
X212903603Y-80298970D01*
X212928954Y-80252153D01*
X212934801Y-80218993D01*
X212926991Y-80166329D01*
X212872365Y-80088315D01*
X212825548Y-80062964D01*
X212792388Y-80057117D01*
X212739724Y-80064926D01*
X212661710Y-80119553D01*
X212636359Y-80166369D01*
X212630512Y-80199530D01*
X212638321Y-80252194D01*
%TO.C,C29*%
X200998571Y-67321428D02*
X201022380Y-67345238D01*
X201046190Y-67416666D01*
X201046190Y-67464285D01*
X201022380Y-67535714D01*
X200974761Y-67583333D01*
X200927142Y-67607142D01*
X200831904Y-67630952D01*
X200760476Y-67630952D01*
X200665238Y-67607142D01*
X200617619Y-67583333D01*
X200570000Y-67535714D01*
X200546190Y-67464285D01*
X200546190Y-67416666D01*
X200570000Y-67345238D01*
X200593809Y-67321428D01*
X200593809Y-67130952D02*
X200570000Y-67107142D01*
X200546190Y-67059523D01*
X200546190Y-66940476D01*
X200570000Y-66892857D01*
X200593809Y-66869047D01*
X200641428Y-66845238D01*
X200689047Y-66845238D01*
X200760476Y-66869047D01*
X201046190Y-67154761D01*
X201046190Y-66845238D01*
X201046190Y-66607142D02*
X201046190Y-66511904D01*
X201022380Y-66464285D01*
X200998571Y-66440476D01*
X200927142Y-66392857D01*
X200831904Y-66369047D01*
X200641428Y-66369047D01*
X200593809Y-66392857D01*
X200570000Y-66416666D01*
X200546190Y-66464285D01*
X200546190Y-66559523D01*
X200570000Y-66607142D01*
X200593809Y-66630952D01*
X200641428Y-66654761D01*
X200760476Y-66654761D01*
X200808095Y-66630952D01*
X200831904Y-66607142D01*
X200855714Y-66559523D01*
X200855714Y-66464285D01*
X200831904Y-66416666D01*
X200808095Y-66392857D01*
X200760476Y-66369047D01*
%TO.C,C30*%
X186608571Y-78768571D02*
X186584761Y-78792380D01*
X186513333Y-78816190D01*
X186465714Y-78816190D01*
X186394285Y-78792380D01*
X186346666Y-78744761D01*
X186322857Y-78697142D01*
X186299047Y-78601904D01*
X186299047Y-78530476D01*
X186322857Y-78435238D01*
X186346666Y-78387619D01*
X186394285Y-78340000D01*
X186465714Y-78316190D01*
X186513333Y-78316190D01*
X186584761Y-78340000D01*
X186608571Y-78363809D01*
X186775238Y-78316190D02*
X187084761Y-78316190D01*
X186918095Y-78506666D01*
X186989523Y-78506666D01*
X187037142Y-78530476D01*
X187060952Y-78554285D01*
X187084761Y-78601904D01*
X187084761Y-78720952D01*
X187060952Y-78768571D01*
X187037142Y-78792380D01*
X186989523Y-78816190D01*
X186846666Y-78816190D01*
X186799047Y-78792380D01*
X186775238Y-78768571D01*
X187394285Y-78316190D02*
X187441904Y-78316190D01*
X187489523Y-78340000D01*
X187513333Y-78363809D01*
X187537142Y-78411428D01*
X187560952Y-78506666D01*
X187560952Y-78625714D01*
X187537142Y-78720952D01*
X187513333Y-78768571D01*
X187489523Y-78792380D01*
X187441904Y-78816190D01*
X187394285Y-78816190D01*
X187346666Y-78792380D01*
X187322857Y-78768571D01*
X187299047Y-78720952D01*
X187275238Y-78625714D01*
X187275238Y-78506666D01*
X187299047Y-78411428D01*
X187322857Y-78363809D01*
X187346666Y-78340000D01*
X187394285Y-78316190D01*
%TO.C,C31*%
X190158571Y-84201428D02*
X190182380Y-84225238D01*
X190206190Y-84296666D01*
X190206190Y-84344285D01*
X190182380Y-84415714D01*
X190134761Y-84463333D01*
X190087142Y-84487142D01*
X189991904Y-84510952D01*
X189920476Y-84510952D01*
X189825238Y-84487142D01*
X189777619Y-84463333D01*
X189730000Y-84415714D01*
X189706190Y-84344285D01*
X189706190Y-84296666D01*
X189730000Y-84225238D01*
X189753809Y-84201428D01*
X189706190Y-84034761D02*
X189706190Y-83725238D01*
X189896666Y-83891904D01*
X189896666Y-83820476D01*
X189920476Y-83772857D01*
X189944285Y-83749047D01*
X189991904Y-83725238D01*
X190110952Y-83725238D01*
X190158571Y-83749047D01*
X190182380Y-83772857D01*
X190206190Y-83820476D01*
X190206190Y-83963333D01*
X190182380Y-84010952D01*
X190158571Y-84034761D01*
X190206190Y-83249047D02*
X190206190Y-83534761D01*
X190206190Y-83391904D02*
X189706190Y-83391904D01*
X189777619Y-83439523D01*
X189825238Y-83487142D01*
X189849047Y-83534761D01*
%TO.C,C32*%
X183258571Y-79778571D02*
X183234761Y-79802380D01*
X183163333Y-79826190D01*
X183115714Y-79826190D01*
X183044285Y-79802380D01*
X182996666Y-79754761D01*
X182972857Y-79707142D01*
X182949047Y-79611904D01*
X182949047Y-79540476D01*
X182972857Y-79445238D01*
X182996666Y-79397619D01*
X183044285Y-79350000D01*
X183115714Y-79326190D01*
X183163333Y-79326190D01*
X183234761Y-79350000D01*
X183258571Y-79373809D01*
X183425238Y-79326190D02*
X183734761Y-79326190D01*
X183568095Y-79516666D01*
X183639523Y-79516666D01*
X183687142Y-79540476D01*
X183710952Y-79564285D01*
X183734761Y-79611904D01*
X183734761Y-79730952D01*
X183710952Y-79778571D01*
X183687142Y-79802380D01*
X183639523Y-79826190D01*
X183496666Y-79826190D01*
X183449047Y-79802380D01*
X183425238Y-79778571D01*
X183925238Y-79373809D02*
X183949047Y-79350000D01*
X183996666Y-79326190D01*
X184115714Y-79326190D01*
X184163333Y-79350000D01*
X184187142Y-79373809D01*
X184210952Y-79421428D01*
X184210952Y-79469047D01*
X184187142Y-79540476D01*
X183901428Y-79826190D01*
X184210952Y-79826190D01*
%TO.C,C33*%
X179848571Y-79778571D02*
X179824761Y-79802380D01*
X179753333Y-79826190D01*
X179705714Y-79826190D01*
X179634285Y-79802380D01*
X179586666Y-79754761D01*
X179562857Y-79707142D01*
X179539047Y-79611904D01*
X179539047Y-79540476D01*
X179562857Y-79445238D01*
X179586666Y-79397619D01*
X179634285Y-79350000D01*
X179705714Y-79326190D01*
X179753333Y-79326190D01*
X179824761Y-79350000D01*
X179848571Y-79373809D01*
X180015238Y-79326190D02*
X180324761Y-79326190D01*
X180158095Y-79516666D01*
X180229523Y-79516666D01*
X180277142Y-79540476D01*
X180300952Y-79564285D01*
X180324761Y-79611904D01*
X180324761Y-79730952D01*
X180300952Y-79778571D01*
X180277142Y-79802380D01*
X180229523Y-79826190D01*
X180086666Y-79826190D01*
X180039047Y-79802380D01*
X180015238Y-79778571D01*
X180491428Y-79326190D02*
X180800952Y-79326190D01*
X180634285Y-79516666D01*
X180705714Y-79516666D01*
X180753333Y-79540476D01*
X180777142Y-79564285D01*
X180800952Y-79611904D01*
X180800952Y-79730952D01*
X180777142Y-79778571D01*
X180753333Y-79802380D01*
X180705714Y-79826190D01*
X180562857Y-79826190D01*
X180515238Y-79802380D01*
X180491428Y-79778571D01*
%TO.C,C34*%
X195283502Y-103753066D02*
X195317174Y-103753066D01*
X195384517Y-103786738D01*
X195418189Y-103820409D01*
X195451861Y-103887753D01*
X195451861Y-103955096D01*
X195435025Y-104005604D01*
X195384517Y-104089783D01*
X195334010Y-104140291D01*
X195249830Y-104190799D01*
X195199323Y-104207634D01*
X195131979Y-104207634D01*
X195064636Y-104173963D01*
X195030964Y-104140291D01*
X194997292Y-104072947D01*
X194997292Y-104039276D01*
X194845769Y-103955096D02*
X194626903Y-103736230D01*
X194879441Y-103719394D01*
X194828933Y-103668886D01*
X194812097Y-103618379D01*
X194812097Y-103584707D01*
X194828933Y-103534199D01*
X194913113Y-103450020D01*
X194963620Y-103433184D01*
X194997292Y-103433184D01*
X195047800Y-103450020D01*
X195148815Y-103551035D01*
X195165651Y-103601543D01*
X195165651Y-103635215D01*
X194441708Y-103315333D02*
X194677410Y-103079631D01*
X194391200Y-103534199D02*
X194727918Y-103365841D01*
X194509052Y-103146974D01*
%TO.C,C35*%
X192288571Y-125608571D02*
X192264761Y-125632380D01*
X192193333Y-125656190D01*
X192145714Y-125656190D01*
X192074285Y-125632380D01*
X192026666Y-125584761D01*
X192002857Y-125537142D01*
X191979047Y-125441904D01*
X191979047Y-125370476D01*
X192002857Y-125275238D01*
X192026666Y-125227619D01*
X192074285Y-125180000D01*
X192145714Y-125156190D01*
X192193333Y-125156190D01*
X192264761Y-125180000D01*
X192288571Y-125203809D01*
X192455238Y-125156190D02*
X192764761Y-125156190D01*
X192598095Y-125346666D01*
X192669523Y-125346666D01*
X192717142Y-125370476D01*
X192740952Y-125394285D01*
X192764761Y-125441904D01*
X192764761Y-125560952D01*
X192740952Y-125608571D01*
X192717142Y-125632380D01*
X192669523Y-125656190D01*
X192526666Y-125656190D01*
X192479047Y-125632380D01*
X192455238Y-125608571D01*
X193217142Y-125156190D02*
X192979047Y-125156190D01*
X192955238Y-125394285D01*
X192979047Y-125370476D01*
X193026666Y-125346666D01*
X193145714Y-125346666D01*
X193193333Y-125370476D01*
X193217142Y-125394285D01*
X193240952Y-125441904D01*
X193240952Y-125560952D01*
X193217142Y-125608571D01*
X193193333Y-125632380D01*
X193145714Y-125656190D01*
X193026666Y-125656190D01*
X192979047Y-125632380D01*
X192955238Y-125608571D01*
%TO.C,C36*%
X195678571Y-125528571D02*
X195654761Y-125552380D01*
X195583333Y-125576190D01*
X195535714Y-125576190D01*
X195464285Y-125552380D01*
X195416666Y-125504761D01*
X195392857Y-125457142D01*
X195369047Y-125361904D01*
X195369047Y-125290476D01*
X195392857Y-125195238D01*
X195416666Y-125147619D01*
X195464285Y-125100000D01*
X195535714Y-125076190D01*
X195583333Y-125076190D01*
X195654761Y-125100000D01*
X195678571Y-125123809D01*
X195845238Y-125076190D02*
X196154761Y-125076190D01*
X195988095Y-125266666D01*
X196059523Y-125266666D01*
X196107142Y-125290476D01*
X196130952Y-125314285D01*
X196154761Y-125361904D01*
X196154761Y-125480952D01*
X196130952Y-125528571D01*
X196107142Y-125552380D01*
X196059523Y-125576190D01*
X195916666Y-125576190D01*
X195869047Y-125552380D01*
X195845238Y-125528571D01*
X196583333Y-125076190D02*
X196488095Y-125076190D01*
X196440476Y-125100000D01*
X196416666Y-125123809D01*
X196369047Y-125195238D01*
X196345238Y-125290476D01*
X196345238Y-125480952D01*
X196369047Y-125528571D01*
X196392857Y-125552380D01*
X196440476Y-125576190D01*
X196535714Y-125576190D01*
X196583333Y-125552380D01*
X196607142Y-125528571D01*
X196630952Y-125480952D01*
X196630952Y-125361904D01*
X196607142Y-125314285D01*
X196583333Y-125290476D01*
X196535714Y-125266666D01*
X196440476Y-125266666D01*
X196392857Y-125290476D01*
X196369047Y-125314285D01*
X196345238Y-125361904D01*
%TO.C,C37*%
X194618571Y-133419428D02*
X194642380Y-133443238D01*
X194666190Y-133514666D01*
X194666190Y-133562285D01*
X194642380Y-133633714D01*
X194594761Y-133681333D01*
X194547142Y-133705142D01*
X194451904Y-133728952D01*
X194380476Y-133728952D01*
X194285238Y-133705142D01*
X194237619Y-133681333D01*
X194190000Y-133633714D01*
X194166190Y-133562285D01*
X194166190Y-133514666D01*
X194190000Y-133443238D01*
X194213809Y-133419428D01*
X194166190Y-133252761D02*
X194166190Y-132943238D01*
X194356666Y-133109904D01*
X194356666Y-133038476D01*
X194380476Y-132990857D01*
X194404285Y-132967047D01*
X194451904Y-132943238D01*
X194570952Y-132943238D01*
X194618571Y-132967047D01*
X194642380Y-132990857D01*
X194666190Y-133038476D01*
X194666190Y-133181333D01*
X194642380Y-133228952D01*
X194618571Y-133252761D01*
X194166190Y-132776571D02*
X194166190Y-132443238D01*
X194666190Y-132657523D01*
%TO.C,C38*%
X196150571Y-138610571D02*
X196126761Y-138634380D01*
X196055333Y-138658190D01*
X196007714Y-138658190D01*
X195936285Y-138634380D01*
X195888666Y-138586761D01*
X195864857Y-138539142D01*
X195841047Y-138443904D01*
X195841047Y-138372476D01*
X195864857Y-138277238D01*
X195888666Y-138229619D01*
X195936285Y-138182000D01*
X196007714Y-138158190D01*
X196055333Y-138158190D01*
X196126761Y-138182000D01*
X196150571Y-138205809D01*
X196317238Y-138158190D02*
X196626761Y-138158190D01*
X196460095Y-138348666D01*
X196531523Y-138348666D01*
X196579142Y-138372476D01*
X196602952Y-138396285D01*
X196626761Y-138443904D01*
X196626761Y-138562952D01*
X196602952Y-138610571D01*
X196579142Y-138634380D01*
X196531523Y-138658190D01*
X196388666Y-138658190D01*
X196341047Y-138634380D01*
X196317238Y-138610571D01*
X196912476Y-138372476D02*
X196864857Y-138348666D01*
X196841047Y-138324857D01*
X196817238Y-138277238D01*
X196817238Y-138253428D01*
X196841047Y-138205809D01*
X196864857Y-138182000D01*
X196912476Y-138158190D01*
X197007714Y-138158190D01*
X197055333Y-138182000D01*
X197079142Y-138205809D01*
X197102952Y-138253428D01*
X197102952Y-138277238D01*
X197079142Y-138324857D01*
X197055333Y-138348666D01*
X197007714Y-138372476D01*
X196912476Y-138372476D01*
X196864857Y-138396285D01*
X196841047Y-138420095D01*
X196817238Y-138467714D01*
X196817238Y-138562952D01*
X196841047Y-138610571D01*
X196864857Y-138634380D01*
X196912476Y-138658190D01*
X197007714Y-138658190D01*
X197055333Y-138634380D01*
X197079142Y-138610571D01*
X197102952Y-138562952D01*
X197102952Y-138467714D01*
X197079142Y-138420095D01*
X197055333Y-138396285D01*
X197007714Y-138372476D01*
%TO.C,C39*%
X192594571Y-138610571D02*
X192570761Y-138634380D01*
X192499333Y-138658190D01*
X192451714Y-138658190D01*
X192380285Y-138634380D01*
X192332666Y-138586761D01*
X192308857Y-138539142D01*
X192285047Y-138443904D01*
X192285047Y-138372476D01*
X192308857Y-138277238D01*
X192332666Y-138229619D01*
X192380285Y-138182000D01*
X192451714Y-138158190D01*
X192499333Y-138158190D01*
X192570761Y-138182000D01*
X192594571Y-138205809D01*
X192761238Y-138158190D02*
X193070761Y-138158190D01*
X192904095Y-138348666D01*
X192975523Y-138348666D01*
X193023142Y-138372476D01*
X193046952Y-138396285D01*
X193070761Y-138443904D01*
X193070761Y-138562952D01*
X193046952Y-138610571D01*
X193023142Y-138634380D01*
X192975523Y-138658190D01*
X192832666Y-138658190D01*
X192785047Y-138634380D01*
X192761238Y-138610571D01*
X193308857Y-138658190D02*
X193404095Y-138658190D01*
X193451714Y-138634380D01*
X193475523Y-138610571D01*
X193523142Y-138539142D01*
X193546952Y-138443904D01*
X193546952Y-138253428D01*
X193523142Y-138205809D01*
X193499333Y-138182000D01*
X193451714Y-138158190D01*
X193356476Y-138158190D01*
X193308857Y-138182000D01*
X193285047Y-138205809D01*
X193261238Y-138253428D01*
X193261238Y-138372476D01*
X193285047Y-138420095D01*
X193308857Y-138443904D01*
X193356476Y-138467714D01*
X193451714Y-138467714D01*
X193499333Y-138443904D01*
X193523142Y-138420095D01*
X193546952Y-138372476D01*
%TO.C,C40*%
X212248571Y-141541428D02*
X212272380Y-141565238D01*
X212296190Y-141636666D01*
X212296190Y-141684285D01*
X212272380Y-141755714D01*
X212224761Y-141803333D01*
X212177142Y-141827142D01*
X212081904Y-141850952D01*
X212010476Y-141850952D01*
X211915238Y-141827142D01*
X211867619Y-141803333D01*
X211820000Y-141755714D01*
X211796190Y-141684285D01*
X211796190Y-141636666D01*
X211820000Y-141565238D01*
X211843809Y-141541428D01*
X211962857Y-141112857D02*
X212296190Y-141112857D01*
X211772380Y-141231904D02*
X212129523Y-141350952D01*
X212129523Y-141041428D01*
X211796190Y-140755714D02*
X211796190Y-140708095D01*
X211820000Y-140660476D01*
X211843809Y-140636666D01*
X211891428Y-140612857D01*
X211986666Y-140589047D01*
X212105714Y-140589047D01*
X212200952Y-140612857D01*
X212248571Y-140636666D01*
X212272380Y-140660476D01*
X212296190Y-140708095D01*
X212296190Y-140755714D01*
X212272380Y-140803333D01*
X212248571Y-140827142D01*
X212200952Y-140850952D01*
X212105714Y-140874761D01*
X211986666Y-140874761D01*
X211891428Y-140850952D01*
X211843809Y-140827142D01*
X211820000Y-140803333D01*
X211796190Y-140755714D01*
%TO.C,C41*%
X213838571Y-133018571D02*
X213814761Y-133042380D01*
X213743333Y-133066190D01*
X213695714Y-133066190D01*
X213624285Y-133042380D01*
X213576666Y-132994761D01*
X213552857Y-132947142D01*
X213529047Y-132851904D01*
X213529047Y-132780476D01*
X213552857Y-132685238D01*
X213576666Y-132637619D01*
X213624285Y-132590000D01*
X213695714Y-132566190D01*
X213743333Y-132566190D01*
X213814761Y-132590000D01*
X213838571Y-132613809D01*
X214267142Y-132732857D02*
X214267142Y-133066190D01*
X214148095Y-132542380D02*
X214029047Y-132899523D01*
X214338571Y-132899523D01*
X214790952Y-133066190D02*
X214505238Y-133066190D01*
X214648095Y-133066190D02*
X214648095Y-132566190D01*
X214600476Y-132637619D01*
X214552857Y-132685238D01*
X214505238Y-132709047D01*
%TO.C,C42*%
X213948571Y-125548571D02*
X213924761Y-125572380D01*
X213853333Y-125596190D01*
X213805714Y-125596190D01*
X213734285Y-125572380D01*
X213686666Y-125524761D01*
X213662857Y-125477142D01*
X213639047Y-125381904D01*
X213639047Y-125310476D01*
X213662857Y-125215238D01*
X213686666Y-125167619D01*
X213734285Y-125120000D01*
X213805714Y-125096190D01*
X213853333Y-125096190D01*
X213924761Y-125120000D01*
X213948571Y-125143809D01*
X214377142Y-125262857D02*
X214377142Y-125596190D01*
X214258095Y-125072380D02*
X214139047Y-125429523D01*
X214448571Y-125429523D01*
X214615238Y-125143809D02*
X214639047Y-125120000D01*
X214686666Y-125096190D01*
X214805714Y-125096190D01*
X214853333Y-125120000D01*
X214877142Y-125143809D01*
X214900952Y-125191428D01*
X214900952Y-125239047D01*
X214877142Y-125310476D01*
X214591428Y-125596190D01*
X214900952Y-125596190D01*
D14*
%TO.C,J13*%
X125262380Y-69634523D02*
X125976666Y-69634523D01*
X126119523Y-69682142D01*
X126214761Y-69777380D01*
X126262380Y-69920238D01*
X126262380Y-70015476D01*
X126262380Y-68634523D02*
X126262380Y-69205952D01*
X126262380Y-68920238D02*
X125262380Y-68920238D01*
X125405238Y-69015476D01*
X125500476Y-69110714D01*
X125548095Y-69205952D01*
X125262380Y-68301190D02*
X125262380Y-67682142D01*
X125643333Y-68015476D01*
X125643333Y-67872619D01*
X125690952Y-67777380D01*
X125738571Y-67729761D01*
X125833809Y-67682142D01*
X126071904Y-67682142D01*
X126167142Y-67729761D01*
X126214761Y-67777380D01*
X126262380Y-67872619D01*
X126262380Y-68158333D01*
X126214761Y-68253571D01*
X126167142Y-68301190D01*
%TO.C,J16*%
X163365476Y-66262380D02*
X163365476Y-66976666D01*
X163317857Y-67119523D01*
X163222619Y-67214761D01*
X163079761Y-67262380D01*
X162984523Y-67262380D01*
X164365476Y-67262380D02*
X163794047Y-67262380D01*
X164079761Y-67262380D02*
X164079761Y-66262380D01*
X163984523Y-66405238D01*
X163889285Y-66500476D01*
X163794047Y-66548095D01*
X165222619Y-66262380D02*
X165032142Y-66262380D01*
X164936904Y-66310000D01*
X164889285Y-66357619D01*
X164794047Y-66500476D01*
X164746428Y-66690952D01*
X164746428Y-67071904D01*
X164794047Y-67167142D01*
X164841666Y-67214761D01*
X164936904Y-67262380D01*
X165127380Y-67262380D01*
X165222619Y-67214761D01*
X165270238Y-67167142D01*
X165317857Y-67071904D01*
X165317857Y-66833809D01*
X165270238Y-66738571D01*
X165222619Y-66690952D01*
X165127380Y-66643333D01*
X164936904Y-66643333D01*
X164841666Y-66690952D01*
X164794047Y-66738571D01*
X164746428Y-66833809D01*
%TO.C,J1*%
X133816666Y-108672380D02*
X133816666Y-109386666D01*
X133769047Y-109529523D01*
X133673809Y-109624761D01*
X133530952Y-109672380D01*
X133435714Y-109672380D01*
X134816666Y-109672380D02*
X134245238Y-109672380D01*
X134530952Y-109672380D02*
X134530952Y-108672380D01*
X134435714Y-108815238D01*
X134340476Y-108910476D01*
X134245238Y-108958095D01*
%TO.C,J2*%
X143552380Y-90763333D02*
X144266666Y-90763333D01*
X144409523Y-90810952D01*
X144504761Y-90906190D01*
X144552380Y-91049047D01*
X144552380Y-91144285D01*
X143647619Y-90334761D02*
X143600000Y-90287142D01*
X143552380Y-90191904D01*
X143552380Y-89953809D01*
X143600000Y-89858571D01*
X143647619Y-89810952D01*
X143742857Y-89763333D01*
X143838095Y-89763333D01*
X143980952Y-89810952D01*
X144552380Y-90382380D01*
X144552380Y-89763333D01*
%TO.C,J3*%
X178462380Y-90603333D02*
X179176666Y-90603333D01*
X179319523Y-90650952D01*
X179414761Y-90746190D01*
X179462380Y-90889047D01*
X179462380Y-90984285D01*
X178462380Y-90222380D02*
X178462380Y-89603333D01*
X178843333Y-89936666D01*
X178843333Y-89793809D01*
X178890952Y-89698571D01*
X178938571Y-89650952D01*
X179033809Y-89603333D01*
X179271904Y-89603333D01*
X179367142Y-89650952D01*
X179414761Y-89698571D01*
X179462380Y-89793809D01*
X179462380Y-90079523D01*
X179414761Y-90174761D01*
X179367142Y-90222380D01*
%TO.C,J4*%
X169596666Y-108852380D02*
X169596666Y-109566666D01*
X169549047Y-109709523D01*
X169453809Y-109804761D01*
X169310952Y-109852380D01*
X169215714Y-109852380D01*
X170501428Y-109185714D02*
X170501428Y-109852380D01*
X170263333Y-108804761D02*
X170025238Y-109519047D01*
X170644285Y-109519047D01*
%TO.C,J5*%
X144262380Y-119943333D02*
X144976666Y-119943333D01*
X145119523Y-119990952D01*
X145214761Y-120086190D01*
X145262380Y-120229047D01*
X145262380Y-120324285D01*
X144262380Y-118990952D02*
X144262380Y-119467142D01*
X144738571Y-119514761D01*
X144690952Y-119467142D01*
X144643333Y-119371904D01*
X144643333Y-119133809D01*
X144690952Y-119038571D01*
X144738571Y-118990952D01*
X144833809Y-118943333D01*
X145071904Y-118943333D01*
X145167142Y-118990952D01*
X145214761Y-119038571D01*
X145262380Y-119133809D01*
X145262380Y-119371904D01*
X145214761Y-119467142D01*
X145167142Y-119514761D01*
%TO.C,J6*%
X133776666Y-137952380D02*
X133776666Y-138666666D01*
X133729047Y-138809523D01*
X133633809Y-138904761D01*
X133490952Y-138952380D01*
X133395714Y-138952380D01*
X134681428Y-137952380D02*
X134490952Y-137952380D01*
X134395714Y-138000000D01*
X134348095Y-138047619D01*
X134252857Y-138190476D01*
X134205238Y-138380952D01*
X134205238Y-138761904D01*
X134252857Y-138857142D01*
X134300476Y-138904761D01*
X134395714Y-138952380D01*
X134586190Y-138952380D01*
X134681428Y-138904761D01*
X134729047Y-138857142D01*
X134776666Y-138761904D01*
X134776666Y-138523809D01*
X134729047Y-138428571D01*
X134681428Y-138380952D01*
X134586190Y-138333333D01*
X134395714Y-138333333D01*
X134300476Y-138380952D01*
X134252857Y-138428571D01*
X134205238Y-138523809D01*
%TO.C,J7*%
X178522380Y-119663333D02*
X179236666Y-119663333D01*
X179379523Y-119710952D01*
X179474761Y-119806190D01*
X179522380Y-119949047D01*
X179522380Y-120044285D01*
X178522380Y-119282380D02*
X178522380Y-118615714D01*
X179522380Y-119044285D01*
%TO.C,J8*%
X164762380Y-141303333D02*
X165476666Y-141303333D01*
X165619523Y-141350952D01*
X165714761Y-141446190D01*
X165762380Y-141589047D01*
X165762380Y-141684285D01*
X165190952Y-140684285D02*
X165143333Y-140779523D01*
X165095714Y-140827142D01*
X165000476Y-140874761D01*
X164952857Y-140874761D01*
X164857619Y-140827142D01*
X164810000Y-140779523D01*
X164762380Y-140684285D01*
X164762380Y-140493809D01*
X164810000Y-140398571D01*
X164857619Y-140350952D01*
X164952857Y-140303333D01*
X165000476Y-140303333D01*
X165095714Y-140350952D01*
X165143333Y-140398571D01*
X165190952Y-140493809D01*
X165190952Y-140684285D01*
X165238571Y-140779523D01*
X165286190Y-140827142D01*
X165381428Y-140874761D01*
X165571904Y-140874761D01*
X165667142Y-140827142D01*
X165714761Y-140779523D01*
X165762380Y-140684285D01*
X165762380Y-140493809D01*
X165714761Y-140398571D01*
X165667142Y-140350952D01*
X165571904Y-140303333D01*
X165381428Y-140303333D01*
X165286190Y-140350952D01*
X165238571Y-140398571D01*
X165190952Y-140493809D01*
%TO.C,J9*%
X210477380Y-62708333D02*
X211191666Y-62708333D01*
X211334523Y-62755952D01*
X211429761Y-62851190D01*
X211477380Y-62994047D01*
X211477380Y-63089285D01*
X211477380Y-62184523D02*
X211477380Y-61994047D01*
X211429761Y-61898809D01*
X211382142Y-61851190D01*
X211239285Y-61755952D01*
X211048809Y-61708333D01*
X210667857Y-61708333D01*
X210572619Y-61755952D01*
X210525000Y-61803571D01*
X210477380Y-61898809D01*
X210477380Y-62089285D01*
X210525000Y-62184523D01*
X210572619Y-62232142D01*
X210667857Y-62279761D01*
X210905952Y-62279761D01*
X211001190Y-62232142D01*
X211048809Y-62184523D01*
X211096428Y-62089285D01*
X211096428Y-61898809D01*
X211048809Y-61803571D01*
X211001190Y-61755952D01*
X210905952Y-61708333D01*
%TO.C,J10*%
X199700476Y-80842380D02*
X199700476Y-81556666D01*
X199652857Y-81699523D01*
X199557619Y-81794761D01*
X199414761Y-81842380D01*
X199319523Y-81842380D01*
X200700476Y-81842380D02*
X200129047Y-81842380D01*
X200414761Y-81842380D02*
X200414761Y-80842380D01*
X200319523Y-80985238D01*
X200224285Y-81080476D01*
X200129047Y-81128095D01*
X201319523Y-80842380D02*
X201414761Y-80842380D01*
X201510000Y-80890000D01*
X201557619Y-80937619D01*
X201605238Y-81032857D01*
X201652857Y-81223333D01*
X201652857Y-81461428D01*
X201605238Y-81651904D01*
X201557619Y-81747142D01*
X201510000Y-81794761D01*
X201414761Y-81842380D01*
X201319523Y-81842380D01*
X201224285Y-81794761D01*
X201176666Y-81747142D01*
X201129047Y-81651904D01*
X201081428Y-81461428D01*
X201081428Y-81223333D01*
X201129047Y-81032857D01*
X201176666Y-80937619D01*
X201224285Y-80890000D01*
X201319523Y-80842380D01*
%TO.C,J11*%
X192280476Y-106752380D02*
X192280476Y-107466666D01*
X192232857Y-107609523D01*
X192137619Y-107704761D01*
X191994761Y-107752380D01*
X191899523Y-107752380D01*
X193280476Y-107752380D02*
X192709047Y-107752380D01*
X192994761Y-107752380D02*
X192994761Y-106752380D01*
X192899523Y-106895238D01*
X192804285Y-106990476D01*
X192709047Y-107038095D01*
X194232857Y-107752380D02*
X193661428Y-107752380D01*
X193947142Y-107752380D02*
X193947142Y-106752380D01*
X193851904Y-106895238D01*
X193756666Y-106990476D01*
X193661428Y-107038095D01*
%TO.C,J12*%
X210482380Y-115879523D02*
X211196666Y-115879523D01*
X211339523Y-115927142D01*
X211434761Y-116022380D01*
X211482380Y-116165238D01*
X211482380Y-116260476D01*
X211482380Y-114879523D02*
X211482380Y-115450952D01*
X211482380Y-115165238D02*
X210482380Y-115165238D01*
X210625238Y-115260476D01*
X210720476Y-115355714D01*
X210768095Y-115450952D01*
X210577619Y-114498571D02*
X210530000Y-114450952D01*
X210482380Y-114355714D01*
X210482380Y-114117619D01*
X210530000Y-114022380D01*
X210577619Y-113974761D01*
X210672857Y-113927142D01*
X210768095Y-113927142D01*
X210910952Y-113974761D01*
X211482380Y-114546190D01*
X211482380Y-113927142D01*
%TO.C,J14*%
X131190476Y-78782380D02*
X131190476Y-79496666D01*
X131142857Y-79639523D01*
X131047619Y-79734761D01*
X130904761Y-79782380D01*
X130809523Y-79782380D01*
X132190476Y-79782380D02*
X131619047Y-79782380D01*
X131904761Y-79782380D02*
X131904761Y-78782380D01*
X131809523Y-78925238D01*
X131714285Y-79020476D01*
X131619047Y-79068095D01*
X133047619Y-79115714D02*
X133047619Y-79782380D01*
X132809523Y-78734761D02*
X132571428Y-79449047D01*
X133190476Y-79449047D01*
%TO.C,J15*%
X151190476Y-78782380D02*
X151190476Y-79496666D01*
X151142857Y-79639523D01*
X151047619Y-79734761D01*
X150904761Y-79782380D01*
X150809523Y-79782380D01*
X152190476Y-79782380D02*
X151619047Y-79782380D01*
X151904761Y-79782380D02*
X151904761Y-78782380D01*
X151809523Y-78925238D01*
X151714285Y-79020476D01*
X151619047Y-79068095D01*
X153095238Y-78782380D02*
X152619047Y-78782380D01*
X152571428Y-79258571D01*
X152619047Y-79210952D01*
X152714285Y-79163333D01*
X152952380Y-79163333D01*
X153047619Y-79210952D01*
X153095238Y-79258571D01*
X153142857Y-79353809D01*
X153142857Y-79591904D01*
X153095238Y-79687142D01*
X153047619Y-79734761D01*
X152952380Y-79782380D01*
X152714285Y-79782380D01*
X152619047Y-79734761D01*
X152571428Y-79687142D01*
D16*
%TO.C,C6*%
X146705000Y-107382000D02*
X146391000Y-107382000D01*
X149011000Y-112502000D02*
X148697000Y-112502000D01*
X149011000Y-107382000D02*
X149011000Y-112502000D01*
X149011000Y-107382000D02*
X148697000Y-107382000D01*
X146705000Y-112502000D02*
X146391000Y-112502000D01*
X146391000Y-107382000D02*
X146391000Y-112502000D01*
%TO.C,C4*%
X120584000Y-90390000D02*
X120270000Y-90390000D01*
X122890000Y-95510000D02*
X122576000Y-95510000D01*
X122890000Y-90390000D02*
X122890000Y-95510000D01*
X122890000Y-90390000D02*
X122576000Y-90390000D01*
X120584000Y-95510000D02*
X120270000Y-95510000D01*
X120270000Y-90390000D02*
X120270000Y-95510000D01*
%TO.C,C1*%
X146944000Y-90270000D02*
X146630000Y-90270000D01*
X149250000Y-95390000D02*
X148936000Y-95390000D01*
X149250000Y-90270000D02*
X149250000Y-95390000D01*
X149250000Y-90270000D02*
X148936000Y-90270000D01*
X146944000Y-95390000D02*
X146630000Y-95390000D01*
X146630000Y-90270000D02*
X146630000Y-95390000D01*
%TO.C,C2*%
X129460000Y-90364000D02*
X129460000Y-90050000D01*
X124340000Y-92670000D02*
X124340000Y-92356000D01*
X129460000Y-92670000D02*
X124340000Y-92670000D01*
X129460000Y-92670000D02*
X129460000Y-92356000D01*
X124340000Y-90364000D02*
X124340000Y-90050000D01*
X129460000Y-90050000D02*
X124340000Y-90050000D01*
%TO.C,C3*%
X129480000Y-93724000D02*
X129480000Y-93410000D01*
X124360000Y-96030000D02*
X124360000Y-95716000D01*
X129480000Y-96030000D02*
X124360000Y-96030000D01*
X129480000Y-96030000D02*
X129480000Y-95716000D01*
X124360000Y-93724000D02*
X124360000Y-93410000D01*
X129480000Y-93410000D02*
X124360000Y-93410000D01*
%TO.C,C5*%
X126260000Y-97184000D02*
X126260000Y-96870000D01*
X121140000Y-99490000D02*
X121140000Y-99176000D01*
X126260000Y-99490000D02*
X121140000Y-99490000D01*
X126260000Y-99490000D02*
X126260000Y-99176000D01*
X121140000Y-97184000D02*
X121140000Y-96870000D01*
X126260000Y-96870000D02*
X121140000Y-96870000D01*
%TO.C,C7*%
X132139545Y-102138271D02*
X131844481Y-102245665D01*
X136057619Y-106160798D02*
X135762556Y-106268193D01*
X134306476Y-101349572D02*
X136057619Y-106160798D01*
X134306476Y-101349572D02*
X134011413Y-101456966D01*
X133890688Y-106949497D02*
X133595625Y-107056891D01*
X131844481Y-102245665D02*
X133595625Y-107056891D01*
%TO.C,C8*%
X184756000Y-96010000D02*
X185070000Y-96010000D01*
X182450000Y-90890000D02*
X182764000Y-90890000D01*
X182450000Y-96010000D02*
X182450000Y-90890000D01*
X182450000Y-96010000D02*
X182764000Y-96010000D01*
X184756000Y-90890000D02*
X185070000Y-90890000D01*
X185070000Y-96010000D02*
X185070000Y-90890000D01*
%TO.C,C9*%
X164670000Y-89734000D02*
X164670000Y-89420000D01*
X159550000Y-92040000D02*
X159550000Y-91726000D01*
X164670000Y-92040000D02*
X159550000Y-92040000D01*
X164670000Y-92040000D02*
X164670000Y-91726000D01*
X159550000Y-89734000D02*
X159550000Y-89420000D01*
X164670000Y-89420000D02*
X159550000Y-89420000D01*
%TO.C,C10*%
X164690000Y-92954000D02*
X164690000Y-92640000D01*
X159570000Y-95260000D02*
X159570000Y-94946000D01*
X164690000Y-95260000D02*
X159570000Y-95260000D01*
X164690000Y-95260000D02*
X164690000Y-94946000D01*
X159570000Y-92954000D02*
X159570000Y-92640000D01*
X164690000Y-92640000D02*
X159570000Y-92640000D01*
%TO.C,C11*%
X155774000Y-90190000D02*
X155460000Y-90190000D01*
X158080000Y-95310000D02*
X157766000Y-95310000D01*
X158080000Y-90190000D02*
X158080000Y-95310000D01*
X158080000Y-90190000D02*
X157766000Y-90190000D01*
X155774000Y-95310000D02*
X155460000Y-95310000D01*
X155460000Y-90190000D02*
X155460000Y-95310000D01*
%TO.C,C12*%
X167413545Y-101674271D02*
X167118481Y-101781665D01*
X171331619Y-105696798D02*
X171036556Y-105804193D01*
X169580476Y-100885572D02*
X171331619Y-105696798D01*
X169580476Y-100885572D02*
X169285413Y-100992966D01*
X169164688Y-106485497D02*
X168869625Y-106592891D01*
X167118481Y-101781665D02*
X168869625Y-106592891D01*
%TO.C,C13*%
X161360000Y-97104000D02*
X161360000Y-96790000D01*
X156240000Y-99410000D02*
X156240000Y-99096000D01*
X161360000Y-99410000D02*
X156240000Y-99410000D01*
X161360000Y-99410000D02*
X161360000Y-99096000D01*
X156240000Y-97104000D02*
X156240000Y-96790000D01*
X161360000Y-96790000D02*
X156240000Y-96790000D01*
%TO.C,C14*%
X182854000Y-107400000D02*
X182540000Y-107400000D01*
X185160000Y-112520000D02*
X184846000Y-112520000D01*
X185160000Y-107400000D02*
X185160000Y-112520000D01*
X185160000Y-107400000D02*
X184846000Y-107400000D01*
X182854000Y-112520000D02*
X182540000Y-112520000D01*
X182540000Y-107400000D02*
X182540000Y-112520000D01*
%TO.C,C15*%
X148424000Y-119910000D02*
X148110000Y-119910000D01*
X150730000Y-125030000D02*
X150416000Y-125030000D01*
X150730000Y-119910000D02*
X150730000Y-125030000D01*
X150730000Y-119910000D02*
X150416000Y-119910000D01*
X148424000Y-125030000D02*
X148110000Y-125030000D01*
X148110000Y-119910000D02*
X148110000Y-125030000D01*
%TO.C,C16*%
X129980000Y-119094000D02*
X129980000Y-118780000D01*
X124860000Y-121400000D02*
X124860000Y-121086000D01*
X129980000Y-121400000D02*
X124860000Y-121400000D01*
X129980000Y-121400000D02*
X129980000Y-121086000D01*
X124860000Y-119094000D02*
X124860000Y-118780000D01*
X129980000Y-118780000D02*
X124860000Y-118780000D01*
%TO.C,C17*%
X129950000Y-122444000D02*
X129950000Y-122130000D01*
X124830000Y-124750000D02*
X124830000Y-124436000D01*
X129950000Y-124750000D02*
X124830000Y-124750000D01*
X129950000Y-124750000D02*
X129950000Y-124436000D01*
X124830000Y-122444000D02*
X124830000Y-122130000D01*
X129950000Y-122130000D02*
X124830000Y-122130000D01*
%TO.C,C18*%
X121144000Y-119130000D02*
X120830000Y-119130000D01*
X123450000Y-124250000D02*
X123136000Y-124250000D01*
X123450000Y-119130000D02*
X123450000Y-124250000D01*
X123450000Y-119130000D02*
X123136000Y-119130000D01*
X121144000Y-124250000D02*
X120830000Y-124250000D01*
X120830000Y-119130000D02*
X120830000Y-124250000D01*
%TO.C,C19*%
X133573545Y-132074271D02*
X133278481Y-132181665D01*
X137491619Y-136096798D02*
X137196556Y-136204193D01*
X135740476Y-131285572D02*
X137491619Y-136096798D01*
X135740476Y-131285572D02*
X135445413Y-131392966D01*
X135324688Y-136885497D02*
X135029625Y-136992891D01*
X133278481Y-132181665D02*
X135029625Y-136992891D01*
%TO.C,C20*%
X126710000Y-125964000D02*
X126710000Y-125650000D01*
X121590000Y-128270000D02*
X121590000Y-127956000D01*
X126710000Y-128270000D02*
X121590000Y-128270000D01*
X126710000Y-128270000D02*
X126710000Y-127956000D01*
X121590000Y-125964000D02*
X121590000Y-125650000D01*
X126710000Y-125650000D02*
X121590000Y-125650000D01*
%TO.C,C21*%
X148424000Y-136450000D02*
X148110000Y-136450000D01*
X150730000Y-141570000D02*
X150416000Y-141570000D01*
X150730000Y-136450000D02*
X150730000Y-141570000D01*
X150730000Y-136450000D02*
X150416000Y-136450000D01*
X148424000Y-141570000D02*
X148110000Y-141570000D01*
X148110000Y-136450000D02*
X148110000Y-141570000D01*
%TO.C,C22*%
X182684000Y-119240000D02*
X182370000Y-119240000D01*
X184990000Y-124360000D02*
X184676000Y-124360000D01*
X184990000Y-119240000D02*
X184990000Y-124360000D01*
X184990000Y-119240000D02*
X184676000Y-119240000D01*
X182684000Y-124360000D02*
X182370000Y-124360000D01*
X182370000Y-119240000D02*
X182370000Y-124360000D01*
%TO.C,C23*%
X183097867Y-136079710D02*
X182917764Y-135822496D01*
X180226476Y-140905386D02*
X180046373Y-140648172D01*
X184420534Y-137968675D02*
X180226476Y-140905386D01*
X184420534Y-137968675D02*
X184240431Y-137711461D01*
X178903809Y-139016421D02*
X178723706Y-138759208D01*
X182917764Y-135822496D02*
X178723706Y-138759208D01*
%TO.C,C24*%
X158250000Y-120746000D02*
X158250000Y-121060000D01*
X163370000Y-118440000D02*
X163370000Y-118754000D01*
X158250000Y-118440000D02*
X163370000Y-118440000D01*
X158250000Y-118440000D02*
X158250000Y-118754000D01*
X163370000Y-120746000D02*
X163370000Y-121060000D01*
X158250000Y-121060000D02*
X163370000Y-121060000D01*
%TO.C,C25*%
X163290000Y-122104000D02*
X163290000Y-121790000D01*
X158170000Y-124410000D02*
X158170000Y-124096000D01*
X163290000Y-124410000D02*
X158170000Y-124410000D01*
X163290000Y-124410000D02*
X163290000Y-124096000D01*
X158170000Y-122104000D02*
X158170000Y-121790000D01*
X163290000Y-121790000D02*
X158170000Y-121790000D01*
%TO.C,C26*%
X158320000Y-141926000D02*
X158320000Y-142240000D01*
X163440000Y-139620000D02*
X163440000Y-139934000D01*
X158320000Y-139620000D02*
X163440000Y-139620000D01*
X158320000Y-139620000D02*
X158320000Y-139934000D01*
X163440000Y-141926000D02*
X163440000Y-142240000D01*
X158320000Y-142240000D02*
X163440000Y-142240000D01*
%TO.C,C27*%
X213379000Y-61990000D02*
X213065000Y-61990000D01*
X215685000Y-67110000D02*
X215371000Y-67110000D01*
X215685000Y-61990000D02*
X215685000Y-67110000D01*
X215685000Y-61990000D02*
X215371000Y-61990000D01*
X213379000Y-67110000D02*
X213065000Y-67110000D01*
X213065000Y-61990000D02*
X213065000Y-67110000D01*
%TO.C,C28*%
X214552867Y-78349710D02*
X214372764Y-78092496D01*
X211681476Y-83175386D02*
X211501373Y-82918172D01*
X215875534Y-80238675D02*
X211681476Y-83175386D01*
X215875534Y-80238675D02*
X215695431Y-79981461D01*
X210358809Y-81286421D02*
X210178706Y-81029208D01*
X214372764Y-78092496D02*
X210178706Y-81029208D01*
%TO.C,C29*%
X203420000Y-66004000D02*
X203420000Y-65690000D01*
X198300000Y-68310000D02*
X198300000Y-67996000D01*
X203420000Y-68310000D02*
X198300000Y-68310000D01*
X203420000Y-68310000D02*
X203420000Y-67996000D01*
X198300000Y-66004000D02*
X198300000Y-65690000D01*
X203420000Y-65690000D02*
X198300000Y-65690000D01*
%TO.C,C30*%
X185934000Y-75990000D02*
X185620000Y-75990000D01*
X188240000Y-81110000D02*
X187926000Y-81110000D01*
X188240000Y-75990000D02*
X188240000Y-81110000D01*
X188240000Y-75990000D02*
X187926000Y-75990000D01*
X185934000Y-81110000D02*
X185620000Y-81110000D01*
X185620000Y-75990000D02*
X185620000Y-81110000D01*
%TO.C,C31*%
X192580000Y-82884000D02*
X192580000Y-82570000D01*
X187460000Y-85190000D02*
X187460000Y-84876000D01*
X192580000Y-85190000D02*
X187460000Y-85190000D01*
X192580000Y-85190000D02*
X192580000Y-84876000D01*
X187460000Y-82884000D02*
X187460000Y-82570000D01*
X192580000Y-82570000D02*
X187460000Y-82570000D01*
%TO.C,C32*%
X184576000Y-82200000D02*
X184890000Y-82200000D01*
X182270000Y-77080000D02*
X182584000Y-77080000D01*
X182270000Y-82200000D02*
X182270000Y-77080000D01*
X182270000Y-82200000D02*
X182584000Y-82200000D01*
X184576000Y-77080000D02*
X184890000Y-77080000D01*
X184890000Y-82200000D02*
X184890000Y-77080000D01*
%TO.C,C33*%
X179174000Y-77000000D02*
X178860000Y-77000000D01*
X181480000Y-82120000D02*
X181166000Y-82120000D01*
X181480000Y-77000000D02*
X181480000Y-82120000D01*
X181480000Y-77000000D02*
X181166000Y-77000000D01*
X179174000Y-82120000D02*
X178860000Y-82120000D01*
X178860000Y-77000000D02*
X178860000Y-82120000D01*
%TO.C,C34*%
X196064148Y-101109295D02*
X195842117Y-100887264D01*
X194074350Y-106360270D02*
X193852318Y-106138239D01*
X197694736Y-102739883D02*
X194074350Y-106360270D01*
X197694736Y-102739883D02*
X197472705Y-102517852D01*
X192443761Y-104729682D02*
X192221730Y-104507650D01*
X195842117Y-100887264D02*
X192221730Y-104507650D01*
%TO.C,C35*%
X191614000Y-122830000D02*
X191300000Y-122830000D01*
X193920000Y-127950000D02*
X193606000Y-127950000D01*
X193920000Y-122830000D02*
X193920000Y-127950000D01*
X193920000Y-122830000D02*
X193606000Y-122830000D01*
X191614000Y-127950000D02*
X191300000Y-127950000D01*
X191300000Y-122830000D02*
X191300000Y-127950000D01*
%TO.C,C36*%
X195004000Y-122750000D02*
X194690000Y-122750000D01*
X197310000Y-127870000D02*
X196996000Y-127870000D01*
X197310000Y-122750000D02*
X197310000Y-127870000D01*
X197310000Y-122750000D02*
X196996000Y-122750000D01*
X195004000Y-127870000D02*
X194690000Y-127870000D01*
X194690000Y-122750000D02*
X194690000Y-127870000D01*
%TO.C,C37*%
X191840000Y-134094000D02*
X191840000Y-134408000D01*
X196960000Y-131788000D02*
X196960000Y-132102000D01*
X191840000Y-131788000D02*
X196960000Y-131788000D01*
X191840000Y-131788000D02*
X191840000Y-132102000D01*
X196960000Y-134094000D02*
X196960000Y-134408000D01*
X191840000Y-134408000D02*
X196960000Y-134408000D01*
%TO.C,C38*%
X195476000Y-135832000D02*
X195162000Y-135832000D01*
X197782000Y-140952000D02*
X197468000Y-140952000D01*
X197782000Y-135832000D02*
X197782000Y-140952000D01*
X197782000Y-135832000D02*
X197468000Y-135832000D01*
X195476000Y-140952000D02*
X195162000Y-140952000D01*
X195162000Y-135832000D02*
X195162000Y-140952000D01*
%TO.C,C39*%
X191920000Y-135832000D02*
X191606000Y-135832000D01*
X194226000Y-140952000D02*
X193912000Y-140952000D01*
X194226000Y-135832000D02*
X194226000Y-140952000D01*
X194226000Y-135832000D02*
X193912000Y-135832000D01*
X191920000Y-140952000D02*
X191606000Y-140952000D01*
X191606000Y-135832000D02*
X191606000Y-140952000D01*
%TO.C,C40*%
X214670000Y-140224000D02*
X214670000Y-139910000D01*
X209550000Y-142530000D02*
X209550000Y-142216000D01*
X214670000Y-142530000D02*
X209550000Y-142530000D01*
X214670000Y-142530000D02*
X214670000Y-142216000D01*
X209550000Y-140224000D02*
X209550000Y-139910000D01*
X214670000Y-139910000D02*
X209550000Y-139910000D01*
%TO.C,C41*%
X215156000Y-135440000D02*
X215470000Y-135440000D01*
X212850000Y-130320000D02*
X213164000Y-130320000D01*
X212850000Y-135440000D02*
X212850000Y-130320000D01*
X212850000Y-135440000D02*
X213164000Y-135440000D01*
X215156000Y-130320000D02*
X215470000Y-130320000D01*
X215470000Y-135440000D02*
X215470000Y-130320000D01*
%TO.C,C42*%
X215266000Y-127970000D02*
X215580000Y-127970000D01*
X212960000Y-122850000D02*
X213274000Y-122850000D01*
X212960000Y-127970000D02*
X212960000Y-122850000D01*
X212960000Y-127970000D02*
X213274000Y-127970000D01*
X215266000Y-122850000D02*
X215580000Y-122850000D01*
X215580000Y-127970000D02*
X215580000Y-122850000D01*
%TO.C,L2*%
X148377811Y-100845258D02*
G75*
G03*
X148377811Y-100845258I-6440001J0D01*
G01*
X145695910Y-100845258D02*
G75*
G03*
X145695910Y-100845258I-3758100J0D01*
G01*
%TO.C,L3*%
X132430000Y-106200254D02*
G75*
G03*
X132430000Y-106200254I-6440000J0D01*
G01*
X129748100Y-106200254D02*
G75*
G03*
X129748100Y-106200254I-3758100J0D01*
G01*
%TO.C,L1*%
X183641811Y-101019258D02*
G75*
G03*
X183641811Y-101019258I-6440001J0D01*
G01*
X180959910Y-101019258D02*
G75*
G03*
X180959910Y-101019258I-3758100J0D01*
G01*
%TO.C,L4*%
X168070000Y-106310254D02*
G75*
G03*
X168070000Y-106310254I-6440000J0D01*
G01*
X165388100Y-106310254D02*
G75*
G03*
X165388100Y-106310254I-3758100J0D01*
G01*
%TO.C,L5*%
X149201811Y-129289258D02*
G75*
G03*
X149201811Y-129289258I-6440001J0D01*
G01*
X146519910Y-129289258D02*
G75*
G03*
X146519910Y-129289258I-3758100J0D01*
G01*
%TO.C,L6*%
X133530000Y-135040254D02*
G75*
G03*
X133530000Y-135040254I-6440000J0D01*
G01*
X130848100Y-135040254D02*
G75*
G03*
X130848100Y-135040254I-3758100J0D01*
G01*
%TO.C,L7*%
X184791811Y-130419258D02*
G75*
G03*
X184791811Y-130419258I-6440001J0D01*
G01*
X182109910Y-130419258D02*
G75*
G03*
X182109910Y-130419258I-3758100J0D01*
G01*
%TO.C,L8*%
X170590000Y-130870254D02*
G75*
G03*
X170590000Y-130870254I-6440000J0D01*
G01*
X167908100Y-130870254D02*
G75*
G03*
X167908100Y-130870254I-3758100J0D01*
G01*
%TO.C,L9*%
X215151811Y-73009258D02*
G75*
G03*
X215151811Y-73009258I-6440001J0D01*
G01*
X212469910Y-73009258D02*
G75*
G03*
X212469910Y-73009258I-3758100J0D01*
G01*
%TO.C,L10*%
X201750000Y-74600000D02*
G75*
G03*
X201750000Y-74600000I-6440000J0D01*
G01*
X199068100Y-74600000D02*
G75*
G03*
X199068100Y-74600000I-3758100J0D01*
G01*
%TO.C,L11*%
X190211067Y-67978932D02*
G75*
G03*
X190211067Y-67978932I-6439999J0D01*
G01*
X187529168Y-67978932D02*
G75*
G03*
X187529168Y-67978932I-3758100J0D01*
G01*
%TO.C,L12*%
X211890000Y-107125000D02*
G75*
G03*
X211890000Y-107125000I-6440000J0D01*
G01*
X209208100Y-107125000D02*
G75*
G03*
X209208100Y-107125000I-3758100J0D01*
G01*
%TO.C,L13*%
X211550254Y-134575000D02*
G75*
G03*
X211550254Y-134575000I-6440000J0D01*
G01*
X208868354Y-134575000D02*
G75*
G03*
X208868354Y-134575000I-3758100J0D01*
G01*
%TO.C,L14*%
X211104746Y-121100000D02*
G75*
G03*
X211104746Y-121100000I-6440000J0D01*
G01*
X208422846Y-121100000D02*
G75*
G03*
X208422846Y-121100000I-3758100J0D01*
G01*
%TO.C,J1*%
X132588000Y-113090000D02*
X131258000Y-113090000D01*
X133858000Y-113090000D02*
X141538000Y-113090000D01*
X131258000Y-113090000D02*
X131258000Y-111760000D01*
X141538000Y-113090000D02*
X141538000Y-110430000D01*
X133858000Y-113090000D02*
X133858000Y-110430000D01*
X133858000Y-110430000D02*
X141538000Y-110430000D01*
%TO.C,J2*%
X133858000Y-90110000D02*
X141538000Y-90110000D01*
X133858000Y-92770000D02*
X141538000Y-92770000D01*
X132588000Y-92770000D02*
X131258000Y-92770000D01*
X131258000Y-92770000D02*
X131258000Y-91440000D01*
X141538000Y-92770000D02*
X141538000Y-90110000D01*
X133858000Y-92770000D02*
X133858000Y-90110000D01*
%TO.C,J3*%
X168910000Y-90110000D02*
X176590000Y-90110000D01*
X168910000Y-92770000D02*
X176590000Y-92770000D01*
X176590000Y-92770000D02*
X176590000Y-90110000D01*
X168910000Y-92770000D02*
X168910000Y-90110000D01*
X166310000Y-92770000D02*
X166310000Y-91440000D01*
X167640000Y-92770000D02*
X166310000Y-92770000D01*
%TO.C,J4*%
X166310000Y-113090000D02*
X166310000Y-111760000D01*
X167640000Y-113090000D02*
X166310000Y-113090000D01*
X176590000Y-113090000D02*
X176590000Y-110430000D01*
X168910000Y-110430000D02*
X176590000Y-110430000D01*
X168910000Y-113090000D02*
X176590000Y-113090000D01*
X168910000Y-113090000D02*
X168910000Y-110430000D01*
%TO.C,J5*%
X133350000Y-121980000D02*
X132020000Y-121980000D01*
X134620000Y-121980000D02*
X142300000Y-121980000D01*
X132020000Y-121980000D02*
X132020000Y-120650000D01*
X142300000Y-121980000D02*
X142300000Y-119320000D01*
X134620000Y-121980000D02*
X134620000Y-119320000D01*
X134620000Y-119320000D02*
X142300000Y-119320000D01*
%TO.C,J6*%
X134620000Y-142300000D02*
X134620000Y-139640000D01*
X134620000Y-139640000D02*
X142300000Y-139640000D01*
X133350000Y-142300000D02*
X132020000Y-142300000D01*
X142300000Y-142300000D02*
X142300000Y-139640000D01*
X132020000Y-142300000D02*
X132020000Y-140970000D01*
X134620000Y-142300000D02*
X142300000Y-142300000D01*
%TO.C,J7*%
X167640000Y-121980000D02*
X166310000Y-121980000D01*
X168910000Y-121980000D02*
X168910000Y-119320000D01*
X168910000Y-121980000D02*
X176590000Y-121980000D01*
X166310000Y-121980000D02*
X166310000Y-120650000D01*
X176590000Y-121980000D02*
X176590000Y-119320000D01*
X168910000Y-119320000D02*
X176590000Y-119320000D01*
%TO.C,J8*%
X168910000Y-139640000D02*
X176590000Y-139640000D01*
X168910000Y-142300000D02*
X176590000Y-142300000D01*
X166310000Y-142300000D02*
X166310000Y-140970000D01*
X176590000Y-142300000D02*
X176590000Y-139640000D01*
X168910000Y-142300000D02*
X168910000Y-139640000D01*
X167640000Y-142300000D02*
X166310000Y-142300000D01*
%TO.C,J9*%
X199390000Y-64830000D02*
X198060000Y-64830000D01*
X208340000Y-64830000D02*
X208340000Y-62170000D01*
X198060000Y-64830000D02*
X198060000Y-63500000D01*
X200660000Y-62170000D02*
X208340000Y-62170000D01*
X200660000Y-64830000D02*
X208340000Y-64830000D01*
X200660000Y-64830000D02*
X200660000Y-62170000D01*
%TO.C,J10*%
X200660000Y-82490000D02*
X208340000Y-82490000D01*
X198060000Y-85150000D02*
X198060000Y-83820000D01*
X208340000Y-85150000D02*
X208340000Y-82490000D01*
X200660000Y-85150000D02*
X208340000Y-85150000D01*
X199390000Y-85150000D02*
X198060000Y-85150000D01*
X200660000Y-85150000D02*
X200660000Y-82490000D01*
%TO.C,J11*%
X194500000Y-117350000D02*
X191840000Y-117350000D01*
X194500000Y-119950000D02*
X193170000Y-119950000D01*
X194500000Y-109670000D02*
X191840000Y-109670000D01*
X194500000Y-117350000D02*
X194500000Y-109670000D01*
X194500000Y-118620000D02*
X194500000Y-119950000D01*
X191840000Y-117350000D02*
X191840000Y-109670000D01*
%TO.C,J12*%
X214820000Y-117350000D02*
X214820000Y-109670000D01*
X214820000Y-117350000D02*
X212160000Y-117350000D01*
X212160000Y-117350000D02*
X212160000Y-109670000D01*
X214820000Y-109670000D02*
X212160000Y-109670000D01*
X214820000Y-119950000D02*
X213490000Y-119950000D01*
X214820000Y-118620000D02*
X214820000Y-119950000D01*
%TO.C,J14*%
X133330000Y-78330000D02*
X132000000Y-78330000D01*
X133330000Y-77000000D02*
X133330000Y-78330000D01*
X133330000Y-75730000D02*
X133330000Y-68050000D01*
X130670000Y-75730000D02*
X130670000Y-68050000D01*
X133330000Y-75730000D02*
X130670000Y-75730000D01*
X133330000Y-68050000D02*
X130670000Y-68050000D01*
%TO.C,J15*%
X153330000Y-75730000D02*
X153330000Y-68050000D01*
X153330000Y-68050000D02*
X150670000Y-68050000D01*
X153330000Y-77000000D02*
X153330000Y-78330000D01*
X153330000Y-75730000D02*
X150670000Y-75730000D01*
X150670000Y-75730000D02*
X150670000Y-68050000D01*
X153330000Y-78330000D02*
X152000000Y-78330000D01*
%TD*%
M02*
