G04 #@! TF.FileFunction,Legend,Top*
%FSLAX46Y46*%
G04 Gerber Fmt 4.6, Leading zero omitted, Abs format (unit mm)*
G04 Created by KiCad (PCBNEW 4.0.7) date 01/28/23 10:46:13*
%MOMM*%
%LPD*%
G01*
G04 APERTURE LIST*
%ADD10C,0.100000*%
%ADD11C,0.200000*%
%ADD12C,0.150000*%
%ADD13C,4.000000*%
%ADD14C,3.500000*%
%ADD15C,5.000000*%
%ADD16C,0.120000*%
G04 APERTURE END LIST*
D10*
D11*
X170000000Y-60000000D02*
X170000000Y-85000000D01*
X119000000Y-60000000D02*
X170000000Y-60000000D01*
X119000000Y-85000000D02*
X119000000Y-60000000D01*
X170000000Y-85000000D02*
X119000000Y-85000000D01*
D12*
X200011905Y-92253571D02*
X199678571Y-92253571D01*
X199678571Y-92777381D02*
X199678571Y-91777381D01*
X200154762Y-91777381D01*
X200535714Y-92777381D02*
X200535714Y-91777381D01*
X201488095Y-92777381D02*
X201011904Y-92777381D01*
X201011904Y-91777381D01*
X201678571Y-91777381D02*
X202250000Y-91777381D01*
X201964285Y-92777381D02*
X201964285Y-91777381D01*
X202583333Y-92253571D02*
X202916667Y-92253571D01*
X203059524Y-92777381D02*
X202583333Y-92777381D01*
X202583333Y-91777381D01*
X203059524Y-91777381D01*
X204059524Y-92777381D02*
X203726190Y-92301190D01*
X203488095Y-92777381D02*
X203488095Y-91777381D01*
X203869048Y-91777381D01*
X203964286Y-91825000D01*
X204011905Y-91872619D01*
X204059524Y-91967857D01*
X204059524Y-92110714D01*
X204011905Y-92205952D01*
X203964286Y-92253571D01*
X203869048Y-92301190D01*
X203488095Y-92301190D01*
X205107143Y-91777381D02*
X205678572Y-91777381D01*
X205392857Y-92777381D02*
X205392857Y-91777381D01*
X206011905Y-92253571D02*
X206345239Y-92253571D01*
X206488096Y-92777381D02*
X206011905Y-92777381D01*
X206011905Y-91777381D01*
X206488096Y-91777381D01*
X206869048Y-92729762D02*
X207011905Y-92777381D01*
X207250001Y-92777381D01*
X207345239Y-92729762D01*
X207392858Y-92682143D01*
X207440477Y-92586905D01*
X207440477Y-92491667D01*
X207392858Y-92396429D01*
X207345239Y-92348810D01*
X207250001Y-92301190D01*
X207059524Y-92253571D01*
X206964286Y-92205952D01*
X206916667Y-92158333D01*
X206869048Y-92063095D01*
X206869048Y-91967857D01*
X206916667Y-91872619D01*
X206964286Y-91825000D01*
X207059524Y-91777381D01*
X207297620Y-91777381D01*
X207440477Y-91825000D01*
X207726191Y-91777381D02*
X208297620Y-91777381D01*
X208011905Y-92777381D02*
X208011905Y-91777381D01*
X209726192Y-92253571D02*
X209869049Y-92301190D01*
X209916668Y-92348810D01*
X209964287Y-92444048D01*
X209964287Y-92586905D01*
X209916668Y-92682143D01*
X209869049Y-92729762D01*
X209773811Y-92777381D01*
X209392858Y-92777381D01*
X209392858Y-91777381D01*
X209726192Y-91777381D01*
X209821430Y-91825000D01*
X209869049Y-91872619D01*
X209916668Y-91967857D01*
X209916668Y-92063095D01*
X209869049Y-92158333D01*
X209821430Y-92205952D01*
X209726192Y-92253571D01*
X209392858Y-92253571D01*
X210583334Y-91777381D02*
X210773811Y-91777381D01*
X210869049Y-91825000D01*
X210964287Y-91920238D01*
X211011906Y-92110714D01*
X211011906Y-92444048D01*
X210964287Y-92634524D01*
X210869049Y-92729762D01*
X210773811Y-92777381D01*
X210583334Y-92777381D01*
X210488096Y-92729762D01*
X210392858Y-92634524D01*
X210345239Y-92444048D01*
X210345239Y-92110714D01*
X210392858Y-91920238D01*
X210488096Y-91825000D01*
X210583334Y-91777381D01*
X211392858Y-92491667D02*
X211869049Y-92491667D01*
X211297620Y-92777381D02*
X211630953Y-91777381D01*
X211964287Y-92777381D01*
X212869049Y-92777381D02*
X212535715Y-92301190D01*
X212297620Y-92777381D02*
X212297620Y-91777381D01*
X212678573Y-91777381D01*
X212773811Y-91825000D01*
X212821430Y-91872619D01*
X212869049Y-91967857D01*
X212869049Y-92110714D01*
X212821430Y-92205952D01*
X212773811Y-92253571D01*
X212678573Y-92301190D01*
X212297620Y-92301190D01*
X213297620Y-92777381D02*
X213297620Y-91777381D01*
X213535715Y-91777381D01*
X213678573Y-91825000D01*
X213773811Y-91920238D01*
X213821430Y-92015476D01*
X213869049Y-92205952D01*
X213869049Y-92348810D01*
X213821430Y-92539286D01*
X213773811Y-92634524D01*
X213678573Y-92729762D01*
X213535715Y-92777381D01*
X213297620Y-92777381D01*
X199464286Y-93903571D02*
X199607143Y-93951190D01*
X199654762Y-93998810D01*
X199702381Y-94094048D01*
X199702381Y-94236905D01*
X199654762Y-94332143D01*
X199607143Y-94379762D01*
X199511905Y-94427381D01*
X199130952Y-94427381D01*
X199130952Y-93427381D01*
X199464286Y-93427381D01*
X199559524Y-93475000D01*
X199607143Y-93522619D01*
X199654762Y-93617857D01*
X199654762Y-93713095D01*
X199607143Y-93808333D01*
X199559524Y-93855952D01*
X199464286Y-93903571D01*
X199130952Y-93903571D01*
X200321428Y-93951190D02*
X200321428Y-94427381D01*
X199988095Y-93427381D02*
X200321428Y-93951190D01*
X200654762Y-93427381D01*
X201750000Y-94427381D02*
X201750000Y-93427381D01*
X201988095Y-93427381D01*
X202130953Y-93475000D01*
X202226191Y-93570238D01*
X202273810Y-93665476D01*
X202321429Y-93855952D01*
X202321429Y-93998810D01*
X202273810Y-94189286D01*
X202226191Y-94284524D01*
X202130953Y-94379762D01*
X201988095Y-94427381D01*
X201750000Y-94427381D01*
X203226191Y-94427381D02*
X202750000Y-94427381D01*
X202750000Y-93427381D01*
X204321429Y-94427381D02*
X204321429Y-93427381D01*
X204654763Y-94141667D01*
X204988096Y-93427381D01*
X204988096Y-94427381D01*
X205416667Y-94141667D02*
X205892858Y-94141667D01*
X205321429Y-94427381D02*
X205654762Y-93427381D01*
X205988096Y-94427381D01*
X206892858Y-94427381D02*
X206559524Y-93951190D01*
X206321429Y-94427381D02*
X206321429Y-93427381D01*
X206702382Y-93427381D01*
X206797620Y-93475000D01*
X206845239Y-93522619D01*
X206892858Y-93617857D01*
X206892858Y-93760714D01*
X206845239Y-93855952D01*
X206797620Y-93903571D01*
X206702382Y-93951190D01*
X206321429Y-93951190D01*
X207321429Y-94427381D02*
X207321429Y-93427381D01*
X207892858Y-94427381D02*
X207464286Y-93855952D01*
X207892858Y-93427381D02*
X207321429Y-93998810D01*
X208273810Y-94379762D02*
X208416667Y-94427381D01*
X208654763Y-94427381D01*
X208750001Y-94379762D01*
X208797620Y-94332143D01*
X208845239Y-94236905D01*
X208845239Y-94141667D01*
X208797620Y-94046429D01*
X208750001Y-93998810D01*
X208654763Y-93951190D01*
X208464286Y-93903571D01*
X208369048Y-93855952D01*
X208321429Y-93808333D01*
X208273810Y-93713095D01*
X208273810Y-93617857D01*
X208321429Y-93522619D01*
X208369048Y-93475000D01*
X208464286Y-93427381D01*
X208702382Y-93427381D01*
X208845239Y-93475000D01*
X209321429Y-94379762D02*
X209321429Y-94427381D01*
X209273810Y-94522619D01*
X209226191Y-94570238D01*
X210511905Y-94427381D02*
X210511905Y-93427381D01*
X211083334Y-94427381D02*
X210654762Y-93855952D01*
X211083334Y-93427381D02*
X210511905Y-93998810D01*
X211416667Y-93427381D02*
X211654762Y-94427381D01*
X211845239Y-93713095D01*
X212035715Y-94427381D01*
X212273810Y-93427381D01*
X213083334Y-93760714D02*
X213083334Y-94427381D01*
X212845238Y-93379762D02*
X212607143Y-94094048D01*
X213226191Y-94094048D01*
X213464286Y-93427381D02*
X214035715Y-93427381D01*
X213750000Y-94427381D02*
X213750000Y-93427381D01*
X214369048Y-94427381D02*
X214369048Y-93427381D01*
X201916667Y-95982143D02*
X201869048Y-96029762D01*
X201726191Y-96077381D01*
X201630953Y-96077381D01*
X201488095Y-96029762D01*
X201392857Y-95934524D01*
X201345238Y-95839286D01*
X201297619Y-95648810D01*
X201297619Y-95505952D01*
X201345238Y-95315476D01*
X201392857Y-95220238D01*
X201488095Y-95125000D01*
X201630953Y-95077381D01*
X201726191Y-95077381D01*
X201869048Y-95125000D01*
X201916667Y-95172619D01*
X202916667Y-95982143D02*
X202869048Y-96029762D01*
X202726191Y-96077381D01*
X202630953Y-96077381D01*
X202488095Y-96029762D01*
X202392857Y-95934524D01*
X202345238Y-95839286D01*
X202297619Y-95648810D01*
X202297619Y-95505952D01*
X202345238Y-95315476D01*
X202392857Y-95220238D01*
X202488095Y-95125000D01*
X202630953Y-95077381D01*
X202726191Y-95077381D01*
X202869048Y-95125000D01*
X202916667Y-95172619D01*
X203345238Y-95696429D02*
X204107143Y-95696429D01*
X204916667Y-95553571D02*
X205059524Y-95601190D01*
X205107143Y-95648810D01*
X205154762Y-95744048D01*
X205154762Y-95886905D01*
X205107143Y-95982143D01*
X205059524Y-96029762D01*
X204964286Y-96077381D01*
X204583333Y-96077381D01*
X204583333Y-95077381D01*
X204916667Y-95077381D01*
X205011905Y-95125000D01*
X205059524Y-95172619D01*
X205107143Y-95267857D01*
X205107143Y-95363095D01*
X205059524Y-95458333D01*
X205011905Y-95505952D01*
X204916667Y-95553571D01*
X204583333Y-95553571D01*
X205773809Y-95601190D02*
X205773809Y-96077381D01*
X205440476Y-95077381D02*
X205773809Y-95601190D01*
X206107143Y-95077381D01*
X206440476Y-95696429D02*
X207202381Y-95696429D01*
X207630952Y-96029762D02*
X207773809Y-96077381D01*
X208011905Y-96077381D01*
X208107143Y-96029762D01*
X208154762Y-95982143D01*
X208202381Y-95886905D01*
X208202381Y-95791667D01*
X208154762Y-95696429D01*
X208107143Y-95648810D01*
X208011905Y-95601190D01*
X207821428Y-95553571D01*
X207726190Y-95505952D01*
X207678571Y-95458333D01*
X207630952Y-95363095D01*
X207630952Y-95267857D01*
X207678571Y-95172619D01*
X207726190Y-95125000D01*
X207821428Y-95077381D01*
X208059524Y-95077381D01*
X208202381Y-95125000D01*
X208583333Y-95791667D02*
X209059524Y-95791667D01*
X208488095Y-96077381D02*
X208821428Y-95077381D01*
X209154762Y-96077381D01*
X210678572Y-95410714D02*
X210678572Y-96077381D01*
X210440476Y-95029762D02*
X210202381Y-95744048D01*
X210821429Y-95744048D01*
X211202381Y-95982143D02*
X211250000Y-96029762D01*
X211202381Y-96077381D01*
X211154762Y-96029762D01*
X211202381Y-95982143D01*
X211202381Y-96077381D01*
X211869047Y-95077381D02*
X211964286Y-95077381D01*
X212059524Y-95125000D01*
X212107143Y-95172619D01*
X212154762Y-95267857D01*
X212202381Y-95458333D01*
X212202381Y-95696429D01*
X212154762Y-95886905D01*
X212107143Y-95982143D01*
X212059524Y-96029762D01*
X211964286Y-96077381D01*
X211869047Y-96077381D01*
X211773809Y-96029762D01*
X211726190Y-95982143D01*
X211678571Y-95886905D01*
X211630952Y-95696429D01*
X211630952Y-95458333D01*
X211678571Y-95267857D01*
X211726190Y-95172619D01*
X211773809Y-95125000D01*
X211869047Y-95077381D01*
X130976191Y-67452381D02*
X130976191Y-66452381D01*
X131452381Y-67452381D02*
X131452381Y-66452381D01*
X132023810Y-67452381D01*
X132023810Y-66452381D01*
X132500000Y-67452381D02*
X132500000Y-66452381D01*
X132880953Y-66452381D01*
X132976191Y-66500000D01*
X133023810Y-66547619D01*
X133071429Y-66642857D01*
X133071429Y-66785714D01*
X133023810Y-66880952D01*
X132976191Y-66928571D01*
X132880953Y-66976190D01*
X132500000Y-66976190D01*
X151000000Y-66452381D02*
X151190477Y-66452381D01*
X151285715Y-66500000D01*
X151380953Y-66595238D01*
X151428572Y-66785714D01*
X151428572Y-67119048D01*
X151380953Y-67309524D01*
X151285715Y-67404762D01*
X151190477Y-67452381D01*
X151000000Y-67452381D01*
X150904762Y-67404762D01*
X150809524Y-67309524D01*
X150761905Y-67119048D01*
X150761905Y-66785714D01*
X150809524Y-66595238D01*
X150904762Y-66500000D01*
X151000000Y-66452381D01*
X151857143Y-66452381D02*
X151857143Y-67261905D01*
X151904762Y-67357143D01*
X151952381Y-67404762D01*
X152047619Y-67452381D01*
X152238096Y-67452381D01*
X152333334Y-67404762D01*
X152380953Y-67357143D01*
X152428572Y-67261905D01*
X152428572Y-66452381D01*
X152761905Y-66452381D02*
X153333334Y-66452381D01*
X153047619Y-67452381D02*
X153047619Y-66452381D01*
D13*
X197730000Y-110800000D02*
X197730000Y-113930000D01*
D12*
X214587143Y-125666666D02*
X214634762Y-125714285D01*
X214682381Y-125857142D01*
X214682381Y-125952380D01*
X214634762Y-126095238D01*
X214539524Y-126190476D01*
X214444286Y-126238095D01*
X214253810Y-126285714D01*
X214110952Y-126285714D01*
X213920476Y-126238095D01*
X213825238Y-126190476D01*
X213730000Y-126095238D01*
X213682381Y-125952380D01*
X213682381Y-125857142D01*
X213730000Y-125714285D01*
X213777619Y-125666666D01*
X214682381Y-125190476D02*
X214682381Y-125000000D01*
X214634762Y-124904761D01*
X214587143Y-124857142D01*
X214444286Y-124761904D01*
X214253810Y-124714285D01*
X213872857Y-124714285D01*
X213777619Y-124761904D01*
X213730000Y-124809523D01*
X213682381Y-124904761D01*
X213682381Y-125095238D01*
X213730000Y-125190476D01*
X213777619Y-125238095D01*
X213872857Y-125285714D01*
X214110952Y-125285714D01*
X214206190Y-125238095D01*
X214253810Y-125190476D01*
X214301429Y-125095238D01*
X214301429Y-124904761D01*
X214253810Y-124809523D01*
X214206190Y-124761904D01*
X214110952Y-124714285D01*
X210002381Y-63798809D02*
X209002381Y-63798809D01*
X210002381Y-63322619D02*
X209002381Y-63322619D01*
X210002381Y-62751190D01*
X209002381Y-62751190D01*
X210002381Y-62275000D02*
X209002381Y-62275000D01*
X209002381Y-61894047D01*
X209050000Y-61798809D01*
X209097619Y-61751190D01*
X209192857Y-61703571D01*
X209335714Y-61703571D01*
X209430952Y-61751190D01*
X209478571Y-61798809D01*
X209526190Y-61894047D01*
X209526190Y-62275000D01*
X214700000Y-121567619D02*
X214509523Y-121567619D01*
X214414285Y-121520000D01*
X214319047Y-121424762D01*
X214271428Y-121234286D01*
X214271428Y-120900952D01*
X214319047Y-120710476D01*
X214414285Y-120615238D01*
X214509523Y-120567619D01*
X214700000Y-120567619D01*
X214795238Y-120615238D01*
X214890476Y-120710476D01*
X214938095Y-120900952D01*
X214938095Y-121234286D01*
X214890476Y-121424762D01*
X214795238Y-121520000D01*
X214700000Y-121567619D01*
X213842857Y-121567619D02*
X213842857Y-120758095D01*
X213795238Y-120662857D01*
X213747619Y-120615238D01*
X213652381Y-120567619D01*
X213461904Y-120567619D01*
X213366666Y-120615238D01*
X213319047Y-120662857D01*
X213271428Y-120758095D01*
X213271428Y-121567619D01*
X212938095Y-121567619D02*
X212366666Y-121567619D01*
X212652381Y-120567619D02*
X212652381Y-121567619D01*
X195150000Y-84602381D02*
X195340477Y-84602381D01*
X195435715Y-84650000D01*
X195530953Y-84745238D01*
X195578572Y-84935714D01*
X195578572Y-85269048D01*
X195530953Y-85459524D01*
X195435715Y-85554762D01*
X195340477Y-85602381D01*
X195150000Y-85602381D01*
X195054762Y-85554762D01*
X194959524Y-85459524D01*
X194911905Y-85269048D01*
X194911905Y-84935714D01*
X194959524Y-84745238D01*
X195054762Y-84650000D01*
X195150000Y-84602381D01*
X196007143Y-84602381D02*
X196007143Y-85411905D01*
X196054762Y-85507143D01*
X196102381Y-85554762D01*
X196197619Y-85602381D01*
X196388096Y-85602381D01*
X196483334Y-85554762D01*
X196530953Y-85507143D01*
X196578572Y-85411905D01*
X196578572Y-84602381D01*
X196911905Y-84602381D02*
X197483334Y-84602381D01*
X197197619Y-85602381D02*
X197197619Y-84602381D01*
X194003809Y-108107619D02*
X194003809Y-109107619D01*
X193527619Y-108107619D02*
X193527619Y-109107619D01*
X192956190Y-108107619D01*
X192956190Y-109107619D01*
X192480000Y-108107619D02*
X192480000Y-109107619D01*
X192099047Y-109107619D01*
X192003809Y-109060000D01*
X191956190Y-109012381D01*
X191908571Y-108917143D01*
X191908571Y-108774286D01*
X191956190Y-108679048D01*
X192003809Y-108631429D01*
X192099047Y-108583810D01*
X192480000Y-108583810D01*
X214567143Y-133076666D02*
X214614762Y-133124285D01*
X214662381Y-133267142D01*
X214662381Y-133362380D01*
X214614762Y-133505238D01*
X214519524Y-133600476D01*
X214424286Y-133648095D01*
X214233810Y-133695714D01*
X214090952Y-133695714D01*
X213900476Y-133648095D01*
X213805238Y-133600476D01*
X213710000Y-133505238D01*
X213662381Y-133362380D01*
X213662381Y-133267142D01*
X213710000Y-133124285D01*
X213757619Y-133076666D01*
X214090952Y-132505238D02*
X214043333Y-132600476D01*
X213995714Y-132648095D01*
X213900476Y-132695714D01*
X213852857Y-132695714D01*
X213757619Y-132648095D01*
X213710000Y-132600476D01*
X213662381Y-132505238D01*
X213662381Y-132314761D01*
X213710000Y-132219523D01*
X213757619Y-132171904D01*
X213852857Y-132124285D01*
X213900476Y-132124285D01*
X213995714Y-132171904D01*
X214043333Y-132219523D01*
X214090952Y-132314761D01*
X214090952Y-132505238D01*
X214138571Y-132600476D01*
X214186190Y-132648095D01*
X214281429Y-132695714D01*
X214471905Y-132695714D01*
X214567143Y-132648095D01*
X214614762Y-132600476D01*
X214662381Y-132505238D01*
X214662381Y-132314761D01*
X214614762Y-132219523D01*
X214567143Y-132171904D01*
X214471905Y-132124285D01*
X214281429Y-132124285D01*
X214186190Y-132171904D01*
X214138571Y-132219523D01*
X214090952Y-132314761D01*
X212306666Y-140702857D02*
X212354285Y-140655238D01*
X212497142Y-140607619D01*
X212592380Y-140607619D01*
X212735238Y-140655238D01*
X212830476Y-140750476D01*
X212878095Y-140845714D01*
X212925714Y-141036190D01*
X212925714Y-141179048D01*
X212878095Y-141369524D01*
X212830476Y-141464762D01*
X212735238Y-141560000D01*
X212592380Y-141607619D01*
X212497142Y-141607619D01*
X212354285Y-141560000D01*
X212306666Y-141512381D01*
X211449523Y-141607619D02*
X211640000Y-141607619D01*
X211735238Y-141560000D01*
X211782857Y-141512381D01*
X211878095Y-141369524D01*
X211925714Y-141179048D01*
X211925714Y-140798095D01*
X211878095Y-140702857D01*
X211830476Y-140655238D01*
X211735238Y-140607619D01*
X211544761Y-140607619D01*
X211449523Y-140655238D01*
X211401904Y-140702857D01*
X211354285Y-140798095D01*
X211354285Y-141036190D01*
X211401904Y-141131429D01*
X211449523Y-141179048D01*
X211544761Y-141226667D01*
X211735238Y-141226667D01*
X211830476Y-141179048D01*
X211878095Y-141131429D01*
X211925714Y-141036190D01*
X196857143Y-138626666D02*
X196904762Y-138674285D01*
X196952381Y-138817142D01*
X196952381Y-138912380D01*
X196904762Y-139055238D01*
X196809524Y-139150476D01*
X196714286Y-139198095D01*
X196523810Y-139245714D01*
X196380952Y-139245714D01*
X196190476Y-139198095D01*
X196095238Y-139150476D01*
X196000000Y-139055238D01*
X195952381Y-138912380D01*
X195952381Y-138817142D01*
X196000000Y-138674285D01*
X196047619Y-138626666D01*
X195952381Y-138293333D02*
X195952381Y-137626666D01*
X196952381Y-138055238D01*
X193227143Y-138566666D02*
X193274762Y-138614285D01*
X193322381Y-138757142D01*
X193322381Y-138852380D01*
X193274762Y-138995238D01*
X193179524Y-139090476D01*
X193084286Y-139138095D01*
X192893810Y-139185714D01*
X192750952Y-139185714D01*
X192560476Y-139138095D01*
X192465238Y-139090476D01*
X192370000Y-138995238D01*
X192322381Y-138852380D01*
X192322381Y-138757142D01*
X192370000Y-138614285D01*
X192417619Y-138566666D01*
X192322381Y-137661904D02*
X192322381Y-138138095D01*
X192798571Y-138185714D01*
X192750952Y-138138095D01*
X192703333Y-138042857D01*
X192703333Y-137804761D01*
X192750952Y-137709523D01*
X192798571Y-137661904D01*
X192893810Y-137614285D01*
X193131905Y-137614285D01*
X193227143Y-137661904D01*
X193274762Y-137709523D01*
X193322381Y-137804761D01*
X193322381Y-138042857D01*
X193274762Y-138138095D01*
X193227143Y-138185714D01*
X194436666Y-132652857D02*
X194484285Y-132605238D01*
X194627142Y-132557619D01*
X194722380Y-132557619D01*
X194865238Y-132605238D01*
X194960476Y-132700476D01*
X195008095Y-132795714D01*
X195055714Y-132986190D01*
X195055714Y-133129048D01*
X195008095Y-133319524D01*
X194960476Y-133414762D01*
X194865238Y-133510000D01*
X194722380Y-133557619D01*
X194627142Y-133557619D01*
X194484285Y-133510000D01*
X194436666Y-133462381D01*
X193579523Y-133224286D02*
X193579523Y-132557619D01*
X193817619Y-133605238D02*
X194055714Y-132890952D01*
X193436666Y-132890952D01*
X196347143Y-125496666D02*
X196394762Y-125544285D01*
X196442381Y-125687142D01*
X196442381Y-125782380D01*
X196394762Y-125925238D01*
X196299524Y-126020476D01*
X196204286Y-126068095D01*
X196013810Y-126115714D01*
X195870952Y-126115714D01*
X195680476Y-126068095D01*
X195585238Y-126020476D01*
X195490000Y-125925238D01*
X195442381Y-125782380D01*
X195442381Y-125687142D01*
X195490000Y-125544285D01*
X195537619Y-125496666D01*
X195442381Y-125163333D02*
X195442381Y-124544285D01*
X195823333Y-124877619D01*
X195823333Y-124734761D01*
X195870952Y-124639523D01*
X195918571Y-124591904D01*
X196013810Y-124544285D01*
X196251905Y-124544285D01*
X196347143Y-124591904D01*
X196394762Y-124639523D01*
X196442381Y-124734761D01*
X196442381Y-125020476D01*
X196394762Y-125115714D01*
X196347143Y-125163333D01*
X192977143Y-125546666D02*
X193024762Y-125594285D01*
X193072381Y-125737142D01*
X193072381Y-125832380D01*
X193024762Y-125975238D01*
X192929524Y-126070476D01*
X192834286Y-126118095D01*
X192643810Y-126165714D01*
X192500952Y-126165714D01*
X192310476Y-126118095D01*
X192215238Y-126070476D01*
X192120000Y-125975238D01*
X192072381Y-125832380D01*
X192072381Y-125737142D01*
X192120000Y-125594285D01*
X192167619Y-125546666D01*
X192167619Y-125165714D02*
X192120000Y-125118095D01*
X192072381Y-125022857D01*
X192072381Y-124784761D01*
X192120000Y-124689523D01*
X192167619Y-124641904D01*
X192262857Y-124594285D01*
X192358095Y-124594285D01*
X192500952Y-124641904D01*
X193072381Y-125213333D01*
X193072381Y-124594285D01*
X205282381Y-120826666D02*
X205282381Y-121302857D01*
X204282381Y-121302857D01*
X204615714Y-120064761D02*
X205282381Y-120064761D01*
X204234762Y-120302857D02*
X204949048Y-120540952D01*
X204949048Y-119921904D01*
X206042381Y-134546666D02*
X206042381Y-135022857D01*
X205042381Y-135022857D01*
X205042381Y-134308571D02*
X205042381Y-133689523D01*
X205423333Y-134022857D01*
X205423333Y-133879999D01*
X205470952Y-133784761D01*
X205518571Y-133737142D01*
X205613810Y-133689523D01*
X205851905Y-133689523D01*
X205947143Y-133737142D01*
X205994762Y-133784761D01*
X206042381Y-133879999D01*
X206042381Y-134165714D01*
X205994762Y-134260952D01*
X205947143Y-134308571D01*
X206172381Y-106896666D02*
X206172381Y-107372857D01*
X205172381Y-107372857D01*
X205267619Y-106610952D02*
X205220000Y-106563333D01*
X205172381Y-106468095D01*
X205172381Y-106229999D01*
X205220000Y-106134761D01*
X205267619Y-106087142D01*
X205362857Y-106039523D01*
X205458095Y-106039523D01*
X205600952Y-106087142D01*
X206172381Y-106658571D01*
X206172381Y-106039523D01*
X195078324Y-103998150D02*
X195066630Y-104064470D01*
X194976921Y-104185417D01*
X194898907Y-104240043D01*
X194754572Y-104282976D01*
X194621931Y-104259588D01*
X194528297Y-104208887D01*
X194380038Y-104080171D01*
X194298098Y-103963149D01*
X194227852Y-103779807D01*
X194212233Y-103674479D01*
X194235621Y-103541838D01*
X194325331Y-103420891D01*
X194403345Y-103366265D01*
X194547680Y-103323333D01*
X194614000Y-103335027D01*
X195913095Y-103529901D02*
X195445008Y-103857659D01*
X195679051Y-103693781D02*
X195105475Y-102874629D01*
X195109400Y-103046276D01*
X195086012Y-103178917D01*
X195035310Y-103272551D01*
D11*
X216030000Y-142750000D02*
X190630000Y-142750000D01*
X216030000Y-100840000D02*
X216030000Y-142750000D01*
X190630000Y-100840000D02*
X216030000Y-100840000D01*
X190630000Y-142750000D02*
X190630000Y-100840000D01*
D14*
X213960000Y-84660000D02*
X211420000Y-84660000D01*
D12*
X180527143Y-79736666D02*
X180574762Y-79784285D01*
X180622381Y-79927142D01*
X180622381Y-80022380D01*
X180574762Y-80165238D01*
X180479524Y-80260476D01*
X180384286Y-80308095D01*
X180193810Y-80355714D01*
X180050952Y-80355714D01*
X179860476Y-80308095D01*
X179765238Y-80260476D01*
X179670000Y-80165238D01*
X179622381Y-80022380D01*
X179622381Y-79927142D01*
X179670000Y-79784285D01*
X179717619Y-79736666D01*
X179622381Y-79403333D02*
X179622381Y-78736666D01*
X180622381Y-79165238D01*
X183947143Y-79716666D02*
X183994762Y-79764285D01*
X184042381Y-79907142D01*
X184042381Y-80002380D01*
X183994762Y-80145238D01*
X183899524Y-80240476D01*
X183804286Y-80288095D01*
X183613810Y-80335714D01*
X183470952Y-80335714D01*
X183280476Y-80288095D01*
X183185238Y-80240476D01*
X183090000Y-80145238D01*
X183042381Y-80002380D01*
X183042381Y-79907142D01*
X183090000Y-79764285D01*
X183137619Y-79716666D01*
X183042381Y-78859523D02*
X183042381Y-79050000D01*
X183090000Y-79145238D01*
X183137619Y-79192857D01*
X183280476Y-79288095D01*
X183470952Y-79335714D01*
X183851905Y-79335714D01*
X183947143Y-79288095D01*
X183994762Y-79240476D01*
X184042381Y-79145238D01*
X184042381Y-78954761D01*
X183994762Y-78859523D01*
X183947143Y-78811904D01*
X183851905Y-78764285D01*
X183613810Y-78764285D01*
X183518571Y-78811904D01*
X183470952Y-78859523D01*
X183423333Y-78954761D01*
X183423333Y-79145238D01*
X183470952Y-79240476D01*
X183518571Y-79288095D01*
X183613810Y-79335714D01*
X189893334Y-84287143D02*
X189845715Y-84334762D01*
X189702858Y-84382381D01*
X189607620Y-84382381D01*
X189464762Y-84334762D01*
X189369524Y-84239524D01*
X189321905Y-84144286D01*
X189274286Y-83953810D01*
X189274286Y-83810952D01*
X189321905Y-83620476D01*
X189369524Y-83525238D01*
X189464762Y-83430000D01*
X189607620Y-83382381D01*
X189702858Y-83382381D01*
X189845715Y-83430000D01*
X189893334Y-83477619D01*
X190798096Y-83382381D02*
X190321905Y-83382381D01*
X190274286Y-83858571D01*
X190321905Y-83810952D01*
X190417143Y-83763333D01*
X190655239Y-83763333D01*
X190750477Y-83810952D01*
X190798096Y-83858571D01*
X190845715Y-83953810D01*
X190845715Y-84191905D01*
X190798096Y-84287143D01*
X190750477Y-84334762D01*
X190655239Y-84382381D01*
X190417143Y-84382381D01*
X190321905Y-84334762D01*
X190274286Y-84287143D01*
X187257143Y-78646666D02*
X187304762Y-78694285D01*
X187352381Y-78837142D01*
X187352381Y-78932380D01*
X187304762Y-79075238D01*
X187209524Y-79170476D01*
X187114286Y-79218095D01*
X186923810Y-79265714D01*
X186780952Y-79265714D01*
X186590476Y-79218095D01*
X186495238Y-79170476D01*
X186400000Y-79075238D01*
X186352381Y-78932380D01*
X186352381Y-78837142D01*
X186400000Y-78694285D01*
X186447619Y-78646666D01*
X186685714Y-77789523D02*
X187352381Y-77789523D01*
X186304762Y-78027619D02*
X187019048Y-78265714D01*
X187019048Y-77646666D01*
X200633334Y-67257143D02*
X200585715Y-67304762D01*
X200442858Y-67352381D01*
X200347620Y-67352381D01*
X200204762Y-67304762D01*
X200109524Y-67209524D01*
X200061905Y-67114286D01*
X200014286Y-66923810D01*
X200014286Y-66780952D01*
X200061905Y-66590476D01*
X200109524Y-66495238D01*
X200204762Y-66400000D01*
X200347620Y-66352381D01*
X200442858Y-66352381D01*
X200585715Y-66400000D01*
X200633334Y-66447619D01*
X200966667Y-66352381D02*
X201585715Y-66352381D01*
X201252381Y-66733333D01*
X201395239Y-66733333D01*
X201490477Y-66780952D01*
X201538096Y-66828571D01*
X201585715Y-66923810D01*
X201585715Y-67161905D01*
X201538096Y-67257143D01*
X201490477Y-67304762D01*
X201395239Y-67352381D01*
X201109524Y-67352381D01*
X201014286Y-67304762D01*
X200966667Y-67257143D01*
X213044688Y-80530389D02*
X213044688Y-80597732D01*
X212977344Y-80732419D01*
X212910001Y-80799763D01*
X212775313Y-80867107D01*
X212640626Y-80867107D01*
X212539611Y-80833435D01*
X212371253Y-80732420D01*
X212270237Y-80631404D01*
X212169222Y-80463045D01*
X212135550Y-80362030D01*
X212135550Y-80227343D01*
X212202894Y-80092656D01*
X212270237Y-80025312D01*
X212404924Y-79957969D01*
X212472268Y-79957969D01*
X212741641Y-79688595D02*
X212741641Y-79621252D01*
X212775313Y-79520237D01*
X212943672Y-79351877D01*
X213044688Y-79318206D01*
X213112031Y-79318206D01*
X213213046Y-79351877D01*
X213280390Y-79419221D01*
X213347733Y-79553908D01*
X213347733Y-80362030D01*
X213785466Y-79924297D01*
X214707143Y-64641666D02*
X214754762Y-64689285D01*
X214802381Y-64832142D01*
X214802381Y-64927380D01*
X214754762Y-65070238D01*
X214659524Y-65165476D01*
X214564286Y-65213095D01*
X214373810Y-65260714D01*
X214230952Y-65260714D01*
X214040476Y-65213095D01*
X213945238Y-65165476D01*
X213850000Y-65070238D01*
X213802381Y-64927380D01*
X213802381Y-64832142D01*
X213850000Y-64689285D01*
X213897619Y-64641666D01*
X214802381Y-63689285D02*
X214802381Y-64260714D01*
X214802381Y-63975000D02*
X213802381Y-63975000D01*
X213945238Y-64070238D01*
X214040476Y-64165476D01*
X214088095Y-64260714D01*
X207943334Y-73912381D02*
X207467143Y-73912381D01*
X207467143Y-72912381D01*
X208800477Y-73912381D02*
X208229048Y-73912381D01*
X208514762Y-73912381D02*
X208514762Y-72912381D01*
X208419524Y-73055238D01*
X208324286Y-73150476D01*
X208229048Y-73198095D01*
X195033334Y-75322381D02*
X194557143Y-75322381D01*
X194557143Y-74322381D01*
X195319048Y-74417619D02*
X195366667Y-74370000D01*
X195461905Y-74322381D01*
X195700001Y-74322381D01*
X195795239Y-74370000D01*
X195842858Y-74417619D01*
X195890477Y-74512857D01*
X195890477Y-74608095D01*
X195842858Y-74750952D01*
X195271429Y-75322381D01*
X195890477Y-75322381D01*
X183633334Y-68572381D02*
X183157143Y-68572381D01*
X183157143Y-67572381D01*
X183871429Y-67572381D02*
X184490477Y-67572381D01*
X184157143Y-67953333D01*
X184300001Y-67953333D01*
X184395239Y-68000952D01*
X184442858Y-68048571D01*
X184490477Y-68143810D01*
X184490477Y-68381905D01*
X184442858Y-68477143D01*
X184395239Y-68524762D01*
X184300001Y-68572381D01*
X184014286Y-68572381D01*
X183919048Y-68524762D01*
X183871429Y-68477143D01*
D11*
X176530000Y-62230000D02*
X176530000Y-60960000D01*
X176530000Y-60960000D02*
X176530000Y-62230000D01*
X176530000Y-86360000D02*
X176530000Y-60960000D01*
X215900000Y-86360000D02*
X176530000Y-86360000D01*
X215900000Y-60960000D02*
X215900000Y-86360000D01*
X176530000Y-60960000D02*
X215900000Y-60960000D01*
D12*
X141713334Y-101452381D02*
X141237143Y-101452381D01*
X141237143Y-100452381D01*
X141999048Y-100547619D02*
X142046667Y-100500000D01*
X142141905Y-100452381D01*
X142380001Y-100452381D01*
X142475239Y-100500000D01*
X142522858Y-100547619D01*
X142570477Y-100642857D01*
X142570477Y-100738095D01*
X142522858Y-100880952D01*
X141951429Y-101452381D01*
X142570477Y-101452381D01*
X125643334Y-106792381D02*
X125167143Y-106792381D01*
X125167143Y-105792381D01*
X125881429Y-105792381D02*
X126500477Y-105792381D01*
X126167143Y-106173333D01*
X126310001Y-106173333D01*
X126405239Y-106220952D01*
X126452858Y-106268571D01*
X126500477Y-106363810D01*
X126500477Y-106601905D01*
X126452858Y-106697143D01*
X126405239Y-106744762D01*
X126310001Y-106792381D01*
X126024286Y-106792381D01*
X125929048Y-106744762D01*
X125881429Y-106697143D01*
D11*
X157480000Y-143510000D02*
X157480000Y-142240000D01*
X185420000Y-143510000D02*
X157480000Y-143510000D01*
X185420000Y-142240000D02*
X185420000Y-143510000D01*
D15*
X145294500Y-139782000D02*
X145294500Y-140861500D01*
D12*
X160673334Y-141307143D02*
X160625715Y-141354762D01*
X160482858Y-141402381D01*
X160387620Y-141402381D01*
X160244762Y-141354762D01*
X160149524Y-141259524D01*
X160101905Y-141164286D01*
X160054286Y-140973810D01*
X160054286Y-140830952D01*
X160101905Y-140640476D01*
X160149524Y-140545238D01*
X160244762Y-140450000D01*
X160387620Y-140402381D01*
X160482858Y-140402381D01*
X160625715Y-140450000D01*
X160673334Y-140497619D01*
X161578096Y-140402381D02*
X161101905Y-140402381D01*
X161054286Y-140878571D01*
X161101905Y-140830952D01*
X161197143Y-140783333D01*
X161435239Y-140783333D01*
X161530477Y-140830952D01*
X161578096Y-140878571D01*
X161625715Y-140973810D01*
X161625715Y-141211905D01*
X161578096Y-141307143D01*
X161530477Y-141354762D01*
X161435239Y-141402381D01*
X161197143Y-141402381D01*
X161101905Y-141354762D01*
X161054286Y-141307143D01*
X160563334Y-123517143D02*
X160515715Y-123564762D01*
X160372858Y-123612381D01*
X160277620Y-123612381D01*
X160134762Y-123564762D01*
X160039524Y-123469524D01*
X159991905Y-123374286D01*
X159944286Y-123183810D01*
X159944286Y-123040952D01*
X159991905Y-122850476D01*
X160039524Y-122755238D01*
X160134762Y-122660000D01*
X160277620Y-122612381D01*
X160372858Y-122612381D01*
X160515715Y-122660000D01*
X160563334Y-122707619D01*
X161420477Y-122945714D02*
X161420477Y-123612381D01*
X161182381Y-122564762D02*
X160944286Y-123279048D01*
X161563334Y-123279048D01*
X160403334Y-120077143D02*
X160355715Y-120124762D01*
X160212858Y-120172381D01*
X160117620Y-120172381D01*
X159974762Y-120124762D01*
X159879524Y-120029524D01*
X159831905Y-119934286D01*
X159784286Y-119743810D01*
X159784286Y-119600952D01*
X159831905Y-119410476D01*
X159879524Y-119315238D01*
X159974762Y-119220000D01*
X160117620Y-119172381D01*
X160212858Y-119172381D01*
X160355715Y-119220000D01*
X160403334Y-119267619D01*
X160736667Y-119172381D02*
X161355715Y-119172381D01*
X161022381Y-119553333D01*
X161165239Y-119553333D01*
X161260477Y-119600952D01*
X161308096Y-119648571D01*
X161355715Y-119743810D01*
X161355715Y-119981905D01*
X161308096Y-120077143D01*
X161260477Y-120124762D01*
X161165239Y-120172381D01*
X160879524Y-120172381D01*
X160784286Y-120124762D01*
X160736667Y-120077143D01*
X181664688Y-138780389D02*
X181664688Y-138847732D01*
X181597344Y-138982419D01*
X181530001Y-139049763D01*
X181395313Y-139117107D01*
X181260626Y-139117107D01*
X181159611Y-139083435D01*
X180991253Y-138982420D01*
X180890237Y-138881404D01*
X180789222Y-138713045D01*
X180755550Y-138612030D01*
X180755550Y-138477343D01*
X180822894Y-138342656D01*
X180890237Y-138275312D01*
X181024924Y-138207969D01*
X181092268Y-138207969D01*
X181361641Y-137938595D02*
X181361641Y-137871252D01*
X181395313Y-137770237D01*
X181563672Y-137601877D01*
X181664688Y-137568206D01*
X181732031Y-137568206D01*
X181833046Y-137601877D01*
X181900390Y-137669221D01*
X181967733Y-137803908D01*
X181967733Y-138612030D01*
X182405466Y-138174297D01*
X184027143Y-121826666D02*
X184074762Y-121874285D01*
X184122381Y-122017142D01*
X184122381Y-122112380D01*
X184074762Y-122255238D01*
X183979524Y-122350476D01*
X183884286Y-122398095D01*
X183693810Y-122445714D01*
X183550952Y-122445714D01*
X183360476Y-122398095D01*
X183265238Y-122350476D01*
X183170000Y-122255238D01*
X183122381Y-122112380D01*
X183122381Y-122017142D01*
X183170000Y-121874285D01*
X183217619Y-121826666D01*
X184122381Y-120874285D02*
X184122381Y-121445714D01*
X184122381Y-121160000D02*
X183122381Y-121160000D01*
X183265238Y-121255238D01*
X183360476Y-121350476D01*
X183408095Y-121445714D01*
X163733334Y-131492381D02*
X163257143Y-131492381D01*
X163257143Y-130492381D01*
X164019048Y-130587619D02*
X164066667Y-130540000D01*
X164161905Y-130492381D01*
X164400001Y-130492381D01*
X164495239Y-130540000D01*
X164542858Y-130587619D01*
X164590477Y-130682857D01*
X164590477Y-130778095D01*
X164542858Y-130920952D01*
X163971429Y-131492381D01*
X164590477Y-131492381D01*
X178303334Y-131052381D02*
X177827143Y-131052381D01*
X177827143Y-130052381D01*
X179160477Y-131052381D02*
X178589048Y-131052381D01*
X178874762Y-131052381D02*
X178874762Y-130052381D01*
X178779524Y-130195238D01*
X178684286Y-130290476D01*
X178589048Y-130338095D01*
X177292381Y-141710000D02*
X177292381Y-141519523D01*
X177340000Y-141424285D01*
X177435238Y-141329047D01*
X177625714Y-141281428D01*
X177959048Y-141281428D01*
X178149524Y-141329047D01*
X178244762Y-141424285D01*
X178292381Y-141519523D01*
X178292381Y-141710000D01*
X178244762Y-141805238D01*
X178149524Y-141900476D01*
X177959048Y-141948095D01*
X177625714Y-141948095D01*
X177435238Y-141900476D01*
X177340000Y-141805238D01*
X177292381Y-141710000D01*
X177292381Y-140852857D02*
X178101905Y-140852857D01*
X178197143Y-140805238D01*
X178244762Y-140757619D01*
X178292381Y-140662381D01*
X178292381Y-140471904D01*
X178244762Y-140376666D01*
X178197143Y-140329047D01*
X178101905Y-140281428D01*
X177292381Y-140281428D01*
X177292381Y-139948095D02*
X177292381Y-139376666D01*
X178292381Y-139662381D02*
X177292381Y-139662381D01*
X178212381Y-120893809D02*
X177212381Y-120893809D01*
X178212381Y-120417619D02*
X177212381Y-120417619D01*
X178212381Y-119846190D01*
X177212381Y-119846190D01*
X178212381Y-119370000D02*
X177212381Y-119370000D01*
X177212381Y-118989047D01*
X177260000Y-118893809D01*
X177307619Y-118846190D01*
X177402857Y-118798571D01*
X177545714Y-118798571D01*
X177640952Y-118846190D01*
X177688571Y-118893809D01*
X177736190Y-118989047D01*
X177736190Y-119370000D01*
D11*
X157480000Y-142240000D02*
X157480000Y-118110000D01*
X185420000Y-118110000D02*
X185420000Y-142240000D01*
X157480000Y-118110000D02*
X185420000Y-118110000D01*
D14*
X172310000Y-137270000D02*
X169770000Y-137270000D01*
D11*
X120650000Y-143510000D02*
X120650000Y-118110000D01*
X151130000Y-143510000D02*
X120650000Y-143510000D01*
X151130000Y-118110000D02*
X151130000Y-143510000D01*
X120650000Y-118110000D02*
X151130000Y-118110000D01*
D12*
X132699048Y-123168571D02*
X132841905Y-123216190D01*
X132889524Y-123263810D01*
X132937143Y-123359048D01*
X132937143Y-123501905D01*
X132889524Y-123597143D01*
X132841905Y-123644762D01*
X132746667Y-123692381D01*
X132365714Y-123692381D01*
X132365714Y-122692381D01*
X132699048Y-122692381D01*
X132794286Y-122740000D01*
X132841905Y-122787619D01*
X132889524Y-122882857D01*
X132889524Y-122978095D01*
X132841905Y-123073333D01*
X132794286Y-123120952D01*
X132699048Y-123168571D01*
X132365714Y-123168571D01*
X133318095Y-123406667D02*
X133794286Y-123406667D01*
X133222857Y-123692381D02*
X133556190Y-122692381D01*
X133889524Y-123692381D01*
X134222857Y-123692381D02*
X134222857Y-122692381D01*
X134794286Y-123692381D01*
X134794286Y-122692381D01*
X135270476Y-123692381D02*
X135270476Y-122692381D01*
X135508571Y-122692381D01*
X135651429Y-122740000D01*
X135746667Y-122835238D01*
X135794286Y-122930476D01*
X135841905Y-123120952D01*
X135841905Y-123263810D01*
X135794286Y-123454286D01*
X135746667Y-123549524D01*
X135651429Y-123644762D01*
X135508571Y-123692381D01*
X135270476Y-123692381D01*
X132437143Y-125342381D02*
X132437143Y-124342381D01*
X132818096Y-124342381D01*
X132913334Y-124390000D01*
X132960953Y-124437619D01*
X133008572Y-124532857D01*
X133008572Y-124675714D01*
X132960953Y-124770952D01*
X132913334Y-124818571D01*
X132818096Y-124866190D01*
X132437143Y-124866190D01*
X133389524Y-125056667D02*
X133865715Y-125056667D01*
X133294286Y-125342381D02*
X133627619Y-124342381D01*
X133960953Y-125342381D01*
X134246667Y-125294762D02*
X134389524Y-125342381D01*
X134627620Y-125342381D01*
X134722858Y-125294762D01*
X134770477Y-125247143D01*
X134818096Y-125151905D01*
X134818096Y-125056667D01*
X134770477Y-124961429D01*
X134722858Y-124913810D01*
X134627620Y-124866190D01*
X134437143Y-124818571D01*
X134341905Y-124770952D01*
X134294286Y-124723333D01*
X134246667Y-124628095D01*
X134246667Y-124532857D01*
X134294286Y-124437619D01*
X134341905Y-124390000D01*
X134437143Y-124342381D01*
X134675239Y-124342381D01*
X134818096Y-124390000D01*
X135199048Y-125294762D02*
X135341905Y-125342381D01*
X135580001Y-125342381D01*
X135675239Y-125294762D01*
X135722858Y-125247143D01*
X135770477Y-125151905D01*
X135770477Y-125056667D01*
X135722858Y-124961429D01*
X135675239Y-124913810D01*
X135580001Y-124866190D01*
X135389524Y-124818571D01*
X135294286Y-124770952D01*
X135246667Y-124723333D01*
X135199048Y-124628095D01*
X135199048Y-124532857D01*
X135246667Y-124437619D01*
X135294286Y-124390000D01*
X135389524Y-124342381D01*
X135627620Y-124342381D01*
X135770477Y-124390000D01*
X132246667Y-126468571D02*
X131913333Y-126468571D01*
X131913333Y-126992381D02*
X131913333Y-125992381D01*
X132389524Y-125992381D01*
X132770476Y-126992381D02*
X132770476Y-125992381D01*
X133722857Y-126992381D02*
X133246666Y-126992381D01*
X133246666Y-125992381D01*
X133913333Y-125992381D02*
X134484762Y-125992381D01*
X134199047Y-126992381D02*
X134199047Y-125992381D01*
X134818095Y-126468571D02*
X135151429Y-126468571D01*
X135294286Y-126992381D02*
X134818095Y-126992381D01*
X134818095Y-125992381D01*
X135294286Y-125992381D01*
X136294286Y-126992381D02*
X135960952Y-126516190D01*
X135722857Y-126992381D02*
X135722857Y-125992381D01*
X136103810Y-125992381D01*
X136199048Y-126040000D01*
X136246667Y-126087619D01*
X136294286Y-126182857D01*
X136294286Y-126325714D01*
X136246667Y-126420952D01*
X136199048Y-126468571D01*
X136103810Y-126516190D01*
X135722857Y-126516190D01*
X167479048Y-93828571D02*
X167621905Y-93876190D01*
X167669524Y-93923810D01*
X167717143Y-94019048D01*
X167717143Y-94161905D01*
X167669524Y-94257143D01*
X167621905Y-94304762D01*
X167526667Y-94352381D01*
X167145714Y-94352381D01*
X167145714Y-93352381D01*
X167479048Y-93352381D01*
X167574286Y-93400000D01*
X167621905Y-93447619D01*
X167669524Y-93542857D01*
X167669524Y-93638095D01*
X167621905Y-93733333D01*
X167574286Y-93780952D01*
X167479048Y-93828571D01*
X167145714Y-93828571D01*
X168098095Y-94066667D02*
X168574286Y-94066667D01*
X168002857Y-94352381D02*
X168336190Y-93352381D01*
X168669524Y-94352381D01*
X169002857Y-94352381D02*
X169002857Y-93352381D01*
X169574286Y-94352381D01*
X169574286Y-93352381D01*
X170050476Y-94352381D02*
X170050476Y-93352381D01*
X170288571Y-93352381D01*
X170431429Y-93400000D01*
X170526667Y-93495238D01*
X170574286Y-93590476D01*
X170621905Y-93780952D01*
X170621905Y-93923810D01*
X170574286Y-94114286D01*
X170526667Y-94209524D01*
X170431429Y-94304762D01*
X170288571Y-94352381D01*
X170050476Y-94352381D01*
X167217143Y-96002381D02*
X167217143Y-95002381D01*
X167598096Y-95002381D01*
X167693334Y-95050000D01*
X167740953Y-95097619D01*
X167788572Y-95192857D01*
X167788572Y-95335714D01*
X167740953Y-95430952D01*
X167693334Y-95478571D01*
X167598096Y-95526190D01*
X167217143Y-95526190D01*
X168169524Y-95716667D02*
X168645715Y-95716667D01*
X168074286Y-96002381D02*
X168407619Y-95002381D01*
X168740953Y-96002381D01*
X169026667Y-95954762D02*
X169169524Y-96002381D01*
X169407620Y-96002381D01*
X169502858Y-95954762D01*
X169550477Y-95907143D01*
X169598096Y-95811905D01*
X169598096Y-95716667D01*
X169550477Y-95621429D01*
X169502858Y-95573810D01*
X169407620Y-95526190D01*
X169217143Y-95478571D01*
X169121905Y-95430952D01*
X169074286Y-95383333D01*
X169026667Y-95288095D01*
X169026667Y-95192857D01*
X169074286Y-95097619D01*
X169121905Y-95050000D01*
X169217143Y-95002381D01*
X169455239Y-95002381D01*
X169598096Y-95050000D01*
X169979048Y-95954762D02*
X170121905Y-96002381D01*
X170360001Y-96002381D01*
X170455239Y-95954762D01*
X170502858Y-95907143D01*
X170550477Y-95811905D01*
X170550477Y-95716667D01*
X170502858Y-95621429D01*
X170455239Y-95573810D01*
X170360001Y-95526190D01*
X170169524Y-95478571D01*
X170074286Y-95430952D01*
X170026667Y-95383333D01*
X169979048Y-95288095D01*
X169979048Y-95192857D01*
X170026667Y-95097619D01*
X170074286Y-95050000D01*
X170169524Y-95002381D01*
X170407620Y-95002381D01*
X170550477Y-95050000D01*
X167026667Y-97128571D02*
X166693333Y-97128571D01*
X166693333Y-97652381D02*
X166693333Y-96652381D01*
X167169524Y-96652381D01*
X167550476Y-97652381D02*
X167550476Y-96652381D01*
X168502857Y-97652381D02*
X168026666Y-97652381D01*
X168026666Y-96652381D01*
X168693333Y-96652381D02*
X169264762Y-96652381D01*
X168979047Y-97652381D02*
X168979047Y-96652381D01*
X169598095Y-97128571D02*
X169931429Y-97128571D01*
X170074286Y-97652381D02*
X169598095Y-97652381D01*
X169598095Y-96652381D01*
X170074286Y-96652381D01*
X171074286Y-97652381D02*
X170740952Y-97176190D01*
X170502857Y-97652381D02*
X170502857Y-96652381D01*
X170883810Y-96652381D01*
X170979048Y-96700000D01*
X171026667Y-96747619D01*
X171074286Y-96842857D01*
X171074286Y-96985714D01*
X171026667Y-97080952D01*
X170979048Y-97128571D01*
X170883810Y-97176190D01*
X170502857Y-97176190D01*
X123943334Y-127317143D02*
X123895715Y-127364762D01*
X123752858Y-127412381D01*
X123657620Y-127412381D01*
X123514762Y-127364762D01*
X123419524Y-127269524D01*
X123371905Y-127174286D01*
X123324286Y-126983810D01*
X123324286Y-126840952D01*
X123371905Y-126650476D01*
X123419524Y-126555238D01*
X123514762Y-126460000D01*
X123657620Y-126412381D01*
X123752858Y-126412381D01*
X123895715Y-126460000D01*
X123943334Y-126507619D01*
X124848096Y-126412381D02*
X124371905Y-126412381D01*
X124324286Y-126888571D01*
X124371905Y-126840952D01*
X124467143Y-126793333D01*
X124705239Y-126793333D01*
X124800477Y-126840952D01*
X124848096Y-126888571D01*
X124895715Y-126983810D01*
X124895715Y-127221905D01*
X124848096Y-127317143D01*
X124800477Y-127364762D01*
X124705239Y-127412381D01*
X124467143Y-127412381D01*
X124371905Y-127364762D01*
X124324286Y-127317143D01*
X134977392Y-134075535D02*
X134916358Y-134047075D01*
X134822751Y-133929120D01*
X134790178Y-133839625D01*
X134786065Y-133689096D01*
X134842986Y-133567028D01*
X134916194Y-133489708D01*
X135078896Y-133379814D01*
X135213139Y-133330954D01*
X135408414Y-133310554D01*
X135514195Y-133322728D01*
X135636263Y-133379649D01*
X135729870Y-133497605D01*
X135762444Y-133587100D01*
X135766557Y-133737628D01*
X135738096Y-133798662D01*
X135941597Y-134079319D02*
X136169611Y-134705781D01*
X135083338Y-134645075D01*
X149837143Y-139166666D02*
X149884762Y-139214285D01*
X149932381Y-139357142D01*
X149932381Y-139452380D01*
X149884762Y-139595238D01*
X149789524Y-139690476D01*
X149694286Y-139738095D01*
X149503810Y-139785714D01*
X149360952Y-139785714D01*
X149170476Y-139738095D01*
X149075238Y-139690476D01*
X148980000Y-139595238D01*
X148932381Y-139452380D01*
X148932381Y-139357142D01*
X148980000Y-139214285D01*
X149027619Y-139166666D01*
X148932381Y-138309523D02*
X148932381Y-138500000D01*
X148980000Y-138595238D01*
X149027619Y-138642857D01*
X149170476Y-138738095D01*
X149360952Y-138785714D01*
X149741905Y-138785714D01*
X149837143Y-138738095D01*
X149884762Y-138690476D01*
X149932381Y-138595238D01*
X149932381Y-138404761D01*
X149884762Y-138309523D01*
X149837143Y-138261904D01*
X149741905Y-138214285D01*
X149503810Y-138214285D01*
X149408571Y-138261904D01*
X149360952Y-138309523D01*
X149313333Y-138404761D01*
X149313333Y-138595238D01*
X149360952Y-138690476D01*
X149408571Y-138738095D01*
X149503810Y-138785714D01*
X142443334Y-129952381D02*
X141967143Y-129952381D01*
X141967143Y-128952381D01*
X142729048Y-129047619D02*
X142776667Y-129000000D01*
X142871905Y-128952381D01*
X143110001Y-128952381D01*
X143205239Y-129000000D01*
X143252858Y-129047619D01*
X143300477Y-129142857D01*
X143300477Y-129238095D01*
X143252858Y-129380952D01*
X142681429Y-129952381D01*
X143300477Y-129952381D01*
X126863334Y-135672381D02*
X126387143Y-135672381D01*
X126387143Y-134672381D01*
X127101429Y-134672381D02*
X127720477Y-134672381D01*
X127387143Y-135053333D01*
X127530001Y-135053333D01*
X127625239Y-135100952D01*
X127672858Y-135148571D01*
X127720477Y-135243810D01*
X127720477Y-135481905D01*
X127672858Y-135577143D01*
X127625239Y-135624762D01*
X127530001Y-135672381D01*
X127244286Y-135672381D01*
X127149048Y-135624762D01*
X127101429Y-135577143D01*
X149727143Y-122546666D02*
X149774762Y-122594285D01*
X149822381Y-122737142D01*
X149822381Y-122832380D01*
X149774762Y-122975238D01*
X149679524Y-123070476D01*
X149584286Y-123118095D01*
X149393810Y-123165714D01*
X149250952Y-123165714D01*
X149060476Y-123118095D01*
X148965238Y-123070476D01*
X148870000Y-122975238D01*
X148822381Y-122832380D01*
X148822381Y-122737142D01*
X148870000Y-122594285D01*
X148917619Y-122546666D01*
X149822381Y-121594285D02*
X149822381Y-122165714D01*
X149822381Y-121880000D02*
X148822381Y-121880000D01*
X148965238Y-121975238D01*
X149060476Y-122070476D01*
X149108095Y-122165714D01*
X127103334Y-120447143D02*
X127055715Y-120494762D01*
X126912858Y-120542381D01*
X126817620Y-120542381D01*
X126674762Y-120494762D01*
X126579524Y-120399524D01*
X126531905Y-120304286D01*
X126484286Y-120113810D01*
X126484286Y-119970952D01*
X126531905Y-119780476D01*
X126579524Y-119685238D01*
X126674762Y-119590000D01*
X126817620Y-119542381D01*
X126912858Y-119542381D01*
X127055715Y-119590000D01*
X127103334Y-119637619D01*
X127436667Y-119542381D02*
X128055715Y-119542381D01*
X127722381Y-119923333D01*
X127865239Y-119923333D01*
X127960477Y-119970952D01*
X128008096Y-120018571D01*
X128055715Y-120113810D01*
X128055715Y-120351905D01*
X128008096Y-120447143D01*
X127960477Y-120494762D01*
X127865239Y-120542381D01*
X127579524Y-120542381D01*
X127484286Y-120494762D01*
X127436667Y-120447143D01*
X127213334Y-123797143D02*
X127165715Y-123844762D01*
X127022858Y-123892381D01*
X126927620Y-123892381D01*
X126784762Y-123844762D01*
X126689524Y-123749524D01*
X126641905Y-123654286D01*
X126594286Y-123463810D01*
X126594286Y-123320952D01*
X126641905Y-123130476D01*
X126689524Y-123035238D01*
X126784762Y-122940000D01*
X126927620Y-122892381D01*
X127022858Y-122892381D01*
X127165715Y-122940000D01*
X127213334Y-122987619D01*
X127594286Y-122987619D02*
X127641905Y-122940000D01*
X127737143Y-122892381D01*
X127975239Y-122892381D01*
X128070477Y-122940000D01*
X128118096Y-122987619D01*
X128165715Y-123082857D01*
X128165715Y-123178095D01*
X128118096Y-123320952D01*
X127546667Y-123892381D01*
X128165715Y-123892381D01*
X122347143Y-122176666D02*
X122394762Y-122224285D01*
X122442381Y-122367142D01*
X122442381Y-122462380D01*
X122394762Y-122605238D01*
X122299524Y-122700476D01*
X122204286Y-122748095D01*
X122013810Y-122795714D01*
X121870952Y-122795714D01*
X121680476Y-122748095D01*
X121585238Y-122700476D01*
X121490000Y-122605238D01*
X121442381Y-122462380D01*
X121442381Y-122367142D01*
X121490000Y-122224285D01*
X121537619Y-122176666D01*
X121775714Y-121319523D02*
X122442381Y-121319523D01*
X121394762Y-121557619D02*
X122109048Y-121795714D01*
X122109048Y-121176666D01*
X129120000Y-141972381D02*
X129310477Y-141972381D01*
X129405715Y-142020000D01*
X129500953Y-142115238D01*
X129548572Y-142305714D01*
X129548572Y-142639048D01*
X129500953Y-142829524D01*
X129405715Y-142924762D01*
X129310477Y-142972381D01*
X129120000Y-142972381D01*
X129024762Y-142924762D01*
X128929524Y-142829524D01*
X128881905Y-142639048D01*
X128881905Y-142305714D01*
X128929524Y-142115238D01*
X129024762Y-142020000D01*
X129120000Y-141972381D01*
X129977143Y-141972381D02*
X129977143Y-142781905D01*
X130024762Y-142877143D01*
X130072381Y-142924762D01*
X130167619Y-142972381D01*
X130358096Y-142972381D01*
X130453334Y-142924762D01*
X130500953Y-142877143D01*
X130548572Y-142781905D01*
X130548572Y-141972381D01*
X130881905Y-141972381D02*
X131453334Y-141972381D01*
X131167619Y-142972381D02*
X131167619Y-141972381D01*
X143892381Y-120943809D02*
X142892381Y-120943809D01*
X143892381Y-120467619D02*
X142892381Y-120467619D01*
X143892381Y-119896190D01*
X142892381Y-119896190D01*
X143892381Y-119420000D02*
X142892381Y-119420000D01*
X142892381Y-119039047D01*
X142940000Y-118943809D01*
X142987619Y-118896190D01*
X143082857Y-118848571D01*
X143225714Y-118848571D01*
X143320952Y-118896190D01*
X143368571Y-118943809D01*
X143416190Y-119039047D01*
X143416190Y-119420000D01*
D11*
X119380000Y-88900000D02*
X149860000Y-88900000D01*
X119380000Y-114300000D02*
X119380000Y-88900000D01*
X149860000Y-114300000D02*
X119380000Y-114300000D01*
X149860000Y-88900000D02*
X149860000Y-114300000D01*
X154940000Y-114300000D02*
X154940000Y-88900000D01*
X185420000Y-114300000D02*
X154940000Y-114300000D01*
X185420000Y-88900000D02*
X185420000Y-114300000D01*
X154940000Y-88900000D02*
X185420000Y-88900000D01*
D12*
X176871334Y-101544381D02*
X176395143Y-101544381D01*
X176395143Y-100544381D01*
X177157048Y-100639619D02*
X177204667Y-100592000D01*
X177299905Y-100544381D01*
X177538001Y-100544381D01*
X177633239Y-100592000D01*
X177680858Y-100639619D01*
X177728477Y-100734857D01*
X177728477Y-100830095D01*
X177680858Y-100972952D01*
X177109429Y-101544381D01*
X177728477Y-101544381D01*
X184253143Y-110148666D02*
X184300762Y-110196285D01*
X184348381Y-110339142D01*
X184348381Y-110434380D01*
X184300762Y-110577238D01*
X184205524Y-110672476D01*
X184110286Y-110720095D01*
X183919810Y-110767714D01*
X183776952Y-110767714D01*
X183586476Y-110720095D01*
X183491238Y-110672476D01*
X183396000Y-110577238D01*
X183348381Y-110434380D01*
X183348381Y-110339142D01*
X183396000Y-110196285D01*
X183443619Y-110148666D01*
X183348381Y-109291523D02*
X183348381Y-109482000D01*
X183396000Y-109577238D01*
X183443619Y-109624857D01*
X183586476Y-109720095D01*
X183776952Y-109767714D01*
X184157905Y-109767714D01*
X184253143Y-109720095D01*
X184300762Y-109672476D01*
X184348381Y-109577238D01*
X184348381Y-109386761D01*
X184300762Y-109291523D01*
X184253143Y-109243904D01*
X184157905Y-109196285D01*
X183919810Y-109196285D01*
X183824571Y-109243904D01*
X183776952Y-109291523D01*
X183729333Y-109386761D01*
X183729333Y-109577238D01*
X183776952Y-109672476D01*
X183824571Y-109720095D01*
X183919810Y-109767714D01*
X184253143Y-93638666D02*
X184300762Y-93686285D01*
X184348381Y-93829142D01*
X184348381Y-93924380D01*
X184300762Y-94067238D01*
X184205524Y-94162476D01*
X184110286Y-94210095D01*
X183919810Y-94257714D01*
X183776952Y-94257714D01*
X183586476Y-94210095D01*
X183491238Y-94162476D01*
X183396000Y-94067238D01*
X183348381Y-93924380D01*
X183348381Y-93829142D01*
X183396000Y-93686285D01*
X183443619Y-93638666D01*
X184348381Y-92686285D02*
X184348381Y-93257714D01*
X184348381Y-92972000D02*
X183348381Y-92972000D01*
X183491238Y-93067238D01*
X183586476Y-93162476D01*
X183634095Y-93257714D01*
X168771392Y-103597535D02*
X168710358Y-103569075D01*
X168616751Y-103451120D01*
X168584178Y-103361625D01*
X168580065Y-103211096D01*
X168636986Y-103089028D01*
X168710194Y-103011708D01*
X168872896Y-102901814D01*
X169007139Y-102852954D01*
X169202414Y-102832554D01*
X169308195Y-102844728D01*
X169430263Y-102901649D01*
X169523870Y-103019605D01*
X169556444Y-103109100D01*
X169560557Y-103259628D01*
X169532096Y-103320662D01*
X169735597Y-103601319D02*
X169963611Y-104227781D01*
X168877338Y-104167075D01*
X161833334Y-94307143D02*
X161785715Y-94354762D01*
X161642858Y-94402381D01*
X161547620Y-94402381D01*
X161404762Y-94354762D01*
X161309524Y-94259524D01*
X161261905Y-94164286D01*
X161214286Y-93973810D01*
X161214286Y-93830952D01*
X161261905Y-93640476D01*
X161309524Y-93545238D01*
X161404762Y-93450000D01*
X161547620Y-93402381D01*
X161642858Y-93402381D01*
X161785715Y-93450000D01*
X161833334Y-93497619D01*
X162166667Y-93402381D02*
X162785715Y-93402381D01*
X162452381Y-93783333D01*
X162595239Y-93783333D01*
X162690477Y-93830952D01*
X162738096Y-93878571D01*
X162785715Y-93973810D01*
X162785715Y-94211905D01*
X162738096Y-94307143D01*
X162690477Y-94354762D01*
X162595239Y-94402381D01*
X162309524Y-94402381D01*
X162214286Y-94354762D01*
X162166667Y-94307143D01*
X161953334Y-91107143D02*
X161905715Y-91154762D01*
X161762858Y-91202381D01*
X161667620Y-91202381D01*
X161524762Y-91154762D01*
X161429524Y-91059524D01*
X161381905Y-90964286D01*
X161334286Y-90773810D01*
X161334286Y-90630952D01*
X161381905Y-90440476D01*
X161429524Y-90345238D01*
X161524762Y-90250000D01*
X161667620Y-90202381D01*
X161762858Y-90202381D01*
X161905715Y-90250000D01*
X161953334Y-90297619D01*
X162334286Y-90297619D02*
X162381905Y-90250000D01*
X162477143Y-90202381D01*
X162715239Y-90202381D01*
X162810477Y-90250000D01*
X162858096Y-90297619D01*
X162905715Y-90392857D01*
X162905715Y-90488095D01*
X162858096Y-90630952D01*
X162286667Y-91202381D01*
X162905715Y-91202381D01*
X157075143Y-92876666D02*
X157122762Y-92924285D01*
X157170381Y-93067142D01*
X157170381Y-93162380D01*
X157122762Y-93305238D01*
X157027524Y-93400476D01*
X156932286Y-93448095D01*
X156741810Y-93495714D01*
X156598952Y-93495714D01*
X156408476Y-93448095D01*
X156313238Y-93400476D01*
X156218000Y-93305238D01*
X156170381Y-93162380D01*
X156170381Y-93067142D01*
X156218000Y-92924285D01*
X156265619Y-92876666D01*
X156503714Y-92019523D02*
X157170381Y-92019523D01*
X156122762Y-92257619D02*
X156837048Y-92495714D01*
X156837048Y-91876666D01*
X158703334Y-98487143D02*
X158655715Y-98534762D01*
X158512858Y-98582381D01*
X158417620Y-98582381D01*
X158274762Y-98534762D01*
X158179524Y-98439524D01*
X158131905Y-98344286D01*
X158084286Y-98153810D01*
X158084286Y-98010952D01*
X158131905Y-97820476D01*
X158179524Y-97725238D01*
X158274762Y-97630000D01*
X158417620Y-97582381D01*
X158512858Y-97582381D01*
X158655715Y-97630000D01*
X158703334Y-97677619D01*
X159608096Y-97582381D02*
X159131905Y-97582381D01*
X159084286Y-98058571D01*
X159131905Y-98010952D01*
X159227143Y-97963333D01*
X159465239Y-97963333D01*
X159560477Y-98010952D01*
X159608096Y-98058571D01*
X159655715Y-98153810D01*
X159655715Y-98391905D01*
X159608096Y-98487143D01*
X159560477Y-98534762D01*
X159465239Y-98582381D01*
X159227143Y-98582381D01*
X159131905Y-98534762D01*
X159084286Y-98487143D01*
X161377334Y-106624381D02*
X160901143Y-106624381D01*
X160901143Y-105624381D01*
X161615429Y-105624381D02*
X162234477Y-105624381D01*
X161901143Y-106005333D01*
X162044001Y-106005333D01*
X162139239Y-106052952D01*
X162186858Y-106100571D01*
X162234477Y-106195810D01*
X162234477Y-106433905D01*
X162186858Y-106529143D01*
X162139239Y-106576762D01*
X162044001Y-106624381D01*
X161758286Y-106624381D01*
X161663048Y-106576762D01*
X161615429Y-106529143D01*
D15*
X179554500Y-110282000D02*
X179554500Y-111361500D01*
D12*
X163440000Y-113062381D02*
X163630477Y-113062381D01*
X163725715Y-113110000D01*
X163820953Y-113205238D01*
X163868572Y-113395714D01*
X163868572Y-113729048D01*
X163820953Y-113919524D01*
X163725715Y-114014762D01*
X163630477Y-114062381D01*
X163440000Y-114062381D01*
X163344762Y-114014762D01*
X163249524Y-113919524D01*
X163201905Y-113729048D01*
X163201905Y-113395714D01*
X163249524Y-113205238D01*
X163344762Y-113110000D01*
X163440000Y-113062381D01*
X164297143Y-113062381D02*
X164297143Y-113871905D01*
X164344762Y-113967143D01*
X164392381Y-114014762D01*
X164487619Y-114062381D01*
X164678096Y-114062381D01*
X164773334Y-114014762D01*
X164820953Y-113967143D01*
X164868572Y-113871905D01*
X164868572Y-113062381D01*
X165201905Y-113062381D02*
X165773334Y-113062381D01*
X165487619Y-114062381D02*
X165487619Y-113062381D01*
X178182381Y-91693809D02*
X177182381Y-91693809D01*
X178182381Y-91217619D02*
X177182381Y-91217619D01*
X178182381Y-90646190D01*
X177182381Y-90646190D01*
X178182381Y-90170000D02*
X177182381Y-90170000D01*
X177182381Y-89789047D01*
X177230000Y-89693809D01*
X177277619Y-89646190D01*
X177372857Y-89598571D01*
X177515714Y-89598571D01*
X177610952Y-89646190D01*
X177658571Y-89693809D01*
X177706190Y-89789047D01*
X177706190Y-90170000D01*
D15*
X143954500Y-109982000D02*
X143954500Y-111061500D01*
D12*
X132059048Y-93998571D02*
X132201905Y-94046190D01*
X132249524Y-94093810D01*
X132297143Y-94189048D01*
X132297143Y-94331905D01*
X132249524Y-94427143D01*
X132201905Y-94474762D01*
X132106667Y-94522381D01*
X131725714Y-94522381D01*
X131725714Y-93522381D01*
X132059048Y-93522381D01*
X132154286Y-93570000D01*
X132201905Y-93617619D01*
X132249524Y-93712857D01*
X132249524Y-93808095D01*
X132201905Y-93903333D01*
X132154286Y-93950952D01*
X132059048Y-93998571D01*
X131725714Y-93998571D01*
X132678095Y-94236667D02*
X133154286Y-94236667D01*
X132582857Y-94522381D02*
X132916190Y-93522381D01*
X133249524Y-94522381D01*
X133582857Y-94522381D02*
X133582857Y-93522381D01*
X134154286Y-94522381D01*
X134154286Y-93522381D01*
X134630476Y-94522381D02*
X134630476Y-93522381D01*
X134868571Y-93522381D01*
X135011429Y-93570000D01*
X135106667Y-93665238D01*
X135154286Y-93760476D01*
X135201905Y-93950952D01*
X135201905Y-94093810D01*
X135154286Y-94284286D01*
X135106667Y-94379524D01*
X135011429Y-94474762D01*
X134868571Y-94522381D01*
X134630476Y-94522381D01*
X131797143Y-96172381D02*
X131797143Y-95172381D01*
X132178096Y-95172381D01*
X132273334Y-95220000D01*
X132320953Y-95267619D01*
X132368572Y-95362857D01*
X132368572Y-95505714D01*
X132320953Y-95600952D01*
X132273334Y-95648571D01*
X132178096Y-95696190D01*
X131797143Y-95696190D01*
X132749524Y-95886667D02*
X133225715Y-95886667D01*
X132654286Y-96172381D02*
X132987619Y-95172381D01*
X133320953Y-96172381D01*
X133606667Y-96124762D02*
X133749524Y-96172381D01*
X133987620Y-96172381D01*
X134082858Y-96124762D01*
X134130477Y-96077143D01*
X134178096Y-95981905D01*
X134178096Y-95886667D01*
X134130477Y-95791429D01*
X134082858Y-95743810D01*
X133987620Y-95696190D01*
X133797143Y-95648571D01*
X133701905Y-95600952D01*
X133654286Y-95553333D01*
X133606667Y-95458095D01*
X133606667Y-95362857D01*
X133654286Y-95267619D01*
X133701905Y-95220000D01*
X133797143Y-95172381D01*
X134035239Y-95172381D01*
X134178096Y-95220000D01*
X134559048Y-96124762D02*
X134701905Y-96172381D01*
X134940001Y-96172381D01*
X135035239Y-96124762D01*
X135082858Y-96077143D01*
X135130477Y-95981905D01*
X135130477Y-95886667D01*
X135082858Y-95791429D01*
X135035239Y-95743810D01*
X134940001Y-95696190D01*
X134749524Y-95648571D01*
X134654286Y-95600952D01*
X134606667Y-95553333D01*
X134559048Y-95458095D01*
X134559048Y-95362857D01*
X134606667Y-95267619D01*
X134654286Y-95220000D01*
X134749524Y-95172381D01*
X134987620Y-95172381D01*
X135130477Y-95220000D01*
X131606667Y-97298571D02*
X131273333Y-97298571D01*
X131273333Y-97822381D02*
X131273333Y-96822381D01*
X131749524Y-96822381D01*
X132130476Y-97822381D02*
X132130476Y-96822381D01*
X133082857Y-97822381D02*
X132606666Y-97822381D01*
X132606666Y-96822381D01*
X133273333Y-96822381D02*
X133844762Y-96822381D01*
X133559047Y-97822381D02*
X133559047Y-96822381D01*
X134178095Y-97298571D02*
X134511429Y-97298571D01*
X134654286Y-97822381D02*
X134178095Y-97822381D01*
X134178095Y-96822381D01*
X134654286Y-96822381D01*
X135654286Y-97822381D02*
X135320952Y-97346190D01*
X135082857Y-97822381D02*
X135082857Y-96822381D01*
X135463810Y-96822381D01*
X135559048Y-96870000D01*
X135606667Y-96917619D01*
X135654286Y-97012857D01*
X135654286Y-97155714D01*
X135606667Y-97250952D01*
X135559048Y-97298571D01*
X135463810Y-97346190D01*
X135082857Y-97346190D01*
X143192381Y-91873809D02*
X142192381Y-91873809D01*
X143192381Y-91397619D02*
X142192381Y-91397619D01*
X143192381Y-90826190D01*
X142192381Y-90826190D01*
X143192381Y-90350000D02*
X142192381Y-90350000D01*
X142192381Y-89969047D01*
X142240000Y-89873809D01*
X142287619Y-89826190D01*
X142382857Y-89778571D01*
X142525714Y-89778571D01*
X142620952Y-89826190D01*
X142668571Y-89873809D01*
X142716190Y-89969047D01*
X142716190Y-90350000D01*
X128260000Y-112532381D02*
X128450477Y-112532381D01*
X128545715Y-112580000D01*
X128640953Y-112675238D01*
X128688572Y-112865714D01*
X128688572Y-113199048D01*
X128640953Y-113389524D01*
X128545715Y-113484762D01*
X128450477Y-113532381D01*
X128260000Y-113532381D01*
X128164762Y-113484762D01*
X128069524Y-113389524D01*
X128021905Y-113199048D01*
X128021905Y-112865714D01*
X128069524Y-112675238D01*
X128164762Y-112580000D01*
X128260000Y-112532381D01*
X129117143Y-112532381D02*
X129117143Y-113341905D01*
X129164762Y-113437143D01*
X129212381Y-113484762D01*
X129307619Y-113532381D01*
X129498096Y-113532381D01*
X129593334Y-113484762D01*
X129640953Y-113437143D01*
X129688572Y-113341905D01*
X129688572Y-112532381D01*
X130021905Y-112532381D02*
X130593334Y-112532381D01*
X130307619Y-113532381D02*
X130307619Y-112532381D01*
D16*
X168070000Y-106310254D02*
G75*
G03X168070000Y-106310254I-6440000J0D01*
G01*
X165388100Y-106310254D02*
G75*
G03X165388100Y-106310254I-3758100J0D01*
G01*
X132430000Y-106200254D02*
G75*
G03X132430000Y-106200254I-6440000J0D01*
G01*
X129748100Y-106200254D02*
G75*
G03X129748100Y-106200254I-3758100J0D01*
G01*
X149250000Y-90270000D02*
X149250000Y-95390000D01*
X146630000Y-90270000D02*
X146630000Y-95390000D01*
X149250000Y-90270000D02*
X148936000Y-90270000D01*
X146944000Y-90270000D02*
X146630000Y-90270000D01*
X149250000Y-95390000D02*
X148936000Y-95390000D01*
X146944000Y-95390000D02*
X146630000Y-95390000D01*
X129460000Y-92670000D02*
X124340000Y-92670000D01*
X129460000Y-90050000D02*
X124340000Y-90050000D01*
X129460000Y-92670000D02*
X129460000Y-92356000D01*
X129460000Y-90364000D02*
X129460000Y-90050000D01*
X124340000Y-92670000D02*
X124340000Y-92356000D01*
X124340000Y-90364000D02*
X124340000Y-90050000D01*
X129480000Y-96030000D02*
X124360000Y-96030000D01*
X129480000Y-93410000D02*
X124360000Y-93410000D01*
X129480000Y-96030000D02*
X129480000Y-95716000D01*
X129480000Y-93724000D02*
X129480000Y-93410000D01*
X124360000Y-96030000D02*
X124360000Y-95716000D01*
X124360000Y-93724000D02*
X124360000Y-93410000D01*
X122890000Y-90390000D02*
X122890000Y-95510000D01*
X120270000Y-90390000D02*
X120270000Y-95510000D01*
X122890000Y-90390000D02*
X122576000Y-90390000D01*
X120584000Y-90390000D02*
X120270000Y-90390000D01*
X122890000Y-95510000D02*
X122576000Y-95510000D01*
X120584000Y-95510000D02*
X120270000Y-95510000D01*
X126260000Y-99490000D02*
X121140000Y-99490000D01*
X126260000Y-96870000D02*
X121140000Y-96870000D01*
X126260000Y-99490000D02*
X126260000Y-99176000D01*
X126260000Y-97184000D02*
X126260000Y-96870000D01*
X121140000Y-99490000D02*
X121140000Y-99176000D01*
X121140000Y-97184000D02*
X121140000Y-96870000D01*
X149011000Y-107382000D02*
X149011000Y-112502000D01*
X146391000Y-107382000D02*
X146391000Y-112502000D01*
X149011000Y-107382000D02*
X148697000Y-107382000D01*
X146705000Y-107382000D02*
X146391000Y-107382000D01*
X149011000Y-112502000D02*
X148697000Y-112502000D01*
X146705000Y-112502000D02*
X146391000Y-112502000D01*
X148377811Y-100845258D02*
G75*
G03X148377811Y-100845258I-6440001J0D01*
G01*
X145695910Y-100845258D02*
G75*
G03X145695910Y-100845258I-3758100J0D01*
G01*
X141538000Y-113090000D02*
X141538000Y-110430000D01*
X133858000Y-113090000D02*
X141538000Y-113090000D01*
X133858000Y-110430000D02*
X141538000Y-110430000D01*
X133858000Y-113090000D02*
X133858000Y-110430000D01*
X132588000Y-113090000D02*
X131258000Y-113090000D01*
X131258000Y-113090000D02*
X131258000Y-111760000D01*
X141538000Y-92770000D02*
X141538000Y-90110000D01*
X133858000Y-92770000D02*
X141538000Y-92770000D01*
X133858000Y-90110000D02*
X141538000Y-90110000D01*
X133858000Y-92770000D02*
X133858000Y-90110000D01*
X132588000Y-92770000D02*
X131258000Y-92770000D01*
X131258000Y-92770000D02*
X131258000Y-91440000D01*
X134306476Y-101349572D02*
X136057619Y-106160798D01*
X131844481Y-102245665D02*
X133595625Y-107056891D01*
X134306476Y-101349572D02*
X134011413Y-101456966D01*
X132139545Y-102138271D02*
X131844481Y-102245665D01*
X136057619Y-106160798D02*
X135762556Y-106268193D01*
X133890688Y-106949497D02*
X133595625Y-107056891D01*
X182450000Y-96010000D02*
X182450000Y-90890000D01*
X185070000Y-96010000D02*
X185070000Y-90890000D01*
X182450000Y-96010000D02*
X182764000Y-96010000D01*
X184756000Y-96010000D02*
X185070000Y-96010000D01*
X182450000Y-90890000D02*
X182764000Y-90890000D01*
X184756000Y-90890000D02*
X185070000Y-90890000D01*
X164670000Y-92040000D02*
X159550000Y-92040000D01*
X164670000Y-89420000D02*
X159550000Y-89420000D01*
X164670000Y-92040000D02*
X164670000Y-91726000D01*
X164670000Y-89734000D02*
X164670000Y-89420000D01*
X159550000Y-92040000D02*
X159550000Y-91726000D01*
X159550000Y-89734000D02*
X159550000Y-89420000D01*
X164690000Y-95260000D02*
X159570000Y-95260000D01*
X164690000Y-92640000D02*
X159570000Y-92640000D01*
X164690000Y-95260000D02*
X164690000Y-94946000D01*
X164690000Y-92954000D02*
X164690000Y-92640000D01*
X159570000Y-95260000D02*
X159570000Y-94946000D01*
X159570000Y-92954000D02*
X159570000Y-92640000D01*
X158080000Y-90190000D02*
X158080000Y-95310000D01*
X155460000Y-90190000D02*
X155460000Y-95310000D01*
X158080000Y-90190000D02*
X157766000Y-90190000D01*
X155774000Y-90190000D02*
X155460000Y-90190000D01*
X158080000Y-95310000D02*
X157766000Y-95310000D01*
X155774000Y-95310000D02*
X155460000Y-95310000D01*
X169580476Y-100885572D02*
X171331619Y-105696798D01*
X167118481Y-101781665D02*
X168869625Y-106592891D01*
X169580476Y-100885572D02*
X169285413Y-100992966D01*
X167413545Y-101674271D02*
X167118481Y-101781665D01*
X171331619Y-105696798D02*
X171036556Y-105804193D01*
X169164688Y-106485497D02*
X168869625Y-106592891D01*
X161360000Y-99410000D02*
X156240000Y-99410000D01*
X161360000Y-96790000D02*
X156240000Y-96790000D01*
X161360000Y-99410000D02*
X161360000Y-99096000D01*
X161360000Y-97104000D02*
X161360000Y-96790000D01*
X156240000Y-99410000D02*
X156240000Y-99096000D01*
X156240000Y-97104000D02*
X156240000Y-96790000D01*
X185160000Y-107400000D02*
X185160000Y-112520000D01*
X182540000Y-107400000D02*
X182540000Y-112520000D01*
X185160000Y-107400000D02*
X184846000Y-107400000D01*
X182854000Y-107400000D02*
X182540000Y-107400000D01*
X185160000Y-112520000D02*
X184846000Y-112520000D01*
X182854000Y-112520000D02*
X182540000Y-112520000D01*
X176590000Y-92770000D02*
X176590000Y-90110000D01*
X168910000Y-92770000D02*
X176590000Y-92770000D01*
X168910000Y-90110000D02*
X176590000Y-90110000D01*
X168910000Y-92770000D02*
X168910000Y-90110000D01*
X167640000Y-92770000D02*
X166310000Y-92770000D01*
X166310000Y-92770000D02*
X166310000Y-91440000D01*
X176590000Y-113090000D02*
X176590000Y-110430000D01*
X168910000Y-113090000D02*
X176590000Y-113090000D01*
X168910000Y-110430000D02*
X176590000Y-110430000D01*
X168910000Y-113090000D02*
X168910000Y-110430000D01*
X167640000Y-113090000D02*
X166310000Y-113090000D01*
X166310000Y-113090000D02*
X166310000Y-111760000D01*
X183641811Y-101019258D02*
G75*
G03X183641811Y-101019258I-6440001J0D01*
G01*
X180959910Y-101019258D02*
G75*
G03X180959910Y-101019258I-3758100J0D01*
G01*
X150730000Y-119910000D02*
X150730000Y-125030000D01*
X148110000Y-119910000D02*
X148110000Y-125030000D01*
X150730000Y-119910000D02*
X150416000Y-119910000D01*
X148424000Y-119910000D02*
X148110000Y-119910000D01*
X150730000Y-125030000D02*
X150416000Y-125030000D01*
X148424000Y-125030000D02*
X148110000Y-125030000D01*
X129980000Y-121400000D02*
X124860000Y-121400000D01*
X129980000Y-118780000D02*
X124860000Y-118780000D01*
X129980000Y-121400000D02*
X129980000Y-121086000D01*
X129980000Y-119094000D02*
X129980000Y-118780000D01*
X124860000Y-121400000D02*
X124860000Y-121086000D01*
X124860000Y-119094000D02*
X124860000Y-118780000D01*
X129950000Y-124750000D02*
X124830000Y-124750000D01*
X129950000Y-122130000D02*
X124830000Y-122130000D01*
X129950000Y-124750000D02*
X129950000Y-124436000D01*
X129950000Y-122444000D02*
X129950000Y-122130000D01*
X124830000Y-124750000D02*
X124830000Y-124436000D01*
X124830000Y-122444000D02*
X124830000Y-122130000D01*
X123460000Y-119520000D02*
X123460000Y-124640000D01*
X120840000Y-119520000D02*
X120840000Y-124640000D01*
X123460000Y-119520000D02*
X123146000Y-119520000D01*
X121154000Y-119520000D02*
X120840000Y-119520000D01*
X123460000Y-124640000D02*
X123146000Y-124640000D01*
X121154000Y-124640000D02*
X120840000Y-124640000D01*
X135740476Y-131285572D02*
X137491619Y-136096798D01*
X133278481Y-132181665D02*
X135029625Y-136992891D01*
X135740476Y-131285572D02*
X135445413Y-131392966D01*
X133573545Y-132074271D02*
X133278481Y-132181665D01*
X137491619Y-136096798D02*
X137196556Y-136204193D01*
X135324688Y-136885497D02*
X135029625Y-136992891D01*
X126710000Y-128270000D02*
X121590000Y-128270000D01*
X126710000Y-125650000D02*
X121590000Y-125650000D01*
X126710000Y-128270000D02*
X126710000Y-127956000D01*
X126710000Y-125964000D02*
X126710000Y-125650000D01*
X121590000Y-128270000D02*
X121590000Y-127956000D01*
X121590000Y-125964000D02*
X121590000Y-125650000D01*
X150730000Y-136450000D02*
X150730000Y-141570000D01*
X148110000Y-136450000D02*
X148110000Y-141570000D01*
X150730000Y-136450000D02*
X150416000Y-136450000D01*
X148424000Y-136450000D02*
X148110000Y-136450000D01*
X150730000Y-141570000D02*
X150416000Y-141570000D01*
X148424000Y-141570000D02*
X148110000Y-141570000D01*
X142300000Y-121980000D02*
X142300000Y-119320000D01*
X134620000Y-121980000D02*
X142300000Y-121980000D01*
X134620000Y-119320000D02*
X142300000Y-119320000D01*
X134620000Y-121980000D02*
X134620000Y-119320000D01*
X133350000Y-121980000D02*
X132020000Y-121980000D01*
X132020000Y-121980000D02*
X132020000Y-120650000D01*
X142300000Y-142300000D02*
X142300000Y-139640000D01*
X134620000Y-142300000D02*
X142300000Y-142300000D01*
X134620000Y-139640000D02*
X142300000Y-139640000D01*
X134620000Y-142300000D02*
X134620000Y-139640000D01*
X133350000Y-142300000D02*
X132020000Y-142300000D01*
X132020000Y-142300000D02*
X132020000Y-140970000D01*
X149201811Y-129289258D02*
G75*
G03X149201811Y-129289258I-6440001J0D01*
G01*
X146519910Y-129289258D02*
G75*
G03X146519910Y-129289258I-3758100J0D01*
G01*
X133530000Y-135040254D02*
G75*
G03X133530000Y-135040254I-6440000J0D01*
G01*
X130848100Y-135040254D02*
G75*
G03X130848100Y-135040254I-3758100J0D01*
G01*
X184990000Y-119240000D02*
X184990000Y-124360000D01*
X182370000Y-119240000D02*
X182370000Y-124360000D01*
X184990000Y-119240000D02*
X184676000Y-119240000D01*
X182684000Y-119240000D02*
X182370000Y-119240000D01*
X184990000Y-124360000D02*
X184676000Y-124360000D01*
X182684000Y-124360000D02*
X182370000Y-124360000D01*
X184420534Y-137968675D02*
X180226476Y-140905386D01*
X182917764Y-135822496D02*
X178723706Y-138759208D01*
X184420534Y-137968675D02*
X184240431Y-137711461D01*
X183097867Y-136079710D02*
X182917764Y-135822496D01*
X180226476Y-140905386D02*
X180046373Y-140648172D01*
X178903809Y-139016421D02*
X178723706Y-138759208D01*
X158250000Y-118440000D02*
X163370000Y-118440000D01*
X158250000Y-121060000D02*
X163370000Y-121060000D01*
X158250000Y-118440000D02*
X158250000Y-118754000D01*
X158250000Y-120746000D02*
X158250000Y-121060000D01*
X163370000Y-118440000D02*
X163370000Y-118754000D01*
X163370000Y-120746000D02*
X163370000Y-121060000D01*
X163290000Y-124410000D02*
X158170000Y-124410000D01*
X163290000Y-121790000D02*
X158170000Y-121790000D01*
X163290000Y-124410000D02*
X163290000Y-124096000D01*
X163290000Y-122104000D02*
X163290000Y-121790000D01*
X158170000Y-124410000D02*
X158170000Y-124096000D01*
X158170000Y-122104000D02*
X158170000Y-121790000D01*
X158320000Y-139620000D02*
X163440000Y-139620000D01*
X158320000Y-142240000D02*
X163440000Y-142240000D01*
X158320000Y-139620000D02*
X158320000Y-139934000D01*
X158320000Y-141926000D02*
X158320000Y-142240000D01*
X163440000Y-139620000D02*
X163440000Y-139934000D01*
X163440000Y-141926000D02*
X163440000Y-142240000D01*
X176590000Y-121980000D02*
X176590000Y-119320000D01*
X168910000Y-121980000D02*
X176590000Y-121980000D01*
X168910000Y-119320000D02*
X176590000Y-119320000D01*
X168910000Y-121980000D02*
X168910000Y-119320000D01*
X167640000Y-121980000D02*
X166310000Y-121980000D01*
X166310000Y-121980000D02*
X166310000Y-120650000D01*
X176590000Y-142300000D02*
X176590000Y-139640000D01*
X168910000Y-142300000D02*
X176590000Y-142300000D01*
X168910000Y-139640000D02*
X176590000Y-139640000D01*
X168910000Y-142300000D02*
X168910000Y-139640000D01*
X167640000Y-142300000D02*
X166310000Y-142300000D01*
X166310000Y-142300000D02*
X166310000Y-140970000D01*
X184791811Y-130419258D02*
G75*
G03X184791811Y-130419258I-6440001J0D01*
G01*
X182109910Y-130419258D02*
G75*
G03X182109910Y-130419258I-3758100J0D01*
G01*
X170590000Y-130870254D02*
G75*
G03X170590000Y-130870254I-6440000J0D01*
G01*
X167908100Y-130870254D02*
G75*
G03X167908100Y-130870254I-3758100J0D01*
G01*
X215685000Y-61990000D02*
X215685000Y-67110000D01*
X213065000Y-61990000D02*
X213065000Y-67110000D01*
X215685000Y-61990000D02*
X215371000Y-61990000D01*
X213379000Y-61990000D02*
X213065000Y-61990000D01*
X215685000Y-67110000D02*
X215371000Y-67110000D01*
X213379000Y-67110000D02*
X213065000Y-67110000D01*
X215875534Y-80238675D02*
X211681476Y-83175386D01*
X214372764Y-78092496D02*
X210178706Y-81029208D01*
X215875534Y-80238675D02*
X215695431Y-79981461D01*
X214552867Y-78349710D02*
X214372764Y-78092496D01*
X211681476Y-83175386D02*
X211501373Y-82918172D01*
X210358809Y-81286421D02*
X210178706Y-81029208D01*
X203420000Y-68310000D02*
X198300000Y-68310000D01*
X203420000Y-65690000D02*
X198300000Y-65690000D01*
X203420000Y-68310000D02*
X203420000Y-67996000D01*
X203420000Y-66004000D02*
X203420000Y-65690000D01*
X198300000Y-68310000D02*
X198300000Y-67996000D01*
X198300000Y-66004000D02*
X198300000Y-65690000D01*
X188240000Y-75990000D02*
X188240000Y-81110000D01*
X185620000Y-75990000D02*
X185620000Y-81110000D01*
X188240000Y-75990000D02*
X187926000Y-75990000D01*
X185934000Y-75990000D02*
X185620000Y-75990000D01*
X188240000Y-81110000D02*
X187926000Y-81110000D01*
X185934000Y-81110000D02*
X185620000Y-81110000D01*
X192580000Y-85190000D02*
X187460000Y-85190000D01*
X192580000Y-82570000D02*
X187460000Y-82570000D01*
X192580000Y-85190000D02*
X192580000Y-84876000D01*
X192580000Y-82884000D02*
X192580000Y-82570000D01*
X187460000Y-85190000D02*
X187460000Y-84876000D01*
X187460000Y-82884000D02*
X187460000Y-82570000D01*
X182270000Y-82200000D02*
X182270000Y-77080000D01*
X184890000Y-82200000D02*
X184890000Y-77080000D01*
X182270000Y-82200000D02*
X182584000Y-82200000D01*
X184576000Y-82200000D02*
X184890000Y-82200000D01*
X182270000Y-77080000D02*
X182584000Y-77080000D01*
X184576000Y-77080000D02*
X184890000Y-77080000D01*
X181480000Y-77000000D02*
X181480000Y-82120000D01*
X178860000Y-77000000D02*
X178860000Y-82120000D01*
X181480000Y-77000000D02*
X181166000Y-77000000D01*
X179174000Y-77000000D02*
X178860000Y-77000000D01*
X181480000Y-82120000D02*
X181166000Y-82120000D01*
X179174000Y-82120000D02*
X178860000Y-82120000D01*
X208340000Y-64830000D02*
X208340000Y-62170000D01*
X200660000Y-64830000D02*
X208340000Y-64830000D01*
X200660000Y-62170000D02*
X208340000Y-62170000D01*
X200660000Y-64830000D02*
X200660000Y-62170000D01*
X199390000Y-64830000D02*
X198060000Y-64830000D01*
X198060000Y-64830000D02*
X198060000Y-63500000D01*
X208340000Y-85150000D02*
X208340000Y-82490000D01*
X200660000Y-85150000D02*
X208340000Y-85150000D01*
X200660000Y-82490000D02*
X208340000Y-82490000D01*
X200660000Y-85150000D02*
X200660000Y-82490000D01*
X199390000Y-85150000D02*
X198060000Y-85150000D01*
X198060000Y-85150000D02*
X198060000Y-83820000D01*
X215151811Y-73009258D02*
G75*
G03X215151811Y-73009258I-6440001J0D01*
G01*
X212469910Y-73009258D02*
G75*
G03X212469910Y-73009258I-3758100J0D01*
G01*
X201750000Y-74600000D02*
G75*
G03X201750000Y-74600000I-6440000J0D01*
G01*
X199068100Y-74600000D02*
G75*
G03X199068100Y-74600000I-3758100J0D01*
G01*
X190211067Y-67978932D02*
G75*
G03X190211067Y-67978932I-6439999J0D01*
G01*
X187529168Y-67978932D02*
G75*
G03X187529168Y-67978932I-3758100J0D01*
G01*
X197694736Y-102739883D02*
X194074350Y-106360270D01*
X195842117Y-100887264D02*
X192221730Y-104507650D01*
X197694736Y-102739883D02*
X197472705Y-102517852D01*
X196064148Y-101109295D02*
X195842117Y-100887264D01*
X194074350Y-106360270D02*
X193852318Y-106138239D01*
X192443761Y-104729682D02*
X192221730Y-104507650D01*
X193920000Y-122830000D02*
X193920000Y-127950000D01*
X191300000Y-122830000D02*
X191300000Y-127950000D01*
X193920000Y-122830000D02*
X193606000Y-122830000D01*
X191614000Y-122830000D02*
X191300000Y-122830000D01*
X193920000Y-127950000D02*
X193606000Y-127950000D01*
X191614000Y-127950000D02*
X191300000Y-127950000D01*
X197310000Y-122750000D02*
X197310000Y-127870000D01*
X194690000Y-122750000D02*
X194690000Y-127870000D01*
X197310000Y-122750000D02*
X196996000Y-122750000D01*
X195004000Y-122750000D02*
X194690000Y-122750000D01*
X197310000Y-127870000D02*
X196996000Y-127870000D01*
X195004000Y-127870000D02*
X194690000Y-127870000D01*
X191840000Y-131788000D02*
X196960000Y-131788000D01*
X191840000Y-134408000D02*
X196960000Y-134408000D01*
X191840000Y-131788000D02*
X191840000Y-132102000D01*
X191840000Y-134094000D02*
X191840000Y-134408000D01*
X196960000Y-131788000D02*
X196960000Y-132102000D01*
X196960000Y-134094000D02*
X196960000Y-134408000D01*
X197782000Y-135832000D02*
X197782000Y-140952000D01*
X195162000Y-135832000D02*
X195162000Y-140952000D01*
X197782000Y-135832000D02*
X197468000Y-135832000D01*
X195476000Y-135832000D02*
X195162000Y-135832000D01*
X197782000Y-140952000D02*
X197468000Y-140952000D01*
X195476000Y-140952000D02*
X195162000Y-140952000D01*
X194226000Y-135832000D02*
X194226000Y-140952000D01*
X191606000Y-135832000D02*
X191606000Y-140952000D01*
X194226000Y-135832000D02*
X193912000Y-135832000D01*
X191920000Y-135832000D02*
X191606000Y-135832000D01*
X194226000Y-140952000D02*
X193912000Y-140952000D01*
X191920000Y-140952000D02*
X191606000Y-140952000D01*
X214670000Y-142530000D02*
X209550000Y-142530000D01*
X214670000Y-139910000D02*
X209550000Y-139910000D01*
X214670000Y-142530000D02*
X214670000Y-142216000D01*
X214670000Y-140224000D02*
X214670000Y-139910000D01*
X209550000Y-142530000D02*
X209550000Y-142216000D01*
X209550000Y-140224000D02*
X209550000Y-139910000D01*
X212850000Y-135440000D02*
X212850000Y-130320000D01*
X215470000Y-135440000D02*
X215470000Y-130320000D01*
X212850000Y-135440000D02*
X213164000Y-135440000D01*
X215156000Y-135440000D02*
X215470000Y-135440000D01*
X212850000Y-130320000D02*
X213164000Y-130320000D01*
X215156000Y-130320000D02*
X215470000Y-130320000D01*
X194500000Y-109670000D02*
X191840000Y-109670000D01*
X194500000Y-117350000D02*
X194500000Y-109670000D01*
X191840000Y-117350000D02*
X191840000Y-109670000D01*
X194500000Y-117350000D02*
X191840000Y-117350000D01*
X194500000Y-118620000D02*
X194500000Y-119950000D01*
X194500000Y-119950000D02*
X193170000Y-119950000D01*
X214820000Y-109670000D02*
X212160000Y-109670000D01*
X214820000Y-117350000D02*
X214820000Y-109670000D01*
X212160000Y-117350000D02*
X212160000Y-109670000D01*
X214820000Y-117350000D02*
X212160000Y-117350000D01*
X214820000Y-118620000D02*
X214820000Y-119950000D01*
X214820000Y-119950000D02*
X213490000Y-119950000D01*
X211890000Y-107125000D02*
G75*
G03X211890000Y-107125000I-6440000J0D01*
G01*
X209208100Y-107125000D02*
G75*
G03X209208100Y-107125000I-3758100J0D01*
G01*
X211550254Y-134575000D02*
G75*
G03X211550254Y-134575000I-6440000J0D01*
G01*
X208868354Y-134575000D02*
G75*
G03X208868354Y-134575000I-3758100J0D01*
G01*
X211104746Y-121100000D02*
G75*
G03X211104746Y-121100000I-6440000J0D01*
G01*
X208422846Y-121100000D02*
G75*
G03X208422846Y-121100000I-3758100J0D01*
G01*
X212960000Y-127970000D02*
X212960000Y-122850000D01*
X215580000Y-127970000D02*
X215580000Y-122850000D01*
X212960000Y-127970000D02*
X213274000Y-127970000D01*
X215266000Y-127970000D02*
X215580000Y-127970000D01*
X212960000Y-122850000D02*
X213274000Y-122850000D01*
X215266000Y-122850000D02*
X215580000Y-122850000D01*
X133330000Y-68050000D02*
X130670000Y-68050000D01*
X133330000Y-75730000D02*
X133330000Y-68050000D01*
X130670000Y-75730000D02*
X130670000Y-68050000D01*
X133330000Y-75730000D02*
X130670000Y-75730000D01*
X133330000Y-77000000D02*
X133330000Y-78330000D01*
X133330000Y-78330000D02*
X132000000Y-78330000D01*
X153330000Y-68050000D02*
X150670000Y-68050000D01*
X153330000Y-75730000D02*
X153330000Y-68050000D01*
X150670000Y-75730000D02*
X150670000Y-68050000D01*
X153330000Y-75730000D02*
X150670000Y-75730000D01*
X153330000Y-77000000D02*
X153330000Y-78330000D01*
X153330000Y-78330000D02*
X152000000Y-78330000D01*
D12*
X148297143Y-93036666D02*
X148344762Y-93084285D01*
X148392381Y-93227142D01*
X148392381Y-93322380D01*
X148344762Y-93465238D01*
X148249524Y-93560476D01*
X148154286Y-93608095D01*
X147963810Y-93655714D01*
X147820952Y-93655714D01*
X147630476Y-93608095D01*
X147535238Y-93560476D01*
X147440000Y-93465238D01*
X147392381Y-93322380D01*
X147392381Y-93227142D01*
X147440000Y-93084285D01*
X147487619Y-93036666D01*
X148392381Y-92084285D02*
X148392381Y-92655714D01*
X148392381Y-92370000D02*
X147392381Y-92370000D01*
X147535238Y-92465238D01*
X147630476Y-92560476D01*
X147678095Y-92655714D01*
X126693334Y-91717143D02*
X126645715Y-91764762D01*
X126502858Y-91812381D01*
X126407620Y-91812381D01*
X126264762Y-91764762D01*
X126169524Y-91669524D01*
X126121905Y-91574286D01*
X126074286Y-91383810D01*
X126074286Y-91240952D01*
X126121905Y-91050476D01*
X126169524Y-90955238D01*
X126264762Y-90860000D01*
X126407620Y-90812381D01*
X126502858Y-90812381D01*
X126645715Y-90860000D01*
X126693334Y-90907619D01*
X127074286Y-90907619D02*
X127121905Y-90860000D01*
X127217143Y-90812381D01*
X127455239Y-90812381D01*
X127550477Y-90860000D01*
X127598096Y-90907619D01*
X127645715Y-91002857D01*
X127645715Y-91098095D01*
X127598096Y-91240952D01*
X127026667Y-91812381D01*
X127645715Y-91812381D01*
X126713334Y-95077143D02*
X126665715Y-95124762D01*
X126522858Y-95172381D01*
X126427620Y-95172381D01*
X126284762Y-95124762D01*
X126189524Y-95029524D01*
X126141905Y-94934286D01*
X126094286Y-94743810D01*
X126094286Y-94600952D01*
X126141905Y-94410476D01*
X126189524Y-94315238D01*
X126284762Y-94220000D01*
X126427620Y-94172381D01*
X126522858Y-94172381D01*
X126665715Y-94220000D01*
X126713334Y-94267619D01*
X127046667Y-94172381D02*
X127665715Y-94172381D01*
X127332381Y-94553333D01*
X127475239Y-94553333D01*
X127570477Y-94600952D01*
X127618096Y-94648571D01*
X127665715Y-94743810D01*
X127665715Y-94981905D01*
X127618096Y-95077143D01*
X127570477Y-95124762D01*
X127475239Y-95172381D01*
X127189524Y-95172381D01*
X127094286Y-95124762D01*
X127046667Y-95077143D01*
X121937143Y-93156666D02*
X121984762Y-93204285D01*
X122032381Y-93347142D01*
X122032381Y-93442380D01*
X121984762Y-93585238D01*
X121889524Y-93680476D01*
X121794286Y-93728095D01*
X121603810Y-93775714D01*
X121460952Y-93775714D01*
X121270476Y-93728095D01*
X121175238Y-93680476D01*
X121080000Y-93585238D01*
X121032381Y-93442380D01*
X121032381Y-93347142D01*
X121080000Y-93204285D01*
X121127619Y-93156666D01*
X121365714Y-92299523D02*
X122032381Y-92299523D01*
X120984762Y-92537619D02*
X121699048Y-92775714D01*
X121699048Y-92156666D01*
X123493334Y-98537143D02*
X123445715Y-98584762D01*
X123302858Y-98632381D01*
X123207620Y-98632381D01*
X123064762Y-98584762D01*
X122969524Y-98489524D01*
X122921905Y-98394286D01*
X122874286Y-98203810D01*
X122874286Y-98060952D01*
X122921905Y-97870476D01*
X122969524Y-97775238D01*
X123064762Y-97680000D01*
X123207620Y-97632381D01*
X123302858Y-97632381D01*
X123445715Y-97680000D01*
X123493334Y-97727619D01*
X124398096Y-97632381D02*
X123921905Y-97632381D01*
X123874286Y-98108571D01*
X123921905Y-98060952D01*
X124017143Y-98013333D01*
X124255239Y-98013333D01*
X124350477Y-98060952D01*
X124398096Y-98108571D01*
X124445715Y-98203810D01*
X124445715Y-98441905D01*
X124398096Y-98537143D01*
X124350477Y-98584762D01*
X124255239Y-98632381D01*
X124017143Y-98632381D01*
X123921905Y-98584762D01*
X123874286Y-98537143D01*
X148065143Y-110020666D02*
X148112762Y-110068285D01*
X148160381Y-110211142D01*
X148160381Y-110306380D01*
X148112762Y-110449238D01*
X148017524Y-110544476D01*
X147922286Y-110592095D01*
X147731810Y-110639714D01*
X147588952Y-110639714D01*
X147398476Y-110592095D01*
X147303238Y-110544476D01*
X147208000Y-110449238D01*
X147160381Y-110306380D01*
X147160381Y-110211142D01*
X147208000Y-110068285D01*
X147255619Y-110020666D01*
X147160381Y-109163523D02*
X147160381Y-109354000D01*
X147208000Y-109449238D01*
X147255619Y-109496857D01*
X147398476Y-109592095D01*
X147588952Y-109639714D01*
X147969905Y-109639714D01*
X148065143Y-109592095D01*
X148112762Y-109544476D01*
X148160381Y-109449238D01*
X148160381Y-109258761D01*
X148112762Y-109163523D01*
X148065143Y-109115904D01*
X147969905Y-109068285D01*
X147731810Y-109068285D01*
X147636571Y-109115904D01*
X147588952Y-109163523D01*
X147541333Y-109258761D01*
X147541333Y-109449238D01*
X147588952Y-109544476D01*
X147636571Y-109592095D01*
X147731810Y-109639714D01*
X133816667Y-108672381D02*
X133816667Y-109386667D01*
X133769047Y-109529524D01*
X133673809Y-109624762D01*
X133530952Y-109672381D01*
X133435714Y-109672381D01*
X134816667Y-109672381D02*
X134245238Y-109672381D01*
X134530952Y-109672381D02*
X134530952Y-108672381D01*
X134435714Y-108815238D01*
X134340476Y-108910476D01*
X134245238Y-108958095D01*
X143552381Y-90763333D02*
X144266667Y-90763333D01*
X144409524Y-90810953D01*
X144504762Y-90906191D01*
X144552381Y-91049048D01*
X144552381Y-91144286D01*
X143647619Y-90334762D02*
X143600000Y-90287143D01*
X143552381Y-90191905D01*
X143552381Y-89953809D01*
X143600000Y-89858571D01*
X143647619Y-89810952D01*
X143742857Y-89763333D01*
X143838095Y-89763333D01*
X143980952Y-89810952D01*
X144552381Y-90382381D01*
X144552381Y-89763333D01*
X133534122Y-104262753D02*
X133473088Y-104234293D01*
X133379481Y-104116338D01*
X133346908Y-104026843D01*
X133342795Y-103876314D01*
X133399716Y-103754246D01*
X133472924Y-103676926D01*
X133635626Y-103567032D01*
X133769869Y-103518172D01*
X133965144Y-103497772D01*
X134070925Y-103509946D01*
X134192993Y-103566867D01*
X134286600Y-103684823D01*
X134319174Y-103774318D01*
X134323287Y-103924846D01*
X134294826Y-103985880D01*
X134498327Y-104266537D02*
X134726341Y-104892999D01*
X133640068Y-104832293D01*
X178462381Y-90603333D02*
X179176667Y-90603333D01*
X179319524Y-90650953D01*
X179414762Y-90746191D01*
X179462381Y-90889048D01*
X179462381Y-90984286D01*
X178462381Y-90222381D02*
X178462381Y-89603333D01*
X178843333Y-89936667D01*
X178843333Y-89793809D01*
X178890952Y-89698571D01*
X178938571Y-89650952D01*
X179033810Y-89603333D01*
X179271905Y-89603333D01*
X179367143Y-89650952D01*
X179414762Y-89698571D01*
X179462381Y-89793809D01*
X179462381Y-90079524D01*
X179414762Y-90174762D01*
X179367143Y-90222381D01*
X169596667Y-108852381D02*
X169596667Y-109566667D01*
X169549047Y-109709524D01*
X169453809Y-109804762D01*
X169310952Y-109852381D01*
X169215714Y-109852381D01*
X170501429Y-109185714D02*
X170501429Y-109852381D01*
X170263333Y-108804762D02*
X170025238Y-109519048D01*
X170644286Y-109519048D01*
X144262381Y-119943333D02*
X144976667Y-119943333D01*
X145119524Y-119990953D01*
X145214762Y-120086191D01*
X145262381Y-120229048D01*
X145262381Y-120324286D01*
X144262381Y-118990952D02*
X144262381Y-119467143D01*
X144738571Y-119514762D01*
X144690952Y-119467143D01*
X144643333Y-119371905D01*
X144643333Y-119133809D01*
X144690952Y-119038571D01*
X144738571Y-118990952D01*
X144833810Y-118943333D01*
X145071905Y-118943333D01*
X145167143Y-118990952D01*
X145214762Y-119038571D01*
X145262381Y-119133809D01*
X145262381Y-119371905D01*
X145214762Y-119467143D01*
X145167143Y-119514762D01*
X133776667Y-137952381D02*
X133776667Y-138666667D01*
X133729047Y-138809524D01*
X133633809Y-138904762D01*
X133490952Y-138952381D01*
X133395714Y-138952381D01*
X134681429Y-137952381D02*
X134490952Y-137952381D01*
X134395714Y-138000000D01*
X134348095Y-138047619D01*
X134252857Y-138190476D01*
X134205238Y-138380952D01*
X134205238Y-138761905D01*
X134252857Y-138857143D01*
X134300476Y-138904762D01*
X134395714Y-138952381D01*
X134586191Y-138952381D01*
X134681429Y-138904762D01*
X134729048Y-138857143D01*
X134776667Y-138761905D01*
X134776667Y-138523810D01*
X134729048Y-138428571D01*
X134681429Y-138380952D01*
X134586191Y-138333333D01*
X134395714Y-138333333D01*
X134300476Y-138380952D01*
X134252857Y-138428571D01*
X134205238Y-138523810D01*
X178522381Y-119663333D02*
X179236667Y-119663333D01*
X179379524Y-119710953D01*
X179474762Y-119806191D01*
X179522381Y-119949048D01*
X179522381Y-120044286D01*
X178522381Y-119282381D02*
X178522381Y-118615714D01*
X179522381Y-119044286D01*
X164762381Y-141303333D02*
X165476667Y-141303333D01*
X165619524Y-141350953D01*
X165714762Y-141446191D01*
X165762381Y-141589048D01*
X165762381Y-141684286D01*
X165190952Y-140684286D02*
X165143333Y-140779524D01*
X165095714Y-140827143D01*
X165000476Y-140874762D01*
X164952857Y-140874762D01*
X164857619Y-140827143D01*
X164810000Y-140779524D01*
X164762381Y-140684286D01*
X164762381Y-140493809D01*
X164810000Y-140398571D01*
X164857619Y-140350952D01*
X164952857Y-140303333D01*
X165000476Y-140303333D01*
X165095714Y-140350952D01*
X165143333Y-140398571D01*
X165190952Y-140493809D01*
X165190952Y-140684286D01*
X165238571Y-140779524D01*
X165286190Y-140827143D01*
X165381429Y-140874762D01*
X165571905Y-140874762D01*
X165667143Y-140827143D01*
X165714762Y-140779524D01*
X165762381Y-140684286D01*
X165762381Y-140493809D01*
X165714762Y-140398571D01*
X165667143Y-140350952D01*
X165571905Y-140303333D01*
X165381429Y-140303333D01*
X165286190Y-140350952D01*
X165238571Y-140398571D01*
X165190952Y-140493809D01*
X210477381Y-62708333D02*
X211191667Y-62708333D01*
X211334524Y-62755953D01*
X211429762Y-62851191D01*
X211477381Y-62994048D01*
X211477381Y-63089286D01*
X211477381Y-62184524D02*
X211477381Y-61994048D01*
X211429762Y-61898809D01*
X211382143Y-61851190D01*
X211239286Y-61755952D01*
X211048810Y-61708333D01*
X210667857Y-61708333D01*
X210572619Y-61755952D01*
X210525000Y-61803571D01*
X210477381Y-61898809D01*
X210477381Y-62089286D01*
X210525000Y-62184524D01*
X210572619Y-62232143D01*
X210667857Y-62279762D01*
X210905952Y-62279762D01*
X211001190Y-62232143D01*
X211048810Y-62184524D01*
X211096429Y-62089286D01*
X211096429Y-61898809D01*
X211048810Y-61803571D01*
X211001190Y-61755952D01*
X210905952Y-61708333D01*
X199700477Y-80842381D02*
X199700477Y-81556667D01*
X199652857Y-81699524D01*
X199557619Y-81794762D01*
X199414762Y-81842381D01*
X199319524Y-81842381D01*
X200700477Y-81842381D02*
X200129048Y-81842381D01*
X200414762Y-81842381D02*
X200414762Y-80842381D01*
X200319524Y-80985238D01*
X200224286Y-81080476D01*
X200129048Y-81128095D01*
X201319524Y-80842381D02*
X201414763Y-80842381D01*
X201510001Y-80890000D01*
X201557620Y-80937619D01*
X201605239Y-81032857D01*
X201652858Y-81223333D01*
X201652858Y-81461429D01*
X201605239Y-81651905D01*
X201557620Y-81747143D01*
X201510001Y-81794762D01*
X201414763Y-81842381D01*
X201319524Y-81842381D01*
X201224286Y-81794762D01*
X201176667Y-81747143D01*
X201129048Y-81651905D01*
X201081429Y-81461429D01*
X201081429Y-81223333D01*
X201129048Y-81032857D01*
X201176667Y-80937619D01*
X201224286Y-80890000D01*
X201319524Y-80842381D01*
X192280477Y-106752381D02*
X192280477Y-107466667D01*
X192232857Y-107609524D01*
X192137619Y-107704762D01*
X191994762Y-107752381D01*
X191899524Y-107752381D01*
X193280477Y-107752381D02*
X192709048Y-107752381D01*
X192994762Y-107752381D02*
X192994762Y-106752381D01*
X192899524Y-106895238D01*
X192804286Y-106990476D01*
X192709048Y-107038095D01*
X194232858Y-107752381D02*
X193661429Y-107752381D01*
X193947143Y-107752381D02*
X193947143Y-106752381D01*
X193851905Y-106895238D01*
X193756667Y-106990476D01*
X193661429Y-107038095D01*
X210482381Y-115879523D02*
X211196667Y-115879523D01*
X211339524Y-115927143D01*
X211434762Y-116022381D01*
X211482381Y-116165238D01*
X211482381Y-116260476D01*
X211482381Y-114879523D02*
X211482381Y-115450952D01*
X211482381Y-115165238D02*
X210482381Y-115165238D01*
X210625238Y-115260476D01*
X210720476Y-115355714D01*
X210768095Y-115450952D01*
X210577619Y-114498571D02*
X210530000Y-114450952D01*
X210482381Y-114355714D01*
X210482381Y-114117618D01*
X210530000Y-114022380D01*
X210577619Y-113974761D01*
X210672857Y-113927142D01*
X210768095Y-113927142D01*
X210910952Y-113974761D01*
X211482381Y-114546190D01*
X211482381Y-113927142D01*
X125262381Y-69634523D02*
X125976667Y-69634523D01*
X126119524Y-69682143D01*
X126214762Y-69777381D01*
X126262381Y-69920238D01*
X126262381Y-70015476D01*
X126262381Y-68634523D02*
X126262381Y-69205952D01*
X126262381Y-68920238D02*
X125262381Y-68920238D01*
X125405238Y-69015476D01*
X125500476Y-69110714D01*
X125548095Y-69205952D01*
X125262381Y-68301190D02*
X125262381Y-67682142D01*
X125643333Y-68015476D01*
X125643333Y-67872618D01*
X125690952Y-67777380D01*
X125738571Y-67729761D01*
X125833810Y-67682142D01*
X126071905Y-67682142D01*
X126167143Y-67729761D01*
X126214762Y-67777380D01*
X126262381Y-67872618D01*
X126262381Y-68158333D01*
X126214762Y-68253571D01*
X126167143Y-68301190D01*
X131190477Y-78782381D02*
X131190477Y-79496667D01*
X131142857Y-79639524D01*
X131047619Y-79734762D01*
X130904762Y-79782381D01*
X130809524Y-79782381D01*
X132190477Y-79782381D02*
X131619048Y-79782381D01*
X131904762Y-79782381D02*
X131904762Y-78782381D01*
X131809524Y-78925238D01*
X131714286Y-79020476D01*
X131619048Y-79068095D01*
X133047620Y-79115714D02*
X133047620Y-79782381D01*
X132809524Y-78734762D02*
X132571429Y-79449048D01*
X133190477Y-79449048D01*
X151190477Y-78782381D02*
X151190477Y-79496667D01*
X151142857Y-79639524D01*
X151047619Y-79734762D01*
X150904762Y-79782381D01*
X150809524Y-79782381D01*
X152190477Y-79782381D02*
X151619048Y-79782381D01*
X151904762Y-79782381D02*
X151904762Y-78782381D01*
X151809524Y-78925238D01*
X151714286Y-79020476D01*
X151619048Y-79068095D01*
X153095239Y-78782381D02*
X152619048Y-78782381D01*
X152571429Y-79258571D01*
X152619048Y-79210952D01*
X152714286Y-79163333D01*
X152952382Y-79163333D01*
X153047620Y-79210952D01*
X153095239Y-79258571D01*
X153142858Y-79353810D01*
X153142858Y-79591905D01*
X153095239Y-79687143D01*
X153047620Y-79734762D01*
X152952382Y-79782381D01*
X152714286Y-79782381D01*
X152619048Y-79734762D01*
X152571429Y-79687143D01*
X163365477Y-66262381D02*
X163365477Y-66976667D01*
X163317857Y-67119524D01*
X163222619Y-67214762D01*
X163079762Y-67262381D01*
X162984524Y-67262381D01*
X164365477Y-67262381D02*
X163794048Y-67262381D01*
X164079762Y-67262381D02*
X164079762Y-66262381D01*
X163984524Y-66405238D01*
X163889286Y-66500476D01*
X163794048Y-66548095D01*
X165222620Y-66262381D02*
X165032143Y-66262381D01*
X164936905Y-66310000D01*
X164889286Y-66357619D01*
X164794048Y-66500476D01*
X164746429Y-66690952D01*
X164746429Y-67071905D01*
X164794048Y-67167143D01*
X164841667Y-67214762D01*
X164936905Y-67262381D01*
X165127382Y-67262381D01*
X165222620Y-67214762D01*
X165270239Y-67167143D01*
X165317858Y-67071905D01*
X165317858Y-66833810D01*
X165270239Y-66738571D01*
X165222620Y-66690952D01*
X165127382Y-66643333D01*
X164936905Y-66643333D01*
X164841667Y-66690952D01*
X164794048Y-66738571D01*
X164746429Y-66833810D01*
M02*
