M48
; DRILL file {KiCad (6.0.11)} date Sun Aug 20 15:06:38 2023
; FORMAT={-:-/ absolute / inch / decimal}
; #@! TF.CreationDate,2023-08-20T15:06:38-05:00
; #@! TF.GenerationSoftware,Kicad,Pcbnew,(6.0.11)
; #@! TF.FileFunction,Plated,1,2,PTH
FMAT,2
INCH
; #@! TA.AperFunction,Plated,PTH,ViaDrill
T1C0.0157
; #@! TA.AperFunction,Plated,PTH,ComponentDrill
T2C0.0315
; #@! TA.AperFunction,Plated,PTH,ComponentDrill
T3C0.0394
; #@! TA.AperFunction,Plated,PTH,ComponentDrill
T4C0.0472
%
G90
G05
T1
X4.6963Y-2.7425
X4.7293Y-1.6356
X4.7563Y-2.6925
X4.7785Y-1.675
X5.1796Y-2.2631
X5.2163Y-3.3825
X5.5963Y-2.6925
X5.6563Y-2.7425
X5.6741Y-1.6356
X5.6741Y-1.6947
X5.9531Y-1.7116
X6.0131Y-1.6516
X6.4281Y-2.2716
X6.9046Y-1.655
X6.9631Y-1.7216
T2
X5.9331Y-2.9887
X5.94Y-2.6802
X5.94Y-2.8771
X6.0531Y-2.7287
X6.0531Y-2.8587
X6.13Y-2.9887
X6.25Y-2.7287
X6.25Y-2.8587
X6.4Y-3.1287
X6.4673Y-3.3136
X6.9872Y-2.691
X6.9872Y-2.8879
X6.9904Y-3.3658
X6.9904Y-3.5627
T3
X5.1296Y-2.7325
X5.1296Y-3.5315
X5.1363Y-1.6825
X5.1363Y-2.4825
X5.2296Y-2.7325
X5.2296Y-3.5315
X5.2363Y-1.6825
X5.2363Y-2.4825
X5.3296Y-2.7325
X5.3296Y-3.5315
X5.3363Y-1.6825
X5.3363Y-2.4825
X5.4296Y-2.7325
X5.4296Y-3.5315
X5.4363Y-1.6825
X5.4363Y-2.4825
X6.3896Y-3.5396
X6.39Y-2.7387
X6.3935Y-1.6906
X6.3935Y-2.4916
X6.4896Y-3.5396
X6.49Y-2.7387
X6.4935Y-1.6906
X6.4935Y-2.4916
X6.5896Y-3.5396
X6.59Y-2.7387
X6.5935Y-1.6906
X6.5935Y-2.4916
X6.6896Y-3.5396
X6.69Y-2.7387
X6.6935Y-1.6906
X6.6935Y-2.4916
T4
X4.7256Y-3.5327
X4.7327Y-2.5003
X5.0163Y-3.0191
X5.0234Y-1.9866
X5.3945Y-3.3977
X5.4326Y-2.3404
X5.5423Y-2.8264
X5.5804Y-1.7691
X5.9794Y-3.5689
X5.9993Y-2.493
X6.27Y-3.0553
X6.2899Y-1.9793
X6.6737Y-3.4
X6.6944Y-2.3345
X6.8215Y-2.8286
X6.8422Y-1.7631
T0
M30
