%TF.GenerationSoftware,KiCad,Pcbnew,(6.0.11)*%
%TF.CreationDate,2023-05-06T11:24:47-05:00*%
%TF.ProjectId,SerialResonantFilter,53657269-616c-4526-9573-6f6e616e7446,rev?*%
%TF.SameCoordinates,Original*%
%TF.FileFunction,Legend,Top*%
%TF.FilePolarity,Positive*%
%FSLAX46Y46*%
G04 Gerber Fmt 4.6, Leading zero omitted, Abs format (unit mm)*
G04 Created by KiCad (PCBNEW (6.0.11)) date 2023-05-06 11:24:47*
%MOMM*%
%LPD*%
G01*
G04 APERTURE LIST*
%ADD10C,5.000000*%
%ADD11C,0.150000*%
%ADD12C,0.120000*%
G04 APERTURE END LIST*
D10*
X143954500Y-109982000D02*
X143954500Y-111061500D01*
D11*
X125643333Y-106792380D02*
X125167142Y-106792380D01*
X125167142Y-105792380D01*
X125881428Y-105792380D02*
X126500476Y-105792380D01*
X126167142Y-106173333D01*
X126310000Y-106173333D01*
X126405238Y-106220952D01*
X126452857Y-106268571D01*
X126500476Y-106363809D01*
X126500476Y-106601904D01*
X126452857Y-106697142D01*
X126405238Y-106744761D01*
X126310000Y-106792380D01*
X126024285Y-106792380D01*
X125929047Y-106744761D01*
X125881428Y-106697142D01*
X132059047Y-94038571D02*
X132201904Y-94086190D01*
X132249523Y-94133809D01*
X132297142Y-94229047D01*
X132297142Y-94371904D01*
X132249523Y-94467142D01*
X132201904Y-94514761D01*
X132106666Y-94562380D01*
X131725714Y-94562380D01*
X131725714Y-93562380D01*
X132059047Y-93562380D01*
X132154285Y-93610000D01*
X132201904Y-93657619D01*
X132249523Y-93752857D01*
X132249523Y-93848095D01*
X132201904Y-93943333D01*
X132154285Y-93990952D01*
X132059047Y-94038571D01*
X131725714Y-94038571D01*
X132678095Y-94276666D02*
X133154285Y-94276666D01*
X132582857Y-94562380D02*
X132916190Y-93562380D01*
X133249523Y-94562380D01*
X133582857Y-94562380D02*
X133582857Y-93562380D01*
X134154285Y-94562380D01*
X134154285Y-93562380D01*
X134630476Y-94562380D02*
X134630476Y-93562380D01*
X134868571Y-93562380D01*
X135011428Y-93610000D01*
X135106666Y-93705238D01*
X135154285Y-93800476D01*
X135201904Y-93990952D01*
X135201904Y-94133809D01*
X135154285Y-94324285D01*
X135106666Y-94419523D01*
X135011428Y-94514761D01*
X134868571Y-94562380D01*
X134630476Y-94562380D01*
X131797142Y-96172380D02*
X131797142Y-95172380D01*
X132178095Y-95172380D01*
X132273333Y-95220000D01*
X132320952Y-95267619D01*
X132368571Y-95362857D01*
X132368571Y-95505714D01*
X132320952Y-95600952D01*
X132273333Y-95648571D01*
X132178095Y-95696190D01*
X131797142Y-95696190D01*
X132749523Y-95886666D02*
X133225714Y-95886666D01*
X132654285Y-96172380D02*
X132987619Y-95172380D01*
X133320952Y-96172380D01*
X133606666Y-96124761D02*
X133749523Y-96172380D01*
X133987619Y-96172380D01*
X134082857Y-96124761D01*
X134130476Y-96077142D01*
X134178095Y-95981904D01*
X134178095Y-95886666D01*
X134130476Y-95791428D01*
X134082857Y-95743809D01*
X133987619Y-95696190D01*
X133797142Y-95648571D01*
X133701904Y-95600952D01*
X133654285Y-95553333D01*
X133606666Y-95458095D01*
X133606666Y-95362857D01*
X133654285Y-95267619D01*
X133701904Y-95220000D01*
X133797142Y-95172380D01*
X134035238Y-95172380D01*
X134178095Y-95220000D01*
X134559047Y-96124761D02*
X134701904Y-96172380D01*
X134940000Y-96172380D01*
X135035238Y-96124761D01*
X135082857Y-96077142D01*
X135130476Y-95981904D01*
X135130476Y-95886666D01*
X135082857Y-95791428D01*
X135035238Y-95743809D01*
X134940000Y-95696190D01*
X134749523Y-95648571D01*
X134654285Y-95600952D01*
X134606666Y-95553333D01*
X134559047Y-95458095D01*
X134559047Y-95362857D01*
X134606666Y-95267619D01*
X134654285Y-95220000D01*
X134749523Y-95172380D01*
X134987619Y-95172380D01*
X135130476Y-95220000D01*
X131606666Y-97258571D02*
X131273333Y-97258571D01*
X131273333Y-97782380D02*
X131273333Y-96782380D01*
X131749523Y-96782380D01*
X132130476Y-97782380D02*
X132130476Y-96782380D01*
X133082857Y-97782380D02*
X132606666Y-97782380D01*
X132606666Y-96782380D01*
X133273333Y-96782380D02*
X133844761Y-96782380D01*
X133559047Y-97782380D02*
X133559047Y-96782380D01*
X134178095Y-97258571D02*
X134511428Y-97258571D01*
X134654285Y-97782380D02*
X134178095Y-97782380D01*
X134178095Y-96782380D01*
X134654285Y-96782380D01*
X135654285Y-97782380D02*
X135320952Y-97306190D01*
X135082857Y-97782380D02*
X135082857Y-96782380D01*
X135463809Y-96782380D01*
X135559047Y-96830000D01*
X135606666Y-96877619D01*
X135654285Y-96972857D01*
X135654285Y-97115714D01*
X135606666Y-97210952D01*
X135559047Y-97258571D01*
X135463809Y-97306190D01*
X135082857Y-97306190D01*
X143192380Y-91873809D02*
X142192380Y-91873809D01*
X143192380Y-91397619D02*
X142192380Y-91397619D01*
X143192380Y-90826190D01*
X142192380Y-90826190D01*
X143192380Y-90350000D02*
X142192380Y-90350000D01*
X142192380Y-89969047D01*
X142240000Y-89873809D01*
X142287619Y-89826190D01*
X142382857Y-89778571D01*
X142525714Y-89778571D01*
X142620952Y-89826190D01*
X142668571Y-89873809D01*
X142716190Y-89969047D01*
X142716190Y-90350000D01*
X128260000Y-112532380D02*
X128450476Y-112532380D01*
X128545714Y-112580000D01*
X128640952Y-112675238D01*
X128688571Y-112865714D01*
X128688571Y-113199047D01*
X128640952Y-113389523D01*
X128545714Y-113484761D01*
X128450476Y-113532380D01*
X128260000Y-113532380D01*
X128164761Y-113484761D01*
X128069523Y-113389523D01*
X128021904Y-113199047D01*
X128021904Y-112865714D01*
X128069523Y-112675238D01*
X128164761Y-112580000D01*
X128260000Y-112532380D01*
X129117142Y-112532380D02*
X129117142Y-113341904D01*
X129164761Y-113437142D01*
X129212380Y-113484761D01*
X129307619Y-113532380D01*
X129498095Y-113532380D01*
X129593333Y-113484761D01*
X129640952Y-113437142D01*
X129688571Y-113341904D01*
X129688571Y-112532380D01*
X130021904Y-112532380D02*
X130593333Y-112532380D01*
X130307619Y-113532380D02*
X130307619Y-112532380D01*
X141713333Y-101452380D02*
X141237142Y-101452380D01*
X141237142Y-100452380D01*
X141999047Y-100547619D02*
X142046666Y-100500000D01*
X142141904Y-100452380D01*
X142380000Y-100452380D01*
X142475238Y-100500000D01*
X142522857Y-100547619D01*
X142570476Y-100642857D01*
X142570476Y-100738095D01*
X142522857Y-100880952D01*
X141951428Y-101452380D01*
X142570476Y-101452380D01*
%TO.C,C1*%
X147783333Y-93237142D02*
X147735714Y-93284761D01*
X147592857Y-93332380D01*
X147497619Y-93332380D01*
X147354761Y-93284761D01*
X147259523Y-93189523D01*
X147211904Y-93094285D01*
X147164285Y-92903809D01*
X147164285Y-92760952D01*
X147211904Y-92570476D01*
X147259523Y-92475238D01*
X147354761Y-92380000D01*
X147497619Y-92332380D01*
X147592857Y-92332380D01*
X147735714Y-92380000D01*
X147783333Y-92427619D01*
X148735714Y-93332380D02*
X148164285Y-93332380D01*
X148450000Y-93332380D02*
X148450000Y-92332380D01*
X148354761Y-92475238D01*
X148259523Y-92570476D01*
X148164285Y-92618095D01*
%TO.C,C2*%
X127247142Y-91556666D02*
X127294761Y-91604285D01*
X127342380Y-91747142D01*
X127342380Y-91842380D01*
X127294761Y-91985238D01*
X127199523Y-92080476D01*
X127104285Y-92128095D01*
X126913809Y-92175714D01*
X126770952Y-92175714D01*
X126580476Y-92128095D01*
X126485238Y-92080476D01*
X126390000Y-91985238D01*
X126342380Y-91842380D01*
X126342380Y-91747142D01*
X126390000Y-91604285D01*
X126437619Y-91556666D01*
X126437619Y-91175714D02*
X126390000Y-91128095D01*
X126342380Y-91032857D01*
X126342380Y-90794761D01*
X126390000Y-90699523D01*
X126437619Y-90651904D01*
X126532857Y-90604285D01*
X126628095Y-90604285D01*
X126770952Y-90651904D01*
X127342380Y-91223333D01*
X127342380Y-90604285D01*
%TO.C,C3*%
X127307142Y-94846666D02*
X127354761Y-94894285D01*
X127402380Y-95037142D01*
X127402380Y-95132380D01*
X127354761Y-95275238D01*
X127259523Y-95370476D01*
X127164285Y-95418095D01*
X126973809Y-95465714D01*
X126830952Y-95465714D01*
X126640476Y-95418095D01*
X126545238Y-95370476D01*
X126450000Y-95275238D01*
X126402380Y-95132380D01*
X126402380Y-95037142D01*
X126450000Y-94894285D01*
X126497619Y-94846666D01*
X126402380Y-94513333D02*
X126402380Y-93894285D01*
X126783333Y-94227619D01*
X126783333Y-94084761D01*
X126830952Y-93989523D01*
X126878571Y-93941904D01*
X126973809Y-93894285D01*
X127211904Y-93894285D01*
X127307142Y-93941904D01*
X127354761Y-93989523D01*
X127402380Y-94084761D01*
X127402380Y-94370476D01*
X127354761Y-94465714D01*
X127307142Y-94513333D01*
%TO.C,C4*%
X121353333Y-93327142D02*
X121305714Y-93374761D01*
X121162857Y-93422380D01*
X121067619Y-93422380D01*
X120924761Y-93374761D01*
X120829523Y-93279523D01*
X120781904Y-93184285D01*
X120734285Y-92993809D01*
X120734285Y-92850952D01*
X120781904Y-92660476D01*
X120829523Y-92565238D01*
X120924761Y-92470000D01*
X121067619Y-92422380D01*
X121162857Y-92422380D01*
X121305714Y-92470000D01*
X121353333Y-92517619D01*
X122210476Y-92755714D02*
X122210476Y-93422380D01*
X121972380Y-92374761D02*
X121734285Y-93089047D01*
X122353333Y-93089047D01*
%TO.C,C5*%
X123997142Y-98326666D02*
X124044761Y-98374285D01*
X124092380Y-98517142D01*
X124092380Y-98612380D01*
X124044761Y-98755238D01*
X123949523Y-98850476D01*
X123854285Y-98898095D01*
X123663809Y-98945714D01*
X123520952Y-98945714D01*
X123330476Y-98898095D01*
X123235238Y-98850476D01*
X123140000Y-98755238D01*
X123092380Y-98612380D01*
X123092380Y-98517142D01*
X123140000Y-98374285D01*
X123187619Y-98326666D01*
X123092380Y-97421904D02*
X123092380Y-97898095D01*
X123568571Y-97945714D01*
X123520952Y-97898095D01*
X123473333Y-97802857D01*
X123473333Y-97564761D01*
X123520952Y-97469523D01*
X123568571Y-97421904D01*
X123663809Y-97374285D01*
X123901904Y-97374285D01*
X123997142Y-97421904D01*
X124044761Y-97469523D01*
X124092380Y-97564761D01*
X124092380Y-97802857D01*
X124044761Y-97898095D01*
X123997142Y-97945714D01*
%TO.C,C6*%
X147493333Y-110327142D02*
X147445714Y-110374761D01*
X147302857Y-110422380D01*
X147207619Y-110422380D01*
X147064761Y-110374761D01*
X146969523Y-110279523D01*
X146921904Y-110184285D01*
X146874285Y-109993809D01*
X146874285Y-109850952D01*
X146921904Y-109660476D01*
X146969523Y-109565238D01*
X147064761Y-109470000D01*
X147207619Y-109422380D01*
X147302857Y-109422380D01*
X147445714Y-109470000D01*
X147493333Y-109517619D01*
X148350476Y-109422380D02*
X148160000Y-109422380D01*
X148064761Y-109470000D01*
X148017142Y-109517619D01*
X147921904Y-109660476D01*
X147874285Y-109850952D01*
X147874285Y-110231904D01*
X147921904Y-110327142D01*
X147969523Y-110374761D01*
X148064761Y-110422380D01*
X148255238Y-110422380D01*
X148350476Y-110374761D01*
X148398095Y-110327142D01*
X148445714Y-110231904D01*
X148445714Y-109993809D01*
X148398095Y-109898571D01*
X148350476Y-109850952D01*
X148255238Y-109803333D01*
X148064761Y-109803333D01*
X147969523Y-109850952D01*
X147921904Y-109898571D01*
X147874285Y-109993809D01*
%TO.C,C7*%
X133905534Y-104582607D02*
X133877074Y-104643641D01*
X133759118Y-104737249D01*
X133669624Y-104769822D01*
X133519095Y-104773935D01*
X133397027Y-104717014D01*
X133319707Y-104643806D01*
X133209813Y-104481103D01*
X133160953Y-104346861D01*
X133140553Y-104151586D01*
X133152727Y-104045804D01*
X133209649Y-103923737D01*
X133327604Y-103830129D01*
X133417098Y-103797556D01*
X133567627Y-103793443D01*
X133628661Y-103821904D01*
X133909318Y-103618403D02*
X134535780Y-103390389D01*
X134475075Y-104476662D01*
%TO.C,J1*%
X133816666Y-108672380D02*
X133816666Y-109386666D01*
X133769047Y-109529523D01*
X133673809Y-109624761D01*
X133530952Y-109672380D01*
X133435714Y-109672380D01*
X134816666Y-109672380D02*
X134245238Y-109672380D01*
X134530952Y-109672380D02*
X134530952Y-108672380D01*
X134435714Y-108815238D01*
X134340476Y-108910476D01*
X134245238Y-108958095D01*
%TO.C,J2*%
X143552380Y-90763333D02*
X144266666Y-90763333D01*
X144409523Y-90810952D01*
X144504761Y-90906190D01*
X144552380Y-91049047D01*
X144552380Y-91144285D01*
X143647619Y-90334761D02*
X143600000Y-90287142D01*
X143552380Y-90191904D01*
X143552380Y-89953809D01*
X143600000Y-89858571D01*
X143647619Y-89810952D01*
X143742857Y-89763333D01*
X143838095Y-89763333D01*
X143980952Y-89810952D01*
X144552380Y-90382380D01*
X144552380Y-89763333D01*
D12*
%TO.C,C1*%
X146944000Y-90270000D02*
X146630000Y-90270000D01*
X149250000Y-95390000D02*
X148936000Y-95390000D01*
X149250000Y-90270000D02*
X149250000Y-95390000D01*
X149250000Y-90270000D02*
X148936000Y-90270000D01*
X146944000Y-95390000D02*
X146630000Y-95390000D01*
X146630000Y-90270000D02*
X146630000Y-95390000D01*
%TO.C,C2*%
X129460000Y-90364000D02*
X129460000Y-90050000D01*
X124340000Y-92670000D02*
X124340000Y-92356000D01*
X129460000Y-92670000D02*
X124340000Y-92670000D01*
X129460000Y-92670000D02*
X129460000Y-92356000D01*
X124340000Y-90364000D02*
X124340000Y-90050000D01*
X129460000Y-90050000D02*
X124340000Y-90050000D01*
%TO.C,C3*%
X129480000Y-93724000D02*
X129480000Y-93410000D01*
X124360000Y-96030000D02*
X124360000Y-95716000D01*
X129480000Y-96030000D02*
X124360000Y-96030000D01*
X129480000Y-96030000D02*
X129480000Y-95716000D01*
X124360000Y-93724000D02*
X124360000Y-93410000D01*
X129480000Y-93410000D02*
X124360000Y-93410000D01*
%TO.C,C4*%
X120360000Y-90400000D02*
X120360000Y-95520000D01*
X120674000Y-95520000D02*
X120360000Y-95520000D01*
X122980000Y-90400000D02*
X122666000Y-90400000D01*
X122980000Y-90400000D02*
X122980000Y-95520000D01*
X122980000Y-95520000D02*
X122666000Y-95520000D01*
X120674000Y-90400000D02*
X120360000Y-90400000D01*
%TO.C,C5*%
X126260000Y-97184000D02*
X126260000Y-96870000D01*
X121140000Y-99490000D02*
X121140000Y-99176000D01*
X126260000Y-99490000D02*
X121140000Y-99490000D01*
X126260000Y-99490000D02*
X126260000Y-99176000D01*
X121140000Y-97184000D02*
X121140000Y-96870000D01*
X126260000Y-96870000D02*
X121140000Y-96870000D01*
%TO.C,C6*%
X146705000Y-107382000D02*
X146391000Y-107382000D01*
X149011000Y-112502000D02*
X148697000Y-112502000D01*
X149011000Y-107382000D02*
X149011000Y-112502000D01*
X149011000Y-107382000D02*
X148697000Y-107382000D01*
X146705000Y-112502000D02*
X146391000Y-112502000D01*
X146391000Y-107382000D02*
X146391000Y-112502000D01*
%TO.C,C7*%
X132139545Y-102138271D02*
X131844481Y-102245665D01*
X136057619Y-106160798D02*
X135762556Y-106268193D01*
X134306476Y-101349572D02*
X136057619Y-106160798D01*
X134306476Y-101349572D02*
X134011413Y-101456966D01*
X133890688Y-106949497D02*
X133595625Y-107056891D01*
X131844481Y-102245665D02*
X133595625Y-107056891D01*
%TO.C,L2*%
X148377811Y-100845258D02*
G75*
G03*
X148377811Y-100845258I-6440001J0D01*
G01*
X145695910Y-100845258D02*
G75*
G03*
X145695910Y-100845258I-3758100J0D01*
G01*
%TO.C,L3*%
X129748100Y-106200254D02*
G75*
G03*
X129748100Y-106200254I-3758100J0D01*
G01*
X132430000Y-106200254D02*
G75*
G03*
X132430000Y-106200254I-6440000J0D01*
G01*
%TO.C,J1*%
X133858000Y-113090000D02*
X133858000Y-110430000D01*
X133858000Y-110430000D02*
X141538000Y-110430000D01*
X132588000Y-113090000D02*
X131258000Y-113090000D01*
X141538000Y-113090000D02*
X141538000Y-110430000D01*
X131258000Y-113090000D02*
X131258000Y-111760000D01*
X133858000Y-113090000D02*
X141538000Y-113090000D01*
%TO.C,J2*%
X132588000Y-92770000D02*
X131258000Y-92770000D01*
X141538000Y-92770000D02*
X141538000Y-90110000D01*
X133858000Y-92770000D02*
X133858000Y-90110000D01*
X131258000Y-92770000D02*
X131258000Y-91440000D01*
X133858000Y-92770000D02*
X141538000Y-92770000D01*
X133858000Y-90110000D02*
X141538000Y-90110000D01*
%TD*%
M02*
