%TF.GenerationSoftware,KiCad,Pcbnew,(6.0.11)*%
%TF.CreationDate,2023-08-20T15:06:36-05:00*%
%TF.ProjectId,SerialResonantFilter,53657269-616c-4526-9573-6f6e616e7446,rev?*%
%TF.SameCoordinates,Original*%
%TF.FileFunction,Copper,L2,Bot*%
%TF.FilePolarity,Positive*%
%FSLAX46Y46*%
G04 Gerber Fmt 4.6, Leading zero omitted, Abs format (unit mm)*
G04 Created by KiCad (PCBNEW (6.0.11)) date 2023-08-20 15:06:36*
%MOMM*%
%LPD*%
G01*
G04 APERTURE LIST*
%TA.AperFunction,ComponentPad*%
%ADD10C,2.400000*%
%TD*%
%TA.AperFunction,ComponentPad*%
%ADD11R,1.700000X1.700000*%
%TD*%
%TA.AperFunction,ComponentPad*%
%ADD12O,1.700000X1.700000*%
%TD*%
%TA.AperFunction,ComponentPad*%
%ADD13C,1.600000*%
%TD*%
%TA.AperFunction,ViaPad*%
%ADD14C,0.600000*%
%TD*%
G04 APERTURE END LIST*
D10*
%TO.P,L2,1*%
%TO.N,Net-(C1-Pad2)*%
X141741938Y-44934039D03*
%TO.P,L2,2*%
%TO.N,Net-(C2-Pad1)*%
X137987810Y-59446913D03*
%TD*%
%TO.P,L3,1*%
%TO.N,Net-(C2-Pad2)*%
X127593338Y-50459705D03*
%TO.P,L3,2*%
%TO.N,Net-(C5-Pad2)*%
X120210921Y-63506425D03*
%TD*%
D11*
%TO.P,J1,1,Pin_1*%
%TO.N,GND*%
X130461338Y-63054587D03*
D12*
%TO.P,J1,2,Pin_2*%
X133001338Y-63054587D03*
%TO.P,J1,3,Pin_3*%
%TO.N,Net-(C5-Pad2)*%
X135541338Y-63054587D03*
%TO.P,J1,4,Pin_4*%
X138081338Y-63054587D03*
%TD*%
D11*
%TO.P,J2,1,Pin_1*%
%TO.N,GND*%
X130461338Y-42734587D03*
D12*
%TO.P,J2,2,Pin_2*%
X133001338Y-42734587D03*
%TO.P,J2,3,Pin_3*%
%TO.N,Net-(C1-Pad2)*%
X135541338Y-42734587D03*
%TO.P,J2,4,Pin_4*%
X138081338Y-42734587D03*
%TD*%
D11*
%TO.P,J5,1,Pin_1*%
%TO.N,GND*%
X130290838Y-69404587D03*
D12*
%TO.P,J5,2,Pin_2*%
X132830838Y-69404587D03*
%TO.P,J5,3,Pin_3*%
%TO.N,Net-(C15-Pad2)*%
X135370838Y-69404587D03*
%TO.P,J5,4,Pin_4*%
X137910838Y-69404587D03*
%TD*%
D13*
%TO.P,C26,1*%
%TO.N,Net-(C23-Pad2)*%
X162560000Y-79467837D03*
%TO.P,C26,2*%
%TO.N,Net-(C26-Pad2)*%
X164270101Y-84166300D03*
%TD*%
%TO.P,C22,1*%
%TO.N,GND*%
X177476000Y-68351837D03*
%TO.P,C22,2*%
%TO.N,Net-(C22-Pad2)*%
X177476000Y-73351837D03*
%TD*%
D10*
%TO.P,L8,1*%
%TO.N,Net-(C23-Pad2)*%
X159258000Y-77603542D03*
%TO.P,L8,2*%
%TO.N,Net-(C26-Pad2)*%
X151875583Y-90650262D03*
%TD*%
%TO.P,L5,1*%
%TO.N,Net-(C15-Pad2)*%
X140774128Y-71789876D03*
%TO.P,L5,2*%
%TO.N,Net-(C16-Pad1)*%
X137020000Y-86302750D03*
%TD*%
%TO.P,L7,1*%
%TO.N,Net-(C22-Pad2)*%
X173266790Y-71847126D03*
%TO.P,L7,2*%
%TO.N,Net-(C23-Pad1)*%
X169512662Y-86360000D03*
%TD*%
D11*
%TO.P,J6,1,Pin_1*%
%TO.N,GND*%
X130290838Y-89699587D03*
D12*
%TO.P,J6,2,Pin_2*%
X132830838Y-89699587D03*
%TO.P,J6,3,Pin_3*%
%TO.N,Net-(C19-Pad2)*%
X135370838Y-89699587D03*
%TO.P,J6,4,Pin_4*%
X137910838Y-89699587D03*
%TD*%
D11*
%TO.P,J3,1,Pin_1*%
%TO.N,GND*%
X162394338Y-42940424D03*
D12*
%TO.P,J3,2,Pin_2*%
X164934338Y-42940424D03*
%TO.P,J3,3,Pin_3*%
%TO.N,Net-(C8-Pad2)*%
X167474338Y-42940424D03*
%TO.P,J3,4,Pin_4*%
X170014338Y-42940424D03*
%TD*%
D10*
%TO.P,L1,1*%
%TO.N,Net-(C8-Pad2)*%
X173791938Y-44783876D03*
%TO.P,L1,2*%
%TO.N,Net-(C10-Pad1)*%
X170037810Y-59296750D03*
%TD*%
D13*
%TO.P,C24,1*%
%TO.N,Net-(C23-Pad1)*%
X158750000Y-69307837D03*
%TO.P,C24,2*%
%TO.N,Net-(C23-Pad2)*%
X153750000Y-69307837D03*
%TD*%
%TO.P,C25,1*%
%TO.N,GND*%
X150876000Y-68077837D03*
%TO.P,C25,2*%
%TO.N,Net-(C23-Pad2)*%
X150876000Y-73077837D03*
%TD*%
D10*
%TO.P,L4,1*%
%TO.N,Net-(C10-Pad2)*%
X159764338Y-50274917D03*
%TO.P,L4,2*%
%TO.N,Net-(C12-Pad2)*%
X152381921Y-63321637D03*
%TD*%
D11*
%TO.P,J4,1,Pin_1*%
%TO.N,GND*%
X162394338Y-63285424D03*
D12*
%TO.P,J4,2,Pin_2*%
X164934338Y-63285424D03*
%TO.P,J4,3,Pin_3*%
%TO.N,Net-(C12-Pad2)*%
X167474338Y-63285424D03*
%TO.P,J4,4,Pin_4*%
X170014338Y-63285424D03*
%TD*%
D11*
%TO.P,J7,1,Pin_1*%
%TO.N,GND*%
X162306000Y-69561837D03*
D12*
%TO.P,J7,2,Pin_2*%
X164846000Y-69561837D03*
%TO.P,J7,3,Pin_3*%
%TO.N,Net-(C22-Pad2)*%
X167386000Y-69561837D03*
%TO.P,J7,4,Pin_4*%
X169926000Y-69561837D03*
%TD*%
D13*
%TO.P,C27,1*%
%TO.N,Net-(C23-Pad2)*%
X155702000Y-75911837D03*
%TO.P,C27,2*%
%TO.N,Net-(C26-Pad2)*%
X150702000Y-75911837D03*
%TD*%
%TO.P,C23,1*%
%TO.N,Net-(C23-Pad1)*%
X158750000Y-72609837D03*
%TO.P,C23,2*%
%TO.N,Net-(C23-Pad2)*%
X153750000Y-72609837D03*
%TD*%
%TO.P,C28,1*%
%TO.N,GND*%
X177556000Y-85491837D03*
%TO.P,C28,2*%
%TO.N,Net-(C26-Pad2)*%
X177556000Y-90491837D03*
%TD*%
D11*
%TO.P,J8,1,Pin_1*%
%TO.N,GND*%
X162296000Y-89906837D03*
D12*
%TO.P,J8,2,Pin_2*%
X164836000Y-89906837D03*
%TO.P,J8,3,Pin_3*%
%TO.N,Net-(C26-Pad2)*%
X167376000Y-89906837D03*
%TO.P,J8,4,Pin_4*%
X169916000Y-89906837D03*
%TD*%
D10*
%TO.P,L6,1*%
%TO.N,Net-(C16-Pad2)*%
X127413338Y-76684292D03*
%TO.P,L6,2*%
%TO.N,Net-(C19-Pad2)*%
X120030921Y-89731012D03*
%TD*%
D14*
%TO.N,GND*%
X144123338Y-41544587D03*
X176862338Y-43727424D03*
X119285338Y-69658587D03*
X143669338Y-69658587D03*
X175376838Y-42037924D03*
X120123338Y-41544587D03*
X163273338Y-57697424D03*
X151208338Y-43473424D03*
X120809338Y-68388587D03*
X152732338Y-41949424D03*
X121373338Y-42544587D03*
X131560838Y-57482087D03*
X142145338Y-68388587D03*
X144123338Y-43044587D03*
X132493338Y-85914587D03*
%TD*%
%TA.AperFunction,Conductor*%
%TO.N,GND*%
G36*
X150288101Y-66695502D02*
G01*
X150334594Y-66749158D01*
X150344698Y-66819432D01*
X150315204Y-66884012D01*
X150273230Y-66915695D01*
X150224489Y-66938423D01*
X150214994Y-66943906D01*
X150162952Y-66980346D01*
X150154576Y-66990825D01*
X150161644Y-67004271D01*
X150863188Y-67705815D01*
X150877132Y-67713429D01*
X150878965Y-67713298D01*
X150885580Y-67709047D01*
X151329802Y-67264825D01*
X176754576Y-67264825D01*
X176761644Y-67278271D01*
X177463188Y-67979815D01*
X177477132Y-67987429D01*
X177478965Y-67987298D01*
X177485580Y-67983047D01*
X178191077Y-67277550D01*
X178197507Y-67265775D01*
X178188211Y-67253760D01*
X178137006Y-67217906D01*
X178127511Y-67212423D01*
X177930053Y-67120347D01*
X177919761Y-67116601D01*
X177709312Y-67060212D01*
X177698519Y-67058309D01*
X177481475Y-67039320D01*
X177470525Y-67039320D01*
X177253481Y-67058309D01*
X177242688Y-67060212D01*
X177032239Y-67116601D01*
X177021947Y-67120347D01*
X176824489Y-67212423D01*
X176814994Y-67217906D01*
X176762952Y-67254346D01*
X176754576Y-67264825D01*
X151329802Y-67264825D01*
X151591077Y-67003550D01*
X151597507Y-66991775D01*
X151588211Y-66979760D01*
X151537006Y-66943906D01*
X151527511Y-66938423D01*
X151478770Y-66915695D01*
X151425485Y-66868777D01*
X151406024Y-66800500D01*
X151426566Y-66732540D01*
X151480589Y-66686475D01*
X151532020Y-66675500D01*
X179578500Y-66675500D01*
X179646621Y-66695502D01*
X179693114Y-66749158D01*
X179704500Y-66801500D01*
X179704500Y-91948500D01*
X179684498Y-92016621D01*
X179630842Y-92063114D01*
X179578500Y-92074500D01*
X178130884Y-92074500D01*
X178062763Y-92054498D01*
X178016270Y-92000842D01*
X178006166Y-91930568D01*
X178035660Y-91865988D01*
X178081792Y-91833389D01*
X178081576Y-91832948D01*
X178084318Y-91831605D01*
X178084319Y-91831604D01*
X178293557Y-91729100D01*
X178337989Y-91697407D01*
X178481518Y-91595029D01*
X178481523Y-91595025D01*
X178485730Y-91592024D01*
X178652935Y-91425402D01*
X178790681Y-91233708D01*
X178799228Y-91216416D01*
X178892975Y-91026733D01*
X178892976Y-91026731D01*
X178895269Y-91022091D01*
X178963889Y-90796233D01*
X178965020Y-90787641D01*
X178994263Y-90565523D01*
X178994264Y-90565516D01*
X178994700Y-90562201D01*
X178994782Y-90558848D01*
X178996338Y-90495201D01*
X178996338Y-90495197D01*
X178996420Y-90491837D01*
X178983798Y-90338314D01*
X178977502Y-90261730D01*
X178977501Y-90261724D01*
X178977078Y-90256579D01*
X178919573Y-90027639D01*
X178859326Y-89889080D01*
X178827512Y-89815914D01*
X178827512Y-89815913D01*
X178825447Y-89811165D01*
X178733333Y-89668779D01*
X178700040Y-89617315D01*
X178700038Y-89617312D01*
X178697230Y-89612972D01*
X178668697Y-89581614D01*
X178541842Y-89442203D01*
X178541840Y-89442202D01*
X178538364Y-89438381D01*
X178534313Y-89435182D01*
X178534309Y-89435178D01*
X178357174Y-89295286D01*
X178353116Y-89292081D01*
X178146461Y-89178001D01*
X177968327Y-89114920D01*
X177928824Y-89100931D01*
X177928820Y-89100930D01*
X177923949Y-89099205D01*
X177918859Y-89098298D01*
X177918854Y-89098297D01*
X177696644Y-89058716D01*
X177696638Y-89058715D01*
X177691555Y-89057810D01*
X177600623Y-89056699D01*
X177460690Y-89054989D01*
X177460688Y-89054989D01*
X177455521Y-89054926D01*
X177222186Y-89090631D01*
X176997815Y-89163967D01*
X176788434Y-89272963D01*
X176784295Y-89276070D01*
X176784296Y-89276070D01*
X176607624Y-89408720D01*
X176599667Y-89414694D01*
X176436583Y-89585351D01*
X176433669Y-89589623D01*
X176433668Y-89589624D01*
X176306481Y-89776073D01*
X176306478Y-89776078D01*
X176303562Y-89780353D01*
X176301383Y-89785048D01*
X176221073Y-89958062D01*
X176204176Y-89994463D01*
X176141094Y-90221929D01*
X176116010Y-90456644D01*
X176116307Y-90461796D01*
X176116307Y-90461800D01*
X176124037Y-90595865D01*
X176129598Y-90692305D01*
X176130735Y-90697351D01*
X176130736Y-90697357D01*
X176158019Y-90818418D01*
X176181493Y-90922581D01*
X176183435Y-90927363D01*
X176183436Y-90927367D01*
X176266120Y-91130992D01*
X176270302Y-91141290D01*
X176393638Y-91342557D01*
X176548191Y-91520978D01*
X176729809Y-91671760D01*
X176734261Y-91674362D01*
X176734266Y-91674365D01*
X176929157Y-91788250D01*
X176933615Y-91790855D01*
X177013879Y-91821505D01*
X177038195Y-91830790D01*
X177094698Y-91873777D01*
X177118991Y-91940488D01*
X177103361Y-92009743D01*
X177052770Y-92059554D01*
X176993246Y-92074500D01*
X153346856Y-92074500D01*
X153278735Y-92054498D01*
X153232242Y-92000842D01*
X153222138Y-91930568D01*
X153250405Y-91867425D01*
X153361462Y-91735306D01*
X153364327Y-91731898D01*
X153501879Y-91511341D01*
X153518773Y-91473129D01*
X153605183Y-91277671D01*
X153606981Y-91273604D01*
X153677538Y-91023429D01*
X153700538Y-90852194D01*
X153707346Y-90801506D01*
X160938001Y-90801506D01*
X160938371Y-90808327D01*
X160943895Y-90859189D01*
X160947521Y-90874441D01*
X160992676Y-90994891D01*
X161001214Y-91010486D01*
X161077715Y-91112561D01*
X161090276Y-91125122D01*
X161192351Y-91201623D01*
X161207946Y-91210161D01*
X161328394Y-91255315D01*
X161343649Y-91258942D01*
X161394514Y-91264468D01*
X161401328Y-91264837D01*
X162023885Y-91264837D01*
X162039124Y-91260362D01*
X162040329Y-91258972D01*
X162042000Y-91251289D01*
X162042000Y-91246721D01*
X162550000Y-91246721D01*
X162554475Y-91261960D01*
X162555865Y-91263165D01*
X162563548Y-91264836D01*
X163190669Y-91264836D01*
X163197490Y-91264466D01*
X163248352Y-91258942D01*
X163263604Y-91255316D01*
X163384054Y-91210161D01*
X163399649Y-91201623D01*
X163501724Y-91125122D01*
X163514285Y-91112561D01*
X163590786Y-91010486D01*
X163599325Y-90994889D01*
X163640425Y-90885255D01*
X163683066Y-90828490D01*
X163749628Y-90803790D01*
X163818977Y-90818997D01*
X163853645Y-90846987D01*
X163879219Y-90876511D01*
X163886580Y-90883720D01*
X164050434Y-91019753D01*
X164058881Y-91025668D01*
X164242756Y-91133116D01*
X164252042Y-91137566D01*
X164451001Y-91213540D01*
X164460899Y-91216416D01*
X164564250Y-91237443D01*
X164578299Y-91236247D01*
X164582000Y-91225902D01*
X164582000Y-91225354D01*
X165090000Y-91225354D01*
X165094064Y-91239196D01*
X165107478Y-91241230D01*
X165114184Y-91240371D01*
X165124262Y-91238229D01*
X165328255Y-91177028D01*
X165337842Y-91173270D01*
X165529095Y-91079576D01*
X165537945Y-91074301D01*
X165711328Y-90950629D01*
X165719200Y-90943976D01*
X165870052Y-90793649D01*
X165876723Y-90785809D01*
X165925590Y-90717804D01*
X165981585Y-90674156D01*
X166052288Y-90667710D01*
X166115253Y-90700513D01*
X166135345Y-90725495D01*
X166170449Y-90782778D01*
X166170452Y-90782783D01*
X166173152Y-90787188D01*
X166333088Y-90971824D01*
X166521032Y-91127858D01*
X166731937Y-91251100D01*
X166736762Y-91252942D01*
X166736763Y-91252943D01*
X166760376Y-91261960D01*
X166960138Y-91338242D01*
X166965204Y-91339273D01*
X166965205Y-91339273D01*
X167194445Y-91385912D01*
X167199508Y-91386942D01*
X167336546Y-91391967D01*
X167438454Y-91395705D01*
X167438459Y-91395705D01*
X167443618Y-91395894D01*
X167513498Y-91386942D01*
X167680783Y-91365512D01*
X167680784Y-91365512D01*
X167685911Y-91364855D01*
X167747225Y-91346460D01*
X167914929Y-91296146D01*
X167919882Y-91294660D01*
X167924521Y-91292387D01*
X167924527Y-91292385D01*
X168134608Y-91189467D01*
X168139246Y-91187195D01*
X168216594Y-91132023D01*
X168333901Y-91048349D01*
X168333906Y-91048345D01*
X168338113Y-91045344D01*
X168511142Y-90872919D01*
X168514158Y-90868721D01*
X168514162Y-90868717D01*
X168543307Y-90828157D01*
X168599301Y-90784508D01*
X168670005Y-90778062D01*
X168732969Y-90810864D01*
X168740868Y-90819185D01*
X168798100Y-90885255D01*
X168873088Y-90971824D01*
X169061032Y-91127858D01*
X169271937Y-91251100D01*
X169276762Y-91252942D01*
X169276763Y-91252943D01*
X169300376Y-91261960D01*
X169500138Y-91338242D01*
X169505204Y-91339273D01*
X169505205Y-91339273D01*
X169734445Y-91385912D01*
X169739508Y-91386942D01*
X169876546Y-91391967D01*
X169978454Y-91395705D01*
X169978459Y-91395705D01*
X169983618Y-91395894D01*
X170053498Y-91386942D01*
X170220783Y-91365512D01*
X170220784Y-91365512D01*
X170225911Y-91364855D01*
X170287225Y-91346460D01*
X170454929Y-91296146D01*
X170459882Y-91294660D01*
X170464521Y-91292387D01*
X170464527Y-91292385D01*
X170674608Y-91189467D01*
X170679246Y-91187195D01*
X170756594Y-91132023D01*
X170873901Y-91048349D01*
X170873906Y-91048345D01*
X170878113Y-91045344D01*
X171051142Y-90872919D01*
X171054162Y-90868717D01*
X171115915Y-90782778D01*
X171193686Y-90674548D01*
X171196272Y-90669317D01*
X171294039Y-90471497D01*
X171301916Y-90455560D01*
X171337538Y-90338314D01*
X171371423Y-90226788D01*
X171371424Y-90226782D01*
X171372927Y-90221836D01*
X171391932Y-90077479D01*
X171404374Y-89982974D01*
X171404375Y-89982968D01*
X171404811Y-89979652D01*
X171406591Y-89906837D01*
X171386576Y-89663385D01*
X171327067Y-89426471D01*
X171244006Y-89235444D01*
X171231723Y-89207194D01*
X171231721Y-89207191D01*
X171229663Y-89202457D01*
X171096980Y-88997360D01*
X171093120Y-88993117D01*
X170936059Y-88820510D01*
X170936053Y-88820504D01*
X170932581Y-88816688D01*
X170928530Y-88813489D01*
X170928526Y-88813485D01*
X170744938Y-88668497D01*
X170740880Y-88665292D01*
X170660351Y-88620838D01*
X170531559Y-88549740D01*
X170531557Y-88549739D01*
X170527028Y-88547239D01*
X170340827Y-88481302D01*
X170301637Y-88467424D01*
X170301634Y-88467423D01*
X170296765Y-88465699D01*
X170291676Y-88464792D01*
X170291674Y-88464792D01*
X170061365Y-88423767D01*
X170061361Y-88423767D01*
X170056277Y-88422861D01*
X169998316Y-88422153D01*
X169837828Y-88420192D01*
X169769956Y-88399359D01*
X169746139Y-88371184D01*
X169734024Y-88399457D01*
X169675219Y-88439237D01*
X169655941Y-88443761D01*
X169639235Y-88446317D01*
X169575673Y-88456043D01*
X169575668Y-88456044D01*
X169570559Y-88456826D01*
X169338373Y-88532716D01*
X169333785Y-88535104D01*
X169333781Y-88535106D01*
X169190991Y-88609438D01*
X169121699Y-88645509D01*
X169117566Y-88648612D01*
X169117563Y-88648614D01*
X168934205Y-88786284D01*
X168926358Y-88792176D01*
X168894560Y-88825451D01*
X168809867Y-88914077D01*
X168757593Y-88968778D01*
X168754682Y-88973045D01*
X168754679Y-88973049D01*
X168750400Y-88979322D01*
X168695489Y-89024324D01*
X168624964Y-89032495D01*
X168561217Y-89001241D01*
X168553131Y-88993130D01*
X168392581Y-88816688D01*
X168388530Y-88813489D01*
X168388526Y-88813485D01*
X168204938Y-88668497D01*
X168200880Y-88665292D01*
X168120351Y-88620838D01*
X167991559Y-88549740D01*
X167991557Y-88549739D01*
X167987028Y-88547239D01*
X167800827Y-88481302D01*
X167761637Y-88467424D01*
X167761634Y-88467423D01*
X167756765Y-88465699D01*
X167751676Y-88464792D01*
X167751674Y-88464792D01*
X167521365Y-88423767D01*
X167521361Y-88423767D01*
X167516277Y-88422861D01*
X167436610Y-88421888D01*
X167277192Y-88419940D01*
X167277190Y-88419940D01*
X167272022Y-88419877D01*
X167030559Y-88456826D01*
X166798373Y-88532716D01*
X166793785Y-88535104D01*
X166793781Y-88535106D01*
X166650991Y-88609438D01*
X166581699Y-88645509D01*
X166577566Y-88648612D01*
X166577563Y-88648614D01*
X166394205Y-88786284D01*
X166386358Y-88792176D01*
X166354560Y-88825451D01*
X166269867Y-88914077D01*
X166217593Y-88968778D01*
X166198096Y-88997360D01*
X166134065Y-89091226D01*
X166079153Y-89136229D01*
X166008628Y-89144400D01*
X165944881Y-89113146D01*
X165924185Y-89088664D01*
X165918425Y-89079761D01*
X165912136Y-89071594D01*
X165768806Y-88914077D01*
X165761273Y-88907052D01*
X165594139Y-88775059D01*
X165585552Y-88769354D01*
X165399117Y-88666436D01*
X165389705Y-88662206D01*
X165188959Y-88591117D01*
X165178988Y-88588483D01*
X165107837Y-88575809D01*
X165094540Y-88577269D01*
X165090000Y-88591826D01*
X165090000Y-91225354D01*
X164582000Y-91225354D01*
X164582000Y-90178952D01*
X164577525Y-90163713D01*
X164576135Y-90162508D01*
X164568452Y-90160837D01*
X162568115Y-90160837D01*
X162552876Y-90165312D01*
X162551671Y-90166702D01*
X162550000Y-90174385D01*
X162550000Y-91246721D01*
X162042000Y-91246721D01*
X162042000Y-90178952D01*
X162037525Y-90163713D01*
X162036135Y-90162508D01*
X162028452Y-90160837D01*
X160956116Y-90160837D01*
X160940877Y-90165312D01*
X160939672Y-90166702D01*
X160938001Y-90174385D01*
X160938001Y-90801506D01*
X153707346Y-90801506D01*
X153711714Y-90768990D01*
X153711715Y-90768982D01*
X153712141Y-90765808D01*
X153714900Y-90678005D01*
X153715671Y-90653484D01*
X153715671Y-90653479D01*
X153715772Y-90650262D01*
X153711680Y-90592460D01*
X153697729Y-90395426D01*
X153697414Y-90390977D01*
X153642705Y-90136866D01*
X153634376Y-90114287D01*
X153554278Y-89897175D01*
X153552737Y-89892998D01*
X153529396Y-89849740D01*
X153431419Y-89668155D01*
X153431419Y-89668154D01*
X153429306Y-89664239D01*
X153407504Y-89634722D01*
X160938000Y-89634722D01*
X160942475Y-89649961D01*
X160943865Y-89651166D01*
X160951548Y-89652837D01*
X162023885Y-89652837D01*
X162039124Y-89648362D01*
X162040329Y-89646972D01*
X162042000Y-89639289D01*
X162042000Y-89634722D01*
X162550000Y-89634722D01*
X162554475Y-89649961D01*
X162555865Y-89651166D01*
X162563548Y-89652837D01*
X164563885Y-89652837D01*
X164579124Y-89648362D01*
X164580329Y-89646972D01*
X164582000Y-89639289D01*
X164582000Y-88589939D01*
X164578082Y-88576595D01*
X164563806Y-88574608D01*
X164525324Y-88580497D01*
X164515288Y-88582888D01*
X164312868Y-88649049D01*
X164303359Y-88653046D01*
X164114463Y-88751379D01*
X164105738Y-88756873D01*
X163935433Y-88884742D01*
X163927726Y-88891585D01*
X163850094Y-88972822D01*
X163788570Y-89008252D01*
X163717657Y-89004795D01*
X163659871Y-88963549D01*
X163641018Y-88930001D01*
X163599324Y-88818783D01*
X163590786Y-88803188D01*
X163514285Y-88701113D01*
X163501724Y-88688552D01*
X163399649Y-88612051D01*
X163384054Y-88603513D01*
X163263606Y-88558359D01*
X163248351Y-88554732D01*
X163197486Y-88549206D01*
X163190672Y-88548837D01*
X162568115Y-88548837D01*
X162552876Y-88553312D01*
X162551671Y-88554702D01*
X162550000Y-88562385D01*
X162550000Y-89634722D01*
X162042000Y-89634722D01*
X162042000Y-88566953D01*
X162037525Y-88551714D01*
X162036135Y-88550509D01*
X162028452Y-88548838D01*
X161401331Y-88548838D01*
X161394510Y-88549208D01*
X161343648Y-88554732D01*
X161328396Y-88558358D01*
X161207946Y-88603513D01*
X161192351Y-88612051D01*
X161090276Y-88688552D01*
X161077715Y-88701113D01*
X161001214Y-88803188D01*
X160992676Y-88818783D01*
X160947522Y-88939231D01*
X160943895Y-88954486D01*
X160938369Y-89005351D01*
X160938000Y-89012165D01*
X160938000Y-89634722D01*
X153407504Y-89634722D01*
X153274874Y-89455155D01*
X153263811Y-89443916D01*
X153185349Y-89364213D01*
X153092522Y-89269916D01*
X153088982Y-89267215D01*
X153088976Y-89267209D01*
X152889430Y-89114920D01*
X152889426Y-89114917D01*
X152885889Y-89112218D01*
X152788624Y-89057747D01*
X152662987Y-88987387D01*
X152662981Y-88987384D01*
X152659097Y-88985209D01*
X152654939Y-88983601D01*
X152654934Y-88983598D01*
X152420828Y-88893029D01*
X152420822Y-88893027D01*
X152416673Y-88891422D01*
X152412341Y-88890418D01*
X152412338Y-88890417D01*
X152308206Y-88866281D01*
X152163452Y-88832729D01*
X151904487Y-88810300D01*
X151900052Y-88810544D01*
X151900048Y-88810544D01*
X151794941Y-88816329D01*
X151644946Y-88824583D01*
X151640583Y-88825451D01*
X151640582Y-88825451D01*
X151394375Y-88874425D01*
X151394373Y-88874426D01*
X151390007Y-88875294D01*
X151144756Y-88961420D01*
X150914087Y-89081243D01*
X150910472Y-89083826D01*
X150910466Y-89083830D01*
X150706223Y-89229784D01*
X150706219Y-89229787D01*
X150702602Y-89232372D01*
X150514522Y-89411792D01*
X150511766Y-89415288D01*
X150511765Y-89415289D01*
X150477505Y-89458747D01*
X150353598Y-89615922D01*
X150351362Y-89619771D01*
X150351361Y-89619773D01*
X150323259Y-89668155D01*
X150223043Y-89840691D01*
X150221375Y-89844808D01*
X150221372Y-89844815D01*
X150145290Y-90032652D01*
X150125459Y-90081612D01*
X150062796Y-90333880D01*
X150036302Y-90592460D01*
X150039104Y-90663764D01*
X150045810Y-90834443D01*
X150046507Y-90852194D01*
X150093207Y-91107898D01*
X150110010Y-91158262D01*
X150170027Y-91338156D01*
X150175470Y-91354472D01*
X150233322Y-91470251D01*
X150282482Y-91568635D01*
X150291655Y-91586994D01*
X150297208Y-91595029D01*
X150430752Y-91788250D01*
X150439444Y-91800827D01*
X150442466Y-91804096D01*
X150496889Y-91862971D01*
X150528441Y-91926571D01*
X150520600Y-91997134D01*
X150475854Y-92052255D01*
X150404364Y-92074500D01*
X148716500Y-92074500D01*
X148648379Y-92054498D01*
X148601886Y-92000842D01*
X148590500Y-91948500D01*
X148590500Y-86302198D01*
X167673381Y-86302198D01*
X167675652Y-86360000D01*
X167681337Y-86504682D01*
X167683586Y-86561932D01*
X167730286Y-86817636D01*
X167731695Y-86821859D01*
X167794780Y-87010948D01*
X167812549Y-87064210D01*
X167814542Y-87068198D01*
X167888901Y-87217013D01*
X167928734Y-87296732D01*
X168076523Y-87510565D01*
X168252966Y-87701440D01*
X168256420Y-87704252D01*
X168451087Y-87862736D01*
X168451091Y-87862739D01*
X168454544Y-87865550D01*
X168458366Y-87867851D01*
X168633663Y-87973388D01*
X168677234Y-87999620D01*
X168710518Y-88013714D01*
X168912490Y-88099239D01*
X168912495Y-88099241D01*
X168916593Y-88100976D01*
X168920890Y-88102115D01*
X168920895Y-88102117D01*
X169042219Y-88134285D01*
X169167845Y-88167594D01*
X169425977Y-88198146D01*
X169496746Y-88196478D01*
X169633914Y-88193246D01*
X169702487Y-88211638D01*
X169730236Y-88242177D01*
X169745158Y-88210531D01*
X169805348Y-88172880D01*
X169818678Y-88169911D01*
X169942246Y-88149344D01*
X169946487Y-88148003D01*
X169946490Y-88148002D01*
X170185835Y-88072307D01*
X170185837Y-88072306D01*
X170190081Y-88070964D01*
X170194092Y-88069038D01*
X170194097Y-88069036D01*
X170420381Y-87960376D01*
X170420382Y-87960375D01*
X170424400Y-87958446D01*
X170428106Y-87955970D01*
X170636825Y-87816509D01*
X170636829Y-87816506D01*
X170640527Y-87814035D01*
X170763097Y-87704252D01*
X170830827Y-87643588D01*
X170830832Y-87643583D01*
X170834150Y-87640611D01*
X170885144Y-87579947D01*
X170998541Y-87445044D01*
X171001406Y-87441636D01*
X171138958Y-87221079D01*
X171162600Y-87167603D01*
X171242262Y-86987409D01*
X171244060Y-86983342D01*
X171314617Y-86733167D01*
X171329043Y-86625768D01*
X171335473Y-86577899D01*
X176834493Y-86577899D01*
X176843789Y-86589914D01*
X176894994Y-86625768D01*
X176904489Y-86631251D01*
X177101947Y-86723327D01*
X177112239Y-86727073D01*
X177322688Y-86783462D01*
X177333481Y-86785365D01*
X177550525Y-86804354D01*
X177561475Y-86804354D01*
X177778519Y-86785365D01*
X177789312Y-86783462D01*
X177999761Y-86727073D01*
X178010053Y-86723327D01*
X178207511Y-86631251D01*
X178217006Y-86625768D01*
X178269048Y-86589328D01*
X178277424Y-86578849D01*
X178270356Y-86565403D01*
X177568812Y-85863859D01*
X177554868Y-85856245D01*
X177553035Y-85856376D01*
X177546420Y-85860627D01*
X176840923Y-86566124D01*
X176834493Y-86577899D01*
X171335473Y-86577899D01*
X171348793Y-86478728D01*
X171348794Y-86478720D01*
X171349220Y-86475546D01*
X171352851Y-86360000D01*
X171348759Y-86302198D01*
X171334808Y-86105164D01*
X171334493Y-86100715D01*
X171279784Y-85846604D01*
X171258664Y-85789354D01*
X171191357Y-85606913D01*
X171189816Y-85602736D01*
X171132933Y-85497312D01*
X176243483Y-85497312D01*
X176262472Y-85714356D01*
X176264375Y-85725149D01*
X176320764Y-85935598D01*
X176324510Y-85945890D01*
X176416586Y-86143348D01*
X176422069Y-86152843D01*
X176458509Y-86204885D01*
X176468988Y-86213261D01*
X176482434Y-86206193D01*
X177183978Y-85504649D01*
X177190356Y-85492969D01*
X177920408Y-85492969D01*
X177920539Y-85494802D01*
X177924790Y-85501417D01*
X178630287Y-86206914D01*
X178642062Y-86213344D01*
X178654077Y-86204048D01*
X178689931Y-86152843D01*
X178695414Y-86143348D01*
X178787490Y-85945890D01*
X178791236Y-85935598D01*
X178847625Y-85725149D01*
X178849528Y-85714356D01*
X178868517Y-85497312D01*
X178868517Y-85486362D01*
X178849528Y-85269318D01*
X178847625Y-85258525D01*
X178791236Y-85048076D01*
X178787490Y-85037784D01*
X178695414Y-84840326D01*
X178689931Y-84830831D01*
X178653491Y-84778789D01*
X178643012Y-84770413D01*
X178629566Y-84777481D01*
X177928022Y-85479025D01*
X177920408Y-85492969D01*
X177190356Y-85492969D01*
X177191592Y-85490705D01*
X177191461Y-85488872D01*
X177187210Y-85482257D01*
X176481713Y-84776760D01*
X176469938Y-84770330D01*
X176457923Y-84779626D01*
X176422069Y-84830831D01*
X176416586Y-84840326D01*
X176324510Y-85037784D01*
X176320764Y-85048076D01*
X176264375Y-85258525D01*
X176262472Y-85269318D01*
X176243483Y-85486362D01*
X176243483Y-85497312D01*
X171132933Y-85497312D01*
X171066385Y-85373977D01*
X170911953Y-85164893D01*
X170872709Y-85125027D01*
X170770227Y-85020923D01*
X170729601Y-84979654D01*
X170726061Y-84976953D01*
X170726055Y-84976947D01*
X170526509Y-84824658D01*
X170526505Y-84824655D01*
X170522968Y-84821956D01*
X170447382Y-84779626D01*
X170300066Y-84697125D01*
X170300060Y-84697122D01*
X170296176Y-84694947D01*
X170292018Y-84693339D01*
X170292013Y-84693336D01*
X170057907Y-84602767D01*
X170057901Y-84602765D01*
X170053752Y-84601160D01*
X170049420Y-84600156D01*
X170049417Y-84600155D01*
X169945285Y-84576019D01*
X169800531Y-84542467D01*
X169541566Y-84520038D01*
X169537131Y-84520282D01*
X169537127Y-84520282D01*
X169432020Y-84526067D01*
X169282025Y-84534321D01*
X169277662Y-84535189D01*
X169277661Y-84535189D01*
X169031454Y-84584163D01*
X169031452Y-84584164D01*
X169027086Y-84585032D01*
X168781835Y-84671158D01*
X168551166Y-84790981D01*
X168547551Y-84793564D01*
X168547545Y-84793568D01*
X168343302Y-84939522D01*
X168343298Y-84939525D01*
X168339681Y-84942110D01*
X168151601Y-85121530D01*
X168148845Y-85125026D01*
X168148844Y-85125027D01*
X168032774Y-85272261D01*
X167990677Y-85325660D01*
X167988441Y-85329509D01*
X167988440Y-85329511D01*
X167960338Y-85377893D01*
X167860122Y-85550429D01*
X167858454Y-85554546D01*
X167858451Y-85554553D01*
X167837922Y-85605237D01*
X167762538Y-85791350D01*
X167699875Y-86043618D01*
X167673381Y-86302198D01*
X148590500Y-86302198D01*
X148590500Y-84131107D01*
X162830111Y-84131107D01*
X162830408Y-84136259D01*
X162830408Y-84136263D01*
X162836004Y-84233311D01*
X162843699Y-84366768D01*
X162844836Y-84371814D01*
X162844837Y-84371820D01*
X162865965Y-84465570D01*
X162895594Y-84597044D01*
X162897536Y-84601826D01*
X162897537Y-84601830D01*
X162982459Y-84810966D01*
X162984403Y-84815753D01*
X162987102Y-84820157D01*
X163086791Y-84982835D01*
X163107739Y-85017020D01*
X163262292Y-85195441D01*
X163443910Y-85346223D01*
X163448362Y-85348825D01*
X163448367Y-85348828D01*
X163542035Y-85403563D01*
X163647716Y-85465318D01*
X163868237Y-85549526D01*
X163873303Y-85550557D01*
X163873304Y-85550557D01*
X163928697Y-85561827D01*
X164099550Y-85596587D01*
X164232461Y-85601461D01*
X164330279Y-85605048D01*
X164330283Y-85605048D01*
X164335443Y-85605237D01*
X164340563Y-85604581D01*
X164340565Y-85604581D01*
X164414436Y-85595118D01*
X164569581Y-85575243D01*
X164574529Y-85573758D01*
X164574536Y-85573757D01*
X164790734Y-85508894D01*
X164795677Y-85507411D01*
X164807913Y-85501417D01*
X165003020Y-85405835D01*
X165007658Y-85403563D01*
X165054158Y-85370395D01*
X165195619Y-85269492D01*
X165195624Y-85269488D01*
X165199831Y-85266487D01*
X165367036Y-85099865D01*
X165504782Y-84908171D01*
X165548282Y-84820157D01*
X165607076Y-84701196D01*
X165607077Y-84701194D01*
X165609370Y-84696554D01*
X165673695Y-84484833D01*
X165676488Y-84475640D01*
X165676488Y-84475639D01*
X165677990Y-84470696D01*
X165686662Y-84404825D01*
X176834576Y-84404825D01*
X176841644Y-84418271D01*
X177543188Y-85119815D01*
X177557132Y-85127429D01*
X177558965Y-85127298D01*
X177565580Y-85123047D01*
X178271077Y-84417550D01*
X178277507Y-84405775D01*
X178268211Y-84393760D01*
X178217006Y-84357906D01*
X178207511Y-84352423D01*
X178010053Y-84260347D01*
X177999761Y-84256601D01*
X177789312Y-84200212D01*
X177778519Y-84198309D01*
X177561475Y-84179320D01*
X177550525Y-84179320D01*
X177333481Y-84198309D01*
X177322688Y-84200212D01*
X177112239Y-84256601D01*
X177101947Y-84260347D01*
X176904489Y-84352423D01*
X176894994Y-84357906D01*
X176842952Y-84394346D01*
X176834576Y-84404825D01*
X165686662Y-84404825D01*
X165688119Y-84393760D01*
X165708364Y-84239986D01*
X165708365Y-84239979D01*
X165708801Y-84236664D01*
X165710521Y-84166300D01*
X165702884Y-84073413D01*
X165691603Y-83936193D01*
X165691602Y-83936187D01*
X165691179Y-83931042D01*
X165633674Y-83702102D01*
X165539548Y-83485628D01*
X165411331Y-83287435D01*
X165382798Y-83256077D01*
X165255943Y-83116666D01*
X165255941Y-83116665D01*
X165252465Y-83112844D01*
X165248414Y-83109645D01*
X165248410Y-83109641D01*
X165071275Y-82969749D01*
X165067217Y-82966544D01*
X164860562Y-82852464D01*
X164740274Y-82809867D01*
X164642925Y-82775394D01*
X164642921Y-82775393D01*
X164638050Y-82773668D01*
X164632960Y-82772761D01*
X164632955Y-82772760D01*
X164410745Y-82733179D01*
X164410739Y-82733178D01*
X164405656Y-82732273D01*
X164314724Y-82731162D01*
X164174791Y-82729452D01*
X164174789Y-82729452D01*
X164169622Y-82729389D01*
X163936287Y-82765094D01*
X163711916Y-82838430D01*
X163502535Y-82947426D01*
X163313768Y-83089157D01*
X163150684Y-83259814D01*
X163147770Y-83264086D01*
X163147769Y-83264087D01*
X163020582Y-83450536D01*
X163020579Y-83450541D01*
X163017663Y-83454816D01*
X162918277Y-83668926D01*
X162855195Y-83896392D01*
X162830111Y-84131107D01*
X148590500Y-84131107D01*
X148590500Y-77545740D01*
X157418719Y-77545740D01*
X157428924Y-77805474D01*
X157475624Y-78061178D01*
X157557887Y-78307752D01*
X157609566Y-78411178D01*
X157664899Y-78521915D01*
X157674072Y-78540274D01*
X157821861Y-78754107D01*
X157998304Y-78944982D01*
X158001758Y-78947794D01*
X158196425Y-79106278D01*
X158196429Y-79106281D01*
X158199882Y-79109092D01*
X158203704Y-79111393D01*
X158404994Y-79232579D01*
X158422572Y-79243162D01*
X158515364Y-79282455D01*
X158657828Y-79342781D01*
X158657833Y-79342783D01*
X158661931Y-79344518D01*
X158666228Y-79345657D01*
X158666233Y-79345659D01*
X158787557Y-79377827D01*
X158913183Y-79411136D01*
X159171315Y-79441688D01*
X159431177Y-79435564D01*
X159448720Y-79432644D01*
X161120010Y-79432644D01*
X161133598Y-79668305D01*
X161134735Y-79673351D01*
X161134736Y-79673357D01*
X161155864Y-79767107D01*
X161185493Y-79898581D01*
X161187435Y-79903363D01*
X161187436Y-79903367D01*
X161225900Y-79998091D01*
X161274302Y-80117290D01*
X161397638Y-80318557D01*
X161552191Y-80496978D01*
X161733809Y-80647760D01*
X161738261Y-80650362D01*
X161738266Y-80650365D01*
X161831934Y-80705100D01*
X161937615Y-80766855D01*
X162158136Y-80851063D01*
X162163202Y-80852094D01*
X162163203Y-80852094D01*
X162218596Y-80863364D01*
X162389449Y-80898124D01*
X162522360Y-80902998D01*
X162620178Y-80906585D01*
X162620182Y-80906585D01*
X162625342Y-80906774D01*
X162630462Y-80906118D01*
X162630464Y-80906118D01*
X162704335Y-80896655D01*
X162859480Y-80876780D01*
X162864428Y-80875295D01*
X162864435Y-80875294D01*
X163080633Y-80810431D01*
X163085576Y-80808948D01*
X163297557Y-80705100D01*
X163341989Y-80673407D01*
X163485518Y-80571029D01*
X163485523Y-80571025D01*
X163489730Y-80568024D01*
X163656935Y-80401402D01*
X163794681Y-80209708D01*
X163838181Y-80121694D01*
X163896975Y-80002733D01*
X163896976Y-80002731D01*
X163899269Y-79998091D01*
X163967889Y-79772233D01*
X163968564Y-79767107D01*
X163998263Y-79541523D01*
X163998264Y-79541516D01*
X163998700Y-79538201D01*
X164000420Y-79467837D01*
X163982091Y-79244900D01*
X163981502Y-79237730D01*
X163981501Y-79237724D01*
X163981078Y-79232579D01*
X163923573Y-79003639D01*
X163829447Y-78787165D01*
X163701230Y-78588972D01*
X163672697Y-78557614D01*
X163545842Y-78418203D01*
X163545840Y-78418202D01*
X163542364Y-78414381D01*
X163538313Y-78411182D01*
X163538309Y-78411178D01*
X163361174Y-78271286D01*
X163357116Y-78268081D01*
X163150461Y-78154001D01*
X163030173Y-78111404D01*
X162932824Y-78076931D01*
X162932820Y-78076930D01*
X162927949Y-78075205D01*
X162922859Y-78074298D01*
X162922854Y-78074297D01*
X162700644Y-78034716D01*
X162700638Y-78034715D01*
X162695555Y-78033810D01*
X162604623Y-78032699D01*
X162464690Y-78030989D01*
X162464688Y-78030989D01*
X162459521Y-78030926D01*
X162226186Y-78066631D01*
X162001815Y-78139967D01*
X161792434Y-78248963D01*
X161603667Y-78390694D01*
X161598024Y-78396599D01*
X161477870Y-78522333D01*
X161440583Y-78561351D01*
X161437669Y-78565623D01*
X161437668Y-78565624D01*
X161310481Y-78752073D01*
X161310478Y-78752078D01*
X161307562Y-78756353D01*
X161305383Y-78761048D01*
X161218699Y-78947794D01*
X161208176Y-78970463D01*
X161145094Y-79197929D01*
X161120010Y-79432644D01*
X159448720Y-79432644D01*
X159479559Y-79427511D01*
X159683194Y-79393617D01*
X159683198Y-79393616D01*
X159687584Y-79392886D01*
X159691825Y-79391545D01*
X159691828Y-79391544D01*
X159931173Y-79315849D01*
X159931175Y-79315848D01*
X159935419Y-79314506D01*
X159939430Y-79312580D01*
X159939435Y-79312578D01*
X160165719Y-79203918D01*
X160165720Y-79203917D01*
X160169738Y-79201988D01*
X160175813Y-79197929D01*
X160382163Y-79060051D01*
X160382167Y-79060048D01*
X160385865Y-79057577D01*
X160477552Y-78975455D01*
X160576165Y-78887130D01*
X160576170Y-78887125D01*
X160579488Y-78884153D01*
X160746744Y-78685178D01*
X160884296Y-78464621D01*
X160901190Y-78426409D01*
X160987600Y-78230951D01*
X160989398Y-78226884D01*
X161059955Y-77976709D01*
X161082955Y-77805474D01*
X161094131Y-77722270D01*
X161094132Y-77722262D01*
X161094558Y-77719088D01*
X161098189Y-77603542D01*
X161094097Y-77545740D01*
X161080146Y-77348706D01*
X161079831Y-77344257D01*
X161025122Y-77090146D01*
X160994955Y-77008373D01*
X160936695Y-76850455D01*
X160935154Y-76846278D01*
X160911813Y-76803020D01*
X160813836Y-76621435D01*
X160813836Y-76621434D01*
X160811723Y-76617519D01*
X160657291Y-76408435D01*
X160621763Y-76372344D01*
X160478070Y-76226377D01*
X160474939Y-76223196D01*
X160471399Y-76220495D01*
X160471393Y-76220489D01*
X160271847Y-76068200D01*
X160271843Y-76068197D01*
X160268306Y-76065498D01*
X160113581Y-75978848D01*
X160045404Y-75940667D01*
X160045398Y-75940664D01*
X160041514Y-75938489D01*
X160037356Y-75936881D01*
X160037351Y-75936878D01*
X159803245Y-75846309D01*
X159803239Y-75846307D01*
X159799090Y-75844702D01*
X159794758Y-75843698D01*
X159794755Y-75843697D01*
X159690623Y-75819561D01*
X159545869Y-75786009D01*
X159286904Y-75763580D01*
X159282469Y-75763824D01*
X159282465Y-75763824D01*
X159177358Y-75769609D01*
X159027363Y-75777863D01*
X159023000Y-75778731D01*
X159022999Y-75778731D01*
X158776792Y-75827705D01*
X158776790Y-75827706D01*
X158772424Y-75828574D01*
X158527173Y-75914700D01*
X158296504Y-76034523D01*
X158292889Y-76037106D01*
X158292883Y-76037110D01*
X158088640Y-76183064D01*
X158088636Y-76183067D01*
X158085019Y-76185652D01*
X157896939Y-76365072D01*
X157736015Y-76569202D01*
X157733779Y-76573051D01*
X157733778Y-76573053D01*
X157671037Y-76681071D01*
X157605460Y-76793971D01*
X157603792Y-76798088D01*
X157603789Y-76798095D01*
X157515921Y-77015029D01*
X157507876Y-77034892D01*
X157445213Y-77287160D01*
X157418719Y-77545740D01*
X148590500Y-77545740D01*
X148590500Y-75876644D01*
X149262010Y-75876644D01*
X149262307Y-75881796D01*
X149262307Y-75881800D01*
X149267903Y-75978848D01*
X149275598Y-76112305D01*
X149276735Y-76117351D01*
X149276736Y-76117357D01*
X149297864Y-76211107D01*
X149327493Y-76342581D01*
X149329435Y-76347363D01*
X149329436Y-76347367D01*
X149367900Y-76442091D01*
X149416302Y-76561290D01*
X149539638Y-76762557D01*
X149694191Y-76940978D01*
X149875809Y-77091760D01*
X149880261Y-77094362D01*
X149880266Y-77094365D01*
X149973934Y-77149100D01*
X150079615Y-77210855D01*
X150300136Y-77295063D01*
X150305202Y-77296094D01*
X150305203Y-77296094D01*
X150340873Y-77303351D01*
X150531449Y-77342124D01*
X150664360Y-77346998D01*
X150762178Y-77350585D01*
X150762182Y-77350585D01*
X150767342Y-77350774D01*
X150772462Y-77350118D01*
X150772464Y-77350118D01*
X150846335Y-77340655D01*
X151001480Y-77320780D01*
X151006428Y-77319295D01*
X151006435Y-77319294D01*
X151222633Y-77254431D01*
X151227576Y-77252948D01*
X151439557Y-77149100D01*
X151516106Y-77094498D01*
X151627518Y-77015029D01*
X151627523Y-77015025D01*
X151631730Y-77012024D01*
X151798935Y-76845402D01*
X151936681Y-76653708D01*
X151952632Y-76621435D01*
X152038975Y-76446733D01*
X152038976Y-76446731D01*
X152041269Y-76442091D01*
X152109889Y-76216233D01*
X152122562Y-76119971D01*
X152140263Y-75985523D01*
X152140264Y-75985516D01*
X152140700Y-75982201D01*
X152142049Y-75927028D01*
X152142338Y-75915201D01*
X152142338Y-75915197D01*
X152142420Y-75911837D01*
X152139527Y-75876644D01*
X154262010Y-75876644D01*
X154262307Y-75881796D01*
X154262307Y-75881800D01*
X154267903Y-75978848D01*
X154275598Y-76112305D01*
X154276735Y-76117351D01*
X154276736Y-76117357D01*
X154297864Y-76211107D01*
X154327493Y-76342581D01*
X154329435Y-76347363D01*
X154329436Y-76347367D01*
X154367900Y-76442091D01*
X154416302Y-76561290D01*
X154539638Y-76762557D01*
X154694191Y-76940978D01*
X154875809Y-77091760D01*
X154880261Y-77094362D01*
X154880266Y-77094365D01*
X154973934Y-77149100D01*
X155079615Y-77210855D01*
X155300136Y-77295063D01*
X155305202Y-77296094D01*
X155305203Y-77296094D01*
X155340873Y-77303351D01*
X155531449Y-77342124D01*
X155664360Y-77346998D01*
X155762178Y-77350585D01*
X155762182Y-77350585D01*
X155767342Y-77350774D01*
X155772462Y-77350118D01*
X155772464Y-77350118D01*
X155846335Y-77340655D01*
X156001480Y-77320780D01*
X156006428Y-77319295D01*
X156006435Y-77319294D01*
X156222633Y-77254431D01*
X156227576Y-77252948D01*
X156439557Y-77149100D01*
X156516106Y-77094498D01*
X156627518Y-77015029D01*
X156627523Y-77015025D01*
X156631730Y-77012024D01*
X156798935Y-76845402D01*
X156936681Y-76653708D01*
X156952632Y-76621435D01*
X157038975Y-76446733D01*
X157038976Y-76446731D01*
X157041269Y-76442091D01*
X157109889Y-76216233D01*
X157122562Y-76119971D01*
X157140263Y-75985523D01*
X157140264Y-75985516D01*
X157140700Y-75982201D01*
X157142049Y-75927028D01*
X157142338Y-75915201D01*
X157142338Y-75915197D01*
X157142420Y-75911837D01*
X157131385Y-75777619D01*
X157123502Y-75681730D01*
X157123501Y-75681724D01*
X157123078Y-75676579D01*
X157065573Y-75447639D01*
X156971447Y-75231165D01*
X156896473Y-75115273D01*
X156846040Y-75037315D01*
X156846038Y-75037312D01*
X156843230Y-75032972D01*
X156814697Y-75001614D01*
X156687842Y-74862203D01*
X156687840Y-74862202D01*
X156684364Y-74858381D01*
X156680313Y-74855182D01*
X156680309Y-74855178D01*
X156503174Y-74715286D01*
X156499116Y-74712081D01*
X156292461Y-74598001D01*
X156172173Y-74555404D01*
X156074824Y-74520931D01*
X156074820Y-74520930D01*
X156069949Y-74519205D01*
X156064859Y-74518298D01*
X156064854Y-74518297D01*
X155842644Y-74478716D01*
X155842638Y-74478715D01*
X155837555Y-74477810D01*
X155746623Y-74476699D01*
X155606690Y-74474989D01*
X155606688Y-74474989D01*
X155601521Y-74474926D01*
X155368186Y-74510631D01*
X155143815Y-74583967D01*
X154934434Y-74692963D01*
X154930295Y-74696070D01*
X154930296Y-74696070D01*
X154804163Y-74790774D01*
X154745667Y-74834694D01*
X154721980Y-74859481D01*
X154590087Y-74997499D01*
X154582583Y-75005351D01*
X154579669Y-75009623D01*
X154579668Y-75009624D01*
X154452481Y-75196073D01*
X154452478Y-75196078D01*
X154449562Y-75200353D01*
X154350176Y-75414463D01*
X154287094Y-75641929D01*
X154262010Y-75876644D01*
X152139527Y-75876644D01*
X152131385Y-75777619D01*
X152123502Y-75681730D01*
X152123501Y-75681724D01*
X152123078Y-75676579D01*
X152065573Y-75447639D01*
X151971447Y-75231165D01*
X151896473Y-75115273D01*
X151846040Y-75037315D01*
X151846038Y-75037312D01*
X151843230Y-75032972D01*
X151814697Y-75001614D01*
X151687842Y-74862203D01*
X151687840Y-74862202D01*
X151684364Y-74858381D01*
X151680313Y-74855182D01*
X151680309Y-74855178D01*
X151503174Y-74715286D01*
X151499116Y-74712081D01*
X151460158Y-74690575D01*
X151382540Y-74647727D01*
X151332570Y-74597294D01*
X151317798Y-74527852D01*
X151342915Y-74461446D01*
X151397294Y-74420233D01*
X151401576Y-74418948D01*
X151613557Y-74315100D01*
X151661076Y-74281205D01*
X151801518Y-74181029D01*
X151801523Y-74181025D01*
X151805730Y-74178024D01*
X151972935Y-74011402D01*
X152110681Y-73819708D01*
X152125483Y-73789760D01*
X152212975Y-73612733D01*
X152212976Y-73612731D01*
X152215269Y-73608091D01*
X152283889Y-73382233D01*
X152284226Y-73379677D01*
X152317810Y-73317983D01*
X152380078Y-73283878D01*
X152450900Y-73288852D01*
X152507791Y-73331325D01*
X152514453Y-73341130D01*
X152584937Y-73456151D01*
X152584941Y-73456156D01*
X152587638Y-73460557D01*
X152742191Y-73638978D01*
X152923809Y-73789760D01*
X152928261Y-73792362D01*
X152928266Y-73792365D01*
X153021934Y-73847100D01*
X153127615Y-73908855D01*
X153348136Y-73993063D01*
X153353202Y-73994094D01*
X153353203Y-73994094D01*
X153365044Y-73996503D01*
X153579449Y-74040124D01*
X153712360Y-74044998D01*
X153810178Y-74048585D01*
X153810182Y-74048585D01*
X153815342Y-74048774D01*
X153820462Y-74048118D01*
X153820464Y-74048118D01*
X153894335Y-74038655D01*
X154049480Y-74018780D01*
X154054428Y-74017295D01*
X154054435Y-74017294D01*
X154270633Y-73952431D01*
X154275576Y-73950948D01*
X154330266Y-73924156D01*
X154482919Y-73849372D01*
X154487557Y-73847100D01*
X154532463Y-73815069D01*
X154675518Y-73713029D01*
X154675523Y-73713025D01*
X154679730Y-73710024D01*
X154846935Y-73543402D01*
X154984681Y-73351708D01*
X155011133Y-73298188D01*
X155086975Y-73144733D01*
X155086976Y-73144731D01*
X155089269Y-73140091D01*
X155157889Y-72914233D01*
X155161390Y-72887639D01*
X155188263Y-72683523D01*
X155188264Y-72683516D01*
X155188700Y-72680201D01*
X155190420Y-72609837D01*
X155187527Y-72574644D01*
X157310010Y-72574644D01*
X157310307Y-72579796D01*
X157310307Y-72579800D01*
X157317711Y-72708205D01*
X157323598Y-72810305D01*
X157324735Y-72815351D01*
X157324736Y-72815357D01*
X157345864Y-72909107D01*
X157375493Y-73040581D01*
X157377435Y-73045363D01*
X157377436Y-73045367D01*
X157456850Y-73240938D01*
X157464302Y-73259290D01*
X157587638Y-73460557D01*
X157742191Y-73638978D01*
X157923809Y-73789760D01*
X157928261Y-73792362D01*
X157928266Y-73792365D01*
X158021934Y-73847100D01*
X158127615Y-73908855D01*
X158348136Y-73993063D01*
X158353202Y-73994094D01*
X158353203Y-73994094D01*
X158365044Y-73996503D01*
X158579449Y-74040124D01*
X158712360Y-74044998D01*
X158810178Y-74048585D01*
X158810182Y-74048585D01*
X158815342Y-74048774D01*
X158820462Y-74048118D01*
X158820464Y-74048118D01*
X158894335Y-74038655D01*
X159049480Y-74018780D01*
X159054428Y-74017295D01*
X159054435Y-74017294D01*
X159270633Y-73952431D01*
X159275576Y-73950948D01*
X159330266Y-73924156D01*
X159482919Y-73849372D01*
X159487557Y-73847100D01*
X159532463Y-73815069D01*
X159675518Y-73713029D01*
X159675523Y-73713025D01*
X159679730Y-73710024D01*
X159846935Y-73543402D01*
X159984681Y-73351708D01*
X160011133Y-73298188D01*
X160086975Y-73144733D01*
X160086976Y-73144731D01*
X160089269Y-73140091D01*
X160157889Y-72914233D01*
X160161390Y-72887639D01*
X160188263Y-72683523D01*
X160188264Y-72683516D01*
X160188700Y-72680201D01*
X160190420Y-72609837D01*
X160179296Y-72474535D01*
X160171502Y-72379730D01*
X160171501Y-72379724D01*
X160171078Y-72374579D01*
X160113573Y-72145639D01*
X160032114Y-71958297D01*
X160021512Y-71933914D01*
X160021512Y-71933913D01*
X160019447Y-71929165D01*
X159928980Y-71789324D01*
X171427509Y-71789324D01*
X171429780Y-71847126D01*
X171437280Y-72038001D01*
X171437714Y-72049058D01*
X171484414Y-72304762D01*
X171485823Y-72308985D01*
X171548908Y-72498074D01*
X171566677Y-72551336D01*
X171597589Y-72613201D01*
X171643029Y-72704139D01*
X171682862Y-72783858D01*
X171830651Y-72997691D01*
X171833673Y-73000960D01*
X171957708Y-73135140D01*
X172007094Y-73188566D01*
X172010548Y-73191378D01*
X172205215Y-73349862D01*
X172205219Y-73349865D01*
X172208672Y-73352676D01*
X172212494Y-73354977D01*
X172380544Y-73456151D01*
X172431362Y-73486746D01*
X172460093Y-73498912D01*
X172666618Y-73586365D01*
X172666623Y-73586367D01*
X172670721Y-73588102D01*
X172675018Y-73589241D01*
X172675023Y-73589243D01*
X172795423Y-73621166D01*
X172921973Y-73654720D01*
X173180105Y-73685272D01*
X173439967Y-73679148D01*
X173444365Y-73678416D01*
X173691984Y-73637201D01*
X173691988Y-73637200D01*
X173696374Y-73636470D01*
X173700615Y-73635129D01*
X173700618Y-73635128D01*
X173939963Y-73559433D01*
X173939965Y-73559432D01*
X173944209Y-73558090D01*
X173948220Y-73556164D01*
X173948225Y-73556162D01*
X174174509Y-73447502D01*
X174174510Y-73447501D01*
X174178528Y-73445572D01*
X174182234Y-73443096D01*
X174371484Y-73316644D01*
X176036010Y-73316644D01*
X176036307Y-73321796D01*
X176036307Y-73321800D01*
X176039792Y-73382233D01*
X176049598Y-73552305D01*
X176050735Y-73557351D01*
X176050736Y-73557357D01*
X176069875Y-73642280D01*
X176101493Y-73782581D01*
X176103435Y-73787363D01*
X176103436Y-73787367D01*
X176141900Y-73882091D01*
X176190302Y-74001290D01*
X176313638Y-74202557D01*
X176468191Y-74380978D01*
X176649809Y-74531760D01*
X176654261Y-74534362D01*
X176654266Y-74534365D01*
X176848262Y-74647727D01*
X176853615Y-74650855D01*
X177074136Y-74735063D01*
X177079202Y-74736094D01*
X177079203Y-74736094D01*
X177134596Y-74747364D01*
X177305449Y-74782124D01*
X177438360Y-74786998D01*
X177536178Y-74790585D01*
X177536182Y-74790585D01*
X177541342Y-74790774D01*
X177546462Y-74790118D01*
X177546464Y-74790118D01*
X177620335Y-74780655D01*
X177775480Y-74760780D01*
X177780428Y-74759295D01*
X177780435Y-74759294D01*
X177996633Y-74694431D01*
X178001576Y-74692948D01*
X178213557Y-74589100D01*
X178257989Y-74557407D01*
X178401518Y-74455029D01*
X178401523Y-74455025D01*
X178405730Y-74452024D01*
X178572935Y-74285402D01*
X178710681Y-74093708D01*
X178732983Y-74048585D01*
X178812975Y-73886733D01*
X178812976Y-73886731D01*
X178815269Y-73882091D01*
X178883889Y-73656233D01*
X178887672Y-73627499D01*
X178914263Y-73425523D01*
X178914264Y-73425516D01*
X178914700Y-73422201D01*
X178916420Y-73351837D01*
X178903228Y-73191378D01*
X178897502Y-73121730D01*
X178897501Y-73121724D01*
X178897078Y-73116579D01*
X178839573Y-72887639D01*
X178745447Y-72671165D01*
X178665190Y-72547107D01*
X178620040Y-72477315D01*
X178620038Y-72477312D01*
X178617230Y-72472972D01*
X178611055Y-72466185D01*
X178461842Y-72302203D01*
X178461840Y-72302202D01*
X178458364Y-72298381D01*
X178454313Y-72295182D01*
X178454309Y-72295178D01*
X178286996Y-72163043D01*
X178273116Y-72152081D01*
X178066461Y-72038001D01*
X177923453Y-71987359D01*
X177848824Y-71960931D01*
X177848820Y-71960930D01*
X177843949Y-71959205D01*
X177838859Y-71958298D01*
X177838854Y-71958297D01*
X177616644Y-71918716D01*
X177616638Y-71918715D01*
X177611555Y-71917810D01*
X177520623Y-71916699D01*
X177380690Y-71914989D01*
X177380688Y-71914989D01*
X177375521Y-71914926D01*
X177142186Y-71950631D01*
X176917815Y-72023967D01*
X176794300Y-72088264D01*
X176756834Y-72107768D01*
X176708434Y-72132963D01*
X176704295Y-72136070D01*
X176704296Y-72136070D01*
X176555870Y-72247512D01*
X176519667Y-72274694D01*
X176516095Y-72278432D01*
X176383404Y-72417285D01*
X176356583Y-72445351D01*
X176353669Y-72449623D01*
X176353668Y-72449624D01*
X176226481Y-72636073D01*
X176226478Y-72636078D01*
X176223562Y-72640353D01*
X176183524Y-72726608D01*
X176156950Y-72783858D01*
X176124176Y-72854463D01*
X176061094Y-73081929D01*
X176036010Y-73316644D01*
X174371484Y-73316644D01*
X174390953Y-73303635D01*
X174390957Y-73303632D01*
X174394655Y-73301161D01*
X174517225Y-73191378D01*
X174584955Y-73130714D01*
X174584960Y-73130709D01*
X174588278Y-73127737D01*
X174593328Y-73121730D01*
X174752669Y-72932170D01*
X174755534Y-72928762D01*
X174893086Y-72708205D01*
X174905467Y-72680201D01*
X174996390Y-72474535D01*
X174998188Y-72470468D01*
X175068745Y-72220293D01*
X175091745Y-72049058D01*
X175102921Y-71965854D01*
X175102922Y-71965846D01*
X175103348Y-71962672D01*
X175103457Y-71959205D01*
X175106878Y-71850348D01*
X175106878Y-71850343D01*
X175106979Y-71847126D01*
X175102887Y-71789324D01*
X175088936Y-71592290D01*
X175088621Y-71587841D01*
X175033912Y-71333730D01*
X175020917Y-71298504D01*
X174945485Y-71094039D01*
X174943944Y-71089862D01*
X174906525Y-71020512D01*
X174822626Y-70865019D01*
X174822626Y-70865018D01*
X174820513Y-70861103D01*
X174666081Y-70652019D01*
X174660824Y-70646678D01*
X174556059Y-70540255D01*
X174483729Y-70466780D01*
X174480189Y-70464079D01*
X174480183Y-70464073D01*
X174280637Y-70311784D01*
X174280633Y-70311781D01*
X174277096Y-70309082D01*
X174179693Y-70254534D01*
X174054194Y-70184251D01*
X174054188Y-70184248D01*
X174050304Y-70182073D01*
X174046146Y-70180465D01*
X174046141Y-70180462D01*
X173812035Y-70089893D01*
X173812029Y-70089891D01*
X173807880Y-70088286D01*
X173803548Y-70087282D01*
X173803545Y-70087281D01*
X173699413Y-70063145D01*
X173554659Y-70029593D01*
X173295694Y-70007164D01*
X173291259Y-70007408D01*
X173291255Y-70007408D01*
X173186148Y-70013193D01*
X173036153Y-70021447D01*
X173031790Y-70022315D01*
X173031789Y-70022315D01*
X172785582Y-70071289D01*
X172785580Y-70071290D01*
X172781214Y-70072158D01*
X172535963Y-70158284D01*
X172305294Y-70278107D01*
X172301679Y-70280690D01*
X172301673Y-70280694D01*
X172097430Y-70426648D01*
X172097426Y-70426651D01*
X172093809Y-70429236D01*
X171905729Y-70608656D01*
X171902973Y-70612152D01*
X171902972Y-70612153D01*
X171787907Y-70758112D01*
X171744805Y-70812786D01*
X171742569Y-70816635D01*
X171742568Y-70816637D01*
X171716731Y-70861120D01*
X171614250Y-71037555D01*
X171612582Y-71041672D01*
X171612579Y-71041679D01*
X171540784Y-71218931D01*
X171516666Y-71278476D01*
X171454003Y-71530744D01*
X171427509Y-71789324D01*
X159928980Y-71789324D01*
X159914217Y-71766504D01*
X159894040Y-71735315D01*
X159894038Y-71735312D01*
X159891230Y-71730972D01*
X159862697Y-71699614D01*
X159735842Y-71560203D01*
X159735840Y-71560202D01*
X159732364Y-71556381D01*
X159728313Y-71553182D01*
X159728309Y-71553178D01*
X159551174Y-71413286D01*
X159547116Y-71410081D01*
X159340461Y-71296001D01*
X159141529Y-71225555D01*
X159122824Y-71218931D01*
X159122820Y-71218930D01*
X159117949Y-71217205D01*
X159112859Y-71216298D01*
X159112854Y-71216297D01*
X158890644Y-71176716D01*
X158890638Y-71176715D01*
X158885555Y-71175810D01*
X158794623Y-71174699D01*
X158654690Y-71172989D01*
X158654688Y-71172989D01*
X158649521Y-71172926D01*
X158416186Y-71208631D01*
X158191815Y-71281967D01*
X157982434Y-71390963D01*
X157978295Y-71394070D01*
X157978296Y-71394070D01*
X157872514Y-71473494D01*
X157793667Y-71532694D01*
X157790095Y-71536432D01*
X157654582Y-71678238D01*
X157630583Y-71703351D01*
X157627669Y-71707623D01*
X157627668Y-71707624D01*
X157500481Y-71894073D01*
X157500478Y-71894078D01*
X157497562Y-71898353D01*
X157467706Y-71962672D01*
X157429673Y-72044609D01*
X157398176Y-72112463D01*
X157335094Y-72339929D01*
X157310010Y-72574644D01*
X155187527Y-72574644D01*
X155179296Y-72474535D01*
X155171502Y-72379730D01*
X155171501Y-72379724D01*
X155171078Y-72374579D01*
X155113573Y-72145639D01*
X155032114Y-71958297D01*
X155021512Y-71933914D01*
X155021512Y-71933913D01*
X155019447Y-71929165D01*
X154914217Y-71766504D01*
X154894040Y-71735315D01*
X154894038Y-71735312D01*
X154891230Y-71730972D01*
X154862697Y-71699614D01*
X154735842Y-71560203D01*
X154735840Y-71560202D01*
X154732364Y-71556381D01*
X154728313Y-71553182D01*
X154728309Y-71553178D01*
X154551174Y-71413286D01*
X154547116Y-71410081D01*
X154340461Y-71296001D01*
X154141529Y-71225555D01*
X154122824Y-71218931D01*
X154122820Y-71218930D01*
X154117949Y-71217205D01*
X154112859Y-71216298D01*
X154112854Y-71216297D01*
X153890644Y-71176716D01*
X153890638Y-71176715D01*
X153885555Y-71175810D01*
X153794623Y-71174699D01*
X153654690Y-71172989D01*
X153654688Y-71172989D01*
X153649521Y-71172926D01*
X153416186Y-71208631D01*
X153191815Y-71281967D01*
X152982434Y-71390963D01*
X152978295Y-71394070D01*
X152978296Y-71394070D01*
X152872514Y-71473494D01*
X152793667Y-71532694D01*
X152790095Y-71536432D01*
X152654582Y-71678238D01*
X152630583Y-71703351D01*
X152627669Y-71707623D01*
X152627668Y-71707624D01*
X152500481Y-71894073D01*
X152500478Y-71894078D01*
X152497562Y-71898353D01*
X152467706Y-71962672D01*
X152429673Y-72044609D01*
X152398176Y-72112463D01*
X152369495Y-72215884D01*
X152342003Y-72315015D01*
X152304524Y-72375313D01*
X152240395Y-72405776D01*
X152169977Y-72396732D01*
X152114794Y-72349783D01*
X152111743Y-72345066D01*
X152045798Y-72243131D01*
X152020040Y-72203315D01*
X152020038Y-72203312D01*
X152017230Y-72198972D01*
X151988697Y-72167614D01*
X151861842Y-72028203D01*
X151861840Y-72028202D01*
X151858364Y-72024381D01*
X151854313Y-72021182D01*
X151854309Y-72021178D01*
X151677174Y-71881286D01*
X151673116Y-71878081D01*
X151466461Y-71764001D01*
X151307258Y-71707624D01*
X151248824Y-71686931D01*
X151248820Y-71686930D01*
X151243949Y-71685205D01*
X151238859Y-71684298D01*
X151238854Y-71684297D01*
X151016644Y-71644716D01*
X151016638Y-71644715D01*
X151011555Y-71643810D01*
X150920623Y-71642699D01*
X150780690Y-71640989D01*
X150780688Y-71640989D01*
X150775521Y-71640926D01*
X150542186Y-71676631D01*
X150317815Y-71749967D01*
X150108434Y-71858963D01*
X150104295Y-71862070D01*
X150104296Y-71862070D01*
X150030058Y-71917810D01*
X149919667Y-72000694D01*
X149897427Y-72023967D01*
X149785686Y-72140897D01*
X149756583Y-72171351D01*
X149753669Y-72175623D01*
X149753668Y-72175624D01*
X149626481Y-72362073D01*
X149626478Y-72362078D01*
X149623562Y-72366353D01*
X149621383Y-72371048D01*
X149529260Y-72569511D01*
X149524176Y-72580463D01*
X149461094Y-72807929D01*
X149436010Y-73042644D01*
X149436307Y-73047796D01*
X149436307Y-73047800D01*
X149440916Y-73127737D01*
X149449598Y-73278305D01*
X149450735Y-73283351D01*
X149450736Y-73283357D01*
X149465724Y-73349862D01*
X149501493Y-73508581D01*
X149503435Y-73513363D01*
X149503436Y-73513367D01*
X149573240Y-73685272D01*
X149590302Y-73727290D01*
X149713638Y-73928557D01*
X149868191Y-74106978D01*
X150049809Y-74257760D01*
X150054261Y-74260362D01*
X150054266Y-74260365D01*
X150199461Y-74345210D01*
X150248184Y-74396849D01*
X150261255Y-74466632D01*
X150234523Y-74532404D01*
X150175034Y-74573763D01*
X150143815Y-74583967D01*
X149934434Y-74692963D01*
X149930295Y-74696070D01*
X149930296Y-74696070D01*
X149804163Y-74790774D01*
X149745667Y-74834694D01*
X149721980Y-74859481D01*
X149590087Y-74997499D01*
X149582583Y-75005351D01*
X149579669Y-75009623D01*
X149579668Y-75009624D01*
X149452481Y-75196073D01*
X149452478Y-75196078D01*
X149449562Y-75200353D01*
X149350176Y-75414463D01*
X149287094Y-75641929D01*
X149262010Y-75876644D01*
X148590500Y-75876644D01*
X148590500Y-69163899D01*
X150154493Y-69163899D01*
X150163789Y-69175914D01*
X150214994Y-69211768D01*
X150224489Y-69217251D01*
X150421947Y-69309327D01*
X150432239Y-69313073D01*
X150642688Y-69369462D01*
X150653481Y-69371365D01*
X150870525Y-69390354D01*
X150881475Y-69390354D01*
X151098519Y-69371365D01*
X151109312Y-69369462D01*
X151319761Y-69313073D01*
X151330053Y-69309327D01*
X151408720Y-69272644D01*
X152310010Y-69272644D01*
X152310307Y-69277796D01*
X152310307Y-69277800D01*
X152319538Y-69437899D01*
X152323598Y-69508305D01*
X152324735Y-69513351D01*
X152324736Y-69513357D01*
X152352820Y-69637974D01*
X152375493Y-69738581D01*
X152377435Y-69743363D01*
X152377436Y-69743367D01*
X152460674Y-69948356D01*
X152464302Y-69957290D01*
X152587638Y-70158557D01*
X152742191Y-70336978D01*
X152923809Y-70487760D01*
X152928261Y-70490362D01*
X152928266Y-70490365D01*
X153038710Y-70554903D01*
X153127615Y-70606855D01*
X153348136Y-70691063D01*
X153353202Y-70692094D01*
X153353203Y-70692094D01*
X153375808Y-70696693D01*
X153579449Y-70738124D01*
X153712360Y-70742998D01*
X153810178Y-70746585D01*
X153810182Y-70746585D01*
X153815342Y-70746774D01*
X153820462Y-70746118D01*
X153820464Y-70746118D01*
X153894335Y-70736655D01*
X154049480Y-70716780D01*
X154054428Y-70715295D01*
X154054435Y-70715294D01*
X154270633Y-70650431D01*
X154275576Y-70648948D01*
X154303403Y-70635316D01*
X154432543Y-70572051D01*
X154487557Y-70545100D01*
X154561102Y-70492641D01*
X154675518Y-70411029D01*
X154675523Y-70411025D01*
X154679730Y-70408024D01*
X154846935Y-70241402D01*
X154984681Y-70049708D01*
X154993910Y-70031036D01*
X155086975Y-69842733D01*
X155086976Y-69842731D01*
X155089269Y-69838091D01*
X155157889Y-69612233D01*
X155158564Y-69607107D01*
X155188263Y-69381523D01*
X155188264Y-69381516D01*
X155188700Y-69378201D01*
X155190420Y-69307837D01*
X155187527Y-69272644D01*
X157310010Y-69272644D01*
X157310307Y-69277796D01*
X157310307Y-69277800D01*
X157319538Y-69437899D01*
X157323598Y-69508305D01*
X157324735Y-69513351D01*
X157324736Y-69513357D01*
X157352820Y-69637974D01*
X157375493Y-69738581D01*
X157377435Y-69743363D01*
X157377436Y-69743367D01*
X157460674Y-69948356D01*
X157464302Y-69957290D01*
X157587638Y-70158557D01*
X157742191Y-70336978D01*
X157923809Y-70487760D01*
X157928261Y-70490362D01*
X157928266Y-70490365D01*
X158038710Y-70554903D01*
X158127615Y-70606855D01*
X158348136Y-70691063D01*
X158353202Y-70692094D01*
X158353203Y-70692094D01*
X158375808Y-70696693D01*
X158579449Y-70738124D01*
X158712360Y-70742998D01*
X158810178Y-70746585D01*
X158810182Y-70746585D01*
X158815342Y-70746774D01*
X158820462Y-70746118D01*
X158820464Y-70746118D01*
X158894335Y-70736655D01*
X159049480Y-70716780D01*
X159054428Y-70715295D01*
X159054435Y-70715294D01*
X159270633Y-70650431D01*
X159275576Y-70648948D01*
X159303403Y-70635316D01*
X159432543Y-70572051D01*
X159487557Y-70545100D01*
X159561102Y-70492641D01*
X159611761Y-70456506D01*
X160948001Y-70456506D01*
X160948371Y-70463327D01*
X160953895Y-70514189D01*
X160957521Y-70529441D01*
X161002676Y-70649891D01*
X161011214Y-70665486D01*
X161087715Y-70767561D01*
X161100276Y-70780122D01*
X161202351Y-70856623D01*
X161217946Y-70865161D01*
X161338394Y-70910315D01*
X161353649Y-70913942D01*
X161404514Y-70919468D01*
X161411328Y-70919837D01*
X162033885Y-70919837D01*
X162049124Y-70915362D01*
X162050329Y-70913972D01*
X162052000Y-70906289D01*
X162052000Y-70901721D01*
X162560000Y-70901721D01*
X162564475Y-70916960D01*
X162565865Y-70918165D01*
X162573548Y-70919836D01*
X163200669Y-70919836D01*
X163207490Y-70919466D01*
X163258352Y-70913942D01*
X163273604Y-70910316D01*
X163394054Y-70865161D01*
X163409649Y-70856623D01*
X163511724Y-70780122D01*
X163524285Y-70767561D01*
X163600786Y-70665486D01*
X163609325Y-70649889D01*
X163650425Y-70540255D01*
X163693066Y-70483490D01*
X163759628Y-70458790D01*
X163828977Y-70473997D01*
X163863645Y-70501987D01*
X163889219Y-70531511D01*
X163896580Y-70538720D01*
X164060434Y-70674753D01*
X164068881Y-70680668D01*
X164252756Y-70788116D01*
X164262042Y-70792566D01*
X164461001Y-70868540D01*
X164470899Y-70871416D01*
X164574250Y-70892443D01*
X164588299Y-70891247D01*
X164592000Y-70880902D01*
X164592000Y-70880354D01*
X165100000Y-70880354D01*
X165104064Y-70894196D01*
X165117478Y-70896230D01*
X165124184Y-70895371D01*
X165134262Y-70893229D01*
X165338255Y-70832028D01*
X165347842Y-70828270D01*
X165539095Y-70734576D01*
X165547945Y-70729301D01*
X165721328Y-70605629D01*
X165729200Y-70598976D01*
X165880052Y-70448649D01*
X165886723Y-70440809D01*
X165935590Y-70372804D01*
X165991585Y-70329156D01*
X166062288Y-70322710D01*
X166125253Y-70355513D01*
X166145345Y-70380495D01*
X166180449Y-70437778D01*
X166180452Y-70437783D01*
X166183152Y-70442188D01*
X166343088Y-70626824D01*
X166531032Y-70782858D01*
X166741937Y-70906100D01*
X166746762Y-70907942D01*
X166746763Y-70907943D01*
X166770376Y-70916960D01*
X166970138Y-70993242D01*
X166975204Y-70994273D01*
X166975205Y-70994273D01*
X167184180Y-71036789D01*
X167209508Y-71041942D01*
X167346546Y-71046967D01*
X167448454Y-71050705D01*
X167448459Y-71050705D01*
X167453618Y-71050894D01*
X167525551Y-71041679D01*
X167690783Y-71020512D01*
X167690784Y-71020512D01*
X167695911Y-71019855D01*
X167784617Y-70993242D01*
X167924929Y-70951146D01*
X167929882Y-70949660D01*
X167934521Y-70947387D01*
X167934527Y-70947385D01*
X168144608Y-70844467D01*
X168149246Y-70842195D01*
X168208021Y-70800271D01*
X168343901Y-70703349D01*
X168343906Y-70703345D01*
X168348113Y-70700344D01*
X168521142Y-70527919D01*
X168524158Y-70523721D01*
X168524162Y-70523717D01*
X168553307Y-70483157D01*
X168609301Y-70439508D01*
X168680005Y-70433062D01*
X168742969Y-70465864D01*
X168750868Y-70474185D01*
X168808100Y-70540255D01*
X168883088Y-70626824D01*
X169071032Y-70782858D01*
X169281937Y-70906100D01*
X169286762Y-70907942D01*
X169286763Y-70907943D01*
X169310376Y-70916960D01*
X169510138Y-70993242D01*
X169515204Y-70994273D01*
X169515205Y-70994273D01*
X169724180Y-71036789D01*
X169749508Y-71041942D01*
X169886546Y-71046967D01*
X169988454Y-71050705D01*
X169988459Y-71050705D01*
X169993618Y-71050894D01*
X170065551Y-71041679D01*
X170230783Y-71020512D01*
X170230784Y-71020512D01*
X170235911Y-71019855D01*
X170324617Y-70993242D01*
X170464929Y-70951146D01*
X170469882Y-70949660D01*
X170474521Y-70947387D01*
X170474527Y-70947385D01*
X170684608Y-70844467D01*
X170689246Y-70842195D01*
X170748021Y-70800271D01*
X170883901Y-70703349D01*
X170883906Y-70703345D01*
X170888113Y-70700344D01*
X171061142Y-70527919D01*
X171064162Y-70523717D01*
X171105733Y-70465864D01*
X171203686Y-70329548D01*
X171212466Y-70311784D01*
X171284783Y-70165460D01*
X171311916Y-70110560D01*
X171340529Y-70016383D01*
X171381423Y-69881788D01*
X171381424Y-69881782D01*
X171382927Y-69876836D01*
X171397086Y-69769287D01*
X171414374Y-69637974D01*
X171414375Y-69637968D01*
X171414811Y-69634652D01*
X171416591Y-69561837D01*
X171406402Y-69437899D01*
X176754493Y-69437899D01*
X176763789Y-69449914D01*
X176814994Y-69485768D01*
X176824489Y-69491251D01*
X177021947Y-69583327D01*
X177032239Y-69587073D01*
X177242688Y-69643462D01*
X177253481Y-69645365D01*
X177470525Y-69664354D01*
X177481475Y-69664354D01*
X177698519Y-69645365D01*
X177709312Y-69643462D01*
X177919761Y-69587073D01*
X177930053Y-69583327D01*
X178127511Y-69491251D01*
X178137006Y-69485768D01*
X178189048Y-69449328D01*
X178197424Y-69438849D01*
X178190356Y-69425403D01*
X177488812Y-68723859D01*
X177474868Y-68716245D01*
X177473035Y-68716376D01*
X177466420Y-68720627D01*
X176760923Y-69426124D01*
X176754493Y-69437899D01*
X171406402Y-69437899D01*
X171396576Y-69318385D01*
X171337067Y-69081471D01*
X171239663Y-68857457D01*
X171106980Y-68652360D01*
X171103120Y-68648117D01*
X170946059Y-68475510D01*
X170946053Y-68475504D01*
X170942581Y-68471688D01*
X170938530Y-68468489D01*
X170938526Y-68468485D01*
X170797755Y-68357312D01*
X176163483Y-68357312D01*
X176182472Y-68574356D01*
X176184375Y-68585149D01*
X176240764Y-68795598D01*
X176244510Y-68805890D01*
X176336586Y-69003348D01*
X176342069Y-69012843D01*
X176378509Y-69064885D01*
X176388988Y-69073261D01*
X176402434Y-69066193D01*
X177103978Y-68364649D01*
X177110356Y-68352969D01*
X177840408Y-68352969D01*
X177840539Y-68354802D01*
X177844790Y-68361417D01*
X178550287Y-69066914D01*
X178562062Y-69073344D01*
X178574077Y-69064048D01*
X178609931Y-69012843D01*
X178615414Y-69003348D01*
X178707490Y-68805890D01*
X178711236Y-68795598D01*
X178767625Y-68585149D01*
X178769528Y-68574356D01*
X178788517Y-68357312D01*
X178788517Y-68346362D01*
X178769528Y-68129318D01*
X178767625Y-68118525D01*
X178711236Y-67908076D01*
X178707490Y-67897784D01*
X178615414Y-67700326D01*
X178609931Y-67690831D01*
X178573491Y-67638789D01*
X178563012Y-67630413D01*
X178549566Y-67637481D01*
X177848022Y-68339025D01*
X177840408Y-68352969D01*
X177110356Y-68352969D01*
X177111592Y-68350705D01*
X177111461Y-68348872D01*
X177107210Y-68342257D01*
X176401713Y-67636760D01*
X176389938Y-67630330D01*
X176377923Y-67639626D01*
X176342069Y-67690831D01*
X176336586Y-67700326D01*
X176244510Y-67897784D01*
X176240764Y-67908076D01*
X176184375Y-68118525D01*
X176182472Y-68129318D01*
X176163483Y-68346362D01*
X176163483Y-68357312D01*
X170797755Y-68357312D01*
X170780332Y-68343552D01*
X170750880Y-68320292D01*
X170597275Y-68235497D01*
X170541559Y-68204740D01*
X170541557Y-68204739D01*
X170537028Y-68202239D01*
X170391757Y-68150796D01*
X170311637Y-68122424D01*
X170311634Y-68122423D01*
X170306765Y-68120699D01*
X170301676Y-68119792D01*
X170301674Y-68119792D01*
X170071365Y-68078767D01*
X170071361Y-68078767D01*
X170066277Y-68077861D01*
X169986610Y-68076888D01*
X169827192Y-68074940D01*
X169827190Y-68074940D01*
X169822022Y-68074877D01*
X169580559Y-68111826D01*
X169348373Y-68187716D01*
X169343785Y-68190104D01*
X169343781Y-68190106D01*
X169184910Y-68272809D01*
X169131699Y-68300509D01*
X169127566Y-68303612D01*
X169127563Y-68303614D01*
X168954819Y-68433315D01*
X168936358Y-68447176D01*
X168876403Y-68509915D01*
X168800851Y-68588976D01*
X168767593Y-68623778D01*
X168764682Y-68628045D01*
X168764679Y-68628049D01*
X168760400Y-68634322D01*
X168705489Y-68679324D01*
X168634964Y-68687495D01*
X168571217Y-68656241D01*
X168563131Y-68648130D01*
X168402581Y-68471688D01*
X168398530Y-68468489D01*
X168398526Y-68468485D01*
X168240332Y-68343552D01*
X168210880Y-68320292D01*
X168057275Y-68235497D01*
X168001559Y-68204740D01*
X168001557Y-68204739D01*
X167997028Y-68202239D01*
X167851757Y-68150796D01*
X167771637Y-68122424D01*
X167771634Y-68122423D01*
X167766765Y-68120699D01*
X167761676Y-68119792D01*
X167761674Y-68119792D01*
X167531365Y-68078767D01*
X167531361Y-68078767D01*
X167526277Y-68077861D01*
X167446610Y-68076888D01*
X167287192Y-68074940D01*
X167287190Y-68074940D01*
X167282022Y-68074877D01*
X167040559Y-68111826D01*
X166808373Y-68187716D01*
X166803785Y-68190104D01*
X166803781Y-68190106D01*
X166644910Y-68272809D01*
X166591699Y-68300509D01*
X166587566Y-68303612D01*
X166587563Y-68303614D01*
X166414819Y-68433315D01*
X166396358Y-68447176D01*
X166336403Y-68509915D01*
X166260851Y-68588976D01*
X166227593Y-68623778D01*
X166224681Y-68628047D01*
X166144065Y-68746226D01*
X166089153Y-68791229D01*
X166018628Y-68799400D01*
X165954881Y-68768146D01*
X165934185Y-68743664D01*
X165928425Y-68734761D01*
X165922136Y-68726594D01*
X165778806Y-68569077D01*
X165771273Y-68562052D01*
X165604139Y-68430059D01*
X165595552Y-68424354D01*
X165409117Y-68321436D01*
X165399705Y-68317206D01*
X165198959Y-68246117D01*
X165188988Y-68243483D01*
X165117837Y-68230809D01*
X165104540Y-68232269D01*
X165100000Y-68246826D01*
X165100000Y-70880354D01*
X164592000Y-70880354D01*
X164592000Y-69833952D01*
X164587525Y-69818713D01*
X164586135Y-69817508D01*
X164578452Y-69815837D01*
X162578115Y-69815837D01*
X162562876Y-69820312D01*
X162561671Y-69821702D01*
X162560000Y-69829385D01*
X162560000Y-70901721D01*
X162052000Y-70901721D01*
X162052000Y-69833952D01*
X162047525Y-69818713D01*
X162046135Y-69817508D01*
X162038452Y-69815837D01*
X160966116Y-69815837D01*
X160950877Y-69820312D01*
X160949672Y-69821702D01*
X160948001Y-69829385D01*
X160948001Y-70456506D01*
X159611761Y-70456506D01*
X159675518Y-70411029D01*
X159675523Y-70411025D01*
X159679730Y-70408024D01*
X159846935Y-70241402D01*
X159984681Y-70049708D01*
X159993910Y-70031036D01*
X160086975Y-69842733D01*
X160086976Y-69842731D01*
X160089269Y-69838091D01*
X160157889Y-69612233D01*
X160158564Y-69607107D01*
X160188263Y-69381523D01*
X160188264Y-69381516D01*
X160188700Y-69378201D01*
X160190420Y-69307837D01*
X160188931Y-69289722D01*
X160948000Y-69289722D01*
X160952475Y-69304961D01*
X160953865Y-69306166D01*
X160961548Y-69307837D01*
X162033885Y-69307837D01*
X162049124Y-69303362D01*
X162050329Y-69301972D01*
X162052000Y-69294289D01*
X162052000Y-69289722D01*
X162560000Y-69289722D01*
X162564475Y-69304961D01*
X162565865Y-69306166D01*
X162573548Y-69307837D01*
X164573885Y-69307837D01*
X164589124Y-69303362D01*
X164590329Y-69301972D01*
X164592000Y-69294289D01*
X164592000Y-68244939D01*
X164588082Y-68231595D01*
X164573806Y-68229608D01*
X164535324Y-68235497D01*
X164525288Y-68237888D01*
X164322868Y-68304049D01*
X164313359Y-68308046D01*
X164124463Y-68406379D01*
X164115738Y-68411873D01*
X163945433Y-68539742D01*
X163937726Y-68546585D01*
X163860094Y-68627822D01*
X163798570Y-68663252D01*
X163727657Y-68659795D01*
X163669871Y-68618549D01*
X163651018Y-68585001D01*
X163609324Y-68473783D01*
X163600786Y-68458188D01*
X163524285Y-68356113D01*
X163511724Y-68343552D01*
X163409649Y-68267051D01*
X163394054Y-68258513D01*
X163273606Y-68213359D01*
X163258351Y-68209732D01*
X163207486Y-68204206D01*
X163200672Y-68203837D01*
X162578115Y-68203837D01*
X162562876Y-68208312D01*
X162561671Y-68209702D01*
X162560000Y-68217385D01*
X162560000Y-69289722D01*
X162052000Y-69289722D01*
X162052000Y-68221953D01*
X162047525Y-68206714D01*
X162046135Y-68205509D01*
X162038452Y-68203838D01*
X161411331Y-68203838D01*
X161404510Y-68204208D01*
X161353648Y-68209732D01*
X161338396Y-68213358D01*
X161217946Y-68258513D01*
X161202351Y-68267051D01*
X161100276Y-68343552D01*
X161087715Y-68356113D01*
X161011214Y-68458188D01*
X161002676Y-68473783D01*
X160957522Y-68594231D01*
X160953895Y-68609486D01*
X160948369Y-68660351D01*
X160948000Y-68667165D01*
X160948000Y-69289722D01*
X160188931Y-69289722D01*
X160177124Y-69146112D01*
X160171502Y-69077730D01*
X160171501Y-69077724D01*
X160171078Y-69072579D01*
X160113573Y-68843639D01*
X160045679Y-68687495D01*
X160021512Y-68631914D01*
X160021512Y-68631913D01*
X160019447Y-68627165D01*
X159967317Y-68546585D01*
X159894040Y-68433315D01*
X159894038Y-68433312D01*
X159891230Y-68428972D01*
X159875630Y-68411827D01*
X159735842Y-68258203D01*
X159735840Y-68258202D01*
X159732364Y-68254381D01*
X159728313Y-68251182D01*
X159728309Y-68251178D01*
X159551174Y-68111286D01*
X159547116Y-68108081D01*
X159340461Y-67994001D01*
X159220173Y-67951404D01*
X159122824Y-67916931D01*
X159122820Y-67916930D01*
X159117949Y-67915205D01*
X159112859Y-67914298D01*
X159112854Y-67914297D01*
X158890644Y-67874716D01*
X158890638Y-67874715D01*
X158885555Y-67873810D01*
X158794623Y-67872699D01*
X158654690Y-67870989D01*
X158654688Y-67870989D01*
X158649521Y-67870926D01*
X158416186Y-67906631D01*
X158191815Y-67979967D01*
X158097894Y-68028859D01*
X157993290Y-68083312D01*
X157982434Y-68088963D01*
X157949843Y-68113433D01*
X157805309Y-68221953D01*
X157793667Y-68230694D01*
X157758923Y-68267051D01*
X157673814Y-68356113D01*
X157630583Y-68401351D01*
X157627669Y-68405623D01*
X157627668Y-68405624D01*
X157500481Y-68592073D01*
X157500478Y-68592078D01*
X157497562Y-68596353D01*
X157467855Y-68660351D01*
X157403376Y-68799261D01*
X157398176Y-68810463D01*
X157335094Y-69037929D01*
X157310010Y-69272644D01*
X155187527Y-69272644D01*
X155177124Y-69146112D01*
X155171502Y-69077730D01*
X155171501Y-69077724D01*
X155171078Y-69072579D01*
X155113573Y-68843639D01*
X155045679Y-68687495D01*
X155021512Y-68631914D01*
X155021512Y-68631913D01*
X155019447Y-68627165D01*
X154967317Y-68546585D01*
X154894040Y-68433315D01*
X154894038Y-68433312D01*
X154891230Y-68428972D01*
X154875630Y-68411827D01*
X154735842Y-68258203D01*
X154735840Y-68258202D01*
X154732364Y-68254381D01*
X154728313Y-68251182D01*
X154728309Y-68251178D01*
X154551174Y-68111286D01*
X154547116Y-68108081D01*
X154340461Y-67994001D01*
X154220173Y-67951404D01*
X154122824Y-67916931D01*
X154122820Y-67916930D01*
X154117949Y-67915205D01*
X154112859Y-67914298D01*
X154112854Y-67914297D01*
X153890644Y-67874716D01*
X153890638Y-67874715D01*
X153885555Y-67873810D01*
X153794623Y-67872699D01*
X153654690Y-67870989D01*
X153654688Y-67870989D01*
X153649521Y-67870926D01*
X153416186Y-67906631D01*
X153191815Y-67979967D01*
X153097894Y-68028859D01*
X152993290Y-68083312D01*
X152982434Y-68088963D01*
X152949843Y-68113433D01*
X152805309Y-68221953D01*
X152793667Y-68230694D01*
X152758923Y-68267051D01*
X152673814Y-68356113D01*
X152630583Y-68401351D01*
X152627669Y-68405623D01*
X152627668Y-68405624D01*
X152500481Y-68592073D01*
X152500478Y-68592078D01*
X152497562Y-68596353D01*
X152467855Y-68660351D01*
X152403376Y-68799261D01*
X152398176Y-68810463D01*
X152335094Y-69037929D01*
X152310010Y-69272644D01*
X151408720Y-69272644D01*
X151527511Y-69217251D01*
X151537006Y-69211768D01*
X151589048Y-69175328D01*
X151597424Y-69164849D01*
X151590356Y-69151403D01*
X150888812Y-68449859D01*
X150874868Y-68442245D01*
X150873035Y-68442376D01*
X150866420Y-68446627D01*
X150160923Y-69152124D01*
X150154493Y-69163899D01*
X148590500Y-69163899D01*
X148590500Y-68083312D01*
X149563483Y-68083312D01*
X149582472Y-68300356D01*
X149584375Y-68311149D01*
X149640764Y-68521598D01*
X149644510Y-68531890D01*
X149736586Y-68729348D01*
X149742069Y-68738843D01*
X149778509Y-68790885D01*
X149788988Y-68799261D01*
X149802434Y-68792193D01*
X150503978Y-68090649D01*
X150510356Y-68078969D01*
X151240408Y-68078969D01*
X151240539Y-68080802D01*
X151244790Y-68087417D01*
X151950287Y-68792914D01*
X151962062Y-68799344D01*
X151974077Y-68790048D01*
X152009931Y-68738843D01*
X152015414Y-68729348D01*
X152107490Y-68531890D01*
X152111236Y-68521598D01*
X152167625Y-68311149D01*
X152169528Y-68300356D01*
X152188517Y-68083312D01*
X152188517Y-68072362D01*
X152169528Y-67855318D01*
X152167625Y-67844525D01*
X152111236Y-67634076D01*
X152107490Y-67623784D01*
X152015414Y-67426326D01*
X152009931Y-67416831D01*
X151973491Y-67364789D01*
X151963012Y-67356413D01*
X151949566Y-67363481D01*
X151248022Y-68065025D01*
X151240408Y-68078969D01*
X150510356Y-68078969D01*
X150511592Y-68076705D01*
X150511461Y-68074872D01*
X150507210Y-68068257D01*
X149801713Y-67362760D01*
X149789938Y-67356330D01*
X149777923Y-67365626D01*
X149742069Y-67416831D01*
X149736586Y-67426326D01*
X149644510Y-67623784D01*
X149640764Y-67634076D01*
X149584375Y-67844525D01*
X149582472Y-67855318D01*
X149563483Y-68072362D01*
X149563483Y-68083312D01*
X148590500Y-68083312D01*
X148590500Y-66801500D01*
X148610502Y-66733379D01*
X148664158Y-66686886D01*
X148716500Y-66675500D01*
X150219980Y-66675500D01*
X150288101Y-66695502D01*
G37*
%TD.AperFunction*%
%TA.AperFunction,Conductor*%
G36*
X147261621Y-66695502D02*
G01*
X147308114Y-66749158D01*
X147319500Y-66801500D01*
X147319500Y-91948500D01*
X147299498Y-92016621D01*
X147245842Y-92063114D01*
X147193500Y-92074500D01*
X116331500Y-92074500D01*
X116263379Y-92054498D01*
X116216886Y-92000842D01*
X116205500Y-91948500D01*
X116205500Y-89673210D01*
X118191640Y-89673210D01*
X118193911Y-89731012D01*
X118200440Y-89897175D01*
X118201845Y-89932944D01*
X118248545Y-90188648D01*
X118249954Y-90192871D01*
X118309603Y-90371661D01*
X118330808Y-90435222D01*
X118344518Y-90462659D01*
X118443857Y-90661467D01*
X118446993Y-90667744D01*
X118594782Y-90881577D01*
X118627807Y-90917303D01*
X118744786Y-91043850D01*
X118771225Y-91072452D01*
X118774679Y-91075264D01*
X118969346Y-91233748D01*
X118969350Y-91233751D01*
X118972803Y-91236562D01*
X118976625Y-91238863D01*
X119186989Y-91365512D01*
X119195493Y-91370632D01*
X119253602Y-91395238D01*
X119430749Y-91470251D01*
X119430754Y-91470253D01*
X119434852Y-91471988D01*
X119439149Y-91473127D01*
X119439154Y-91473129D01*
X119560478Y-91505297D01*
X119686104Y-91538606D01*
X119944236Y-91569158D01*
X120204098Y-91563034D01*
X120208496Y-91562302D01*
X120456115Y-91521087D01*
X120456119Y-91521086D01*
X120460505Y-91520356D01*
X120464746Y-91519015D01*
X120464749Y-91519014D01*
X120704094Y-91443319D01*
X120704096Y-91443318D01*
X120708340Y-91441976D01*
X120712351Y-91440050D01*
X120712356Y-91440048D01*
X120938640Y-91331388D01*
X120938641Y-91331387D01*
X120942659Y-91329458D01*
X120946365Y-91326982D01*
X121155084Y-91187521D01*
X121155088Y-91187518D01*
X121158786Y-91185047D01*
X121212984Y-91136503D01*
X121349086Y-91014600D01*
X121349091Y-91014595D01*
X121352409Y-91011623D01*
X121366476Y-90994889D01*
X121465935Y-90876567D01*
X121519665Y-90812648D01*
X121655867Y-90594256D01*
X128932839Y-90594256D01*
X128933209Y-90601077D01*
X128938733Y-90651939D01*
X128942359Y-90667191D01*
X128987514Y-90787641D01*
X128996052Y-90803236D01*
X129072553Y-90905311D01*
X129085114Y-90917872D01*
X129187189Y-90994373D01*
X129202784Y-91002911D01*
X129323232Y-91048065D01*
X129338487Y-91051692D01*
X129389352Y-91057218D01*
X129396166Y-91057587D01*
X130018723Y-91057587D01*
X130033962Y-91053112D01*
X130035167Y-91051722D01*
X130036838Y-91044039D01*
X130036838Y-91039471D01*
X130544838Y-91039471D01*
X130549313Y-91054710D01*
X130550703Y-91055915D01*
X130558386Y-91057586D01*
X131185507Y-91057586D01*
X131192328Y-91057216D01*
X131243190Y-91051692D01*
X131258442Y-91048066D01*
X131378892Y-91002911D01*
X131394487Y-90994373D01*
X131496562Y-90917872D01*
X131509123Y-90905311D01*
X131585624Y-90803236D01*
X131594163Y-90787639D01*
X131635263Y-90678005D01*
X131677904Y-90621240D01*
X131744466Y-90596540D01*
X131813815Y-90611747D01*
X131848483Y-90639737D01*
X131874057Y-90669261D01*
X131881418Y-90676470D01*
X132045272Y-90812503D01*
X132053719Y-90818418D01*
X132237594Y-90925866D01*
X132246880Y-90930316D01*
X132445839Y-91006290D01*
X132455737Y-91009166D01*
X132559088Y-91030193D01*
X132573137Y-91028997D01*
X132576838Y-91018652D01*
X132576838Y-91018104D01*
X133084838Y-91018104D01*
X133088902Y-91031946D01*
X133102316Y-91033980D01*
X133109022Y-91033121D01*
X133119100Y-91030979D01*
X133323093Y-90969778D01*
X133332680Y-90966020D01*
X133523933Y-90872326D01*
X133532783Y-90867051D01*
X133706166Y-90743379D01*
X133714038Y-90736726D01*
X133864890Y-90586399D01*
X133871561Y-90578559D01*
X133920428Y-90510554D01*
X133976423Y-90466906D01*
X134047126Y-90460460D01*
X134110091Y-90493263D01*
X134130183Y-90518245D01*
X134165287Y-90575528D01*
X134165290Y-90575533D01*
X134167990Y-90579938D01*
X134327926Y-90764574D01*
X134515870Y-90920608D01*
X134726775Y-91043850D01*
X134731600Y-91045692D01*
X134731601Y-91045693D01*
X134755214Y-91054710D01*
X134954976Y-91130992D01*
X134960042Y-91132023D01*
X134960043Y-91132023D01*
X135181252Y-91177028D01*
X135194346Y-91179692D01*
X135331384Y-91184717D01*
X135433292Y-91188455D01*
X135433297Y-91188455D01*
X135438456Y-91188644D01*
X135449767Y-91187195D01*
X135675621Y-91158262D01*
X135675622Y-91158262D01*
X135680749Y-91157605D01*
X135735130Y-91141290D01*
X135909767Y-91088896D01*
X135914720Y-91087410D01*
X135919359Y-91085137D01*
X135919365Y-91085135D01*
X136129446Y-90982217D01*
X136134084Y-90979945D01*
X136179374Y-90947640D01*
X136328739Y-90841099D01*
X136328744Y-90841095D01*
X136332951Y-90838094D01*
X136505980Y-90665669D01*
X136508996Y-90661471D01*
X136509000Y-90661467D01*
X136538145Y-90620907D01*
X136594139Y-90577258D01*
X136664843Y-90570812D01*
X136727807Y-90603614D01*
X136735706Y-90611935D01*
X136785412Y-90669317D01*
X136867926Y-90764574D01*
X137055870Y-90920608D01*
X137266775Y-91043850D01*
X137271600Y-91045692D01*
X137271601Y-91045693D01*
X137295214Y-91054710D01*
X137494976Y-91130992D01*
X137500042Y-91132023D01*
X137500043Y-91132023D01*
X137721252Y-91177028D01*
X137734346Y-91179692D01*
X137871384Y-91184717D01*
X137973292Y-91188455D01*
X137973297Y-91188455D01*
X137978456Y-91188644D01*
X137989767Y-91187195D01*
X138215621Y-91158262D01*
X138215622Y-91158262D01*
X138220749Y-91157605D01*
X138275130Y-91141290D01*
X138449767Y-91088896D01*
X138454720Y-91087410D01*
X138459359Y-91085137D01*
X138459365Y-91085135D01*
X138669446Y-90982217D01*
X138674084Y-90979945D01*
X138719374Y-90947640D01*
X138868739Y-90841099D01*
X138868744Y-90841095D01*
X138872951Y-90838094D01*
X139045980Y-90665669D01*
X139049000Y-90661467D01*
X139110753Y-90575528D01*
X139188524Y-90467298D01*
X139191242Y-90461800D01*
X139246461Y-90350071D01*
X139296754Y-90248310D01*
X139319214Y-90174385D01*
X139366261Y-90019538D01*
X139366262Y-90019532D01*
X139367765Y-90014586D01*
X139397984Y-89785048D01*
X139399212Y-89775724D01*
X139399213Y-89775718D01*
X139399649Y-89772402D01*
X139401429Y-89699587D01*
X139381414Y-89456135D01*
X139321905Y-89219221D01*
X139263035Y-89083830D01*
X139226561Y-88999944D01*
X139226559Y-88999941D01*
X139224501Y-88995207D01*
X139091818Y-88790110D01*
X139087958Y-88785867D01*
X138930897Y-88613260D01*
X138930891Y-88613254D01*
X138927419Y-88609438D01*
X138923368Y-88606239D01*
X138923364Y-88606235D01*
X138765170Y-88481302D01*
X138735718Y-88458042D01*
X138581274Y-88372784D01*
X138526397Y-88342490D01*
X138526395Y-88342489D01*
X138521866Y-88339989D01*
X138385213Y-88291598D01*
X138296475Y-88260174D01*
X138296472Y-88260173D01*
X138291603Y-88258449D01*
X138286514Y-88257542D01*
X138286512Y-88257542D01*
X138056203Y-88216517D01*
X138056199Y-88216517D01*
X138051115Y-88215611D01*
X138009890Y-88215107D01*
X137834398Y-88212963D01*
X137766526Y-88192130D01*
X137720692Y-88137910D01*
X137711448Y-88067518D01*
X137741728Y-88003302D01*
X137781390Y-87973392D01*
X137931738Y-87901196D01*
X137946348Y-87891434D01*
X138144163Y-87759259D01*
X138144167Y-87759256D01*
X138147865Y-87756785D01*
X138270435Y-87647002D01*
X138338165Y-87586338D01*
X138338170Y-87586333D01*
X138341488Y-87583361D01*
X138508744Y-87384386D01*
X138646296Y-87163829D01*
X138717517Y-87002731D01*
X138749600Y-86930159D01*
X138751398Y-86926092D01*
X138821955Y-86675917D01*
X138844955Y-86504682D01*
X138856131Y-86421478D01*
X138856132Y-86421470D01*
X138856558Y-86418296D01*
X138858491Y-86356779D01*
X138860088Y-86305972D01*
X138860088Y-86305967D01*
X138860189Y-86302750D01*
X138856097Y-86244948D01*
X138842146Y-86047914D01*
X138841831Y-86043465D01*
X138787122Y-85789354D01*
X138763436Y-85725149D01*
X138698695Y-85549663D01*
X138697154Y-85545486D01*
X138573723Y-85316727D01*
X138419291Y-85107643D01*
X138415226Y-85103513D01*
X138240070Y-84925585D01*
X138236939Y-84922404D01*
X138233399Y-84919703D01*
X138233393Y-84919697D01*
X138033847Y-84767408D01*
X138033843Y-84767405D01*
X138030306Y-84764706D01*
X137971332Y-84731679D01*
X137807404Y-84639875D01*
X137807398Y-84639872D01*
X137803514Y-84637697D01*
X137799356Y-84636089D01*
X137799351Y-84636086D01*
X137565245Y-84545517D01*
X137565239Y-84545515D01*
X137561090Y-84543910D01*
X137556758Y-84542906D01*
X137556755Y-84542905D01*
X137452623Y-84518769D01*
X137307869Y-84485217D01*
X137048904Y-84462788D01*
X137044469Y-84463032D01*
X137044465Y-84463032D01*
X136939358Y-84468817D01*
X136789363Y-84477071D01*
X136785000Y-84477939D01*
X136784999Y-84477939D01*
X136538792Y-84526913D01*
X136538790Y-84526914D01*
X136534424Y-84527782D01*
X136289173Y-84613908D01*
X136058504Y-84733731D01*
X136054889Y-84736314D01*
X136054883Y-84736318D01*
X135850640Y-84882272D01*
X135850636Y-84882275D01*
X135847019Y-84884860D01*
X135658939Y-85064280D01*
X135656183Y-85067776D01*
X135656182Y-85067777D01*
X135611050Y-85125027D01*
X135498015Y-85268410D01*
X135495779Y-85272259D01*
X135495778Y-85272261D01*
X135467676Y-85320643D01*
X135367460Y-85493179D01*
X135365792Y-85497296D01*
X135365789Y-85497303D01*
X135271550Y-85729967D01*
X135269876Y-85734100D01*
X135207213Y-85986368D01*
X135180719Y-86244948D01*
X135190924Y-86504682D01*
X135237624Y-86760386D01*
X135239033Y-86764609D01*
X135310579Y-86979059D01*
X135319887Y-87006960D01*
X135321880Y-87010948D01*
X135426877Y-87221079D01*
X135436072Y-87239482D01*
X135583861Y-87453315D01*
X135586883Y-87456584D01*
X135756996Y-87640611D01*
X135760304Y-87644190D01*
X135763758Y-87647002D01*
X135958425Y-87805486D01*
X135958429Y-87805489D01*
X135961882Y-87808300D01*
X135965704Y-87810601D01*
X136123054Y-87905333D01*
X136184572Y-87942370D01*
X136277364Y-87981663D01*
X136419828Y-88041989D01*
X136419833Y-88041991D01*
X136423931Y-88043726D01*
X136428228Y-88044865D01*
X136428233Y-88044867D01*
X136526660Y-88070964D01*
X136675183Y-88110344D01*
X136933315Y-88140896D01*
X137181167Y-88135055D01*
X137249741Y-88153447D01*
X137297485Y-88205992D01*
X137309241Y-88276008D01*
X137281278Y-88341266D01*
X137242320Y-88372781D01*
X137116537Y-88438259D01*
X137112404Y-88441362D01*
X137112401Y-88441364D01*
X136925331Y-88581821D01*
X136921196Y-88584926D01*
X136915280Y-88591117D01*
X136762130Y-88751379D01*
X136752431Y-88761528D01*
X136749520Y-88765795D01*
X136749517Y-88765799D01*
X136745238Y-88772072D01*
X136690327Y-88817074D01*
X136619802Y-88825245D01*
X136556055Y-88793991D01*
X136547969Y-88785880D01*
X136387419Y-88609438D01*
X136383368Y-88606239D01*
X136383364Y-88606235D01*
X136225170Y-88481302D01*
X136195718Y-88458042D01*
X136041274Y-88372784D01*
X135986397Y-88342490D01*
X135986395Y-88342489D01*
X135981866Y-88339989D01*
X135845213Y-88291598D01*
X135756475Y-88260174D01*
X135756472Y-88260173D01*
X135751603Y-88258449D01*
X135746514Y-88257542D01*
X135746512Y-88257542D01*
X135516203Y-88216517D01*
X135516199Y-88216517D01*
X135511115Y-88215611D01*
X135431448Y-88214638D01*
X135272030Y-88212690D01*
X135272028Y-88212690D01*
X135266860Y-88212627D01*
X135025397Y-88249576D01*
X134793211Y-88325466D01*
X134788623Y-88327854D01*
X134788619Y-88327856D01*
X134611243Y-88420192D01*
X134576537Y-88438259D01*
X134572404Y-88441362D01*
X134572401Y-88441364D01*
X134385331Y-88581821D01*
X134381196Y-88584926D01*
X134375280Y-88591117D01*
X134222130Y-88751379D01*
X134212431Y-88761528D01*
X134172196Y-88820510D01*
X134128903Y-88883976D01*
X134073991Y-88928979D01*
X134003466Y-88937150D01*
X133939719Y-88905896D01*
X133919023Y-88881414D01*
X133913263Y-88872511D01*
X133906974Y-88864344D01*
X133763644Y-88706827D01*
X133756111Y-88699802D01*
X133588977Y-88567809D01*
X133580390Y-88562104D01*
X133393955Y-88459186D01*
X133384543Y-88454956D01*
X133183797Y-88383867D01*
X133173826Y-88381233D01*
X133102675Y-88368559D01*
X133089378Y-88370019D01*
X133084838Y-88384576D01*
X133084838Y-91018104D01*
X132576838Y-91018104D01*
X132576838Y-89971702D01*
X132572363Y-89956463D01*
X132570973Y-89955258D01*
X132563290Y-89953587D01*
X130562953Y-89953587D01*
X130547714Y-89958062D01*
X130546509Y-89959452D01*
X130544838Y-89967135D01*
X130544838Y-91039471D01*
X130036838Y-91039471D01*
X130036838Y-89971702D01*
X130032363Y-89956463D01*
X130030973Y-89955258D01*
X130023290Y-89953587D01*
X128950954Y-89953587D01*
X128935715Y-89958062D01*
X128934510Y-89959452D01*
X128932839Y-89967135D01*
X128932839Y-90594256D01*
X121655867Y-90594256D01*
X121657217Y-90592091D01*
X121659734Y-90586399D01*
X121760521Y-90358421D01*
X121762319Y-90354354D01*
X121832876Y-90104179D01*
X121850670Y-89971702D01*
X121867052Y-89849740D01*
X121867053Y-89849732D01*
X121867479Y-89846558D01*
X121869412Y-89785048D01*
X121871009Y-89734234D01*
X121871009Y-89734229D01*
X121871110Y-89731012D01*
X121867018Y-89673210D01*
X121853067Y-89476176D01*
X121852752Y-89471727D01*
X121843224Y-89427472D01*
X128932838Y-89427472D01*
X128937313Y-89442711D01*
X128938703Y-89443916D01*
X128946386Y-89445587D01*
X130018723Y-89445587D01*
X130033962Y-89441112D01*
X130035167Y-89439722D01*
X130036838Y-89432039D01*
X130036838Y-89427472D01*
X130544838Y-89427472D01*
X130549313Y-89442711D01*
X130550703Y-89443916D01*
X130558386Y-89445587D01*
X132558723Y-89445587D01*
X132573962Y-89441112D01*
X132575167Y-89439722D01*
X132576838Y-89432039D01*
X132576838Y-88382689D01*
X132572920Y-88369345D01*
X132558644Y-88367358D01*
X132520162Y-88373247D01*
X132510126Y-88375638D01*
X132307706Y-88441799D01*
X132298197Y-88445796D01*
X132109301Y-88544129D01*
X132100576Y-88549623D01*
X131930271Y-88677492D01*
X131922564Y-88684335D01*
X131844932Y-88765572D01*
X131783408Y-88801002D01*
X131712495Y-88797545D01*
X131654709Y-88756299D01*
X131635856Y-88722751D01*
X131594162Y-88611533D01*
X131585624Y-88595938D01*
X131509123Y-88493863D01*
X131496562Y-88481302D01*
X131394487Y-88404801D01*
X131378892Y-88396263D01*
X131258444Y-88351109D01*
X131243189Y-88347482D01*
X131192324Y-88341956D01*
X131185510Y-88341587D01*
X130562953Y-88341587D01*
X130547714Y-88346062D01*
X130546509Y-88347452D01*
X130544838Y-88355135D01*
X130544838Y-89427472D01*
X130036838Y-89427472D01*
X130036838Y-88359703D01*
X130032363Y-88344464D01*
X130030973Y-88343259D01*
X130023290Y-88341588D01*
X129396169Y-88341588D01*
X129389348Y-88341958D01*
X129338486Y-88347482D01*
X129323234Y-88351108D01*
X129202784Y-88396263D01*
X129187189Y-88404801D01*
X129085114Y-88481302D01*
X129072553Y-88493863D01*
X128996052Y-88595938D01*
X128987514Y-88611533D01*
X128942360Y-88731981D01*
X128938733Y-88747236D01*
X128933207Y-88798101D01*
X128932838Y-88804915D01*
X128932838Y-89427472D01*
X121843224Y-89427472D01*
X121798043Y-89217616D01*
X121794199Y-89207194D01*
X121709616Y-88977925D01*
X121708075Y-88973748D01*
X121664522Y-88893029D01*
X121586757Y-88748905D01*
X121586757Y-88748904D01*
X121584644Y-88744989D01*
X121430212Y-88535905D01*
X121390968Y-88496039D01*
X121301151Y-88404801D01*
X121247860Y-88350666D01*
X121244320Y-88347965D01*
X121244314Y-88347959D01*
X121044768Y-88195670D01*
X121044764Y-88195667D01*
X121041227Y-88192968D01*
X120964636Y-88150075D01*
X120818325Y-88068137D01*
X120818319Y-88068134D01*
X120814435Y-88065959D01*
X120810277Y-88064351D01*
X120810272Y-88064348D01*
X120576166Y-87973779D01*
X120576160Y-87973777D01*
X120572011Y-87972172D01*
X120567679Y-87971168D01*
X120567676Y-87971167D01*
X120443435Y-87942370D01*
X120318790Y-87913479D01*
X120059825Y-87891050D01*
X120055390Y-87891294D01*
X120055386Y-87891294D01*
X119950279Y-87897079D01*
X119800284Y-87905333D01*
X119795921Y-87906201D01*
X119795920Y-87906201D01*
X119549713Y-87955175D01*
X119549711Y-87955176D01*
X119545345Y-87956044D01*
X119300094Y-88042170D01*
X119069425Y-88161993D01*
X119065810Y-88164576D01*
X119065804Y-88164580D01*
X118861561Y-88310534D01*
X118861557Y-88310537D01*
X118857940Y-88313122D01*
X118669860Y-88492542D01*
X118667104Y-88496038D01*
X118667103Y-88496039D01*
X118524056Y-88677492D01*
X118508936Y-88696672D01*
X118506700Y-88700521D01*
X118506699Y-88700523D01*
X118479566Y-88747236D01*
X118378381Y-88921441D01*
X118376713Y-88925558D01*
X118376710Y-88925565D01*
X118300732Y-89113146D01*
X118280797Y-89162362D01*
X118218134Y-89414630D01*
X118191640Y-89673210D01*
X116205500Y-89673210D01*
X116205500Y-76626490D01*
X125574057Y-76626490D01*
X125576328Y-76684292D01*
X125582857Y-76850455D01*
X125584262Y-76886224D01*
X125630962Y-77141928D01*
X125632371Y-77146151D01*
X125697409Y-77341094D01*
X125713225Y-77388502D01*
X125715218Y-77392490D01*
X125822285Y-77606764D01*
X125829410Y-77621024D01*
X125977199Y-77834857D01*
X126153642Y-78025732D01*
X126157096Y-78028544D01*
X126351763Y-78187028D01*
X126351767Y-78187031D01*
X126355220Y-78189842D01*
X126359042Y-78192143D01*
X126458581Y-78252070D01*
X126577910Y-78323912D01*
X126670702Y-78363205D01*
X126813166Y-78423531D01*
X126813171Y-78423533D01*
X126817269Y-78425268D01*
X126821566Y-78426407D01*
X126821571Y-78426409D01*
X126942895Y-78458577D01*
X127068521Y-78491886D01*
X127326653Y-78522438D01*
X127586515Y-78516314D01*
X127590913Y-78515582D01*
X127838532Y-78474367D01*
X127838536Y-78474366D01*
X127842922Y-78473636D01*
X127847163Y-78472295D01*
X127847166Y-78472294D01*
X128086511Y-78396599D01*
X128086513Y-78396598D01*
X128090757Y-78395256D01*
X128094768Y-78393330D01*
X128094773Y-78393328D01*
X128321057Y-78284668D01*
X128321058Y-78284667D01*
X128325076Y-78282738D01*
X128328782Y-78280262D01*
X128537501Y-78140801D01*
X128537505Y-78140798D01*
X128541203Y-78138327D01*
X128612691Y-78074297D01*
X128731503Y-77967880D01*
X128731508Y-77967875D01*
X128734826Y-77964903D01*
X128902082Y-77765928D01*
X129039634Y-77545371D01*
X129110855Y-77384273D01*
X129142938Y-77311701D01*
X129144736Y-77307634D01*
X129215293Y-77057459D01*
X129238293Y-76886224D01*
X129249469Y-76803020D01*
X129249470Y-76803012D01*
X129249896Y-76799838D01*
X129253527Y-76684292D01*
X129249435Y-76626490D01*
X129235484Y-76429456D01*
X129235169Y-76425007D01*
X129180460Y-76170896D01*
X129160709Y-76117357D01*
X129092033Y-75931205D01*
X129090492Y-75927028D01*
X129036901Y-75827705D01*
X128969174Y-75702185D01*
X128969174Y-75702184D01*
X128967061Y-75698269D01*
X128812629Y-75489185D01*
X128776666Y-75452652D01*
X128633408Y-75307127D01*
X128630277Y-75303946D01*
X128626737Y-75301245D01*
X128626731Y-75301239D01*
X128427185Y-75148950D01*
X128427181Y-75148947D01*
X128423644Y-75146248D01*
X128364670Y-75113221D01*
X128200742Y-75021417D01*
X128200736Y-75021414D01*
X128196852Y-75019239D01*
X128192694Y-75017631D01*
X128192689Y-75017628D01*
X127958583Y-74927059D01*
X127958577Y-74927057D01*
X127954428Y-74925452D01*
X127950096Y-74924448D01*
X127950093Y-74924447D01*
X127845961Y-74900311D01*
X127701207Y-74866759D01*
X127442242Y-74844330D01*
X127437807Y-74844574D01*
X127437803Y-74844574D01*
X127332696Y-74850359D01*
X127182701Y-74858613D01*
X127178338Y-74859481D01*
X127178337Y-74859481D01*
X126932130Y-74908455D01*
X126932128Y-74908456D01*
X126927762Y-74909324D01*
X126682511Y-74995450D01*
X126451842Y-75115273D01*
X126448227Y-75117856D01*
X126448221Y-75117860D01*
X126243978Y-75263814D01*
X126243974Y-75263817D01*
X126240357Y-75266402D01*
X126052277Y-75445822D01*
X126049521Y-75449318D01*
X126049520Y-75449319D01*
X126020601Y-75486003D01*
X125891353Y-75649952D01*
X125889117Y-75653801D01*
X125889116Y-75653803D01*
X125861014Y-75702185D01*
X125760798Y-75874721D01*
X125759130Y-75878838D01*
X125759127Y-75878845D01*
X125682430Y-76068200D01*
X125663214Y-76115642D01*
X125600551Y-76367910D01*
X125574057Y-76626490D01*
X116205500Y-76626490D01*
X116205500Y-71732074D01*
X138934847Y-71732074D01*
X138937096Y-71789324D01*
X138942145Y-71917810D01*
X138945052Y-71991808D01*
X138991752Y-72247512D01*
X138993161Y-72251735D01*
X139064707Y-72466185D01*
X139074015Y-72494086D01*
X139076008Y-72498074D01*
X139181005Y-72708205D01*
X139190200Y-72726608D01*
X139337989Y-72940441D01*
X139341011Y-72943710D01*
X139511124Y-73127737D01*
X139514432Y-73131316D01*
X139517886Y-73134128D01*
X139712553Y-73292612D01*
X139712557Y-73292615D01*
X139716010Y-73295426D01*
X139719832Y-73297727D01*
X139932101Y-73425523D01*
X139938700Y-73429496D01*
X140012053Y-73460557D01*
X140173956Y-73529115D01*
X140173961Y-73529117D01*
X140178059Y-73530852D01*
X140182356Y-73531991D01*
X140182361Y-73531993D01*
X140278023Y-73557357D01*
X140429311Y-73597470D01*
X140687443Y-73628022D01*
X140947305Y-73621898D01*
X141030257Y-73608091D01*
X141199322Y-73579951D01*
X141199326Y-73579950D01*
X141203712Y-73579220D01*
X141207953Y-73577879D01*
X141207956Y-73577878D01*
X141447301Y-73502183D01*
X141447303Y-73502182D01*
X141451547Y-73500840D01*
X141455558Y-73498914D01*
X141455563Y-73498912D01*
X141681847Y-73390252D01*
X141681848Y-73390251D01*
X141685866Y-73388322D01*
X141694979Y-73382233D01*
X141898291Y-73246385D01*
X141898295Y-73246382D01*
X141901993Y-73243911D01*
X142008851Y-73148201D01*
X142092293Y-73073464D01*
X142092298Y-73073459D01*
X142095616Y-73070487D01*
X142114687Y-73047800D01*
X142208009Y-72936779D01*
X142262872Y-72871512D01*
X142400424Y-72650955D01*
X142403036Y-72645048D01*
X142503728Y-72417285D01*
X142505526Y-72413218D01*
X142576083Y-72163043D01*
X142597889Y-72000694D01*
X142610259Y-71908604D01*
X142610260Y-71908596D01*
X142610686Y-71905422D01*
X142611043Y-71894073D01*
X142614216Y-71793098D01*
X142614216Y-71793093D01*
X142614317Y-71789876D01*
X142610225Y-71732074D01*
X142596274Y-71535040D01*
X142595959Y-71530591D01*
X142541250Y-71276480D01*
X142519383Y-71217205D01*
X142452823Y-71036789D01*
X142451282Y-71032612D01*
X142444399Y-71019855D01*
X142329964Y-70807769D01*
X142329964Y-70807768D01*
X142327851Y-70803853D01*
X142173419Y-70594769D01*
X142134175Y-70554903D01*
X142063874Y-70483490D01*
X141991067Y-70409530D01*
X141987527Y-70406829D01*
X141987521Y-70406823D01*
X141787975Y-70254534D01*
X141787971Y-70254531D01*
X141784434Y-70251832D01*
X141649913Y-70176497D01*
X141561532Y-70127001D01*
X141561526Y-70126998D01*
X141557642Y-70124823D01*
X141553484Y-70123215D01*
X141553479Y-70123212D01*
X141319373Y-70032643D01*
X141319367Y-70032641D01*
X141315218Y-70031036D01*
X141310886Y-70030032D01*
X141310883Y-70030031D01*
X141206751Y-70005895D01*
X141061997Y-69972343D01*
X140803032Y-69949914D01*
X140798597Y-69950158D01*
X140798593Y-69950158D01*
X140693486Y-69955943D01*
X140543491Y-69964197D01*
X140539128Y-69965065D01*
X140539127Y-69965065D01*
X140292920Y-70014039D01*
X140292918Y-70014040D01*
X140288552Y-70014908D01*
X140043301Y-70101034D01*
X139812632Y-70220857D01*
X139809017Y-70223440D01*
X139809011Y-70223444D01*
X139604768Y-70369398D01*
X139604764Y-70369401D01*
X139601147Y-70371986D01*
X139413067Y-70551406D01*
X139410311Y-70554902D01*
X139410310Y-70554903D01*
X139307793Y-70684945D01*
X139252143Y-70755536D01*
X139249907Y-70759385D01*
X139249906Y-70759387D01*
X139189953Y-70862605D01*
X139121588Y-70980305D01*
X139119920Y-70984422D01*
X139119917Y-70984429D01*
X139028455Y-71210238D01*
X139024004Y-71221226D01*
X138961341Y-71473494D01*
X138934847Y-71732074D01*
X116205500Y-71732074D01*
X116205500Y-70299256D01*
X128932839Y-70299256D01*
X128933209Y-70306077D01*
X128938733Y-70356939D01*
X128942359Y-70372191D01*
X128987514Y-70492641D01*
X128996052Y-70508236D01*
X129072553Y-70610311D01*
X129085114Y-70622872D01*
X129187189Y-70699373D01*
X129202784Y-70707911D01*
X129323232Y-70753065D01*
X129338487Y-70756692D01*
X129389352Y-70762218D01*
X129396166Y-70762587D01*
X130018723Y-70762587D01*
X130033962Y-70758112D01*
X130035167Y-70756722D01*
X130036838Y-70749039D01*
X130036838Y-70744471D01*
X130544838Y-70744471D01*
X130549313Y-70759710D01*
X130550703Y-70760915D01*
X130558386Y-70762586D01*
X131185507Y-70762586D01*
X131192328Y-70762216D01*
X131243190Y-70756692D01*
X131258442Y-70753066D01*
X131378892Y-70707911D01*
X131394487Y-70699373D01*
X131496562Y-70622872D01*
X131509123Y-70610311D01*
X131585624Y-70508236D01*
X131594163Y-70492639D01*
X131635263Y-70383005D01*
X131677904Y-70326240D01*
X131744466Y-70301540D01*
X131813815Y-70316747D01*
X131848483Y-70344737D01*
X131874057Y-70374261D01*
X131881418Y-70381470D01*
X132045272Y-70517503D01*
X132053719Y-70523418D01*
X132237594Y-70630866D01*
X132246880Y-70635316D01*
X132445839Y-70711290D01*
X132455737Y-70714166D01*
X132559088Y-70735193D01*
X132573137Y-70733997D01*
X132576838Y-70723652D01*
X132576838Y-70723104D01*
X133084838Y-70723104D01*
X133088902Y-70736946D01*
X133102316Y-70738980D01*
X133109022Y-70738121D01*
X133119100Y-70735979D01*
X133323093Y-70674778D01*
X133332680Y-70671020D01*
X133523933Y-70577326D01*
X133532783Y-70572051D01*
X133706166Y-70448379D01*
X133714038Y-70441726D01*
X133864890Y-70291399D01*
X133871561Y-70283559D01*
X133920428Y-70215554D01*
X133976423Y-70171906D01*
X134047126Y-70165460D01*
X134110091Y-70198263D01*
X134130183Y-70223245D01*
X134165287Y-70280528D01*
X134165290Y-70280533D01*
X134167990Y-70284938D01*
X134327926Y-70469574D01*
X134515870Y-70625608D01*
X134726775Y-70748850D01*
X134731600Y-70750692D01*
X134731601Y-70750693D01*
X134755214Y-70759710D01*
X134954976Y-70835992D01*
X134960042Y-70837023D01*
X134960043Y-70837023D01*
X135173024Y-70880354D01*
X135194346Y-70884692D01*
X135331384Y-70889717D01*
X135433292Y-70893455D01*
X135433297Y-70893455D01*
X135438456Y-70893644D01*
X135508336Y-70884692D01*
X135675621Y-70863262D01*
X135675622Y-70863262D01*
X135680749Y-70862605D01*
X135685756Y-70861103D01*
X135909767Y-70793896D01*
X135914720Y-70792410D01*
X135919359Y-70790137D01*
X135919365Y-70790135D01*
X136119491Y-70692094D01*
X136134084Y-70684945D01*
X136213612Y-70628218D01*
X136328739Y-70546099D01*
X136328744Y-70546095D01*
X136332951Y-70543094D01*
X136505980Y-70370669D01*
X136508996Y-70366471D01*
X136509000Y-70366467D01*
X136538145Y-70325907D01*
X136594139Y-70282258D01*
X136664843Y-70275812D01*
X136727807Y-70308614D01*
X136735706Y-70316935D01*
X136785412Y-70374317D01*
X136867926Y-70469574D01*
X137055870Y-70625608D01*
X137266775Y-70748850D01*
X137271600Y-70750692D01*
X137271601Y-70750693D01*
X137295214Y-70759710D01*
X137494976Y-70835992D01*
X137500042Y-70837023D01*
X137500043Y-70837023D01*
X137713024Y-70880354D01*
X137734346Y-70884692D01*
X137871384Y-70889717D01*
X137973292Y-70893455D01*
X137973297Y-70893455D01*
X137978456Y-70893644D01*
X138048336Y-70884692D01*
X138215621Y-70863262D01*
X138215622Y-70863262D01*
X138220749Y-70862605D01*
X138225756Y-70861103D01*
X138449767Y-70793896D01*
X138454720Y-70792410D01*
X138459359Y-70790137D01*
X138459365Y-70790135D01*
X138659491Y-70692094D01*
X138674084Y-70684945D01*
X138753612Y-70628218D01*
X138868739Y-70546099D01*
X138868744Y-70546095D01*
X138872951Y-70543094D01*
X139045980Y-70370669D01*
X139049000Y-70366467D01*
X139109510Y-70282258D01*
X139188524Y-70172298D01*
X139194438Y-70160333D01*
X139259053Y-70029593D01*
X139296754Y-69953310D01*
X139330350Y-69842733D01*
X139366261Y-69724538D01*
X139366262Y-69724532D01*
X139367765Y-69719586D01*
X139388975Y-69558483D01*
X139399212Y-69480724D01*
X139399213Y-69480718D01*
X139399649Y-69477402D01*
X139400335Y-69449328D01*
X139401347Y-69407951D01*
X139401347Y-69407947D01*
X139401429Y-69404587D01*
X139381414Y-69161135D01*
X139321905Y-68924221D01*
X139243397Y-68743664D01*
X139226561Y-68704944D01*
X139226559Y-68704941D01*
X139224501Y-68700207D01*
X139091818Y-68495110D01*
X139087958Y-68490867D01*
X138930897Y-68318260D01*
X138930891Y-68318254D01*
X138927419Y-68314438D01*
X138923368Y-68311239D01*
X138923364Y-68311235D01*
X138739776Y-68166247D01*
X138735718Y-68163042D01*
X138586444Y-68080638D01*
X138526397Y-68047490D01*
X138526395Y-68047489D01*
X138521866Y-68044989D01*
X138358951Y-67987298D01*
X138296475Y-67965174D01*
X138296472Y-67965173D01*
X138291603Y-67963449D01*
X138286514Y-67962542D01*
X138286512Y-67962542D01*
X138056203Y-67921517D01*
X138056199Y-67921517D01*
X138051115Y-67920611D01*
X137971448Y-67919638D01*
X137812030Y-67917690D01*
X137812028Y-67917690D01*
X137806860Y-67917627D01*
X137565397Y-67954576D01*
X137333211Y-68030466D01*
X137328623Y-68032854D01*
X137328619Y-68032856D01*
X137143317Y-68129318D01*
X137116537Y-68143259D01*
X137112404Y-68146362D01*
X137112401Y-68146364D01*
X136925331Y-68286821D01*
X136921196Y-68289926D01*
X136907700Y-68304049D01*
X136804705Y-68411827D01*
X136752431Y-68466528D01*
X136749520Y-68470795D01*
X136749517Y-68470799D01*
X136745238Y-68477072D01*
X136690327Y-68522074D01*
X136619802Y-68530245D01*
X136556055Y-68498991D01*
X136547969Y-68490880D01*
X136387419Y-68314438D01*
X136383368Y-68311239D01*
X136383364Y-68311235D01*
X136199776Y-68166247D01*
X136195718Y-68163042D01*
X136046444Y-68080638D01*
X135986397Y-68047490D01*
X135986395Y-68047489D01*
X135981866Y-68044989D01*
X135818951Y-67987298D01*
X135756475Y-67965174D01*
X135756472Y-67965173D01*
X135751603Y-67963449D01*
X135746514Y-67962542D01*
X135746512Y-67962542D01*
X135516203Y-67921517D01*
X135516199Y-67921517D01*
X135511115Y-67920611D01*
X135431448Y-67919638D01*
X135272030Y-67917690D01*
X135272028Y-67917690D01*
X135266860Y-67917627D01*
X135025397Y-67954576D01*
X134793211Y-68030466D01*
X134788623Y-68032854D01*
X134788619Y-68032856D01*
X134603317Y-68129318D01*
X134576537Y-68143259D01*
X134572404Y-68146362D01*
X134572401Y-68146364D01*
X134385331Y-68286821D01*
X134381196Y-68289926D01*
X134367700Y-68304049D01*
X134264705Y-68411827D01*
X134212431Y-68466528D01*
X134209519Y-68470797D01*
X134128903Y-68588976D01*
X134073991Y-68633979D01*
X134003466Y-68642150D01*
X133939719Y-68610896D01*
X133919023Y-68586414D01*
X133913263Y-68577511D01*
X133906974Y-68569344D01*
X133763644Y-68411827D01*
X133756111Y-68404802D01*
X133588977Y-68272809D01*
X133580390Y-68267104D01*
X133393955Y-68164186D01*
X133384543Y-68159956D01*
X133183797Y-68088867D01*
X133173826Y-68086233D01*
X133102675Y-68073559D01*
X133089378Y-68075019D01*
X133084838Y-68089576D01*
X133084838Y-70723104D01*
X132576838Y-70723104D01*
X132576838Y-69676702D01*
X132572363Y-69661463D01*
X132570973Y-69660258D01*
X132563290Y-69658587D01*
X130562953Y-69658587D01*
X130547714Y-69663062D01*
X130546509Y-69664452D01*
X130544838Y-69672135D01*
X130544838Y-70744471D01*
X130036838Y-70744471D01*
X130036838Y-69676702D01*
X130032363Y-69661463D01*
X130030973Y-69660258D01*
X130023290Y-69658587D01*
X128950954Y-69658587D01*
X128935715Y-69663062D01*
X128934510Y-69664452D01*
X128932839Y-69672135D01*
X128932839Y-70299256D01*
X116205500Y-70299256D01*
X116205500Y-69132472D01*
X128932838Y-69132472D01*
X128937313Y-69147711D01*
X128938703Y-69148916D01*
X128946386Y-69150587D01*
X130018723Y-69150587D01*
X130033962Y-69146112D01*
X130035167Y-69144722D01*
X130036838Y-69137039D01*
X130036838Y-69132472D01*
X130544838Y-69132472D01*
X130549313Y-69147711D01*
X130550703Y-69148916D01*
X130558386Y-69150587D01*
X132558723Y-69150587D01*
X132573962Y-69146112D01*
X132575167Y-69144722D01*
X132576838Y-69137039D01*
X132576838Y-68087689D01*
X132572920Y-68074345D01*
X132558644Y-68072358D01*
X132520162Y-68078247D01*
X132510126Y-68080638D01*
X132307706Y-68146799D01*
X132298197Y-68150796D01*
X132109301Y-68249129D01*
X132100576Y-68254623D01*
X131930271Y-68382492D01*
X131922564Y-68389335D01*
X131844932Y-68470572D01*
X131783408Y-68506002D01*
X131712495Y-68502545D01*
X131654709Y-68461299D01*
X131635856Y-68427751D01*
X131594162Y-68316533D01*
X131585624Y-68300938D01*
X131509123Y-68198863D01*
X131496562Y-68186302D01*
X131394487Y-68109801D01*
X131378892Y-68101263D01*
X131258444Y-68056109D01*
X131243189Y-68052482D01*
X131192324Y-68046956D01*
X131185510Y-68046587D01*
X130562953Y-68046587D01*
X130547714Y-68051062D01*
X130546509Y-68052452D01*
X130544838Y-68060135D01*
X130544838Y-69132472D01*
X130036838Y-69132472D01*
X130036838Y-68064703D01*
X130032363Y-68049464D01*
X130030973Y-68048259D01*
X130023290Y-68046588D01*
X129396169Y-68046588D01*
X129389348Y-68046958D01*
X129338486Y-68052482D01*
X129323234Y-68056108D01*
X129202784Y-68101263D01*
X129187189Y-68109801D01*
X129085114Y-68186302D01*
X129072553Y-68198863D01*
X128996052Y-68300938D01*
X128987514Y-68316533D01*
X128942360Y-68436981D01*
X128938733Y-68452236D01*
X128933207Y-68503101D01*
X128932838Y-68509915D01*
X128932838Y-69132472D01*
X116205500Y-69132472D01*
X116205500Y-66801500D01*
X116225502Y-66733379D01*
X116279158Y-66686886D01*
X116331500Y-66675500D01*
X147193500Y-66675500D01*
X147261621Y-66695502D01*
G37*
%TD.AperFunction*%
%TA.AperFunction,Conductor*%
G36*
X179646621Y-40660502D02*
G01*
X179693114Y-40714158D01*
X179704500Y-40766500D01*
X179704500Y-65278500D01*
X179684498Y-65346621D01*
X179630842Y-65393114D01*
X179578500Y-65404500D01*
X152569957Y-65404500D01*
X152501836Y-65384498D01*
X152455343Y-65330842D01*
X152445239Y-65260568D01*
X152474733Y-65195988D01*
X152534459Y-65157604D01*
X152554961Y-65153662D01*
X152555098Y-65153659D01*
X152590401Y-65147783D01*
X152807115Y-65111712D01*
X152807119Y-65111711D01*
X152811505Y-65110981D01*
X152815746Y-65109640D01*
X152815749Y-65109639D01*
X153055094Y-65033944D01*
X153055096Y-65033943D01*
X153059340Y-65032601D01*
X153063351Y-65030675D01*
X153063356Y-65030673D01*
X153289640Y-64922013D01*
X153289641Y-64922012D01*
X153293659Y-64920083D01*
X153397533Y-64850677D01*
X153506084Y-64778146D01*
X153506088Y-64778143D01*
X153509786Y-64775672D01*
X153563343Y-64727702D01*
X153700086Y-64605225D01*
X153700091Y-64605220D01*
X153703409Y-64602248D01*
X153715335Y-64588061D01*
X153839679Y-64440135D01*
X153870665Y-64403273D01*
X154008217Y-64182716D01*
X154009377Y-64180093D01*
X161036339Y-64180093D01*
X161036709Y-64186914D01*
X161042233Y-64237776D01*
X161045859Y-64253028D01*
X161091014Y-64373478D01*
X161099552Y-64389073D01*
X161176053Y-64491148D01*
X161188614Y-64503709D01*
X161290689Y-64580210D01*
X161306284Y-64588748D01*
X161426732Y-64633902D01*
X161441987Y-64637529D01*
X161492852Y-64643055D01*
X161499666Y-64643424D01*
X162122223Y-64643424D01*
X162137462Y-64638949D01*
X162138667Y-64637559D01*
X162140338Y-64629876D01*
X162140338Y-64625308D01*
X162648338Y-64625308D01*
X162652813Y-64640547D01*
X162654203Y-64641752D01*
X162661886Y-64643423D01*
X163289007Y-64643423D01*
X163295828Y-64643053D01*
X163346690Y-64637529D01*
X163361942Y-64633903D01*
X163482392Y-64588748D01*
X163497987Y-64580210D01*
X163600062Y-64503709D01*
X163612623Y-64491148D01*
X163689124Y-64389073D01*
X163697663Y-64373476D01*
X163738763Y-64263842D01*
X163781404Y-64207077D01*
X163847966Y-64182377D01*
X163917315Y-64197584D01*
X163951983Y-64225574D01*
X163977557Y-64255098D01*
X163984918Y-64262307D01*
X164148772Y-64398340D01*
X164157219Y-64404255D01*
X164341094Y-64511703D01*
X164350380Y-64516153D01*
X164549339Y-64592127D01*
X164559237Y-64595003D01*
X164662588Y-64616030D01*
X164676637Y-64614834D01*
X164680338Y-64604489D01*
X164680338Y-64603941D01*
X165188338Y-64603941D01*
X165192402Y-64617783D01*
X165205816Y-64619817D01*
X165212522Y-64618958D01*
X165222600Y-64616816D01*
X165426593Y-64555615D01*
X165436180Y-64551857D01*
X165627433Y-64458163D01*
X165636283Y-64452888D01*
X165809666Y-64329216D01*
X165817538Y-64322563D01*
X165968390Y-64172236D01*
X165975061Y-64164396D01*
X166023928Y-64096391D01*
X166079923Y-64052743D01*
X166150626Y-64046297D01*
X166213591Y-64079100D01*
X166233683Y-64104082D01*
X166268787Y-64161365D01*
X166268790Y-64161370D01*
X166271490Y-64165775D01*
X166431426Y-64350411D01*
X166619370Y-64506445D01*
X166830275Y-64629687D01*
X166835100Y-64631529D01*
X166835101Y-64631530D01*
X166858714Y-64640547D01*
X167058476Y-64716829D01*
X167063542Y-64717860D01*
X167063543Y-64717860D01*
X167181985Y-64741957D01*
X167297846Y-64765529D01*
X167434884Y-64770554D01*
X167536792Y-64774292D01*
X167536797Y-64774292D01*
X167541956Y-64774481D01*
X167547077Y-64773825D01*
X167779121Y-64744099D01*
X167779122Y-64744099D01*
X167784249Y-64743442D01*
X167872955Y-64716829D01*
X168013267Y-64674733D01*
X168018220Y-64673247D01*
X168022859Y-64670974D01*
X168022865Y-64670972D01*
X168232946Y-64568054D01*
X168237584Y-64565782D01*
X168388460Y-64458163D01*
X168432239Y-64426936D01*
X168432244Y-64426932D01*
X168436451Y-64423931D01*
X168609480Y-64251506D01*
X168612496Y-64247308D01*
X168612500Y-64247304D01*
X168641645Y-64206744D01*
X168697639Y-64163095D01*
X168768343Y-64156649D01*
X168831307Y-64189451D01*
X168839206Y-64197772D01*
X168915039Y-64285316D01*
X168971426Y-64350411D01*
X169159370Y-64506445D01*
X169370275Y-64629687D01*
X169375100Y-64631529D01*
X169375101Y-64631530D01*
X169398714Y-64640547D01*
X169598476Y-64716829D01*
X169603542Y-64717860D01*
X169603543Y-64717860D01*
X169721985Y-64741957D01*
X169837846Y-64765529D01*
X169974884Y-64770554D01*
X170076792Y-64774292D01*
X170076797Y-64774292D01*
X170081956Y-64774481D01*
X170087077Y-64773825D01*
X170319121Y-64744099D01*
X170319122Y-64744099D01*
X170324249Y-64743442D01*
X170412955Y-64716829D01*
X170553267Y-64674733D01*
X170558220Y-64673247D01*
X170562859Y-64670974D01*
X170562865Y-64670972D01*
X170772946Y-64568054D01*
X170777584Y-64565782D01*
X170928460Y-64458163D01*
X170972239Y-64426936D01*
X170972244Y-64426932D01*
X170976451Y-64423931D01*
X171149480Y-64251506D01*
X171152500Y-64247304D01*
X171196199Y-64186490D01*
X171292024Y-64053135D01*
X171302732Y-64031470D01*
X171347247Y-63941399D01*
X171400254Y-63834147D01*
X171432911Y-63726661D01*
X171469761Y-63605375D01*
X171469762Y-63605369D01*
X171471265Y-63600423D01*
X171493179Y-63433972D01*
X171502712Y-63361561D01*
X171502713Y-63361555D01*
X171503149Y-63358239D01*
X171504044Y-63321637D01*
X171504847Y-63288788D01*
X171504847Y-63288784D01*
X171504929Y-63285424D01*
X171484914Y-63041972D01*
X171427298Y-62812593D01*
X171426664Y-62810070D01*
X171426664Y-62810069D01*
X171425405Y-62805058D01*
X171328001Y-62581044D01*
X171195318Y-62375947D01*
X171191458Y-62371704D01*
X171034397Y-62199097D01*
X171034391Y-62199091D01*
X171030919Y-62195275D01*
X171026868Y-62192076D01*
X171026864Y-62192072D01*
X170888965Y-62083167D01*
X170839218Y-62043879D01*
X170700079Y-61967070D01*
X170629897Y-61928327D01*
X170629895Y-61928326D01*
X170625366Y-61925826D01*
X170488713Y-61877435D01*
X170399975Y-61846011D01*
X170399972Y-61846010D01*
X170395103Y-61844286D01*
X170390014Y-61843379D01*
X170390012Y-61843379D01*
X170159703Y-61802354D01*
X170159699Y-61802354D01*
X170154615Y-61801448D01*
X170074948Y-61800475D01*
X169915530Y-61798527D01*
X169915528Y-61798527D01*
X169910360Y-61798464D01*
X169668897Y-61835413D01*
X169436711Y-61911303D01*
X169432123Y-61913691D01*
X169432119Y-61913693D01*
X169284309Y-61990638D01*
X169220037Y-62024096D01*
X169215904Y-62027199D01*
X169215901Y-62027201D01*
X169039144Y-62159915D01*
X169024696Y-62170763D01*
X169021124Y-62174501D01*
X168867161Y-62335614D01*
X168855931Y-62347365D01*
X168853020Y-62351632D01*
X168853017Y-62351636D01*
X168848738Y-62357909D01*
X168793827Y-62402911D01*
X168723302Y-62411082D01*
X168659555Y-62379828D01*
X168651469Y-62371717D01*
X168490919Y-62195275D01*
X168486868Y-62192076D01*
X168486864Y-62192072D01*
X168348965Y-62083167D01*
X168299218Y-62043879D01*
X168160079Y-61967070D01*
X168089897Y-61928327D01*
X168089895Y-61928326D01*
X168085366Y-61925826D01*
X167948713Y-61877435D01*
X167859975Y-61846011D01*
X167859972Y-61846010D01*
X167855103Y-61844286D01*
X167850014Y-61843379D01*
X167850012Y-61843379D01*
X167619703Y-61802354D01*
X167619699Y-61802354D01*
X167614615Y-61801448D01*
X167534948Y-61800475D01*
X167375530Y-61798527D01*
X167375528Y-61798527D01*
X167370360Y-61798464D01*
X167128897Y-61835413D01*
X166896711Y-61911303D01*
X166892123Y-61913691D01*
X166892119Y-61913693D01*
X166744309Y-61990638D01*
X166680037Y-62024096D01*
X166675904Y-62027199D01*
X166675901Y-62027201D01*
X166499144Y-62159915D01*
X166484696Y-62170763D01*
X166481124Y-62174501D01*
X166327161Y-62335614D01*
X166315931Y-62347365D01*
X166313019Y-62351634D01*
X166232403Y-62469813D01*
X166177491Y-62514816D01*
X166106966Y-62522987D01*
X166043219Y-62491733D01*
X166022523Y-62467251D01*
X166016763Y-62458348D01*
X166010474Y-62450181D01*
X165867144Y-62292664D01*
X165859611Y-62285639D01*
X165692477Y-62153646D01*
X165683890Y-62147941D01*
X165497455Y-62045023D01*
X165488043Y-62040793D01*
X165287297Y-61969704D01*
X165277326Y-61967070D01*
X165206175Y-61954396D01*
X165192878Y-61955856D01*
X165188338Y-61970413D01*
X165188338Y-64603941D01*
X164680338Y-64603941D01*
X164680338Y-63557539D01*
X164675863Y-63542300D01*
X164674473Y-63541095D01*
X164666790Y-63539424D01*
X162666453Y-63539424D01*
X162651214Y-63543899D01*
X162650009Y-63545289D01*
X162648338Y-63552972D01*
X162648338Y-64625308D01*
X162140338Y-64625308D01*
X162140338Y-63557539D01*
X162135863Y-63542300D01*
X162134473Y-63541095D01*
X162126790Y-63539424D01*
X161054454Y-63539424D01*
X161039215Y-63543899D01*
X161038010Y-63545289D01*
X161036339Y-63552972D01*
X161036339Y-64180093D01*
X154009377Y-64180093D01*
X154012851Y-64172236D01*
X154111521Y-63949046D01*
X154113319Y-63944979D01*
X154183876Y-63694804D01*
X154202927Y-63552972D01*
X154218052Y-63440365D01*
X154218053Y-63440357D01*
X154218479Y-63437183D01*
X154220603Y-63369586D01*
X154222009Y-63324859D01*
X154222009Y-63324854D01*
X154222110Y-63321637D01*
X154218018Y-63263835D01*
X154204067Y-63066801D01*
X154203752Y-63062352D01*
X154193193Y-63013309D01*
X161036338Y-63013309D01*
X161040813Y-63028548D01*
X161042203Y-63029753D01*
X161049886Y-63031424D01*
X162122223Y-63031424D01*
X162137462Y-63026949D01*
X162138667Y-63025559D01*
X162140338Y-63017876D01*
X162140338Y-63013309D01*
X162648338Y-63013309D01*
X162652813Y-63028548D01*
X162654203Y-63029753D01*
X162661886Y-63031424D01*
X164662223Y-63031424D01*
X164677462Y-63026949D01*
X164678667Y-63025559D01*
X164680338Y-63017876D01*
X164680338Y-61968526D01*
X164676420Y-61955182D01*
X164662144Y-61953195D01*
X164623662Y-61959084D01*
X164613626Y-61961475D01*
X164411206Y-62027636D01*
X164401697Y-62031633D01*
X164212801Y-62129966D01*
X164204076Y-62135460D01*
X164033771Y-62263329D01*
X164026064Y-62270172D01*
X163948432Y-62351409D01*
X163886908Y-62386839D01*
X163815995Y-62383382D01*
X163758209Y-62342136D01*
X163739356Y-62308588D01*
X163697662Y-62197370D01*
X163689124Y-62181775D01*
X163612623Y-62079700D01*
X163600062Y-62067139D01*
X163497987Y-61990638D01*
X163482392Y-61982100D01*
X163361944Y-61936946D01*
X163346689Y-61933319D01*
X163295824Y-61927793D01*
X163289010Y-61927424D01*
X162666453Y-61927424D01*
X162651214Y-61931899D01*
X162650009Y-61933289D01*
X162648338Y-61940972D01*
X162648338Y-63013309D01*
X162140338Y-63013309D01*
X162140338Y-61945540D01*
X162135863Y-61930301D01*
X162134473Y-61929096D01*
X162126790Y-61927425D01*
X161499669Y-61927425D01*
X161492848Y-61927795D01*
X161441986Y-61933319D01*
X161426734Y-61936945D01*
X161306284Y-61982100D01*
X161290689Y-61990638D01*
X161188614Y-62067139D01*
X161176053Y-62079700D01*
X161099552Y-62181775D01*
X161091014Y-62197370D01*
X161045860Y-62317818D01*
X161042233Y-62333073D01*
X161036707Y-62383938D01*
X161036338Y-62390752D01*
X161036338Y-63013309D01*
X154193193Y-63013309D01*
X154149043Y-62808241D01*
X154146220Y-62800587D01*
X154060616Y-62568550D01*
X154059075Y-62564373D01*
X154009279Y-62472085D01*
X153937757Y-62339530D01*
X153937757Y-62339529D01*
X153935644Y-62335614D01*
X153781212Y-62126530D01*
X153775571Y-62120799D01*
X153639033Y-61982100D01*
X153598860Y-61941291D01*
X153595320Y-61938590D01*
X153595314Y-61938584D01*
X153395768Y-61786295D01*
X153395764Y-61786292D01*
X153392227Y-61783593D01*
X153297669Y-61730638D01*
X153169325Y-61658762D01*
X153169319Y-61658759D01*
X153165435Y-61656584D01*
X153161277Y-61654976D01*
X153161272Y-61654973D01*
X152927166Y-61564404D01*
X152927160Y-61564402D01*
X152923011Y-61562797D01*
X152918679Y-61561793D01*
X152918676Y-61561792D01*
X152814544Y-61537656D01*
X152669790Y-61504104D01*
X152410825Y-61481675D01*
X152406390Y-61481919D01*
X152406386Y-61481919D01*
X152301279Y-61487704D01*
X152151284Y-61495958D01*
X152146921Y-61496826D01*
X152146920Y-61496826D01*
X151900713Y-61545800D01*
X151900711Y-61545801D01*
X151896345Y-61546669D01*
X151651094Y-61632795D01*
X151420425Y-61752618D01*
X151416810Y-61755201D01*
X151416804Y-61755205D01*
X151212561Y-61901159D01*
X151212557Y-61901162D01*
X151208940Y-61903747D01*
X151020860Y-62083167D01*
X151018104Y-62086663D01*
X151018103Y-62086664D01*
X150950771Y-62172074D01*
X150859936Y-62287297D01*
X150729381Y-62512066D01*
X150727713Y-62516183D01*
X150727710Y-62516190D01*
X150699523Y-62585781D01*
X150631797Y-62752987D01*
X150569134Y-63005255D01*
X150542640Y-63263835D01*
X150552845Y-63523569D01*
X150599545Y-63779273D01*
X150613768Y-63821906D01*
X150662154Y-63966935D01*
X150681808Y-64025847D01*
X150693125Y-64048496D01*
X150794564Y-64251506D01*
X150797993Y-64258369D01*
X150945782Y-64472202D01*
X150986410Y-64516153D01*
X151091360Y-64629687D01*
X151122225Y-64663077D01*
X151125679Y-64665889D01*
X151320346Y-64824373D01*
X151320350Y-64824376D01*
X151323803Y-64827187D01*
X151546493Y-64961257D01*
X151639285Y-65000550D01*
X151781749Y-65060876D01*
X151781754Y-65060878D01*
X151785852Y-65062613D01*
X151790149Y-65063752D01*
X151790154Y-65063754D01*
X151911478Y-65095922D01*
X152037104Y-65129231D01*
X152041523Y-65129754D01*
X152241078Y-65153373D01*
X152306375Y-65181244D01*
X152346239Y-65239992D01*
X152348013Y-65310966D01*
X152311134Y-65371633D01*
X152247310Y-65402731D01*
X152226268Y-65404500D01*
X148716500Y-65404500D01*
X148648379Y-65384498D01*
X148601886Y-65330842D01*
X148590500Y-65278500D01*
X148590500Y-59238948D01*
X168198529Y-59238948D01*
X168200800Y-59296750D01*
X168206827Y-59450135D01*
X168208734Y-59498682D01*
X168255434Y-59754386D01*
X168337697Y-60000960D01*
X168339690Y-60004948D01*
X168414049Y-60153763D01*
X168453882Y-60233482D01*
X168601671Y-60447315D01*
X168778114Y-60638190D01*
X168781568Y-60641002D01*
X168976235Y-60799486D01*
X168976239Y-60799489D01*
X168979692Y-60802300D01*
X169202382Y-60936370D01*
X169240387Y-60952463D01*
X169437638Y-61035989D01*
X169437643Y-61035991D01*
X169441741Y-61037726D01*
X169446038Y-61038865D01*
X169446043Y-61038867D01*
X169567367Y-61071035D01*
X169692993Y-61104344D01*
X169951125Y-61134896D01*
X170210987Y-61128772D01*
X170215385Y-61128040D01*
X170463004Y-61086825D01*
X170463008Y-61086824D01*
X170467394Y-61086094D01*
X170471635Y-61084753D01*
X170471638Y-61084752D01*
X170710983Y-61009057D01*
X170710985Y-61009056D01*
X170715229Y-61007714D01*
X170719240Y-61005788D01*
X170719245Y-61005786D01*
X170945529Y-60897126D01*
X170945530Y-60897125D01*
X170949548Y-60895196D01*
X170953254Y-60892720D01*
X171161973Y-60753259D01*
X171161977Y-60753256D01*
X171165675Y-60750785D01*
X171288245Y-60641002D01*
X171355975Y-60580338D01*
X171355980Y-60580333D01*
X171359298Y-60577361D01*
X171526554Y-60378386D01*
X171664106Y-60157829D01*
X171668941Y-60146894D01*
X171767410Y-59924159D01*
X171769208Y-59920092D01*
X171839765Y-59669917D01*
X171853771Y-59565641D01*
X171873941Y-59415478D01*
X171873942Y-59415470D01*
X171874368Y-59412296D01*
X171877999Y-59296750D01*
X171873907Y-59238948D01*
X171859956Y-59041914D01*
X171859641Y-59037465D01*
X171804932Y-58783354D01*
X171771904Y-58693826D01*
X171716505Y-58543663D01*
X171714964Y-58539486D01*
X171646486Y-58412573D01*
X171593646Y-58314643D01*
X171593646Y-58314642D01*
X171591533Y-58310727D01*
X171437101Y-58101643D01*
X171397857Y-58061777D01*
X171257880Y-57919585D01*
X171254749Y-57916404D01*
X171251209Y-57913703D01*
X171251203Y-57913697D01*
X171051657Y-57761408D01*
X171051653Y-57761405D01*
X171048116Y-57758706D01*
X170920197Y-57687068D01*
X170825214Y-57633875D01*
X170825208Y-57633872D01*
X170821324Y-57631697D01*
X170817166Y-57630089D01*
X170817161Y-57630086D01*
X170583055Y-57539517D01*
X170583049Y-57539515D01*
X170578900Y-57537910D01*
X170574568Y-57536906D01*
X170574565Y-57536905D01*
X170470433Y-57512769D01*
X170325679Y-57479217D01*
X170066714Y-57456788D01*
X170062279Y-57457032D01*
X170062275Y-57457032D01*
X169957168Y-57462817D01*
X169807173Y-57471071D01*
X169802810Y-57471939D01*
X169802809Y-57471939D01*
X169556602Y-57520913D01*
X169556600Y-57520914D01*
X169552234Y-57521782D01*
X169306983Y-57607908D01*
X169076314Y-57727731D01*
X169072699Y-57730314D01*
X169072693Y-57730318D01*
X168868450Y-57876272D01*
X168868446Y-57876275D01*
X168864829Y-57878860D01*
X168676749Y-58058280D01*
X168673993Y-58061776D01*
X168673992Y-58061777D01*
X168526693Y-58248624D01*
X168515825Y-58262410D01*
X168513589Y-58266259D01*
X168513588Y-58266261D01*
X168485486Y-58314643D01*
X168385270Y-58487179D01*
X168383602Y-58491296D01*
X168383599Y-58491303D01*
X168289360Y-58723967D01*
X168287686Y-58728100D01*
X168225023Y-58980368D01*
X168198529Y-59238948D01*
X148590500Y-59238948D01*
X148590500Y-50217115D01*
X157925057Y-50217115D01*
X157935262Y-50476849D01*
X157981962Y-50732553D01*
X158064225Y-50979127D01*
X158066218Y-50983115D01*
X158156559Y-51163915D01*
X158180410Y-51211649D01*
X158328199Y-51425482D01*
X158331221Y-51428751D01*
X158431807Y-51537564D01*
X158504642Y-51616357D01*
X158508096Y-51619169D01*
X158702763Y-51777653D01*
X158702767Y-51777656D01*
X158706220Y-51780467D01*
X158928910Y-51914537D01*
X159021702Y-51953830D01*
X159164166Y-52014156D01*
X159164171Y-52014158D01*
X159168269Y-52015893D01*
X159172566Y-52017032D01*
X159172571Y-52017034D01*
X159293895Y-52049202D01*
X159419521Y-52082511D01*
X159677653Y-52113063D01*
X159937515Y-52106939D01*
X159972818Y-52101063D01*
X160189532Y-52064992D01*
X160189536Y-52064991D01*
X160193922Y-52064261D01*
X160198163Y-52062920D01*
X160198166Y-52062919D01*
X160437511Y-51987224D01*
X160437513Y-51987223D01*
X160441757Y-51985881D01*
X160445768Y-51983955D01*
X160445773Y-51983953D01*
X160672057Y-51875293D01*
X160672058Y-51875292D01*
X160676076Y-51873363D01*
X160779950Y-51803957D01*
X160888501Y-51731426D01*
X160888505Y-51731423D01*
X160892203Y-51728952D01*
X161014773Y-51619169D01*
X161082503Y-51558505D01*
X161082508Y-51558500D01*
X161085826Y-51555528D01*
X161097752Y-51541341D01*
X161219556Y-51396437D01*
X161253082Y-51356553D01*
X161390634Y-51135996D01*
X161412245Y-51087114D01*
X161493938Y-50902326D01*
X161495736Y-50898259D01*
X161566293Y-50648084D01*
X161589293Y-50476849D01*
X161600469Y-50393645D01*
X161600470Y-50393637D01*
X161600896Y-50390463D01*
X161604527Y-50274917D01*
X161600435Y-50217115D01*
X161586484Y-50020081D01*
X161586169Y-50015632D01*
X161531460Y-49761521D01*
X161509665Y-49702441D01*
X161443033Y-49521830D01*
X161441492Y-49517653D01*
X161318061Y-49288894D01*
X161163629Y-49079810D01*
X161129251Y-49044887D01*
X161074104Y-48988868D01*
X160981277Y-48894571D01*
X160977737Y-48891870D01*
X160977731Y-48891864D01*
X160778185Y-48739575D01*
X160778181Y-48739572D01*
X160774644Y-48736873D01*
X160681548Y-48684737D01*
X160551742Y-48612042D01*
X160551736Y-48612039D01*
X160547852Y-48609864D01*
X160543694Y-48608256D01*
X160543689Y-48608253D01*
X160309583Y-48517684D01*
X160309577Y-48517682D01*
X160305428Y-48516077D01*
X160301096Y-48515073D01*
X160301093Y-48515072D01*
X160196961Y-48490936D01*
X160052207Y-48457384D01*
X159793242Y-48434955D01*
X159788807Y-48435199D01*
X159788803Y-48435199D01*
X159683696Y-48440984D01*
X159533701Y-48449238D01*
X159529338Y-48450106D01*
X159529337Y-48450106D01*
X159283130Y-48499080D01*
X159283128Y-48499081D01*
X159278762Y-48499949D01*
X159033511Y-48586075D01*
X158802842Y-48705898D01*
X158799227Y-48708481D01*
X158799221Y-48708485D01*
X158594978Y-48854439D01*
X158594974Y-48854442D01*
X158591357Y-48857027D01*
X158403277Y-49036447D01*
X158242353Y-49240577D01*
X158240117Y-49244426D01*
X158240116Y-49244428D01*
X158212014Y-49292810D01*
X158111798Y-49465346D01*
X158110130Y-49469463D01*
X158110127Y-49469470D01*
X158106835Y-49477598D01*
X158014214Y-49706267D01*
X157951551Y-49958535D01*
X157925057Y-50217115D01*
X148590500Y-50217115D01*
X148590500Y-44726074D01*
X171952657Y-44726074D01*
X171954928Y-44783876D01*
X171960955Y-44937261D01*
X171962862Y-44985808D01*
X172009562Y-45241512D01*
X172091825Y-45488086D01*
X172093818Y-45492074D01*
X172168177Y-45640889D01*
X172208010Y-45720608D01*
X172355799Y-45934441D01*
X172532242Y-46125316D01*
X172535696Y-46128128D01*
X172730363Y-46286612D01*
X172730367Y-46286615D01*
X172733820Y-46289426D01*
X172956510Y-46423496D01*
X172994515Y-46439589D01*
X173191766Y-46523115D01*
X173191771Y-46523117D01*
X173195869Y-46524852D01*
X173200166Y-46525991D01*
X173200171Y-46525993D01*
X173321495Y-46558161D01*
X173447121Y-46591470D01*
X173705253Y-46622022D01*
X173965115Y-46615898D01*
X173969513Y-46615166D01*
X174217132Y-46573951D01*
X174217136Y-46573950D01*
X174221522Y-46573220D01*
X174225763Y-46571879D01*
X174225766Y-46571878D01*
X174465111Y-46496183D01*
X174465113Y-46496182D01*
X174469357Y-46494840D01*
X174473368Y-46492914D01*
X174473373Y-46492912D01*
X174699657Y-46384252D01*
X174699658Y-46384251D01*
X174703676Y-46382322D01*
X174707382Y-46379846D01*
X174916101Y-46240385D01*
X174916105Y-46240382D01*
X174919803Y-46237911D01*
X175042373Y-46128128D01*
X175110103Y-46067464D01*
X175110108Y-46067459D01*
X175113426Y-46064487D01*
X175280682Y-45865512D01*
X175418234Y-45644955D01*
X175423069Y-45634020D01*
X175521538Y-45411285D01*
X175523336Y-45407218D01*
X175593893Y-45157043D01*
X175607899Y-45052767D01*
X175628069Y-44902604D01*
X175628070Y-44902596D01*
X175628496Y-44899422D01*
X175632127Y-44783876D01*
X175628035Y-44726074D01*
X175614084Y-44529040D01*
X175613769Y-44524591D01*
X175563026Y-44288902D01*
X175559997Y-44274832D01*
X175559060Y-44270480D01*
X175555006Y-44259489D01*
X175470633Y-44030789D01*
X175469092Y-44026612D01*
X175455283Y-44001020D01*
X175347774Y-43801769D01*
X175347774Y-43801768D01*
X175345661Y-43797853D01*
X175191229Y-43588769D01*
X175151985Y-43548903D01*
X175012008Y-43406711D01*
X175008877Y-43403530D01*
X175005337Y-43400829D01*
X175005331Y-43400823D01*
X174805785Y-43248534D01*
X174805781Y-43248531D01*
X174802244Y-43245832D01*
X174718439Y-43198899D01*
X174579342Y-43121001D01*
X174579336Y-43120998D01*
X174575452Y-43118823D01*
X174571294Y-43117215D01*
X174571289Y-43117212D01*
X174337183Y-43026643D01*
X174337177Y-43026641D01*
X174333028Y-43025036D01*
X174328696Y-43024032D01*
X174328693Y-43024031D01*
X174224561Y-42999895D01*
X174079807Y-42966343D01*
X173820842Y-42943914D01*
X173816407Y-42944158D01*
X173816403Y-42944158D01*
X173711296Y-42949943D01*
X173561301Y-42958197D01*
X173556938Y-42959065D01*
X173556937Y-42959065D01*
X173310730Y-43008039D01*
X173310728Y-43008040D01*
X173306362Y-43008908D01*
X173061111Y-43095034D01*
X172830442Y-43214857D01*
X172826827Y-43217440D01*
X172826821Y-43217444D01*
X172622578Y-43363398D01*
X172622574Y-43363401D01*
X172618957Y-43365986D01*
X172430877Y-43545406D01*
X172428121Y-43548902D01*
X172428120Y-43548903D01*
X172308477Y-43700669D01*
X172269953Y-43749536D01*
X172267717Y-43753385D01*
X172267716Y-43753387D01*
X172240889Y-43799574D01*
X172139398Y-43974305D01*
X172137730Y-43978422D01*
X172137727Y-43978429D01*
X172050710Y-44193262D01*
X172041814Y-44215226D01*
X171979151Y-44467494D01*
X171952657Y-44726074D01*
X148590500Y-44726074D01*
X148590500Y-43835093D01*
X161036339Y-43835093D01*
X161036709Y-43841914D01*
X161042233Y-43892776D01*
X161045859Y-43908028D01*
X161091014Y-44028478D01*
X161099552Y-44044073D01*
X161176053Y-44146148D01*
X161188614Y-44158709D01*
X161290689Y-44235210D01*
X161306284Y-44243748D01*
X161426732Y-44288902D01*
X161441987Y-44292529D01*
X161492852Y-44298055D01*
X161499666Y-44298424D01*
X162122223Y-44298424D01*
X162137462Y-44293949D01*
X162138667Y-44292559D01*
X162140338Y-44284876D01*
X162140338Y-44280308D01*
X162648338Y-44280308D01*
X162652813Y-44295547D01*
X162654203Y-44296752D01*
X162661886Y-44298423D01*
X163289007Y-44298423D01*
X163295828Y-44298053D01*
X163346690Y-44292529D01*
X163361942Y-44288903D01*
X163482392Y-44243748D01*
X163497987Y-44235210D01*
X163600062Y-44158709D01*
X163612623Y-44146148D01*
X163689124Y-44044073D01*
X163697663Y-44028476D01*
X163738763Y-43918842D01*
X163781404Y-43862077D01*
X163847966Y-43837377D01*
X163917315Y-43852584D01*
X163951983Y-43880574D01*
X163977557Y-43910098D01*
X163984918Y-43917307D01*
X164148772Y-44053340D01*
X164157219Y-44059255D01*
X164341094Y-44166703D01*
X164350380Y-44171153D01*
X164549339Y-44247127D01*
X164559237Y-44250003D01*
X164662588Y-44271030D01*
X164676637Y-44269834D01*
X164680338Y-44259489D01*
X164680338Y-44258941D01*
X165188338Y-44258941D01*
X165192402Y-44272783D01*
X165205816Y-44274817D01*
X165212522Y-44273958D01*
X165222600Y-44271816D01*
X165426593Y-44210615D01*
X165436180Y-44206857D01*
X165627433Y-44113163D01*
X165636283Y-44107888D01*
X165809666Y-43984216D01*
X165817538Y-43977563D01*
X165968390Y-43827236D01*
X165975061Y-43819396D01*
X166023928Y-43751391D01*
X166079923Y-43707743D01*
X166150626Y-43701297D01*
X166213591Y-43734100D01*
X166233683Y-43759082D01*
X166268787Y-43816365D01*
X166268790Y-43816370D01*
X166271490Y-43820775D01*
X166431426Y-44005411D01*
X166619370Y-44161445D01*
X166830275Y-44284687D01*
X166835100Y-44286529D01*
X166835101Y-44286530D01*
X166858714Y-44295547D01*
X167058476Y-44371829D01*
X167063542Y-44372860D01*
X167063543Y-44372860D01*
X167181985Y-44396957D01*
X167297846Y-44420529D01*
X167434884Y-44425554D01*
X167536792Y-44429292D01*
X167536797Y-44429292D01*
X167541956Y-44429481D01*
X167611836Y-44420529D01*
X167779121Y-44399099D01*
X167779122Y-44399099D01*
X167784249Y-44398442D01*
X167872955Y-44371829D01*
X168013267Y-44329733D01*
X168018220Y-44328247D01*
X168022859Y-44325974D01*
X168022865Y-44325972D01*
X168231742Y-44223644D01*
X168237584Y-44220782D01*
X168313400Y-44166703D01*
X168432239Y-44081936D01*
X168432244Y-44081932D01*
X168436451Y-44078931D01*
X168609480Y-43906506D01*
X168612496Y-43902308D01*
X168612500Y-43902304D01*
X168641645Y-43861744D01*
X168697639Y-43818095D01*
X168768343Y-43811649D01*
X168831307Y-43844451D01*
X168839206Y-43852772D01*
X168888912Y-43910154D01*
X168971426Y-44005411D01*
X169159370Y-44161445D01*
X169370275Y-44284687D01*
X169375100Y-44286529D01*
X169375101Y-44286530D01*
X169398714Y-44295547D01*
X169598476Y-44371829D01*
X169603542Y-44372860D01*
X169603543Y-44372860D01*
X169721985Y-44396957D01*
X169837846Y-44420529D01*
X169974884Y-44425554D01*
X170076792Y-44429292D01*
X170076797Y-44429292D01*
X170081956Y-44429481D01*
X170151836Y-44420529D01*
X170319121Y-44399099D01*
X170319122Y-44399099D01*
X170324249Y-44398442D01*
X170412955Y-44371829D01*
X170553267Y-44329733D01*
X170558220Y-44328247D01*
X170562859Y-44325974D01*
X170562865Y-44325972D01*
X170771742Y-44223644D01*
X170777584Y-44220782D01*
X170853400Y-44166703D01*
X170972239Y-44081936D01*
X170972244Y-44081932D01*
X170976451Y-44078931D01*
X171149480Y-43906506D01*
X171152500Y-43902304D01*
X171209743Y-43822641D01*
X171292024Y-43708135D01*
X171298235Y-43695569D01*
X171366781Y-43556874D01*
X171400254Y-43489147D01*
X171437181Y-43367607D01*
X171469761Y-43260375D01*
X171469762Y-43260369D01*
X171471265Y-43255423D01*
X171492456Y-43094461D01*
X171502712Y-43016561D01*
X171502713Y-43016555D01*
X171503149Y-43013239D01*
X171503309Y-43006702D01*
X171504847Y-42943788D01*
X171504847Y-42943784D01*
X171504929Y-42940424D01*
X171484914Y-42696972D01*
X171425405Y-42460058D01*
X171328001Y-42236044D01*
X171195318Y-42030947D01*
X171191458Y-42026704D01*
X171034397Y-41854097D01*
X171034391Y-41854091D01*
X171030919Y-41850275D01*
X171026868Y-41847076D01*
X171026864Y-41847072D01*
X170890028Y-41739006D01*
X170839218Y-41698879D01*
X170727306Y-41637100D01*
X170629897Y-41583327D01*
X170629895Y-41583326D01*
X170625366Y-41580826D01*
X170443155Y-41516302D01*
X170399975Y-41501011D01*
X170399972Y-41501010D01*
X170395103Y-41499286D01*
X170390014Y-41498379D01*
X170390012Y-41498379D01*
X170159703Y-41457354D01*
X170159699Y-41457354D01*
X170154615Y-41456448D01*
X170074948Y-41455475D01*
X169915530Y-41453527D01*
X169915528Y-41453527D01*
X169910360Y-41453464D01*
X169668897Y-41490413D01*
X169436711Y-41566303D01*
X169432123Y-41568691D01*
X169432119Y-41568693D01*
X169224626Y-41676707D01*
X169220037Y-41679096D01*
X169215904Y-41682199D01*
X169215901Y-41682201D01*
X169030661Y-41821284D01*
X169024696Y-41825763D01*
X169021124Y-41829501D01*
X168859795Y-41998322D01*
X168855931Y-42002365D01*
X168853020Y-42006632D01*
X168853017Y-42006636D01*
X168848738Y-42012909D01*
X168793827Y-42057911D01*
X168723302Y-42066082D01*
X168659555Y-42034828D01*
X168651469Y-42026717D01*
X168490919Y-41850275D01*
X168486868Y-41847076D01*
X168486864Y-41847072D01*
X168350028Y-41739006D01*
X168299218Y-41698879D01*
X168187306Y-41637100D01*
X168089897Y-41583327D01*
X168089895Y-41583326D01*
X168085366Y-41580826D01*
X167903155Y-41516302D01*
X167859975Y-41501011D01*
X167859972Y-41501010D01*
X167855103Y-41499286D01*
X167850014Y-41498379D01*
X167850012Y-41498379D01*
X167619703Y-41457354D01*
X167619699Y-41457354D01*
X167614615Y-41456448D01*
X167534948Y-41455475D01*
X167375530Y-41453527D01*
X167375528Y-41453527D01*
X167370360Y-41453464D01*
X167128897Y-41490413D01*
X166896711Y-41566303D01*
X166892123Y-41568691D01*
X166892119Y-41568693D01*
X166684626Y-41676707D01*
X166680037Y-41679096D01*
X166675904Y-41682199D01*
X166675901Y-41682201D01*
X166490661Y-41821284D01*
X166484696Y-41825763D01*
X166481124Y-41829501D01*
X166319795Y-41998322D01*
X166315931Y-42002365D01*
X166313019Y-42006634D01*
X166232403Y-42124813D01*
X166177491Y-42169816D01*
X166106966Y-42177987D01*
X166043219Y-42146733D01*
X166022523Y-42122251D01*
X166016763Y-42113348D01*
X166010474Y-42105181D01*
X165867144Y-41947664D01*
X165859611Y-41940639D01*
X165692477Y-41808646D01*
X165683890Y-41802941D01*
X165497455Y-41700023D01*
X165488043Y-41695793D01*
X165287297Y-41624704D01*
X165277326Y-41622070D01*
X165206175Y-41609396D01*
X165192878Y-41610856D01*
X165188338Y-41625413D01*
X165188338Y-44258941D01*
X164680338Y-44258941D01*
X164680338Y-43212539D01*
X164675863Y-43197300D01*
X164674473Y-43196095D01*
X164666790Y-43194424D01*
X162666453Y-43194424D01*
X162651214Y-43198899D01*
X162650009Y-43200289D01*
X162648338Y-43207972D01*
X162648338Y-44280308D01*
X162140338Y-44280308D01*
X162140338Y-43212539D01*
X162135863Y-43197300D01*
X162134473Y-43196095D01*
X162126790Y-43194424D01*
X161054454Y-43194424D01*
X161039215Y-43198899D01*
X161038010Y-43200289D01*
X161036339Y-43207972D01*
X161036339Y-43835093D01*
X148590500Y-43835093D01*
X148590500Y-42668309D01*
X161036338Y-42668309D01*
X161040813Y-42683548D01*
X161042203Y-42684753D01*
X161049886Y-42686424D01*
X162122223Y-42686424D01*
X162137462Y-42681949D01*
X162138667Y-42680559D01*
X162140338Y-42672876D01*
X162140338Y-42668309D01*
X162648338Y-42668309D01*
X162652813Y-42683548D01*
X162654203Y-42684753D01*
X162661886Y-42686424D01*
X164662223Y-42686424D01*
X164677462Y-42681949D01*
X164678667Y-42680559D01*
X164680338Y-42672876D01*
X164680338Y-41623526D01*
X164676420Y-41610182D01*
X164662144Y-41608195D01*
X164623662Y-41614084D01*
X164613626Y-41616475D01*
X164411206Y-41682636D01*
X164401697Y-41686633D01*
X164212801Y-41784966D01*
X164204076Y-41790460D01*
X164033771Y-41918329D01*
X164026064Y-41925172D01*
X163948432Y-42006409D01*
X163886908Y-42041839D01*
X163815995Y-42038382D01*
X163758209Y-41997136D01*
X163739356Y-41963588D01*
X163697662Y-41852370D01*
X163689124Y-41836775D01*
X163612623Y-41734700D01*
X163600062Y-41722139D01*
X163497987Y-41645638D01*
X163482392Y-41637100D01*
X163361944Y-41591946D01*
X163346689Y-41588319D01*
X163295824Y-41582793D01*
X163289010Y-41582424D01*
X162666453Y-41582424D01*
X162651214Y-41586899D01*
X162650009Y-41588289D01*
X162648338Y-41595972D01*
X162648338Y-42668309D01*
X162140338Y-42668309D01*
X162140338Y-41600540D01*
X162135863Y-41585301D01*
X162134473Y-41584096D01*
X162126790Y-41582425D01*
X161499669Y-41582425D01*
X161492848Y-41582795D01*
X161441986Y-41588319D01*
X161426734Y-41591945D01*
X161306284Y-41637100D01*
X161290689Y-41645638D01*
X161188614Y-41722139D01*
X161176053Y-41734700D01*
X161099552Y-41836775D01*
X161091014Y-41852370D01*
X161045860Y-41972818D01*
X161042233Y-41988073D01*
X161036707Y-42038938D01*
X161036338Y-42045752D01*
X161036338Y-42668309D01*
X148590500Y-42668309D01*
X148590500Y-40766500D01*
X148610502Y-40698379D01*
X148664158Y-40651886D01*
X148716500Y-40640500D01*
X179578500Y-40640500D01*
X179646621Y-40660502D01*
G37*
%TD.AperFunction*%
%TA.AperFunction,Conductor*%
G36*
X147261621Y-40660502D02*
G01*
X147308114Y-40714158D01*
X147319500Y-40766500D01*
X147319500Y-65278500D01*
X147299498Y-65346621D01*
X147245842Y-65393114D01*
X147193500Y-65404500D01*
X121052155Y-65404500D01*
X120984034Y-65384498D01*
X120937541Y-65330842D01*
X120927437Y-65260568D01*
X120956931Y-65195988D01*
X120997613Y-65164917D01*
X121118640Y-65106801D01*
X121118641Y-65106800D01*
X121122659Y-65104871D01*
X121126365Y-65102395D01*
X121335084Y-64962934D01*
X121335088Y-64962931D01*
X121338786Y-64960460D01*
X121461356Y-64850677D01*
X121529086Y-64790013D01*
X121529091Y-64790008D01*
X121532409Y-64787036D01*
X121541962Y-64775672D01*
X121644802Y-64653328D01*
X121699665Y-64588061D01*
X121837217Y-64367504D01*
X121839965Y-64361290D01*
X121940521Y-64133834D01*
X121942319Y-64129767D01*
X121944263Y-64122876D01*
X121956609Y-64079100D01*
X121993229Y-63949256D01*
X129103339Y-63949256D01*
X129103709Y-63956077D01*
X129109233Y-64006939D01*
X129112859Y-64022191D01*
X129158014Y-64142641D01*
X129166552Y-64158236D01*
X129243053Y-64260311D01*
X129255614Y-64272872D01*
X129357689Y-64349373D01*
X129373284Y-64357911D01*
X129493732Y-64403065D01*
X129508987Y-64406692D01*
X129559852Y-64412218D01*
X129566666Y-64412587D01*
X130189223Y-64412587D01*
X130204462Y-64408112D01*
X130205667Y-64406722D01*
X130207338Y-64399039D01*
X130207338Y-64394471D01*
X130715338Y-64394471D01*
X130719813Y-64409710D01*
X130721203Y-64410915D01*
X130728886Y-64412586D01*
X131356007Y-64412586D01*
X131362828Y-64412216D01*
X131413690Y-64406692D01*
X131428942Y-64403066D01*
X131549392Y-64357911D01*
X131564987Y-64349373D01*
X131667062Y-64272872D01*
X131679623Y-64260311D01*
X131756124Y-64158236D01*
X131764663Y-64142639D01*
X131805763Y-64033005D01*
X131848404Y-63976240D01*
X131914966Y-63951540D01*
X131984315Y-63966747D01*
X132018983Y-63994737D01*
X132044557Y-64024261D01*
X132051918Y-64031470D01*
X132215772Y-64167503D01*
X132224219Y-64173418D01*
X132408094Y-64280866D01*
X132417380Y-64285316D01*
X132616339Y-64361290D01*
X132626237Y-64364166D01*
X132729588Y-64385193D01*
X132743637Y-64383997D01*
X132747338Y-64373652D01*
X132747338Y-64373104D01*
X133255338Y-64373104D01*
X133259402Y-64386946D01*
X133272816Y-64388980D01*
X133279522Y-64388121D01*
X133289600Y-64385979D01*
X133493593Y-64324778D01*
X133503180Y-64321020D01*
X133694433Y-64227326D01*
X133703283Y-64222051D01*
X133876666Y-64098379D01*
X133884538Y-64091726D01*
X134035390Y-63941399D01*
X134042061Y-63933559D01*
X134090928Y-63865554D01*
X134146923Y-63821906D01*
X134217626Y-63815460D01*
X134280591Y-63848263D01*
X134300683Y-63873245D01*
X134335787Y-63930528D01*
X134335790Y-63930533D01*
X134338490Y-63934938D01*
X134498426Y-64119574D01*
X134590601Y-64196099D01*
X134665606Y-64258369D01*
X134686370Y-64275608D01*
X134897275Y-64398850D01*
X134902100Y-64400692D01*
X134902101Y-64400693D01*
X134981223Y-64430907D01*
X135125476Y-64485992D01*
X135130542Y-64487023D01*
X135130543Y-64487023D01*
X135256284Y-64512605D01*
X135364846Y-64534692D01*
X135501884Y-64539717D01*
X135603792Y-64543455D01*
X135603797Y-64543455D01*
X135608956Y-64543644D01*
X135678836Y-64534692D01*
X135846121Y-64513262D01*
X135846122Y-64513262D01*
X135851249Y-64512605D01*
X135882798Y-64503140D01*
X136080267Y-64443896D01*
X136085220Y-64442410D01*
X136089859Y-64440137D01*
X136089865Y-64440135D01*
X136299946Y-64337217D01*
X136304584Y-64334945D01*
X136392405Y-64272303D01*
X136499239Y-64196099D01*
X136499244Y-64196095D01*
X136503451Y-64193094D01*
X136676480Y-64020669D01*
X136679496Y-64016471D01*
X136679500Y-64016467D01*
X136708645Y-63975907D01*
X136764639Y-63932258D01*
X136835343Y-63925812D01*
X136898307Y-63958614D01*
X136906206Y-63966935D01*
X136955912Y-64024317D01*
X137038426Y-64119574D01*
X137130601Y-64196099D01*
X137205606Y-64258369D01*
X137226370Y-64275608D01*
X137437275Y-64398850D01*
X137442100Y-64400692D01*
X137442101Y-64400693D01*
X137521223Y-64430907D01*
X137665476Y-64485992D01*
X137670542Y-64487023D01*
X137670543Y-64487023D01*
X137796284Y-64512605D01*
X137904846Y-64534692D01*
X138041884Y-64539717D01*
X138143792Y-64543455D01*
X138143797Y-64543455D01*
X138148956Y-64543644D01*
X138218836Y-64534692D01*
X138386121Y-64513262D01*
X138386122Y-64513262D01*
X138391249Y-64512605D01*
X138422798Y-64503140D01*
X138620267Y-64443896D01*
X138625220Y-64442410D01*
X138629859Y-64440137D01*
X138629865Y-64440135D01*
X138839946Y-64337217D01*
X138844584Y-64334945D01*
X138932405Y-64272303D01*
X139039239Y-64196099D01*
X139039244Y-64196095D01*
X139043451Y-64193094D01*
X139216480Y-64020669D01*
X139219500Y-64016467D01*
X139281253Y-63930528D01*
X139359024Y-63822298D01*
X139382454Y-63774892D01*
X139424214Y-63690395D01*
X139467254Y-63603310D01*
X139484882Y-63545289D01*
X139536761Y-63374538D01*
X139536762Y-63374532D01*
X139538265Y-63369586D01*
X139554959Y-63242785D01*
X139569712Y-63130724D01*
X139569713Y-63130718D01*
X139570149Y-63127402D01*
X139570231Y-63124049D01*
X139571847Y-63057951D01*
X139571847Y-63057947D01*
X139571929Y-63054587D01*
X139551914Y-62811135D01*
X139492405Y-62574221D01*
X139417917Y-62402911D01*
X139397061Y-62354944D01*
X139397059Y-62354941D01*
X139395001Y-62350207D01*
X139262318Y-62145110D01*
X139258458Y-62140867D01*
X139101397Y-61968260D01*
X139101391Y-61968254D01*
X139097919Y-61964438D01*
X139093868Y-61961239D01*
X139093864Y-61961235D01*
X138910276Y-61816247D01*
X138906218Y-61813042D01*
X138801447Y-61755205D01*
X138696897Y-61697490D01*
X138696895Y-61697489D01*
X138692366Y-61694989D01*
X138512581Y-61631324D01*
X138466975Y-61615174D01*
X138466972Y-61615173D01*
X138462103Y-61613449D01*
X138457014Y-61612542D01*
X138457012Y-61612542D01*
X138226703Y-61571517D01*
X138226699Y-61571517D01*
X138221615Y-61570611D01*
X138141948Y-61569638D01*
X137982530Y-61567690D01*
X137982528Y-61567690D01*
X137977360Y-61567627D01*
X137735897Y-61604576D01*
X137503711Y-61680466D01*
X137499123Y-61682854D01*
X137499119Y-61682856D01*
X137291626Y-61790870D01*
X137287037Y-61793259D01*
X137282904Y-61796362D01*
X137282901Y-61796364D01*
X137097785Y-61935354D01*
X137091696Y-61939926D01*
X137062562Y-61970413D01*
X136954812Y-62083167D01*
X136922931Y-62116528D01*
X136920020Y-62120795D01*
X136920017Y-62120799D01*
X136915738Y-62127072D01*
X136860827Y-62172074D01*
X136790302Y-62180245D01*
X136726555Y-62148991D01*
X136718469Y-62140880D01*
X136557919Y-61964438D01*
X136553868Y-61961239D01*
X136553864Y-61961235D01*
X136370276Y-61816247D01*
X136366218Y-61813042D01*
X136261447Y-61755205D01*
X136156897Y-61697490D01*
X136156895Y-61697489D01*
X136152366Y-61694989D01*
X135972581Y-61631324D01*
X135926975Y-61615174D01*
X135926972Y-61615173D01*
X135922103Y-61613449D01*
X135917014Y-61612542D01*
X135917012Y-61612542D01*
X135686703Y-61571517D01*
X135686699Y-61571517D01*
X135681615Y-61570611D01*
X135601948Y-61569638D01*
X135442530Y-61567690D01*
X135442528Y-61567690D01*
X135437360Y-61567627D01*
X135195897Y-61604576D01*
X134963711Y-61680466D01*
X134959123Y-61682854D01*
X134959119Y-61682856D01*
X134751626Y-61790870D01*
X134747037Y-61793259D01*
X134742904Y-61796362D01*
X134742901Y-61796364D01*
X134557785Y-61935354D01*
X134551696Y-61939926D01*
X134522562Y-61970413D01*
X134414812Y-62083167D01*
X134382931Y-62116528D01*
X134312795Y-62219344D01*
X134299403Y-62238976D01*
X134244491Y-62283979D01*
X134173966Y-62292150D01*
X134110219Y-62260896D01*
X134089523Y-62236414D01*
X134083763Y-62227511D01*
X134077474Y-62219344D01*
X133934144Y-62061827D01*
X133926611Y-62054802D01*
X133759477Y-61922809D01*
X133750890Y-61917104D01*
X133564455Y-61814186D01*
X133555043Y-61809956D01*
X133354297Y-61738867D01*
X133344326Y-61736233D01*
X133273175Y-61723559D01*
X133259878Y-61725019D01*
X133255338Y-61739576D01*
X133255338Y-64373104D01*
X132747338Y-64373104D01*
X132747338Y-63326702D01*
X132742863Y-63311463D01*
X132741473Y-63310258D01*
X132733790Y-63308587D01*
X130733453Y-63308587D01*
X130718214Y-63313062D01*
X130717009Y-63314452D01*
X130715338Y-63322135D01*
X130715338Y-64394471D01*
X130207338Y-64394471D01*
X130207338Y-63326702D01*
X130202863Y-63311463D01*
X130201473Y-63310258D01*
X130193790Y-63308587D01*
X129121454Y-63308587D01*
X129106215Y-63313062D01*
X129105010Y-63314452D01*
X129103339Y-63322135D01*
X129103339Y-63949256D01*
X121993229Y-63949256D01*
X122012876Y-63879592D01*
X122026939Y-63774892D01*
X122047052Y-63625153D01*
X122047053Y-63625145D01*
X122047479Y-63621971D01*
X122048001Y-63605375D01*
X122051009Y-63509647D01*
X122051009Y-63509642D01*
X122051110Y-63506425D01*
X122047018Y-63448623D01*
X122033067Y-63251589D01*
X122032752Y-63247140D01*
X121978043Y-62993029D01*
X121911477Y-62812593D01*
X121900364Y-62782472D01*
X129103338Y-62782472D01*
X129107813Y-62797711D01*
X129109203Y-62798916D01*
X129116886Y-62800587D01*
X130189223Y-62800587D01*
X130204462Y-62796112D01*
X130205667Y-62794722D01*
X130207338Y-62787039D01*
X130207338Y-62782472D01*
X130715338Y-62782472D01*
X130719813Y-62797711D01*
X130721203Y-62798916D01*
X130728886Y-62800587D01*
X132729223Y-62800587D01*
X132744462Y-62796112D01*
X132745667Y-62794722D01*
X132747338Y-62787039D01*
X132747338Y-61737689D01*
X132743420Y-61724345D01*
X132729144Y-61722358D01*
X132690662Y-61728247D01*
X132680626Y-61730638D01*
X132478206Y-61796799D01*
X132468697Y-61800796D01*
X132279801Y-61899129D01*
X132271076Y-61904623D01*
X132100771Y-62032492D01*
X132093064Y-62039335D01*
X132015432Y-62120572D01*
X131953908Y-62156002D01*
X131882995Y-62152545D01*
X131825209Y-62111299D01*
X131806356Y-62077751D01*
X131764662Y-61966533D01*
X131756124Y-61950938D01*
X131679623Y-61848863D01*
X131667062Y-61836302D01*
X131564987Y-61759801D01*
X131549392Y-61751263D01*
X131428944Y-61706109D01*
X131413689Y-61702482D01*
X131362824Y-61696956D01*
X131356010Y-61696587D01*
X130733453Y-61696587D01*
X130718214Y-61701062D01*
X130717009Y-61702452D01*
X130715338Y-61710135D01*
X130715338Y-62782472D01*
X130207338Y-62782472D01*
X130207338Y-61714703D01*
X130202863Y-61699464D01*
X130201473Y-61698259D01*
X130193790Y-61696588D01*
X129566669Y-61696588D01*
X129559848Y-61696958D01*
X129508986Y-61702482D01*
X129493734Y-61706108D01*
X129373284Y-61751263D01*
X129357689Y-61759801D01*
X129255614Y-61836302D01*
X129243053Y-61848863D01*
X129166552Y-61950938D01*
X129158014Y-61966533D01*
X129112860Y-62086981D01*
X129109233Y-62102236D01*
X129103707Y-62153101D01*
X129103338Y-62159915D01*
X129103338Y-62782472D01*
X121900364Y-62782472D01*
X121889616Y-62753338D01*
X121888075Y-62749161D01*
X121799920Y-62585781D01*
X121766757Y-62524318D01*
X121766757Y-62524317D01*
X121764644Y-62520402D01*
X121610212Y-62311318D01*
X121590356Y-62291147D01*
X121498040Y-62197370D01*
X121427860Y-62126079D01*
X121424320Y-62123378D01*
X121424314Y-62123372D01*
X121224768Y-61971083D01*
X121224764Y-61971080D01*
X121221227Y-61968381D01*
X121165917Y-61937406D01*
X120998325Y-61843550D01*
X120998319Y-61843547D01*
X120994435Y-61841372D01*
X120990277Y-61839764D01*
X120990272Y-61839761D01*
X120756166Y-61749192D01*
X120756160Y-61749190D01*
X120752011Y-61747585D01*
X120747679Y-61746581D01*
X120747676Y-61746580D01*
X120590439Y-61710135D01*
X120498790Y-61688892D01*
X120239825Y-61666463D01*
X120235390Y-61666707D01*
X120235386Y-61666707D01*
X120130279Y-61672492D01*
X119980284Y-61680746D01*
X119975921Y-61681614D01*
X119975920Y-61681614D01*
X119729713Y-61730588D01*
X119729711Y-61730589D01*
X119725345Y-61731457D01*
X119480094Y-61817583D01*
X119249425Y-61937406D01*
X119245810Y-61939989D01*
X119245804Y-61939993D01*
X119041561Y-62085947D01*
X119041557Y-62085950D01*
X119037940Y-62088535D01*
X118849860Y-62267955D01*
X118847104Y-62271451D01*
X118847103Y-62271452D01*
X118761666Y-62379828D01*
X118688936Y-62472085D01*
X118686700Y-62475934D01*
X118686699Y-62475936D01*
X118659370Y-62522987D01*
X118558381Y-62696854D01*
X118556713Y-62700971D01*
X118556710Y-62700978D01*
X118462471Y-62933642D01*
X118460797Y-62937775D01*
X118398134Y-63190043D01*
X118371640Y-63448623D01*
X118381845Y-63708357D01*
X118428545Y-63964061D01*
X118429954Y-63968284D01*
X118506517Y-64197772D01*
X118510808Y-64210635D01*
X118545901Y-64280866D01*
X118611534Y-64412218D01*
X118626993Y-64443157D01*
X118675446Y-64513262D01*
X118757186Y-64631530D01*
X118774782Y-64656990D01*
X118951225Y-64847865D01*
X118954679Y-64850677D01*
X119149346Y-65009161D01*
X119149350Y-65009164D01*
X119152803Y-65011975D01*
X119156625Y-65014276D01*
X119348434Y-65129754D01*
X119375493Y-65146045D01*
X119392057Y-65153059D01*
X119414291Y-65162474D01*
X119469220Y-65207455D01*
X119491111Y-65274992D01*
X119473013Y-65343644D01*
X119420673Y-65391612D01*
X119365160Y-65404500D01*
X116331500Y-65404500D01*
X116263379Y-65384498D01*
X116216886Y-65330842D01*
X116205500Y-65278500D01*
X116205500Y-59389111D01*
X136148529Y-59389111D01*
X136158734Y-59648845D01*
X136205434Y-59904549D01*
X136287697Y-60151123D01*
X136289690Y-60155111D01*
X136364049Y-60303926D01*
X136403882Y-60383645D01*
X136551671Y-60597478D01*
X136554693Y-60600747D01*
X136693387Y-60750785D01*
X136728114Y-60788353D01*
X136731568Y-60791165D01*
X136926235Y-60949649D01*
X136926239Y-60949652D01*
X136929692Y-60952463D01*
X136933514Y-60954764D01*
X137071314Y-61037726D01*
X137152382Y-61086533D01*
X137194444Y-61104344D01*
X137387638Y-61186152D01*
X137387643Y-61186154D01*
X137391741Y-61187889D01*
X137396038Y-61189028D01*
X137396043Y-61189030D01*
X137517367Y-61221198D01*
X137642993Y-61254507D01*
X137901125Y-61285059D01*
X138160987Y-61278935D01*
X138165385Y-61278203D01*
X138413004Y-61236988D01*
X138413008Y-61236987D01*
X138417394Y-61236257D01*
X138421635Y-61234916D01*
X138421638Y-61234915D01*
X138660983Y-61159220D01*
X138660985Y-61159219D01*
X138665229Y-61157877D01*
X138669240Y-61155951D01*
X138669245Y-61155949D01*
X138895529Y-61047289D01*
X138895530Y-61047288D01*
X138899548Y-61045359D01*
X138910972Y-61037726D01*
X139111973Y-60903422D01*
X139111977Y-60903419D01*
X139115675Y-60900948D01*
X139225813Y-60802300D01*
X139305975Y-60730501D01*
X139305980Y-60730496D01*
X139309298Y-60727524D01*
X139476554Y-60528549D01*
X139614106Y-60307992D01*
X139647047Y-60233482D01*
X139717410Y-60074322D01*
X139719208Y-60070255D01*
X139789765Y-59820080D01*
X139812765Y-59648845D01*
X139823941Y-59565641D01*
X139823942Y-59565633D01*
X139824368Y-59562459D01*
X139827999Y-59446913D01*
X139823907Y-59389111D01*
X139809956Y-59192077D01*
X139809641Y-59187628D01*
X139754932Y-58933517D01*
X139680747Y-58732429D01*
X139666505Y-58693826D01*
X139664964Y-58689649D01*
X139541533Y-58460890D01*
X139387101Y-58251806D01*
X139347857Y-58211940D01*
X139207880Y-58069748D01*
X139204749Y-58066567D01*
X139201209Y-58063866D01*
X139201203Y-58063860D01*
X139001657Y-57911571D01*
X139001653Y-57911568D01*
X138998116Y-57908869D01*
X138939142Y-57875842D01*
X138775214Y-57784038D01*
X138775208Y-57784035D01*
X138771324Y-57781860D01*
X138767166Y-57780252D01*
X138767161Y-57780249D01*
X138533055Y-57689680D01*
X138533049Y-57689678D01*
X138528900Y-57688073D01*
X138524568Y-57687069D01*
X138524565Y-57687068D01*
X138420433Y-57662932D01*
X138275679Y-57629380D01*
X138016714Y-57606951D01*
X138012279Y-57607195D01*
X138012275Y-57607195D01*
X137907168Y-57612980D01*
X137757173Y-57621234D01*
X137752810Y-57622102D01*
X137752809Y-57622102D01*
X137506602Y-57671076D01*
X137506600Y-57671077D01*
X137502234Y-57671945D01*
X137256983Y-57758071D01*
X137026314Y-57877894D01*
X137022699Y-57880477D01*
X137022693Y-57880481D01*
X136818450Y-58026435D01*
X136818446Y-58026438D01*
X136814829Y-58029023D01*
X136626749Y-58208443D01*
X136623993Y-58211939D01*
X136623992Y-58211940D01*
X136581169Y-58266261D01*
X136465825Y-58412573D01*
X136463589Y-58416422D01*
X136463588Y-58416424D01*
X136435486Y-58464806D01*
X136335270Y-58637342D01*
X136333602Y-58641459D01*
X136333599Y-58641466D01*
X136239360Y-58874130D01*
X136237686Y-58878263D01*
X136175023Y-59130531D01*
X136148529Y-59389111D01*
X116205500Y-59389111D01*
X116205500Y-50401903D01*
X125754057Y-50401903D01*
X125764262Y-50661637D01*
X125810962Y-50917341D01*
X125812371Y-50921564D01*
X125883911Y-51135996D01*
X125893225Y-51163915D01*
X125918905Y-51215308D01*
X125969577Y-51316718D01*
X126009410Y-51396437D01*
X126157199Y-51610270D01*
X126333642Y-51801145D01*
X126337096Y-51803957D01*
X126531763Y-51962441D01*
X126531767Y-51962444D01*
X126535220Y-51965255D01*
X126539042Y-51967556D01*
X126730851Y-52083034D01*
X126757910Y-52099325D01*
X126850702Y-52138618D01*
X126993166Y-52198944D01*
X126993171Y-52198946D01*
X126997269Y-52200681D01*
X127001566Y-52201820D01*
X127001571Y-52201822D01*
X127122895Y-52233990D01*
X127248521Y-52267299D01*
X127506653Y-52297851D01*
X127766515Y-52291727D01*
X127770913Y-52290995D01*
X128018532Y-52249780D01*
X128018536Y-52249779D01*
X128022922Y-52249049D01*
X128027163Y-52247708D01*
X128027166Y-52247707D01*
X128266511Y-52172012D01*
X128266513Y-52172011D01*
X128270757Y-52170669D01*
X128274768Y-52168743D01*
X128274773Y-52168741D01*
X128501057Y-52060081D01*
X128501058Y-52060080D01*
X128505076Y-52058151D01*
X128508782Y-52055675D01*
X128717501Y-51916214D01*
X128717505Y-51916211D01*
X128721203Y-51913740D01*
X128843773Y-51803957D01*
X128911503Y-51743293D01*
X128911508Y-51743288D01*
X128914826Y-51740316D01*
X128924379Y-51728952D01*
X129067654Y-51558505D01*
X129082082Y-51541341D01*
X129219634Y-51320784D01*
X129266265Y-51215308D01*
X129322938Y-51087114D01*
X129324736Y-51083047D01*
X129395293Y-50832872D01*
X129418293Y-50661637D01*
X129429469Y-50578433D01*
X129429470Y-50578425D01*
X129429896Y-50575251D01*
X129433527Y-50459705D01*
X129429435Y-50401903D01*
X129415484Y-50204869D01*
X129415169Y-50200420D01*
X129360460Y-49946309D01*
X129293894Y-49765873D01*
X129272033Y-49706618D01*
X129270492Y-49702441D01*
X129147061Y-49473682D01*
X128992629Y-49264598D01*
X128972774Y-49244428D01*
X128813408Y-49082540D01*
X128810277Y-49079359D01*
X128806737Y-49076658D01*
X128806731Y-49076652D01*
X128607185Y-48924363D01*
X128607181Y-48924360D01*
X128603644Y-48921661D01*
X128483610Y-48854439D01*
X128380742Y-48796830D01*
X128380736Y-48796827D01*
X128376852Y-48794652D01*
X128372694Y-48793044D01*
X128372689Y-48793041D01*
X128138583Y-48702472D01*
X128138577Y-48702470D01*
X128134428Y-48700865D01*
X128130096Y-48699861D01*
X128130093Y-48699860D01*
X128025961Y-48675724D01*
X127881207Y-48642172D01*
X127622242Y-48619743D01*
X127617807Y-48619987D01*
X127617803Y-48619987D01*
X127512696Y-48625772D01*
X127362701Y-48634026D01*
X127358338Y-48634894D01*
X127358337Y-48634894D01*
X127112130Y-48683868D01*
X127112128Y-48683869D01*
X127107762Y-48684737D01*
X126862511Y-48770863D01*
X126631842Y-48890686D01*
X126628227Y-48893269D01*
X126628221Y-48893273D01*
X126423978Y-49039227D01*
X126423974Y-49039230D01*
X126420357Y-49041815D01*
X126232277Y-49221235D01*
X126229521Y-49224731D01*
X126229520Y-49224732D01*
X126074109Y-49421869D01*
X126071353Y-49425365D01*
X126069117Y-49429214D01*
X126069116Y-49429216D01*
X126041014Y-49477598D01*
X125940798Y-49650134D01*
X125939130Y-49654251D01*
X125939127Y-49654258D01*
X125895681Y-49761521D01*
X125843214Y-49891055D01*
X125780551Y-50143323D01*
X125754057Y-50401903D01*
X116205500Y-50401903D01*
X116205500Y-44876237D01*
X139902657Y-44876237D01*
X139912862Y-45135971D01*
X139959562Y-45391675D01*
X140041825Y-45638249D01*
X140043818Y-45642237D01*
X140118177Y-45791052D01*
X140158010Y-45870771D01*
X140305799Y-46084604D01*
X140308821Y-46087873D01*
X140447515Y-46237911D01*
X140482242Y-46275479D01*
X140485696Y-46278291D01*
X140680363Y-46436775D01*
X140680367Y-46436778D01*
X140683820Y-46439589D01*
X140687642Y-46441890D01*
X140825442Y-46524852D01*
X140906510Y-46573659D01*
X140948572Y-46591470D01*
X141141766Y-46673278D01*
X141141771Y-46673280D01*
X141145869Y-46675015D01*
X141150166Y-46676154D01*
X141150171Y-46676156D01*
X141271495Y-46708324D01*
X141397121Y-46741633D01*
X141655253Y-46772185D01*
X141915115Y-46766061D01*
X141919513Y-46765329D01*
X142167132Y-46724114D01*
X142167136Y-46724113D01*
X142171522Y-46723383D01*
X142175763Y-46722042D01*
X142175766Y-46722041D01*
X142415111Y-46646346D01*
X142415113Y-46646345D01*
X142419357Y-46645003D01*
X142423368Y-46643077D01*
X142423373Y-46643075D01*
X142649657Y-46534415D01*
X142649658Y-46534414D01*
X142653676Y-46532485D01*
X142665100Y-46524852D01*
X142866101Y-46390548D01*
X142866105Y-46390545D01*
X142869803Y-46388074D01*
X142979941Y-46289426D01*
X143060103Y-46217627D01*
X143060108Y-46217622D01*
X143063426Y-46214650D01*
X143230682Y-46015675D01*
X143368234Y-45795118D01*
X143401175Y-45720608D01*
X143471538Y-45561448D01*
X143473336Y-45557381D01*
X143543893Y-45307206D01*
X143566893Y-45135971D01*
X143578069Y-45052767D01*
X143578070Y-45052759D01*
X143578496Y-45049585D01*
X143582127Y-44934039D01*
X143578035Y-44876237D01*
X143564084Y-44679203D01*
X143563769Y-44674754D01*
X143509060Y-44420643D01*
X143491052Y-44371829D01*
X143420633Y-44180952D01*
X143419092Y-44176775D01*
X143413830Y-44167023D01*
X143297774Y-43951932D01*
X143297774Y-43951931D01*
X143295661Y-43948016D01*
X143141229Y-43738932D01*
X143136473Y-43734100D01*
X143017810Y-43613559D01*
X142958877Y-43553693D01*
X142955337Y-43550992D01*
X142955331Y-43550986D01*
X142755785Y-43398697D01*
X142755781Y-43398694D01*
X142752244Y-43395995D01*
X142559317Y-43287951D01*
X142529342Y-43271164D01*
X142529336Y-43271161D01*
X142525452Y-43268986D01*
X142521294Y-43267378D01*
X142521289Y-43267375D01*
X142287183Y-43176806D01*
X142287177Y-43176804D01*
X142283028Y-43175199D01*
X142278696Y-43174195D01*
X142278693Y-43174194D01*
X142165139Y-43147874D01*
X142029807Y-43116506D01*
X141770842Y-43094077D01*
X141766407Y-43094321D01*
X141766403Y-43094321D01*
X141661296Y-43100106D01*
X141511301Y-43108360D01*
X141506938Y-43109228D01*
X141506937Y-43109228D01*
X141260730Y-43158202D01*
X141260728Y-43158203D01*
X141256362Y-43159071D01*
X141011111Y-43245197D01*
X140780442Y-43365020D01*
X140776827Y-43367603D01*
X140776821Y-43367607D01*
X140572578Y-43513561D01*
X140572574Y-43513564D01*
X140568957Y-43516149D01*
X140380877Y-43695569D01*
X140378121Y-43699065D01*
X140378120Y-43699066D01*
X140269084Y-43837377D01*
X140219953Y-43899699D01*
X140217717Y-43903548D01*
X140217716Y-43903550D01*
X140158919Y-44004778D01*
X140089398Y-44124468D01*
X140087730Y-44128585D01*
X140087727Y-44128592D01*
X140021313Y-44292559D01*
X139991814Y-44365389D01*
X139929151Y-44617657D01*
X139902657Y-44876237D01*
X116205500Y-44876237D01*
X116205500Y-43629256D01*
X129103339Y-43629256D01*
X129103709Y-43636077D01*
X129109233Y-43686939D01*
X129112859Y-43702191D01*
X129158014Y-43822641D01*
X129166552Y-43838236D01*
X129243053Y-43940311D01*
X129255614Y-43952872D01*
X129357689Y-44029373D01*
X129373284Y-44037911D01*
X129493732Y-44083065D01*
X129508987Y-44086692D01*
X129559852Y-44092218D01*
X129566666Y-44092587D01*
X130189223Y-44092587D01*
X130204462Y-44088112D01*
X130205667Y-44086722D01*
X130207338Y-44079039D01*
X130207338Y-44074471D01*
X130715338Y-44074471D01*
X130719813Y-44089710D01*
X130721203Y-44090915D01*
X130728886Y-44092586D01*
X131356007Y-44092586D01*
X131362828Y-44092216D01*
X131413690Y-44086692D01*
X131428942Y-44083066D01*
X131549392Y-44037911D01*
X131564987Y-44029373D01*
X131667062Y-43952872D01*
X131679623Y-43940311D01*
X131756124Y-43838236D01*
X131764663Y-43822639D01*
X131805763Y-43713005D01*
X131848404Y-43656240D01*
X131914966Y-43631540D01*
X131984315Y-43646747D01*
X132018983Y-43674737D01*
X132044557Y-43704261D01*
X132051918Y-43711470D01*
X132215772Y-43847503D01*
X132224219Y-43853418D01*
X132408094Y-43960866D01*
X132417380Y-43965316D01*
X132616339Y-44041290D01*
X132626237Y-44044166D01*
X132729588Y-44065193D01*
X132743637Y-44063997D01*
X132747338Y-44053652D01*
X132747338Y-44053104D01*
X133255338Y-44053104D01*
X133259402Y-44066946D01*
X133272816Y-44068980D01*
X133279522Y-44068121D01*
X133289600Y-44065979D01*
X133493593Y-44004778D01*
X133503180Y-44001020D01*
X133694433Y-43907326D01*
X133703283Y-43902051D01*
X133876666Y-43778379D01*
X133884538Y-43771726D01*
X134035390Y-43621399D01*
X134042061Y-43613559D01*
X134090928Y-43545554D01*
X134146923Y-43501906D01*
X134217626Y-43495460D01*
X134280591Y-43528263D01*
X134300683Y-43553245D01*
X134335787Y-43610528D01*
X134335790Y-43610533D01*
X134338490Y-43614938D01*
X134498426Y-43799574D01*
X134686370Y-43955608D01*
X134897275Y-44078850D01*
X134902100Y-44080692D01*
X134902101Y-44080693D01*
X134925714Y-44089710D01*
X135125476Y-44165992D01*
X135130542Y-44167023D01*
X135130543Y-44167023D01*
X135347156Y-44211093D01*
X135364846Y-44214692D01*
X135497454Y-44219555D01*
X135603792Y-44223455D01*
X135603797Y-44223455D01*
X135608956Y-44223644D01*
X135678836Y-44214692D01*
X135846121Y-44193262D01*
X135846122Y-44193262D01*
X135851249Y-44192605D01*
X135890091Y-44180952D01*
X136080267Y-44123896D01*
X136085220Y-44122410D01*
X136089859Y-44120137D01*
X136089865Y-44120135D01*
X136276964Y-44028476D01*
X136304584Y-44014945D01*
X136398415Y-43948016D01*
X136499239Y-43876099D01*
X136499244Y-43876095D01*
X136503451Y-43873094D01*
X136676480Y-43700669D01*
X136679496Y-43696471D01*
X136679500Y-43696467D01*
X136708645Y-43655907D01*
X136764639Y-43612258D01*
X136835343Y-43605812D01*
X136898307Y-43638614D01*
X136906206Y-43646935D01*
X136955912Y-43704317D01*
X137038426Y-43799574D01*
X137226370Y-43955608D01*
X137437275Y-44078850D01*
X137442100Y-44080692D01*
X137442101Y-44080693D01*
X137465714Y-44089710D01*
X137665476Y-44165992D01*
X137670542Y-44167023D01*
X137670543Y-44167023D01*
X137887156Y-44211093D01*
X137904846Y-44214692D01*
X138037454Y-44219555D01*
X138143792Y-44223455D01*
X138143797Y-44223455D01*
X138148956Y-44223644D01*
X138218836Y-44214692D01*
X138386121Y-44193262D01*
X138386122Y-44193262D01*
X138391249Y-44192605D01*
X138430091Y-44180952D01*
X138620267Y-44123896D01*
X138625220Y-44122410D01*
X138629859Y-44120137D01*
X138629865Y-44120135D01*
X138816964Y-44028476D01*
X138844584Y-44014945D01*
X138938415Y-43948016D01*
X139039239Y-43876099D01*
X139039244Y-43876095D01*
X139043451Y-43873094D01*
X139216480Y-43700669D01*
X139219500Y-43696467D01*
X139281253Y-43610528D01*
X139359024Y-43502298D01*
X139406291Y-43406661D01*
X139464960Y-43287951D01*
X139467254Y-43283310D01*
X139498540Y-43180335D01*
X139536761Y-43054538D01*
X139536762Y-43054532D01*
X139538265Y-43049586D01*
X139570149Y-42807402D01*
X139571929Y-42734587D01*
X139551914Y-42491135D01*
X139492405Y-42254221D01*
X139400059Y-42041839D01*
X139397061Y-42034944D01*
X139397059Y-42034941D01*
X139395001Y-42030207D01*
X139262318Y-41825110D01*
X139258458Y-41820867D01*
X139101397Y-41648260D01*
X139101391Y-41648254D01*
X139097919Y-41644438D01*
X139093868Y-41641239D01*
X139093864Y-41641235D01*
X138935670Y-41516302D01*
X138906218Y-41493042D01*
X138745544Y-41404345D01*
X138696897Y-41377490D01*
X138696895Y-41377489D01*
X138692366Y-41374989D01*
X138555713Y-41326598D01*
X138466975Y-41295174D01*
X138466972Y-41295173D01*
X138462103Y-41293449D01*
X138457014Y-41292542D01*
X138457012Y-41292542D01*
X138226703Y-41251517D01*
X138226699Y-41251517D01*
X138221615Y-41250611D01*
X138141948Y-41249638D01*
X137982530Y-41247690D01*
X137982528Y-41247690D01*
X137977360Y-41247627D01*
X137735897Y-41284576D01*
X137503711Y-41360466D01*
X137499123Y-41362854D01*
X137499119Y-41362856D01*
X137317590Y-41457354D01*
X137287037Y-41473259D01*
X137282904Y-41476362D01*
X137282901Y-41476364D01*
X137096292Y-41616475D01*
X137091696Y-41619926D01*
X137081173Y-41630938D01*
X136975205Y-41741827D01*
X136922931Y-41796528D01*
X136920020Y-41800795D01*
X136920017Y-41800799D01*
X136915738Y-41807072D01*
X136860827Y-41852074D01*
X136790302Y-41860245D01*
X136726555Y-41828991D01*
X136718469Y-41820880D01*
X136557919Y-41644438D01*
X136553868Y-41641239D01*
X136553864Y-41641235D01*
X136395670Y-41516302D01*
X136366218Y-41493042D01*
X136205544Y-41404345D01*
X136156897Y-41377490D01*
X136156895Y-41377489D01*
X136152366Y-41374989D01*
X136015713Y-41326598D01*
X135926975Y-41295174D01*
X135926972Y-41295173D01*
X135922103Y-41293449D01*
X135917014Y-41292542D01*
X135917012Y-41292542D01*
X135686703Y-41251517D01*
X135686699Y-41251517D01*
X135681615Y-41250611D01*
X135601948Y-41249638D01*
X135442530Y-41247690D01*
X135442528Y-41247690D01*
X135437360Y-41247627D01*
X135195897Y-41284576D01*
X134963711Y-41360466D01*
X134959123Y-41362854D01*
X134959119Y-41362856D01*
X134777590Y-41457354D01*
X134747037Y-41473259D01*
X134742904Y-41476362D01*
X134742901Y-41476364D01*
X134556292Y-41616475D01*
X134551696Y-41619926D01*
X134541173Y-41630938D01*
X134435205Y-41741827D01*
X134382931Y-41796528D01*
X134345040Y-41852074D01*
X134299403Y-41918976D01*
X134244491Y-41963979D01*
X134173966Y-41972150D01*
X134110219Y-41940896D01*
X134089523Y-41916414D01*
X134083763Y-41907511D01*
X134077474Y-41899344D01*
X133934144Y-41741827D01*
X133926611Y-41734802D01*
X133759477Y-41602809D01*
X133750890Y-41597104D01*
X133564455Y-41494186D01*
X133555043Y-41489956D01*
X133354297Y-41418867D01*
X133344326Y-41416233D01*
X133273175Y-41403559D01*
X133259878Y-41405019D01*
X133255338Y-41419576D01*
X133255338Y-44053104D01*
X132747338Y-44053104D01*
X132747338Y-43006702D01*
X132742863Y-42991463D01*
X132741473Y-42990258D01*
X132733790Y-42988587D01*
X130733453Y-42988587D01*
X130718214Y-42993062D01*
X130717009Y-42994452D01*
X130715338Y-43002135D01*
X130715338Y-44074471D01*
X130207338Y-44074471D01*
X130207338Y-43006702D01*
X130202863Y-42991463D01*
X130201473Y-42990258D01*
X130193790Y-42988587D01*
X129121454Y-42988587D01*
X129106215Y-42993062D01*
X129105010Y-42994452D01*
X129103339Y-43002135D01*
X129103339Y-43629256D01*
X116205500Y-43629256D01*
X116205500Y-42462472D01*
X129103338Y-42462472D01*
X129107813Y-42477711D01*
X129109203Y-42478916D01*
X129116886Y-42480587D01*
X130189223Y-42480587D01*
X130204462Y-42476112D01*
X130205667Y-42474722D01*
X130207338Y-42467039D01*
X130207338Y-42462472D01*
X130715338Y-42462472D01*
X130719813Y-42477711D01*
X130721203Y-42478916D01*
X130728886Y-42480587D01*
X132729223Y-42480587D01*
X132744462Y-42476112D01*
X132745667Y-42474722D01*
X132747338Y-42467039D01*
X132747338Y-41417689D01*
X132743420Y-41404345D01*
X132729144Y-41402358D01*
X132690662Y-41408247D01*
X132680626Y-41410638D01*
X132478206Y-41476799D01*
X132468697Y-41480796D01*
X132279801Y-41579129D01*
X132271076Y-41584623D01*
X132100771Y-41712492D01*
X132093064Y-41719335D01*
X132015432Y-41800572D01*
X131953908Y-41836002D01*
X131882995Y-41832545D01*
X131825209Y-41791299D01*
X131806356Y-41757751D01*
X131764662Y-41646533D01*
X131756124Y-41630938D01*
X131679623Y-41528863D01*
X131667062Y-41516302D01*
X131564987Y-41439801D01*
X131549392Y-41431263D01*
X131428944Y-41386109D01*
X131413689Y-41382482D01*
X131362824Y-41376956D01*
X131356010Y-41376587D01*
X130733453Y-41376587D01*
X130718214Y-41381062D01*
X130717009Y-41382452D01*
X130715338Y-41390135D01*
X130715338Y-42462472D01*
X130207338Y-42462472D01*
X130207338Y-41394703D01*
X130202863Y-41379464D01*
X130201473Y-41378259D01*
X130193790Y-41376588D01*
X129566669Y-41376588D01*
X129559848Y-41376958D01*
X129508986Y-41382482D01*
X129493734Y-41386108D01*
X129373284Y-41431263D01*
X129357689Y-41439801D01*
X129255614Y-41516302D01*
X129243053Y-41528863D01*
X129166552Y-41630938D01*
X129158014Y-41646533D01*
X129112860Y-41766981D01*
X129109233Y-41782236D01*
X129103707Y-41833101D01*
X129103338Y-41839915D01*
X129103338Y-42462472D01*
X116205500Y-42462472D01*
X116205500Y-40766500D01*
X116225502Y-40698379D01*
X116279158Y-40651886D01*
X116331500Y-40640500D01*
X147193500Y-40640500D01*
X147261621Y-40660502D01*
G37*
%TD.AperFunction*%
%TD*%
M02*
