%TF.GenerationSoftware,KiCad,Pcbnew,(6.0.11)*%
%TF.CreationDate,2023-05-06T11:24:47-05:00*%
%TF.ProjectId,SerialResonantFilter,53657269-616c-4526-9573-6f6e616e7446,rev?*%
%TF.SameCoordinates,Original*%
%TF.FileFunction,Copper,L1,Top*%
%TF.FilePolarity,Positive*%
%FSLAX46Y46*%
G04 Gerber Fmt 4.6, Leading zero omitted, Abs format (unit mm)*
G04 Created by KiCad (PCBNEW (6.0.11)) date 2023-05-06 11:24:47*
%MOMM*%
%LPD*%
G01*
G04 APERTURE LIST*
G04 Aperture macros list*
%AMRoundRect*
0 Rectangle with rounded corners*
0 $1 Rounding radius*
0 $2 $3 $4 $5 $6 $7 $8 $9 X,Y pos of 4 corners*
0 Add a 4 corners polygon primitive as box body*
4,1,4,$2,$3,$4,$5,$6,$7,$8,$9,$2,$3,0*
0 Add four circle primitives for the rounded corners*
1,1,$1+$1,$2,$3*
1,1,$1+$1,$4,$5*
1,1,$1+$1,$6,$7*
1,1,$1+$1,$8,$9*
0 Add four rect primitives between the rounded corners*
20,1,$1+$1,$2,$3,$4,$5,0*
20,1,$1+$1,$4,$5,$6,$7,0*
20,1,$1+$1,$6,$7,$8,$9,0*
20,1,$1+$1,$8,$9,$2,$3,0*%
G04 Aperture macros list end*
%TA.AperFunction,ComponentPad*%
%ADD10C,1.600000*%
%TD*%
%TA.AperFunction,SMDPad,CuDef*%
%ADD11RoundRect,0.381000X-0.381000X0.381000X-0.381000X-0.381000X0.381000X-0.381000X0.381000X0.381000X0*%
%TD*%
%TA.AperFunction,SMDPad,CuDef*%
%ADD12RoundRect,0.381000X0.381000X0.381000X-0.381000X0.381000X-0.381000X-0.381000X0.381000X-0.381000X0*%
%TD*%
%TA.AperFunction,SMDPad,CuDef*%
%ADD13RoundRect,0.381000X-0.488333X0.227713X-0.227713X-0.488333X0.488333X-0.227713X0.227713X0.488333X0*%
%TD*%
%TA.AperFunction,ComponentPad*%
%ADD14C,2.400000*%
%TD*%
%TA.AperFunction,ComponentPad*%
%ADD15R,1.700000X1.700000*%
%TD*%
%TA.AperFunction,ComponentPad*%
%ADD16O,1.700000X1.700000*%
%TD*%
%TA.AperFunction,Conductor*%
%ADD17C,1.000000*%
%TD*%
G04 APERTURE END LIST*
D10*
%TO.P,C1,1*%
%TO.N,GND*%
X147940000Y-90330000D03*
D11*
X147940000Y-91130000D03*
D10*
%TO.P,C1,2*%
%TO.N,Net-(C1-Pad2)*%
X147940000Y-95330000D03*
D11*
X147940000Y-94530000D03*
%TD*%
D10*
%TO.P,C2,1*%
%TO.N,Net-(C2-Pad1)*%
X129400000Y-91360000D03*
D12*
X128600000Y-91360000D03*
D10*
%TO.P,C2,2*%
%TO.N,Net-(C2-Pad2)*%
X124400000Y-91360000D03*
D12*
X125200000Y-91360000D03*
%TD*%
D10*
%TO.P,C3,1*%
%TO.N,Net-(C2-Pad1)*%
X129420000Y-94720000D03*
D12*
X128620000Y-94720000D03*
D10*
%TO.P,C3,2*%
%TO.N,Net-(C2-Pad2)*%
X124420000Y-94720000D03*
D12*
X125220000Y-94720000D03*
%TD*%
D11*
%TO.P,C4,2*%
%TO.N,Net-(C2-Pad2)*%
X121670000Y-94660000D03*
D10*
X121670000Y-95460000D03*
D11*
%TO.P,C4,1*%
%TO.N,GND*%
X121670000Y-91260000D03*
D10*
X121670000Y-90460000D03*
%TD*%
%TO.P,C5,1*%
%TO.N,Net-(C2-Pad2)*%
X126200000Y-98180000D03*
D12*
X125400000Y-98180000D03*
D10*
%TO.P,C5,2*%
%TO.N,Net-(C5-Pad2)*%
X121200000Y-98180000D03*
D12*
X122000000Y-98180000D03*
%TD*%
D10*
%TO.P,C6,1*%
%TO.N,GND*%
X147701000Y-107442000D03*
D11*
X147701000Y-108242000D03*
D10*
%TO.P,C6,2*%
%TO.N,Net-(C5-Pad2)*%
X147701000Y-112442000D03*
D11*
X147701000Y-111642000D03*
%TD*%
D10*
%TO.P,C7,1*%
%TO.N,Net-(C2-Pad2)*%
X133096000Y-101854000D03*
D13*
X133369616Y-102605754D03*
D10*
%TO.P,C7,2*%
%TO.N,Net-(C5-Pad2)*%
X134806101Y-106552463D03*
D13*
X134532485Y-105800709D03*
%TD*%
D14*
%TO.P,L2,1*%
%TO.N,Net-(C1-Pad2)*%
X143868600Y-93639452D03*
%TO.P,L2,2*%
%TO.N,Net-(C2-Pad1)*%
X140114472Y-108152326D03*
%TD*%
%TO.P,L3,1*%
%TO.N,Net-(C2-Pad2)*%
X129720000Y-99739705D03*
%TO.P,L3,2*%
%TO.N,Net-(C5-Pad2)*%
X122337583Y-112786425D03*
%TD*%
D15*
%TO.P,J1,1,Pin_1*%
%TO.N,GND*%
X132588000Y-111760000D03*
D16*
%TO.P,J1,2,Pin_2*%
X135128000Y-111760000D03*
%TO.P,J1,3,Pin_3*%
%TO.N,Net-(C5-Pad2)*%
X137668000Y-111760000D03*
%TO.P,J1,4,Pin_4*%
X140208000Y-111760000D03*
%TD*%
D15*
%TO.P,J2,1,Pin_1*%
%TO.N,GND*%
X132588000Y-91440000D03*
D16*
%TO.P,J2,2,Pin_2*%
X135128000Y-91440000D03*
%TO.P,J2,3,Pin_3*%
%TO.N,Net-(C1-Pad2)*%
X137668000Y-91440000D03*
%TO.P,J2,4,Pin_4*%
X140208000Y-91440000D03*
%TD*%
D17*
%TO.N,Net-(C1-Pad2)*%
X144876819Y-93596819D02*
X147940000Y-95330000D01*
X141960000Y-92190000D02*
X143868600Y-93068600D01*
X143868600Y-93068600D02*
X143868600Y-93639452D01*
X140208000Y-91440000D02*
X141960000Y-92190000D01*
X143657269Y-93572819D02*
X144876819Y-93596819D01*
X137668000Y-91440000D02*
X140208000Y-91440000D01*
%TO.N,Net-(C2-Pad2)*%
X124420000Y-95670000D02*
X126200000Y-98180000D01*
X127830000Y-98960000D02*
X129720000Y-99739705D01*
X132342295Y-101854000D02*
X129720000Y-99739705D01*
X124420000Y-91380000D02*
X124400000Y-91360000D01*
X124420000Y-94720000D02*
X124420000Y-95670000D01*
X126200000Y-98180000D02*
X127830000Y-98960000D01*
X124420000Y-94720000D02*
X122410000Y-94720000D01*
X124420000Y-94720000D02*
X124420000Y-94860000D01*
X133096000Y-101854000D02*
X132342295Y-101854000D01*
X122410000Y-94720000D02*
X121670000Y-95460000D01*
X124420000Y-94720000D02*
X124420000Y-91380000D01*
%TO.N,Net-(C2-Pad1)*%
X140114472Y-104554472D02*
X130280000Y-94720000D01*
X130280000Y-94720000D02*
X129420000Y-94720000D01*
X129400000Y-94700000D02*
X129420000Y-94720000D01*
X140114472Y-108152326D02*
X140114472Y-104554472D01*
X129400000Y-91360000D02*
X129400000Y-94700000D01*
%TO.N,Net-(C5-Pad2)*%
X147019000Y-111760000D02*
X147701000Y-112442000D01*
X121930000Y-112118842D02*
X122337583Y-112786425D01*
X121200000Y-111648842D02*
X122337583Y-112786425D01*
X134540000Y-106854000D02*
X137668000Y-110490000D01*
X137668000Y-110490000D02*
X137668000Y-111760000D01*
X133520000Y-107720000D02*
X131430000Y-109270000D01*
X131430000Y-109270000D02*
X122337583Y-112786425D01*
X134170000Y-107340000D02*
X133520000Y-107720000D01*
X137668000Y-111760000D02*
X140208000Y-111760000D01*
X134170000Y-107340000D02*
X134540000Y-106854000D01*
X121200000Y-98180000D02*
X121200000Y-111648842D01*
X140208000Y-111760000D02*
X147019000Y-111760000D01*
%TD*%
M02*
