%TF.GenerationSoftware,KiCad,Pcbnew,(6.0.11)*%
%TF.CreationDate,2023-08-20T15:06:36-05:00*%
%TF.ProjectId,SerialResonantFilter,53657269-616c-4526-9573-6f6e616e7446,rev?*%
%TF.SameCoordinates,Original*%
%TF.FileFunction,Soldermask,Bot*%
%TF.FilePolarity,Negative*%
%FSLAX46Y46*%
G04 Gerber Fmt 4.6, Leading zero omitted, Abs format (unit mm)*
G04 Created by KiCad (PCBNEW (6.0.11)) date 2023-08-20 15:06:36*
%MOMM*%
%LPD*%
G01*
G04 APERTURE LIST*
G04 Aperture macros list*
%AMRoundRect*
0 Rectangle with rounded corners*
0 $1 Rounding radius*
0 $2 $3 $4 $5 $6 $7 $8 $9 X,Y pos of 4 corners*
0 Add a 4 corners polygon primitive as box body*
4,1,4,$2,$3,$4,$5,$6,$7,$8,$9,$2,$3,0*
0 Add four circle primitives for the rounded corners*
1,1,$1+$1,$2,$3*
1,1,$1+$1,$4,$5*
1,1,$1+$1,$6,$7*
1,1,$1+$1,$8,$9*
0 Add four rect primitives between the rounded corners*
20,1,$1+$1,$2,$3,$4,$5,0*
20,1,$1+$1,$4,$5,$6,$7,0*
20,1,$1+$1,$6,$7,$8,$9,0*
20,1,$1+$1,$8,$9,$2,$3,0*%
G04 Aperture macros list end*
%ADD10C,2.800000*%
%ADD11RoundRect,0.200000X0.850000X-0.850000X0.850000X0.850000X-0.850000X0.850000X-0.850000X-0.850000X0*%
%ADD12O,2.100000X2.100000*%
%ADD13C,2.000000*%
G04 APERTURE END LIST*
D10*
%TO.C,L2*%
X141741938Y-44934039D03*
X137987810Y-59446913D03*
%TD*%
%TO.C,L3*%
X127593338Y-50459705D03*
X120210921Y-63506425D03*
%TD*%
D11*
%TO.C,J1*%
X130461338Y-63054587D03*
D12*
X133001338Y-63054587D03*
X135541338Y-63054587D03*
X138081338Y-63054587D03*
%TD*%
D11*
%TO.C,J2*%
X130461338Y-42734587D03*
D12*
X133001338Y-42734587D03*
X135541338Y-42734587D03*
X138081338Y-42734587D03*
%TD*%
D11*
%TO.C,J5*%
X130290838Y-69404587D03*
D12*
X132830838Y-69404587D03*
X135370838Y-69404587D03*
X137910838Y-69404587D03*
%TD*%
D13*
%TO.C,C26*%
X162560000Y-79467837D03*
X164270101Y-84166300D03*
%TD*%
%TO.C,C22*%
X177476000Y-68351837D03*
X177476000Y-73351837D03*
%TD*%
D10*
%TO.C,L8*%
X159258000Y-77603542D03*
X151875583Y-90650262D03*
%TD*%
%TO.C,L5*%
X140774128Y-71789876D03*
X137020000Y-86302750D03*
%TD*%
%TO.C,L7*%
X173266790Y-71847126D03*
X169512662Y-86360000D03*
%TD*%
D11*
%TO.C,J6*%
X130290838Y-89699587D03*
D12*
X132830838Y-89699587D03*
X135370838Y-89699587D03*
X137910838Y-89699587D03*
%TD*%
D11*
%TO.C,J3*%
X162394338Y-42940424D03*
D12*
X164934338Y-42940424D03*
X167474338Y-42940424D03*
X170014338Y-42940424D03*
%TD*%
D10*
%TO.C,L1*%
X173791938Y-44783876D03*
X170037810Y-59296750D03*
%TD*%
D13*
%TO.C,C24*%
X158750000Y-69307837D03*
X153750000Y-69307837D03*
%TD*%
%TO.C,C25*%
X150876000Y-68077837D03*
X150876000Y-73077837D03*
%TD*%
D10*
%TO.C,L4*%
X159764338Y-50274917D03*
X152381921Y-63321637D03*
%TD*%
D11*
%TO.C,J4*%
X162394338Y-63285424D03*
D12*
X164934338Y-63285424D03*
X167474338Y-63285424D03*
X170014338Y-63285424D03*
%TD*%
D11*
%TO.C,J7*%
X162306000Y-69561837D03*
D12*
X164846000Y-69561837D03*
X167386000Y-69561837D03*
X169926000Y-69561837D03*
%TD*%
D13*
%TO.C,C27*%
X155702000Y-75911837D03*
X150702000Y-75911837D03*
%TD*%
%TO.C,C23*%
X158750000Y-72609837D03*
X153750000Y-72609837D03*
%TD*%
%TO.C,C28*%
X177556000Y-85491837D03*
X177556000Y-90491837D03*
%TD*%
D11*
%TO.C,J8*%
X162296000Y-89906837D03*
D12*
X164836000Y-89906837D03*
X167376000Y-89906837D03*
X169916000Y-89906837D03*
%TD*%
D10*
%TO.C,L6*%
X127413338Y-76684292D03*
X120030921Y-89731012D03*
%TD*%
M02*
