%TF.GenerationSoftware,KiCad,Pcbnew,(6.0.11)*%
%TF.CreationDate,2023-08-20T15:06:36-05:00*%
%TF.ProjectId,SerialResonantFilter,53657269-616c-4526-9573-6f6e616e7446,rev?*%
%TF.SameCoordinates,Original*%
%TF.FileFunction,Legend,Top*%
%TF.FilePolarity,Positive*%
%FSLAX46Y46*%
G04 Gerber Fmt 4.6, Leading zero omitted, Abs format (unit mm)*
G04 Created by KiCad (PCBNEW (6.0.11)) date 2023-08-20 15:06:36*
%MOMM*%
%LPD*%
G01*
G04 APERTURE LIST*
%ADD10C,0.150000*%
%ADD11C,4.318000*%
%ADD12C,0.120000*%
G04 APERTURE END LIST*
D10*
X147955000Y-40005000D02*
X147955000Y-112395000D01*
X180340000Y-40005000D02*
X180340000Y-112395000D01*
D11*
X173820000Y-87210000D02*
X173820000Y-90004000D01*
D10*
X115570000Y-92710000D02*
X187960000Y-92710000D01*
X115570000Y-66040000D02*
X187960000Y-66040000D01*
X153559142Y-76078503D02*
X153606761Y-76126122D01*
X153654380Y-76268979D01*
X153654380Y-76364217D01*
X153606761Y-76507075D01*
X153511523Y-76602313D01*
X153416285Y-76649932D01*
X153225809Y-76697551D01*
X153082952Y-76697551D01*
X152892476Y-76649932D01*
X152797238Y-76602313D01*
X152702000Y-76507075D01*
X152654380Y-76364217D01*
X152654380Y-76268979D01*
X152702000Y-76126122D01*
X152749619Y-76078503D01*
X152654380Y-75173741D02*
X152654380Y-75649932D01*
X153130571Y-75697551D01*
X153082952Y-75649932D01*
X153035333Y-75554694D01*
X153035333Y-75316598D01*
X153082952Y-75221360D01*
X153130571Y-75173741D01*
X153225809Y-75126122D01*
X153463904Y-75126122D01*
X153559142Y-75173741D01*
X153606761Y-75221360D01*
X153654380Y-75316598D01*
X153654380Y-75554694D01*
X153606761Y-75649932D01*
X153559142Y-75697551D01*
X177315995Y-88364392D02*
X177268376Y-88412011D01*
X177125519Y-88459630D01*
X177030281Y-88459630D01*
X176887423Y-88412011D01*
X176792185Y-88316773D01*
X176744566Y-88221535D01*
X176696947Y-88031059D01*
X176696947Y-87888202D01*
X176744566Y-87697726D01*
X176792185Y-87602488D01*
X176887423Y-87507250D01*
X177030281Y-87459630D01*
X177125519Y-87459630D01*
X177268376Y-87507250D01*
X177315995Y-87554869D01*
X178173138Y-87459630D02*
X177982662Y-87459630D01*
X177887423Y-87507250D01*
X177839804Y-87554869D01*
X177744566Y-87697726D01*
X177696947Y-87888202D01*
X177696947Y-88269154D01*
X177744566Y-88364392D01*
X177792185Y-88412011D01*
X177887423Y-88459630D01*
X178077900Y-88459630D01*
X178173138Y-88412011D01*
X178220757Y-88364392D01*
X178268376Y-88269154D01*
X178268376Y-88031059D01*
X178220757Y-87935821D01*
X178173138Y-87888202D01*
X178077900Y-87840583D01*
X177887423Y-87840583D01*
X177792185Y-87888202D01*
X177744566Y-87935821D01*
X177696947Y-88031059D01*
X123516671Y-58086967D02*
X123040480Y-58086967D01*
X123040480Y-57086967D01*
X123754766Y-57086967D02*
X124373814Y-57086967D01*
X124040480Y-57467920D01*
X124183338Y-57467920D01*
X124278576Y-57515539D01*
X124326195Y-57563158D01*
X124373814Y-57658396D01*
X124373814Y-57896491D01*
X124326195Y-57991729D01*
X124278576Y-58039348D01*
X124183338Y-58086967D01*
X123897623Y-58086967D01*
X123802385Y-58039348D01*
X123754766Y-57991729D01*
X117316333Y-101628380D02*
X116744904Y-101628380D01*
X117030619Y-101628380D02*
X117030619Y-100628380D01*
X116935380Y-100771238D01*
X116840142Y-100866476D01*
X116744904Y-100914095D01*
X118221095Y-100628380D02*
X117744904Y-100628380D01*
X117697285Y-101104571D01*
X117744904Y-101056952D01*
X117840142Y-101009333D01*
X118078238Y-101009333D01*
X118173476Y-101056952D01*
X118221095Y-101104571D01*
X118268714Y-101199809D01*
X118268714Y-101437904D01*
X118221095Y-101533142D01*
X118173476Y-101580761D01*
X118078238Y-101628380D01*
X117840142Y-101628380D01*
X117744904Y-101580761D01*
X117697285Y-101533142D01*
X118887761Y-100628380D02*
X118983000Y-100628380D01*
X119078238Y-100676000D01*
X119125857Y-100723619D01*
X119173476Y-100818857D01*
X119221095Y-101009333D01*
X119221095Y-101247428D01*
X119173476Y-101437904D01*
X119125857Y-101533142D01*
X119078238Y-101580761D01*
X118983000Y-101628380D01*
X118887761Y-101628380D01*
X118792523Y-101580761D01*
X118744904Y-101533142D01*
X118697285Y-101437904D01*
X118649666Y-101247428D01*
X118649666Y-101009333D01*
X118697285Y-100818857D01*
X118744904Y-100723619D01*
X118792523Y-100676000D01*
X118887761Y-100628380D01*
X117340142Y-102571714D02*
X117340142Y-103571714D01*
X117340142Y-102619333D02*
X117435380Y-102571714D01*
X117625857Y-102571714D01*
X117721095Y-102619333D01*
X117768714Y-102666952D01*
X117816333Y-102762190D01*
X117816333Y-103047904D01*
X117768714Y-103143142D01*
X117721095Y-103190761D01*
X117625857Y-103238380D01*
X117435380Y-103238380D01*
X117340142Y-103190761D01*
X118578238Y-102714571D02*
X118244904Y-102714571D01*
X118244904Y-103238380D02*
X118244904Y-102238380D01*
X118721095Y-102238380D01*
X169751428Y-109502380D02*
X169180000Y-109502380D01*
X169465714Y-109502380D02*
X169465714Y-108502380D01*
X169370476Y-108645238D01*
X169275238Y-108740476D01*
X169180000Y-108788095D01*
X170180000Y-109407142D02*
X170227619Y-109454761D01*
X170180000Y-109502380D01*
X170132380Y-109454761D01*
X170180000Y-109407142D01*
X170180000Y-109502380D01*
X171132380Y-108502380D02*
X170656190Y-108502380D01*
X170608571Y-108978571D01*
X170656190Y-108930952D01*
X170751428Y-108883333D01*
X170989523Y-108883333D01*
X171084761Y-108930952D01*
X171132380Y-108978571D01*
X171180000Y-109073809D01*
X171180000Y-109311904D01*
X171132380Y-109407142D01*
X171084761Y-109454761D01*
X170989523Y-109502380D01*
X170751428Y-109502380D01*
X170656190Y-109454761D01*
X170608571Y-109407142D01*
X169537142Y-110445714D02*
X169537142Y-111112380D01*
X169537142Y-110540952D02*
X169584761Y-110493333D01*
X169680000Y-110445714D01*
X169822857Y-110445714D01*
X169918095Y-110493333D01*
X169965714Y-110588571D01*
X169965714Y-111112380D01*
X170775238Y-110588571D02*
X170441904Y-110588571D01*
X170441904Y-111112380D02*
X170441904Y-110112380D01*
X170918095Y-110112380D01*
X120134671Y-73825729D02*
X120087052Y-73873348D01*
X119944195Y-73920967D01*
X119848957Y-73920967D01*
X119706099Y-73873348D01*
X119610861Y-73778110D01*
X119563242Y-73682872D01*
X119515623Y-73492396D01*
X119515623Y-73349539D01*
X119563242Y-73159063D01*
X119610861Y-73063825D01*
X119706099Y-72968587D01*
X119848957Y-72920967D01*
X119944195Y-72920967D01*
X120087052Y-72968587D01*
X120134671Y-73016206D01*
X121039433Y-72920967D02*
X120563242Y-72920967D01*
X120515623Y-73397158D01*
X120563242Y-73349539D01*
X120658480Y-73301920D01*
X120896576Y-73301920D01*
X120991814Y-73349539D01*
X121039433Y-73397158D01*
X121087052Y-73492396D01*
X121087052Y-73730491D01*
X121039433Y-73825729D01*
X120991814Y-73873348D01*
X120896576Y-73920967D01*
X120658480Y-73920967D01*
X120563242Y-73873348D01*
X120515623Y-73825729D01*
X163106671Y-50053566D02*
X163059052Y-50101185D01*
X162916195Y-50148804D01*
X162820957Y-50148804D01*
X162678099Y-50101185D01*
X162582861Y-50005947D01*
X162535242Y-49910709D01*
X162487623Y-49720233D01*
X162487623Y-49577376D01*
X162535242Y-49386900D01*
X162582861Y-49291662D01*
X162678099Y-49196424D01*
X162820957Y-49148804D01*
X162916195Y-49148804D01*
X163059052Y-49196424D01*
X163106671Y-49244043D01*
X163440004Y-49148804D02*
X164106671Y-49148804D01*
X163678099Y-50148804D01*
X125905338Y-89684967D02*
X126095814Y-89684967D01*
X126191052Y-89732587D01*
X126286290Y-89827825D01*
X126333909Y-90018301D01*
X126333909Y-90351634D01*
X126286290Y-90542110D01*
X126191052Y-90637348D01*
X126095814Y-90684967D01*
X125905338Y-90684967D01*
X125810099Y-90637348D01*
X125714861Y-90542110D01*
X125667242Y-90351634D01*
X125667242Y-90018301D01*
X125714861Y-89827825D01*
X125810099Y-89732587D01*
X125905338Y-89684967D01*
X126762480Y-89684967D02*
X126762480Y-90494491D01*
X126810099Y-90589729D01*
X126857718Y-90637348D01*
X126952957Y-90684967D01*
X127143433Y-90684967D01*
X127238671Y-90637348D01*
X127286290Y-90589729D01*
X127333909Y-90494491D01*
X127333909Y-89684967D01*
X127667242Y-89684967D02*
X128238671Y-89684967D01*
X127952957Y-90684967D02*
X127952957Y-89684967D01*
X122793285Y-100628380D02*
X123412333Y-100628380D01*
X123079000Y-101009333D01*
X123221857Y-101009333D01*
X123317095Y-101056952D01*
X123364714Y-101104571D01*
X123412333Y-101199809D01*
X123412333Y-101437904D01*
X123364714Y-101533142D01*
X123317095Y-101580761D01*
X123221857Y-101628380D01*
X122936142Y-101628380D01*
X122840904Y-101580761D01*
X122793285Y-101533142D01*
X123745666Y-100628380D02*
X124364714Y-100628380D01*
X124031380Y-101009333D01*
X124174238Y-101009333D01*
X124269476Y-101056952D01*
X124317095Y-101104571D01*
X124364714Y-101199809D01*
X124364714Y-101437904D01*
X124317095Y-101533142D01*
X124269476Y-101580761D01*
X124174238Y-101628380D01*
X123888523Y-101628380D01*
X123793285Y-101580761D01*
X123745666Y-101533142D01*
X124983761Y-100628380D02*
X125079000Y-100628380D01*
X125174238Y-100676000D01*
X125221857Y-100723619D01*
X125269476Y-100818857D01*
X125317095Y-101009333D01*
X125317095Y-101247428D01*
X125269476Y-101437904D01*
X125221857Y-101533142D01*
X125174238Y-101580761D01*
X125079000Y-101628380D01*
X124983761Y-101628380D01*
X124888523Y-101580761D01*
X124840904Y-101533142D01*
X124793285Y-101437904D01*
X124745666Y-101247428D01*
X124745666Y-101009333D01*
X124793285Y-100818857D01*
X124840904Y-100723619D01*
X124888523Y-100676000D01*
X124983761Y-100628380D01*
X123436142Y-102571714D02*
X123436142Y-103571714D01*
X123436142Y-102619333D02*
X123531380Y-102571714D01*
X123721857Y-102571714D01*
X123817095Y-102619333D01*
X123864714Y-102666952D01*
X123912333Y-102762190D01*
X123912333Y-103047904D01*
X123864714Y-103143142D01*
X123817095Y-103190761D01*
X123721857Y-103238380D01*
X123531380Y-103238380D01*
X123436142Y-103190761D01*
X124674238Y-102714571D02*
X124340904Y-102714571D01*
X124340904Y-103238380D02*
X124340904Y-102238380D01*
X124817095Y-102238380D01*
X164957662Y-87084630D02*
X165148138Y-87084630D01*
X165243376Y-87132250D01*
X165338614Y-87227488D01*
X165386233Y-87417964D01*
X165386233Y-87751297D01*
X165338614Y-87941773D01*
X165243376Y-88037011D01*
X165148138Y-88084630D01*
X164957662Y-88084630D01*
X164862423Y-88037011D01*
X164767185Y-87941773D01*
X164719566Y-87751297D01*
X164719566Y-87417964D01*
X164767185Y-87227488D01*
X164862423Y-87132250D01*
X164957662Y-87084630D01*
X165814804Y-87084630D02*
X165814804Y-87894154D01*
X165862423Y-87989392D01*
X165910042Y-88037011D01*
X166005281Y-88084630D01*
X166195757Y-88084630D01*
X166290995Y-88037011D01*
X166338614Y-87989392D01*
X166386233Y-87894154D01*
X166386233Y-87084630D01*
X166719566Y-87084630D02*
X167290995Y-87084630D01*
X167005281Y-88084630D02*
X167005281Y-87084630D01*
X138557095Y-100628380D02*
X138366619Y-100628380D01*
X138271380Y-100676000D01*
X138223761Y-100723619D01*
X138128523Y-100866476D01*
X138080904Y-101056952D01*
X138080904Y-101437904D01*
X138128523Y-101533142D01*
X138176142Y-101580761D01*
X138271380Y-101628380D01*
X138461857Y-101628380D01*
X138557095Y-101580761D01*
X138604714Y-101533142D01*
X138652333Y-101437904D01*
X138652333Y-101199809D01*
X138604714Y-101104571D01*
X138557095Y-101056952D01*
X138461857Y-101009333D01*
X138271380Y-101009333D01*
X138176142Y-101056952D01*
X138128523Y-101104571D01*
X138080904Y-101199809D01*
X139223761Y-101056952D02*
X139128523Y-101009333D01*
X139080904Y-100961714D01*
X139033285Y-100866476D01*
X139033285Y-100818857D01*
X139080904Y-100723619D01*
X139128523Y-100676000D01*
X139223761Y-100628380D01*
X139414238Y-100628380D01*
X139509476Y-100676000D01*
X139557095Y-100723619D01*
X139604714Y-100818857D01*
X139604714Y-100866476D01*
X139557095Y-100961714D01*
X139509476Y-101009333D01*
X139414238Y-101056952D01*
X139223761Y-101056952D01*
X139128523Y-101104571D01*
X139080904Y-101152190D01*
X139033285Y-101247428D01*
X139033285Y-101437904D01*
X139080904Y-101533142D01*
X139128523Y-101580761D01*
X139223761Y-101628380D01*
X139414238Y-101628380D01*
X139509476Y-101580761D01*
X139557095Y-101533142D01*
X139604714Y-101437904D01*
X139604714Y-101247428D01*
X139557095Y-101152190D01*
X139509476Y-101104571D01*
X139414238Y-101056952D01*
X140223761Y-100628380D02*
X140319000Y-100628380D01*
X140414238Y-100676000D01*
X140461857Y-100723619D01*
X140509476Y-100818857D01*
X140557095Y-101009333D01*
X140557095Y-101247428D01*
X140509476Y-101437904D01*
X140461857Y-101533142D01*
X140414238Y-101580761D01*
X140319000Y-101628380D01*
X140223761Y-101628380D01*
X140128523Y-101580761D01*
X140080904Y-101533142D01*
X140033285Y-101437904D01*
X139985666Y-101247428D01*
X139985666Y-101009333D01*
X140033285Y-100818857D01*
X140080904Y-100723619D01*
X140128523Y-100676000D01*
X140223761Y-100628380D01*
X138676142Y-102571714D02*
X138676142Y-103571714D01*
X138676142Y-102619333D02*
X138771380Y-102571714D01*
X138961857Y-102571714D01*
X139057095Y-102619333D01*
X139104714Y-102666952D01*
X139152333Y-102762190D01*
X139152333Y-103047904D01*
X139104714Y-103143142D01*
X139057095Y-103190761D01*
X138961857Y-103238380D01*
X138771380Y-103238380D01*
X138676142Y-103190761D01*
X139914238Y-102714571D02*
X139580904Y-102714571D01*
X139580904Y-103238380D02*
X139580904Y-102238380D01*
X140057095Y-102238380D01*
X161179047Y-72706408D02*
X161321904Y-72754027D01*
X161369523Y-72801646D01*
X161417142Y-72896884D01*
X161417142Y-73039741D01*
X161369523Y-73134979D01*
X161321904Y-73182598D01*
X161226666Y-73230217D01*
X160845714Y-73230217D01*
X160845714Y-72230217D01*
X161179047Y-72230217D01*
X161274285Y-72277837D01*
X161321904Y-72325456D01*
X161369523Y-72420694D01*
X161369523Y-72515932D01*
X161321904Y-72611170D01*
X161274285Y-72658789D01*
X161179047Y-72706408D01*
X160845714Y-72706408D01*
X161798095Y-72944503D02*
X162274285Y-72944503D01*
X161702857Y-73230217D02*
X162036190Y-72230217D01*
X162369523Y-73230217D01*
X162702857Y-73230217D02*
X162702857Y-72230217D01*
X163274285Y-73230217D01*
X163274285Y-72230217D01*
X163750476Y-73230217D02*
X163750476Y-72230217D01*
X163988571Y-72230217D01*
X164131428Y-72277837D01*
X164226666Y-72373075D01*
X164274285Y-72468313D01*
X164321904Y-72658789D01*
X164321904Y-72801646D01*
X164274285Y-72992122D01*
X164226666Y-73087360D01*
X164131428Y-73182598D01*
X163988571Y-73230217D01*
X163750476Y-73230217D01*
X160917142Y-74840217D02*
X160917142Y-73840217D01*
X161298095Y-73840217D01*
X161393333Y-73887837D01*
X161440952Y-73935456D01*
X161488571Y-74030694D01*
X161488571Y-74173551D01*
X161440952Y-74268789D01*
X161393333Y-74316408D01*
X161298095Y-74364027D01*
X160917142Y-74364027D01*
X161869523Y-74554503D02*
X162345714Y-74554503D01*
X161774285Y-74840217D02*
X162107619Y-73840217D01*
X162440952Y-74840217D01*
X162726666Y-74792598D02*
X162869523Y-74840217D01*
X163107619Y-74840217D01*
X163202857Y-74792598D01*
X163250476Y-74744979D01*
X163298095Y-74649741D01*
X163298095Y-74554503D01*
X163250476Y-74459265D01*
X163202857Y-74411646D01*
X163107619Y-74364027D01*
X162917142Y-74316408D01*
X162821904Y-74268789D01*
X162774285Y-74221170D01*
X162726666Y-74125932D01*
X162726666Y-74030694D01*
X162774285Y-73935456D01*
X162821904Y-73887837D01*
X162917142Y-73840217D01*
X163155238Y-73840217D01*
X163298095Y-73887837D01*
X163679047Y-74792598D02*
X163821904Y-74840217D01*
X164060000Y-74840217D01*
X164155238Y-74792598D01*
X164202857Y-74744979D01*
X164250476Y-74649741D01*
X164250476Y-74554503D01*
X164202857Y-74459265D01*
X164155238Y-74411646D01*
X164060000Y-74364027D01*
X163869523Y-74316408D01*
X163774285Y-74268789D01*
X163726666Y-74221170D01*
X163679047Y-74125932D01*
X163679047Y-74030694D01*
X163726666Y-73935456D01*
X163774285Y-73887837D01*
X163869523Y-73840217D01*
X164107619Y-73840217D01*
X164250476Y-73887837D01*
X160726666Y-75926408D02*
X160393333Y-75926408D01*
X160393333Y-76450217D02*
X160393333Y-75450217D01*
X160869523Y-75450217D01*
X161250476Y-76450217D02*
X161250476Y-75450217D01*
X162202857Y-76450217D02*
X161726666Y-76450217D01*
X161726666Y-75450217D01*
X162393333Y-75450217D02*
X162964761Y-75450217D01*
X162679047Y-76450217D02*
X162679047Y-75450217D01*
X163298095Y-75926408D02*
X163631428Y-75926408D01*
X163774285Y-76450217D02*
X163298095Y-76450217D01*
X163298095Y-75450217D01*
X163774285Y-75450217D01*
X164774285Y-76450217D02*
X164440952Y-75974027D01*
X164202857Y-76450217D02*
X164202857Y-75450217D01*
X164583809Y-75450217D01*
X164679047Y-75497837D01*
X164726666Y-75545456D01*
X164774285Y-75640694D01*
X164774285Y-75783551D01*
X164726666Y-75878789D01*
X164679047Y-75926408D01*
X164583809Y-75974027D01*
X164202857Y-75974027D01*
X156689804Y-72823916D02*
X156737423Y-72871535D01*
X156785042Y-73014392D01*
X156785042Y-73109630D01*
X156737423Y-73252488D01*
X156642185Y-73347726D01*
X156546947Y-73395345D01*
X156356471Y-73442964D01*
X156213614Y-73442964D01*
X156023138Y-73395345D01*
X155927900Y-73347726D01*
X155832662Y-73252488D01*
X155785042Y-73109630D01*
X155785042Y-73014392D01*
X155832662Y-72871535D01*
X155880281Y-72823916D01*
X155785042Y-72490583D02*
X155785042Y-71871535D01*
X156165995Y-72204869D01*
X156165995Y-72062011D01*
X156213614Y-71966773D01*
X156261233Y-71919154D01*
X156356471Y-71871535D01*
X156594566Y-71871535D01*
X156689804Y-71919154D01*
X156737423Y-71966773D01*
X156785042Y-72062011D01*
X156785042Y-72347726D01*
X156737423Y-72442964D01*
X156689804Y-72490583D01*
X142385242Y-59165301D02*
X142385242Y-59831967D01*
X142147147Y-58784348D02*
X141909052Y-59498634D01*
X142528099Y-59498634D01*
X143099528Y-58831967D02*
X143194766Y-58831967D01*
X143290004Y-58879587D01*
X143337623Y-58927206D01*
X143385242Y-59022444D01*
X143432861Y-59212920D01*
X143432861Y-59451015D01*
X143385242Y-59641491D01*
X143337623Y-59736729D01*
X143290004Y-59784348D01*
X143194766Y-59831967D01*
X143099528Y-59831967D01*
X143004290Y-59784348D01*
X142956671Y-59736729D01*
X142909052Y-59641491D01*
X142861433Y-59451015D01*
X142861433Y-59212920D01*
X142909052Y-59022444D01*
X142956671Y-58927206D01*
X143004290Y-58879587D01*
X143099528Y-58831967D01*
X144623338Y-59831967D02*
X144623338Y-58831967D01*
X144956671Y-59546253D01*
X145290004Y-58831967D01*
X145290004Y-59831967D01*
X142242385Y-60918158D02*
X142385242Y-60965777D01*
X142432861Y-61013396D01*
X142480480Y-61108634D01*
X142480480Y-61251491D01*
X142432861Y-61346729D01*
X142385242Y-61394348D01*
X142290004Y-61441967D01*
X141909052Y-61441967D01*
X141909052Y-60441967D01*
X142242385Y-60441967D01*
X142337623Y-60489587D01*
X142385242Y-60537206D01*
X142432861Y-60632444D01*
X142432861Y-60727682D01*
X142385242Y-60822920D01*
X142337623Y-60870539D01*
X142242385Y-60918158D01*
X141909052Y-60918158D01*
X142861433Y-61156253D02*
X143337623Y-61156253D01*
X142766195Y-61441967D02*
X143099528Y-60441967D01*
X143432861Y-61441967D01*
X143766195Y-61441967D02*
X143766195Y-60441967D01*
X144337623Y-61441967D01*
X144337623Y-60441967D01*
X144813814Y-61441967D02*
X144813814Y-60441967D01*
X145051909Y-60441967D01*
X145194766Y-60489587D01*
X145290004Y-60584825D01*
X145337623Y-60680063D01*
X145385242Y-60870539D01*
X145385242Y-61013396D01*
X145337623Y-61203872D01*
X145290004Y-61299110D01*
X145194766Y-61394348D01*
X145051909Y-61441967D01*
X144813814Y-61441967D01*
X141980480Y-63051967D02*
X141980480Y-62051967D01*
X142361433Y-62051967D01*
X142456671Y-62099587D01*
X142504290Y-62147206D01*
X142551909Y-62242444D01*
X142551909Y-62385301D01*
X142504290Y-62480539D01*
X142456671Y-62528158D01*
X142361433Y-62575777D01*
X141980480Y-62575777D01*
X142932861Y-62766253D02*
X143409052Y-62766253D01*
X142837623Y-63051967D02*
X143170957Y-62051967D01*
X143504290Y-63051967D01*
X143790004Y-63004348D02*
X143932861Y-63051967D01*
X144170957Y-63051967D01*
X144266195Y-63004348D01*
X144313814Y-62956729D01*
X144361433Y-62861491D01*
X144361433Y-62766253D01*
X144313814Y-62671015D01*
X144266195Y-62623396D01*
X144170957Y-62575777D01*
X143980480Y-62528158D01*
X143885242Y-62480539D01*
X143837623Y-62432920D01*
X143790004Y-62337682D01*
X143790004Y-62242444D01*
X143837623Y-62147206D01*
X143885242Y-62099587D01*
X143980480Y-62051967D01*
X144218576Y-62051967D01*
X144361433Y-62099587D01*
X144742385Y-63004348D02*
X144885242Y-63051967D01*
X145123338Y-63051967D01*
X145218576Y-63004348D01*
X145266195Y-62956729D01*
X145313814Y-62861491D01*
X145313814Y-62766253D01*
X145266195Y-62671015D01*
X145218576Y-62623396D01*
X145123338Y-62575777D01*
X144932861Y-62528158D01*
X144837623Y-62480539D01*
X144790004Y-62432920D01*
X144742385Y-62337682D01*
X144742385Y-62242444D01*
X144790004Y-62147206D01*
X144837623Y-62099587D01*
X144932861Y-62051967D01*
X145170957Y-62051967D01*
X145313814Y-62099587D01*
X141790004Y-64138158D02*
X141456671Y-64138158D01*
X141456671Y-64661967D02*
X141456671Y-63661967D01*
X141932861Y-63661967D01*
X142313814Y-64661967D02*
X142313814Y-63661967D01*
X143266195Y-64661967D02*
X142790004Y-64661967D01*
X142790004Y-63661967D01*
X143456671Y-63661967D02*
X144028099Y-63661967D01*
X143742385Y-64661967D02*
X143742385Y-63661967D01*
X144361433Y-64138158D02*
X144694766Y-64138158D01*
X144837623Y-64661967D02*
X144361433Y-64661967D01*
X144361433Y-63661967D01*
X144837623Y-63661967D01*
X145837623Y-64661967D02*
X145504290Y-64185777D01*
X145266195Y-64661967D02*
X145266195Y-63661967D01*
X145647147Y-63661967D01*
X145742385Y-63709587D01*
X145790004Y-63757206D01*
X145837623Y-63852444D01*
X145837623Y-63995301D01*
X145790004Y-64090539D01*
X145742385Y-64138158D01*
X145647147Y-64185777D01*
X145266195Y-64185777D01*
X120364333Y-101628380D02*
X119792904Y-101628380D01*
X120078619Y-101628380D02*
X120078619Y-100628380D01*
X119983380Y-100771238D01*
X119888142Y-100866476D01*
X119792904Y-100914095D01*
X121269095Y-100628380D02*
X120792904Y-100628380D01*
X120745285Y-101104571D01*
X120792904Y-101056952D01*
X120888142Y-101009333D01*
X121126238Y-101009333D01*
X121221476Y-101056952D01*
X121269095Y-101104571D01*
X121316714Y-101199809D01*
X121316714Y-101437904D01*
X121269095Y-101533142D01*
X121221476Y-101580761D01*
X121126238Y-101628380D01*
X120888142Y-101628380D01*
X120792904Y-101580761D01*
X120745285Y-101533142D01*
X121935761Y-100628380D02*
X122031000Y-100628380D01*
X122126238Y-100676000D01*
X122173857Y-100723619D01*
X122221476Y-100818857D01*
X122269095Y-101009333D01*
X122269095Y-101247428D01*
X122221476Y-101437904D01*
X122173857Y-101533142D01*
X122126238Y-101580761D01*
X122031000Y-101628380D01*
X121935761Y-101628380D01*
X121840523Y-101580761D01*
X121792904Y-101533142D01*
X121745285Y-101437904D01*
X121697666Y-101247428D01*
X121697666Y-101009333D01*
X121745285Y-100818857D01*
X121792904Y-100723619D01*
X121840523Y-100676000D01*
X121935761Y-100628380D01*
X120388142Y-102571714D02*
X120388142Y-103571714D01*
X120388142Y-102619333D02*
X120483380Y-102571714D01*
X120673857Y-102571714D01*
X120769095Y-102619333D01*
X120816714Y-102666952D01*
X120864333Y-102762190D01*
X120864333Y-103047904D01*
X120816714Y-103143142D01*
X120769095Y-103190761D01*
X120673857Y-103238380D01*
X120483380Y-103238380D01*
X120388142Y-103190761D01*
X121626238Y-102714571D02*
X121292904Y-102714571D01*
X121292904Y-103238380D02*
X121292904Y-102238380D01*
X121769095Y-102238380D01*
X177133333Y-101628380D02*
X176561904Y-101628380D01*
X176847619Y-101628380D02*
X176847619Y-100628380D01*
X176752380Y-100771238D01*
X176657142Y-100866476D01*
X176561904Y-100914095D01*
X177752380Y-100628380D02*
X177847619Y-100628380D01*
X177942857Y-100676000D01*
X177990476Y-100723619D01*
X178038095Y-100818857D01*
X178085714Y-101009333D01*
X178085714Y-101247428D01*
X178038095Y-101437904D01*
X177990476Y-101533142D01*
X177942857Y-101580761D01*
X177847619Y-101628380D01*
X177752380Y-101628380D01*
X177657142Y-101580761D01*
X177609523Y-101533142D01*
X177561904Y-101437904D01*
X177514285Y-101247428D01*
X177514285Y-101009333D01*
X177561904Y-100818857D01*
X177609523Y-100723619D01*
X177657142Y-100676000D01*
X177752380Y-100628380D01*
X178704761Y-100628380D02*
X178800000Y-100628380D01*
X178895238Y-100676000D01*
X178942857Y-100723619D01*
X178990476Y-100818857D01*
X179038095Y-101009333D01*
X179038095Y-101247428D01*
X178990476Y-101437904D01*
X178942857Y-101533142D01*
X178895238Y-101580761D01*
X178800000Y-101628380D01*
X178704761Y-101628380D01*
X178609523Y-101580761D01*
X178561904Y-101533142D01*
X178514285Y-101437904D01*
X178466666Y-101247428D01*
X178466666Y-101009333D01*
X178514285Y-100818857D01*
X178561904Y-100723619D01*
X178609523Y-100676000D01*
X178704761Y-100628380D01*
X177157142Y-102571714D02*
X177157142Y-103571714D01*
X177157142Y-102619333D02*
X177252380Y-102571714D01*
X177442857Y-102571714D01*
X177538095Y-102619333D01*
X177585714Y-102666952D01*
X177633333Y-102762190D01*
X177633333Y-103047904D01*
X177585714Y-103143142D01*
X177538095Y-103190761D01*
X177442857Y-103238380D01*
X177252380Y-103238380D01*
X177157142Y-103190761D01*
X178395238Y-102714571D02*
X178061904Y-102714571D01*
X178061904Y-103238380D02*
X178061904Y-102238380D01*
X178538095Y-102238380D01*
X121166480Y-70079253D02*
X121214099Y-70126872D01*
X121261718Y-70269729D01*
X121261718Y-70364967D01*
X121214099Y-70507825D01*
X121118861Y-70603063D01*
X121023623Y-70650682D01*
X120833147Y-70698301D01*
X120690290Y-70698301D01*
X120499814Y-70650682D01*
X120404576Y-70603063D01*
X120309338Y-70507825D01*
X120261718Y-70364967D01*
X120261718Y-70269729D01*
X120309338Y-70126872D01*
X120356957Y-70079253D01*
X120595052Y-69222110D02*
X121261718Y-69222110D01*
X120214099Y-69460206D02*
X120928385Y-69698301D01*
X120928385Y-69079253D01*
X155140995Y-84534630D02*
X154664804Y-84534630D01*
X154664804Y-83534630D01*
X155379090Y-83534630D02*
X155998138Y-83534630D01*
X155664804Y-83915583D01*
X155807662Y-83915583D01*
X155902900Y-83963202D01*
X155950519Y-84010821D01*
X155998138Y-84106059D01*
X155998138Y-84344154D01*
X155950519Y-84439392D01*
X155902900Y-84487011D01*
X155807662Y-84534630D01*
X155521947Y-84534630D01*
X155426709Y-84487011D01*
X155379090Y-84439392D01*
X129413095Y-100961714D02*
X129413095Y-101628380D01*
X129175000Y-100580761D02*
X128936904Y-101295047D01*
X129555952Y-101295047D01*
X129841666Y-100628380D02*
X130508333Y-100628380D01*
X130079761Y-101628380D01*
X131079761Y-100628380D02*
X131175000Y-100628380D01*
X131270238Y-100676000D01*
X131317857Y-100723619D01*
X131365476Y-100818857D01*
X131413095Y-101009333D01*
X131413095Y-101247428D01*
X131365476Y-101437904D01*
X131317857Y-101533142D01*
X131270238Y-101580761D01*
X131175000Y-101628380D01*
X131079761Y-101628380D01*
X130984523Y-101580761D01*
X130936904Y-101533142D01*
X130889285Y-101437904D01*
X130841666Y-101247428D01*
X130841666Y-101009333D01*
X130889285Y-100818857D01*
X130936904Y-100723619D01*
X130984523Y-100676000D01*
X131079761Y-100628380D01*
X129532142Y-102571714D02*
X129532142Y-103571714D01*
X129532142Y-102619333D02*
X129627380Y-102571714D01*
X129817857Y-102571714D01*
X129913095Y-102619333D01*
X129960714Y-102666952D01*
X130008333Y-102762190D01*
X130008333Y-103047904D01*
X129960714Y-103143142D01*
X129913095Y-103190761D01*
X129817857Y-103238380D01*
X129627380Y-103238380D01*
X129532142Y-103190761D01*
X130770238Y-102714571D02*
X130436904Y-102714571D01*
X130436904Y-103238380D02*
X130436904Y-102238380D01*
X130913095Y-102238380D01*
X171215995Y-79909630D02*
X170739804Y-79909630D01*
X170739804Y-78909630D01*
X171501709Y-79004869D02*
X171549328Y-78957250D01*
X171644566Y-78909630D01*
X171882662Y-78909630D01*
X171977900Y-78957250D01*
X172025519Y-79004869D01*
X172073138Y-79100107D01*
X172073138Y-79195345D01*
X172025519Y-79338202D01*
X171454090Y-79909630D01*
X172073138Y-79909630D01*
X136350476Y-108502380D02*
X136969523Y-108502380D01*
X136636190Y-108883333D01*
X136779047Y-108883333D01*
X136874285Y-108930952D01*
X136921904Y-108978571D01*
X136969523Y-109073809D01*
X136969523Y-109311904D01*
X136921904Y-109407142D01*
X136874285Y-109454761D01*
X136779047Y-109502380D01*
X136493333Y-109502380D01*
X136398095Y-109454761D01*
X136350476Y-109407142D01*
X137302857Y-108502380D02*
X137921904Y-108502380D01*
X137588571Y-108883333D01*
X137731428Y-108883333D01*
X137826666Y-108930952D01*
X137874285Y-108978571D01*
X137921904Y-109073809D01*
X137921904Y-109311904D01*
X137874285Y-109407142D01*
X137826666Y-109454761D01*
X137731428Y-109502380D01*
X137445714Y-109502380D01*
X137350476Y-109454761D01*
X137302857Y-109407142D01*
X136517142Y-110445714D02*
X136517142Y-111445714D01*
X136517142Y-110493333D02*
X136612380Y-110445714D01*
X136802857Y-110445714D01*
X136898095Y-110493333D01*
X136945714Y-110540952D01*
X136993333Y-110636190D01*
X136993333Y-110921904D01*
X136945714Y-111017142D01*
X136898095Y-111064761D01*
X136802857Y-111112380D01*
X136612380Y-111112380D01*
X136517142Y-111064761D01*
X137755238Y-110588571D02*
X137421904Y-110588571D01*
X137421904Y-111112380D02*
X137421904Y-110112380D01*
X137898095Y-110112380D01*
X155613671Y-57133804D02*
X155137480Y-57133804D01*
X155137480Y-56133804D01*
X155851766Y-56133804D02*
X156470814Y-56133804D01*
X156137480Y-56514757D01*
X156280338Y-56514757D01*
X156375576Y-56562376D01*
X156423195Y-56609995D01*
X156470814Y-56705233D01*
X156470814Y-56943328D01*
X156423195Y-57038566D01*
X156375576Y-57086185D01*
X156280338Y-57133804D01*
X155994623Y-57133804D01*
X155899385Y-57086185D01*
X155851766Y-57038566D01*
X155740671Y-44211566D02*
X155693052Y-44259185D01*
X155550195Y-44306804D01*
X155454957Y-44306804D01*
X155312099Y-44259185D01*
X155216861Y-44163947D01*
X155169242Y-44068709D01*
X155121623Y-43878233D01*
X155121623Y-43735376D01*
X155169242Y-43544900D01*
X155216861Y-43449662D01*
X155312099Y-43354424D01*
X155454957Y-43306804D01*
X155550195Y-43306804D01*
X155693052Y-43354424D01*
X155740671Y-43402043D01*
X156121623Y-43402043D02*
X156169242Y-43354424D01*
X156264480Y-43306804D01*
X156502576Y-43306804D01*
X156597814Y-43354424D01*
X156645433Y-43402043D01*
X156693052Y-43497281D01*
X156693052Y-43592519D01*
X156645433Y-43735376D01*
X156074004Y-44306804D01*
X156693052Y-44306804D01*
X177309333Y-71208979D02*
X177261714Y-71256598D01*
X177118857Y-71304217D01*
X177023619Y-71304217D01*
X176880761Y-71256598D01*
X176785523Y-71161360D01*
X176737904Y-71066122D01*
X176690285Y-70875646D01*
X176690285Y-70732789D01*
X176737904Y-70542313D01*
X176785523Y-70447075D01*
X176880761Y-70351837D01*
X177023619Y-70304217D01*
X177118857Y-70304217D01*
X177261714Y-70351837D01*
X177309333Y-70399456D01*
X178261714Y-71304217D02*
X177690285Y-71304217D01*
X177976000Y-71304217D02*
X177976000Y-70304217D01*
X177880761Y-70447075D01*
X177785523Y-70542313D01*
X177690285Y-70589932D01*
X171488671Y-52688804D02*
X171012480Y-52688804D01*
X171012480Y-51688804D01*
X171774385Y-51784043D02*
X171822004Y-51736424D01*
X171917242Y-51688804D01*
X172155338Y-51688804D01*
X172250576Y-51736424D01*
X172298195Y-51784043D01*
X172345814Y-51879281D01*
X172345814Y-51974519D01*
X172298195Y-52117376D01*
X171726766Y-52688804D01*
X172345814Y-52688804D01*
X132461095Y-100961714D02*
X132461095Y-101628380D01*
X132223000Y-100580761D02*
X131984904Y-101295047D01*
X132603952Y-101295047D01*
X132889666Y-100628380D02*
X133556333Y-100628380D01*
X133127761Y-101628380D01*
X134127761Y-100628380D02*
X134223000Y-100628380D01*
X134318238Y-100676000D01*
X134365857Y-100723619D01*
X134413476Y-100818857D01*
X134461095Y-101009333D01*
X134461095Y-101247428D01*
X134413476Y-101437904D01*
X134365857Y-101533142D01*
X134318238Y-101580761D01*
X134223000Y-101628380D01*
X134127761Y-101628380D01*
X134032523Y-101580761D01*
X133984904Y-101533142D01*
X133937285Y-101437904D01*
X133889666Y-101247428D01*
X133889666Y-101009333D01*
X133937285Y-100818857D01*
X133984904Y-100723619D01*
X134032523Y-100676000D01*
X134127761Y-100628380D01*
X132580142Y-102571714D02*
X132580142Y-103571714D01*
X132580142Y-102619333D02*
X132675380Y-102571714D01*
X132865857Y-102571714D01*
X132961095Y-102619333D01*
X133008714Y-102666952D01*
X133056333Y-102762190D01*
X133056333Y-103047904D01*
X133008714Y-103143142D01*
X132961095Y-103190761D01*
X132865857Y-103238380D01*
X132675380Y-103238380D01*
X132580142Y-103190761D01*
X133818238Y-102714571D02*
X133484904Y-102714571D01*
X133484904Y-103238380D02*
X133484904Y-102238380D01*
X133961095Y-102238380D01*
X138422671Y-79762967D02*
X137946480Y-79762967D01*
X137946480Y-78762967D01*
X138708385Y-78858206D02*
X138756004Y-78810587D01*
X138851242Y-78762967D01*
X139089338Y-78762967D01*
X139184576Y-78810587D01*
X139232195Y-78858206D01*
X139279814Y-78953444D01*
X139279814Y-79048682D01*
X139232195Y-79191539D01*
X138660766Y-79762967D01*
X139279814Y-79762967D01*
X141065718Y-43168396D02*
X140065718Y-43168396D01*
X141065718Y-42692206D02*
X140065718Y-42692206D01*
X141065718Y-42120777D01*
X140065718Y-42120777D01*
X141065718Y-41644587D02*
X140065718Y-41644587D01*
X140065718Y-41263634D01*
X140113338Y-41168396D01*
X140160957Y-41120777D01*
X140256195Y-41073158D01*
X140399052Y-41073158D01*
X140494290Y-41120777D01*
X140541909Y-41168396D01*
X140589528Y-41263634D01*
X140589528Y-41644587D01*
X124968095Y-108835714D02*
X124968095Y-109502380D01*
X124730000Y-108454761D02*
X124491904Y-109169047D01*
X125110952Y-109169047D01*
X125396666Y-108502380D02*
X126063333Y-108502380D01*
X125634761Y-109502380D01*
X126634761Y-108502380D02*
X126730000Y-108502380D01*
X126825238Y-108550000D01*
X126872857Y-108597619D01*
X126920476Y-108692857D01*
X126968095Y-108883333D01*
X126968095Y-109121428D01*
X126920476Y-109311904D01*
X126872857Y-109407142D01*
X126825238Y-109454761D01*
X126730000Y-109502380D01*
X126634761Y-109502380D01*
X126539523Y-109454761D01*
X126491904Y-109407142D01*
X126444285Y-109311904D01*
X126396666Y-109121428D01*
X126396666Y-108883333D01*
X126444285Y-108692857D01*
X126491904Y-108597619D01*
X126539523Y-108550000D01*
X126634761Y-108502380D01*
X125087142Y-110445714D02*
X125087142Y-111445714D01*
X125087142Y-110493333D02*
X125182380Y-110445714D01*
X125372857Y-110445714D01*
X125468095Y-110493333D01*
X125515714Y-110540952D01*
X125563333Y-110636190D01*
X125563333Y-110921904D01*
X125515714Y-111017142D01*
X125468095Y-111064761D01*
X125372857Y-111112380D01*
X125182380Y-111112380D01*
X125087142Y-111064761D01*
X126325238Y-110588571D02*
X125991904Y-110588571D01*
X125991904Y-111112380D02*
X125991904Y-110112380D01*
X126468095Y-110112380D01*
X123944671Y-75095729D02*
X123897052Y-75143348D01*
X123754195Y-75190967D01*
X123658957Y-75190967D01*
X123516099Y-75143348D01*
X123420861Y-75048110D01*
X123373242Y-74952872D01*
X123325623Y-74762396D01*
X123325623Y-74619539D01*
X123373242Y-74429063D01*
X123420861Y-74333825D01*
X123516099Y-74238587D01*
X123658957Y-74190967D01*
X123754195Y-74190967D01*
X123897052Y-74238587D01*
X123944671Y-74286206D01*
X124278004Y-74190967D02*
X124897052Y-74190967D01*
X124563718Y-74571920D01*
X124706576Y-74571920D01*
X124801814Y-74619539D01*
X124849433Y-74667158D01*
X124897052Y-74762396D01*
X124897052Y-75000491D01*
X124849433Y-75095729D01*
X124801814Y-75143348D01*
X124706576Y-75190967D01*
X124420861Y-75190967D01*
X124325623Y-75143348D01*
X124278004Y-75095729D01*
X130635476Y-108502380D02*
X131254523Y-108502380D01*
X130921190Y-108883333D01*
X131064047Y-108883333D01*
X131159285Y-108930952D01*
X131206904Y-108978571D01*
X131254523Y-109073809D01*
X131254523Y-109311904D01*
X131206904Y-109407142D01*
X131159285Y-109454761D01*
X131064047Y-109502380D01*
X130778333Y-109502380D01*
X130683095Y-109454761D01*
X130635476Y-109407142D01*
X131587857Y-108502380D02*
X132206904Y-108502380D01*
X131873571Y-108883333D01*
X132016428Y-108883333D01*
X132111666Y-108930952D01*
X132159285Y-108978571D01*
X132206904Y-109073809D01*
X132206904Y-109311904D01*
X132159285Y-109407142D01*
X132111666Y-109454761D01*
X132016428Y-109502380D01*
X131730714Y-109502380D01*
X131635476Y-109454761D01*
X131587857Y-109407142D01*
X130802142Y-110445714D02*
X130802142Y-111445714D01*
X130802142Y-110493333D02*
X130897380Y-110445714D01*
X131087857Y-110445714D01*
X131183095Y-110493333D01*
X131230714Y-110540952D01*
X131278333Y-110636190D01*
X131278333Y-110921904D01*
X131230714Y-111017142D01*
X131183095Y-111064761D01*
X131087857Y-111112380D01*
X130897380Y-111112380D01*
X130802142Y-111064761D01*
X132040238Y-110588571D02*
X131706904Y-110588571D01*
X131706904Y-111112380D02*
X131706904Y-110112380D01*
X132183095Y-110112380D01*
X125841285Y-100628380D02*
X126460333Y-100628380D01*
X126127000Y-101009333D01*
X126269857Y-101009333D01*
X126365095Y-101056952D01*
X126412714Y-101104571D01*
X126460333Y-101199809D01*
X126460333Y-101437904D01*
X126412714Y-101533142D01*
X126365095Y-101580761D01*
X126269857Y-101628380D01*
X125984142Y-101628380D01*
X125888904Y-101580761D01*
X125841285Y-101533142D01*
X126793666Y-100628380D02*
X127412714Y-100628380D01*
X127079380Y-101009333D01*
X127222238Y-101009333D01*
X127317476Y-101056952D01*
X127365095Y-101104571D01*
X127412714Y-101199809D01*
X127412714Y-101437904D01*
X127365095Y-101533142D01*
X127317476Y-101580761D01*
X127222238Y-101628380D01*
X126936523Y-101628380D01*
X126841285Y-101580761D01*
X126793666Y-101533142D01*
X128031761Y-100628380D02*
X128127000Y-100628380D01*
X128222238Y-100676000D01*
X128269857Y-100723619D01*
X128317476Y-100818857D01*
X128365095Y-101009333D01*
X128365095Y-101247428D01*
X128317476Y-101437904D01*
X128269857Y-101533142D01*
X128222238Y-101580761D01*
X128127000Y-101628380D01*
X128031761Y-101628380D01*
X127936523Y-101580761D01*
X127888904Y-101533142D01*
X127841285Y-101437904D01*
X127793666Y-101247428D01*
X127793666Y-101009333D01*
X127841285Y-100818857D01*
X127888904Y-100723619D01*
X127936523Y-100676000D01*
X128031761Y-100628380D01*
X126484142Y-102571714D02*
X126484142Y-103571714D01*
X126484142Y-102619333D02*
X126579380Y-102571714D01*
X126769857Y-102571714D01*
X126865095Y-102619333D01*
X126912714Y-102666952D01*
X126960333Y-102762190D01*
X126960333Y-103047904D01*
X126912714Y-103143142D01*
X126865095Y-103190761D01*
X126769857Y-103238380D01*
X126579380Y-103238380D01*
X126484142Y-103190761D01*
X127722238Y-102714571D02*
X127388904Y-102714571D01*
X127388904Y-103238380D02*
X127388904Y-102238380D01*
X127865095Y-102238380D01*
X163655428Y-109502380D02*
X163084000Y-109502380D01*
X163369714Y-109502380D02*
X163369714Y-108502380D01*
X163274476Y-108645238D01*
X163179238Y-108740476D01*
X163084000Y-108788095D01*
X164084000Y-109407142D02*
X164131619Y-109454761D01*
X164084000Y-109502380D01*
X164036380Y-109454761D01*
X164084000Y-109407142D01*
X164084000Y-109502380D01*
X165036380Y-108502380D02*
X164560190Y-108502380D01*
X164512571Y-108978571D01*
X164560190Y-108930952D01*
X164655428Y-108883333D01*
X164893523Y-108883333D01*
X164988761Y-108930952D01*
X165036380Y-108978571D01*
X165084000Y-109073809D01*
X165084000Y-109311904D01*
X165036380Y-109407142D01*
X164988761Y-109454761D01*
X164893523Y-109502380D01*
X164655428Y-109502380D01*
X164560190Y-109454761D01*
X164512571Y-109407142D01*
X163441142Y-110445714D02*
X163441142Y-111112380D01*
X163441142Y-110540952D02*
X163488761Y-110493333D01*
X163584000Y-110445714D01*
X163726857Y-110445714D01*
X163822095Y-110493333D01*
X163869714Y-110588571D01*
X163869714Y-111112380D01*
X164679238Y-110588571D02*
X164345904Y-110588571D01*
X164345904Y-111112380D02*
X164345904Y-110112380D01*
X164822095Y-110112380D01*
X126133338Y-63826967D02*
X126323814Y-63826967D01*
X126419052Y-63874587D01*
X126514290Y-63969825D01*
X126561909Y-64160301D01*
X126561909Y-64493634D01*
X126514290Y-64684110D01*
X126419052Y-64779348D01*
X126323814Y-64826967D01*
X126133338Y-64826967D01*
X126038099Y-64779348D01*
X125942861Y-64684110D01*
X125895242Y-64493634D01*
X125895242Y-64160301D01*
X125942861Y-63969825D01*
X126038099Y-63874587D01*
X126133338Y-63826967D01*
X126990480Y-63826967D02*
X126990480Y-64636491D01*
X127038099Y-64731729D01*
X127085718Y-64779348D01*
X127180957Y-64826967D01*
X127371433Y-64826967D01*
X127466671Y-64779348D01*
X127514290Y-64731729D01*
X127561909Y-64636491D01*
X127561909Y-63826967D01*
X127895242Y-63826967D02*
X128466671Y-63826967D01*
X128180957Y-64826967D02*
X128180957Y-63826967D01*
X152416000Y-100723619D02*
X152463619Y-100676000D01*
X152558857Y-100628380D01*
X152796952Y-100628380D01*
X152892190Y-100676000D01*
X152939809Y-100723619D01*
X152987428Y-100818857D01*
X152987428Y-100914095D01*
X152939809Y-101056952D01*
X152368380Y-101628380D01*
X152987428Y-101628380D01*
X153416000Y-101533142D02*
X153463619Y-101580761D01*
X153416000Y-101628380D01*
X153368380Y-101580761D01*
X153416000Y-101533142D01*
X153416000Y-101628380D01*
X153844571Y-100723619D02*
X153892190Y-100676000D01*
X153987428Y-100628380D01*
X154225523Y-100628380D01*
X154320761Y-100676000D01*
X154368380Y-100723619D01*
X154416000Y-100818857D01*
X154416000Y-100914095D01*
X154368380Y-101056952D01*
X153796952Y-101628380D01*
X154416000Y-101628380D01*
X152773142Y-102571714D02*
X152773142Y-103238380D01*
X152773142Y-102666952D02*
X152820761Y-102619333D01*
X152916000Y-102571714D01*
X153058857Y-102571714D01*
X153154095Y-102619333D01*
X153201714Y-102714571D01*
X153201714Y-103238380D01*
X154011238Y-102714571D02*
X153677904Y-102714571D01*
X153677904Y-103238380D02*
X153677904Y-102238380D01*
X154154095Y-102238380D01*
X150615995Y-70939392D02*
X150568376Y-70987011D01*
X150425519Y-71034630D01*
X150330281Y-71034630D01*
X150187423Y-70987011D01*
X150092185Y-70891773D01*
X150044566Y-70796535D01*
X149996947Y-70606059D01*
X149996947Y-70463202D01*
X150044566Y-70272726D01*
X150092185Y-70177488D01*
X150187423Y-70082250D01*
X150330281Y-70034630D01*
X150425519Y-70034630D01*
X150568376Y-70082250D01*
X150615995Y-70129869D01*
X151473138Y-70367964D02*
X151473138Y-71034630D01*
X151235042Y-69987011D02*
X150996947Y-70701297D01*
X151615995Y-70701297D01*
X135509095Y-100628380D02*
X135318619Y-100628380D01*
X135223380Y-100676000D01*
X135175761Y-100723619D01*
X135080523Y-100866476D01*
X135032904Y-101056952D01*
X135032904Y-101437904D01*
X135080523Y-101533142D01*
X135128142Y-101580761D01*
X135223380Y-101628380D01*
X135413857Y-101628380D01*
X135509095Y-101580761D01*
X135556714Y-101533142D01*
X135604333Y-101437904D01*
X135604333Y-101199809D01*
X135556714Y-101104571D01*
X135509095Y-101056952D01*
X135413857Y-101009333D01*
X135223380Y-101009333D01*
X135128142Y-101056952D01*
X135080523Y-101104571D01*
X135032904Y-101199809D01*
X136175761Y-101056952D02*
X136080523Y-101009333D01*
X136032904Y-100961714D01*
X135985285Y-100866476D01*
X135985285Y-100818857D01*
X136032904Y-100723619D01*
X136080523Y-100676000D01*
X136175761Y-100628380D01*
X136366238Y-100628380D01*
X136461476Y-100676000D01*
X136509095Y-100723619D01*
X136556714Y-100818857D01*
X136556714Y-100866476D01*
X136509095Y-100961714D01*
X136461476Y-101009333D01*
X136366238Y-101056952D01*
X136175761Y-101056952D01*
X136080523Y-101104571D01*
X136032904Y-101152190D01*
X135985285Y-101247428D01*
X135985285Y-101437904D01*
X136032904Y-101533142D01*
X136080523Y-101580761D01*
X136175761Y-101628380D01*
X136366238Y-101628380D01*
X136461476Y-101580761D01*
X136509095Y-101533142D01*
X136556714Y-101437904D01*
X136556714Y-101247428D01*
X136509095Y-101152190D01*
X136461476Y-101104571D01*
X136366238Y-101056952D01*
X137175761Y-100628380D02*
X137271000Y-100628380D01*
X137366238Y-100676000D01*
X137413857Y-100723619D01*
X137461476Y-100818857D01*
X137509095Y-101009333D01*
X137509095Y-101247428D01*
X137461476Y-101437904D01*
X137413857Y-101533142D01*
X137366238Y-101580761D01*
X137271000Y-101628380D01*
X137175761Y-101628380D01*
X137080523Y-101580761D01*
X137032904Y-101533142D01*
X136985285Y-101437904D01*
X136937666Y-101247428D01*
X136937666Y-101009333D01*
X136985285Y-100818857D01*
X137032904Y-100723619D01*
X137080523Y-100676000D01*
X137175761Y-100628380D01*
X135628142Y-102571714D02*
X135628142Y-103571714D01*
X135628142Y-102619333D02*
X135723380Y-102571714D01*
X135913857Y-102571714D01*
X136009095Y-102619333D01*
X136056714Y-102666952D01*
X136104333Y-102762190D01*
X136104333Y-103047904D01*
X136056714Y-103143142D01*
X136009095Y-103190761D01*
X135913857Y-103238380D01*
X135723380Y-103238380D01*
X135628142Y-103190761D01*
X136866238Y-102714571D02*
X136532904Y-102714571D01*
X136532904Y-103238380D02*
X136532904Y-102238380D01*
X137009095Y-102238380D01*
X156178285Y-100961714D02*
X156178285Y-101628380D01*
X155940190Y-100580761D02*
X155702095Y-101295047D01*
X156321142Y-101295047D01*
X156606857Y-100628380D02*
X157273523Y-100628380D01*
X156844952Y-101628380D01*
X155821142Y-102571714D02*
X155821142Y-103571714D01*
X155821142Y-102619333D02*
X155916380Y-102571714D01*
X156106857Y-102571714D01*
X156202095Y-102619333D01*
X156249714Y-102666952D01*
X156297333Y-102762190D01*
X156297333Y-103047904D01*
X156249714Y-103143142D01*
X156202095Y-103190761D01*
X156106857Y-103238380D01*
X155916380Y-103238380D01*
X155821142Y-103190761D01*
X157059238Y-102714571D02*
X156725904Y-102714571D01*
X156725904Y-103238380D02*
X156725904Y-102238380D01*
X157202095Y-102238380D01*
X142145528Y-85920539D02*
X142050290Y-85872920D01*
X142002671Y-85825301D01*
X141955052Y-85730063D01*
X141955052Y-85682444D01*
X142002671Y-85587206D01*
X142050290Y-85539587D01*
X142145528Y-85491967D01*
X142336004Y-85491967D01*
X142431242Y-85539587D01*
X142478861Y-85587206D01*
X142526480Y-85682444D01*
X142526480Y-85730063D01*
X142478861Y-85825301D01*
X142431242Y-85872920D01*
X142336004Y-85920539D01*
X142145528Y-85920539D01*
X142050290Y-85968158D01*
X142002671Y-86015777D01*
X141955052Y-86111015D01*
X141955052Y-86301491D01*
X142002671Y-86396729D01*
X142050290Y-86444348D01*
X142145528Y-86491967D01*
X142336004Y-86491967D01*
X142431242Y-86444348D01*
X142478861Y-86396729D01*
X142526480Y-86301491D01*
X142526480Y-86111015D01*
X142478861Y-86015777D01*
X142431242Y-85968158D01*
X142336004Y-85920539D01*
X143145528Y-85491967D02*
X143240766Y-85491967D01*
X143336004Y-85539587D01*
X143383623Y-85587206D01*
X143431242Y-85682444D01*
X143478861Y-85872920D01*
X143478861Y-86111015D01*
X143431242Y-86301491D01*
X143383623Y-86396729D01*
X143336004Y-86444348D01*
X143240766Y-86491967D01*
X143145528Y-86491967D01*
X143050290Y-86444348D01*
X143002671Y-86396729D01*
X142955052Y-86301491D01*
X142907433Y-86111015D01*
X142907433Y-85872920D01*
X142955052Y-85682444D01*
X143002671Y-85587206D01*
X143050290Y-85539587D01*
X143145528Y-85491967D01*
X144669338Y-86491967D02*
X144669338Y-85491967D01*
X145002671Y-86206253D01*
X145336004Y-85491967D01*
X145336004Y-86491967D01*
X142288385Y-87578158D02*
X142431242Y-87625777D01*
X142478861Y-87673396D01*
X142526480Y-87768634D01*
X142526480Y-87911491D01*
X142478861Y-88006729D01*
X142431242Y-88054348D01*
X142336004Y-88101967D01*
X141955052Y-88101967D01*
X141955052Y-87101967D01*
X142288385Y-87101967D01*
X142383623Y-87149587D01*
X142431242Y-87197206D01*
X142478861Y-87292444D01*
X142478861Y-87387682D01*
X142431242Y-87482920D01*
X142383623Y-87530539D01*
X142288385Y-87578158D01*
X141955052Y-87578158D01*
X142907433Y-87816253D02*
X143383623Y-87816253D01*
X142812195Y-88101967D02*
X143145528Y-87101967D01*
X143478861Y-88101967D01*
X143812195Y-88101967D02*
X143812195Y-87101967D01*
X144383623Y-88101967D01*
X144383623Y-87101967D01*
X144859814Y-88101967D02*
X144859814Y-87101967D01*
X145097909Y-87101967D01*
X145240766Y-87149587D01*
X145336004Y-87244825D01*
X145383623Y-87340063D01*
X145431242Y-87530539D01*
X145431242Y-87673396D01*
X145383623Y-87863872D01*
X145336004Y-87959110D01*
X145240766Y-88054348D01*
X145097909Y-88101967D01*
X144859814Y-88101967D01*
X142026480Y-89711967D02*
X142026480Y-88711967D01*
X142407433Y-88711967D01*
X142502671Y-88759587D01*
X142550290Y-88807206D01*
X142597909Y-88902444D01*
X142597909Y-89045301D01*
X142550290Y-89140539D01*
X142502671Y-89188158D01*
X142407433Y-89235777D01*
X142026480Y-89235777D01*
X142978861Y-89426253D02*
X143455052Y-89426253D01*
X142883623Y-89711967D02*
X143216957Y-88711967D01*
X143550290Y-89711967D01*
X143836004Y-89664348D02*
X143978861Y-89711967D01*
X144216957Y-89711967D01*
X144312195Y-89664348D01*
X144359814Y-89616729D01*
X144407433Y-89521491D01*
X144407433Y-89426253D01*
X144359814Y-89331015D01*
X144312195Y-89283396D01*
X144216957Y-89235777D01*
X144026480Y-89188158D01*
X143931242Y-89140539D01*
X143883623Y-89092920D01*
X143836004Y-88997682D01*
X143836004Y-88902444D01*
X143883623Y-88807206D01*
X143931242Y-88759587D01*
X144026480Y-88711967D01*
X144264576Y-88711967D01*
X144407433Y-88759587D01*
X144788385Y-89664348D02*
X144931242Y-89711967D01*
X145169338Y-89711967D01*
X145264576Y-89664348D01*
X145312195Y-89616729D01*
X145359814Y-89521491D01*
X145359814Y-89426253D01*
X145312195Y-89331015D01*
X145264576Y-89283396D01*
X145169338Y-89235777D01*
X144978861Y-89188158D01*
X144883623Y-89140539D01*
X144836004Y-89092920D01*
X144788385Y-88997682D01*
X144788385Y-88902444D01*
X144836004Y-88807206D01*
X144883623Y-88759587D01*
X144978861Y-88711967D01*
X145216957Y-88711967D01*
X145359814Y-88759587D01*
X141836004Y-90798158D02*
X141502671Y-90798158D01*
X141502671Y-91321967D02*
X141502671Y-90321967D01*
X141978861Y-90321967D01*
X142359814Y-91321967D02*
X142359814Y-90321967D01*
X143312195Y-91321967D02*
X142836004Y-91321967D01*
X142836004Y-90321967D01*
X143502671Y-90321967D02*
X144074099Y-90321967D01*
X143788385Y-91321967D02*
X143788385Y-90321967D01*
X144407433Y-90798158D02*
X144740766Y-90798158D01*
X144883623Y-91321967D02*
X144407433Y-91321967D01*
X144407433Y-90321967D01*
X144883623Y-90321967D01*
X145883623Y-91321967D02*
X145550290Y-90845777D01*
X145312195Y-91321967D02*
X145312195Y-90321967D01*
X145693147Y-90321967D01*
X145788385Y-90369587D01*
X145836004Y-90417206D01*
X145883623Y-90512444D01*
X145883623Y-90655301D01*
X145836004Y-90750539D01*
X145788385Y-90798158D01*
X145693147Y-90845777D01*
X145312195Y-90845777D01*
X155867671Y-47894566D02*
X155820052Y-47942185D01*
X155677195Y-47989804D01*
X155581957Y-47989804D01*
X155439099Y-47942185D01*
X155343861Y-47846947D01*
X155296242Y-47751709D01*
X155248623Y-47561233D01*
X155248623Y-47418376D01*
X155296242Y-47227900D01*
X155343861Y-47132662D01*
X155439099Y-47037424D01*
X155581957Y-46989804D01*
X155677195Y-46989804D01*
X155820052Y-47037424D01*
X155867671Y-47085043D01*
X156201004Y-46989804D02*
X156820052Y-46989804D01*
X156486718Y-47370757D01*
X156629576Y-47370757D01*
X156724814Y-47418376D01*
X156772433Y-47465995D01*
X156820052Y-47561233D01*
X156820052Y-47799328D01*
X156772433Y-47894566D01*
X156724814Y-47942185D01*
X156629576Y-47989804D01*
X156343861Y-47989804D01*
X156248623Y-47942185D01*
X156201004Y-47894566D01*
X171037333Y-101628380D02*
X170465904Y-101628380D01*
X170751619Y-101628380D02*
X170751619Y-100628380D01*
X170656380Y-100771238D01*
X170561142Y-100866476D01*
X170465904Y-100914095D01*
X171656380Y-100628380D02*
X171751619Y-100628380D01*
X171846857Y-100676000D01*
X171894476Y-100723619D01*
X171942095Y-100818857D01*
X171989714Y-101009333D01*
X171989714Y-101247428D01*
X171942095Y-101437904D01*
X171894476Y-101533142D01*
X171846857Y-101580761D01*
X171751619Y-101628380D01*
X171656380Y-101628380D01*
X171561142Y-101580761D01*
X171513523Y-101533142D01*
X171465904Y-101437904D01*
X171418285Y-101247428D01*
X171418285Y-101009333D01*
X171465904Y-100818857D01*
X171513523Y-100723619D01*
X171561142Y-100676000D01*
X171656380Y-100628380D01*
X172608761Y-100628380D02*
X172704000Y-100628380D01*
X172799238Y-100676000D01*
X172846857Y-100723619D01*
X172894476Y-100818857D01*
X172942095Y-101009333D01*
X172942095Y-101247428D01*
X172894476Y-101437904D01*
X172846857Y-101533142D01*
X172799238Y-101580761D01*
X172704000Y-101628380D01*
X172608761Y-101628380D01*
X172513523Y-101580761D01*
X172465904Y-101533142D01*
X172418285Y-101437904D01*
X172370666Y-101247428D01*
X172370666Y-101009333D01*
X172418285Y-100818857D01*
X172465904Y-100723619D01*
X172513523Y-100676000D01*
X172608761Y-100628380D01*
X171061142Y-102571714D02*
X171061142Y-103571714D01*
X171061142Y-102619333D02*
X171156380Y-102571714D01*
X171346857Y-102571714D01*
X171442095Y-102619333D01*
X171489714Y-102666952D01*
X171537333Y-102762190D01*
X171537333Y-103047904D01*
X171489714Y-103143142D01*
X171442095Y-103190761D01*
X171346857Y-103238380D01*
X171156380Y-103238380D01*
X171061142Y-103190761D01*
X172299238Y-102714571D02*
X171965904Y-102714571D01*
X171965904Y-103238380D02*
X171965904Y-102238380D01*
X172442095Y-102238380D01*
X145700714Y-101628380D02*
X145129285Y-101628380D01*
X145415000Y-101628380D02*
X145415000Y-100628380D01*
X145319761Y-100771238D01*
X145224523Y-100866476D01*
X145129285Y-100914095D01*
X144772142Y-102571714D02*
X144772142Y-103238380D01*
X144772142Y-102666952D02*
X144819761Y-102619333D01*
X144915000Y-102571714D01*
X145057857Y-102571714D01*
X145153095Y-102619333D01*
X145200714Y-102714571D01*
X145200714Y-103238380D01*
X146010238Y-102714571D02*
X145676904Y-102714571D01*
X145676904Y-103238380D02*
X145676904Y-102238380D01*
X146153095Y-102238380D01*
X149368000Y-100723619D02*
X149415619Y-100676000D01*
X149510857Y-100628380D01*
X149748952Y-100628380D01*
X149844190Y-100676000D01*
X149891809Y-100723619D01*
X149939428Y-100818857D01*
X149939428Y-100914095D01*
X149891809Y-101056952D01*
X149320380Y-101628380D01*
X149939428Y-101628380D01*
X150368000Y-101533142D02*
X150415619Y-101580761D01*
X150368000Y-101628380D01*
X150320380Y-101580761D01*
X150368000Y-101533142D01*
X150368000Y-101628380D01*
X150796571Y-100723619D02*
X150844190Y-100676000D01*
X150939428Y-100628380D01*
X151177523Y-100628380D01*
X151272761Y-100676000D01*
X151320380Y-100723619D01*
X151368000Y-100818857D01*
X151368000Y-100914095D01*
X151320380Y-101056952D01*
X150748952Y-101628380D01*
X151368000Y-101628380D01*
X149725142Y-102571714D02*
X149725142Y-103238380D01*
X149725142Y-102666952D02*
X149772761Y-102619333D01*
X149868000Y-102571714D01*
X150010857Y-102571714D01*
X150106095Y-102619333D01*
X150153714Y-102714571D01*
X150153714Y-103238380D01*
X150963238Y-102714571D02*
X150629904Y-102714571D01*
X150629904Y-103238380D02*
X150629904Y-102238380D01*
X151106095Y-102238380D01*
X128119718Y-70174396D02*
X127119718Y-70174396D01*
X128119718Y-69698206D02*
X127119718Y-69698206D01*
X128119718Y-69126777D01*
X127119718Y-69126777D01*
X128119718Y-68650587D02*
X127119718Y-68650587D01*
X127119718Y-68269634D01*
X127167338Y-68174396D01*
X127214957Y-68126777D01*
X127310195Y-68079158D01*
X127453052Y-68079158D01*
X127548290Y-68126777D01*
X127595909Y-68174396D01*
X127643528Y-68269634D01*
X127643528Y-68650587D01*
X164369904Y-100723619D02*
X164417523Y-100676000D01*
X164512761Y-100628380D01*
X164750857Y-100628380D01*
X164846095Y-100676000D01*
X164893714Y-100723619D01*
X164941333Y-100818857D01*
X164941333Y-100914095D01*
X164893714Y-101056952D01*
X164322285Y-101628380D01*
X164941333Y-101628380D01*
X165322285Y-100723619D02*
X165369904Y-100676000D01*
X165465142Y-100628380D01*
X165703238Y-100628380D01*
X165798476Y-100676000D01*
X165846095Y-100723619D01*
X165893714Y-100818857D01*
X165893714Y-100914095D01*
X165846095Y-101056952D01*
X165274666Y-101628380D01*
X165893714Y-101628380D01*
X166512761Y-100628380D02*
X166608000Y-100628380D01*
X166703238Y-100676000D01*
X166750857Y-100723619D01*
X166798476Y-100818857D01*
X166846095Y-101009333D01*
X166846095Y-101247428D01*
X166798476Y-101437904D01*
X166750857Y-101533142D01*
X166703238Y-101580761D01*
X166608000Y-101628380D01*
X166512761Y-101628380D01*
X166417523Y-101580761D01*
X166369904Y-101533142D01*
X166322285Y-101437904D01*
X166274666Y-101247428D01*
X166274666Y-101009333D01*
X166322285Y-100818857D01*
X166369904Y-100723619D01*
X166417523Y-100676000D01*
X166512761Y-100628380D01*
X164965142Y-102571714D02*
X164965142Y-103571714D01*
X164965142Y-102619333D02*
X165060380Y-102571714D01*
X165250857Y-102571714D01*
X165346095Y-102619333D01*
X165393714Y-102666952D01*
X165441333Y-102762190D01*
X165441333Y-103047904D01*
X165393714Y-103143142D01*
X165346095Y-103190761D01*
X165250857Y-103238380D01*
X165060380Y-103238380D01*
X164965142Y-103190761D01*
X166203238Y-102714571D02*
X165869904Y-102714571D01*
X165869904Y-103238380D02*
X165869904Y-102238380D01*
X166346095Y-102238380D01*
X153216480Y-43640090D02*
X153264099Y-43687709D01*
X153311718Y-43830566D01*
X153311718Y-43925804D01*
X153264099Y-44068662D01*
X153168861Y-44163900D01*
X153073623Y-44211519D01*
X152883147Y-44259138D01*
X152740290Y-44259138D01*
X152549814Y-44211519D01*
X152454576Y-44163900D01*
X152359338Y-44068662D01*
X152311718Y-43925804D01*
X152311718Y-43830566D01*
X152359338Y-43687709D01*
X152406957Y-43640090D01*
X152645052Y-42782947D02*
X153311718Y-42782947D01*
X152264099Y-43021043D02*
X152978385Y-43259138D01*
X152978385Y-42640090D01*
X167989333Y-101628380D02*
X167417904Y-101628380D01*
X167703619Y-101628380D02*
X167703619Y-100628380D01*
X167608380Y-100771238D01*
X167513142Y-100866476D01*
X167417904Y-100914095D01*
X168608380Y-100628380D02*
X168703619Y-100628380D01*
X168798857Y-100676000D01*
X168846476Y-100723619D01*
X168894095Y-100818857D01*
X168941714Y-101009333D01*
X168941714Y-101247428D01*
X168894095Y-101437904D01*
X168846476Y-101533142D01*
X168798857Y-101580761D01*
X168703619Y-101628380D01*
X168608380Y-101628380D01*
X168513142Y-101580761D01*
X168465523Y-101533142D01*
X168417904Y-101437904D01*
X168370285Y-101247428D01*
X168370285Y-101009333D01*
X168417904Y-100818857D01*
X168465523Y-100723619D01*
X168513142Y-100676000D01*
X168608380Y-100628380D01*
X169560761Y-100628380D02*
X169656000Y-100628380D01*
X169751238Y-100676000D01*
X169798857Y-100723619D01*
X169846476Y-100818857D01*
X169894095Y-101009333D01*
X169894095Y-101247428D01*
X169846476Y-101437904D01*
X169798857Y-101533142D01*
X169751238Y-101580761D01*
X169656000Y-101628380D01*
X169560761Y-101628380D01*
X169465523Y-101580761D01*
X169417904Y-101533142D01*
X169370285Y-101437904D01*
X169322666Y-101247428D01*
X169322666Y-101009333D01*
X169370285Y-100818857D01*
X169417904Y-100723619D01*
X169465523Y-100676000D01*
X169560761Y-100628380D01*
X168013142Y-102571714D02*
X168013142Y-103571714D01*
X168013142Y-102619333D02*
X168108380Y-102571714D01*
X168298857Y-102571714D01*
X168394095Y-102619333D01*
X168441714Y-102666952D01*
X168489333Y-102762190D01*
X168489333Y-103047904D01*
X168441714Y-103143142D01*
X168394095Y-103190761D01*
X168298857Y-103238380D01*
X168108380Y-103238380D01*
X168013142Y-103190761D01*
X169251238Y-102714571D02*
X168917904Y-102714571D01*
X168917904Y-103238380D02*
X168917904Y-102238380D01*
X169394095Y-102238380D01*
X176949671Y-47132566D02*
X176902052Y-47180185D01*
X176759195Y-47227804D01*
X176663957Y-47227804D01*
X176521099Y-47180185D01*
X176425861Y-47084947D01*
X176378242Y-46989709D01*
X176330623Y-46799233D01*
X176330623Y-46656376D01*
X176378242Y-46465900D01*
X176425861Y-46370662D01*
X176521099Y-46275424D01*
X176663957Y-46227804D01*
X176759195Y-46227804D01*
X176902052Y-46275424D01*
X176949671Y-46323043D01*
X177902052Y-47227804D02*
X177330623Y-47227804D01*
X177616338Y-47227804D02*
X177616338Y-46227804D01*
X177521099Y-46370662D01*
X177425861Y-46465900D01*
X177330623Y-46513519D01*
X157955338Y-63245804D02*
X158145814Y-63245804D01*
X158241052Y-63293424D01*
X158336290Y-63388662D01*
X158383909Y-63579138D01*
X158383909Y-63912471D01*
X158336290Y-64102947D01*
X158241052Y-64198185D01*
X158145814Y-64245804D01*
X157955338Y-64245804D01*
X157860099Y-64198185D01*
X157764861Y-64102947D01*
X157717242Y-63912471D01*
X157717242Y-63579138D01*
X157764861Y-63388662D01*
X157860099Y-63293424D01*
X157955338Y-63245804D01*
X158812480Y-63245804D02*
X158812480Y-64055328D01*
X158860099Y-64150566D01*
X158907718Y-64198185D01*
X159002957Y-64245804D01*
X159193433Y-64245804D01*
X159288671Y-64198185D01*
X159336290Y-64150566D01*
X159383909Y-64055328D01*
X159383909Y-63245804D01*
X159717242Y-63245804D02*
X160288671Y-63245804D01*
X160002957Y-64245804D02*
X160002957Y-63245804D01*
X174085333Y-101628380D02*
X173513904Y-101628380D01*
X173799619Y-101628380D02*
X173799619Y-100628380D01*
X173704380Y-100771238D01*
X173609142Y-100866476D01*
X173513904Y-100914095D01*
X174704380Y-100628380D02*
X174799619Y-100628380D01*
X174894857Y-100676000D01*
X174942476Y-100723619D01*
X174990095Y-100818857D01*
X175037714Y-101009333D01*
X175037714Y-101247428D01*
X174990095Y-101437904D01*
X174942476Y-101533142D01*
X174894857Y-101580761D01*
X174799619Y-101628380D01*
X174704380Y-101628380D01*
X174609142Y-101580761D01*
X174561523Y-101533142D01*
X174513904Y-101437904D01*
X174466285Y-101247428D01*
X174466285Y-101009333D01*
X174513904Y-100818857D01*
X174561523Y-100723619D01*
X174609142Y-100676000D01*
X174704380Y-100628380D01*
X175656761Y-100628380D02*
X175752000Y-100628380D01*
X175847238Y-100676000D01*
X175894857Y-100723619D01*
X175942476Y-100818857D01*
X175990095Y-101009333D01*
X175990095Y-101247428D01*
X175942476Y-101437904D01*
X175894857Y-101533142D01*
X175847238Y-101580761D01*
X175752000Y-101628380D01*
X175656761Y-101628380D01*
X175561523Y-101580761D01*
X175513904Y-101533142D01*
X175466285Y-101437904D01*
X175418666Y-101247428D01*
X175418666Y-101009333D01*
X175466285Y-100818857D01*
X175513904Y-100723619D01*
X175561523Y-100676000D01*
X175656761Y-100628380D01*
X174109142Y-102571714D02*
X174109142Y-103571714D01*
X174109142Y-102619333D02*
X174204380Y-102571714D01*
X174394857Y-102571714D01*
X174490095Y-102619333D01*
X174537714Y-102666952D01*
X174585333Y-102762190D01*
X174585333Y-103047904D01*
X174537714Y-103143142D01*
X174490095Y-103190761D01*
X174394857Y-103238380D01*
X174204380Y-103238380D01*
X174109142Y-103190761D01*
X175347238Y-102714571D02*
X175013904Y-102714571D01*
X175013904Y-103238380D02*
X175013904Y-102238380D01*
X175490095Y-102238380D01*
X176561714Y-109375380D02*
X175990285Y-109375380D01*
X176276000Y-109375380D02*
X176276000Y-108375380D01*
X176180761Y-108518238D01*
X176085523Y-108613476D01*
X175990285Y-108661095D01*
X175633142Y-110318714D02*
X175633142Y-110985380D01*
X175633142Y-110413952D02*
X175680761Y-110366333D01*
X175776000Y-110318714D01*
X175918857Y-110318714D01*
X176014095Y-110366333D01*
X176061714Y-110461571D01*
X176061714Y-110985380D01*
X176871238Y-110461571D02*
X176537904Y-110461571D01*
X176537904Y-110985380D02*
X176537904Y-109985380D01*
X177014095Y-109985380D01*
X130548671Y-76365729D02*
X130501052Y-76413348D01*
X130358195Y-76460967D01*
X130262957Y-76460967D01*
X130120099Y-76413348D01*
X130024861Y-76318110D01*
X129977242Y-76222872D01*
X129929623Y-76032396D01*
X129929623Y-75889539D01*
X129977242Y-75699063D01*
X130024861Y-75603825D01*
X130120099Y-75508587D01*
X130262957Y-75460967D01*
X130358195Y-75460967D01*
X130501052Y-75508587D01*
X130548671Y-75556206D01*
X130882004Y-75460967D02*
X131548671Y-75460967D01*
X131120099Y-76460967D01*
X123944671Y-71285729D02*
X123897052Y-71333348D01*
X123754195Y-71380967D01*
X123658957Y-71380967D01*
X123516099Y-71333348D01*
X123420861Y-71238110D01*
X123373242Y-71142872D01*
X123325623Y-70952396D01*
X123325623Y-70809539D01*
X123373242Y-70619063D01*
X123420861Y-70523825D01*
X123516099Y-70428587D01*
X123658957Y-70380967D01*
X123754195Y-70380967D01*
X123897052Y-70428587D01*
X123944671Y-70476206D01*
X124325623Y-70476206D02*
X124373242Y-70428587D01*
X124468480Y-70380967D01*
X124706576Y-70380967D01*
X124801814Y-70428587D01*
X124849433Y-70476206D01*
X124897052Y-70571444D01*
X124897052Y-70666682D01*
X124849433Y-70809539D01*
X124278004Y-71380967D01*
X124897052Y-71380967D01*
X152565671Y-47259566D02*
X152518052Y-47307185D01*
X152375195Y-47354804D01*
X152279957Y-47354804D01*
X152137099Y-47307185D01*
X152041861Y-47211947D01*
X151994242Y-47116709D01*
X151946623Y-46926233D01*
X151946623Y-46783376D01*
X151994242Y-46592900D01*
X152041861Y-46497662D01*
X152137099Y-46402424D01*
X152279957Y-46354804D01*
X152375195Y-46354804D01*
X152518052Y-46402424D01*
X152565671Y-46450043D01*
X153470433Y-46354804D02*
X152994242Y-46354804D01*
X152946623Y-46830995D01*
X152994242Y-46783376D01*
X153089480Y-46735757D01*
X153327576Y-46735757D01*
X153422814Y-46783376D01*
X153470433Y-46830995D01*
X153518052Y-46926233D01*
X153518052Y-47164328D01*
X153470433Y-47259566D01*
X153422814Y-47307185D01*
X153327576Y-47354804D01*
X153089480Y-47354804D01*
X152994242Y-47307185D01*
X152946623Y-47259566D01*
X160169718Y-43862233D02*
X159169718Y-43862233D01*
X160169718Y-43386043D02*
X159169718Y-43386043D01*
X160169718Y-42814614D01*
X159169718Y-42814614D01*
X160169718Y-42338424D02*
X159169718Y-42338424D01*
X159169718Y-41957471D01*
X159217338Y-41862233D01*
X159264957Y-41814614D01*
X159360195Y-41766995D01*
X159503052Y-41766995D01*
X159598290Y-41814614D01*
X159645909Y-41862233D01*
X159693528Y-41957471D01*
X159693528Y-42338424D01*
X163140995Y-82239392D02*
X163093376Y-82287011D01*
X162950519Y-82334630D01*
X162855281Y-82334630D01*
X162712423Y-82287011D01*
X162617185Y-82191773D01*
X162569566Y-82096535D01*
X162521947Y-81906059D01*
X162521947Y-81763202D01*
X162569566Y-81572726D01*
X162617185Y-81477488D01*
X162712423Y-81382250D01*
X162855281Y-81334630D01*
X162950519Y-81334630D01*
X163093376Y-81382250D01*
X163140995Y-81429869D01*
X163474328Y-81334630D02*
X164140995Y-81334630D01*
X163712423Y-82334630D01*
X161321904Y-100723619D02*
X161369523Y-100676000D01*
X161464761Y-100628380D01*
X161702857Y-100628380D01*
X161798095Y-100676000D01*
X161845714Y-100723619D01*
X161893333Y-100818857D01*
X161893333Y-100914095D01*
X161845714Y-101056952D01*
X161274285Y-101628380D01*
X161893333Y-101628380D01*
X162274285Y-100723619D02*
X162321904Y-100676000D01*
X162417142Y-100628380D01*
X162655238Y-100628380D01*
X162750476Y-100676000D01*
X162798095Y-100723619D01*
X162845714Y-100818857D01*
X162845714Y-100914095D01*
X162798095Y-101056952D01*
X162226666Y-101628380D01*
X162845714Y-101628380D01*
X163464761Y-100628380D02*
X163560000Y-100628380D01*
X163655238Y-100676000D01*
X163702857Y-100723619D01*
X163750476Y-100818857D01*
X163798095Y-101009333D01*
X163798095Y-101247428D01*
X163750476Y-101437904D01*
X163702857Y-101533142D01*
X163655238Y-101580761D01*
X163560000Y-101628380D01*
X163464761Y-101628380D01*
X163369523Y-101580761D01*
X163321904Y-101533142D01*
X163274285Y-101437904D01*
X163226666Y-101247428D01*
X163226666Y-101009333D01*
X163274285Y-100818857D01*
X163321904Y-100723619D01*
X163369523Y-100676000D01*
X163464761Y-100628380D01*
X161917142Y-102571714D02*
X161917142Y-103571714D01*
X161917142Y-102619333D02*
X162012380Y-102571714D01*
X162202857Y-102571714D01*
X162298095Y-102619333D01*
X162345714Y-102666952D01*
X162393333Y-102762190D01*
X162393333Y-103047904D01*
X162345714Y-103143142D01*
X162298095Y-103190761D01*
X162202857Y-103238380D01*
X162012380Y-103238380D01*
X161917142Y-103190761D01*
X163155238Y-102714571D02*
X162821904Y-102714571D01*
X162821904Y-103238380D02*
X162821904Y-102238380D01*
X163298095Y-102238380D01*
X143541714Y-109375380D02*
X142970285Y-109375380D01*
X143256000Y-109375380D02*
X143256000Y-108375380D01*
X143160761Y-108518238D01*
X143065523Y-108613476D01*
X142970285Y-108661095D01*
X142613142Y-110318714D02*
X142613142Y-110985380D01*
X142613142Y-110413952D02*
X142660761Y-110366333D01*
X142756000Y-110318714D01*
X142898857Y-110318714D01*
X142994095Y-110366333D01*
X143041714Y-110461571D01*
X143041714Y-110985380D01*
X143851238Y-110461571D02*
X143517904Y-110461571D01*
X143517904Y-110985380D02*
X143517904Y-109985380D01*
X143994095Y-109985380D01*
X143502671Y-73571729D02*
X143455052Y-73619348D01*
X143312195Y-73666967D01*
X143216957Y-73666967D01*
X143074099Y-73619348D01*
X142978861Y-73524110D01*
X142931242Y-73428872D01*
X142883623Y-73238396D01*
X142883623Y-73095539D01*
X142931242Y-72905063D01*
X142978861Y-72809825D01*
X143074099Y-72714587D01*
X143216957Y-72666967D01*
X143312195Y-72666967D01*
X143455052Y-72714587D01*
X143502671Y-72762206D01*
X144455052Y-73666967D02*
X143883623Y-73666967D01*
X144169338Y-73666967D02*
X144169338Y-72666967D01*
X144074099Y-72809825D01*
X143978861Y-72905063D01*
X143883623Y-72952682D01*
X165138671Y-57927566D02*
X165091052Y-57975185D01*
X164948195Y-58022804D01*
X164852957Y-58022804D01*
X164710099Y-57975185D01*
X164614861Y-57879947D01*
X164567242Y-57784709D01*
X164519623Y-57594233D01*
X164519623Y-57451376D01*
X164567242Y-57260900D01*
X164614861Y-57165662D01*
X164710099Y-57070424D01*
X164852957Y-57022804D01*
X164948195Y-57022804D01*
X165091052Y-57070424D01*
X165138671Y-57118043D01*
X165995814Y-57022804D02*
X165805338Y-57022804D01*
X165710099Y-57070424D01*
X165662480Y-57118043D01*
X165567242Y-57260900D01*
X165519623Y-57451376D01*
X165519623Y-57832328D01*
X165567242Y-57927566D01*
X165614861Y-57975185D01*
X165710099Y-58022804D01*
X165900576Y-58022804D01*
X165995814Y-57975185D01*
X166043433Y-57927566D01*
X166091052Y-57832328D01*
X166091052Y-57594233D01*
X166043433Y-57498995D01*
X165995814Y-57451376D01*
X165900576Y-57403757D01*
X165710099Y-57403757D01*
X165614861Y-57451376D01*
X165567242Y-57498995D01*
X165519623Y-57594233D01*
X156589804Y-69498916D02*
X156637423Y-69546535D01*
X156685042Y-69689392D01*
X156685042Y-69784630D01*
X156637423Y-69927488D01*
X156542185Y-70022726D01*
X156446947Y-70070345D01*
X156256471Y-70117964D01*
X156113614Y-70117964D01*
X155923138Y-70070345D01*
X155827900Y-70022726D01*
X155732662Y-69927488D01*
X155685042Y-69784630D01*
X155685042Y-69689392D01*
X155732662Y-69546535D01*
X155780281Y-69498916D01*
X155780281Y-69117964D02*
X155732662Y-69070345D01*
X155685042Y-68975107D01*
X155685042Y-68737011D01*
X155732662Y-68641773D01*
X155780281Y-68594154D01*
X155875519Y-68546535D01*
X155970757Y-68546535D01*
X156113614Y-68594154D01*
X156685042Y-69165583D01*
X156685042Y-68546535D01*
X142652714Y-101628380D02*
X142081285Y-101628380D01*
X142367000Y-101628380D02*
X142367000Y-100628380D01*
X142271761Y-100771238D01*
X142176523Y-100866476D01*
X142081285Y-100914095D01*
X141724142Y-102571714D02*
X141724142Y-103238380D01*
X141724142Y-102666952D02*
X141771761Y-102619333D01*
X141867000Y-102571714D01*
X142009857Y-102571714D01*
X142105095Y-102619333D01*
X142152714Y-102714571D01*
X142152714Y-103238380D01*
X142962238Y-102714571D02*
X142628904Y-102714571D01*
X142628904Y-103238380D02*
X142628904Y-102238380D01*
X143105095Y-102238380D01*
X151606285Y-108502380D02*
X151415809Y-108502380D01*
X151320571Y-108550000D01*
X151272952Y-108597619D01*
X151177714Y-108740476D01*
X151130095Y-108930952D01*
X151130095Y-109311904D01*
X151177714Y-109407142D01*
X151225333Y-109454761D01*
X151320571Y-109502380D01*
X151511047Y-109502380D01*
X151606285Y-109454761D01*
X151653904Y-109407142D01*
X151701523Y-109311904D01*
X151701523Y-109073809D01*
X151653904Y-108978571D01*
X151606285Y-108930952D01*
X151511047Y-108883333D01*
X151320571Y-108883333D01*
X151225333Y-108930952D01*
X151177714Y-108978571D01*
X151130095Y-109073809D01*
X152272952Y-108930952D02*
X152177714Y-108883333D01*
X152130095Y-108835714D01*
X152082476Y-108740476D01*
X152082476Y-108692857D01*
X152130095Y-108597619D01*
X152177714Y-108550000D01*
X152272952Y-108502380D01*
X152463428Y-108502380D01*
X152558666Y-108550000D01*
X152606285Y-108597619D01*
X152653904Y-108692857D01*
X152653904Y-108740476D01*
X152606285Y-108835714D01*
X152558666Y-108883333D01*
X152463428Y-108930952D01*
X152272952Y-108930952D01*
X152177714Y-108978571D01*
X152130095Y-109026190D01*
X152082476Y-109121428D01*
X152082476Y-109311904D01*
X152130095Y-109407142D01*
X152177714Y-109454761D01*
X152272952Y-109502380D01*
X152463428Y-109502380D01*
X152558666Y-109454761D01*
X152606285Y-109407142D01*
X152653904Y-109311904D01*
X152653904Y-109121428D01*
X152606285Y-109026190D01*
X152558666Y-108978571D01*
X152463428Y-108930952D01*
X151249142Y-110445714D02*
X151249142Y-111445714D01*
X151249142Y-110493333D02*
X151344380Y-110445714D01*
X151534857Y-110445714D01*
X151630095Y-110493333D01*
X151677714Y-110540952D01*
X151725333Y-110636190D01*
X151725333Y-110921904D01*
X151677714Y-111017142D01*
X151630095Y-111064761D01*
X151534857Y-111112380D01*
X151344380Y-111112380D01*
X151249142Y-111064761D01*
X152487238Y-110588571D02*
X152153904Y-110588571D01*
X152153904Y-111112380D02*
X152153904Y-110112380D01*
X152630095Y-110112380D01*
X159226285Y-100961714D02*
X159226285Y-101628380D01*
X158988190Y-100580761D02*
X158750095Y-101295047D01*
X159369142Y-101295047D01*
X159654857Y-100628380D02*
X160321523Y-100628380D01*
X159892952Y-101628380D01*
X158869142Y-102571714D02*
X158869142Y-103571714D01*
X158869142Y-102619333D02*
X158964380Y-102571714D01*
X159154857Y-102571714D01*
X159250095Y-102619333D01*
X159297714Y-102666952D01*
X159345333Y-102762190D01*
X159345333Y-103047904D01*
X159297714Y-103143142D01*
X159250095Y-103190761D01*
X159154857Y-103238380D01*
X158964380Y-103238380D01*
X158869142Y-103190761D01*
X160107238Y-102714571D02*
X159773904Y-102714571D01*
X159773904Y-103238380D02*
X159773904Y-102238380D01*
X160250095Y-102238380D01*
X157702285Y-108502380D02*
X157511809Y-108502380D01*
X157416571Y-108550000D01*
X157368952Y-108597619D01*
X157273714Y-108740476D01*
X157226095Y-108930952D01*
X157226095Y-109311904D01*
X157273714Y-109407142D01*
X157321333Y-109454761D01*
X157416571Y-109502380D01*
X157607047Y-109502380D01*
X157702285Y-109454761D01*
X157749904Y-109407142D01*
X157797523Y-109311904D01*
X157797523Y-109073809D01*
X157749904Y-108978571D01*
X157702285Y-108930952D01*
X157607047Y-108883333D01*
X157416571Y-108883333D01*
X157321333Y-108930952D01*
X157273714Y-108978571D01*
X157226095Y-109073809D01*
X158368952Y-108930952D02*
X158273714Y-108883333D01*
X158226095Y-108835714D01*
X158178476Y-108740476D01*
X158178476Y-108692857D01*
X158226095Y-108597619D01*
X158273714Y-108550000D01*
X158368952Y-108502380D01*
X158559428Y-108502380D01*
X158654666Y-108550000D01*
X158702285Y-108597619D01*
X158749904Y-108692857D01*
X158749904Y-108740476D01*
X158702285Y-108835714D01*
X158654666Y-108883333D01*
X158559428Y-108930952D01*
X158368952Y-108930952D01*
X158273714Y-108978571D01*
X158226095Y-109026190D01*
X158178476Y-109121428D01*
X158178476Y-109311904D01*
X158226095Y-109407142D01*
X158273714Y-109454761D01*
X158368952Y-109502380D01*
X158559428Y-109502380D01*
X158654666Y-109454761D01*
X158702285Y-109407142D01*
X158749904Y-109311904D01*
X158749904Y-109121428D01*
X158702285Y-109026190D01*
X158654666Y-108978571D01*
X158559428Y-108930952D01*
X157345142Y-110445714D02*
X157345142Y-111445714D01*
X157345142Y-110493333D02*
X157440380Y-110445714D01*
X157630857Y-110445714D01*
X157726095Y-110493333D01*
X157773714Y-110540952D01*
X157821333Y-110636190D01*
X157821333Y-110921904D01*
X157773714Y-111017142D01*
X157726095Y-111064761D01*
X157630857Y-111112380D01*
X157440380Y-111112380D01*
X157345142Y-111064761D01*
X158583238Y-110588571D02*
X158249904Y-110588571D01*
X158249904Y-111112380D02*
X158249904Y-110112380D01*
X158726095Y-110112380D01*
X172008852Y-69134630D02*
X172008852Y-68134630D01*
X172485042Y-69134630D02*
X172485042Y-68134630D01*
X173056471Y-69134630D01*
X173056471Y-68134630D01*
X173532662Y-69134630D02*
X173532662Y-68134630D01*
X173913614Y-68134630D01*
X174008852Y-68182250D01*
X174056471Y-68229869D01*
X174104090Y-68325107D01*
X174104090Y-68467964D01*
X174056471Y-68563202D01*
X174008852Y-68610821D01*
X173913614Y-68658440D01*
X173532662Y-68658440D01*
X123182671Y-83572967D02*
X122706480Y-83572967D01*
X122706480Y-82572967D01*
X123420766Y-82572967D02*
X124039814Y-82572967D01*
X123706480Y-82953920D01*
X123849338Y-82953920D01*
X123944576Y-83001539D01*
X123992195Y-83049158D01*
X124039814Y-83144396D01*
X124039814Y-83382491D01*
X123992195Y-83477729D01*
X123944576Y-83525348D01*
X123849338Y-83572967D01*
X123563623Y-83572967D01*
X123468385Y-83525348D01*
X123420766Y-83477729D01*
X139586671Y-52746967D02*
X139110480Y-52746967D01*
X139110480Y-51746967D01*
X139872385Y-51842206D02*
X139920004Y-51794587D01*
X140015242Y-51746967D01*
X140253338Y-51746967D01*
X140348576Y-51794587D01*
X140396195Y-51842206D01*
X140443814Y-51937444D01*
X140443814Y-52032682D01*
X140396195Y-52175539D01*
X139824766Y-52746967D01*
X140443814Y-52746967D01*
X118618095Y-108835714D02*
X118618095Y-109502380D01*
X118380000Y-108454761D02*
X118141904Y-109169047D01*
X118760952Y-109169047D01*
X119046666Y-108502380D02*
X119713333Y-108502380D01*
X119284761Y-109502380D01*
X120284761Y-108502380D02*
X120380000Y-108502380D01*
X120475238Y-108550000D01*
X120522857Y-108597619D01*
X120570476Y-108692857D01*
X120618095Y-108883333D01*
X120618095Y-109121428D01*
X120570476Y-109311904D01*
X120522857Y-109407142D01*
X120475238Y-109454761D01*
X120380000Y-109502380D01*
X120284761Y-109502380D01*
X120189523Y-109454761D01*
X120141904Y-109407142D01*
X120094285Y-109311904D01*
X120046666Y-109121428D01*
X120046666Y-108883333D01*
X120094285Y-108692857D01*
X120141904Y-108597619D01*
X120189523Y-108550000D01*
X120284761Y-108502380D01*
X118737142Y-110445714D02*
X118737142Y-111445714D01*
X118737142Y-110493333D02*
X118832380Y-110445714D01*
X119022857Y-110445714D01*
X119118095Y-110493333D01*
X119165714Y-110540952D01*
X119213333Y-110636190D01*
X119213333Y-110921904D01*
X119165714Y-111017142D01*
X119118095Y-111064761D01*
X119022857Y-111112380D01*
X118832380Y-111112380D01*
X118737142Y-111064761D01*
X119975238Y-110588571D02*
X119641904Y-110588571D01*
X119641904Y-111112380D02*
X119641904Y-110112380D01*
X120118095Y-110112380D01*
X174640052Y-58894043D02*
X174687671Y-58846424D01*
X174782909Y-58798804D01*
X175021004Y-58798804D01*
X175116242Y-58846424D01*
X175163861Y-58894043D01*
X175211480Y-58989281D01*
X175211480Y-59084519D01*
X175163861Y-59227376D01*
X174592433Y-59798804D01*
X175211480Y-59798804D01*
X175830528Y-58798804D02*
X175925766Y-58798804D01*
X176021004Y-58846424D01*
X176068623Y-58894043D01*
X176116242Y-58989281D01*
X176163861Y-59179757D01*
X176163861Y-59417852D01*
X176116242Y-59608328D01*
X176068623Y-59703566D01*
X176021004Y-59751185D01*
X175925766Y-59798804D01*
X175830528Y-59798804D01*
X175735290Y-59751185D01*
X175687671Y-59703566D01*
X175640052Y-59608328D01*
X175592433Y-59417852D01*
X175592433Y-59179757D01*
X175640052Y-58989281D01*
X175687671Y-58894043D01*
X175735290Y-58846424D01*
X175830528Y-58798804D01*
X177354338Y-59798804D02*
X177354338Y-58798804D01*
X177687671Y-59513090D01*
X178021004Y-58798804D01*
X178021004Y-59798804D01*
X174973385Y-60884995D02*
X175116242Y-60932614D01*
X175163861Y-60980233D01*
X175211480Y-61075471D01*
X175211480Y-61218328D01*
X175163861Y-61313566D01*
X175116242Y-61361185D01*
X175021004Y-61408804D01*
X174640052Y-61408804D01*
X174640052Y-60408804D01*
X174973385Y-60408804D01*
X175068623Y-60456424D01*
X175116242Y-60504043D01*
X175163861Y-60599281D01*
X175163861Y-60694519D01*
X175116242Y-60789757D01*
X175068623Y-60837376D01*
X174973385Y-60884995D01*
X174640052Y-60884995D01*
X175592433Y-61123090D02*
X176068623Y-61123090D01*
X175497195Y-61408804D02*
X175830528Y-60408804D01*
X176163861Y-61408804D01*
X176497195Y-61408804D02*
X176497195Y-60408804D01*
X177068623Y-61408804D01*
X177068623Y-60408804D01*
X177544814Y-61408804D02*
X177544814Y-60408804D01*
X177782909Y-60408804D01*
X177925766Y-60456424D01*
X178021004Y-60551662D01*
X178068623Y-60646900D01*
X178116242Y-60837376D01*
X178116242Y-60980233D01*
X178068623Y-61170709D01*
X178021004Y-61265947D01*
X177925766Y-61361185D01*
X177782909Y-61408804D01*
X177544814Y-61408804D01*
X174711480Y-63018804D02*
X174711480Y-62018804D01*
X175092433Y-62018804D01*
X175187671Y-62066424D01*
X175235290Y-62114043D01*
X175282909Y-62209281D01*
X175282909Y-62352138D01*
X175235290Y-62447376D01*
X175187671Y-62494995D01*
X175092433Y-62542614D01*
X174711480Y-62542614D01*
X175663861Y-62733090D02*
X176140052Y-62733090D01*
X175568623Y-63018804D02*
X175901957Y-62018804D01*
X176235290Y-63018804D01*
X176521004Y-62971185D02*
X176663861Y-63018804D01*
X176901957Y-63018804D01*
X176997195Y-62971185D01*
X177044814Y-62923566D01*
X177092433Y-62828328D01*
X177092433Y-62733090D01*
X177044814Y-62637852D01*
X176997195Y-62590233D01*
X176901957Y-62542614D01*
X176711480Y-62494995D01*
X176616242Y-62447376D01*
X176568623Y-62399757D01*
X176521004Y-62304519D01*
X176521004Y-62209281D01*
X176568623Y-62114043D01*
X176616242Y-62066424D01*
X176711480Y-62018804D01*
X176949576Y-62018804D01*
X177092433Y-62066424D01*
X177473385Y-62971185D02*
X177616242Y-63018804D01*
X177854338Y-63018804D01*
X177949576Y-62971185D01*
X177997195Y-62923566D01*
X178044814Y-62828328D01*
X178044814Y-62733090D01*
X177997195Y-62637852D01*
X177949576Y-62590233D01*
X177854338Y-62542614D01*
X177663861Y-62494995D01*
X177568623Y-62447376D01*
X177521004Y-62399757D01*
X177473385Y-62304519D01*
X177473385Y-62209281D01*
X177521004Y-62114043D01*
X177568623Y-62066424D01*
X177663861Y-62018804D01*
X177901957Y-62018804D01*
X178044814Y-62066424D01*
X174521004Y-64104995D02*
X174187671Y-64104995D01*
X174187671Y-64628804D02*
X174187671Y-63628804D01*
X174663861Y-63628804D01*
X175044814Y-64628804D02*
X175044814Y-63628804D01*
X175997195Y-64628804D02*
X175521004Y-64628804D01*
X175521004Y-63628804D01*
X176187671Y-63628804D02*
X176759099Y-63628804D01*
X176473385Y-64628804D02*
X176473385Y-63628804D01*
X177092433Y-64104995D02*
X177425766Y-64104995D01*
X177568623Y-64628804D02*
X177092433Y-64628804D01*
X177092433Y-63628804D01*
X177568623Y-63628804D01*
X178568623Y-64628804D02*
X178235290Y-64152614D01*
X177997195Y-64628804D02*
X177997195Y-63628804D01*
X178378147Y-63628804D01*
X178473385Y-63676424D01*
X178521004Y-63724043D01*
X178568623Y-63819281D01*
X178568623Y-63962138D01*
X178521004Y-64057376D01*
X178473385Y-64104995D01*
X178378147Y-64152614D01*
X177997195Y-64152614D01*
X132580671Y-84747729D02*
X132533052Y-84795348D01*
X132390195Y-84842967D01*
X132294957Y-84842967D01*
X132152099Y-84795348D01*
X132056861Y-84700110D01*
X132009242Y-84604872D01*
X131961623Y-84414396D01*
X131961623Y-84271539D01*
X132009242Y-84081063D01*
X132056861Y-83985825D01*
X132152099Y-83890587D01*
X132294957Y-83842967D01*
X132390195Y-83842967D01*
X132533052Y-83890587D01*
X132580671Y-83938206D01*
X133437814Y-83842967D02*
X133247338Y-83842967D01*
X133152099Y-83890587D01*
X133104480Y-83938206D01*
X133009242Y-84081063D01*
X132961623Y-84271539D01*
X132961623Y-84652491D01*
X133009242Y-84747729D01*
X133056861Y-84795348D01*
X133152099Y-84842967D01*
X133342576Y-84842967D01*
X133437814Y-84795348D01*
X133485433Y-84747729D01*
X133533052Y-84652491D01*
X133533052Y-84414396D01*
X133485433Y-84319158D01*
X133437814Y-84271539D01*
X133342576Y-84223920D01*
X133152099Y-84223920D01*
X133056861Y-84271539D01*
X133009242Y-84319158D01*
X132961623Y-84414396D01*
%TO.C,C1*%
X145456671Y-47151729D02*
X145409052Y-47199348D01*
X145266195Y-47246967D01*
X145170957Y-47246967D01*
X145028099Y-47199348D01*
X144932861Y-47104110D01*
X144885242Y-47008872D01*
X144837623Y-46818396D01*
X144837623Y-46675539D01*
X144885242Y-46485063D01*
X144932861Y-46389825D01*
X145028099Y-46294587D01*
X145170957Y-46246967D01*
X145266195Y-46246967D01*
X145409052Y-46294587D01*
X145456671Y-46342206D01*
X146409052Y-47246967D02*
X145837623Y-47246967D01*
X146123338Y-47246967D02*
X146123338Y-46246967D01*
X146028099Y-46389825D01*
X145932861Y-46485063D01*
X145837623Y-46532682D01*
%TO.C,C2*%
X124706671Y-44251729D02*
X124659052Y-44299348D01*
X124516195Y-44346967D01*
X124420957Y-44346967D01*
X124278099Y-44299348D01*
X124182861Y-44204110D01*
X124135242Y-44108872D01*
X124087623Y-43918396D01*
X124087623Y-43775539D01*
X124135242Y-43585063D01*
X124182861Y-43489825D01*
X124278099Y-43394587D01*
X124420957Y-43346967D01*
X124516195Y-43346967D01*
X124659052Y-43394587D01*
X124706671Y-43442206D01*
X125087623Y-43442206D02*
X125135242Y-43394587D01*
X125230480Y-43346967D01*
X125468576Y-43346967D01*
X125563814Y-43394587D01*
X125611433Y-43442206D01*
X125659052Y-43537444D01*
X125659052Y-43632682D01*
X125611433Y-43775539D01*
X125040004Y-44346967D01*
X125659052Y-44346967D01*
%TO.C,C3*%
X124706671Y-48001729D02*
X124659052Y-48049348D01*
X124516195Y-48096967D01*
X124420957Y-48096967D01*
X124278099Y-48049348D01*
X124182861Y-47954110D01*
X124135242Y-47858872D01*
X124087623Y-47668396D01*
X124087623Y-47525539D01*
X124135242Y-47335063D01*
X124182861Y-47239825D01*
X124278099Y-47144587D01*
X124420957Y-47096967D01*
X124516195Y-47096967D01*
X124659052Y-47144587D01*
X124706671Y-47192206D01*
X125040004Y-47096967D02*
X125659052Y-47096967D01*
X125325718Y-47477920D01*
X125468576Y-47477920D01*
X125563814Y-47525539D01*
X125611433Y-47573158D01*
X125659052Y-47668396D01*
X125659052Y-47906491D01*
X125611433Y-48001729D01*
X125563814Y-48049348D01*
X125468576Y-48096967D01*
X125182861Y-48096967D01*
X125087623Y-48049348D01*
X125040004Y-48001729D01*
%TO.C,C4*%
X121830480Y-44711253D02*
X121878099Y-44758872D01*
X121925718Y-44901729D01*
X121925718Y-44996967D01*
X121878099Y-45139825D01*
X121782861Y-45235063D01*
X121687623Y-45282682D01*
X121497147Y-45330301D01*
X121354290Y-45330301D01*
X121163814Y-45282682D01*
X121068576Y-45235063D01*
X120973338Y-45139825D01*
X120925718Y-44996967D01*
X120925718Y-44901729D01*
X120973338Y-44758872D01*
X121020957Y-44711253D01*
X121259052Y-43854110D02*
X121925718Y-43854110D01*
X120878099Y-44092206D02*
X121592385Y-44330301D01*
X121592385Y-43711253D01*
%TO.C,C5*%
X119780480Y-49711253D02*
X119828099Y-49758872D01*
X119875718Y-49901729D01*
X119875718Y-49996967D01*
X119828099Y-50139825D01*
X119732861Y-50235063D01*
X119637623Y-50282682D01*
X119447147Y-50330301D01*
X119304290Y-50330301D01*
X119113814Y-50282682D01*
X119018576Y-50235063D01*
X118923338Y-50139825D01*
X118875718Y-49996967D01*
X118875718Y-49901729D01*
X118923338Y-49758872D01*
X118970957Y-49711253D01*
X118875718Y-48806491D02*
X118875718Y-49282682D01*
X119351909Y-49330301D01*
X119304290Y-49282682D01*
X119256671Y-49187444D01*
X119256671Y-48949348D01*
X119304290Y-48854110D01*
X119351909Y-48806491D01*
X119447147Y-48758872D01*
X119685242Y-48758872D01*
X119780480Y-48806491D01*
X119828099Y-48854110D01*
X119875718Y-48949348D01*
X119875718Y-49187444D01*
X119828099Y-49282682D01*
X119780480Y-49330301D01*
%TO.C,C6*%
X132956671Y-58151729D02*
X132909052Y-58199348D01*
X132766195Y-58246967D01*
X132670957Y-58246967D01*
X132528099Y-58199348D01*
X132432861Y-58104110D01*
X132385242Y-58008872D01*
X132337623Y-57818396D01*
X132337623Y-57675539D01*
X132385242Y-57485063D01*
X132432861Y-57389825D01*
X132528099Y-57294587D01*
X132670957Y-57246967D01*
X132766195Y-57246967D01*
X132909052Y-57294587D01*
X132956671Y-57342206D01*
X133813814Y-57246967D02*
X133623338Y-57246967D01*
X133528099Y-57294587D01*
X133480480Y-57342206D01*
X133385242Y-57485063D01*
X133337623Y-57675539D01*
X133337623Y-58056491D01*
X133385242Y-58151729D01*
X133432861Y-58199348D01*
X133528099Y-58246967D01*
X133718576Y-58246967D01*
X133813814Y-58199348D01*
X133861433Y-58151729D01*
X133909052Y-58056491D01*
X133909052Y-57818396D01*
X133861433Y-57723158D01*
X133813814Y-57675539D01*
X133718576Y-57627920D01*
X133528099Y-57627920D01*
X133432861Y-57675539D01*
X133385242Y-57723158D01*
X133337623Y-57818396D01*
%TO.C,C7*%
X133773957Y-47875019D02*
X133821576Y-47922638D01*
X133869195Y-48065495D01*
X133869195Y-48160733D01*
X133821576Y-48303591D01*
X133726338Y-48398829D01*
X133631100Y-48446448D01*
X133440624Y-48494067D01*
X133297767Y-48494067D01*
X133107291Y-48446448D01*
X133012053Y-48398829D01*
X132916815Y-48303591D01*
X132869195Y-48160733D01*
X132869195Y-48065495D01*
X132916815Y-47922638D01*
X132964434Y-47875019D01*
X132869195Y-47541686D02*
X132869195Y-46875019D01*
X133869195Y-47303591D01*
D12*
%TO.C,C1*%
X144713338Y-42833335D02*
X144713338Y-44255839D01*
X146533338Y-42833335D02*
X146533338Y-44255839D01*
%TO.C,C2*%
X125584590Y-41134587D02*
X124162086Y-41134587D01*
X125584590Y-42954587D02*
X124162086Y-42954587D01*
%TO.C,C3*%
X125584590Y-46704587D02*
X124162086Y-46704587D01*
X125584590Y-44884587D02*
X124162086Y-44884587D01*
%TO.C,C4*%
X120533338Y-43833335D02*
X120533338Y-45255839D01*
X118713338Y-43833335D02*
X118713338Y-45255839D01*
%TO.C,C5*%
X123584590Y-48564587D02*
X122162086Y-48564587D01*
X123584590Y-50384587D02*
X122162086Y-50384587D01*
%TO.C,C6*%
X132412086Y-60454587D02*
X133834590Y-60454587D01*
X132412086Y-58634587D02*
X133834590Y-58634587D01*
%TO.C,L2*%
X146251149Y-52139845D02*
G75*
G03*
X146251149Y-52139845I-6440001J0D01*
G01*
X143569248Y-52139845D02*
G75*
G03*
X143569248Y-52139845I-3758100J0D01*
G01*
%TO.C,L3*%
X127621438Y-56920254D02*
G75*
G03*
X127621438Y-56920254I-3758100J0D01*
G01*
X130303338Y-56920254D02*
G75*
G03*
X130303338Y-56920254I-6440000J0D01*
G01*
%TO.C,J1*%
X131731338Y-64384587D02*
X131731338Y-61724587D01*
X131731338Y-61724587D02*
X139411338Y-61724587D01*
X130461338Y-64384587D02*
X129131338Y-64384587D01*
X139411338Y-64384587D02*
X139411338Y-61724587D01*
X129131338Y-64384587D02*
X129131338Y-63054587D01*
X131731338Y-64384587D02*
X139411338Y-64384587D01*
%TO.C,J2*%
X130461338Y-44064587D02*
X129131338Y-44064587D01*
X139411338Y-44064587D02*
X139411338Y-41404587D01*
X131731338Y-44064587D02*
X131731338Y-41404587D01*
X129131338Y-44064587D02*
X129131338Y-42734587D01*
X131731338Y-44064587D02*
X139411338Y-44064587D01*
X131731338Y-41404587D02*
X139411338Y-41404587D01*
%TO.C,C7*%
X129242086Y-48724587D02*
X130664590Y-48724587D01*
X129242086Y-46904587D02*
X130664590Y-46904587D01*
%TO.C,C48*%
X161650000Y-98158752D02*
X161650000Y-96736248D01*
X163470000Y-98158752D02*
X163470000Y-96736248D01*
%TO.C,J5*%
X128960838Y-68074587D02*
X130290838Y-68074587D01*
X131560838Y-70734587D02*
X131560838Y-68074587D01*
X128960838Y-69404587D02*
X128960838Y-68074587D01*
X139240838Y-70734587D02*
X139240838Y-68074587D01*
X131560838Y-70734587D02*
X139240838Y-70734587D01*
X131560838Y-68074587D02*
X139240838Y-68074587D01*
%TO.C,C21*%
X132036086Y-87078587D02*
X133458590Y-87078587D01*
X132036086Y-85258587D02*
X133458590Y-85258587D01*
%TO.C,C26*%
X165521619Y-83774635D02*
X165226556Y-83882030D01*
X161603545Y-79752108D02*
X161308481Y-79859502D01*
X161308481Y-79859502D02*
X163059625Y-84670728D01*
X163770476Y-78963409D02*
X163475413Y-79070803D01*
X163770476Y-78963409D02*
X165521619Y-83774635D01*
X163354688Y-84563334D02*
X163059625Y-84670728D01*
%TO.C,C54*%
X157315248Y-105770000D02*
X158737752Y-105770000D01*
X157315248Y-107590000D02*
X158737752Y-107590000D01*
%TO.C,C8*%
X175952338Y-42889172D02*
X175952338Y-44311676D01*
X177772338Y-42889172D02*
X177772338Y-44311676D01*
%TO.C,C34*%
X134133000Y-98158752D02*
X134133000Y-96736248D01*
X132313000Y-98158752D02*
X132313000Y-96736248D01*
%TO.C,C18*%
X118121338Y-69201335D02*
X118121338Y-70623839D01*
X119941338Y-69201335D02*
X119941338Y-70623839D01*
%TO.C,C56*%
X163411248Y-107590000D02*
X164833752Y-107590000D01*
X163411248Y-105770000D02*
X164833752Y-105770000D01*
%TO.C,C22*%
X176480000Y-73411837D02*
X176166000Y-73411837D01*
X176166000Y-68291837D02*
X176166000Y-73411837D01*
X178786000Y-68291837D02*
X178472000Y-68291837D01*
X178786000Y-73411837D02*
X178472000Y-73411837D01*
X176480000Y-68291837D02*
X176166000Y-68291837D01*
X178786000Y-68291837D02*
X178786000Y-73411837D01*
%TO.C,L8*%
X159286100Y-84064091D02*
G75*
G03*
X159286100Y-84064091I-3758100J0D01*
G01*
X161968000Y-84064091D02*
G75*
G03*
X161968000Y-84064091I-6440000J0D01*
G01*
%TO.C,C36*%
X149458000Y-98158752D02*
X149458000Y-96736248D01*
X151278000Y-98158752D02*
X151278000Y-96736248D01*
%TO.C,C58*%
X142544748Y-105770000D02*
X143967252Y-105770000D01*
X142544748Y-107590000D02*
X143967252Y-107590000D01*
%TO.C,C31*%
X131085000Y-98120252D02*
X131085000Y-96697748D01*
X129265000Y-98120252D02*
X129265000Y-96697748D01*
%TO.C,C11*%
X151991338Y-42800672D02*
X151991338Y-44223176D01*
X150171338Y-42800672D02*
X150171338Y-44223176D01*
%TO.C,C41*%
X167746000Y-98158752D02*
X167746000Y-96736248D01*
X169566000Y-98158752D02*
X169566000Y-96736248D01*
%TO.C,C16*%
X124784090Y-71796587D02*
X123361586Y-71796587D01*
X124784090Y-73616587D02*
X123361586Y-73616587D01*
%TO.C,L5*%
X145283339Y-78995682D02*
G75*
G03*
X145283339Y-78995682I-6440001J0D01*
G01*
X142601438Y-78995682D02*
G75*
G03*
X142601438Y-78995682I-3758100J0D01*
G01*
%TO.C,L7*%
X175094100Y-79052932D02*
G75*
G03*
X175094100Y-79052932I-3758100J0D01*
G01*
X177776001Y-79052932D02*
G75*
G03*
X177776001Y-79052932I-6440001J0D01*
G01*
%TO.C,C49*%
X130733748Y-107590000D02*
X132156252Y-107590000D01*
X130733748Y-105770000D02*
X132156252Y-105770000D01*
%TO.C,C37*%
X141457000Y-98158752D02*
X141457000Y-96736248D01*
X143277000Y-98158752D02*
X143277000Y-96736248D01*
%TO.C,C39*%
X154326000Y-98158752D02*
X154326000Y-96736248D01*
X152506000Y-98158752D02*
X152506000Y-96736248D01*
%TO.C,J6*%
X131560838Y-91029587D02*
X139240838Y-91029587D01*
X131560838Y-91029587D02*
X131560838Y-88369587D01*
X131560838Y-88369587D02*
X139240838Y-88369587D01*
X139240838Y-91029587D02*
X139240838Y-88369587D01*
X128960838Y-89699587D02*
X128960838Y-88369587D01*
X128960838Y-88369587D02*
X130290838Y-88369587D01*
%TO.C,C52*%
X125018748Y-107590000D02*
X126441252Y-107590000D01*
X125018748Y-105770000D02*
X126441252Y-105770000D01*
%TO.C,C53*%
X151180748Y-105770000D02*
X152603252Y-105770000D01*
X151180748Y-107590000D02*
X152603252Y-107590000D01*
%TO.C,C38*%
X135361000Y-98120252D02*
X135361000Y-96697748D01*
X137181000Y-98120252D02*
X137181000Y-96697748D01*
%TO.C,C29*%
X128037000Y-98158752D02*
X128037000Y-96736248D01*
X126217000Y-98158752D02*
X126217000Y-96736248D01*
%TO.C,C46*%
X175662000Y-98158752D02*
X175662000Y-96736248D01*
X173842000Y-98158752D02*
X173842000Y-96736248D01*
%TO.C,C47*%
X170794000Y-98158752D02*
X170794000Y-96736248D01*
X172614000Y-98158752D02*
X172614000Y-96736248D01*
%TO.C,C13*%
X153316590Y-49590424D02*
X151894086Y-49590424D01*
X153316590Y-47770424D02*
X151894086Y-47770424D01*
%TO.C,C55*%
X169507248Y-105770000D02*
X170929752Y-105770000D01*
X169507248Y-107590000D02*
X170929752Y-107590000D01*
%TO.C,J3*%
X163664338Y-44270424D02*
X163664338Y-41610424D01*
X163664338Y-41610424D02*
X171344338Y-41610424D01*
X163664338Y-44270424D02*
X171344338Y-44270424D01*
X161064338Y-41610424D02*
X162394338Y-41610424D01*
X171344338Y-44270424D02*
X171344338Y-41610424D01*
X161064338Y-42940424D02*
X161064338Y-41610424D01*
%TO.C,L1*%
X178301149Y-51989682D02*
G75*
G03*
X178301149Y-51989682I-6440001J0D01*
G01*
X175619248Y-51989682D02*
G75*
G03*
X175619248Y-51989682I-3758100J0D01*
G01*
%TO.C,C35*%
X140229000Y-98158752D02*
X140229000Y-96736248D01*
X138409000Y-98158752D02*
X138409000Y-96736248D01*
%TO.C,C32*%
X123169000Y-96736248D02*
X123169000Y-98158752D01*
X124989000Y-96736248D02*
X124989000Y-98158752D01*
%TO.C,C45*%
X155554000Y-98120252D02*
X155554000Y-96697748D01*
X157374000Y-98120252D02*
X157374000Y-96697748D01*
%TO.C,C24*%
X158810000Y-68311837D02*
X158810000Y-67997837D01*
X158810000Y-70617837D02*
X153690000Y-70617837D01*
X153690000Y-68311837D02*
X153690000Y-67997837D01*
X153690000Y-70617837D02*
X153690000Y-70303837D01*
X158810000Y-70617837D02*
X158810000Y-70303837D01*
X158810000Y-67997837D02*
X153690000Y-67997837D01*
%TO.C,C43*%
X164698000Y-98120252D02*
X164698000Y-96697748D01*
X166518000Y-98120252D02*
X166518000Y-96697748D01*
%TO.C,C25*%
X149880000Y-73137837D02*
X149566000Y-73137837D01*
X149566000Y-68017837D02*
X149566000Y-73137837D01*
X152186000Y-68017837D02*
X152186000Y-73137837D01*
X152186000Y-68017837D02*
X151872000Y-68017837D01*
X149880000Y-68017837D02*
X149566000Y-68017837D01*
X152186000Y-73137837D02*
X151872000Y-73137837D01*
%TO.C,L4*%
X162474338Y-56735466D02*
G75*
G03*
X162474338Y-56735466I-6440000J0D01*
G01*
X159792438Y-56735466D02*
G75*
G03*
X159792438Y-56735466I-3758100J0D01*
G01*
%TO.C,J4*%
X163664338Y-61955424D02*
X171344338Y-61955424D01*
X163664338Y-64615424D02*
X171344338Y-64615424D01*
X161064338Y-63285424D02*
X161064338Y-61955424D01*
X163664338Y-64615424D02*
X163664338Y-61955424D01*
X161064338Y-61955424D02*
X162394338Y-61955424D01*
X171344338Y-64615424D02*
X171344338Y-61955424D01*
%TO.C,C33*%
X120121000Y-98158752D02*
X120121000Y-96736248D01*
X121941000Y-98158752D02*
X121941000Y-96736248D01*
%TO.C,C9*%
X156657090Y-46542424D02*
X155234586Y-46542424D01*
X156657090Y-44722424D02*
X155234586Y-44722424D01*
%TO.C,C44*%
X178710000Y-98158752D02*
X178710000Y-96736248D01*
X176890000Y-98158752D02*
X176890000Y-96736248D01*
%TO.C,J7*%
X160976000Y-68231837D02*
X162306000Y-68231837D01*
X163576000Y-70891837D02*
X163576000Y-68231837D01*
X160976000Y-69561837D02*
X160976000Y-68231837D01*
X171256000Y-70891837D02*
X171256000Y-68231837D01*
X163576000Y-68231837D02*
X171256000Y-68231837D01*
X163576000Y-70891837D02*
X171256000Y-70891837D01*
%TO.C,C40*%
X144505000Y-98120252D02*
X144505000Y-96697748D01*
X146325000Y-98120252D02*
X146325000Y-96697748D01*
%TO.C,C12*%
X162562086Y-48701424D02*
X163984590Y-48701424D01*
X162562086Y-46881424D02*
X163984590Y-46881424D01*
%TO.C,C30*%
X118893000Y-98158752D02*
X118893000Y-96736248D01*
X117073000Y-98158752D02*
X117073000Y-96736248D01*
%TO.C,C57*%
X175564748Y-105770000D02*
X176987252Y-105770000D01*
X175564748Y-107590000D02*
X176987252Y-107590000D01*
%TO.C,C27*%
X155762000Y-74915837D02*
X155762000Y-74601837D01*
X155762000Y-74601837D02*
X150642000Y-74601837D01*
X155762000Y-77221837D02*
X155762000Y-76907837D01*
X155762000Y-77221837D02*
X150642000Y-77221837D01*
X150642000Y-77221837D02*
X150642000Y-76907837D01*
X150642000Y-74915837D02*
X150642000Y-74601837D01*
%TO.C,C10*%
X156657090Y-41166424D02*
X155234586Y-41166424D01*
X156657090Y-42986424D02*
X155234586Y-42986424D01*
%TO.C,C14*%
X164428586Y-60258424D02*
X165851090Y-60258424D01*
X164428586Y-58438424D02*
X165851090Y-58438424D01*
%TO.C,C50*%
X136448748Y-105770000D02*
X137871252Y-105770000D01*
X136448748Y-107590000D02*
X137871252Y-107590000D01*
%TO.C,C20*%
X121012590Y-76156587D02*
X119590086Y-76156587D01*
X121012590Y-74336587D02*
X119590086Y-74336587D01*
%TO.C,C51*%
X119011248Y-105770000D02*
X120433752Y-105770000D01*
X119011248Y-107590000D02*
X120433752Y-107590000D01*
%TO.C,C19*%
X129965586Y-73320587D02*
X131388090Y-73320587D01*
X129965586Y-75140587D02*
X131388090Y-75140587D01*
%TO.C,C23*%
X158810000Y-71613837D02*
X158810000Y-71299837D01*
X158810000Y-73919837D02*
X153690000Y-73919837D01*
X153690000Y-71613837D02*
X153690000Y-71299837D01*
X158810000Y-71299837D02*
X153690000Y-71299837D01*
X158810000Y-73919837D02*
X158810000Y-73605837D01*
X153690000Y-73919837D02*
X153690000Y-73605837D01*
%TO.C,C28*%
X176560000Y-90551837D02*
X176246000Y-90551837D01*
X176246000Y-85431837D02*
X176246000Y-90551837D01*
X178866000Y-85431837D02*
X178866000Y-90551837D01*
X178866000Y-85431837D02*
X178552000Y-85431837D01*
X176560000Y-85431837D02*
X176246000Y-85431837D01*
X178866000Y-90551837D02*
X178552000Y-90551837D01*
%TO.C,C15*%
X144579338Y-69201335D02*
X144579338Y-70623839D01*
X142759338Y-69201335D02*
X142759338Y-70623839D01*
%TO.C,J8*%
X160966000Y-89906837D02*
X160966000Y-88576837D01*
X160966000Y-88576837D02*
X162296000Y-88576837D01*
X163566000Y-91236837D02*
X163566000Y-88576837D01*
X171246000Y-91236837D02*
X171246000Y-88576837D01*
X163566000Y-88576837D02*
X171246000Y-88576837D01*
X163566000Y-91236837D02*
X171246000Y-91236837D01*
%TO.C,C42*%
X160422000Y-98120252D02*
X160422000Y-96697748D01*
X158602000Y-98120252D02*
X158602000Y-96697748D01*
%TO.C,C17*%
X124822590Y-69806587D02*
X123400086Y-69806587D01*
X124822590Y-67986587D02*
X123400086Y-67986587D01*
%TO.C,L6*%
X127441438Y-83144841D02*
G75*
G03*
X127441438Y-83144841I-3758100J0D01*
G01*
X130123338Y-83144841D02*
G75*
G03*
X130123338Y-83144841I-6440000J0D01*
G01*
%TD*%
M02*
