%TF.GenerationSoftware,KiCad,Pcbnew,(6.0.11)*%
%TF.CreationDate,2023-07-06T21:33:27-05:00*%
%TF.ProjectId,RFBitBangSMT,52464269-7442-4616-9e67-534d542e6b69,rev?*%
%TF.SameCoordinates,Original*%
%TF.FileFunction,Legend,Bot*%
%TF.FilePolarity,Positive*%
%FSLAX46Y46*%
G04 Gerber Fmt 4.6, Leading zero omitted, Abs format (unit mm)*
G04 Created by KiCad (PCBNEW (6.0.11)) date 2023-07-06 21:33:27*
%MOMM*%
%LPD*%
G01*
G04 APERTURE LIST*
G04 Aperture macros list*
%AMRoundRect*
0 Rectangle with rounded corners*
0 $1 Rounding radius*
0 $2 $3 $4 $5 $6 $7 $8 $9 X,Y pos of 4 corners*
0 Add a 4 corners polygon primitive as box body*
4,1,4,$2,$3,$4,$5,$6,$7,$8,$9,$2,$3,0*
0 Add four circle primitives for the rounded corners*
1,1,$1+$1,$2,$3*
1,1,$1+$1,$4,$5*
1,1,$1+$1,$6,$7*
1,1,$1+$1,$8,$9*
0 Add four rect primitives between the rounded corners*
20,1,$1+$1,$2,$3,$4,$5,0*
20,1,$1+$1,$4,$5,$6,$7,0*
20,1,$1+$1,$6,$7,$8,$9,0*
20,1,$1+$1,$8,$9,$2,$3,0*%
G04 Aperture macros list end*
%ADD10RoundRect,0.200000X-0.800000X0.800000X-0.800000X-0.800000X0.800000X-0.800000X0.800000X0.800000X0*%
%ADD11C,2.000000*%
%ADD12RoundRect,0.200000X0.800000X0.800000X-0.800000X0.800000X-0.800000X-0.800000X0.800000X-0.800000X0*%
%ADD13RoundRect,0.200000X-1.100000X-1.100000X1.100000X-1.100000X1.100000X1.100000X-1.100000X1.100000X0*%
%ADD14O,2.600000X2.600000*%
%ADD15RoundRect,0.200000X1.500000X1.500000X-1.500000X1.500000X-1.500000X-1.500000X1.500000X-1.500000X0*%
%ADD16C,3.400000*%
%ADD17RoundRect,0.200000X-1.750000X1.750000X-1.750000X-1.750000X1.750000X-1.750000X1.750000X1.750000X0*%
%ADD18RoundRect,0.200000X-1.000000X1.750000X-1.000000X-1.750000X1.000000X-1.750000X1.000000X1.750000X0*%
%ADD19RoundRect,0.200000X0.850000X0.850000X-0.850000X0.850000X-0.850000X-0.850000X0.850000X-0.850000X0*%
%ADD20O,2.100000X2.100000*%
%ADD21RoundRect,0.200000X0.760000X-0.760000X0.760000X0.760000X-0.760000X0.760000X-0.760000X-0.760000X0*%
%ADD22C,1.920000*%
%ADD23C,2.400000*%
%ADD24C,1.900000*%
%ADD25RoundRect,0.200000X0.850000X-0.850000X0.850000X0.850000X-0.850000X0.850000X-0.850000X-0.850000X0*%
%ADD26RoundRect,0.200000X-0.760000X0.760000X-0.760000X-0.760000X0.760000X-0.760000X0.760000X0.760000X0*%
%ADD27C,2.900000*%
%ADD28RoundRect,0.200000X-0.850000X-0.850000X0.850000X-0.850000X0.850000X0.850000X-0.850000X0.850000X0*%
%ADD29C,2.500000*%
%ADD30RoundRect,0.200000X1.500000X-1.500000X1.500000X1.500000X-1.500000X1.500000X-1.500000X-1.500000X0*%
%ADD31C,2.200000*%
%ADD32RoundRect,0.200000X-0.750000X0.750000X-0.750000X-0.750000X0.750000X-0.750000X0.750000X0.750000X0*%
%ADD33RoundRect,0.200000X-0.800000X-0.800000X0.800000X-0.800000X0.800000X0.800000X-0.800000X0.800000X0*%
%ADD34C,1.924000*%
%ADD35RoundRect,0.200000X-0.850000X0.850000X-0.850000X-0.850000X0.850000X-0.850000X0.850000X0.850000X0*%
%ADD36O,2.400000X3.900000*%
%ADD37O,4.400000X2.400000*%
%ADD38C,3.448000*%
%ADD39C,1.840000*%
%ADD40C,5.400000*%
%ADD41RoundRect,0.200000X1.100000X1.100000X-1.100000X1.100000X-1.100000X-1.100000X1.100000X-1.100000X0*%
%ADD42O,2.000000X2.000000*%
%ADD43RoundRect,0.200000X-0.900000X0.900000X-0.900000X-0.900000X0.900000X-0.900000X0.900000X0.900000X0*%
%ADD44O,2.200000X2.200000*%
%ADD45O,1.400000X2.400000*%
%ADD46O,2.400000X1.400000*%
%ADD47O,2.400000X1.900000*%
%ADD48O,1.900000X2.400000*%
%ADD49RoundRect,0.200000X-0.750000X-1.300000X0.750000X-1.300000X0.750000X1.300000X-0.750000X1.300000X0*%
%ADD50O,1.900000X3.000000*%
%ADD51O,2.200000X3.000000*%
%ADD52C,3.600000*%
G04 APERTURE END LIST*
%LPC*%
D10*
%TO.C,C6*%
X113030000Y-61297500D03*
D11*
X113030000Y-63797500D03*
%TD*%
D12*
%TO.C,C19*%
X60420000Y-124440000D03*
D11*
X57920000Y-124440000D03*
%TD*%
D13*
%TO.C,D1*%
X71650000Y-68330000D03*
D14*
X79270000Y-68330000D03*
%TD*%
D15*
%TO.C,J1*%
X68195000Y-61835000D03*
D16*
X63115000Y-61835000D03*
%TD*%
D17*
%TO.C,J2*%
X54955000Y-67305000D03*
X54955000Y-61305000D03*
D18*
X50255000Y-64305000D03*
%TD*%
D19*
%TO.C,J5*%
X40220000Y-84090000D03*
D20*
X40220000Y-81550000D03*
X40220000Y-79010000D03*
X40220000Y-76470000D03*
%TD*%
D21*
%TO.C,Q3*%
X170350000Y-75630000D03*
D22*
X172890000Y-75630000D03*
X175430000Y-75630000D03*
%TD*%
D23*
%TO.C,SW1*%
X40550000Y-93020000D03*
X47050000Y-93020000D03*
X40550000Y-88520000D03*
X47050000Y-88520000D03*
%TD*%
%TO.C,SW2*%
X77100000Y-126080000D03*
X70600000Y-126080000D03*
X77100000Y-130580000D03*
X70600000Y-130580000D03*
%TD*%
%TO.C,SW3*%
X71778000Y-118110000D03*
X65278000Y-118110000D03*
X65278000Y-122610000D03*
X71778000Y-122610000D03*
%TD*%
%TO.C,SW4*%
X75184000Y-118110000D03*
X81684000Y-118110000D03*
X81684000Y-122610000D03*
X75184000Y-122610000D03*
%TD*%
%TO.C,SW5*%
X77130000Y-133910000D03*
X70630000Y-133910000D03*
X77130000Y-138410000D03*
X70630000Y-138410000D03*
%TD*%
D24*
%TO.C,Y2*%
X125730000Y-84836000D03*
X125730000Y-89716000D03*
%TD*%
D25*
%TO.C,J9*%
X94130000Y-79900000D03*
D20*
X94130000Y-77360000D03*
X96670000Y-79900000D03*
X96670000Y-77360000D03*
X99210000Y-79900000D03*
X99210000Y-77360000D03*
%TD*%
D26*
%TO.C,Q5*%
X185340000Y-90830000D03*
D22*
X182800000Y-90830000D03*
X180260000Y-90830000D03*
%TD*%
D26*
%TO.C,Q6*%
X175560000Y-90680000D03*
D22*
X173020000Y-90680000D03*
X170480000Y-90680000D03*
%TD*%
D21*
%TO.C,Q7*%
X179960000Y-75520000D03*
D22*
X182500000Y-75520000D03*
X185040000Y-75520000D03*
%TD*%
D27*
%TO.C,RV3*%
X40520000Y-101455000D03*
X43020000Y-96415000D03*
X45520000Y-101455000D03*
%TD*%
D25*
%TO.C,JP3*%
X105410000Y-80772000D03*
D20*
X107950000Y-80772000D03*
%TD*%
D28*
%TO.C,JP4*%
X169660000Y-126990000D03*
D20*
X169660000Y-129530000D03*
%TD*%
D28*
%TO.C,JP5*%
X151670000Y-77990000D03*
D20*
X151670000Y-80530000D03*
X151670000Y-83070000D03*
%TD*%
D29*
%TO.C,J12*%
X187025000Y-134505000D03*
X187025000Y-124345000D03*
D24*
X181945000Y-129425000D03*
D30*
X184673000Y-131711000D03*
D24*
X181945000Y-126885000D03*
D16*
X184673000Y-126631000D03*
%TD*%
D31*
%TO.C,RLY1*%
X187775000Y-98845000D03*
X187775000Y-106465000D03*
X187775000Y-111545000D03*
X187775000Y-116625000D03*
X180175000Y-98845000D03*
X180175000Y-106465000D03*
X180175000Y-111545000D03*
X180175000Y-116625000D03*
%TD*%
D32*
%TO.C,Q8*%
X165608000Y-71374000D03*
D24*
X165608000Y-73914000D03*
X165608000Y-76454000D03*
%TD*%
D25*
%TO.C,JP1*%
X174030000Y-70000000D03*
D20*
X176570000Y-70000000D03*
%TD*%
D33*
%TO.C,C40*%
X142020000Y-107560000D03*
D11*
X144520000Y-107560000D03*
%TD*%
D28*
%TO.C,JP2*%
X173430000Y-126910000D03*
D20*
X173430000Y-129450000D03*
%TD*%
D34*
%TO.C,T3*%
X172085000Y-140970000D03*
X179705000Y-140970000D03*
X175958500Y-143764000D03*
X175958500Y-138176000D03*
%TD*%
D26*
%TO.C,Q9*%
X167575000Y-95250000D03*
D22*
X165035000Y-95250000D03*
X162495000Y-95250000D03*
%TD*%
D35*
%TO.C,JP7*%
X176560000Y-116780000D03*
D20*
X174020000Y-116780000D03*
X171480000Y-116780000D03*
%TD*%
D24*
%TO.C,Y4*%
X119888000Y-84836000D03*
X119888000Y-89716000D03*
%TD*%
D12*
%TO.C,P1*%
X99075000Y-66075000D03*
D11*
X101675000Y-66075000D03*
X96975000Y-66075000D03*
X103775000Y-66075000D03*
X96975000Y-68875000D03*
X103775000Y-68875000D03*
D36*
X93525000Y-63225000D03*
X107225000Y-63225000D03*
D37*
X100375000Y-62425000D03*
%TD*%
D38*
%TO.C,J13*%
X177600000Y-83200000D03*
%TD*%
D39*
%TO.C,RV4*%
X142790000Y-59940000D03*
X142790000Y-62480000D03*
X142790000Y-65020000D03*
%TD*%
D40*
%TO.C,J3*%
X45500000Y-60500000D03*
%TD*%
%TO.C,J4*%
X185500000Y-60500000D03*
%TD*%
%TO.C,J6*%
X185500000Y-140500000D03*
%TD*%
%TO.C,J7*%
X45500000Y-140500000D03*
%TD*%
D24*
%TO.C,T4*%
X41656000Y-64262000D03*
X41656000Y-71882000D03*
X39116000Y-64262000D03*
X39116000Y-71882000D03*
%TD*%
%TO.C,Y5*%
X114046000Y-84836000D03*
X114046000Y-89716000D03*
%TD*%
D41*
%TO.C,D6*%
X186880000Y-95330000D03*
D14*
X179260000Y-95330000D03*
%TD*%
D11*
%TO.C,R41*%
X177075000Y-101100000D03*
D42*
X164375000Y-101100000D03*
%TD*%
D11*
%TO.C,L10*%
X95758000Y-121920000D03*
D42*
X95758000Y-132080000D03*
%TD*%
D28*
%TO.C,J14*%
X109190000Y-114970000D03*
%TD*%
%TO.C,J15*%
X134080000Y-126160000D03*
%TD*%
%TO.C,J16*%
X179900000Y-58900000D03*
%TD*%
D12*
%TO.C,C3*%
X77530000Y-61230000D03*
D11*
X74030000Y-61230000D03*
%TD*%
D34*
%TO.C,L4*%
X152146000Y-58039000D03*
X152146000Y-61849000D03*
%TD*%
%TO.C,L6*%
X161895000Y-82875000D03*
X165705000Y-82875000D03*
%TD*%
D24*
%TO.C,T1*%
X155560000Y-97500000D03*
X147940000Y-97500000D03*
X155560000Y-100040000D03*
X147940000Y-100040000D03*
X155560000Y-102580000D03*
X147940000Y-102580000D03*
%TD*%
%TO.C,T2*%
X171196000Y-112267997D03*
X171196000Y-104647997D03*
X168656000Y-112267997D03*
X168656000Y-104647997D03*
X166116000Y-112267997D03*
X166116000Y-104647997D03*
%TD*%
D43*
%TO.C,Q15*%
X187210000Y-80770000D03*
D44*
X187210000Y-83310000D03*
X187210000Y-85850000D03*
%TD*%
D35*
%TO.C,JP8*%
X133609000Y-91186000D03*
D20*
X131069000Y-91186000D03*
%TD*%
D40*
%TO.C,J20*%
X128500000Y-60500000D03*
%TD*%
%TO.C,J21*%
X128500000Y-140500000D03*
%TD*%
D31*
%TO.C,RV1*%
X88160000Y-143190000D03*
D27*
X90660000Y-140190000D03*
D31*
X85660000Y-143190000D03*
D27*
X85660000Y-140190000D03*
D31*
X83160000Y-143190000D03*
D27*
X80660000Y-140190000D03*
%TD*%
%TO.C,RV2*%
X121660000Y-139840000D03*
D31*
X119160000Y-142840000D03*
D27*
X116660000Y-139840000D03*
D31*
X116660000Y-142840000D03*
X114160000Y-142840000D03*
D27*
X111660000Y-139840000D03*
%TD*%
D28*
%TO.C,J10*%
X141110000Y-70780000D03*
D20*
X141110000Y-73320000D03*
X141110000Y-75860000D03*
X141110000Y-78400000D03*
X141110000Y-80940000D03*
X141110000Y-83480000D03*
X141110000Y-86020000D03*
%TD*%
D23*
%TO.C,SW6*%
X85344000Y-128524000D03*
X91844000Y-128524000D03*
X91844000Y-133024000D03*
X85344000Y-133024000D03*
%TD*%
D12*
%TO.C,C53*%
X103632000Y-122174000D03*
D11*
X100132000Y-122174000D03*
%TD*%
D25*
%TO.C,J17*%
X154940000Y-120650000D03*
D20*
X157480000Y-120650000D03*
X160020000Y-120650000D03*
X162560000Y-120650000D03*
%TD*%
D25*
%TO.C,J18*%
X154940000Y-140970000D03*
D20*
X157480000Y-140970000D03*
X160020000Y-140970000D03*
X162560000Y-140970000D03*
%TD*%
D45*
%TO.C,J19*%
X40562000Y-117602000D03*
D46*
X48462000Y-112402000D03*
D47*
X47462000Y-115002000D03*
D46*
X44962000Y-122402000D03*
D48*
X51862000Y-121902000D03*
%TD*%
D16*
%TO.C,DS1*%
X44620900Y-77070000D03*
X44620900Y-108070700D03*
X119620000Y-77070000D03*
X119619480Y-108070700D03*
D49*
X50120000Y-77070000D03*
D50*
X52660000Y-77070000D03*
D51*
X55200000Y-77070000D03*
X57740000Y-77070000D03*
X60280000Y-77070000D03*
X62820000Y-77070000D03*
X65360000Y-77070000D03*
D50*
X67900000Y-77070000D03*
X70440000Y-77070000D03*
X72980000Y-77070000D03*
X75520000Y-77070000D03*
X78060000Y-77070000D03*
X80600000Y-77070000D03*
X83140000Y-77070000D03*
X85680000Y-77070000D03*
D51*
X88220000Y-77070000D03*
%TD*%
D52*
%TO.C,J23*%
X159512000Y-67564000D03*
%TD*%
D25*
%TO.C,J22*%
X58420000Y-118618000D03*
D20*
X60960000Y-118618000D03*
%TD*%
D35*
%TO.C,JP9*%
X80010000Y-113538000D03*
D20*
X77470000Y-113538000D03*
%TD*%
D46*
%TO.C,J8*%
X60960000Y-141776000D03*
D45*
X55760000Y-133876000D03*
D48*
X58360000Y-134876000D03*
D45*
X65760000Y-137376000D03*
D47*
X65260000Y-130476000D03*
%TD*%
D35*
%TO.C,JP6*%
X70670000Y-113670000D03*
D20*
X68130000Y-113670000D03*
%TD*%
D45*
%TO.C,J11*%
X40689000Y-130683000D03*
D46*
X48589000Y-125483000D03*
D47*
X47589000Y-128083000D03*
D46*
X45089000Y-135483000D03*
D48*
X51989000Y-134983000D03*
%TD*%
M02*
