%TF.GenerationSoftware,KiCad,Pcbnew,(6.0.11)*%
%TF.CreationDate,2023-07-06T21:33:27-05:00*%
%TF.ProjectId,RFBitBangSMT,52464269-7442-4616-9e67-534d542e6b69,rev?*%
%TF.SameCoordinates,Original*%
%TF.FileFunction,Paste,Top*%
%TF.FilePolarity,Positive*%
%FSLAX46Y46*%
G04 Gerber Fmt 4.6, Leading zero omitted, Abs format (unit mm)*
G04 Created by KiCad (PCBNEW (6.0.11)) date 2023-07-06 21:33:27*
%MOMM*%
%LPD*%
G01*
G04 APERTURE LIST*
G04 Aperture macros list*
%AMRoundRect*
0 Rectangle with rounded corners*
0 $1 Rounding radius*
0 $2 $3 $4 $5 $6 $7 $8 $9 X,Y pos of 4 corners*
0 Add a 4 corners polygon primitive as box body*
4,1,4,$2,$3,$4,$5,$6,$7,$8,$9,$2,$3,0*
0 Add four circle primitives for the rounded corners*
1,1,$1+$1,$2,$3*
1,1,$1+$1,$4,$5*
1,1,$1+$1,$6,$7*
1,1,$1+$1,$8,$9*
0 Add four rect primitives between the rounded corners*
20,1,$1+$1,$2,$3,$4,$5,0*
20,1,$1+$1,$4,$5,$6,$7,0*
20,1,$1+$1,$6,$7,$8,$9,0*
20,1,$1+$1,$8,$9,$2,$3,0*%
G04 Aperture macros list end*
%ADD10RoundRect,0.250000X-0.475000X0.337500X-0.475000X-0.337500X0.475000X-0.337500X0.475000X0.337500X0*%
%ADD11RoundRect,0.250000X0.337500X0.475000X-0.337500X0.475000X-0.337500X-0.475000X0.337500X-0.475000X0*%
%ADD12RoundRect,0.250000X-0.337500X-0.475000X0.337500X-0.475000X0.337500X0.475000X-0.337500X0.475000X0*%
%ADD13RoundRect,0.250000X0.475000X-0.337500X0.475000X0.337500X-0.475000X0.337500X-0.475000X-0.337500X0*%
%ADD14R,0.900000X1.200000*%
%ADD15RoundRect,0.250000X-0.325000X-0.450000X0.325000X-0.450000X0.325000X0.450000X-0.325000X0.450000X0*%
%ADD16R,1.800000X3.500000*%
%ADD17RoundRect,0.250000X-0.450000X0.325000X-0.450000X-0.325000X0.450000X-0.325000X0.450000X0.325000X0*%
%ADD18RoundRect,0.150000X0.587500X0.150000X-0.587500X0.150000X-0.587500X-0.150000X0.587500X-0.150000X0*%
%ADD19RoundRect,0.150000X-0.587500X-0.150000X0.587500X-0.150000X0.587500X0.150000X-0.587500X0.150000X0*%
%ADD20RoundRect,0.150000X-0.150000X0.587500X-0.150000X-0.587500X0.150000X-0.587500X0.150000X0.587500X0*%
%ADD21R,2.750000X3.050000*%
%ADD22R,1.200000X2.200000*%
%ADD23R,1.800000X2.100000*%
%ADD24R,1.600000X0.550000*%
%ADD25R,0.550000X1.600000*%
%ADD26RoundRect,0.150000X0.675000X0.150000X-0.675000X0.150000X-0.675000X-0.150000X0.675000X-0.150000X0*%
%ADD27RoundRect,0.250000X-0.350000X-0.450000X0.350000X-0.450000X0.350000X0.450000X-0.350000X0.450000X0*%
%ADD28RoundRect,0.250000X0.450000X-0.350000X0.450000X0.350000X-0.450000X0.350000X-0.450000X-0.350000X0*%
%ADD29RoundRect,0.250000X-0.450000X0.350000X-0.450000X-0.350000X0.450000X-0.350000X0.450000X0.350000X0*%
%ADD30RoundRect,0.250000X0.350000X0.450000X-0.350000X0.450000X-0.350000X-0.450000X0.350000X-0.450000X0*%
%ADD31R,1.200000X0.900000*%
%ADD32R,1.400000X0.300000*%
%ADD33RoundRect,0.150000X0.150000X-0.587500X0.150000X0.587500X-0.150000X0.587500X-0.150000X-0.587500X0*%
%ADD34RoundRect,0.250000X0.450000X-0.325000X0.450000X0.325000X-0.450000X0.325000X-0.450000X-0.325000X0*%
%ADD35RoundRect,0.150000X0.150000X-0.675000X0.150000X0.675000X-0.150000X0.675000X-0.150000X-0.675000X0*%
%ADD36RoundRect,0.250000X0.325000X0.450000X-0.325000X0.450000X-0.325000X-0.450000X0.325000X-0.450000X0*%
G04 APERTURE END LIST*
D10*
%TO.C,C1*%
X100076000Y-94445000D03*
X100076000Y-96520000D03*
%TD*%
D11*
%TO.C,C2*%
X48027500Y-81788000D03*
X45952500Y-81788000D03*
%TD*%
D12*
%TO.C,C4*%
X52302500Y-85598000D03*
X54377500Y-85598000D03*
%TD*%
%TO.C,C5*%
X44174500Y-84836000D03*
X46249500Y-84836000D03*
%TD*%
%TO.C,C8*%
X102086500Y-97282000D03*
X104161500Y-97282000D03*
%TD*%
%TO.C,C9*%
X102065000Y-88138000D03*
X104140000Y-88138000D03*
%TD*%
D11*
%TO.C,C10*%
X82063500Y-129540000D03*
X79988500Y-129540000D03*
%TD*%
%TO.C,C11*%
X82063500Y-136398000D03*
X79988500Y-136398000D03*
%TD*%
D13*
%TO.C,C12*%
X119126000Y-97557500D03*
X119126000Y-95482500D03*
%TD*%
%TO.C,C13*%
X115570000Y-97536000D03*
X115570000Y-95461000D03*
%TD*%
D11*
%TO.C,C15*%
X97037500Y-137990000D03*
X94962500Y-137990000D03*
%TD*%
%TO.C,C16*%
X86614000Y-115824000D03*
X84539000Y-115824000D03*
%TD*%
%TO.C,C17*%
X86635500Y-119380000D03*
X84560500Y-119380000D03*
%TD*%
D13*
%TO.C,C20*%
X159450000Y-96737500D03*
X159450000Y-94662500D03*
%TD*%
%TO.C,C21*%
X130810000Y-100351500D03*
X130810000Y-98276500D03*
%TD*%
D10*
%TO.C,C22*%
X133350000Y-98022500D03*
X133350000Y-100097500D03*
%TD*%
%TO.C,C25*%
X123550000Y-124602500D03*
X123550000Y-126677500D03*
%TD*%
D11*
%TO.C,C33*%
X80285500Y-96520000D03*
X78210500Y-96520000D03*
%TD*%
%TO.C,C34*%
X114170000Y-131690000D03*
X112095000Y-131690000D03*
%TD*%
D10*
%TO.C,C35*%
X117370000Y-119080000D03*
X117370000Y-121155000D03*
%TD*%
D14*
%TO.C,D2*%
X49658000Y-98298000D03*
X52958000Y-98298000D03*
%TD*%
D15*
%TO.C,D3*%
X101582000Y-143510000D03*
X103632000Y-143510000D03*
%TD*%
D16*
%TO.C,D4*%
X127762000Y-99862000D03*
X127762000Y-104862000D03*
%TD*%
%TO.C,D5*%
X123952000Y-99862000D03*
X123952000Y-104862000D03*
%TD*%
D15*
%TO.C,L1*%
X52306000Y-88392000D03*
X54356000Y-88392000D03*
%TD*%
%TO.C,L2*%
X52315000Y-91694000D03*
X54365000Y-91694000D03*
%TD*%
D17*
%TO.C,L3*%
X118618000Y-100067000D03*
X118618000Y-102117000D03*
%TD*%
D15*
%TO.C,L9*%
X117856000Y-70866000D03*
X119906000Y-70866000D03*
%TD*%
D18*
%TO.C,Q1*%
X142923500Y-120330000D03*
X142923500Y-118430000D03*
X141048500Y-119380000D03*
%TD*%
D19*
%TO.C,Q2*%
X136730500Y-95824000D03*
X136730500Y-97724000D03*
X138605500Y-96774000D03*
%TD*%
D20*
%TO.C,Q4*%
X109650000Y-122122500D03*
X107750000Y-122122500D03*
X108700000Y-123997500D03*
%TD*%
D21*
%TO.C,U2*%
X82803000Y-64310000D03*
X85853000Y-64310000D03*
X85853000Y-60960000D03*
X82803000Y-60960000D03*
D22*
X82048000Y-68935000D03*
X86608000Y-68935000D03*
%TD*%
D23*
%TO.C,Y1*%
X103050000Y-90930000D03*
X103050000Y-93830000D03*
X105350000Y-93830000D03*
X105350000Y-90930000D03*
%TD*%
D24*
%TO.C,U1*%
X97208000Y-96204000D03*
X97208000Y-95404000D03*
X97208000Y-94604000D03*
X97208000Y-93804000D03*
X97208000Y-93004000D03*
X97208000Y-92204000D03*
X97208000Y-91404000D03*
X97208000Y-90604000D03*
D25*
X95758000Y-89154000D03*
X94958000Y-89154000D03*
X94158000Y-89154000D03*
X93358000Y-89154000D03*
X92558000Y-89154000D03*
X91758000Y-89154000D03*
X90958000Y-89154000D03*
X90158000Y-89154000D03*
D24*
X88708000Y-90604000D03*
X88708000Y-91404000D03*
X88708000Y-92204000D03*
X88708000Y-93004000D03*
X88708000Y-93804000D03*
X88708000Y-94604000D03*
X88708000Y-95404000D03*
X88708000Y-96204000D03*
D25*
X90158000Y-97654000D03*
X90958000Y-97654000D03*
X91758000Y-97654000D03*
X92558000Y-97654000D03*
X93358000Y-97654000D03*
X94158000Y-97654000D03*
X94958000Y-97654000D03*
X95758000Y-97654000D03*
%TD*%
D13*
%TO.C,C37*%
X105918000Y-129837000D03*
X105918000Y-127762000D03*
%TD*%
D26*
%TO.C,U3*%
X105495000Y-136779000D03*
X105495000Y-135509000D03*
X105495000Y-134239000D03*
X105495000Y-132969000D03*
X100245000Y-132969000D03*
X100245000Y-134239000D03*
X100245000Y-135509000D03*
X100245000Y-136779000D03*
%TD*%
%TO.C,U4*%
X128825000Y-121885000D03*
X128825000Y-120615000D03*
X128825000Y-119345000D03*
X128825000Y-118075000D03*
X123575000Y-118075000D03*
X123575000Y-119345000D03*
X123575000Y-120615000D03*
X123575000Y-121885000D03*
%TD*%
D12*
%TO.C,C14*%
X172162500Y-64800000D03*
X174237500Y-64800000D03*
%TD*%
D11*
%TO.C,C42*%
X52387500Y-71930000D03*
X50312500Y-71930000D03*
%TD*%
D27*
%TO.C,R1*%
X49800000Y-94996000D03*
X51800000Y-94996000D03*
%TD*%
D28*
%TO.C,R2*%
X85852000Y-73660000D03*
X85852000Y-71660000D03*
%TD*%
%TO.C,R3*%
X100584000Y-108188000D03*
X100584000Y-106188000D03*
%TD*%
D29*
%TO.C,R4*%
X127260000Y-124690000D03*
X127260000Y-126690000D03*
%TD*%
D27*
%TO.C,R6*%
X80026000Y-125984000D03*
X82026000Y-125984000D03*
%TD*%
D28*
%TO.C,R7*%
X115316000Y-102092000D03*
X115316000Y-100092000D03*
%TD*%
D27*
%TO.C,R8*%
X172200000Y-62500000D03*
X174200000Y-62500000D03*
%TD*%
D28*
%TO.C,R9*%
X122428000Y-96758000D03*
X122428000Y-94758000D03*
%TD*%
D27*
%TO.C,R11*%
X94800000Y-134600000D03*
X96800000Y-134600000D03*
%TD*%
%TO.C,R12*%
X84598000Y-112268000D03*
X86598000Y-112268000D03*
%TD*%
%TO.C,R13*%
X84598000Y-121666000D03*
X86598000Y-121666000D03*
%TD*%
D29*
%TO.C,R14*%
X152475000Y-69675000D03*
X152475000Y-71675000D03*
%TD*%
D30*
%TO.C,R15*%
X138668000Y-91186000D03*
X136668000Y-91186000D03*
%TD*%
D27*
%TO.C,R16*%
X131604000Y-95504000D03*
X133604000Y-95504000D03*
%TD*%
D30*
%TO.C,R17*%
X138938000Y-100584000D03*
X136938000Y-100584000D03*
%TD*%
D28*
%TO.C,R18*%
X129510000Y-115560000D03*
X129510000Y-113560000D03*
%TD*%
%TO.C,R19*%
X132140000Y-115600000D03*
X132140000Y-113600000D03*
%TD*%
D30*
%TO.C,R20*%
X157667200Y-89128600D03*
X155667200Y-89128600D03*
%TD*%
D29*
%TO.C,R21*%
X149352000Y-112808000D03*
X149352000Y-114808000D03*
%TD*%
D28*
%TO.C,R23*%
X113910000Y-121100000D03*
X113910000Y-119100000D03*
%TD*%
D30*
%TO.C,R26*%
X116610000Y-116690000D03*
X114610000Y-116690000D03*
%TD*%
D27*
%TO.C,R27*%
X112790000Y-123430000D03*
X114790000Y-123430000D03*
%TD*%
D28*
%TO.C,R29*%
X97536000Y-108170000D03*
X97536000Y-106170000D03*
%TD*%
%TO.C,R30*%
X94488000Y-108188000D03*
X94488000Y-106188000D03*
%TD*%
%TO.C,R31*%
X108620000Y-132290000D03*
X108620000Y-130290000D03*
%TD*%
D30*
%TO.C,R32*%
X113540000Y-127120000D03*
X111540000Y-127120000D03*
%TD*%
D27*
%TO.C,R33*%
X80026000Y-132842000D03*
X82026000Y-132842000D03*
%TD*%
D30*
%TO.C,R34*%
X118390000Y-131690000D03*
X116390000Y-131690000D03*
%TD*%
D28*
%TO.C,R36*%
X117348000Y-125222000D03*
X117348000Y-123222000D03*
%TD*%
%TO.C,R37*%
X128010000Y-130950000D03*
X128010000Y-128950000D03*
%TD*%
%TO.C,R46*%
X106172000Y-108150000D03*
X106172000Y-106150000D03*
%TD*%
%TO.C,R47*%
X103632000Y-108188000D03*
X103632000Y-106188000D03*
%TD*%
D29*
%TO.C,R24*%
X110744000Y-110014000D03*
X110744000Y-112014000D03*
%TD*%
D13*
%TO.C,C44*%
X45060000Y-71987500D03*
X45060000Y-69912500D03*
%TD*%
D11*
%TO.C,C47*%
X135128000Y-70930000D03*
X133053000Y-70930000D03*
%TD*%
D31*
%TO.C,D10*%
X121958000Y-67182000D03*
X121958000Y-63882000D03*
%TD*%
%TO.C,D14*%
X124768000Y-70688000D03*
X124768000Y-67388000D03*
%TD*%
D28*
%TO.C,R35*%
X115062000Y-77200000D03*
X115062000Y-75200000D03*
%TD*%
%TO.C,R48*%
X112650000Y-77180000D03*
X112650000Y-75180000D03*
%TD*%
D27*
%TO.C,R49*%
X146600000Y-77400000D03*
X148600000Y-77400000D03*
%TD*%
%TO.C,R50*%
X146600000Y-80775000D03*
X148600000Y-80775000D03*
%TD*%
D32*
%TO.C,U6*%
X131220000Y-74180000D03*
X131220000Y-74680000D03*
X131220000Y-75180000D03*
X131220000Y-75680000D03*
X131220000Y-76180000D03*
X135620000Y-76180000D03*
X135620000Y-75680000D03*
X135620000Y-75180000D03*
X135620000Y-74680000D03*
X135620000Y-74180000D03*
%TD*%
D23*
%TO.C,Y3*%
X127134000Y-77396000D03*
X127134000Y-74496000D03*
X124834000Y-74496000D03*
X124834000Y-77396000D03*
%TD*%
D13*
%TO.C,C30*%
X144070000Y-100077500D03*
X144070000Y-98002500D03*
%TD*%
D31*
%TO.C,D9*%
X161852000Y-108124000D03*
X161852000Y-111424000D03*
%TD*%
D14*
%TO.C,D11*%
X156320000Y-106120000D03*
X159620000Y-106120000D03*
%TD*%
%TO.C,D12*%
X159766000Y-113284000D03*
X156466000Y-113284000D03*
%TD*%
D31*
%TO.C,D13*%
X154178000Y-111378000D03*
X154178000Y-108078000D03*
%TD*%
D28*
%TO.C,R5*%
X141990000Y-94240000D03*
X141990000Y-92240000D03*
%TD*%
D29*
%TO.C,R22*%
X145796000Y-121682000D03*
X145796000Y-123682000D03*
%TD*%
D30*
%TO.C,R25*%
X176768000Y-106426000D03*
X174768000Y-106426000D03*
%TD*%
D27*
%TO.C,R38*%
X169790000Y-59950000D03*
X171790000Y-59950000D03*
%TD*%
D30*
%TO.C,R39*%
X180000000Y-64900000D03*
X178000000Y-64900000D03*
%TD*%
D11*
%TO.C,C39*%
X125265000Y-129286000D03*
X123190000Y-129286000D03*
%TD*%
D17*
%TO.C,D16*%
X178850000Y-131360000D03*
X178850000Y-133410000D03*
%TD*%
D30*
%TO.C,R28*%
X174660000Y-133250000D03*
X172660000Y-133250000D03*
%TD*%
D31*
%TO.C,D17*%
X157000000Y-82675000D03*
X157000000Y-85975000D03*
%TD*%
D12*
%TO.C,C46*%
X147806500Y-62992000D03*
X149881500Y-62992000D03*
%TD*%
D30*
%TO.C,R51*%
X167525000Y-90800000D03*
X165525000Y-90800000D03*
%TD*%
D29*
%TO.C,R52*%
X159766000Y-87138000D03*
X159766000Y-89138000D03*
%TD*%
D10*
%TO.C,C24*%
X167475000Y-64032500D03*
X167475000Y-66107500D03*
%TD*%
D30*
%TO.C,R53*%
X160050000Y-79875000D03*
X158050000Y-79875000D03*
%TD*%
D11*
%TO.C,C49*%
X147849500Y-118618000D03*
X145774500Y-118618000D03*
%TD*%
%TO.C,C50*%
X141450000Y-123870000D03*
X139375000Y-123870000D03*
%TD*%
D13*
%TO.C,C51*%
X152625000Y-94087500D03*
X152625000Y-92012500D03*
%TD*%
D11*
%TO.C,C52*%
X134187500Y-110060000D03*
X132112500Y-110060000D03*
%TD*%
%TO.C,C54*%
X135987500Y-119330000D03*
X133912500Y-119330000D03*
%TD*%
D10*
%TO.C,C55*%
X146300000Y-87387500D03*
X146300000Y-89462500D03*
%TD*%
D13*
%TO.C,C56*%
X154850000Y-94062500D03*
X154850000Y-91987500D03*
%TD*%
D17*
%TO.C,L5*%
X150876000Y-118609000D03*
X150876000Y-120659000D03*
%TD*%
D20*
%TO.C,Q10*%
X147070000Y-92142500D03*
X145170000Y-92142500D03*
X146120000Y-94017500D03*
%TD*%
D33*
%TO.C,Q11*%
X136464000Y-115237500D03*
X138364000Y-115237500D03*
X137414000Y-113362500D03*
%TD*%
%TO.C,Q12*%
X148625000Y-71512500D03*
X150525000Y-71512500D03*
X149575000Y-69637500D03*
%TD*%
D19*
%TO.C,Q13*%
X182312500Y-65050000D03*
X182312500Y-66950000D03*
X184187500Y-66000000D03*
%TD*%
D29*
%TO.C,R54*%
X152225000Y-87450000D03*
X152225000Y-89450000D03*
%TD*%
D28*
%TO.C,R55*%
X148825000Y-89400000D03*
X148825000Y-87400000D03*
%TD*%
D29*
%TO.C,R56*%
X149175000Y-92000000D03*
X149175000Y-94000000D03*
%TD*%
D27*
%TO.C,R57*%
X141224000Y-114554000D03*
X143224000Y-114554000D03*
%TD*%
D30*
%TO.C,R58*%
X141430000Y-127470000D03*
X139430000Y-127470000D03*
%TD*%
%TO.C,R59*%
X144010000Y-90100000D03*
X142010000Y-90100000D03*
%TD*%
D29*
%TO.C,R60*%
X138430000Y-118380000D03*
X138430000Y-120380000D03*
%TD*%
D30*
%TO.C,R61*%
X138240000Y-110800000D03*
X136240000Y-110800000D03*
%TD*%
D27*
%TO.C,R62*%
X125190000Y-114260000D03*
X127190000Y-114260000D03*
%TD*%
D28*
%TO.C,R63*%
X131520000Y-120370000D03*
X131520000Y-118370000D03*
%TD*%
D30*
%TO.C,R65*%
X145830000Y-69920000D03*
X143830000Y-69920000D03*
%TD*%
D29*
%TO.C,R66*%
X160625000Y-99150000D03*
X160625000Y-101150000D03*
%TD*%
D28*
%TO.C,R67*%
X159550000Y-85100000D03*
X159550000Y-83100000D03*
%TD*%
D30*
%TO.C,R68*%
X148600000Y-84250000D03*
X146600000Y-84250000D03*
%TD*%
D27*
%TO.C,R64*%
X110268000Y-68326000D03*
X112268000Y-68326000D03*
%TD*%
D30*
%TO.C,R70*%
X117078000Y-68326000D03*
X115078000Y-68326000D03*
%TD*%
D10*
%TO.C,C43*%
X150876000Y-122914500D03*
X150876000Y-124989500D03*
%TD*%
D34*
%TO.C,D19*%
X160880000Y-60207000D03*
X160880000Y-58157000D03*
%TD*%
D30*
%TO.C,R71*%
X167810000Y-59930000D03*
X165810000Y-59930000D03*
%TD*%
D12*
%TO.C,C32*%
X169587500Y-98350000D03*
X171662500Y-98350000D03*
%TD*%
D19*
%TO.C,Q14*%
X103202500Y-74530000D03*
X103202500Y-76430000D03*
X105077500Y-75480000D03*
%TD*%
D29*
%TO.C,R72*%
X107442000Y-74438000D03*
X107442000Y-76438000D03*
%TD*%
D10*
%TO.C,C38*%
X145975000Y-72162500D03*
X145975000Y-74237500D03*
%TD*%
D29*
%TO.C,R73*%
X155975000Y-78750000D03*
X155975000Y-80750000D03*
%TD*%
%TO.C,R74*%
X167225000Y-85675000D03*
X167225000Y-87675000D03*
%TD*%
D34*
%TO.C,L11*%
X147066000Y-67573000D03*
X147066000Y-65523000D03*
%TD*%
D12*
%TO.C,C41*%
X98784500Y-129286000D03*
X100859500Y-129286000D03*
%TD*%
D11*
%TO.C,C58*%
X46127500Y-67100000D03*
X44052500Y-67100000D03*
%TD*%
D12*
%TO.C,C27*%
X151849000Y-114808000D03*
X153924000Y-114808000D03*
%TD*%
D11*
%TO.C,C59*%
X85360000Y-91940000D03*
X83285000Y-91940000D03*
%TD*%
D29*
%TO.C,R76*%
X64450000Y-106840000D03*
X64450000Y-108840000D03*
%TD*%
D12*
%TO.C,C7*%
X86362500Y-101660000D03*
X88437500Y-101660000D03*
%TD*%
D11*
%TO.C,C57*%
X85447500Y-94130000D03*
X83372500Y-94130000D03*
%TD*%
%TO.C,C45*%
X121145000Y-116530000D03*
X119070000Y-116530000D03*
%TD*%
D12*
%TO.C,C18*%
X116312500Y-128190000D03*
X118387500Y-128190000D03*
%TD*%
D13*
%TO.C,C60*%
X108690000Y-136177500D03*
X108690000Y-134102500D03*
%TD*%
D29*
%TO.C,R10*%
X92240000Y-106140000D03*
X92240000Y-108140000D03*
%TD*%
D14*
%TO.C,D15*%
X173530000Y-59990000D03*
X176830000Y-59990000D03*
%TD*%
%TO.C,D18*%
X148875000Y-73850000D03*
X152175000Y-73850000D03*
%TD*%
D10*
%TO.C,C48*%
X125730000Y-94720500D03*
X125730000Y-96795500D03*
%TD*%
D16*
%TO.C,D8*%
X187250000Y-66500000D03*
X187250000Y-71500000D03*
%TD*%
D10*
%TO.C,C61*%
X92964000Y-121136500D03*
X92964000Y-123211500D03*
%TD*%
D28*
%TO.C,R40*%
X88990000Y-105690000D03*
X88990000Y-103690000D03*
%TD*%
D30*
%TO.C,R75*%
X91660000Y-125480000D03*
X89660000Y-125480000D03*
%TD*%
D11*
%TO.C,C26*%
X172657500Y-121240000D03*
X170582500Y-121240000D03*
%TD*%
D13*
%TO.C,C23*%
X162250000Y-91525000D03*
X162250000Y-89450000D03*
%TD*%
%TO.C,C36*%
X39878000Y-142007500D03*
X39878000Y-139932500D03*
%TD*%
D30*
%TO.C,R80*%
X56626000Y-104140000D03*
X54626000Y-104140000D03*
%TD*%
D35*
%TO.C,U5*%
X66525000Y-106465000D03*
X67795000Y-106465000D03*
X69065000Y-106465000D03*
X70335000Y-106465000D03*
X70335000Y-101215000D03*
X69065000Y-101215000D03*
X67795000Y-101215000D03*
X66525000Y-101215000D03*
%TD*%
D11*
%TO.C,C69*%
X73449000Y-93726000D03*
X71374000Y-93726000D03*
%TD*%
D10*
%TO.C,C67*%
X54356000Y-112754500D03*
X54356000Y-114829500D03*
%TD*%
D36*
%TO.C,L12*%
X56651000Y-109474000D03*
X54601000Y-109474000D03*
%TD*%
D27*
%TO.C,R42*%
X39656000Y-137922000D03*
X41656000Y-137922000D03*
%TD*%
D28*
%TO.C,R77*%
X59436000Y-98266000D03*
X59436000Y-96266000D03*
%TD*%
D29*
%TO.C,R69*%
X64008000Y-111776000D03*
X64008000Y-113776000D03*
%TD*%
D28*
%TO.C,R43*%
X60452000Y-113776000D03*
X60452000Y-111776000D03*
%TD*%
%TO.C,R44*%
X63020000Y-98840000D03*
X63020000Y-96840000D03*
%TD*%
D13*
%TO.C,C63*%
X56896000Y-114829500D03*
X56896000Y-112754500D03*
%TD*%
D17*
%TO.C,L7*%
X53370000Y-140735000D03*
X53370000Y-142785000D03*
%TD*%
D11*
%TO.C,C65*%
X67585500Y-96774000D03*
X65510500Y-96774000D03*
%TD*%
D30*
%TO.C,R81*%
X84328000Y-98298000D03*
X82328000Y-98298000D03*
%TD*%
%TO.C,R84*%
X84312000Y-101600000D03*
X82312000Y-101600000D03*
%TD*%
D10*
%TO.C,C68*%
X51840000Y-107442500D03*
X51840000Y-109517500D03*
%TD*%
D27*
%TO.C,R83*%
X71390000Y-97282000D03*
X73390000Y-97282000D03*
%TD*%
D10*
%TO.C,C62*%
X50880000Y-139792500D03*
X50880000Y-141867500D03*
%TD*%
D29*
%TO.C,R85*%
X80010000Y-101632000D03*
X80010000Y-103632000D03*
%TD*%
D13*
%TO.C,C70*%
X90070000Y-71187500D03*
X90070000Y-69112500D03*
%TD*%
D30*
%TO.C,R79*%
X75930000Y-106680000D03*
X73930000Y-106680000D03*
%TD*%
D11*
%TO.C,C71*%
X102627500Y-139970000D03*
X100552500Y-139970000D03*
%TD*%
D13*
%TO.C,C29*%
X169720000Y-66107500D03*
X169720000Y-64032500D03*
%TD*%
%TO.C,C66*%
X61060000Y-108897500D03*
X61060000Y-106822500D03*
%TD*%
D29*
%TO.C,R45*%
X63246000Y-101108000D03*
X63246000Y-103108000D03*
%TD*%
D13*
%TO.C,C31*%
X180090000Y-70787500D03*
X180090000Y-68712500D03*
%TD*%
D15*
%TO.C,L8*%
X54601000Y-106426000D03*
X56651000Y-106426000D03*
%TD*%
D29*
%TO.C,R82*%
X51562000Y-101616000D03*
X51562000Y-103616000D03*
%TD*%
D10*
%TO.C,C28*%
X120740000Y-119112500D03*
X120740000Y-121187500D03*
%TD*%
D27*
%TO.C,R78*%
X67326000Y-108966000D03*
X69326000Y-108966000D03*
%TD*%
D11*
%TO.C,C64*%
X64995000Y-94310000D03*
X62920000Y-94310000D03*
%TD*%
D27*
%TO.C,R86*%
X76760000Y-89070000D03*
X78760000Y-89070000D03*
%TD*%
M02*
