G04 #@! TF.FileFunction,Copper,L2,Bot,Signal*
%FSLAX46Y46*%
G04 Gerber Fmt 4.6, Leading zero omitted, Abs format (unit mm)*
G04 Created by KiCad (PCBNEW 4.0.7) date 10/03/21 19:08:48*
%MOMM*%
%LPD*%
G01*
G04 APERTURE LIST*
%ADD10C,0.100000*%
%ADD11R,3.000000X3.000000*%
%ADD12C,3.000000*%
%ADD13C,1.400000*%
%ADD14O,1.400000X1.400000*%
%ADD15R,1.600000X1.600000*%
%ADD16O,1.600000X1.600000*%
%ADD17C,1.600000*%
%ADD18R,2.200000X2.200000*%
%ADD19O,2.200000X2.200000*%
%ADD20R,1.800000X1.800000*%
%ADD21C,1.800000*%
%ADD22R,3.500000X3.500000*%
%ADD23R,1.700000X1.700000*%
%ADD24O,1.700000X1.700000*%
%ADD25C,1.520000*%
%ADD26R,1.520000X1.520000*%
%ADD27C,2.500000*%
%ADD28C,2.000000*%
%ADD29O,1.800000X1.800000*%
%ADD30C,1.500000*%
%ADD31C,0.350000*%
%ADD32C,0.500000*%
G04 APERTURE END LIST*
D10*
D11*
X134366000Y-51816000D03*
D12*
X134366000Y-56896000D03*
D13*
X86750000Y-113080000D03*
D14*
X79130000Y-113080000D03*
D15*
X126492000Y-109982000D03*
D16*
X118872000Y-117602000D03*
X123952000Y-109982000D03*
X121412000Y-117602000D03*
X121412000Y-109982000D03*
X123952000Y-117602000D03*
X118872000Y-109982000D03*
X126492000Y-117602000D03*
D17*
X82804000Y-70612000D03*
X85304000Y-70612000D03*
X50546000Y-94996000D03*
X50546000Y-92496000D03*
X87340000Y-136570000D03*
X84840000Y-136570000D03*
D15*
X57150000Y-53340000D03*
D17*
X59650000Y-53340000D03*
X81280000Y-129540000D03*
X86280000Y-129540000D03*
X81280000Y-133350000D03*
X86280000Y-133350000D03*
D15*
X64770000Y-53340000D03*
D17*
X67270000Y-53340000D03*
X133604000Y-124460000D03*
X136104000Y-124460000D03*
X73406000Y-99568000D03*
X73406000Y-94568000D03*
X73406000Y-86360000D03*
X73406000Y-91360000D03*
X44000000Y-81000000D03*
X46500000Y-81000000D03*
X43434000Y-119634000D03*
X45934000Y-119634000D03*
D15*
X117160000Y-95440000D03*
D17*
X117160000Y-92940000D03*
X122220000Y-95250000D03*
X122220000Y-92750000D03*
X92480000Y-108180000D03*
X92480000Y-105680000D03*
D15*
X76708000Y-52070000D03*
D17*
X79208000Y-52070000D03*
X43000000Y-94000000D03*
X45500000Y-94000000D03*
X43180000Y-106680000D03*
X45680000Y-106680000D03*
D15*
X88350000Y-56050000D03*
D17*
X88350000Y-53550000D03*
X92150000Y-62250000D03*
X94650000Y-62250000D03*
X119126000Y-82296000D03*
X114126000Y-82296000D03*
X121666000Y-79756000D03*
X126666000Y-79756000D03*
X119126000Y-74930000D03*
X119126000Y-72430000D03*
X133096000Y-120396000D03*
X130596000Y-120396000D03*
X104330000Y-53530000D03*
X104330000Y-51030000D03*
X110580000Y-71940000D03*
X113080000Y-71940000D03*
X113580000Y-51240000D03*
X108580000Y-51240000D03*
X116078000Y-51308000D03*
X121078000Y-51308000D03*
X108966000Y-133096000D03*
X108966000Y-130596000D03*
X123698000Y-51308000D03*
X128698000Y-51308000D03*
X69596000Y-116840000D03*
X72096000Y-116840000D03*
X75770000Y-105670000D03*
X78270000Y-105670000D03*
X75184000Y-74676000D03*
X72684000Y-74676000D03*
X122682000Y-103124000D03*
X117682000Y-103124000D03*
D18*
X55880000Y-59690000D03*
D19*
X63500000Y-59690000D03*
D15*
X88790000Y-123440000D03*
D16*
X81170000Y-123440000D03*
D20*
X55880000Y-69850000D03*
D21*
X55880000Y-67310000D03*
D18*
X128270000Y-90170000D03*
D19*
X135890000Y-90170000D03*
D18*
X128270000Y-93726000D03*
D19*
X135890000Y-93726000D03*
D18*
X128270000Y-97282000D03*
D19*
X135890000Y-97282000D03*
D18*
X128270000Y-86614000D03*
D19*
X135890000Y-86614000D03*
D15*
X106172000Y-136398000D03*
D16*
X98552000Y-136398000D03*
D15*
X98298000Y-132842000D03*
D16*
X105918000Y-132842000D03*
D11*
X46990000Y-74930000D03*
D12*
X46990000Y-69850000D03*
D22*
X50800000Y-58420000D03*
X44800000Y-58420000D03*
X47800000Y-63120000D03*
D23*
X78170000Y-135150000D03*
D24*
X75630000Y-135150000D03*
X73090000Y-135150000D03*
X70550000Y-135150000D03*
D23*
X54864000Y-134874000D03*
D24*
X57404000Y-134874000D03*
X59944000Y-134874000D03*
X62484000Y-134874000D03*
D11*
X134112000Y-114046000D03*
D12*
X134112000Y-108966000D03*
D11*
X89408000Y-45720000D03*
D12*
X94488000Y-45720000D03*
D17*
X74000000Y-132000000D03*
D16*
X74000000Y-121840000D03*
D17*
X78000000Y-132000000D03*
D16*
X78000000Y-121840000D03*
D17*
X94996000Y-81534000D03*
D16*
X84836000Y-81534000D03*
D17*
X98400000Y-52300000D03*
D16*
X98400000Y-62460000D03*
D17*
X121770000Y-65340000D03*
D16*
X111610000Y-65340000D03*
D17*
X101760000Y-57390000D03*
D16*
X111920000Y-57390000D03*
D17*
X104050000Y-45100000D03*
D16*
X114210000Y-45100000D03*
D17*
X118520000Y-45100000D03*
D16*
X128680000Y-45100000D03*
D17*
X76420000Y-113100000D03*
D16*
X66260000Y-113100000D03*
D25*
X99314000Y-73152000D03*
X101854000Y-73152000D03*
D26*
X96774000Y-73152000D03*
D25*
X113640000Y-76470000D03*
X111100000Y-76470000D03*
D26*
X116180000Y-76470000D03*
D25*
X117460000Y-57220000D03*
X114920000Y-57220000D03*
D26*
X120000000Y-57220000D03*
D25*
X84490000Y-104330000D03*
X81950000Y-104330000D03*
D26*
X87030000Y-104330000D03*
D13*
X88540000Y-126400000D03*
D14*
X80920000Y-126400000D03*
D13*
X67818000Y-131318000D03*
D14*
X67818000Y-123698000D03*
D13*
X50292000Y-137922000D03*
D14*
X50292000Y-130302000D03*
D13*
X63500000Y-63500000D03*
D14*
X55880000Y-63500000D03*
D13*
X108630000Y-127910000D03*
D14*
X108630000Y-120290000D03*
D13*
X64770000Y-77470000D03*
D14*
X64770000Y-69850000D03*
D13*
X77216000Y-84074000D03*
D14*
X69596000Y-84074000D03*
D13*
X125230000Y-91360000D03*
D14*
X125230000Y-98980000D03*
D13*
X96670000Y-101090000D03*
D14*
X96670000Y-108710000D03*
D13*
X78232000Y-73660000D03*
D14*
X85852000Y-73660000D03*
D13*
X62230000Y-77470000D03*
D14*
X62230000Y-69850000D03*
D13*
X49784000Y-98552000D03*
D14*
X49784000Y-106172000D03*
D13*
X99822000Y-108712000D03*
D14*
X99822000Y-101092000D03*
D13*
X103632000Y-80518000D03*
D14*
X111252000Y-80518000D03*
D13*
X103632000Y-83312000D03*
D14*
X111252000Y-83312000D03*
D13*
X129286000Y-82804000D03*
D14*
X121666000Y-82804000D03*
D13*
X111506000Y-123698000D03*
D14*
X119126000Y-123698000D03*
D13*
X119126000Y-121158000D03*
D14*
X111506000Y-121158000D03*
D13*
X113880000Y-61340000D03*
D14*
X121500000Y-61340000D03*
D13*
X119888000Y-68580000D03*
D14*
X112268000Y-68580000D03*
D13*
X108458000Y-68326000D03*
D14*
X100838000Y-68326000D03*
D13*
X124460000Y-106172000D03*
D14*
X116840000Y-106172000D03*
D13*
X114300000Y-110744000D03*
D14*
X114300000Y-103124000D03*
D13*
X108712000Y-136652000D03*
D14*
X116332000Y-136652000D03*
D13*
X121666000Y-123698000D03*
D14*
X129286000Y-123698000D03*
D13*
X108350000Y-117460000D03*
D14*
X115970000Y-117460000D03*
D13*
X98552000Y-129794000D03*
D14*
X106172000Y-129794000D03*
D13*
X50000000Y-120000000D03*
D14*
X50000000Y-127620000D03*
D13*
X76010000Y-77910000D03*
D14*
X68390000Y-77910000D03*
D13*
X68310000Y-80430000D03*
D14*
X75930000Y-80430000D03*
D13*
X71890000Y-102760000D03*
D14*
X79510000Y-102760000D03*
D13*
X49930000Y-116590000D03*
D14*
X49930000Y-108970000D03*
D13*
X86360000Y-76962000D03*
D14*
X78740000Y-76962000D03*
D27*
X75612000Y-43942000D03*
X80612000Y-43942000D03*
X70612000Y-43942000D03*
D28*
X91050000Y-129330000D03*
X95550000Y-129330000D03*
X91050000Y-135830000D03*
X95550000Y-135830000D03*
X41500000Y-84000000D03*
X46000000Y-84000000D03*
X41500000Y-90500000D03*
X46000000Y-90500000D03*
X41500000Y-97000000D03*
X46000000Y-97000000D03*
X41500000Y-103500000D03*
X46000000Y-103500000D03*
X41500000Y-110000000D03*
X46000000Y-110000000D03*
X41500000Y-116500000D03*
X46000000Y-116500000D03*
X41500000Y-123000000D03*
X46000000Y-123000000D03*
X41500000Y-129500000D03*
X46000000Y-129500000D03*
D20*
X54610000Y-44450000D03*
D29*
X57150000Y-44450000D03*
X59690000Y-44450000D03*
D30*
X68834000Y-96266000D03*
X68834000Y-91386000D03*
X118240000Y-87230000D03*
X123120000Y-87230000D03*
D15*
X62230000Y-115570000D03*
D16*
X54610000Y-82550000D03*
X62230000Y-113030000D03*
X54610000Y-85090000D03*
X62230000Y-110490000D03*
X54610000Y-87630000D03*
X62230000Y-107950000D03*
X54610000Y-90170000D03*
X62230000Y-105410000D03*
X54610000Y-92710000D03*
X62230000Y-102870000D03*
X54610000Y-95250000D03*
X62230000Y-100330000D03*
X54610000Y-97790000D03*
X62230000Y-97790000D03*
X54610000Y-100330000D03*
X62230000Y-95250000D03*
X54610000Y-102870000D03*
X62230000Y-92710000D03*
X54610000Y-105410000D03*
X62230000Y-90170000D03*
X54610000Y-107950000D03*
X62230000Y-87630000D03*
X54610000Y-110490000D03*
X62230000Y-85090000D03*
X54610000Y-113030000D03*
X62230000Y-82550000D03*
X54610000Y-115570000D03*
D23*
X83820000Y-93218000D03*
D24*
X81280000Y-93218000D03*
X83820000Y-90678000D03*
X81280000Y-90678000D03*
X83820000Y-88138000D03*
X81280000Y-88138000D03*
D17*
X85598000Y-63500000D03*
X85598000Y-61000000D03*
D15*
X74168000Y-58420000D03*
D16*
X81788000Y-66040000D03*
X74168000Y-60960000D03*
X81788000Y-63500000D03*
X74168000Y-63500000D03*
X81788000Y-60960000D03*
X74168000Y-66040000D03*
X81788000Y-58420000D03*
D17*
X108458000Y-65278000D03*
X103458000Y-65278000D03*
X105670000Y-76410000D03*
X108170000Y-76410000D03*
D20*
X103886000Y-110490000D03*
D21*
X103886000Y-113030000D03*
D27*
X124286000Y-135382000D03*
X119286000Y-135382000D03*
X129286000Y-135382000D03*
D13*
X92202000Y-121412000D03*
D14*
X92202000Y-113792000D03*
D13*
X111252000Y-110744000D03*
D14*
X111252000Y-103124000D03*
D13*
X115824000Y-126238000D03*
D14*
X115824000Y-133858000D03*
D17*
X132588000Y-61722000D03*
X135088000Y-61722000D03*
X137160000Y-79248000D03*
X134660000Y-79248000D03*
D15*
X126492000Y-75946000D03*
D16*
X126492000Y-68326000D03*
D15*
X130048000Y-68326000D03*
D16*
X130048000Y-75946000D03*
D20*
X137668000Y-74422000D03*
D21*
X137668000Y-71882000D03*
D23*
X124714000Y-56388000D03*
D24*
X124714000Y-58928000D03*
X124714000Y-61468000D03*
D13*
X123444000Y-68326000D03*
D14*
X123444000Y-75946000D03*
D13*
X133350000Y-75946000D03*
D14*
X133350000Y-68326000D03*
D13*
X138176000Y-69088000D03*
D14*
X138176000Y-61468000D03*
D23*
X128270000Y-61468000D03*
D24*
X128270000Y-58928000D03*
X128270000Y-56388000D03*
D13*
X131826000Y-65532000D03*
D14*
X124206000Y-65532000D03*
D31*
X108630000Y-127910000D02*
X108630000Y-125304000D01*
X110236000Y-123698000D02*
X111506000Y-123698000D01*
X108630000Y-125304000D02*
X110236000Y-123698000D01*
X92202000Y-121412000D02*
X92202000Y-121920000D01*
X92202000Y-121920000D02*
X90682000Y-123440000D01*
X90682000Y-123440000D02*
X88790000Y-123440000D01*
X110490000Y-139192000D02*
X110744000Y-139192000D01*
X112522000Y-125730000D02*
X111506000Y-123698000D01*
X112522000Y-137414000D02*
X112522000Y-125730000D01*
X110744000Y-139192000D02*
X112522000Y-137414000D01*
X50292000Y-137922000D02*
X49022000Y-136652000D01*
X51054000Y-110094000D02*
X49930000Y-108970000D01*
X51054000Y-114046000D02*
X51054000Y-110094000D01*
X53086000Y-116078000D02*
X51054000Y-114046000D01*
X53086000Y-126238000D02*
X53086000Y-116078000D01*
X50292000Y-129032000D02*
X53086000Y-126238000D01*
X49530000Y-129032000D02*
X50292000Y-129032000D01*
X49022000Y-129540000D02*
X49530000Y-129032000D01*
X49022000Y-136652000D02*
X49022000Y-129540000D01*
X69596000Y-138160000D02*
X50530000Y-138160000D01*
X50530000Y-138160000D02*
X50292000Y-137922000D01*
X67730000Y-134366000D02*
X67730000Y-133692000D01*
X67730000Y-133692000D02*
X67818000Y-131318000D01*
X50530000Y-138160000D02*
X50292000Y-137922000D01*
X62484000Y-134874000D02*
X67222000Y-134874000D01*
X67222000Y-134874000D02*
X67730000Y-134366000D01*
X130596000Y-120396000D02*
X129286000Y-120396000D01*
X129286000Y-120396000D02*
X126492000Y-117602000D01*
X138684000Y-122936000D02*
X138684000Y-107950000D01*
X131064000Y-139192000D02*
X132334000Y-137922000D01*
X132334000Y-137922000D02*
X132334000Y-133604000D01*
X132334000Y-133604000D02*
X134620000Y-131318000D01*
X134620000Y-131318000D02*
X136906000Y-131318000D01*
X136906000Y-131318000D02*
X138684000Y-129540000D01*
X138684000Y-129540000D02*
X138684000Y-122936000D01*
X129794000Y-139192000D02*
X131064000Y-139192000D01*
X138684000Y-107950000D02*
X136652000Y-105918000D01*
X136652000Y-105918000D02*
X132588000Y-105918000D01*
X132588000Y-105918000D02*
X130302000Y-108204000D01*
X130302000Y-108204000D02*
X130302000Y-113792000D01*
X130302000Y-113792000D02*
X126492000Y-117602000D01*
X130088000Y-120436000D02*
X130596000Y-120396000D01*
X126746000Y-117856000D02*
X126492000Y-117602000D01*
X88646000Y-99060000D02*
X88646000Y-82686000D01*
X88646000Y-82686000D02*
X88495000Y-82535000D01*
X85090000Y-101230000D02*
X68990000Y-101230000D01*
X68990000Y-101230000D02*
X68090000Y-100330000D01*
X68090000Y-100330000D02*
X62230000Y-100330000D01*
X86476000Y-101230000D02*
X88646000Y-99060000D01*
X85090000Y-101230000D02*
X86476000Y-101230000D01*
X81280000Y-93218000D02*
X81812000Y-93218000D01*
X81812000Y-93218000D02*
X82520000Y-92510000D01*
X82520000Y-92510000D02*
X82520000Y-86520000D01*
X82520000Y-86520000D02*
X84960000Y-84080000D01*
X84960000Y-84080000D02*
X86950000Y-84080000D01*
X86950000Y-84080000D02*
X88495000Y-82535000D01*
X88495000Y-82535000D02*
X88646000Y-82384000D01*
X88646000Y-82384000D02*
X88646000Y-80772000D01*
X88646000Y-80772000D02*
X86614000Y-78740000D01*
X86614000Y-78740000D02*
X80518000Y-78740000D01*
X80518000Y-78740000D02*
X76708000Y-81788000D01*
X76708000Y-81788000D02*
X75830000Y-81788000D01*
X68834000Y-74650000D02*
X68834000Y-66802000D01*
X68834000Y-66802000D02*
X65532000Y-63500000D01*
X65532000Y-63500000D02*
X63500000Y-63500000D01*
X74498000Y-81788000D02*
X68830000Y-76120000D01*
X68830000Y-76120000D02*
X68830000Y-74650000D01*
X68830000Y-74650000D02*
X68834000Y-74650000D01*
X75830000Y-81788000D02*
X74498000Y-81788000D01*
X64770000Y-69850000D02*
X62230000Y-69850000D01*
X64770000Y-69850000D02*
X64770000Y-64770000D01*
X64770000Y-64770000D02*
X63500000Y-63500000D01*
X49784000Y-106172000D02*
X49784000Y-108824000D01*
X49784000Y-108824000D02*
X49930000Y-108970000D01*
X50670000Y-95020000D02*
X51130000Y-95020000D01*
X51130000Y-95020000D02*
X52140000Y-96030000D01*
X52140000Y-96030000D02*
X52140000Y-106760000D01*
X52140000Y-106760000D02*
X49930000Y-108970000D01*
X91440000Y-138160000D02*
X103870000Y-138160000D01*
X103870000Y-138160000D02*
X104902000Y-139192000D01*
X104902000Y-139192000D02*
X110490000Y-139192000D01*
X110490000Y-139192000D02*
X114808000Y-139192000D01*
X114808000Y-139192000D02*
X116840000Y-139192000D01*
X116840000Y-139192000D02*
X129794000Y-139192000D01*
X129794000Y-139192000D02*
X130048000Y-139192000D01*
X54610000Y-95250000D02*
X55780000Y-95250000D01*
X60860000Y-100330000D02*
X62230000Y-100330000D01*
X55780000Y-95250000D02*
X60860000Y-100330000D01*
X50920000Y-95270000D02*
X50670000Y-95020000D01*
X88540000Y-126400000D02*
X91640000Y-126400000D01*
X67730000Y-137100000D02*
X67730000Y-134800000D01*
X67730000Y-134800000D02*
X67730000Y-134366000D01*
X67730000Y-134366000D02*
X67730000Y-134030000D01*
X68790000Y-138160000D02*
X67730000Y-137100000D01*
X91850000Y-138160000D02*
X91440000Y-138160000D01*
X91440000Y-138160000D02*
X70358000Y-138160000D01*
X70358000Y-138160000D02*
X69596000Y-138160000D01*
X69596000Y-138160000D02*
X68790000Y-138160000D01*
X93190000Y-136820000D02*
X91850000Y-138160000D01*
X93190000Y-127950000D02*
X93190000Y-136820000D01*
X91640000Y-126400000D02*
X93190000Y-127950000D01*
X88540000Y-126400000D02*
X88540000Y-123690000D01*
X88540000Y-123690000D02*
X88790000Y-123440000D01*
D32*
X64770000Y-53340000D02*
X63500000Y-53340000D01*
X63500000Y-53340000D02*
X60960000Y-55880000D01*
X60960000Y-55880000D02*
X60960000Y-62230000D01*
X60960000Y-62230000D02*
X62230000Y-63500000D01*
X62230000Y-63500000D02*
X63500000Y-63500000D01*
X59690000Y-44450000D02*
X59690000Y-45085000D01*
X59690000Y-45085000D02*
X61595000Y-46990000D01*
X61595000Y-51435000D02*
X63500000Y-53340000D01*
X61595000Y-46990000D02*
X61595000Y-51435000D01*
D31*
X52730000Y-108010000D02*
X52730000Y-108730000D01*
X52730000Y-108730000D02*
X53230000Y-109230000D01*
X54670000Y-109230000D02*
X53230000Y-109230000D01*
X63780000Y-115570000D02*
X64260000Y-115090000D01*
X64260000Y-115090000D02*
X64260000Y-110440000D01*
X64260000Y-110440000D02*
X63050000Y-109230000D01*
X63050000Y-109230000D02*
X54670000Y-109230000D01*
X62230000Y-115570000D02*
X63780000Y-115570000D01*
X52730000Y-94590000D02*
X53360000Y-93960000D01*
X52730000Y-108010000D02*
X52730000Y-94590000D01*
X60640000Y-96520000D02*
X63230000Y-96520000D01*
X53360000Y-93960000D02*
X58080000Y-93960000D01*
X58080000Y-93960000D02*
X60640000Y-96520000D01*
X72578000Y-96520000D02*
X83698000Y-96520000D01*
X86198000Y-94560000D02*
X86198000Y-89766000D01*
X83820000Y-88138000D02*
X86198000Y-89766000D01*
X85078000Y-96520000D02*
X86188000Y-95410000D01*
X86188000Y-95410000D02*
X86188000Y-94560000D01*
X86188000Y-94560000D02*
X86198000Y-94560000D01*
X83698000Y-96520000D02*
X85078000Y-96520000D01*
X70938000Y-98160000D02*
X72578000Y-96520000D01*
X64870000Y-98160000D02*
X70938000Y-98160000D01*
X63230000Y-96520000D02*
X64870000Y-98160000D01*
X76000000Y-119940000D02*
X79940000Y-119940000D01*
X81170000Y-121170000D02*
X81170000Y-123440000D01*
X79940000Y-119940000D02*
X81170000Y-121170000D01*
X62230000Y-118010000D02*
X62230000Y-115570000D01*
X64160000Y-119940000D02*
X62230000Y-118010000D01*
X76000000Y-119940000D02*
X64160000Y-119940000D01*
X80920000Y-126400000D02*
X80920000Y-123690000D01*
X80920000Y-123690000D02*
X81170000Y-123440000D01*
X91050000Y-129330000D02*
X89160000Y-129330000D01*
X82290000Y-127770000D02*
X80920000Y-126400000D01*
X87600000Y-127770000D02*
X82290000Y-127770000D01*
X89160000Y-129330000D02*
X87600000Y-127770000D01*
X91050000Y-135830000D02*
X91050000Y-129330000D01*
X87340000Y-136570000D02*
X90310000Y-136570000D01*
X90310000Y-136570000D02*
X91050000Y-135830000D01*
X70550000Y-135150000D02*
X70550000Y-136470000D01*
X71060000Y-136980000D02*
X84430000Y-136980000D01*
X70550000Y-136470000D02*
X71060000Y-136980000D01*
X84430000Y-136980000D02*
X84840000Y-136570000D01*
D32*
X76200000Y-40894000D02*
X96944000Y-40894000D01*
X98400000Y-42350000D02*
X98400000Y-52300000D01*
X96944000Y-40894000D02*
X98400000Y-42350000D01*
X77978000Y-45466000D02*
X79248000Y-46736000D01*
X79248000Y-46736000D02*
X79502000Y-46736000D01*
X85598000Y-63500000D02*
X81788000Y-63500000D01*
X81788000Y-63500000D02*
X82296000Y-63500000D01*
X82296000Y-63500000D02*
X83566000Y-62230000D01*
X83566000Y-62230000D02*
X83566000Y-50038000D01*
X83566000Y-50038000D02*
X80264000Y-46736000D01*
X80264000Y-46736000D02*
X79502000Y-46736000D01*
X54610000Y-42164000D02*
X54610000Y-44450000D01*
X55880000Y-40894000D02*
X54610000Y-42164000D01*
X76200000Y-40894000D02*
X55880000Y-40894000D01*
X77978000Y-42672000D02*
X76200000Y-40894000D01*
X77978000Y-45466000D02*
X77978000Y-42672000D01*
X57150000Y-53340000D02*
X55880000Y-53340000D01*
X55880000Y-53340000D02*
X55880000Y-59690000D01*
X57150000Y-53340000D02*
X52705000Y-53340000D01*
X50800000Y-55245000D02*
X50800000Y-58420000D01*
X52705000Y-53340000D02*
X50800000Y-55245000D01*
X54610000Y-44450000D02*
X54610000Y-50800000D01*
X54610000Y-50800000D02*
X57150000Y-53340000D01*
X46990000Y-69850000D02*
X49530000Y-69850000D01*
X49530000Y-69850000D02*
X50800000Y-68580000D01*
X50800000Y-68580000D02*
X50800000Y-58420000D01*
D31*
X74000000Y-132000000D02*
X74000000Y-134240000D01*
X74000000Y-134240000D02*
X73090000Y-135150000D01*
X74000000Y-132000000D02*
X74000000Y-131150000D01*
X75610000Y-129540000D02*
X81280000Y-129540000D01*
X74000000Y-131150000D02*
X75610000Y-129540000D01*
X73520000Y-132480000D02*
X74000000Y-132000000D01*
X75630000Y-135150000D02*
X75630000Y-134370000D01*
X75630000Y-134370000D02*
X78000000Y-132000000D01*
X78000000Y-132000000D02*
X79930000Y-132000000D01*
X79930000Y-132000000D02*
X81280000Y-133350000D01*
X119888000Y-138176000D02*
X115062000Y-138176000D01*
X113538000Y-136652000D02*
X113284000Y-135382000D01*
X115062000Y-138176000D02*
X113538000Y-136652000D01*
X113284000Y-120904000D02*
X112274000Y-119640000D01*
X113284000Y-135382000D02*
X113284000Y-120904000D01*
X127254000Y-138176000D02*
X130302000Y-138176000D01*
X137922000Y-126278000D02*
X136104000Y-124460000D01*
X137922000Y-129032000D02*
X137922000Y-126278000D01*
X136398000Y-130556000D02*
X137922000Y-129032000D01*
X133604000Y-130556000D02*
X136398000Y-130556000D01*
X131572000Y-132842000D02*
X133604000Y-130556000D01*
X131572000Y-137160000D02*
X131572000Y-132842000D01*
X130302000Y-138176000D02*
X131572000Y-137160000D01*
X108630000Y-120290000D02*
X106490000Y-120290000D01*
X68640000Y-105410000D02*
X62230000Y-105410000D01*
X72480000Y-109250000D02*
X68640000Y-105410000D01*
X72480000Y-112660000D02*
X72480000Y-109250000D01*
X76440000Y-116620000D02*
X72480000Y-112660000D01*
X102820000Y-116620000D02*
X76440000Y-116620000D01*
X106490000Y-120290000D02*
X102820000Y-116620000D01*
X109280000Y-119640000D02*
X108630000Y-120290000D01*
X112274000Y-119640000D02*
X109280000Y-119640000D01*
X136104000Y-124460000D02*
X136104000Y-116038000D01*
X136104000Y-116038000D02*
X134112000Y-114046000D01*
X119888000Y-138176000D02*
X127254000Y-138176000D01*
X68834000Y-96266000D02*
X68834000Y-95250000D01*
X69516000Y-94568000D02*
X73406000Y-94568000D01*
X68834000Y-95250000D02*
X69516000Y-94568000D01*
X68834000Y-96266000D02*
X64516000Y-96266000D01*
X63500000Y-95250000D02*
X62230000Y-95250000D01*
X64516000Y-96266000D02*
X63500000Y-95250000D01*
X68834000Y-91386000D02*
X68834000Y-91186000D01*
X68834000Y-91186000D02*
X69168000Y-90852000D01*
X69168000Y-90852000D02*
X73406000Y-91360000D01*
X73178000Y-91132000D02*
X73406000Y-91360000D01*
X62230000Y-92710000D02*
X67510000Y-92710000D01*
X67510000Y-92710000D02*
X68834000Y-91386000D01*
X46500000Y-81000000D02*
X47524000Y-81000000D01*
X62992000Y-75692000D02*
X64770000Y-77470000D01*
X52832000Y-75692000D02*
X62992000Y-75692000D01*
X47524000Y-81000000D02*
X52832000Y-75692000D01*
X62230000Y-82550000D02*
X62230000Y-81788000D01*
X62230000Y-81788000D02*
X64770000Y-79248000D01*
X64770000Y-79248000D02*
X64770000Y-77470000D01*
X46500000Y-81000000D02*
X47270000Y-81000000D01*
X46000000Y-90500000D02*
X46000000Y-84000000D01*
X46000000Y-84000000D02*
X46000000Y-81500000D01*
X46000000Y-81500000D02*
X46500000Y-81000000D01*
X45934000Y-119634000D02*
X46664000Y-119634000D01*
X46664000Y-119634000D02*
X48900000Y-121870000D01*
X52110000Y-118770000D02*
X49930000Y-116590000D01*
X52110000Y-120890000D02*
X52110000Y-118770000D01*
X51130000Y-121870000D02*
X52110000Y-120890000D01*
X48900000Y-121870000D02*
X51130000Y-121870000D01*
X46000000Y-129500000D02*
X46000000Y-123000000D01*
X50000000Y-127620000D02*
X47880000Y-127620000D01*
X47880000Y-127620000D02*
X46000000Y-129500000D01*
X45934000Y-119634000D02*
X45934000Y-122934000D01*
X45934000Y-122934000D02*
X46000000Y-123000000D01*
X94996000Y-81534000D02*
X94996000Y-84836000D01*
X105600000Y-95440000D02*
X117160000Y-95440000D01*
X94996000Y-84836000D02*
X105600000Y-95440000D01*
X122220000Y-95250000D02*
X117350000Y-95250000D01*
X117350000Y-95250000D02*
X117160000Y-95440000D01*
D32*
X122220000Y-95250000D02*
X123790000Y-95250000D01*
X125230000Y-96690000D02*
X125230000Y-98980000D01*
X123790000Y-95250000D02*
X125230000Y-96690000D01*
D31*
X86750000Y-113080000D02*
X87580000Y-113080000D01*
X87580000Y-113080000D02*
X92480000Y-108180000D01*
X92480000Y-108180000D02*
X96140000Y-108180000D01*
X96140000Y-108180000D02*
X96670000Y-108710000D01*
X92000000Y-108660000D02*
X92480000Y-108180000D01*
X76708000Y-52070000D02*
X76708000Y-56642000D01*
X76708000Y-56642000D02*
X74930000Y-58420000D01*
X74930000Y-58420000D02*
X74168000Y-58420000D01*
X79208000Y-52070000D02*
X79208000Y-57872000D01*
X79756000Y-58420000D02*
X81788000Y-58420000D01*
X79208000Y-57872000D02*
X79756000Y-58420000D01*
X62230000Y-77470000D02*
X59690000Y-77470000D01*
X59690000Y-77470000D02*
X54610000Y-82550000D01*
X46000000Y-97000000D02*
X46000000Y-96748000D01*
X46000000Y-96748000D02*
X47752000Y-94996000D01*
X53340000Y-80772000D02*
X54610000Y-82042000D01*
X49784000Y-80772000D02*
X53340000Y-80772000D01*
X48768000Y-81788000D02*
X49784000Y-80772000D01*
X48768000Y-84836000D02*
X48768000Y-81788000D01*
X47752000Y-85852000D02*
X48768000Y-84836000D01*
X47752000Y-94996000D02*
X47752000Y-85852000D01*
X54610000Y-82042000D02*
X54610000Y-82550000D01*
X46000000Y-103500000D02*
X46000000Y-97000000D01*
X45500000Y-94000000D02*
X45500000Y-96500000D01*
X45500000Y-96500000D02*
X46000000Y-97000000D01*
X49784000Y-98552000D02*
X49022000Y-98552000D01*
X49022000Y-98552000D02*
X47498000Y-100076000D01*
X45680000Y-106680000D02*
X47244000Y-106680000D01*
X50038000Y-85090000D02*
X54610000Y-85090000D01*
X48374000Y-86604000D02*
X50038000Y-85090000D01*
X48374000Y-96256000D02*
X48374000Y-86604000D01*
X47498000Y-97282000D02*
X48374000Y-96256000D01*
X47498000Y-106426000D02*
X47498000Y-100076000D01*
X47498000Y-100076000D02*
X47498000Y-97282000D01*
X47244000Y-106680000D02*
X47498000Y-106426000D01*
X46000000Y-110000000D02*
X46000000Y-107000000D01*
X46000000Y-107000000D02*
X45680000Y-106680000D01*
X46000000Y-116500000D02*
X46000000Y-110000000D01*
D32*
X81788000Y-66040000D02*
X81788000Y-69596000D01*
X81788000Y-69596000D02*
X82804000Y-70612000D01*
X81788000Y-66040000D02*
X87440000Y-66040000D01*
X88350000Y-65130000D02*
X88350000Y-56050000D01*
X87440000Y-66040000D02*
X88350000Y-65130000D01*
D31*
X85304000Y-70612000D02*
X85304000Y-73112000D01*
X85304000Y-73112000D02*
X85852000Y-73660000D01*
D32*
X88350000Y-53550000D02*
X88350000Y-46778000D01*
X88350000Y-46778000D02*
X89408000Y-45720000D01*
X114046000Y-74260000D02*
X114716000Y-74260000D01*
X115824000Y-63284000D02*
X113880000Y-61340000D01*
X115824000Y-73152000D02*
X115824000Y-63284000D01*
X114716000Y-74260000D02*
X115824000Y-73152000D01*
X108170000Y-76410000D02*
X108170000Y-78774000D01*
X106426000Y-80518000D02*
X103632000Y-80518000D01*
X108170000Y-78774000D02*
X106426000Y-80518000D01*
X113880000Y-61340000D02*
X112130000Y-61340000D01*
X108180000Y-57390000D02*
X101760000Y-57390000D01*
X112130000Y-61340000D02*
X108180000Y-57390000D01*
X103632000Y-80518000D02*
X103962000Y-80518000D01*
X111100000Y-76470000D02*
X111100000Y-74990000D01*
X111830000Y-74260000D02*
X114046000Y-74260000D01*
X111100000Y-74990000D02*
X111830000Y-74260000D01*
X111100000Y-76470000D02*
X108230000Y-76470000D01*
X108230000Y-76470000D02*
X108170000Y-76410000D01*
X98400000Y-62460000D02*
X98400000Y-59070000D01*
X100080000Y-57390000D02*
X101760000Y-57390000D01*
X98400000Y-59070000D02*
X100080000Y-57390000D01*
X98400000Y-62460000D02*
X94860000Y-62460000D01*
X94860000Y-62460000D02*
X94650000Y-62250000D01*
X119126000Y-74930000D02*
X117720000Y-74930000D01*
X117720000Y-74930000D02*
X116180000Y-76470000D01*
X121666000Y-79756000D02*
X119466000Y-79756000D01*
X119466000Y-79756000D02*
X116180000Y-76470000D01*
X121666000Y-79756000D02*
X121666000Y-82804000D01*
X121666000Y-82804000D02*
X119634000Y-82804000D01*
X119634000Y-82804000D02*
X119126000Y-82296000D01*
X114126000Y-82296000D02*
X112268000Y-82296000D01*
X112268000Y-82296000D02*
X111252000Y-83312000D01*
X114126000Y-82296000D02*
X114126000Y-83116000D01*
X114126000Y-83116000D02*
X118240000Y-87230000D01*
X113640000Y-76470000D02*
X113640000Y-81810000D01*
X113640000Y-81810000D02*
X114126000Y-82296000D01*
X111252000Y-80518000D02*
X111252000Y-83312000D01*
X111252000Y-80518000D02*
X111252000Y-78858000D01*
X111252000Y-78858000D02*
X113640000Y-76470000D01*
X119126000Y-72430000D02*
X118912000Y-72430000D01*
X118912000Y-72430000D02*
X117856000Y-71374000D01*
X117856000Y-71374000D02*
X117856000Y-67310000D01*
X117856000Y-67310000D02*
X119826000Y-65340000D01*
X119826000Y-65340000D02*
X121770000Y-65340000D01*
X121350000Y-65340000D02*
X121770000Y-65340000D01*
X121770000Y-65340000D02*
X121350000Y-65340000D01*
X121500000Y-61340000D02*
X121500000Y-65070000D01*
X121500000Y-65070000D02*
X121770000Y-65340000D01*
X117460000Y-57220000D02*
X117460000Y-58870000D01*
X119930000Y-61340000D02*
X121500000Y-61340000D01*
X117460000Y-58870000D02*
X119930000Y-61340000D01*
D31*
X110580000Y-71940000D02*
X103066000Y-71940000D01*
X103066000Y-71940000D02*
X101854000Y-73152000D01*
D32*
X110580000Y-71940000D02*
X110040000Y-71940000D01*
X110040000Y-71940000D02*
X108458000Y-70358000D01*
X108458000Y-70358000D02*
X108458000Y-68326000D01*
X108458000Y-65278000D02*
X111548000Y-65278000D01*
X111548000Y-65278000D02*
X111610000Y-65340000D01*
X108458000Y-68326000D02*
X108458000Y-65278000D01*
X111770000Y-65760000D02*
X111870000Y-65660000D01*
D31*
X110310000Y-71670000D02*
X110580000Y-71940000D01*
D32*
X111920000Y-57390000D02*
X111920000Y-56960000D01*
X111920000Y-56960000D02*
X108490000Y-53530000D01*
X108490000Y-53530000D02*
X104330000Y-53530000D01*
X111920000Y-57390000D02*
X114750000Y-57390000D01*
X114750000Y-57390000D02*
X114920000Y-57220000D01*
X108580000Y-51240000D02*
X104540000Y-51240000D01*
X104540000Y-51240000D02*
X104330000Y-51030000D01*
X104050000Y-45100000D02*
X104050000Y-50750000D01*
X104050000Y-50750000D02*
X104330000Y-51030000D01*
X112268000Y-68580000D02*
X112268000Y-71128000D01*
X112268000Y-71128000D02*
X113080000Y-71940000D01*
X113080000Y-71940000D02*
X113734000Y-71940000D01*
D31*
X113150000Y-71870000D02*
X113080000Y-71940000D01*
D32*
X118520000Y-45100000D02*
X118520000Y-48750000D01*
X118520000Y-48750000D02*
X121078000Y-51308000D01*
X118520000Y-45100000D02*
X114210000Y-45100000D01*
X118520000Y-45100000D02*
X118520000Y-45430000D01*
D31*
X108966000Y-133096000D02*
X108966000Y-136398000D01*
X108966000Y-136398000D02*
X108712000Y-136652000D01*
X108966000Y-130596000D02*
X108164000Y-130596000D01*
X108164000Y-130596000D02*
X105918000Y-132842000D01*
X105918000Y-132842000D02*
X105918000Y-136144000D01*
X105918000Y-136144000D02*
X106172000Y-136398000D01*
D32*
X128698000Y-51308000D02*
X128698000Y-51642000D01*
X128698000Y-51642000D02*
X126492000Y-53848000D01*
X123190000Y-58928000D02*
X124714000Y-58928000D01*
X122428000Y-58166000D02*
X123190000Y-58928000D01*
X122428000Y-54864000D02*
X122428000Y-58166000D01*
X123444000Y-53848000D02*
X122428000Y-54864000D01*
X126492000Y-53848000D02*
X123444000Y-53848000D01*
X128698000Y-51308000D02*
X128698000Y-45118000D01*
X128698000Y-45118000D02*
X128680000Y-45100000D01*
X128918000Y-51528000D02*
X128698000Y-51308000D01*
D31*
X78740000Y-76962000D02*
X78740000Y-78190000D01*
X78740000Y-78190000D02*
X76500000Y-80430000D01*
X76500000Y-80430000D02*
X75930000Y-80430000D01*
X75930000Y-80430000D02*
X74340000Y-80430000D01*
X73290000Y-76570000D02*
X75184000Y-74676000D01*
X73290000Y-79380000D02*
X73290000Y-76570000D01*
X74340000Y-80430000D02*
X73290000Y-79380000D01*
X75930000Y-79994000D02*
X75930000Y-80430000D01*
X76010000Y-80510000D02*
X75930000Y-80430000D01*
X72684000Y-74676000D02*
X72684000Y-74462000D01*
X72684000Y-74462000D02*
X70612000Y-72390000D01*
X70612000Y-72390000D02*
X70612000Y-43942000D01*
X138684000Y-87884000D02*
X138684000Y-85344000D01*
X138684000Y-85344000D02*
X136906000Y-83566000D01*
X119888000Y-70866000D02*
X119888000Y-68580000D01*
X121158000Y-72136000D02*
X119888000Y-70866000D01*
X121158000Y-76200000D02*
X121158000Y-72136000D01*
X122936000Y-77978000D02*
X121158000Y-76200000D01*
X128016000Y-77978000D02*
X122936000Y-77978000D01*
X130810000Y-80772000D02*
X128016000Y-77978000D01*
X130810000Y-82550000D02*
X130810000Y-80772000D01*
X131826000Y-83566000D02*
X130810000Y-82550000D01*
X136906000Y-83566000D02*
X131826000Y-83566000D01*
X123952000Y-111252000D02*
X123952000Y-109982000D01*
X124968000Y-112268000D02*
X123952000Y-111252000D01*
X127508000Y-112268000D02*
X124968000Y-112268000D01*
X129032000Y-110744000D02*
X127508000Y-112268000D01*
X129032000Y-105664000D02*
X129032000Y-110744000D01*
X130302000Y-104394000D02*
X129032000Y-105664000D01*
X133858000Y-104394000D02*
X130302000Y-104394000D01*
X138684000Y-99568000D02*
X133858000Y-104394000D01*
X138684000Y-87884000D02*
X138684000Y-99568000D01*
X123952000Y-109982000D02*
X123952000Y-110634000D01*
X116840000Y-106172000D02*
X121666000Y-106172000D01*
X121666000Y-106172000D02*
X123952000Y-108458000D01*
X123952000Y-108458000D02*
X123952000Y-109982000D01*
X123952000Y-109982000D02*
X123952000Y-109280000D01*
X117682000Y-103124000D02*
X117682000Y-105330000D01*
X117682000Y-105330000D02*
X116840000Y-106172000D01*
D32*
X55880000Y-63500000D02*
X55880000Y-67310000D01*
X128270000Y-93726000D02*
X128270000Y-98044000D01*
X128270000Y-98044000D02*
X128270000Y-97282000D01*
X128270000Y-93726000D02*
X128270000Y-90170000D01*
X128270000Y-86614000D02*
X123736000Y-86614000D01*
X123736000Y-86614000D02*
X123120000Y-87230000D01*
X128270000Y-90170000D02*
X128270000Y-86614000D01*
X125230000Y-91360000D02*
X127080000Y-91360000D01*
X127080000Y-91360000D02*
X128270000Y-90170000D01*
X128380000Y-93660000D02*
X128360000Y-93680000D01*
X125484000Y-91106000D02*
X125230000Y-91360000D01*
D31*
X54610000Y-125984000D02*
X54610000Y-128524000D01*
X52832000Y-130302000D02*
X50292000Y-130302000D01*
X54610000Y-128524000D02*
X52832000Y-130302000D01*
X54610000Y-123952000D02*
X54610000Y-125984000D01*
X54610000Y-117094000D02*
X54610000Y-123952000D01*
X54610000Y-123952000D02*
X54610000Y-124206000D01*
X57404000Y-127000000D02*
X57404000Y-134874000D01*
X54610000Y-124206000D02*
X57404000Y-127000000D01*
X54610000Y-117094000D02*
X54610000Y-115570000D01*
X59944000Y-134874000D02*
X59944000Y-119634000D01*
X67818000Y-123698000D02*
X64008000Y-123698000D01*
X56642000Y-115062000D02*
X54610000Y-113030000D01*
X56642000Y-116332000D02*
X56642000Y-115062000D01*
X64008000Y-123698000D02*
X59944000Y-119634000D01*
X59944000Y-119634000D02*
X56642000Y-116332000D01*
X50000000Y-120000000D02*
X49896000Y-120000000D01*
X49896000Y-120000000D02*
X48260000Y-118364000D01*
X50292000Y-89662000D02*
X54102000Y-89662000D01*
X49022000Y-90932000D02*
X50292000Y-89662000D01*
X49022000Y-95504000D02*
X49022000Y-90932000D01*
X51308000Y-97790000D02*
X49022000Y-95504000D01*
X51308000Y-103632000D02*
X51308000Y-97790000D01*
X50292000Y-104648000D02*
X51308000Y-103632000D01*
X49276000Y-104648000D02*
X50292000Y-104648000D01*
X48260000Y-105664000D02*
X49276000Y-104648000D01*
X48260000Y-118364000D02*
X48260000Y-105664000D01*
X54102000Y-89662000D02*
X54610000Y-90170000D01*
X54610000Y-90170000D02*
X56000000Y-90170000D01*
X56000000Y-90170000D02*
X57250000Y-91420000D01*
X57250000Y-91420000D02*
X65470000Y-91420000D01*
X65470000Y-91420000D02*
X67710000Y-89180000D01*
X67710000Y-89180000D02*
X73990000Y-89180000D01*
X73990000Y-89180000D02*
X79610000Y-94800000D01*
X79610000Y-94800000D02*
X82238000Y-94800000D01*
X82238000Y-94800000D02*
X83820000Y-93218000D01*
X83820000Y-93218000D02*
X83820000Y-92932000D01*
X50000000Y-120000000D02*
X50000000Y-119596000D01*
X64262000Y-93970000D02*
X67574000Y-93970000D01*
X84836000Y-90678000D02*
X85458000Y-91300000D01*
X85458000Y-91300000D02*
X85458000Y-93970000D01*
X85458000Y-93970000D02*
X83998000Y-95430000D01*
X83998000Y-95430000D02*
X77848000Y-95430000D01*
X84836000Y-90678000D02*
X83820000Y-90678000D01*
X77142000Y-95430000D02*
X77848000Y-95430000D01*
X74422000Y-92710000D02*
X77142000Y-95430000D01*
X68834000Y-92710000D02*
X74422000Y-92710000D01*
X67574000Y-93970000D02*
X68834000Y-92710000D01*
X59510000Y-92710000D02*
X54610000Y-92710000D01*
X60770000Y-93970000D02*
X59510000Y-92710000D01*
X64262000Y-93970000D02*
X60770000Y-93970000D01*
X54610000Y-87630000D02*
X56280000Y-87630000D01*
X72920000Y-82420000D02*
X81178000Y-90678000D01*
X69140000Y-82420000D02*
X72920000Y-82420000D01*
X67120000Y-84440000D02*
X69140000Y-82420000D01*
X67120000Y-86240000D02*
X67120000Y-84440000D01*
X64520000Y-88840000D02*
X67120000Y-86240000D01*
X57490000Y-88840000D02*
X64520000Y-88840000D01*
X56280000Y-87630000D02*
X57490000Y-88840000D01*
X81178000Y-90678000D02*
X81280000Y-90678000D01*
X81280000Y-90678000D02*
X80586000Y-90678000D01*
X59900000Y-117350000D02*
X59900000Y-117590000D01*
X64150000Y-121840000D02*
X74000000Y-121840000D01*
X59900000Y-117590000D02*
X64150000Y-121840000D01*
X73870000Y-121710000D02*
X74000000Y-121840000D01*
X62230000Y-110490000D02*
X61400000Y-110490000D01*
X59900000Y-112500000D02*
X59900000Y-117350000D01*
X59900000Y-117350000D02*
X59900000Y-117430000D01*
X61400000Y-110490000D02*
X59900000Y-112500000D01*
X60490000Y-116860000D02*
X60490000Y-117170000D01*
X60490000Y-117170000D02*
X63970000Y-120650000D01*
X60490000Y-114860000D02*
X60490000Y-114770000D01*
X60490000Y-114770000D02*
X62230000Y-113030000D01*
X74520000Y-120650000D02*
X76810000Y-120650000D01*
X63970000Y-120650000D02*
X74520000Y-120650000D01*
X76810000Y-120650000D02*
X78000000Y-121840000D01*
X60490000Y-114860000D02*
X60490000Y-116860000D01*
X60490000Y-116860000D02*
X60490000Y-116950000D01*
X62230000Y-90170000D02*
X64516000Y-90170000D01*
X69596000Y-85090000D02*
X69596000Y-84074000D01*
X64516000Y-90170000D02*
X69596000Y-85090000D01*
X77216000Y-84074000D02*
X80772000Y-84074000D01*
X83312000Y-81534000D02*
X84836000Y-81534000D01*
X80772000Y-84074000D02*
X83312000Y-81534000D01*
X79130000Y-113080000D02*
X76440000Y-113080000D01*
X76440000Y-113080000D02*
X76420000Y-113100000D01*
X76690000Y-113370000D02*
X76420000Y-113100000D01*
X76690000Y-113370000D02*
X76420000Y-113100000D01*
X62230000Y-107950000D02*
X64390000Y-107950000D01*
X66260000Y-109820000D02*
X66260000Y-113100000D01*
X64390000Y-107950000D02*
X66260000Y-109820000D01*
X66260000Y-113100000D02*
X65630000Y-113100000D01*
X62340000Y-108060000D02*
X62230000Y-107950000D01*
X96670000Y-101090000D02*
X94232000Y-101090000D01*
X99314000Y-74930000D02*
X99314000Y-73152000D01*
X99060000Y-75184000D02*
X99314000Y-74930000D01*
X96266000Y-75184000D02*
X99060000Y-75184000D01*
X91948000Y-79502000D02*
X96266000Y-75184000D01*
X91948000Y-98806000D02*
X91948000Y-79502000D01*
X94232000Y-101090000D02*
X91948000Y-98806000D01*
X99822000Y-101092000D02*
X96672000Y-101092000D01*
X96672000Y-101092000D02*
X96670000Y-101090000D01*
X96000000Y-101090000D02*
X96670000Y-101090000D01*
X90030000Y-81788000D02*
X90030000Y-77838000D01*
X77720000Y-75184000D02*
X76010000Y-77910000D01*
X87376000Y-75184000D02*
X77720000Y-75184000D01*
X90030000Y-77838000D02*
X87376000Y-75184000D01*
X84490000Y-104330000D02*
X84490000Y-103510000D01*
X84490000Y-103510000D02*
X85020000Y-102980000D01*
X84490000Y-104330000D02*
X84640000Y-103730000D01*
X90030000Y-101650000D02*
X90030000Y-81788000D01*
X88700000Y-102980000D02*
X90030000Y-101650000D01*
X85020000Y-102980000D02*
X88700000Y-102980000D01*
X79510000Y-102760000D02*
X80380000Y-102760000D01*
X80380000Y-102760000D02*
X81950000Y-104330000D01*
X89318000Y-81534000D02*
X89318000Y-79920000D01*
X81950000Y-102530000D02*
X82370000Y-102110000D01*
X86710000Y-102110000D02*
X82370000Y-102110000D01*
X89318000Y-99756000D02*
X86710000Y-102110000D01*
X89318000Y-81534000D02*
X89318000Y-99756000D01*
X81950000Y-104330000D02*
X81950000Y-102530000D01*
X89318000Y-79920000D02*
X86360000Y-76962000D01*
X79560000Y-102810000D02*
X79510000Y-102760000D01*
X119126000Y-121158000D02*
X119380000Y-123444000D01*
X119380000Y-123444000D02*
X119126000Y-123698000D01*
X118872000Y-117602000D02*
X118872000Y-120904000D01*
X118872000Y-120904000D02*
X119126000Y-121158000D01*
X118872000Y-117602000D02*
X118872000Y-115824000D01*
X121412000Y-113284000D02*
X121412000Y-109982000D01*
X118872000Y-115824000D02*
X121412000Y-113284000D01*
X62230000Y-85090000D02*
X63740000Y-85090000D01*
X64880000Y-81530000D02*
X68390000Y-78020000D01*
X64880000Y-83950000D02*
X64880000Y-81530000D01*
X63740000Y-85090000D02*
X64880000Y-83950000D01*
X68390000Y-78020000D02*
X68390000Y-77910000D01*
X62230000Y-87630000D02*
X64480000Y-87630000D01*
X65690000Y-83050000D02*
X68310000Y-80430000D01*
X65690000Y-86420000D02*
X65690000Y-83050000D01*
X64480000Y-87630000D02*
X65690000Y-86420000D01*
X74168000Y-60960000D02*
X72898000Y-60960000D01*
X72136000Y-47418000D02*
X75612000Y-43942000D01*
X72136000Y-60198000D02*
X72136000Y-47418000D01*
X72898000Y-60960000D02*
X72136000Y-60198000D01*
X82030000Y-108712000D02*
X75438000Y-108712000D01*
X75438000Y-108712000D02*
X73406000Y-106680000D01*
X62230000Y-102870000D02*
X67564000Y-102870000D01*
X103886000Y-107950000D02*
X103886000Y-110490000D01*
X99568000Y-103632000D02*
X103886000Y-107950000D01*
X91440000Y-103632000D02*
X99568000Y-103632000D01*
X90424000Y-104648000D02*
X91440000Y-103632000D01*
X90424000Y-106680000D02*
X90424000Y-104648000D01*
X88392000Y-108712000D02*
X90424000Y-106680000D01*
X82030000Y-108712000D02*
X88392000Y-108712000D01*
X70104000Y-103378000D02*
X73406000Y-106680000D01*
X68072000Y-103378000D02*
X70104000Y-103378000D01*
X67564000Y-102870000D02*
X68072000Y-103378000D01*
X103886000Y-113030000D02*
X92964000Y-113030000D01*
X92964000Y-113030000D02*
X92202000Y-113792000D01*
X121666000Y-123698000D02*
X121666000Y-117856000D01*
X121666000Y-117856000D02*
X121412000Y-117602000D01*
X119286000Y-135382000D02*
X119286000Y-133952000D01*
X121666000Y-131572000D02*
X121666000Y-123698000D01*
X119286000Y-133952000D02*
X121666000Y-131572000D01*
X114300000Y-110744000D02*
X116840000Y-108204000D01*
X121412000Y-116332000D02*
X121412000Y-117602000D01*
X122682000Y-115062000D02*
X121412000Y-116332000D01*
X122682000Y-108458000D02*
X122682000Y-115062000D01*
X122428000Y-108204000D02*
X122682000Y-108458000D01*
X119380000Y-108204000D02*
X122428000Y-108204000D01*
X116840000Y-108204000D02*
X119380000Y-108204000D01*
X115824000Y-133858000D02*
X115824000Y-136144000D01*
X115824000Y-136144000D02*
X116332000Y-136652000D01*
X129286000Y-123698000D02*
X128778000Y-123698000D01*
X128778000Y-123698000D02*
X123952000Y-118872000D01*
X123952000Y-118872000D02*
X123952000Y-117602000D01*
X124286000Y-135382000D02*
X123698000Y-135382000D01*
X123698000Y-135382000D02*
X121920000Y-137414000D01*
X117094000Y-137414000D02*
X116332000Y-136652000D01*
X121920000Y-137414000D02*
X117094000Y-137414000D01*
X129286000Y-123698000D02*
X129286000Y-135382000D01*
X129286000Y-135382000D02*
X124286000Y-135382000D01*
X116332000Y-136652000D02*
X116332000Y-136398000D01*
X116332000Y-136398000D02*
X114046000Y-135128000D01*
X114046000Y-118876000D02*
X115970000Y-117460000D01*
X114046000Y-135128000D02*
X114046000Y-118876000D01*
X123952000Y-117602000D02*
X123952000Y-117856000D01*
X98552000Y-129032000D02*
X98552000Y-122682000D01*
X94742000Y-118872000D02*
X90170000Y-118872000D01*
X98552000Y-122682000D02*
X94742000Y-118872000D01*
X98552000Y-129794000D02*
X98552000Y-132588000D01*
X98552000Y-132588000D02*
X98298000Y-132842000D01*
X98552000Y-129794000D02*
X98552000Y-129032000D01*
X63170000Y-106680000D02*
X67430000Y-106680000D01*
X69990000Y-109240000D02*
X69990000Y-116446000D01*
X67430000Y-106680000D02*
X69990000Y-109240000D01*
X69990000Y-116446000D02*
X69596000Y-116840000D01*
X69596000Y-116840000D02*
X69596000Y-117576000D01*
X69596000Y-117576000D02*
X70892000Y-118872000D01*
X69596000Y-116840000D02*
X69596000Y-117602000D01*
X55880000Y-106680000D02*
X54610000Y-107950000D01*
X63170000Y-106680000D02*
X55880000Y-106680000D01*
X90170000Y-118872000D02*
X70892000Y-118872000D01*
X75770000Y-105670000D02*
X75770000Y-106640000D01*
X108350000Y-107480000D02*
X108350000Y-117460000D01*
X103590000Y-102720000D02*
X108350000Y-107480000D01*
X90740000Y-102720000D02*
X103590000Y-102720000D01*
X88930000Y-104530000D02*
X90740000Y-102720000D01*
X88930000Y-105840000D02*
X88930000Y-104530000D01*
X87120000Y-107650000D02*
X88930000Y-105840000D01*
X76780000Y-107650000D02*
X87120000Y-107650000D01*
X75770000Y-106640000D02*
X76780000Y-107650000D01*
X75770000Y-105670000D02*
X74800000Y-105670000D01*
X74800000Y-105670000D02*
X71890000Y-102760000D01*
X54610000Y-102870000D02*
X55550000Y-102870000D01*
X69200000Y-102350000D02*
X71480000Y-102350000D01*
X68420000Y-101570000D02*
X69200000Y-102350000D01*
X56850000Y-101570000D02*
X68420000Y-101570000D01*
X55550000Y-102870000D02*
X56850000Y-101570000D01*
X71480000Y-102350000D02*
X71890000Y-102760000D01*
X54610000Y-102870000D02*
X54650000Y-102870000D01*
X114300000Y-103124000D02*
X111252000Y-103124000D01*
X114300000Y-103124000D02*
X114300000Y-102650000D01*
X114300000Y-102650000D02*
X115604000Y-101346000D01*
X114300000Y-103124000D02*
X114300000Y-102870000D01*
X122682000Y-102108000D02*
X122682000Y-103124000D01*
X115604000Y-101346000D02*
X121920000Y-101346000D01*
X121920000Y-101346000D02*
X122682000Y-102108000D01*
X122682000Y-103124000D02*
X122682000Y-104394000D01*
X122682000Y-104394000D02*
X124460000Y-106172000D01*
X124460000Y-106172000D02*
X125476000Y-107188000D01*
X125476000Y-108966000D02*
X126492000Y-109982000D01*
X125476000Y-107188000D02*
X125476000Y-108966000D01*
X54610000Y-105410000D02*
X55110000Y-105410000D01*
X131826000Y-65532000D02*
X131826000Y-62484000D01*
X131826000Y-62484000D02*
X132588000Y-61722000D01*
X128270000Y-61468000D02*
X132334000Y-61468000D01*
X132334000Y-61468000D02*
X132588000Y-61722000D01*
X130048000Y-68326000D02*
X131318000Y-68326000D01*
X135088000Y-62778000D02*
X135088000Y-61722000D01*
X133096000Y-64770000D02*
X135088000Y-62778000D01*
X133096000Y-66548000D02*
X133096000Y-64770000D01*
X131318000Y-68326000D02*
X133096000Y-66548000D01*
X138176000Y-61468000D02*
X135342000Y-61468000D01*
X135342000Y-61468000D02*
X135088000Y-61722000D01*
X135088000Y-61762000D02*
X135088000Y-61722000D01*
X134660000Y-79248000D02*
X134660000Y-78446000D01*
X136398000Y-71882000D02*
X137668000Y-71882000D01*
X135382000Y-72898000D02*
X136398000Y-71882000D01*
X135382000Y-77724000D02*
X135382000Y-72898000D01*
X134660000Y-78446000D02*
X135382000Y-77724000D01*
X138176000Y-69088000D02*
X138176000Y-71374000D01*
X138176000Y-71374000D02*
X137668000Y-71882000D01*
X126492000Y-75946000D02*
X123444000Y-75946000D01*
X133350000Y-75946000D02*
X130048000Y-75946000D01*
X130048000Y-75946000D02*
X126492000Y-75946000D01*
X123698000Y-76200000D02*
X123444000Y-75946000D01*
D32*
X128270000Y-58928000D02*
X130048000Y-58928000D01*
X130556000Y-54356000D02*
X133096000Y-51816000D01*
X130556000Y-58420000D02*
X130556000Y-54356000D01*
X130048000Y-58928000D02*
X130556000Y-58420000D01*
X133096000Y-51816000D02*
X134366000Y-51816000D01*
D31*
X124206000Y-65532000D02*
X124206000Y-66802000D01*
X123444000Y-67564000D02*
X123444000Y-68326000D01*
X124206000Y-66802000D02*
X123444000Y-67564000D01*
X124714000Y-61468000D02*
X124714000Y-65024000D01*
X124714000Y-65024000D02*
X124206000Y-65532000D01*
D32*
X128270000Y-56388000D02*
X124714000Y-56388000D01*
M02*
