%TF.GenerationSoftware,KiCad,Pcbnew,(6.0.11)*%
%TF.CreationDate,2023-03-05T13:43:02-06:00*%
%TF.ProjectId,RFBitBanger,52464269-7442-4616-9e67-65722e6b6963,rev?*%
%TF.SameCoordinates,Original*%
%TF.FileFunction,Soldermask,Bot*%
%TF.FilePolarity,Negative*%
%FSLAX46Y46*%
G04 Gerber Fmt 4.6, Leading zero omitted, Abs format (unit mm)*
G04 Created by KiCad (PCBNEW (6.0.11)) date 2023-03-05 13:43:02*
%MOMM*%
%LPD*%
G01*
G04 APERTURE LIST*
G04 Aperture macros list*
%AMRoundRect*
0 Rectangle with rounded corners*
0 $1 Rounding radius*
0 $2 $3 $4 $5 $6 $7 $8 $9 X,Y pos of 4 corners*
0 Add a 4 corners polygon primitive as box body*
4,1,4,$2,$3,$4,$5,$6,$7,$8,$9,$2,$3,0*
0 Add four circle primitives for the rounded corners*
1,1,$1+$1,$2,$3*
1,1,$1+$1,$4,$5*
1,1,$1+$1,$6,$7*
1,1,$1+$1,$8,$9*
0 Add four rect primitives between the rounded corners*
20,1,$1+$1,$2,$3,$4,$5,0*
20,1,$1+$1,$4,$5,$6,$7,0*
20,1,$1+$1,$6,$7,$8,$9,0*
20,1,$1+$1,$8,$9,$2,$3,0*%
G04 Aperture macros list end*
%ADD10C,2.000000*%
%ADD11RoundRect,0.200000X-0.800000X-0.800000X0.800000X-0.800000X0.800000X0.800000X-0.800000X0.800000X0*%
%ADD12RoundRect,0.200000X0.800000X-0.800000X0.800000X0.800000X-0.800000X0.800000X-0.800000X-0.800000X0*%
%ADD13RoundRect,0.200000X0.800000X0.800000X-0.800000X0.800000X-0.800000X-0.800000X0.800000X-0.800000X0*%
%ADD14RoundRect,0.200000X-0.800000X0.800000X-0.800000X-0.800000X0.800000X-0.800000X0.800000X0.800000X0*%
%ADD15RoundRect,0.200000X-1.100000X-1.100000X1.100000X-1.100000X1.100000X1.100000X-1.100000X1.100000X0*%
%ADD16O,2.600000X2.600000*%
%ADD17O,2.000000X2.000000*%
%ADD18RoundRect,0.200000X0.900000X0.900000X-0.900000X0.900000X-0.900000X-0.900000X0.900000X-0.900000X0*%
%ADD19C,2.200000*%
%ADD20RoundRect,0.200000X1.250000X-1.250000X1.250000X1.250000X-1.250000X1.250000X-1.250000X-1.250000X0*%
%ADD21O,2.900000X2.900000*%
%ADD22RoundRect,0.200000X1.500000X1.500000X-1.500000X1.500000X-1.500000X-1.500000X1.500000X-1.500000X0*%
%ADD23C,3.400000*%
%ADD24RoundRect,0.200000X-1.750000X1.750000X-1.750000X-1.750000X1.750000X-1.750000X1.750000X1.750000X0*%
%ADD25RoundRect,0.200000X-1.000000X1.750000X-1.000000X-1.750000X1.000000X-1.750000X1.000000X1.750000X0*%
%ADD26RoundRect,0.200000X0.850000X-0.850000X0.850000X0.850000X-0.850000X0.850000X-0.850000X-0.850000X0*%
%ADD27O,2.100000X2.100000*%
%ADD28RoundRect,0.200000X-1.500000X-1.500000X1.500000X-1.500000X1.500000X1.500000X-1.500000X1.500000X0*%
%ADD29RoundRect,0.200000X0.760000X0.760000X-0.760000X0.760000X-0.760000X-0.760000X0.760000X-0.760000X0*%
%ADD30C,1.920000*%
%ADD31RoundRect,0.200000X-0.760000X0.760000X-0.760000X-0.760000X0.760000X-0.760000X0.760000X0.760000X0*%
%ADD32RoundRect,0.200000X0.760000X-0.760000X0.760000X0.760000X-0.760000X0.760000X-0.760000X-0.760000X0*%
%ADD33RoundRect,0.200000X-0.760000X-0.760000X0.760000X-0.760000X0.760000X0.760000X-0.760000X0.760000X0*%
%ADD34C,2.400000*%
%ADD35RoundRect,0.200000X-0.900000X-0.900000X0.900000X-0.900000X0.900000X0.900000X-0.900000X0.900000X0*%
%ADD36O,2.200000X2.200000*%
%ADD37C,1.900000*%
%ADD38RoundRect,0.200000X0.850000X0.850000X-0.850000X0.850000X-0.850000X-0.850000X0.850000X-0.850000X0*%
%ADD39C,2.900000*%
%ADD40RoundRect,0.200000X-0.850000X-0.850000X0.850000X-0.850000X0.850000X0.850000X-0.850000X0.850000X0*%
%ADD41C,2.500000*%
%ADD42RoundRect,0.200000X1.500000X-1.500000X1.500000X1.500000X-1.500000X1.500000X-1.500000X-1.500000X0*%
%ADD43C,1.924000*%
%ADD44RoundRect,0.200000X-0.900000X0.900000X-0.900000X-0.900000X0.900000X-0.900000X0.900000X0.900000X0*%
%ADD45RoundRect,0.200000X-0.850000X0.850000X-0.850000X-0.850000X0.850000X-0.850000X0.850000X0.850000X0*%
%ADD46O,2.400000X3.900000*%
%ADD47O,4.400000X2.400000*%
%ADD48C,3.448000*%
%ADD49C,1.840000*%
%ADD50C,5.400000*%
%ADD51RoundRect,0.200000X1.100000X1.100000X-1.100000X1.100000X-1.100000X-1.100000X1.100000X-1.100000X0*%
G04 APERTURE END LIST*
D10*
%TO.C,C26*%
X176080000Y-120620000D03*
X171080000Y-120620000D03*
%TD*%
%TO.C,C32*%
X176560000Y-95330000D03*
X171560000Y-95330000D03*
%TD*%
%TO.C,C1*%
X89570000Y-97680000D03*
X89570000Y-100180000D03*
%TD*%
%TO.C,C2*%
X75185000Y-67215000D03*
X75185000Y-69715000D03*
%TD*%
%TO.C,C4*%
X69170000Y-86730000D03*
X69170000Y-91730000D03*
%TD*%
%TO.C,C5*%
X65880000Y-86730000D03*
X65880000Y-91730000D03*
%TD*%
D11*
%TO.C,C6*%
X89795000Y-73985000D03*
D10*
X92295000Y-73985000D03*
%TD*%
%TO.C,C8*%
X65045000Y-94405000D03*
X70045000Y-94405000D03*
%TD*%
%TO.C,C9*%
X65085000Y-98065000D03*
X70085000Y-98065000D03*
%TD*%
%TO.C,C10*%
X69430000Y-122690000D03*
X71930000Y-122690000D03*
%TD*%
%TO.C,C11*%
X62400000Y-122550000D03*
X64900000Y-122550000D03*
%TD*%
D12*
%TO.C,C12*%
X110890000Y-83960000D03*
D10*
X110890000Y-81460000D03*
%TD*%
%TO.C,C13*%
X112320000Y-87280000D03*
X109820000Y-87280000D03*
%TD*%
D13*
%TO.C,C15*%
X75120000Y-131650000D03*
D10*
X72620000Y-131650000D03*
%TD*%
%TO.C,C16*%
X56630000Y-132600000D03*
X59130000Y-132600000D03*
%TD*%
%TO.C,C17*%
X50930000Y-132660000D03*
X53430000Y-132660000D03*
%TD*%
D14*
%TO.C,C19*%
X62280000Y-138550000D03*
D10*
X62280000Y-141050000D03*
%TD*%
%TO.C,C20*%
X160770000Y-89660000D03*
X160770000Y-92160000D03*
%TD*%
%TO.C,C21*%
X127265000Y-68645000D03*
X122265000Y-68645000D03*
%TD*%
%TO.C,C22*%
X136370000Y-71530000D03*
X136370000Y-76530000D03*
%TD*%
%TO.C,C25*%
X114080000Y-133300000D03*
X114080000Y-135800000D03*
%TD*%
%TO.C,C33*%
X84430000Y-114200000D03*
X81930000Y-114200000D03*
%TD*%
%TO.C,C34*%
X93500000Y-136060000D03*
X96000000Y-136060000D03*
%TD*%
%TO.C,C35*%
X113230000Y-125650000D03*
X113230000Y-130650000D03*
%TD*%
D15*
%TO.C,D1*%
X53280000Y-78380000D03*
D16*
X60900000Y-78380000D03*
%TD*%
D13*
%TO.C,D2*%
X89860000Y-66410000D03*
D17*
X82240000Y-66410000D03*
%TD*%
D18*
%TO.C,D3*%
X137410000Y-137630000D03*
D19*
X134870000Y-137630000D03*
%TD*%
D20*
%TO.C,D4*%
X133500000Y-90530000D03*
D21*
X133500000Y-82910000D03*
%TD*%
D20*
%TO.C,D5*%
X137000000Y-90550000D03*
D21*
X137000000Y-82930000D03*
%TD*%
D22*
%TO.C,J1*%
X68195000Y-61835000D03*
D23*
X63115000Y-61835000D03*
%TD*%
D24*
%TO.C,J2*%
X54955000Y-67305000D03*
X54955000Y-61305000D03*
D25*
X50255000Y-64305000D03*
%TD*%
D26*
%TO.C,J5*%
X66500000Y-76500000D03*
D27*
X69040000Y-76500000D03*
X71580000Y-76500000D03*
X74120000Y-76500000D03*
%TD*%
D28*
%TO.C,J11*%
X69800000Y-139350000D03*
D23*
X74880000Y-139350000D03*
%TD*%
D10*
%TO.C,L1*%
X65560000Y-83520000D03*
D17*
X75720000Y-83520000D03*
%TD*%
D10*
%TO.C,L2*%
X65575000Y-80155000D03*
D17*
X75735000Y-80155000D03*
%TD*%
D10*
%TO.C,L3*%
X105140000Y-85860000D03*
D17*
X94980000Y-85860000D03*
%TD*%
D10*
%TO.C,L9*%
X99210000Y-98960000D03*
D17*
X99210000Y-88800000D03*
%TD*%
D29*
%TO.C,Q1*%
X141500000Y-136300000D03*
D30*
X141500000Y-133760000D03*
X141500000Y-131220000D03*
%TD*%
D31*
%TO.C,Q2*%
X123490000Y-72390000D03*
D30*
X120950000Y-72390000D03*
X118410000Y-72390000D03*
%TD*%
D32*
%TO.C,Q3*%
X170350000Y-75630000D03*
D30*
X172890000Y-75630000D03*
X175430000Y-75630000D03*
%TD*%
D33*
%TO.C,Q4*%
X96640000Y-116330000D03*
D30*
X96640000Y-118870000D03*
X96640000Y-121410000D03*
%TD*%
D34*
%TO.C,SW1*%
X85325000Y-69115000D03*
X78825000Y-69115000D03*
X85325000Y-73615000D03*
X78825000Y-73615000D03*
%TD*%
%TO.C,SW2*%
X75245000Y-119575000D03*
X75245000Y-113075000D03*
X70745000Y-119575000D03*
X70745000Y-113075000D03*
%TD*%
%TO.C,SW3*%
X58825000Y-119315000D03*
X58825000Y-112815000D03*
X54325000Y-112815000D03*
X54325000Y-119315000D03*
%TD*%
%TO.C,SW4*%
X58945000Y-122985000D03*
X58945000Y-129485000D03*
X54445000Y-129485000D03*
X54445000Y-122985000D03*
%TD*%
%TO.C,SW5*%
X66865000Y-119425000D03*
X66865000Y-112925000D03*
X62365000Y-119425000D03*
X62365000Y-112925000D03*
%TD*%
D35*
%TO.C,U2*%
X83670000Y-59660000D03*
D36*
X86210000Y-59660000D03*
X88750000Y-59660000D03*
%TD*%
D37*
%TO.C,Y1*%
X74045000Y-91985000D03*
X74045000Y-96865000D03*
%TD*%
%TO.C,Y2*%
X117420000Y-78870000D03*
X117420000Y-83750000D03*
%TD*%
D11*
%TO.C,U1*%
X78675000Y-77165000D03*
D17*
X78675000Y-79705000D03*
X78675000Y-82245000D03*
X78675000Y-84785000D03*
X78675000Y-87325000D03*
X78675000Y-89865000D03*
X78675000Y-92405000D03*
X78675000Y-94945000D03*
X78675000Y-97485000D03*
X78675000Y-100025000D03*
X78675000Y-102565000D03*
X78675000Y-105105000D03*
X78675000Y-107645000D03*
X78675000Y-110185000D03*
X86295000Y-110185000D03*
X86295000Y-107645000D03*
X86295000Y-105105000D03*
X86295000Y-102565000D03*
X86295000Y-100025000D03*
X86295000Y-97485000D03*
X86295000Y-94945000D03*
X86295000Y-92405000D03*
X86295000Y-89865000D03*
X86295000Y-87325000D03*
X86295000Y-84785000D03*
X86295000Y-82245000D03*
X86295000Y-79705000D03*
X86295000Y-77165000D03*
%TD*%
D38*
%TO.C,J9*%
X96360000Y-108020000D03*
D27*
X93820000Y-108020000D03*
X96360000Y-105480000D03*
X93820000Y-105480000D03*
X96360000Y-102940000D03*
X93820000Y-102940000D03*
%TD*%
D10*
%TO.C,C37*%
X81450000Y-134840000D03*
X83950000Y-134840000D03*
%TD*%
D13*
%TO.C,U3*%
X86300000Y-131700000D03*
D17*
X86300000Y-129160000D03*
X86300000Y-126620000D03*
X86300000Y-124080000D03*
X78680000Y-124080000D03*
X78680000Y-126620000D03*
X78680000Y-129160000D03*
X78680000Y-131700000D03*
%TD*%
D13*
%TO.C,U4*%
X124300000Y-127650000D03*
D17*
X124300000Y-125110000D03*
X124300000Y-122570000D03*
X124300000Y-120030000D03*
X116680000Y-120030000D03*
X116680000Y-122570000D03*
X116680000Y-125110000D03*
X116680000Y-127650000D03*
%TD*%
D31*
%TO.C,Q5*%
X185340000Y-90830000D03*
D30*
X182800000Y-90830000D03*
X180260000Y-90830000D03*
%TD*%
D31*
%TO.C,Q6*%
X175560000Y-90680000D03*
D30*
X173020000Y-90680000D03*
X170480000Y-90680000D03*
%TD*%
D32*
%TO.C,Q7*%
X179960000Y-75520000D03*
D30*
X182500000Y-75520000D03*
X185040000Y-75520000D03*
%TD*%
D14*
%TO.C,C14*%
X157360000Y-67480000D03*
D10*
X157360000Y-69980000D03*
%TD*%
D39*
%TO.C,RV3*%
X57000000Y-88250000D03*
X59500000Y-83210000D03*
X62000000Y-88250000D03*
%TD*%
D10*
%TO.C,C42*%
X50010000Y-75210000D03*
X50010000Y-77710000D03*
%TD*%
D38*
%TO.C,JP3*%
X101610000Y-108200000D03*
D27*
X101610000Y-105660000D03*
%TD*%
D10*
%TO.C,R1*%
X89880000Y-63400000D03*
D17*
X82260000Y-63400000D03*
%TD*%
D10*
%TO.C,R2*%
X52020000Y-98940000D03*
D17*
X59640000Y-98940000D03*
%TD*%
D10*
%TO.C,R3*%
X65465000Y-109385000D03*
D17*
X65465000Y-101765000D03*
%TD*%
D10*
%TO.C,R4*%
X116860000Y-135600000D03*
D17*
X124480000Y-135600000D03*
%TD*%
D10*
%TO.C,R6*%
X75215000Y-109415000D03*
D17*
X75215000Y-101795000D03*
%TD*%
D10*
%TO.C,R7*%
X95610000Y-89600000D03*
D17*
X95610000Y-97220000D03*
%TD*%
D10*
%TO.C,R8*%
X148530000Y-66020000D03*
D17*
X140910000Y-66020000D03*
%TD*%
D10*
%TO.C,R9*%
X115710000Y-89080000D03*
D17*
X123330000Y-89080000D03*
%TD*%
D10*
%TO.C,R11*%
X63060000Y-133350000D03*
D17*
X63060000Y-125730000D03*
%TD*%
D10*
%TO.C,R12*%
X62165000Y-109355000D03*
D17*
X62165000Y-101735000D03*
%TD*%
D10*
%TO.C,R13*%
X55495000Y-109345000D03*
D17*
X55495000Y-101725000D03*
%TD*%
D10*
%TO.C,R14*%
X151260000Y-69090000D03*
D17*
X151260000Y-61470000D03*
%TD*%
D10*
%TO.C,R15*%
X112930000Y-78400000D03*
D17*
X112930000Y-70780000D03*
%TD*%
D10*
%TO.C,R16*%
X111980000Y-68060000D03*
D17*
X119600000Y-68060000D03*
%TD*%
D10*
%TO.C,R17*%
X133530000Y-72250000D03*
D17*
X125910000Y-72250000D03*
%TD*%
D10*
%TO.C,R18*%
X124500000Y-113130000D03*
D17*
X116880000Y-113130000D03*
%TD*%
D10*
%TO.C,R19*%
X114530000Y-114130000D03*
D17*
X106910000Y-114130000D03*
%TD*%
D10*
%TO.C,R20*%
X147690000Y-92760000D03*
D17*
X147690000Y-85140000D03*
%TD*%
D10*
%TO.C,R21*%
X153770000Y-137580000D03*
D17*
X153770000Y-129960000D03*
%TD*%
D10*
%TO.C,R23*%
X109840000Y-127140000D03*
D17*
X109840000Y-134760000D03*
%TD*%
D10*
%TO.C,R26*%
X110570000Y-124240000D03*
D17*
X102950000Y-124240000D03*
%TD*%
D10*
%TO.C,R27*%
X106510000Y-127150000D03*
D17*
X106510000Y-134770000D03*
%TD*%
D10*
%TO.C,R29*%
X71955000Y-109365000D03*
D17*
X71955000Y-101745000D03*
%TD*%
D10*
%TO.C,R30*%
X86530000Y-117460000D03*
D17*
X78910000Y-117460000D03*
%TD*%
D10*
%TO.C,R31*%
X90220000Y-128320000D03*
D17*
X90220000Y-135940000D03*
%TD*%
D10*
%TO.C,R32*%
X100090000Y-133350000D03*
D17*
X100090000Y-125730000D03*
%TD*%
D10*
%TO.C,R33*%
X68675000Y-109385000D03*
D17*
X68675000Y-101765000D03*
%TD*%
D10*
%TO.C,R34*%
X96740000Y-125690000D03*
D17*
X96740000Y-133310000D03*
%TD*%
D10*
%TO.C,R36*%
X103270000Y-127100000D03*
D17*
X103270000Y-134720000D03*
%TD*%
D10*
%TO.C,R37*%
X94160000Y-141010000D03*
D17*
X101780000Y-141010000D03*
%TD*%
D10*
%TO.C,R46*%
X52275000Y-109325000D03*
D17*
X52275000Y-101705000D03*
%TD*%
D10*
%TO.C,R47*%
X58825000Y-109345000D03*
D17*
X58825000Y-101725000D03*
%TD*%
D10*
%TO.C,R24*%
X93020000Y-115380000D03*
D17*
X93020000Y-123000000D03*
%TD*%
D10*
%TO.C,C44*%
X68585000Y-70295000D03*
X66085000Y-70295000D03*
%TD*%
D40*
%TO.C,JP4*%
X169660000Y-126990000D03*
D27*
X169660000Y-129530000D03*
%TD*%
D10*
%TO.C,C47*%
X120010000Y-99770000D03*
X117510000Y-99770000D03*
%TD*%
D13*
%TO.C,D10*%
X114440000Y-102370000D03*
D17*
X106820000Y-102370000D03*
%TD*%
D13*
%TO.C,D14*%
X114530000Y-105110000D03*
D17*
X106910000Y-105110000D03*
%TD*%
D38*
%TO.C,JP5*%
X140475000Y-91525000D03*
D27*
X140475000Y-88985000D03*
X140475000Y-86445000D03*
%TD*%
D10*
%TO.C,R35*%
X106600000Y-96850000D03*
D17*
X106600000Y-89230000D03*
%TD*%
D10*
%TO.C,R48*%
X103440000Y-96850000D03*
D17*
X103440000Y-89230000D03*
%TD*%
D10*
%TO.C,R49*%
X125120000Y-94680000D03*
D17*
X132740000Y-94680000D03*
%TD*%
D10*
%TO.C,R50*%
X125200000Y-97920000D03*
D17*
X132820000Y-97920000D03*
%TD*%
D37*
%TO.C,Y3*%
X111060000Y-92480000D03*
X111060000Y-97360000D03*
%TD*%
D41*
%TO.C,J12*%
X187025000Y-134505000D03*
X187025000Y-124345000D03*
D37*
X181945000Y-129425000D03*
D42*
X184673000Y-131711000D03*
D37*
X181945000Y-126885000D03*
D23*
X184673000Y-126631000D03*
%TD*%
D19*
%TO.C,RLY1*%
X187775000Y-98845000D03*
X187775000Y-106465000D03*
X187775000Y-111545000D03*
X187775000Y-116625000D03*
X180175000Y-98845000D03*
X180175000Y-106465000D03*
X180175000Y-111545000D03*
X180175000Y-116625000D03*
%TD*%
D10*
%TO.C,C30*%
X140130000Y-106640000D03*
X142630000Y-106640000D03*
%TD*%
D14*
%TO.C,D9*%
X158450000Y-105625000D03*
D17*
X158450000Y-113245000D03*
%TD*%
D11*
%TO.C,D11*%
X148325000Y-105800000D03*
D17*
X155945000Y-105800000D03*
%TD*%
D13*
%TO.C,D12*%
X158800000Y-115775000D03*
D17*
X151180000Y-115775000D03*
%TD*%
D12*
%TO.C,D13*%
X148675000Y-116050000D03*
D17*
X148675000Y-108430000D03*
%TD*%
D10*
%TO.C,R5*%
X140470000Y-109350000D03*
D17*
X140470000Y-116970000D03*
%TD*%
D10*
%TO.C,R22*%
X145740000Y-141600000D03*
D17*
X153360000Y-141600000D03*
%TD*%
D10*
%TO.C,R25*%
X170920000Y-105050000D03*
D17*
X170920000Y-112670000D03*
%TD*%
D12*
%TO.C,C36*%
X169875000Y-69455000D03*
D10*
X169875000Y-66955000D03*
%TD*%
D32*
%TO.C,Q8*%
X143530000Y-70490000D03*
D30*
X146070000Y-70490000D03*
X148610000Y-70490000D03*
%TD*%
D10*
%TO.C,R38*%
X167585000Y-59145000D03*
D17*
X175205000Y-59145000D03*
%TD*%
D10*
%TO.C,R39*%
X180435000Y-69295000D03*
D17*
X188055000Y-69295000D03*
%TD*%
D40*
%TO.C,JP1*%
X165265000Y-66695000D03*
D27*
X165265000Y-69235000D03*
%TD*%
D14*
%TO.C,C39*%
X105990000Y-137650000D03*
D10*
X105990000Y-140150000D03*
%TD*%
D14*
%TO.C,C40*%
X108850000Y-118040000D03*
D10*
X108850000Y-120540000D03*
%TD*%
D40*
%TO.C,JP2*%
X173430000Y-126910000D03*
D27*
X173430000Y-129450000D03*
%TD*%
D43*
%TO.C,T3*%
X174000000Y-139700000D03*
X181620000Y-139700000D03*
X177873500Y-142494000D03*
X177873500Y-136906000D03*
%TD*%
D44*
%TO.C,D16*%
X177810000Y-130820000D03*
D19*
X177810000Y-133360000D03*
%TD*%
D10*
%TO.C,R28*%
X174230000Y-134840000D03*
D17*
X166610000Y-134840000D03*
%TD*%
D13*
%TO.C,D17*%
X154960000Y-82730000D03*
D17*
X147340000Y-82730000D03*
%TD*%
D31*
%TO.C,Q9*%
X165240000Y-95940000D03*
D30*
X162700000Y-95940000D03*
X160160000Y-95940000D03*
%TD*%
D10*
%TO.C,C46*%
X109440000Y-73480000D03*
X109440000Y-75980000D03*
%TD*%
%TO.C,R51*%
X164440000Y-92580000D03*
D17*
X164440000Y-84960000D03*
%TD*%
D10*
%TO.C,R52*%
X150960000Y-85130000D03*
D17*
X150960000Y-92750000D03*
%TD*%
D10*
%TO.C,C24*%
X157780000Y-73340000D03*
X157780000Y-75840000D03*
%TD*%
%TO.C,R53*%
X154260000Y-85130000D03*
D17*
X154260000Y-92750000D03*
%TD*%
D12*
%TO.C,C49*%
X147630000Y-138140000D03*
D10*
X147630000Y-135640000D03*
%TD*%
D11*
%TO.C,C50*%
X140400000Y-140200000D03*
D10*
X142900000Y-140200000D03*
%TD*%
%TO.C,C51*%
X144420000Y-88230000D03*
X144420000Y-90730000D03*
%TD*%
D14*
%TO.C,C52*%
X134990000Y-123330000D03*
D10*
X134990000Y-125830000D03*
%TD*%
%TO.C,C54*%
X128930000Y-125500000D03*
X128930000Y-123000000D03*
%TD*%
%TO.C,C55*%
X133080000Y-102340000D03*
X130580000Y-102340000D03*
%TD*%
%TO.C,C56*%
X144370000Y-82530000D03*
X144370000Y-85030000D03*
%TD*%
D45*
%TO.C,JP7*%
X176560000Y-116780000D03*
D27*
X174020000Y-116780000D03*
X171480000Y-116780000D03*
%TD*%
D10*
%TO.C,L5*%
X148500000Y-122540000D03*
D17*
X148500000Y-132700000D03*
%TD*%
D31*
%TO.C,Q10*%
X135300000Y-106675000D03*
D30*
X132760000Y-106675000D03*
X130220000Y-106675000D03*
%TD*%
D29*
%TO.C,Q11*%
X140800000Y-127800000D03*
D30*
X140800000Y-125260000D03*
X140800000Y-122720000D03*
%TD*%
D32*
%TO.C,Q12*%
X133550000Y-67310000D03*
D30*
X136090000Y-67310000D03*
X138630000Y-67310000D03*
%TD*%
D29*
%TO.C,Q13*%
X176995000Y-70155000D03*
D30*
X176995000Y-67615000D03*
X176995000Y-65075000D03*
%TD*%
D10*
%TO.C,R54*%
X143000000Y-102500000D03*
D17*
X143000000Y-94880000D03*
%TD*%
D10*
%TO.C,R55*%
X127460000Y-106870000D03*
D17*
X127460000Y-114490000D03*
%TD*%
D10*
%TO.C,R56*%
X137730000Y-115670000D03*
D17*
X130110000Y-115670000D03*
%TD*%
D10*
%TO.C,R57*%
X145120000Y-123330000D03*
D17*
X145120000Y-130950000D03*
%TD*%
D10*
%TO.C,R58*%
X129190000Y-132440000D03*
D17*
X136810000Y-132440000D03*
%TD*%
D10*
%TO.C,R59*%
X130070000Y-112320000D03*
D17*
X137690000Y-112320000D03*
%TD*%
D10*
%TO.C,R60*%
X136820000Y-129170000D03*
D17*
X129200000Y-129170000D03*
%TD*%
D10*
%TO.C,R61*%
X128440000Y-119670000D03*
D17*
X136060000Y-119670000D03*
%TD*%
D10*
%TO.C,R62*%
X116575000Y-116600000D03*
D17*
X124195000Y-116600000D03*
%TD*%
D10*
%TO.C,R63*%
X124570000Y-132100000D03*
D17*
X116950000Y-132100000D03*
%TD*%
D10*
%TO.C,R65*%
X121920000Y-64370000D03*
D17*
X114300000Y-64370000D03*
%TD*%
D10*
%TO.C,R66*%
X157580000Y-91090000D03*
D17*
X157580000Y-98710000D03*
%TD*%
D10*
%TO.C,R67*%
X147330000Y-79800000D03*
D17*
X154950000Y-79800000D03*
%TD*%
D10*
%TO.C,R68*%
X140455000Y-81645000D03*
D17*
X140455000Y-74025000D03*
%TD*%
D37*
%TO.C,Y4*%
X123250000Y-78830000D03*
X123250000Y-83710000D03*
%TD*%
D13*
%TO.C,P1*%
X99075000Y-66075000D03*
D10*
X101675000Y-66075000D03*
X96975000Y-66075000D03*
X103775000Y-66075000D03*
X96975000Y-68875000D03*
X103775000Y-68875000D03*
D46*
X93525000Y-63225000D03*
X107225000Y-63225000D03*
D47*
X100375000Y-62425000D03*
%TD*%
D10*
%TO.C,R64*%
X95570000Y-72240000D03*
D17*
X95570000Y-79860000D03*
%TD*%
D10*
%TO.C,R70*%
X99300000Y-79840000D03*
D17*
X99300000Y-72220000D03*
%TD*%
D10*
%TO.C,C43*%
X156930000Y-131410000D03*
X156930000Y-136410000D03*
%TD*%
D48*
%TO.C,J8*%
X153000000Y-74500000D03*
%TD*%
%TO.C,J13*%
X177600000Y-83200000D03*
%TD*%
D44*
%TO.C,D19*%
X136260000Y-60290000D03*
D19*
X136260000Y-62830000D03*
%TD*%
D10*
%TO.C,R71*%
X161740000Y-62140000D03*
D17*
X154120000Y-62140000D03*
%TD*%
D29*
%TO.C,Q14*%
X50720000Y-129920000D03*
D30*
X50720000Y-127380000D03*
X50720000Y-124840000D03*
%TD*%
D10*
%TO.C,R72*%
X51165000Y-120055000D03*
D17*
X51165000Y-112435000D03*
%TD*%
D10*
%TO.C,C38*%
X166835000Y-63005000D03*
X169335000Y-63005000D03*
%TD*%
%TO.C,R73*%
X161810000Y-67930000D03*
D17*
X161810000Y-75550000D03*
%TD*%
D49*
%TO.C,RV4*%
X113320000Y-59680000D03*
X115860000Y-59680000D03*
X118400000Y-59680000D03*
%TD*%
D10*
%TO.C,R74*%
X167640000Y-77110000D03*
D17*
X167640000Y-84730000D03*
%TD*%
D10*
%TO.C,L11*%
X164290000Y-58870000D03*
D17*
X154130000Y-58870000D03*
%TD*%
D50*
%TO.C,J3*%
X45500000Y-60500000D03*
%TD*%
%TO.C,J4*%
X185500000Y-60500000D03*
%TD*%
%TO.C,J6*%
X185500000Y-140500000D03*
%TD*%
%TO.C,J7*%
X45500000Y-140500000D03*
%TD*%
D10*
%TO.C,C41*%
X66370000Y-129190000D03*
X66370000Y-134190000D03*
%TD*%
%TO.C,C58*%
X63985000Y-67305000D03*
X61485000Y-67305000D03*
%TD*%
D37*
%TO.C,T4*%
X53690000Y-72230000D03*
X61310000Y-72230000D03*
X53690000Y-74770000D03*
X61310000Y-74770000D03*
%TD*%
%TO.C,Y5*%
X128890000Y-78910000D03*
X128890000Y-83790000D03*
%TD*%
D10*
%TO.C,C27*%
X151940000Y-127560000D03*
X151940000Y-122560000D03*
%TD*%
D51*
%TO.C,D6*%
X186880000Y-95330000D03*
D16*
X179260000Y-95330000D03*
%TD*%
D10*
%TO.C,C59*%
X75710000Y-87050000D03*
X73210000Y-87050000D03*
%TD*%
%TO.C,R76*%
X89730000Y-118300000D03*
D17*
X89730000Y-110680000D03*
%TD*%
D10*
%TO.C,R41*%
X173990000Y-101600000D03*
D17*
X161290000Y-101600000D03*
%TD*%
D10*
%TO.C,C7*%
X89725000Y-82825000D03*
X89725000Y-87825000D03*
%TD*%
%TO.C,L10*%
X76000000Y-126490000D03*
D17*
X65840000Y-126490000D03*
%TD*%
D40*
%TO.C,J14*%
X104220000Y-116960000D03*
%TD*%
%TO.C,J15*%
X155710000Y-126800000D03*
%TD*%
%TO.C,J16*%
X179900000Y-58900000D03*
%TD*%
D13*
%TO.C,C3*%
X77530000Y-61230000D03*
D10*
X74030000Y-61230000D03*
%TD*%
D43*
%TO.C,L4*%
X103035000Y-78340000D03*
X106845000Y-78340000D03*
%TD*%
%TO.C,L6*%
X157525000Y-82900000D03*
X161335000Y-82900000D03*
%TD*%
D37*
%TO.C,T1*%
X154545000Y-96565000D03*
X146925000Y-96565000D03*
X154545000Y-99105000D03*
X146925000Y-99105000D03*
X154545000Y-101645000D03*
X146925000Y-101645000D03*
%TD*%
%TO.C,T2*%
X167560000Y-113580000D03*
X167560000Y-105960000D03*
X165020000Y-113580000D03*
X165020000Y-105960000D03*
X162480000Y-113580000D03*
X162480000Y-105960000D03*
%TD*%
D44*
%TO.C,Q15*%
X187210000Y-80770000D03*
D36*
X187210000Y-83310000D03*
X187210000Y-85850000D03*
%TD*%
D10*
%TO.C,C57*%
X89510000Y-94510000D03*
X89510000Y-92010000D03*
%TD*%
%TO.C,C45*%
X113580000Y-117380000D03*
X113580000Y-122380000D03*
%TD*%
%TO.C,C18*%
X100950000Y-121330000D03*
X100950000Y-116330000D03*
%TD*%
%TO.C,C60*%
X93460000Y-133270000D03*
X93460000Y-128270000D03*
%TD*%
%TO.C,R10*%
X78870000Y-120780000D03*
D17*
X86490000Y-120780000D03*
%TD*%
D26*
%TO.C,JP8*%
X133660000Y-79450000D03*
D27*
X136200000Y-79450000D03*
%TD*%
D50*
%TO.C,J20*%
X128500000Y-60500000D03*
%TD*%
%TO.C,J21*%
X128500000Y-140500000D03*
%TD*%
D11*
%TO.C,D15*%
X172975000Y-62105000D03*
D17*
X180595000Y-62105000D03*
%TD*%
D11*
%TO.C,D18*%
X140170000Y-61850000D03*
D17*
X147790000Y-61850000D03*
%TD*%
D19*
%TO.C,RV1*%
X88160000Y-143190000D03*
D39*
X90660000Y-140190000D03*
D19*
X85660000Y-143190000D03*
D39*
X85660000Y-140190000D03*
D19*
X83160000Y-143190000D03*
D39*
X80660000Y-140190000D03*
%TD*%
%TO.C,RV2*%
X121660000Y-139840000D03*
D19*
X119160000Y-142840000D03*
D39*
X116660000Y-139840000D03*
D19*
X116660000Y-142840000D03*
X114160000Y-142840000D03*
D39*
X111660000Y-139840000D03*
%TD*%
D40*
%TO.C,U5*%
X46500000Y-72500000D03*
D27*
X46500000Y-75040000D03*
X46500000Y-77580000D03*
X46500000Y-80120000D03*
X46500000Y-82660000D03*
X46500000Y-85200000D03*
X46500000Y-87740000D03*
X46500000Y-90280000D03*
X46500000Y-92820000D03*
X46500000Y-95360000D03*
X46500000Y-97900000D03*
X46500000Y-100440000D03*
X46500000Y-102980000D03*
X46500000Y-105520000D03*
X46500000Y-108060000D03*
X46500000Y-110600000D03*
X46500000Y-113140000D03*
X46500000Y-115680000D03*
X46500000Y-118220000D03*
X46500000Y-120760000D03*
%TD*%
D10*
%TO.C,C48*%
X125600000Y-89060000D03*
X130600000Y-89060000D03*
%TD*%
D15*
%TO.C,D8*%
X180605000Y-65885000D03*
D16*
X188225000Y-65885000D03*
%TD*%
D45*
%TO.C,J10*%
X123380000Y-108630000D03*
D27*
X120840000Y-108630000D03*
X118300000Y-108630000D03*
X115760000Y-108630000D03*
X113220000Y-108630000D03*
X110680000Y-108630000D03*
X108140000Y-108630000D03*
%TD*%
D10*
%TO.C,C61*%
X49840000Y-95260000D03*
X49840000Y-92760000D03*
%TD*%
%TO.C,R40*%
X50490000Y-88990000D03*
D17*
X50490000Y-81370000D03*
%TD*%
D10*
%TO.C,R75*%
X62480000Y-91600000D03*
D17*
X62480000Y-99220000D03*
%TD*%
D34*
%TO.C,SW6*%
X52910000Y-91460000D03*
X59410000Y-91460000D03*
X59410000Y-95960000D03*
X52910000Y-95960000D03*
%TD*%
D12*
%TO.C,C53*%
X53560000Y-141770000D03*
D10*
X53560000Y-138270000D03*
%TD*%
D40*
%TO.C,J19*%
X43960000Y-72500000D03*
D27*
X43960000Y-75040000D03*
X43960000Y-77580000D03*
X43960000Y-80120000D03*
X43960000Y-82660000D03*
X43960000Y-85200000D03*
X43960000Y-87740000D03*
X43960000Y-90280000D03*
X43960000Y-92820000D03*
X43960000Y-95360000D03*
X43960000Y-97900000D03*
X43960000Y-100440000D03*
X43960000Y-102980000D03*
X43960000Y-105520000D03*
X43960000Y-108060000D03*
X43960000Y-110600000D03*
X43960000Y-113140000D03*
X43960000Y-115680000D03*
X43960000Y-118220000D03*
X43960000Y-120760000D03*
%TD*%
D26*
%TO.C,J17*%
X157480000Y-120650000D03*
D27*
X160020000Y-120650000D03*
X162560000Y-120650000D03*
X165100000Y-120650000D03*
%TD*%
D26*
%TO.C,J18*%
X157480000Y-140970000D03*
D27*
X160020000Y-140970000D03*
X162560000Y-140970000D03*
X165100000Y-140970000D03*
%TD*%
D10*
%TO.C,C23*%
X164400000Y-82680000D03*
X164400000Y-77680000D03*
%TD*%
M02*
