M48
;DRILL file {KiCad 4.0.7} date 10/14/21 22:50:22
;FORMAT={-:-/ absolute / inch / decimal}
FMAT,2
INCH,TZ
T1C0.016
T2C0.031
T3C0.035
T4C0.039
T5C0.043
T6C0.047
T7C0.060
%
G90
G05
M72
T1
X2.0209Y-4.5902
X2.0701Y-4.6169
X2.7685Y-4.1161
X2.776Y-4.1567
X3.322Y-4.1728
X3.3878Y-4.2134
X3.53Y-4.25
X3.56Y-4.21
X3.7Y-4.1
T2
X1.6394Y-4.9906
X1.689Y-5.1299
X1.6957Y-2.874
X1.7016Y-2.9894
X1.7024Y-3.4799
X1.7024Y-3.7799
X1.7055Y-4.4024
X1.7079Y-4.2701
X1.7874Y-5.1299
X1.7941Y-2.874
X1.8Y-2.9894
X1.8039Y-4.4024
X1.8063Y-4.2701
X1.8272Y-3.4815
X1.8272Y-3.7815
X1.9394Y-4.9906
X2.0012Y-2.8531
X2.05Y-2.4516
X2.05Y-2.55
X2.14Y-4.79
X2.15Y-3.25
X2.15Y-3.35
X2.15Y-3.45
X2.15Y-3.55
X2.15Y-3.65
X2.15Y-3.75
X2.15Y-3.85
X2.15Y-3.95
X2.15Y-4.05
X2.15Y-4.15
X2.15Y-4.25
X2.15Y-4.35
X2.15Y-4.45
X2.15Y-4.55
X2.1602Y-4.8906
X2.1602Y-5.1138
X2.1626Y-5.0016
X2.25Y-2.1
X2.3012Y-2.8531
X2.3484Y-2.1
X2.44Y-4.79
X2.45Y-3.25
X2.45Y-3.35
X2.45Y-3.45
X2.45Y-3.55
X2.45Y-3.65
X2.45Y-3.75
X2.45Y-3.85
X2.45Y-3.95
X2.45Y-4.05
X2.45Y-4.15
X2.45Y-4.25
X2.45Y-4.35
X2.45Y-4.45
X2.45Y-4.55
X2.4602Y-4.8906
X2.4602Y-5.1138
X2.4626Y-5.0016
X2.5409Y-1.9425
X2.55Y-2.1
X2.5921Y-4.7024
X2.5992Y-3.9398
X2.6161Y-4.0799
X2.6484Y-2.1
X2.6524Y-4.4567
X2.6898Y-4.5831
X2.69Y-4.3
X2.6976Y-3.9398
X2.6984Y-3.1382
X2.7Y-3.2669
X2.7083Y-2.4244
X2.7083Y-2.5244
X2.7083Y-2.6244
X2.7083Y-2.7244
X2.71Y-3.5479
X2.71Y-3.74
X2.77Y-2.88
X2.7884Y-4.3
X2.8126Y-2.1886
X2.8216Y-3.01
X2.8409Y-1.9425
X2.89Y-3.4
X2.89Y-3.5969
X2.89Y-3.7231
X2.89Y-3.92
X2.8921Y-4.7024
X2.911Y-2.1886
X2.9161Y-4.0799
X2.92Y-3.01
X2.9224Y-4.2976
X2.9669Y-2.88
X2.9898Y-4.5831
X2.9984Y-3.1382
X3.Y-3.2669
X3.0067Y-5.1106
X3.0083Y-2.4244
X3.0083Y-2.5244
X3.0083Y-2.6244
X3.0083Y-2.7244
X3.0209Y-4.2976
X3.0524Y-4.4567
X3.08Y-2.9
X3.08Y-3.03
X3.13Y-4.59
X3.15Y-2.4616
X3.15Y-2.56
X3.15Y-4.4488
X3.22Y-3.98
X3.22Y-4.1721
X3.2284Y-4.59
X3.26Y-2.78
X3.3067Y-5.1106
X3.31Y-2.1016
X3.31Y-2.2
X3.3584Y-2.78
X3.36Y-2.44
X3.36Y-2.6369
X3.36Y-3.18
X3.3665Y-4.8059
X3.3709Y-4.6634
X3.38Y-2.9
X3.38Y-3.03
X3.3916Y-3.94
X3.45Y-4.4488
X3.49Y-3.94
X3.522Y-3.3614
X3.54Y-2.77
X3.54Y-2.94
X3.57Y-2.5516
X3.57Y-2.65
X3.6201Y-4.3457
X3.6201Y-4.4441
X3.622Y-3.3614
X3.63Y-2.04
X3.63Y-2.44
X3.64Y-2.94
X3.6731Y-2.65
X3.722Y-3.3614
X3.74Y-2.94
X3.76Y-3.18
X3.76Y-3.53
X3.76Y-3.83
X3.76Y-3.93
X3.76Y-4.23
X3.7665Y-4.8059
X3.7709Y-4.6634
X3.84Y-2.77
X3.8484Y-2.0409
X3.8484Y-2.4409
X3.8657Y-3.0913
X3.87Y-2.65
X3.87Y-3.7
X3.87Y-4.
X3.87Y-5.23
X3.88Y-2.91
X3.88Y-5.11
X3.88Y-5.37
X3.89Y-3.24
X3.9203Y-1.6585
X3.9203Y-1.8553
X3.93Y-3.42
X3.93Y-3.5184
X3.9512Y-4.3035
X3.9512Y-4.6035
X3.9642Y-3.0913
X3.987Y-4.8106
X3.987Y-5.0075
X3.9884Y-3.24
X3.99Y-3.86
X3.99Y-4.16
X4.0276Y-1.9931
X4.0276Y-2.0915
X4.06Y-2.23
X4.06Y-2.35
X4.06Y-2.46
X4.06Y-2.58
X4.06Y-2.69
X4.0799Y-4.3051
X4.0799Y-4.6051
X4.0817Y-1.7697
X4.09Y-3.43
X4.09Y-3.56
X4.11Y-3.8
X4.1114Y-4.8106
X4.1114Y-5.0075
X4.12Y-3.26
X4.1431Y-3.1
X4.1476Y-1.9803
X4.1669Y-4.1866
X4.1685Y-4.0559
X4.17Y-5.23
X4.18Y-5.11
X4.18Y-5.37
X4.19Y-4.49
X4.19Y-4.61
X4.22Y-3.26
X4.28Y-2.91
X4.28Y-4.72
X4.28Y-5.02
X4.28Y-5.38
X4.29Y-5.1416
X4.29Y-5.24
X4.2916Y-3.68
X4.32Y-3.26
X4.34Y-3.1
X4.3445Y-1.9803
X4.36Y-2.23
X4.36Y-2.35
X4.36Y-2.46
X4.36Y-2.58
X4.36Y-2.69
X4.3843Y-4.3575
X4.39Y-3.43
X4.39Y-3.56
X4.39Y-3.68
X4.39Y-4.77
X4.39Y-4.87
X4.41Y-3.8
X4.45Y-3.05
X4.4638Y-4.9831
X4.4638Y-5.2831
X4.4669Y-4.1866
X4.4685Y-4.0559
X4.4817Y-1.7697
X4.49Y-4.49
X4.49Y-4.61
X4.5Y-2.82
X4.5165Y-2.6161
X4.5165Y-3.1933
X4.5165Y-3.3902
X4.5197Y-2.4197
X4.52Y-3.49
X4.52Y-3.79
X4.5358Y-2.226
X4.58Y-4.0216
X4.58Y-4.12
X4.58Y-5.38
X4.5811Y-4.3575
X4.5837Y-1.9675
X4.6Y-2.82
X4.6102Y-5.1945
X4.6165Y-2.6161
X4.6197Y-2.4197
X4.6358Y-2.226
X4.67Y-5.01
X4.6713Y-3.1965
X4.68Y-4.33
X4.68Y-4.63
X4.69Y-4.77
X4.69Y-4.87
X4.6949Y-3.6902
X4.7Y-1.77
X4.7Y-2.82
X4.7087Y-5.1945
X4.7098Y-3.5098
X4.71Y-4.03
X4.71Y-4.17
X4.7165Y-2.6161
X4.7197Y-2.4197
X4.7358Y-2.226
X4.75Y-3.05
X4.7684Y-5.01
X4.7697Y-3.1965
X4.78Y-4.33
X4.78Y-4.63
X4.7805Y-1.9675
X4.85Y-2.87
X4.85Y-2.9684
X4.86Y-2.46
X4.86Y-2.76
X4.88Y-4.33
X4.88Y-4.63
X4.8916Y-2.34
X4.902Y-3.5098
X4.92Y-3.83
X4.96Y-2.49
X4.96Y-2.66
X4.96Y-2.82
X4.98Y-4.33
X4.98Y-4.63
X4.99Y-2.34
X4.99Y-2.96
X4.99Y-3.08
X4.9949Y-3.6902
X5.01Y-4.03
X5.01Y-4.17
X5.1Y-1.77
X5.1161Y-4.6531
X5.1161Y-4.7516
X5.22Y-3.83
X5.2295Y-4.4154
X5.29Y-2.96
X5.29Y-3.08
X5.328Y-4.4154
X5.46Y-2.49
X5.46Y-2.66
X5.46Y-2.82
T3
X2.9449Y-1.9469
X3.0449Y-1.9469
X5.43Y-2.96
X5.43Y-3.06
T4
X2.1055Y-5.3724
X2.15Y-1.75
X2.2055Y-5.3724
X2.25Y-1.75
X2.3055Y-5.3724
X2.35Y-1.75
X2.4055Y-5.3724
X2.5055Y-5.3724
X2.6055Y-5.3724
X2.7055Y-5.3724
X2.8055Y-5.3724
X2.9055Y-5.3724
X3.0055Y-5.3724
X3.1055Y-5.3724
X3.2Y-3.47
X3.2Y-3.57
X3.2Y-3.67
X3.2055Y-5.3724
X3.3Y-3.47
X3.3Y-3.57
X3.3Y-3.67
X3.3055Y-5.3724
X3.4055Y-5.3724
X3.5055Y-4.9772
X3.5055Y-5.3724
X3.5937Y-3.7059
X3.5937Y-3.8059
X3.6055Y-4.9772
X3.6055Y-5.3724
X3.7055Y-4.9772
X3.8055Y-4.9772
X4.4636Y-1.9305
X4.4636Y-2.0305
X4.7169Y-3.3346
X4.8169Y-3.3346
X4.9Y-2.
X4.9Y-2.1
X4.9Y-2.2
X4.9169Y-3.3346
X5.05Y-2.
X5.05Y-2.1
X5.05Y-2.2
T5
X1.6783Y-4.5315
X1.6783Y-4.7874
X1.6827Y-3.1126
X1.6827Y-3.3685
X1.6843Y-3.8866
X1.6843Y-4.1425
X1.7039Y-2.4925
X1.7039Y-2.7484
X1.8555Y-4.5315
X1.8555Y-4.7874
X1.8598Y-3.1126
X1.8598Y-3.3685
X1.8614Y-3.8866
X1.8614Y-4.1425
X1.8811Y-2.4925
X1.8811Y-2.7484
X2.1815Y-2.3209
X2.4815Y-2.3209
X2.9941Y-4.7228
X2.9941Y-4.9
X3.25Y-4.7228
X3.25Y-4.9
X5.1165Y-3.2579
X5.1165Y-3.5339
X5.1181Y-3.3976
X5.1197Y-3.6705
X5.4165Y-3.2579
X5.4165Y-3.5339
X5.4181Y-3.3976
X5.4197Y-3.6705
T6
X2.6555Y-4.9268
X2.7539Y-5.1252
X2.78Y-1.73
X2.8524Y-4.9268
X2.9769Y-1.73
X3.1737Y-1.73
X5.3236Y-4.6201
X5.3236Y-4.8169
X5.3236Y-5.0138
T7
X2.23Y-2.58
X2.43Y-2.58
X3.4528Y-1.7972
X3.6528Y-1.7972
X5.29Y-4.03
X5.29Y-4.23
X5.34Y-2.04
X5.34Y-2.24
T4
X1.7438Y-2.0806G85X1.7438Y-2.1594
G05
X1.8225Y-2.305G85X1.9013Y-2.305
G05
X1.98Y-2.0806G85X1.98Y-2.1594
G05
T0
M30
