M48
;DRILL file {KiCad 4.0.7} date 01/15/22 15:21:53
;FORMAT={-:-/ absolute / metric / decimal}
FMAT,2
METRIC,TZ
T1C0.400
T2C0.762
T3C0.800
T4C0.900
T5C1.000
T6C1.100
T7C1.200
T8C1.500
T9C1.520
T10C3.048
%
G90
G05
M71
T1
X52.255Y-106.515
X58.725Y-105.845
X65.295Y-104.415
X82.115Y-106.635
X88.985Y-80.715
X94.28Y-75.29
X96.34Y-97.62
X97.31Y-98.53
X97.56Y-93.02
X99.32Y-94.96
X101.51Y-74.32
T2
X101.475Y-82.12
X105.285Y-82.12
X157.525Y-82.9
X161.335Y-82.9
X161.425Y-129.88
X165.235Y-129.88
X170.755Y-140.285
X174.501Y-137.491
X174.501Y-143.079
X174.685Y-130.19
X178.375Y-140.285
X178.495Y-130.19
T3
X47.335Y-116.295
X47.335Y-118.835
X47.335Y-121.375
X50.76Y-77.11
X50.76Y-79.61
X51.165Y-112.435
X51.165Y-120.055
X51.76Y-91.89
X51.76Y-99.51
X52.275Y-101.705
X52.275Y-109.325
X52.5Y-132.7
X53.69Y-72.23
X53.69Y-74.77
X55.Y-132.7
X55.01Y-91.9
X55.01Y-99.52
X55.495Y-101.725
X55.495Y-109.345
X55.9Y-137.7
X55.9Y-140.2
X58.3Y-132.7
X58.825Y-101.725
X58.825Y-109.345
X60.8Y-132.7
X61.31Y-72.23
X61.31Y-74.77
X61.485Y-67.305
X62.165Y-101.735
X62.165Y-109.355
X62.215Y-122.795
X62.44Y-126.4
X63.1Y-137.6
X63.1Y-140.1
X63.985Y-67.305
X64.715Y-122.795
X65.045Y-94.405
X65.085Y-98.065
X65.2Y-129.8
X65.465Y-101.765
X65.465Y-109.385
X65.575Y-80.155
X65.575Y-83.655
X65.88Y-86.73
X65.88Y-91.73
X66.085Y-70.295
X68.585Y-70.295
X68.675Y-101.765
X68.675Y-109.385
X69.17Y-86.73
X69.17Y-91.73
X69.3Y-122.7
X70.045Y-94.405
X70.085Y-98.065
X70.6Y-133.
X71.8Y-122.7
X71.955Y-101.745
X71.955Y-109.365
X72.6Y-126.4
X72.82Y-129.8
X73.21Y-87.05
X74.03Y-61.23
X74.045Y-91.985
X74.045Y-96.865
X75.185Y-67.215
X75.185Y-69.715
X75.215Y-101.795
X75.215Y-109.415
X75.6Y-133.
X75.71Y-87.05
X75.735Y-80.155
X75.735Y-83.655
X75.9Y-125.6
X75.9Y-128.1
X77.53Y-61.23
X78.675Y-77.165
X78.675Y-79.705
X78.675Y-82.245
X78.675Y-84.785
X78.675Y-87.325
X78.675Y-89.865
X78.675Y-92.405
X78.675Y-94.945
X78.675Y-97.485
X78.675Y-100.025
X78.675Y-102.565
X78.675Y-105.105
X78.675Y-107.645
X78.675Y-110.185
X78.68Y-124.08
X78.68Y-126.62
X78.68Y-129.16
X78.68Y-131.7
X78.87Y-120.78
X78.91Y-117.46
X79.2Y-137.
X81.7Y-137.
X81.93Y-114.2
X82.24Y-66.41
X82.26Y-63.4
X84.43Y-114.2
X86.295Y-77.165
X86.295Y-79.705
X86.295Y-82.245
X86.295Y-84.785
X86.295Y-87.325
X86.295Y-89.865
X86.295Y-92.405
X86.295Y-94.945
X86.295Y-97.485
X86.295Y-100.025
X86.295Y-102.565
X86.295Y-105.105
X86.295Y-107.645
X86.295Y-110.185
X86.3Y-124.08
X86.3Y-126.62
X86.3Y-129.16
X86.3Y-131.7
X86.49Y-120.78
X86.53Y-117.46
X89.51Y-92.01
X89.51Y-94.51
X89.57Y-97.68
X89.57Y-100.18
X89.725Y-82.825
X89.725Y-87.825
X89.795Y-73.985
X89.86Y-66.41
X89.88Y-63.4
X90.22Y-128.32
X90.22Y-135.94
X90.83Y-116.01
X90.83Y-123.63
X92.295Y-73.985
X93.46Y-128.27
X93.46Y-133.27
X93.8Y-136.06
X93.93Y-96.95
X93.93Y-104.57
X94.67Y-117.47
X94.67Y-120.01
X94.67Y-122.55
X95.57Y-72.24
X95.57Y-79.86
X96.3Y-136.06
X96.74Y-125.69
X96.74Y-133.31
X96.975Y-66.075
X96.975Y-68.875
X99.075Y-66.075
X99.1Y-117.57
X99.1Y-122.57
X99.22Y-88.92
X99.3Y-72.22
X99.3Y-79.84
X99.685Y-91.845
X99.685Y-99.465
X100.09Y-125.73
X100.09Y-133.35
X101.675Y-66.075
X102.95Y-124.24
X103.075Y-91.315
X103.075Y-101.475
X103.13Y-134.26
X103.13Y-141.88
X103.775Y-66.075
X103.775Y-68.875
X106.38Y-138.95
X106.405Y-108.855
X106.415Y-106.075
X106.51Y-127.15
X106.51Y-134.77
X106.925Y-92.095
X106.925Y-99.715
X108.27Y-82.88
X108.27Y-85.38
X108.88Y-138.95
X108.9Y-75.475
X108.9Y-77.975
X109.38Y-88.92
X109.84Y-127.14
X109.84Y-134.76
X110.255Y-92.135
X110.255Y-99.755
X110.57Y-124.24
X111.7Y-89.38
X111.975Y-67.7
X112.6Y-112.11
X112.6Y-114.61
X112.825Y-83.225
X112.825Y-85.725
X112.93Y-70.78
X112.93Y-78.4
X113.23Y-125.65
X113.23Y-130.65
X113.23Y-133.01
X113.23Y-140.63
X113.325Y-60.575
X113.58Y-117.38
X113.58Y-122.38
X114.025Y-108.855
X114.035Y-106.075
X115.Y-95.225
X115.Y-100.105
X115.865Y-60.575
X116.5Y-133.1
X116.5Y-135.6
X116.575Y-116.6
X116.68Y-120.03
X116.68Y-122.57
X116.68Y-125.11
X116.68Y-127.65
X117.42Y-78.87
X117.42Y-83.75
X117.825Y-105.7
X117.825Y-113.32
X118.405Y-60.575
X118.41Y-72.39
X119.32Y-89.38
X119.48Y-132.3
X119.595Y-67.7
X120.95Y-72.39
X121.175Y-105.7
X121.175Y-113.32
X121.905Y-101.045
X122.1Y-89.25
X122.265Y-68.645
X123.25Y-78.83
X123.25Y-83.71
X123.49Y-72.39
X124.195Y-116.6
X124.3Y-120.03
X124.3Y-122.57
X124.3Y-125.11
X124.3Y-127.65
X124.405Y-101.045
X124.6Y-89.25
X126.25Y-73.19
X127.1Y-132.3
X127.14Y-104.13
X127.14Y-111.75
X127.265Y-68.645
X128.4Y-115.48
X128.524Y-123.952
X128.89Y-78.91
X128.89Y-83.79
X129.5Y-94.9
X129.55Y-98.175
X129.955Y-59.675
X129.955Y-62.975
X130.07Y-112.32
X130.22Y-106.675
X130.5Y-130.2
X130.5Y-132.7
X130.58Y-102.34
X131.46Y-67.31
X132.76Y-106.675
X132.99Y-76.5
X133.08Y-102.34
X133.7Y-134.18
X133.7Y-141.8
X133.87Y-73.19
X134.Y-67.31
X135.3Y-106.675
X135.3Y-128.5
X135.3Y-131.
X136.02Y-115.48
X136.144Y-123.952
X136.54Y-67.31
X136.9Y-134.2
X136.9Y-141.82
X137.12Y-94.9
X137.17Y-98.175
X137.575Y-59.675
X137.575Y-62.975
X137.69Y-112.32
X137.99Y-76.5
X139.875Y-94.805
X139.875Y-102.425
X140.13Y-106.64
X140.4Y-140.2
X140.455Y-74.025
X140.455Y-81.645
X140.47Y-109.35
X140.47Y-116.97
X140.605Y-58.785
X140.8Y-122.72
X140.8Y-125.26
X140.8Y-127.8
X141.49Y-66.16
X141.5Y-131.22
X141.5Y-133.76
X141.5Y-136.3
X142.63Y-106.64
X142.9Y-140.2
X143.Y-94.88
X143.Y-102.5
X143.53Y-70.49
X144.37Y-82.53
X144.37Y-85.03
X144.42Y-88.23
X144.42Y-90.73
X145.075Y-120.55
X145.075Y-128.17
X145.7Y-140.8
X146.07Y-70.49
X146.925Y-96.565
X146.925Y-99.105
X146.925Y-101.645
X147.33Y-79.8
X147.34Y-82.73
X147.69Y-85.14
X147.69Y-92.76
X147.8Y-133.7
X147.8Y-136.2
X148.325Y-105.8
X148.61Y-70.49
X148.675Y-108.43
X148.675Y-116.05
X148.7Y-120.4
X148.7Y-130.56
X149.11Y-66.16
X150.38Y-62.45
X150.765Y-58.785
X150.96Y-85.13
X150.96Y-92.75
X151.18Y-115.775
X152.4Y-122.88
X152.4Y-130.5
X152.4Y-132.8
X152.4Y-137.8
X152.8Y-66.5
X153.32Y-140.8
X154.26Y-85.13
X154.26Y-92.75
X154.545Y-96.565
X154.545Y-99.105
X154.545Y-101.645
X154.95Y-79.8
X154.96Y-82.73
X155.3Y-66.5
X155.88Y-120.87
X155.88Y-125.87
X155.945Y-105.8
X157.3Y-134.6
X157.3Y-142.22
X157.58Y-91.09
X157.58Y-98.71
X157.77Y-71.97
X157.77Y-74.47
X158.Y-62.45
X158.45Y-105.625
X158.45Y-113.245
X158.8Y-115.775
X160.16Y-95.94
X160.77Y-89.66
X160.77Y-92.16
X162.052Y-68.58
X162.052Y-76.2
X162.48Y-105.96
X162.48Y-113.58
X162.7Y-95.94
X164.04Y-85.05
X164.04Y-92.67
X164.62Y-79.84
X164.62Y-82.34
X164.98Y-102.11
X165.02Y-105.96
X165.02Y-113.58
X165.24Y-95.94
X166.835Y-63.005
X167.4Y-123.6
X167.4Y-126.9
X167.4Y-130.2
X167.47Y-86.92
X167.47Y-91.92
X167.56Y-105.96
X167.56Y-113.58
X167.585Y-59.145
X167.79Y-95.14
X167.84Y-77.09
X167.84Y-84.71
X169.335Y-63.005
X169.795Y-74.375
X169.875Y-66.955
X169.875Y-69.455
X170.48Y-90.68
X170.49Y-78.79
X170.92Y-105.05
X170.92Y-112.67
X172.4Y-123.6
X172.4Y-126.9
X172.4Y-130.2
X173.02Y-90.68
X173.03Y-78.79
X175.205Y-59.145
X175.41Y-95.14
X175.56Y-90.68
X175.57Y-78.79
X176.995Y-65.075
X176.995Y-67.615
X176.995Y-70.155
X177.415Y-74.375
X177.68Y-102.11
X177.7Y-95.06
X179.715Y-74.335
X180.21Y-78.73
X180.26Y-90.83
X180.435Y-69.295
X182.75Y-78.73
X182.8Y-90.83
X185.025Y-120.125
X185.29Y-78.73
X185.32Y-95.06
X185.34Y-90.83
X187.335Y-74.335
X187.525Y-120.125
X188.055Y-69.295
T4
X57.89Y-97.65
X60.43Y-97.65
X123.575Y-61.455
X126.115Y-61.455
X162.8Y-141.5
X165.34Y-141.5
X181.945Y-126.885
X181.945Y-129.425
T5
X47.175Y-72.185
X47.175Y-74.725
X47.175Y-77.265
X47.175Y-79.805
X47.175Y-82.345
X47.175Y-84.885
X47.175Y-87.425
X47.175Y-89.965
X47.175Y-92.505
X47.175Y-95.045
X47.175Y-97.585
X47.175Y-100.125
X47.175Y-102.665
X47.175Y-105.205
X47.175Y-107.745
X47.175Y-110.285
X60.452Y-84.836
X60.452Y-87.376
X60.452Y-89.916
X60.452Y-92.456
X66.695Y-76.495
X69.235Y-76.495
X71.775Y-76.495
X74.315Y-76.495
X83.67Y-59.66
X86.21Y-59.66
X88.75Y-59.66
X91.95Y-108.26
X91.95Y-110.8
X93.472Y-84.836
X93.472Y-87.376
X93.472Y-89.916
X93.472Y-92.456
X94.49Y-108.26
X94.49Y-110.8
X97.03Y-108.26
X97.03Y-110.8
X101.61Y-105.66
X101.61Y-108.2
X104.43Y-113.39
X140.475Y-86.445
X140.475Y-88.985
X140.475Y-91.525
X156.21Y-130.81
X161.29Y-121.92
X161.29Y-137.16
X163.83Y-121.92
X163.83Y-137.16
X165.265Y-66.695
X165.265Y-69.235
X169.4Y-134.08
X170.18Y-119.888
X170.2Y-116.19
X171.94Y-134.08
X172.72Y-119.888
X172.74Y-116.19
X175.855Y-107.145
X175.855Y-109.685
X175.855Y-112.225
X179.9Y-58.9
X187.23Y-82.34
X187.23Y-84.88
X187.23Y-87.42
T6
X54.325Y-112.815
X54.325Y-119.315
X54.4Y-78.54
X54.445Y-122.985
X54.445Y-129.485
X58.825Y-112.815
X58.825Y-119.315
X58.945Y-122.985
X58.945Y-129.485
X62.02Y-78.54
X62.365Y-112.925
X62.365Y-119.425
X66.865Y-112.925
X66.865Y-119.425
X70.745Y-113.075
X70.745Y-119.575
X75.245Y-113.075
X75.245Y-119.575
X78.825Y-69.115
X78.825Y-73.615
X85.325Y-69.115
X85.325Y-73.615
X140.15Y-62.47
X147.77Y-62.47
X168.04Y-98.46
X172.975Y-62.105
X175.66Y-98.46
X180.175Y-98.845
X180.175Y-106.465
X180.175Y-111.545
X180.175Y-116.625
X180.595Y-62.105
X180.605Y-65.885
X187.775Y-98.845
X187.775Y-106.465
X187.775Y-111.545
X187.775Y-116.625
X188.225Y-65.885
T7
X51.23Y-88.94
X53.73Y-83.9
X56.23Y-88.94
X85.75Y-141.31
X90.75Y-141.31
X95.75Y-141.31
X118.83Y-141.24
X123.83Y-141.24
X128.83Y-141.24
T8
X133.47Y-82.04
X133.47Y-89.66
X136.88Y-82.1
X136.88Y-89.72
T9
X63.115Y-61.835
X68.195Y-61.835
X69.7Y-138.8
X74.78Y-138.8
X184.673Y-126.631
X184.673Y-131.711
T10
X45.425Y-60.465
X45.425Y-140.465
X185.425Y-60.465
X185.425Y-140.465
T5
X50.255Y-63.305G85X50.255Y-65.305
G05
X55.955Y-61.305G85X53.955Y-61.305
G05
X55.955Y-67.305G85X53.955Y-67.305
G05
X93.525Y-63.975G85X93.525Y-62.475
G05
X101.375Y-62.425G85X99.375Y-62.425
G05
X107.225Y-63.975G85X107.225Y-62.475
G05
T0
M30
