M48
;DRILL file {KiCad 4.0.7} date 12/27/21 00:17:03
;FORMAT={-:-/ absolute / metric / decimal}
FMAT,2
METRIC,TZ
T1C0.400
T2C0.762
T3C0.800
T4C0.900
T5C1.000
T6C1.100
T7C1.200
T8C1.500
T9C1.520
T10C3.048
%
G90
G05
M71
T1
X52.255Y-106.515
X58.725Y-105.845
X65.295Y-104.415
X82.115Y-106.635
X88.985Y-80.715
X91.565Y-78.005
X95.055Y-84.475
X95.175Y-80.985
X96.835Y-97.685
X97.585Y-93.935
X97.745Y-86.955
T2
X170.755Y-140.285
X174.501Y-137.491
X174.501Y-143.079
X178.375Y-140.285
T3
X47.335Y-116.295
X47.335Y-118.835
X47.335Y-121.375
X50.905Y-79.285
X50.905Y-81.785
X51.165Y-112.435
X51.165Y-120.055
X52.005Y-98.225
X52.085Y-94.855
X52.275Y-101.705
X52.275Y-109.325
X53.69Y-72.23
X53.69Y-74.77
X54.535Y-132.815
X55.495Y-101.725
X55.495Y-109.345
X57.035Y-132.815
X58.825Y-101.725
X58.825Y-109.345
X59.265Y-138.075
X59.625Y-98.225
X59.705Y-94.855
X60.225Y-134.535
X61.31Y-72.23
X61.31Y-74.77
X61.485Y-67.305
X62.165Y-101.735
X62.165Y-109.355
X62.215Y-122.795
X62.725Y-134.535
X63.985Y-67.305
X64.265Y-138.075
X64.715Y-122.795
X65.045Y-94.405
X65.085Y-98.065
X65.465Y-101.765
X65.465Y-109.385
X65.575Y-80.155
X65.575Y-83.655
X66.085Y-70.295
X66.185Y-86.805
X66.185Y-91.805
X66.665Y-127.495
X66.665Y-129.995
X68.585Y-70.295
X68.675Y-101.765
X68.675Y-109.385
X69.515Y-86.755
X69.515Y-91.755
X70.045Y-94.405
X70.085Y-98.065
X70.325Y-122.575
X71.955Y-101.745
X71.955Y-109.365
X72.595Y-59.775
X72.815Y-126.905
X72.815Y-129.405
X72.825Y-122.575
X74.045Y-91.985
X74.045Y-96.865
X75.095Y-59.775
X75.185Y-67.215
X75.185Y-69.715
X75.215Y-101.795
X75.215Y-109.415
X75.735Y-80.155
X75.735Y-83.655
X76.055Y-123.705
X76.055Y-126.245
X76.055Y-128.785
X76.055Y-131.325
X78.315Y-66.145
X78.375Y-63.155
X78.55Y-136.9
X78.675Y-77.165
X78.675Y-79.705
X78.675Y-82.245
X78.675Y-84.785
X78.675Y-87.325
X78.675Y-89.865
X78.675Y-92.405
X78.675Y-94.945
X78.675Y-97.485
X78.675Y-100.025
X78.675Y-102.565
X78.675Y-105.105
X78.675Y-107.645
X78.675Y-110.185
X79.725Y-116.955
X80.85Y-120.2
X81.05Y-136.9
X82.645Y-113.545
X83.35Y-120.2
X83.675Y-123.705
X83.675Y-126.245
X83.675Y-128.785
X83.675Y-131.325
X85.935Y-66.145
X85.995Y-63.155
X86.295Y-77.165
X86.295Y-79.705
X86.295Y-82.245
X86.295Y-84.785
X86.295Y-87.325
X86.295Y-89.865
X86.295Y-92.405
X86.295Y-94.945
X86.295Y-97.485
X86.295Y-100.025
X86.295Y-102.565
X86.295Y-105.105
X86.295Y-107.645
X86.295Y-110.185
X87.1Y-120.48
X87.1Y-128.1
X87.345Y-116.955
X89.485Y-94.995
X89.55Y-134.65
X89.725Y-82.825
X89.725Y-85.325
X89.795Y-73.985
X90.265Y-113.545
X91.045Y-117.9
X91.85Y-124.05
X91.85Y-131.67
X91.985Y-94.995
X92.05Y-134.65
X92.295Y-73.985
X93.585Y-117.9
X95.575Y-127.88
X95.575Y-135.5
X95.6Y-122.4
X95.6Y-124.9
X96.095Y-72.175
X96.095Y-79.795
X96.125Y-117.9
X96.975Y-66.075
X96.975Y-68.875
X98.775Y-88.515
X99.075Y-66.075
X99.285Y-72.165
X99.285Y-79.785
X99.3Y-129.43
X99.3Y-137.05
X99.325Y-119.375
X99.325Y-126.995
X99.685Y-91.845
X99.685Y-99.465
X101.675Y-66.075
X102.575Y-117.7
X102.815Y-74.625
X102.815Y-84.785
X103.075Y-91.315
X103.075Y-101.475
X103.375Y-123.375
X103.375Y-130.995
X103.775Y-66.075
X103.775Y-68.875
X105.075Y-117.7
X106.405Y-108.855
X106.415Y-106.075
X106.6Y-125.7
X106.6Y-133.32
X106.925Y-92.095
X106.925Y-99.715
X107.9Y-136.55
X107.9Y-139.05
X108.075Y-82.465
X108.075Y-84.965
X108.9Y-75.475
X108.9Y-77.975
X108.935Y-88.515
X109.55Y-119.725
X109.95Y-123.475
X109.95Y-131.095
X110.255Y-92.135
X110.255Y-99.755
X110.655Y-115.105
X111.355Y-89.35
X111.975Y-67.7
X112.05Y-119.725
X112.4Y-135.5
X112.6Y-70.655
X112.6Y-78.275
X112.825Y-83.225
X112.825Y-85.725
X113.155Y-115.105
X113.325Y-60.575
X113.325Y-122.5
X113.325Y-127.5
X114.Y-130.975
X114.025Y-108.855
X114.035Y-106.075
X114.9Y-135.5
X115.Y-95.225
X115.Y-100.105
X115.865Y-60.575
X116.5Y-130.975
X116.575Y-116.6
X116.68Y-120.03
X116.68Y-122.57
X116.68Y-125.11
X116.68Y-127.65
X116.77Y-72.125
X117.825Y-105.7
X117.825Y-113.32
X118.405Y-60.575
X118.975Y-89.35
X119.275Y-77.825
X119.3Y-83.525
X119.31Y-72.125
X119.595Y-67.7
X121.175Y-105.7
X121.175Y-113.32
X121.85Y-72.125
X121.905Y-101.045
X122.1Y-89.25
X122.265Y-68.645
X122.63Y-134.875
X122.655Y-131.3
X124.155Y-77.825
X124.18Y-83.525
X124.195Y-116.6
X124.3Y-120.03
X124.3Y-122.57
X124.3Y-125.11
X124.3Y-127.65
X124.405Y-101.045
X124.6Y-89.25
X124.705Y-72.875
X125.3Y-111.55
X127.265Y-68.645
X129.48Y-66.35
X129.5Y-94.9
X129.55Y-98.175
X129.875Y-69.725
X129.955Y-59.675
X129.955Y-62.975
X129.955Y-116.25
X130.2Y-102.075
X130.22Y-106.675
X130.25Y-134.875
X130.275Y-131.3
X130.575Y-123.265
X130.575Y-125.765
X132.325Y-72.875
X132.7Y-102.075
X132.76Y-106.675
X132.92Y-111.55
X133.65Y-133.125
X133.65Y-140.745
X134.275Y-130.45
X134.875Y-69.725
X135.3Y-106.675
X135.4Y-120.15
X135.4Y-127.77
X136.775Y-130.45
X137.1Y-66.35
X137.12Y-94.9
X137.17Y-98.175
X137.575Y-59.675
X137.575Y-62.975
X137.575Y-116.25
X138.25Y-137.8
X138.25Y-140.3
X138.875Y-105.855
X138.875Y-113.475
X139.705Y-64.765
X139.775Y-68.65
X139.775Y-71.15
X139.875Y-94.805
X139.875Y-102.425
X139.875Y-119.495
X139.875Y-122.035
X139.875Y-124.575
X140.35Y-116.275
X140.425Y-127.075
X140.425Y-134.695
X140.455Y-74.025
X140.455Y-81.645
X140.605Y-58.785
X142.175Y-105.8
X142.175Y-113.42
X142.245Y-64.765
X142.48Y-140.325
X142.85Y-116.275
X143.Y-94.88
X143.Y-102.5
X144.195Y-78.655
X144.435Y-68.115
X144.435Y-75.735
X144.785Y-64.765
X144.95Y-131.945
X144.95Y-134.485
X144.95Y-137.025
X145.075Y-120.55
X145.075Y-128.17
X145.825Y-89.725
X145.825Y-92.225
X145.875Y-83.35
X145.875Y-85.85
X146.925Y-96.565
X146.925Y-99.105
X146.925Y-101.645
X147.905Y-61.835
X147.905Y-69.455
X148.325Y-105.8
X148.675Y-108.43
X148.675Y-116.05
X148.685Y-82.495
X149.145Y-84.975
X149.145Y-92.595
X149.25Y-132.525
X149.25Y-137.525
X149.35Y-119.9
X149.35Y-130.06
X150.1Y-140.325
X150.765Y-58.785
X151.18Y-115.775
X151.815Y-78.655
X152.445Y-85.045
X152.445Y-92.665
X153.275Y-125.73
X153.275Y-133.35
X153.35Y-120.275
X153.35Y-122.775
X154.425Y-136.55
X154.425Y-139.05
X154.455Y-75.105
X154.545Y-96.565
X154.545Y-99.105
X154.545Y-101.645
X155.625Y-85.045
X155.625Y-92.665
X155.945Y-105.8
X156.155Y-78.535
X156.305Y-82.495
X156.955Y-75.105
X157.275Y-66.905
X157.275Y-69.445
X157.275Y-71.985
X158.45Y-105.625
X158.45Y-113.245
X158.645Y-91.135
X158.645Y-98.755
X158.8Y-115.775
X159.175Y-102.425
X160.2Y-135.675
X161.735Y-106.615
X161.735Y-114.235
X161.875Y-97.115
X162.055Y-67.755
X162.055Y-75.375
X162.335Y-90.895
X162.335Y-93.395
X163.225Y-82.785
X164.275Y-106.615
X164.275Y-114.235
X164.415Y-97.115
X165.435Y-120.245
X165.435Y-130.405
X165.725Y-82.785
X165.795Y-86.095
X165.795Y-93.715
X166.315Y-78.535
X166.795Y-102.425
X166.815Y-106.615
X166.815Y-114.235
X166.835Y-63.005
X166.955Y-97.115
X167.585Y-59.145
X167.82Y-135.675
X168.975Y-126.715
X169.005Y-129.955
X169.045Y-123.445
X169.175Y-77.845
X169.175Y-85.465
X169.335Y-63.005
X169.345Y-99.885
X169.365Y-103.165
X169.405Y-87.705
X169.405Y-92.705
X169.605Y-95.245
X169.795Y-74.375
X169.875Y-66.955
X169.875Y-69.455
X172.405Y-78.755
X172.475Y-90.385
X173.975Y-126.715
X174.005Y-129.955
X174.045Y-123.445
X174.945Y-78.755
X175.015Y-90.385
X175.205Y-59.145
X176.965Y-99.885
X176.985Y-103.165
X176.995Y-65.075
X176.995Y-67.615
X176.995Y-70.155
X177.225Y-95.245
X177.415Y-74.375
X177.485Y-78.755
X177.555Y-90.385
X177.855Y-120.015
X177.855Y-130.175
X179.685Y-95.105
X179.715Y-74.335
X180.435Y-69.295
X182.275Y-78.635
X182.315Y-90.665
X184.815Y-78.635
X184.855Y-90.665
X185.025Y-120.125
X187.305Y-95.105
X187.335Y-74.335
X187.355Y-78.635
X187.395Y-90.665
X187.525Y-120.125
X188.055Y-69.295
T4
X60.555Y-90.855
X63.095Y-90.855
X123.575Y-61.455
X126.115Y-61.455
X161.405Y-138.815
X161.405Y-141.355
X181.945Y-126.885
X181.945Y-129.425
T5
X47.175Y-72.185
X47.175Y-74.725
X47.175Y-77.265
X47.175Y-79.805
X47.175Y-82.345
X47.175Y-84.885
X47.175Y-87.425
X47.175Y-89.965
X47.175Y-92.505
X47.175Y-95.045
X47.175Y-97.585
X47.175Y-100.125
X47.175Y-102.665
X47.175Y-105.205
X47.175Y-107.745
X47.175Y-110.285
X66.695Y-76.495
X69.235Y-76.495
X71.775Y-76.495
X74.315Y-76.495
X82.295Y-59.705
X84.835Y-59.705
X87.375Y-59.705
X92.195Y-100.095
X92.195Y-102.635
X92.195Y-105.175
X93.115Y-84.835
X93.115Y-87.375
X93.115Y-89.915
X94.735Y-100.095
X94.735Y-102.635
X94.735Y-105.175
X100.855Y-105.745
X100.855Y-108.285
X140.475Y-86.445
X140.475Y-88.985
X140.475Y-91.525
X165.265Y-66.695
X165.265Y-69.235
X170.185Y-119.485
X170.285Y-115.805
X172.725Y-119.485
X172.825Y-115.805
X173.045Y-133.925
X175.585Y-133.925
X175.855Y-107.145
X175.855Y-109.685
X175.855Y-112.225
T6
X54.325Y-112.815
X54.325Y-119.315
X54.4Y-78.54
X54.445Y-122.985
X54.445Y-129.485
X58.825Y-112.815
X58.825Y-119.315
X58.945Y-122.985
X58.945Y-129.485
X62.02Y-78.54
X62.365Y-112.925
X62.365Y-119.425
X66.865Y-112.925
X66.865Y-119.425
X70.745Y-113.075
X70.745Y-119.575
X75.245Y-113.075
X75.245Y-119.575
X78.825Y-69.115
X78.825Y-73.615
X85.325Y-69.115
X85.325Y-73.615
X157.365Y-59.875
X164.985Y-59.875
X172.975Y-62.105
X180.175Y-98.845
X180.175Y-106.465
X180.175Y-111.545
X180.175Y-116.625
X180.595Y-62.105
X180.605Y-65.885
X187.775Y-98.845
X187.775Y-106.465
X187.775Y-111.545
X187.775Y-116.625
X188.225Y-65.885
T7
X52.735Y-86.605
X52.735Y-91.605
X57.775Y-89.105
X85.825Y-138.75
X90.825Y-138.75
X95.825Y-138.75
X118.65Y-138.875
X123.65Y-138.875
X128.65Y-138.875
T8
X129.275Y-76.675
X129.3Y-80.8
X129.35Y-85.35
X129.375Y-89.6
X136.895Y-76.675
X136.92Y-80.8
X136.97Y-85.35
X136.995Y-89.6
T9
X63.115Y-61.835
X68.195Y-61.835
X68.695Y-137.195
X73.775Y-137.195
X184.673Y-126.631
X184.673Y-131.711
T10
X45.425Y-60.465
X45.425Y-140.465
X185.425Y-60.465
X185.425Y-140.465
T5
X50.255Y-63.305G85X50.255Y-65.305
G05
X55.955Y-61.305G85X53.955Y-61.305
G05
X55.955Y-67.305G85X53.955Y-67.305
G05
X93.525Y-63.975G85X93.525Y-62.475
G05
X101.375Y-62.425G85X99.375Y-62.425
G05
X107.225Y-63.975G85X107.225Y-62.475
G05
T0
M30
