G04 #@! TF.FileFunction,Soldermask,Bot*
%FSLAX46Y46*%
G04 Gerber Fmt 4.6, Leading zero omitted, Abs format (unit mm)*
G04 Created by KiCad (PCBNEW 4.0.7) date 11/07/21 16:31:05*
%MOMM*%
%LPD*%
G01*
G04 APERTURE LIST*
%ADD10C,0.100000*%
%ADD11C,2.000000*%
%ADD12O,2.000000X2.000000*%
%ADD13R,2.000000X2.000000*%
%ADD14R,2.100000X2.100000*%
%ADD15O,2.100000X2.100000*%
%ADD16R,2.600000X2.600000*%
%ADD17O,2.600000X2.600000*%
%ADD18R,2.200000X2.200000*%
%ADD19C,2.200000*%
%ADD20R,2.900000X2.900000*%
%ADD21O,2.900000X2.900000*%
%ADD22R,3.400000X3.400000*%
%ADD23C,3.400000*%
%ADD24R,3.900000X3.900000*%
%ADD25C,3.448000*%
%ADD26C,1.920000*%
%ADD27R,1.920000X1.920000*%
%ADD28C,2.900000*%
%ADD29C,2.400000*%
%ADD30O,2.200000X2.200000*%
%ADD31C,1.900000*%
%ADD32C,2.500000*%
G04 APERTURE END LIST*
D10*
D11*
X95250000Y-61976000D03*
D12*
X95250000Y-51816000D03*
D13*
X112000000Y-118790000D03*
D12*
X104380000Y-118790000D03*
D11*
X119920000Y-136850000D03*
X122420000Y-136850000D03*
D14*
X115570000Y-84836000D03*
D15*
X115570000Y-82296000D03*
X115570000Y-79756000D03*
D11*
X125510000Y-94910000D03*
D12*
X117890000Y-94910000D03*
D11*
X109420000Y-137350000D03*
D12*
X117040000Y-137350000D03*
D13*
X130420000Y-120510000D03*
D12*
X122800000Y-128130000D03*
X127880000Y-120510000D03*
X125340000Y-128130000D03*
X125340000Y-120510000D03*
X127880000Y-128130000D03*
X122800000Y-120510000D03*
X130420000Y-128130000D03*
D11*
X82804000Y-70358000D03*
X85304000Y-70358000D03*
X66020000Y-100070000D03*
X68520000Y-100070000D03*
X79502000Y-116586000D03*
X82002000Y-116586000D03*
D13*
X57150000Y-53340000D03*
D11*
X59650000Y-53340000D03*
X98552000Y-131572000D03*
X98552000Y-136572000D03*
X101854000Y-131572000D03*
X101854000Y-136572000D03*
D13*
X64770000Y-53340000D03*
D11*
X67270000Y-53340000D03*
X66660000Y-109300000D03*
X69160000Y-109300000D03*
X73406000Y-99568000D03*
X73406000Y-94568000D03*
X73406000Y-86360000D03*
X73406000Y-91360000D03*
X45820000Y-111820000D03*
X43320000Y-111820000D03*
X45880000Y-108460000D03*
X43380000Y-108460000D03*
D13*
X99822000Y-86868000D03*
D11*
X99822000Y-89368000D03*
X111506000Y-93472000D03*
X109006000Y-93472000D03*
D13*
X71440000Y-55590000D03*
D11*
X73940000Y-55590000D03*
X45720000Y-75930000D03*
X43220000Y-75930000D03*
X45570000Y-73000000D03*
X43070000Y-73000000D03*
D13*
X82296000Y-56134000D03*
D11*
X82296000Y-53634000D03*
X92202000Y-57150000D03*
X92202000Y-59650000D03*
X108712000Y-77724000D03*
X103712000Y-77724000D03*
X111506000Y-78994000D03*
X111506000Y-83994000D03*
X116840000Y-76200000D03*
X114340000Y-76200000D03*
X129680000Y-131370000D03*
X127180000Y-131370000D03*
X120540000Y-47200000D03*
X118040000Y-47200000D03*
X96580000Y-42860000D03*
X96580000Y-47860000D03*
X114190000Y-47270000D03*
X109190000Y-47270000D03*
X131090000Y-43000000D03*
X126090000Y-43000000D03*
X76730000Y-109160000D03*
X74230000Y-109160000D03*
X65786000Y-73152000D03*
X65786000Y-70652000D03*
X126492000Y-117348000D03*
X131492000Y-117348000D03*
D16*
X55410000Y-58950000D03*
D17*
X63030000Y-58950000D03*
D13*
X73460000Y-119440000D03*
D12*
X65840000Y-119440000D03*
D18*
X77340000Y-49450000D03*
D19*
X74800000Y-49450000D03*
D20*
X129780000Y-91620000D03*
D21*
X137400000Y-91620000D03*
D20*
X129770000Y-88160000D03*
D21*
X137390000Y-88160000D03*
D20*
X129760000Y-84650000D03*
D21*
X137380000Y-84650000D03*
D20*
X129760000Y-95080000D03*
D21*
X137380000Y-95080000D03*
D22*
X61722000Y-65532000D03*
D23*
X56642000Y-65532000D03*
D24*
X50292000Y-53848000D03*
X44292000Y-53848000D03*
X47292000Y-58548000D03*
D25*
X44000000Y-44000000D03*
X44000000Y-136000000D03*
D14*
X96660000Y-126420000D03*
D15*
X94120000Y-126420000D03*
X91580000Y-126420000D03*
X89040000Y-126420000D03*
D25*
X136000000Y-136000000D03*
X136000000Y-44000000D03*
D22*
X86870000Y-45650000D03*
D23*
X91950000Y-45650000D03*
D11*
X95780000Y-118450000D03*
D12*
X85620000Y-118450000D03*
D11*
X95670000Y-122070000D03*
D12*
X85510000Y-122070000D03*
D11*
X96012000Y-78486000D03*
D12*
X85852000Y-78486000D03*
D11*
X89154000Y-51816000D03*
D12*
X89154000Y-61976000D03*
D11*
X108712000Y-73914000D03*
D12*
X98552000Y-73914000D03*
D11*
X100000000Y-43000000D03*
D12*
X110160000Y-43000000D03*
D11*
X123660000Y-43000000D03*
D12*
X113500000Y-43000000D03*
D11*
X88646000Y-83058000D03*
D12*
X78486000Y-83058000D03*
D26*
X90424000Y-67564000D03*
X90424000Y-70104000D03*
D27*
X90424000Y-65024000D03*
D26*
X103632000Y-82296000D03*
X101092000Y-82296000D03*
D27*
X106172000Y-82296000D03*
D26*
X113538000Y-56642000D03*
X116078000Y-56642000D03*
D27*
X110998000Y-56642000D03*
D26*
X78486000Y-74930000D03*
X81026000Y-74930000D03*
D27*
X75946000Y-74930000D03*
D28*
X75612000Y-43942000D03*
X80612000Y-43942000D03*
X70612000Y-43942000D03*
D29*
X82550000Y-119960000D03*
X82550000Y-124460000D03*
X76050000Y-119960000D03*
X76050000Y-124460000D03*
X42630000Y-115100000D03*
X47130000Y-115100000D03*
X42630000Y-121600000D03*
X47130000Y-121600000D03*
X42740000Y-79060000D03*
X47240000Y-79060000D03*
X42740000Y-85560000D03*
X47240000Y-85560000D03*
X43280000Y-63310000D03*
X47780000Y-63310000D03*
X43280000Y-69810000D03*
X47780000Y-69810000D03*
X42780000Y-98720000D03*
X47280000Y-98720000D03*
X42780000Y-105220000D03*
X47280000Y-105220000D03*
D18*
X54610000Y-44450000D03*
D30*
X57150000Y-44450000D03*
X59690000Y-44450000D03*
D31*
X68834000Y-94996000D03*
X68834000Y-90116000D03*
X119610000Y-90360000D03*
X124490000Y-90360000D03*
D13*
X62230000Y-115570000D03*
D12*
X54610000Y-82550000D03*
X62230000Y-113030000D03*
X54610000Y-85090000D03*
X62230000Y-110490000D03*
X54610000Y-87630000D03*
X62230000Y-107950000D03*
X54610000Y-90170000D03*
X62230000Y-105410000D03*
X54610000Y-92710000D03*
X62230000Y-102870000D03*
X54610000Y-95250000D03*
X62230000Y-100330000D03*
X54610000Y-97790000D03*
X62230000Y-97790000D03*
X54610000Y-100330000D03*
X62230000Y-95250000D03*
X54610000Y-102870000D03*
X62230000Y-92710000D03*
X54610000Y-105410000D03*
X62230000Y-90170000D03*
X54610000Y-107950000D03*
X62230000Y-87630000D03*
X54610000Y-110490000D03*
X62230000Y-85090000D03*
X54610000Y-113030000D03*
X62230000Y-82550000D03*
X54610000Y-115570000D03*
D14*
X83820000Y-93218000D03*
D15*
X81280000Y-93218000D03*
X83820000Y-90678000D03*
X81280000Y-90678000D03*
X83820000Y-88138000D03*
X81280000Y-88138000D03*
D11*
X79480000Y-64920000D03*
X79480000Y-62420000D03*
D13*
X68790000Y-61580000D03*
D12*
X76410000Y-69200000D03*
X68790000Y-64120000D03*
X76410000Y-66660000D03*
X68790000Y-66660000D03*
X76410000Y-64120000D03*
X68790000Y-69200000D03*
X76410000Y-61580000D03*
D11*
X94996000Y-70104000D03*
X94996000Y-65104000D03*
X98552000Y-77470000D03*
X101052000Y-77470000D03*
D28*
X136020000Y-122500000D03*
X136020000Y-127500000D03*
X136020000Y-117500000D03*
D11*
X68580000Y-72644000D03*
X73580000Y-72644000D03*
D26*
X113792000Y-71120000D03*
X116332000Y-71120000D03*
D27*
X111252000Y-71120000D03*
D26*
X113792000Y-66294000D03*
X116332000Y-66294000D03*
D27*
X111252000Y-66294000D03*
D26*
X113792000Y-61468000D03*
X116332000Y-61468000D03*
D27*
X111252000Y-61468000D03*
D11*
X86110000Y-62750000D03*
X86110000Y-67750000D03*
D13*
X92202000Y-84582000D03*
D11*
X94702000Y-84582000D03*
D28*
X69950000Y-130180000D03*
X67450000Y-125140000D03*
X72450000Y-125140000D03*
D14*
X53480000Y-136460000D03*
D15*
X56020000Y-136460000D03*
X58560000Y-136460000D03*
X61100000Y-136460000D03*
X63640000Y-136460000D03*
X66180000Y-136460000D03*
X68720000Y-136460000D03*
X71260000Y-136460000D03*
X73800000Y-136460000D03*
X76340000Y-136460000D03*
X78880000Y-136460000D03*
X81420000Y-136460000D03*
X83960000Y-136460000D03*
X86500000Y-136460000D03*
X89040000Y-136460000D03*
X91580000Y-136460000D03*
D11*
X42900000Y-130300000D03*
X45400000Y-130300000D03*
D14*
X91280000Y-94130000D03*
D15*
X91280000Y-96670000D03*
D11*
X75940000Y-116410000D03*
D12*
X68320000Y-116410000D03*
D11*
X83990000Y-129810000D03*
D12*
X76370000Y-129810000D03*
D11*
X54930000Y-127040000D03*
D12*
X62550000Y-127040000D03*
D11*
X64540000Y-49340000D03*
D12*
X72160000Y-49340000D03*
D11*
X49260000Y-126760000D03*
D12*
X41640000Y-126760000D03*
D11*
X73406000Y-80010000D03*
D12*
X65786000Y-80010000D03*
D11*
X76200000Y-83070000D03*
D12*
X68580000Y-83070000D03*
D11*
X83650000Y-72920000D03*
D12*
X83650000Y-80540000D03*
D11*
X96012000Y-72898000D03*
D12*
X88392000Y-72898000D03*
D11*
X43240000Y-88390000D03*
D12*
X43240000Y-96010000D03*
D11*
X50830000Y-72470000D03*
D12*
X58450000Y-72470000D03*
D11*
X82870000Y-60150000D03*
D12*
X82870000Y-67770000D03*
D11*
X103886000Y-87122000D03*
D12*
X111506000Y-87122000D03*
D11*
X103886000Y-90424000D03*
D12*
X111506000Y-90424000D03*
D11*
X114808000Y-96266000D03*
D12*
X114808000Y-88646000D03*
D11*
X119560000Y-132320000D03*
D12*
X119560000Y-124700000D03*
D11*
X99060000Y-55626000D03*
D12*
X106680000Y-55626000D03*
D11*
X126880000Y-111120000D03*
D12*
X119260000Y-111120000D03*
D11*
X129540000Y-110998000D03*
D12*
X137160000Y-110998000D03*
D11*
X129540000Y-114300000D03*
D12*
X137160000Y-114300000D03*
D11*
X106172000Y-130048000D03*
D12*
X106172000Y-137668000D03*
D11*
X54870000Y-129890000D03*
D12*
X62490000Y-129890000D03*
D11*
X87630000Y-113030000D03*
D12*
X80010000Y-113030000D03*
D11*
X66450000Y-103630000D03*
D12*
X74070000Y-103630000D03*
D11*
X116586000Y-130810000D03*
D12*
X108966000Y-130810000D03*
D11*
X46410000Y-96050000D03*
D12*
X46410000Y-88430000D03*
D11*
X73406000Y-76454000D03*
D12*
X65786000Y-76454000D03*
D11*
X116078000Y-127762000D03*
D12*
X116078000Y-120142000D03*
D11*
X108966000Y-134112000D03*
D12*
X116586000Y-134112000D03*
D11*
X106680000Y-58928000D03*
D12*
X99060000Y-58928000D03*
D11*
X106680000Y-68834000D03*
D12*
X99060000Y-68834000D03*
D11*
X106680000Y-65532000D03*
D12*
X99060000Y-65532000D03*
D11*
X106680000Y-62230000D03*
D12*
X99060000Y-62230000D03*
D11*
X54356000Y-121666000D03*
D12*
X61976000Y-121666000D03*
D11*
X54870000Y-124220000D03*
D12*
X62490000Y-124220000D03*
D11*
X119470000Y-122600000D03*
D12*
X119470000Y-114980000D03*
D13*
X127350000Y-135930000D03*
D11*
X129850000Y-135930000D03*
X52070000Y-64770000D03*
X52070000Y-62270000D03*
D14*
X102180000Y-47360000D03*
D15*
X104720000Y-47360000D03*
D11*
X123650000Y-116900000D03*
X123650000Y-114400000D03*
X120760000Y-107880000D03*
X123260000Y-107880000D03*
X88646000Y-100076000D03*
X86146000Y-100076000D03*
D13*
X95504000Y-97282000D03*
D12*
X95504000Y-89662000D03*
D13*
X98298000Y-101600000D03*
D12*
X98298000Y-93980000D03*
D11*
X95504000Y-107442000D03*
D12*
X95504000Y-99822000D03*
D11*
X101390000Y-101560000D03*
D12*
X101390000Y-93940000D03*
D11*
X104394000Y-96774000D03*
D12*
X112014000Y-96774000D03*
D11*
X104394000Y-99822000D03*
D12*
X112014000Y-99822000D03*
D31*
X81788000Y-101092000D03*
X81788000Y-105972000D03*
D11*
X111450000Y-51610000D03*
D12*
X101290000Y-51610000D03*
D31*
X131384000Y-56642000D03*
X131384000Y-54102000D03*
D32*
X136464000Y-51562000D03*
X136464000Y-61722000D03*
D22*
X134112000Y-58928000D03*
D23*
X134112000Y-53848000D03*
D16*
X127762000Y-72390000D03*
D17*
X120142000Y-72390000D03*
D19*
X120152000Y-61054000D03*
X120152000Y-50894000D03*
X120152000Y-55974000D03*
X127752000Y-55974000D03*
X127752000Y-61054000D03*
X127752000Y-50894000D03*
X120152000Y-68674000D03*
X127752000Y-68674000D03*
D11*
X114950000Y-99690000D03*
X114950000Y-102190000D03*
D13*
X104330000Y-112820000D03*
D12*
X111950000Y-112820000D03*
D13*
X111960000Y-115810000D03*
D12*
X104340000Y-115810000D03*
D13*
X104340000Y-121800000D03*
D12*
X111960000Y-121800000D03*
D11*
X120200000Y-83710000D03*
D12*
X120200000Y-76090000D03*
D11*
X126238000Y-104648000D03*
D12*
X118618000Y-104648000D03*
D11*
X136652000Y-99060000D03*
D12*
X136652000Y-106680000D03*
D11*
X116078000Y-115824000D03*
X116078000Y-110824000D03*
D13*
X137668000Y-75438000D03*
D11*
X135168000Y-75438000D03*
D16*
X123270000Y-76330000D03*
D17*
X130890000Y-76330000D03*
D26*
X137922000Y-69088000D03*
X137922000Y-66548000D03*
D27*
X137922000Y-71628000D03*
D11*
X130556000Y-80264000D03*
D12*
X138176000Y-80264000D03*
D11*
X130870000Y-65880000D03*
D12*
X130870000Y-73500000D03*
D31*
X104394000Y-104648000D03*
X112014000Y-104648000D03*
X104394000Y-107188000D03*
X112014000Y-107188000D03*
X104394000Y-109728000D03*
X112014000Y-109728000D03*
X133858000Y-99822000D03*
X133858000Y-107442000D03*
X131318000Y-99822000D03*
X131318000Y-107442000D03*
X128778000Y-99822000D03*
X128778000Y-107442000D03*
D14*
X103124000Y-126746000D03*
D15*
X105664000Y-126746000D03*
X108204000Y-126746000D03*
D14*
X134112000Y-68072000D03*
D15*
X134112000Y-70612000D03*
D11*
X125950000Y-101340000D03*
D12*
X118330000Y-101340000D03*
M02*
