M48
;DRILL file {KiCad 4.0.7} date 11/22/21 12:15:43
;FORMAT={-:-/ absolute / inch / decimal}
FMAT,2
INCH,TZ
T1C0.016
T2C0.030
T3C0.031
T4C0.035
T5C0.039
T6C0.043
T7C0.047
T8C0.059
T9C0.060
%
G90
G05
M72
T1
X2.0209Y-4.5902
X2.0701Y-4.6169
X2.7685Y-4.1161
X2.776Y-4.1567
X3.322Y-4.1728
X3.3878Y-4.2134
X3.56Y-4.21
X3.6327Y-2.6465
X3.6941Y-4.0823
X3.7181Y-4.1185
X3.7496Y-2.6449
X3.84Y-2.84
X4.1736Y-2.324
X4.19Y-2.9
X4.38Y-2.88
X4.5035Y-5.0394
X4.62Y-2.94
T2
X4.75Y-1.8425
X4.86Y-1.69
X4.86Y-1.99
X4.97Y-1.8425
T3
X1.6394Y-4.9906
X1.689Y-5.1299
X1.6957Y-2.874
X1.7016Y-2.9894
X1.7024Y-3.4799
X1.7024Y-3.7799
X1.7055Y-4.4024
X1.7079Y-4.2701
X1.7874Y-5.1299
X1.7941Y-2.874
X1.8Y-2.9894
X1.8039Y-4.4024
X1.8063Y-4.2701
X1.8272Y-3.4815
X1.8272Y-3.7815
X1.9394Y-4.9906
X2.Y-2.83
X2.Y-3.13
X2.03Y-1.93
X2.05Y-2.4516
X2.05Y-2.55
X2.1Y-2.14
X2.14Y-4.79
X2.15Y-3.25
X2.15Y-3.35
X2.15Y-3.45
X2.15Y-3.55
X2.15Y-3.65
X2.15Y-3.75
X2.15Y-3.85
X2.15Y-3.95
X2.15Y-4.05
X2.15Y-4.15
X2.15Y-4.25
X2.15Y-4.35
X2.15Y-4.45
X2.15Y-4.55
X2.1602Y-4.8906
X2.1602Y-5.1138
X2.1626Y-5.0016
X2.1984Y-2.14
X2.2634Y-2.8823
X2.33Y-1.93
X2.33Y-2.14
X2.4284Y-2.14
X2.44Y-4.79
X2.45Y-3.25
X2.45Y-3.35
X2.45Y-3.45
X2.45Y-3.55
X2.45Y-3.65
X2.45Y-3.75
X2.45Y-3.85
X2.45Y-3.95
X2.45Y-4.05
X2.45Y-4.15
X2.45Y-4.25
X2.45Y-4.35
X2.45Y-4.45
X2.45Y-4.55
X2.4602Y-4.8906
X2.4602Y-5.1138
X2.4626Y-5.0016
X2.55Y-2.0916
X2.55Y-2.19
X2.5634Y-2.8823
X2.59Y-3.01
X2.59Y-3.15
X2.5921Y-4.7024
X2.5992Y-3.9398
X2.6161Y-4.0799
X2.6244Y-4.3031
X2.68Y-2.48
X2.68Y-2.58
X2.68Y-2.68
X2.68Y-2.78
X2.6898Y-4.5831
X2.6976Y-3.9398
X2.6992Y-2.8913
X2.7Y-3.2705
X2.71Y-2.26
X2.71Y-3.5479
X2.71Y-3.74
X2.7228Y-4.3031
X2.79Y-1.9216
X2.79Y-2.02
X2.7976Y-2.8913
X2.8084Y-2.26
X2.89Y-3.01
X2.89Y-3.15
X2.89Y-3.4
X2.89Y-3.5969
X2.89Y-3.7231
X2.89Y-3.92
X2.8921Y-4.7024
X2.9161Y-4.0799
X2.9224Y-4.2976
X2.98Y-2.48
X2.98Y-2.58
X2.98Y-2.68
X2.98Y-2.78
X2.9898Y-4.5831
X2.99Y-2.2
X3.Y-3.2705
X3.0067Y-5.1106
X3.0209Y-4.2976
X3.07Y-2.91
X3.07Y-3.01
X3.07Y-3.11
X3.09Y-3.27
X3.1Y-2.66
X3.1Y-2.7584
X3.13Y-4.59
X3.15Y-4.45
X3.22Y-3.98
X3.22Y-4.1721
X3.2209Y-2.0669
X3.2284Y-4.59
X3.23Y-2.56
X3.23Y-2.7569
X3.2933Y-2.8709
X3.2933Y-3.1709
X3.3067Y-5.1106
X3.3193Y-2.0669
X3.36Y-2.46
X3.36Y-2.76
X3.3665Y-4.8059
X3.3709Y-4.6634
X3.39Y-2.2
X3.3916Y-3.94
X3.4Y-2.92
X3.41Y-3.13
X3.44Y-2.
X3.45Y-4.45
X3.4816Y-2.73
X3.49Y-3.27
X3.49Y-3.94
X3.5Y-2.92
X3.55Y-2.13
X3.55Y-2.53
X3.58Y-2.73
X3.6Y-2.92
X3.63Y-3.33
X3.6369Y-2.
X3.6898Y-2.1929
X3.69Y-2.32
X3.69Y-2.45
X3.69Y-2.58
X3.69Y-2.71
X3.69Y-2.83
X3.7284Y-3.33
X3.73Y-2.02
X3.76Y-2.99
X3.76Y-3.53
X3.76Y-3.83
X3.76Y-3.93
X3.76Y-4.23
X3.7665Y-4.8059
X3.77Y-1.87
X3.7709Y-4.6634
X3.78Y-1.72
X3.81Y-3.13
X3.8584Y-2.99
X3.87Y-3.7
X3.87Y-4.
X3.88Y-5.18
X3.88Y-5.3769
X3.93Y-3.42
X3.93Y-3.5184
X3.9669Y-1.87
X3.9731Y-2.98
X3.9731Y-3.11
X3.98Y-3.25
X3.9898Y-2.1929
X3.99Y-2.32
X3.99Y-2.45
X3.99Y-2.58
X3.99Y-2.71
X3.99Y-2.83
X3.9917Y-3.6984
X3.9917Y-3.9984
X4.01Y-5.18
X4.01Y-5.3769
X4.08Y-3.25
X4.09Y-3.43
X4.09Y-3.56
X4.1075Y-4.4417
X4.1079Y-4.5594
X4.1079Y-4.7953
X4.1094Y-4.6768
X4.11Y-3.81
X4.11Y-3.93
X4.11Y-4.12
X4.11Y-4.22
X4.11Y-4.32
X4.12Y-2.22
X4.12Y-2.41
X4.12Y-2.6
X4.12Y-2.79
X4.13Y-2.02
X4.14Y-1.86
X4.17Y-2.98
X4.17Y-3.11
X4.18Y-1.72
X4.18Y-3.25
X4.1854Y-5.3087
X4.1854Y-5.4071
X4.22Y-2.22
X4.22Y-2.41
X4.22Y-2.6
X4.22Y-2.79
X4.2616Y-2.02
X4.28Y-1.7
X4.28Y-3.16
X4.2916Y-3.68
X4.3Y-2.9316
X4.3Y-3.03
X4.32Y-2.22
X4.32Y-2.41
X4.32Y-2.6
X4.32Y-2.79
X4.3369Y-1.86
X4.36Y-2.02
X4.36Y-5.13
X4.36Y-5.43
X4.39Y-3.43
X4.39Y-3.56
X4.39Y-3.68
X4.4075Y-4.4417
X4.4079Y-4.5594
X4.4079Y-4.7953
X4.4094Y-4.6768
X4.41Y-3.81
X4.41Y-3.93
X4.41Y-4.12
X4.41Y-4.22
X4.41Y-4.32
X4.43Y-2.36
X4.43Y-2.66
X4.45Y-2.75
X4.45Y-3.05
X4.47Y-5.13
X4.47Y-5.26
X4.47Y-5.39
X4.5138Y-3.4898
X4.5138Y-3.7898
X4.5256Y-3.9248
X4.5256Y-4.0232
X4.58Y-2.25
X4.58Y-2.3484
X4.58Y-3.16
X4.58Y-4.17
X4.58Y-4.47
X4.59Y-2.46
X4.59Y-2.56
X4.59Y-2.66
X4.59Y-2.74
X4.59Y-3.04
X4.6Y-4.71
X4.6Y-5.01
X4.6185Y-3.6898
X4.6316Y-4.6
X4.6587Y-3.9898
X4.67Y-4.12
X4.68Y-1.7
X4.685Y-3.3406
X4.6921Y-4.2441
X4.7169Y-3.5138
X4.73Y-4.6
X4.74Y-4.71
X4.74Y-5.01
X4.77Y-4.37
X4.77Y-4.4684
X4.77Y-5.13
X4.77Y-5.26
X4.77Y-5.39
X4.78Y-2.11
X4.87Y-4.61
X4.87Y-4.91
X4.889Y-4.2441
X4.9091Y-3.5138
X4.91Y-5.38
X4.9185Y-3.6898
X4.9268Y-5.0193
X4.9268Y-5.2161
X4.9416Y-4.42
X4.9587Y-3.9898
X4.97Y-4.12
X4.97Y-4.61
X4.97Y-4.91
X4.985Y-3.3406
X5.0217Y-3.6791
X5.0217Y-3.7776
X5.04Y-4.42
X5.0616Y-5.04
X5.07Y-3.93
X5.07Y-4.23
X5.07Y-4.61
X5.07Y-4.91
X5.07Y-5.21
X5.08Y-2.11
X5.14Y-3.16
X5.15Y-4.34
X5.15Y-4.47
X5.1524Y-2.5937
X5.1524Y-2.8937
X5.16Y-5.04
X5.1684Y-5.21
X5.17Y-3.93
X5.17Y-4.23
X5.17Y-4.61
X5.17Y-4.91
X5.21Y-5.38
X5.27Y-3.93
X5.27Y-4.23
X5.3216Y-2.97
X5.38Y-3.9
X5.38Y-4.2
X5.42Y-2.97
X5.43Y-2.62
X5.43Y-2.72
X5.43Y-2.82
X5.44Y-3.16
X5.45Y-4.34
X5.45Y-4.47
T4
X2.43Y-1.93
X2.53Y-1.93
X4.5Y-1.88
X4.6Y-1.88
X5.1826Y-2.13
X5.1826Y-2.23
T5
X2.0197Y-1.7469
X2.1055Y-5.3724
X2.1197Y-1.7469
X2.2055Y-5.3724
X2.2197Y-1.7469
X2.3055Y-5.3724
X2.4055Y-5.3724
X2.5055Y-5.3724
X2.6055Y-5.3724
X2.7055Y-5.3724
X2.8055Y-5.3724
X2.9055Y-5.3724
X3.0055Y-5.3724
X3.1055Y-5.3724
X3.2Y-3.47
X3.2Y-3.57
X3.2Y-3.67
X3.2055Y-5.3724
X3.3Y-3.47
X3.3Y-3.57
X3.3Y-3.67
X3.3055Y-5.3724
X3.4055Y-5.3724
X3.5Y-1.72
X3.5Y-1.86
X3.5055Y-4.9772
X3.5055Y-5.3724
X3.5937Y-3.7059
X3.5937Y-3.8059
X3.6Y-1.72
X3.6Y-1.86
X3.6055Y-4.9772
X3.6055Y-5.3724
X3.7055Y-4.9772
X3.8055Y-4.9772
X4.06Y-4.99
X4.16Y-4.99
X4.26Y-4.99
X4.35Y-3.29
X4.45Y-3.29
X4.55Y-3.29
X5.13Y-1.7
X5.13Y-1.8
X5.28Y-2.68
X5.28Y-2.78
T6
X1.6783Y-4.5315
X1.6783Y-4.7874
X1.6827Y-3.1126
X1.6827Y-3.3685
X1.6843Y-3.8866
X1.6843Y-4.1425
X1.7039Y-2.4925
X1.7039Y-2.7484
X1.8555Y-4.5315
X1.8555Y-4.7874
X1.8598Y-3.1126
X1.8598Y-3.3685
X1.8614Y-3.8866
X1.8614Y-4.1425
X1.8811Y-2.4925
X1.8811Y-2.7484
X2.1815Y-2.3209
X2.4815Y-2.3209
X2.9941Y-4.7228
X2.9941Y-4.9
X3.25Y-4.7228
X3.25Y-4.9
X4.69Y-3.21
X4.73Y-3.08
X4.7304Y-2.2337
X4.7304Y-2.4337
X4.7304Y-2.6337
X4.7304Y-2.9337
X4.99Y-3.21
X5.0296Y-2.2337
X5.0296Y-2.4337
X5.0296Y-2.6337
X5.0296Y-2.9337
X5.03Y-3.08
T7
X2.47Y-1.73
X2.6555Y-4.9268
X2.6669Y-1.73
X2.7539Y-5.1252
X2.8524Y-4.9268
X2.8637Y-1.73
X5.3551Y-4.626
X5.3551Y-4.8228
X5.3551Y-5.0197
T8
X5.14Y-3.33
X5.14Y-3.47
X5.14Y-3.61
X5.14Y-3.74
X5.44Y-3.33
X5.44Y-3.47
X5.44Y-3.61
X5.44Y-3.74
T9
X2.23Y-2.58
X2.43Y-2.58
X3.09Y-1.8
X3.29Y-1.8
X5.29Y-2.12
X5.29Y-2.32
T5
X1.6938Y-2.0806G85X1.6938Y-2.1594
G05
X1.7725Y-2.305G85X1.8513Y-2.305
G05
X1.93Y-2.0806G85X1.93Y-2.1594
G05
T0
M30
