M48
;DRILL file {KiCad 4.0.7} date 12/18/21 00:47:20
;FORMAT={-:-/ absolute / metric / decimal}
FMAT,2
METRIC,TZ
T1C0.400
T2C0.762
T3C0.800
T4C0.900
T5C1.000
T6C1.100
T7C1.200
T8C1.500
T9C1.520
%
G90
G05
M71
T1
X52.185Y-107.225
X58.725Y-105.845
X65.295Y-104.415
X88.985Y-80.715
X91.565Y-78.005
X95.055Y-84.475
X95.175Y-80.985
X96.835Y-97.685
X97.585Y-93.935
X97.745Y-86.955
T2
X170.755Y-140.285
X174.501Y-137.491
X174.501Y-143.079
X178.375Y-140.285
T3
X51.205Y-75.075
X52.005Y-94.855
X52.005Y-98.225
X52.275Y-101.705
X52.275Y-109.325
X53.705Y-75.075
X54.535Y-132.815
X55.495Y-101.725
X55.495Y-109.345
X57.035Y-132.815
X58.045Y-75.055
X58.825Y-101.725
X58.825Y-109.345
X59.625Y-94.855
X59.625Y-98.225
X60.225Y-134.535
X60.545Y-75.055
X61.325Y-61.915
X62.165Y-101.735
X62.165Y-109.355
X62.215Y-122.795
X62.725Y-134.535
X63.145Y-94.495
X63.155Y-98.045
X63.825Y-61.915
X64.315Y-76.545
X64.355Y-73.135
X64.715Y-122.795
X64.825Y-79.515
X64.825Y-84.515
X65.465Y-101.765
X65.465Y-109.385
X66.665Y-127.495
X66.665Y-129.995
X68.145Y-94.495
X68.155Y-98.045
X68.595Y-79.515
X68.595Y-84.515
X68.675Y-101.765
X68.675Y-109.385
X70.325Y-122.575
X71.955Y-101.745
X71.955Y-109.365
X72.775Y-92.125
X72.775Y-97.005
X72.815Y-126.905
X72.815Y-129.405
X72.825Y-122.575
X74.475Y-76.545
X74.515Y-73.135
X75.185Y-67.215
X75.185Y-69.715
X75.215Y-101.795
X75.215Y-109.415
X76.055Y-123.705
X76.055Y-126.245
X76.055Y-128.785
X76.055Y-131.325
X78.315Y-66.145
X78.375Y-63.155
X78.55Y-136.9
X78.675Y-77.165
X78.675Y-79.705
X78.675Y-82.245
X78.675Y-84.785
X78.675Y-87.325
X78.675Y-89.865
X78.675Y-92.405
X78.675Y-94.945
X78.675Y-97.485
X78.675Y-100.025
X78.675Y-102.565
X78.675Y-105.105
X78.675Y-107.645
X78.675Y-110.185
X79.725Y-116.955
X80.85Y-120.2
X81.05Y-136.9
X82.645Y-113.545
X83.35Y-120.2
X83.675Y-123.705
X83.675Y-126.245
X83.675Y-128.785
X83.675Y-131.325
X85.935Y-66.145
X85.995Y-63.155
X86.295Y-77.165
X86.295Y-79.705
X86.295Y-82.245
X86.295Y-84.785
X86.295Y-87.325
X86.295Y-89.865
X86.295Y-92.405
X86.295Y-94.945
X86.295Y-97.485
X86.295Y-100.025
X86.295Y-102.565
X86.295Y-105.105
X86.295Y-107.645
X86.295Y-110.185
X87.1Y-120.48
X87.1Y-128.1
X87.345Y-116.955
X89.485Y-94.995
X89.55Y-134.65
X89.725Y-82.825
X89.725Y-85.325
X89.795Y-73.985
X90.265Y-113.545
X91.045Y-117.9
X91.85Y-124.05
X91.85Y-131.67
X91.985Y-94.995
X92.05Y-134.65
X92.295Y-73.985
X93.585Y-117.9
X95.575Y-127.88
X95.575Y-135.5
X95.6Y-122.4
X95.6Y-124.9
X96.095Y-72.175
X96.095Y-79.795
X96.125Y-117.9
X96.975Y-66.075
X96.975Y-68.875
X98.775Y-88.515
X99.075Y-66.075
X99.285Y-72.165
X99.285Y-79.785
X99.3Y-129.43
X99.3Y-137.05
X99.325Y-119.375
X99.325Y-126.995
X99.685Y-91.845
X99.685Y-99.465
X101.675Y-66.075
X102.575Y-117.7
X102.815Y-74.625
X102.815Y-84.785
X103.075Y-91.315
X103.075Y-101.475
X103.375Y-123.375
X103.375Y-130.995
X103.775Y-66.075
X103.775Y-68.875
X105.075Y-117.7
X106.405Y-108.855
X106.415Y-106.075
X106.6Y-125.7
X106.6Y-133.32
X106.925Y-92.095
X106.925Y-99.715
X107.9Y-136.55
X107.9Y-139.05
X108.075Y-82.465
X108.075Y-84.965
X108.9Y-75.475
X108.9Y-77.975
X108.935Y-88.515
X109.55Y-119.725
X109.95Y-123.475
X109.95Y-131.095
X110.255Y-92.135
X110.255Y-99.755
X110.655Y-115.105
X111.355Y-63.825
X111.355Y-89.35
X111.975Y-67.7
X112.05Y-119.725
X112.4Y-135.5
X112.6Y-70.655
X112.6Y-78.275
X112.825Y-83.225
X112.825Y-85.725
X113.155Y-115.105
X113.325Y-122.5
X113.325Y-127.5
X114.Y-130.975
X114.025Y-108.855
X114.035Y-106.075
X114.9Y-135.5
X115.Y-95.225
X115.Y-100.105
X116.5Y-130.975
X116.575Y-116.6
X116.68Y-120.03
X116.68Y-122.57
X116.68Y-125.11
X116.68Y-127.65
X116.77Y-72.125
X117.825Y-105.7
X117.825Y-113.32
X118.975Y-63.825
X118.975Y-89.35
X118.995Y-59.255
X119.275Y-77.825
X119.3Y-83.525
X119.31Y-72.125
X119.595Y-67.7
X121.175Y-105.7
X121.175Y-113.32
X121.575Y-63.605
X121.85Y-72.125
X121.905Y-101.045
X122.1Y-89.25
X122.265Y-68.645
X122.63Y-134.875
X122.655Y-131.3
X124.115Y-63.605
X124.155Y-77.825
X124.18Y-83.525
X124.195Y-116.6
X124.3Y-120.03
X124.3Y-122.57
X124.3Y-125.11
X124.3Y-127.65
X124.405Y-101.045
X124.6Y-89.25
X124.705Y-72.875
X125.3Y-111.55
X126.615Y-59.255
X126.655Y-63.605
X127.265Y-68.645
X129.48Y-66.35
X129.5Y-94.9
X129.55Y-98.175
X129.875Y-69.725
X129.955Y-116.25
X130.2Y-102.075
X130.22Y-106.675
X130.25Y-134.875
X130.275Y-131.3
X130.575Y-123.265
X130.575Y-125.765
X132.325Y-72.875
X132.7Y-102.075
X132.76Y-106.675
X132.92Y-111.55
X133.65Y-133.125
X133.65Y-140.745
X134.275Y-130.45
X134.875Y-69.725
X135.3Y-106.675
X135.4Y-120.15
X135.4Y-127.77
X136.775Y-130.45
X137.1Y-66.35
X137.12Y-94.9
X137.17Y-98.175
X137.575Y-116.25
X138.25Y-137.8
X138.25Y-140.3
X138.875Y-105.855
X138.875Y-113.475
X139.625Y-61.575
X139.63Y-64.725
X139.775Y-68.65
X139.775Y-71.15
X139.875Y-94.805
X139.875Y-102.425
X139.875Y-119.495
X139.875Y-122.035
X139.875Y-124.575
X140.35Y-116.275
X140.425Y-127.075
X140.425Y-134.695
X140.455Y-74.025
X140.455Y-81.645
X142.175Y-105.8
X142.175Y-113.42
X142.48Y-140.325
X142.85Y-116.275
X143.Y-94.88
X143.Y-102.5
X144.775Y-69.6
X144.95Y-131.945
X144.95Y-134.485
X144.95Y-137.025
X145.075Y-120.55
X145.075Y-128.17
X145.825Y-89.725
X145.825Y-92.225
X145.875Y-83.35
X145.875Y-85.85
X147.245Y-61.575
X147.25Y-64.725
X147.315Y-69.6
X148.325Y-105.8
X148.365Y-96.56
X148.365Y-99.1
X148.365Y-101.64
X148.675Y-108.43
X148.675Y-116.05
X148.75Y-92.35
X148.855Y-81.825
X148.88Y-78.6
X148.93Y-85.025
X149.25Y-132.525
X149.25Y-137.525
X149.35Y-119.9
X149.35Y-130.06
X149.855Y-69.6
X150.1Y-140.325
X151.18Y-115.775
X151.55Y-61.9
X151.55Y-64.4
X153.275Y-125.73
X153.275Y-133.35
X153.35Y-120.275
X153.35Y-122.775
X153.575Y-88.2
X154.425Y-136.55
X154.425Y-139.05
X155.945Y-105.8
X155.985Y-96.56
X155.985Y-99.1
X155.985Y-101.64
X156.075Y-88.2
X156.325Y-75.125
X156.37Y-92.35
X156.475Y-81.825
X156.5Y-78.6
X156.55Y-85.025
X157.55Y-132.025
X157.575Y-120.625
X158.45Y-105.625
X158.45Y-113.245
X158.625Y-71.775
X158.725Y-81.6
X158.755Y-78.325
X158.755Y-85.075
X158.8Y-115.775
X158.925Y-95.9
X160.2Y-135.675
X160.28Y-61.95
X160.4Y-66.725
X160.475Y-87.845
X160.475Y-90.385
X160.475Y-92.925
X160.745Y-99.915
X161.125Y-71.775
X161.735Y-106.615
X161.735Y-114.235
X162.575Y-128.425
X162.65Y-124.45
X162.94Y-66.725
X164.275Y-106.615
X164.275Y-114.235
X165.48Y-66.725
X165.745Y-99.915
X166.345Y-81.6
X166.375Y-78.325
X166.375Y-85.075
X166.375Y-90.05
X166.375Y-92.55
X166.485Y-75.125
X166.545Y-95.9
X166.815Y-106.615
X166.815Y-114.235
X167.575Y-128.425
X167.65Y-124.45
X167.71Y-132.025
X167.735Y-120.625
X167.82Y-135.675
X167.9Y-61.95
X168.6Y-65.6
X169.Y-72.9
X169.345Y-99.885
X169.355Y-94.1
X169.365Y-103.165
X171.525Y-120.55
X171.525Y-125.55
X171.77Y-89.625
X171.8Y-77.55
X174.31Y-89.625
X174.34Y-77.55
X176.22Y-65.6
X176.3Y-119.225
X176.3Y-129.385
X176.62Y-72.9
X176.85Y-89.625
X176.88Y-77.55
X176.965Y-99.885
X176.975Y-94.1
X176.985Y-103.165
X179.Y-73.
X179.375Y-77.525
X179.445Y-89.55
X179.68Y-94.15
X181.915Y-77.525
X181.985Y-89.55
X184.455Y-77.525
X184.525Y-89.55
X185.025Y-120.125
X186.62Y-73.
X187.3Y-94.15
X187.525Y-120.125
T4
X57.095Y-90.705
X59.635Y-90.705
X113.455Y-59.515
X115.995Y-59.515
X161.405Y-138.815
X161.405Y-141.355
X181.945Y-126.885
X181.945Y-129.425
T5
X47.175Y-72.185
X47.175Y-74.725
X47.175Y-77.265
X47.175Y-79.805
X47.175Y-82.345
X47.175Y-84.885
X47.175Y-87.425
X47.175Y-89.965
X47.175Y-92.505
X47.175Y-95.045
X47.175Y-97.585
X47.175Y-100.125
X47.175Y-102.665
X47.175Y-105.205
X47.175Y-107.745
X47.175Y-110.285
X63.025Y-69.775
X65.565Y-69.775
X68.105Y-69.775
X70.645Y-69.775
X82.295Y-59.705
X84.835Y-59.705
X87.375Y-59.705
X92.195Y-100.095
X92.195Y-102.635
X92.195Y-105.175
X93.115Y-84.835
X93.115Y-87.375
X93.115Y-89.915
X94.735Y-100.095
X94.735Y-102.635
X94.735Y-105.175
X100.855Y-105.745
X100.855Y-108.285
X140.475Y-86.445
X140.475Y-88.985
X140.475Y-91.525
X157.135Y-125.065
X157.135Y-127.605
X157.425Y-62.11
X157.425Y-64.65
X171.675Y-114.835
X171.675Y-117.375
X173.045Y-133.925
X175.585Y-133.925
X175.855Y-107.145
X175.855Y-109.685
X175.855Y-112.225
T6
X51.045Y-71.325
X54.325Y-112.815
X54.325Y-119.315
X54.445Y-122.985
X54.445Y-129.485
X58.665Y-71.325
X58.825Y-112.815
X58.825Y-119.315
X58.945Y-122.985
X58.945Y-129.485
X62.365Y-112.925
X62.365Y-119.425
X66.865Y-112.925
X66.865Y-119.425
X70.745Y-113.075
X70.745Y-119.575
X75.245Y-113.075
X75.245Y-119.575
X78.825Y-69.115
X78.825Y-73.615
X85.325Y-69.115
X85.325Y-73.615
X129.4Y-61.525
X137.02Y-61.525
X170.705Y-61.975
X178.325Y-61.975
X179.15Y-65.725
X180.175Y-98.845
X180.175Y-106.465
X180.175Y-111.545
X180.175Y-116.625
X186.77Y-65.725
X187.775Y-98.845
X187.775Y-106.465
X187.775Y-111.545
X187.775Y-116.625
T7
X53.345Y-78.335
X53.345Y-83.335
X58.385Y-80.835
X85.825Y-138.75
X90.825Y-138.75
X95.825Y-138.75
X118.65Y-138.875
X123.65Y-138.875
X128.65Y-138.875
T8
X129.275Y-76.675
X129.3Y-80.8
X129.35Y-85.35
X129.375Y-89.6
X136.895Y-76.675
X136.92Y-80.8
X136.97Y-85.35
X136.995Y-89.6
T9
X68.655Y-60.295
X68.695Y-137.195
X73.735Y-60.295
X73.775Y-137.195
X184.673Y-126.631
X184.673Y-131.711
T5
X50.255Y-63.305G85X50.255Y-65.305
G05
X55.955Y-61.305G85X53.955Y-61.305
G05
X55.955Y-67.305G85X53.955Y-67.305
G05
X93.525Y-63.975G85X93.525Y-62.475
G05
X101.375Y-62.425G85X99.375Y-62.425
G05
X107.225Y-63.975G85X107.225Y-62.475
G05
T0
M30
