G04 #@! TF.FileFunction,Copper,L2,Bot,Signal*
%FSLAX46Y46*%
G04 Gerber Fmt 4.6, Leading zero omitted, Abs format (unit mm)*
G04 Created by KiCad (PCBNEW 4.0.7) date 11/07/21 16:31:05*
%MOMM*%
%LPD*%
G01*
G04 APERTURE LIST*
%ADD10C,0.100000*%
%ADD11C,1.600000*%
%ADD12O,1.600000X1.600000*%
%ADD13R,1.600000X1.600000*%
%ADD14R,1.700000X1.700000*%
%ADD15O,1.700000X1.700000*%
%ADD16R,2.200000X2.200000*%
%ADD17O,2.200000X2.200000*%
%ADD18R,1.800000X1.800000*%
%ADD19C,1.800000*%
%ADD20R,2.500000X2.500000*%
%ADD21O,2.500000X2.500000*%
%ADD22R,3.000000X3.000000*%
%ADD23C,3.000000*%
%ADD24R,3.500000X3.500000*%
%ADD25C,1.520000*%
%ADD26R,1.520000X1.520000*%
%ADD27C,2.500000*%
%ADD28C,2.000000*%
%ADD29O,1.800000X1.800000*%
%ADD30C,1.500000*%
%ADD31C,0.600000*%
%ADD32C,0.350000*%
%ADD33C,0.500000*%
%ADD34C,0.250000*%
G04 APERTURE END LIST*
D10*
D11*
X95250000Y-61976000D03*
D12*
X95250000Y-51816000D03*
D13*
X112000000Y-118790000D03*
D12*
X104380000Y-118790000D03*
D11*
X119920000Y-136850000D03*
X122420000Y-136850000D03*
D14*
X115570000Y-84836000D03*
D15*
X115570000Y-82296000D03*
X115570000Y-79756000D03*
D11*
X125510000Y-94910000D03*
D12*
X117890000Y-94910000D03*
D11*
X109420000Y-137350000D03*
D12*
X117040000Y-137350000D03*
D13*
X130420000Y-120510000D03*
D12*
X122800000Y-128130000D03*
X127880000Y-120510000D03*
X125340000Y-128130000D03*
X125340000Y-120510000D03*
X127880000Y-128130000D03*
X122800000Y-120510000D03*
X130420000Y-128130000D03*
D11*
X82804000Y-70358000D03*
X85304000Y-70358000D03*
X66020000Y-100070000D03*
X68520000Y-100070000D03*
X79502000Y-116586000D03*
X82002000Y-116586000D03*
D13*
X57150000Y-53340000D03*
D11*
X59650000Y-53340000D03*
X98552000Y-131572000D03*
X98552000Y-136572000D03*
X101854000Y-131572000D03*
X101854000Y-136572000D03*
D13*
X64770000Y-53340000D03*
D11*
X67270000Y-53340000D03*
X66660000Y-109300000D03*
X69160000Y-109300000D03*
X73406000Y-99568000D03*
X73406000Y-94568000D03*
X73406000Y-86360000D03*
X73406000Y-91360000D03*
X45820000Y-111820000D03*
X43320000Y-111820000D03*
X45880000Y-108460000D03*
X43380000Y-108460000D03*
D13*
X99822000Y-86868000D03*
D11*
X99822000Y-89368000D03*
X111506000Y-93472000D03*
X109006000Y-93472000D03*
D13*
X71440000Y-55590000D03*
D11*
X73940000Y-55590000D03*
X45720000Y-75930000D03*
X43220000Y-75930000D03*
X45570000Y-73000000D03*
X43070000Y-73000000D03*
D13*
X82296000Y-56134000D03*
D11*
X82296000Y-53634000D03*
X92202000Y-57150000D03*
X92202000Y-59650000D03*
X108712000Y-77724000D03*
X103712000Y-77724000D03*
X111506000Y-78994000D03*
X111506000Y-83994000D03*
X116840000Y-76200000D03*
X114340000Y-76200000D03*
X129680000Y-131370000D03*
X127180000Y-131370000D03*
X120540000Y-47200000D03*
X118040000Y-47200000D03*
X96580000Y-42860000D03*
X96580000Y-47860000D03*
X114190000Y-47270000D03*
X109190000Y-47270000D03*
X131090000Y-43000000D03*
X126090000Y-43000000D03*
X76730000Y-109160000D03*
X74230000Y-109160000D03*
X65786000Y-73152000D03*
X65786000Y-70652000D03*
X126492000Y-117348000D03*
X131492000Y-117348000D03*
D16*
X55410000Y-58950000D03*
D17*
X63030000Y-58950000D03*
D13*
X73460000Y-119440000D03*
D12*
X65840000Y-119440000D03*
D18*
X77340000Y-49450000D03*
D19*
X74800000Y-49450000D03*
D20*
X129780000Y-91620000D03*
D21*
X137400000Y-91620000D03*
D20*
X129770000Y-88160000D03*
D21*
X137390000Y-88160000D03*
D20*
X129760000Y-84650000D03*
D21*
X137380000Y-84650000D03*
D20*
X129760000Y-95080000D03*
D21*
X137380000Y-95080000D03*
D22*
X61722000Y-65532000D03*
D23*
X56642000Y-65532000D03*
D24*
X50292000Y-53848000D03*
X44292000Y-53848000D03*
X47292000Y-58548000D03*
D14*
X96660000Y-126420000D03*
D15*
X94120000Y-126420000D03*
X91580000Y-126420000D03*
X89040000Y-126420000D03*
D22*
X86870000Y-45650000D03*
D23*
X91950000Y-45650000D03*
D11*
X95780000Y-118450000D03*
D12*
X85620000Y-118450000D03*
D11*
X95670000Y-122070000D03*
D12*
X85510000Y-122070000D03*
D11*
X96012000Y-78486000D03*
D12*
X85852000Y-78486000D03*
D11*
X89154000Y-51816000D03*
D12*
X89154000Y-61976000D03*
D11*
X108712000Y-73914000D03*
D12*
X98552000Y-73914000D03*
D11*
X100000000Y-43000000D03*
D12*
X110160000Y-43000000D03*
D11*
X123660000Y-43000000D03*
D12*
X113500000Y-43000000D03*
D11*
X88646000Y-83058000D03*
D12*
X78486000Y-83058000D03*
D25*
X90424000Y-67564000D03*
X90424000Y-70104000D03*
D26*
X90424000Y-65024000D03*
D25*
X103632000Y-82296000D03*
X101092000Y-82296000D03*
D26*
X106172000Y-82296000D03*
D25*
X113538000Y-56642000D03*
X116078000Y-56642000D03*
D26*
X110998000Y-56642000D03*
D25*
X78486000Y-74930000D03*
X81026000Y-74930000D03*
D26*
X75946000Y-74930000D03*
D27*
X75612000Y-43942000D03*
X80612000Y-43942000D03*
X70612000Y-43942000D03*
D28*
X82550000Y-119960000D03*
X82550000Y-124460000D03*
X76050000Y-119960000D03*
X76050000Y-124460000D03*
X42630000Y-115100000D03*
X47130000Y-115100000D03*
X42630000Y-121600000D03*
X47130000Y-121600000D03*
X42740000Y-79060000D03*
X47240000Y-79060000D03*
X42740000Y-85560000D03*
X47240000Y-85560000D03*
X43280000Y-63310000D03*
X47780000Y-63310000D03*
X43280000Y-69810000D03*
X47780000Y-69810000D03*
X42780000Y-98720000D03*
X47280000Y-98720000D03*
X42780000Y-105220000D03*
X47280000Y-105220000D03*
D18*
X54610000Y-44450000D03*
D29*
X57150000Y-44450000D03*
X59690000Y-44450000D03*
D30*
X68834000Y-94996000D03*
X68834000Y-90116000D03*
X119610000Y-90360000D03*
X124490000Y-90360000D03*
D13*
X62230000Y-115570000D03*
D12*
X54610000Y-82550000D03*
X62230000Y-113030000D03*
X54610000Y-85090000D03*
X62230000Y-110490000D03*
X54610000Y-87630000D03*
X62230000Y-107950000D03*
X54610000Y-90170000D03*
X62230000Y-105410000D03*
X54610000Y-92710000D03*
X62230000Y-102870000D03*
X54610000Y-95250000D03*
X62230000Y-100330000D03*
X54610000Y-97790000D03*
X62230000Y-97790000D03*
X54610000Y-100330000D03*
X62230000Y-95250000D03*
X54610000Y-102870000D03*
X62230000Y-92710000D03*
X54610000Y-105410000D03*
X62230000Y-90170000D03*
X54610000Y-107950000D03*
X62230000Y-87630000D03*
X54610000Y-110490000D03*
X62230000Y-85090000D03*
X54610000Y-113030000D03*
X62230000Y-82550000D03*
X54610000Y-115570000D03*
D14*
X83820000Y-93218000D03*
D15*
X81280000Y-93218000D03*
X83820000Y-90678000D03*
X81280000Y-90678000D03*
X83820000Y-88138000D03*
X81280000Y-88138000D03*
D11*
X79480000Y-64920000D03*
X79480000Y-62420000D03*
D13*
X68790000Y-61580000D03*
D12*
X76410000Y-69200000D03*
X68790000Y-64120000D03*
X76410000Y-66660000D03*
X68790000Y-66660000D03*
X76410000Y-64120000D03*
X68790000Y-69200000D03*
X76410000Y-61580000D03*
D11*
X94996000Y-70104000D03*
X94996000Y-65104000D03*
X98552000Y-77470000D03*
X101052000Y-77470000D03*
D27*
X136020000Y-122500000D03*
X136020000Y-127500000D03*
X136020000Y-117500000D03*
D11*
X68580000Y-72644000D03*
X73580000Y-72644000D03*
D25*
X113792000Y-71120000D03*
X116332000Y-71120000D03*
D26*
X111252000Y-71120000D03*
D25*
X113792000Y-66294000D03*
X116332000Y-66294000D03*
D26*
X111252000Y-66294000D03*
D25*
X113792000Y-61468000D03*
X116332000Y-61468000D03*
D26*
X111252000Y-61468000D03*
D11*
X86110000Y-62750000D03*
X86110000Y-67750000D03*
D13*
X92202000Y-84582000D03*
D11*
X94702000Y-84582000D03*
D27*
X69950000Y-130180000D03*
X67450000Y-125140000D03*
X72450000Y-125140000D03*
D14*
X53480000Y-136460000D03*
D15*
X56020000Y-136460000D03*
X58560000Y-136460000D03*
X61100000Y-136460000D03*
X63640000Y-136460000D03*
X66180000Y-136460000D03*
X68720000Y-136460000D03*
X71260000Y-136460000D03*
X73800000Y-136460000D03*
X76340000Y-136460000D03*
X78880000Y-136460000D03*
X81420000Y-136460000D03*
X83960000Y-136460000D03*
X86500000Y-136460000D03*
X89040000Y-136460000D03*
X91580000Y-136460000D03*
D11*
X42900000Y-130300000D03*
X45400000Y-130300000D03*
D14*
X91280000Y-94130000D03*
D15*
X91280000Y-96670000D03*
D11*
X75940000Y-116410000D03*
D12*
X68320000Y-116410000D03*
D11*
X83990000Y-129810000D03*
D12*
X76370000Y-129810000D03*
D11*
X54930000Y-127040000D03*
D12*
X62550000Y-127040000D03*
D11*
X64540000Y-49340000D03*
D12*
X72160000Y-49340000D03*
D11*
X49260000Y-126760000D03*
D12*
X41640000Y-126760000D03*
D11*
X73406000Y-80010000D03*
D12*
X65786000Y-80010000D03*
D11*
X76200000Y-83070000D03*
D12*
X68580000Y-83070000D03*
D11*
X83650000Y-72920000D03*
D12*
X83650000Y-80540000D03*
D11*
X96012000Y-72898000D03*
D12*
X88392000Y-72898000D03*
D11*
X43240000Y-88390000D03*
D12*
X43240000Y-96010000D03*
D11*
X50830000Y-72470000D03*
D12*
X58450000Y-72470000D03*
D11*
X82870000Y-60150000D03*
D12*
X82870000Y-67770000D03*
D11*
X103886000Y-87122000D03*
D12*
X111506000Y-87122000D03*
D11*
X103886000Y-90424000D03*
D12*
X111506000Y-90424000D03*
D11*
X114808000Y-96266000D03*
D12*
X114808000Y-88646000D03*
D11*
X119560000Y-132320000D03*
D12*
X119560000Y-124700000D03*
D11*
X99060000Y-55626000D03*
D12*
X106680000Y-55626000D03*
D11*
X126880000Y-111120000D03*
D12*
X119260000Y-111120000D03*
D11*
X129540000Y-110998000D03*
D12*
X137160000Y-110998000D03*
D11*
X129540000Y-114300000D03*
D12*
X137160000Y-114300000D03*
D11*
X106172000Y-130048000D03*
D12*
X106172000Y-137668000D03*
D11*
X54870000Y-129890000D03*
D12*
X62490000Y-129890000D03*
D11*
X87630000Y-113030000D03*
D12*
X80010000Y-113030000D03*
D11*
X66450000Y-103630000D03*
D12*
X74070000Y-103630000D03*
D11*
X116586000Y-130810000D03*
D12*
X108966000Y-130810000D03*
D11*
X46410000Y-96050000D03*
D12*
X46410000Y-88430000D03*
D11*
X73406000Y-76454000D03*
D12*
X65786000Y-76454000D03*
D11*
X116078000Y-127762000D03*
D12*
X116078000Y-120142000D03*
D11*
X108966000Y-134112000D03*
D12*
X116586000Y-134112000D03*
D11*
X106680000Y-58928000D03*
D12*
X99060000Y-58928000D03*
D11*
X106680000Y-68834000D03*
D12*
X99060000Y-68834000D03*
D11*
X106680000Y-65532000D03*
D12*
X99060000Y-65532000D03*
D11*
X106680000Y-62230000D03*
D12*
X99060000Y-62230000D03*
D11*
X54356000Y-121666000D03*
D12*
X61976000Y-121666000D03*
D11*
X54870000Y-124220000D03*
D12*
X62490000Y-124220000D03*
D11*
X119470000Y-122600000D03*
D12*
X119470000Y-114980000D03*
D13*
X127350000Y-135930000D03*
D11*
X129850000Y-135930000D03*
X52070000Y-64770000D03*
X52070000Y-62270000D03*
D14*
X102180000Y-47360000D03*
D15*
X104720000Y-47360000D03*
D11*
X123650000Y-116900000D03*
X123650000Y-114400000D03*
X120760000Y-107880000D03*
X123260000Y-107880000D03*
X88646000Y-100076000D03*
X86146000Y-100076000D03*
D13*
X95504000Y-97282000D03*
D12*
X95504000Y-89662000D03*
D13*
X98298000Y-101600000D03*
D12*
X98298000Y-93980000D03*
D11*
X95504000Y-107442000D03*
D12*
X95504000Y-99822000D03*
D11*
X101390000Y-101560000D03*
D12*
X101390000Y-93940000D03*
D11*
X104394000Y-96774000D03*
D12*
X112014000Y-96774000D03*
D11*
X104394000Y-99822000D03*
D12*
X112014000Y-99822000D03*
D30*
X81788000Y-101092000D03*
X81788000Y-105972000D03*
D11*
X111450000Y-51610000D03*
D12*
X101290000Y-51610000D03*
D30*
X131384000Y-56642000D03*
X131384000Y-54102000D03*
D22*
X134112000Y-58928000D03*
D23*
X134112000Y-53848000D03*
D16*
X127762000Y-72390000D03*
D17*
X120142000Y-72390000D03*
D19*
X120152000Y-61054000D03*
X120152000Y-50894000D03*
X120152000Y-55974000D03*
X127752000Y-55974000D03*
X127752000Y-61054000D03*
X127752000Y-50894000D03*
X120152000Y-68674000D03*
X127752000Y-68674000D03*
D11*
X114950000Y-99690000D03*
X114950000Y-102190000D03*
D13*
X104330000Y-112820000D03*
D12*
X111950000Y-112820000D03*
D13*
X111960000Y-115810000D03*
D12*
X104340000Y-115810000D03*
D13*
X104340000Y-121800000D03*
D12*
X111960000Y-121800000D03*
D11*
X120200000Y-83710000D03*
D12*
X120200000Y-76090000D03*
D11*
X126238000Y-104648000D03*
D12*
X118618000Y-104648000D03*
D11*
X136652000Y-99060000D03*
D12*
X136652000Y-106680000D03*
D11*
X116078000Y-115824000D03*
X116078000Y-110824000D03*
D13*
X137668000Y-75438000D03*
D11*
X135168000Y-75438000D03*
D16*
X123270000Y-76330000D03*
D17*
X130890000Y-76330000D03*
D25*
X137922000Y-69088000D03*
X137922000Y-66548000D03*
D26*
X137922000Y-71628000D03*
D11*
X130556000Y-80264000D03*
D12*
X138176000Y-80264000D03*
D11*
X130870000Y-65880000D03*
D12*
X130870000Y-73500000D03*
D30*
X104394000Y-104648000D03*
X112014000Y-104648000D03*
X104394000Y-107188000D03*
X112014000Y-107188000D03*
X104394000Y-109728000D03*
X112014000Y-109728000D03*
X133858000Y-99822000D03*
X133858000Y-107442000D03*
X131318000Y-99822000D03*
X131318000Y-107442000D03*
X128778000Y-99822000D03*
X128778000Y-107442000D03*
D14*
X103124000Y-126746000D03*
D15*
X105664000Y-126746000D03*
X108204000Y-126746000D03*
D14*
X134112000Y-68072000D03*
D15*
X134112000Y-70612000D03*
D11*
X125950000Y-101340000D03*
D12*
X118330000Y-101340000D03*
D31*
X133190000Y-134310000D03*
X102108000Y-73914000D03*
X112522000Y-73406000D03*
X115062000Y-73406000D03*
X51330000Y-116590000D03*
X52580000Y-117270000D03*
X86050000Y-107020000D03*
X70510000Y-105580000D03*
X70320000Y-104550000D03*
X84380000Y-105990000D03*
X90424000Y-106934000D03*
X93830000Y-103690000D03*
X94440000Y-104610000D03*
D32*
X69342000Y-78232000D02*
X61214000Y-78232000D01*
X58450000Y-74960000D02*
X58450000Y-72470000D01*
X61214000Y-78232000D02*
X58450000Y-74960000D01*
X69342000Y-78232000D02*
X74260000Y-82642000D01*
X103124000Y-126746000D02*
X103124000Y-129540000D01*
X104140000Y-130556000D02*
X104140000Y-139192000D01*
X103124000Y-129540000D02*
X104140000Y-130556000D01*
X109420000Y-137350000D02*
X109420000Y-138692000D01*
X109420000Y-138692000D02*
X109920000Y-139192000D01*
X105156000Y-139192000D02*
X104140000Y-139192000D01*
X104140000Y-139192000D02*
X102798000Y-139192000D01*
X102798000Y-139192000D02*
X97028000Y-139192000D01*
X97028000Y-139192000D02*
X96058000Y-138222000D01*
X109310000Y-139192000D02*
X109920000Y-139192000D01*
X109920000Y-139192000D02*
X132632000Y-139192000D01*
X133190000Y-138634000D02*
X133190000Y-134310000D01*
X132632000Y-139192000D02*
X133190000Y-138634000D01*
X130420000Y-128130000D02*
X130420000Y-130320000D01*
X130420000Y-130320000D02*
X129680000Y-131370000D01*
X73820000Y-97230000D02*
X73260000Y-97230000D01*
X67290000Y-98800000D02*
X66020000Y-100070000D01*
X71690000Y-98800000D02*
X67290000Y-98800000D01*
X73260000Y-97230000D02*
X71690000Y-98800000D01*
X66020000Y-100070000D02*
X62490000Y-100070000D01*
X62490000Y-100070000D02*
X62230000Y-100330000D01*
X91280000Y-96670000D02*
X86100000Y-96670000D01*
X86100000Y-96670000D02*
X85540000Y-97230000D01*
X85540000Y-97230000D02*
X73820000Y-97230000D01*
X73820000Y-97230000D02*
X73310000Y-97230000D01*
X95504000Y-89662000D02*
X93980000Y-89662000D01*
X93980000Y-89662000D02*
X93350000Y-90292000D01*
X75940000Y-116410000D02*
X75940000Y-116930000D01*
X75940000Y-116930000D02*
X77200000Y-118190000D01*
X88790000Y-124220000D02*
X85955000Y-127055000D01*
X88790000Y-118360000D02*
X88790000Y-124220000D01*
X87360000Y-116930000D02*
X88790000Y-118360000D01*
X84290000Y-116930000D02*
X87360000Y-116930000D01*
X83030000Y-118190000D02*
X84290000Y-116930000D01*
X77200000Y-118190000D02*
X83030000Y-118190000D01*
X59740000Y-139110000D02*
X58670000Y-139110000D01*
X96058000Y-138222000D02*
X95170000Y-139110000D01*
X95170000Y-139110000D02*
X59740000Y-139110000D01*
X58670000Y-139110000D02*
X56020000Y-136460000D01*
X96520000Y-137520000D02*
X96520000Y-137760000D01*
X96520000Y-137760000D02*
X96058000Y-138222000D01*
X42900000Y-130300000D02*
X42900000Y-131520000D01*
X42900000Y-131520000D02*
X44010000Y-132630000D01*
X44010000Y-132630000D02*
X52190000Y-132630000D01*
X52190000Y-132630000D02*
X56020000Y-136460000D01*
X76370000Y-129810000D02*
X76370000Y-127810000D01*
X88090000Y-129190000D02*
X90320000Y-129190000D01*
X85430000Y-126530000D02*
X85955000Y-127055000D01*
X85955000Y-127055000D02*
X88090000Y-129190000D01*
X77650000Y-126530000D02*
X85430000Y-126530000D01*
X76370000Y-127810000D02*
X77650000Y-126530000D01*
X76370000Y-129810000D02*
X75560000Y-129810000D01*
X69680000Y-127370000D02*
X67450000Y-125140000D01*
X73120000Y-127370000D02*
X69680000Y-127370000D01*
X75560000Y-129810000D02*
X73120000Y-127370000D01*
X75940000Y-116410000D02*
X73380000Y-119360000D01*
X91280000Y-96670000D02*
X92760000Y-96670000D01*
X92760000Y-96670000D02*
X93350000Y-96080000D01*
X93350000Y-96080000D02*
X93350000Y-90292000D01*
X93350000Y-90292000D02*
X93350000Y-89710000D01*
X93350000Y-89710000D02*
X92210000Y-88570000D01*
X92210000Y-88570000D02*
X89580000Y-88570000D01*
X89580000Y-88570000D02*
X86280000Y-85270000D01*
X86280000Y-85270000D02*
X76220000Y-85270000D01*
X76220000Y-85270000D02*
X74260000Y-83310000D01*
X74260000Y-83310000D02*
X74260000Y-82642000D01*
X66020000Y-100070000D02*
X66020000Y-99782000D01*
X54610000Y-70580000D02*
X51784000Y-70580000D01*
X49784000Y-62738000D02*
X48406000Y-61360000D01*
X49784000Y-68580000D02*
X49784000Y-62738000D01*
X51784000Y-70580000D02*
X49784000Y-68580000D01*
X41070000Y-97860000D02*
X41070000Y-62820000D01*
X41070000Y-62820000D02*
X42530000Y-61360000D01*
X42530000Y-61360000D02*
X48406000Y-61360000D01*
X58950000Y-70580000D02*
X58950000Y-70612000D01*
X54610000Y-70580000D02*
X58950000Y-70580000D01*
X41640000Y-126760000D02*
X41640000Y-126450000D01*
X41640000Y-126450000D02*
X41070000Y-125880000D01*
X41070000Y-97860000D02*
X42920000Y-96010000D01*
X41070000Y-125880000D02*
X41070000Y-97860000D01*
X42920000Y-96010000D02*
X43240000Y-96010000D01*
X42900000Y-130300000D02*
X42900000Y-128020000D01*
X42900000Y-128020000D02*
X41640000Y-126760000D01*
X46410000Y-88430000D02*
X46410000Y-89830000D01*
X43240000Y-93000000D02*
X43240000Y-96010000D01*
X46410000Y-89830000D02*
X43240000Y-93000000D01*
X58450000Y-72470000D02*
X58450000Y-70612000D01*
X58450000Y-70612000D02*
X58450000Y-70660000D01*
X58450000Y-70660000D02*
X58450000Y-70612000D01*
X109080000Y-139192000D02*
X109310000Y-139192000D01*
X58450000Y-70612000D02*
X58950000Y-70612000D01*
X58950000Y-70612000D02*
X63754000Y-70612000D01*
X63754000Y-70612000D02*
X64363000Y-70003000D01*
X64363000Y-70003000D02*
X64770000Y-69596000D01*
X64770000Y-61214000D02*
X64770000Y-53340000D01*
X64770000Y-61214000D02*
X64770000Y-69596000D01*
X41640000Y-126760000D02*
X41640000Y-126506000D01*
X41640000Y-126760000D02*
X41640000Y-126252000D01*
X41640000Y-126760000D02*
X41386000Y-126760000D01*
X65110000Y-53680000D02*
X64770000Y-53340000D01*
X64540000Y-49340000D02*
X62580000Y-49340000D01*
X62580000Y-49340000D02*
X61595000Y-48355000D01*
X92240000Y-130048000D02*
X91178000Y-130048000D01*
X95250000Y-130048000D02*
X96520000Y-131318000D01*
X96520000Y-131318000D02*
X96520000Y-137520000D01*
X92240000Y-130048000D02*
X95250000Y-130048000D01*
X91178000Y-130048000D02*
X90320000Y-129190000D01*
X90320000Y-129190000D02*
X90310000Y-129180000D01*
X90310000Y-129180000D02*
X90280000Y-129150000D01*
X54610000Y-95250000D02*
X55780000Y-95250000D01*
X60860000Y-100330000D02*
X62230000Y-100330000D01*
X55780000Y-95250000D02*
X60860000Y-100330000D01*
D33*
X64770000Y-53340000D02*
X63500000Y-53340000D01*
X61595000Y-51435000D02*
X63500000Y-53340000D01*
X61595000Y-48355000D02*
X61595000Y-51435000D01*
X61595000Y-46990000D02*
X61595000Y-48355000D01*
X59690000Y-45085000D02*
X61595000Y-46990000D01*
X59690000Y-44450000D02*
X59690000Y-45085000D01*
D32*
X56020000Y-136460000D02*
X55980000Y-136460000D01*
X56170000Y-136460000D02*
X56020000Y-136460000D01*
X105156000Y-139192000D02*
X109080000Y-139192000D01*
X75940000Y-116410000D02*
X75940000Y-116084000D01*
X73380000Y-119360000D02*
X73460000Y-119440000D01*
X95032000Y-84364000D02*
X94540000Y-84364000D01*
X94780000Y-84364000D02*
X94540000Y-84364000D01*
X79502000Y-116586000D02*
X79502000Y-116242000D01*
X79502000Y-116242000D02*
X77950000Y-114690000D01*
X77950000Y-114690000D02*
X70040000Y-114690000D01*
X70040000Y-114690000D02*
X68320000Y-116410000D01*
X62300000Y-109230000D02*
X60280000Y-109230000D01*
X53900000Y-106680000D02*
X52890000Y-105670000D01*
X57730000Y-106680000D02*
X53900000Y-106680000D01*
X60280000Y-109230000D02*
X57730000Y-106680000D01*
X76050000Y-119960000D02*
X76050000Y-120546000D01*
X76050000Y-120546000D02*
X75184000Y-121412000D01*
X82550000Y-119960000D02*
X82550000Y-120904000D01*
X82550000Y-120904000D02*
X82042000Y-121412000D01*
X67812000Y-121412000D02*
X65840000Y-119440000D01*
X82042000Y-121412000D02*
X75184000Y-121412000D01*
X75184000Y-121412000D02*
X67812000Y-121412000D01*
X79502000Y-119960000D02*
X79502000Y-119888000D01*
X79502000Y-119888000D02*
X79502000Y-119960000D01*
X82550000Y-119960000D02*
X79502000Y-119960000D01*
X79502000Y-119960000D02*
X76050000Y-119960000D01*
X75946000Y-119856000D02*
X76050000Y-119960000D01*
X62230000Y-115570000D02*
X67480000Y-115570000D01*
X67480000Y-115570000D02*
X68320000Y-116410000D01*
X65840000Y-119440000D02*
X68400000Y-116490000D01*
X68400000Y-116490000D02*
X68320000Y-116410000D01*
X63780000Y-115570000D02*
X64260000Y-115090000D01*
X64260000Y-115090000D02*
X64260000Y-110440000D01*
X64260000Y-110440000D02*
X63050000Y-109230000D01*
X63050000Y-109230000D02*
X62300000Y-109230000D01*
X62230000Y-115570000D02*
X63780000Y-115570000D01*
X52890000Y-94650000D02*
X53360000Y-93960000D01*
X52890000Y-105670000D02*
X52890000Y-94650000D01*
X60640000Y-96520000D02*
X63230000Y-96520000D01*
X53360000Y-93960000D02*
X58080000Y-93960000D01*
X58080000Y-93960000D02*
X60640000Y-96520000D01*
X72578000Y-96520000D02*
X83698000Y-96520000D01*
X86198000Y-94560000D02*
X86198000Y-89766000D01*
X83820000Y-88138000D02*
X86198000Y-89766000D01*
X85078000Y-96520000D02*
X86188000Y-95410000D01*
X86188000Y-95410000D02*
X86188000Y-94560000D01*
X86188000Y-94560000D02*
X86198000Y-94560000D01*
X83698000Y-96520000D02*
X85078000Y-96520000D01*
X70938000Y-98160000D02*
X72578000Y-96520000D01*
X64870000Y-98160000D02*
X70938000Y-98160000D01*
X63230000Y-96520000D02*
X64870000Y-98160000D01*
X82002000Y-116586000D02*
X82294000Y-116586000D01*
X82294000Y-116586000D02*
X82900000Y-116240000D01*
X90260000Y-125200000D02*
X89040000Y-126420000D01*
X90260000Y-117730000D02*
X90260000Y-125200000D01*
X88350000Y-116240000D02*
X90260000Y-117730000D01*
X82900000Y-116240000D02*
X88350000Y-116240000D01*
X82316000Y-116900000D02*
X82002000Y-116586000D01*
D33*
X127762000Y-72390000D02*
X126238000Y-72390000D01*
X136555654Y-64516000D02*
X139446000Y-64516000D01*
X135285654Y-63246000D02*
X136555654Y-64516000D01*
X129032000Y-63246000D02*
X135285654Y-63246000D01*
X124968000Y-67310000D02*
X129032000Y-63246000D01*
X124968000Y-71120000D02*
X124968000Y-67310000D01*
X126238000Y-72390000D02*
X124968000Y-71120000D01*
X137922000Y-71628000D02*
X138938000Y-71628000D01*
X138938000Y-71628000D02*
X139446000Y-71120000D01*
X139446000Y-65532000D02*
X139446000Y-71120000D01*
X139446000Y-64516000D02*
X139446000Y-65532000D01*
X139446000Y-71120000D02*
X139446000Y-73660000D01*
X139446000Y-73660000D02*
X137668000Y-75438000D01*
X139446000Y-64460000D02*
X139446000Y-64516000D01*
X127370000Y-72390000D02*
X127762000Y-72390000D01*
X127762000Y-72390000D02*
X127060000Y-72390000D01*
X139446000Y-63250000D02*
X139446000Y-64460000D01*
X139446000Y-64460000D02*
X139446000Y-64584000D01*
X89440000Y-51530000D02*
X89440000Y-43110000D01*
X89440000Y-43110000D02*
X87250000Y-40920000D01*
X87250000Y-40920000D02*
X86868000Y-40920000D01*
X86868000Y-40920000D02*
X82770000Y-40920000D01*
X82770000Y-40920000D02*
X82770000Y-40925000D01*
X89440000Y-51530000D02*
X89154000Y-51816000D01*
X79480000Y-64920000D02*
X79130000Y-64920000D01*
X79130000Y-64920000D02*
X77880000Y-63670000D01*
X77880000Y-52600000D02*
X79248000Y-51232000D01*
X77880000Y-63670000D02*
X77880000Y-52600000D01*
X76410000Y-66660000D02*
X77740000Y-66660000D01*
X77740000Y-66660000D02*
X79480000Y-64920000D01*
X89154000Y-51816000D02*
X89154000Y-51292000D01*
X89154000Y-51816000D02*
X89118000Y-51816000D01*
X52070000Y-62270000D02*
X53380000Y-62270000D01*
X53380000Y-62270000D02*
X56642000Y-65532000D01*
X50292000Y-53848000D02*
X50292000Y-55118000D01*
X50292000Y-55118000D02*
X52070000Y-56896000D01*
X52070000Y-56896000D02*
X52070000Y-62270000D01*
X54610000Y-44450000D02*
X54610000Y-45974000D01*
X55586000Y-46950000D02*
X55586000Y-48514000D01*
X54610000Y-45974000D02*
X55586000Y-46950000D01*
X55586000Y-48514000D02*
X55586000Y-49490000D01*
X55586000Y-49490000D02*
X57150000Y-51054000D01*
X57150000Y-51054000D02*
X57150000Y-53340000D01*
X57150000Y-53340000D02*
X50800000Y-53340000D01*
X50800000Y-53340000D02*
X50292000Y-53848000D01*
X78232000Y-46482000D02*
X78232000Y-40925000D01*
X79248000Y-51232000D02*
X79248000Y-47498000D01*
X79248000Y-47498000D02*
X78232000Y-46482000D01*
X55410000Y-58950000D02*
X55410000Y-64300000D01*
X55410000Y-64300000D02*
X56642000Y-65532000D01*
X57150000Y-53340000D02*
X57150000Y-57210000D01*
X57150000Y-57210000D02*
X55410000Y-58950000D01*
X54610000Y-42164000D02*
X54610000Y-44450000D01*
X79480000Y-64920000D02*
X79988000Y-64920000D01*
X76410000Y-66660000D02*
X76918000Y-66660000D01*
X55880000Y-40894000D02*
X54610000Y-42164000D01*
X83566000Y-40925000D02*
X82770000Y-40925000D01*
X82770000Y-40925000D02*
X78232000Y-40925000D01*
X78232000Y-40925000D02*
X77724000Y-40925000D01*
X75894000Y-40894000D02*
X55880000Y-40894000D01*
X75925000Y-40925000D02*
X75894000Y-40894000D01*
X77724000Y-40925000D02*
X75925000Y-40925000D01*
X89154000Y-51816000D02*
X89154000Y-51391000D01*
X87250000Y-40920000D02*
X113766000Y-40920000D01*
X113766000Y-40920000D02*
X114046000Y-40640000D01*
X114046000Y-40640000D02*
X137414000Y-40640000D01*
X137414000Y-40640000D02*
X139446000Y-42672000D01*
X139446000Y-42672000D02*
X139446000Y-63250000D01*
X139446000Y-63250000D02*
X139446000Y-63500000D01*
D32*
X98552000Y-131572000D02*
X98552000Y-130556000D01*
X91580000Y-127394000D02*
X91580000Y-126420000D01*
X93218000Y-129032000D02*
X91580000Y-127394000D01*
X97028000Y-129032000D02*
X93218000Y-129032000D01*
X98552000Y-130556000D02*
X97028000Y-129032000D01*
X91580000Y-126420000D02*
X91580000Y-122650000D01*
X91580000Y-122650000D02*
X95780000Y-118450000D01*
X95780000Y-118450000D02*
X96050000Y-118450000D01*
X95780000Y-118450000D02*
X96180000Y-118450000D01*
X95780000Y-118450000D02*
X95780000Y-118750000D01*
X101854000Y-131572000D02*
X101854000Y-130556000D01*
X94120000Y-127394000D02*
X94120000Y-126420000D01*
X94996000Y-128270000D02*
X94120000Y-127394000D01*
X99568000Y-128270000D02*
X94996000Y-128270000D01*
X101854000Y-130556000D02*
X99568000Y-128270000D01*
X94120000Y-126420000D02*
X94120000Y-123620000D01*
X94120000Y-123620000D02*
X95670000Y-122070000D01*
X95790000Y-122190000D02*
X95670000Y-122070000D01*
X105664000Y-126746000D02*
X105664000Y-125730000D01*
X97028000Y-122174000D02*
X97028000Y-117368000D01*
X99822000Y-124968000D02*
X97028000Y-122174000D01*
X104902000Y-124968000D02*
X99822000Y-124968000D01*
X105664000Y-125730000D02*
X104902000Y-124968000D01*
X69160000Y-109300000D02*
X69370000Y-109300000D01*
X69370000Y-109300000D02*
X71040000Y-110970000D01*
X95110000Y-115450000D02*
X97028000Y-117368000D01*
X85610000Y-115450000D02*
X95110000Y-115450000D01*
X81130000Y-110970000D02*
X85610000Y-115450000D01*
X71040000Y-110970000D02*
X81130000Y-110970000D01*
X54610000Y-105410000D02*
X58730000Y-105410000D01*
X66540000Y-106680000D02*
X69160000Y-109300000D01*
X60000000Y-106680000D02*
X66540000Y-106680000D01*
X58730000Y-105410000D02*
X60000000Y-106680000D01*
X54610000Y-105410000D02*
X55110000Y-105410000D01*
X68834000Y-94996000D02*
X67310000Y-94996000D01*
X67056000Y-95250000D02*
X62230000Y-95250000D01*
X67310000Y-94996000D02*
X67056000Y-95250000D01*
X68834000Y-94996000D02*
X68834000Y-95250000D01*
X69516000Y-94568000D02*
X73406000Y-94568000D01*
X68834000Y-95250000D02*
X69516000Y-94568000D01*
X68834000Y-90116000D02*
X68834000Y-90424000D01*
X68834000Y-90424000D02*
X66548000Y-92710000D01*
X66548000Y-92710000D02*
X62230000Y-92710000D01*
X68834000Y-90116000D02*
X72162000Y-90116000D01*
X72162000Y-90116000D02*
X73406000Y-91360000D01*
X68834000Y-90116000D02*
X68834000Y-89916000D01*
X68834000Y-89916000D02*
X69168000Y-89582000D01*
X73178000Y-91132000D02*
X73406000Y-91360000D01*
X54930000Y-127040000D02*
X54930000Y-126300000D01*
X54930000Y-126300000D02*
X49023988Y-120393988D01*
X49023988Y-120393988D02*
X49023988Y-106963988D01*
X49023988Y-106963988D02*
X47280000Y-105220000D01*
X47280000Y-105220000D02*
X46380000Y-105220000D01*
X46380000Y-105220000D02*
X43380000Y-108460000D01*
X46410000Y-96050000D02*
X46410000Y-96170000D01*
X46410000Y-96170000D02*
X47498000Y-97258000D01*
X47498000Y-97258000D02*
X47280000Y-98720000D01*
X47280000Y-98720000D02*
X47280000Y-105220000D01*
X47280000Y-105220000D02*
X47280000Y-105832000D01*
D33*
X111506000Y-93472000D02*
X116452000Y-93472000D01*
X116452000Y-93472000D02*
X117890000Y-94910000D01*
D32*
X99822000Y-86868000D02*
X99822000Y-86106000D01*
X99822000Y-86106000D02*
X99314000Y-85598000D01*
X97536000Y-80010000D02*
X96012000Y-78486000D01*
X99314000Y-81788000D02*
X97536000Y-80010000D01*
X99314000Y-85598000D02*
X99314000Y-81788000D01*
X99822000Y-86868000D02*
X99822000Y-86614000D01*
X99822000Y-86868000D02*
X100076000Y-86868000D01*
X100076000Y-86868000D02*
X102108000Y-88900000D01*
X102108000Y-88900000D02*
X106934000Y-88900000D01*
X106934000Y-88900000D02*
X111506000Y-93472000D01*
X111506000Y-93472000D02*
X110872000Y-93472000D01*
D33*
X117632000Y-94652000D02*
X117890000Y-94910000D01*
D32*
X83650000Y-80540000D02*
X83650000Y-81048000D01*
X83650000Y-81048000D02*
X85852000Y-83058000D01*
X85852000Y-83058000D02*
X88646000Y-83058000D01*
X88646000Y-83058000D02*
X90678000Y-83058000D01*
X90678000Y-83058000D02*
X92202000Y-84582000D01*
D33*
X71440000Y-55590000D02*
X71440000Y-58930000D01*
X71440000Y-58930000D02*
X68790000Y-61580000D01*
D32*
X69552000Y-61580000D02*
X68790000Y-61580000D01*
D33*
X73940000Y-55590000D02*
X73940000Y-59110000D01*
X73940000Y-59110000D02*
X76410000Y-61580000D01*
X82804000Y-70358000D02*
X77568000Y-70358000D01*
X77568000Y-70358000D02*
X76410000Y-69200000D01*
X76410000Y-69200000D02*
X78660000Y-69200000D01*
X81080000Y-58874000D02*
X82296000Y-56134000D01*
X81080000Y-66780000D02*
X81080000Y-58874000D01*
X78660000Y-69200000D02*
X81080000Y-66780000D01*
X85304000Y-70358000D02*
X85852000Y-70358000D01*
X85852000Y-70358000D02*
X88392000Y-72898000D01*
X82296000Y-53634000D02*
X82296000Y-50224000D01*
X82296000Y-50224000D02*
X86870000Y-45650000D01*
X82296000Y-53634000D02*
X82764000Y-53634000D01*
X95250000Y-61976000D02*
X94528000Y-61976000D01*
X94528000Y-61976000D02*
X92202000Y-59650000D01*
X101052000Y-77470000D02*
X101052000Y-70144000D01*
X101052000Y-70144000D02*
X101092000Y-70104000D01*
X101052000Y-77470000D02*
X101052000Y-82256000D01*
X101052000Y-82256000D02*
X101092000Y-82296000D01*
X101092000Y-82296000D02*
X101092000Y-83058000D01*
X103886000Y-85852000D02*
X103886000Y-87122000D01*
X101092000Y-83058000D02*
X103886000Y-85852000D01*
X101092000Y-57658000D02*
X99060000Y-55626000D01*
X101092000Y-70104000D02*
X101092000Y-57658000D01*
X101092000Y-70358000D02*
X101092000Y-70104000D01*
X99060000Y-55626000D02*
X99568000Y-55626000D01*
X95250000Y-61976000D02*
X95250000Y-57150000D01*
X96774000Y-55626000D02*
X99060000Y-55626000D01*
X95250000Y-57150000D02*
X96774000Y-55626000D01*
X95250000Y-61976000D02*
X89154000Y-61976000D01*
X89178000Y-62000000D02*
X89154000Y-61976000D01*
X99060000Y-55626000D02*
X99044000Y-55626000D01*
X89154000Y-61976000D02*
X89154000Y-62270000D01*
X89180000Y-61950000D02*
X89154000Y-61976000D01*
X89189000Y-61941000D02*
X89154000Y-61976000D01*
X114808000Y-88646000D02*
X114808000Y-88008000D01*
X114808000Y-88008000D02*
X113700000Y-86900000D01*
X113700000Y-86900000D02*
X113700000Y-79756000D01*
X115570000Y-79756000D02*
X113700000Y-79756000D01*
X113700000Y-79756000D02*
X112268000Y-79756000D01*
X112268000Y-79756000D02*
X111506000Y-78994000D01*
X111506000Y-78994000D02*
X109982000Y-78994000D01*
X109982000Y-78994000D02*
X108712000Y-77724000D01*
X106172000Y-82296000D02*
X106172000Y-80264000D01*
X106172000Y-80264000D02*
X108712000Y-77724000D01*
X119610000Y-90360000D02*
X111570000Y-90360000D01*
X111570000Y-90360000D02*
X111506000Y-90424000D01*
X111506000Y-87122000D02*
X107442000Y-87122000D01*
X103632000Y-83312000D02*
X103632000Y-82296000D01*
X107442000Y-87122000D02*
X103632000Y-83312000D01*
X103632000Y-82296000D02*
X103632000Y-77804000D01*
X103632000Y-77804000D02*
X103712000Y-77724000D01*
X111506000Y-90424000D02*
X111428000Y-87200000D01*
X111428000Y-87200000D02*
X111506000Y-87122000D01*
X108712000Y-73914000D02*
X109728000Y-73914000D01*
X112014000Y-76200000D02*
X114340000Y-76200000D01*
X109728000Y-73914000D02*
X112014000Y-76200000D01*
X113792000Y-71120000D02*
X113792000Y-75652000D01*
X113792000Y-75652000D02*
X114340000Y-76200000D01*
X113538000Y-56642000D02*
X113538000Y-55372000D01*
X107696000Y-54610000D02*
X106680000Y-55626000D01*
X112776000Y-54610000D02*
X107696000Y-54610000D01*
X113538000Y-55372000D02*
X112776000Y-54610000D01*
X113792000Y-61468000D02*
X113792000Y-56896000D01*
X113792000Y-56896000D02*
X113538000Y-56642000D01*
X113792000Y-66294000D02*
X113792000Y-61468000D01*
X113792000Y-71120000D02*
X113792000Y-66294000D01*
X114182000Y-70730000D02*
X113792000Y-71120000D01*
X113682000Y-61578000D02*
X113792000Y-61468000D01*
X113732000Y-66234000D02*
X113792000Y-66294000D01*
X114038000Y-66048000D02*
X113792000Y-66294000D01*
X113538000Y-56642000D02*
X113538000Y-56358000D01*
X114046000Y-70866000D02*
X113792000Y-71120000D01*
X113578000Y-56682000D02*
X113538000Y-56642000D01*
X90424000Y-70104000D02*
X94996000Y-70104000D01*
X98552000Y-73914000D02*
X98552000Y-69342000D01*
X98552000Y-69342000D02*
X99060000Y-68834000D01*
X123270000Y-76330000D02*
X123952000Y-74930000D01*
X121412000Y-72390000D02*
X120142000Y-72390000D01*
X123952000Y-74930000D02*
X121412000Y-72390000D01*
X120142000Y-72390000D02*
X117602000Y-72390000D01*
X103632000Y-72390000D02*
X102108000Y-73914000D01*
X109982000Y-72390000D02*
X103632000Y-72390000D01*
X110998000Y-73406000D02*
X109982000Y-72390000D01*
X112522000Y-73406000D02*
X110998000Y-73406000D01*
X116586000Y-73406000D02*
X115062000Y-73406000D01*
X117602000Y-72390000D02*
X116586000Y-73406000D01*
X94996000Y-70104000D02*
X95250000Y-70104000D01*
X95250000Y-70104000D02*
X96520000Y-68834000D01*
X96520000Y-68834000D02*
X99060000Y-68834000D01*
X99060000Y-65532000D02*
X99060000Y-62230000D01*
X99060000Y-58928000D02*
X99060000Y-62230000D01*
X99060000Y-65532000D02*
X99060000Y-68834000D01*
X120152000Y-68674000D02*
X120152000Y-72380000D01*
X120152000Y-72380000D02*
X120142000Y-72390000D01*
X120152000Y-72380000D02*
X120142000Y-72390000D01*
X120540000Y-47200000D02*
X120794000Y-47200000D01*
X120794000Y-47200000D02*
X122174000Y-49022000D01*
X122174000Y-49022000D02*
X122174000Y-52578000D01*
X122174000Y-52578000D02*
X121412000Y-53340000D01*
X121412000Y-53340000D02*
X119380000Y-53340000D01*
X119380000Y-53340000D02*
X118110000Y-54610000D01*
X118110000Y-54610000D02*
X118110000Y-59012000D01*
X118110000Y-59012000D02*
X120152000Y-61054000D01*
X101290000Y-51610000D02*
X102340000Y-51610000D01*
X114736000Y-50150000D02*
X118040000Y-47200000D01*
X103800000Y-50150000D02*
X114736000Y-50150000D01*
X102340000Y-51610000D02*
X103800000Y-50150000D01*
X102180000Y-47360000D02*
X102180000Y-49530000D01*
X102180000Y-49530000D02*
X102180000Y-50720000D01*
X102180000Y-50720000D02*
X101290000Y-51610000D01*
X101290000Y-51610000D02*
X101290000Y-50970000D01*
X101290000Y-50970000D02*
X98180000Y-47860000D01*
X98180000Y-47860000D02*
X96580000Y-47860000D01*
X100000000Y-43000000D02*
X100000000Y-45840000D01*
X100000000Y-45840000D02*
X97980000Y-47860000D01*
X101420000Y-51480000D02*
X101290000Y-51610000D01*
X96580000Y-47860000D02*
X97980000Y-47860000D01*
X110160000Y-43000000D02*
X110160000Y-46300000D01*
X110160000Y-46300000D02*
X109190000Y-47270000D01*
D32*
X74070000Y-103630000D02*
X74070000Y-100620000D01*
X69944000Y-76454000D02*
X65786000Y-76454000D01*
X71810000Y-78320000D02*
X69944000Y-76454000D01*
X77440000Y-78320000D02*
X71810000Y-78320000D01*
X78460000Y-77300000D02*
X77440000Y-78320000D01*
X90020000Y-77300000D02*
X78460000Y-77300000D01*
X97040000Y-84320000D02*
X90020000Y-77300000D01*
X97040000Y-91750000D02*
X97040000Y-84320000D01*
X93900002Y-94889998D02*
X97040000Y-91750000D01*
X93900002Y-97179998D02*
X93900002Y-94889998D01*
X92950000Y-98130000D02*
X93900002Y-97179998D01*
X89050000Y-98130000D02*
X92950000Y-98130000D01*
X88880000Y-97960000D02*
X89050000Y-98130000D01*
X76730000Y-97960000D02*
X88880000Y-97960000D01*
X74070000Y-100620000D02*
X76730000Y-97960000D01*
X65786000Y-73152000D02*
X65786000Y-73914000D01*
X65786000Y-73914000D02*
X65786000Y-76454000D01*
X74070000Y-103630000D02*
X74324000Y-103630000D01*
X65786000Y-70652000D02*
X65786000Y-58674000D01*
X68834000Y-45720000D02*
X70612000Y-43942000D01*
X68834000Y-55626000D02*
X68834000Y-45720000D01*
X65786000Y-58674000D02*
X68834000Y-55626000D01*
X119470000Y-114980000D02*
X119995000Y-114980000D01*
X119995000Y-114980000D02*
X125300000Y-109675000D01*
X128217000Y-109675000D02*
X129540000Y-110998000D01*
X125300000Y-109675000D02*
X128217000Y-109675000D01*
X119470000Y-114980000D02*
X119470000Y-114950000D01*
X119470000Y-114980000D02*
X119470000Y-116750000D01*
X119470000Y-116750000D02*
X116078000Y-120142000D01*
X129540000Y-110998000D02*
X129286000Y-110998000D01*
D33*
X119470000Y-114980000D02*
X119470000Y-114464000D01*
D32*
X129540000Y-110998000D02*
X129540000Y-111252000D01*
X131492000Y-117348000D02*
X131492000Y-112950000D01*
X131492000Y-112950000D02*
X129540000Y-110998000D01*
X130420000Y-120510000D02*
X130420000Y-118420000D01*
X130420000Y-118420000D02*
X131492000Y-117348000D01*
X72160000Y-49340000D02*
X74690000Y-49340000D01*
X74690000Y-49340000D02*
X74800000Y-49450000D01*
D33*
X129780000Y-91620000D02*
X125750000Y-91620000D01*
X125750000Y-91620000D02*
X124490000Y-90360000D01*
X125510000Y-94910000D02*
X125510000Y-91380000D01*
X125510000Y-91380000D02*
X124490000Y-90360000D01*
X124722000Y-90128000D02*
X124490000Y-90360000D01*
X124744000Y-90614000D02*
X124490000Y-90360000D01*
X129780000Y-91620000D02*
X129710000Y-95030000D01*
X129710000Y-95030000D02*
X129760000Y-95080000D01*
X129770000Y-88160000D02*
X129710000Y-84700000D01*
X129710000Y-84700000D02*
X129760000Y-84650000D01*
X129780000Y-91620000D02*
X129770000Y-88160000D01*
D32*
X64262000Y-93970000D02*
X67574000Y-93970000D01*
X84836000Y-90678000D02*
X85458000Y-91300000D01*
X85458000Y-91300000D02*
X85458000Y-93970000D01*
X85458000Y-93970000D02*
X83998000Y-95430000D01*
X83998000Y-95430000D02*
X77848000Y-95430000D01*
X84836000Y-90678000D02*
X83820000Y-90678000D01*
X77142000Y-95430000D02*
X77848000Y-95430000D01*
X74422000Y-92710000D02*
X77142000Y-95430000D01*
X68834000Y-92710000D02*
X74422000Y-92710000D01*
X67574000Y-93970000D02*
X68834000Y-92710000D01*
X59510000Y-92710000D02*
X54610000Y-92710000D01*
X60770000Y-93970000D02*
X59510000Y-92710000D01*
X64262000Y-93970000D02*
X60770000Y-93970000D01*
X54610000Y-87630000D02*
X55740000Y-87630000D01*
X78798000Y-90678000D02*
X81280000Y-90678000D01*
X76420000Y-88300000D02*
X78798000Y-90678000D01*
X76420000Y-86730000D02*
X76420000Y-88300000D01*
X73060000Y-83370000D02*
X76420000Y-86730000D01*
X73060000Y-83070000D02*
X73060000Y-83370000D01*
X71320000Y-81330000D02*
X73060000Y-83070000D01*
X68280000Y-81330000D02*
X71320000Y-81330000D01*
X66630000Y-82980000D02*
X68280000Y-81330000D01*
X66630000Y-85610000D02*
X66630000Y-82980000D01*
X63360000Y-88880000D02*
X66630000Y-85610000D01*
X56990000Y-88880000D02*
X63360000Y-88880000D01*
X55740000Y-87630000D02*
X56990000Y-88880000D01*
X54610000Y-87630000D02*
X54980000Y-87630000D01*
X81178000Y-90678000D02*
X81280000Y-90678000D01*
X81280000Y-90678000D02*
X80586000Y-90678000D01*
X83770000Y-122700000D02*
X84110000Y-122940000D01*
X86930000Y-118450000D02*
X85620000Y-118450000D01*
X87780000Y-119300000D02*
X86930000Y-118450000D01*
X87780000Y-123360000D02*
X87780000Y-119300000D01*
X87100000Y-124040000D02*
X87780000Y-123360000D01*
X85210000Y-124040000D02*
X87100000Y-124040000D01*
X84110000Y-122940000D02*
X85210000Y-124040000D01*
X65024000Y-122428000D02*
X66300000Y-122470000D01*
X66780000Y-122700000D02*
X83770000Y-122700000D01*
X83770000Y-122700000D02*
X84000000Y-122940000D01*
X66300000Y-122470000D02*
X66780000Y-122700000D01*
X85620000Y-118450000D02*
X86220000Y-118450000D01*
X59994000Y-112240000D02*
X61490000Y-110490000D01*
X59994000Y-117350000D02*
X59994000Y-112240000D01*
X65024000Y-122428000D02*
X59994000Y-117350000D01*
X61490000Y-110490000D02*
X62230000Y-110490000D01*
X85620000Y-118450000D02*
X86128000Y-118450000D01*
X61468000Y-110490000D02*
X62230000Y-110490000D01*
X62230000Y-113030000D02*
X61830000Y-113030000D01*
X61830000Y-113030000D02*
X60720000Y-114140000D01*
X60720000Y-114140000D02*
X60720000Y-117130000D01*
X60720000Y-117130000D02*
X65210000Y-121620000D01*
X65210000Y-121620000D02*
X66710000Y-121620000D01*
X66710000Y-121620000D02*
X67190000Y-122100000D01*
X67190000Y-122100000D02*
X85480000Y-122100000D01*
X85480000Y-122100000D02*
X85510000Y-122070000D01*
X85510000Y-122070000D02*
X85100000Y-122070000D01*
X62230000Y-87630000D02*
X62738000Y-87630000D01*
X62738000Y-87630000D02*
X65786000Y-84582000D01*
X65786000Y-84582000D02*
X65786000Y-80010000D01*
X65614000Y-80034000D02*
X65786000Y-80010000D01*
X85852000Y-78486000D02*
X81788000Y-78486000D01*
X81788000Y-78486000D02*
X80264000Y-80010000D01*
X80264000Y-80010000D02*
X73406000Y-80010000D01*
X73406000Y-80010000D02*
X73406000Y-80016000D01*
X73406000Y-80016000D02*
X73954000Y-80564000D01*
X73706000Y-80310000D02*
X73406000Y-80010000D01*
X73914000Y-80518000D02*
X73406000Y-80010000D01*
X62230000Y-90170000D02*
X64008000Y-90170000D01*
X68580000Y-85598000D02*
X68580000Y-83070000D01*
X64008000Y-90170000D02*
X68580000Y-85598000D01*
X100110000Y-91870000D02*
X98910000Y-91870000D01*
X80096000Y-76540000D02*
X78486000Y-74930000D01*
X90490000Y-76540000D02*
X80096000Y-76540000D01*
X97680000Y-83730000D02*
X90490000Y-76540000D01*
X97680000Y-90640000D02*
X97680000Y-83730000D01*
X98910000Y-91870000D02*
X97680000Y-90640000D01*
X87630000Y-113030000D02*
X96850000Y-113030000D01*
X102420000Y-91870000D02*
X100110000Y-91870000D01*
X100110000Y-91870000D02*
X99440000Y-91870000D01*
X106910000Y-96360000D02*
X102420000Y-91870000D01*
X106910000Y-101354180D02*
X106910000Y-96360000D01*
X105817182Y-102446998D02*
X106910000Y-101354180D01*
X103583002Y-102446998D02*
X105817182Y-102446998D01*
X100470000Y-105560000D02*
X103583002Y-102446998D01*
X100470000Y-109410000D02*
X100470000Y-105560000D01*
X96850000Y-113030000D02*
X100470000Y-109410000D01*
X62230000Y-107950000D02*
X63500000Y-107950000D01*
X66294000Y-113030000D02*
X80010000Y-113030000D01*
X65024000Y-111760000D02*
X66294000Y-113030000D01*
X65024000Y-109474000D02*
X65024000Y-111760000D01*
X63500000Y-107950000D02*
X65024000Y-109474000D01*
X62340000Y-108060000D02*
X62230000Y-107950000D01*
X62230000Y-105410000D02*
X62230000Y-105220000D01*
X62230000Y-105220000D02*
X63820000Y-103630000D01*
X63820000Y-103630000D02*
X66450000Y-103630000D01*
X62230000Y-105410000D02*
X62230000Y-105280000D01*
X62738000Y-104902000D02*
X62230000Y-105410000D01*
X66450000Y-103630000D02*
X66450000Y-103670000D01*
X62484000Y-105156000D02*
X62230000Y-105410000D01*
X75612000Y-43942000D02*
X75612000Y-44784000D01*
X75612000Y-44784000D02*
X73660000Y-46736000D01*
X73660000Y-46736000D02*
X70866000Y-46736000D01*
X70866000Y-46736000D02*
X69596000Y-48006000D01*
X69596000Y-48006000D02*
X69596000Y-56134000D01*
X69596000Y-56134000D02*
X66548000Y-59182000D01*
X66548000Y-59182000D02*
X66548000Y-63246000D01*
X66548000Y-63246000D02*
X67422000Y-64120000D01*
X67422000Y-64120000D02*
X68790000Y-64120000D01*
X68790000Y-64120000D02*
X68438000Y-64120000D01*
X106172000Y-137668000D02*
X106172000Y-137414000D01*
X106172000Y-137414000D02*
X107950000Y-135636000D01*
X107950000Y-135636000D02*
X115062000Y-135636000D01*
X115062000Y-135636000D02*
X116586000Y-134112000D01*
X116586000Y-134112000D02*
X116586000Y-130810000D01*
X116078000Y-133604000D02*
X116586000Y-134112000D01*
X116586000Y-134112000D02*
X117094000Y-134112000D01*
X117094000Y-134112000D02*
X117662000Y-134680000D01*
X117662000Y-134680000D02*
X123360000Y-134680000D01*
X128400000Y-132380000D02*
X128400000Y-128650000D01*
X128650000Y-132630000D02*
X128400000Y-132380000D01*
X128650000Y-137010000D02*
X128650000Y-132630000D01*
X128270000Y-137390000D02*
X128650000Y-137010000D01*
X126070000Y-137390000D02*
X128270000Y-137390000D01*
X123360000Y-134680000D02*
X126070000Y-137390000D01*
X128400000Y-128650000D02*
X127880000Y-128130000D01*
X127880000Y-128130000D02*
X127880000Y-126960000D01*
X134360000Y-125840000D02*
X136020000Y-127500000D01*
X129000000Y-125840000D02*
X134360000Y-125840000D01*
X127880000Y-126960000D02*
X129000000Y-125840000D01*
X136020000Y-127500000D02*
X136020000Y-127406000D01*
X129540000Y-114300000D02*
X126492000Y-117348000D01*
X127880000Y-120510000D02*
X127880000Y-118736000D01*
X127880000Y-118736000D02*
X126492000Y-117348000D01*
D33*
X135168000Y-75438000D02*
X135168000Y-71668000D01*
X135168000Y-71668000D02*
X134112000Y-70612000D01*
X134620000Y-74890000D02*
X135168000Y-75438000D01*
X135190000Y-74992000D02*
X135168000Y-75438000D01*
X135168000Y-75088000D02*
X135168000Y-75438000D01*
D32*
X131318000Y-99822000D02*
X131318000Y-99208000D01*
X131318000Y-99208000D02*
X129760000Y-97650000D01*
X117750000Y-99910000D02*
X118690000Y-99910000D01*
X121310000Y-97650000D02*
X129760000Y-97650000D01*
X118690000Y-99910000D02*
X121310000Y-97650000D01*
X131350000Y-99790000D02*
X131318000Y-99822000D01*
X131318000Y-99822000D02*
X131232000Y-99822000D01*
X109982000Y-111888000D02*
X109982000Y-117620000D01*
X110420000Y-111450000D02*
X109982000Y-111888000D01*
X112760000Y-111450000D02*
X110420000Y-111450000D01*
X113580000Y-110630000D02*
X112760000Y-111450000D01*
X113580000Y-108170000D02*
X113580000Y-110630000D01*
X116259998Y-105490002D02*
X113580000Y-108170000D01*
X116259998Y-101400002D02*
X116259998Y-105490002D01*
X117750000Y-99910000D02*
X116259998Y-101400002D01*
X111960000Y-115810000D02*
X110758000Y-115810000D01*
X111132000Y-121800000D02*
X111960000Y-121800000D01*
X109982000Y-120650000D02*
X111132000Y-121800000D01*
X109982000Y-116586000D02*
X109982000Y-117620000D01*
X109982000Y-117620000D02*
X109982000Y-120650000D01*
X110758000Y-115810000D02*
X109982000Y-116586000D01*
X131318000Y-99822000D02*
X131318000Y-99568000D01*
D33*
X130870000Y-73500000D02*
X132174000Y-73500000D01*
X136144000Y-80264000D02*
X138176000Y-80264000D01*
X133604000Y-77724000D02*
X136144000Y-80264000D01*
X133604000Y-74930000D02*
X133604000Y-77724000D01*
X132174000Y-73500000D02*
X133604000Y-74930000D01*
X134112000Y-68072000D02*
X132588000Y-68072000D01*
X130870000Y-69790000D02*
X130870000Y-73500000D01*
X132588000Y-68072000D02*
X130870000Y-69790000D01*
X137668000Y-80264000D02*
X138176000Y-80264000D01*
D32*
X88138000Y-114846000D02*
X86144000Y-114846000D01*
X86144000Y-114846000D02*
X80458000Y-109160000D01*
X106172000Y-130048000D02*
X106172000Y-129032000D01*
X97790000Y-117094000D02*
X95542000Y-114846000D01*
X97790000Y-122131998D02*
X97790000Y-117094000D01*
X100076000Y-124417998D02*
X97790000Y-122131998D01*
X108415998Y-124417998D02*
X100076000Y-124417998D01*
X109474000Y-125476000D02*
X108415998Y-124417998D01*
X109474000Y-127762000D02*
X109474000Y-125476000D01*
X108966000Y-128270000D02*
X109474000Y-127762000D01*
X106934000Y-128270000D02*
X108966000Y-128270000D01*
X106172000Y-129032000D02*
X106934000Y-128270000D01*
X94996000Y-114846000D02*
X95542000Y-114846000D01*
X88138000Y-114846000D02*
X94996000Y-114846000D01*
X76730000Y-109160000D02*
X80458000Y-109160000D01*
X71815000Y-106575000D02*
X70045000Y-106575000D01*
X68930000Y-102470000D02*
X68080000Y-101620000D01*
X68930000Y-105460000D02*
X68930000Y-102470000D01*
X70045000Y-106575000D02*
X68930000Y-105460000D01*
X71815000Y-106575000D02*
X72610000Y-107370000D01*
X72610000Y-107370000D02*
X75430000Y-107370000D01*
X75430000Y-107370000D02*
X76730000Y-108670000D01*
X76730000Y-109160000D02*
X77110000Y-109160000D01*
X54610000Y-102870000D02*
X54610000Y-102580000D01*
X54610000Y-102580000D02*
X55570000Y-101620000D01*
X55570000Y-101620000D02*
X63090000Y-101620000D01*
X63090000Y-101620000D02*
X63630000Y-101620000D01*
X63630000Y-101620000D02*
X68080000Y-101620000D01*
X76730000Y-108670000D02*
X76730000Y-109160000D01*
X54610000Y-102870000D02*
X55000000Y-102870000D01*
X104267000Y-102997000D02*
X106045000Y-102997000D01*
X91186000Y-75692000D02*
X89662000Y-75692000D01*
X98298000Y-82804000D02*
X91186000Y-75692000D01*
X98298000Y-90170000D02*
X98298000Y-82804000D01*
X99314000Y-91186000D02*
X98298000Y-90170000D01*
X102616000Y-91186000D02*
X99314000Y-91186000D01*
X107696000Y-96266000D02*
X102616000Y-91186000D01*
X107696000Y-101346000D02*
X107696000Y-96266000D01*
X106045000Y-102997000D02*
X107696000Y-101346000D01*
X101346000Y-115316000D02*
X101346000Y-105918000D01*
X101346000Y-105918000D02*
X104267000Y-102997000D01*
X89662000Y-75692000D02*
X88392000Y-75692000D01*
X83058000Y-75692000D02*
X88392000Y-75692000D01*
X82296000Y-74930000D02*
X83058000Y-75692000D01*
X81026000Y-74930000D02*
X82296000Y-74930000D01*
X73580000Y-72644000D02*
X78486000Y-72644000D01*
X78486000Y-72644000D02*
X80772000Y-74930000D01*
X80772000Y-74930000D02*
X81026000Y-74930000D01*
X73406000Y-76454000D02*
X73406000Y-72818000D01*
X73406000Y-72818000D02*
X73580000Y-72644000D01*
X73406000Y-76454000D02*
X73406000Y-75946000D01*
X101346000Y-123190000D02*
X101346000Y-115316000D01*
X101854000Y-123698000D02*
X101346000Y-123190000D01*
X108966000Y-123698000D02*
X101854000Y-123698000D01*
X110236000Y-124968000D02*
X108966000Y-123698000D01*
X110236000Y-129540000D02*
X110236000Y-124968000D01*
X108966000Y-130810000D02*
X110236000Y-129540000D01*
X108966000Y-130810000D02*
X108966000Y-130416000D01*
D33*
X110998000Y-56642000D02*
X108712000Y-56642000D01*
X108712000Y-56642000D02*
X106680000Y-58674000D01*
X106680000Y-58674000D02*
X106680000Y-58928000D01*
X111252000Y-71120000D02*
X108966000Y-71120000D01*
X108966000Y-71120000D02*
X106680000Y-68834000D01*
X106680000Y-68834000D02*
X106934000Y-68834000D01*
X111252000Y-66294000D02*
X107442000Y-66294000D01*
X107442000Y-66294000D02*
X106680000Y-65532000D01*
X111252000Y-61468000D02*
X107442000Y-61468000D01*
X107442000Y-61468000D02*
X106680000Y-62230000D01*
X86110000Y-67750000D02*
X86110000Y-67822000D01*
X86110000Y-67822000D02*
X90170000Y-71882000D01*
X85852000Y-74422000D02*
X84158000Y-72920000D01*
X89408000Y-74422000D02*
X85852000Y-74422000D01*
X90170000Y-73660000D02*
X89408000Y-74422000D01*
X90170000Y-71882000D02*
X90170000Y-73660000D01*
X84158000Y-72920000D02*
X83650000Y-72920000D01*
X90424000Y-67564000D02*
X86296000Y-67564000D01*
X86296000Y-67564000D02*
X86110000Y-67750000D01*
X86110000Y-67750000D02*
X82890000Y-67750000D01*
X82890000Y-67750000D02*
X82870000Y-67770000D01*
X86538000Y-67750000D02*
X86110000Y-67750000D01*
D32*
X47130000Y-121600000D02*
X47130000Y-124630000D01*
X47130000Y-124630000D02*
X49260000Y-126760000D01*
X54870000Y-129890000D02*
X52390000Y-129890000D01*
X52390000Y-129890000D02*
X49260000Y-126760000D01*
X49260000Y-126760000D02*
X48770000Y-126760000D01*
X43320000Y-111820000D02*
X43320000Y-111990000D01*
X43320000Y-111990000D02*
X46390000Y-115060000D01*
X46390000Y-115060000D02*
X47130000Y-115100000D01*
X49260000Y-126760000D02*
X49136000Y-127452000D01*
X47130000Y-121600000D02*
X47130000Y-122466000D01*
X47130000Y-115100000D02*
X47130000Y-121600000D01*
X54356000Y-121666000D02*
X54356000Y-121296000D01*
X54356000Y-121296000D02*
X50123992Y-117063992D01*
X50123992Y-73176008D02*
X50830000Y-72470000D01*
X50123992Y-117063992D02*
X50123992Y-73176008D01*
X47780000Y-69810000D02*
X46670000Y-69810000D01*
X46670000Y-69810000D02*
X43480000Y-73000000D01*
X43480000Y-73000000D02*
X43070000Y-73000000D01*
X47780000Y-69810000D02*
X48170000Y-69810000D01*
X48170000Y-69810000D02*
X50830000Y-72470000D01*
X47780000Y-69810000D02*
X46810000Y-69810000D01*
X43070000Y-72600000D02*
X43070000Y-73000000D01*
X43070000Y-73000000D02*
X43120000Y-73000000D01*
X48472000Y-70502000D02*
X47780000Y-69810000D01*
X54356000Y-121666000D02*
X54356000Y-120966000D01*
X47780000Y-63310000D02*
X47780000Y-69810000D01*
X43070000Y-73000000D02*
X43070000Y-72706000D01*
X54102000Y-89662000D02*
X54610000Y-90170000D01*
X54610000Y-90170000D02*
X56000000Y-90170000D01*
X56000000Y-90170000D02*
X57250000Y-91420000D01*
X57250000Y-91420000D02*
X65470000Y-91420000D01*
X65470000Y-91420000D02*
X67964000Y-88138000D01*
X67964000Y-88138000D02*
X74244000Y-88138000D01*
X74244000Y-88138000D02*
X79610000Y-94800000D01*
X79610000Y-94800000D02*
X82238000Y-94800000D01*
X82238000Y-94800000D02*
X83820000Y-93218000D01*
X83820000Y-93218000D02*
X83820000Y-92932000D01*
X83990000Y-129810000D02*
X84810000Y-129810000D01*
X89040000Y-134040000D02*
X89040000Y-136460000D01*
X84810000Y-129810000D02*
X89040000Y-134040000D01*
X83990000Y-129810000D02*
X83990000Y-129950000D01*
X75100000Y-134000000D02*
X80070000Y-134000000D01*
X81420000Y-135350000D02*
X81420000Y-136460000D01*
X80070000Y-134000000D02*
X81420000Y-135350000D01*
X81420000Y-136460000D02*
X81420000Y-136220000D01*
X62550000Y-127040000D02*
X60400000Y-127040000D01*
X51223996Y-83236004D02*
X54030000Y-80430000D01*
X51223996Y-112263996D02*
X51223996Y-83236004D01*
X53110000Y-114260000D02*
X51223996Y-112263996D01*
X57710000Y-114260000D02*
X53110000Y-114260000D01*
X58343994Y-114783994D02*
X57710000Y-114260000D01*
X58343994Y-124983994D02*
X58343994Y-114783994D01*
X60400000Y-127040000D02*
X58343994Y-124983994D01*
X63890000Y-128380000D02*
X62550000Y-127040000D01*
X62550000Y-127040000D02*
X62620000Y-126920000D01*
X53980000Y-80430000D02*
X54030000Y-80430000D01*
X54030000Y-80430000D02*
X60110000Y-80430000D01*
X60110000Y-80430000D02*
X62230000Y-82550000D01*
X62230000Y-82550000D02*
X62230000Y-81788000D01*
X75180000Y-134000000D02*
X75100000Y-134000000D01*
X75100000Y-134000000D02*
X67750000Y-134000000D01*
X63890000Y-130140000D02*
X63890000Y-128380000D01*
X67750000Y-134000000D02*
X63890000Y-130140000D01*
X73270000Y-134820000D02*
X78060000Y-134820000D01*
X73270000Y-134820000D02*
X67360000Y-134820000D01*
X62490000Y-130590000D02*
X67360000Y-134820000D01*
X78060000Y-134820000D02*
X78880000Y-135640000D01*
X78880000Y-135640000D02*
X78880000Y-136460000D01*
X78880000Y-136460000D02*
X78880000Y-136410000D01*
X62490000Y-129890000D02*
X60820000Y-129890000D01*
X64080000Y-83240000D02*
X62230000Y-85090000D01*
X64080000Y-81990000D02*
X64080000Y-83240000D01*
X61760000Y-79670000D02*
X64080000Y-81990000D01*
X52960000Y-79670000D02*
X61760000Y-79670000D01*
X50673994Y-81956006D02*
X52960000Y-79670000D01*
X50673994Y-114303994D02*
X50673994Y-81956006D01*
X53600000Y-117230000D02*
X50673994Y-114303994D01*
X57150000Y-117230000D02*
X53600000Y-117230000D01*
X57760000Y-117840000D02*
X57150000Y-117230000D01*
X57760000Y-126830000D02*
X57760000Y-117840000D01*
X60820000Y-129890000D02*
X57760000Y-126830000D01*
X62490000Y-129890000D02*
X62490000Y-129650000D01*
X62490000Y-130590000D02*
X62490000Y-129890000D01*
X61976000Y-121666000D02*
X60446000Y-121666000D01*
X52324000Y-87376000D02*
X54610000Y-85090000D01*
X52324000Y-108074000D02*
X52324000Y-87376000D01*
X53470000Y-109220000D02*
X52324000Y-108074000D01*
X56900000Y-109220000D02*
X53470000Y-109220000D01*
X59443998Y-111763998D02*
X56900000Y-109220000D01*
X59443998Y-120663998D02*
X59443998Y-111763998D01*
X60446000Y-121666000D02*
X59443998Y-120663998D01*
X79000000Y-132588000D02*
X84858000Y-132588000D01*
X86500000Y-134230000D02*
X86500000Y-136460000D01*
X84858000Y-132588000D02*
X86500000Y-134230000D01*
X86500000Y-136460000D02*
X86500000Y-135820000D01*
X61976000Y-121666000D02*
X61946000Y-121666000D01*
X65460000Y-124640000D02*
X62440000Y-121620000D01*
X62440000Y-121620000D02*
X61976000Y-121666000D01*
X65532000Y-129286000D02*
X65532000Y-124640000D01*
X68834000Y-132588000D02*
X65532000Y-129286000D01*
X79248000Y-132588000D02*
X79000000Y-132588000D01*
X79000000Y-132588000D02*
X68834000Y-132588000D01*
X76850000Y-133200000D02*
X81970000Y-133200000D01*
X83960000Y-135190000D02*
X83960000Y-136460000D01*
X81970000Y-133200000D02*
X83960000Y-135190000D01*
X83960000Y-136460000D02*
X83960000Y-136180000D01*
X62490000Y-124220000D02*
X60940000Y-124220000D01*
X51773998Y-85616002D02*
X54610000Y-82780000D01*
X51773998Y-109763998D02*
X51773998Y-85616002D01*
X53690000Y-111740000D02*
X51773998Y-109763998D01*
X57590000Y-111740000D02*
X53690000Y-111740000D01*
X58893996Y-112983996D02*
X57590000Y-111740000D01*
X58893996Y-122173996D02*
X58893996Y-112983996D01*
X60940000Y-124220000D02*
X58893996Y-122173996D01*
X54610000Y-82780000D02*
X54610000Y-82550000D01*
X54356000Y-82550000D02*
X54610000Y-82550000D01*
X54610000Y-82042000D02*
X54610000Y-82550000D01*
X64850000Y-129850000D02*
X64850000Y-126580000D01*
X68200000Y-133200000D02*
X64850000Y-129850000D01*
X76960000Y-133200000D02*
X76850000Y-133200000D01*
X76850000Y-133200000D02*
X68200000Y-133200000D01*
X64850000Y-126580000D02*
X62490000Y-124220000D01*
X66360000Y-138360000D02*
X60460000Y-138360000D01*
X60460000Y-138360000D02*
X58560000Y-136460000D01*
X87940000Y-130890000D02*
X94070000Y-130890000D01*
X94440000Y-138360000D02*
X90130000Y-138360000D01*
X95420000Y-137380000D02*
X94440000Y-138360000D01*
X95420000Y-132240000D02*
X95420000Y-137380000D01*
X94070000Y-130890000D02*
X95420000Y-132240000D01*
X69950000Y-130180000D02*
X70030000Y-130180000D01*
X70030000Y-130180000D02*
X71340000Y-131490000D01*
X71340000Y-131490000D02*
X78500000Y-131490000D01*
X78500000Y-131490000D02*
X79630000Y-130360000D01*
X79630000Y-130360000D02*
X79630000Y-128530000D01*
X79630000Y-128530000D02*
X80500000Y-127660000D01*
X80500000Y-127660000D02*
X84710000Y-127660000D01*
X84710000Y-127660000D02*
X87940000Y-130890000D01*
X90130000Y-138360000D02*
X66360000Y-138360000D01*
X56580000Y-128520000D02*
X56580000Y-130310000D01*
X61100000Y-134830000D02*
X61100000Y-136460000D01*
X56580000Y-130310000D02*
X61100000Y-134830000D01*
X61100000Y-136460000D02*
X61100000Y-135930000D01*
X56580000Y-128520000D02*
X56580000Y-120550000D01*
X56580000Y-120550000D02*
X55350000Y-119320000D01*
X55350000Y-119320000D02*
X53370000Y-119320000D01*
X53370000Y-119320000D02*
X51330000Y-117280000D01*
X51330000Y-117280000D02*
X51330000Y-116590000D01*
X57150000Y-128110000D02*
X57150000Y-128370000D01*
X64170000Y-134450000D02*
X66180000Y-136460000D01*
X63230000Y-134450000D02*
X64170000Y-134450000D01*
X57150000Y-128370000D02*
X63230000Y-134450000D01*
X57150000Y-128080000D02*
X57150000Y-128110000D01*
X57150000Y-128110000D02*
X57150000Y-128160000D01*
X53500000Y-118190000D02*
X52580000Y-117270000D01*
X55590000Y-118190000D02*
X53500000Y-118190000D01*
X57150000Y-119750000D02*
X55590000Y-118190000D01*
X57150000Y-128080000D02*
X57150000Y-119750000D01*
X54870000Y-124220000D02*
X54300000Y-124220000D01*
X54300000Y-124220000D02*
X49573990Y-119493990D01*
X49573990Y-119493990D02*
X49573990Y-87693990D01*
X49573990Y-87693990D02*
X47240000Y-85560000D01*
X47240000Y-79060000D02*
X46360000Y-79130000D01*
X46360000Y-79130000D02*
X43220000Y-75990000D01*
X43220000Y-75990000D02*
X43220000Y-75930000D01*
X47240000Y-85560000D02*
X46460000Y-85630000D01*
X46460000Y-85630000D02*
X43700000Y-88390000D01*
X43700000Y-88390000D02*
X43240000Y-88390000D01*
X43240000Y-88390000D02*
X43640000Y-88390000D01*
X47240000Y-85560000D02*
X47240000Y-79060000D01*
X91280000Y-94130000D02*
X89100000Y-94130000D01*
X87060000Y-88720000D02*
X84660000Y-86320000D01*
X87060000Y-92090000D02*
X87060000Y-88720000D01*
X89100000Y-94130000D02*
X87060000Y-92090000D01*
X81280000Y-93218000D02*
X81280000Y-92880000D01*
X81280000Y-92880000D02*
X82550000Y-91610000D01*
X82550000Y-91610000D02*
X82550000Y-86780000D01*
X82550000Y-86780000D02*
X83010000Y-86320000D01*
X83010000Y-86320000D02*
X84660000Y-86320000D01*
X127350000Y-135930000D02*
X126790000Y-135930000D01*
X126790000Y-135930000D02*
X124590000Y-133730000D01*
X118190000Y-123880000D02*
X119470000Y-122600000D01*
X118190000Y-133240000D02*
X118190000Y-123880000D01*
X118680000Y-133730000D02*
X118190000Y-133240000D01*
X124590000Y-133730000D02*
X118680000Y-133730000D01*
X127350000Y-135930000D02*
X126690000Y-135930000D01*
X125340000Y-128130000D02*
X125340000Y-127898000D01*
X125340000Y-127898000D02*
X128270000Y-124968000D01*
X133552000Y-124968000D02*
X136020000Y-122500000D01*
X128270000Y-124968000D02*
X133552000Y-124968000D01*
X129850000Y-135930000D02*
X129850000Y-134100000D01*
X138110000Y-124590000D02*
X136020000Y-122500000D01*
X138110000Y-128780000D02*
X138110000Y-124590000D01*
X136550000Y-130340000D02*
X138110000Y-128780000D01*
X133610000Y-130340000D02*
X136550000Y-130340000D01*
X129850000Y-134100000D02*
X133610000Y-130340000D01*
X136020000Y-122500000D02*
X136020000Y-117500000D01*
X135970000Y-122450000D02*
X136020000Y-122500000D01*
X136020000Y-122500000D02*
X136500000Y-122500000D01*
X135686000Y-122834000D02*
X136020000Y-122500000D01*
X136020000Y-122500000D02*
X135084000Y-122500000D01*
X125340000Y-128130000D02*
X125340000Y-128690000D01*
X126880000Y-111120000D02*
X126880000Y-111170000D01*
X126880000Y-111170000D02*
X123650000Y-114400000D01*
X126880000Y-111120000D02*
X127050000Y-111120000D01*
X125140000Y-116450000D02*
X125140000Y-115890000D01*
X125140000Y-115890000D02*
X123650000Y-114400000D01*
X123650000Y-114400000D02*
X124220000Y-114400000D01*
X135010000Y-114300000D02*
X137160000Y-114300000D01*
X133690000Y-115620000D02*
X135010000Y-114300000D01*
X133690000Y-121240000D02*
X133690000Y-115620000D01*
X132320000Y-122610000D02*
X133690000Y-121240000D01*
X127500000Y-122610000D02*
X132320000Y-122610000D01*
X126550000Y-121660000D02*
X127500000Y-122610000D01*
X126550000Y-119530000D02*
X126550000Y-121660000D01*
X125140000Y-118120000D02*
X126550000Y-119530000D01*
X125140000Y-116450000D02*
X125140000Y-118120000D01*
X137160000Y-114300000D02*
X137160000Y-110998000D01*
X123650000Y-114400000D02*
X123650000Y-114106000D01*
X123260000Y-107880000D02*
X123260000Y-109580000D01*
X121720000Y-111120000D02*
X119260000Y-111120000D01*
X123260000Y-109580000D02*
X121720000Y-111120000D01*
X123650000Y-116900000D02*
X123650000Y-118820000D01*
X123650000Y-118820000D02*
X125340000Y-120510000D01*
X119920000Y-136850000D02*
X117540000Y-136850000D01*
X117540000Y-136850000D02*
X117040000Y-137350000D01*
X124968000Y-120138000D02*
X125340000Y-120510000D01*
X119560000Y-132320000D02*
X119630000Y-131300000D01*
X119630000Y-131300000D02*
X122800000Y-128130000D01*
X119850000Y-132610000D02*
X119560000Y-132320000D01*
X119920000Y-136850000D02*
X119920000Y-137180000D01*
X122800000Y-128130000D02*
X122800000Y-127460000D01*
X122800000Y-127460000D02*
X125340000Y-124920000D01*
X125340000Y-124920000D02*
X125340000Y-120510000D01*
X119920000Y-136850000D02*
X119360000Y-136850000D01*
X119750000Y-136680000D02*
X119920000Y-136850000D01*
X97282000Y-106700000D02*
X97282000Y-106348000D01*
X101390000Y-103840000D02*
X101390000Y-101560000D01*
X99750000Y-105480000D02*
X101390000Y-103840000D01*
X98150000Y-105480000D02*
X99750000Y-105480000D01*
X97282000Y-106348000D02*
X98150000Y-105480000D01*
X86050000Y-107020000D02*
X87208000Y-107020000D01*
X97282000Y-107696000D02*
X97282000Y-106700000D01*
X96012000Y-108966000D02*
X97282000Y-107696000D01*
X94488000Y-108966000D02*
X96012000Y-108966000D01*
X93726000Y-108204000D02*
X94488000Y-108966000D01*
X88392000Y-108204000D02*
X93726000Y-108204000D01*
X87208000Y-107020000D02*
X88392000Y-108204000D01*
X86050000Y-107020000D02*
X86050000Y-107240000D01*
X70800000Y-105870000D02*
X70510000Y-105580000D01*
X75470000Y-105870000D02*
X70800000Y-105870000D01*
X77660000Y-108060000D02*
X75470000Y-105870000D01*
X85230000Y-108060000D02*
X77660000Y-108060000D01*
X86050000Y-107240000D02*
X85230000Y-108060000D01*
X84380000Y-105990000D02*
X84380000Y-106470000D01*
X70690000Y-104550000D02*
X70320000Y-104550000D01*
X71420000Y-105280000D02*
X70690000Y-104550000D01*
X75750000Y-105280000D02*
X71420000Y-105280000D01*
X77900000Y-107430000D02*
X75750000Y-105280000D01*
X83420000Y-107430000D02*
X77900000Y-107430000D01*
X84380000Y-106470000D02*
X83420000Y-107430000D01*
D34*
X84380000Y-105990000D02*
X84360000Y-105990000D01*
X90678000Y-107188000D02*
X95250000Y-107188000D01*
X90424000Y-106934000D02*
X90678000Y-107188000D01*
X95250000Y-107188000D02*
X95504000Y-107442000D01*
D33*
X115570000Y-82296000D02*
X116524000Y-82296000D01*
X118070000Y-77430000D02*
X116840000Y-76200000D01*
X118070000Y-80750000D02*
X118070000Y-77430000D01*
X116524000Y-82296000D02*
X118070000Y-80750000D01*
X120200000Y-76090000D02*
X116950000Y-76090000D01*
X116950000Y-76090000D02*
X116840000Y-76200000D01*
X115570000Y-82296000D02*
X115824000Y-82296000D01*
X117094000Y-76454000D02*
X116840000Y-76200000D01*
D32*
X95504000Y-99822000D02*
X97858000Y-99822000D01*
X101390000Y-96290000D02*
X101390000Y-93940000D01*
X97858000Y-99822000D02*
X101390000Y-96290000D01*
X95504000Y-99822000D02*
X91948000Y-99822000D01*
X87416000Y-98806000D02*
X86146000Y-100076000D01*
X90932000Y-98806000D02*
X87416000Y-98806000D01*
X91948000Y-99822000D02*
X90932000Y-98806000D01*
X98298000Y-101600000D02*
X98298000Y-101092000D01*
X95504000Y-99822000D02*
X96520000Y-99822000D01*
X96520000Y-99822000D02*
X98298000Y-101600000D01*
X95504000Y-97282000D02*
X95504000Y-96774000D01*
X95504000Y-96774000D02*
X98298000Y-93980000D01*
D33*
X113030000Y-97790000D02*
X113030000Y-98806000D01*
X113030000Y-98806000D02*
X112014000Y-99822000D01*
X115570000Y-84836000D02*
X116840000Y-84836000D01*
X113030000Y-97790000D02*
X112014000Y-96774000D01*
X118110000Y-97790000D02*
X113030000Y-97790000D01*
X121666000Y-94234000D02*
X118110000Y-97790000D01*
X121666000Y-86614000D02*
X121666000Y-94234000D01*
X120650000Y-85598000D02*
X121666000Y-86614000D01*
X117602000Y-85598000D02*
X120650000Y-85598000D01*
X116840000Y-84836000D02*
X117602000Y-85598000D01*
X112014000Y-96520000D02*
X112014000Y-96774000D01*
X112014000Y-96520000D02*
X112014000Y-96924000D01*
X104720000Y-47360000D02*
X104720000Y-47545000D01*
X104720000Y-47545000D02*
X106275000Y-49100000D01*
X106275000Y-49100000D02*
X112360000Y-49100000D01*
X112360000Y-49100000D02*
X114190000Y-47270000D01*
X131384000Y-56642000D02*
X131064000Y-56642000D01*
X131064000Y-56642000D02*
X129794000Y-55372000D01*
X126090000Y-44556000D02*
X126090000Y-43000000D01*
X129794000Y-48260000D02*
X126090000Y-44556000D01*
X129794000Y-55372000D02*
X129794000Y-48260000D01*
X131384000Y-56642000D02*
X131826000Y-56642000D01*
X131826000Y-56642000D02*
X134112000Y-58928000D01*
X126090000Y-43000000D02*
X126090000Y-42016000D01*
X115352000Y-41402000D02*
X113500000Y-43000000D01*
X125222000Y-41402000D02*
X115352000Y-41402000D01*
X126090000Y-42016000D02*
X125222000Y-41402000D01*
X113500000Y-43000000D02*
X113500000Y-46580000D01*
X113500000Y-46580000D02*
X114190000Y-47270000D01*
X114190000Y-47270000D02*
X113640000Y-47270000D01*
X114190000Y-47270000D02*
X114000000Y-47270000D01*
D32*
X120760000Y-107880000D02*
X119100000Y-107880000D01*
X119100000Y-107880000D02*
X118618000Y-107398000D01*
X116078000Y-110824000D02*
X116078000Y-109982000D01*
X118618000Y-107442000D02*
X118618000Y-107398000D01*
X118618000Y-107398000D02*
X118618000Y-104648000D01*
X116078000Y-109982000D02*
X118618000Y-107442000D01*
X118364000Y-104902000D02*
X118618000Y-104648000D01*
D33*
X95250000Y-51816000D02*
X95250000Y-52578000D01*
X95250000Y-52578000D02*
X96266000Y-53594000D01*
X114300000Y-53594000D02*
X116078000Y-55372000D01*
X96266000Y-53594000D02*
X114300000Y-53594000D01*
X116078000Y-56642000D02*
X116078000Y-55372000D01*
X116078000Y-55372000D02*
X116078000Y-54968000D01*
X116078000Y-54968000D02*
X120152000Y-50894000D01*
X116332000Y-61468000D02*
X116332000Y-56896000D01*
X116332000Y-56896000D02*
X116078000Y-56642000D01*
X116332000Y-66294000D02*
X116332000Y-61468000D01*
X116332000Y-71120000D02*
X116332000Y-66294000D01*
X116078000Y-56642000D02*
X115778000Y-56642000D01*
X116722000Y-70730000D02*
X116332000Y-71120000D01*
X116222000Y-61578000D02*
X116332000Y-61468000D01*
X116272000Y-66234000D02*
X116332000Y-66294000D01*
X116578000Y-66048000D02*
X116332000Y-66294000D01*
X116742000Y-61058000D02*
X116332000Y-61468000D01*
X116078000Y-56642000D02*
X116078000Y-56722000D01*
X116586000Y-70866000D02*
X116332000Y-71120000D01*
X116332000Y-66294000D02*
X116332000Y-66040000D01*
X116292000Y-61428000D02*
X116332000Y-61468000D01*
D32*
X114950000Y-102190000D02*
X114472000Y-102190000D01*
X114472000Y-102190000D02*
X112014000Y-104648000D01*
X104394000Y-107188000D02*
X103378000Y-107188000D01*
X102914000Y-112820000D02*
X104330000Y-112820000D01*
X102108000Y-112014000D02*
X102914000Y-112820000D01*
X102108000Y-108458000D02*
X102108000Y-112014000D01*
X103378000Y-107188000D02*
X102108000Y-108458000D01*
X104330000Y-112820000D02*
X104330000Y-115800000D01*
X104330000Y-115800000D02*
X104340000Y-115810000D01*
X111950000Y-112820000D02*
X113530000Y-112820000D01*
X113530000Y-112820000D02*
X114220000Y-112130000D01*
X112000000Y-118790000D02*
X112840000Y-118790000D01*
X125622000Y-107442000D02*
X128778000Y-107442000D01*
X121130000Y-102950000D02*
X125622000Y-107442000D01*
X118100000Y-102950000D02*
X121130000Y-102950000D01*
X116810000Y-104240000D02*
X118100000Y-102950000D01*
X116810000Y-107110000D02*
X116810000Y-104240000D01*
X114220000Y-109700000D02*
X116810000Y-107110000D01*
X114220000Y-117410000D02*
X114220000Y-112130000D01*
X114220000Y-112130000D02*
X114220000Y-109700000D01*
X112840000Y-118790000D02*
X114220000Y-117410000D01*
X104380000Y-118790000D02*
X106000000Y-118790000D01*
X108204000Y-109728000D02*
X112014000Y-109728000D01*
X106934000Y-110998000D02*
X108204000Y-109728000D01*
X106934000Y-117856000D02*
X106934000Y-110998000D01*
X106000000Y-118790000D02*
X106934000Y-117856000D01*
X104380000Y-118790000D02*
X104380000Y-121760000D01*
X104380000Y-121760000D02*
X104340000Y-121800000D01*
X128905000Y-102997000D02*
X127889000Y-102997000D01*
X127889000Y-102997000D02*
X126238000Y-104648000D01*
X128778000Y-99822000D02*
X128778000Y-102870000D01*
X131318000Y-105410000D02*
X131318000Y-107442000D01*
X128778000Y-102870000D02*
X128905000Y-102997000D01*
X128905000Y-102997000D02*
X131318000Y-105410000D01*
X125950000Y-101340000D02*
X125950000Y-99780000D01*
X136652000Y-100598000D02*
X136652000Y-99060000D01*
X135260000Y-101990000D02*
X136652000Y-100598000D01*
X130930000Y-101990000D02*
X135260000Y-101990000D01*
X130120000Y-101180000D02*
X130930000Y-101990000D01*
X130120000Y-99270000D02*
X130120000Y-101180000D01*
X129060000Y-98210000D02*
X130120000Y-99270000D01*
X127520000Y-98210000D02*
X129060000Y-98210000D01*
X125950000Y-99780000D02*
X127520000Y-98210000D01*
D33*
X136652000Y-99060000D02*
X136398000Y-99060000D01*
X136398000Y-99060000D02*
X135128000Y-97790000D01*
X123698000Y-59520000D02*
X120152000Y-55974000D01*
X123698000Y-72390000D02*
X123698000Y-59520000D01*
X127762000Y-76454000D02*
X123698000Y-72390000D01*
X127762000Y-80772000D02*
X127762000Y-76454000D01*
X128524000Y-81788000D02*
X127762000Y-80772000D01*
X133350000Y-81788000D02*
X128524000Y-81788000D01*
X135128000Y-83312000D02*
X133350000Y-81788000D01*
X135128000Y-97790000D02*
X135128000Y-83312000D01*
X120784000Y-55974000D02*
X120152000Y-55974000D01*
D32*
X136652000Y-106680000D02*
X135890000Y-106680000D01*
X135890000Y-106680000D02*
X135128000Y-107442000D01*
X135128000Y-107442000D02*
X133858000Y-107442000D01*
X132080000Y-84240000D02*
X132080000Y-83300000D01*
X123130000Y-83710000D02*
X120200000Y-83710000D01*
X124330000Y-82510000D02*
X123130000Y-83710000D01*
X131290000Y-82510000D02*
X126530000Y-82510000D01*
X126530000Y-82510000D02*
X124330000Y-82510000D01*
X132080000Y-83300000D02*
X131290000Y-82510000D01*
X121460000Y-96990000D02*
X120360000Y-96990000D01*
X115920000Y-98720000D02*
X114950000Y-99690000D01*
X118630000Y-98720000D02*
X115920000Y-98720000D01*
X120360000Y-96990000D02*
X118630000Y-98720000D01*
X132080000Y-95220000D02*
X132080000Y-95800000D01*
X131700000Y-96990000D02*
X121460000Y-96990000D01*
X121460000Y-96990000D02*
X121050000Y-96990000D01*
X132080000Y-95800000D02*
X131700000Y-96990000D01*
X132080000Y-95220000D02*
X132080000Y-84240000D01*
X132080000Y-84240000D02*
X132080000Y-83566000D01*
D33*
X120310000Y-83600000D02*
X120200000Y-83710000D01*
X120110000Y-83740000D02*
X120140000Y-83710000D01*
X120140000Y-83710000D02*
X120200000Y-83710000D01*
X120480000Y-83430000D02*
X120200000Y-83710000D01*
X130556000Y-80264000D02*
X130556000Y-76664000D01*
X130556000Y-76664000D02*
X130890000Y-76330000D01*
X137922000Y-69088000D02*
X136398000Y-69088000D01*
X134968000Y-65880000D02*
X130870000Y-65880000D01*
X135890000Y-66802000D02*
X134968000Y-65880000D01*
X135890000Y-68580000D02*
X135890000Y-66802000D01*
X136398000Y-69088000D02*
X135890000Y-68580000D01*
X127752000Y-68674000D02*
X127752000Y-66304000D01*
X136906000Y-66548000D02*
X137922000Y-66548000D01*
X134620000Y-64262000D02*
X136906000Y-66548000D01*
X129794000Y-64262000D02*
X134620000Y-64262000D01*
X127752000Y-66304000D02*
X129794000Y-64262000D01*
X127762000Y-68684000D02*
X127752000Y-68674000D01*
X127762000Y-68684000D02*
X127752000Y-68674000D01*
D32*
X62230000Y-102870000D02*
X62390000Y-102870000D01*
D34*
X102210000Y-96520000D02*
X104394000Y-96520000D01*
X99610000Y-99420000D02*
X102210000Y-96520000D01*
X99610000Y-102950000D02*
X99610000Y-99420000D01*
X98550000Y-103710000D02*
X99610000Y-102950000D01*
X93850000Y-103710000D02*
X98550000Y-103710000D01*
X93830000Y-103690000D02*
X93850000Y-103710000D01*
X100538000Y-99822000D02*
X104394000Y-99822000D01*
X100110000Y-100250000D02*
X100538000Y-99822000D01*
X100110000Y-103270000D02*
X100110000Y-100250000D01*
X98760000Y-104620000D02*
X100110000Y-103270000D01*
X94450000Y-104620000D02*
X98760000Y-104620000D01*
X94440000Y-104610000D02*
X94450000Y-104620000D01*
D32*
X78486000Y-83058000D02*
X76212000Y-83058000D01*
X76212000Y-83058000D02*
X76200000Y-83070000D01*
M02*
