%TF.GenerationSoftware,KiCad,Pcbnew,(6.0.11)*%
%TF.CreationDate,2023-02-05T16:44:35-06:00*%
%TF.ProjectId,RFBitBanger,52464269-7442-4616-9e67-65722e6b6963,rev?*%
%TF.SameCoordinates,Original*%
%TF.FileFunction,Copper,L2,Bot*%
%TF.FilePolarity,Positive*%
%FSLAX46Y46*%
G04 Gerber Fmt 4.6, Leading zero omitted, Abs format (unit mm)*
G04 Created by KiCad (PCBNEW (6.0.11)) date 2023-02-05 16:44:35*
%MOMM*%
%LPD*%
G01*
G04 APERTURE LIST*
%TA.AperFunction,ComponentPad*%
%ADD10C,1.524000*%
%TD*%
%TA.AperFunction,ComponentPad*%
%ADD11R,1.600000X1.600000*%
%TD*%
%TA.AperFunction,ComponentPad*%
%ADD12C,1.600000*%
%TD*%
%TA.AperFunction,ComponentPad*%
%ADD13O,1.600000X1.600000*%
%TD*%
%TA.AperFunction,ComponentPad*%
%ADD14C,1.500000*%
%TD*%
%TA.AperFunction,ComponentPad*%
%ADD15R,1.700000X1.700000*%
%TD*%
%TA.AperFunction,ComponentPad*%
%ADD16O,1.700000X1.700000*%
%TD*%
%TA.AperFunction,ComponentPad*%
%ADD17C,1.520000*%
%TD*%
%TA.AperFunction,ComponentPad*%
%ADD18R,1.520000X1.520000*%
%TD*%
%TA.AperFunction,ComponentPad*%
%ADD19R,2.200000X2.200000*%
%TD*%
%TA.AperFunction,ComponentPad*%
%ADD20O,2.200000X2.200000*%
%TD*%
%TA.AperFunction,ComponentPad*%
%ADD21R,1.800000X1.800000*%
%TD*%
%TA.AperFunction,ComponentPad*%
%ADD22C,1.800000*%
%TD*%
%TA.AperFunction,ComponentPad*%
%ADD23R,2.500000X2.500000*%
%TD*%
%TA.AperFunction,ComponentPad*%
%ADD24O,2.500000X2.500000*%
%TD*%
%TA.AperFunction,ComponentPad*%
%ADD25R,3.000000X3.000000*%
%TD*%
%TA.AperFunction,ComponentPad*%
%ADD26C,3.000000*%
%TD*%
%TA.AperFunction,ComponentPad*%
%ADD27R,3.500000X3.500000*%
%TD*%
%TA.AperFunction,ComponentPad*%
%ADD28R,2.000000X3.500000*%
%TD*%
%TA.AperFunction,ComponentPad*%
%ADD29C,2.000000*%
%TD*%
%TA.AperFunction,ComponentPad*%
%ADD30O,1.800000X1.800000*%
%TD*%
%TA.AperFunction,ComponentPad*%
%ADD31C,2.500000*%
%TD*%
%TA.AperFunction,ComponentPad*%
%ADD32O,2.000000X3.500000*%
%TD*%
%TA.AperFunction,ComponentPad*%
%ADD33O,4.000000X2.000000*%
%TD*%
%TA.AperFunction,ComponentPad*%
%ADD34C,1.440000*%
%TD*%
%TA.AperFunction,ComponentPad*%
%ADD35C,5.000000*%
%TD*%
%TA.AperFunction,ViaPad*%
%ADD36C,0.600000*%
%TD*%
%TA.AperFunction,Conductor*%
%ADD37C,0.350000*%
%TD*%
%TA.AperFunction,Conductor*%
%ADD38C,0.500000*%
%TD*%
%TA.AperFunction,Conductor*%
%ADD39C,0.250000*%
%TD*%
G04 APERTURE END LIST*
D10*
%TO.P,L6,1*%
%TO.N,Net-(C14-Pad2)*%
X157525000Y-82900000D03*
%TO.P,L6,2*%
%TO.N,AMPOUT*%
X161335000Y-82900000D03*
%TD*%
D11*
%TO.P,C15,1*%
%TO.N,Net-(C15-Pad1)*%
X75120000Y-131650000D03*
D12*
%TO.P,C15,2*%
%TO.N,GND*%
X72620000Y-131650000D03*
%TD*%
%TO.P,R35,1*%
%TO.N,SCL*%
X106600000Y-96850000D03*
D13*
%TO.P,R35,2*%
%TO.N,Net-(C47-Pad2)*%
X106600000Y-89230000D03*
%TD*%
D14*
%TO.P,Y3,1*%
%TO.N,Net-(U6-Pad2)*%
X111060000Y-92480000D03*
%TO.P,Y3,2*%
%TO.N,Net-(U6-Pad3)*%
X111060000Y-97360000D03*
%TD*%
D15*
%TO.P,J9,1*%
%TO.N,MISO*%
X96360000Y-108020000D03*
D16*
%TO.P,J9,2*%
%TO.N,Net-(J9-Pad2)*%
X93820000Y-108020000D03*
%TO.P,J9,3*%
%TO.N,SCK*%
X96360000Y-105480000D03*
%TO.P,J9,4*%
%TO.N,MOSI*%
X93820000Y-105480000D03*
%TO.P,J9,5*%
%TO.N,RESET*%
X96360000Y-102940000D03*
%TO.P,J9,6*%
%TO.N,GND*%
X93820000Y-102940000D03*
%TD*%
D12*
%TO.P,R63,1*%
%TO.N,Net-(R63-Pad1)*%
X124570000Y-132100000D03*
D13*
%TO.P,R63,2*%
%TO.N,Net-(C40-Pad1)*%
X116950000Y-132100000D03*
%TD*%
D12*
%TO.P,R32,1*%
%TO.N,AUDIO*%
X100090000Y-133350000D03*
D13*
%TO.P,R32,2*%
%TO.N,Net-(C18-Pad1)*%
X100090000Y-125730000D03*
%TD*%
D17*
%TO.P,Q5,2*%
%TO.N,Net-(C23-Pad2)*%
X182800000Y-90830000D03*
%TO.P,Q5,3*%
%TO.N,AMPOUT*%
X180260000Y-90830000D03*
D18*
%TO.P,Q5,1*%
%TO.N,GND*%
X185340000Y-90830000D03*
%TD*%
D17*
%TO.P,Q4,2*%
%TO.N,Net-(Q4-Pad2)*%
X96640000Y-118870000D03*
%TO.P,Q4,3*%
%TO.N,Net-(C18-Pad1)*%
X96640000Y-121410000D03*
D18*
%TO.P,Q4,1*%
%TO.N,GND*%
X96640000Y-116330000D03*
%TD*%
D15*
%TO.P,JP4,1*%
%TO.N,Net-(C26-Pad2)*%
X169660000Y-126990000D03*
D16*
%TO.P,JP4,2*%
%TO.N,Net-(J18-Pad3)*%
X169660000Y-129530000D03*
%TD*%
D12*
%TO.P,R4,1*%
%TO.N,+5V*%
X116860000Y-135600000D03*
D13*
%TO.P,R4,2*%
%TO.N,Net-(D3-Pad2)*%
X124480000Y-135600000D03*
%TD*%
D15*
%TO.P,JP7,1*%
%TO.N,Net-(J17-Pad4)*%
X176560000Y-116780000D03*
D16*
%TO.P,JP7,2*%
%TO.N,Net-(JP7-Pad2)*%
X174020000Y-116780000D03*
%TO.P,JP7,3*%
%TO.N,Net-(J18-Pad3)*%
X171480000Y-116780000D03*
%TD*%
D12*
%TO.P,R39,1*%
%TO.N,Net-(Q13-Pad2)*%
X180435000Y-69295000D03*
D13*
%TO.P,R39,2*%
%TO.N,Net-(D15-Pad2)*%
X188055000Y-69295000D03*
%TD*%
D12*
%TO.P,C47,1*%
%TO.N,GND*%
X120010000Y-99770000D03*
%TO.P,C47,2*%
%TO.N,Net-(C47-Pad2)*%
X117510000Y-99770000D03*
%TD*%
%TO.P,C2,1*%
%TO.N,RESET*%
X75185000Y-67215000D03*
%TO.P,C2,2*%
%TO.N,Net-(C2-Pad2)*%
X75185000Y-69715000D03*
%TD*%
D11*
%TO.P,C6,1*%
%TO.N,+5V*%
X89795000Y-73985000D03*
D12*
%TO.P,C6,2*%
%TO.N,GND*%
X92295000Y-73985000D03*
%TD*%
%TO.P,R31,1*%
%TO.N,Net-(C60-Pad2)*%
X90220000Y-128320000D03*
D13*
%TO.P,R31,2*%
%TO.N,Net-(C34-Pad1)*%
X90220000Y-135940000D03*
%TD*%
D12*
%TO.P,C20,1*%
%TO.N,GND*%
X160770000Y-89660000D03*
%TO.P,C20,2*%
%TO.N,Net-(C14-Pad2)*%
X160770000Y-92160000D03*
%TD*%
D17*
%TO.P,Q9,2*%
%TO.N,Net-(Q9-Pad2)*%
X162700000Y-95940000D03*
%TO.P,Q9,3*%
%TO.N,Net-(C14-Pad2)*%
X160160000Y-95940000D03*
D18*
%TO.P,Q9,1*%
%TO.N,Net-(Q9-Pad1)*%
X165240000Y-95940000D03*
%TD*%
D12*
%TO.P,R20,1*%
%TO.N,Net-(Q9-Pad2)*%
X147690000Y-92760000D03*
D13*
%TO.P,R20,2*%
%TO.N,Net-(C56-Pad1)*%
X147690000Y-85140000D03*
%TD*%
D11*
%TO.P,U4,1*%
%TO.N,Net-(C39-Pad2)*%
X124300000Y-127650000D03*
D13*
%TO.P,U4,5*%
%TO.N,Net-(C40-Pad1)*%
X116680000Y-120030000D03*
%TO.P,U4,2*%
%TO.N,Net-(R63-Pad1)*%
X124300000Y-125110000D03*
%TO.P,U4,6*%
%TO.N,Net-(C35-Pad1)*%
X116680000Y-122570000D03*
%TO.P,U4,3*%
%TO.N,Net-(C54-Pad2)*%
X124300000Y-122570000D03*
%TO.P,U4,7*%
%TO.N,AUDIO*%
X116680000Y-125110000D03*
%TO.P,U4,4*%
%TO.N,GND*%
X124300000Y-120030000D03*
%TO.P,U4,8*%
%TO.N,+5V*%
X116680000Y-127650000D03*
%TD*%
D12*
%TO.P,R19,1*%
%TO.N,Net-(C40-Pad1)*%
X114530000Y-114130000D03*
D13*
%TO.P,R19,2*%
%TO.N,GND*%
X106910000Y-114130000D03*
%TD*%
D11*
%TO.P,D12,1*%
%TO.N,Net-(D12-Pad1)*%
X158800000Y-115775000D03*
D13*
%TO.P,D12,2*%
%TO.N,Net-(D12-Pad2)*%
X151180000Y-115775000D03*
%TD*%
D15*
%TO.P,JP5,1*%
%TO.N,PLLOSC*%
X140475000Y-91525000D03*
D16*
%TO.P,JP5,2*%
%TO.N,Net-(C51-Pad1)*%
X140475000Y-88985000D03*
%TO.P,JP5,3*%
%TO.N,XOSC*%
X140475000Y-86445000D03*
%TD*%
D12*
%TO.P,R9,1*%
%TO.N,Net-(C12-Pad1)*%
X115710000Y-89080000D03*
D13*
%TO.P,R9,2*%
%TO.N,Net-(C48-Pad2)*%
X123330000Y-89080000D03*
%TD*%
D12*
%TO.P,R18,1*%
%TO.N,+5V*%
X124500000Y-113130000D03*
D13*
%TO.P,R18,2*%
%TO.N,Net-(C40-Pad1)*%
X116880000Y-113130000D03*
%TD*%
D12*
%TO.P,C1,1*%
%TO.N,+5V*%
X89570000Y-97680000D03*
%TO.P,C1,2*%
%TO.N,GND*%
X89570000Y-100180000D03*
%TD*%
%TO.P,C4,1*%
%TO.N,Net-(C4-Pad1)*%
X69170000Y-86730000D03*
%TO.P,C4,2*%
%TO.N,GND*%
X69170000Y-91730000D03*
%TD*%
%TO.P,C5,1*%
%TO.N,Net-(C5-Pad1)*%
X65880000Y-86730000D03*
%TO.P,C5,2*%
%TO.N,GND*%
X65880000Y-91730000D03*
%TD*%
%TO.P,C8,1*%
%TO.N,GND*%
X65045000Y-94405000D03*
%TO.P,C8,2*%
%TO.N,Net-(C8-Pad2)*%
X70045000Y-94405000D03*
%TD*%
%TO.P,C9,1*%
%TO.N,GND*%
X65085000Y-98065000D03*
%TO.P,C9,2*%
%TO.N,Net-(C9-Pad2)*%
X70085000Y-98065000D03*
%TD*%
%TO.P,C10,1*%
%TO.N,GND*%
X69430000Y-122690000D03*
%TO.P,C10,2*%
%TO.N,Net-(C10-Pad2)*%
X71930000Y-122690000D03*
%TD*%
%TO.P,C11,1*%
%TO.N,GND*%
X62400000Y-122550000D03*
%TO.P,C11,2*%
%TO.N,Net-(C11-Pad2)*%
X64900000Y-122550000D03*
%TD*%
D11*
%TO.P,C12,1*%
%TO.N,Net-(C12-Pad1)*%
X110890000Y-83960000D03*
D12*
%TO.P,C12,2*%
%TO.N,GND*%
X110890000Y-81460000D03*
%TD*%
%TO.P,C13,1*%
%TO.N,Net-(C12-Pad1)*%
X112320000Y-87280000D03*
%TO.P,C13,2*%
%TO.N,GND*%
X109820000Y-87280000D03*
%TD*%
%TO.P,C16,1*%
%TO.N,GND*%
X56630000Y-132600000D03*
%TO.P,C16,2*%
%TO.N,Net-(C16-Pad2)*%
X59130000Y-132600000D03*
%TD*%
%TO.P,C17,1*%
%TO.N,GND*%
X50930000Y-132660000D03*
%TO.P,C17,2*%
%TO.N,Net-(C17-Pad2)*%
X53430000Y-132660000D03*
%TD*%
D11*
%TO.P,C19,1*%
%TO.N,Net-(C19-Pad1)*%
X62280000Y-138550000D03*
D12*
%TO.P,C19,2*%
%TO.N,SPKR*%
X62280000Y-141050000D03*
%TD*%
%TO.P,C21,1*%
%TO.N,Net-(C21-Pad1)*%
X127265000Y-68645000D03*
%TO.P,C21,2*%
%TO.N,Net-(C21-Pad2)*%
X122265000Y-68645000D03*
%TD*%
%TO.P,C22,1*%
%TO.N,Net-(C21-Pad1)*%
X136370000Y-71530000D03*
%TO.P,C22,2*%
%TO.N,GND*%
X136370000Y-76530000D03*
%TD*%
%TO.P,C25,1*%
%TO.N,+5V*%
X114080000Y-133300000D03*
%TO.P,C25,2*%
%TO.N,GND*%
X114080000Y-135800000D03*
%TD*%
%TO.P,C33,1*%
%TO.N,AUDIOFILT*%
X84430000Y-114200000D03*
%TO.P,C33,2*%
%TO.N,GND*%
X81930000Y-114200000D03*
%TD*%
%TO.P,C34,1*%
%TO.N,Net-(C34-Pad1)*%
X93500000Y-136060000D03*
%TO.P,C34,2*%
%TO.N,Net-(C34-Pad2)*%
X96000000Y-136060000D03*
%TD*%
%TO.P,C35,1*%
%TO.N,Net-(C35-Pad1)*%
X113230000Y-125650000D03*
%TO.P,C35,2*%
%TO.N,AUDIO*%
X113230000Y-130650000D03*
%TD*%
D19*
%TO.P,D1,1*%
%TO.N,+12V*%
X53280000Y-78380000D03*
D20*
%TO.P,D1,2*%
%TO.N,GND*%
X60900000Y-78380000D03*
%TD*%
D11*
%TO.P,D2,1*%
%TO.N,+5V*%
X89860000Y-66410000D03*
D13*
%TO.P,D2,2*%
%TO.N,RESET*%
X82240000Y-66410000D03*
%TD*%
D21*
%TO.P,D3,1*%
%TO.N,GND*%
X137410000Y-137630000D03*
D22*
%TO.P,D3,2*%
%TO.N,Net-(D3-Pad2)*%
X134870000Y-137630000D03*
%TD*%
D23*
%TO.P,D4,1*%
%TO.N,Net-(C48-Pad2)*%
X133500000Y-90530000D03*
D24*
%TO.P,D4,2*%
%TO.N,GND*%
X133500000Y-82910000D03*
%TD*%
D23*
%TO.P,D5,1*%
%TO.N,Net-(C48-Pad2)*%
X137000000Y-90550000D03*
D24*
%TO.P,D5,2*%
%TO.N,GND*%
X137000000Y-82930000D03*
%TD*%
D25*
%TO.P,J1,1*%
%TO.N,Net-(C58-Pad1)*%
X68195000Y-61835000D03*
D26*
%TO.P,J1,2*%
%TO.N,Net-(C58-Pad2)*%
X63115000Y-61835000D03*
%TD*%
D27*
%TO.P,J2,1*%
%TO.N,Net-(C58-Pad2)*%
X54955000Y-67305000D03*
%TO.P,J2,2*%
%TO.N,Net-(C58-Pad1)*%
X54955000Y-61305000D03*
D28*
%TO.P,J2,3*%
%TO.N,N/C*%
X50255000Y-64305000D03*
%TD*%
D15*
%TO.P,J5,1*%
%TO.N,GND*%
X66500000Y-76500000D03*
D16*
%TO.P,J5,2*%
%TO.N,Net-(C5-Pad1)*%
X69040000Y-76500000D03*
%TO.P,J5,3*%
%TO.N,Net-(C4-Pad1)*%
X71580000Y-76500000D03*
%TO.P,J5,4*%
%TO.N,Net-(C2-Pad2)*%
X74120000Y-76500000D03*
%TD*%
D25*
%TO.P,J11,1*%
%TO.N,SPKR*%
X69800000Y-139350000D03*
D26*
%TO.P,J11,2*%
%TO.N,GND*%
X74880000Y-139350000D03*
%TD*%
D12*
%TO.P,L1,1*%
%TO.N,Net-(C4-Pad1)*%
X65560000Y-83520000D03*
D13*
%TO.P,L1,2*%
%TO.N,TXD*%
X75720000Y-83520000D03*
%TD*%
D12*
%TO.P,L2,1*%
%TO.N,Net-(C5-Pad1)*%
X65575000Y-80155000D03*
D13*
%TO.P,L2,2*%
%TO.N,RXD*%
X75735000Y-80155000D03*
%TD*%
D12*
%TO.P,L3,1*%
%TO.N,Net-(C12-Pad1)*%
X105140000Y-85860000D03*
D13*
%TO.P,L3,2*%
%TO.N,Net-(L3-Pad2)*%
X94980000Y-85860000D03*
%TD*%
D12*
%TO.P,L9,1*%
%TO.N,TRANSMIT*%
X99210000Y-98960000D03*
D13*
%TO.P,L9,2*%
%TO.N,Net-(L9-Pad2)*%
X99210000Y-88800000D03*
%TD*%
D17*
%TO.P,Q1,2*%
%TO.N,Net-(C50-Pad1)*%
X141500000Y-133760000D03*
%TO.P,Q1,3*%
%TO.N,Net-(C54-Pad1)*%
X141500000Y-131220000D03*
D18*
%TO.P,Q1,1*%
%TO.N,Net-(C49-Pad1)*%
X141500000Y-136300000D03*
%TD*%
D17*
%TO.P,Q2,2*%
%TO.N,Net-(C21-Pad2)*%
X120950000Y-72390000D03*
%TO.P,Q2,3*%
%TO.N,Net-(C36-Pad1)*%
X118410000Y-72390000D03*
D18*
%TO.P,Q2,1*%
%TO.N,Net-(C21-Pad1)*%
X123490000Y-72390000D03*
%TD*%
D17*
%TO.P,Q3,2*%
%TO.N,Net-(C23-Pad2)*%
X172890000Y-75630000D03*
%TO.P,Q3,3*%
%TO.N,AMPOUT*%
X175430000Y-75630000D03*
D18*
%TO.P,Q3,1*%
%TO.N,GND*%
X170350000Y-75630000D03*
%TD*%
D29*
%TO.P,SW1,2*%
%TO.N,RESET*%
X78825000Y-73615000D03*
%TO.P,SW1,1*%
%TO.N,GND*%
X78825000Y-69115000D03*
%TO.P,SW1,2*%
%TO.N,RESET*%
X85325000Y-73615000D03*
%TO.P,SW1,1*%
%TO.N,GND*%
X85325000Y-69115000D03*
%TD*%
%TO.P,SW2,2*%
%TO.N,GND*%
X70745000Y-113075000D03*
%TO.P,SW2,1*%
%TO.N,Net-(C10-Pad2)*%
X75245000Y-113075000D03*
%TO.P,SW2,2*%
%TO.N,GND*%
X70745000Y-119575000D03*
%TO.P,SW2,1*%
%TO.N,Net-(C10-Pad2)*%
X75245000Y-119575000D03*
%TD*%
%TO.P,SW3,2*%
%TO.N,GND*%
X54325000Y-112815000D03*
%TO.P,SW3,1*%
%TO.N,Net-(C16-Pad2)*%
X58825000Y-112815000D03*
%TO.P,SW3,2*%
%TO.N,GND*%
X54325000Y-119315000D03*
%TO.P,SW3,1*%
%TO.N,Net-(C16-Pad2)*%
X58825000Y-119315000D03*
%TD*%
%TO.P,SW4,2*%
%TO.N,GND*%
X54445000Y-122985000D03*
%TO.P,SW4,1*%
%TO.N,Net-(C17-Pad2)*%
X58945000Y-122985000D03*
%TO.P,SW4,2*%
%TO.N,GND*%
X54445000Y-129485000D03*
%TO.P,SW4,1*%
%TO.N,Net-(C17-Pad2)*%
X58945000Y-129485000D03*
%TD*%
%TO.P,SW5,2*%
%TO.N,GND*%
X62365000Y-112925000D03*
%TO.P,SW5,1*%
%TO.N,Net-(C11-Pad2)*%
X66865000Y-112925000D03*
%TO.P,SW5,2*%
%TO.N,GND*%
X62365000Y-119425000D03*
%TO.P,SW5,1*%
%TO.N,Net-(C11-Pad2)*%
X66865000Y-119425000D03*
%TD*%
D21*
%TO.P,U2,1*%
%TO.N,+12V*%
X83670000Y-59660000D03*
D30*
%TO.P,U2,2*%
%TO.N,GND*%
X86210000Y-59660000D03*
%TO.P,U2,3*%
%TO.N,+5V*%
X88750000Y-59660000D03*
%TD*%
D14*
%TO.P,Y1,1*%
%TO.N,Net-(C8-Pad2)*%
X74045000Y-91985000D03*
%TO.P,Y1,2*%
%TO.N,Net-(C9-Pad2)*%
X74045000Y-96865000D03*
%TD*%
%TO.P,Y2,1*%
%TO.N,Net-(C21-Pad2)*%
X117420000Y-78870000D03*
%TO.P,Y2,2*%
%TO.N,Net-(C48-Pad1)*%
X117420000Y-83750000D03*
%TD*%
D11*
%TO.P,U1,1*%
%TO.N,RESET*%
X78675000Y-77165000D03*
D13*
%TO.P,U1,15*%
%TO.N,TRANSMIT*%
X86295000Y-110185000D03*
%TO.P,U1,2*%
%TO.N,RXD*%
X78675000Y-79705000D03*
%TO.P,U1,16*%
%TO.N,TUNING*%
X86295000Y-107645000D03*
%TO.P,U1,3*%
%TO.N,TXD*%
X78675000Y-82245000D03*
%TO.P,U1,17*%
%TO.N,MOSI*%
X86295000Y-105105000D03*
%TO.P,U1,4*%
%TO.N,PS2CLK*%
X78675000Y-84785000D03*
%TO.P,U1,18*%
%TO.N,MISO*%
X86295000Y-102565000D03*
%TO.P,U1,5*%
%TO.N,BEEPOUT*%
X78675000Y-87325000D03*
%TO.P,U1,19*%
%TO.N,SCK*%
X86295000Y-100025000D03*
%TO.P,U1,6*%
%TO.N,MUTEAUDIO*%
X78675000Y-89865000D03*
%TO.P,U1,20*%
%TO.N,+5V*%
X86295000Y-97485000D03*
%TO.P,U1,7*%
X78675000Y-92405000D03*
%TO.P,U1,21*%
%TO.N,Net-(C57-Pad1)*%
X86295000Y-94945000D03*
%TO.P,U1,8*%
%TO.N,GND*%
X78675000Y-94945000D03*
%TO.P,U1,22*%
X86295000Y-92405000D03*
%TO.P,U1,9*%
%TO.N,Net-(C8-Pad2)*%
X78675000Y-97485000D03*
%TO.P,U1,23*%
%TO.N,AUDIOFILT*%
X86295000Y-89865000D03*
%TO.P,U1,10*%
%TO.N,Net-(C9-Pad2)*%
X78675000Y-100025000D03*
%TO.P,U1,24*%
%TO.N,MICPADDLE*%
X86295000Y-87325000D03*
%TO.P,U1,11*%
%TO.N,DB4*%
X78675000Y-102565000D03*
%TO.P,U1,25*%
%TO.N,E*%
X86295000Y-84785000D03*
%TO.P,U1,12*%
%TO.N,DB5*%
X78675000Y-105105000D03*
%TO.P,U1,26*%
%TO.N,RS*%
X86295000Y-82245000D03*
%TO.P,U1,13*%
%TO.N,DB6*%
X78675000Y-107645000D03*
%TO.P,U1,27*%
%TO.N,SDA*%
X86295000Y-79705000D03*
%TO.P,U1,14*%
%TO.N,DB7*%
X78675000Y-110185000D03*
%TO.P,U1,28*%
%TO.N,SCL*%
X86295000Y-77165000D03*
%TD*%
D12*
%TO.P,C37,1*%
%TO.N,+12V*%
X81450000Y-134840000D03*
%TO.P,C37,2*%
%TO.N,GND*%
X83950000Y-134840000D03*
%TD*%
D11*
%TO.P,U3,1*%
%TO.N,N/C*%
X86300000Y-131700000D03*
D13*
%TO.P,U3,5*%
%TO.N,Net-(L10-Pad1)*%
X78680000Y-124080000D03*
%TO.P,U3,2*%
%TO.N,Net-(RV1-Pad2)*%
X86300000Y-129160000D03*
%TO.P,U3,6*%
%TO.N,+12V*%
X78680000Y-126620000D03*
%TO.P,U3,3*%
%TO.N,GND*%
X86300000Y-126620000D03*
%TO.P,U3,7*%
%TO.N,Net-(C15-Pad1)*%
X78680000Y-129160000D03*
%TO.P,U3,4*%
%TO.N,GND*%
X86300000Y-124080000D03*
%TO.P,U3,8*%
%TO.N,N/C*%
X78680000Y-131700000D03*
%TD*%
D17*
%TO.P,Q6,2*%
%TO.N,Net-(C23-Pad2)*%
X173020000Y-90680000D03*
%TO.P,Q6,3*%
%TO.N,AMPOUT*%
X170480000Y-90680000D03*
D18*
%TO.P,Q6,1*%
%TO.N,GND*%
X175560000Y-90680000D03*
%TD*%
D17*
%TO.P,Q7,2*%
%TO.N,Net-(C23-Pad2)*%
X182500000Y-75520000D03*
%TO.P,Q7,3*%
%TO.N,AMPOUT*%
X185040000Y-75520000D03*
D18*
%TO.P,Q7,1*%
%TO.N,GND*%
X179960000Y-75520000D03*
%TD*%
D11*
%TO.P,C14,1*%
%TO.N,Net-(C14-Pad1)*%
X157360000Y-67480000D03*
D12*
%TO.P,C14,2*%
%TO.N,Net-(C14-Pad2)*%
X157360000Y-69980000D03*
%TD*%
D31*
%TO.P,RV3,2*%
%TO.N,Net-(RV3-Pad2)*%
X59500000Y-83210000D03*
%TO.P,RV3,3*%
%TO.N,+5V*%
X62000000Y-88250000D03*
%TO.P,RV3,1*%
%TO.N,GND*%
X57000000Y-88250000D03*
%TD*%
D12*
%TO.P,C42,1*%
%TO.N,+5V*%
X50010000Y-75210000D03*
%TO.P,C42,2*%
%TO.N,GND*%
X50010000Y-77710000D03*
%TD*%
D15*
%TO.P,JP3,1*%
%TO.N,Net-(J9-Pad2)*%
X101610000Y-108200000D03*
D16*
%TO.P,JP3,2*%
%TO.N,+5V*%
X101610000Y-105660000D03*
%TD*%
D12*
%TO.P,R1,1*%
%TO.N,+5V*%
X89880000Y-63400000D03*
D13*
%TO.P,R1,2*%
%TO.N,RESET*%
X82260000Y-63400000D03*
%TD*%
D12*
%TO.P,R2,1*%
%TO.N,Net-(R2-Pad1)*%
X52020000Y-98940000D03*
D13*
%TO.P,R2,2*%
%TO.N,+5V*%
X59640000Y-98940000D03*
%TD*%
D12*
%TO.P,R3,1*%
%TO.N,Net-(C11-Pad2)*%
X65465000Y-109385000D03*
D13*
%TO.P,R3,2*%
%TO.N,DB5*%
X65465000Y-101765000D03*
%TD*%
D12*
%TO.P,R6,1*%
%TO.N,Net-(C10-Pad2)*%
X75215000Y-109415000D03*
D13*
%TO.P,R6,2*%
%TO.N,+5V*%
X75215000Y-101795000D03*
%TD*%
D12*
%TO.P,R7,1*%
%TO.N,Net-(L3-Pad2)*%
X95610000Y-89600000D03*
D13*
%TO.P,R7,2*%
%TO.N,TUNING*%
X95610000Y-97220000D03*
%TD*%
D12*
%TO.P,R8,1*%
%TO.N,Net-(C14-Pad1)*%
X148530000Y-66020000D03*
D13*
%TO.P,R8,2*%
%TO.N,Net-(C36-Pad1)*%
X140910000Y-66020000D03*
%TD*%
D12*
%TO.P,R11,1*%
%TO.N,Net-(C19-Pad1)*%
X63060000Y-133350000D03*
D13*
%TO.P,R11,2*%
%TO.N,Net-(L10-Pad1)*%
X63060000Y-125730000D03*
%TD*%
D12*
%TO.P,R12,1*%
%TO.N,Net-(C16-Pad2)*%
X62165000Y-109355000D03*
D13*
%TO.P,R12,2*%
%TO.N,+5V*%
X62165000Y-101735000D03*
%TD*%
D12*
%TO.P,R13,1*%
%TO.N,Net-(C17-Pad2)*%
X55495000Y-109345000D03*
D13*
%TO.P,R13,2*%
%TO.N,+5V*%
X55495000Y-101725000D03*
%TD*%
D12*
%TO.P,R14,1*%
%TO.N,Net-(C14-Pad1)*%
X151260000Y-69090000D03*
D13*
%TO.P,R14,2*%
%TO.N,Net-(D18-Pad2)*%
X151260000Y-61470000D03*
%TD*%
D12*
%TO.P,R15,1*%
%TO.N,Net-(C36-Pad1)*%
X112930000Y-78400000D03*
D13*
%TO.P,R15,2*%
%TO.N,Net-(C21-Pad2)*%
X112930000Y-70780000D03*
%TD*%
D12*
%TO.P,R16,1*%
%TO.N,GND*%
X111980000Y-68060000D03*
D13*
%TO.P,R16,2*%
%TO.N,Net-(C21-Pad2)*%
X119600000Y-68060000D03*
%TD*%
D12*
%TO.P,R17,1*%
%TO.N,GND*%
X133530000Y-72250000D03*
D13*
%TO.P,R17,2*%
%TO.N,Net-(C21-Pad1)*%
X125910000Y-72250000D03*
%TD*%
D12*
%TO.P,R21,1*%
%TO.N,GND*%
X153770000Y-137580000D03*
D13*
%TO.P,R21,2*%
%TO.N,Net-(C27-Pad1)*%
X153770000Y-129960000D03*
%TD*%
D12*
%TO.P,R23,1*%
%TO.N,AUDIO*%
X109840000Y-127140000D03*
D13*
%TO.P,R23,2*%
%TO.N,Net-(C45-Pad2)*%
X109840000Y-134760000D03*
%TD*%
D12*
%TO.P,R26,1*%
%TO.N,Net-(C35-Pad1)*%
X110570000Y-124240000D03*
D13*
%TO.P,R26,2*%
%TO.N,Net-(C45-Pad2)*%
X102950000Y-124240000D03*
%TD*%
D12*
%TO.P,R27,1*%
%TO.N,Net-(C45-Pad2)*%
X106510000Y-127150000D03*
D13*
%TO.P,R27,2*%
%TO.N,Net-(C39-Pad1)*%
X106510000Y-134770000D03*
%TD*%
D12*
%TO.P,R29,1*%
%TO.N,Net-(C10-Pad2)*%
X71955000Y-109365000D03*
D13*
%TO.P,R29,2*%
%TO.N,DB4*%
X71955000Y-101745000D03*
%TD*%
D12*
%TO.P,R30,1*%
%TO.N,Net-(Q4-Pad2)*%
X86530000Y-117460000D03*
D13*
%TO.P,R30,2*%
%TO.N,MUTEAUDIO*%
X78910000Y-117460000D03*
%TD*%
D12*
%TO.P,R33,1*%
%TO.N,Net-(C11-Pad2)*%
X68675000Y-109385000D03*
D13*
%TO.P,R33,2*%
%TO.N,+5V*%
X68675000Y-101765000D03*
%TD*%
D12*
%TO.P,R34,1*%
%TO.N,Net-(C18-Pad1)*%
X96740000Y-125690000D03*
D13*
%TO.P,R34,2*%
%TO.N,Net-(C34-Pad1)*%
X96740000Y-133310000D03*
%TD*%
D12*
%TO.P,R36,1*%
%TO.N,GND*%
X103270000Y-127100000D03*
D13*
%TO.P,R36,2*%
%TO.N,AUDIO*%
X103270000Y-134720000D03*
%TD*%
D12*
%TO.P,R37,1*%
%TO.N,GND*%
X94160000Y-141010000D03*
D13*
%TO.P,R37,2*%
%TO.N,Net-(C39-Pad2)*%
X101780000Y-141010000D03*
%TD*%
D12*
%TO.P,R46,1*%
%TO.N,Net-(C17-Pad2)*%
X52275000Y-109325000D03*
D13*
%TO.P,R46,2*%
%TO.N,DB7*%
X52275000Y-101705000D03*
%TD*%
D12*
%TO.P,R47,1*%
%TO.N,Net-(C16-Pad2)*%
X58825000Y-109345000D03*
D13*
%TO.P,R47,2*%
%TO.N,DB6*%
X58825000Y-101725000D03*
%TD*%
D12*
%TO.P,R24,1*%
%TO.N,AUDIOFILT*%
X93020000Y-115380000D03*
D13*
%TO.P,R24,2*%
%TO.N,AUDIO*%
X93020000Y-123000000D03*
%TD*%
D12*
%TO.P,C44,1*%
%TO.N,GND*%
X68585000Y-70295000D03*
%TO.P,C44,2*%
%TO.N,+12V*%
X66085000Y-70295000D03*
%TD*%
D11*
%TO.P,D10,1*%
%TO.N,Net-(D10-Pad1)*%
X114440000Y-102370000D03*
D13*
%TO.P,D10,2*%
%TO.N,+5V*%
X106820000Y-102370000D03*
%TD*%
D11*
%TO.P,D14,1*%
%TO.N,Net-(C47-Pad2)*%
X114530000Y-105110000D03*
D13*
%TO.P,D14,2*%
%TO.N,Net-(D10-Pad1)*%
X106910000Y-105110000D03*
%TD*%
D12*
%TO.P,R48,1*%
%TO.N,SDA*%
X103440000Y-96850000D03*
D13*
%TO.P,R48,2*%
%TO.N,Net-(C47-Pad2)*%
X103440000Y-89230000D03*
%TD*%
D12*
%TO.P,R49,1*%
%TO.N,Net-(J10-Pad1)*%
X125120000Y-94680000D03*
D13*
%TO.P,R49,2*%
%TO.N,PLLOSC*%
X132740000Y-94680000D03*
%TD*%
D12*
%TO.P,R50,1*%
%TO.N,Net-(J10-Pad2)*%
X125200000Y-97920000D03*
D13*
%TO.P,R50,2*%
%TO.N,PLLOSC*%
X132820000Y-97920000D03*
%TD*%
D14*
%TO.P,J12,1*%
%TO.N,Net-(J12-Pad1)*%
X181945000Y-129425000D03*
%TO.P,J12,2*%
%TO.N,GND*%
X181945000Y-126885000D03*
D25*
%TO.P,J12,1*%
%TO.N,Net-(J12-Pad1)*%
X184673000Y-131711000D03*
D26*
%TO.P,J12,2*%
%TO.N,GND*%
X184673000Y-126631000D03*
%TD*%
D22*
%TO.P,RLY1,2*%
%TO.N,AMPOUT*%
X187775000Y-106465000D03*
%TO.P,RLY1,4*%
%TO.N,Net-(C26-Pad1)*%
X187775000Y-116625000D03*
%TO.P,RLY1,3*%
%TO.N,N/C*%
X187775000Y-111545000D03*
%TO.P,RLY1,7*%
%TO.N,Net-(JP7-Pad2)*%
X180175000Y-111545000D03*
%TO.P,RLY1,6*%
%TO.N,RF*%
X180175000Y-106465000D03*
%TO.P,RLY1,8*%
%TO.N,N/C*%
X180175000Y-116625000D03*
%TO.P,RLY1,1*%
%TO.N,TXRELAY*%
X187775000Y-98845000D03*
%TO.P,RLY1,5*%
%TO.N,GND*%
X180175000Y-98845000D03*
%TD*%
D12*
%TO.P,C30,1*%
%TO.N,Net-(C30-Pad1)*%
X140130000Y-106640000D03*
%TO.P,C30,2*%
%TO.N,Net-(C30-Pad2)*%
X142630000Y-106640000D03*
%TD*%
D11*
%TO.P,D9,1*%
%TO.N,Net-(D11-Pad2)*%
X158450000Y-105625000D03*
D13*
%TO.P,D9,2*%
%TO.N,Net-(D12-Pad1)*%
X158450000Y-113245000D03*
%TD*%
D11*
%TO.P,D11,1*%
%TO.N,Net-(D11-Pad1)*%
X148325000Y-105800000D03*
D13*
%TO.P,D11,2*%
%TO.N,Net-(D11-Pad2)*%
X155945000Y-105800000D03*
%TD*%
D11*
%TO.P,D13,1*%
%TO.N,Net-(D12-Pad2)*%
X148675000Y-116050000D03*
D13*
%TO.P,D13,2*%
%TO.N,Net-(D11-Pad1)*%
X148675000Y-108430000D03*
%TD*%
D12*
%TO.P,R5,1*%
%TO.N,Net-(C30-Pad1)*%
X140470000Y-109350000D03*
D13*
%TO.P,R5,2*%
%TO.N,Net-(Q10-Pad1)*%
X140470000Y-116970000D03*
%TD*%
D12*
%TO.P,R22,1*%
%TO.N,Net-(C49-Pad1)*%
X145740000Y-141600000D03*
D13*
%TO.P,R22,2*%
%TO.N,GND*%
X153360000Y-141600000D03*
%TD*%
D12*
%TO.P,R25,1*%
%TO.N,RF*%
X170920000Y-105050000D03*
D13*
%TO.P,R25,2*%
%TO.N,Net-(R25-Pad2)*%
X170920000Y-112670000D03*
%TD*%
D11*
%TO.P,C36,1*%
%TO.N,Net-(C36-Pad1)*%
X169875000Y-69455000D03*
D12*
%TO.P,C36,2*%
%TO.N,Net-(C36-Pad2)*%
X169875000Y-66955000D03*
%TD*%
D17*
%TO.P,Q8,2*%
%TO.N,Net-(C14-Pad1)*%
X146070000Y-70490000D03*
%TO.P,Q8,3*%
%TO.N,Net-(C14-Pad2)*%
X148610000Y-70490000D03*
D18*
%TO.P,Q8,1*%
%TO.N,Net-(C36-Pad1)*%
X143530000Y-70490000D03*
%TD*%
D12*
%TO.P,R38,1*%
%TO.N,Net-(D18-Pad1)*%
X167585000Y-59145000D03*
D13*
%TO.P,R38,2*%
%TO.N,Net-(D15-Pad1)*%
X175205000Y-59145000D03*
%TD*%
D15*
%TO.P,JP1,1*%
%TO.N,Net-(D15-Pad2)*%
X165265000Y-66695000D03*
D16*
%TO.P,JP1,2*%
%TO.N,Net-(C36-Pad2)*%
X165265000Y-69235000D03*
%TD*%
D11*
%TO.P,C39,1*%
%TO.N,Net-(C39-Pad1)*%
X105990000Y-137650000D03*
D12*
%TO.P,C39,2*%
%TO.N,Net-(C39-Pad2)*%
X105990000Y-140150000D03*
%TD*%
D11*
%TO.P,C40,1*%
%TO.N,Net-(C40-Pad1)*%
X108850000Y-118040000D03*
D12*
%TO.P,C40,2*%
%TO.N,GND*%
X108850000Y-120540000D03*
%TD*%
D15*
%TO.P,JP2,1*%
%TO.N,Net-(J12-Pad1)*%
X173430000Y-126910000D03*
D16*
%TO.P,JP2,2*%
%TO.N,Net-(J18-Pad3)*%
X173430000Y-129450000D03*
%TD*%
D10*
%TO.P,T3,1*%
%TO.N,Net-(J18-Pad3)*%
X174000000Y-139700000D03*
%TO.P,T3,2*%
%TO.N,Net-(J12-Pad1)*%
X181620000Y-139700000D03*
%TO.P,T3,3*%
%TO.N,GND*%
X177873500Y-142494000D03*
%TO.P,T3,4*%
%TO.N,Net-(D16-Pad2)*%
X177873500Y-136906000D03*
%TD*%
D21*
%TO.P,D16,1*%
%TO.N,Net-(D16-Pad1)*%
X177810000Y-130820000D03*
D22*
%TO.P,D16,2*%
%TO.N,Net-(D16-Pad2)*%
X177810000Y-133360000D03*
%TD*%
D12*
%TO.P,R28,1*%
%TO.N,Net-(D16-Pad1)*%
X174230000Y-134840000D03*
D13*
%TO.P,R28,2*%
%TO.N,GND*%
X166610000Y-134840000D03*
%TD*%
D11*
%TO.P,D17,1*%
%TO.N,Net-(C23-Pad2)*%
X154960000Y-82730000D03*
D13*
%TO.P,D17,2*%
%TO.N,GND*%
X147340000Y-82730000D03*
%TD*%
D12*
%TO.P,C46,1*%
%TO.N,GND*%
X109440000Y-73480000D03*
%TO.P,C46,2*%
%TO.N,Net-(C36-Pad1)*%
X109440000Y-75980000D03*
%TD*%
%TO.P,R51,1*%
%TO.N,Net-(Q9-Pad1)*%
X164440000Y-92580000D03*
D13*
%TO.P,R51,2*%
%TO.N,Net-(C23-Pad1)*%
X164440000Y-84960000D03*
%TD*%
D12*
%TO.P,R52,1*%
%TO.N,Net-(C14-Pad2)*%
X150960000Y-85130000D03*
D13*
%TO.P,R52,2*%
%TO.N,Net-(Q9-Pad2)*%
X150960000Y-92750000D03*
%TD*%
D12*
%TO.P,C24,1*%
%TO.N,GND*%
X157780000Y-73340000D03*
%TO.P,C24,2*%
%TO.N,Net-(C14-Pad2)*%
X157780000Y-75840000D03*
%TD*%
%TO.P,R53,1*%
%TO.N,Net-(C23-Pad2)*%
X154260000Y-85130000D03*
D13*
%TO.P,R53,2*%
%TO.N,Net-(C14-Pad2)*%
X154260000Y-92750000D03*
%TD*%
D11*
%TO.P,C49,1*%
%TO.N,Net-(C49-Pad1)*%
X147630000Y-138140000D03*
D12*
%TO.P,C49,2*%
%TO.N,Net-(C43-Pad1)*%
X147630000Y-135640000D03*
%TD*%
D11*
%TO.P,C50,1*%
%TO.N,Net-(C50-Pad1)*%
X140400000Y-140200000D03*
D12*
%TO.P,C50,2*%
%TO.N,GND*%
X142900000Y-140200000D03*
%TD*%
%TO.P,C51,1*%
%TO.N,Net-(C51-Pad1)*%
X144420000Y-88230000D03*
%TO.P,C51,2*%
%TO.N,Net-(C51-Pad2)*%
X144420000Y-90730000D03*
%TD*%
D11*
%TO.P,C52,1*%
%TO.N,Net-(C52-Pad1)*%
X134990000Y-123330000D03*
D12*
%TO.P,C52,2*%
%TO.N,GND*%
X134990000Y-125830000D03*
%TD*%
%TO.P,C54,1*%
%TO.N,Net-(C54-Pad1)*%
X128930000Y-125500000D03*
%TO.P,C54,2*%
%TO.N,Net-(C54-Pad2)*%
X128930000Y-123000000D03*
%TD*%
%TO.P,C55,1*%
%TO.N,GND*%
X133080000Y-102340000D03*
%TO.P,C55,2*%
%TO.N,Net-(C36-Pad1)*%
X130580000Y-102340000D03*
%TD*%
%TO.P,C56,1*%
%TO.N,Net-(C56-Pad1)*%
X144370000Y-82530000D03*
%TO.P,C56,2*%
%TO.N,Net-(C51-Pad1)*%
X144370000Y-85030000D03*
%TD*%
%TO.P,L5,1*%
%TO.N,IF*%
X148500000Y-122540000D03*
D13*
%TO.P,L5,2*%
%TO.N,Net-(C43-Pad1)*%
X148500000Y-132700000D03*
%TD*%
D17*
%TO.P,Q10,2*%
%TO.N,Net-(Q10-Pad2)*%
X132760000Y-106675000D03*
%TO.P,Q10,3*%
%TO.N,Net-(C36-Pad1)*%
X130220000Y-106675000D03*
D18*
%TO.P,Q10,1*%
%TO.N,Net-(Q10-Pad1)*%
X135300000Y-106675000D03*
%TD*%
D17*
%TO.P,Q11,2*%
%TO.N,Net-(C52-Pad1)*%
X140800000Y-125260000D03*
%TO.P,Q11,3*%
%TO.N,+5V*%
X140800000Y-122720000D03*
D18*
%TO.P,Q11,1*%
%TO.N,Net-(Q11-Pad1)*%
X140800000Y-127800000D03*
%TD*%
D17*
%TO.P,Q12,2*%
%TO.N,Net-(Q12-Pad2)*%
X136090000Y-67310000D03*
%TO.P,Q12,3*%
%TO.N,Net-(D18-Pad1)*%
X138630000Y-67310000D03*
D18*
%TO.P,Q12,1*%
%TO.N,GND*%
X133550000Y-67310000D03*
%TD*%
D17*
%TO.P,Q13,2*%
%TO.N,Net-(Q13-Pad2)*%
X176995000Y-67615000D03*
%TO.P,Q13,3*%
%TO.N,TXRELAY*%
X176995000Y-65075000D03*
D18*
%TO.P,Q13,1*%
%TO.N,Net-(C36-Pad1)*%
X176995000Y-70155000D03*
%TD*%
D12*
%TO.P,R54,1*%
%TO.N,Net-(Q10-Pad2)*%
X143000000Y-102500000D03*
D13*
%TO.P,R54,2*%
%TO.N,Net-(C51-Pad2)*%
X143000000Y-94880000D03*
%TD*%
D12*
%TO.P,R55,1*%
%TO.N,Net-(C36-Pad1)*%
X127460000Y-106870000D03*
D13*
%TO.P,R55,2*%
%TO.N,Net-(Q10-Pad2)*%
X127460000Y-114490000D03*
%TD*%
D12*
%TO.P,R56,1*%
%TO.N,Net-(Q10-Pad2)*%
X137730000Y-115670000D03*
D13*
%TO.P,R56,2*%
%TO.N,GND*%
X130110000Y-115670000D03*
%TD*%
D12*
%TO.P,R57,1*%
%TO.N,Net-(Q11-Pad1)*%
X145120000Y-123330000D03*
D13*
%TO.P,R57,2*%
%TO.N,Net-(C54-Pad1)*%
X145120000Y-130950000D03*
%TD*%
D12*
%TO.P,R58,1*%
%TO.N,Net-(C50-Pad1)*%
X129190000Y-132440000D03*
D13*
%TO.P,R58,2*%
%TO.N,GND*%
X136810000Y-132440000D03*
%TD*%
D12*
%TO.P,R59,1*%
%TO.N,GND*%
X130070000Y-112320000D03*
D13*
%TO.P,R59,2*%
%TO.N,Net-(Q10-Pad1)*%
X137690000Y-112320000D03*
%TD*%
D12*
%TO.P,R60,1*%
%TO.N,Net-(Q11-Pad1)*%
X136820000Y-129170000D03*
D13*
%TO.P,R60,2*%
%TO.N,Net-(C50-Pad1)*%
X129200000Y-129170000D03*
%TD*%
D12*
%TO.P,R61,1*%
%TO.N,+5V*%
X128440000Y-119670000D03*
D13*
%TO.P,R61,2*%
%TO.N,Net-(C52-Pad1)*%
X136060000Y-119670000D03*
%TD*%
D12*
%TO.P,R62,1*%
%TO.N,Net-(C40-Pad1)*%
X116575000Y-116600000D03*
D13*
%TO.P,R62,2*%
%TO.N,Net-(C54-Pad2)*%
X124195000Y-116600000D03*
%TD*%
D12*
%TO.P,R65,1*%
%TO.N,Net-(Q12-Pad2)*%
X121920000Y-64370000D03*
D13*
%TO.P,R65,2*%
%TO.N,Net-(L9-Pad2)*%
X114300000Y-64370000D03*
%TD*%
D12*
%TO.P,R66,1*%
%TO.N,Net-(Q9-Pad2)*%
X157580000Y-91090000D03*
D13*
%TO.P,R66,2*%
%TO.N,GND*%
X157580000Y-98710000D03*
%TD*%
D12*
%TO.P,R67,1*%
%TO.N,GND*%
X147330000Y-79800000D03*
D13*
%TO.P,R67,2*%
%TO.N,Net-(C23-Pad2)*%
X154950000Y-79800000D03*
%TD*%
D12*
%TO.P,R68,1*%
%TO.N,XOSC*%
X140455000Y-81645000D03*
D13*
%TO.P,R68,2*%
%TO.N,Net-(C21-Pad1)*%
X140455000Y-74025000D03*
%TD*%
D14*
%TO.P,Y4,1*%
%TO.N,Net-(C21-Pad2)*%
X123250000Y-78830000D03*
%TO.P,Y4,2*%
%TO.N,Net-(C48-Pad1)*%
X123250000Y-83710000D03*
%TD*%
D12*
%TO.P,C43,1*%
%TO.N,Net-(C43-Pad1)*%
X156930000Y-131410000D03*
%TO.P,C43,2*%
%TO.N,GND*%
X156930000Y-136410000D03*
%TD*%
D32*
%TO.P,P1,7*%
%TO.N,GND*%
X107225000Y-63225000D03*
X93525000Y-63225000D03*
D11*
%TO.P,P1,1*%
%TO.N,MISO*%
X99075000Y-66075000D03*
D12*
%TO.P,P1,2*%
%TO.N,N/C*%
X101675000Y-66075000D03*
%TO.P,P1,3*%
%TO.N,GND*%
X96975000Y-66075000D03*
%TO.P,P1,4*%
%TO.N,+5V*%
X103775000Y-66075000D03*
%TO.P,P1,5*%
%TO.N,PS2CLK*%
X96975000Y-68875000D03*
%TO.P,P1,6*%
%TO.N,N/C*%
X103775000Y-68875000D03*
D33*
%TO.P,P1,7*%
%TO.N,GND*%
X100375000Y-62425000D03*
%TD*%
D12*
%TO.P,R64,1*%
%TO.N,PS2CLK*%
X95570000Y-72240000D03*
D13*
%TO.P,R64,2*%
%TO.N,+5V*%
X95570000Y-79860000D03*
%TD*%
D12*
%TO.P,R70,1*%
%TO.N,+5V*%
X99300000Y-79840000D03*
D13*
%TO.P,R70,2*%
%TO.N,MISO*%
X99300000Y-72220000D03*
%TD*%
D21*
%TO.P,D19,1*%
%TO.N,Net-(D19-Pad1)*%
X136260000Y-60290000D03*
D22*
%TO.P,D19,2*%
%TO.N,+12V*%
X136260000Y-62830000D03*
%TD*%
D12*
%TO.P,R71,1*%
%TO.N,Net-(D18-Pad1)*%
X161740000Y-62140000D03*
D13*
%TO.P,R71,2*%
%TO.N,Net-(D19-Pad1)*%
X154120000Y-62140000D03*
%TD*%
D12*
%TO.P,C32,1*%
%TO.N,AMPOUT*%
X176560000Y-95330000D03*
%TO.P,C32,2*%
%TO.N,GND*%
X171560000Y-95330000D03*
%TD*%
D17*
%TO.P,Q14,2*%
%TO.N,Net-(Q14-Pad2)*%
X50720000Y-127380000D03*
%TO.P,Q14,3*%
%TO.N,Net-(Q14-Pad3)*%
X50720000Y-124840000D03*
D18*
%TO.P,Q14,1*%
%TO.N,GND*%
X50720000Y-129920000D03*
%TD*%
D12*
%TO.P,R72,1*%
%TO.N,Net-(Q14-Pad2)*%
X51165000Y-120055000D03*
D13*
%TO.P,R72,2*%
%TO.N,MOSI*%
X51165000Y-112435000D03*
%TD*%
D12*
%TO.P,C38,1*%
%TO.N,Net-(C38-Pad1)*%
X166835000Y-63005000D03*
%TO.P,C38,2*%
%TO.N,GND*%
X169335000Y-63005000D03*
%TD*%
%TO.P,R73,1*%
%TO.N,Net-(C38-Pad1)*%
X161810000Y-67930000D03*
D13*
%TO.P,R73,2*%
%TO.N,Net-(C23-Pad2)*%
X161810000Y-75550000D03*
%TD*%
D34*
%TO.P,RV4,1*%
%TO.N,+5V*%
X113320000Y-59680000D03*
%TO.P,RV4,2*%
%TO.N,Net-(L11-Pad2)*%
X115860000Y-59680000D03*
%TO.P,RV4,3*%
%TO.N,GND*%
X118400000Y-59680000D03*
%TD*%
D12*
%TO.P,R74,1*%
%TO.N,AMPOUT*%
X167640000Y-77110000D03*
D13*
%TO.P,R74,2*%
X167640000Y-84730000D03*
%TD*%
D12*
%TO.P,L11,1*%
%TO.N,Net-(C38-Pad1)*%
X164290000Y-58870000D03*
D13*
%TO.P,L11,2*%
%TO.N,Net-(L11-Pad2)*%
X154130000Y-58870000D03*
%TD*%
D35*
%TO.P,J3,1*%
%TO.N,GND*%
X45500000Y-60500000D03*
%TD*%
%TO.P,J4,1*%
%TO.N,GND*%
X185500000Y-60500000D03*
%TD*%
%TO.P,J6,1*%
%TO.N,GND*%
X185500000Y-140500000D03*
%TD*%
%TO.P,J7,1*%
%TO.N,GND*%
X45500000Y-140500000D03*
%TD*%
D12*
%TO.P,C41,1*%
%TO.N,Net-(C19-Pad1)*%
X66370000Y-129190000D03*
%TO.P,C41,2*%
%TO.N,GND*%
X66370000Y-134190000D03*
%TD*%
%TO.P,C58,1*%
%TO.N,Net-(C58-Pad1)*%
X63985000Y-67305000D03*
%TO.P,C58,2*%
%TO.N,Net-(C58-Pad2)*%
X61485000Y-67305000D03*
%TD*%
D14*
%TO.P,T4,1*%
%TO.N,Net-(C58-Pad2)*%
X53690000Y-72230000D03*
%TO.P,T4,2*%
%TO.N,+12V*%
X61310000Y-72230000D03*
%TO.P,T4,3*%
%TO.N,Net-(C58-Pad1)*%
X53690000Y-74770000D03*
%TO.P,T4,4*%
%TO.N,GND*%
X61310000Y-74770000D03*
%TD*%
%TO.P,Y5,1*%
%TO.N,Net-(C21-Pad2)*%
X128890000Y-78910000D03*
%TO.P,Y5,2*%
%TO.N,Net-(C48-Pad1)*%
X128890000Y-83790000D03*
%TD*%
D12*
%TO.P,C27,1*%
%TO.N,Net-(C27-Pad1)*%
X151940000Y-127560000D03*
%TO.P,C27,2*%
%TO.N,IF*%
X151940000Y-122560000D03*
%TD*%
D19*
%TO.P,D6,1*%
%TO.N,AMPOUT*%
X186880000Y-95330000D03*
D20*
%TO.P,D6,2*%
%TO.N,GND*%
X179260000Y-95330000D03*
%TD*%
D12*
%TO.P,C59,1*%
%TO.N,+5V*%
X75710000Y-87050000D03*
%TO.P,C59,2*%
%TO.N,GND*%
X73210000Y-87050000D03*
%TD*%
%TO.P,R76,1*%
%TO.N,Net-(R76-Pad1)*%
X89730000Y-118300000D03*
D13*
%TO.P,R76,2*%
%TO.N,SCK*%
X89730000Y-110680000D03*
%TD*%
D12*
%TO.P,R41,1*%
%TO.N,GND*%
X173990000Y-101600000D03*
D13*
%TO.P,R41,2*%
%TO.N,Net-(Q9-Pad1)*%
X161290000Y-101600000D03*
%TD*%
D12*
%TO.P,C7,1*%
%TO.N,GND*%
X89725000Y-82825000D03*
%TO.P,C7,2*%
%TO.N,MICPADDLE*%
X89725000Y-87825000D03*
%TD*%
%TO.P,L10,1*%
%TO.N,Net-(L10-Pad1)*%
X76000000Y-126490000D03*
D13*
%TO.P,L10,2*%
%TO.N,Net-(C19-Pad1)*%
X65840000Y-126490000D03*
%TD*%
D15*
%TO.P,J14,1*%
%TO.N,AUDIOFILT*%
X104220000Y-116960000D03*
%TD*%
%TO.P,J15,1*%
%TO.N,GND*%
X155710000Y-126800000D03*
%TD*%
%TO.P,J16,1*%
%TO.N,GND*%
X179900000Y-58900000D03*
%TD*%
D11*
%TO.P,C3,1*%
%TO.N,+12V*%
X77530000Y-61230000D03*
D12*
%TO.P,C3,2*%
%TO.N,GND*%
X74030000Y-61230000D03*
%TD*%
D10*
%TO.P,L4,1*%
%TO.N,+12V*%
X103035000Y-78340000D03*
%TO.P,L4,2*%
%TO.N,Net-(C36-Pad1)*%
X106845000Y-78340000D03*
%TD*%
D14*
%TO.P,T1,5*%
%TO.N,GND*%
X154545000Y-101645000D03*
%TO.P,T1,6*%
%TO.N,Net-(D12-Pad2)*%
X146925000Y-101645000D03*
%TO.P,T1,3*%
%TO.N,Net-(D11-Pad2)*%
X154545000Y-99105000D03*
%TO.P,T1,4*%
%TO.N,GND*%
X146925000Y-99105000D03*
%TO.P,T1,1*%
X154545000Y-96565000D03*
%TO.P,T1,2*%
%TO.N,Net-(C30-Pad2)*%
X146925000Y-96565000D03*
%TD*%
%TO.P,T2,5*%
%TO.N,IF*%
X162480000Y-113580000D03*
%TO.P,T2,6*%
%TO.N,Net-(D11-Pad1)*%
X162480000Y-105960000D03*
%TO.P,T2,3*%
%TO.N,Net-(D12-Pad1)*%
X165020000Y-113580000D03*
%TO.P,T2,4*%
%TO.N,IF*%
X165020000Y-105960000D03*
%TO.P,T2,1*%
%TO.N,Net-(R25-Pad2)*%
X167560000Y-113580000D03*
%TO.P,T2,2*%
%TO.N,GND*%
X167560000Y-105960000D03*
%TD*%
D21*
%TO.P,Q15,1*%
%TO.N,Net-(C23-Pad2)*%
X187210000Y-80770000D03*
D30*
%TO.P,Q15,2*%
%TO.N,AMPOUT*%
X187210000Y-83310000D03*
%TO.P,Q15,3*%
%TO.N,GND*%
X187210000Y-85850000D03*
%TD*%
D12*
%TO.P,C57,1*%
%TO.N,Net-(C57-Pad1)*%
X89510000Y-94510000D03*
%TO.P,C57,2*%
%TO.N,GND*%
X89510000Y-92010000D03*
%TD*%
%TO.P,C45,1*%
%TO.N,Net-(C40-Pad1)*%
X113580000Y-117380000D03*
%TO.P,C45,2*%
%TO.N,Net-(C45-Pad2)*%
X113580000Y-122380000D03*
%TD*%
%TO.P,C18,1*%
%TO.N,Net-(C18-Pad1)*%
X100950000Y-121330000D03*
%TO.P,C18,2*%
%TO.N,GND*%
X100950000Y-116330000D03*
%TD*%
%TO.P,C60,1*%
%TO.N,GND*%
X93460000Y-133270000D03*
%TO.P,C60,2*%
%TO.N,Net-(C60-Pad2)*%
X93460000Y-128270000D03*
%TD*%
%TO.P,R10,1*%
%TO.N,BEEPOUT*%
X78870000Y-120780000D03*
D13*
%TO.P,R10,2*%
%TO.N,Net-(C60-Pad2)*%
X86490000Y-120780000D03*
%TD*%
D15*
%TO.P,JP8,1*%
%TO.N,Net-(C21-Pad2)*%
X133660000Y-79450000D03*
D16*
%TO.P,JP8,2*%
%TO.N,GND*%
X136200000Y-79450000D03*
%TD*%
D35*
%TO.P,J20,1*%
%TO.N,GND*%
X128500000Y-60500000D03*
%TD*%
%TO.P,J21,1*%
%TO.N,GND*%
X128500000Y-140500000D03*
%TD*%
D11*
%TO.P,D15,1*%
%TO.N,Net-(D15-Pad1)*%
X172975000Y-62105000D03*
D13*
%TO.P,D15,2*%
%TO.N,Net-(D15-Pad2)*%
X180595000Y-62105000D03*
%TD*%
D11*
%TO.P,D18,1*%
%TO.N,Net-(D18-Pad1)*%
X140170000Y-61850000D03*
D13*
%TO.P,D18,2*%
%TO.N,Net-(D18-Pad2)*%
X147790000Y-61850000D03*
%TD*%
D22*
%TO.P,RV1,3*%
%TO.N,GND*%
X83160000Y-143190000D03*
%TO.P,RV1,2*%
%TO.N,Net-(RV1-Pad2)*%
X85660000Y-143190000D03*
%TO.P,RV1,1*%
%TO.N,Net-(C34-Pad2)*%
X88160000Y-143190000D03*
D31*
%TO.P,RV1,2*%
%TO.N,Net-(RV1-Pad2)*%
X85660000Y-140190000D03*
%TO.P,RV1,3*%
%TO.N,GND*%
X80660000Y-140190000D03*
%TO.P,RV1,1*%
%TO.N,Net-(C34-Pad2)*%
X90660000Y-140190000D03*
%TD*%
D22*
%TO.P,RV2,3*%
%TO.N,Net-(C39-Pad2)*%
X114160000Y-142840000D03*
%TO.P,RV2,2*%
%TO.N,Net-(R63-Pad1)*%
X116660000Y-142840000D03*
%TO.P,RV2,1*%
X119160000Y-142840000D03*
D31*
%TO.P,RV2,2*%
X116660000Y-139840000D03*
%TO.P,RV2,3*%
%TO.N,Net-(C39-Pad2)*%
X111660000Y-139840000D03*
%TO.P,RV2,1*%
%TO.N,Net-(R63-Pad1)*%
X121660000Y-139840000D03*
%TD*%
D15*
%TO.P,U5,1*%
%TO.N,GND*%
X46500000Y-72500000D03*
D16*
%TO.P,U5,2*%
%TO.N,+5V*%
X46500000Y-75040000D03*
%TO.P,U5,3*%
%TO.N,Net-(RV3-Pad2)*%
X46500000Y-77580000D03*
%TO.P,U5,4*%
%TO.N,RS*%
X46500000Y-80120000D03*
%TO.P,U5,5*%
%TO.N,GND*%
X46500000Y-82660000D03*
%TO.P,U5,6*%
%TO.N,E*%
X46500000Y-85200000D03*
%TO.P,U5,7*%
%TO.N,N/C*%
X46500000Y-87740000D03*
%TO.P,U5,8*%
X46500000Y-90280000D03*
%TO.P,U5,9*%
X46500000Y-92820000D03*
%TO.P,U5,10*%
X46500000Y-95360000D03*
%TO.P,U5,11*%
%TO.N,DB4*%
X46500000Y-97900000D03*
%TO.P,U5,12*%
%TO.N,DB5*%
X46500000Y-100440000D03*
%TO.P,U5,13*%
%TO.N,DB6*%
X46500000Y-102980000D03*
%TO.P,U5,14*%
%TO.N,DB7*%
X46500000Y-105520000D03*
%TO.P,U5,15*%
%TO.N,Net-(R2-Pad1)*%
X46500000Y-108060000D03*
%TO.P,U5,16*%
%TO.N,Net-(Q14-Pad3)*%
X46500000Y-110600000D03*
%TO.P,U5,17*%
%TO.N,GND*%
X46500000Y-113140000D03*
%TO.P,U5,18*%
%TO.N,MICPADDLE*%
X46500000Y-115680000D03*
%TO.P,U5,19*%
%TO.N,Net-(R76-Pad1)*%
X46500000Y-118220000D03*
%TO.P,U5,20*%
%TO.N,SPKR*%
X46500000Y-120760000D03*
%TD*%
D12*
%TO.P,C48,1*%
%TO.N,Net-(C48-Pad1)*%
X125600000Y-89060000D03*
%TO.P,C48,2*%
%TO.N,Net-(C48-Pad2)*%
X130600000Y-89060000D03*
%TD*%
D19*
%TO.P,D8,1*%
%TO.N,TXRELAY*%
X180605000Y-65885000D03*
D20*
%TO.P,D8,2*%
%TO.N,GND*%
X188225000Y-65885000D03*
%TD*%
D15*
%TO.P,J10,1*%
%TO.N,Net-(J10-Pad1)*%
X123380000Y-108630000D03*
D16*
%TO.P,J10,2*%
%TO.N,Net-(J10-Pad2)*%
X120840000Y-108630000D03*
%TO.P,J10,3*%
%TO.N,N/C*%
X118300000Y-108630000D03*
%TO.P,J10,4*%
%TO.N,SCL*%
X115760000Y-108630000D03*
%TO.P,J10,5*%
%TO.N,SDA*%
X113220000Y-108630000D03*
%TO.P,J10,6*%
%TO.N,GND*%
X110680000Y-108630000D03*
%TO.P,J10,7*%
%TO.N,+5V*%
X108140000Y-108630000D03*
%TD*%
D12*
%TO.P,C61,1*%
%TO.N,GND*%
X49840000Y-95260000D03*
%TO.P,C61,2*%
%TO.N,Net-(C61-Pad2)*%
X49840000Y-92760000D03*
%TD*%
%TO.P,R40,1*%
%TO.N,Net-(C61-Pad2)*%
X50490000Y-88990000D03*
D13*
%TO.P,R40,2*%
%TO.N,RS*%
X50490000Y-81370000D03*
%TD*%
D12*
%TO.P,R75,1*%
%TO.N,Net-(C61-Pad2)*%
X62480000Y-91600000D03*
D13*
%TO.P,R75,2*%
%TO.N,+5V*%
X62480000Y-99220000D03*
%TD*%
D29*
%TO.P,SW6,2*%
%TO.N,GND*%
X52910000Y-95960000D03*
%TO.P,SW6,1*%
%TO.N,Net-(C61-Pad2)*%
X52910000Y-91460000D03*
%TO.P,SW6,2*%
%TO.N,GND*%
X59410000Y-95960000D03*
%TO.P,SW6,1*%
%TO.N,Net-(C61-Pad2)*%
X59410000Y-91460000D03*
%TD*%
D11*
%TO.P,C53,1*%
%TO.N,+12V*%
X53560000Y-141770000D03*
D12*
%TO.P,C53,2*%
%TO.N,GND*%
X53560000Y-138270000D03*
%TD*%
D15*
%TO.P,J19,1*%
%TO.N,GND*%
X43960000Y-72500000D03*
D16*
%TO.P,J19,2*%
X43960000Y-75040000D03*
%TO.P,J19,3*%
X43960000Y-77580000D03*
%TO.P,J19,4*%
X43960000Y-80120000D03*
%TO.P,J19,5*%
X43960000Y-82660000D03*
%TO.P,J19,6*%
X43960000Y-85200000D03*
%TO.P,J19,7*%
X43960000Y-87740000D03*
%TO.P,J19,8*%
X43960000Y-90280000D03*
%TO.P,J19,9*%
X43960000Y-92820000D03*
%TO.P,J19,10*%
X43960000Y-95360000D03*
%TO.P,J19,11*%
X43960000Y-97900000D03*
%TO.P,J19,12*%
X43960000Y-100440000D03*
%TO.P,J19,13*%
X43960000Y-102980000D03*
%TO.P,J19,14*%
X43960000Y-105520000D03*
%TO.P,J19,15*%
X43960000Y-108060000D03*
%TO.P,J19,16*%
X43960000Y-110600000D03*
%TO.P,J19,17*%
X43960000Y-113140000D03*
%TO.P,J19,18*%
X43960000Y-115680000D03*
%TO.P,J19,19*%
X43960000Y-118220000D03*
%TO.P,J19,20*%
X43960000Y-120760000D03*
%TD*%
D15*
%TO.P,J17,1*%
%TO.N,GND*%
X157480000Y-120650000D03*
D16*
%TO.P,J17,2*%
X160020000Y-120650000D03*
%TO.P,J17,3*%
%TO.N,Net-(C26-Pad2)*%
X162560000Y-120650000D03*
%TO.P,J17,4*%
%TO.N,Net-(J17-Pad4)*%
X165100000Y-120650000D03*
%TD*%
D15*
%TO.P,J18,1*%
%TO.N,GND*%
X157480000Y-140970000D03*
D16*
%TO.P,J18,2*%
X160020000Y-140970000D03*
%TO.P,J18,3*%
%TO.N,Net-(J18-Pad3)*%
X162560000Y-140970000D03*
%TO.P,J18,4*%
X165100000Y-140970000D03*
%TD*%
D12*
%TO.P,C26,1*%
%TO.N,Net-(C26-Pad1)*%
X176080000Y-120620000D03*
%TO.P,C26,2*%
%TO.N,Net-(C26-Pad2)*%
X171080000Y-120620000D03*
%TD*%
%TO.P,C23,1*%
%TO.N,Net-(C23-Pad1)*%
X164400000Y-82680000D03*
%TO.P,C23,2*%
%TO.N,Net-(C23-Pad2)*%
X164400000Y-77680000D03*
%TD*%
D36*
%TO.N,+5V*%
X64130000Y-90800000D03*
%TO.N,RESET*%
X91590000Y-96900000D03*
%TO.N,SCK*%
X92490000Y-106710000D03*
%TO.N,MOSI*%
X82115000Y-106635000D03*
%TO.N,MISO*%
X92490000Y-97100000D03*
X101540000Y-74230000D03*
%TO.N,DB5*%
X65295000Y-104415000D03*
%TO.N,DB7*%
X52255000Y-106515000D03*
%TO.N,DB6*%
X58725000Y-105845000D03*
%TO.N,SDA*%
X94290000Y-83790000D03*
%TO.N,SCL*%
X94430000Y-82890000D03*
%TO.N,Net-(C47-Pad2)*%
X114480000Y-93230000D03*
%TO.N,PS2CLK*%
X94280000Y-75290000D03*
X91090000Y-78520000D03*
%TD*%
D37*
%TO.N,+5V*%
X42170000Y-86470000D02*
X61520000Y-86470000D01*
X45240000Y-76300000D02*
X46500000Y-75040000D01*
X42600000Y-76300000D02*
X45240000Y-76300000D01*
X41425000Y-77475000D02*
X42600000Y-76300000D01*
X41425000Y-85725000D02*
X41425000Y-77475000D01*
X42170000Y-86470000D02*
X41425000Y-85725000D01*
X62480000Y-99220000D02*
X62480000Y-98150000D01*
X64130000Y-92450000D02*
X64130000Y-90800000D01*
X63370000Y-93210000D02*
X64130000Y-92450000D01*
X63370000Y-97260000D02*
X63370000Y-93210000D01*
X62480000Y-98150000D02*
X63370000Y-97260000D01*
X62165000Y-101735000D02*
X62165000Y-99535000D01*
X62165000Y-99535000D02*
X62480000Y-99220000D01*
X62000000Y-88250000D02*
X62000000Y-86950000D01*
X62000000Y-86950000D02*
X61520000Y-86470000D01*
X59640000Y-98940000D02*
X58280000Y-98940000D01*
X58280000Y-98940000D02*
X55495000Y-101725000D01*
X62165000Y-101735000D02*
X62085000Y-101735000D01*
X62085000Y-101735000D02*
X59640000Y-98940000D01*
D38*
X114500000Y-133720000D02*
X117760000Y-133720000D01*
X114500000Y-133720000D02*
X114080000Y-133300000D01*
X116860000Y-135600000D02*
X116380000Y-135600000D01*
X116380000Y-135600000D02*
X114080000Y-133300000D01*
X117760000Y-133720000D02*
X121400000Y-130080000D01*
X108140000Y-108630000D02*
X108140000Y-110410000D01*
X108140000Y-110410000D02*
X107090000Y-111460000D01*
X124500000Y-113130000D02*
X124500000Y-112570000D01*
X124500000Y-112570000D02*
X123390000Y-111460000D01*
X104780000Y-104040000D02*
X106450000Y-102370000D01*
X104780000Y-109950000D02*
X104780000Y-104040000D01*
X106290000Y-111460000D02*
X104780000Y-109950000D01*
X123390000Y-111460000D02*
X107090000Y-111460000D01*
X107090000Y-111460000D02*
X106290000Y-111460000D01*
X106450000Y-102370000D02*
X106820000Y-102370000D01*
X124500000Y-113130000D02*
X124500000Y-114330000D01*
X124500000Y-114330000D02*
X125160000Y-114990000D01*
X126492000Y-116600000D02*
X126492000Y-116102000D01*
X125380000Y-114990000D02*
X125160000Y-114990000D01*
X125160000Y-114990000D02*
X122310000Y-114990000D01*
X126492000Y-116102000D02*
X125380000Y-114990000D01*
X101360000Y-96640000D02*
X101360000Y-98230000D01*
X105500000Y-102370000D02*
X106820000Y-102370000D01*
X101360000Y-98230000D02*
X105500000Y-102370000D01*
X91420000Y-99120000D02*
X92780000Y-99120000D01*
X101360000Y-96600000D02*
X101360000Y-96640000D01*
X100450000Y-95690000D02*
X101360000Y-96600000D01*
X94580000Y-95690000D02*
X100450000Y-95690000D01*
X93820000Y-96450000D02*
X94580000Y-95690000D01*
X93820000Y-98080000D02*
X93820000Y-96450000D01*
X92780000Y-99120000D02*
X93820000Y-98080000D01*
X89570000Y-97680000D02*
X89980000Y-97680000D01*
X89980000Y-97680000D02*
X91420000Y-99120000D01*
X91420000Y-99120000D02*
X91435000Y-99135000D01*
X91435000Y-99135000D02*
X92720000Y-100420000D01*
X100540000Y-105660000D02*
X101610000Y-105660000D01*
X99280000Y-104400000D02*
X100540000Y-105660000D01*
X99280000Y-102810000D02*
X99280000Y-104400000D01*
X96890000Y-100420000D02*
X99280000Y-102810000D01*
X92720000Y-100420000D02*
X96890000Y-100420000D01*
X91560000Y-95690000D02*
X91560000Y-81670000D01*
X93370000Y-79860000D02*
X95570000Y-79860000D01*
X91560000Y-81670000D02*
X93370000Y-79860000D01*
X64800000Y-73990000D02*
X71160000Y-73990000D01*
X60220000Y-76650000D02*
X56260000Y-80610000D01*
X62140000Y-76650000D02*
X60220000Y-76650000D01*
X64800000Y-73990000D02*
X62140000Y-76650000D01*
X50010000Y-75210000D02*
X46670000Y-75210000D01*
X46670000Y-75210000D02*
X46500000Y-75040000D01*
X52190000Y-80610000D02*
X56260000Y-80610000D01*
X51390000Y-76590000D02*
X50010000Y-75210000D01*
X51390000Y-79810000D02*
X51390000Y-76590000D01*
X52190000Y-80610000D02*
X51390000Y-79810000D01*
X121400000Y-130080000D02*
X121400000Y-121100000D01*
X121400000Y-121100000D02*
X120100000Y-119800000D01*
X120100000Y-119800000D02*
X120100000Y-117200000D01*
X120100000Y-117200000D02*
X122310000Y-114990000D01*
X114080000Y-133300000D02*
X114410000Y-133300000D01*
X114410000Y-133300000D02*
X115420000Y-132100000D01*
X115420000Y-132100000D02*
X115420000Y-128910000D01*
X115420000Y-128910000D02*
X116680000Y-127650000D01*
X130490000Y-117880000D02*
X127710000Y-117880000D01*
X126492000Y-116662000D02*
X126492000Y-116600000D01*
X127710000Y-117880000D02*
X126492000Y-116662000D01*
X128440000Y-119670000D02*
X128440000Y-119210000D01*
X128440000Y-119210000D02*
X129770000Y-117880000D01*
X138910000Y-120830000D02*
X140800000Y-122720000D01*
X138910000Y-119400000D02*
X138910000Y-120830000D01*
X137390000Y-117880000D02*
X138910000Y-119400000D01*
X129770000Y-117880000D02*
X130490000Y-117880000D01*
X130490000Y-117880000D02*
X137390000Y-117880000D01*
X91560000Y-95690000D02*
X89750000Y-97680000D01*
X89750000Y-97680000D02*
X89570000Y-97680000D01*
X89570000Y-97680000D02*
X86490000Y-97680000D01*
X86490000Y-97680000D02*
X86295000Y-97485000D01*
X128440000Y-119670000D02*
X128440000Y-119162000D01*
D37*
X69465000Y-100215000D02*
X68925000Y-100215000D01*
X72680000Y-90080000D02*
X75710000Y-87050000D01*
X68260000Y-90080000D02*
X72680000Y-90080000D01*
X67450000Y-90890000D02*
X68260000Y-90080000D01*
X67450000Y-98740000D02*
X67450000Y-90890000D01*
X68925000Y-100215000D02*
X67450000Y-98740000D01*
D38*
X99300000Y-79840000D02*
X99300000Y-78150000D01*
X91340000Y-76320000D02*
X89795000Y-74775000D01*
X97470000Y-76320000D02*
X91340000Y-76320000D01*
X99300000Y-78150000D02*
X97470000Y-76320000D01*
X89795000Y-74775000D02*
X89795000Y-73985000D01*
X72670000Y-65670000D02*
X72740000Y-65670000D01*
X71160000Y-73990000D02*
X72670000Y-72480000D01*
X72670000Y-72480000D02*
X72670000Y-65670000D01*
X72740000Y-65670000D02*
X73510000Y-64900000D01*
X73510000Y-64900000D02*
X77790000Y-64900000D01*
X77790000Y-64900000D02*
X81080000Y-61610000D01*
X81080000Y-61610000D02*
X86800000Y-61610000D01*
X86800000Y-61610000D02*
X88750000Y-59660000D01*
X89880000Y-63400000D02*
X89880000Y-60790000D01*
X89880000Y-60790000D02*
X88750000Y-59660000D01*
X89860000Y-66410000D02*
X89860000Y-63420000D01*
X89860000Y-63420000D02*
X89880000Y-63400000D01*
X89860000Y-66410000D02*
X89860000Y-73920000D01*
X89860000Y-73920000D02*
X89795000Y-73985000D01*
X78675000Y-92405000D02*
X77735000Y-92405000D01*
X77735000Y-92405000D02*
X76570000Y-91240000D01*
X76570000Y-91240000D02*
X76570000Y-87910000D01*
X76570000Y-87910000D02*
X75710000Y-87050000D01*
X86295000Y-97485000D02*
X86635000Y-97485000D01*
X101955223Y-59734435D02*
X112904435Y-59734435D01*
X112904435Y-59734435D02*
X113320000Y-59680000D01*
X99300000Y-79840000D02*
X99285000Y-78525000D01*
X99285000Y-78525000D02*
X100635000Y-77175000D01*
X100635000Y-77175000D02*
X100635000Y-73795000D01*
X100635000Y-73795000D02*
X101705000Y-72725000D01*
X101705000Y-72725000D02*
X101705000Y-68145000D01*
X101705000Y-68145000D02*
X103775000Y-66075000D01*
X88750000Y-59660000D02*
X101955223Y-59734435D01*
X101955223Y-59734435D02*
X102125424Y-59734779D01*
X102125424Y-59734779D02*
X102235000Y-59735000D01*
X102235000Y-59735000D02*
X103775000Y-61275000D01*
X103775000Y-61275000D02*
X103775000Y-66075000D01*
D37*
X68675000Y-101765000D02*
X68675000Y-101005000D01*
X68675000Y-101005000D02*
X69465000Y-100215000D01*
X62165000Y-101735000D02*
X62165000Y-100865000D01*
X62165000Y-100865000D02*
X62815000Y-100215000D01*
X75215000Y-101795000D02*
X75215000Y-101325000D01*
X75215000Y-101325000D02*
X74105000Y-100215000D01*
X74105000Y-100215000D02*
X69465000Y-100215000D01*
X69465000Y-100215000D02*
X62815000Y-100215000D01*
%TO.N,RESET*%
X92310000Y-96180000D02*
X91590000Y-96900000D01*
X92310000Y-96180000D02*
X92310000Y-82850000D01*
X89850000Y-77390000D02*
X86075000Y-73615000D01*
X95450000Y-77390000D02*
X89850000Y-77390000D01*
X96880000Y-78820000D02*
X95450000Y-77390000D01*
X96880000Y-80890000D02*
X96880000Y-78820000D01*
X96390000Y-81380000D02*
X96880000Y-80890000D01*
X93780000Y-81380000D02*
X96390000Y-81380000D01*
X92310000Y-82850000D02*
X93780000Y-81380000D01*
X86075000Y-73615000D02*
X85325000Y-73615000D01*
X82240000Y-66410000D02*
X75990000Y-66410000D01*
X75990000Y-66410000D02*
X75185000Y-67215000D01*
D38*
X82240000Y-66410000D02*
X82240000Y-70200000D01*
X82240000Y-70200000D02*
X78825000Y-73615000D01*
D37*
X86135000Y-73615000D02*
X85325000Y-73615000D01*
X85325000Y-73615000D02*
X78825000Y-73615000D01*
X78675000Y-77165000D02*
X78675000Y-73765000D01*
X78675000Y-73765000D02*
X78825000Y-73615000D01*
X82240000Y-66410000D02*
X82200000Y-63460000D01*
X82200000Y-63460000D02*
X82260000Y-63400000D01*
%TO.N,Net-(C2-Pad2)*%
X75185000Y-69715000D02*
X75185000Y-75625000D01*
X75185000Y-75625000D02*
X74315000Y-76495000D01*
D38*
%TO.N,+12V*%
X53560000Y-141770000D02*
X52020000Y-141770000D01*
X53280000Y-77055000D02*
X53280000Y-78380000D01*
X52175000Y-75950000D02*
X53280000Y-77055000D01*
X52175000Y-73150000D02*
X52175000Y-75950000D01*
X47875000Y-68850000D02*
X52175000Y-73150000D01*
X42225000Y-68850000D02*
X47875000Y-68850000D01*
X40650000Y-70425000D02*
X42225000Y-68850000D01*
X40650000Y-130000000D02*
X40650000Y-70425000D01*
X50675000Y-140025000D02*
X40650000Y-130000000D01*
X50675000Y-140425000D02*
X50675000Y-140025000D01*
X52020000Y-141770000D02*
X50675000Y-140425000D01*
X55230000Y-143440000D02*
X76860000Y-143440000D01*
X78480000Y-134840000D02*
X81450000Y-134840000D01*
X77760000Y-135560000D02*
X78480000Y-134840000D01*
X77760000Y-142540000D02*
X77760000Y-135560000D01*
X76860000Y-143440000D02*
X77760000Y-142540000D01*
X81450000Y-134840000D02*
X81450000Y-129390000D01*
X81450000Y-129390000D02*
X78680000Y-126620000D01*
X55230000Y-143440000D02*
X53560000Y-141770000D01*
X103035000Y-78340000D02*
X103035000Y-72155000D01*
X105360000Y-71080000D02*
X106145000Y-70295000D01*
X104110000Y-71080000D02*
X105360000Y-71080000D01*
X103035000Y-72155000D02*
X104110000Y-71080000D01*
X61310000Y-72230000D02*
X59430000Y-72230000D01*
X59430000Y-72230000D02*
X53280000Y-78380000D01*
X136260000Y-62830000D02*
X135030000Y-62830000D01*
X123440000Y-62920000D02*
X112460000Y-62920000D01*
X125180000Y-64920000D02*
X123440000Y-62920000D01*
X133200000Y-64920000D02*
X125180000Y-64920000D01*
X135030000Y-62830000D02*
X133200000Y-64920000D01*
X109915000Y-63845000D02*
X111535000Y-63845000D01*
X111535000Y-63845000D02*
X112460000Y-62920000D01*
X112460000Y-62920000D02*
X114555000Y-60825000D01*
X83670000Y-59660000D02*
X81470000Y-59660000D01*
X79900000Y-61230000D02*
X77530000Y-61230000D01*
X81470000Y-59660000D02*
X79900000Y-61230000D01*
X66085000Y-70295000D02*
X66085000Y-68665000D01*
X82740000Y-58730000D02*
X83670000Y-59660000D01*
X73090000Y-58730000D02*
X82740000Y-58730000D01*
X71440000Y-60380000D02*
X73090000Y-58730000D01*
X71440000Y-64710000D02*
X71440000Y-60380000D01*
X69680000Y-66470000D02*
X71440000Y-64710000D01*
X68280000Y-66470000D02*
X69680000Y-66470000D01*
X66085000Y-68665000D02*
X68280000Y-66470000D01*
X66085000Y-70295000D02*
X63245000Y-70295000D01*
X63245000Y-70295000D02*
X61310000Y-72230000D01*
X106145000Y-67865000D02*
X106145000Y-67615000D01*
X84315000Y-57685000D02*
X83670000Y-59660000D01*
X114555000Y-60825000D02*
X114555000Y-58235000D01*
X114555000Y-58235000D02*
X114005000Y-57685000D01*
X84315000Y-57685000D02*
X114005000Y-57685000D01*
X106145000Y-67615000D02*
X109915000Y-63845000D01*
X106145000Y-70295000D02*
X106145000Y-67865000D01*
D37*
%TO.N,Net-(C4-Pad1)*%
X65560000Y-83520000D02*
X67325000Y-83655000D01*
X67325000Y-83655000D02*
X69170000Y-81810000D01*
X69170000Y-86730000D02*
X69170000Y-81810000D01*
X69170000Y-81810000D02*
X69170000Y-81700000D01*
X71775000Y-79095000D02*
X71775000Y-76495000D01*
X69170000Y-81700000D02*
X71775000Y-79095000D01*
%TO.N,Net-(C5-Pad1)*%
X65575000Y-80155000D02*
X65465000Y-80155000D01*
X65465000Y-80155000D02*
X63890000Y-81730000D01*
X63890000Y-84740000D02*
X65880000Y-86730000D01*
X63890000Y-81730000D02*
X63890000Y-84740000D01*
X69235000Y-76495000D02*
X69235000Y-79145000D01*
X68225000Y-80155000D02*
X65575000Y-80155000D01*
X69235000Y-79145000D02*
X68225000Y-80155000D01*
X65575000Y-80155000D02*
X65445000Y-80155000D01*
%TO.N,Net-(C8-Pad2)*%
X78675000Y-97485000D02*
X78225000Y-97485000D01*
X78225000Y-97485000D02*
X74045000Y-93305000D01*
X74045000Y-93305000D02*
X74045000Y-91985000D01*
X70045000Y-94405000D02*
X70405000Y-94495000D01*
X70405000Y-94495000D02*
X74045000Y-91985000D01*
%TO.N,Net-(C9-Pad2)*%
X74045000Y-96865000D02*
X75515000Y-96865000D01*
X75515000Y-96865000D02*
X78675000Y-100025000D01*
X70085000Y-98065000D02*
X71735000Y-98045000D01*
X71735000Y-98045000D02*
X74045000Y-96865000D01*
%TO.N,Net-(C11-Pad2)*%
X68675000Y-109385000D02*
X65465000Y-109385000D01*
X65465000Y-109385000D02*
X65465000Y-111525000D01*
X65465000Y-111525000D02*
X66865000Y-112925000D01*
X66865000Y-119425000D02*
X66865000Y-120645000D01*
X66865000Y-120645000D02*
X64900000Y-122550000D01*
X66865000Y-119425000D02*
X66865000Y-112925000D01*
D38*
%TO.N,Net-(C12-Pad1)*%
X110890000Y-83960000D02*
X111510000Y-83960000D01*
X111510000Y-83960000D02*
X112320000Y-84770000D01*
X112320000Y-84770000D02*
X112320000Y-87280000D01*
X115710000Y-89080000D02*
X115040000Y-89080000D01*
X115040000Y-89080000D02*
X113240000Y-87280000D01*
X113240000Y-87280000D02*
X112320000Y-87280000D01*
X105140000Y-85860000D02*
X105140000Y-85460000D01*
X105140000Y-85460000D02*
X106640000Y-83960000D01*
X106640000Y-83960000D02*
X110890000Y-83960000D01*
%TO.N,Net-(C14-Pad1)*%
X151260000Y-69090000D02*
X155750000Y-69090000D01*
X155750000Y-69090000D02*
X157360000Y-67480000D01*
X148530000Y-66020000D02*
X149160000Y-66020000D01*
X149160000Y-66020000D02*
X151260000Y-68120000D01*
X151260000Y-68120000D02*
X151260000Y-69090000D01*
X146070000Y-70490000D02*
X146070000Y-68480000D01*
X146070000Y-68480000D02*
X148530000Y-66020000D01*
X148870000Y-66360000D02*
X148530000Y-66020000D01*
%TO.N,Net-(C15-Pad1)*%
X78680000Y-129160000D02*
X77610000Y-129160000D01*
X77610000Y-129160000D02*
X75120000Y-131650000D01*
%TO.N,Net-(C21-Pad2)*%
X119600000Y-68060000D02*
X121680000Y-68060000D01*
X121680000Y-68060000D02*
X122265000Y-68645000D01*
X128890000Y-78910000D02*
X133120000Y-78910000D01*
X133120000Y-78910000D02*
X133660000Y-79450000D01*
X122265000Y-68645000D02*
X122265000Y-69405000D01*
X122265000Y-69405000D02*
X120950000Y-70720000D01*
X120950000Y-70720000D02*
X120950000Y-72390000D01*
X112930000Y-70780000D02*
X113215000Y-70780000D01*
X113215000Y-70780000D02*
X113430000Y-70565000D01*
X113430000Y-70565000D02*
X120310000Y-70440000D01*
X120310000Y-70440000D02*
X120950000Y-71080000D01*
X120950000Y-71080000D02*
X120950000Y-72390000D01*
X120950000Y-72390000D02*
X120950000Y-76530000D01*
X120950000Y-76530000D02*
X123250000Y-78830000D01*
X123250000Y-78830000D02*
X117460000Y-78830000D01*
X117460000Y-78830000D02*
X117420000Y-78870000D01*
X128890000Y-78910000D02*
X123330000Y-78910000D01*
X123330000Y-78910000D02*
X123250000Y-78830000D01*
%TO.N,Net-(C23-Pad2)*%
X182500000Y-75520000D02*
X182500000Y-76060000D01*
X182500000Y-76060000D02*
X187210000Y-80770000D01*
X181610000Y-89100000D02*
X183740000Y-89100000D01*
X183780000Y-89060000D02*
X183780000Y-89020000D01*
X183740000Y-89100000D02*
X183780000Y-89060000D01*
X182800000Y-90830000D02*
X182800000Y-90000000D01*
X182800000Y-90000000D02*
X183780000Y-89020000D01*
X184270000Y-88530000D02*
X184270000Y-83710000D01*
X184270000Y-83710000D02*
X187210000Y-80770000D01*
X183780000Y-89020000D02*
X184270000Y-88530000D01*
X173450000Y-89100000D02*
X172110000Y-89100000D01*
X169930000Y-81000000D02*
X167810000Y-78880000D01*
X169930000Y-86920000D02*
X169930000Y-81000000D01*
X172110000Y-89100000D02*
X169930000Y-86920000D01*
X172890000Y-75630000D02*
X172890000Y-77190000D01*
X172890000Y-77190000D02*
X172560000Y-77520000D01*
X164400000Y-77680000D02*
X164510000Y-77680000D01*
X164510000Y-77680000D02*
X165710000Y-78880000D01*
X165710000Y-78880000D02*
X167810000Y-78880000D01*
X167810000Y-78880000D02*
X168560000Y-78880000D01*
X169920000Y-77520000D02*
X172560000Y-77520000D01*
X168560000Y-78880000D02*
X169920000Y-77520000D01*
X181960000Y-77520000D02*
X182500000Y-76980000D01*
X172560000Y-77520000D02*
X181960000Y-77520000D01*
X182500000Y-75520000D02*
X182500000Y-76980000D01*
X164400000Y-77680000D02*
X164450000Y-77680000D01*
X154950000Y-79800000D02*
X158190000Y-79800000D01*
X158190000Y-79800000D02*
X161810000Y-76180000D01*
X161810000Y-76180000D02*
X161810000Y-75550000D01*
X161810000Y-75550000D02*
X162270000Y-75550000D01*
X162270000Y-75550000D02*
X164400000Y-77680000D01*
X173020000Y-90680000D02*
X173020000Y-89490000D01*
X173020000Y-89490000D02*
X172630000Y-89100000D01*
X181610000Y-89100000D02*
X182800000Y-90830000D01*
X172630000Y-89100000D02*
X173450000Y-89100000D01*
X173450000Y-89100000D02*
X181610000Y-89100000D01*
X182800000Y-90830000D02*
X182800000Y-90300000D01*
X154950000Y-79800000D02*
X154950000Y-82720000D01*
X154950000Y-82720000D02*
X154960000Y-82730000D01*
X154960000Y-82730000D02*
X154960000Y-84430000D01*
X154960000Y-84430000D02*
X154260000Y-85130000D01*
X182600000Y-75620000D02*
X182500000Y-75520000D01*
%TO.N,Net-(C26-Pad1)*%
X176080000Y-120620000D02*
X183780000Y-120620000D01*
X183780000Y-120620000D02*
X187775000Y-116625000D01*
%TO.N,Net-(C26-Pad2)*%
X162560000Y-120650000D02*
X162560000Y-120880000D01*
X162560000Y-120880000D02*
X164060000Y-122380000D01*
X164060000Y-122380000D02*
X169660000Y-122380000D01*
X169660000Y-126990000D02*
X169660000Y-122380000D01*
X169660000Y-122380000D02*
X169660000Y-122040000D01*
X169660000Y-122040000D02*
X171080000Y-120620000D01*
%TO.N,Net-(C34-Pad1)*%
X96740000Y-133310000D02*
X95810000Y-133310000D01*
X95810000Y-133310000D02*
X93500000Y-135620000D01*
X93500000Y-135620000D02*
X93500000Y-136060000D01*
X93500000Y-136060000D02*
X90340000Y-136060000D01*
X90340000Y-136060000D02*
X90220000Y-135940000D01*
X93160000Y-135720000D02*
X93500000Y-136060000D01*
%TO.N,Net-(C34-Pad2)*%
X90660000Y-140190000D02*
X90660000Y-140690000D01*
X90660000Y-140690000D02*
X88160000Y-143190000D01*
X96000000Y-136060000D02*
X95840000Y-136060000D01*
X95840000Y-136060000D02*
X91710000Y-140190000D01*
X91710000Y-140190000D02*
X90660000Y-140190000D01*
X91230000Y-140510000D02*
X90680000Y-141060000D01*
X90680000Y-140750000D02*
X90680000Y-141060000D01*
%TO.N,Net-(D3-Pad2)*%
X124480000Y-135600000D02*
X131100000Y-135600000D01*
X133950000Y-136710000D02*
X134870000Y-137630000D01*
X132210000Y-136710000D02*
X133950000Y-136710000D01*
X131100000Y-135600000D02*
X132210000Y-136710000D01*
D37*
%TO.N,SCK*%
X89730000Y-110680000D02*
X89730000Y-108390000D01*
X91410000Y-106710000D02*
X92490000Y-106710000D01*
X89730000Y-108390000D02*
X91410000Y-106710000D01*
X86295000Y-100025000D02*
X86495000Y-100025000D01*
X86495000Y-100025000D02*
X88620000Y-102150000D01*
X88620000Y-102150000D02*
X91200000Y-102150000D01*
X91200000Y-102150000D02*
X92030000Y-101320000D01*
X92030000Y-101320000D02*
X94730000Y-101320000D01*
X94730000Y-101320000D02*
X95080000Y-101670000D01*
X95080000Y-101670000D02*
X95080000Y-103590000D01*
X95080000Y-103590000D02*
X96360000Y-104870000D01*
X96360000Y-104870000D02*
X96360000Y-105480000D01*
%TO.N,MOSI*%
X86295000Y-105105000D02*
X87365000Y-105105000D01*
X87740000Y-105480000D02*
X93820000Y-105480000D01*
X87365000Y-105105000D02*
X87740000Y-105480000D01*
X78145000Y-112365000D02*
X79475000Y-112365000D01*
X82115000Y-106675000D02*
X82115000Y-106635000D01*
X80240000Y-108550000D02*
X82115000Y-106675000D01*
X80240000Y-111600000D02*
X80240000Y-108550000D01*
X79475000Y-112365000D02*
X80240000Y-111600000D01*
X50155000Y-111425000D02*
X51165000Y-112435000D01*
X50155000Y-108735000D02*
X50155000Y-111425000D01*
X51075000Y-107815000D02*
X50155000Y-108735000D01*
X75565000Y-107815000D02*
X51075000Y-107815000D01*
X76665000Y-108915000D02*
X75565000Y-107815000D01*
X76665000Y-110885000D02*
X76665000Y-108915000D01*
X78145000Y-112365000D02*
X76665000Y-110885000D01*
%TO.N,TXD*%
X78675000Y-82245000D02*
X77145000Y-82245000D01*
X77145000Y-82245000D02*
X75720000Y-83520000D01*
%TO.N,RXD*%
X78675000Y-79705000D02*
X76185000Y-79705000D01*
X76185000Y-79705000D02*
X75735000Y-80155000D01*
%TO.N,TUNING*%
X89530000Y-113520000D02*
X100250000Y-113520000D01*
X87860000Y-109210000D02*
X86295000Y-107645000D01*
X87860000Y-111850000D02*
X87860000Y-109210000D01*
X89530000Y-113520000D02*
X87860000Y-111850000D01*
X103150000Y-110010000D02*
X103150000Y-104270000D01*
X99430000Y-101720000D02*
X95610000Y-97900000D01*
X100600000Y-101720000D02*
X99430000Y-101720000D01*
X103150000Y-104270000D02*
X100600000Y-101720000D01*
X95610000Y-97900000D02*
X95610000Y-97220000D01*
X100250000Y-113520000D02*
X103150000Y-110010000D01*
D38*
%TO.N,Net-(L3-Pad2)*%
X94980000Y-85860000D02*
X94980000Y-88970000D01*
X94980000Y-88970000D02*
X95610000Y-89600000D01*
D37*
%TO.N,TRANSMIT*%
X87440000Y-114110000D02*
X100840000Y-114110000D01*
X86295000Y-112965000D02*
X86295000Y-110185000D01*
X87440000Y-114110000D02*
X86295000Y-112965000D01*
X104050000Y-110260000D02*
X104050000Y-104070000D01*
X100840000Y-114110000D02*
X104050000Y-110260000D01*
X99270000Y-100060000D02*
X99210000Y-98960000D01*
X100100000Y-100890000D02*
X99270000Y-100060000D01*
X100870000Y-100890000D02*
X100100000Y-100890000D01*
X104050000Y-104070000D02*
X100870000Y-100890000D01*
%TO.N,Net-(Q4-Pad2)*%
X96640000Y-118870000D02*
X93750000Y-118870000D01*
X87450000Y-116540000D02*
X86530000Y-117460000D01*
X91420000Y-116540000D02*
X87450000Y-116540000D01*
X93750000Y-118870000D02*
X91420000Y-116540000D01*
%TO.N,MUTEAUDIO*%
X78910000Y-117460000D02*
X78910000Y-113800000D01*
X78910000Y-113800000D02*
X81070000Y-111640000D01*
X81070000Y-111640000D02*
X81070000Y-111570000D01*
X82890000Y-93400000D02*
X79355000Y-89865000D01*
X82890000Y-109750000D02*
X82890000Y-93400000D01*
X81070000Y-111570000D02*
X82890000Y-109750000D01*
X79355000Y-89865000D02*
X78675000Y-89865000D01*
%TO.N,BEEPOUT*%
X82150000Y-112170000D02*
X81700000Y-112170000D01*
X83740000Y-110580000D02*
X82150000Y-112170000D01*
X83740000Y-92010000D02*
X83740000Y-110580000D01*
X79055000Y-87325000D02*
X83740000Y-92010000D01*
X80550000Y-119100000D02*
X78870000Y-120780000D01*
X80550000Y-113320000D02*
X80550000Y-119100000D01*
X81700000Y-112170000D02*
X80550000Y-113320000D01*
X78675000Y-87325000D02*
X79055000Y-87325000D01*
D38*
%TO.N,Net-(RV1-Pad2)*%
X86300000Y-129160000D02*
X87370000Y-129160000D01*
X87370000Y-129160000D02*
X88210000Y-130000000D01*
X88210000Y-130000000D02*
X88210000Y-137640000D01*
X88210000Y-137640000D02*
X85660000Y-140190000D01*
X85660000Y-140190000D02*
X85660000Y-143190000D01*
%TO.N,AUDIO*%
X93020000Y-123000000D02*
X93350000Y-123210000D01*
X100090000Y-131830000D02*
X100090000Y-133350000D01*
X94550000Y-126290000D02*
X100090000Y-131830000D01*
X94550000Y-124020000D02*
X94550000Y-126290000D01*
X93350000Y-123210000D02*
X94550000Y-124020000D01*
X100090000Y-133350000D02*
X100090000Y-133730000D01*
X100090000Y-133730000D02*
X101080000Y-134720000D01*
X101080000Y-134720000D02*
X103270000Y-134720000D01*
X100090000Y-132020000D02*
X106060000Y-132020000D01*
X106060000Y-132020000D02*
X108160000Y-134120000D01*
X100000000Y-133440000D02*
X100090000Y-133350000D01*
X100090000Y-132020000D02*
X100090000Y-133350000D01*
X113230000Y-130650000D02*
X112680000Y-130650000D01*
X112680000Y-130650000D02*
X111370000Y-131960000D01*
X111370000Y-131960000D02*
X111370000Y-136430000D01*
X111370000Y-136430000D02*
X110640000Y-137160000D01*
X110640000Y-137160000D02*
X108800000Y-137160000D01*
X108800000Y-137160000D02*
X108160000Y-136520000D01*
X108160000Y-136520000D02*
X108160000Y-134120000D01*
X116680000Y-125110000D02*
X116500000Y-125110000D01*
X116500000Y-125110000D02*
X113230000Y-128380000D01*
X113230000Y-128380000D02*
X113230000Y-130650000D01*
X109840000Y-127140000D02*
X109840000Y-127260000D01*
X109840000Y-127260000D02*
X113230000Y-130650000D01*
X112555000Y-130650000D02*
X113230000Y-130650000D01*
%TO.N,Net-(C35-Pad1)*%
X110570000Y-124240000D02*
X111820000Y-124240000D01*
X111820000Y-124240000D02*
X113230000Y-125650000D01*
X116680000Y-122570000D02*
X116310000Y-122570000D01*
X116310000Y-122570000D02*
X113230000Y-125650000D01*
%TO.N,Net-(C36-Pad2)*%
X165265000Y-69235000D02*
X165515000Y-69235000D01*
X165515000Y-69235000D02*
X167795000Y-66955000D01*
X167795000Y-66955000D02*
X169875000Y-66955000D01*
%TO.N,Net-(D11-Pad1)*%
X162480000Y-105960000D02*
X162480000Y-106360000D01*
X162480000Y-106360000D02*
X160410000Y-108430000D01*
X160410000Y-108430000D02*
X148675000Y-108430000D01*
X148325000Y-105800000D02*
X148325000Y-108080000D01*
X148325000Y-108080000D02*
X148675000Y-108430000D01*
D37*
%TO.N,AUDIOFILT*%
X93020000Y-115380000D02*
X93640000Y-115380000D01*
X93640000Y-115380000D02*
X94260000Y-114760000D01*
X102020000Y-114760000D02*
X104220000Y-116960000D01*
X94260000Y-114760000D02*
X102020000Y-114760000D01*
X93020000Y-115380000D02*
X85610000Y-115380000D01*
X85610000Y-115380000D02*
X84430000Y-114200000D01*
X84550000Y-114080000D02*
X84430000Y-114200000D01*
X84550000Y-114080000D02*
X84550000Y-90790000D01*
X85475000Y-89865000D02*
X86295000Y-89865000D01*
X84550000Y-90790000D02*
X85475000Y-89865000D01*
X85795000Y-89865000D02*
X86295000Y-89865000D01*
D38*
%TO.N,Net-(C10-Pad2)*%
X75245000Y-119575000D02*
X75025000Y-119575000D01*
X75025000Y-119575000D02*
X71930000Y-122690000D01*
D37*
X75215000Y-109415000D02*
X71165000Y-109415000D01*
X71165000Y-109415000D02*
X71215000Y-109365000D01*
X71215000Y-109365000D02*
X71955000Y-109365000D01*
X75245000Y-113075000D02*
X75245000Y-109445000D01*
X75245000Y-109445000D02*
X75215000Y-109415000D01*
X75245000Y-119575000D02*
X75245000Y-113075000D01*
%TO.N,Net-(C17-Pad2)*%
X58945000Y-129485000D02*
X57435000Y-129485000D01*
X54260000Y-132660000D02*
X53430000Y-132660000D01*
X57435000Y-129485000D02*
X54260000Y-132660000D01*
X55495000Y-109345000D02*
X52295000Y-109345000D01*
X52295000Y-109345000D02*
X52275000Y-109325000D01*
X56355000Y-120675000D02*
X56355000Y-110205000D01*
X56355000Y-110205000D02*
X55495000Y-109345000D01*
X58945000Y-122985000D02*
X58665000Y-122985000D01*
X58665000Y-122985000D02*
X56355000Y-120675000D01*
X58945000Y-129485000D02*
X58945000Y-122985000D01*
%TO.N,MISO*%
X93170000Y-83000000D02*
X93170000Y-96420000D01*
X93170000Y-96420000D02*
X92490000Y-97100000D01*
X101540000Y-79570000D02*
X101540000Y-74230000D01*
X99750000Y-81360000D02*
X101540000Y-79570000D01*
X97440000Y-81360000D02*
X99750000Y-81360000D01*
X97430002Y-81350002D02*
X97440000Y-81360000D01*
X97430002Y-81339998D02*
X97430002Y-81350002D01*
X96560000Y-82210000D02*
X97430002Y-81339998D01*
X93960000Y-82210000D02*
X96560000Y-82210000D01*
X93170000Y-83000000D02*
X93960000Y-82210000D01*
X86295000Y-102565000D02*
X87145000Y-102565000D01*
X95070000Y-106730000D02*
X96360000Y-108020000D01*
X95070000Y-104510000D02*
X95070000Y-106730000D01*
X94780000Y-104220000D02*
X95070000Y-104510000D01*
X88800000Y-104220000D02*
X94780000Y-104220000D01*
X87145000Y-102565000D02*
X88800000Y-104220000D01*
X99300000Y-72220000D02*
X99285000Y-66285000D01*
X99285000Y-66285000D02*
X99075000Y-66075000D01*
%TO.N,Net-(R2-Pad1)*%
X46500000Y-108060000D02*
X46500000Y-107650000D01*
X46500000Y-107650000D02*
X45650000Y-106800000D01*
X45650000Y-106800000D02*
X42550000Y-106800000D01*
X42550000Y-106800000D02*
X42050000Y-106300000D01*
X42050000Y-106300000D02*
X42050000Y-97500000D01*
X42050000Y-97500000D02*
X42925000Y-96625000D01*
X42925000Y-96625000D02*
X49705000Y-96625000D01*
X49705000Y-96625000D02*
X52020000Y-98940000D01*
X46990000Y-107950000D02*
X46220000Y-107950000D01*
X46990000Y-107950000D02*
X46320000Y-107950000D01*
%TO.N,DB5*%
X65215000Y-104495000D02*
X65215000Y-105105000D01*
X65295000Y-104415000D02*
X65215000Y-104495000D01*
X78675000Y-105105000D02*
X65215000Y-105105000D01*
X65215000Y-105105000D02*
X51905000Y-105105000D01*
X51905000Y-105105000D02*
X46990000Y-100580000D01*
X46990000Y-100580000D02*
X46990000Y-100330000D01*
%TO.N,DB4*%
X71955000Y-101745000D02*
X71955000Y-103275000D01*
X71955000Y-103275000D02*
X72165000Y-103485000D01*
X78675000Y-102565000D02*
X77925000Y-102565000D01*
X77925000Y-102565000D02*
X77005000Y-103485000D01*
X77005000Y-103485000D02*
X72165000Y-103485000D01*
X72165000Y-103485000D02*
X51685000Y-103485000D01*
X51685000Y-103485000D02*
X49365000Y-101165000D01*
X49365000Y-101165000D02*
X49365000Y-99775000D01*
X49365000Y-99775000D02*
X46990000Y-97790000D01*
%TO.N,DB7*%
X56505000Y-107175000D02*
X76095000Y-107175000D01*
X55845000Y-106515000D02*
X52255000Y-106515000D01*
X56505000Y-107175000D02*
X55845000Y-106515000D01*
X52255000Y-106515000D02*
X52255000Y-106525000D01*
X78245000Y-110185000D02*
X77395000Y-109335000D01*
X76655000Y-107705000D02*
X77395000Y-108445000D01*
X77395000Y-108445000D02*
X77395000Y-109335000D01*
X76095000Y-107175000D02*
X76655000Y-107705000D01*
X52255000Y-106525000D02*
X50545000Y-106525000D01*
X50545000Y-106525000D02*
X49320000Y-105450000D01*
X49320000Y-105450000D02*
X46990000Y-105410000D01*
X78675000Y-110185000D02*
X78245000Y-110185000D01*
%TO.N,DB6*%
X56735000Y-106535000D02*
X58685000Y-106535000D01*
X48450000Y-102920000D02*
X46990000Y-102870000D01*
X51485000Y-105785000D02*
X48450000Y-102920000D01*
X55985000Y-105785000D02*
X51485000Y-105785000D01*
X56735000Y-106535000D02*
X55985000Y-105785000D01*
X58685000Y-106535000D02*
X77565000Y-106535000D01*
X77565000Y-106535000D02*
X78675000Y-107645000D01*
X58685000Y-105885000D02*
X58685000Y-106535000D01*
X58725000Y-105845000D02*
X58685000Y-105885000D01*
%TO.N,Net-(RV3-Pad2)*%
X45255000Y-78825000D02*
X46500000Y-77580000D01*
X42700000Y-78825000D02*
X45255000Y-78825000D01*
X42025000Y-79500000D02*
X42700000Y-78825000D01*
X42025000Y-82725000D02*
X42025000Y-79500000D01*
X43220000Y-83920000D02*
X42025000Y-82725000D01*
X47370000Y-83920000D02*
X58790000Y-83920000D01*
X58790000Y-83920000D02*
X59500000Y-83210000D01*
X58650000Y-84060000D02*
X59500000Y-83210000D01*
X47370000Y-83920000D02*
X47200000Y-83920000D01*
X43220000Y-83920000D02*
X47200000Y-83920000D01*
X46240000Y-77470000D02*
X46990000Y-77470000D01*
X46300000Y-77470000D02*
X46990000Y-77470000D01*
%TO.N,RS*%
X50490000Y-81370000D02*
X49800000Y-81370000D01*
X49800000Y-81370000D02*
X48550000Y-80120000D01*
X48550000Y-80120000D02*
X46500000Y-80120000D01*
X50520000Y-81340000D02*
X50490000Y-81370000D01*
X50520000Y-81340000D02*
X62420000Y-81340000D01*
X82490000Y-78440000D02*
X86295000Y-82245000D01*
X73750000Y-78440000D02*
X82490000Y-78440000D01*
X72860000Y-77550000D02*
X73750000Y-78440000D01*
X72860000Y-75220000D02*
X72860000Y-77550000D01*
X72260000Y-74620000D02*
X72860000Y-75220000D01*
X65210000Y-74620000D02*
X72260000Y-74620000D01*
X63460000Y-76370000D02*
X65210000Y-74620000D01*
X63460000Y-80300000D02*
X63460000Y-76370000D01*
X62420000Y-81340000D02*
X63460000Y-80300000D01*
%TO.N,E*%
X46500000Y-85200000D02*
X63100000Y-85200000D01*
X63840000Y-87190000D02*
X65090000Y-88440000D01*
X63840000Y-85940000D02*
X63840000Y-87190000D01*
X63100000Y-85200000D02*
X63840000Y-85940000D01*
X85010000Y-83500000D02*
X86295000Y-84785000D01*
X77850000Y-83500000D02*
X85010000Y-83500000D01*
X76550000Y-84800000D02*
X77850000Y-83500000D01*
X71150000Y-84800000D02*
X76550000Y-84800000D01*
X70760000Y-85190000D02*
X71150000Y-84800000D01*
X70760000Y-87930000D02*
X70760000Y-85190000D01*
X70250000Y-88440000D02*
X70760000Y-87930000D01*
X65090000Y-88440000D02*
X70250000Y-88440000D01*
%TO.N,Net-(C16-Pad2)*%
X60600000Y-121090000D02*
X60600000Y-131130000D01*
X58825000Y-119315000D02*
X60600000Y-121090000D01*
X60600000Y-131130000D02*
X59130000Y-132600000D01*
X62165000Y-109355000D02*
X58835000Y-109355000D01*
X58835000Y-109355000D02*
X58825000Y-109345000D01*
X58825000Y-112815000D02*
X58825000Y-109345000D01*
X58825000Y-119315000D02*
X58825000Y-112815000D01*
%TO.N,Net-(J9-Pad2)*%
X93820000Y-108020000D02*
X93820000Y-108940000D01*
X99820000Y-109990000D02*
X101610000Y-108200000D01*
X94870000Y-109990000D02*
X99820000Y-109990000D01*
X93820000Y-108940000D02*
X94870000Y-109990000D01*
D38*
%TO.N,Net-(C45-Pad2)*%
X102950000Y-124240000D02*
X103600000Y-124240000D01*
X103600000Y-124240000D02*
X106510000Y-127150000D01*
X113580000Y-122380000D02*
X108430000Y-122380000D01*
X106510000Y-124300000D02*
X106510000Y-127150000D01*
X108430000Y-122380000D02*
X106510000Y-124300000D01*
X106510000Y-127150000D02*
X106510000Y-128310000D01*
X109840000Y-131640000D02*
X109840000Y-134760000D01*
X106510000Y-128310000D02*
X109840000Y-131640000D01*
%TO.N,SDA*%
X113220000Y-108630000D02*
X113220000Y-108320000D01*
X113220000Y-108320000D02*
X111740000Y-106840000D01*
X111740000Y-106840000D02*
X109670000Y-106840000D01*
X109670000Y-106840000D02*
X108810000Y-105980000D01*
X108810000Y-105980000D02*
X108810000Y-101310000D01*
X108810000Y-101310000D02*
X107740000Y-100240000D01*
X107740000Y-100240000D02*
X106830000Y-100240000D01*
X106830000Y-100240000D02*
X103440000Y-96850000D01*
D37*
X103440000Y-96850000D02*
X103440000Y-95220000D01*
X95600000Y-83790000D02*
X94290000Y-83790000D01*
X97080000Y-85270000D02*
X95600000Y-83790000D01*
X97080000Y-92320000D02*
X97080000Y-85270000D01*
X98940000Y-94180000D02*
X97080000Y-92320000D01*
X102400000Y-94180000D02*
X98940000Y-94180000D01*
X103440000Y-95220000D02*
X102400000Y-94180000D01*
D38*
%TO.N,SCL*%
X115760000Y-108630000D02*
X115760000Y-108320000D01*
X115760000Y-108320000D02*
X114510000Y-107070000D01*
X114510000Y-107070000D02*
X113310000Y-107070000D01*
X113310000Y-107070000D02*
X112110000Y-105870000D01*
X112110000Y-105870000D02*
X110260000Y-105870000D01*
X110260000Y-105870000D02*
X109650000Y-105260000D01*
X109650000Y-105260000D02*
X109650000Y-100750000D01*
X109650000Y-100750000D02*
X108080000Y-99180000D01*
X108080000Y-99180000D02*
X107290000Y-99180000D01*
X107290000Y-99180000D02*
X106600000Y-98490000D01*
X106600000Y-98490000D02*
X106600000Y-96850000D01*
D37*
X106600000Y-96850000D02*
X106600000Y-95930000D01*
X94570000Y-83030000D02*
X94430000Y-82890000D01*
X96080000Y-83030000D02*
X94570000Y-83030000D01*
X97740000Y-84690000D02*
X96080000Y-83030000D01*
X97740000Y-91930000D02*
X97740000Y-84690000D01*
X99420000Y-93610000D02*
X97740000Y-91930000D01*
X104280000Y-93610000D02*
X99420000Y-93610000D01*
X106600000Y-95930000D02*
X104280000Y-93610000D01*
D38*
%TO.N,Net-(C23-Pad1)*%
X164400000Y-82680000D02*
X164400000Y-84920000D01*
X164400000Y-84920000D02*
X164440000Y-84960000D01*
D39*
%TO.N,Net-(C47-Pad2)*%
X106600000Y-89230000D02*
X103440000Y-89230000D01*
X111040000Y-89790000D02*
X107160000Y-89790000D01*
X114480000Y-93230000D02*
X111040000Y-89790000D01*
X107160000Y-89790000D02*
X106600000Y-89230000D01*
D38*
X114530000Y-105110000D02*
X114530000Y-105030000D01*
X114530000Y-105030000D02*
X116120000Y-103440000D01*
X116120000Y-103440000D02*
X116120000Y-100580000D01*
X116120000Y-100580000D02*
X116930000Y-99770000D01*
X116930000Y-99770000D02*
X117510000Y-99770000D01*
%TO.N,Net-(C27-Pad1)*%
X151940000Y-127560000D02*
X151940000Y-128130000D01*
X151940000Y-128130000D02*
X153770000Y-129960000D01*
%TO.N,Net-(C30-Pad2)*%
X142630000Y-106640000D02*
X143640000Y-106640000D01*
X144860000Y-98180000D02*
X146475000Y-96565000D01*
X144860000Y-105420000D02*
X144860000Y-98180000D01*
X143640000Y-106640000D02*
X144860000Y-105420000D01*
X146475000Y-96565000D02*
X146925000Y-96565000D01*
%TO.N,Net-(D11-Pad2)*%
X154545000Y-99105000D02*
X154615000Y-99105000D01*
X154615000Y-99105000D02*
X156710000Y-101200000D01*
X156710000Y-105035000D02*
X155945000Y-105800000D01*
X156710000Y-101200000D02*
X156710000Y-105035000D01*
X158450000Y-105625000D02*
X156120000Y-105625000D01*
X156120000Y-105625000D02*
X155945000Y-105800000D01*
%TO.N,Net-(D12-Pad1)*%
X165020000Y-113580000D02*
X165020000Y-114290000D01*
X165020000Y-114290000D02*
X163535000Y-115775000D01*
X163535000Y-115775000D02*
X158800000Y-115775000D01*
X158450000Y-113245000D02*
X158450000Y-115425000D01*
X158450000Y-115425000D02*
X158800000Y-115775000D01*
%TO.N,Net-(D12-Pad2)*%
X146925000Y-101645000D02*
X146925000Y-102195000D01*
X146925000Y-102195000D02*
X145960000Y-103160000D01*
X145960000Y-113335000D02*
X148675000Y-116050000D01*
X145960000Y-103160000D02*
X145960000Y-113335000D01*
X146925000Y-101645000D02*
X146925000Y-102055000D01*
X148675000Y-116050000D02*
X150905000Y-116050000D01*
X150905000Y-116050000D02*
X151180000Y-115775000D01*
%TO.N,Net-(R25-Pad2)*%
X170920000Y-112670000D02*
X168470000Y-112670000D01*
X168470000Y-112670000D02*
X167560000Y-113580000D01*
%TO.N,Net-(C30-Pad1)*%
X140130000Y-106640000D02*
X140130000Y-109010000D01*
X140130000Y-109010000D02*
X140470000Y-109350000D01*
%TO.N,Net-(D15-Pad2)*%
X165265000Y-66695000D02*
X165355000Y-66695000D01*
X165355000Y-66695000D02*
X167265000Y-64785000D01*
X167265000Y-64785000D02*
X173875000Y-64785000D01*
X173875000Y-64785000D02*
X176555000Y-62105000D01*
X176555000Y-62105000D02*
X180595000Y-62105000D01*
X180595000Y-62105000D02*
X180865000Y-62105000D01*
X180865000Y-62105000D02*
X188055000Y-69295000D01*
%TO.N,Net-(L9-Pad2)*%
X99210000Y-88800000D02*
X99210000Y-83960000D01*
X113250000Y-65420000D02*
X114300000Y-64370000D01*
X110340000Y-65420000D02*
X113250000Y-65420000D01*
X108360000Y-67400000D02*
X110340000Y-65420000D01*
X108360000Y-70440000D02*
X108360000Y-67400000D01*
X104910000Y-73890000D02*
X108360000Y-70440000D01*
X104910000Y-80970000D02*
X104910000Y-73890000D01*
X104040000Y-81840000D02*
X104910000Y-80970000D01*
X101330000Y-81840000D02*
X104040000Y-81840000D01*
X99210000Y-83960000D02*
X101330000Y-81840000D01*
%TO.N,Net-(C39-Pad1)*%
X106510000Y-134770000D02*
X106510000Y-137130000D01*
X106510000Y-137130000D02*
X105990000Y-137650000D01*
%TO.N,Net-(C40-Pad1)*%
X116575000Y-116600000D02*
X116575000Y-116175000D01*
X116575000Y-116175000D02*
X114530000Y-114130000D01*
X113580000Y-117380000D02*
X113580000Y-117390000D01*
X113580000Y-117390000D02*
X112930000Y-118040000D01*
X112930000Y-118040000D02*
X108850000Y-118040000D01*
X116880000Y-113130000D02*
X116880000Y-116295000D01*
X116880000Y-116295000D02*
X116575000Y-116600000D01*
X116680000Y-120030000D02*
X117630000Y-120030000D01*
X118640000Y-130900000D02*
X116950000Y-132100000D01*
X118640000Y-121040000D02*
X118640000Y-130900000D01*
X117630000Y-120030000D02*
X118640000Y-121040000D01*
X116575000Y-116600000D02*
X114360000Y-116600000D01*
X114360000Y-116600000D02*
X113580000Y-117380000D01*
X116680000Y-120030000D02*
X116680000Y-116705000D01*
X116680000Y-116705000D02*
X116575000Y-116600000D01*
%TO.N,Net-(J12-Pad1)*%
X173430000Y-126910000D02*
X179430000Y-126910000D01*
X179430000Y-126910000D02*
X181945000Y-129425000D01*
X181620000Y-139700000D02*
X181620000Y-134764000D01*
X181620000Y-134764000D02*
X184673000Y-131711000D01*
X184673000Y-131711000D02*
X184209000Y-131711000D01*
X184673000Y-131711000D02*
X184231000Y-131711000D01*
X184231000Y-131711000D02*
X181945000Y-129425000D01*
%TO.N,Net-(D16-Pad2)*%
X177810000Y-133360000D02*
X177810000Y-136842500D01*
X177810000Y-136842500D02*
X177873500Y-136906000D01*
%TO.N,Net-(D16-Pad1)*%
X174230000Y-134840000D02*
X174230000Y-132510000D01*
X175920000Y-130820000D02*
X177810000Y-130820000D01*
X174230000Y-132510000D02*
X175920000Y-130820000D01*
%TO.N,Net-(Q9-Pad2)*%
X162700000Y-95940000D02*
X162700000Y-96240000D01*
X162700000Y-96240000D02*
X161160000Y-97780000D01*
X161160000Y-97780000D02*
X159250000Y-97780000D01*
X159250000Y-97780000D02*
X157580000Y-96110000D01*
X157580000Y-96110000D02*
X157580000Y-91090000D01*
X157580000Y-91090000D02*
X157580000Y-92900000D01*
X152400000Y-94610000D02*
X150960000Y-93170000D01*
X155870000Y-94610000D02*
X152400000Y-94610000D01*
X157580000Y-92900000D02*
X155870000Y-94610000D01*
X150960000Y-93170000D02*
X150960000Y-92750000D01*
X150960000Y-92750000D02*
X147700000Y-92750000D01*
X147700000Y-92750000D02*
X147690000Y-92760000D01*
%TO.N,Net-(Q9-Pad1)*%
X161290000Y-101600000D02*
X163830000Y-101600000D01*
X165240000Y-100190000D02*
X165240000Y-95940000D01*
X163830000Y-101600000D02*
X165240000Y-100190000D01*
X164440000Y-92580000D02*
X164440000Y-95140000D01*
X164440000Y-95140000D02*
X165240000Y-95940000D01*
%TO.N,Net-(C48-Pad1)*%
X125600000Y-89060000D02*
X125600000Y-86060000D01*
X125600000Y-86060000D02*
X123250000Y-83710000D01*
X123250000Y-83710000D02*
X117460000Y-83710000D01*
X117460000Y-83710000D02*
X117420000Y-83750000D01*
X128890000Y-83790000D02*
X123330000Y-83790000D01*
X123330000Y-83790000D02*
X123250000Y-83710000D01*
%TO.N,Net-(C48-Pad2)*%
X130600000Y-89060000D02*
X130600000Y-89680000D01*
X130600000Y-89680000D02*
X129730000Y-90550000D01*
X124800000Y-90550000D02*
X123330000Y-89080000D01*
X129730000Y-90550000D02*
X124800000Y-90550000D01*
X130600000Y-89060000D02*
X132220000Y-89250000D01*
X132220000Y-89250000D02*
X133500000Y-90530000D01*
X130600000Y-89620000D02*
X130600000Y-89060000D01*
X137000000Y-90550000D02*
X133520000Y-90550000D01*
X133520000Y-90550000D02*
X133500000Y-90530000D01*
%TO.N,Net-(C14-Pad2)*%
X157780000Y-75840000D02*
X157780000Y-76890000D01*
X150960000Y-79790000D02*
X150960000Y-85130000D01*
X152850000Y-77900000D02*
X150960000Y-79790000D01*
X156770000Y-77900000D02*
X152850000Y-77900000D01*
X157780000Y-76890000D02*
X156770000Y-77900000D01*
X157525000Y-82900000D02*
X157525000Y-88665000D01*
X157525000Y-88665000D02*
X158430000Y-89570000D01*
X148610000Y-70490000D02*
X149190000Y-70490000D01*
X149190000Y-70490000D02*
X149360000Y-70660000D01*
X156680000Y-70660000D02*
X157360000Y-69980000D01*
X149360000Y-70660000D02*
X156680000Y-70660000D01*
X157780000Y-75840000D02*
X157780000Y-75800000D01*
X157780000Y-75800000D02*
X159710000Y-73870000D01*
X159710000Y-72330000D02*
X157360000Y-69980000D01*
X159710000Y-73870000D02*
X159710000Y-72330000D01*
X148610000Y-70490000D02*
X149110000Y-70490000D01*
X160770000Y-92160000D02*
X160390000Y-92160000D01*
X160390000Y-92160000D02*
X159170000Y-90940000D01*
X159170000Y-90940000D02*
X159170000Y-90310000D01*
X159170000Y-90310000D02*
X158430000Y-89570000D01*
X155700000Y-89570000D02*
X154260000Y-91010000D01*
X158430000Y-89570000D02*
X155700000Y-89570000D01*
X160770000Y-92160000D02*
X160770000Y-93600000D01*
X160160000Y-94210000D02*
X160160000Y-95940000D01*
X160770000Y-93600000D02*
X160160000Y-94210000D01*
X150960000Y-85130000D02*
X150960000Y-87260000D01*
X150960000Y-87260000D02*
X154260000Y-90560000D01*
X154260000Y-90560000D02*
X154260000Y-91010000D01*
X154260000Y-91010000D02*
X154260000Y-92750000D01*
X148610000Y-70490000D02*
X148890000Y-70490000D01*
%TO.N,XOSC*%
X140475000Y-86445000D02*
X140475000Y-81695000D01*
X140475000Y-81695000D02*
X140425000Y-81645000D01*
%TO.N,IF*%
X151940000Y-122560000D02*
X148520000Y-122560000D01*
X148520000Y-122560000D02*
X148500000Y-122540000D01*
X162480000Y-110700000D02*
X156430000Y-110700000D01*
X154310000Y-120190000D02*
X151940000Y-122560000D01*
X154310000Y-112820000D02*
X154310000Y-120190000D01*
X156430000Y-110700000D02*
X154310000Y-112820000D01*
X165020000Y-105960000D02*
X165020000Y-108110000D01*
X162480000Y-110680000D02*
X162480000Y-110700000D01*
X162480000Y-110700000D02*
X162480000Y-113580000D01*
X162480000Y-110650000D02*
X162480000Y-110680000D01*
X165020000Y-108110000D02*
X162480000Y-110650000D01*
%TO.N,Net-(C43-Pad1)*%
X156930000Y-131410000D02*
X156930000Y-132180000D01*
X156930000Y-132180000D02*
X156410000Y-132700000D01*
X156410000Y-132700000D02*
X148500000Y-132700000D01*
X148500000Y-132700000D02*
X148500000Y-134770000D01*
X148500000Y-134770000D02*
X147630000Y-135640000D01*
%TO.N,Net-(C49-Pad1)*%
X147630000Y-138140000D02*
X146060000Y-138140000D01*
X146060000Y-138140000D02*
X145740000Y-138460000D01*
X141500000Y-136300000D02*
X144100000Y-136300000D01*
X145740000Y-137940000D02*
X145740000Y-138460000D01*
X145740000Y-138460000D02*
X145740000Y-141600000D01*
X144100000Y-136300000D02*
X145740000Y-137940000D01*
%TO.N,Net-(C50-Pad1)*%
X129190000Y-132440000D02*
X130400000Y-132440000D01*
X132770000Y-134810000D02*
X139060000Y-134810000D01*
X130400000Y-132440000D02*
X132770000Y-134810000D01*
X141500000Y-133760000D02*
X140050000Y-133760000D01*
X140050000Y-133760000D02*
X139060000Y-134750000D01*
X139060000Y-134750000D02*
X139060000Y-134810000D01*
X139060000Y-138860000D02*
X140400000Y-140200000D01*
X139060000Y-134810000D02*
X139060000Y-138860000D01*
X129200000Y-129170000D02*
X129200000Y-132430000D01*
X129200000Y-132430000D02*
X129190000Y-132440000D01*
%TO.N,Net-(C51-Pad1)*%
X140475000Y-88985000D02*
X142805000Y-88985000D01*
X143560000Y-88230000D02*
X144420000Y-88230000D01*
X142805000Y-88985000D02*
X143560000Y-88230000D01*
X144370000Y-85030000D02*
X144370000Y-88180000D01*
X144370000Y-88180000D02*
X144420000Y-88230000D01*
%TO.N,Net-(C51-Pad2)*%
X144420000Y-90730000D02*
X144420000Y-93460000D01*
X144420000Y-93460000D02*
X143000000Y-94880000D01*
%TO.N,Net-(C52-Pad1)*%
X136060000Y-119670000D02*
X136060000Y-122260000D01*
X136060000Y-122260000D02*
X134990000Y-123330000D01*
X140800000Y-125260000D02*
X139780000Y-125260000D01*
X137850000Y-123330000D02*
X134990000Y-123330000D01*
X139780000Y-125260000D02*
X137850000Y-123330000D01*
%TO.N,Net-(C54-Pad1)*%
X141500000Y-131220000D02*
X144850000Y-131220000D01*
X144850000Y-131220000D02*
X145120000Y-130950000D01*
X141500000Y-131220000D02*
X139580000Y-131220000D01*
X130370000Y-125500000D02*
X128930000Y-125500000D01*
X135800000Y-130930000D02*
X130370000Y-125500000D01*
X139290000Y-130930000D02*
X135800000Y-130930000D01*
X139580000Y-131220000D02*
X139290000Y-130930000D01*
%TO.N,Net-(C54-Pad2)*%
X124300000Y-122570000D02*
X128500000Y-122570000D01*
X128500000Y-122570000D02*
X128930000Y-123000000D01*
X124195000Y-116600000D02*
X123500000Y-116600000D01*
X123500000Y-116600000D02*
X122100000Y-118000000D01*
X122100000Y-120370000D02*
X124300000Y-122570000D01*
X122100000Y-118000000D02*
X122100000Y-120370000D01*
%TO.N,Net-(C56-Pad1)*%
X144370000Y-82530000D02*
X144450000Y-82530000D01*
X144450000Y-82530000D02*
X147060000Y-85140000D01*
X147060000Y-85140000D02*
X147690000Y-85140000D01*
X147690000Y-85140000D02*
X147500000Y-84975000D01*
D37*
%TO.N,TXRELAY*%
X180605000Y-65885000D02*
X180605000Y-66835000D01*
X180605000Y-66835000D02*
X185490000Y-71720000D01*
X189680000Y-96940000D02*
X187775000Y-98845000D01*
X189680000Y-72980000D02*
X189680000Y-96940000D01*
X188420000Y-71720000D02*
X189680000Y-72980000D01*
X185490000Y-71720000D02*
X188420000Y-71720000D01*
D38*
X176995000Y-65075000D02*
X179795000Y-65075000D01*
X179795000Y-65075000D02*
X180605000Y-65885000D01*
%TO.N,Net-(D15-Pad1)*%
X175205000Y-59145000D02*
X174965000Y-59145000D01*
X174965000Y-59145000D02*
X172975000Y-61135000D01*
X172975000Y-61135000D02*
X172975000Y-62105000D01*
%TO.N,Net-(D18-Pad1)*%
X167585000Y-59145000D02*
X167585000Y-59475000D01*
X167585000Y-59475000D02*
X165550000Y-61510000D01*
X165550000Y-61510000D02*
X162370000Y-61510000D01*
X162370000Y-61510000D02*
X161740000Y-62140000D01*
X140170000Y-61850000D02*
X144250000Y-61850000D01*
X160220000Y-63660000D02*
X161740000Y-62140000D01*
X146060000Y-63660000D02*
X160220000Y-63660000D01*
X144250000Y-61850000D02*
X146060000Y-63660000D01*
X138630000Y-67310000D02*
X138630000Y-63990000D01*
X138630000Y-63990000D02*
X140170000Y-61850000D01*
%TO.N,Net-(D18-Pad2)*%
X151260000Y-61470000D02*
X148170000Y-61470000D01*
X148170000Y-61470000D02*
X147790000Y-61850000D01*
X147860000Y-61780000D02*
X147790000Y-61850000D01*
%TO.N,PLLOSC*%
X132740000Y-94680000D02*
X138810000Y-94680000D01*
X140475000Y-93015000D02*
X140475000Y-91525000D01*
X138810000Y-94680000D02*
X140475000Y-93015000D01*
X132740000Y-94680000D02*
X132740000Y-97840000D01*
X132740000Y-97840000D02*
X132820000Y-97920000D01*
%TO.N,Net-(JP7-Pad2)*%
X174020000Y-116780000D02*
X174020000Y-117750000D01*
X182580000Y-113950000D02*
X180175000Y-111545000D01*
X182580000Y-117500000D02*
X182580000Y-113950000D01*
X181280000Y-118800000D02*
X182580000Y-117500000D01*
X175070000Y-118800000D02*
X181280000Y-118800000D01*
X174020000Y-117750000D02*
X175070000Y-118800000D01*
%TO.N,AMPOUT*%
X167640000Y-77110000D02*
X167640000Y-75790000D01*
X167640000Y-75790000D02*
X169990000Y-73440000D01*
X169990000Y-73440000D02*
X175850000Y-73440000D01*
X175430000Y-75630000D02*
X175430000Y-73860000D01*
X183960000Y-73440000D02*
X185040000Y-74520000D01*
X175850000Y-73440000D02*
X183960000Y-73440000D01*
X185040000Y-74520000D02*
X185040000Y-75520000D01*
X175430000Y-73860000D02*
X175850000Y-73440000D01*
X187210000Y-83310000D02*
X188140000Y-83310000D01*
X186280000Y-75520000D02*
X185040000Y-75520000D01*
X188840000Y-78080000D02*
X186280000Y-75520000D01*
X188840000Y-82610000D02*
X188840000Y-78080000D01*
X188140000Y-83310000D02*
X188840000Y-82610000D01*
X186880000Y-95330000D02*
X186880000Y-88840000D01*
X185330000Y-85190000D02*
X187210000Y-83310000D01*
X185330000Y-87290000D02*
X185330000Y-85190000D01*
X186880000Y-88840000D02*
X185330000Y-87290000D01*
X167640000Y-84730000D02*
X167640000Y-87840000D01*
X167640000Y-87840000D02*
X170480000Y-90680000D01*
X161335000Y-82900000D02*
X161335000Y-83955000D01*
X168060000Y-90680000D02*
X170480000Y-90680000D01*
X161335000Y-83955000D02*
X168060000Y-90680000D01*
X176560000Y-95330000D02*
X176560000Y-93690000D01*
X176560000Y-93690000D02*
X177210000Y-93040000D01*
X186880000Y-95330000D02*
X186340000Y-95330000D01*
X186340000Y-95330000D02*
X185240000Y-96430000D01*
X185240000Y-103930000D02*
X187775000Y-106465000D01*
X185240000Y-96430000D02*
X185240000Y-103930000D01*
X180260000Y-90830000D02*
X180260000Y-91410000D01*
X180260000Y-91410000D02*
X181890000Y-93040000D01*
X170480000Y-90680000D02*
X170480000Y-91270000D01*
X170480000Y-91270000D02*
X172250000Y-93040000D01*
X172250000Y-93040000D02*
X177210000Y-93040000D01*
X184590000Y-93040000D02*
X186880000Y-95330000D01*
X177210000Y-93040000D02*
X181890000Y-93040000D01*
X181890000Y-93040000D02*
X184590000Y-93040000D01*
%TO.N,Net-(Q10-Pad2)*%
X132760000Y-106675000D02*
X132760000Y-110700000D01*
X132760000Y-110700000D02*
X137730000Y-115670000D01*
X127460000Y-114490000D02*
X127460000Y-110900000D01*
X130045000Y-109390000D02*
X132760000Y-106675000D01*
X128970000Y-109390000D02*
X130045000Y-109390000D01*
X127460000Y-110900000D02*
X128970000Y-109390000D01*
X143000000Y-102500000D02*
X143000000Y-102630000D01*
X143000000Y-102630000D02*
X140970000Y-104660000D01*
X132760000Y-105480000D02*
X132760000Y-106675000D01*
X133580000Y-104660000D02*
X132760000Y-105480000D01*
X140970000Y-104660000D02*
X133580000Y-104660000D01*
%TO.N,Net-(Q10-Pad1)*%
X140470000Y-116970000D02*
X140470000Y-113500000D01*
X139290000Y-112320000D02*
X137690000Y-112320000D01*
X140470000Y-113500000D02*
X139290000Y-112320000D01*
X137690000Y-112320000D02*
X137470000Y-112320000D01*
X137470000Y-112320000D02*
X135300000Y-110150000D01*
X135300000Y-110150000D02*
X135300000Y-106675000D01*
%TO.N,Net-(Q11-Pad1)*%
X145120000Y-123330000D02*
X145120000Y-125950000D01*
X143270000Y-127800000D02*
X140800000Y-127800000D01*
X145120000Y-125950000D02*
X143270000Y-127800000D01*
X140800000Y-127800000D02*
X138190000Y-127800000D01*
X138190000Y-127800000D02*
X136820000Y-129170000D01*
%TO.N,Net-(Q12-Pad2)*%
X136090000Y-67310000D02*
X136090000Y-67910000D01*
X136090000Y-67910000D02*
X135110000Y-68890000D01*
X123040000Y-65690000D02*
X121920000Y-64370000D01*
X129160000Y-65690000D02*
X123040000Y-65690000D01*
X129840000Y-66170000D02*
X129160000Y-65690000D01*
X129840000Y-67040000D02*
X129840000Y-66170000D01*
X131690000Y-68890000D02*
X129840000Y-67040000D01*
X135110000Y-68890000D02*
X131690000Y-68890000D01*
X136090000Y-67310000D02*
X136090000Y-67790000D01*
%TO.N,Net-(Q13-Pad2)*%
X176995000Y-67615000D02*
X178755000Y-67615000D01*
X178755000Y-67615000D02*
X180435000Y-69295000D01*
%TO.N,RF*%
X170920000Y-105050000D02*
X178760000Y-105050000D01*
X178760000Y-105050000D02*
X180175000Y-106465000D01*
%TO.N,Net-(R63-Pad1)*%
X124570000Y-132100000D02*
X124570000Y-132110000D01*
X124570000Y-132110000D02*
X121660000Y-135510000D01*
X121660000Y-135510000D02*
X121660000Y-139840000D01*
X121660000Y-139840000D02*
X116660000Y-139840000D01*
X121660000Y-139840000D02*
X121660000Y-140340000D01*
X121660000Y-140340000D02*
X119160000Y-142840000D01*
X116660000Y-139840000D02*
X116660000Y-142840000D01*
X124300000Y-125110000D02*
X125490000Y-125110000D01*
X126000000Y-131160000D02*
X124570000Y-132100000D01*
X126000000Y-125620000D02*
X126000000Y-131160000D01*
X125490000Y-125110000D02*
X126000000Y-125620000D01*
D37*
%TO.N,PS2CLK*%
X94280000Y-75280000D02*
X95570000Y-74050000D01*
X95570000Y-74050000D02*
X95570000Y-72240000D01*
X94280000Y-75290000D02*
X94280000Y-75280000D01*
X88150000Y-81460000D02*
X91090000Y-78520000D01*
X82175000Y-84785000D02*
X78675000Y-84785000D01*
X83490000Y-86100000D02*
X82175000Y-84785000D01*
X87350000Y-86100000D02*
X83490000Y-86100000D01*
X88150000Y-85300000D02*
X87350000Y-86100000D01*
X88150000Y-81460000D02*
X88150000Y-85300000D01*
X95570000Y-72240000D02*
X95570000Y-70280000D01*
X95570000Y-70280000D02*
X96975000Y-68875000D01*
D38*
%TO.N,Net-(C21-Pad1)*%
X136370000Y-71530000D02*
X136370000Y-73610000D01*
X136370000Y-73610000D02*
X135955000Y-74025000D01*
X125910000Y-72250000D02*
X125970000Y-72250000D01*
X125970000Y-72250000D02*
X127745000Y-74025000D01*
X127745000Y-74025000D02*
X135955000Y-74025000D01*
X135955000Y-74025000D02*
X136215000Y-74025000D01*
X136215000Y-74025000D02*
X140455000Y-74025000D01*
X125910000Y-72250000D02*
X123630000Y-72250000D01*
X123630000Y-72250000D02*
X123490000Y-72390000D01*
X125910000Y-72250000D02*
X125910000Y-70000000D01*
X125910000Y-70000000D02*
X127265000Y-68645000D01*
X123490000Y-72390000D02*
X123630000Y-72390000D01*
X123490000Y-72390000D02*
X123675000Y-72425000D01*
%TO.N,Net-(D19-Pad1)*%
X137860000Y-59850000D02*
X152780000Y-59850000D01*
X154120000Y-61190000D02*
X154120000Y-62140000D01*
X152780000Y-59850000D02*
X154120000Y-61190000D01*
X136260000Y-60290000D02*
X137420000Y-60290000D01*
X137420000Y-60290000D02*
X137860000Y-59850000D01*
D37*
%TO.N,Net-(Q14-Pad2)*%
X50720000Y-127380000D02*
X51850000Y-126150000D01*
X52770000Y-121660000D02*
X51165000Y-120055000D01*
X52770000Y-125230000D02*
X52770000Y-121660000D01*
X51850000Y-126150000D02*
X52770000Y-125230000D01*
%TO.N,Net-(Q14-Pad3)*%
X46500000Y-110600000D02*
X47050000Y-110600000D01*
X47050000Y-110600000D02*
X49150000Y-112700000D01*
X49150000Y-112700000D02*
X49150000Y-122050000D01*
X49150000Y-122050000D02*
X50720000Y-124840000D01*
D38*
%TO.N,Net-(C38-Pad1)*%
X166835000Y-63005000D02*
X165015000Y-63005000D01*
X161810000Y-66210000D02*
X161810000Y-67930000D01*
X165015000Y-63005000D02*
X161810000Y-66210000D01*
X164290000Y-58870000D02*
X164790000Y-58870000D01*
X164790000Y-58870000D02*
X166220000Y-57440000D01*
X166220000Y-57440000D02*
X168640000Y-57440000D01*
X168640000Y-57440000D02*
X169290000Y-58090000D01*
X169290000Y-58090000D02*
X169290000Y-60550000D01*
X169290000Y-60550000D02*
X166835000Y-63005000D01*
%TO.N,Net-(L11-Pad2)*%
X115860000Y-59680000D02*
X115860000Y-60650000D01*
X134670000Y-58370000D02*
X153630000Y-58370000D01*
X134060000Y-58980000D02*
X134670000Y-58370000D01*
X134060000Y-61440000D02*
X134060000Y-58980000D01*
X131410000Y-64090000D02*
X134060000Y-61440000D01*
X126340000Y-64090000D02*
X131410000Y-64090000D01*
X124190000Y-61940000D02*
X126340000Y-64090000D01*
X117150000Y-61940000D02*
X124190000Y-61940000D01*
X115860000Y-60650000D02*
X117150000Y-61940000D01*
X153630000Y-58370000D02*
X154130000Y-58870000D01*
%TO.N,Net-(C58-Pad1)*%
X53690000Y-74770000D02*
X54330000Y-74770000D01*
X54330000Y-74770000D02*
X59560000Y-69540000D01*
X61750000Y-69540000D02*
X63985000Y-67305000D01*
X59560000Y-69540000D02*
X61750000Y-69540000D01*
X68195000Y-61835000D02*
X68095000Y-61835000D01*
X68095000Y-61835000D02*
X63985000Y-65945000D01*
X63985000Y-65945000D02*
X63985000Y-67305000D01*
X54955000Y-61305000D02*
X54955000Y-60835000D01*
X54955000Y-60835000D02*
X57575000Y-58215000D01*
X57575000Y-58215000D02*
X66365000Y-58215000D01*
X66365000Y-58215000D02*
X68195000Y-60045000D01*
X68195000Y-60045000D02*
X68195000Y-61835000D01*
X68655000Y-61325000D02*
X68655000Y-60505000D01*
X53690000Y-74770000D02*
X54430000Y-74770000D01*
%TO.N,Net-(C58-Pad2)*%
X53690000Y-72230000D02*
X53690000Y-68570000D01*
X53690000Y-68570000D02*
X54955000Y-67305000D01*
X61485000Y-67305000D02*
X61485000Y-63465000D01*
X61485000Y-63465000D02*
X63115000Y-61835000D01*
X61485000Y-67305000D02*
X54955000Y-67305000D01*
%TO.N,Net-(C19-Pad1)*%
X65840000Y-126490000D02*
X65840000Y-128660000D01*
X65840000Y-128660000D02*
X66370000Y-129190000D01*
X63060000Y-133350000D02*
X63060000Y-132220000D01*
X63060000Y-132220000D02*
X66370000Y-129190000D01*
X65850000Y-128670000D02*
X66370000Y-129190000D01*
X63060000Y-133350000D02*
X63060000Y-137770000D01*
X63060000Y-137770000D02*
X62280000Y-138550000D01*
%TO.N,Net-(L10-Pad1)*%
X63060000Y-125730000D02*
X63385002Y-125730000D01*
X63385002Y-125730000D02*
X64125002Y-124990000D01*
X64125002Y-124990000D02*
X74500000Y-124990000D01*
X74500000Y-124990000D02*
X76000000Y-126490000D01*
X78680000Y-124080000D02*
X77870000Y-124080000D01*
X77870000Y-124080000D02*
X76000000Y-126490000D01*
X78680000Y-124080000D02*
X78180000Y-124080000D01*
%TO.N,Net-(C36-Pad1)*%
X130580000Y-102340000D02*
X130580000Y-95400000D01*
X113880000Y-79350000D02*
X112930000Y-78400000D01*
X113880000Y-84160000D02*
X113880000Y-79350000D01*
X115830000Y-86110000D02*
X113880000Y-84160000D01*
X116780000Y-86110000D02*
X115830000Y-86110000D01*
X118830000Y-88160000D02*
X116780000Y-86110000D01*
X118830000Y-90750000D02*
X118830000Y-88160000D01*
X120170000Y-92090000D02*
X118830000Y-90750000D01*
X127270000Y-92090000D02*
X120170000Y-92090000D01*
X130580000Y-95400000D02*
X127270000Y-92090000D01*
X130220000Y-106675000D02*
X127655000Y-106675000D01*
X127655000Y-106675000D02*
X127460000Y-106870000D01*
X130220000Y-106675000D02*
X130220000Y-102700000D01*
X109440000Y-75980000D02*
X109570000Y-75980000D01*
X109570000Y-75980000D02*
X111030000Y-74520000D01*
X139510000Y-70490000D02*
X143530000Y-70490000D01*
X138730000Y-69710000D02*
X139510000Y-70490000D01*
X130560000Y-69710000D02*
X138730000Y-69710000D01*
X130560000Y-69710000D02*
X129030000Y-68180000D01*
X129030000Y-68180000D02*
X129030000Y-67310000D01*
X129030000Y-67310000D02*
X128220000Y-66500000D01*
X128220000Y-66500000D02*
X111310000Y-66500000D01*
X111310000Y-66500000D02*
X110150000Y-67660000D01*
X110150000Y-70220000D02*
X110150000Y-67660000D01*
X111030000Y-71100000D02*
X110150000Y-70220000D01*
X111030000Y-74520000D02*
X111030000Y-71100000D01*
X112930000Y-78400000D02*
X112930000Y-77060000D01*
X111850000Y-75980000D02*
X109440000Y-75980000D01*
X112930000Y-77060000D02*
X111850000Y-75980000D01*
X109440000Y-75980000D02*
X108300000Y-75980000D01*
X108300000Y-75980000D02*
X106845000Y-77435000D01*
X106845000Y-77435000D02*
X106845000Y-78340000D01*
X118410000Y-72390000D02*
X115150000Y-72390000D01*
X115150000Y-72390000D02*
X111560000Y-75980000D01*
X111560000Y-75980000D02*
X109440000Y-75980000D01*
X140910000Y-66020000D02*
X143780000Y-66020000D01*
X168450000Y-70880000D02*
X169875000Y-69455000D01*
X161120000Y-70880000D02*
X168450000Y-70880000D01*
X159980000Y-69740000D02*
X161120000Y-70880000D01*
X159980000Y-66130000D02*
X159980000Y-69740000D01*
X158210002Y-64360002D02*
X159980000Y-66130000D01*
X145439998Y-64360002D02*
X158210002Y-64360002D01*
X143780000Y-66020000D02*
X145439998Y-64360002D01*
X140910000Y-66020000D02*
X142500000Y-66020000D01*
X143530000Y-67050000D02*
X143530000Y-70490000D01*
X142500000Y-66020000D02*
X143530000Y-67050000D01*
X130220000Y-102700000D02*
X130580000Y-102340000D01*
X106845000Y-78340000D02*
X106845000Y-77810000D01*
X169875000Y-69455000D02*
X170735000Y-69455000D01*
X170735000Y-69455000D02*
X171435000Y-70155000D01*
X171435000Y-70155000D02*
X176995000Y-70155000D01*
%TO.N,Net-(C57-Pad1)*%
X86295000Y-94945000D02*
X89075000Y-94945000D01*
X89075000Y-94945000D02*
X89510000Y-94510000D01*
%TO.N,Net-(C39-Pad2)*%
X124300000Y-127650000D02*
X124300000Y-127960000D01*
X124300000Y-127960000D02*
X122490000Y-129770000D01*
X114000000Y-137500000D02*
X111660000Y-139840000D01*
X118300000Y-137500000D02*
X114000000Y-137500000D01*
X122490000Y-133310000D02*
X118300000Y-137500000D01*
X122490000Y-129770000D02*
X122490000Y-133310000D01*
X111660000Y-139840000D02*
X106300000Y-139840000D01*
X106300000Y-139840000D02*
X105990000Y-140150000D01*
X114160000Y-142840000D02*
X114160000Y-142340000D01*
X114160000Y-142340000D02*
X111660000Y-139840000D01*
X105990000Y-140150000D02*
X102640000Y-140150000D01*
X102640000Y-140150000D02*
X101780000Y-141010000D01*
%TO.N,Net-(C18-Pad1)*%
X100950000Y-121330000D02*
X96720000Y-121330000D01*
X96720000Y-121330000D02*
X96640000Y-121410000D01*
X96740000Y-125690000D02*
X96740000Y-121510000D01*
X96740000Y-121510000D02*
X96640000Y-121410000D01*
D37*
X96640000Y-121410000D02*
X96640000Y-121430000D01*
X96800000Y-121410000D02*
X96640000Y-121410000D01*
D38*
X100090000Y-125730000D02*
X96780000Y-125730000D01*
X96780000Y-125730000D02*
X96740000Y-125690000D01*
%TO.N,Net-(C60-Pad2)*%
X93460000Y-128270000D02*
X90270000Y-128270000D01*
X90270000Y-128270000D02*
X90220000Y-128320000D01*
X90220000Y-128320000D02*
X90070000Y-128320000D01*
X90070000Y-128320000D02*
X88470000Y-126720000D01*
X88470000Y-126720000D02*
X88470000Y-122760000D01*
X88470000Y-122760000D02*
X86490000Y-120780000D01*
D37*
%TO.N,MICPADDLE*%
X45220000Y-114400000D02*
X46500000Y-115680000D01*
X42375000Y-114400000D02*
X45220000Y-114400000D01*
X41425000Y-113450000D02*
X42375000Y-114400000D01*
X41425000Y-90000000D02*
X41425000Y-113450000D01*
X42425000Y-89000000D02*
X41425000Y-90000000D01*
X48150000Y-89000000D02*
X42425000Y-89000000D01*
X49975000Y-87175000D02*
X48150000Y-89000000D01*
X52475000Y-87175000D02*
X49975000Y-87175000D01*
X55750000Y-90450000D02*
X52475000Y-87175000D01*
X57725000Y-90450000D02*
X55750000Y-90450000D01*
X58450000Y-89725000D02*
X57725000Y-90450000D01*
X60525000Y-89725000D02*
X58450000Y-89725000D01*
X61050000Y-90250000D02*
X60525000Y-89725000D01*
X63350000Y-90250000D02*
X61050000Y-90250000D01*
X64325000Y-89275000D02*
X63350000Y-90250000D01*
X71025000Y-89275000D02*
X64325000Y-89275000D01*
X71550000Y-88750000D02*
X71025000Y-89275000D01*
X71550000Y-86050000D02*
X71550000Y-88750000D01*
X72020000Y-85580000D02*
X71550000Y-86050000D01*
X72020000Y-85580000D02*
X76750000Y-85580000D01*
X77220000Y-86050000D02*
X76750000Y-85580000D01*
X81490000Y-86050000D02*
X77220000Y-86050000D01*
X82765000Y-87325000D02*
X81490000Y-86050000D01*
X86295000Y-87325000D02*
X82765000Y-87325000D01*
X89725000Y-87825000D02*
X86795000Y-87825000D01*
X86795000Y-87825000D02*
X86295000Y-87325000D01*
D38*
%TO.N,SPKR*%
X69800000Y-139350000D02*
X69290000Y-139350000D01*
X69290000Y-139350000D02*
X66940000Y-141050000D01*
X66940000Y-141050000D02*
X62280000Y-141050000D01*
X58735000Y-137505000D02*
X58735000Y-140195000D01*
X59590000Y-141050000D02*
X62280000Y-141050000D01*
X58735000Y-140195000D02*
X59590000Y-141050000D01*
X46500000Y-132720000D02*
X46500000Y-120760000D01*
X49600000Y-135820000D02*
X46500000Y-132720000D01*
X57050000Y-135820000D02*
X49600000Y-135820000D01*
X57050000Y-135820000D02*
X58735000Y-137505000D01*
X69650000Y-140480000D02*
X70950000Y-139180000D01*
X70950000Y-139180000D02*
X69710000Y-139180000D01*
X70175000Y-138405000D02*
X70950000Y-139180000D01*
D37*
%TO.N,Net-(R76-Pad1)*%
X50590000Y-134490000D02*
X60280000Y-134490000D01*
X62030000Y-124220000D02*
X74270000Y-124220000D01*
X61220000Y-125030000D02*
X62030000Y-124220000D01*
X61220000Y-133550000D02*
X61220000Y-125030000D01*
X60280000Y-134490000D02*
X61220000Y-133550000D01*
X84130000Y-119210000D02*
X88820000Y-119210000D01*
X75980000Y-122510000D02*
X74270000Y-124220000D01*
X80830000Y-122510000D02*
X75980000Y-122510000D01*
X84130000Y-119210000D02*
X80830000Y-122510000D01*
X88820000Y-119210000D02*
X89730000Y-118300000D01*
X50590000Y-134490000D02*
X48230000Y-132130000D01*
X48230000Y-132130000D02*
X48230000Y-119950000D01*
X48230000Y-119950000D02*
X46500000Y-118220000D01*
D38*
%TO.N,Net-(J10-Pad1)*%
X123380000Y-108630000D02*
X123380000Y-107210000D01*
X126250000Y-94680000D02*
X125120000Y-94680000D01*
X127270000Y-95700000D02*
X126250000Y-94680000D01*
X127270000Y-103320000D02*
X127270000Y-95700000D01*
X123380000Y-107210000D02*
X127270000Y-103320000D01*
%TO.N,Net-(J10-Pad2)*%
X120840000Y-108630000D02*
X120840000Y-106980000D01*
X125200000Y-103630000D02*
X125200000Y-97920000D01*
X123440000Y-105390000D02*
X125200000Y-103630000D01*
X122430000Y-105390000D02*
X123440000Y-105390000D01*
X120840000Y-106980000D02*
X122430000Y-105390000D01*
D37*
%TO.N,Net-(C61-Pad2)*%
X52910000Y-91460000D02*
X52910000Y-91410000D01*
X52910000Y-91410000D02*
X50490000Y-88990000D01*
X52910000Y-91460000D02*
X51140000Y-91460000D01*
X51140000Y-91460000D02*
X49840000Y-92760000D01*
X59410000Y-91460000D02*
X62340000Y-91460000D01*
X62340000Y-91460000D02*
X62480000Y-91600000D01*
X59410000Y-91460000D02*
X52910000Y-91460000D01*
D38*
%TO.N,Net-(J18-Pad3)*%
X165100000Y-140970000D02*
X172730000Y-140970000D01*
X172730000Y-140970000D02*
X174000000Y-139700000D01*
X171480000Y-116780000D02*
X171480000Y-117860000D01*
X171550000Y-129080000D02*
X171180000Y-129450000D01*
X171550000Y-123970000D02*
X171550000Y-129080000D01*
X173200000Y-122320000D02*
X171550000Y-123970000D01*
X173200000Y-119580000D02*
X173200000Y-122320000D01*
X171480000Y-117860000D02*
X173200000Y-119580000D01*
X171830000Y-129450000D02*
X171830000Y-137530000D01*
X171830000Y-137530000D02*
X174000000Y-139700000D01*
X173430000Y-129450000D02*
X171830000Y-129450000D01*
X171830000Y-129450000D02*
X171180000Y-129450000D01*
X171180000Y-129450000D02*
X169740000Y-129450000D01*
X169740000Y-129450000D02*
X169660000Y-129530000D01*
X165100000Y-140970000D02*
X162560000Y-140970000D01*
%TO.N,Net-(J17-Pad4)*%
X165100000Y-120650000D02*
X165100000Y-119930000D01*
X165100000Y-119930000D02*
X170540000Y-114490000D01*
X174270000Y-114490000D02*
X176560000Y-116780000D01*
X170540000Y-114490000D02*
X174270000Y-114490000D01*
%TD*%
M02*
