G04 #@! TF.FileFunction,Soldermask,Bot*
%FSLAX46Y46*%
G04 Gerber Fmt 4.6, Leading zero omitted, Abs format (unit mm)*
G04 Created by KiCad (PCBNEW 4.0.7) date 10/05/21 11:44:17*
%MOMM*%
%LPD*%
G01*
G04 APERTURE LIST*
%ADD10C,0.100000*%
%ADD11R,2.000000X2.000000*%
%ADD12C,2.000000*%
%ADD13R,3.400000X3.400000*%
%ADD14C,3.400000*%
%ADD15C,1.800000*%
%ADD16O,1.800000X1.800000*%
%ADD17O,2.000000X2.000000*%
%ADD18R,2.600000X2.600000*%
%ADD19O,2.600000X2.600000*%
%ADD20R,2.200000X2.200000*%
%ADD21C,2.200000*%
%ADD22R,3.900000X3.900000*%
%ADD23C,3.448000*%
%ADD24R,2.100000X2.100000*%
%ADD25O,2.100000X2.100000*%
%ADD26C,1.920000*%
%ADD27R,1.920000X1.920000*%
%ADD28C,2.900000*%
%ADD29C,2.400000*%
%ADD30O,2.200000X2.200000*%
%ADD31C,1.900000*%
G04 APERTURE END LIST*
D10*
D11*
X109982000Y-70612000D03*
D12*
X107482000Y-70612000D03*
D13*
X134366000Y-51816000D03*
D14*
X134366000Y-56896000D03*
D15*
X86750000Y-113080000D03*
D16*
X79130000Y-113080000D03*
D11*
X126492000Y-109982000D03*
D17*
X118872000Y-117602000D03*
X123952000Y-109982000D03*
X121412000Y-117602000D03*
X121412000Y-109982000D03*
X123952000Y-117602000D03*
X118872000Y-109982000D03*
X126492000Y-117602000D03*
D12*
X82804000Y-70612000D03*
X85304000Y-70612000D03*
X50546000Y-94996000D03*
X50546000Y-92496000D03*
X87340000Y-136570000D03*
X84840000Y-136570000D03*
D11*
X57150000Y-53340000D03*
D12*
X59650000Y-53340000D03*
X81280000Y-129540000D03*
X86280000Y-129540000D03*
X81280000Y-133350000D03*
X86280000Y-133350000D03*
D11*
X64770000Y-53340000D03*
D12*
X67270000Y-53340000D03*
X133604000Y-124460000D03*
X136104000Y-124460000D03*
X73406000Y-99568000D03*
X73406000Y-94568000D03*
X73406000Y-86360000D03*
X73406000Y-91360000D03*
X44000000Y-81000000D03*
X46500000Y-81000000D03*
X43434000Y-119634000D03*
X45934000Y-119634000D03*
D11*
X117160000Y-95440000D03*
D12*
X117160000Y-92940000D03*
X122220000Y-95250000D03*
X122220000Y-92750000D03*
X92480000Y-108180000D03*
X92480000Y-105680000D03*
D11*
X76708000Y-52070000D03*
D12*
X79208000Y-52070000D03*
X43000000Y-94000000D03*
X45500000Y-94000000D03*
X43180000Y-106680000D03*
X45680000Y-106680000D03*
D11*
X88350000Y-56050000D03*
D12*
X88350000Y-53550000D03*
X92150000Y-62250000D03*
X94650000Y-62250000D03*
X119126000Y-82296000D03*
X114126000Y-82296000D03*
X121666000Y-79756000D03*
X126666000Y-79756000D03*
X119126000Y-74930000D03*
X119126000Y-72430000D03*
X133096000Y-120396000D03*
X130596000Y-120396000D03*
X104330000Y-53530000D03*
X104330000Y-51030000D03*
X100838000Y-42164000D03*
X100838000Y-47164000D03*
X107950000Y-50800000D03*
X112950000Y-50800000D03*
X108966000Y-133096000D03*
X108966000Y-130596000D03*
X115824000Y-50800000D03*
X120824000Y-50800000D03*
X69596000Y-116840000D03*
X72096000Y-116840000D03*
X75770000Y-105670000D03*
X78270000Y-105670000D03*
X75184000Y-74676000D03*
X72684000Y-74676000D03*
X122682000Y-103124000D03*
X117682000Y-103124000D03*
D18*
X55880000Y-59690000D03*
D19*
X63500000Y-59690000D03*
D11*
X88790000Y-123440000D03*
D17*
X81170000Y-123440000D03*
D20*
X55880000Y-69850000D03*
D21*
X55880000Y-67310000D03*
D18*
X128270000Y-90170000D03*
D19*
X135890000Y-90170000D03*
D18*
X128270000Y-93726000D03*
D19*
X135890000Y-93726000D03*
D18*
X128270000Y-97282000D03*
D19*
X135890000Y-97282000D03*
D18*
X128270000Y-86614000D03*
D19*
X135890000Y-86614000D03*
D11*
X106172000Y-136398000D03*
D17*
X98552000Y-136398000D03*
D11*
X98298000Y-132842000D03*
D17*
X105918000Y-132842000D03*
D13*
X46990000Y-74930000D03*
D14*
X46990000Y-69850000D03*
D22*
X50800000Y-58420000D03*
X44800000Y-58420000D03*
X47800000Y-63120000D03*
D23*
X44000000Y-44000000D03*
X44000000Y-136000000D03*
D24*
X78170000Y-135150000D03*
D25*
X75630000Y-135150000D03*
X73090000Y-135150000D03*
X70550000Y-135150000D03*
D23*
X136000000Y-136000000D03*
X136000000Y-44000000D03*
D24*
X54864000Y-134874000D03*
D25*
X57404000Y-134874000D03*
X59944000Y-134874000D03*
X62484000Y-134874000D03*
D13*
X134112000Y-114046000D03*
D14*
X134112000Y-108966000D03*
D13*
X89408000Y-45720000D03*
D14*
X94488000Y-45720000D03*
D12*
X74000000Y-132000000D03*
D17*
X74000000Y-121840000D03*
D12*
X78000000Y-132000000D03*
D17*
X78000000Y-121840000D03*
D12*
X94996000Y-81534000D03*
D17*
X84836000Y-81534000D03*
D12*
X98400000Y-52300000D03*
D17*
X98400000Y-62460000D03*
D12*
X121770000Y-65340000D03*
D17*
X111610000Y-65340000D03*
D12*
X101760000Y-57390000D03*
D17*
X111920000Y-57390000D03*
D12*
X105156000Y-44958000D03*
D17*
X115316000Y-44958000D03*
D12*
X119380000Y-44958000D03*
D17*
X129540000Y-44958000D03*
D12*
X76420000Y-113100000D03*
D17*
X66260000Y-113100000D03*
D26*
X92540000Y-72000000D03*
X95080000Y-72000000D03*
D27*
X90000000Y-72000000D03*
D26*
X113640000Y-76470000D03*
X111100000Y-76470000D03*
D27*
X116180000Y-76470000D03*
D26*
X117460000Y-57220000D03*
X114920000Y-57220000D03*
D27*
X120000000Y-57220000D03*
D26*
X84490000Y-104330000D03*
X81950000Y-104330000D03*
D27*
X87030000Y-104330000D03*
D15*
X88540000Y-126400000D03*
D16*
X80920000Y-126400000D03*
D15*
X67818000Y-131318000D03*
D16*
X67818000Y-123698000D03*
D15*
X50292000Y-137922000D03*
D16*
X50292000Y-130302000D03*
D15*
X63500000Y-63500000D03*
D16*
X55880000Y-63500000D03*
D15*
X108630000Y-127910000D03*
D16*
X108630000Y-120290000D03*
D15*
X64770000Y-77470000D03*
D16*
X64770000Y-69850000D03*
D15*
X77216000Y-84074000D03*
D16*
X69596000Y-84074000D03*
D15*
X125230000Y-91360000D03*
D16*
X125230000Y-98980000D03*
D15*
X96670000Y-101090000D03*
D16*
X96670000Y-108710000D03*
D15*
X78232000Y-73660000D03*
D16*
X85852000Y-73660000D03*
D15*
X62230000Y-77470000D03*
D16*
X62230000Y-69850000D03*
D15*
X49784000Y-98552000D03*
D16*
X49784000Y-106172000D03*
D15*
X99822000Y-108712000D03*
D16*
X99822000Y-101092000D03*
D15*
X103632000Y-80518000D03*
D16*
X111252000Y-80518000D03*
D15*
X103632000Y-83312000D03*
D16*
X111252000Y-83312000D03*
D15*
X129286000Y-82804000D03*
D16*
X121666000Y-82804000D03*
D15*
X111506000Y-123698000D03*
D16*
X119126000Y-123698000D03*
D15*
X119126000Y-121158000D03*
D16*
X111506000Y-121158000D03*
D15*
X113880000Y-61340000D03*
D16*
X121500000Y-61340000D03*
D15*
X120950000Y-68560000D03*
D16*
X113330000Y-68560000D03*
D15*
X109300000Y-66100000D03*
D16*
X101680000Y-66100000D03*
D15*
X124460000Y-106172000D03*
D16*
X116840000Y-106172000D03*
D15*
X114300000Y-110744000D03*
D16*
X114300000Y-103124000D03*
D15*
X108712000Y-136652000D03*
D16*
X116332000Y-136652000D03*
D15*
X121666000Y-123698000D03*
D16*
X129286000Y-123698000D03*
D15*
X106400000Y-114225000D03*
D16*
X114020000Y-114225000D03*
D15*
X98552000Y-129794000D03*
D16*
X106172000Y-129794000D03*
D15*
X50000000Y-120000000D03*
D16*
X50000000Y-127620000D03*
D15*
X76010000Y-77910000D03*
D16*
X68390000Y-77910000D03*
D15*
X68310000Y-80430000D03*
D16*
X75930000Y-80430000D03*
D15*
X114075000Y-117150000D03*
D16*
X106455000Y-117150000D03*
D15*
X49930000Y-116590000D03*
D16*
X49930000Y-108970000D03*
D15*
X86360000Y-76962000D03*
D16*
X78740000Y-76962000D03*
D28*
X75612000Y-43942000D03*
X80612000Y-43942000D03*
X70612000Y-43942000D03*
D29*
X91050000Y-129330000D03*
X95550000Y-129330000D03*
X91050000Y-135830000D03*
X95550000Y-135830000D03*
X41500000Y-84000000D03*
X46000000Y-84000000D03*
X41500000Y-90500000D03*
X46000000Y-90500000D03*
X41500000Y-97000000D03*
X46000000Y-97000000D03*
X41500000Y-103500000D03*
X46000000Y-103500000D03*
X41500000Y-110000000D03*
X46000000Y-110000000D03*
X41500000Y-116500000D03*
X46000000Y-116500000D03*
X41500000Y-123000000D03*
X46000000Y-123000000D03*
X41500000Y-129500000D03*
X46000000Y-129500000D03*
D20*
X54610000Y-44450000D03*
D30*
X57150000Y-44450000D03*
X59690000Y-44450000D03*
D31*
X68834000Y-96266000D03*
X68834000Y-91386000D03*
X118240000Y-87230000D03*
X123120000Y-87230000D03*
D11*
X62230000Y-115570000D03*
D17*
X54610000Y-82550000D03*
X62230000Y-113030000D03*
X54610000Y-85090000D03*
X62230000Y-110490000D03*
X54610000Y-87630000D03*
X62230000Y-107950000D03*
X54610000Y-90170000D03*
X62230000Y-105410000D03*
X54610000Y-92710000D03*
X62230000Y-102870000D03*
X54610000Y-95250000D03*
X62230000Y-100330000D03*
X54610000Y-97790000D03*
X62230000Y-97790000D03*
X54610000Y-100330000D03*
X62230000Y-95250000D03*
X54610000Y-102870000D03*
X62230000Y-92710000D03*
X54610000Y-105410000D03*
X62230000Y-90170000D03*
X54610000Y-107950000D03*
X62230000Y-87630000D03*
X54610000Y-110490000D03*
X62230000Y-85090000D03*
X54610000Y-113030000D03*
X62230000Y-82550000D03*
X54610000Y-115570000D03*
D24*
X83820000Y-93218000D03*
D25*
X81280000Y-93218000D03*
X83820000Y-90678000D03*
X81280000Y-90678000D03*
X83820000Y-88138000D03*
X81280000Y-88138000D03*
D12*
X85598000Y-63500000D03*
X85598000Y-61000000D03*
D11*
X74168000Y-58420000D03*
D17*
X81788000Y-66040000D03*
X74168000Y-60960000D03*
X81788000Y-63500000D03*
X74168000Y-63500000D03*
X81788000Y-60960000D03*
X74168000Y-66040000D03*
X81788000Y-58420000D03*
D12*
X108900000Y-63150000D03*
X103900000Y-63150000D03*
X105670000Y-76410000D03*
X108170000Y-76410000D03*
D20*
X104648000Y-107696000D03*
D21*
X104648000Y-110236000D03*
D28*
X124286000Y-135382000D03*
X119286000Y-135382000D03*
X129286000Y-135382000D03*
D15*
X92202000Y-121412000D03*
D16*
X92202000Y-113792000D03*
D15*
X111252000Y-110744000D03*
D16*
X111252000Y-103124000D03*
D15*
X115824000Y-126238000D03*
D16*
X115824000Y-133858000D03*
D12*
X132588000Y-61722000D03*
X135088000Y-61722000D03*
X137160000Y-79248000D03*
X134660000Y-79248000D03*
D11*
X126492000Y-75946000D03*
D17*
X126492000Y-68326000D03*
D11*
X130048000Y-68326000D03*
D17*
X130048000Y-75946000D03*
D20*
X137668000Y-74422000D03*
D21*
X137668000Y-71882000D03*
D24*
X124460000Y-50800000D03*
D25*
X124460000Y-53340000D03*
X124460000Y-55880000D03*
D15*
X123444000Y-68326000D03*
D16*
X123444000Y-75946000D03*
D15*
X133350000Y-75946000D03*
D16*
X133350000Y-68326000D03*
D15*
X138176000Y-69088000D03*
D16*
X138176000Y-61468000D03*
D24*
X128270000Y-55880000D03*
D25*
X128270000Y-53340000D03*
X128270000Y-50800000D03*
D15*
X131826000Y-65532000D03*
D16*
X124206000Y-65532000D03*
D12*
X108200000Y-102375000D03*
X103200000Y-102375000D03*
M02*
