M48
;DRILL file {KiCad 4.0.7} date 11/04/21 16:06:19
;FORMAT={-:-/ absolute / inch / decimal}
FMAT,2
INCH,TZ
T1C0.016
T2C0.031
T3C0.035
T4C0.039
T5C0.043
T6C0.047
T7C0.059
T8C0.060
%
G90
G05
M72
T1
X2.0209Y-4.5902
X2.0701Y-4.6169
X2.7685Y-4.1161
X2.776Y-4.1567
X3.322Y-4.1728
X3.3878Y-4.2134
X3.56Y-4.21
X3.6941Y-4.0823
X3.7181Y-4.1185
X4.02Y-2.91
X4.43Y-2.89
X4.53Y-2.89
X5.2437Y-5.2878
T2
X1.6394Y-4.9906
X1.689Y-5.1299
X1.6957Y-2.874
X1.7016Y-2.9894
X1.7024Y-3.4799
X1.7024Y-3.7799
X1.7055Y-4.4024
X1.7079Y-4.2701
X1.7874Y-5.1299
X1.7941Y-2.874
X1.8Y-2.9894
X1.8039Y-4.4024
X1.8063Y-4.2701
X1.8272Y-3.4815
X1.8272Y-3.7815
X1.9394Y-4.9906
X2.0012Y-2.8531
X2.05Y-2.4516
X2.05Y-2.55
X2.14Y-4.79
X2.15Y-3.25
X2.15Y-3.35
X2.15Y-3.45
X2.15Y-3.55
X2.15Y-3.65
X2.15Y-3.75
X2.15Y-3.85
X2.15Y-3.95
X2.15Y-4.05
X2.15Y-4.15
X2.15Y-4.25
X2.15Y-4.35
X2.15Y-4.45
X2.15Y-4.55
X2.1602Y-4.8906
X2.1602Y-5.1138
X2.1626Y-5.0016
X2.25Y-2.1
X2.3012Y-2.8531
X2.3484Y-2.1
X2.44Y-4.79
X2.45Y-3.25
X2.45Y-3.35
X2.45Y-3.45
X2.45Y-3.55
X2.45Y-3.65
X2.45Y-3.75
X2.45Y-3.85
X2.45Y-3.95
X2.45Y-4.05
X2.45Y-4.15
X2.45Y-4.25
X2.45Y-4.35
X2.45Y-4.45
X2.45Y-4.55
X2.4602Y-4.8906
X2.4602Y-5.1138
X2.4626Y-5.0016
X2.5409Y-1.9425
X2.55Y-2.1
X2.5921Y-4.7024
X2.5992Y-3.9398
X2.6161Y-4.0799
X2.6244Y-4.3031
X2.6484Y-2.1
X2.6524Y-4.4567
X2.6898Y-4.5831
X2.6976Y-3.9398
X2.6984Y-3.1382
X2.7Y-3.2669
X2.7083Y-2.4244
X2.7083Y-2.5244
X2.7083Y-2.6244
X2.7083Y-2.7244
X2.71Y-3.5479
X2.71Y-3.74
X2.7228Y-4.3031
X2.77Y-2.88
X2.8126Y-2.1886
X2.8216Y-3.01
X2.8409Y-1.9425
X2.89Y-3.4
X2.89Y-3.5969
X2.89Y-3.7231
X2.89Y-3.92
X2.8921Y-4.7024
X2.911Y-2.1886
X2.9161Y-4.0799
X2.92Y-3.01
X2.9224Y-4.2976
X2.9669Y-2.88
X2.9898Y-4.5831
X2.9984Y-3.1382
X3.Y-3.2669
X3.0067Y-5.1106
X3.0083Y-2.4244
X3.0083Y-2.5244
X3.0083Y-2.6244
X3.0083Y-2.7244
X3.0209Y-4.2976
X3.0524Y-4.4567
X3.08Y-2.9
X3.08Y-3.03
X3.1291Y-2.4575
X3.1291Y-2.5559
X3.13Y-4.59
X3.15Y-4.4488
X3.22Y-3.98
X3.22Y-4.1721
X3.2284Y-4.59
X3.24Y-2.1116
X3.24Y-2.21
X3.26Y-2.78
X3.2626Y-2.3681
X3.2626Y-2.6681
X3.3067Y-5.1106
X3.3584Y-2.78
X3.36Y-3.18
X3.3665Y-4.8059
X3.3709Y-4.6634
X3.38Y-2.9
X3.38Y-3.03
X3.3902Y-2.4705
X3.3902Y-2.6673
X3.3916Y-3.94
X3.45Y-4.4488
X3.49Y-3.94
X3.51Y-2.04
X3.51Y-2.44
X3.522Y-3.3614
X3.54Y-2.94
X3.57Y-2.5516
X3.57Y-2.65
X3.6201Y-4.3457
X3.6201Y-4.4441
X3.622Y-3.3614
X3.64Y-2.94
X3.722Y-3.3614
X3.74Y-2.5631
X3.74Y-2.76
X3.74Y-2.94
X3.75Y-2.04
X3.75Y-2.44
X3.76Y-3.18
X3.76Y-3.53
X3.76Y-3.83
X3.76Y-3.93
X3.76Y-4.23
X3.7665Y-4.8059
X3.7709Y-4.6634
X3.8024Y-1.6874
X3.8024Y-1.8843
X3.86Y-3.05
X3.87Y-3.7
X3.87Y-4.
X3.88Y-2.91
X3.88Y-5.18
X3.88Y-5.3769
X3.9Y-2.19
X3.9Y-2.32
X3.9Y-2.45
X3.9Y-2.58
X3.9Y-2.71
X3.93Y-3.42
X3.93Y-3.5184
X3.93Y-4.25
X3.93Y-4.55
X3.937Y-1.6929
X3.9584Y-3.05
X3.98Y-3.24
X3.9878Y-2.0319
X3.9917Y-3.6984
X3.9917Y-3.9984
X4.01Y-5.18
X4.01Y-5.3769
X4.08Y-3.24
X4.0831Y-3.06
X4.09Y-3.43
X4.09Y-3.56
X4.1075Y-4.4417
X4.1079Y-4.5594
X4.1079Y-4.7953
X4.1094Y-4.6768
X4.11Y-3.81
X4.11Y-3.93
X4.11Y-4.12
X4.11Y-4.22
X4.11Y-4.32
X4.18Y-3.24
X4.18Y-5.12
X4.18Y-5.42
X4.2Y-2.19
X4.2Y-2.32
X4.2Y-2.45
X4.2Y-2.58
X4.2Y-2.71
X4.28Y-2.91
X4.28Y-3.06
X4.29Y-5.15
X4.29Y-5.28
X4.2916Y-3.68
X4.2988Y-1.861
X4.3079Y-5.4075
X4.337Y-1.6929
X4.37Y-2.23
X4.38Y-2.42
X4.38Y-2.61
X4.38Y-2.8
X4.3878Y-2.0319
X4.39Y-3.11
X4.39Y-3.3069
X4.39Y-3.43
X4.39Y-3.56
X4.39Y-3.68
X4.4075Y-4.4417
X4.4079Y-4.5594
X4.4079Y-4.7953
X4.4094Y-4.6768
X4.41Y-3.81
X4.41Y-3.93
X4.41Y-4.12
X4.41Y-4.22
X4.41Y-4.32
X4.4685Y-1.6929
X4.47Y-2.23
X4.48Y-2.42
X4.48Y-2.61
X4.48Y-2.8
X4.4957Y-1.861
X4.5016Y-3.
X4.52Y-3.49
X4.52Y-3.79
X4.57Y-2.23
X4.57Y-4.3631
X4.57Y-4.56
X4.57Y-4.73
X4.57Y-5.03
X4.58Y-2.42
X4.58Y-2.61
X4.58Y-2.8
X4.59Y-5.15
X4.59Y-5.28
X4.6Y-3.
X4.6079Y-5.4075
X4.6472Y-1.8583
X4.67Y-4.12
X4.6949Y-3.6902
X4.6953Y-4.3748
X4.7035Y-4.5268
X4.7035Y-4.8268
X4.7071Y-4.9094
X4.7071Y-5.2094
X4.71Y-3.48
X4.7213Y-5.3878
X4.7323Y-2.9957
X4.7323Y-3.2957
X4.7416Y-3.96
X4.7457Y-1.8583
X4.7543Y-4.2472
X4.8197Y-5.3878
X4.8346Y-4.7445
X4.8346Y-5.0445
X4.84Y-3.96
X4.8528Y-4.2472
X4.8681Y-4.5039
X4.8681Y-4.6024
X4.8685Y-1.6929
X4.9021Y-3.48
X4.9346Y-4.7445
X4.9346Y-5.0445
X4.9642Y-1.6929
X4.97Y-4.12
X4.98Y-4.62
X4.9949Y-3.6902
X4.9953Y-4.3748
X5.0071Y-5.172
X5.0138Y-5.3516
X5.0346Y-4.7445
X5.0346Y-5.0445
X5.07Y-3.93
X5.07Y-4.23
X5.1Y-4.37
X5.1Y-4.5
X5.1055Y-5.172
X5.1122Y-5.3516
X5.1346Y-4.7445
X5.1346Y-5.0445
X5.14Y-3.16
X5.1524Y-2.5937
X5.1524Y-2.8937
X5.161Y-1.6929
X5.17Y-3.93
X5.17Y-4.23
X5.1769Y-4.62
X5.27Y-3.93
X5.27Y-4.23
X5.3216Y-2.97
X5.38Y-3.9
X5.38Y-4.2
X5.4Y-4.37
X5.4Y-4.5
X5.42Y-2.97
X5.43Y-2.62
X5.43Y-2.72
X5.43Y-2.82
X5.44Y-3.16
T3
X2.9449Y-1.9469
X3.0449Y-1.9469
X5.1726Y-2.13
X5.1726Y-2.23
T4
X2.1055Y-5.3724
X2.15Y-1.75
X2.2055Y-5.3724
X2.25Y-1.75
X2.3055Y-5.3724
X2.35Y-1.75
X2.4055Y-5.3724
X2.5055Y-5.3724
X2.6055Y-5.3724
X2.7055Y-5.3724
X2.8055Y-5.3724
X2.9055Y-5.3724
X3.0055Y-5.3724
X3.1055Y-5.3724
X3.2Y-3.47
X3.2Y-3.57
X3.2Y-3.67
X3.2055Y-5.3724
X3.3Y-3.47
X3.3Y-3.57
X3.3Y-3.67
X3.3055Y-5.3724
X3.4055Y-5.3724
X3.5055Y-4.9772
X3.5055Y-5.3724
X3.5937Y-3.7059
X3.5937Y-3.8059
X3.6055Y-4.9772
X3.6055Y-5.3724
X3.7055Y-4.9772
X3.8055Y-4.9772
X4.0228Y-1.8646
X4.06Y-4.99
X4.1228Y-1.8646
X4.16Y-4.99
X4.26Y-4.99
X4.55Y-3.14
X4.55Y-3.24
X4.55Y-3.34
X5.28Y-2.68
X5.28Y-2.78
T5
X1.6783Y-4.5315
X1.6783Y-4.7874
X1.6827Y-3.1126
X1.6827Y-3.3685
X1.6843Y-3.8866
X1.6843Y-4.1425
X1.7039Y-2.4925
X1.7039Y-2.7484
X1.8555Y-4.5315
X1.8555Y-4.7874
X1.8598Y-3.1126
X1.8598Y-3.3685
X1.8614Y-3.8866
X1.8614Y-4.1425
X1.8811Y-2.4925
X1.8811Y-2.7484
X2.1815Y-2.3209
X2.4815Y-2.3209
X2.9941Y-4.7228
X2.9941Y-4.9
X3.25Y-4.7228
X3.25Y-4.9
X4.73Y-2.85
X4.7304Y-2.0037
X4.7304Y-2.2037
X4.7304Y-2.4037
X4.7304Y-2.7037
X4.88Y-3.01
X5.0296Y-2.0037
X5.0296Y-2.2037
X5.0296Y-2.4037
X5.0296Y-2.7037
X5.03Y-2.85
X5.18Y-3.01
T6
X2.6555Y-4.9268
X2.7539Y-5.1252
X2.78Y-1.73
X2.8524Y-4.9268
X2.9769Y-1.73
X3.1737Y-1.73
X5.3551Y-4.626
X5.3551Y-4.8228
X5.3551Y-5.0197
T7
X5.11Y-3.35
X5.11Y-3.49
X5.11Y-3.63
X5.11Y-3.77
X5.41Y-3.35
X5.41Y-3.49
X5.41Y-3.63
X5.41Y-3.77
T8
X2.23Y-2.58
X2.43Y-2.58
X3.4201Y-1.7972
X3.6201Y-1.7972
X5.28Y-2.12
X5.28Y-2.32
T4
X1.7438Y-2.0806G85X1.7438Y-2.1594
G05
X1.8225Y-2.305G85X1.9013Y-2.305
G05
X1.98Y-2.0806G85X1.98Y-2.1594
G05
T0
M30
