G04 #@! TF.FileFunction,Copper,L2,Bot,Signal*
%FSLAX46Y46*%
G04 Gerber Fmt 4.6, Leading zero omitted, Abs format (unit mm)*
G04 Created by KiCad (PCBNEW 4.0.7) date 10/22/21 20:29:14*
%MOMM*%
%LPD*%
G01*
G04 APERTURE LIST*
%ADD10C,0.100000*%
%ADD11R,1.700000X1.700000*%
%ADD12O,1.700000X1.700000*%
%ADD13C,1.600000*%
%ADD14O,1.600000X1.600000*%
%ADD15R,3.000000X3.000000*%
%ADD16C,3.000000*%
%ADD17R,1.600000X1.600000*%
%ADD18R,2.200000X2.200000*%
%ADD19O,2.200000X2.200000*%
%ADD20R,1.800000X1.800000*%
%ADD21C,1.800000*%
%ADD22R,2.500000X2.500000*%
%ADD23O,2.500000X2.500000*%
%ADD24R,3.500000X3.500000*%
%ADD25C,1.520000*%
%ADD26R,1.520000X1.520000*%
%ADD27C,2.500000*%
%ADD28C,2.000000*%
%ADD29O,1.800000X1.800000*%
%ADD30C,1.500000*%
%ADD31C,0.600000*%
%ADD32C,0.350000*%
%ADD33C,0.500000*%
%ADD34C,0.250000*%
G04 APERTURE END LIST*
D10*
D11*
X124890000Y-84700000D03*
D12*
X122350000Y-84700000D03*
X119810000Y-84700000D03*
D13*
X126870000Y-93730000D03*
D14*
X119250000Y-93730000D03*
D13*
X111506000Y-123698000D03*
D14*
X119126000Y-123698000D03*
D13*
X138684000Y-71628000D03*
D14*
X125984000Y-71628000D03*
D15*
X135636000Y-51816000D03*
D16*
X135636000Y-56896000D03*
D17*
X126492000Y-109982000D03*
D14*
X118872000Y-117602000D03*
X123952000Y-109982000D03*
X121412000Y-117602000D03*
X121412000Y-109982000D03*
X123952000Y-117602000D03*
X118872000Y-109982000D03*
X126492000Y-117602000D03*
D13*
X82804000Y-70612000D03*
X85304000Y-70612000D03*
X66020000Y-100070000D03*
X68520000Y-100070000D03*
X79502000Y-116586000D03*
X82002000Y-116586000D03*
D17*
X57150000Y-53340000D03*
D13*
X59650000Y-53340000D03*
X104430000Y-122190000D03*
X104430000Y-127190000D03*
X101270000Y-122190000D03*
X101270000Y-127190000D03*
D17*
X64770000Y-53340000D03*
D13*
X67270000Y-53340000D03*
X132830000Y-112150000D03*
X135330000Y-112150000D03*
X73406000Y-99568000D03*
X73406000Y-94568000D03*
X73406000Y-86360000D03*
X73406000Y-91360000D03*
X45820000Y-111820000D03*
X43320000Y-111820000D03*
X45880000Y-108460000D03*
X43380000Y-108460000D03*
D17*
X99822000Y-86868000D03*
D13*
X99822000Y-89368000D03*
X111506000Y-93472000D03*
X109006000Y-93472000D03*
D17*
X71440000Y-55590000D03*
D13*
X73940000Y-55590000D03*
X45720000Y-75930000D03*
X43220000Y-75930000D03*
X45570000Y-73000000D03*
X43070000Y-73000000D03*
D17*
X84074000Y-55880000D03*
D13*
X84074000Y-53380000D03*
X90678000Y-67310000D03*
X90678000Y-64810000D03*
X110236000Y-78740000D03*
X105236000Y-78740000D03*
X114720000Y-81110000D03*
X114720000Y-86110000D03*
X121150000Y-81190000D03*
X118650000Y-81190000D03*
X129950000Y-118190000D03*
X129950000Y-120690000D03*
X102300000Y-53125000D03*
X102300000Y-50625000D03*
X99575000Y-42125000D03*
X99575000Y-47125000D03*
X105350000Y-50300000D03*
X110350000Y-50300000D03*
X108966000Y-133096000D03*
X108966000Y-130596000D03*
X116425000Y-49975000D03*
X121425000Y-49975000D03*
X68326000Y-109220000D03*
X70826000Y-109220000D03*
X76730000Y-109160000D03*
X74230000Y-109160000D03*
X74168000Y-76454000D03*
X71668000Y-76454000D03*
X116360000Y-110680000D03*
X111360000Y-110680000D03*
D18*
X55410000Y-58950000D03*
D19*
X63030000Y-58950000D03*
D17*
X73460000Y-119440000D03*
D14*
X65840000Y-119440000D03*
D20*
X77340000Y-49450000D03*
D21*
X74800000Y-49450000D03*
D22*
X129960000Y-89760000D03*
D23*
X137580000Y-89760000D03*
D22*
X130000000Y-86300000D03*
D23*
X137620000Y-86300000D03*
D22*
X129960000Y-82750000D03*
D23*
X137580000Y-82750000D03*
D22*
X130040000Y-93230000D03*
D23*
X137660000Y-93230000D03*
D17*
X106172000Y-136398000D03*
D14*
X98552000Y-136398000D03*
D17*
X98298000Y-132842000D03*
D14*
X105918000Y-132842000D03*
D15*
X61722000Y-65532000D03*
D16*
X56642000Y-65532000D03*
D24*
X50292000Y-53848000D03*
X44292000Y-53848000D03*
X47292000Y-58548000D03*
D11*
X96660000Y-126420000D03*
D12*
X94120000Y-126420000D03*
X91580000Y-126420000D03*
X89040000Y-126420000D03*
D15*
X134366000Y-107442000D03*
D16*
X134366000Y-102362000D03*
D15*
X87700000Y-45650000D03*
D16*
X92780000Y-45650000D03*
D13*
X95780000Y-118450000D03*
D14*
X85620000Y-118450000D03*
D13*
X95670000Y-122070000D03*
D14*
X85510000Y-122070000D03*
D13*
X95504000Y-80772000D03*
D14*
X85344000Y-80772000D03*
D13*
X92202000Y-51816000D03*
D14*
X92202000Y-61976000D03*
D13*
X108712000Y-73914000D03*
D14*
X98552000Y-73914000D03*
D13*
X97750000Y-62000000D03*
D14*
X97750000Y-51840000D03*
D13*
X103675000Y-44950000D03*
D14*
X113835000Y-44950000D03*
D13*
X119380000Y-44958000D03*
D14*
X129540000Y-44958000D03*
D13*
X77530000Y-113200000D03*
D14*
X67370000Y-113200000D03*
D25*
X92456000Y-74676000D03*
X94996000Y-74676000D03*
D26*
X89916000Y-74676000D03*
D25*
X107188000Y-82804000D03*
X104648000Y-82804000D03*
D26*
X109728000Y-82804000D03*
D25*
X117750000Y-56540000D03*
X120290000Y-56540000D03*
D26*
X115210000Y-56540000D03*
D25*
X92000000Y-85380000D03*
X94540000Y-85380000D03*
D26*
X89460000Y-85380000D03*
D27*
X75612000Y-43942000D03*
X80612000Y-43942000D03*
X70612000Y-43942000D03*
D28*
X82550000Y-119960000D03*
X82550000Y-124460000D03*
X76050000Y-119960000D03*
X76050000Y-124460000D03*
X42630000Y-115100000D03*
X47130000Y-115100000D03*
X42630000Y-121600000D03*
X47130000Y-121600000D03*
X42740000Y-79060000D03*
X47240000Y-79060000D03*
X42740000Y-85560000D03*
X47240000Y-85560000D03*
X43280000Y-63310000D03*
X47780000Y-63310000D03*
X43280000Y-69810000D03*
X47780000Y-69810000D03*
X42780000Y-98720000D03*
X47280000Y-98720000D03*
X42780000Y-105220000D03*
X47280000Y-105220000D03*
D20*
X54610000Y-44450000D03*
D29*
X57150000Y-44450000D03*
X59690000Y-44450000D03*
D30*
X68834000Y-94996000D03*
X68834000Y-90116000D03*
X119630000Y-89150000D03*
X124510000Y-89150000D03*
D17*
X62230000Y-115570000D03*
D14*
X54610000Y-82550000D03*
X62230000Y-113030000D03*
X54610000Y-85090000D03*
X62230000Y-110490000D03*
X54610000Y-87630000D03*
X62230000Y-107950000D03*
X54610000Y-90170000D03*
X62230000Y-105410000D03*
X54610000Y-92710000D03*
X62230000Y-102870000D03*
X54610000Y-95250000D03*
X62230000Y-100330000D03*
X54610000Y-97790000D03*
X62230000Y-97790000D03*
X54610000Y-100330000D03*
X62230000Y-95250000D03*
X54610000Y-102870000D03*
X62230000Y-92710000D03*
X54610000Y-105410000D03*
X62230000Y-90170000D03*
X54610000Y-107950000D03*
X62230000Y-87630000D03*
X54610000Y-110490000D03*
X62230000Y-85090000D03*
X54610000Y-113030000D03*
X62230000Y-82550000D03*
X54610000Y-115570000D03*
D11*
X83820000Y-93218000D03*
D12*
X81280000Y-93218000D03*
X83820000Y-90678000D03*
X81280000Y-90678000D03*
X83820000Y-88138000D03*
X81280000Y-88138000D03*
D13*
X80010000Y-65024000D03*
X80010000Y-62524000D03*
D17*
X68790000Y-61580000D03*
D14*
X76410000Y-69200000D03*
X68790000Y-64120000D03*
X76410000Y-66660000D03*
X68790000Y-66660000D03*
X76410000Y-64120000D03*
X68790000Y-69200000D03*
X76410000Y-61580000D03*
D13*
X98298000Y-67310000D03*
X93298000Y-67310000D03*
X98806000Y-82296000D03*
X101306000Y-82296000D03*
D27*
X135220000Y-122350000D03*
X135220000Y-127350000D03*
X135220000Y-117350000D03*
D13*
X126746000Y-59436000D03*
X124246000Y-59436000D03*
X123190000Y-72898000D03*
X123190000Y-75398000D03*
D17*
X134366000Y-75184000D03*
D14*
X126746000Y-75184000D03*
D17*
X123444000Y-62484000D03*
D14*
X123444000Y-70104000D03*
D20*
X137922000Y-75184000D03*
D21*
X137922000Y-77724000D03*
D11*
X124460000Y-50800000D03*
D12*
X124460000Y-53340000D03*
X124460000Y-55880000D03*
D11*
X128270000Y-55880000D03*
D12*
X128270000Y-53340000D03*
X128270000Y-50800000D03*
D13*
X70358000Y-73152000D03*
X75358000Y-73152000D03*
D25*
X116840000Y-71628000D03*
X119380000Y-71628000D03*
D26*
X114300000Y-71628000D03*
D25*
X117260000Y-66450000D03*
X119800000Y-66450000D03*
D26*
X114720000Y-66450000D03*
D25*
X117340000Y-61460000D03*
X119880000Y-61460000D03*
D26*
X114800000Y-61460000D03*
D13*
X85344000Y-61976000D03*
X85344000Y-66976000D03*
D17*
X91950000Y-112880000D03*
D13*
X91950000Y-110380000D03*
D27*
X69950000Y-130180000D03*
X67450000Y-125140000D03*
X72450000Y-125140000D03*
D11*
X53480000Y-136460000D03*
D12*
X56020000Y-136460000D03*
X58560000Y-136460000D03*
X61100000Y-136460000D03*
X63640000Y-136460000D03*
X66180000Y-136460000D03*
X68720000Y-136460000D03*
X71260000Y-136460000D03*
X73800000Y-136460000D03*
X76340000Y-136460000D03*
X78880000Y-136460000D03*
X81420000Y-136460000D03*
X83960000Y-136460000D03*
X86500000Y-136460000D03*
X89040000Y-136460000D03*
X91580000Y-136460000D03*
D13*
X42900000Y-130300000D03*
X45400000Y-130300000D03*
D11*
X91280000Y-94130000D03*
D12*
X91280000Y-96670000D03*
D13*
X75940000Y-116410000D03*
D14*
X68320000Y-116410000D03*
D13*
X83990000Y-129810000D03*
D14*
X76370000Y-129810000D03*
D13*
X54930000Y-127040000D03*
D14*
X62550000Y-127040000D03*
D13*
X64540000Y-49340000D03*
D14*
X72160000Y-49340000D03*
D13*
X108712000Y-127508000D03*
D14*
X108712000Y-119888000D03*
D13*
X49260000Y-126760000D03*
D14*
X41640000Y-126760000D03*
D13*
X76160000Y-79710000D03*
D14*
X68540000Y-79710000D03*
D13*
X87630000Y-113000000D03*
D14*
X80010000Y-113000000D03*
D13*
X100360000Y-109310000D03*
D14*
X100360000Y-116930000D03*
D13*
X78232000Y-73660000D03*
D14*
X85852000Y-73660000D03*
D13*
X43240000Y-88390000D03*
D14*
X43240000Y-96010000D03*
D13*
X50830000Y-72470000D03*
D14*
X58450000Y-72470000D03*
D13*
X103630000Y-116970000D03*
D14*
X103630000Y-109350000D03*
D13*
X103886000Y-87122000D03*
D14*
X111506000Y-87122000D03*
D13*
X103886000Y-90424000D03*
D14*
X111506000Y-90424000D03*
D13*
X114808000Y-96266000D03*
D14*
X114808000Y-88646000D03*
D13*
X119126000Y-121158000D03*
D14*
X111506000Y-121158000D03*
D13*
X103124000Y-56642000D03*
D14*
X110744000Y-56642000D03*
D13*
X120650000Y-77470000D03*
D14*
X113030000Y-77470000D03*
D13*
X97536000Y-70358000D03*
D14*
X89916000Y-70358000D03*
D13*
X119634000Y-102362000D03*
D14*
X127254000Y-102362000D03*
D13*
X108712000Y-136652000D03*
D14*
X116332000Y-136652000D03*
D13*
X119634000Y-105918000D03*
D14*
X127254000Y-105918000D03*
D13*
X106426000Y-117094000D03*
D14*
X114046000Y-117094000D03*
D13*
X98552000Y-129794000D03*
D14*
X106172000Y-129794000D03*
D13*
X54870000Y-129890000D03*
D14*
X62490000Y-129890000D03*
D13*
X76200000Y-82980000D03*
D14*
X68580000Y-82980000D03*
D13*
X66450000Y-103630000D03*
D14*
X74070000Y-103630000D03*
D13*
X114046000Y-114046000D03*
D14*
X106426000Y-114046000D03*
D13*
X46410000Y-96050000D03*
D14*
X46410000Y-88430000D03*
D13*
X85852000Y-76962000D03*
D14*
X78232000Y-76962000D03*
D13*
X105840000Y-106340000D03*
D14*
X113460000Y-106340000D03*
D13*
X113380000Y-126570000D03*
D14*
X113380000Y-134190000D03*
D13*
X134366000Y-78232000D03*
D14*
X126746000Y-78232000D03*
D13*
X110744000Y-59690000D03*
D14*
X103124000Y-59690000D03*
D13*
X110744000Y-68326000D03*
D14*
X103124000Y-68326000D03*
D13*
X110744000Y-65532000D03*
D14*
X103124000Y-65532000D03*
D13*
X110744000Y-62484000D03*
D14*
X103124000Y-62484000D03*
D13*
X54356000Y-121666000D03*
D14*
X61976000Y-121666000D03*
D13*
X54870000Y-124220000D03*
D14*
X62490000Y-124220000D03*
D13*
X105880000Y-103020000D03*
D14*
X113500000Y-103020000D03*
D17*
X117100000Y-131940000D03*
D13*
X119600000Y-131940000D03*
X125984000Y-67564000D03*
D14*
X138684000Y-67564000D03*
D13*
X138684000Y-63246000D03*
D14*
X125984000Y-63246000D03*
D13*
X52070000Y-64770000D03*
X52070000Y-62270000D03*
D11*
X113375000Y-51575000D03*
D12*
X113375000Y-49035000D03*
D13*
X116332000Y-104648000D03*
X116332000Y-102148000D03*
X98190000Y-78520000D03*
X100690000Y-78520000D03*
X118618000Y-127254000D03*
X121118000Y-127254000D03*
X88646000Y-100076000D03*
X86146000Y-100076000D03*
D17*
X95504000Y-97282000D03*
D14*
X95504000Y-89662000D03*
D17*
X98298000Y-101600000D03*
D14*
X98298000Y-93980000D03*
D13*
X95504000Y-107442000D03*
D14*
X95504000Y-99822000D03*
D13*
X101346000Y-105664000D03*
D14*
X101346000Y-98044000D03*
D13*
X112014000Y-96520000D03*
D14*
X104394000Y-96520000D03*
D13*
X132588000Y-97282000D03*
D14*
X124968000Y-97282000D03*
D30*
X81788000Y-101092000D03*
X81788000Y-105972000D03*
D31*
X51330000Y-116590000D03*
X52580000Y-117270000D03*
X86050000Y-107020000D03*
X70510000Y-105580000D03*
X89662000Y-107950000D03*
X70320000Y-104550000D03*
X84380000Y-105990000D03*
X90424000Y-106934000D03*
X93980000Y-104140000D03*
D32*
X73820000Y-97230000D02*
X73260000Y-97230000D01*
X67290000Y-98800000D02*
X66020000Y-100070000D01*
X71690000Y-98800000D02*
X67290000Y-98800000D01*
X73260000Y-97230000D02*
X71690000Y-98800000D01*
X66020000Y-100070000D02*
X62490000Y-100070000D01*
X62490000Y-100070000D02*
X62230000Y-100330000D01*
X91280000Y-96670000D02*
X86100000Y-96670000D01*
X86100000Y-96670000D02*
X85540000Y-97230000D01*
X85540000Y-97230000D02*
X73820000Y-97230000D01*
X73820000Y-97230000D02*
X73310000Y-97230000D01*
X95504000Y-89662000D02*
X93980000Y-89662000D01*
X93980000Y-89662000D02*
X93350000Y-90292000D01*
X58450000Y-72470000D02*
X64088000Y-72470000D01*
X64088000Y-72470000D02*
X74260000Y-82642000D01*
X75940000Y-116410000D02*
X75940000Y-116930000D01*
X75940000Y-116930000D02*
X77200000Y-118190000D01*
X88790000Y-124220000D02*
X85955000Y-127055000D01*
X88790000Y-118360000D02*
X88790000Y-124220000D01*
X87360000Y-116930000D02*
X88790000Y-118360000D01*
X84290000Y-116930000D02*
X87360000Y-116930000D01*
X83030000Y-118190000D02*
X84290000Y-116930000D01*
X77200000Y-118190000D02*
X83030000Y-118190000D01*
X59740000Y-139110000D02*
X58670000Y-139110000D01*
X58670000Y-139110000D02*
X56020000Y-136460000D01*
X96520000Y-137520000D02*
X96520000Y-137760000D01*
X95170000Y-139110000D02*
X59740000Y-139110000D01*
X96520000Y-137760000D02*
X95170000Y-139110000D01*
X42900000Y-130300000D02*
X42900000Y-131520000D01*
X42900000Y-131520000D02*
X44010000Y-132630000D01*
X44010000Y-132630000D02*
X52190000Y-132630000D01*
X52190000Y-132630000D02*
X56020000Y-136460000D01*
X76370000Y-129810000D02*
X76370000Y-127810000D01*
X88090000Y-129190000D02*
X90320000Y-129190000D01*
X85430000Y-126530000D02*
X85955000Y-127055000D01*
X85955000Y-127055000D02*
X88090000Y-129190000D01*
X77650000Y-126530000D02*
X85430000Y-126530000D01*
X76370000Y-127810000D02*
X77650000Y-126530000D01*
X76370000Y-129810000D02*
X75560000Y-129810000D01*
X69680000Y-127370000D02*
X67450000Y-125140000D01*
X73120000Y-127370000D02*
X69680000Y-127370000D01*
X75560000Y-129810000D02*
X73120000Y-127370000D01*
X75940000Y-116410000D02*
X73380000Y-119360000D01*
X91280000Y-96670000D02*
X92760000Y-96670000D01*
X92760000Y-96670000D02*
X93350000Y-96080000D01*
X93350000Y-96080000D02*
X93350000Y-90292000D01*
X93350000Y-90292000D02*
X93350000Y-89710000D01*
X93350000Y-89710000D02*
X92210000Y-88570000D01*
X92210000Y-88570000D02*
X89580000Y-88570000D01*
X89580000Y-88570000D02*
X86280000Y-85270000D01*
X86280000Y-85270000D02*
X76220000Y-85270000D01*
X76220000Y-85270000D02*
X74260000Y-83310000D01*
X74260000Y-83310000D02*
X74260000Y-82642000D01*
X126492000Y-117602000D02*
X129362000Y-117602000D01*
X129362000Y-117602000D02*
X129950000Y-118190000D01*
X66020000Y-100070000D02*
X66020000Y-99782000D01*
X54610000Y-70580000D02*
X51784000Y-70580000D01*
X49784000Y-62738000D02*
X48406000Y-61360000D01*
X49784000Y-68580000D02*
X49784000Y-62738000D01*
X51784000Y-70580000D02*
X49784000Y-68580000D01*
X126180000Y-117914000D02*
X126492000Y-117602000D01*
X130302000Y-109230000D02*
X130302000Y-102758000D01*
X138684000Y-102494000D02*
X138684000Y-107950000D01*
X136200000Y-100010000D02*
X138684000Y-102494000D01*
X133050000Y-100010000D02*
X136200000Y-100010000D01*
X130302000Y-102758000D02*
X133050000Y-100010000D01*
X138684000Y-129140000D02*
X138684000Y-130926000D01*
X131064000Y-139192000D02*
X129794000Y-139192000D01*
X131978000Y-139192000D02*
X131064000Y-139192000D01*
X133040000Y-138130000D02*
X131978000Y-139192000D01*
X133040000Y-134000000D02*
X133040000Y-138130000D01*
X135120000Y-131920000D02*
X133040000Y-134000000D01*
X137690000Y-131920000D02*
X135120000Y-131920000D01*
X138684000Y-130926000D02*
X137690000Y-131920000D01*
X41070000Y-97860000D02*
X41070000Y-62820000D01*
X41070000Y-62820000D02*
X42530000Y-61360000D01*
X42530000Y-61360000D02*
X48406000Y-61360000D01*
X58950000Y-70580000D02*
X58950000Y-70612000D01*
X54610000Y-70580000D02*
X58950000Y-70580000D01*
X41640000Y-126760000D02*
X41640000Y-126450000D01*
X41640000Y-126450000D02*
X41070000Y-125880000D01*
X41070000Y-97860000D02*
X42920000Y-96010000D01*
X41070000Y-125880000D02*
X41070000Y-97860000D01*
X42920000Y-96010000D02*
X43240000Y-96010000D01*
X42900000Y-130300000D02*
X42900000Y-128020000D01*
X42900000Y-128020000D02*
X41640000Y-126760000D01*
X46410000Y-88430000D02*
X46410000Y-89830000D01*
X43240000Y-93000000D02*
X43240000Y-96010000D01*
X46410000Y-89830000D02*
X43240000Y-93000000D01*
X58450000Y-72470000D02*
X58450000Y-70612000D01*
X58450000Y-70612000D02*
X58450000Y-70660000D01*
X58450000Y-70660000D02*
X58450000Y-70612000D01*
X109080000Y-139192000D02*
X109558000Y-139192000D01*
X110840000Y-124364000D02*
X111506000Y-123698000D01*
X110840000Y-137910000D02*
X110840000Y-124364000D01*
X109558000Y-139192000D02*
X110840000Y-137910000D01*
X58450000Y-70612000D02*
X58950000Y-70612000D01*
X58950000Y-70612000D02*
X63754000Y-70612000D01*
X63754000Y-70612000D02*
X64363000Y-70003000D01*
X64363000Y-70003000D02*
X64770000Y-69596000D01*
X64770000Y-61214000D02*
X64770000Y-53340000D01*
X64770000Y-61214000D02*
X64770000Y-69596000D01*
X41640000Y-126760000D02*
X41640000Y-126506000D01*
X41640000Y-126760000D02*
X41640000Y-126252000D01*
X41640000Y-126760000D02*
X41386000Y-126760000D01*
X65110000Y-53680000D02*
X64770000Y-53340000D01*
X64540000Y-49340000D02*
X62580000Y-49340000D01*
X62580000Y-49340000D02*
X61595000Y-48355000D01*
X92240000Y-130048000D02*
X91178000Y-130048000D01*
X95250000Y-130048000D02*
X96520000Y-131318000D01*
X96520000Y-131318000D02*
X96520000Y-137520000D01*
X92240000Y-130048000D02*
X95250000Y-130048000D01*
X91178000Y-130048000D02*
X90320000Y-129190000D01*
X90320000Y-129190000D02*
X90310000Y-129180000D01*
X90310000Y-129180000D02*
X90280000Y-129150000D01*
X108712000Y-127508000D02*
X108725000Y-125150000D01*
X108725000Y-125150000D02*
X110236000Y-123698000D01*
X110236000Y-123698000D02*
X111506000Y-123698000D01*
X138684000Y-122936000D02*
X138684000Y-107950000D01*
X130302000Y-113792000D02*
X126492000Y-117602000D01*
X130302000Y-109230000D02*
X130302000Y-113792000D01*
X126746000Y-117856000D02*
X126492000Y-117602000D01*
X54610000Y-95250000D02*
X55780000Y-95250000D01*
X60860000Y-100330000D02*
X62230000Y-100330000D01*
X55780000Y-95250000D02*
X60860000Y-100330000D01*
D33*
X64770000Y-53340000D02*
X63500000Y-53340000D01*
X61595000Y-51435000D02*
X63500000Y-53340000D01*
X61595000Y-48355000D02*
X61595000Y-51435000D01*
X61595000Y-46990000D02*
X61595000Y-48355000D01*
X59690000Y-45085000D02*
X61595000Y-46990000D01*
X59690000Y-44450000D02*
X59690000Y-45085000D01*
D32*
X56020000Y-136460000D02*
X55980000Y-136460000D01*
X56170000Y-136460000D02*
X56020000Y-136460000D01*
X96520000Y-137520000D02*
X96520000Y-137668000D01*
X96520000Y-137668000D02*
X97012000Y-138160000D01*
X138684000Y-129140000D02*
X138684000Y-122936000D01*
X97012000Y-138160000D02*
X103870000Y-138160000D01*
X104902000Y-139192000D02*
X109080000Y-139192000D01*
X109080000Y-139192000D02*
X110490000Y-139192000D01*
X116840000Y-139192000D02*
X129794000Y-139192000D01*
X114808000Y-139192000D02*
X116840000Y-139192000D01*
X110490000Y-139192000D02*
X114808000Y-139192000D01*
X103870000Y-138160000D02*
X104902000Y-139192000D01*
X129794000Y-139192000D02*
X130048000Y-139192000D01*
X75940000Y-116410000D02*
X75940000Y-116084000D01*
X73380000Y-119360000D02*
X73460000Y-119440000D01*
X79502000Y-116586000D02*
X79502000Y-116242000D01*
X79502000Y-116242000D02*
X77950000Y-114690000D01*
X77950000Y-114690000D02*
X70040000Y-114690000D01*
X70040000Y-114690000D02*
X68320000Y-116410000D01*
X62300000Y-109230000D02*
X60280000Y-109230000D01*
X53900000Y-106680000D02*
X52890000Y-105670000D01*
X57730000Y-106680000D02*
X53900000Y-106680000D01*
X60280000Y-109230000D02*
X57730000Y-106680000D01*
X76050000Y-119960000D02*
X76050000Y-120546000D01*
X76050000Y-120546000D02*
X75184000Y-121412000D01*
X82550000Y-119960000D02*
X82550000Y-120904000D01*
X82550000Y-120904000D02*
X82042000Y-121412000D01*
X67812000Y-121412000D02*
X65840000Y-119440000D01*
X82042000Y-121412000D02*
X75184000Y-121412000D01*
X75184000Y-121412000D02*
X67812000Y-121412000D01*
X79502000Y-119960000D02*
X79502000Y-119888000D01*
X79502000Y-119888000D02*
X79502000Y-119960000D01*
X82550000Y-119960000D02*
X79502000Y-119960000D01*
X79502000Y-119960000D02*
X76050000Y-119960000D01*
X75946000Y-119856000D02*
X76050000Y-119960000D01*
X62230000Y-115570000D02*
X67480000Y-115570000D01*
X67480000Y-115570000D02*
X68320000Y-116410000D01*
X65840000Y-119440000D02*
X68400000Y-116490000D01*
X68400000Y-116490000D02*
X68320000Y-116410000D01*
X63780000Y-115570000D02*
X64260000Y-115090000D01*
X64260000Y-115090000D02*
X64260000Y-110440000D01*
X64260000Y-110440000D02*
X63050000Y-109230000D01*
X63050000Y-109230000D02*
X62300000Y-109230000D01*
X62230000Y-115570000D02*
X63780000Y-115570000D01*
X52890000Y-94650000D02*
X53360000Y-93960000D01*
X52890000Y-105670000D02*
X52890000Y-94650000D01*
X60640000Y-96520000D02*
X63230000Y-96520000D01*
X53360000Y-93960000D02*
X58080000Y-93960000D01*
X58080000Y-93960000D02*
X60640000Y-96520000D01*
X72578000Y-96520000D02*
X83698000Y-96520000D01*
X86198000Y-94560000D02*
X86198000Y-89766000D01*
X83820000Y-88138000D02*
X86198000Y-89766000D01*
X85078000Y-96520000D02*
X86188000Y-95410000D01*
X86188000Y-95410000D02*
X86188000Y-94560000D01*
X86188000Y-94560000D02*
X86198000Y-94560000D01*
X83698000Y-96520000D02*
X85078000Y-96520000D01*
X70938000Y-98160000D02*
X72578000Y-96520000D01*
X64870000Y-98160000D02*
X70938000Y-98160000D01*
X63230000Y-96520000D02*
X64870000Y-98160000D01*
X82002000Y-116586000D02*
X82294000Y-116586000D01*
X82294000Y-116586000D02*
X82900000Y-116240000D01*
X90260000Y-125200000D02*
X89040000Y-126420000D01*
X90260000Y-117730000D02*
X90260000Y-125200000D01*
X88350000Y-116240000D02*
X90260000Y-117730000D01*
X82900000Y-116240000D02*
X88350000Y-116240000D01*
X82316000Y-116900000D02*
X82002000Y-116586000D01*
D33*
X52070000Y-62270000D02*
X53380000Y-62270000D01*
X53380000Y-62270000D02*
X56642000Y-65532000D01*
X50292000Y-53848000D02*
X50292000Y-55118000D01*
X50292000Y-55118000D02*
X52070000Y-56896000D01*
X52070000Y-56896000D02*
X52070000Y-62270000D01*
X54610000Y-44450000D02*
X54610000Y-45974000D01*
X55586000Y-46950000D02*
X55586000Y-48514000D01*
X54610000Y-45974000D02*
X55586000Y-46950000D01*
X55586000Y-48514000D02*
X55586000Y-49490000D01*
X55586000Y-49490000D02*
X57150000Y-51054000D01*
X57150000Y-51054000D02*
X57150000Y-53340000D01*
X57150000Y-53340000D02*
X50800000Y-53340000D01*
X50800000Y-53340000D02*
X50292000Y-53848000D01*
X80010000Y-65024000D02*
X81280000Y-65024000D01*
X81534000Y-60452000D02*
X79248000Y-58166000D01*
X81534000Y-64770000D02*
X81534000Y-60452000D01*
X81280000Y-65024000D02*
X81534000Y-64770000D01*
X55410000Y-58950000D02*
X55410000Y-64300000D01*
X55410000Y-64300000D02*
X56642000Y-65532000D01*
X57150000Y-53340000D02*
X57150000Y-57210000D01*
X57150000Y-57210000D02*
X55410000Y-58950000D01*
X54610000Y-42164000D02*
X54610000Y-44450000D01*
X80010000Y-65024000D02*
X80518000Y-65024000D01*
X80010000Y-65024000D02*
X80010000Y-66040000D01*
X79390000Y-66660000D02*
X76410000Y-66660000D01*
X80010000Y-66040000D02*
X79390000Y-66660000D01*
X76410000Y-66660000D02*
X76918000Y-66660000D01*
X79248000Y-47498000D02*
X78232000Y-46482000D01*
X79248000Y-58166000D02*
X79248000Y-47498000D01*
X55880000Y-40894000D02*
X54610000Y-42164000D01*
X78232000Y-46482000D02*
X78232000Y-40925000D01*
X83566000Y-40925000D02*
X78232000Y-40925000D01*
X93500000Y-40925000D02*
X83566000Y-40925000D01*
X78232000Y-40925000D02*
X77724000Y-40925000D01*
X75894000Y-40894000D02*
X55880000Y-40894000D01*
X75925000Y-40925000D02*
X75894000Y-40894000D01*
X77724000Y-40925000D02*
X75925000Y-40925000D01*
X95625000Y-43050000D02*
X93500000Y-40925000D01*
X95625000Y-49784000D02*
X95625000Y-50171000D01*
X95625000Y-50171000D02*
X93980000Y-51816000D01*
X95625000Y-50075000D02*
X95625000Y-49784000D01*
X95625000Y-49784000D02*
X95625000Y-43050000D01*
X93980000Y-51816000D02*
X92202000Y-51816000D01*
X92202000Y-51816000D02*
X92202000Y-51391000D01*
D32*
X91580000Y-126420000D02*
X91580000Y-122650000D01*
X91580000Y-122650000D02*
X95780000Y-118450000D01*
X95780000Y-118450000D02*
X96050000Y-118450000D01*
X96050000Y-118450000D02*
X97810000Y-120210000D01*
X102840000Y-120210000D02*
X104430000Y-121800000D01*
X97810000Y-120210000D02*
X102840000Y-120210000D01*
X104430000Y-121800000D02*
X104430000Y-122190000D01*
X95780000Y-118450000D02*
X96180000Y-118450000D01*
X104430000Y-121520000D02*
X104430000Y-122190000D01*
X95780000Y-118450000D02*
X95780000Y-118750000D01*
X94120000Y-126420000D02*
X94120000Y-123620000D01*
X94120000Y-123620000D02*
X95670000Y-122070000D01*
X101270000Y-122190000D02*
X95790000Y-122190000D01*
X95790000Y-122190000D02*
X95670000Y-122070000D01*
X71090000Y-107280000D02*
X69550000Y-107280000D01*
X68130000Y-103140000D02*
X67160002Y-102170002D01*
X68130000Y-105860000D02*
X68130000Y-103140000D01*
X69550000Y-107280000D02*
X68130000Y-105860000D01*
X62929998Y-102170002D02*
X62230000Y-102870000D01*
X67160002Y-102170002D02*
X62929998Y-102170002D01*
X101720000Y-118830000D02*
X99650000Y-118830000D01*
X99650000Y-118830000D02*
X96870000Y-116050000D01*
X71090000Y-107280000D02*
X72590000Y-108780000D01*
X72590000Y-108780000D02*
X72590000Y-109830000D01*
X72590000Y-109830000D02*
X73359998Y-110599998D01*
X73359998Y-110599998D02*
X82599998Y-110599998D01*
X82599998Y-110599998D02*
X84690000Y-112690000D01*
X84690000Y-112690000D02*
X84690000Y-113570000D01*
X84690000Y-113570000D02*
X85990000Y-114870000D01*
X85990000Y-114870000D02*
X90980000Y-114870000D01*
X90980000Y-114870000D02*
X92160000Y-116050000D01*
X92160000Y-116050000D02*
X96870000Y-116050000D01*
X106098000Y-119888000D02*
X108712000Y-119888000D01*
X105040000Y-118830000D02*
X106098000Y-119888000D01*
X101720000Y-118830000D02*
X105040000Y-118830000D01*
X108712000Y-119888000D02*
X108458000Y-119888000D01*
X108699000Y-119875000D02*
X108712000Y-119888000D01*
X135330000Y-112150000D02*
X135342000Y-108418000D01*
X135342000Y-108418000D02*
X134366000Y-107442000D01*
X138133998Y-113030000D02*
X138133998Y-111209998D01*
X138133998Y-111209998D02*
X134366000Y-107442000D01*
X138133998Y-123100000D02*
X138133998Y-113030000D01*
X138133998Y-125960000D02*
X138133998Y-123100000D01*
X129760000Y-138176000D02*
X132004000Y-138176000D01*
X138133998Y-130676002D02*
X138133998Y-125960000D01*
X137440002Y-131369998D02*
X138133998Y-130676002D01*
X134840002Y-131369998D02*
X137440002Y-131369998D01*
X132489998Y-133720002D02*
X134840002Y-131369998D01*
X132489998Y-137690002D02*
X132489998Y-133720002D01*
X132004000Y-138176000D02*
X132489998Y-137690002D01*
X115700000Y-138176000D02*
X113026000Y-138176000D01*
X111450000Y-125730000D02*
X113284000Y-123896000D01*
X111450000Y-136600000D02*
X111450000Y-125730000D01*
X113026000Y-138176000D02*
X111450000Y-136600000D01*
X119888000Y-138176000D02*
X115700000Y-138176000D01*
X113284000Y-120904000D02*
X112274000Y-119640000D01*
X113284000Y-123896000D02*
X113284000Y-120904000D01*
X127254000Y-138176000D02*
X129760000Y-138176000D01*
X109280000Y-119640000D02*
X108712000Y-119888000D01*
X112274000Y-119640000D02*
X109280000Y-119640000D01*
X119888000Y-138176000D02*
X127254000Y-138176000D01*
X68834000Y-94996000D02*
X67310000Y-94996000D01*
X67056000Y-95250000D02*
X62230000Y-95250000D01*
X67310000Y-94996000D02*
X67056000Y-95250000D01*
X68834000Y-94996000D02*
X68834000Y-95250000D01*
X69516000Y-94568000D02*
X73406000Y-94568000D01*
X68834000Y-95250000D02*
X69516000Y-94568000D01*
X68834000Y-90116000D02*
X68834000Y-90424000D01*
X68834000Y-90424000D02*
X66548000Y-92710000D01*
X66548000Y-92710000D02*
X62230000Y-92710000D01*
X68834000Y-90116000D02*
X72162000Y-90116000D01*
X72162000Y-90116000D02*
X73406000Y-91360000D01*
X68834000Y-90116000D02*
X68834000Y-89916000D01*
X68834000Y-89916000D02*
X69168000Y-89582000D01*
X73178000Y-91132000D02*
X73406000Y-91360000D01*
X54930000Y-127040000D02*
X54930000Y-126300000D01*
X54930000Y-126300000D02*
X49023988Y-120393988D01*
X49023988Y-120393988D02*
X49023988Y-106963988D01*
X49023988Y-106963988D02*
X47280000Y-105220000D01*
X47280000Y-105220000D02*
X46380000Y-105220000D01*
X46380000Y-105220000D02*
X43380000Y-108460000D01*
X46410000Y-96050000D02*
X46410000Y-96170000D01*
X46410000Y-96170000D02*
X47498000Y-97258000D01*
X47498000Y-97258000D02*
X47280000Y-98720000D01*
X47280000Y-98720000D02*
X47280000Y-105220000D01*
X47280000Y-105220000D02*
X47280000Y-105832000D01*
X99822000Y-86868000D02*
X99822000Y-86614000D01*
X99822000Y-86614000D02*
X97028000Y-83820000D01*
X97028000Y-82296000D02*
X95504000Y-80772000D01*
X97028000Y-83820000D02*
X97028000Y-82296000D01*
X99822000Y-86868000D02*
X100076000Y-86868000D01*
X100076000Y-86868000D02*
X102108000Y-88900000D01*
X102108000Y-88900000D02*
X106934000Y-88900000D01*
X106934000Y-88900000D02*
X111506000Y-93472000D01*
X111506000Y-93472000D02*
X110872000Y-93472000D01*
D33*
X111506000Y-93472000D02*
X118992000Y-93472000D01*
X118992000Y-93472000D02*
X119250000Y-93730000D01*
D32*
X91950000Y-112880000D02*
X96310000Y-112880000D01*
X96310000Y-112880000D02*
X100360000Y-116930000D01*
X91950000Y-112880000D02*
X87750000Y-112880000D01*
X87750000Y-112880000D02*
X87630000Y-113000000D01*
X91920000Y-112850000D02*
X91950000Y-112880000D01*
X87630000Y-113000000D02*
X87580000Y-113080000D01*
D33*
X71440000Y-55590000D02*
X71440000Y-58930000D01*
X71440000Y-58930000D02*
X68790000Y-61580000D01*
D32*
X69552000Y-61580000D02*
X68790000Y-61580000D01*
D33*
X73940000Y-55590000D02*
X73940000Y-59110000D01*
X73940000Y-59110000D02*
X76410000Y-61580000D01*
X82804000Y-70612000D02*
X82804000Y-57150000D01*
X82804000Y-57150000D02*
X84074000Y-55880000D01*
X82804000Y-70612000D02*
X82804000Y-69850000D01*
X82804000Y-70612000D02*
X77822000Y-70612000D01*
X77822000Y-70612000D02*
X76410000Y-69200000D01*
D32*
X85304000Y-70612000D02*
X85304000Y-73112000D01*
X85304000Y-73112000D02*
X85852000Y-73660000D01*
D33*
X84074000Y-53380000D02*
X84542000Y-53380000D01*
X84542000Y-53380000D02*
X87700000Y-50222000D01*
X87700000Y-50222000D02*
X87700000Y-45650000D01*
X104648000Y-82804000D02*
X101814000Y-82804000D01*
X101814000Y-82804000D02*
X101306000Y-82296000D01*
X104648000Y-82804000D02*
X104648000Y-84582000D01*
X104648000Y-84582000D02*
X103886000Y-87122000D01*
D32*
X101560000Y-82550000D02*
X101306000Y-82296000D01*
D33*
X97750000Y-62000000D02*
X92226000Y-62000000D01*
X92226000Y-62000000D02*
X92202000Y-61976000D01*
X103124000Y-56642000D02*
X103108000Y-56642000D01*
X103108000Y-56642000D02*
X97750000Y-62000000D01*
X112304000Y-78886000D02*
X112304000Y-79030000D01*
X115062000Y-77216000D02*
X113284000Y-75438000D01*
X115062000Y-78740000D02*
X115062000Y-77216000D01*
X114554000Y-79248000D02*
X115062000Y-78740000D01*
X112522000Y-79248000D02*
X114554000Y-79248000D01*
X112304000Y-79030000D02*
X112522000Y-79248000D01*
X104394000Y-83058000D02*
X104648000Y-82804000D01*
X103124000Y-56642000D02*
X105156000Y-58674000D01*
X105156000Y-58674000D02*
X105156000Y-73406000D01*
X105156000Y-73406000D02*
X105664000Y-73914000D01*
X107188000Y-75438000D02*
X113284000Y-75438000D01*
X105664000Y-73914000D02*
X107188000Y-75438000D01*
X110682002Y-77154002D02*
X112304000Y-78886000D01*
X104201998Y-77154002D02*
X110682002Y-77154002D01*
X103378000Y-77978000D02*
X104201998Y-77154002D01*
X103378000Y-82550000D02*
X103378000Y-77978000D01*
X103632000Y-82804000D02*
X103378000Y-82550000D01*
X103632000Y-82804000D02*
X104648000Y-82804000D01*
X92202000Y-61976000D02*
X92202000Y-62270000D01*
X92202000Y-62270000D02*
X90678000Y-64810000D01*
X92228000Y-61950000D02*
X92202000Y-61976000D01*
X92237000Y-61941000D02*
X92202000Y-61976000D01*
X109728000Y-82804000D02*
X110236000Y-82804000D01*
X110236000Y-82804000D02*
X112776000Y-85090000D01*
X112776000Y-86360000D02*
X114808000Y-88646000D01*
X112776000Y-85090000D02*
X112776000Y-86360000D01*
X114720000Y-81110000D02*
X114720000Y-81610000D01*
X114720000Y-81610000D02*
X117810000Y-84700000D01*
X117810000Y-84700000D02*
X119810000Y-84700000D01*
X114720000Y-81110000D02*
X114690000Y-81110000D01*
X114690000Y-81110000D02*
X112996000Y-82804000D01*
X112996000Y-82804000D02*
X109728000Y-82804000D01*
X110744000Y-78740000D02*
X110236000Y-78740000D01*
X109728000Y-82804000D02*
X109728000Y-79248000D01*
X109728000Y-79248000D02*
X110236000Y-78740000D01*
X119630000Y-89150000D02*
X118876000Y-89150000D01*
X117616000Y-90410000D02*
X111506000Y-90424000D01*
X118876000Y-89150000D02*
X117616000Y-90410000D01*
X111506000Y-90424000D02*
X111428000Y-87200000D01*
X111428000Y-87200000D02*
X111506000Y-87122000D01*
X111506000Y-87122000D02*
X108712000Y-87122000D01*
X108712000Y-87122000D02*
X107188000Y-85598000D01*
X107188000Y-85598000D02*
X107188000Y-82804000D01*
X107188000Y-82804000D02*
X107188000Y-83312000D01*
X105236000Y-78740000D02*
X106426000Y-78740000D01*
X106426000Y-78740000D02*
X107188000Y-79502000D01*
X107188000Y-79502000D02*
X107188000Y-82804000D01*
X105664000Y-78740000D02*
X105236000Y-78740000D01*
X116078000Y-73914000D02*
X116078000Y-74168000D01*
X118578000Y-76668000D02*
X118578000Y-81026000D01*
X116078000Y-74168000D02*
X118578000Y-76668000D01*
X110744000Y-56642000D02*
X110744000Y-56146000D01*
X110744000Y-56146000D02*
X112490000Y-54654000D01*
X112490000Y-54654000D02*
X115610000Y-54654000D01*
X115610000Y-54654000D02*
X117750000Y-56540000D01*
X117260000Y-66450000D02*
X117230000Y-71238000D01*
X117230000Y-71238000D02*
X116840000Y-71628000D01*
X117260000Y-66450000D02*
X117230000Y-61570000D01*
X117230000Y-61570000D02*
X117340000Y-61460000D01*
X117200000Y-66390000D02*
X117260000Y-66450000D01*
X117340000Y-61460000D02*
X117340000Y-56950000D01*
X117340000Y-56950000D02*
X117750000Y-56540000D01*
X117506000Y-66204000D02*
X117260000Y-66450000D01*
X117750000Y-56540000D02*
X117750000Y-56256000D01*
X116840000Y-71628000D02*
X116840000Y-73152000D01*
X116840000Y-73152000D02*
X116078000Y-73914000D01*
X116078000Y-73914000D02*
X108712000Y-73914000D01*
X117094000Y-71374000D02*
X116840000Y-71628000D01*
X117790000Y-56580000D02*
X117750000Y-56540000D01*
X94996000Y-74676000D02*
X97536000Y-77216000D01*
X97536000Y-77216000D02*
X97536000Y-77938000D01*
X98552000Y-73914000D02*
X95758000Y-73914000D01*
X95758000Y-73914000D02*
X94996000Y-74676000D01*
X97536000Y-70358000D02*
X97536000Y-70612000D01*
X97536000Y-70612000D02*
X98552000Y-71628000D01*
X98552000Y-71628000D02*
X98552000Y-73914000D01*
X98298000Y-67310000D02*
X98298000Y-69596000D01*
X98298000Y-69596000D02*
X97536000Y-70358000D01*
X98298000Y-67310000D02*
X102108000Y-67310000D01*
X102108000Y-67310000D02*
X103124000Y-68326000D01*
X103124000Y-65532000D02*
X103124000Y-62484000D01*
X103124000Y-59690000D02*
X103124000Y-62484000D01*
X103124000Y-65532000D02*
X103124000Y-68326000D01*
X97282000Y-70104000D02*
X97536000Y-70358000D01*
X97456000Y-70278000D02*
X97536000Y-70358000D01*
X97536000Y-77938000D02*
X98338000Y-78500000D01*
X98044000Y-78754000D02*
X98338000Y-78500000D01*
X120290000Y-56540000D02*
X120290000Y-55340000D01*
X103000000Y-53825000D02*
X102300000Y-53125000D01*
X118775000Y-53825000D02*
X103000000Y-53825000D01*
X120290000Y-55340000D02*
X118775000Y-53825000D01*
X102300000Y-53125000D02*
X99035000Y-53125000D01*
X99035000Y-53125000D02*
X97750000Y-51840000D01*
X98234000Y-52324000D02*
X97750000Y-51840000D01*
X98284000Y-52374000D02*
X97750000Y-51840000D01*
X119800000Y-66450000D02*
X119770000Y-71238000D01*
X119770000Y-71238000D02*
X119380000Y-71628000D01*
X119800000Y-66450000D02*
X119770000Y-61570000D01*
X119770000Y-61570000D02*
X119880000Y-61460000D01*
X119740000Y-66390000D02*
X119800000Y-66450000D01*
X120046000Y-66204000D02*
X119800000Y-66450000D01*
X120290000Y-56540000D02*
X120290000Y-61050000D01*
X120290000Y-61050000D02*
X119880000Y-61460000D01*
X120290000Y-56540000D02*
X120290000Y-56620000D01*
X119634000Y-71374000D02*
X119380000Y-71628000D01*
X119800000Y-66450000D02*
X119800000Y-66196000D01*
X119840000Y-61420000D02*
X119880000Y-61460000D01*
X113375000Y-51575000D02*
X112950000Y-51575000D01*
X112950000Y-51575000D02*
X112025000Y-52500000D01*
X112025000Y-52500000D02*
X104175000Y-52500000D01*
X104175000Y-52500000D02*
X102300000Y-50625000D01*
X102300000Y-47675000D02*
X102300000Y-47500000D01*
X101925000Y-47125000D02*
X99575000Y-47125000D01*
X102300000Y-47500000D02*
X101925000Y-47125000D01*
X102300000Y-50625000D02*
X102300000Y-47675000D01*
X102300000Y-47675000D02*
X102300000Y-46325000D01*
X102300000Y-46325000D02*
X103675000Y-44950000D01*
X103675000Y-44950000D02*
X103675000Y-45486000D01*
X103955000Y-45230000D02*
X103675000Y-44950000D01*
X110350000Y-50300000D02*
X110350000Y-48300000D01*
X110350000Y-48300000D02*
X113700000Y-44950000D01*
X113700000Y-44950000D02*
X113835000Y-44950000D01*
X119380000Y-44958000D02*
X113835000Y-44950000D01*
X119380000Y-44958000D02*
X119380000Y-45288000D01*
D32*
X108966000Y-133096000D02*
X108966000Y-136398000D01*
X108966000Y-136398000D02*
X108712000Y-136652000D01*
X108966000Y-130596000D02*
X108164000Y-130596000D01*
X108164000Y-130596000D02*
X105918000Y-132842000D01*
X105918000Y-132842000D02*
X105918000Y-136144000D01*
X105918000Y-136144000D02*
X106172000Y-136398000D01*
D33*
X121425000Y-49975000D02*
X121425000Y-51825000D01*
X122940000Y-53340000D02*
X124460000Y-53340000D01*
X121425000Y-51825000D02*
X122940000Y-53340000D01*
X121425000Y-49975000D02*
X121425000Y-48325000D01*
X124792000Y-44958000D02*
X129540000Y-44958000D01*
X121425000Y-48325000D02*
X124792000Y-44958000D01*
X113375000Y-49035000D02*
X113965000Y-49035000D01*
X113965000Y-49035000D02*
X115100000Y-47900000D01*
X115100000Y-47900000D02*
X120475000Y-47900000D01*
X120475000Y-47900000D02*
X121425000Y-48850000D01*
X121425000Y-48850000D02*
X121425000Y-49975000D01*
X129558000Y-44976000D02*
X129540000Y-44958000D01*
D32*
X75708000Y-99298000D02*
X75708000Y-101992000D01*
X75708000Y-101992000D02*
X74070000Y-103630000D01*
X74070000Y-103630000D02*
X74324000Y-103630000D01*
X75692000Y-99314000D02*
X75708000Y-99298000D01*
X75708000Y-99298000D02*
X76856000Y-98150000D01*
X92456000Y-98150000D02*
X93620000Y-98150000D01*
X94488000Y-87884000D02*
X93250000Y-86646000D01*
X96012000Y-87884000D02*
X94488000Y-87884000D01*
X97028000Y-88900000D02*
X96012000Y-87884000D01*
X97028000Y-91694000D02*
X97028000Y-88900000D01*
X93980000Y-94742000D02*
X97028000Y-91694000D01*
X93980000Y-96266000D02*
X93980000Y-94742000D01*
X93726000Y-96520000D02*
X93980000Y-96266000D01*
X93726000Y-98044000D02*
X93726000Y-96520000D01*
X93620000Y-98150000D02*
X93726000Y-98044000D01*
X78232000Y-76962000D02*
X74676000Y-76962000D01*
X74676000Y-76962000D02*
X74168000Y-76454000D01*
X93110000Y-98150000D02*
X92456000Y-98150000D01*
X92456000Y-98150000D02*
X76856000Y-98150000D01*
X80140000Y-78870000D02*
X78232000Y-76962000D01*
X93250000Y-86646000D02*
X93250000Y-84520000D01*
X93250000Y-84520000D02*
X87600000Y-78870000D01*
X87600000Y-78870000D02*
X80140000Y-78870000D01*
X71668000Y-76454000D02*
X69088000Y-76454000D01*
X65786000Y-73152000D02*
X65786000Y-69596000D01*
X69088000Y-76454000D02*
X65786000Y-73152000D01*
X65786000Y-69850000D02*
X65786000Y-69596000D01*
X65786000Y-69596000D02*
X65786000Y-65278000D01*
X65786000Y-65278000D02*
X65786000Y-58674000D01*
X65786000Y-58674000D02*
X68834000Y-55626000D01*
X68834000Y-55626000D02*
X68834000Y-45720000D01*
X68834000Y-45720000D02*
X70612000Y-43942000D01*
X71668000Y-76454000D02*
X71668000Y-76240000D01*
X119634000Y-102362000D02*
X119628000Y-102362000D01*
X119628000Y-102362000D02*
X118580000Y-103410000D01*
X118580000Y-103410000D02*
X113890000Y-103410000D01*
X113890000Y-103410000D02*
X113500000Y-103020000D01*
X113460000Y-106340000D02*
X113460000Y-108580000D01*
X113460000Y-108580000D02*
X111360000Y-110680000D01*
X113460000Y-106340000D02*
X113460000Y-103060000D01*
X113460000Y-103060000D02*
X113500000Y-103020000D01*
X119634000Y-102362000D02*
X122174000Y-102362000D01*
X126492000Y-108204000D02*
X126492000Y-109982000D01*
X125222000Y-106934000D02*
X126492000Y-108204000D01*
X125222000Y-105410000D02*
X125222000Y-106934000D01*
X122174000Y-102362000D02*
X125222000Y-105410000D01*
X72160000Y-49340000D02*
X74690000Y-49340000D01*
X74690000Y-49340000D02*
X74800000Y-49450000D01*
D33*
X130040000Y-93230000D02*
X127370000Y-93230000D01*
X127370000Y-93230000D02*
X126870000Y-93730000D01*
X129960000Y-89760000D02*
X129960000Y-93892000D01*
X130000000Y-86300000D02*
X130000000Y-82790000D01*
X130000000Y-82790000D02*
X129960000Y-82750000D01*
X129960000Y-89760000D02*
X129960000Y-86340000D01*
X129960000Y-86340000D02*
X130000000Y-86300000D01*
X124510000Y-89150000D02*
X129350000Y-89150000D01*
X129350000Y-89150000D02*
X129960000Y-89760000D01*
D32*
X64262000Y-93970000D02*
X67574000Y-93970000D01*
X84836000Y-90678000D02*
X85458000Y-91300000D01*
X85458000Y-91300000D02*
X85458000Y-93970000D01*
X85458000Y-93970000D02*
X83998000Y-95430000D01*
X83998000Y-95430000D02*
X77848000Y-95430000D01*
X84836000Y-90678000D02*
X83820000Y-90678000D01*
X77142000Y-95430000D02*
X77848000Y-95430000D01*
X74422000Y-92710000D02*
X77142000Y-95430000D01*
X68834000Y-92710000D02*
X74422000Y-92710000D01*
X67574000Y-93970000D02*
X68834000Y-92710000D01*
X59510000Y-92710000D02*
X54610000Y-92710000D01*
X60770000Y-93970000D02*
X59510000Y-92710000D01*
X64262000Y-93970000D02*
X60770000Y-93970000D01*
X54610000Y-87630000D02*
X55740000Y-87630000D01*
X78798000Y-90678000D02*
X81280000Y-90678000D01*
X76420000Y-88300000D02*
X78798000Y-90678000D01*
X76420000Y-86730000D02*
X76420000Y-88300000D01*
X73060000Y-83370000D02*
X76420000Y-86730000D01*
X73060000Y-83070000D02*
X73060000Y-83370000D01*
X71320000Y-81330000D02*
X73060000Y-83070000D01*
X68280000Y-81330000D02*
X71320000Y-81330000D01*
X66630000Y-82980000D02*
X68280000Y-81330000D01*
X66630000Y-85610000D02*
X66630000Y-82980000D01*
X63360000Y-88880000D02*
X66630000Y-85610000D01*
X56990000Y-88880000D02*
X63360000Y-88880000D01*
X55740000Y-87630000D02*
X56990000Y-88880000D01*
X54610000Y-87630000D02*
X54980000Y-87630000D01*
X81178000Y-90678000D02*
X81280000Y-90678000D01*
X81280000Y-90678000D02*
X80586000Y-90678000D01*
X83770000Y-122700000D02*
X84110000Y-122940000D01*
X86930000Y-118450000D02*
X85620000Y-118450000D01*
X87780000Y-119300000D02*
X86930000Y-118450000D01*
X87780000Y-123360000D02*
X87780000Y-119300000D01*
X87100000Y-124040000D02*
X87780000Y-123360000D01*
X85210000Y-124040000D02*
X87100000Y-124040000D01*
X84110000Y-122940000D02*
X85210000Y-124040000D01*
X65024000Y-122428000D02*
X66300000Y-122470000D01*
X66780000Y-122700000D02*
X83770000Y-122700000D01*
X83770000Y-122700000D02*
X84000000Y-122940000D01*
X66300000Y-122470000D02*
X66780000Y-122700000D01*
X85620000Y-118450000D02*
X86220000Y-118450000D01*
X59994000Y-112240000D02*
X61490000Y-110490000D01*
X59994000Y-117350000D02*
X59994000Y-112240000D01*
X65024000Y-122428000D02*
X59994000Y-117350000D01*
X61490000Y-110490000D02*
X62230000Y-110490000D01*
X85620000Y-118450000D02*
X86128000Y-118450000D01*
X61468000Y-110490000D02*
X62230000Y-110490000D01*
X62230000Y-113030000D02*
X61830000Y-113030000D01*
X61830000Y-113030000D02*
X60720000Y-114140000D01*
X60720000Y-114140000D02*
X60720000Y-117130000D01*
X60720000Y-117130000D02*
X65210000Y-121620000D01*
X65210000Y-121620000D02*
X66710000Y-121620000D01*
X66710000Y-121620000D02*
X67190000Y-122100000D01*
X67190000Y-122100000D02*
X85480000Y-122100000D01*
X85480000Y-122100000D02*
X85510000Y-122070000D01*
X85510000Y-122070000D02*
X85100000Y-122070000D01*
X62230000Y-87630000D02*
X63090000Y-87630000D01*
X65460000Y-82790000D02*
X68540000Y-79710000D01*
X65460000Y-85260000D02*
X65460000Y-82790000D01*
X63090000Y-87630000D02*
X65460000Y-85260000D01*
X62230000Y-87630000D02*
X62738000Y-87630000D01*
X68368000Y-79734000D02*
X68540000Y-79710000D01*
X85344000Y-80772000D02*
X77222000Y-80772000D01*
X77222000Y-80772000D02*
X76160000Y-79710000D01*
X76668000Y-80218000D02*
X76160000Y-79710000D01*
X80010000Y-113000000D02*
X77730000Y-113000000D01*
X77730000Y-113000000D02*
X77530000Y-113200000D01*
X77550000Y-113180000D02*
X77530000Y-113200000D01*
X77800000Y-113470000D02*
X77530000Y-113200000D01*
X77800000Y-113470000D02*
X77530000Y-113200000D01*
X62230000Y-107950000D02*
X64520000Y-107950000D01*
X66000000Y-111830000D02*
X67370000Y-113200000D01*
X66000000Y-109430000D02*
X66000000Y-111830000D01*
X64520000Y-107950000D02*
X66000000Y-109430000D01*
X67370000Y-113200000D02*
X66740000Y-113200000D01*
X62340000Y-108060000D02*
X62230000Y-107950000D01*
X92000000Y-85380000D02*
X92000000Y-84650000D01*
X92000000Y-84650000D02*
X90330000Y-82980000D01*
X90330000Y-82980000D02*
X76200000Y-82980000D01*
X92000000Y-85380000D02*
X92000000Y-84888000D01*
X76500000Y-83280000D02*
X76200000Y-82980000D01*
X62230000Y-90170000D02*
X63260000Y-90170000D01*
X68580000Y-84810000D02*
X68580000Y-82980000D01*
X66680000Y-86710000D02*
X68580000Y-84810000D01*
X66680000Y-86750000D02*
X66680000Y-86710000D01*
X63260000Y-90170000D02*
X66680000Y-86750000D01*
X68580000Y-82980000D02*
X68580000Y-83570000D01*
X62230000Y-105410000D02*
X62230000Y-105220000D01*
X62230000Y-105220000D02*
X63820000Y-103630000D01*
X63820000Y-103630000D02*
X66450000Y-103630000D01*
X62230000Y-105410000D02*
X62230000Y-105280000D01*
X62738000Y-104902000D02*
X62230000Y-105410000D01*
X66450000Y-103630000D02*
X66450000Y-103670000D01*
X62484000Y-105156000D02*
X62230000Y-105410000D01*
X75612000Y-43942000D02*
X75612000Y-44784000D01*
X75612000Y-44784000D02*
X73660000Y-46736000D01*
X73660000Y-46736000D02*
X70866000Y-46736000D01*
X70866000Y-46736000D02*
X69596000Y-48006000D01*
X69596000Y-48006000D02*
X69596000Y-56134000D01*
X69596000Y-56134000D02*
X66548000Y-59182000D01*
X66548000Y-59182000D02*
X66548000Y-63246000D01*
X66548000Y-63246000D02*
X67422000Y-64120000D01*
X67422000Y-64120000D02*
X68790000Y-64120000D01*
X68790000Y-64120000D02*
X68438000Y-64120000D01*
X87990000Y-115620000D02*
X88920000Y-115620000D01*
X89920000Y-116620000D02*
X90610000Y-116620000D01*
X88920000Y-115620000D02*
X89920000Y-116620000D01*
X99440000Y-119560000D02*
X104344661Y-119560000D01*
X107060000Y-126960000D02*
X105500000Y-128520000D01*
X105500000Y-128520000D02*
X104370000Y-128520000D01*
X104370000Y-128520000D02*
X103096000Y-129794000D01*
X103096000Y-129794000D02*
X98552000Y-129794000D01*
X104344661Y-119560000D02*
X107060000Y-122190000D01*
X107060000Y-122190000D02*
X107060000Y-126960000D01*
X90610000Y-116620000D02*
X96500000Y-116620000D01*
X96500000Y-116620000D02*
X99440000Y-119560000D01*
X90290000Y-116620000D02*
X90610000Y-116620000D01*
X68326000Y-109220000D02*
X68326000Y-107896000D01*
X59040000Y-105410000D02*
X54610000Y-105410000D01*
X60290000Y-106660000D02*
X59040000Y-105410000D01*
X67090000Y-106660000D02*
X60290000Y-106660000D01*
X68326000Y-107896000D02*
X67090000Y-106660000D01*
X83315000Y-112545000D02*
X83315000Y-114385000D01*
X84430000Y-115620000D02*
X87990000Y-115620000D01*
X87990000Y-115620000D02*
X88300000Y-115620000D01*
X83315000Y-114385000D02*
X84430000Y-115620000D01*
X68326000Y-109220000D02*
X68326000Y-110236000D01*
X68326000Y-110236000D02*
X69240000Y-111150000D01*
X69240000Y-111150000D02*
X81920000Y-111150000D01*
X81920000Y-111150000D02*
X83315000Y-112545000D01*
X83315000Y-112545000D02*
X83320000Y-112550000D01*
X98552000Y-129794000D02*
X98552000Y-132588000D01*
X98552000Y-132588000D02*
X98298000Y-132842000D01*
X54610000Y-105410000D02*
X55110000Y-105410000D01*
X114046000Y-117094000D02*
X114046000Y-114046000D01*
X135220000Y-122350000D02*
X135700000Y-122350000D01*
X135700000Y-122350000D02*
X137240000Y-123890000D01*
X123148000Y-136652000D02*
X116332000Y-136652000D01*
X129660000Y-130140000D02*
X123148000Y-136652000D01*
X135490000Y-130140000D02*
X129660000Y-130140000D01*
X137240000Y-128390000D02*
X135490000Y-130140000D01*
X137240000Y-123890000D02*
X137240000Y-128390000D01*
X135220000Y-122350000D02*
X133950000Y-122350000D01*
X133950000Y-122350000D02*
X132348000Y-123952000D01*
X134886000Y-122684000D02*
X135220000Y-122350000D01*
X123952000Y-117602000D02*
X123952000Y-121158000D01*
X123952000Y-121158000D02*
X126746000Y-123952000D01*
X135220000Y-122350000D02*
X134284000Y-122350000D01*
X135220000Y-117350000D02*
X135220000Y-122350000D01*
X113380000Y-134190000D02*
X113660000Y-134190000D01*
X113660000Y-134190000D02*
X114970000Y-132880000D01*
X114970000Y-118045000D02*
X113567000Y-117150000D01*
X114970000Y-132880000D02*
X114970000Y-118045000D01*
X116332000Y-136652000D02*
X115842000Y-136652000D01*
X115842000Y-136652000D02*
X113380000Y-134190000D01*
X116332000Y-136652000D02*
X116332000Y-136398000D01*
X123952000Y-117602000D02*
X123952000Y-117856000D01*
X132348000Y-123952000D02*
X129794000Y-123952000D01*
X126746000Y-123952000D02*
X129794000Y-123952000D01*
X119634000Y-105918000D02*
X119634000Y-106172000D01*
X119634000Y-106172000D02*
X117602000Y-108204000D01*
X117602000Y-108204000D02*
X116360000Y-110680000D01*
X123952000Y-109982000D02*
X123952000Y-108712000D01*
X121158000Y-105918000D02*
X119634000Y-105918000D01*
X123952000Y-108712000D02*
X121158000Y-105918000D01*
X123952000Y-109982000D02*
X123952000Y-110182000D01*
X123952000Y-109982000D02*
X123952000Y-110634000D01*
X123952000Y-109982000D02*
X123952000Y-109280000D01*
X128270000Y-55880000D02*
X128270000Y-57912000D01*
X128270000Y-57912000D02*
X126746000Y-59436000D01*
X126746000Y-59436000D02*
X134874000Y-59436000D01*
X134874000Y-59436000D02*
X138684000Y-63246000D01*
X126746000Y-78232000D02*
X126746000Y-77470000D01*
X126746000Y-77470000D02*
X126492000Y-77216000D01*
X126492000Y-77216000D02*
X122936000Y-77216000D01*
X122936000Y-77216000D02*
X121666000Y-75946000D01*
X121666000Y-75946000D02*
X121666000Y-69342000D01*
X121666000Y-69342000D02*
X123444000Y-67564000D01*
X123444000Y-67564000D02*
X123444000Y-62484000D01*
X124246000Y-59436000D02*
X124246000Y-61682000D01*
X124246000Y-61682000D02*
X123444000Y-62484000D01*
X134366000Y-78232000D02*
X137414000Y-78232000D01*
X137414000Y-78232000D02*
X137922000Y-77724000D01*
X123190000Y-75398000D02*
X123484000Y-75398000D01*
X123484000Y-75398000D02*
X125476000Y-73406000D01*
X125476000Y-73406000D02*
X127508000Y-73406000D01*
X127508000Y-73406000D02*
X132334000Y-78232000D01*
X132334000Y-78232000D02*
X134366000Y-78232000D01*
X134366000Y-78232000D02*
X134366000Y-78740000D01*
X123444000Y-70104000D02*
X129924000Y-70104000D01*
X129924000Y-70104000D02*
X134366000Y-74546000D01*
X134366000Y-74546000D02*
X134366000Y-75184000D01*
X138684000Y-71628000D02*
X137922000Y-71628000D01*
X137922000Y-71628000D02*
X134366000Y-75184000D01*
X138684000Y-67564000D02*
X138684000Y-71628000D01*
D33*
X128270000Y-53340000D02*
X129794000Y-53340000D01*
X131318000Y-51816000D02*
X135636000Y-51816000D01*
X129794000Y-53340000D02*
X131318000Y-51816000D01*
X134366000Y-51816000D02*
X135636000Y-51816000D01*
D32*
X125984000Y-63246000D02*
X125984000Y-67564000D01*
X124460000Y-55880000D02*
X124460000Y-56210000D01*
X124460000Y-56210000D02*
X125480000Y-57230000D01*
X125480000Y-57230000D02*
X125480000Y-62742000D01*
X125480000Y-62742000D02*
X125984000Y-63246000D01*
D33*
X128270000Y-50800000D02*
X124460000Y-50800000D01*
D32*
X71815000Y-106575000D02*
X70045000Y-106575000D01*
X68930000Y-102470000D02*
X68080000Y-101620000D01*
X68930000Y-105460000D02*
X68930000Y-102470000D01*
X70045000Y-106575000D02*
X68930000Y-105460000D01*
X71815000Y-106575000D02*
X72610000Y-107370000D01*
X72610000Y-107370000D02*
X75430000Y-107370000D01*
X75430000Y-107370000D02*
X76730000Y-108670000D01*
X106426000Y-117094000D02*
X106426000Y-116840000D01*
X106426000Y-116840000D02*
X104648000Y-115062000D01*
X104648000Y-115062000D02*
X100076000Y-115062000D01*
X100076000Y-115062000D02*
X96520000Y-111506000D01*
X96520000Y-111506000D02*
X94488000Y-111506000D01*
X94488000Y-111506000D02*
X93472000Y-110490000D01*
X93472000Y-110490000D02*
X93472000Y-109982000D01*
X93472000Y-109982000D02*
X92202000Y-108712000D01*
X92202000Y-108712000D02*
X84074000Y-108712000D01*
X84074000Y-108712000D02*
X83626000Y-109160000D01*
X83626000Y-109160000D02*
X76730000Y-109160000D01*
X76730000Y-109160000D02*
X77110000Y-109160000D01*
X54610000Y-102870000D02*
X54610000Y-102580000D01*
X54610000Y-102580000D02*
X55570000Y-101620000D01*
X55570000Y-101620000D02*
X63090000Y-101620000D01*
X63090000Y-101620000D02*
X63630000Y-101620000D01*
X63630000Y-101620000D02*
X68080000Y-101620000D01*
X76730000Y-108670000D02*
X76730000Y-109160000D01*
X54610000Y-102870000D02*
X55000000Y-102870000D01*
X106426000Y-114046000D02*
X100330000Y-114046000D01*
X97790000Y-87884000D02*
X95286000Y-85380000D01*
X97790000Y-91440000D02*
X97790000Y-87884000D01*
X98806000Y-92456000D02*
X97790000Y-91440000D01*
X103886000Y-92456000D02*
X98806000Y-92456000D01*
X107188000Y-95758000D02*
X103886000Y-92456000D01*
X107188000Y-98806000D02*
X107188000Y-95758000D01*
X106426000Y-99568000D02*
X107188000Y-98806000D01*
X105664000Y-99568000D02*
X106426000Y-99568000D01*
X102870000Y-102362000D02*
X105664000Y-99568000D01*
X102870000Y-107188000D02*
X102870000Y-102362000D01*
X102108000Y-107950000D02*
X102870000Y-107188000D01*
X99568000Y-107950000D02*
X102108000Y-107950000D01*
X98806000Y-108712000D02*
X99568000Y-107950000D01*
X98806000Y-112522000D02*
X98806000Y-108712000D01*
X100330000Y-114046000D02*
X98806000Y-112522000D01*
X95286000Y-85380000D02*
X94540000Y-85380000D01*
X94780000Y-85380000D02*
X94540000Y-85380000D01*
X85852000Y-76962000D02*
X85090000Y-76962000D01*
X85090000Y-76962000D02*
X83312000Y-75184000D01*
X77390000Y-75184000D02*
X75358000Y-73152000D01*
X83312000Y-75184000D02*
X77390000Y-75184000D01*
X94540000Y-85380000D02*
X94540000Y-84380000D01*
X94540000Y-84380000D02*
X91694000Y-81534000D01*
X91694000Y-81534000D02*
X91694000Y-78486000D01*
X91694000Y-78486000D02*
X90170000Y-76962000D01*
X90170000Y-76962000D02*
X85852000Y-76962000D01*
D33*
X115210000Y-56540000D02*
X115210000Y-57570000D01*
X113090000Y-59690000D02*
X110744000Y-59690000D01*
X115210000Y-57570000D02*
X113090000Y-59690000D01*
X110744000Y-68326000D02*
X110998000Y-68326000D01*
X110998000Y-68326000D02*
X114300000Y-71628000D01*
X110744000Y-65532000D02*
X113538000Y-65532000D01*
X113538000Y-65532000D02*
X114720000Y-66450000D01*
X110744000Y-62484000D02*
X113776000Y-62484000D01*
X113776000Y-62484000D02*
X114800000Y-61460000D01*
D32*
X103630000Y-109350000D02*
X103630000Y-102618000D01*
X93472000Y-75692000D02*
X92456000Y-74676000D01*
X93472000Y-80772000D02*
X93472000Y-75692000D01*
X96266000Y-83566000D02*
X93472000Y-80772000D01*
X96266000Y-85090000D02*
X96266000Y-83566000D01*
X98552000Y-87376000D02*
X96266000Y-85090000D01*
X98552000Y-90678000D02*
X98552000Y-87376000D01*
X99568000Y-91694000D02*
X98552000Y-90678000D01*
X104140000Y-91694000D02*
X99568000Y-91694000D01*
X107950000Y-95504000D02*
X104140000Y-91694000D01*
X107950000Y-99314000D02*
X107950000Y-95504000D01*
X106934000Y-100330000D02*
X107950000Y-99314000D01*
X105918000Y-100330000D02*
X106934000Y-100330000D01*
X103630000Y-102618000D02*
X105918000Y-100330000D01*
X103886000Y-109094000D02*
X103630000Y-109350000D01*
D33*
X92456000Y-74676000D02*
X92456000Y-73660000D01*
X92456000Y-73660000D02*
X91186000Y-72390000D01*
X91186000Y-72390000D02*
X88646000Y-72390000D01*
X88646000Y-72390000D02*
X87884000Y-71628000D01*
X87884000Y-71628000D02*
X87884000Y-69088000D01*
X87884000Y-69088000D02*
X85772000Y-66976000D01*
X85772000Y-66976000D02*
X85344000Y-66976000D01*
D32*
X103630000Y-109350000D02*
X100400000Y-109350000D01*
X100400000Y-109350000D02*
X100360000Y-109310000D01*
X92202000Y-74930000D02*
X92456000Y-74676000D01*
X47130000Y-121600000D02*
X47130000Y-124630000D01*
X47130000Y-124630000D02*
X49260000Y-126760000D01*
X54870000Y-129890000D02*
X52390000Y-129890000D01*
X52390000Y-129890000D02*
X49260000Y-126760000D01*
X49260000Y-126760000D02*
X48770000Y-126760000D01*
X43320000Y-111820000D02*
X43320000Y-111990000D01*
X43320000Y-111990000D02*
X46390000Y-115060000D01*
X46390000Y-115060000D02*
X47130000Y-115100000D01*
X49260000Y-126760000D02*
X49136000Y-127452000D01*
X47130000Y-121600000D02*
X47130000Y-122466000D01*
X47130000Y-115100000D02*
X47130000Y-121600000D01*
X54356000Y-121666000D02*
X54356000Y-121296000D01*
X54356000Y-121296000D02*
X50123992Y-117063992D01*
X50123992Y-73176008D02*
X50830000Y-72470000D01*
X50123992Y-117063992D02*
X50123992Y-73176008D01*
X47780000Y-69810000D02*
X46670000Y-69810000D01*
X46670000Y-69810000D02*
X43480000Y-73000000D01*
X43480000Y-73000000D02*
X43070000Y-73000000D01*
X47780000Y-69810000D02*
X48170000Y-69810000D01*
X48170000Y-69810000D02*
X50830000Y-72470000D01*
X47780000Y-69810000D02*
X46810000Y-69810000D01*
X43070000Y-72600000D02*
X43070000Y-73000000D01*
X43070000Y-73000000D02*
X43120000Y-73000000D01*
X48472000Y-70502000D02*
X47780000Y-69810000D01*
X54356000Y-121666000D02*
X54356000Y-120966000D01*
X47780000Y-63310000D02*
X47780000Y-69810000D01*
X43070000Y-73000000D02*
X43070000Y-72706000D01*
X54102000Y-89662000D02*
X54610000Y-90170000D01*
X54610000Y-90170000D02*
X56000000Y-90170000D01*
X56000000Y-90170000D02*
X57250000Y-91420000D01*
X57250000Y-91420000D02*
X65470000Y-91420000D01*
X65470000Y-91420000D02*
X67964000Y-88138000D01*
X67964000Y-88138000D02*
X74244000Y-88138000D01*
X74244000Y-88138000D02*
X79610000Y-94800000D01*
X79610000Y-94800000D02*
X82238000Y-94800000D01*
X82238000Y-94800000D02*
X83820000Y-93218000D01*
X83820000Y-93218000D02*
X83820000Y-92932000D01*
X83990000Y-129810000D02*
X84810000Y-129810000D01*
X89040000Y-134040000D02*
X89040000Y-136460000D01*
X84810000Y-129810000D02*
X89040000Y-134040000D01*
X83990000Y-129810000D02*
X83990000Y-129950000D01*
X75100000Y-134000000D02*
X80070000Y-134000000D01*
X81420000Y-135350000D02*
X81420000Y-136460000D01*
X80070000Y-134000000D02*
X81420000Y-135350000D01*
X81420000Y-136460000D02*
X81420000Y-136220000D01*
X62550000Y-127040000D02*
X60400000Y-127040000D01*
X51223996Y-83236004D02*
X54030000Y-80430000D01*
X51223996Y-112263996D02*
X51223996Y-83236004D01*
X53110000Y-114260000D02*
X51223996Y-112263996D01*
X57710000Y-114260000D02*
X53110000Y-114260000D01*
X58343994Y-114783994D02*
X57710000Y-114260000D01*
X58343994Y-124983994D02*
X58343994Y-114783994D01*
X60400000Y-127040000D02*
X58343994Y-124983994D01*
X63890000Y-128380000D02*
X62550000Y-127040000D01*
X62550000Y-127040000D02*
X62620000Y-126920000D01*
X53980000Y-80430000D02*
X54030000Y-80430000D01*
X54030000Y-80430000D02*
X60110000Y-80430000D01*
X60110000Y-80430000D02*
X62230000Y-82550000D01*
X62230000Y-82550000D02*
X62230000Y-81788000D01*
X75180000Y-134000000D02*
X75100000Y-134000000D01*
X75100000Y-134000000D02*
X67750000Y-134000000D01*
X63890000Y-130140000D02*
X63890000Y-128380000D01*
X67750000Y-134000000D02*
X63890000Y-130140000D01*
X73270000Y-134820000D02*
X78060000Y-134820000D01*
X73270000Y-134820000D02*
X67360000Y-134820000D01*
X62490000Y-130590000D02*
X67360000Y-134820000D01*
X78060000Y-134820000D02*
X78880000Y-135640000D01*
X78880000Y-135640000D02*
X78880000Y-136460000D01*
X78880000Y-136460000D02*
X78880000Y-136410000D01*
X62490000Y-129890000D02*
X60820000Y-129890000D01*
X64080000Y-83240000D02*
X62230000Y-85090000D01*
X64080000Y-81990000D02*
X64080000Y-83240000D01*
X61760000Y-79670000D02*
X64080000Y-81990000D01*
X52960000Y-79670000D02*
X61760000Y-79670000D01*
X50673994Y-81956006D02*
X52960000Y-79670000D01*
X50673994Y-114303994D02*
X50673994Y-81956006D01*
X53600000Y-117230000D02*
X50673994Y-114303994D01*
X57150000Y-117230000D02*
X53600000Y-117230000D01*
X57760000Y-117840000D02*
X57150000Y-117230000D01*
X57760000Y-126830000D02*
X57760000Y-117840000D01*
X60820000Y-129890000D02*
X57760000Y-126830000D01*
X62490000Y-129890000D02*
X62490000Y-129650000D01*
X62490000Y-130590000D02*
X62490000Y-129890000D01*
X79000000Y-132588000D02*
X84858000Y-132588000D01*
X86500000Y-134230000D02*
X86500000Y-136460000D01*
X84858000Y-132588000D02*
X86500000Y-134230000D01*
X86500000Y-136460000D02*
X86500000Y-135820000D01*
X61976000Y-121666000D02*
X60452000Y-121666000D01*
X53594000Y-85090000D02*
X54610000Y-85090000D01*
X52324000Y-86360000D02*
X53594000Y-85090000D01*
X52324000Y-107442000D02*
X52324000Y-86360000D01*
X54102000Y-109220000D02*
X52324000Y-107442000D01*
X57658000Y-109220000D02*
X54102000Y-109220000D01*
X59443998Y-111005998D02*
X57658000Y-109220000D01*
X59443998Y-120657998D02*
X59443998Y-111005998D01*
X60452000Y-121666000D02*
X59443998Y-120657998D01*
X61976000Y-121666000D02*
X61946000Y-121666000D01*
X65460000Y-124640000D02*
X62440000Y-121620000D01*
X62440000Y-121620000D02*
X61976000Y-121666000D01*
X65532000Y-129286000D02*
X65532000Y-124640000D01*
X68834000Y-132588000D02*
X65532000Y-129286000D01*
X79248000Y-132588000D02*
X79000000Y-132588000D01*
X79000000Y-132588000D02*
X68834000Y-132588000D01*
X76850000Y-133200000D02*
X81970000Y-133200000D01*
X83960000Y-135190000D02*
X83960000Y-136460000D01*
X81970000Y-133200000D02*
X83960000Y-135190000D01*
X83960000Y-136460000D02*
X83960000Y-136180000D01*
X62490000Y-124220000D02*
X60940000Y-124220000D01*
X51773998Y-85616002D02*
X54610000Y-82780000D01*
X51773998Y-109763998D02*
X51773998Y-85616002D01*
X53690000Y-111740000D02*
X51773998Y-109763998D01*
X57590000Y-111740000D02*
X53690000Y-111740000D01*
X58893996Y-112983996D02*
X57590000Y-111740000D01*
X58893996Y-122173996D02*
X58893996Y-112983996D01*
X60940000Y-124220000D02*
X58893996Y-122173996D01*
X54610000Y-82780000D02*
X54610000Y-82550000D01*
X54356000Y-82550000D02*
X54610000Y-82550000D01*
X54610000Y-82042000D02*
X54610000Y-82550000D01*
X64850000Y-129850000D02*
X64850000Y-126580000D01*
X68200000Y-133200000D02*
X64850000Y-129850000D01*
X76960000Y-133200000D02*
X76850000Y-133200000D01*
X76850000Y-133200000D02*
X68200000Y-133200000D01*
X64850000Y-126580000D02*
X62490000Y-124220000D01*
X66360000Y-138360000D02*
X60460000Y-138360000D01*
X60460000Y-138360000D02*
X58560000Y-136460000D01*
X87940000Y-130890000D02*
X94070000Y-130890000D01*
X94440000Y-138360000D02*
X90130000Y-138360000D01*
X95420000Y-137380000D02*
X94440000Y-138360000D01*
X95420000Y-132240000D02*
X95420000Y-137380000D01*
X94070000Y-130890000D02*
X95420000Y-132240000D01*
X69950000Y-130180000D02*
X70030000Y-130180000D01*
X70030000Y-130180000D02*
X71340000Y-131490000D01*
X71340000Y-131490000D02*
X78500000Y-131490000D01*
X78500000Y-131490000D02*
X79630000Y-130360000D01*
X79630000Y-130360000D02*
X79630000Y-128530000D01*
X79630000Y-128530000D02*
X80500000Y-127660000D01*
X80500000Y-127660000D02*
X84710000Y-127660000D01*
X84710000Y-127660000D02*
X87940000Y-130890000D01*
X90130000Y-138360000D02*
X66360000Y-138360000D01*
X56580000Y-128520000D02*
X56580000Y-130310000D01*
X61100000Y-134830000D02*
X61100000Y-136460000D01*
X56580000Y-130310000D02*
X61100000Y-134830000D01*
X61100000Y-136460000D02*
X61100000Y-135930000D01*
X56580000Y-128520000D02*
X56580000Y-120550000D01*
X56580000Y-120550000D02*
X55350000Y-119320000D01*
X55350000Y-119320000D02*
X53370000Y-119320000D01*
X53370000Y-119320000D02*
X51330000Y-117280000D01*
X51330000Y-117280000D02*
X51330000Y-116590000D01*
X57150000Y-128110000D02*
X57150000Y-128370000D01*
X64170000Y-134450000D02*
X66180000Y-136460000D01*
X63230000Y-134450000D02*
X64170000Y-134450000D01*
X57150000Y-128370000D02*
X63230000Y-134450000D01*
X57150000Y-128080000D02*
X57150000Y-128110000D01*
X57150000Y-128110000D02*
X57150000Y-128160000D01*
X53500000Y-118190000D02*
X52580000Y-117270000D01*
X55590000Y-118190000D02*
X53500000Y-118190000D01*
X57150000Y-119750000D02*
X55590000Y-118190000D01*
X57150000Y-128080000D02*
X57150000Y-119750000D01*
X54870000Y-124220000D02*
X54300000Y-124220000D01*
X54300000Y-124220000D02*
X49573990Y-119493990D01*
X49573990Y-119493990D02*
X49573990Y-87693990D01*
X49573990Y-87693990D02*
X47240000Y-85560000D01*
X47240000Y-79060000D02*
X46360000Y-79130000D01*
X46360000Y-79130000D02*
X43220000Y-75990000D01*
X43220000Y-75990000D02*
X43220000Y-75930000D01*
X47240000Y-85560000D02*
X46460000Y-85630000D01*
X46460000Y-85630000D02*
X43700000Y-88390000D01*
X43700000Y-88390000D02*
X43240000Y-88390000D01*
X43240000Y-88390000D02*
X43640000Y-88390000D01*
X47240000Y-85560000D02*
X47240000Y-79060000D01*
X91280000Y-94130000D02*
X89100000Y-94130000D01*
X87060000Y-88720000D02*
X84660000Y-86320000D01*
X87060000Y-92090000D02*
X87060000Y-88720000D01*
X89100000Y-94130000D02*
X87060000Y-92090000D01*
X81280000Y-93218000D02*
X81280000Y-92880000D01*
X81280000Y-92880000D02*
X82550000Y-91610000D01*
X82550000Y-91610000D02*
X82550000Y-86780000D01*
X82550000Y-86780000D02*
X83010000Y-86320000D01*
X83010000Y-86320000D02*
X84660000Y-86320000D01*
X110230000Y-112590000D02*
X109540000Y-111900000D01*
X114530000Y-112590000D02*
X110230000Y-112590000D01*
X116130000Y-114190000D02*
X114530000Y-112590000D01*
X116130000Y-129960000D02*
X116130000Y-114190000D01*
X109540000Y-111900000D02*
X109540000Y-106680000D01*
X117100000Y-130930000D02*
X116130000Y-129960000D01*
X117100000Y-131940000D02*
X117100000Y-130930000D01*
X109540000Y-106680000D02*
X105880000Y-103020000D01*
X116332000Y-131172000D02*
X117100000Y-131940000D01*
X126500000Y-129040000D02*
X126500000Y-127770000D01*
X121412000Y-122682000D02*
X121412000Y-117602000D01*
X126500000Y-127770000D02*
X121412000Y-122682000D01*
X135220000Y-127350000D02*
X128190000Y-127350000D01*
X128190000Y-127350000D02*
X126500000Y-129040000D01*
X126500000Y-129040000D02*
X123600000Y-131940000D01*
X123600000Y-131940000D02*
X119600000Y-131940000D01*
X135220000Y-127350000D02*
X135220000Y-127256000D01*
X121666000Y-117856000D02*
X121412000Y-117602000D01*
X139540000Y-96000000D02*
X139250000Y-98150000D01*
X136140000Y-99220000D02*
X136140000Y-99250000D01*
X138180000Y-99220000D02*
X136140000Y-99220000D01*
X139250000Y-98150000D02*
X138180000Y-99220000D01*
X120650000Y-77470000D02*
X120650000Y-77680000D01*
X120650000Y-77680000D02*
X123100000Y-80130000D01*
X128978000Y-102362000D02*
X127254000Y-102362000D01*
X132090000Y-99250000D02*
X128978000Y-102362000D01*
X136140000Y-99250000D02*
X132090000Y-99250000D01*
X139540000Y-81640000D02*
X139540000Y-96000000D01*
X137770000Y-80130000D02*
X139540000Y-81640000D01*
X123100000Y-80130000D02*
X137770000Y-80130000D01*
X127254000Y-102362000D02*
X127000000Y-102362000D01*
X127000000Y-102362000D02*
X124744000Y-100774000D01*
X118434000Y-100774000D02*
X116332000Y-102148000D01*
X124744000Y-100774000D02*
X118434000Y-100774000D01*
X127254000Y-102362000D02*
X127254000Y-101854000D01*
X120650000Y-78232000D02*
X120650000Y-77470000D01*
X127254000Y-105918000D02*
X127254000Y-102362000D01*
D33*
X100838000Y-77738000D02*
X102422000Y-76254000D01*
X102422000Y-76254000D02*
X111566000Y-76254000D01*
X100838000Y-78500000D02*
X100838000Y-77738000D01*
X111566000Y-76254000D02*
X112522000Y-77470000D01*
X112522000Y-77470000D02*
X113030000Y-77470000D01*
X113030000Y-77470000D02*
X113030000Y-77216000D01*
D32*
X120053000Y-114643000D02*
X117733000Y-114643000D01*
X115020000Y-105960000D02*
X116332000Y-104648000D01*
X115020000Y-111930000D02*
X115020000Y-105960000D01*
X117733000Y-114643000D02*
X115020000Y-111930000D01*
X116700000Y-104280000D02*
X116332000Y-104648000D01*
X118618000Y-127254000D02*
X118618000Y-124206000D01*
X118618000Y-124206000D02*
X119126000Y-123698000D01*
X121412000Y-109982000D02*
X121412000Y-109474000D01*
X119126000Y-121158000D02*
X119126000Y-123698000D01*
X119380000Y-123444000D02*
X119126000Y-123698000D01*
X118872000Y-117602000D02*
X118872000Y-120904000D01*
X118872000Y-120904000D02*
X119126000Y-121158000D01*
X118872000Y-117602000D02*
X118872000Y-116480000D01*
X118872000Y-116480000D02*
X118872000Y-115824000D01*
X121412000Y-113284000D02*
X121412000Y-113200000D01*
X121412000Y-113200000D02*
X121412000Y-109982000D01*
X118872000Y-115824000D02*
X120053000Y-114643000D01*
X120053000Y-114643000D02*
X121412000Y-113284000D01*
X86050000Y-107020000D02*
X86050000Y-107240000D01*
X70800000Y-105870000D02*
X70510000Y-105580000D01*
X75470000Y-105870000D02*
X70800000Y-105870000D01*
X77660000Y-108060000D02*
X75470000Y-105870000D01*
X85230000Y-108060000D02*
X77660000Y-108060000D01*
X86050000Y-107240000D02*
X85230000Y-108060000D01*
D34*
X89662000Y-107950000D02*
X91694000Y-107950000D01*
X91694000Y-107950000D02*
X93472000Y-107950000D01*
X93472000Y-107950000D02*
X94234000Y-108712000D01*
X94234000Y-108712000D02*
X96520000Y-108712000D01*
X96520000Y-108712000D02*
X98298000Y-106934000D01*
X98298000Y-106934000D02*
X100076000Y-106934000D01*
X100076000Y-106934000D02*
X101346000Y-105664000D01*
D32*
X84380000Y-105990000D02*
X84380000Y-106470000D01*
X70690000Y-104550000D02*
X70320000Y-104550000D01*
X71420000Y-105280000D02*
X70690000Y-104550000D01*
X75750000Y-105280000D02*
X71420000Y-105280000D01*
X77900000Y-107430000D02*
X75750000Y-105280000D01*
X83420000Y-107430000D02*
X77900000Y-107430000D01*
X84380000Y-106470000D02*
X83420000Y-107430000D01*
D34*
X84380000Y-105990000D02*
X84360000Y-105990000D01*
X90678000Y-107188000D02*
X95250000Y-107188000D01*
X90424000Y-106934000D02*
X90678000Y-107188000D01*
X95250000Y-107188000D02*
X95504000Y-107442000D01*
D33*
X121150000Y-81190000D02*
X121150000Y-81526000D01*
X121150000Y-81526000D02*
X122350000Y-82726000D01*
X122350000Y-82726000D02*
X122350000Y-84700000D01*
D32*
X95504000Y-99822000D02*
X91948000Y-99822000D01*
X87416000Y-98806000D02*
X86146000Y-100076000D01*
X90932000Y-98806000D02*
X87416000Y-98806000D01*
X91948000Y-99822000D02*
X90932000Y-98806000D01*
X98298000Y-101600000D02*
X98298000Y-101092000D01*
X98298000Y-101092000D02*
X101346000Y-98044000D01*
X95504000Y-99822000D02*
X96520000Y-99822000D01*
X96520000Y-99822000D02*
X98298000Y-101600000D01*
X95504000Y-97282000D02*
X95504000Y-96774000D01*
X95504000Y-96774000D02*
X98298000Y-93980000D01*
D33*
X112014000Y-96520000D02*
X112014000Y-96924000D01*
X112014000Y-96924000D02*
X113460000Y-98370000D01*
X113460000Y-98370000D02*
X123880000Y-98370000D01*
X123880000Y-98370000D02*
X124968000Y-97282000D01*
X124890000Y-84700000D02*
X124342000Y-84700000D01*
X124342000Y-84700000D02*
X122954000Y-87188000D01*
X122954000Y-87188000D02*
X122954000Y-94808000D01*
X122954000Y-94808000D02*
X124968000Y-97282000D01*
D34*
X104394000Y-98044000D02*
X104394000Y-96520000D01*
X102108000Y-100330000D02*
X104394000Y-98044000D01*
X102108000Y-102108000D02*
X102108000Y-100330000D01*
X100076000Y-104140000D02*
X102108000Y-102108000D01*
X96774000Y-104140000D02*
X100076000Y-104140000D01*
X93980000Y-104140000D02*
X96774000Y-104140000D01*
M02*
