G04 #@! TF.FileFunction,Copper,L2,Bot,Signal*
%FSLAX46Y46*%
G04 Gerber Fmt 4.6, Leading zero omitted, Abs format (unit mm)*
G04 Created by KiCad (PCBNEW 4.0.7) date 12/12/21 20:07:31*
%MOMM*%
%LPD*%
G01*
G04 APERTURE LIST*
%ADD10C,0.100000*%
%ADD11C,1.600000*%
%ADD12R,1.600000X1.600000*%
%ADD13O,1.600000X1.600000*%
%ADD14C,1.520000*%
%ADD15R,1.520000X1.520000*%
%ADD16C,2.500000*%
%ADD17R,1.700000X1.700000*%
%ADD18O,1.700000X1.700000*%
%ADD19R,2.200000X2.200000*%
%ADD20O,2.200000X2.200000*%
%ADD21R,1.800000X1.800000*%
%ADD22C,1.800000*%
%ADD23R,2.500000X2.500000*%
%ADD24O,2.500000X2.500000*%
%ADD25R,3.000000X3.000000*%
%ADD26C,3.000000*%
%ADD27R,3.500000X3.500000*%
%ADD28C,2.000000*%
%ADD29O,1.800000X1.800000*%
%ADD30C,1.500000*%
%ADD31C,1.524000*%
%ADD32O,2.000000X3.500000*%
%ADD33O,4.000000X2.000000*%
%ADD34C,0.600000*%
%ADD35C,0.500000*%
%ADD36C,0.350000*%
G04 APERTURE END LIST*
D10*
D11*
X124405000Y-101045000D03*
X121905000Y-101045000D03*
X75185000Y-67215000D03*
X75185000Y-69715000D03*
D12*
X89795000Y-73985000D03*
D11*
X92295000Y-73985000D03*
X82645000Y-113545000D03*
D13*
X90265000Y-113545000D03*
D11*
X153575000Y-88200000D03*
X156075000Y-88200000D03*
D14*
X160475000Y-90385000D03*
X160475000Y-87845000D03*
D15*
X160475000Y-92925000D03*
D11*
X156325000Y-75125000D03*
D13*
X166485000Y-75125000D03*
D11*
X156475000Y-81825000D03*
D13*
X148855000Y-81825000D03*
D11*
X179000000Y-73000000D03*
D13*
X186620000Y-73000000D03*
D11*
X187300000Y-94150000D03*
D13*
X179680000Y-94150000D03*
D12*
X124300000Y-127650000D03*
D13*
X116680000Y-120030000D03*
X124300000Y-125110000D03*
X116680000Y-122570000D03*
X124300000Y-122570000D03*
X116680000Y-125110000D03*
X124300000Y-120030000D03*
X116680000Y-127650000D03*
D16*
X123650000Y-138875000D03*
X118650000Y-138875000D03*
X128650000Y-138875000D03*
D11*
X117825000Y-105700000D03*
D13*
X117825000Y-113320000D03*
D12*
X158800000Y-115775000D03*
D13*
X151180000Y-115775000D03*
D17*
X140475000Y-91525000D03*
D18*
X140475000Y-88985000D03*
X140475000Y-86445000D03*
D11*
X118975000Y-89350000D03*
D13*
X111355000Y-89350000D03*
D11*
X121175000Y-105700000D03*
D13*
X121175000Y-113320000D03*
D11*
X80850000Y-120200000D03*
X83350000Y-120200000D03*
X89485000Y-94995000D03*
X91985000Y-94995000D03*
D12*
X61325000Y-61915000D03*
D11*
X63825000Y-61915000D03*
X68595000Y-79515000D03*
X68595000Y-84515000D03*
X64825000Y-79515000D03*
X64825000Y-84515000D03*
X89725000Y-82825000D03*
X89725000Y-85325000D03*
X63145000Y-94495000D03*
X68145000Y-94495000D03*
X63155000Y-98045000D03*
X68155000Y-98045000D03*
X70325000Y-122575000D03*
X72825000Y-122575000D03*
X62215000Y-122795000D03*
X64715000Y-122795000D03*
D12*
X108075000Y-84965000D03*
D11*
X108075000Y-82465000D03*
X112825000Y-85725000D03*
X112825000Y-83225000D03*
D12*
X81050000Y-136900000D03*
D11*
X78550000Y-136900000D03*
X62725000Y-134535000D03*
X60225000Y-134535000D03*
X54535000Y-132815000D03*
X57035000Y-132815000D03*
D12*
X66665000Y-127495000D03*
D11*
X66665000Y-129995000D03*
X127200000Y-68075000D03*
X122200000Y-68075000D03*
X129875000Y-69725000D03*
X134875000Y-69725000D03*
X166375000Y-92550000D03*
X166375000Y-90050000D03*
X116500000Y-130975000D03*
X114000000Y-130975000D03*
X187525000Y-120125000D03*
X185025000Y-120125000D03*
X162650000Y-124450000D03*
X167650000Y-124450000D03*
X171525000Y-120550000D03*
X171525000Y-125550000D03*
X162575000Y-128425000D03*
X167575000Y-128425000D03*
X102575000Y-117700000D03*
X105075000Y-117700000D03*
X89550000Y-134650000D03*
X92050000Y-134650000D03*
X113325000Y-122500000D03*
X113325000Y-127500000D03*
D19*
X51045000Y-71325000D03*
D20*
X58665000Y-71325000D03*
D12*
X85935000Y-66145000D03*
D13*
X78315000Y-66145000D03*
D21*
X59635000Y-90705000D03*
D22*
X57095000Y-90705000D03*
D23*
X129275000Y-76675000D03*
D24*
X136895000Y-76675000D03*
D23*
X129350000Y-85350000D03*
D24*
X136970000Y-85350000D03*
D23*
X129300000Y-80800000D03*
D24*
X136920000Y-80800000D03*
D23*
X129375000Y-89600000D03*
D24*
X136995000Y-89600000D03*
D25*
X73735000Y-60295000D03*
D26*
X68655000Y-60295000D03*
D27*
X54955000Y-67305000D03*
X54955000Y-61305000D03*
X50255000Y-64305000D03*
D17*
X63025000Y-69775000D03*
D18*
X65565000Y-69775000D03*
X68105000Y-69775000D03*
X70645000Y-69775000D03*
D25*
X68695000Y-137195000D03*
D26*
X73775000Y-137195000D03*
D11*
X64315000Y-76545000D03*
D13*
X74475000Y-76545000D03*
D11*
X64355000Y-73135000D03*
D13*
X74515000Y-73135000D03*
D11*
X108935000Y-88515000D03*
D13*
X98775000Y-88515000D03*
D11*
X102815000Y-74625000D03*
D13*
X102815000Y-84785000D03*
D11*
X176300000Y-119225000D03*
D13*
X176300000Y-129385000D03*
D11*
X157550000Y-132025000D03*
D13*
X167710000Y-132025000D03*
D11*
X103075000Y-101475000D03*
D13*
X103075000Y-91315000D03*
D14*
X144950000Y-134485000D03*
X144950000Y-131945000D03*
D15*
X144950000Y-137025000D03*
D14*
X119310000Y-72125000D03*
X116770000Y-72125000D03*
D15*
X121850000Y-72125000D03*
D14*
X174340000Y-77550000D03*
X176880000Y-77550000D03*
D15*
X171800000Y-77550000D03*
D14*
X93585000Y-117900000D03*
X91045000Y-117900000D03*
D15*
X96125000Y-117900000D03*
D16*
X90825000Y-138750000D03*
X85825000Y-138750000D03*
X95825000Y-138750000D03*
D28*
X78825000Y-73615000D03*
X78825000Y-69115000D03*
X85325000Y-73615000D03*
X85325000Y-69115000D03*
X70745000Y-113075000D03*
X75245000Y-113075000D03*
X70745000Y-119575000D03*
X75245000Y-119575000D03*
X54325000Y-112815000D03*
X58825000Y-112815000D03*
X54325000Y-119315000D03*
X58825000Y-119315000D03*
X54445000Y-122985000D03*
X58945000Y-122985000D03*
X54445000Y-129485000D03*
X58945000Y-129485000D03*
X62365000Y-112925000D03*
X66865000Y-112925000D03*
X62365000Y-119425000D03*
X66865000Y-119425000D03*
D21*
X82295000Y-59705000D03*
D29*
X84835000Y-59705000D03*
X87375000Y-59705000D03*
D30*
X72775000Y-92125000D03*
X72775000Y-97005000D03*
X119300000Y-83525000D03*
X124180000Y-83525000D03*
D12*
X78675000Y-77165000D03*
D13*
X86295000Y-110185000D03*
X78675000Y-79705000D03*
X86295000Y-107645000D03*
X78675000Y-82245000D03*
X86295000Y-105105000D03*
X78675000Y-84785000D03*
X86295000Y-102565000D03*
X78675000Y-87325000D03*
X86295000Y-100025000D03*
X78675000Y-89865000D03*
X86295000Y-97485000D03*
X78675000Y-92405000D03*
X86295000Y-94945000D03*
X78675000Y-94945000D03*
X86295000Y-92405000D03*
X78675000Y-97485000D03*
X86295000Y-89865000D03*
X78675000Y-100025000D03*
X86295000Y-87325000D03*
X78675000Y-102565000D03*
X86295000Y-84785000D03*
X78675000Y-105105000D03*
X86295000Y-82245000D03*
X78675000Y-107645000D03*
X86295000Y-79705000D03*
X78675000Y-110185000D03*
X86295000Y-77165000D03*
D17*
X94735000Y-105175000D03*
D18*
X92195000Y-105175000D03*
X94735000Y-102635000D03*
X92195000Y-102635000D03*
X94735000Y-100095000D03*
X92195000Y-100095000D03*
D11*
X72815000Y-126905000D03*
X72815000Y-129405000D03*
D12*
X83675000Y-131325000D03*
D13*
X76055000Y-123705000D03*
X83675000Y-128785000D03*
X76055000Y-126245000D03*
X83675000Y-126245000D03*
X76055000Y-128785000D03*
X83675000Y-123705000D03*
X76055000Y-131325000D03*
D14*
X181985000Y-89550000D03*
X179445000Y-89550000D03*
D15*
X184525000Y-89550000D03*
D14*
X174310000Y-89625000D03*
X171770000Y-89625000D03*
D15*
X176850000Y-89625000D03*
D14*
X181915000Y-77525000D03*
X184455000Y-77525000D03*
D15*
X179375000Y-77525000D03*
D12*
X139775000Y-71150000D03*
D11*
X139775000Y-68650000D03*
D16*
X58385000Y-80835000D03*
X53345000Y-83335000D03*
X53345000Y-78335000D03*
D17*
X47175000Y-72185000D03*
D18*
X47175000Y-74725000D03*
X47175000Y-77265000D03*
X47175000Y-79805000D03*
X47175000Y-82345000D03*
X47175000Y-84885000D03*
X47175000Y-87425000D03*
X47175000Y-89965000D03*
X47175000Y-92505000D03*
X47175000Y-95045000D03*
X47175000Y-97585000D03*
X47175000Y-100125000D03*
X47175000Y-102665000D03*
X47175000Y-105205000D03*
X47175000Y-107745000D03*
X47175000Y-110285000D03*
D11*
X51205000Y-75075000D03*
X53705000Y-75075000D03*
D17*
X100855000Y-108285000D03*
D18*
X100855000Y-105745000D03*
D11*
X85995000Y-63155000D03*
D13*
X78375000Y-63155000D03*
D11*
X52005000Y-98225000D03*
D13*
X59625000Y-98225000D03*
D11*
X65465000Y-109385000D03*
D13*
X65465000Y-101765000D03*
D11*
X59625000Y-94855000D03*
D13*
X52005000Y-94855000D03*
D11*
X75215000Y-109415000D03*
D13*
X75215000Y-101795000D03*
D11*
X99685000Y-91845000D03*
D13*
X99685000Y-99465000D03*
D11*
X139625000Y-61575000D03*
D13*
X147245000Y-61575000D03*
D11*
X137100000Y-66350000D03*
D13*
X129480000Y-66350000D03*
D11*
X87100000Y-128100000D03*
D13*
X87100000Y-120480000D03*
D11*
X62165000Y-109355000D03*
D13*
X62165000Y-101735000D03*
D11*
X55495000Y-109345000D03*
D13*
X55495000Y-101725000D03*
D11*
X147250000Y-64725000D03*
D13*
X139630000Y-64725000D03*
D11*
X112600000Y-78275000D03*
D13*
X112600000Y-70655000D03*
D11*
X111975000Y-67700000D03*
D13*
X119595000Y-67700000D03*
D11*
X132325000Y-72875000D03*
D13*
X124705000Y-72875000D03*
D11*
X153275000Y-133350000D03*
D13*
X153275000Y-125730000D03*
D11*
X109950000Y-123475000D03*
D13*
X109950000Y-131095000D03*
D11*
X103375000Y-123375000D03*
D13*
X103375000Y-130995000D03*
D11*
X106600000Y-125700000D03*
D13*
X106600000Y-133320000D03*
D11*
X71955000Y-109365000D03*
D13*
X71955000Y-101745000D03*
D11*
X87345000Y-116955000D03*
D13*
X79725000Y-116955000D03*
D11*
X95575000Y-135500000D03*
D13*
X95575000Y-127880000D03*
D11*
X68675000Y-109385000D03*
D13*
X68675000Y-101765000D03*
D11*
X91850000Y-124050000D03*
D13*
X91850000Y-131670000D03*
D11*
X99300000Y-137050000D03*
D13*
X99300000Y-129430000D03*
D11*
X130275000Y-131300000D03*
D13*
X122655000Y-131300000D03*
D11*
X169000000Y-72900000D03*
D13*
X176620000Y-72900000D03*
D11*
X176975000Y-94100000D03*
D13*
X169355000Y-94100000D03*
D11*
X52275000Y-109325000D03*
D13*
X52275000Y-101705000D03*
D11*
X58825000Y-109345000D03*
D13*
X58825000Y-101725000D03*
D11*
X99325000Y-119375000D03*
D13*
X99325000Y-126995000D03*
D11*
X60545000Y-75055000D03*
X58045000Y-75055000D03*
D17*
X171675000Y-117375000D03*
D18*
X171675000Y-114835000D03*
D11*
X112050000Y-119725000D03*
X109550000Y-119725000D03*
D12*
X114035000Y-106075000D03*
D13*
X106415000Y-106075000D03*
D12*
X114025000Y-108855000D03*
D13*
X106405000Y-108855000D03*
D11*
X110255000Y-99755000D03*
D13*
X110255000Y-92135000D03*
D11*
X106925000Y-99715000D03*
D13*
X106925000Y-92095000D03*
D11*
X129500000Y-94900000D03*
D13*
X137120000Y-94900000D03*
D11*
X129550000Y-98175000D03*
D13*
X137170000Y-98175000D03*
D30*
X115000000Y-95225000D03*
X115000000Y-100105000D03*
D11*
X157575000Y-120625000D03*
D13*
X167735000Y-120625000D03*
D30*
X181945000Y-129425000D03*
X181945000Y-126885000D03*
D25*
X184673000Y-131711000D03*
D26*
X184673000Y-126631000D03*
D19*
X179150000Y-65725000D03*
D20*
X186770000Y-65725000D03*
D22*
X187775000Y-106465000D03*
X187775000Y-116625000D03*
X187775000Y-111545000D03*
X180175000Y-111545000D03*
X180175000Y-106465000D03*
X180175000Y-116625000D03*
X187775000Y-98845000D03*
X180175000Y-98845000D03*
D11*
X140350000Y-116275000D03*
X142850000Y-116275000D03*
D12*
X158450000Y-105625000D03*
D13*
X158450000Y-113245000D03*
D12*
X148325000Y-105800000D03*
D13*
X155945000Y-105800000D03*
D12*
X148675000Y-116050000D03*
D13*
X148675000Y-108430000D03*
D11*
X137575000Y-116250000D03*
D13*
X129955000Y-116250000D03*
D11*
X150100000Y-140325000D03*
D13*
X142480000Y-140325000D03*
D11*
X177025000Y-104050000D03*
D13*
X169405000Y-104050000D03*
D12*
X151550000Y-64400000D03*
D11*
X151550000Y-61900000D03*
D19*
X178325000Y-61975000D03*
D20*
X170705000Y-61975000D03*
D14*
X147315000Y-69600000D03*
X149855000Y-69600000D03*
D15*
X144775000Y-69600000D03*
D11*
X168600000Y-65600000D03*
D13*
X176220000Y-65600000D03*
D11*
X167900000Y-61950000D03*
D13*
X160280000Y-61950000D03*
D17*
X93115000Y-89915000D03*
D18*
X93115000Y-87375000D03*
X93115000Y-84835000D03*
D17*
X157425000Y-64650000D03*
D18*
X157425000Y-62110000D03*
D11*
X169375000Y-100700000D03*
D13*
X176995000Y-100700000D03*
D12*
X107900000Y-136550000D03*
D11*
X107900000Y-139050000D03*
D12*
X113155000Y-115105000D03*
D11*
X110655000Y-115105000D03*
D30*
X166815000Y-106615000D03*
X166815000Y-114235000D03*
X164275000Y-106615000D03*
X164275000Y-114235000D03*
X161735000Y-106615000D03*
X161735000Y-114235000D03*
X155985000Y-101640000D03*
X148365000Y-101640000D03*
X155985000Y-99100000D03*
X148365000Y-99100000D03*
X155985000Y-96560000D03*
X148365000Y-96560000D03*
D17*
X175625000Y-132425000D03*
D18*
X173085000Y-132425000D03*
D31*
X178410000Y-138725000D03*
X170790000Y-138725000D03*
X174536500Y-135931000D03*
X174536500Y-141519000D03*
D21*
X164600000Y-139550000D03*
D22*
X167140000Y-139550000D03*
D11*
X160200000Y-135675000D03*
D13*
X167820000Y-135675000D03*
D17*
X158525000Y-127400000D03*
D18*
X158525000Y-124860000D03*
D12*
X166375000Y-78325000D03*
D13*
X158755000Y-78325000D03*
D11*
X148750000Y-92350000D03*
D13*
X156370000Y-92350000D03*
D11*
X108900000Y-75475000D03*
X108900000Y-77975000D03*
X158925000Y-95900000D03*
D13*
X166545000Y-95900000D03*
D11*
X156500000Y-78600000D03*
D13*
X148880000Y-78600000D03*
D11*
X161125000Y-71775000D03*
X158625000Y-71775000D03*
X166375000Y-85075000D03*
D13*
X158755000Y-85075000D03*
D11*
X122100000Y-89250000D03*
X124600000Y-89250000D03*
D12*
X154425000Y-139050000D03*
D11*
X154425000Y-136550000D03*
D12*
X138250000Y-137800000D03*
D11*
X138250000Y-140300000D03*
X145825000Y-89725000D03*
X145825000Y-92225000D03*
D12*
X130575000Y-123250000D03*
D11*
X130575000Y-120750000D03*
D12*
X114900000Y-135500000D03*
D11*
X112400000Y-135500000D03*
X136775000Y-130450000D03*
X134275000Y-130450000D03*
X130200000Y-102075000D03*
X132700000Y-102075000D03*
X145875000Y-83350000D03*
X145875000Y-85850000D03*
X95600000Y-124900000D03*
X95600000Y-122400000D03*
D19*
X129400000Y-61525000D03*
D20*
X137020000Y-61525000D03*
D17*
X175850000Y-108950000D03*
D18*
X175850000Y-111490000D03*
X175850000Y-114030000D03*
D11*
X149350000Y-119900000D03*
D13*
X149350000Y-130060000D03*
D14*
X132760000Y-106675000D03*
X130220000Y-106675000D03*
D15*
X135300000Y-106675000D03*
D14*
X139875000Y-122035000D03*
X139875000Y-119495000D03*
D15*
X139875000Y-124575000D03*
D14*
X124090000Y-62325000D03*
X126630000Y-62325000D03*
D15*
X121550000Y-62325000D03*
D14*
X162940000Y-66725000D03*
X165480000Y-66725000D03*
D15*
X160400000Y-66725000D03*
D11*
X143000000Y-102500000D03*
D13*
X143000000Y-94880000D03*
D11*
X125300000Y-111550000D03*
D13*
X132920000Y-111550000D03*
D11*
X142175000Y-105800000D03*
D13*
X142175000Y-113420000D03*
D11*
X145075000Y-120550000D03*
D13*
X145075000Y-128170000D03*
D11*
X133650000Y-133125000D03*
D13*
X133650000Y-140745000D03*
D11*
X138875000Y-113475000D03*
D13*
X138875000Y-105855000D03*
D11*
X140425000Y-127075000D03*
D13*
X140425000Y-134695000D03*
D11*
X135400000Y-120150000D03*
D13*
X135400000Y-127770000D03*
D11*
X116575000Y-116600000D03*
D13*
X124195000Y-116600000D03*
D11*
X130250000Y-134875000D03*
D13*
X122630000Y-134875000D03*
D11*
X118975000Y-63825000D03*
D13*
X111355000Y-63825000D03*
D11*
X156550000Y-85025000D03*
D13*
X148930000Y-85025000D03*
D11*
X158725000Y-81600000D03*
D13*
X166345000Y-81600000D03*
D11*
X140425000Y-74025000D03*
D13*
X140425000Y-81645000D03*
D11*
X139875000Y-102425000D03*
D13*
X139875000Y-94805000D03*
D30*
X119275000Y-77825000D03*
X124155000Y-77825000D03*
D11*
X153350000Y-122775000D03*
X153350000Y-120275000D03*
X149250000Y-132525000D03*
X149250000Y-137525000D03*
D32*
X107225000Y-63225000D03*
X93525000Y-63225000D03*
D12*
X99075000Y-66075000D03*
D11*
X101675000Y-66075000D03*
X96975000Y-66075000D03*
X103775000Y-66075000D03*
X96975000Y-68875000D03*
X103775000Y-68875000D03*
D33*
X100375000Y-62425000D03*
D11*
X96095000Y-72175000D03*
D13*
X96095000Y-79795000D03*
D11*
X99285000Y-79785000D03*
D13*
X99285000Y-72165000D03*
D34*
X97745000Y-86955000D03*
X96835000Y-97685000D03*
X97585000Y-93935000D03*
X95175000Y-80985000D03*
X95055000Y-84475000D03*
X65295000Y-104415000D03*
X52185000Y-107225000D03*
X58725000Y-105845000D03*
X91565000Y-78005000D03*
X88985000Y-80715000D03*
D35*
X106415000Y-106075000D02*
X105385000Y-106075000D01*
X119665000Y-104025000D02*
X121175000Y-105535000D01*
X117205000Y-104025000D02*
X119665000Y-104025000D01*
X116235000Y-104995000D02*
X117205000Y-104025000D01*
X116235000Y-109665000D02*
X116235000Y-104995000D01*
X115075000Y-110825000D02*
X116235000Y-109665000D01*
X105795000Y-110825000D02*
X115075000Y-110825000D01*
X104795000Y-109825000D02*
X105795000Y-110825000D01*
X104795000Y-106665000D02*
X104795000Y-109825000D01*
X105385000Y-106075000D02*
X104795000Y-106665000D01*
X121175000Y-105535000D02*
X121175000Y-105700000D01*
X124617500Y-114292500D02*
X124542500Y-114292500D01*
X123245000Y-107770000D02*
X121175000Y-105700000D01*
X123245000Y-112995000D02*
X123245000Y-107770000D01*
X124542500Y-114292500D02*
X123245000Y-112995000D01*
X97875000Y-86825000D02*
X97875000Y-79795000D01*
X97745000Y-86955000D02*
X97875000Y-86825000D01*
X97875000Y-79795000D02*
X99275000Y-79795000D01*
D36*
X100855000Y-105745000D02*
X100295000Y-105745000D01*
X100295000Y-105745000D02*
X97705000Y-103155000D01*
X97705000Y-103155000D02*
X97705000Y-98185000D01*
X97705000Y-98185000D02*
X98240000Y-97650000D01*
D35*
X91135000Y-96645000D02*
X97235000Y-96645000D01*
X97235000Y-96645000D02*
X98240000Y-97650000D01*
X98240000Y-97650000D02*
X98610002Y-98020002D01*
D36*
X55015000Y-85835000D02*
X49325000Y-85835000D01*
X44895000Y-76225000D02*
X46395000Y-74725000D01*
X44895000Y-84765000D02*
X44895000Y-76225000D01*
X46275000Y-86145000D02*
X44895000Y-84765000D01*
X49015000Y-86145000D02*
X46275000Y-86145000D01*
X49325000Y-85835000D02*
X49015000Y-86145000D01*
X46395000Y-74725000D02*
X47175000Y-74725000D01*
D35*
X51205000Y-75075000D02*
X51205000Y-74575000D01*
X51205000Y-74575000D02*
X52345000Y-73435000D01*
X81555000Y-63155000D02*
X85995000Y-63155000D01*
X79475000Y-61075000D02*
X81555000Y-63155000D01*
X77375000Y-61075000D02*
X79475000Y-61075000D01*
X74515000Y-63935000D02*
X77375000Y-61075000D01*
X72615000Y-63935000D02*
X74515000Y-63935000D01*
X70595000Y-65955000D02*
X72615000Y-63935000D01*
X62215000Y-65955000D02*
X70595000Y-65955000D01*
X61075000Y-67095000D02*
X62215000Y-65955000D01*
X61075000Y-72375000D02*
X61075000Y-67095000D01*
X61935000Y-73235000D02*
X61075000Y-72375000D01*
X61935000Y-76085000D02*
X61935000Y-73235000D01*
X61145000Y-76875000D02*
X61935000Y-76085000D01*
X56415000Y-76875000D02*
X61145000Y-76875000D01*
X55395000Y-75855000D02*
X56415000Y-76875000D01*
X55395000Y-74575000D02*
X55395000Y-75855000D01*
X54255000Y-73435000D02*
X55395000Y-74575000D01*
X52345000Y-73435000D02*
X54255000Y-73435000D01*
X89795000Y-73985000D02*
X89795000Y-69455000D01*
X89795000Y-69455000D02*
X86485000Y-66145000D01*
X86485000Y-66145000D02*
X85935000Y-66145000D01*
X99285000Y-79785000D02*
X99285000Y-78525000D01*
X101705000Y-68145000D02*
X103775000Y-66075000D01*
X101705000Y-72725000D02*
X101705000Y-68145000D01*
X100635000Y-73795000D02*
X101705000Y-72725000D01*
X100635000Y-77175000D02*
X100635000Y-73795000D01*
X99285000Y-78525000D02*
X100635000Y-77175000D01*
X87375000Y-59705000D02*
X87375000Y-61775000D01*
X87375000Y-61775000D02*
X85995000Y-63155000D01*
X96095000Y-79795000D02*
X97875000Y-79795000D01*
X99275000Y-79795000D02*
X99285000Y-79785000D01*
X51205000Y-75075000D02*
X47525000Y-75075000D01*
X47525000Y-75075000D02*
X47175000Y-74725000D01*
X89485000Y-94995000D02*
X89485000Y-90655000D01*
X90265000Y-89875000D02*
X93115000Y-89915000D01*
X89485000Y-90655000D02*
X90265000Y-89875000D01*
D36*
X87045000Y-60035000D02*
X87375000Y-59705000D01*
X85935000Y-66145000D02*
X85935000Y-63215000D01*
X85935000Y-63215000D02*
X85995000Y-63155000D01*
D35*
X87375000Y-59705000D02*
X102235000Y-59735000D01*
X102235000Y-59735000D02*
X103775000Y-61275000D01*
X103775000Y-61275000D02*
X103775000Y-66075000D01*
X106415000Y-106075000D02*
X106415000Y-101845000D01*
X104735000Y-100225000D02*
X102530002Y-98020002D01*
X102530002Y-98020002D02*
X98610002Y-98020002D01*
X106415000Y-101845000D02*
X104735000Y-100165000D01*
X104735000Y-100165000D02*
X104735000Y-100225000D01*
X91135000Y-96645000D02*
X89485000Y-94995000D01*
D36*
X53345000Y-83335000D02*
X53345000Y-84465000D01*
X53345000Y-84465000D02*
X54715000Y-85835000D01*
X54715000Y-85835000D02*
X55015000Y-85835000D01*
X55015000Y-85835000D02*
X60165000Y-85835000D01*
X60165000Y-85835000D02*
X61685000Y-87355000D01*
X61685000Y-87355000D02*
X61685000Y-89345000D01*
X61685000Y-89345000D02*
X61685000Y-92795000D01*
X61685000Y-92795000D02*
X59625000Y-94855000D01*
X59625000Y-98225000D02*
X59625000Y-94855000D01*
D35*
X89485000Y-94995000D02*
X89485000Y-95915000D01*
X87915000Y-97485000D02*
X86295000Y-97485000D01*
X89485000Y-95915000D02*
X87915000Y-97485000D01*
D36*
X89355000Y-94865000D02*
X89485000Y-94995000D01*
D35*
X89485000Y-94995000D02*
X89445000Y-94995000D01*
X121175000Y-105425000D02*
X121175000Y-105700000D01*
X121175000Y-105215000D02*
X121175000Y-105700000D01*
X47225000Y-74675000D02*
X47175000Y-74725000D01*
D36*
X59625000Y-98225000D02*
X59625000Y-99145000D01*
X59625000Y-99145000D02*
X60695000Y-100215000D01*
X68675000Y-101765000D02*
X68675000Y-101005000D01*
X68675000Y-101005000D02*
X69465000Y-100215000D01*
X62165000Y-101735000D02*
X62165000Y-100865000D01*
X62165000Y-100865000D02*
X62815000Y-100215000D01*
X75215000Y-101795000D02*
X75215000Y-101325000D01*
X75215000Y-101325000D02*
X74105000Y-100215000D01*
X74105000Y-100215000D02*
X69465000Y-100215000D01*
X69465000Y-100215000D02*
X62815000Y-100215000D01*
X62815000Y-100215000D02*
X60695000Y-100215000D01*
X60695000Y-100215000D02*
X57005000Y-100215000D01*
X57005000Y-100215000D02*
X55495000Y-101725000D01*
X69115000Y-101725000D02*
X69115000Y-101775000D01*
D35*
X116680000Y-127650000D02*
X119375000Y-127650000D01*
X121675000Y-116725000D02*
X124362500Y-114037500D01*
X121675000Y-125350000D02*
X121675000Y-116725000D01*
X119375000Y-127650000D02*
X121675000Y-125350000D01*
X116680000Y-127650000D02*
X116680000Y-130795000D01*
X116680000Y-130795000D02*
X116500000Y-130975000D01*
X135400000Y-120150000D02*
X139220000Y-120150000D01*
X139220000Y-120150000D02*
X139875000Y-119495000D01*
X124362500Y-114037500D02*
X124617500Y-114292500D01*
X124617500Y-114292500D02*
X125075000Y-114750000D01*
X139055000Y-118675000D02*
X139875000Y-119495000D01*
X129150000Y-118675000D02*
X139055000Y-118675000D01*
X125225000Y-114750000D02*
X129150000Y-118675000D01*
X125075000Y-114750000D02*
X125225000Y-114750000D01*
D36*
X94735000Y-100095000D02*
X94735000Y-99785000D01*
X94735000Y-99785000D02*
X96835000Y-97685000D01*
X97585000Y-93935000D02*
X97015000Y-93365000D01*
X97015000Y-93365000D02*
X97015000Y-83025000D01*
X97015000Y-83025000D02*
X95725000Y-81735000D01*
X95725000Y-81735000D02*
X92965000Y-81735000D01*
X92965000Y-81735000D02*
X87845000Y-76615000D01*
X87845000Y-76615000D02*
X87845000Y-76135000D01*
X87845000Y-76135000D02*
X85325000Y-73615000D01*
X75185000Y-67215000D02*
X75415000Y-67215000D01*
X75415000Y-67215000D02*
X76485000Y-66145000D01*
X76485000Y-66145000D02*
X78315000Y-66145000D01*
X85325000Y-73615000D02*
X78825000Y-73615000D01*
X78675000Y-77165000D02*
X78675000Y-73765000D01*
X78675000Y-73765000D02*
X78825000Y-73615000D01*
X78315000Y-66145000D02*
X79525000Y-66145000D01*
X80715000Y-71725000D02*
X78825000Y-73615000D01*
X80715000Y-67335000D02*
X80715000Y-71725000D01*
X79525000Y-66145000D02*
X80715000Y-67335000D01*
X78135000Y-63395000D02*
X78375000Y-63155000D01*
X78315000Y-66145000D02*
X78315000Y-63215000D01*
X78315000Y-63215000D02*
X78375000Y-63155000D01*
X75185000Y-69715000D02*
X70705000Y-69715000D01*
X70705000Y-69715000D02*
X70645000Y-69775000D01*
X70645000Y-69775000D02*
X70815000Y-69775000D01*
D35*
X102815000Y-74625000D02*
X102815000Y-73935000D01*
X102815000Y-73935000D02*
X106145000Y-70605000D01*
X106145000Y-70605000D02*
X106145000Y-65105000D01*
X106145000Y-65105000D02*
X105005000Y-63965000D01*
X105005000Y-63965000D02*
X105005000Y-60125000D01*
X105005000Y-60125000D02*
X102565000Y-57685000D01*
X102565000Y-57685000D02*
X84315000Y-57685000D01*
X84315000Y-57685000D02*
X82295000Y-59705000D01*
X54955000Y-67305000D02*
X45905000Y-67305000D01*
X71795000Y-126905000D02*
X72815000Y-126905000D01*
X70335000Y-128365000D02*
X71795000Y-126905000D01*
X70335000Y-131295000D02*
X70335000Y-128365000D01*
X71245000Y-132205000D02*
X70335000Y-131295000D01*
X71245000Y-141655000D02*
X71245000Y-132205000D01*
X70515000Y-142385000D02*
X71245000Y-141655000D01*
X55485000Y-142385000D02*
X70515000Y-142385000D01*
X43925000Y-130825000D02*
X55485000Y-142385000D01*
X43925000Y-69285000D02*
X43925000Y-130825000D01*
X45905000Y-67305000D02*
X43925000Y-69285000D01*
X68655000Y-60295000D02*
X68655000Y-59475000D01*
X68655000Y-59475000D02*
X70255000Y-57875000D01*
X80465000Y-57875000D02*
X82295000Y-59705000D01*
X70255000Y-57875000D02*
X80465000Y-57875000D01*
X61325000Y-61915000D02*
X61325000Y-60715000D01*
X67535000Y-59175000D02*
X68655000Y-60295000D01*
X62865000Y-59175000D02*
X67535000Y-59175000D01*
X61325000Y-60715000D02*
X62865000Y-59175000D01*
X52305000Y-71325000D02*
X54195000Y-71325000D01*
X54955000Y-70565000D02*
X54955000Y-67305000D01*
X54195000Y-71325000D02*
X54955000Y-70565000D01*
X54955000Y-67305000D02*
X60345000Y-61915000D01*
X60345000Y-61915000D02*
X61325000Y-61915000D01*
X58045000Y-75055000D02*
X58045000Y-74935000D01*
X58045000Y-74935000D02*
X54495000Y-71385000D01*
X54495000Y-71385000D02*
X54435000Y-71325000D01*
X54435000Y-71325000D02*
X52305000Y-71325000D01*
X52305000Y-71325000D02*
X51045000Y-71325000D01*
X54955000Y-67305000D02*
X54955000Y-68425000D01*
X72815000Y-126905000D02*
X73775000Y-126905000D01*
X73775000Y-126905000D02*
X74435000Y-126245000D01*
X74435000Y-126245000D02*
X76055000Y-126245000D01*
D36*
X68105000Y-69775000D02*
X68105000Y-72755000D01*
X68105000Y-72755000D02*
X64315000Y-76545000D01*
X64315000Y-76545000D02*
X65625000Y-76545000D01*
X65625000Y-76545000D02*
X68595000Y-79515000D01*
X65565000Y-69775000D02*
X65565000Y-72235000D01*
X65565000Y-72235000D02*
X65025000Y-72775000D01*
X65025000Y-72775000D02*
X64355000Y-73135000D01*
X64355000Y-73135000D02*
X63295000Y-73135000D01*
X63835000Y-79515000D02*
X64825000Y-79515000D01*
X62695000Y-78375000D02*
X63835000Y-79515000D01*
X62695000Y-73735000D02*
X62695000Y-78375000D01*
X63295000Y-73135000D02*
X62695000Y-73735000D01*
X86295000Y-87325000D02*
X88885000Y-87325000D01*
X89725000Y-86485000D02*
X89725000Y-85325000D01*
X88885000Y-87325000D02*
X89725000Y-86485000D01*
X93115000Y-87375000D02*
X86305000Y-87335000D01*
X86305000Y-87335000D02*
X86295000Y-87325000D01*
X86295000Y-87325000D02*
X86295000Y-87135000D01*
X68145000Y-94495000D02*
X70405000Y-94495000D01*
X70405000Y-94495000D02*
X72775000Y-92125000D01*
X78675000Y-97485000D02*
X77145000Y-97485000D01*
X72775000Y-93115000D02*
X72775000Y-92125000D01*
X77145000Y-97485000D02*
X72775000Y-93115000D01*
X68155000Y-98045000D02*
X71735000Y-98045000D01*
X71735000Y-98045000D02*
X72775000Y-97005000D01*
X72775000Y-97005000D02*
X73345000Y-97005000D01*
X73345000Y-97005000D02*
X76365000Y-100025000D01*
X76365000Y-100025000D02*
X78675000Y-100025000D01*
X68675000Y-109385000D02*
X65465000Y-109385000D01*
X65465000Y-109385000D02*
X65465000Y-111525000D01*
X65465000Y-111525000D02*
X66865000Y-112925000D01*
X66865000Y-119425000D02*
X66865000Y-120645000D01*
X66865000Y-120645000D02*
X64715000Y-122795000D01*
X66865000Y-119425000D02*
X66865000Y-112925000D01*
D35*
X108075000Y-84965000D02*
X108100000Y-88630000D01*
X108100000Y-88630000D02*
X108935000Y-88515000D01*
X109250000Y-88830000D02*
X108935000Y-88515000D01*
X112825000Y-85725000D02*
X108225000Y-85115000D01*
X108225000Y-85115000D02*
X108075000Y-84965000D01*
X112825000Y-85725000D02*
X112825000Y-87880000D01*
X112825000Y-87880000D02*
X111355000Y-89350000D01*
X102815000Y-84785000D02*
X102815000Y-81115000D01*
X105955000Y-77975000D02*
X108900000Y-77975000D01*
X102815000Y-81115000D02*
X105955000Y-77975000D01*
X132700000Y-96300000D02*
X132700000Y-92800000D01*
X131900000Y-92000000D02*
X129025000Y-92000000D01*
X132700000Y-92800000D02*
X131900000Y-92000000D01*
X130220000Y-106675000D02*
X130175000Y-106675000D01*
X130175000Y-106675000D02*
X125300000Y-111550000D01*
X130220000Y-106675000D02*
X130220000Y-105780000D01*
X132700000Y-103300000D02*
X132700000Y-102075000D01*
X130220000Y-105780000D02*
X132700000Y-103300000D01*
X132700000Y-102075000D02*
X132700000Y-96300000D01*
X118325000Y-92000000D02*
X129025000Y-92000000D01*
X112600000Y-78275000D02*
X113825000Y-78275000D01*
X113825000Y-78275000D02*
X115750000Y-80200000D01*
X115750000Y-80200000D02*
X115750000Y-89425000D01*
X115750000Y-89425000D02*
X118325000Y-92000000D01*
X102900000Y-84700000D02*
X102815000Y-84785000D01*
X151550000Y-64400000D02*
X151550000Y-64750000D01*
X151550000Y-64750000D02*
X153525000Y-66725000D01*
X153525000Y-66725000D02*
X160400000Y-66725000D01*
X151550000Y-64400000D02*
X150700000Y-64400000D01*
X144550000Y-66375000D02*
X139775000Y-71150000D01*
X144550000Y-64500000D02*
X144550000Y-66375000D01*
X145925000Y-63125000D02*
X144550000Y-64500000D01*
X149425000Y-63125000D02*
X145925000Y-63125000D01*
X150700000Y-64400000D02*
X149425000Y-63125000D01*
X144775000Y-69600000D02*
X144450000Y-69600000D01*
X144450000Y-69600000D02*
X142900000Y-71150000D01*
X142900000Y-71150000D02*
X139775000Y-71150000D01*
X129480000Y-66350000D02*
X133850000Y-66350000D01*
X138650000Y-71150000D02*
X139775000Y-71150000D01*
X133850000Y-66350000D02*
X138650000Y-71150000D01*
X108900000Y-77975000D02*
X108075000Y-77975000D01*
X108075000Y-77975000D02*
X106950000Y-76850000D01*
X106950000Y-76850000D02*
X106950000Y-74225000D01*
X106950000Y-74225000D02*
X108975000Y-72200000D01*
X108975000Y-72200000D02*
X109925000Y-72200000D01*
X109925000Y-72200000D02*
X110150000Y-71975000D01*
X110150000Y-71975000D02*
X110150000Y-66700000D01*
X110150000Y-66700000D02*
X111335000Y-65705000D01*
X111335000Y-65705000D02*
X129165000Y-65705000D01*
X129165000Y-65705000D02*
X129480000Y-66350000D01*
X112600000Y-78275000D02*
X109200000Y-78275000D01*
X109200000Y-78275000D02*
X108900000Y-77975000D01*
X116770000Y-72125000D02*
X116770000Y-74105000D01*
X116770000Y-74105000D02*
X112600000Y-78275000D01*
X83675000Y-131325000D02*
X83675000Y-134275000D01*
X83675000Y-134275000D02*
X81050000Y-136900000D01*
X76055000Y-131325000D02*
X76055000Y-134405000D01*
X76055000Y-134405000D02*
X78550000Y-136900000D01*
X66665000Y-127495000D02*
X66665000Y-126985000D01*
X66665000Y-126985000D02*
X69035000Y-124615000D01*
X69035000Y-124615000D02*
X75145000Y-124615000D01*
X75145000Y-124615000D02*
X76055000Y-123705000D01*
X66470000Y-127340000D02*
X67110000Y-127930000D01*
X76055000Y-123705000D02*
X76055000Y-123270000D01*
X76055000Y-123270000D02*
X79125000Y-120200000D01*
X79125000Y-120200000D02*
X80850000Y-120200000D01*
X83350000Y-120200000D02*
X86995000Y-120200000D01*
X86995000Y-120200000D02*
X87100000Y-120480000D01*
X66665000Y-129995000D02*
X67655000Y-129995000D01*
X68695000Y-131035000D02*
X68695000Y-137195000D01*
X67655000Y-129995000D02*
X68695000Y-131035000D01*
X160475000Y-87845000D02*
X156430000Y-87845000D01*
X156430000Y-87845000D02*
X156075000Y-88200000D01*
X156325000Y-75125000D02*
X156325000Y-78425000D01*
X156325000Y-78425000D02*
X156500000Y-78600000D01*
X156500000Y-78600000D02*
X156500000Y-78925000D01*
X156500000Y-78925000D02*
X157500000Y-79925000D01*
X160575000Y-83255000D02*
X158755000Y-85075000D01*
X160575000Y-81050000D02*
X160575000Y-83255000D01*
X159450000Y-79925000D02*
X160575000Y-81050000D01*
X157500000Y-79925000D02*
X159450000Y-79925000D01*
X158755000Y-85075000D02*
X159150000Y-85075000D01*
X159150000Y-85075000D02*
X160475000Y-86400000D01*
X160475000Y-86400000D02*
X160475000Y-87845000D01*
X149855000Y-69600000D02*
X156450000Y-69600000D01*
X156450000Y-69600000D02*
X158625000Y-71775000D01*
X156325000Y-75125000D02*
X156325000Y-74075000D01*
X156325000Y-74075000D02*
X158625000Y-71775000D01*
X156500000Y-78600000D02*
X156855000Y-78600000D01*
X156500000Y-78600000D02*
X156775000Y-78600000D01*
X122200000Y-68075000D02*
X119970000Y-68075000D01*
X119970000Y-68075000D02*
X119595000Y-67700000D01*
X119595000Y-67700000D02*
X119595000Y-71840000D01*
X119595000Y-71840000D02*
X119310000Y-72125000D01*
X119275000Y-77825000D02*
X119275000Y-72160000D01*
X119275000Y-72160000D02*
X119310000Y-72125000D01*
X112600000Y-70655000D02*
X117840000Y-70655000D01*
X117840000Y-70655000D02*
X119310000Y-72125000D01*
X119300000Y-83525000D02*
X119300000Y-77850000D01*
X119300000Y-77850000D02*
X119275000Y-77825000D01*
X166375000Y-90050000D02*
X166375000Y-86600000D01*
X166375000Y-86600000D02*
X166375000Y-85075000D01*
X174310000Y-85125000D02*
X166425000Y-85125000D01*
X166425000Y-85125000D02*
X166375000Y-85075000D01*
X166345000Y-81600000D02*
X166345000Y-78355000D01*
X166345000Y-78355000D02*
X166375000Y-78325000D01*
X166375000Y-85075000D02*
X166350000Y-81150000D01*
X166350000Y-81150000D02*
X166345000Y-81155000D01*
X166345000Y-81155000D02*
X166345000Y-81600000D01*
X166325000Y-85125000D02*
X166375000Y-85075000D01*
X174310000Y-89625000D02*
X174310000Y-88235000D01*
X174310000Y-88235000D02*
X174310000Y-85125000D01*
X174310000Y-85125000D02*
X174310000Y-77580000D01*
X174310000Y-77580000D02*
X174340000Y-77550000D01*
X182015000Y-88350000D02*
X182015000Y-77625000D01*
X182015000Y-77625000D02*
X181915000Y-77525000D01*
X174210000Y-79125000D02*
X174250000Y-79125000D01*
X174250000Y-79125000D02*
X181890000Y-79125000D01*
X181890000Y-79125000D02*
X181915000Y-79150000D01*
X174310000Y-87850000D02*
X181930000Y-87850000D01*
X181930000Y-87850000D02*
X182015000Y-87935000D01*
X181915000Y-77525000D02*
X181915000Y-79150000D01*
X182015000Y-87935000D02*
X182015000Y-88350000D01*
X182015000Y-88350000D02*
X182015000Y-89520000D01*
X182015000Y-89520000D02*
X181985000Y-89550000D01*
X174310000Y-89625000D02*
X174310000Y-87850000D01*
X174210000Y-79125000D02*
X174210000Y-77680000D01*
X174210000Y-77680000D02*
X174340000Y-77550000D01*
X175850000Y-108950000D02*
X180750000Y-108950000D01*
X180750000Y-108950000D02*
X183600000Y-111800000D01*
X183600000Y-111800000D02*
X183600000Y-114600000D01*
X183600000Y-114600000D02*
X185625000Y-116625000D01*
X185625000Y-116625000D02*
X187775000Y-116625000D01*
X187775000Y-116625000D02*
X187800000Y-119850000D01*
X187800000Y-119850000D02*
X187525000Y-120125000D01*
X176300000Y-119225000D02*
X184125000Y-119225000D01*
X184125000Y-119225000D02*
X185025000Y-120125000D01*
X171675000Y-117375000D02*
X169900000Y-117375000D01*
X167735000Y-119540000D02*
X167735000Y-120625000D01*
X169900000Y-117375000D02*
X167735000Y-119540000D01*
X167650000Y-124450000D02*
X167650000Y-120710000D01*
X167650000Y-120710000D02*
X167735000Y-120625000D01*
X167725000Y-120635000D02*
X167735000Y-120625000D01*
X167650000Y-124450000D02*
X167900000Y-124450000D01*
X176300000Y-119225000D02*
X177050000Y-119225000D01*
X171675000Y-117375000D02*
X174450000Y-117375000D01*
X174450000Y-117375000D02*
X176300000Y-119225000D01*
X171525000Y-125550000D02*
X172465000Y-125550000D01*
X172465000Y-125550000D02*
X176300000Y-129385000D01*
D36*
X90265000Y-113545000D02*
X96535000Y-113545000D01*
X95200000Y-131670000D02*
X91850000Y-131670000D01*
X97395000Y-129475000D02*
X95200000Y-131670000D01*
X97395000Y-114405000D02*
X97395000Y-129475000D01*
X96535000Y-113545000D02*
X97395000Y-114405000D01*
D35*
X89550000Y-134650000D02*
X89550000Y-133970000D01*
X89550000Y-133970000D02*
X91850000Y-131670000D01*
X92050000Y-134650000D02*
X92050000Y-134975000D01*
X92050000Y-134975000D02*
X95825000Y-138750000D01*
X99325000Y-126995000D02*
X99325000Y-129405000D01*
X99325000Y-129405000D02*
X99300000Y-129430000D01*
X113325000Y-127500000D02*
X113300000Y-127500000D01*
X113300000Y-127500000D02*
X112050000Y-128750000D01*
X102470000Y-132600000D02*
X99300000Y-129430000D01*
X104700000Y-132600000D02*
X102470000Y-132600000D01*
X105425000Y-131875000D02*
X104700000Y-132600000D01*
X107725000Y-131875000D02*
X105425000Y-131875000D01*
X108650000Y-132800000D02*
X107725000Y-131875000D01*
X111075000Y-132800000D02*
X108650000Y-132800000D01*
X112050000Y-131825000D02*
X111075000Y-132800000D01*
X112050000Y-128750000D02*
X112050000Y-131825000D01*
X116680000Y-125110000D02*
X115715000Y-125110000D01*
X115715000Y-125110000D02*
X113325000Y-127500000D01*
X109950000Y-123475000D02*
X109950000Y-124800000D01*
X109950000Y-124800000D02*
X112650000Y-127500000D01*
X112650000Y-127500000D02*
X113325000Y-127500000D01*
D36*
X57095000Y-90705000D02*
X57095000Y-91135000D01*
X57095000Y-91135000D02*
X53375000Y-94855000D01*
X53375000Y-94855000D02*
X52005000Y-94855000D01*
X94735000Y-102635000D02*
X94675000Y-102635000D01*
X94675000Y-102635000D02*
X93375000Y-101335000D01*
X93375000Y-101335000D02*
X87605000Y-101335000D01*
X87605000Y-101335000D02*
X86295000Y-100025000D01*
X86295000Y-105105000D02*
X87655000Y-105105000D01*
X89815000Y-102945000D02*
X91885000Y-102945000D01*
X87655000Y-105105000D02*
X89815000Y-102945000D01*
X91885000Y-102945000D02*
X92195000Y-102635000D01*
X74475000Y-76545000D02*
X74475000Y-79535000D01*
X77185000Y-82245000D02*
X78675000Y-82245000D01*
X74475000Y-79535000D02*
X77185000Y-82245000D01*
X74475000Y-76545000D02*
X74475000Y-76875000D01*
X74515000Y-73135000D02*
X75505000Y-73135000D01*
X77245000Y-79705000D02*
X78675000Y-79705000D01*
X76115000Y-78575000D02*
X77245000Y-79705000D01*
X76115000Y-73745000D02*
X76115000Y-78575000D01*
X75505000Y-73135000D02*
X76115000Y-73745000D01*
X74515000Y-73135000D02*
X74515000Y-73175000D01*
X78025000Y-79705000D02*
X78675000Y-79705000D01*
X86295000Y-107645000D02*
X86975000Y-107645000D01*
X86975000Y-107645000D02*
X88515000Y-109185000D01*
X99685000Y-102025000D02*
X99685000Y-99465000D01*
X100595000Y-102935000D02*
X99685000Y-102025000D01*
X102515000Y-102935000D02*
X100595000Y-102935000D01*
X103325000Y-104075000D02*
X102515000Y-102935000D01*
X103325000Y-109905000D02*
X103325000Y-104075000D01*
X102765000Y-110975000D02*
X103325000Y-109905000D01*
X98395000Y-110975000D02*
X102765000Y-110975000D01*
X96605000Y-109185000D02*
X98395000Y-110975000D01*
X88515000Y-109185000D02*
X96605000Y-109185000D01*
D35*
X86295000Y-107645000D02*
X86885000Y-107645000D01*
X99565000Y-99585000D02*
X99685000Y-99465000D01*
X99685000Y-99465000D02*
X99685000Y-99965000D01*
X98775000Y-88515000D02*
X98775000Y-88675000D01*
X98775000Y-88675000D02*
X99685000Y-89585000D01*
X99685000Y-89585000D02*
X99685000Y-91845000D01*
X99095000Y-88835000D02*
X98775000Y-88515000D01*
D36*
X86295000Y-110185000D02*
X95995000Y-110185000D01*
X104015000Y-102935000D02*
X103075000Y-101475000D01*
X104015000Y-110165000D02*
X104015000Y-102935000D01*
X103175000Y-111845000D02*
X104015000Y-110165000D01*
X97655000Y-111845000D02*
X103175000Y-111845000D01*
X95995000Y-110185000D02*
X97655000Y-111845000D01*
D35*
X103075000Y-101475000D02*
X102905000Y-101475000D01*
D36*
X87345000Y-116955000D02*
X87815000Y-116955000D01*
X87815000Y-116955000D02*
X88705000Y-116065000D01*
X88705000Y-116065000D02*
X91750000Y-116065000D01*
X91750000Y-116065000D02*
X93585000Y-117900000D01*
X79725000Y-116955000D02*
X79835000Y-116955000D01*
X79835000Y-116955000D02*
X80775000Y-116015000D01*
X80775000Y-116015000D02*
X80775000Y-91965000D01*
X80775000Y-91965000D02*
X78675000Y-89865000D01*
X82645000Y-113545000D02*
X82645000Y-113265000D01*
X82645000Y-113265000D02*
X81645000Y-112265000D01*
X81645000Y-112265000D02*
X81645000Y-90295000D01*
X81645000Y-90295000D02*
X78675000Y-87325000D01*
D35*
X83675000Y-128785000D02*
X84760000Y-128785000D01*
X86425000Y-135400000D02*
X89775000Y-138750000D01*
X86425000Y-130450000D02*
X86425000Y-135400000D01*
X84760000Y-128785000D02*
X86425000Y-130450000D01*
X89775000Y-138750000D02*
X90825000Y-138750000D01*
X90825000Y-138750000D02*
X89750000Y-138750000D01*
X107900000Y-139050000D02*
X107000000Y-139050000D01*
X96175000Y-134900000D02*
X95575000Y-135500000D01*
X102850000Y-134900000D02*
X96175000Y-134900000D01*
X107000000Y-139050000D02*
X102850000Y-134900000D01*
X118650000Y-138875000D02*
X108075000Y-138875000D01*
X108075000Y-138875000D02*
X107900000Y-139050000D01*
X118650000Y-138875000D02*
X119225000Y-138875000D01*
X119225000Y-138875000D02*
X121475000Y-136625000D01*
X124525000Y-133170000D02*
X122655000Y-131300000D01*
X124525000Y-136025000D02*
X124525000Y-133170000D01*
X123925000Y-136625000D02*
X124525000Y-136025000D01*
X121475000Y-136625000D02*
X123925000Y-136625000D01*
X107900000Y-139050000D02*
X108000000Y-139050000D01*
X107900000Y-139050000D02*
X107900000Y-139300000D01*
X118650000Y-138875000D02*
X119250000Y-138875000D01*
X124300000Y-127650000D02*
X124300000Y-129655000D01*
X124300000Y-129655000D02*
X122655000Y-131300000D01*
X116680000Y-122570000D02*
X113395000Y-122570000D01*
X113395000Y-122570000D02*
X113325000Y-122500000D01*
X103375000Y-123375000D02*
X103550000Y-123375000D01*
X103550000Y-123375000D02*
X105075000Y-121850000D01*
X105075000Y-121850000D02*
X112675000Y-121850000D01*
X112675000Y-121850000D02*
X113325000Y-122500000D01*
X157425000Y-62110000D02*
X151760000Y-62110000D01*
X151760000Y-62110000D02*
X151550000Y-61900000D01*
X148325000Y-105800000D02*
X148325000Y-108080000D01*
X148325000Y-108080000D02*
X148675000Y-108430000D01*
X164275000Y-106615000D02*
X164275000Y-106600000D01*
X164275000Y-106600000D02*
X162900000Y-105225000D01*
X149700000Y-107175000D02*
X148325000Y-105800000D01*
X159600000Y-107175000D02*
X149700000Y-107175000D01*
X160050000Y-106725000D02*
X159600000Y-107175000D01*
X160050000Y-105600000D02*
X160050000Y-106725000D01*
X160425000Y-105225000D02*
X160050000Y-105600000D01*
X162900000Y-105225000D02*
X160425000Y-105225000D01*
X164275000Y-106225000D02*
X164275000Y-106615000D01*
D36*
X99325000Y-119375000D02*
X99325000Y-114405000D01*
X84675000Y-89865000D02*
X86295000Y-89865000D01*
X82985000Y-91555000D02*
X84675000Y-89865000D01*
X82985000Y-111105000D02*
X82985000Y-91555000D01*
X84005000Y-112125000D02*
X82985000Y-111105000D01*
X93345000Y-112125000D02*
X84005000Y-112125000D01*
X93715000Y-112495000D02*
X93345000Y-112125000D01*
X97415000Y-112495000D02*
X93715000Y-112495000D01*
X99325000Y-114405000D02*
X97415000Y-112495000D01*
X85795000Y-89865000D02*
X86295000Y-89865000D01*
D35*
X102575000Y-117700000D02*
X101000000Y-117700000D01*
X101000000Y-117700000D02*
X99325000Y-119375000D01*
X171800000Y-77550000D02*
X171800000Y-75700000D01*
X171800000Y-75700000D02*
X169000000Y-72900000D01*
X184525000Y-89550000D02*
X184525000Y-91375000D01*
X184525000Y-91375000D02*
X187300000Y-94150000D01*
X176850000Y-89625000D02*
X176850000Y-93975000D01*
X176850000Y-93975000D02*
X176975000Y-94100000D01*
X179375000Y-77525000D02*
X179375000Y-73375000D01*
X179375000Y-73375000D02*
X179000000Y-73000000D01*
D36*
X75215000Y-109415000D02*
X71165000Y-109415000D01*
X71165000Y-109415000D02*
X71215000Y-109365000D01*
X71215000Y-109365000D02*
X71955000Y-109365000D01*
X75245000Y-113075000D02*
X75245000Y-109445000D01*
X75245000Y-109445000D02*
X75215000Y-109415000D01*
X75245000Y-119575000D02*
X75245000Y-120155000D01*
X75245000Y-120155000D02*
X72825000Y-122575000D01*
X75245000Y-119575000D02*
X75245000Y-113075000D01*
X58945000Y-129485000D02*
X58945000Y-130905000D01*
X58945000Y-130905000D02*
X57035000Y-132815000D01*
X55495000Y-109345000D02*
X52295000Y-109345000D01*
X52295000Y-109345000D02*
X52275000Y-109325000D01*
X56355000Y-112205000D02*
X56355000Y-110205000D01*
X56355000Y-110205000D02*
X55495000Y-109345000D01*
X58945000Y-122985000D02*
X58665000Y-122985000D01*
X58665000Y-122985000D02*
X56355000Y-120675000D01*
X56355000Y-120675000D02*
X56355000Y-112205000D01*
X58945000Y-129485000D02*
X58945000Y-122985000D01*
X99285000Y-73475000D02*
X99285000Y-72165000D01*
X95175000Y-80985000D02*
X94505000Y-80585000D01*
X94505000Y-80585000D02*
X94505000Y-77215000D01*
X94505000Y-77215000D02*
X95665000Y-76055000D01*
X95665000Y-76055000D02*
X96705000Y-76055000D01*
X96705000Y-76055000D02*
X99285000Y-73475000D01*
X84824998Y-103954998D02*
X84515000Y-103645000D01*
X84515000Y-103645000D02*
X84515000Y-91615000D01*
X84515000Y-91615000D02*
X85015000Y-91115000D01*
X85015000Y-91115000D02*
X86915000Y-91115000D01*
X86915000Y-91115000D02*
X89375000Y-88655000D01*
X89375000Y-88655000D02*
X94455000Y-88655000D01*
X94455000Y-88655000D02*
X95025000Y-88085000D01*
X95025000Y-88085000D02*
X95025000Y-84505000D01*
X95025000Y-84505000D02*
X95055000Y-84475000D01*
X84905002Y-103954998D02*
X84824998Y-103954998D01*
X99285000Y-72165000D02*
X99285000Y-66285000D01*
X99285000Y-66285000D02*
X99075000Y-66075000D01*
X94735000Y-105175000D02*
X94225000Y-105175000D01*
X94225000Y-105175000D02*
X92095000Y-107305000D01*
X84905002Y-103954998D02*
X86295000Y-102565000D01*
X84905002Y-105685002D02*
X84905002Y-103954998D01*
X85595000Y-106375000D02*
X84905002Y-105685002D01*
X89085000Y-106375000D02*
X85595000Y-106375000D01*
X90015000Y-107305000D02*
X89085000Y-106375000D01*
X92095000Y-107305000D02*
X90015000Y-107305000D01*
X94735000Y-105175000D02*
X94515000Y-105175000D01*
X47175000Y-107745000D02*
X46505000Y-107745000D01*
X46505000Y-107745000D02*
X45345000Y-106585000D01*
X45345000Y-106585000D02*
X45345000Y-97205000D01*
X45345000Y-97205000D02*
X46255000Y-96295000D01*
X46255000Y-96295000D02*
X50075000Y-96295000D01*
X50075000Y-96295000D02*
X52005000Y-98225000D01*
X65215000Y-104495000D02*
X65215000Y-105105000D01*
X65295000Y-104415000D02*
X65215000Y-104495000D01*
X78675000Y-105105000D02*
X65215000Y-105105000D01*
X65215000Y-105105000D02*
X51905000Y-105105000D01*
X51905000Y-105105000D02*
X47175000Y-100375000D01*
X47175000Y-100375000D02*
X47175000Y-100125000D01*
X71955000Y-101745000D02*
X71955000Y-103275000D01*
X71955000Y-103275000D02*
X72165000Y-103485000D01*
X78675000Y-102565000D02*
X77925000Y-102565000D01*
X77925000Y-102565000D02*
X77005000Y-103485000D01*
X77005000Y-103485000D02*
X72165000Y-103485000D01*
X72165000Y-103485000D02*
X51685000Y-103485000D01*
X51685000Y-103485000D02*
X49365000Y-101165000D01*
X49365000Y-101165000D02*
X49365000Y-99775000D01*
X49365000Y-99775000D02*
X47175000Y-97585000D01*
X52225000Y-107265000D02*
X52225000Y-107705000D01*
X52185000Y-107225000D02*
X52225000Y-107265000D01*
X78675000Y-110185000D02*
X78245000Y-110185000D01*
X78245000Y-110185000D02*
X75765000Y-107705000D01*
X75765000Y-107705000D02*
X52225000Y-107705000D01*
X52225000Y-107705000D02*
X50435000Y-107705000D01*
X50435000Y-107705000D02*
X47935000Y-105205000D01*
X47935000Y-105205000D02*
X47175000Y-105205000D01*
X52275000Y-101705000D02*
X52935000Y-101705000D01*
X58685000Y-105885000D02*
X58685000Y-106535000D01*
X58725000Y-105845000D02*
X58685000Y-105885000D01*
X78675000Y-107645000D02*
X77585000Y-107645000D01*
X51485000Y-106535000D02*
X47335000Y-102665000D01*
X76755000Y-106535000D02*
X58685000Y-106535000D01*
X58685000Y-106535000D02*
X51485000Y-106535000D01*
X77585000Y-107645000D02*
X76755000Y-106535000D01*
X47335000Y-102665000D02*
X47175000Y-102665000D01*
X78625000Y-107695000D02*
X78675000Y-107645000D01*
X47175000Y-77265000D02*
X47985000Y-77265000D01*
X47985000Y-77265000D02*
X51025000Y-80305000D01*
X51025000Y-80305000D02*
X57855000Y-80305000D01*
X57855000Y-80305000D02*
X58385000Y-80835000D01*
X47175000Y-79805000D02*
X48775000Y-79805000D01*
X83625000Y-82245000D02*
X86295000Y-82245000D01*
X82375000Y-83495000D02*
X83625000Y-82245000D01*
X73545000Y-83495000D02*
X82375000Y-83495000D01*
X72225000Y-82175000D02*
X73545000Y-83495000D01*
X62145000Y-82175000D02*
X72225000Y-82175000D01*
X61235000Y-83085000D02*
X62145000Y-82175000D01*
X56975000Y-83085000D02*
X61235000Y-83085000D01*
X55095000Y-80955000D02*
X56975000Y-83085000D01*
X50175000Y-80955000D02*
X55095000Y-80955000D01*
X48775000Y-79805000D02*
X50175000Y-80955000D01*
X47175000Y-84885000D02*
X49145000Y-84885000D01*
X85025000Y-86055000D02*
X86295000Y-84785000D01*
X74575000Y-86055000D02*
X85025000Y-86055000D01*
X71345000Y-82825000D02*
X74575000Y-86055000D01*
X62775000Y-82825000D02*
X71345000Y-82825000D01*
X61795000Y-83805000D02*
X62775000Y-82825000D01*
X56735000Y-83805000D02*
X61795000Y-83805000D01*
X54495000Y-81565000D02*
X56735000Y-83805000D01*
X51495000Y-81565000D02*
X54495000Y-81565000D01*
X50245000Y-82815000D02*
X51495000Y-81565000D01*
X50245000Y-83785000D02*
X50245000Y-82815000D01*
X49145000Y-84885000D02*
X50245000Y-83785000D01*
X58825000Y-119315000D02*
X58855000Y-119315000D01*
X58855000Y-119315000D02*
X60605000Y-121065000D01*
X60885000Y-133875000D02*
X60225000Y-134535000D01*
X60885000Y-128205000D02*
X60885000Y-133875000D01*
X60605000Y-127925000D02*
X60885000Y-128205000D01*
X60605000Y-121065000D02*
X60605000Y-127925000D01*
X62165000Y-109355000D02*
X58835000Y-109355000D01*
X58835000Y-109355000D02*
X58825000Y-109345000D01*
X58825000Y-112815000D02*
X58825000Y-109345000D01*
X58825000Y-119315000D02*
X58825000Y-112815000D01*
X58825000Y-112815000D02*
X59715000Y-112815000D01*
X58825000Y-112815000D02*
X59015000Y-112815000D01*
X92195000Y-105175000D02*
X92305000Y-105175000D01*
X92305000Y-105175000D02*
X93585000Y-103895000D01*
X93585000Y-103895000D02*
X95885000Y-103895000D01*
X95885000Y-103895000D02*
X97995000Y-106005000D01*
X97995000Y-106005000D02*
X97995000Y-107095000D01*
X97995000Y-107095000D02*
X99185000Y-108285000D01*
X99185000Y-108285000D02*
X100855000Y-108285000D01*
D35*
X101550000Y-123850000D02*
X101550000Y-127275000D01*
X103575000Y-129300000D02*
X103575000Y-130795000D01*
X101550000Y-127275000D02*
X103575000Y-129300000D01*
X103575000Y-130795000D02*
X103375000Y-130995000D01*
X106600000Y-125700000D02*
X102825000Y-125700000D01*
X103575000Y-119725000D02*
X109550000Y-119725000D01*
X101550000Y-121750000D02*
X103575000Y-119725000D01*
X101550000Y-124425000D02*
X101550000Y-123850000D01*
X101550000Y-123850000D02*
X101550000Y-121750000D01*
X102825000Y-125700000D02*
X101550000Y-124425000D01*
X109950000Y-131095000D02*
X103475000Y-131095000D01*
X103475000Y-131095000D02*
X103375000Y-130995000D01*
X103375000Y-130995000D02*
X103375000Y-130525000D01*
X103375000Y-130995000D02*
X103375000Y-130400000D01*
D36*
X94880000Y-83070000D02*
X91940000Y-83070000D01*
X91175000Y-81635000D02*
X89245000Y-79705000D01*
X91175000Y-82305000D02*
X91175000Y-81635000D01*
X91940000Y-83070000D02*
X91175000Y-82305000D01*
X94880000Y-83070000D02*
X95855000Y-84045000D01*
X86295000Y-79705000D02*
X89245000Y-79705000D01*
X104445000Y-97235000D02*
X106925000Y-99715000D01*
X98895000Y-97235000D02*
X104445000Y-97235000D01*
X95855000Y-94195000D02*
X98895000Y-97235000D01*
X95855000Y-84045000D02*
X95855000Y-94195000D01*
X86295000Y-79705000D02*
X86295000Y-79785000D01*
X95405000Y-82445000D02*
X92225000Y-82445000D01*
X91735000Y-81305000D02*
X89475000Y-79045000D01*
X91735000Y-81955000D02*
X91735000Y-81305000D01*
X92225000Y-82445000D02*
X91735000Y-81955000D01*
X95405000Y-82445000D02*
X96405002Y-83445002D01*
X86295000Y-77165000D02*
X86335000Y-77165000D01*
X86335000Y-77165000D02*
X88215000Y-79045000D01*
X88215000Y-79045000D02*
X89475000Y-79045000D01*
X96405002Y-83445002D02*
X96405002Y-93725000D01*
X96405002Y-93725000D02*
X99035002Y-96355000D01*
X99035002Y-96355000D02*
X106855000Y-96355000D01*
X106855000Y-96355000D02*
X110255000Y-99755000D01*
D35*
X166375000Y-92550000D02*
X166375000Y-95730000D01*
X166375000Y-95730000D02*
X166545000Y-95900000D01*
X166725000Y-95720000D02*
X166545000Y-95900000D01*
X117945000Y-102985000D02*
X120385000Y-102985000D01*
X120385000Y-102985000D02*
X121905000Y-101465000D01*
X121905000Y-101465000D02*
X121905000Y-101045000D01*
X118495000Y-102985000D02*
X117945000Y-102985000D01*
X117945000Y-102985000D02*
X113005000Y-102985000D01*
X110255000Y-93825000D02*
X110255000Y-92135000D01*
X112435000Y-96005000D02*
X110255000Y-93825000D01*
X112435000Y-102415000D02*
X112435000Y-96005000D01*
X113005000Y-102985000D02*
X112435000Y-102415000D01*
X114025000Y-108855000D02*
X114465000Y-108855000D01*
X114465000Y-108855000D02*
X115495000Y-107385000D01*
X117175000Y-102985000D02*
X118495000Y-102985000D01*
X115495000Y-104225000D02*
X117175000Y-102985000D01*
X115495000Y-107385000D02*
X115495000Y-104225000D01*
X114025000Y-108855000D02*
X114425000Y-108855000D01*
X110255000Y-92135000D02*
X110590000Y-92135000D01*
X106925000Y-92095000D02*
X110205000Y-92085000D01*
X110205000Y-92085000D02*
X110255000Y-92135000D01*
X114035000Y-106075000D02*
X112165000Y-106075000D01*
X109385000Y-108855000D02*
X106405000Y-108855000D01*
X112165000Y-106075000D02*
X109385000Y-108855000D01*
X167575000Y-128425000D02*
X167575000Y-127850000D01*
X167575000Y-127850000D02*
X165700000Y-125975000D01*
X169890000Y-114835000D02*
X171675000Y-114835000D01*
X165700000Y-119025000D02*
X169890000Y-114835000D01*
X165700000Y-125975000D02*
X165700000Y-119025000D01*
X167575000Y-128425000D02*
X169200000Y-128425000D01*
X169200000Y-128425000D02*
X169700000Y-127925000D01*
X167575000Y-128425000D02*
X167575000Y-131890000D01*
X167575000Y-131890000D02*
X167710000Y-132025000D01*
X167635000Y-128485000D02*
X167575000Y-128425000D01*
X173085000Y-132425000D02*
X172900000Y-132425000D01*
X172900000Y-132425000D02*
X169700000Y-129225000D01*
X169700000Y-129225000D02*
X169700000Y-127925000D01*
X169700000Y-127925000D02*
X169700000Y-122375000D01*
X169700000Y-122375000D02*
X171525000Y-120550000D01*
X173085000Y-132425000D02*
X172200000Y-132425000D01*
X170790000Y-133835000D02*
X170790000Y-138725000D01*
X172200000Y-132425000D02*
X170790000Y-133835000D01*
X171675000Y-114835000D02*
X175045000Y-114835000D01*
X175045000Y-114835000D02*
X175850000Y-114030000D01*
X170790000Y-138725000D02*
X170790000Y-137985000D01*
X153350000Y-122775000D02*
X153350000Y-125655000D01*
X153350000Y-125655000D02*
X153275000Y-125730000D01*
X142850000Y-116275000D02*
X143550000Y-116275000D01*
X143550000Y-116275000D02*
X144225000Y-115600000D01*
X146860000Y-101640000D02*
X148365000Y-101640000D01*
X144225000Y-104275000D02*
X146860000Y-101640000D01*
X144225000Y-115600000D02*
X144225000Y-104275000D01*
X142850000Y-116275000D02*
X143400000Y-116275000D01*
X142850000Y-116275000D02*
X142850000Y-115750000D01*
X158450000Y-105625000D02*
X156120000Y-105625000D01*
X156120000Y-105625000D02*
X155945000Y-105800000D01*
X155985000Y-99100000D02*
X156500000Y-99100000D01*
X156500000Y-99100000D02*
X158450000Y-101050000D01*
X158450000Y-101050000D02*
X158450000Y-105625000D01*
X158450000Y-113245000D02*
X158450000Y-115425000D01*
X158450000Y-115425000D02*
X158800000Y-115775000D01*
X161735000Y-114235000D02*
X159440000Y-114235000D01*
X159440000Y-114235000D02*
X158450000Y-113245000D01*
X148675000Y-116050000D02*
X150905000Y-116050000D01*
X150905000Y-116050000D02*
X151180000Y-115775000D01*
X148365000Y-96560000D02*
X148885000Y-96560000D01*
X148885000Y-96560000D02*
X150200000Y-97875000D01*
X150200000Y-97875000D02*
X150200000Y-102800000D01*
X150200000Y-102800000D02*
X149250000Y-103750000D01*
X149250000Y-103750000D02*
X147900000Y-103750000D01*
X147900000Y-103750000D02*
X146675000Y-104725000D01*
X146675000Y-104725000D02*
X146675000Y-114350000D01*
X146675000Y-114350000D02*
X148675000Y-116050000D01*
X169405000Y-104050000D02*
X169405000Y-111645000D01*
X169405000Y-111645000D02*
X166815000Y-114235000D01*
X140350000Y-116275000D02*
X137625000Y-116300000D01*
X137625000Y-116300000D02*
X137575000Y-116250000D01*
X160280000Y-61950000D02*
X160325000Y-61950000D01*
X160325000Y-61950000D02*
X161925000Y-60350000D01*
X169080000Y-60350000D02*
X170705000Y-61975000D01*
X161925000Y-60350000D02*
X169080000Y-60350000D01*
X160280000Y-61950000D02*
X160125000Y-61950000D01*
X160125000Y-61950000D02*
X157425000Y-64650000D01*
X157425000Y-64650000D02*
X157580000Y-64650000D01*
X147315000Y-69600000D02*
X147315000Y-64790000D01*
X147315000Y-64790000D02*
X147250000Y-64725000D01*
X103075000Y-91315000D02*
X103075000Y-90085000D01*
X111405000Y-63335000D02*
X111355000Y-63825000D01*
X109005000Y-65735000D02*
X111405000Y-63335000D01*
X109005000Y-70485000D02*
X109005000Y-65735000D01*
X105765000Y-73725000D02*
X109005000Y-70485000D01*
X105765000Y-76045000D02*
X105765000Y-73725000D01*
X101055000Y-80755000D02*
X105765000Y-76045000D01*
X101055000Y-88065000D02*
X101055000Y-80755000D01*
X103075000Y-90085000D02*
X101055000Y-88065000D01*
X106600000Y-133320000D02*
X106600000Y-135250000D01*
X106600000Y-135250000D02*
X107900000Y-136550000D01*
X106600000Y-133320000D02*
X106525000Y-133200000D01*
X113155000Y-115105000D02*
X115080000Y-115105000D01*
X115080000Y-115105000D02*
X116575000Y-116600000D01*
X116680000Y-120030000D02*
X112355000Y-120030000D01*
X112355000Y-120030000D02*
X112050000Y-119725000D01*
X116575000Y-116600000D02*
X117895000Y-116600000D01*
X117895000Y-116600000D02*
X121175000Y-113320000D01*
X121175000Y-113320000D02*
X121175000Y-111475000D01*
X121175000Y-111475000D02*
X117825000Y-108125000D01*
X117825000Y-108125000D02*
X117825000Y-105700000D01*
X116680000Y-120030000D02*
X116680000Y-116705000D01*
X116680000Y-116705000D02*
X116575000Y-116600000D01*
X184673000Y-131711000D02*
X176339000Y-131711000D01*
X176339000Y-131711000D02*
X175625000Y-132425000D01*
X175625000Y-132425000D02*
X176425000Y-132425000D01*
X176425000Y-132425000D02*
X178187500Y-134187500D01*
X178187500Y-134187500D02*
X178410000Y-134410000D01*
X178410000Y-134410000D02*
X178410000Y-138725000D01*
X184673000Y-131711000D02*
X184231000Y-131711000D01*
X184231000Y-131711000D02*
X181945000Y-129425000D01*
X174536500Y-141519000D02*
X169109000Y-141519000D01*
X169109000Y-141519000D02*
X167140000Y-139550000D01*
X164600000Y-139550000D02*
X164600000Y-138895000D01*
X164600000Y-138895000D02*
X167820000Y-135675000D01*
X157575000Y-120625000D02*
X157575000Y-123910000D01*
X157575000Y-123910000D02*
X158525000Y-124860000D01*
X162650000Y-124450000D02*
X158935000Y-124450000D01*
X158935000Y-124450000D02*
X158525000Y-124860000D01*
X162650000Y-124450000D02*
X162650000Y-128350000D01*
X162650000Y-128350000D02*
X162575000Y-128425000D01*
X162575000Y-128425000D02*
X162575000Y-129975000D01*
X160525000Y-132025000D02*
X157550000Y-132025000D01*
X162575000Y-129975000D02*
X160525000Y-132025000D01*
X162675000Y-124475000D02*
X162650000Y-124450000D01*
X160475000Y-90385000D02*
X152560000Y-90385000D01*
X151400000Y-82530000D02*
X152105000Y-81825000D01*
X151400000Y-89225000D02*
X151400000Y-82530000D01*
X152560000Y-90385000D02*
X151400000Y-89225000D01*
X156475000Y-81825000D02*
X156475000Y-84950000D01*
X156475000Y-84950000D02*
X156550000Y-85025000D01*
X156475000Y-81825000D02*
X152105000Y-81825000D01*
X152105000Y-81825000D02*
X148880000Y-78600000D01*
X156400000Y-81900000D02*
X156475000Y-81825000D01*
X156550000Y-85025000D02*
X156990000Y-85025000D01*
X156500000Y-84975000D02*
X156550000Y-85025000D01*
X160475000Y-92925000D02*
X156945000Y-92925000D01*
X156945000Y-92925000D02*
X156370000Y-92350000D01*
X156370000Y-92350000D02*
X156875000Y-92350000D01*
X160475000Y-92925000D02*
X160475000Y-94350000D01*
X160475000Y-94350000D02*
X158925000Y-95900000D01*
X156545000Y-92525000D02*
X156370000Y-92350000D01*
X124155000Y-77825000D02*
X124155000Y-83500000D01*
X124155000Y-83500000D02*
X124180000Y-83525000D01*
X124180000Y-83525000D02*
X123875000Y-83525000D01*
X123875000Y-83525000D02*
X122100000Y-85300000D01*
X122100000Y-85300000D02*
X122100000Y-89250000D01*
X129300000Y-80800000D02*
X129300000Y-76700000D01*
X129300000Y-76700000D02*
X129275000Y-76675000D01*
X129350000Y-85350000D02*
X129350000Y-80850000D01*
X129350000Y-80850000D02*
X129300000Y-80800000D01*
X129350000Y-85350000D02*
X129350000Y-89575000D01*
X129350000Y-89575000D02*
X129375000Y-89600000D01*
X129375000Y-89600000D02*
X124950000Y-89600000D01*
X124950000Y-89600000D02*
X124600000Y-89250000D01*
X129475000Y-85225000D02*
X129350000Y-85350000D01*
X129600000Y-89375000D02*
X129375000Y-89600000D01*
X124600000Y-89250000D02*
X124600000Y-90100000D01*
X120325000Y-90700000D02*
X118975000Y-89350000D01*
X124000000Y-90700000D02*
X120325000Y-90700000D01*
X124600000Y-90100000D02*
X124000000Y-90700000D01*
X147245000Y-61575000D02*
X144625000Y-61575000D01*
X140480000Y-63875000D02*
X139630000Y-64725000D01*
X142325000Y-63875000D02*
X140480000Y-63875000D01*
X144625000Y-61575000D02*
X142325000Y-63875000D01*
X137100000Y-66350000D02*
X138005000Y-66350000D01*
X138005000Y-66350000D02*
X139630000Y-64725000D01*
X137100000Y-66350000D02*
X137475000Y-66350000D01*
X137475000Y-66350000D02*
X139775000Y-68650000D01*
X140425000Y-74025000D02*
X137250000Y-74025000D01*
X131325000Y-71175000D02*
X129875000Y-69725000D01*
X134400000Y-71175000D02*
X131325000Y-71175000D01*
X137250000Y-74025000D02*
X134400000Y-71175000D01*
X127200000Y-68075000D02*
X128225000Y-68075000D01*
X128225000Y-68075000D02*
X129875000Y-69725000D01*
X127200000Y-68075000D02*
X127200000Y-68525000D01*
X127200000Y-68525000D02*
X124705000Y-71020000D01*
X124705000Y-71020000D02*
X124705000Y-72875000D01*
X121850000Y-72125000D02*
X123955000Y-72125000D01*
X123955000Y-72125000D02*
X124705000Y-72875000D01*
X153350000Y-120275000D02*
X149725000Y-120275000D01*
X149725000Y-120275000D02*
X149350000Y-119900000D01*
X164275000Y-114235000D02*
X164275000Y-115875000D01*
X153350000Y-119025000D02*
X153350000Y-120275000D01*
X154375000Y-118000000D02*
X153350000Y-119025000D01*
X162150000Y-118000000D02*
X154375000Y-118000000D01*
X164275000Y-115875000D02*
X162150000Y-118000000D01*
X161735000Y-106615000D02*
X161735000Y-107710000D01*
X164275000Y-110250000D02*
X164275000Y-114235000D01*
X161735000Y-107710000D02*
X164275000Y-110250000D01*
X161735000Y-106560000D02*
X161735000Y-106615000D01*
X149250000Y-132525000D02*
X149475000Y-132525000D01*
X149475000Y-132525000D02*
X153500000Y-136550000D01*
X153500000Y-136550000D02*
X154425000Y-136550000D01*
X149350000Y-130060000D02*
X149350000Y-132425000D01*
X149350000Y-132425000D02*
X149250000Y-132525000D01*
X144950000Y-137025000D02*
X144950000Y-139200000D01*
X146075000Y-140325000D02*
X150100000Y-140325000D01*
X144950000Y-139200000D02*
X146075000Y-140325000D01*
X154425000Y-139050000D02*
X154425000Y-139100000D01*
X154425000Y-139100000D02*
X153200000Y-140325000D01*
X153200000Y-140325000D02*
X150100000Y-140325000D01*
X133650000Y-133125000D02*
X133675000Y-135150000D01*
X136325000Y-137800000D02*
X138250000Y-137800000D01*
X133675000Y-135150000D02*
X136325000Y-137800000D01*
X140425000Y-134695000D02*
X140425000Y-135625000D01*
X140425000Y-135625000D02*
X138250000Y-137800000D01*
X144950000Y-134485000D02*
X143465000Y-134485000D01*
X142050000Y-137800000D02*
X138250000Y-137800000D01*
X142700000Y-137150000D02*
X142050000Y-137800000D01*
X142700000Y-135250000D02*
X142700000Y-137150000D01*
X143465000Y-134485000D02*
X142700000Y-135250000D01*
X140475000Y-88985000D02*
X145085000Y-88985000D01*
X145085000Y-88985000D02*
X145825000Y-89725000D01*
X145875000Y-85850000D02*
X145250000Y-85850000D01*
X145250000Y-85850000D02*
X142115000Y-88985000D01*
X142115000Y-88985000D02*
X140475000Y-88985000D01*
X145825000Y-92225000D02*
X145655000Y-92225000D01*
X145655000Y-92225000D02*
X143000000Y-94880000D01*
X145700000Y-92350000D02*
X145825000Y-92225000D01*
X130575000Y-123250000D02*
X131325000Y-123250000D01*
X131325000Y-123250000D02*
X132540000Y-122035000D01*
X132540000Y-122035000D02*
X139875000Y-122035000D01*
X139875000Y-122035000D02*
X138515000Y-122035000D01*
X135400000Y-125150000D02*
X135400000Y-127770000D01*
X138515000Y-122035000D02*
X135400000Y-125150000D01*
X122630000Y-134875000D02*
X115500000Y-134900000D01*
X115500000Y-134900000D02*
X114900000Y-135500000D01*
X144950000Y-131945000D02*
X138270000Y-131945000D01*
X138270000Y-131945000D02*
X136775000Y-130450000D01*
X145075000Y-128170000D02*
X145075000Y-131820000D01*
X145075000Y-131820000D02*
X144950000Y-131945000D01*
X124300000Y-122570000D02*
X125470000Y-122570000D01*
X133350000Y-130450000D02*
X134275000Y-130450000D01*
X125470000Y-122570000D02*
X133350000Y-130450000D01*
X124300000Y-122570000D02*
X123720000Y-122570000D01*
X123720000Y-122570000D02*
X122675000Y-121525000D01*
X122675000Y-121525000D02*
X122675000Y-118120000D01*
X122675000Y-118120000D02*
X124195000Y-116600000D01*
X148855000Y-81825000D02*
X147400000Y-81825000D01*
X147400000Y-81825000D02*
X145875000Y-83350000D01*
X91045000Y-117900000D02*
X91045000Y-119370000D01*
X91850000Y-120175000D02*
X91850000Y-124050000D01*
X91045000Y-119370000D02*
X91850000Y-120175000D01*
X95600000Y-124900000D02*
X92700000Y-124900000D01*
X92700000Y-124900000D02*
X91850000Y-124050000D01*
X95600000Y-124900000D02*
X95600000Y-127855000D01*
X95600000Y-127855000D02*
X95575000Y-127880000D01*
X187775000Y-98425000D02*
X188950000Y-97250000D01*
X184600000Y-67925000D02*
X177750000Y-67925000D01*
X188950000Y-72275000D02*
X184600000Y-67925000D01*
X188950000Y-97250000D02*
X188950000Y-72275000D01*
X187775000Y-98845000D02*
X187775000Y-98425000D01*
X187775000Y-98845000D02*
X188455000Y-98845000D01*
X165480000Y-66725000D02*
X165480000Y-66855000D01*
X165480000Y-66855000D02*
X166550000Y-67925000D01*
X166550000Y-67925000D02*
X177750000Y-67925000D01*
X177750000Y-67925000D02*
X179150000Y-66525000D01*
X179150000Y-66525000D02*
X179150000Y-65725000D01*
X178325000Y-61975000D02*
X178325000Y-63495000D01*
X178325000Y-63495000D02*
X176220000Y-65600000D01*
X129400000Y-61525000D02*
X129400000Y-60750000D01*
X129400000Y-60750000D02*
X130850000Y-59300000D01*
X171250000Y-65600000D02*
X168600000Y-65600000D01*
X172725000Y-64125000D02*
X171250000Y-65600000D01*
X172725000Y-60525000D02*
X172725000Y-64125000D01*
X171500000Y-59300000D02*
X172725000Y-60525000D01*
X130850000Y-59300000D02*
X171500000Y-59300000D01*
X129400000Y-61525000D02*
X128550000Y-61525000D01*
X128550000Y-61525000D02*
X127750000Y-62325000D01*
X127750000Y-62325000D02*
X126630000Y-62325000D01*
X139625000Y-61575000D02*
X137070000Y-61575000D01*
X137070000Y-61575000D02*
X137020000Y-61525000D01*
X140475000Y-91525000D02*
X140475000Y-94205000D01*
X140475000Y-94205000D02*
X139875000Y-94805000D01*
X140500000Y-91550000D02*
X140475000Y-91525000D01*
X140475000Y-86445000D02*
X140475000Y-81695000D01*
X140475000Y-81695000D02*
X140425000Y-81645000D01*
X180175000Y-111545000D02*
X175905000Y-111545000D01*
X175905000Y-111545000D02*
X175850000Y-111490000D01*
X180825000Y-96500000D02*
X182925000Y-96500000D01*
X184500000Y-103190000D02*
X187775000Y-106465000D01*
X184500000Y-98075000D02*
X184500000Y-103190000D01*
X182925000Y-96500000D02*
X184500000Y-98075000D01*
X187775000Y-106465000D02*
X187465000Y-106465000D01*
X171770000Y-96500000D02*
X170450000Y-96500000D01*
X165075000Y-75125000D02*
X166485000Y-75125000D01*
X163600000Y-76600000D02*
X165075000Y-75125000D01*
X163600000Y-96900000D02*
X163600000Y-76600000D01*
X165150000Y-98450000D02*
X163600000Y-96900000D01*
X168500000Y-98450000D02*
X165150000Y-98450000D01*
X170450000Y-96500000D02*
X168500000Y-98450000D01*
X171770000Y-89625000D02*
X171770000Y-96500000D01*
X171600000Y-96425000D02*
X171600000Y-96500000D01*
X171695000Y-96425000D02*
X171600000Y-96425000D01*
X171770000Y-96500000D02*
X171695000Y-96425000D01*
X181575000Y-91680000D02*
X179445000Y-89550000D01*
X181575000Y-96025000D02*
X181575000Y-91680000D01*
X181100000Y-96500000D02*
X181575000Y-96025000D01*
X171600000Y-96500000D02*
X180825000Y-96500000D01*
X180825000Y-96500000D02*
X181100000Y-96500000D01*
X166485000Y-75125000D02*
X166485000Y-71665000D01*
X166485000Y-71665000D02*
X167050000Y-71100000D01*
X167050000Y-71100000D02*
X170430000Y-71100000D01*
X170175000Y-71100000D02*
X181100000Y-71100000D01*
X184455000Y-74455000D02*
X184455000Y-77525000D01*
X181100000Y-71100000D02*
X184455000Y-74455000D01*
X170430000Y-71100000D02*
X176880000Y-77550000D01*
X170175000Y-71100000D02*
X170430000Y-71100000D01*
X142175000Y-105800000D02*
X142175000Y-103325000D01*
X142175000Y-103325000D02*
X143000000Y-102500000D01*
X132760000Y-106675000D02*
X132760000Y-111390000D01*
X132760000Y-111390000D02*
X132920000Y-111550000D01*
X132760000Y-106675000D02*
X132760000Y-106490000D01*
X132760000Y-106490000D02*
X135175000Y-104375000D01*
X140550000Y-104375000D02*
X142175000Y-105800000D01*
X135175000Y-104375000D02*
X140550000Y-104375000D01*
X142175000Y-105800000D02*
X141895000Y-105800000D01*
X143000000Y-102500000D02*
X142700000Y-102500000D01*
X135300000Y-106675000D02*
X135300000Y-115350000D01*
X134400000Y-116250000D02*
X129955000Y-116250000D01*
X135300000Y-115350000D02*
X134400000Y-116250000D01*
X138875000Y-105855000D02*
X136120000Y-105855000D01*
X136120000Y-105855000D02*
X135300000Y-106675000D01*
X139875000Y-124575000D02*
X139875000Y-126525000D01*
X139875000Y-126525000D02*
X140425000Y-127075000D01*
X140425000Y-127075000D02*
X140975000Y-127075000D01*
X140975000Y-127075000D02*
X145075000Y-122975000D01*
X145075000Y-122975000D02*
X145075000Y-120550000D01*
D36*
X118975000Y-63825000D02*
X118975000Y-61485000D01*
X124090000Y-61280000D02*
X124090000Y-62325000D01*
X123045000Y-60235000D02*
X124090000Y-61280000D01*
X120225000Y-60235000D02*
X123045000Y-60235000D01*
X118975000Y-61485000D02*
X120225000Y-60235000D01*
D35*
X167900000Y-61950000D02*
X165025000Y-61950000D01*
X162940000Y-64035000D02*
X162940000Y-66725000D01*
X165025000Y-61950000D02*
X162940000Y-64035000D01*
X177025000Y-104050000D02*
X177760000Y-104050000D01*
X177760000Y-104050000D02*
X180175000Y-106465000D01*
X176995000Y-100700000D02*
X176995000Y-104020000D01*
X176995000Y-104020000D02*
X177025000Y-104050000D01*
X137170000Y-98175000D02*
X138550000Y-98175000D01*
X139875000Y-99500000D02*
X139875000Y-102425000D01*
X138550000Y-98175000D02*
X139875000Y-99500000D01*
X137120000Y-94900000D02*
X137120000Y-98125000D01*
X137120000Y-98125000D02*
X137170000Y-98175000D01*
X128650000Y-138875000D02*
X128700000Y-136425000D01*
X128700000Y-136425000D02*
X130250000Y-134875000D01*
X123650000Y-138875000D02*
X128650000Y-138875000D01*
X124300000Y-125110000D02*
X126110000Y-125110000D01*
X126110000Y-125110000D02*
X128100000Y-127100000D01*
X128100000Y-127100000D02*
X128100000Y-132725000D01*
X128100000Y-132725000D02*
X130250000Y-134875000D01*
D36*
X87995000Y-82745000D02*
X87995000Y-81705000D01*
X96095000Y-73475000D02*
X96095000Y-72175000D01*
X91565000Y-78005000D02*
X96095000Y-73475000D01*
X87995000Y-81705000D02*
X88985000Y-80715000D01*
X96095000Y-72175000D02*
X96095000Y-69755000D01*
X96095000Y-69755000D02*
X96975000Y-68875000D01*
X93065000Y-75655000D02*
X94955000Y-75655000D01*
X96095000Y-74515000D02*
X96095000Y-72175000D01*
X94955000Y-75655000D02*
X96095000Y-74515000D01*
X78675000Y-84785000D02*
X83255000Y-84785000D01*
X93065000Y-75655000D02*
X93305000Y-75655000D01*
X87995000Y-83135000D02*
X87995000Y-82745000D01*
X87615000Y-83515000D02*
X87995000Y-83135000D01*
X84525000Y-83515000D02*
X87615000Y-83515000D01*
X83255000Y-84785000D02*
X84525000Y-83515000D01*
X96965000Y-68885000D02*
X96975000Y-68875000D01*
M02*
