G04 #@! TF.FileFunction,Soldermask,Top*
%FSLAX46Y46*%
G04 Gerber Fmt 4.6, Leading zero omitted, Abs format (unit mm)*
G04 Created by KiCad (PCBNEW 4.0.7) date 12/18/21 00:47:18*
%MOMM*%
%LPD*%
G01*
G04 APERTURE LIST*
%ADD10C,0.100000*%
%ADD11C,2.000000*%
%ADD12R,2.000000X2.000000*%
%ADD13O,2.000000X2.000000*%
%ADD14C,1.920000*%
%ADD15R,1.920000X1.920000*%
%ADD16C,2.900000*%
%ADD17R,2.100000X2.100000*%
%ADD18O,2.100000X2.100000*%
%ADD19R,2.600000X2.600000*%
%ADD20O,2.600000X2.600000*%
%ADD21R,2.200000X2.200000*%
%ADD22C,2.200000*%
%ADD23R,2.900000X2.900000*%
%ADD24O,2.900000X2.900000*%
%ADD25R,3.400000X3.400000*%
%ADD26C,3.400000*%
%ADD27R,3.900000X3.900000*%
%ADD28C,3.448000*%
%ADD29C,2.400000*%
%ADD30O,2.200000X2.200000*%
%ADD31C,1.900000*%
%ADD32R,1.800000X0.700000*%
%ADD33C,2.500000*%
%ADD34C,1.924000*%
%ADD35O,2.400000X3.900000*%
%ADD36O,4.400000X2.400000*%
G04 APERTURE END LIST*
D10*
D11*
X124405000Y-101045000D03*
X121905000Y-101045000D03*
X75185000Y-67215000D03*
X75185000Y-69715000D03*
D12*
X89795000Y-73985000D03*
D11*
X92295000Y-73985000D03*
X82645000Y-113545000D03*
D13*
X90265000Y-113545000D03*
D11*
X153575000Y-88200000D03*
X156075000Y-88200000D03*
D14*
X160475000Y-90385000D03*
X160475000Y-87845000D03*
D15*
X160475000Y-92925000D03*
D11*
X156325000Y-75125000D03*
D13*
X166485000Y-75125000D03*
D11*
X156475000Y-81825000D03*
D13*
X148855000Y-81825000D03*
D11*
X179000000Y-73000000D03*
D13*
X186620000Y-73000000D03*
D11*
X187300000Y-94150000D03*
D13*
X179680000Y-94150000D03*
D12*
X124300000Y-127650000D03*
D13*
X116680000Y-120030000D03*
X124300000Y-125110000D03*
X116680000Y-122570000D03*
X124300000Y-122570000D03*
X116680000Y-125110000D03*
X124300000Y-120030000D03*
X116680000Y-127650000D03*
D16*
X123650000Y-138875000D03*
X118650000Y-138875000D03*
X128650000Y-138875000D03*
D11*
X117825000Y-105700000D03*
D13*
X117825000Y-113320000D03*
D12*
X158800000Y-115775000D03*
D13*
X151180000Y-115775000D03*
D17*
X140475000Y-91525000D03*
D18*
X140475000Y-88985000D03*
X140475000Y-86445000D03*
D11*
X118975000Y-89350000D03*
D13*
X111355000Y-89350000D03*
D11*
X121175000Y-105700000D03*
D13*
X121175000Y-113320000D03*
D11*
X80850000Y-120200000D03*
X83350000Y-120200000D03*
X89485000Y-94995000D03*
X91985000Y-94995000D03*
D12*
X61325000Y-61915000D03*
D11*
X63825000Y-61915000D03*
X68595000Y-79515000D03*
X68595000Y-84515000D03*
X64825000Y-79515000D03*
X64825000Y-84515000D03*
X89725000Y-82825000D03*
X89725000Y-85325000D03*
X63145000Y-94495000D03*
X68145000Y-94495000D03*
X63155000Y-98045000D03*
X68155000Y-98045000D03*
X70325000Y-122575000D03*
X72825000Y-122575000D03*
X62215000Y-122795000D03*
X64715000Y-122795000D03*
D12*
X108075000Y-84965000D03*
D11*
X108075000Y-82465000D03*
X112825000Y-85725000D03*
X112825000Y-83225000D03*
D12*
X81050000Y-136900000D03*
D11*
X78550000Y-136900000D03*
X62725000Y-134535000D03*
X60225000Y-134535000D03*
X54535000Y-132815000D03*
X57035000Y-132815000D03*
D12*
X66665000Y-127495000D03*
D11*
X66665000Y-129995000D03*
X127265000Y-68645000D03*
X122265000Y-68645000D03*
X129875000Y-69725000D03*
X134875000Y-69725000D03*
X166375000Y-92550000D03*
X166375000Y-90050000D03*
X116500000Y-130975000D03*
X114000000Y-130975000D03*
X187525000Y-120125000D03*
X185025000Y-120125000D03*
X162650000Y-124450000D03*
X167650000Y-124450000D03*
X171525000Y-120550000D03*
X171525000Y-125550000D03*
X162575000Y-128425000D03*
X167575000Y-128425000D03*
X102575000Y-117700000D03*
X105075000Y-117700000D03*
X89550000Y-134650000D03*
X92050000Y-134650000D03*
X113325000Y-122500000D03*
X113325000Y-127500000D03*
D19*
X51045000Y-71325000D03*
D20*
X58665000Y-71325000D03*
D12*
X85935000Y-66145000D03*
D13*
X78315000Y-66145000D03*
D21*
X59635000Y-90705000D03*
D22*
X57095000Y-90705000D03*
D23*
X129275000Y-76675000D03*
D24*
X136895000Y-76675000D03*
D23*
X129350000Y-85350000D03*
D24*
X136970000Y-85350000D03*
D23*
X129300000Y-80800000D03*
D24*
X136920000Y-80800000D03*
D23*
X129375000Y-89600000D03*
D24*
X136995000Y-89600000D03*
D25*
X73735000Y-60295000D03*
D26*
X68655000Y-60295000D03*
D27*
X54955000Y-67305000D03*
X54955000Y-61305000D03*
X50255000Y-64305000D03*
D28*
X45025000Y-60775000D03*
X45025000Y-140775000D03*
D17*
X63025000Y-69775000D03*
D18*
X65565000Y-69775000D03*
X68105000Y-69775000D03*
X70645000Y-69775000D03*
D28*
X186025000Y-140775000D03*
X186025000Y-60775000D03*
D25*
X68695000Y-137195000D03*
D26*
X73775000Y-137195000D03*
D11*
X64315000Y-76545000D03*
D13*
X74475000Y-76545000D03*
D11*
X64355000Y-73135000D03*
D13*
X74515000Y-73135000D03*
D11*
X108935000Y-88515000D03*
D13*
X98775000Y-88515000D03*
D11*
X102815000Y-74625000D03*
D13*
X102815000Y-84785000D03*
D11*
X176300000Y-119225000D03*
D13*
X176300000Y-129385000D03*
D11*
X157550000Y-132025000D03*
D13*
X167710000Y-132025000D03*
D11*
X103075000Y-101475000D03*
D13*
X103075000Y-91315000D03*
D14*
X144950000Y-134485000D03*
X144950000Y-131945000D03*
D15*
X144950000Y-137025000D03*
D14*
X119310000Y-72125000D03*
X116770000Y-72125000D03*
D15*
X121850000Y-72125000D03*
D14*
X174340000Y-77550000D03*
X176880000Y-77550000D03*
D15*
X171800000Y-77550000D03*
D14*
X93585000Y-117900000D03*
X91045000Y-117900000D03*
D15*
X96125000Y-117900000D03*
D16*
X90825000Y-138750000D03*
X85825000Y-138750000D03*
X95825000Y-138750000D03*
D29*
X78825000Y-73615000D03*
X78825000Y-69115000D03*
X85325000Y-73615000D03*
X85325000Y-69115000D03*
X70745000Y-113075000D03*
X75245000Y-113075000D03*
X70745000Y-119575000D03*
X75245000Y-119575000D03*
X54325000Y-112815000D03*
X58825000Y-112815000D03*
X54325000Y-119315000D03*
X58825000Y-119315000D03*
X54445000Y-122985000D03*
X58945000Y-122985000D03*
X54445000Y-129485000D03*
X58945000Y-129485000D03*
X62365000Y-112925000D03*
X66865000Y-112925000D03*
X62365000Y-119425000D03*
X66865000Y-119425000D03*
D21*
X82295000Y-59705000D03*
D30*
X84835000Y-59705000D03*
X87375000Y-59705000D03*
D31*
X72775000Y-92125000D03*
X72775000Y-97005000D03*
X119300000Y-83525000D03*
X124180000Y-83525000D03*
D12*
X78675000Y-77165000D03*
D13*
X86295000Y-110185000D03*
X78675000Y-79705000D03*
X86295000Y-107645000D03*
X78675000Y-82245000D03*
X86295000Y-105105000D03*
X78675000Y-84785000D03*
X86295000Y-102565000D03*
X78675000Y-87325000D03*
X86295000Y-100025000D03*
X78675000Y-89865000D03*
X86295000Y-97485000D03*
X78675000Y-92405000D03*
X86295000Y-94945000D03*
X78675000Y-94945000D03*
X86295000Y-92405000D03*
X78675000Y-97485000D03*
X86295000Y-89865000D03*
X78675000Y-100025000D03*
X86295000Y-87325000D03*
X78675000Y-102565000D03*
X86295000Y-84785000D03*
X78675000Y-105105000D03*
X86295000Y-82245000D03*
X78675000Y-107645000D03*
X86295000Y-79705000D03*
X78675000Y-110185000D03*
X86295000Y-77165000D03*
D17*
X94735000Y-105175000D03*
D18*
X92195000Y-105175000D03*
X94735000Y-102635000D03*
X92195000Y-102635000D03*
X94735000Y-100095000D03*
X92195000Y-100095000D03*
D11*
X72815000Y-126905000D03*
X72815000Y-129405000D03*
D12*
X83675000Y-131325000D03*
D13*
X76055000Y-123705000D03*
X83675000Y-128785000D03*
X76055000Y-126245000D03*
X83675000Y-126245000D03*
X76055000Y-128785000D03*
X83675000Y-123705000D03*
X76055000Y-131325000D03*
D14*
X181985000Y-89550000D03*
X179445000Y-89550000D03*
D15*
X184525000Y-89550000D03*
D14*
X174310000Y-89625000D03*
X171770000Y-89625000D03*
D15*
X176850000Y-89625000D03*
D14*
X181915000Y-77525000D03*
X184455000Y-77525000D03*
D15*
X179375000Y-77525000D03*
D12*
X139775000Y-71150000D03*
D11*
X139775000Y-68650000D03*
D16*
X58385000Y-80835000D03*
X53345000Y-83335000D03*
X53345000Y-78335000D03*
D17*
X47175000Y-72185000D03*
D18*
X47175000Y-74725000D03*
X47175000Y-77265000D03*
X47175000Y-79805000D03*
X47175000Y-82345000D03*
X47175000Y-84885000D03*
X47175000Y-87425000D03*
X47175000Y-89965000D03*
X47175000Y-92505000D03*
X47175000Y-95045000D03*
X47175000Y-97585000D03*
X47175000Y-100125000D03*
X47175000Y-102665000D03*
X47175000Y-105205000D03*
X47175000Y-107745000D03*
X47175000Y-110285000D03*
D11*
X51205000Y-75075000D03*
X53705000Y-75075000D03*
D17*
X100855000Y-108285000D03*
D18*
X100855000Y-105745000D03*
D11*
X85995000Y-63155000D03*
D13*
X78375000Y-63155000D03*
D11*
X52005000Y-98225000D03*
D13*
X59625000Y-98225000D03*
D11*
X65465000Y-109385000D03*
D13*
X65465000Y-101765000D03*
D11*
X59625000Y-94855000D03*
D13*
X52005000Y-94855000D03*
D11*
X75215000Y-109415000D03*
D13*
X75215000Y-101795000D03*
D11*
X99685000Y-91845000D03*
D13*
X99685000Y-99465000D03*
D11*
X139625000Y-61575000D03*
D13*
X147245000Y-61575000D03*
D11*
X137100000Y-66350000D03*
D13*
X129480000Y-66350000D03*
D11*
X87100000Y-128100000D03*
D13*
X87100000Y-120480000D03*
D11*
X62165000Y-109355000D03*
D13*
X62165000Y-101735000D03*
D11*
X55495000Y-109345000D03*
D13*
X55495000Y-101725000D03*
D11*
X147250000Y-64725000D03*
D13*
X139630000Y-64725000D03*
D11*
X112600000Y-78275000D03*
D13*
X112600000Y-70655000D03*
D11*
X111975000Y-67700000D03*
D13*
X119595000Y-67700000D03*
D11*
X132325000Y-72875000D03*
D13*
X124705000Y-72875000D03*
D11*
X153275000Y-133350000D03*
D13*
X153275000Y-125730000D03*
D11*
X109950000Y-123475000D03*
D13*
X109950000Y-131095000D03*
D11*
X103375000Y-123375000D03*
D13*
X103375000Y-130995000D03*
D11*
X106600000Y-125700000D03*
D13*
X106600000Y-133320000D03*
D11*
X71955000Y-109365000D03*
D13*
X71955000Y-101745000D03*
D11*
X87345000Y-116955000D03*
D13*
X79725000Y-116955000D03*
D11*
X95575000Y-135500000D03*
D13*
X95575000Y-127880000D03*
D11*
X68675000Y-109385000D03*
D13*
X68675000Y-101765000D03*
D11*
X91850000Y-124050000D03*
D13*
X91850000Y-131670000D03*
D11*
X99300000Y-137050000D03*
D13*
X99300000Y-129430000D03*
D11*
X130275000Y-131300000D03*
D13*
X122655000Y-131300000D03*
D11*
X169000000Y-72900000D03*
D13*
X176620000Y-72900000D03*
D11*
X176975000Y-94100000D03*
D13*
X169355000Y-94100000D03*
D11*
X52275000Y-109325000D03*
D13*
X52275000Y-101705000D03*
D11*
X58825000Y-109345000D03*
D13*
X58825000Y-101725000D03*
D11*
X99325000Y-119375000D03*
D13*
X99325000Y-126995000D03*
D11*
X60545000Y-75055000D03*
X58045000Y-75055000D03*
D17*
X171675000Y-117375000D03*
D18*
X171675000Y-114835000D03*
D11*
X112050000Y-119725000D03*
X109550000Y-119725000D03*
D12*
X114035000Y-106075000D03*
D13*
X106415000Y-106075000D03*
D12*
X114025000Y-108855000D03*
D13*
X106405000Y-108855000D03*
D11*
X110255000Y-99755000D03*
D13*
X110255000Y-92135000D03*
D11*
X106925000Y-99715000D03*
D13*
X106925000Y-92095000D03*
D11*
X129500000Y-94900000D03*
D13*
X137120000Y-94900000D03*
D11*
X129550000Y-98175000D03*
D13*
X137170000Y-98175000D03*
D32*
X121025000Y-95675000D03*
X121025000Y-96175000D03*
X121025000Y-96675000D03*
X121025000Y-97175000D03*
X121025000Y-97675000D03*
X125425000Y-97675000D03*
X125425000Y-97175000D03*
X125425000Y-96675000D03*
X125425000Y-96175000D03*
X125425000Y-95675000D03*
D31*
X115000000Y-95225000D03*
X115000000Y-100105000D03*
D11*
X157575000Y-120625000D03*
D13*
X167735000Y-120625000D03*
D31*
X181945000Y-129425000D03*
X181945000Y-126885000D03*
D33*
X187025000Y-124345000D03*
X187025000Y-134505000D03*
D25*
X184673000Y-131711000D03*
D26*
X184673000Y-126631000D03*
D19*
X179150000Y-65725000D03*
D20*
X186770000Y-65725000D03*
D22*
X187775000Y-106465000D03*
X187775000Y-116625000D03*
X187775000Y-111545000D03*
X180175000Y-111545000D03*
X180175000Y-106465000D03*
X180175000Y-116625000D03*
X187775000Y-98845000D03*
X180175000Y-98845000D03*
D11*
X140350000Y-116275000D03*
X142850000Y-116275000D03*
D12*
X158450000Y-105625000D03*
D13*
X158450000Y-113245000D03*
D12*
X148325000Y-105800000D03*
D13*
X155945000Y-105800000D03*
D12*
X148675000Y-116050000D03*
D13*
X148675000Y-108430000D03*
D11*
X137575000Y-116250000D03*
D13*
X129955000Y-116250000D03*
D11*
X150100000Y-140325000D03*
D13*
X142480000Y-140325000D03*
D11*
X176985000Y-103165000D03*
D13*
X169365000Y-103165000D03*
D12*
X151550000Y-64400000D03*
D11*
X151550000Y-61900000D03*
D19*
X178325000Y-61975000D03*
D20*
X170705000Y-61975000D03*
D14*
X147315000Y-69600000D03*
X149855000Y-69600000D03*
D15*
X144775000Y-69600000D03*
D11*
X168600000Y-65600000D03*
D13*
X176220000Y-65600000D03*
D11*
X167900000Y-61950000D03*
D13*
X160280000Y-61950000D03*
D17*
X93115000Y-89915000D03*
D18*
X93115000Y-87375000D03*
X93115000Y-84835000D03*
D17*
X157425000Y-64650000D03*
D18*
X157425000Y-62110000D03*
D11*
X169345000Y-99885000D03*
D13*
X176965000Y-99885000D03*
D12*
X107900000Y-136550000D03*
D11*
X107900000Y-139050000D03*
D12*
X113155000Y-115105000D03*
D11*
X110655000Y-115105000D03*
D31*
X166815000Y-106615000D03*
X166815000Y-114235000D03*
X164275000Y-106615000D03*
X164275000Y-114235000D03*
X161735000Y-106615000D03*
X161735000Y-114235000D03*
X155985000Y-101640000D03*
X148365000Y-101640000D03*
X155985000Y-99100000D03*
X148365000Y-99100000D03*
X155985000Y-96560000D03*
X148365000Y-96560000D03*
D17*
X175585000Y-133925000D03*
D18*
X173045000Y-133925000D03*
D34*
X178375000Y-140285000D03*
X170755000Y-140285000D03*
X174501500Y-137491000D03*
X174501500Y-143079000D03*
D21*
X161405000Y-138815000D03*
D22*
X161405000Y-141355000D03*
D11*
X160200000Y-135675000D03*
D13*
X167820000Y-135675000D03*
D17*
X157135000Y-127605000D03*
D18*
X157135000Y-125065000D03*
D12*
X166375000Y-78325000D03*
D13*
X158755000Y-78325000D03*
D11*
X148750000Y-92350000D03*
D13*
X156370000Y-92350000D03*
D11*
X108900000Y-75475000D03*
X108900000Y-77975000D03*
X158925000Y-95900000D03*
D13*
X166545000Y-95900000D03*
D11*
X156500000Y-78600000D03*
D13*
X148880000Y-78600000D03*
D11*
X161125000Y-71775000D03*
X158625000Y-71775000D03*
X166375000Y-85075000D03*
D13*
X158755000Y-85075000D03*
D11*
X122100000Y-89250000D03*
X124600000Y-89250000D03*
D12*
X154425000Y-139050000D03*
D11*
X154425000Y-136550000D03*
D12*
X138250000Y-137800000D03*
D11*
X138250000Y-140300000D03*
X145825000Y-89725000D03*
X145825000Y-92225000D03*
D12*
X130575000Y-123265000D03*
D11*
X130575000Y-125765000D03*
D12*
X114900000Y-135500000D03*
D11*
X112400000Y-135500000D03*
X136775000Y-130450000D03*
X134275000Y-130450000D03*
X130200000Y-102075000D03*
X132700000Y-102075000D03*
X145875000Y-83350000D03*
X145875000Y-85850000D03*
X95600000Y-124900000D03*
X95600000Y-122400000D03*
D19*
X129400000Y-61525000D03*
D20*
X137020000Y-61525000D03*
D17*
X175855000Y-107145000D03*
D18*
X175855000Y-109685000D03*
X175855000Y-112225000D03*
D11*
X149350000Y-119900000D03*
D13*
X149350000Y-130060000D03*
D14*
X132760000Y-106675000D03*
X130220000Y-106675000D03*
D15*
X135300000Y-106675000D03*
D14*
X139875000Y-122035000D03*
X139875000Y-119495000D03*
D15*
X139875000Y-124575000D03*
D14*
X124115000Y-63605000D03*
X126655000Y-63605000D03*
D15*
X121575000Y-63605000D03*
D14*
X162940000Y-66725000D03*
X165480000Y-66725000D03*
D15*
X160400000Y-66725000D03*
D11*
X143000000Y-102500000D03*
D13*
X143000000Y-94880000D03*
D11*
X125300000Y-111550000D03*
D13*
X132920000Y-111550000D03*
D11*
X142175000Y-105800000D03*
D13*
X142175000Y-113420000D03*
D11*
X145075000Y-120550000D03*
D13*
X145075000Y-128170000D03*
D11*
X133650000Y-133125000D03*
D13*
X133650000Y-140745000D03*
D11*
X138875000Y-113475000D03*
D13*
X138875000Y-105855000D03*
D11*
X140425000Y-127075000D03*
D13*
X140425000Y-134695000D03*
D11*
X135400000Y-120150000D03*
D13*
X135400000Y-127770000D03*
D11*
X116575000Y-116600000D03*
D13*
X124195000Y-116600000D03*
D11*
X130250000Y-134875000D03*
D13*
X122630000Y-134875000D03*
D11*
X118975000Y-63825000D03*
D13*
X111355000Y-63825000D03*
D11*
X156550000Y-85025000D03*
D13*
X148930000Y-85025000D03*
D11*
X158725000Y-81600000D03*
D13*
X166345000Y-81600000D03*
D11*
X140455000Y-81645000D03*
D13*
X140455000Y-74025000D03*
D11*
X139875000Y-102425000D03*
D13*
X139875000Y-94805000D03*
D31*
X119275000Y-77825000D03*
X124155000Y-77825000D03*
D11*
X153350000Y-122775000D03*
X153350000Y-120275000D03*
X149250000Y-132525000D03*
X149250000Y-137525000D03*
D35*
X107225000Y-63225000D03*
X93525000Y-63225000D03*
D12*
X99075000Y-66075000D03*
D11*
X101675000Y-66075000D03*
X96975000Y-66075000D03*
X103775000Y-66075000D03*
X96975000Y-68875000D03*
X103775000Y-68875000D03*
D36*
X100375000Y-62425000D03*
D11*
X96095000Y-72175000D03*
D13*
X96095000Y-79795000D03*
D11*
X99285000Y-79785000D03*
D13*
X99285000Y-72165000D03*
D28*
X144785000Y-78625000D03*
X178425000Y-83705000D03*
D21*
X115995000Y-59515000D03*
D22*
X113455000Y-59515000D03*
D11*
X126615000Y-59255000D03*
D13*
X118995000Y-59255000D03*
D11*
X165745000Y-99915000D03*
X160745000Y-99915000D03*
M02*
