G04 #@! TF.FileFunction,Soldermask,Bot*
%FSLAX46Y46*%
G04 Gerber Fmt 4.6, Leading zero omitted, Abs format (unit mm)*
G04 Created by KiCad (PCBNEW 4.0.7) date 10/03/21 19:08:48*
%MOMM*%
%LPD*%
G01*
G04 APERTURE LIST*
%ADD10C,0.100000*%
%ADD11R,3.400000X3.400000*%
%ADD12C,3.400000*%
%ADD13C,1.800000*%
%ADD14O,1.800000X1.800000*%
%ADD15R,2.000000X2.000000*%
%ADD16O,2.000000X2.000000*%
%ADD17C,2.000000*%
%ADD18R,2.600000X2.600000*%
%ADD19O,2.600000X2.600000*%
%ADD20R,2.200000X2.200000*%
%ADD21C,2.200000*%
%ADD22R,3.900000X3.900000*%
%ADD23C,3.448000*%
%ADD24R,2.100000X2.100000*%
%ADD25O,2.100000X2.100000*%
%ADD26C,1.920000*%
%ADD27R,1.920000X1.920000*%
%ADD28C,2.900000*%
%ADD29C,2.400000*%
%ADD30O,2.200000X2.200000*%
%ADD31C,1.900000*%
G04 APERTURE END LIST*
D10*
D11*
X134366000Y-51816000D03*
D12*
X134366000Y-56896000D03*
D13*
X86750000Y-113080000D03*
D14*
X79130000Y-113080000D03*
D15*
X126492000Y-109982000D03*
D16*
X118872000Y-117602000D03*
X123952000Y-109982000D03*
X121412000Y-117602000D03*
X121412000Y-109982000D03*
X123952000Y-117602000D03*
X118872000Y-109982000D03*
X126492000Y-117602000D03*
D17*
X82804000Y-70612000D03*
X85304000Y-70612000D03*
X50546000Y-94996000D03*
X50546000Y-92496000D03*
X87340000Y-136570000D03*
X84840000Y-136570000D03*
D15*
X57150000Y-53340000D03*
D17*
X59650000Y-53340000D03*
X81280000Y-129540000D03*
X86280000Y-129540000D03*
X81280000Y-133350000D03*
X86280000Y-133350000D03*
D15*
X64770000Y-53340000D03*
D17*
X67270000Y-53340000D03*
X133604000Y-124460000D03*
X136104000Y-124460000D03*
X73406000Y-99568000D03*
X73406000Y-94568000D03*
X73406000Y-86360000D03*
X73406000Y-91360000D03*
X44000000Y-81000000D03*
X46500000Y-81000000D03*
X43434000Y-119634000D03*
X45934000Y-119634000D03*
D15*
X117160000Y-95440000D03*
D17*
X117160000Y-92940000D03*
X122220000Y-95250000D03*
X122220000Y-92750000D03*
X92480000Y-108180000D03*
X92480000Y-105680000D03*
D15*
X76708000Y-52070000D03*
D17*
X79208000Y-52070000D03*
X43000000Y-94000000D03*
X45500000Y-94000000D03*
X43180000Y-106680000D03*
X45680000Y-106680000D03*
D15*
X88350000Y-56050000D03*
D17*
X88350000Y-53550000D03*
X92150000Y-62250000D03*
X94650000Y-62250000D03*
X119126000Y-82296000D03*
X114126000Y-82296000D03*
X121666000Y-79756000D03*
X126666000Y-79756000D03*
X119126000Y-74930000D03*
X119126000Y-72430000D03*
X133096000Y-120396000D03*
X130596000Y-120396000D03*
X104330000Y-53530000D03*
X104330000Y-51030000D03*
X110580000Y-71940000D03*
X113080000Y-71940000D03*
X113580000Y-51240000D03*
X108580000Y-51240000D03*
X116078000Y-51308000D03*
X121078000Y-51308000D03*
X108966000Y-133096000D03*
X108966000Y-130596000D03*
X123698000Y-51308000D03*
X128698000Y-51308000D03*
X69596000Y-116840000D03*
X72096000Y-116840000D03*
X75770000Y-105670000D03*
X78270000Y-105670000D03*
X75184000Y-74676000D03*
X72684000Y-74676000D03*
X122682000Y-103124000D03*
X117682000Y-103124000D03*
D18*
X55880000Y-59690000D03*
D19*
X63500000Y-59690000D03*
D15*
X88790000Y-123440000D03*
D16*
X81170000Y-123440000D03*
D20*
X55880000Y-69850000D03*
D21*
X55880000Y-67310000D03*
D18*
X128270000Y-90170000D03*
D19*
X135890000Y-90170000D03*
D18*
X128270000Y-93726000D03*
D19*
X135890000Y-93726000D03*
D18*
X128270000Y-97282000D03*
D19*
X135890000Y-97282000D03*
D18*
X128270000Y-86614000D03*
D19*
X135890000Y-86614000D03*
D15*
X106172000Y-136398000D03*
D16*
X98552000Y-136398000D03*
D15*
X98298000Y-132842000D03*
D16*
X105918000Y-132842000D03*
D11*
X46990000Y-74930000D03*
D12*
X46990000Y-69850000D03*
D22*
X50800000Y-58420000D03*
X44800000Y-58420000D03*
X47800000Y-63120000D03*
D23*
X44000000Y-44000000D03*
X44000000Y-136000000D03*
D24*
X78170000Y-135150000D03*
D25*
X75630000Y-135150000D03*
X73090000Y-135150000D03*
X70550000Y-135150000D03*
D23*
X136000000Y-136000000D03*
X136000000Y-44000000D03*
D24*
X54864000Y-134874000D03*
D25*
X57404000Y-134874000D03*
X59944000Y-134874000D03*
X62484000Y-134874000D03*
D11*
X134112000Y-114046000D03*
D12*
X134112000Y-108966000D03*
D11*
X89408000Y-45720000D03*
D12*
X94488000Y-45720000D03*
D17*
X74000000Y-132000000D03*
D16*
X74000000Y-121840000D03*
D17*
X78000000Y-132000000D03*
D16*
X78000000Y-121840000D03*
D17*
X94996000Y-81534000D03*
D16*
X84836000Y-81534000D03*
D17*
X98400000Y-52300000D03*
D16*
X98400000Y-62460000D03*
D17*
X121770000Y-65340000D03*
D16*
X111610000Y-65340000D03*
D17*
X101760000Y-57390000D03*
D16*
X111920000Y-57390000D03*
D17*
X104050000Y-45100000D03*
D16*
X114210000Y-45100000D03*
D17*
X118520000Y-45100000D03*
D16*
X128680000Y-45100000D03*
D17*
X76420000Y-113100000D03*
D16*
X66260000Y-113100000D03*
D26*
X99314000Y-73152000D03*
X101854000Y-73152000D03*
D27*
X96774000Y-73152000D03*
D26*
X113640000Y-76470000D03*
X111100000Y-76470000D03*
D27*
X116180000Y-76470000D03*
D26*
X117460000Y-57220000D03*
X114920000Y-57220000D03*
D27*
X120000000Y-57220000D03*
D26*
X84490000Y-104330000D03*
X81950000Y-104330000D03*
D27*
X87030000Y-104330000D03*
D13*
X88540000Y-126400000D03*
D14*
X80920000Y-126400000D03*
D13*
X67818000Y-131318000D03*
D14*
X67818000Y-123698000D03*
D13*
X50292000Y-137922000D03*
D14*
X50292000Y-130302000D03*
D13*
X63500000Y-63500000D03*
D14*
X55880000Y-63500000D03*
D13*
X108630000Y-127910000D03*
D14*
X108630000Y-120290000D03*
D13*
X64770000Y-77470000D03*
D14*
X64770000Y-69850000D03*
D13*
X77216000Y-84074000D03*
D14*
X69596000Y-84074000D03*
D13*
X125230000Y-91360000D03*
D14*
X125230000Y-98980000D03*
D13*
X96670000Y-101090000D03*
D14*
X96670000Y-108710000D03*
D13*
X78232000Y-73660000D03*
D14*
X85852000Y-73660000D03*
D13*
X62230000Y-77470000D03*
D14*
X62230000Y-69850000D03*
D13*
X49784000Y-98552000D03*
D14*
X49784000Y-106172000D03*
D13*
X99822000Y-108712000D03*
D14*
X99822000Y-101092000D03*
D13*
X103632000Y-80518000D03*
D14*
X111252000Y-80518000D03*
D13*
X103632000Y-83312000D03*
D14*
X111252000Y-83312000D03*
D13*
X129286000Y-82804000D03*
D14*
X121666000Y-82804000D03*
D13*
X111506000Y-123698000D03*
D14*
X119126000Y-123698000D03*
D13*
X119126000Y-121158000D03*
D14*
X111506000Y-121158000D03*
D13*
X113880000Y-61340000D03*
D14*
X121500000Y-61340000D03*
D13*
X119888000Y-68580000D03*
D14*
X112268000Y-68580000D03*
D13*
X108458000Y-68326000D03*
D14*
X100838000Y-68326000D03*
D13*
X124460000Y-106172000D03*
D14*
X116840000Y-106172000D03*
D13*
X114300000Y-110744000D03*
D14*
X114300000Y-103124000D03*
D13*
X108712000Y-136652000D03*
D14*
X116332000Y-136652000D03*
D13*
X121666000Y-123698000D03*
D14*
X129286000Y-123698000D03*
D13*
X108350000Y-117460000D03*
D14*
X115970000Y-117460000D03*
D13*
X98552000Y-129794000D03*
D14*
X106172000Y-129794000D03*
D13*
X50000000Y-120000000D03*
D14*
X50000000Y-127620000D03*
D13*
X76010000Y-77910000D03*
D14*
X68390000Y-77910000D03*
D13*
X68310000Y-80430000D03*
D14*
X75930000Y-80430000D03*
D13*
X71890000Y-102760000D03*
D14*
X79510000Y-102760000D03*
D13*
X49930000Y-116590000D03*
D14*
X49930000Y-108970000D03*
D13*
X86360000Y-76962000D03*
D14*
X78740000Y-76962000D03*
D28*
X75612000Y-43942000D03*
X80612000Y-43942000D03*
X70612000Y-43942000D03*
D29*
X91050000Y-129330000D03*
X95550000Y-129330000D03*
X91050000Y-135830000D03*
X95550000Y-135830000D03*
X41500000Y-84000000D03*
X46000000Y-84000000D03*
X41500000Y-90500000D03*
X46000000Y-90500000D03*
X41500000Y-97000000D03*
X46000000Y-97000000D03*
X41500000Y-103500000D03*
X46000000Y-103500000D03*
X41500000Y-110000000D03*
X46000000Y-110000000D03*
X41500000Y-116500000D03*
X46000000Y-116500000D03*
X41500000Y-123000000D03*
X46000000Y-123000000D03*
X41500000Y-129500000D03*
X46000000Y-129500000D03*
D20*
X54610000Y-44450000D03*
D30*
X57150000Y-44450000D03*
X59690000Y-44450000D03*
D31*
X68834000Y-96266000D03*
X68834000Y-91386000D03*
X118240000Y-87230000D03*
X123120000Y-87230000D03*
D15*
X62230000Y-115570000D03*
D16*
X54610000Y-82550000D03*
X62230000Y-113030000D03*
X54610000Y-85090000D03*
X62230000Y-110490000D03*
X54610000Y-87630000D03*
X62230000Y-107950000D03*
X54610000Y-90170000D03*
X62230000Y-105410000D03*
X54610000Y-92710000D03*
X62230000Y-102870000D03*
X54610000Y-95250000D03*
X62230000Y-100330000D03*
X54610000Y-97790000D03*
X62230000Y-97790000D03*
X54610000Y-100330000D03*
X62230000Y-95250000D03*
X54610000Y-102870000D03*
X62230000Y-92710000D03*
X54610000Y-105410000D03*
X62230000Y-90170000D03*
X54610000Y-107950000D03*
X62230000Y-87630000D03*
X54610000Y-110490000D03*
X62230000Y-85090000D03*
X54610000Y-113030000D03*
X62230000Y-82550000D03*
X54610000Y-115570000D03*
D24*
X83820000Y-93218000D03*
D25*
X81280000Y-93218000D03*
X83820000Y-90678000D03*
X81280000Y-90678000D03*
X83820000Y-88138000D03*
X81280000Y-88138000D03*
D17*
X85598000Y-63500000D03*
X85598000Y-61000000D03*
D15*
X74168000Y-58420000D03*
D16*
X81788000Y-66040000D03*
X74168000Y-60960000D03*
X81788000Y-63500000D03*
X74168000Y-63500000D03*
X81788000Y-60960000D03*
X74168000Y-66040000D03*
X81788000Y-58420000D03*
D17*
X108458000Y-65278000D03*
X103458000Y-65278000D03*
X105670000Y-76410000D03*
X108170000Y-76410000D03*
D20*
X103886000Y-110490000D03*
D21*
X103886000Y-113030000D03*
D28*
X124286000Y-135382000D03*
X119286000Y-135382000D03*
X129286000Y-135382000D03*
D13*
X92202000Y-121412000D03*
D14*
X92202000Y-113792000D03*
D13*
X111252000Y-110744000D03*
D14*
X111252000Y-103124000D03*
D13*
X115824000Y-126238000D03*
D14*
X115824000Y-133858000D03*
D17*
X132588000Y-61722000D03*
X135088000Y-61722000D03*
X137160000Y-79248000D03*
X134660000Y-79248000D03*
D15*
X126492000Y-75946000D03*
D16*
X126492000Y-68326000D03*
D15*
X130048000Y-68326000D03*
D16*
X130048000Y-75946000D03*
D20*
X137668000Y-74422000D03*
D21*
X137668000Y-71882000D03*
D24*
X124714000Y-56388000D03*
D25*
X124714000Y-58928000D03*
X124714000Y-61468000D03*
D13*
X123444000Y-68326000D03*
D14*
X123444000Y-75946000D03*
D13*
X133350000Y-75946000D03*
D14*
X133350000Y-68326000D03*
D13*
X138176000Y-69088000D03*
D14*
X138176000Y-61468000D03*
D24*
X128270000Y-61468000D03*
D25*
X128270000Y-58928000D03*
X128270000Y-56388000D03*
D13*
X131826000Y-65532000D03*
D14*
X124206000Y-65532000D03*
M02*
