G04 #@! TF.FileFunction,Copper,L2,Bot,Signal*
%FSLAX46Y46*%
G04 Gerber Fmt 4.6, Leading zero omitted, Abs format (unit mm)*
G04 Created by KiCad (PCBNEW 4.0.7) date 11/16/21 18:48:21*
%MOMM*%
%LPD*%
G01*
G04 APERTURE LIST*
%ADD10C,0.100000*%
%ADD11C,1.520000*%
%ADD12R,1.520000X1.520000*%
%ADD13C,1.600000*%
%ADD14O,1.600000X1.600000*%
%ADD15R,1.600000X1.600000*%
%ADD16C,2.500000*%
%ADD17R,1.700000X1.700000*%
%ADD18O,1.700000X1.700000*%
%ADD19R,2.200000X2.200000*%
%ADD20O,2.200000X2.200000*%
%ADD21R,1.800000X1.800000*%
%ADD22C,1.800000*%
%ADD23R,2.500000X2.500000*%
%ADD24O,2.500000X2.500000*%
%ADD25R,3.000000X3.000000*%
%ADD26C,3.000000*%
%ADD27R,3.500000X3.500000*%
%ADD28C,2.000000*%
%ADD29O,1.800000X1.800000*%
%ADD30C,1.500000*%
%ADD31C,1.524000*%
%ADD32C,0.600000*%
%ADD33C,0.500000*%
%ADD34C,0.350000*%
%ADD35C,0.250000*%
G04 APERTURE END LIST*
D10*
D11*
X116586000Y-65024000D03*
X116586000Y-62484000D03*
D12*
X116586000Y-67564000D03*
D13*
X112522000Y-53848000D03*
D14*
X112522000Y-64008000D03*
D13*
X113030000Y-69850000D03*
D14*
X113030000Y-77470000D03*
D13*
X101092000Y-59690000D03*
D14*
X93472000Y-59690000D03*
D13*
X101092000Y-66294000D03*
D14*
X93472000Y-66294000D03*
D13*
X90424000Y-58166000D03*
X90424000Y-55666000D03*
D15*
X128016000Y-112268000D03*
D13*
X125516000Y-112268000D03*
D15*
X131318000Y-117094000D03*
D14*
X123698000Y-124714000D03*
X128778000Y-117094000D03*
X126238000Y-124714000D03*
X126238000Y-117094000D03*
X128778000Y-124714000D03*
X123698000Y-117094000D03*
X131318000Y-124714000D03*
D16*
X136020000Y-122500000D03*
X136020000Y-127500000D03*
X136020000Y-117500000D03*
D13*
X116332000Y-113538000D03*
D14*
X116332000Y-105918000D03*
D15*
X112000000Y-118790000D03*
D14*
X104380000Y-118790000D03*
D17*
X115570000Y-83566000D03*
D18*
X113030000Y-83566000D03*
X110490000Y-83566000D03*
D13*
X125510000Y-94910000D03*
D14*
X117890000Y-94910000D03*
D13*
X110744000Y-137922000D03*
D14*
X110744000Y-130302000D03*
D13*
X80518000Y-70358000D03*
X83018000Y-70358000D03*
X66020000Y-100070000D03*
X68520000Y-100070000D03*
X79502000Y-116586000D03*
X82002000Y-116586000D03*
D15*
X54864000Y-54356000D03*
D13*
X57364000Y-54356000D03*
X98552000Y-131572000D03*
X98552000Y-136572000D03*
X101854000Y-131572000D03*
X101854000Y-136572000D03*
D15*
X60706000Y-54356000D03*
D13*
X63206000Y-54356000D03*
X66660000Y-109300000D03*
X69160000Y-109300000D03*
X73406000Y-99568000D03*
X73406000Y-94568000D03*
X73406000Y-86360000D03*
X73406000Y-91360000D03*
X45820000Y-111820000D03*
X43320000Y-111820000D03*
X45880000Y-108460000D03*
X43380000Y-108460000D03*
D15*
X99822000Y-86868000D03*
D13*
X99822000Y-89368000D03*
X111506000Y-93472000D03*
X109006000Y-93472000D03*
D15*
X68834000Y-57404000D03*
D13*
X71334000Y-57404000D03*
X45720000Y-75930000D03*
X43220000Y-75930000D03*
X45570000Y-73000000D03*
X43070000Y-73000000D03*
D15*
X70866000Y-51308000D03*
D13*
X70866000Y-48808000D03*
X105918000Y-78994000D03*
X100918000Y-78994000D03*
X105918000Y-75692000D03*
X100918000Y-75692000D03*
X109220000Y-76962000D03*
X109220000Y-74462000D03*
X131064000Y-128016000D03*
X128564000Y-128016000D03*
X110744000Y-51308000D03*
X108244000Y-51308000D03*
X87122000Y-51054000D03*
X92122000Y-51054000D03*
X95758000Y-47498000D03*
X100758000Y-47498000D03*
X105156000Y-47244000D03*
X110156000Y-47244000D03*
X76730000Y-109160000D03*
X74230000Y-109160000D03*
X61468000Y-72390000D03*
X63968000Y-72390000D03*
X125140000Y-127490000D03*
X125140000Y-132490000D03*
D19*
X55410000Y-58950000D03*
D20*
X63030000Y-58950000D03*
D15*
X73460000Y-119440000D03*
D14*
X65840000Y-119440000D03*
D21*
X64262000Y-49022000D03*
D22*
X61722000Y-49022000D03*
D23*
X130556000Y-91694000D03*
D24*
X138176000Y-91694000D03*
D23*
X130556000Y-88138000D03*
D24*
X138176000Y-88138000D03*
D23*
X130556000Y-84582000D03*
D24*
X138176000Y-84582000D03*
D23*
X130556000Y-94996000D03*
D24*
X138176000Y-94996000D03*
D25*
X61722000Y-65532000D03*
D26*
X56642000Y-65532000D03*
D27*
X49022000Y-53848000D03*
X43022000Y-53848000D03*
X46022000Y-58548000D03*
D17*
X96660000Y-126420000D03*
D18*
X94120000Y-126420000D03*
X91580000Y-126420000D03*
X89040000Y-126420000D03*
D25*
X78486000Y-45720000D03*
D26*
X83566000Y-45720000D03*
D13*
X95780000Y-118450000D03*
D14*
X85620000Y-118450000D03*
D13*
X95670000Y-122070000D03*
D14*
X85510000Y-122070000D03*
D13*
X96012000Y-78486000D03*
D14*
X85852000Y-78486000D03*
D13*
X76454000Y-54610000D03*
D14*
X86614000Y-54610000D03*
D13*
X96012000Y-43688000D03*
D14*
X106172000Y-43688000D03*
D13*
X108712000Y-43180000D03*
D14*
X118872000Y-43180000D03*
D13*
X88646000Y-83058000D03*
D14*
X78486000Y-83058000D03*
D11*
X87630000Y-70104000D03*
X87630000Y-67564000D03*
D12*
X87630000Y-72644000D03*
D11*
X103632000Y-82550000D03*
X101092000Y-82550000D03*
D12*
X106172000Y-82550000D03*
D11*
X107188000Y-56388000D03*
X109728000Y-56388000D03*
D12*
X104648000Y-56388000D03*
D11*
X78486000Y-74930000D03*
X81026000Y-74930000D03*
D12*
X75946000Y-74930000D03*
D16*
X67738000Y-43942000D03*
X72738000Y-43942000D03*
X62738000Y-43942000D03*
D28*
X82550000Y-119960000D03*
X82550000Y-124460000D03*
X76050000Y-119960000D03*
X76050000Y-124460000D03*
X42630000Y-115100000D03*
X47130000Y-115100000D03*
X42630000Y-121600000D03*
X47130000Y-121600000D03*
X42740000Y-79060000D03*
X47240000Y-79060000D03*
X42740000Y-85560000D03*
X47240000Y-85560000D03*
X43280000Y-63310000D03*
X47780000Y-63310000D03*
X43280000Y-69810000D03*
X47780000Y-69810000D03*
X42780000Y-98720000D03*
X47280000Y-98720000D03*
X42780000Y-105220000D03*
X47280000Y-105220000D03*
D21*
X51300000Y-44370000D03*
D29*
X53840000Y-44370000D03*
X56380000Y-44370000D03*
D30*
X68834000Y-94996000D03*
X68834000Y-90116000D03*
X119610000Y-90360000D03*
X124490000Y-90360000D03*
D15*
X62230000Y-115570000D03*
D14*
X54610000Y-82550000D03*
X62230000Y-113030000D03*
X54610000Y-85090000D03*
X62230000Y-110490000D03*
X54610000Y-87630000D03*
X62230000Y-107950000D03*
X54610000Y-90170000D03*
X62230000Y-105410000D03*
X54610000Y-92710000D03*
X62230000Y-102870000D03*
X54610000Y-95250000D03*
X62230000Y-100330000D03*
X54610000Y-97790000D03*
X62230000Y-97790000D03*
X54610000Y-100330000D03*
X62230000Y-95250000D03*
X54610000Y-102870000D03*
X62230000Y-92710000D03*
X54610000Y-105410000D03*
X62230000Y-90170000D03*
X54610000Y-107950000D03*
X62230000Y-87630000D03*
X54610000Y-110490000D03*
X62230000Y-85090000D03*
X54610000Y-113030000D03*
X62230000Y-82550000D03*
X54610000Y-115570000D03*
D17*
X83820000Y-93218000D03*
D18*
X81280000Y-93218000D03*
X83820000Y-90678000D03*
X81280000Y-90678000D03*
X83820000Y-88138000D03*
X81280000Y-88138000D03*
D13*
X78994000Y-67056000D03*
X78994000Y-64556000D03*
D15*
X68072000Y-62992000D03*
D14*
X75692000Y-70612000D03*
X68072000Y-65532000D03*
X75692000Y-68072000D03*
X68072000Y-68072000D03*
X75692000Y-65532000D03*
X68072000Y-70612000D03*
X75692000Y-62992000D03*
D13*
X90678000Y-60960000D03*
X90678000Y-65960000D03*
X95504000Y-74930000D03*
X98004000Y-74930000D03*
D11*
X107188000Y-70866000D03*
X109728000Y-70866000D03*
D12*
X104648000Y-70866000D03*
D11*
X107188000Y-66040000D03*
X109728000Y-66040000D03*
D12*
X104648000Y-66040000D03*
D11*
X107188000Y-61214000D03*
X109728000Y-61214000D03*
D12*
X104648000Y-61214000D03*
D13*
X82804000Y-62484000D03*
X82804000Y-67484000D03*
D15*
X92202000Y-84582000D03*
D13*
X94702000Y-84582000D03*
D16*
X69950000Y-130180000D03*
X67450000Y-125140000D03*
X72450000Y-125140000D03*
D17*
X53480000Y-136460000D03*
D18*
X56020000Y-136460000D03*
X58560000Y-136460000D03*
X61100000Y-136460000D03*
X63640000Y-136460000D03*
X66180000Y-136460000D03*
X68720000Y-136460000D03*
X71260000Y-136460000D03*
X73800000Y-136460000D03*
X76340000Y-136460000D03*
X78880000Y-136460000D03*
X81420000Y-136460000D03*
X83960000Y-136460000D03*
X86500000Y-136460000D03*
X89040000Y-136460000D03*
X91580000Y-136460000D03*
D13*
X42900000Y-130300000D03*
X45400000Y-130300000D03*
D17*
X91280000Y-94130000D03*
D18*
X91280000Y-96670000D03*
D13*
X75940000Y-116410000D03*
D14*
X68320000Y-116410000D03*
D13*
X83990000Y-129810000D03*
D14*
X76370000Y-129810000D03*
D13*
X54930000Y-127040000D03*
D14*
X62550000Y-127040000D03*
D13*
X51562000Y-49022000D03*
D14*
X59182000Y-49022000D03*
D13*
X49260000Y-126760000D03*
D14*
X41640000Y-126760000D03*
D13*
X73406000Y-80010000D03*
D14*
X65786000Y-80010000D03*
D13*
X76200000Y-83070000D03*
D14*
X68580000Y-83070000D03*
D13*
X83650000Y-72920000D03*
D14*
X83650000Y-80540000D03*
D13*
X86868000Y-57404000D03*
D14*
X86868000Y-65024000D03*
D13*
X43240000Y-88390000D03*
D14*
X43240000Y-96010000D03*
D13*
X50830000Y-72470000D03*
D14*
X58450000Y-72470000D03*
D13*
X76454000Y-57912000D03*
D14*
X84074000Y-57912000D03*
D13*
X103886000Y-87122000D03*
D14*
X111506000Y-87122000D03*
D13*
X103886000Y-90424000D03*
D14*
X111506000Y-90424000D03*
D13*
X114808000Y-96266000D03*
D14*
X114808000Y-88646000D03*
D13*
X138430000Y-113538000D03*
D14*
X130810000Y-113538000D03*
D13*
X121158000Y-130302000D03*
D14*
X113538000Y-130302000D03*
D13*
X116840000Y-127254000D03*
D14*
X116840000Y-119634000D03*
D13*
X120396000Y-119634000D03*
D14*
X120396000Y-127254000D03*
D13*
X54870000Y-129890000D03*
D14*
X62490000Y-129890000D03*
D13*
X87630000Y-113030000D03*
D14*
X80010000Y-113030000D03*
D13*
X66450000Y-103630000D03*
D14*
X74070000Y-103630000D03*
D13*
X132334000Y-136652000D03*
D14*
X124714000Y-136652000D03*
D13*
X46410000Y-96050000D03*
D14*
X46410000Y-88430000D03*
D13*
X73406000Y-76454000D03*
D14*
X65786000Y-76454000D03*
D13*
X113538000Y-133604000D03*
D14*
X121158000Y-133604000D03*
D13*
X138430000Y-110236000D03*
D14*
X130810000Y-110236000D03*
D13*
X101092000Y-56388000D03*
D14*
X93472000Y-56388000D03*
D13*
X101092000Y-62992000D03*
D14*
X93472000Y-62992000D03*
D13*
X54356000Y-121666000D03*
D14*
X61976000Y-121666000D03*
D13*
X54870000Y-124220000D03*
D14*
X62490000Y-124220000D03*
D13*
X113538000Y-136906000D03*
D14*
X121158000Y-136906000D03*
D15*
X121158000Y-110998000D03*
D13*
X121158000Y-113498000D03*
X52070000Y-64770000D03*
X52070000Y-62270000D03*
D17*
X88900000Y-47244000D03*
D18*
X91440000Y-47244000D03*
D13*
X120142000Y-116840000D03*
X117642000Y-116840000D03*
X88646000Y-100076000D03*
X86146000Y-100076000D03*
D15*
X95504000Y-97282000D03*
D14*
X95504000Y-89662000D03*
D15*
X98298000Y-101600000D03*
D14*
X98298000Y-93980000D03*
D13*
X95504000Y-107442000D03*
D14*
X95504000Y-99822000D03*
D13*
X101390000Y-101560000D03*
D14*
X101390000Y-93940000D03*
D13*
X104394000Y-96774000D03*
D14*
X112014000Y-96774000D03*
D13*
X104394000Y-99822000D03*
D14*
X112014000Y-99822000D03*
D30*
X81788000Y-101092000D03*
X81788000Y-105972000D03*
D13*
X94742000Y-51308000D03*
D14*
X104902000Y-51308000D03*
D30*
X131638000Y-56642000D03*
X131638000Y-54102000D03*
D25*
X134366000Y-58928000D03*
D26*
X134366000Y-53848000D03*
D19*
X127762000Y-78232000D03*
D20*
X120142000Y-78232000D03*
D22*
X120152000Y-66896000D03*
X120152000Y-56736000D03*
X120152000Y-61816000D03*
X127752000Y-61816000D03*
X127752000Y-66896000D03*
X127752000Y-56736000D03*
X120152000Y-74516000D03*
X127752000Y-74516000D03*
D13*
X114950000Y-99690000D03*
X114950000Y-102190000D03*
D15*
X104330000Y-112820000D03*
D14*
X111950000Y-112820000D03*
D15*
X111960000Y-115810000D03*
D14*
X104340000Y-115810000D03*
D15*
X104340000Y-121800000D03*
D14*
X111960000Y-121800000D03*
D13*
X126492000Y-85852000D03*
D14*
X118872000Y-85852000D03*
D13*
X126238000Y-104648000D03*
D14*
X118618000Y-104648000D03*
D13*
X136652000Y-99060000D03*
D14*
X136652000Y-106680000D03*
D13*
X124180000Y-107800000D03*
X119180000Y-107800000D03*
D15*
X137668000Y-75438000D03*
D13*
X135168000Y-75438000D03*
D19*
X119126000Y-81534000D03*
D20*
X126746000Y-81534000D03*
D11*
X137922000Y-69088000D03*
X137922000Y-66548000D03*
D12*
X137922000Y-71628000D03*
D13*
X130556000Y-80264000D03*
D14*
X138176000Y-80264000D03*
D13*
X130870000Y-65880000D03*
D14*
X130870000Y-73500000D03*
D17*
X103124000Y-126746000D03*
D18*
X105664000Y-126746000D03*
X108204000Y-126746000D03*
D17*
X134112000Y-68072000D03*
D18*
X134112000Y-70612000D03*
D13*
X125950000Y-101340000D03*
D14*
X118330000Y-101340000D03*
D15*
X128778000Y-132334000D03*
D13*
X131278000Y-132334000D03*
D15*
X106310000Y-134840000D03*
D13*
X106310000Y-137340000D03*
D30*
X133858000Y-99822000D03*
X133858000Y-107442000D03*
X131318000Y-99822000D03*
X131318000Y-107442000D03*
X128778000Y-99822000D03*
X128778000Y-107442000D03*
X104394000Y-104648000D03*
X112014000Y-104648000D03*
X104394000Y-107188000D03*
X112014000Y-107188000D03*
X104394000Y-109728000D03*
X112014000Y-109728000D03*
D17*
X130302000Y-45720000D03*
D18*
X130302000Y-43180000D03*
D31*
X123444000Y-42926000D03*
X123444000Y-50546000D03*
X120650000Y-46799500D03*
X126238000Y-46799500D03*
D21*
X116840000Y-47752000D03*
D22*
X114300000Y-47752000D03*
D13*
X129032000Y-53594000D03*
D14*
X121412000Y-53594000D03*
D17*
X91440000Y-43688000D03*
D18*
X88900000Y-43688000D03*
D15*
X101092000Y-69342000D03*
D14*
X93472000Y-69342000D03*
D13*
X108712000Y-80264000D03*
D14*
X116332000Y-80264000D03*
D13*
X116332000Y-59690000D03*
X116332000Y-57190000D03*
X116586000Y-69596000D03*
D14*
X116586000Y-77216000D03*
D32*
X97536000Y-70358000D03*
X106426000Y-73660000D03*
X111252000Y-73152000D03*
X117348000Y-74676000D03*
X51330000Y-116590000D03*
X52580000Y-117270000D03*
X86050000Y-107020000D03*
X70510000Y-105580000D03*
X70320000Y-104550000D03*
X84380000Y-105990000D03*
X90424000Y-106934000D03*
X93830000Y-103690000D03*
X94440000Y-104610000D03*
X114390000Y-128000000D03*
D33*
X60706000Y-54356000D02*
X60706000Y-53848000D01*
X60706000Y-53848000D02*
X55626000Y-48768000D01*
X51562000Y-49022000D02*
X55372000Y-49022000D01*
X56380000Y-48014000D02*
X56380000Y-44370000D01*
X55372000Y-49022000D02*
X55626000Y-48768000D01*
X55626000Y-48768000D02*
X56380000Y-48014000D01*
D34*
X60706000Y-54356000D02*
X60706000Y-61214000D01*
X63754000Y-70612000D02*
X64363000Y-70003000D01*
X64363000Y-70003000D02*
X64770000Y-69596000D01*
X64770000Y-64008000D02*
X64770000Y-69596000D01*
X58950000Y-70612000D02*
X63754000Y-70612000D01*
X60706000Y-61214000D02*
X61468000Y-61976000D01*
X61468000Y-61976000D02*
X62738000Y-61976000D01*
X62738000Y-61976000D02*
X64770000Y-64008000D01*
X110744000Y-137922000D02*
X110744000Y-138684000D01*
X110744000Y-138684000D02*
X110236000Y-139192000D01*
X103900000Y-139192000D02*
X110236000Y-139192000D01*
X110236000Y-139192000D02*
X112522000Y-139192000D01*
X112522000Y-139192000D02*
X129908000Y-139192000D01*
X131064000Y-129326000D02*
X131064000Y-128016000D01*
X130070000Y-130320000D02*
X131064000Y-129326000D01*
X130070000Y-139030000D02*
X130070000Y-130320000D01*
X129908000Y-139192000D02*
X130070000Y-139030000D01*
X131064000Y-128016000D02*
X131064000Y-124968000D01*
X131064000Y-124968000D02*
X131318000Y-124714000D01*
X131600000Y-124996000D02*
X131318000Y-124714000D01*
X69342000Y-78232000D02*
X61214000Y-78232000D01*
X58450000Y-74960000D02*
X58450000Y-72470000D01*
X61214000Y-78232000D02*
X58450000Y-74960000D01*
X69342000Y-78232000D02*
X74260000Y-82642000D01*
X103124000Y-126746000D02*
X103124000Y-129540000D01*
X104140000Y-130556000D02*
X104140000Y-139192000D01*
X103124000Y-129540000D02*
X104140000Y-130556000D01*
X104140000Y-139192000D02*
X103900000Y-139192000D01*
X103900000Y-139192000D02*
X102798000Y-139192000D01*
X102798000Y-139192000D02*
X97028000Y-139192000D01*
X97028000Y-139192000D02*
X96058000Y-138222000D01*
X73820000Y-97230000D02*
X73260000Y-97230000D01*
X67290000Y-98800000D02*
X66020000Y-100070000D01*
X71690000Y-98800000D02*
X67290000Y-98800000D01*
X73260000Y-97230000D02*
X71690000Y-98800000D01*
X66020000Y-100070000D02*
X62490000Y-100070000D01*
X62490000Y-100070000D02*
X62230000Y-100330000D01*
X91280000Y-96670000D02*
X86100000Y-96670000D01*
X86100000Y-96670000D02*
X85540000Y-97230000D01*
X85540000Y-97230000D02*
X73820000Y-97230000D01*
X73820000Y-97230000D02*
X73310000Y-97230000D01*
X95504000Y-89662000D02*
X93980000Y-89662000D01*
X93980000Y-89662000D02*
X93350000Y-90292000D01*
X75940000Y-116410000D02*
X75940000Y-116930000D01*
X75940000Y-116930000D02*
X77200000Y-118190000D01*
X88790000Y-124220000D02*
X85955000Y-127055000D01*
X88790000Y-118360000D02*
X88790000Y-124220000D01*
X87360000Y-116930000D02*
X88790000Y-118360000D01*
X84290000Y-116930000D02*
X87360000Y-116930000D01*
X83030000Y-118190000D02*
X84290000Y-116930000D01*
X77200000Y-118190000D02*
X83030000Y-118190000D01*
X59740000Y-139110000D02*
X58670000Y-139110000D01*
X96058000Y-138222000D02*
X95170000Y-139110000D01*
X95170000Y-139110000D02*
X59740000Y-139110000D01*
X58670000Y-139110000D02*
X56020000Y-136460000D01*
X96520000Y-137520000D02*
X96520000Y-137760000D01*
X96520000Y-137760000D02*
X96058000Y-138222000D01*
X42900000Y-130300000D02*
X42900000Y-131520000D01*
X42900000Y-131520000D02*
X44010000Y-132630000D01*
X44010000Y-132630000D02*
X52190000Y-132630000D01*
X52190000Y-132630000D02*
X56020000Y-136460000D01*
X76370000Y-129810000D02*
X76370000Y-127810000D01*
X88090000Y-129190000D02*
X90320000Y-129190000D01*
X85430000Y-126530000D02*
X85955000Y-127055000D01*
X85955000Y-127055000D02*
X88090000Y-129190000D01*
X77650000Y-126530000D02*
X85430000Y-126530000D01*
X76370000Y-127810000D02*
X77650000Y-126530000D01*
X76370000Y-129810000D02*
X75560000Y-129810000D01*
X69680000Y-127370000D02*
X67450000Y-125140000D01*
X73120000Y-127370000D02*
X69680000Y-127370000D01*
X75560000Y-129810000D02*
X73120000Y-127370000D01*
X75940000Y-116410000D02*
X73380000Y-119360000D01*
X91280000Y-96670000D02*
X92760000Y-96670000D01*
X92760000Y-96670000D02*
X93350000Y-96080000D01*
X93350000Y-96080000D02*
X93350000Y-90292000D01*
X93350000Y-90292000D02*
X93350000Y-89710000D01*
X93350000Y-89710000D02*
X92210000Y-88570000D01*
X92210000Y-88570000D02*
X89580000Y-88570000D01*
X89580000Y-88570000D02*
X86280000Y-85270000D01*
X86280000Y-85270000D02*
X76220000Y-85270000D01*
X76220000Y-85270000D02*
X74260000Y-83310000D01*
X74260000Y-83310000D02*
X74260000Y-82642000D01*
X66020000Y-100070000D02*
X66020000Y-99782000D01*
X54610000Y-70580000D02*
X51784000Y-70580000D01*
X49784000Y-62738000D02*
X48406000Y-61360000D01*
X49784000Y-68580000D02*
X49784000Y-62738000D01*
X51784000Y-70580000D02*
X49784000Y-68580000D01*
X41070000Y-97860000D02*
X41070000Y-62820000D01*
X41070000Y-62820000D02*
X42530000Y-61360000D01*
X42530000Y-61360000D02*
X48406000Y-61360000D01*
X58950000Y-70580000D02*
X58950000Y-70612000D01*
X54610000Y-70580000D02*
X58950000Y-70580000D01*
X41640000Y-126760000D02*
X41640000Y-126450000D01*
X41640000Y-126450000D02*
X41070000Y-125880000D01*
X41070000Y-97860000D02*
X42920000Y-96010000D01*
X41070000Y-125880000D02*
X41070000Y-97860000D01*
X42920000Y-96010000D02*
X43240000Y-96010000D01*
X42900000Y-130300000D02*
X42900000Y-128020000D01*
X42900000Y-128020000D02*
X41640000Y-126760000D01*
X46410000Y-88430000D02*
X46410000Y-89830000D01*
X43240000Y-93000000D02*
X43240000Y-96010000D01*
X46410000Y-89830000D02*
X43240000Y-93000000D01*
X58450000Y-72470000D02*
X58450000Y-70612000D01*
X58450000Y-70612000D02*
X58450000Y-70660000D01*
X58450000Y-70660000D02*
X58450000Y-70612000D01*
X58450000Y-70612000D02*
X58950000Y-70612000D01*
X41640000Y-126760000D02*
X41640000Y-126506000D01*
X41640000Y-126760000D02*
X41640000Y-126252000D01*
X41640000Y-126760000D02*
X41386000Y-126760000D01*
X61046000Y-54696000D02*
X60706000Y-54356000D01*
X92240000Y-130048000D02*
X91178000Y-130048000D01*
X95250000Y-130048000D02*
X96520000Y-131318000D01*
X96520000Y-131318000D02*
X96520000Y-137520000D01*
X92240000Y-130048000D02*
X95250000Y-130048000D01*
X91178000Y-130048000D02*
X90320000Y-129190000D01*
X90320000Y-129190000D02*
X90310000Y-129180000D01*
X90310000Y-129180000D02*
X90280000Y-129150000D01*
X54610000Y-95250000D02*
X55780000Y-95250000D01*
X60860000Y-100330000D02*
X62230000Y-100330000D01*
X55780000Y-95250000D02*
X60860000Y-100330000D01*
D33*
X56380000Y-44370000D02*
X56380000Y-45005000D01*
D34*
X56020000Y-136460000D02*
X55980000Y-136460000D01*
X56170000Y-136460000D02*
X56020000Y-136460000D01*
X75940000Y-116410000D02*
X75940000Y-116084000D01*
X73380000Y-119360000D02*
X73460000Y-119440000D01*
X95032000Y-84364000D02*
X94540000Y-84364000D01*
X94780000Y-84364000D02*
X94540000Y-84364000D01*
D33*
X132146000Y-53848000D02*
X132080000Y-53848000D01*
X120142000Y-74526000D02*
X120152000Y-74516000D01*
X119888000Y-74780000D02*
X120152000Y-74516000D01*
D34*
X79502000Y-116586000D02*
X79502000Y-116242000D01*
X79502000Y-116242000D02*
X77950000Y-114690000D01*
X77950000Y-114690000D02*
X70040000Y-114690000D01*
X70040000Y-114690000D02*
X68320000Y-116410000D01*
X62300000Y-109230000D02*
X60280000Y-109230000D01*
X53900000Y-106680000D02*
X52890000Y-105670000D01*
X57730000Y-106680000D02*
X53900000Y-106680000D01*
X60280000Y-109230000D02*
X57730000Y-106680000D01*
X76050000Y-119960000D02*
X76050000Y-120546000D01*
X76050000Y-120546000D02*
X75184000Y-121412000D01*
X82550000Y-119960000D02*
X82550000Y-120904000D01*
X82550000Y-120904000D02*
X82042000Y-121412000D01*
X67812000Y-121412000D02*
X65840000Y-119440000D01*
X82042000Y-121412000D02*
X75184000Y-121412000D01*
X75184000Y-121412000D02*
X67812000Y-121412000D01*
X79502000Y-119960000D02*
X79502000Y-119888000D01*
X79502000Y-119888000D02*
X79502000Y-119960000D01*
X82550000Y-119960000D02*
X79502000Y-119960000D01*
X79502000Y-119960000D02*
X76050000Y-119960000D01*
X75946000Y-119856000D02*
X76050000Y-119960000D01*
X62230000Y-115570000D02*
X67480000Y-115570000D01*
X67480000Y-115570000D02*
X68320000Y-116410000D01*
X65840000Y-119440000D02*
X68400000Y-116490000D01*
X68400000Y-116490000D02*
X68320000Y-116410000D01*
X63780000Y-115570000D02*
X64260000Y-115090000D01*
X64260000Y-115090000D02*
X64260000Y-110440000D01*
X64260000Y-110440000D02*
X63050000Y-109230000D01*
X63050000Y-109230000D02*
X62300000Y-109230000D01*
X62230000Y-115570000D02*
X63780000Y-115570000D01*
X52890000Y-94650000D02*
X53360000Y-93960000D01*
X52890000Y-105670000D02*
X52890000Y-94650000D01*
X60640000Y-96520000D02*
X63230000Y-96520000D01*
X53360000Y-93960000D02*
X58080000Y-93960000D01*
X58080000Y-93960000D02*
X60640000Y-96520000D01*
X72578000Y-96520000D02*
X83698000Y-96520000D01*
X86198000Y-94560000D02*
X86198000Y-89766000D01*
X83820000Y-88138000D02*
X86198000Y-89766000D01*
X85078000Y-96520000D02*
X86188000Y-95410000D01*
X86188000Y-95410000D02*
X86188000Y-94560000D01*
X86188000Y-94560000D02*
X86198000Y-94560000D01*
X83698000Y-96520000D02*
X85078000Y-96520000D01*
X70938000Y-98160000D02*
X72578000Y-96520000D01*
X64870000Y-98160000D02*
X70938000Y-98160000D01*
X63230000Y-96520000D02*
X64870000Y-98160000D01*
X82002000Y-116586000D02*
X82294000Y-116586000D01*
X82294000Y-116586000D02*
X82900000Y-116240000D01*
X90260000Y-125200000D02*
X89040000Y-126420000D01*
X90260000Y-117730000D02*
X90260000Y-125200000D01*
X88350000Y-116240000D02*
X90260000Y-117730000D01*
X82900000Y-116240000D02*
X88350000Y-116240000D01*
X82316000Y-116900000D02*
X82002000Y-116586000D01*
D33*
X81280000Y-40894000D02*
X81280000Y-51308000D01*
X77978000Y-54610000D02*
X76454000Y-54610000D01*
X81280000Y-51308000D02*
X77978000Y-54610000D01*
X81280000Y-40925000D02*
X81280000Y-40894000D01*
X81280000Y-40894000D02*
X81280000Y-40925000D01*
X75692000Y-68072000D02*
X77978000Y-68072000D01*
X77978000Y-68072000D02*
X78994000Y-67056000D01*
X77216000Y-64770000D02*
X77216000Y-66548000D01*
X77216000Y-66548000D02*
X75692000Y-68072000D01*
X81534000Y-40925000D02*
X81534000Y-41148000D01*
X81534000Y-41148000D02*
X81534000Y-40925000D01*
X70612000Y-45466000D02*
X70612000Y-40894000D01*
X68326000Y-47752000D02*
X70612000Y-45466000D01*
X68326000Y-54356000D02*
X68326000Y-47752000D01*
X69088000Y-55118000D02*
X68326000Y-54356000D01*
X72644000Y-55118000D02*
X69088000Y-55118000D01*
X73152000Y-55626000D02*
X72644000Y-55118000D01*
X73152000Y-59436000D02*
X73152000Y-55626000D01*
X74168000Y-60960000D02*
X73152000Y-59436000D01*
X76454000Y-60960000D02*
X74168000Y-60960000D01*
X77216000Y-61976000D02*
X76454000Y-60960000D01*
X77216000Y-64770000D02*
X77216000Y-61976000D01*
X78994000Y-67056000D02*
X78994000Y-67182000D01*
X54864000Y-54356000D02*
X49530000Y-54356000D01*
X49530000Y-54356000D02*
X49022000Y-53848000D01*
X49022000Y-53848000D02*
X49022000Y-46648000D01*
X49022000Y-46648000D02*
X51300000Y-44370000D01*
X52070000Y-62270000D02*
X52070000Y-59436000D01*
X49022000Y-56388000D02*
X49022000Y-53848000D01*
X52070000Y-59436000D02*
X49022000Y-56388000D01*
X54864000Y-54356000D02*
X54900000Y-58440000D01*
X54900000Y-58440000D02*
X55410000Y-58950000D01*
X49500000Y-53370000D02*
X49022000Y-53848000D01*
X56580000Y-40894000D02*
X52616000Y-40894000D01*
X51300000Y-42210000D02*
X51300000Y-44370000D01*
X52616000Y-40894000D02*
X51300000Y-42210000D01*
X70612000Y-40894000D02*
X56580000Y-40894000D01*
X78232000Y-40925000D02*
X77724000Y-40925000D01*
X75894000Y-40894000D02*
X70612000Y-40894000D01*
X75925000Y-40925000D02*
X75894000Y-40894000D01*
X77724000Y-40925000D02*
X75925000Y-40925000D01*
X81534000Y-40925000D02*
X81280000Y-40925000D01*
X81280000Y-40925000D02*
X78232000Y-40925000D01*
X82770000Y-40925000D02*
X82296000Y-40925000D01*
X82296000Y-40925000D02*
X82042000Y-40925000D01*
X82042000Y-40925000D02*
X81534000Y-40925000D01*
X118110000Y-40640000D02*
X87530000Y-40640000D01*
X87530000Y-40640000D02*
X87250000Y-40920000D01*
X139446000Y-42672000D02*
X139446000Y-63250000D01*
X137414000Y-40640000D02*
X139446000Y-42672000D01*
X137922000Y-71628000D02*
X138938000Y-71628000D01*
X138938000Y-71628000D02*
X139446000Y-71120000D01*
X139446000Y-65532000D02*
X139446000Y-71120000D01*
X139446000Y-64516000D02*
X139446000Y-65532000D01*
X139446000Y-71120000D02*
X139446000Y-73660000D01*
X139446000Y-73660000D02*
X137668000Y-75438000D01*
X139446000Y-64460000D02*
X139446000Y-64516000D01*
X139446000Y-63250000D02*
X139446000Y-64008000D01*
X139446000Y-64008000D02*
X139446000Y-64460000D01*
X139446000Y-64460000D02*
X139446000Y-64584000D01*
X87250000Y-40920000D02*
X86868000Y-40920000D01*
X82770000Y-40920000D02*
X82770000Y-40925000D01*
X86868000Y-40920000D02*
X82770000Y-40920000D01*
X78994000Y-67056000D02*
X78644000Y-67056000D01*
X52070000Y-62270000D02*
X53380000Y-62270000D01*
X53380000Y-62270000D02*
X56642000Y-65532000D01*
X49022000Y-53848000D02*
X49022000Y-55118000D01*
X49530000Y-53340000D02*
X49022000Y-53848000D01*
X55410000Y-58950000D02*
X55410000Y-64300000D01*
X55410000Y-64300000D02*
X56642000Y-65532000D01*
X78994000Y-67056000D02*
X79502000Y-67056000D01*
X75692000Y-68072000D02*
X76200000Y-68072000D01*
X83566000Y-40925000D02*
X82770000Y-40925000D01*
X118110000Y-40640000D02*
X137414000Y-40640000D01*
X139446000Y-63250000D02*
X139446000Y-63500000D01*
D34*
X98552000Y-131572000D02*
X98552000Y-130556000D01*
X91580000Y-127394000D02*
X91580000Y-126420000D01*
X93218000Y-129032000D02*
X91580000Y-127394000D01*
X97028000Y-129032000D02*
X93218000Y-129032000D01*
X98552000Y-130556000D02*
X97028000Y-129032000D01*
X91580000Y-126420000D02*
X91580000Y-122650000D01*
X91580000Y-122650000D02*
X95780000Y-118450000D01*
X95780000Y-118450000D02*
X96050000Y-118450000D01*
X95780000Y-118450000D02*
X96180000Y-118450000D01*
X95780000Y-118450000D02*
X95780000Y-118750000D01*
X101854000Y-131572000D02*
X101854000Y-130556000D01*
X94120000Y-127394000D02*
X94120000Y-126420000D01*
X94996000Y-128270000D02*
X94120000Y-127394000D01*
X99568000Y-128270000D02*
X94996000Y-128270000D01*
X101854000Y-130556000D02*
X99568000Y-128270000D01*
X94120000Y-126420000D02*
X94120000Y-123620000D01*
X94120000Y-123620000D02*
X95670000Y-122070000D01*
X95790000Y-122190000D02*
X95670000Y-122070000D01*
X105664000Y-126746000D02*
X105664000Y-125730000D01*
X97028000Y-122174000D02*
X97028000Y-117368000D01*
X99822000Y-124968000D02*
X97028000Y-122174000D01*
X104902000Y-124968000D02*
X99822000Y-124968000D01*
X105664000Y-125730000D02*
X104902000Y-124968000D01*
X69160000Y-109300000D02*
X69370000Y-109300000D01*
X69370000Y-109300000D02*
X71040000Y-110970000D01*
X95110000Y-115450000D02*
X97028000Y-117368000D01*
X85610000Y-115450000D02*
X95110000Y-115450000D01*
X81130000Y-110970000D02*
X85610000Y-115450000D01*
X71040000Y-110970000D02*
X81130000Y-110970000D01*
X54610000Y-105410000D02*
X58730000Y-105410000D01*
X66540000Y-106680000D02*
X69160000Y-109300000D01*
X60000000Y-106680000D02*
X66540000Y-106680000D01*
X58730000Y-105410000D02*
X60000000Y-106680000D01*
X54610000Y-105410000D02*
X55110000Y-105410000D01*
X68834000Y-94996000D02*
X67310000Y-94996000D01*
X67056000Y-95250000D02*
X62230000Y-95250000D01*
X67310000Y-94996000D02*
X67056000Y-95250000D01*
X68834000Y-94996000D02*
X68834000Y-95250000D01*
X69516000Y-94568000D02*
X73406000Y-94568000D01*
X68834000Y-95250000D02*
X69516000Y-94568000D01*
X68834000Y-90116000D02*
X68834000Y-90424000D01*
X68834000Y-90424000D02*
X66548000Y-92710000D01*
X66548000Y-92710000D02*
X62230000Y-92710000D01*
X68834000Y-90116000D02*
X72162000Y-90116000D01*
X72162000Y-90116000D02*
X73406000Y-91360000D01*
X68834000Y-90116000D02*
X68834000Y-89916000D01*
X68834000Y-89916000D02*
X69168000Y-89582000D01*
X73178000Y-91132000D02*
X73406000Y-91360000D01*
X54930000Y-127040000D02*
X54930000Y-126300000D01*
X54930000Y-126300000D02*
X49023988Y-120393988D01*
X49023988Y-120393988D02*
X49023988Y-106963988D01*
X49023988Y-106963988D02*
X47280000Y-105220000D01*
X47280000Y-105220000D02*
X46380000Y-105220000D01*
X46380000Y-105220000D02*
X43380000Y-108460000D01*
X46410000Y-96050000D02*
X46410000Y-96170000D01*
X46410000Y-96170000D02*
X47498000Y-97258000D01*
X47498000Y-97258000D02*
X47280000Y-98720000D01*
X47280000Y-98720000D02*
X47280000Y-105220000D01*
X47280000Y-105220000D02*
X47280000Y-105832000D01*
D33*
X111506000Y-93472000D02*
X116452000Y-93472000D01*
X116452000Y-93472000D02*
X117890000Y-94910000D01*
D34*
X99822000Y-86868000D02*
X99822000Y-86106000D01*
X99822000Y-86106000D02*
X99314000Y-85598000D01*
X97536000Y-80010000D02*
X96012000Y-78486000D01*
X99314000Y-81788000D02*
X97536000Y-80010000D01*
X99314000Y-85598000D02*
X99314000Y-81788000D01*
X99822000Y-86868000D02*
X99822000Y-86614000D01*
X99822000Y-86868000D02*
X100076000Y-86868000D01*
X100076000Y-86868000D02*
X102108000Y-88900000D01*
X102108000Y-88900000D02*
X106934000Y-88900000D01*
X106934000Y-88900000D02*
X111506000Y-93472000D01*
X111506000Y-93472000D02*
X110872000Y-93472000D01*
D33*
X117632000Y-94652000D02*
X117890000Y-94910000D01*
D34*
X83650000Y-80540000D02*
X83650000Y-81048000D01*
X83650000Y-81048000D02*
X85852000Y-83058000D01*
X85852000Y-83058000D02*
X88646000Y-83058000D01*
X88646000Y-83058000D02*
X90678000Y-83058000D01*
X90678000Y-83058000D02*
X92202000Y-84582000D01*
X68834000Y-57404000D02*
X68834000Y-62230000D01*
X68834000Y-62230000D02*
X68072000Y-62992000D01*
X71334000Y-57404000D02*
X71334000Y-61682000D01*
X72644000Y-62992000D02*
X75692000Y-62992000D01*
X71334000Y-61682000D02*
X72644000Y-62992000D01*
D33*
X80518000Y-70358000D02*
X80518000Y-69596000D01*
X80518000Y-69596000D02*
X80772000Y-69342000D01*
X70866000Y-53086000D02*
X70866000Y-51308000D01*
X71882000Y-54102000D02*
X70866000Y-53086000D01*
X72644000Y-54102000D02*
X71882000Y-54102000D01*
X73914000Y-55372000D02*
X72644000Y-54102000D01*
X73914000Y-58928000D02*
X73914000Y-55372000D01*
X75184000Y-60198000D02*
X73914000Y-58928000D01*
X77470000Y-60198000D02*
X75184000Y-60198000D01*
X79248000Y-61976000D02*
X77470000Y-60198000D01*
X79248000Y-62738000D02*
X79248000Y-61976000D01*
X80772000Y-64262000D02*
X79248000Y-62738000D01*
X80772000Y-69342000D02*
X80772000Y-64262000D01*
X80772000Y-70104000D02*
X80518000Y-70358000D01*
X80518000Y-70358000D02*
X75946000Y-70358000D01*
X75946000Y-70358000D02*
X75692000Y-70612000D01*
X83018000Y-70358000D02*
X83312000Y-70358000D01*
X83312000Y-70358000D02*
X84836000Y-68834000D01*
X84836000Y-67056000D02*
X86868000Y-65024000D01*
X84836000Y-68834000D02*
X84836000Y-67056000D01*
X83018000Y-70358000D02*
X83058000Y-70358000D01*
X70866000Y-48808000D02*
X71588000Y-48808000D01*
X71588000Y-48808000D02*
X74676000Y-45720000D01*
X74676000Y-45720000D02*
X78486000Y-45720000D01*
X116586000Y-62484000D02*
X115570000Y-62484000D01*
X115276000Y-57190000D02*
X116332000Y-57190000D01*
X114554000Y-57912000D02*
X115276000Y-57190000D01*
X114554000Y-61468000D02*
X114554000Y-57912000D01*
X115570000Y-62484000D02*
X114554000Y-61468000D01*
X115784000Y-57190000D02*
X116332000Y-57190000D01*
X93980000Y-53594000D02*
X112268000Y-53594000D01*
X112268000Y-53594000D02*
X112522000Y-53848000D01*
X98004000Y-74930000D02*
X98004000Y-72604000D01*
X96012000Y-55372000D02*
X94234000Y-53594000D01*
X96012000Y-70612000D02*
X96012000Y-55372000D01*
X98004000Y-72604000D02*
X96012000Y-70612000D01*
X94234000Y-53594000D02*
X93980000Y-53594000D01*
X93980000Y-53594000D02*
X92496000Y-53594000D01*
X92496000Y-53594000D02*
X90424000Y-55666000D01*
X101092000Y-82550000D02*
X101092000Y-82042000D01*
X101092000Y-82042000D02*
X98004000Y-78700000D01*
X98004000Y-78700000D02*
X98004000Y-74930000D01*
X90424000Y-55666000D02*
X89702000Y-55666000D01*
X89702000Y-55666000D02*
X89154000Y-54610000D01*
X89154000Y-54610000D02*
X86614000Y-54610000D01*
X90384000Y-55626000D02*
X90424000Y-55666000D01*
X101052000Y-82510000D02*
X101092000Y-82550000D01*
X101092000Y-82550000D02*
X101092000Y-83058000D01*
X103886000Y-85852000D02*
X103886000Y-87122000D01*
X101092000Y-83058000D02*
X103886000Y-85852000D01*
X105918000Y-75692000D02*
X105918000Y-78994000D01*
X110490000Y-83566000D02*
X107188000Y-83566000D01*
X107188000Y-83566000D02*
X106172000Y-82550000D01*
X105918000Y-78994000D02*
X105918000Y-82296000D01*
X105918000Y-82296000D02*
X106172000Y-82550000D01*
X114808000Y-88646000D02*
X114808000Y-86868000D01*
X112268000Y-85344000D02*
X110490000Y-83566000D01*
X113284000Y-85344000D02*
X112268000Y-85344000D01*
X114808000Y-86868000D02*
X113284000Y-85344000D01*
X114808000Y-88646000D02*
X114808000Y-88008000D01*
X103632000Y-82550000D02*
X103632000Y-82296000D01*
X103632000Y-82296000D02*
X100918000Y-79328000D01*
X100918000Y-79328000D02*
X100918000Y-78994000D01*
X119610000Y-90360000D02*
X111570000Y-90360000D01*
X111570000Y-90360000D02*
X111506000Y-90424000D01*
X111506000Y-87122000D02*
X107442000Y-87122000D01*
X103632000Y-83312000D02*
X103632000Y-82550000D01*
X107442000Y-87122000D02*
X103632000Y-83312000D01*
X111506000Y-90424000D02*
X111428000Y-87200000D01*
X111428000Y-87200000D02*
X111506000Y-87122000D01*
X109220000Y-74462000D02*
X109220000Y-74422000D01*
X109220000Y-74422000D02*
X107188000Y-72390000D01*
X107188000Y-72390000D02*
X107188000Y-70866000D01*
X107188000Y-70866000D02*
X107188000Y-71628000D01*
X101854000Y-70866000D02*
X101092000Y-69342000D01*
X103378000Y-72390000D02*
X101854000Y-70866000D01*
X106426000Y-72390000D02*
X103378000Y-72390000D01*
X107188000Y-71628000D02*
X106426000Y-72390000D01*
X107188000Y-61214000D02*
X107188000Y-56388000D01*
X107188000Y-66040000D02*
X107188000Y-61214000D01*
X107188000Y-66040000D02*
X107188000Y-70866000D01*
X97536000Y-70358000D02*
X100838000Y-73660000D01*
X100838000Y-73660000D02*
X106426000Y-73660000D01*
X111252000Y-73152000D02*
X116332000Y-73152000D01*
X116332000Y-73152000D02*
X117348000Y-74168000D01*
X117348000Y-74168000D02*
X117348000Y-74676000D01*
X118872000Y-81788000D02*
X119126000Y-81534000D01*
X90678000Y-60960000D02*
X90678000Y-62484000D01*
X91186000Y-62992000D02*
X93472000Y-62992000D01*
X90678000Y-62484000D02*
X91186000Y-62992000D01*
X93472000Y-62992000D02*
X93472000Y-66294000D01*
X93472000Y-59690000D02*
X93472000Y-62992000D01*
X93472000Y-56388000D02*
X93472000Y-59690000D01*
X87630000Y-67564000D02*
X91948000Y-67564000D01*
X91948000Y-67564000D02*
X93218000Y-66294000D01*
X93218000Y-66294000D02*
X93472000Y-66294000D01*
X93472000Y-69342000D02*
X93472000Y-66294000D01*
X115570000Y-51308000D02*
X117856000Y-51308000D01*
X119126000Y-52578000D02*
X119126000Y-54356000D01*
X117856000Y-51308000D02*
X119126000Y-52578000D01*
X110744000Y-51308000D02*
X115570000Y-51308000D01*
X119126000Y-54356000D02*
X119760707Y-54990707D01*
X120680000Y-54990000D02*
X119760707Y-54990707D01*
X122428000Y-58166000D02*
X122420000Y-56270000D01*
X121158000Y-59436000D02*
X122428000Y-58166000D01*
X119126000Y-59436000D02*
X121158000Y-59436000D01*
X118110000Y-60452000D02*
X119126000Y-59436000D01*
X118110000Y-64516000D02*
X118110000Y-60452000D01*
X119474000Y-66896000D02*
X118110000Y-64516000D01*
X122480000Y-56240000D02*
X120680000Y-54990000D01*
X122420000Y-56270000D02*
X122480000Y-56240000D01*
X120152000Y-66896000D02*
X119474000Y-66896000D01*
X92122000Y-51054000D02*
X92122000Y-50626000D01*
X92122000Y-50626000D02*
X93472000Y-49276000D01*
X97282000Y-51308000D02*
X104902000Y-51308000D01*
X95250000Y-49276000D02*
X97282000Y-51308000D01*
X93472000Y-49276000D02*
X95250000Y-49276000D01*
X88900000Y-47244000D02*
X88900000Y-48768000D01*
X91186000Y-51054000D02*
X92122000Y-51054000D01*
X88900000Y-48768000D02*
X91186000Y-51054000D01*
X96012000Y-43688000D02*
X96012000Y-43942000D01*
X96012000Y-43942000D02*
X94742000Y-45212000D01*
X94742000Y-45212000D02*
X90932000Y-45212000D01*
X90932000Y-45212000D02*
X88900000Y-47244000D01*
X108244000Y-51308000D02*
X104944000Y-51266000D01*
X104944000Y-51266000D02*
X104902000Y-51308000D01*
X108244000Y-51308000D02*
X107950000Y-51308000D01*
X106172000Y-43688000D02*
X103124000Y-43688000D01*
X100758000Y-46054000D02*
X100758000Y-47498000D01*
X103124000Y-43688000D02*
X100758000Y-46054000D01*
X106172000Y-43688000D02*
X105998000Y-43688000D01*
X106172000Y-43688000D02*
X106172000Y-43942000D01*
D34*
X65786000Y-76454000D02*
X64008000Y-76454000D01*
X61468000Y-73914000D02*
X61468000Y-72390000D01*
X64008000Y-76454000D02*
X61468000Y-73914000D01*
X74070000Y-103630000D02*
X74070000Y-100620000D01*
X69944000Y-76454000D02*
X65786000Y-76454000D01*
X71810000Y-78320000D02*
X69944000Y-76454000D01*
X77440000Y-78320000D02*
X71810000Y-78320000D01*
X78400000Y-77020000D02*
X77440000Y-78320000D01*
X89960000Y-77020000D02*
X78400000Y-77020000D01*
X97040000Y-84320000D02*
X89960000Y-77020000D01*
X97040000Y-91750000D02*
X97040000Y-84320000D01*
X93900002Y-94889998D02*
X97040000Y-91750000D01*
X93900002Y-97179998D02*
X93900002Y-94889998D01*
X92950000Y-98130000D02*
X93900002Y-97179998D01*
X89050000Y-98130000D02*
X92950000Y-98130000D01*
X88880000Y-97960000D02*
X89050000Y-98130000D01*
X76730000Y-97960000D02*
X88880000Y-97960000D01*
X74070000Y-100620000D02*
X76730000Y-97960000D01*
X74070000Y-103630000D02*
X74324000Y-103630000D01*
X65786000Y-69088000D02*
X65786000Y-70572000D01*
X65786000Y-70572000D02*
X63968000Y-72390000D01*
X65786000Y-60960000D02*
X65786000Y-46736000D01*
X65786000Y-46736000D02*
X62992000Y-43942000D01*
X62992000Y-43942000D02*
X62738000Y-43942000D01*
X65786000Y-70652000D02*
X65786000Y-69088000D01*
X65786000Y-69088000D02*
X65786000Y-60960000D01*
X121158000Y-133604000D02*
X121158000Y-136906000D01*
X125140000Y-132490000D02*
X123346000Y-132490000D01*
X123346000Y-132490000D02*
X121158000Y-130302000D01*
X125140000Y-132490000D02*
X122272000Y-132490000D01*
X122272000Y-132490000D02*
X121158000Y-133604000D01*
X125140000Y-132490000D02*
X124616000Y-132490000D01*
X125140000Y-132490000D02*
X125140000Y-131400000D01*
X126492000Y-127000000D02*
X128778000Y-124714000D01*
X126492000Y-130048000D02*
X126492000Y-127000000D01*
X125140000Y-131400000D02*
X126492000Y-130048000D01*
D33*
X61722000Y-49022000D02*
X59182000Y-49022000D01*
X130556000Y-91694000D02*
X125750000Y-91620000D01*
X125750000Y-91620000D02*
X124490000Y-90360000D01*
X125510000Y-94910000D02*
X125510000Y-91380000D01*
X125510000Y-91380000D02*
X124490000Y-90360000D01*
X124722000Y-90128000D02*
X124490000Y-90360000D01*
X124744000Y-90614000D02*
X124490000Y-90360000D01*
X130556000Y-91694000D02*
X130506000Y-94946000D01*
X130506000Y-94946000D02*
X130556000Y-94996000D01*
X130556000Y-88138000D02*
X130506000Y-84632000D01*
X130506000Y-84632000D02*
X130556000Y-84582000D01*
X130556000Y-91694000D02*
X130556000Y-88138000D01*
D34*
X64262000Y-93970000D02*
X67574000Y-93970000D01*
X84836000Y-90678000D02*
X85458000Y-91300000D01*
X85458000Y-91300000D02*
X85458000Y-93970000D01*
X85458000Y-93970000D02*
X83998000Y-95430000D01*
X83998000Y-95430000D02*
X77848000Y-95430000D01*
X84836000Y-90678000D02*
X83820000Y-90678000D01*
X77142000Y-95430000D02*
X77848000Y-95430000D01*
X74422000Y-92964000D02*
X77142000Y-95430000D01*
X68834000Y-92964000D02*
X74422000Y-92964000D01*
X67574000Y-93970000D02*
X68834000Y-92964000D01*
X59510000Y-92710000D02*
X54610000Y-92710000D01*
X60770000Y-93970000D02*
X59510000Y-92710000D01*
X64262000Y-93970000D02*
X60770000Y-93970000D01*
X54610000Y-87630000D02*
X55740000Y-87630000D01*
X78798000Y-90678000D02*
X81280000Y-90678000D01*
X76420000Y-88300000D02*
X78798000Y-90678000D01*
X76420000Y-86730000D02*
X76420000Y-88300000D01*
X73060000Y-83370000D02*
X76420000Y-86730000D01*
X73060000Y-83070000D02*
X73060000Y-83370000D01*
X71320000Y-81330000D02*
X73060000Y-83070000D01*
X68280000Y-81330000D02*
X71320000Y-81330000D01*
X66630000Y-82980000D02*
X68280000Y-81330000D01*
X66630000Y-85610000D02*
X66630000Y-82980000D01*
X63360000Y-88880000D02*
X66630000Y-85610000D01*
X56990000Y-88880000D02*
X63360000Y-88880000D01*
X55740000Y-87630000D02*
X56990000Y-88880000D01*
X54610000Y-87630000D02*
X54980000Y-87630000D01*
X81178000Y-90678000D02*
X81280000Y-90678000D01*
X81280000Y-90678000D02*
X80586000Y-90678000D01*
X83770000Y-122700000D02*
X84110000Y-122940000D01*
X86930000Y-118450000D02*
X85620000Y-118450000D01*
X87780000Y-119300000D02*
X86930000Y-118450000D01*
X87780000Y-123360000D02*
X87780000Y-119300000D01*
X87100000Y-124040000D02*
X87780000Y-123360000D01*
X85210000Y-124040000D02*
X87100000Y-124040000D01*
X84110000Y-122940000D02*
X85210000Y-124040000D01*
X65024000Y-122428000D02*
X66300000Y-122470000D01*
X66780000Y-122700000D02*
X83770000Y-122700000D01*
X83770000Y-122700000D02*
X84000000Y-122940000D01*
X66300000Y-122470000D02*
X66780000Y-122700000D01*
X85620000Y-118450000D02*
X86220000Y-118450000D01*
X59994000Y-112240000D02*
X61490000Y-110490000D01*
X59994000Y-117350000D02*
X59994000Y-112240000D01*
X65024000Y-122428000D02*
X59994000Y-117350000D01*
X61490000Y-110490000D02*
X62230000Y-110490000D01*
X85620000Y-118450000D02*
X86128000Y-118450000D01*
X61468000Y-110490000D02*
X62230000Y-110490000D01*
X62230000Y-113030000D02*
X61830000Y-113030000D01*
X61830000Y-113030000D02*
X60720000Y-114140000D01*
X60720000Y-114140000D02*
X60720000Y-117130000D01*
X60720000Y-117130000D02*
X65210000Y-121620000D01*
X65210000Y-121620000D02*
X66710000Y-121620000D01*
X66710000Y-121620000D02*
X67190000Y-122100000D01*
X67190000Y-122100000D02*
X85480000Y-122100000D01*
X85480000Y-122100000D02*
X85510000Y-122070000D01*
X85510000Y-122070000D02*
X85100000Y-122070000D01*
X62230000Y-87630000D02*
X62738000Y-87630000D01*
X62738000Y-87630000D02*
X65786000Y-84582000D01*
X65786000Y-84582000D02*
X65786000Y-80010000D01*
X65614000Y-80034000D02*
X65786000Y-80010000D01*
X85852000Y-78486000D02*
X81788000Y-78486000D01*
X81788000Y-78486000D02*
X80264000Y-80010000D01*
X80264000Y-80010000D02*
X73406000Y-80010000D01*
X73406000Y-80010000D02*
X73406000Y-80016000D01*
X73406000Y-80016000D02*
X73954000Y-80564000D01*
X73706000Y-80310000D02*
X73406000Y-80010000D01*
X73914000Y-80518000D02*
X73406000Y-80010000D01*
X62230000Y-90170000D02*
X64008000Y-90170000D01*
X68580000Y-85598000D02*
X68580000Y-83070000D01*
X64008000Y-90170000D02*
X68580000Y-85598000D01*
X100110000Y-91870000D02*
X98910000Y-91870000D01*
X80056000Y-76320000D02*
X78486000Y-74930000D01*
X90450000Y-76320000D02*
X80056000Y-76320000D01*
X97680000Y-83730000D02*
X90450000Y-76320000D01*
X97680000Y-90640000D02*
X97680000Y-83730000D01*
X98910000Y-91870000D02*
X97680000Y-90640000D01*
X87630000Y-113030000D02*
X96850000Y-113030000D01*
X102420000Y-91870000D02*
X100110000Y-91870000D01*
X100110000Y-91870000D02*
X99440000Y-91870000D01*
X106910000Y-96360000D02*
X102420000Y-91870000D01*
X106910000Y-101354180D02*
X106910000Y-96360000D01*
X105817182Y-102446998D02*
X106910000Y-101354180D01*
X103583002Y-102446998D02*
X105817182Y-102446998D01*
X100470000Y-105560000D02*
X103583002Y-102446998D01*
X100470000Y-109410000D02*
X100470000Y-105560000D01*
X96850000Y-113030000D02*
X100470000Y-109410000D01*
X62230000Y-107950000D02*
X63500000Y-107950000D01*
X66294000Y-113030000D02*
X80010000Y-113030000D01*
X65024000Y-111760000D02*
X66294000Y-113030000D01*
X65024000Y-109474000D02*
X65024000Y-111760000D01*
X63500000Y-107950000D02*
X65024000Y-109474000D01*
X62340000Y-108060000D02*
X62230000Y-107950000D01*
X62230000Y-105410000D02*
X62230000Y-105220000D01*
X62230000Y-105220000D02*
X63820000Y-103630000D01*
X63820000Y-103630000D02*
X66450000Y-103630000D01*
X62230000Y-105410000D02*
X62230000Y-105280000D01*
X62738000Y-104902000D02*
X62230000Y-105410000D01*
X66450000Y-103630000D02*
X66450000Y-103670000D01*
X62484000Y-105156000D02*
X62230000Y-105410000D01*
X66548000Y-63246000D02*
X66548000Y-64770000D01*
X66548000Y-60198000D02*
X66548000Y-63246000D01*
X67738000Y-43942000D02*
X66548000Y-45132000D01*
X66548000Y-60198000D02*
X66548000Y-45132000D01*
X66548000Y-64770000D02*
X67310000Y-65532000D01*
X67310000Y-65532000D02*
X68072000Y-65532000D01*
X68072000Y-65532000D02*
X67720000Y-65532000D01*
X131278000Y-132334000D02*
X131278000Y-135596000D01*
X131278000Y-135596000D02*
X132334000Y-136652000D01*
X136020000Y-127500000D02*
X136020000Y-127592000D01*
X136020000Y-127592000D02*
X131278000Y-132334000D01*
X131318000Y-117094000D02*
X131318000Y-117532000D01*
X131318000Y-117532000D02*
X130340000Y-118510000D01*
X131946000Y-110236000D02*
X130810000Y-110236000D01*
X132860000Y-111150000D02*
X131946000Y-110236000D01*
X132860000Y-114290000D02*
X132860000Y-111150000D01*
X132260000Y-114890000D02*
X132860000Y-114290000D01*
X128510000Y-114890000D02*
X132260000Y-114890000D01*
X127480000Y-115920000D02*
X128510000Y-114890000D01*
X127480000Y-117880000D02*
X127480000Y-115920000D01*
X128110000Y-118510000D02*
X127480000Y-117880000D01*
X130340000Y-118510000D02*
X128110000Y-118510000D01*
X136020000Y-127500000D02*
X135882000Y-127500000D01*
X135882000Y-127500000D02*
X133350000Y-124968000D01*
X133350000Y-124968000D02*
X133350000Y-119126000D01*
X133350000Y-119126000D02*
X131318000Y-117094000D01*
X125140000Y-127490000D02*
X124478000Y-127490000D01*
X124478000Y-127490000D02*
X123190000Y-128778000D01*
X118364000Y-128778000D02*
X116840000Y-127254000D01*
X123190000Y-128778000D02*
X118364000Y-128778000D01*
X125140000Y-127490000D02*
X125140000Y-125812000D01*
X125140000Y-125812000D02*
X126238000Y-124714000D01*
D33*
X135168000Y-75438000D02*
X135168000Y-71668000D01*
X135168000Y-71668000D02*
X134112000Y-70612000D01*
X135190000Y-74992000D02*
X135168000Y-75438000D01*
X135168000Y-75088000D02*
X135168000Y-75438000D01*
D34*
X113580000Y-108680000D02*
X113580000Y-105660000D01*
X113580000Y-105660000D02*
X116259998Y-102980002D01*
X131318000Y-99822000D02*
X131318000Y-99208000D01*
X131318000Y-99208000D02*
X129760000Y-97650000D01*
X117750000Y-99910000D02*
X116259998Y-101400002D01*
X116259998Y-101400002D02*
X116259998Y-102980002D01*
X118690000Y-99910000D02*
X121310000Y-97650000D01*
X121310000Y-97650000D02*
X129760000Y-97650000D01*
X117750000Y-99910000D02*
X118690000Y-99910000D01*
X131350000Y-99790000D02*
X131318000Y-99822000D01*
X131318000Y-99822000D02*
X131232000Y-99822000D01*
X109982000Y-111888000D02*
X109982000Y-117620000D01*
X110420000Y-111450000D02*
X109982000Y-111888000D01*
X112760000Y-111450000D02*
X110420000Y-111450000D01*
X113580000Y-110630000D02*
X112760000Y-111450000D01*
X113580000Y-108680000D02*
X113580000Y-110630000D01*
X111960000Y-115810000D02*
X110758000Y-115810000D01*
X111132000Y-121800000D02*
X111960000Y-121800000D01*
X109982000Y-120650000D02*
X111132000Y-121800000D01*
X109982000Y-116586000D02*
X109982000Y-117620000D01*
X109982000Y-117620000D02*
X109982000Y-120650000D01*
X110758000Y-115810000D02*
X109982000Y-116586000D01*
X131318000Y-99822000D02*
X131318000Y-99568000D01*
D33*
X130870000Y-73500000D02*
X132174000Y-73500000D01*
X136144000Y-80264000D02*
X138176000Y-80264000D01*
X133096000Y-77470000D02*
X136144000Y-80264000D01*
X133096000Y-74676000D02*
X133096000Y-77470000D01*
X132174000Y-73500000D02*
X133096000Y-74676000D01*
X134112000Y-68072000D02*
X132588000Y-68072000D01*
X130870000Y-69790000D02*
X130870000Y-73500000D01*
X132588000Y-68072000D02*
X130870000Y-69790000D01*
X137668000Y-80264000D02*
X138176000Y-80264000D01*
D34*
X113538000Y-136906000D02*
X113538000Y-136818000D01*
X113538000Y-136818000D02*
X112090000Y-135370000D01*
X112090000Y-135370000D02*
X112090000Y-134560000D01*
X112090000Y-134560000D02*
X109474000Y-131944000D01*
X109474000Y-131944000D02*
X109474000Y-127762000D01*
X88138000Y-114846000D02*
X86144000Y-114846000D01*
X86144000Y-114846000D02*
X80458000Y-109160000D01*
X97790000Y-117094000D02*
X95542000Y-114846000D01*
X97790000Y-122131998D02*
X97790000Y-117094000D01*
X100076000Y-124417998D02*
X97790000Y-122131998D01*
X108415998Y-124417998D02*
X100076000Y-124417998D01*
X109474000Y-125476000D02*
X108415998Y-124417998D01*
X109474000Y-127762000D02*
X109474000Y-125476000D01*
X94996000Y-114846000D02*
X95542000Y-114846000D01*
X88138000Y-114846000D02*
X94996000Y-114846000D01*
X76730000Y-109160000D02*
X80458000Y-109160000D01*
X71815000Y-106575000D02*
X70045000Y-106575000D01*
X68930000Y-102470000D02*
X68080000Y-101620000D01*
X68930000Y-105460000D02*
X68930000Y-102470000D01*
X70045000Y-106575000D02*
X68930000Y-105460000D01*
X71815000Y-106575000D02*
X72610000Y-107370000D01*
X72610000Y-107370000D02*
X75430000Y-107370000D01*
X75430000Y-107370000D02*
X76730000Y-108670000D01*
X76730000Y-109160000D02*
X77110000Y-109160000D01*
X54610000Y-102870000D02*
X54610000Y-102580000D01*
X54610000Y-102580000D02*
X55570000Y-101620000D01*
X55570000Y-101620000D02*
X63090000Y-101620000D01*
X63090000Y-101620000D02*
X63630000Y-101620000D01*
X63630000Y-101620000D02*
X68080000Y-101620000D01*
X76730000Y-108670000D02*
X76730000Y-109160000D01*
X54610000Y-102870000D02*
X55000000Y-102870000D01*
D33*
X104648000Y-56388000D02*
X101092000Y-56388000D01*
X101346000Y-56642000D02*
X101092000Y-56388000D01*
X101092000Y-66294000D02*
X101346000Y-66294000D01*
X101346000Y-66294000D02*
X104648000Y-69596000D01*
X104648000Y-69596000D02*
X104648000Y-70866000D01*
X101092000Y-66294000D02*
X101092000Y-66548000D01*
X101092000Y-62992000D02*
X101600000Y-62992000D01*
X101600000Y-62992000D02*
X104648000Y-66040000D01*
X101092000Y-62992000D02*
X101092000Y-63246000D01*
X101092000Y-59690000D02*
X103124000Y-59690000D01*
X103124000Y-59690000D02*
X104648000Y-61214000D01*
X82804000Y-67484000D02*
X82804000Y-66802000D01*
X82804000Y-66802000D02*
X84328000Y-65278000D01*
X84328000Y-65278000D02*
X84328000Y-58166000D01*
X84328000Y-58166000D02*
X84074000Y-57912000D01*
X87630000Y-70104000D02*
X86360000Y-70104000D01*
X86360000Y-70104000D02*
X83650000Y-72814000D01*
X83650000Y-72814000D02*
X83650000Y-72920000D01*
X83650000Y-72920000D02*
X83650000Y-72306000D01*
D34*
X83650000Y-72920000D02*
X82810000Y-72920000D01*
X81740000Y-68548000D02*
X82804000Y-67484000D01*
X81740000Y-71850000D02*
X81740000Y-68548000D01*
X82810000Y-72920000D02*
X81740000Y-71850000D01*
D33*
X83650000Y-72920000D02*
X83650000Y-73236000D01*
X83650000Y-72560000D02*
X83650000Y-72920000D01*
X84158000Y-72920000D02*
X83650000Y-72920000D01*
D34*
X47130000Y-121600000D02*
X47130000Y-124630000D01*
X47130000Y-124630000D02*
X49260000Y-126760000D01*
X54870000Y-129890000D02*
X52390000Y-129890000D01*
X52390000Y-129890000D02*
X49260000Y-126760000D01*
X49260000Y-126760000D02*
X48770000Y-126760000D01*
X43320000Y-111820000D02*
X43320000Y-111990000D01*
X43320000Y-111990000D02*
X46390000Y-115060000D01*
X46390000Y-115060000D02*
X47130000Y-115100000D01*
X49260000Y-126760000D02*
X49136000Y-127452000D01*
X47130000Y-121600000D02*
X47130000Y-122466000D01*
X47130000Y-115100000D02*
X47130000Y-121600000D01*
X54356000Y-121666000D02*
X54356000Y-121296000D01*
X54356000Y-121296000D02*
X50123992Y-117063992D01*
X50123992Y-73176008D02*
X50830000Y-72470000D01*
X50123992Y-117063992D02*
X50123992Y-73176008D01*
X47780000Y-69810000D02*
X46670000Y-69810000D01*
X46670000Y-69810000D02*
X43480000Y-73000000D01*
X43480000Y-73000000D02*
X43070000Y-73000000D01*
X47780000Y-69810000D02*
X48170000Y-69810000D01*
X48170000Y-69810000D02*
X50830000Y-72470000D01*
X47780000Y-69810000D02*
X46810000Y-69810000D01*
X43070000Y-72600000D02*
X43070000Y-73000000D01*
X43070000Y-73000000D02*
X43120000Y-73000000D01*
X48472000Y-70502000D02*
X47780000Y-69810000D01*
X54356000Y-121666000D02*
X54356000Y-120966000D01*
X47780000Y-63310000D02*
X47780000Y-69810000D01*
X43070000Y-73000000D02*
X43070000Y-72706000D01*
X54102000Y-89662000D02*
X54610000Y-90170000D01*
X54610000Y-90170000D02*
X56000000Y-90170000D01*
X56000000Y-90170000D02*
X57250000Y-91420000D01*
X57250000Y-91420000D02*
X65470000Y-91420000D01*
X65470000Y-91420000D02*
X67964000Y-88138000D01*
X67964000Y-88138000D02*
X74244000Y-88138000D01*
X74244000Y-88138000D02*
X79610000Y-94800000D01*
X79610000Y-94800000D02*
X82238000Y-94800000D01*
X82238000Y-94800000D02*
X83820000Y-93218000D01*
X83820000Y-93218000D02*
X83820000Y-92932000D01*
X83990000Y-129810000D02*
X84810000Y-129810000D01*
X89040000Y-134040000D02*
X89040000Y-136460000D01*
X84810000Y-129810000D02*
X89040000Y-134040000D01*
X83990000Y-129810000D02*
X83990000Y-129950000D01*
X75100000Y-134000000D02*
X80070000Y-134000000D01*
X81420000Y-135350000D02*
X81420000Y-136460000D01*
X80070000Y-134000000D02*
X81420000Y-135350000D01*
X81420000Y-136460000D02*
X81420000Y-136220000D01*
X62550000Y-127040000D02*
X60400000Y-127040000D01*
X51223996Y-83236004D02*
X54030000Y-80430000D01*
X51223996Y-112263996D02*
X51223996Y-83236004D01*
X53110000Y-114260000D02*
X51223996Y-112263996D01*
X57710000Y-114260000D02*
X53110000Y-114260000D01*
X58343994Y-114783994D02*
X57710000Y-114260000D01*
X58343994Y-124983994D02*
X58343994Y-114783994D01*
X60400000Y-127040000D02*
X58343994Y-124983994D01*
X63890000Y-128380000D02*
X62550000Y-127040000D01*
X62550000Y-127040000D02*
X62620000Y-126920000D01*
X53980000Y-80430000D02*
X54030000Y-80430000D01*
X54030000Y-80430000D02*
X60110000Y-80430000D01*
X60110000Y-80430000D02*
X62230000Y-82550000D01*
X62230000Y-82550000D02*
X62230000Y-81788000D01*
X75180000Y-134000000D02*
X75100000Y-134000000D01*
X75100000Y-134000000D02*
X67750000Y-134000000D01*
X63890000Y-130140000D02*
X63890000Y-128380000D01*
X67750000Y-134000000D02*
X63890000Y-130140000D01*
X73270000Y-134820000D02*
X78060000Y-134820000D01*
X73270000Y-134820000D02*
X67360000Y-134820000D01*
X62490000Y-130590000D02*
X67360000Y-134820000D01*
X78060000Y-134820000D02*
X78880000Y-135640000D01*
X78880000Y-135640000D02*
X78880000Y-136460000D01*
X78880000Y-136460000D02*
X78880000Y-136410000D01*
X62490000Y-129890000D02*
X60820000Y-129890000D01*
X64080000Y-83240000D02*
X62230000Y-85090000D01*
X64080000Y-81990000D02*
X64080000Y-83240000D01*
X61760000Y-79670000D02*
X64080000Y-81990000D01*
X52960000Y-79670000D02*
X61760000Y-79670000D01*
X50673994Y-81956006D02*
X52960000Y-79670000D01*
X50673994Y-114303994D02*
X50673994Y-81956006D01*
X53600000Y-117230000D02*
X50673994Y-114303994D01*
X57150000Y-117230000D02*
X53600000Y-117230000D01*
X57760000Y-117840000D02*
X57150000Y-117230000D01*
X57760000Y-126830000D02*
X57760000Y-117840000D01*
X60820000Y-129890000D02*
X57760000Y-126830000D01*
X62490000Y-129890000D02*
X62490000Y-129650000D01*
X62490000Y-130590000D02*
X62490000Y-129890000D01*
X61976000Y-121666000D02*
X60446000Y-121666000D01*
X52324000Y-87376000D02*
X54610000Y-85090000D01*
X52324000Y-108074000D02*
X52324000Y-87376000D01*
X53470000Y-109220000D02*
X52324000Y-108074000D01*
X56900000Y-109220000D02*
X53470000Y-109220000D01*
X59443998Y-111763998D02*
X56900000Y-109220000D01*
X59443998Y-120663998D02*
X59443998Y-111763998D01*
X60446000Y-121666000D02*
X59443998Y-120663998D01*
X79000000Y-132588000D02*
X84858000Y-132588000D01*
X86500000Y-134230000D02*
X86500000Y-136460000D01*
X84858000Y-132588000D02*
X86500000Y-134230000D01*
X86500000Y-136460000D02*
X86500000Y-135820000D01*
X61976000Y-121666000D02*
X61946000Y-121666000D01*
X65460000Y-124640000D02*
X62440000Y-121620000D01*
X62440000Y-121620000D02*
X61976000Y-121666000D01*
X65532000Y-129286000D02*
X65532000Y-124640000D01*
X68834000Y-132588000D02*
X65532000Y-129286000D01*
X79248000Y-132588000D02*
X79000000Y-132588000D01*
X79000000Y-132588000D02*
X68834000Y-132588000D01*
X76850000Y-133200000D02*
X81970000Y-133200000D01*
X83960000Y-135190000D02*
X83960000Y-136460000D01*
X81970000Y-133200000D02*
X83960000Y-135190000D01*
X83960000Y-136460000D02*
X83960000Y-136180000D01*
X62490000Y-124220000D02*
X60940000Y-124220000D01*
X51773998Y-85616002D02*
X54610000Y-82780000D01*
X51773998Y-109763998D02*
X51773998Y-85616002D01*
X53690000Y-111740000D02*
X51773998Y-109763998D01*
X57590000Y-111740000D02*
X53690000Y-111740000D01*
X58893996Y-112983996D02*
X57590000Y-111740000D01*
X58893996Y-122173996D02*
X58893996Y-112983996D01*
X60940000Y-124220000D02*
X58893996Y-122173996D01*
X54610000Y-82780000D02*
X54610000Y-82550000D01*
X54356000Y-82550000D02*
X54610000Y-82550000D01*
X54610000Y-82042000D02*
X54610000Y-82550000D01*
X64850000Y-129850000D02*
X64850000Y-126580000D01*
X68200000Y-133200000D02*
X64850000Y-129850000D01*
X76960000Y-133200000D02*
X76850000Y-133200000D01*
X76850000Y-133200000D02*
X68200000Y-133200000D01*
X64850000Y-126580000D02*
X62490000Y-124220000D01*
X66360000Y-138360000D02*
X60460000Y-138360000D01*
X60460000Y-138360000D02*
X58560000Y-136460000D01*
X87940000Y-130890000D02*
X94070000Y-130890000D01*
X94440000Y-138360000D02*
X90130000Y-138360000D01*
X95420000Y-137380000D02*
X94440000Y-138360000D01*
X95420000Y-132240000D02*
X95420000Y-137380000D01*
X94070000Y-130890000D02*
X95420000Y-132240000D01*
X69950000Y-130180000D02*
X70030000Y-130180000D01*
X70030000Y-130180000D02*
X71340000Y-131490000D01*
X71340000Y-131490000D02*
X78500000Y-131490000D01*
X78500000Y-131490000D02*
X79630000Y-130360000D01*
X79630000Y-130360000D02*
X79630000Y-128530000D01*
X79630000Y-128530000D02*
X80500000Y-127660000D01*
X80500000Y-127660000D02*
X84710000Y-127660000D01*
X84710000Y-127660000D02*
X87940000Y-130890000D01*
X90130000Y-138360000D02*
X66360000Y-138360000D01*
X56580000Y-128520000D02*
X56580000Y-130310000D01*
X61100000Y-134830000D02*
X61100000Y-136460000D01*
X56580000Y-130310000D02*
X61100000Y-134830000D01*
X61100000Y-136460000D02*
X61100000Y-135930000D01*
X56580000Y-128520000D02*
X56580000Y-120550000D01*
X56580000Y-120550000D02*
X55350000Y-119320000D01*
X55350000Y-119320000D02*
X53370000Y-119320000D01*
X53370000Y-119320000D02*
X51330000Y-117280000D01*
X51330000Y-117280000D02*
X51330000Y-116590000D01*
X57150000Y-128110000D02*
X57150000Y-128370000D01*
X64170000Y-134450000D02*
X66180000Y-136460000D01*
X63230000Y-134450000D02*
X64170000Y-134450000D01*
X57150000Y-128370000D02*
X63230000Y-134450000D01*
X57150000Y-128080000D02*
X57150000Y-128110000D01*
X57150000Y-128110000D02*
X57150000Y-128160000D01*
X53500000Y-118190000D02*
X52580000Y-117270000D01*
X55590000Y-118190000D02*
X53500000Y-118190000D01*
X57150000Y-119750000D02*
X55590000Y-118190000D01*
X57150000Y-128080000D02*
X57150000Y-119750000D01*
X54870000Y-124220000D02*
X54300000Y-124220000D01*
X54300000Y-124220000D02*
X49573990Y-119493990D01*
X49573990Y-119493990D02*
X49573990Y-87693990D01*
X49573990Y-87693990D02*
X47240000Y-85560000D01*
X47240000Y-79060000D02*
X46360000Y-79130000D01*
X46360000Y-79130000D02*
X43220000Y-75990000D01*
X43220000Y-75990000D02*
X43220000Y-75930000D01*
X47240000Y-85560000D02*
X46460000Y-85630000D01*
X46460000Y-85630000D02*
X43700000Y-88390000D01*
X43700000Y-88390000D02*
X43240000Y-88390000D01*
X43240000Y-88390000D02*
X43640000Y-88390000D01*
X47240000Y-85560000D02*
X47240000Y-79060000D01*
X91280000Y-94130000D02*
X89100000Y-94130000D01*
X87060000Y-88720000D02*
X84660000Y-86320000D01*
X87060000Y-92090000D02*
X87060000Y-88720000D01*
X89100000Y-94130000D02*
X87060000Y-92090000D01*
X81280000Y-93218000D02*
X81280000Y-92880000D01*
X81280000Y-92880000D02*
X82550000Y-91610000D01*
X82550000Y-91610000D02*
X82550000Y-86780000D01*
X82550000Y-86780000D02*
X83010000Y-86320000D01*
X83010000Y-86320000D02*
X84660000Y-86320000D01*
X113538000Y-130302000D02*
X113538000Y-124092000D01*
X115176000Y-119634000D02*
X116840000Y-119634000D01*
X114000000Y-120810000D02*
X115176000Y-119634000D01*
X114000000Y-123630000D02*
X114000000Y-120810000D01*
X113538000Y-124092000D02*
X114000000Y-123630000D01*
X113538000Y-130302000D02*
X113538000Y-130048000D01*
X116840000Y-119634000D02*
X120396000Y-119634000D01*
X117642000Y-116840000D02*
X117642000Y-118832000D01*
X117642000Y-118832000D02*
X116840000Y-119634000D01*
X119180000Y-107800000D02*
X119180000Y-109020000D01*
X119180000Y-109020000D02*
X121158000Y-110998000D01*
X119180000Y-107800000D02*
X119180000Y-105210000D01*
X119180000Y-105210000D02*
X118618000Y-104648000D01*
X125516000Y-112268000D02*
X124460000Y-112268000D01*
X123190000Y-110998000D02*
X121158000Y-110998000D01*
X124460000Y-112268000D02*
X123190000Y-110998000D01*
X118364000Y-104902000D02*
X118618000Y-104648000D01*
X97282000Y-106700000D02*
X97282000Y-106348000D01*
X101390000Y-103840000D02*
X101390000Y-101560000D01*
X99750000Y-105480000D02*
X101390000Y-103840000D01*
X98150000Y-105480000D02*
X99750000Y-105480000D01*
X97282000Y-106348000D02*
X98150000Y-105480000D01*
X86050000Y-107020000D02*
X87208000Y-107020000D01*
X97282000Y-107696000D02*
X97282000Y-106700000D01*
X96012000Y-108966000D02*
X97282000Y-107696000D01*
X94488000Y-108966000D02*
X96012000Y-108966000D01*
X93726000Y-108204000D02*
X94488000Y-108966000D01*
X88392000Y-108204000D02*
X93726000Y-108204000D01*
X87208000Y-107020000D02*
X88392000Y-108204000D01*
X86050000Y-107020000D02*
X86050000Y-107240000D01*
X70800000Y-105870000D02*
X70510000Y-105580000D01*
X75470000Y-105870000D02*
X70800000Y-105870000D01*
X77660000Y-108060000D02*
X75470000Y-105870000D01*
X85230000Y-108060000D02*
X77660000Y-108060000D01*
X86050000Y-107240000D02*
X85230000Y-108060000D01*
X84380000Y-105990000D02*
X84380000Y-106470000D01*
X70690000Y-104550000D02*
X70320000Y-104550000D01*
X71420000Y-105280000D02*
X70690000Y-104550000D01*
X75750000Y-105280000D02*
X71420000Y-105280000D01*
X77900000Y-107430000D02*
X75750000Y-105280000D01*
X83420000Y-107430000D02*
X77900000Y-107430000D01*
X84380000Y-106470000D02*
X83420000Y-107430000D01*
D35*
X84380000Y-105990000D02*
X84360000Y-105990000D01*
X90678000Y-107188000D02*
X95250000Y-107188000D01*
X90424000Y-106934000D02*
X90678000Y-107188000D01*
X95250000Y-107188000D02*
X95504000Y-107442000D01*
D33*
X116586000Y-77216000D02*
X116586000Y-75946000D01*
X110998000Y-75184000D02*
X109220000Y-76962000D01*
X115824000Y-75184000D02*
X110998000Y-75184000D01*
X116586000Y-75946000D02*
X115824000Y-75184000D01*
D34*
X95504000Y-99822000D02*
X97858000Y-99822000D01*
X101390000Y-96290000D02*
X101390000Y-93940000D01*
X97858000Y-99822000D02*
X101390000Y-96290000D01*
X95504000Y-99822000D02*
X91948000Y-99822000D01*
X87416000Y-98806000D02*
X86146000Y-100076000D01*
X90932000Y-98806000D02*
X87416000Y-98806000D01*
X91948000Y-99822000D02*
X90932000Y-98806000D01*
X98298000Y-101600000D02*
X98298000Y-101092000D01*
X95504000Y-99822000D02*
X96520000Y-99822000D01*
X96520000Y-99822000D02*
X98298000Y-101600000D01*
X95504000Y-97282000D02*
X95504000Y-96774000D01*
X95504000Y-96774000D02*
X98298000Y-93980000D01*
D33*
X119380000Y-88392000D02*
X118364000Y-88392000D01*
X118364000Y-88392000D02*
X115570000Y-85598000D01*
X115570000Y-85598000D02*
X115570000Y-83566000D01*
X121276000Y-89154000D02*
X121276000Y-89018000D01*
X120650000Y-88392000D02*
X119380000Y-88392000D01*
X121276000Y-89018000D02*
X120650000Y-88392000D01*
X113030000Y-97790000D02*
X113030000Y-98806000D01*
X113030000Y-98806000D02*
X112014000Y-99822000D01*
X113030000Y-97790000D02*
X112014000Y-96774000D01*
X118110000Y-97790000D02*
X113030000Y-97790000D01*
X121276000Y-94314000D02*
X118110000Y-97790000D01*
X121276000Y-89154000D02*
X121276000Y-94314000D01*
X112014000Y-96520000D02*
X112014000Y-96774000D01*
X112014000Y-96520000D02*
X112014000Y-96924000D01*
X118872000Y-43180000D02*
X114220000Y-43180000D01*
X114220000Y-43180000D02*
X110156000Y-47244000D01*
X95758000Y-47498000D02*
X96012000Y-47498000D01*
X96012000Y-47498000D02*
X97790000Y-49276000D01*
X97790000Y-49276000D02*
X108124000Y-49276000D01*
X108124000Y-49276000D02*
X110156000Y-47244000D01*
X123444000Y-42926000D02*
X119634000Y-42926000D01*
X119634000Y-42926000D02*
X118872000Y-43180000D01*
X110156000Y-47244000D02*
X110490000Y-47244000D01*
X95758000Y-47498000D02*
X91694000Y-47498000D01*
X91694000Y-47498000D02*
X91440000Y-47244000D01*
X118872000Y-42926000D02*
X118872000Y-43180000D01*
X118872000Y-43180000D02*
X118872000Y-43354000D01*
X123444000Y-42926000D02*
X123190000Y-42926000D01*
X123444000Y-42926000D02*
X130048000Y-42926000D01*
X130048000Y-42926000D02*
X130302000Y-43180000D01*
X129818000Y-42696000D02*
X130302000Y-43180000D01*
D34*
X130810000Y-113538000D02*
X129794000Y-112522000D01*
X129794000Y-112522000D02*
X128270000Y-112522000D01*
X128270000Y-112522000D02*
X128016000Y-112268000D01*
D33*
X109728000Y-56388000D02*
X113030000Y-56388000D01*
X118534000Y-55118000D02*
X120152000Y-56736000D01*
X114300000Y-55118000D02*
X118534000Y-55118000D01*
X113030000Y-56388000D02*
X114300000Y-55118000D01*
X109728000Y-61214000D02*
X109982000Y-61214000D01*
X109982000Y-61214000D02*
X112522000Y-64008000D01*
X109982000Y-61468000D02*
X109728000Y-61214000D01*
X119804000Y-56388000D02*
X120152000Y-56736000D01*
X112522000Y-64008000D02*
X112522000Y-63754000D01*
X119781922Y-56736000D02*
X120152000Y-56736000D01*
X109728000Y-66040000D02*
X109728000Y-70866000D01*
X109728000Y-66040000D02*
X109728000Y-61214000D01*
X109728000Y-56388000D02*
X109728000Y-61214000D01*
D34*
X114950000Y-102190000D02*
X114472000Y-102190000D01*
X114472000Y-102190000D02*
X112014000Y-104648000D01*
X104394000Y-107188000D02*
X103378000Y-107188000D01*
X102914000Y-112820000D02*
X104330000Y-112820000D01*
X102108000Y-112014000D02*
X102914000Y-112820000D01*
X102108000Y-108458000D02*
X102108000Y-112014000D01*
X103378000Y-107188000D02*
X102108000Y-108458000D01*
X104330000Y-112820000D02*
X104330000Y-115800000D01*
X104330000Y-115800000D02*
X104340000Y-115810000D01*
X112000000Y-118790000D02*
X112840000Y-118790000D01*
X112840000Y-118790000D02*
X114220000Y-117410000D01*
X114220000Y-117410000D02*
X114220000Y-112130000D01*
X120820000Y-102950000D02*
X122400000Y-102950000D01*
X128176000Y-106840000D02*
X128778000Y-107442000D01*
X126290000Y-106840000D02*
X128176000Y-106840000D01*
X122400000Y-102950000D02*
X126290000Y-106840000D01*
X114220000Y-110080000D02*
X114220000Y-106070000D01*
X117340000Y-102950000D02*
X118100000Y-102950000D01*
X114220000Y-106070000D02*
X117340000Y-102950000D01*
X111950000Y-112820000D02*
X113530000Y-112820000D01*
X113530000Y-112820000D02*
X114220000Y-112130000D01*
X118100000Y-102950000D02*
X120820000Y-102950000D01*
X114220000Y-112130000D02*
X114220000Y-110080000D01*
X104380000Y-118790000D02*
X106000000Y-118790000D01*
X108204000Y-109728000D02*
X112014000Y-109728000D01*
X106934000Y-110998000D02*
X108204000Y-109728000D01*
X106934000Y-117856000D02*
X106934000Y-110998000D01*
X106000000Y-118790000D02*
X106934000Y-117856000D01*
X104380000Y-118790000D02*
X104380000Y-121760000D01*
X104380000Y-121760000D02*
X104340000Y-121800000D01*
X128905000Y-102997000D02*
X127889000Y-102997000D01*
X127889000Y-102997000D02*
X126238000Y-104648000D01*
X128778000Y-99822000D02*
X128778000Y-102870000D01*
X131318000Y-105410000D02*
X131318000Y-107442000D01*
X128778000Y-102870000D02*
X128905000Y-102997000D01*
X128905000Y-102997000D02*
X131318000Y-105410000D01*
D33*
X120152000Y-61816000D02*
X121936000Y-61816000D01*
X135330000Y-97738000D02*
X136652000Y-99060000D01*
X135330000Y-80950000D02*
X135330000Y-97738000D01*
X130600000Y-76220000D02*
X135330000Y-80950000D01*
X125760000Y-76220000D02*
X130600000Y-76220000D01*
X124090000Y-74550000D02*
X125760000Y-76220000D01*
X124090000Y-63970000D02*
X124090000Y-74550000D01*
X121936000Y-61816000D02*
X124090000Y-63970000D01*
D34*
X120152000Y-61816000D02*
X120744000Y-61816000D01*
X136652000Y-99060000D02*
X136652000Y-98806000D01*
X125950000Y-101340000D02*
X125950000Y-99780000D01*
X125950000Y-99780000D02*
X127520000Y-98210000D01*
X127520000Y-98210000D02*
X129060000Y-98210000D01*
X129060000Y-98210000D02*
X130050000Y-99250000D01*
X130050000Y-99250000D02*
X130050000Y-101160000D01*
X130050000Y-101160000D02*
X130930000Y-101990000D01*
X130930000Y-101990000D02*
X135260000Y-101990000D01*
X135260000Y-101990000D02*
X136652000Y-100598000D01*
X136652000Y-100598000D02*
X136652000Y-99060000D01*
D33*
X136652000Y-99060000D02*
X136398000Y-99060000D01*
D34*
X136652000Y-106680000D02*
X135890000Y-106680000D01*
X135890000Y-106680000D02*
X135128000Y-107442000D01*
X135128000Y-107442000D02*
X133858000Y-107442000D01*
X122590000Y-89916000D02*
X122590000Y-88484000D01*
X125222000Y-85852000D02*
X126492000Y-85852000D01*
X122590000Y-88484000D02*
X125222000Y-85852000D01*
X120360000Y-96990000D02*
X120410000Y-96990000D01*
X122590000Y-94920000D02*
X122590000Y-89916000D01*
X120410000Y-96990000D02*
X122590000Y-94920000D01*
X115920000Y-98720000D02*
X114950000Y-99690000D01*
X118630000Y-98720000D02*
X115920000Y-98720000D01*
X120360000Y-96990000D02*
X118630000Y-98720000D01*
D33*
X130556000Y-80264000D02*
X130048000Y-80264000D01*
X130048000Y-80264000D02*
X129286000Y-81026000D01*
X129286000Y-81026000D02*
X127254000Y-81026000D01*
X127254000Y-81026000D02*
X126746000Y-81534000D01*
X137922000Y-69088000D02*
X136398000Y-69088000D01*
X134968000Y-65880000D02*
X130870000Y-65880000D01*
X135890000Y-66802000D02*
X134968000Y-65880000D01*
X135890000Y-68580000D02*
X135890000Y-66802000D01*
X136398000Y-69088000D02*
X135890000Y-68580000D01*
D34*
X62230000Y-102870000D02*
X62390000Y-102870000D01*
D35*
X102210000Y-96520000D02*
X104394000Y-96520000D01*
X99610000Y-99420000D02*
X102210000Y-96520000D01*
X99610000Y-102950000D02*
X99610000Y-99420000D01*
X98550000Y-103710000D02*
X99610000Y-102950000D01*
X93850000Y-103710000D02*
X98550000Y-103710000D01*
X93830000Y-103690000D02*
X93850000Y-103710000D01*
X100538000Y-99822000D02*
X104394000Y-99822000D01*
X100110000Y-100250000D02*
X100538000Y-99822000D01*
X100110000Y-103270000D02*
X100110000Y-100250000D01*
X98760000Y-104620000D02*
X100110000Y-103270000D01*
X94450000Y-104620000D02*
X98760000Y-104620000D01*
X94440000Y-104610000D02*
X94450000Y-104620000D01*
D34*
X78486000Y-83058000D02*
X76212000Y-83058000D01*
X76212000Y-83058000D02*
X76200000Y-83070000D01*
X128778000Y-132334000D02*
X128778000Y-130662000D01*
X122906000Y-127254000D02*
X120396000Y-127254000D01*
X124960000Y-125200000D02*
X122906000Y-127254000D01*
X124960000Y-123900000D02*
X124960000Y-125200000D01*
X125460000Y-123400000D02*
X124960000Y-123900000D01*
X129310000Y-123400000D02*
X125460000Y-123400000D01*
X130030000Y-124120000D02*
X129310000Y-123400000D01*
X130030000Y-125790000D02*
X130030000Y-124120000D01*
X129780000Y-126040000D02*
X130030000Y-125790000D01*
X129780000Y-129660000D02*
X129780000Y-126040000D01*
X128778000Y-130662000D02*
X129780000Y-129660000D01*
X123698000Y-124714000D02*
X116226000Y-124714000D01*
X114390000Y-126550000D02*
X114390000Y-128000000D01*
X116226000Y-124714000D02*
X114390000Y-126550000D01*
X116332000Y-113538000D02*
X116840000Y-113538000D01*
X116840000Y-113538000D02*
X120142000Y-116840000D01*
X120142000Y-116840000D02*
X120142000Y-116078000D01*
X120142000Y-116078000D02*
X120904000Y-115316000D01*
X120904000Y-115316000D02*
X125730000Y-115316000D01*
X125730000Y-115316000D02*
X126238000Y-115824000D01*
X126238000Y-115824000D02*
X126238000Y-117094000D01*
X126238000Y-117094000D02*
X126238000Y-118872000D01*
X126238000Y-118872000D02*
X124580000Y-120530000D01*
X123698000Y-121412000D02*
X123698000Y-124714000D01*
X124580000Y-120530000D02*
X123698000Y-121412000D01*
X116332000Y-113538000D02*
X115678000Y-113538000D01*
X124714000Y-136652000D02*
X124714000Y-137056000D01*
X124714000Y-137056000D02*
X123490000Y-138280000D01*
X123490000Y-138280000D02*
X119830000Y-138280000D01*
X119830000Y-138280000D02*
X115810000Y-134260000D01*
X115810000Y-134260000D02*
X115810000Y-132990000D01*
X115810000Y-132990000D02*
X114590000Y-131770000D01*
X114590000Y-131770000D02*
X113050000Y-131770000D01*
X113050000Y-131770000D02*
X112210000Y-130930000D01*
X112210000Y-130930000D02*
X112210000Y-126960000D01*
X112210000Y-126960000D02*
X110000000Y-124750000D01*
X110000000Y-124750000D02*
X109990000Y-124750000D01*
X109990000Y-124750000D02*
X109990000Y-124722000D01*
X73580000Y-72644000D02*
X78486000Y-72644000D01*
X73406000Y-72818000D02*
X73580000Y-72644000D01*
X104267000Y-102997000D02*
X106045000Y-102997000D01*
X91186000Y-75692000D02*
X89662000Y-75692000D01*
X98298000Y-82804000D02*
X91186000Y-75692000D01*
X98298000Y-90170000D02*
X98298000Y-82804000D01*
X99314000Y-91186000D02*
X98298000Y-90170000D01*
X102616000Y-91186000D02*
X99314000Y-91186000D01*
X107696000Y-96266000D02*
X102616000Y-91186000D01*
X107696000Y-101346000D02*
X107696000Y-96266000D01*
X106045000Y-102997000D02*
X107696000Y-101346000D01*
X101346000Y-115316000D02*
X101346000Y-105918000D01*
X101346000Y-105918000D02*
X104267000Y-102997000D01*
X89662000Y-75692000D02*
X88392000Y-75692000D01*
X83058000Y-75692000D02*
X88392000Y-75692000D01*
X82296000Y-74930000D02*
X83058000Y-75692000D01*
X81026000Y-74930000D02*
X82296000Y-74930000D01*
X78486000Y-72644000D02*
X80772000Y-74930000D01*
X80772000Y-74930000D02*
X81026000Y-74930000D01*
X73406000Y-76454000D02*
X73406000Y-72818000D01*
X73406000Y-76454000D02*
X73406000Y-75946000D01*
X101346000Y-123190000D02*
X101346000Y-115316000D01*
X101854000Y-123698000D02*
X101346000Y-123190000D01*
X108966000Y-123698000D02*
X101854000Y-123698000D01*
X110236000Y-124968000D02*
X109990000Y-124722000D01*
X109990000Y-124722000D02*
X108966000Y-123698000D01*
X128778000Y-117094000D02*
X128778000Y-116840000D01*
X128778000Y-116840000D02*
X130048000Y-115570000D01*
X134090000Y-115570000D02*
X136020000Y-117500000D01*
X130048000Y-115570000D02*
X134090000Y-115570000D01*
X128778000Y-117094000D02*
X128778000Y-117348000D01*
X136020000Y-122500000D02*
X136020000Y-117500000D01*
X138430000Y-113538000D02*
X138430000Y-115090000D01*
X138430000Y-115090000D02*
X136020000Y-117500000D01*
X135970000Y-122450000D02*
X136020000Y-122500000D01*
X136020000Y-122500000D02*
X136500000Y-122500000D01*
D33*
X131638000Y-56642000D02*
X131638000Y-57592000D01*
X131638000Y-57592000D02*
X130302000Y-58928000D01*
X123444000Y-50546000D02*
X123444000Y-51562000D01*
X123444000Y-51562000D02*
X125222000Y-53340000D01*
X125222000Y-53340000D02*
X125222000Y-57658000D01*
X125222000Y-57658000D02*
X126492000Y-58928000D01*
X126492000Y-58928000D02*
X130302000Y-58928000D01*
X130302000Y-58928000D02*
X134366000Y-58928000D01*
X131638000Y-56642000D02*
X132080000Y-56642000D01*
X130302000Y-45720000D02*
X129540000Y-46736000D01*
X129540000Y-46736000D02*
X125730000Y-50546000D01*
X125730000Y-50546000D02*
X125614000Y-50546000D01*
X125614000Y-50546000D02*
X123444000Y-50546000D01*
X131638000Y-56642000D02*
X131502000Y-56642000D01*
X131638000Y-56642000D02*
X131572000Y-56642000D01*
X134112000Y-58674000D02*
X134366000Y-58928000D01*
X131638000Y-56642000D02*
X131638000Y-56830000D01*
X134366000Y-58928000D02*
X133924000Y-58928000D01*
X120650000Y-46799500D02*
X120205500Y-46799500D01*
X120205500Y-46799500D02*
X118872000Y-45466000D01*
X114300000Y-46736000D02*
X114300000Y-47752000D01*
X115570000Y-45466000D02*
X114300000Y-46736000D01*
X118872000Y-45466000D02*
X115570000Y-45466000D01*
X120650000Y-46799500D02*
X120650000Y-46990000D01*
X116840000Y-47752000D02*
X117094000Y-47752000D01*
X117094000Y-47752000D02*
X121412000Y-52070000D01*
X121412000Y-52070000D02*
X121412000Y-53594000D01*
X127752000Y-74516000D02*
X127348000Y-74516000D01*
X127348000Y-74516000D02*
X125730000Y-72898000D01*
X135128000Y-63754000D02*
X137922000Y-66548000D01*
X127762000Y-63754000D02*
X135128000Y-63754000D01*
X125730000Y-65786000D02*
X127762000Y-63754000D01*
X125730000Y-72898000D02*
X125730000Y-65786000D01*
X127752000Y-78222000D02*
X127762000Y-78232000D01*
X127752000Y-74516000D02*
X127856000Y-74262000D01*
X87122000Y-51054000D02*
X87122000Y-44704000D01*
X87122000Y-44704000D02*
X88138000Y-43688000D01*
X88138000Y-43688000D02*
X88900000Y-43688000D01*
X105156000Y-47244000D02*
X106172000Y-47244000D01*
X108712000Y-44704000D02*
X108712000Y-43180000D01*
X106172000Y-47244000D02*
X108712000Y-44704000D01*
X87122000Y-51054000D02*
X87122000Y-50800000D01*
X87122000Y-50800000D02*
X86868000Y-50546000D01*
X88138000Y-43688000D02*
X88900000Y-43688000D01*
X94742000Y-51308000D02*
X94234000Y-51308000D01*
X94234000Y-51308000D02*
X92964000Y-52578000D01*
X92964000Y-52578000D02*
X88646000Y-52578000D01*
X88646000Y-52578000D02*
X87122000Y-51054000D01*
X88900000Y-43688000D02*
X88900000Y-42926000D01*
X88900000Y-42926000D02*
X90170000Y-41656000D01*
X90170000Y-41656000D02*
X107696000Y-41656000D01*
X107696000Y-41656000D02*
X108712000Y-42672000D01*
X108712000Y-42672000D02*
X108712000Y-43180000D01*
X108712000Y-43180000D02*
X108966000Y-43180000D01*
X108712000Y-43180000D02*
X108712000Y-42926000D01*
X113030000Y-83566000D02*
X113030000Y-77724000D01*
X113030000Y-77724000D02*
X113030000Y-77470000D01*
X112522000Y-83058000D02*
X113030000Y-83566000D01*
X113030000Y-69850000D02*
X113030000Y-68580000D01*
X113030000Y-68580000D02*
X116586000Y-65024000D01*
X113030000Y-69850000D02*
X113030000Y-69596000D01*
X113030000Y-69850000D02*
X113030000Y-70104000D01*
X116332000Y-80264000D02*
X116332000Y-81280000D01*
X117094000Y-84074000D02*
X118872000Y-85852000D01*
X117094000Y-82042000D02*
X117094000Y-84074000D01*
X116332000Y-81280000D02*
X117094000Y-82042000D01*
X116332000Y-80264000D02*
X116586000Y-80264000D01*
X116586000Y-80264000D02*
X118364000Y-78486000D01*
X118364000Y-71374000D02*
X116586000Y-69596000D01*
X118364000Y-78486000D02*
X118364000Y-71374000D01*
X116332000Y-80264000D02*
X116332000Y-80010000D01*
X116586000Y-67564000D02*
X116586000Y-69596000D01*
X118872000Y-85598000D02*
X118872000Y-85852000D01*
M02*
