G04 #@! TF.FileFunction,Soldermask,Top*
%FSLAX46Y46*%
G04 Gerber Fmt 4.6, Leading zero omitted, Abs format (unit mm)*
G04 Created by KiCad (PCBNEW 4.0.7) date 02/04/22 10:26:53*
%MOMM*%
%LPD*%
G01*
G04 APERTURE LIST*
%ADD10C,0.100000*%
%ADD11C,2.000000*%
%ADD12O,2.000000X2.000000*%
%ADD13C,1.900000*%
%ADD14R,2.100000X2.100000*%
%ADD15O,2.100000X2.100000*%
%ADD16C,1.920000*%
%ADD17R,1.920000X1.920000*%
%ADD18C,1.924000*%
%ADD19R,2.000000X2.000000*%
%ADD20R,2.600000X2.600000*%
%ADD21O,2.600000X2.600000*%
%ADD22R,2.200000X2.200000*%
%ADD23C,2.200000*%
%ADD24R,2.900000X2.900000*%
%ADD25O,2.900000X2.900000*%
%ADD26R,3.400000X3.400000*%
%ADD27C,3.400000*%
%ADD28R,3.900000X3.900000*%
%ADD29R,2.400000X3.900000*%
%ADD30C,2.400000*%
%ADD31O,2.200000X2.200000*%
%ADD32C,2.900000*%
%ADD33R,1.800000X0.700000*%
%ADD34C,2.500000*%
%ADD35O,2.400000X3.900000*%
%ADD36O,4.400000X2.400000*%
%ADD37C,3.448000*%
%ADD38C,1.840000*%
%ADD39C,5.400000*%
%ADD40C,0.254000*%
G04 APERTURE END LIST*
D10*
D11*
X106600000Y-96850000D03*
D12*
X106600000Y-89230000D03*
D13*
X111060000Y-92480000D03*
X111060000Y-97360000D03*
D14*
X96360000Y-108020000D03*
D15*
X93820000Y-108020000D03*
X96360000Y-105480000D03*
X93820000Y-105480000D03*
X96360000Y-102940000D03*
X93820000Y-102940000D03*
D11*
X124560000Y-132600000D03*
D12*
X116940000Y-132600000D03*
D11*
X100090000Y-133350000D03*
D12*
X100090000Y-125730000D03*
D16*
X182800000Y-90830000D03*
X180260000Y-90830000D03*
D17*
X185340000Y-90830000D03*
D11*
X185320000Y-95060000D03*
D12*
X177700000Y-95060000D03*
D14*
X170180000Y-119888000D03*
D15*
X172720000Y-119888000D03*
D18*
X165235000Y-129880000D03*
X161425000Y-129880000D03*
D16*
X96640000Y-118870000D03*
X96640000Y-121410000D03*
D17*
X96640000Y-116330000D03*
D14*
X172740000Y-116190000D03*
D15*
X170200000Y-116190000D03*
D11*
X55010000Y-99520000D03*
D12*
X55010000Y-91900000D03*
D14*
X175855000Y-107145000D03*
D15*
X175855000Y-109685000D03*
X175855000Y-112225000D03*
D11*
X180435000Y-69295000D03*
D12*
X188055000Y-69295000D03*
D11*
X120010000Y-99770000D03*
X117510000Y-99770000D03*
X75185000Y-67215000D03*
X75185000Y-69715000D03*
D19*
X89795000Y-73985000D03*
D11*
X92295000Y-73985000D03*
X90220000Y-128320000D03*
D12*
X90220000Y-135940000D03*
D11*
X160770000Y-89660000D03*
X160770000Y-92160000D03*
D16*
X162700000Y-95940000D03*
X160160000Y-95940000D03*
D17*
X165240000Y-95940000D03*
D11*
X147690000Y-92760000D03*
D12*
X147690000Y-85140000D03*
D11*
X179715000Y-74335000D03*
D12*
X187335000Y-74335000D03*
D19*
X124300000Y-127650000D03*
D12*
X116680000Y-120030000D03*
X124300000Y-125110000D03*
X116680000Y-122570000D03*
X124300000Y-122570000D03*
X116680000Y-125110000D03*
X124300000Y-120030000D03*
X116680000Y-127650000D03*
D11*
X114530000Y-114130000D03*
D12*
X106910000Y-114130000D03*
D19*
X158800000Y-115775000D03*
D12*
X151180000Y-115775000D03*
D14*
X140475000Y-91525000D03*
D15*
X140475000Y-88985000D03*
X140475000Y-86445000D03*
D11*
X115710000Y-89080000D03*
D12*
X123330000Y-89080000D03*
D11*
X124500000Y-113130000D03*
D12*
X116880000Y-113130000D03*
D11*
X89570000Y-97680000D03*
X89570000Y-100180000D03*
X69170000Y-86730000D03*
X69170000Y-91730000D03*
X65880000Y-86730000D03*
X65880000Y-91730000D03*
X65045000Y-94405000D03*
X70045000Y-94405000D03*
X65085000Y-98065000D03*
X70085000Y-98065000D03*
X69430000Y-122690000D03*
X71930000Y-122690000D03*
X62400000Y-122550000D03*
X64900000Y-122550000D03*
D19*
X110890000Y-83960000D03*
D11*
X110890000Y-81460000D03*
X112320000Y-87280000D03*
X109820000Y-87280000D03*
D19*
X84170000Y-136140000D03*
D11*
X81670000Y-136140000D03*
X56630000Y-132600000D03*
X59130000Y-132600000D03*
X50930000Y-132660000D03*
X53430000Y-132660000D03*
D19*
X63090000Y-139070000D03*
D11*
X63090000Y-141570000D03*
X127265000Y-68645000D03*
X122265000Y-68645000D03*
X136370000Y-71530000D03*
X136370000Y-76530000D03*
X164620000Y-82340000D03*
X164620000Y-79840000D03*
X114080000Y-133300000D03*
X114080000Y-135800000D03*
X187525000Y-120125000D03*
X185025000Y-120125000D03*
X172400000Y-123600000D03*
X167400000Y-123600000D03*
X172400000Y-126900000D03*
X167400000Y-126900000D03*
X172400000Y-130200000D03*
X167400000Y-130200000D03*
X84430000Y-114200000D03*
X81930000Y-114200000D03*
X93500000Y-136060000D03*
X96000000Y-136060000D03*
X113230000Y-125650000D03*
X113230000Y-130650000D03*
D20*
X53280000Y-78380000D03*
D21*
X60900000Y-78380000D03*
D19*
X89860000Y-66410000D03*
D12*
X82240000Y-66410000D03*
D22*
X60430000Y-97650000D03*
D23*
X57890000Y-97650000D03*
D24*
X133500000Y-90530000D03*
D25*
X133500000Y-82910000D03*
D24*
X137000000Y-90550000D03*
D25*
X137000000Y-82930000D03*
D26*
X68195000Y-61835000D03*
D27*
X63115000Y-61835000D03*
D28*
X54955000Y-67305000D03*
X54955000Y-61305000D03*
D29*
X50255000Y-64305000D03*
D14*
X66500000Y-76500000D03*
D15*
X69040000Y-76500000D03*
X71580000Y-76500000D03*
X74120000Y-76500000D03*
D26*
X70640000Y-138840000D03*
D27*
X75720000Y-138840000D03*
D11*
X65560000Y-83520000D03*
D12*
X75720000Y-83520000D03*
D11*
X65575000Y-80155000D03*
D12*
X75735000Y-80155000D03*
D11*
X105140000Y-85860000D03*
D12*
X94980000Y-85860000D03*
D11*
X99210000Y-98960000D03*
D12*
X99210000Y-88800000D03*
D16*
X141500000Y-133760000D03*
X141500000Y-131220000D03*
D17*
X141500000Y-136300000D03*
D16*
X120950000Y-72390000D03*
X118410000Y-72390000D03*
D17*
X123490000Y-72390000D03*
D16*
X173030000Y-78790000D03*
X175570000Y-78790000D03*
D17*
X170490000Y-78790000D03*
D30*
X78825000Y-73615000D03*
X78825000Y-69115000D03*
X85325000Y-73615000D03*
X85325000Y-69115000D03*
X70745000Y-113075000D03*
X75245000Y-113075000D03*
X70745000Y-119575000D03*
X75245000Y-119575000D03*
X54325000Y-112815000D03*
X58825000Y-112815000D03*
X54325000Y-119315000D03*
X58825000Y-119315000D03*
X54445000Y-122985000D03*
X58945000Y-122985000D03*
X54445000Y-129485000D03*
X58945000Y-129485000D03*
X62365000Y-112925000D03*
X66865000Y-112925000D03*
X62365000Y-119425000D03*
X66865000Y-119425000D03*
D22*
X83670000Y-59660000D03*
D31*
X86210000Y-59660000D03*
X88750000Y-59660000D03*
D13*
X74045000Y-91985000D03*
X74045000Y-96865000D03*
X117420000Y-78870000D03*
X117420000Y-83750000D03*
D19*
X78675000Y-77165000D03*
D12*
X86295000Y-110185000D03*
X78675000Y-79705000D03*
X86295000Y-107645000D03*
X78675000Y-82245000D03*
X86295000Y-105105000D03*
X78675000Y-84785000D03*
X86295000Y-102565000D03*
X78675000Y-87325000D03*
X86295000Y-100025000D03*
X78675000Y-89865000D03*
X86295000Y-97485000D03*
X78675000Y-92405000D03*
X86295000Y-94945000D03*
X78675000Y-94945000D03*
X86295000Y-92405000D03*
X78675000Y-97485000D03*
X86295000Y-89865000D03*
X78675000Y-100025000D03*
X86295000Y-87325000D03*
X78675000Y-102565000D03*
X86295000Y-84785000D03*
X78675000Y-105105000D03*
X86295000Y-82245000D03*
X78675000Y-107645000D03*
X86295000Y-79705000D03*
X78675000Y-110185000D03*
X86295000Y-77165000D03*
D11*
X75630000Y-130480000D03*
X75630000Y-132980000D03*
D19*
X86300000Y-131700000D03*
D12*
X78680000Y-124080000D03*
X86300000Y-129160000D03*
X78680000Y-126620000D03*
X86300000Y-126620000D03*
X78680000Y-129160000D03*
X86300000Y-124080000D03*
X78680000Y-131700000D03*
D16*
X173020000Y-90680000D03*
X170480000Y-90680000D03*
D17*
X175560000Y-90680000D03*
D16*
X182750000Y-78730000D03*
X185290000Y-78730000D03*
D17*
X180210000Y-78730000D03*
D19*
X157360000Y-67480000D03*
D11*
X157360000Y-69980000D03*
D32*
X53730000Y-83070000D03*
X56230000Y-88110000D03*
X51230000Y-88110000D03*
D11*
X50010000Y-75210000D03*
X50010000Y-77710000D03*
D14*
X101610000Y-108200000D03*
D15*
X101610000Y-105660000D03*
D11*
X89880000Y-63400000D03*
D12*
X82260000Y-63400000D03*
D11*
X51760000Y-99510000D03*
D12*
X51760000Y-91890000D03*
D11*
X65465000Y-109385000D03*
D12*
X65465000Y-101765000D03*
D11*
X75215000Y-109415000D03*
D12*
X75215000Y-101795000D03*
D11*
X95610000Y-89600000D03*
D12*
X95610000Y-97220000D03*
D11*
X148530000Y-66020000D03*
D12*
X140910000Y-66020000D03*
D11*
X64960000Y-133580000D03*
D12*
X72580000Y-133580000D03*
D11*
X62165000Y-109355000D03*
D12*
X62165000Y-101735000D03*
D11*
X55495000Y-109345000D03*
D12*
X55495000Y-101725000D03*
D11*
X151260000Y-69090000D03*
D12*
X151260000Y-61470000D03*
D11*
X112930000Y-78400000D03*
D12*
X112930000Y-70780000D03*
D11*
X111980000Y-68060000D03*
D12*
X119600000Y-68060000D03*
D11*
X133530000Y-72250000D03*
D12*
X125910000Y-72250000D03*
D11*
X152400000Y-130500000D03*
D12*
X152400000Y-122880000D03*
D11*
X109840000Y-127140000D03*
D12*
X109840000Y-134760000D03*
D11*
X110570000Y-124240000D03*
D12*
X102950000Y-124240000D03*
D11*
X106510000Y-127150000D03*
D12*
X106510000Y-134770000D03*
D11*
X71955000Y-109365000D03*
D12*
X71955000Y-101745000D03*
D11*
X86530000Y-117460000D03*
D12*
X78910000Y-117460000D03*
D11*
X68675000Y-109385000D03*
D12*
X68675000Y-101765000D03*
D11*
X96740000Y-125690000D03*
D12*
X96740000Y-133310000D03*
D11*
X103270000Y-127100000D03*
D12*
X103270000Y-134720000D03*
D11*
X94160000Y-141010000D03*
D12*
X101780000Y-141010000D03*
D11*
X169795000Y-74375000D03*
D12*
X177415000Y-74375000D03*
D11*
X175410000Y-95140000D03*
D12*
X167790000Y-95140000D03*
D11*
X52275000Y-109325000D03*
D12*
X52275000Y-101705000D03*
D11*
X58825000Y-109345000D03*
D12*
X58825000Y-101725000D03*
D11*
X93020000Y-115380000D03*
D12*
X93020000Y-123000000D03*
D11*
X68585000Y-70295000D03*
X66085000Y-70295000D03*
D19*
X114440000Y-102370000D03*
D12*
X106820000Y-102370000D03*
D19*
X114530000Y-105110000D03*
D12*
X106910000Y-105110000D03*
D11*
X103440000Y-96850000D03*
D12*
X103440000Y-89230000D03*
D11*
X125120000Y-94680000D03*
D12*
X132740000Y-94680000D03*
D11*
X125200000Y-97920000D03*
D12*
X132820000Y-97920000D03*
D33*
X116830000Y-94040000D03*
X116830000Y-94540000D03*
X116830000Y-95040000D03*
X116830000Y-95540000D03*
X116830000Y-96040000D03*
X121230000Y-96040000D03*
X121230000Y-95540000D03*
X121230000Y-95040000D03*
X121230000Y-94540000D03*
X121230000Y-94040000D03*
D13*
X181945000Y-129425000D03*
X181945000Y-126885000D03*
D34*
X187025000Y-124345000D03*
X187025000Y-134505000D03*
D26*
X184673000Y-131711000D03*
D27*
X184673000Y-126631000D03*
D23*
X187775000Y-106465000D03*
X187775000Y-116625000D03*
X187775000Y-111545000D03*
X180175000Y-111545000D03*
X180175000Y-106465000D03*
X180175000Y-116625000D03*
X187775000Y-98845000D03*
X180175000Y-98845000D03*
D11*
X140130000Y-106640000D03*
X142630000Y-106640000D03*
D19*
X158450000Y-105625000D03*
D12*
X158450000Y-113245000D03*
D19*
X148325000Y-105800000D03*
D12*
X155945000Y-105800000D03*
D19*
X148675000Y-116050000D03*
D12*
X148675000Y-108430000D03*
D11*
X140470000Y-109350000D03*
D12*
X140470000Y-116970000D03*
D11*
X145700000Y-140800000D03*
D12*
X153320000Y-140800000D03*
D11*
X170920000Y-105050000D03*
D12*
X170920000Y-112670000D03*
D19*
X169875000Y-69455000D03*
D11*
X169875000Y-66955000D03*
D16*
X146070000Y-70490000D03*
X148610000Y-70490000D03*
D17*
X143530000Y-70490000D03*
D11*
X167585000Y-59145000D03*
D12*
X175205000Y-59145000D03*
D14*
X165265000Y-66695000D03*
D15*
X165265000Y-69235000D03*
D19*
X105990000Y-137650000D03*
D11*
X105990000Y-140150000D03*
D19*
X108850000Y-118040000D03*
D11*
X108850000Y-120540000D03*
D14*
X171940000Y-134080000D03*
D15*
X169400000Y-134080000D03*
D18*
X178375000Y-140285000D03*
X170755000Y-140285000D03*
X174501500Y-137491000D03*
X174501500Y-143079000D03*
D22*
X162800000Y-141500000D03*
D23*
X165340000Y-141500000D03*
D11*
X157300000Y-134600000D03*
D12*
X157300000Y-142220000D03*
D19*
X154960000Y-82730000D03*
D12*
X147340000Y-82730000D03*
D11*
X109440000Y-73480000D03*
X109440000Y-75980000D03*
X164040000Y-92670000D03*
D12*
X164040000Y-85050000D03*
D11*
X150960000Y-85130000D03*
D12*
X150960000Y-92750000D03*
D11*
X157780000Y-73340000D03*
X157780000Y-75840000D03*
X154260000Y-85130000D03*
D12*
X154260000Y-92750000D03*
D19*
X147800000Y-136200000D03*
D11*
X147800000Y-133700000D03*
D19*
X140400000Y-140200000D03*
D11*
X142900000Y-140200000D03*
X144420000Y-88230000D03*
X144420000Y-90730000D03*
D19*
X134990000Y-123330000D03*
D11*
X134990000Y-125830000D03*
X128930000Y-125500000D03*
X128930000Y-123000000D03*
X133080000Y-102340000D03*
X130580000Y-102340000D03*
X144370000Y-82530000D03*
X144370000Y-85030000D03*
X148700000Y-120400000D03*
D12*
X148700000Y-130560000D03*
D16*
X132760000Y-106675000D03*
X130220000Y-106675000D03*
D17*
X135300000Y-106675000D03*
D16*
X140800000Y-125260000D03*
X140800000Y-122720000D03*
D17*
X140800000Y-127800000D03*
D16*
X136090000Y-67310000D03*
X138630000Y-67310000D03*
D17*
X133550000Y-67310000D03*
D16*
X176995000Y-67615000D03*
X176995000Y-65075000D03*
D17*
X176995000Y-70155000D03*
D11*
X143000000Y-102500000D03*
D12*
X143000000Y-94880000D03*
D11*
X127460000Y-106870000D03*
D12*
X127460000Y-114490000D03*
D11*
X137730000Y-115670000D03*
D12*
X130110000Y-115670000D03*
D11*
X145075000Y-120550000D03*
D12*
X145075000Y-128170000D03*
D11*
X129190000Y-132440000D03*
D12*
X136810000Y-132440000D03*
D11*
X130070000Y-112320000D03*
D12*
X137690000Y-112320000D03*
D11*
X136820000Y-129170000D03*
D12*
X129200000Y-129170000D03*
D11*
X128440000Y-119670000D03*
D12*
X136060000Y-119670000D03*
D11*
X116575000Y-116600000D03*
D12*
X124195000Y-116600000D03*
D11*
X121920000Y-64370000D03*
D12*
X114300000Y-64370000D03*
D11*
X157580000Y-91090000D03*
D12*
X157580000Y-98710000D03*
D11*
X147330000Y-79800000D03*
D12*
X154950000Y-79800000D03*
D11*
X140455000Y-81645000D03*
D12*
X140455000Y-74025000D03*
D11*
X139875000Y-102425000D03*
D12*
X139875000Y-94805000D03*
D13*
X123250000Y-78830000D03*
X123250000Y-83710000D03*
D11*
X152400000Y-132800000D03*
X152400000Y-137800000D03*
D35*
X107225000Y-63225000D03*
X93525000Y-63225000D03*
D19*
X99075000Y-66075000D03*
D11*
X101675000Y-66075000D03*
X96975000Y-66075000D03*
X103775000Y-66075000D03*
X96975000Y-68875000D03*
X103775000Y-68875000D03*
D36*
X100375000Y-62425000D03*
D11*
X95570000Y-72240000D03*
D12*
X95570000Y-79860000D03*
D11*
X99300000Y-79840000D03*
D12*
X99300000Y-72220000D03*
D37*
X153000000Y-74500000D03*
X177920000Y-84600000D03*
D22*
X136260000Y-60290000D03*
D23*
X136260000Y-62830000D03*
D11*
X161740000Y-62140000D03*
D12*
X154120000Y-62140000D03*
D11*
X167470000Y-86920000D03*
X167470000Y-91920000D03*
D16*
X50720000Y-127380000D03*
X50720000Y-124840000D03*
D17*
X50720000Y-129920000D03*
D11*
X51165000Y-120055000D03*
D12*
X51165000Y-112435000D03*
D11*
X166835000Y-63005000D03*
X169335000Y-63005000D03*
X162052000Y-68580000D03*
D12*
X162052000Y-76200000D03*
D38*
X113320000Y-59680000D03*
X115860000Y-59680000D03*
X118400000Y-59680000D03*
D11*
X167840000Y-77090000D03*
D12*
X167840000Y-84710000D03*
D11*
X164290000Y-58870000D03*
D12*
X154130000Y-58870000D03*
D39*
X45500000Y-60500000D03*
X185500000Y-60500000D03*
X185500000Y-140500000D03*
X45500000Y-140500000D03*
D11*
X66050000Y-130510000D03*
X71050000Y-130510000D03*
X63985000Y-67305000D03*
X61485000Y-67305000D03*
D13*
X53690000Y-72230000D03*
X61310000Y-72230000D03*
X53690000Y-74770000D03*
X61310000Y-74770000D03*
X128890000Y-78910000D03*
X128890000Y-83790000D03*
D11*
X155880000Y-125870000D03*
X155880000Y-120870000D03*
D20*
X175660000Y-98460000D03*
D21*
X168040000Y-98460000D03*
D11*
X75710000Y-87050000D03*
X73210000Y-87050000D03*
X89730000Y-118300000D03*
D12*
X89730000Y-110680000D03*
D11*
X177680000Y-102110000D03*
D12*
X164980000Y-102110000D03*
D11*
X89725000Y-82825000D03*
X89725000Y-87825000D03*
D19*
X55900000Y-140200000D03*
D11*
X55900000Y-137700000D03*
X76000000Y-125950000D03*
D12*
X65840000Y-125950000D03*
D14*
X104220000Y-116960000D03*
X156210000Y-130810000D03*
X179900000Y-58900000D03*
D19*
X77530000Y-61230000D03*
D11*
X74030000Y-61230000D03*
D18*
X178495000Y-130190000D03*
X174685000Y-130190000D03*
X103035000Y-78340000D03*
X106845000Y-78340000D03*
X157525000Y-82900000D03*
X161335000Y-82900000D03*
D14*
X161290000Y-121920000D03*
D15*
X163830000Y-121920000D03*
D14*
X161290000Y-137160000D03*
D15*
X163830000Y-137160000D03*
D13*
X154545000Y-101645000D03*
X146925000Y-101645000D03*
X154545000Y-99105000D03*
X146925000Y-99105000D03*
X154545000Y-96565000D03*
X146925000Y-96565000D03*
X162480000Y-113580000D03*
X162480000Y-105960000D03*
X165020000Y-113580000D03*
X165020000Y-105960000D03*
X167560000Y-113580000D03*
X167560000Y-105960000D03*
D22*
X187230000Y-82340000D03*
D31*
X187230000Y-84880000D03*
X187230000Y-87420000D03*
D11*
X89510000Y-94510000D03*
X89510000Y-92010000D03*
X113580000Y-117380000D03*
X113580000Y-122380000D03*
X100950000Y-121330000D03*
X100950000Y-116330000D03*
X93460000Y-133270000D03*
X93460000Y-128270000D03*
X78870000Y-120780000D03*
D12*
X86490000Y-120780000D03*
D14*
X133660000Y-79450000D03*
D15*
X136200000Y-79450000D03*
D39*
X128500000Y-60500000D03*
X128500000Y-140500000D03*
D19*
X172975000Y-62105000D03*
D12*
X180595000Y-62105000D03*
D19*
X140170000Y-61850000D03*
D12*
X147790000Y-61850000D03*
D23*
X83160000Y-143190000D03*
X85660000Y-143190000D03*
X88160000Y-143190000D03*
D32*
X85660000Y-140190000D03*
X80660000Y-140190000D03*
X90660000Y-140190000D03*
D23*
X114160000Y-142840000D03*
X116660000Y-142840000D03*
X119160000Y-142840000D03*
D32*
X116660000Y-139840000D03*
X111660000Y-139840000D03*
X121660000Y-139840000D03*
D14*
X46500000Y-72500000D03*
D15*
X46500000Y-75040000D03*
X46500000Y-77580000D03*
X46500000Y-80120000D03*
X46500000Y-82660000D03*
X46500000Y-85200000D03*
X46500000Y-87740000D03*
X46500000Y-90280000D03*
X46500000Y-92820000D03*
X46500000Y-95360000D03*
X46500000Y-97900000D03*
X46500000Y-100440000D03*
X46500000Y-102980000D03*
X46500000Y-105520000D03*
X46500000Y-108060000D03*
X46500000Y-110600000D03*
X46500000Y-113140000D03*
X46500000Y-115680000D03*
X46500000Y-118220000D03*
X46500000Y-120760000D03*
D11*
X125600000Y-89060000D03*
X130600000Y-89060000D03*
D20*
X180605000Y-65885000D03*
D21*
X188225000Y-65885000D03*
D14*
X123380000Y-108630000D03*
D15*
X120840000Y-108630000D03*
X118300000Y-108630000D03*
X115760000Y-108630000D03*
X113220000Y-108630000D03*
X110680000Y-108630000D03*
X108140000Y-108630000D03*
D40*
G36*
X149873000Y-77873000D02*
X142127000Y-77873000D01*
X142127000Y-72627000D01*
X149873000Y-72627000D01*
X149873000Y-77873000D01*
X149873000Y-77873000D01*
G37*
X149873000Y-77873000D02*
X142127000Y-77873000D01*
X142127000Y-72627000D01*
X149873000Y-72627000D01*
X149873000Y-77873000D01*
G36*
X185801000Y-88773000D02*
X169291000Y-88773000D01*
X169291000Y-80899000D01*
X185801000Y-80899000D01*
X185801000Y-88773000D01*
X185801000Y-88773000D01*
G37*
X185801000Y-88773000D02*
X169291000Y-88773000D01*
X169291000Y-80899000D01*
X185801000Y-80899000D01*
X185801000Y-88773000D01*
M02*
