M48
;DRILL file {KiCad 4.0.7} date 10/03/21 19:08:49
;FORMAT={-:-/ absolute / inch / decimal}
FMAT,2
INCH,TZ
T1C0.028
T2C0.031
T3C0.035
T4C0.039
T5C0.043
T6C0.047
T7C0.060
%
G90
G05
M72
T1
X1.96Y-3.88
X1.96Y-4.18
X1.9657Y-4.2902
X1.9657Y-4.5902
X1.9685Y-4.7244
X1.9685Y-5.0244
X1.98Y-5.13
X1.98Y-5.43
X2.2Y-2.5
X2.45Y-2.75
X2.45Y-3.05
X2.5Y-2.5
X2.55Y-2.75
X2.55Y-3.05
X2.67Y-4.87
X2.67Y-5.17
X2.6894Y-3.1665
X2.6925Y-3.0673
X2.74Y-3.31
X2.8303Y-4.0457
X2.9894Y-3.1665
X2.9925Y-3.0673
X3.04Y-3.31
X3.08Y-2.9
X3.1Y-3.03
X3.1154Y-4.452
X3.1303Y-4.0457
X3.1858Y-4.9764
X3.38Y-2.9
X3.4Y-3.03
X3.4154Y-4.452
X3.4858Y-4.9764
X3.63Y-4.48
X3.63Y-4.78
X3.8059Y-3.9799
X3.8059Y-4.2799
X3.88Y-5.11
X3.93Y-3.98
X3.93Y-4.28
X3.97Y-2.69
X4.08Y-3.17
X4.08Y-3.28
X4.18Y-5.11
X4.2657Y-4.6244
X4.27Y-2.69
X4.2768Y-4.7358
X4.2768Y-5.0358
X4.28Y-5.38
X4.38Y-3.17
X4.38Y-3.28
X4.38Y-4.06
X4.38Y-4.36
X4.39Y-4.77
X4.39Y-4.87
X4.42Y-2.7
X4.4835Y-2.415
X4.5Y-4.06
X4.5Y-4.36
X4.56Y-4.97
X4.56Y-5.27
X4.5657Y-4.6244
X4.58Y-5.38
X4.6Y-4.18
X4.69Y-4.77
X4.69Y-4.87
X4.72Y-2.7
X4.7835Y-2.415
X4.79Y-3.26
X4.79Y-4.87
X4.86Y-2.69
X4.86Y-2.99
X4.89Y-2.58
X4.9Y-4.18
X4.9303Y-3.5969
X4.9303Y-3.8969
X5.09Y-3.26
X5.09Y-4.87
X5.19Y-2.58
X5.25Y-2.69
X5.25Y-2.99
X5.44Y-2.42
X5.44Y-2.72
T2
X1.6929Y-3.7008
X1.7Y-4.2
X1.71Y-4.71
X1.7323Y-3.189
X1.7913Y-3.7008
X1.7984Y-4.2
X1.8084Y-4.71
X1.8307Y-3.189
X1.99Y-3.6416
X1.99Y-3.74
X2.15Y-3.25
X2.15Y-3.35
X2.15Y-3.45
X2.15Y-3.55
X2.15Y-3.65
X2.15Y-3.75
X2.15Y-3.85
X2.15Y-3.95
X2.15Y-4.05
X2.15Y-4.15
X2.15Y-4.25
X2.15Y-4.35
X2.15Y-4.45
X2.15Y-4.55
X2.25Y-2.1
X2.3484Y-2.1
X2.45Y-3.25
X2.45Y-3.35
X2.45Y-3.45
X2.45Y-3.55
X2.45Y-3.65
X2.45Y-3.75
X2.45Y-3.85
X2.45Y-3.95
X2.45Y-4.05
X2.45Y-4.15
X2.45Y-4.25
X2.45Y-4.35
X2.45Y-4.45
X2.45Y-4.55
X2.55Y-2.1
X2.6087Y-4.4528
X2.6484Y-2.1
X2.71Y-3.5979
X2.71Y-3.79
X2.74Y-4.6
X2.8384Y-4.6
X2.8616Y-2.94
X2.89Y-3.4
X2.89Y-3.5969
X2.89Y-3.7231
X2.89Y-3.92
X2.9134Y-4.7969
X2.9134Y-5.1969
X2.92Y-2.3
X2.92Y-2.4
X2.92Y-2.5
X2.92Y-2.6
X2.96Y-2.94
X2.9831Y-4.1602
X3.0087Y-4.4528
X3.02Y-2.05
X3.0709Y-4.7969
X3.0709Y-5.1969
X3.0815Y-4.1602
X3.1184Y-2.05
X3.1957Y-4.8598
X3.2Y-5.1
X3.2Y-5.25
X3.22Y-2.3
X3.22Y-2.4
X3.22Y-2.5
X3.22Y-2.6
X3.2264Y-4.1075
X3.26Y-2.78
X3.3264Y-4.1075
X3.34Y-3.21
X3.3402Y-5.3768
X3.3584Y-2.78
X3.37Y-2.4016
X3.37Y-2.5
X3.3969Y-5.1
X3.3969Y-5.25
X3.4264Y-4.1075
X3.4386Y-5.3768
X3.4783Y-2.1083
X3.4783Y-2.2067
X3.4957Y-4.8598
X3.628Y-2.4508
X3.6409Y-4.1606
X3.6409Y-4.2591
X3.7264Y-2.4508
X3.74Y-3.21
X3.81Y-2.88
X3.87Y-5.23
X3.874Y-2.0591
X3.874Y-2.4591
X3.88Y-5.37
X3.91Y-2.88
X4.0063Y-2.2594
X4.01Y-2.88
X4.0731Y-2.57
X4.0965Y-1.7756
X4.1075Y-2.0091
X4.1075Y-2.1075
X4.1602Y-3.0083
X4.17Y-5.23
X4.18Y-5.37
X4.2587Y-3.0083
X4.27Y-2.57
X4.2748Y-2.0173
X4.29Y-5.1416
X4.29Y-5.24
X4.3535Y-2.8323
X4.374Y-3.0106
X4.3941Y-2.5724
X4.4063Y-2.2594
X4.452Y-2.8323
X4.4717Y-2.0173
X4.474Y-3.0106
X4.4931Y-3.24
X4.4965Y-1.7756
X4.5244Y-2.2528
X4.57Y-2.02
X4.574Y-3.0106
X4.6126Y-3.6591
X4.6126Y-3.7575
X4.6244Y-2.2528
X4.6331Y-4.06
X4.6551Y-3.4343
X4.6661Y-1.7756
X4.68Y-4.33
X4.68Y-4.63
X4.69Y-2.8516
X4.69Y-2.95
X4.69Y-3.24
X4.7244Y-2.2528
X4.7669Y-2.02
X4.78Y-4.33
X4.78Y-4.63
X4.79Y-3.14
X4.7941Y-2.5724
X4.8118Y-3.6516
X4.8118Y-3.75
X4.83Y-4.06
X4.8472Y-3.4343
X4.87Y-2.02
X4.88Y-4.33
X4.88Y-4.63
X4.98Y-2.69
X4.98Y-2.99
X4.98Y-4.33
X4.98Y-4.63
X4.9869Y-3.14
X5.0661Y-1.7756
X5.0669Y-2.02
X5.12Y-2.69
X5.12Y-2.99
X5.1416Y-4.74
X5.22Y-2.43
X5.24Y-4.74
X5.26Y-4.9
X5.3016Y-3.12
X5.3184Y-2.43
X5.3584Y-4.9
X5.4Y-3.12
T3
X2.2Y-2.65
X2.2Y-2.75
X4.09Y-4.35
X4.09Y-4.45
X5.42Y-2.83
X5.42Y-2.93
T4
X2.15Y-1.75
X2.16Y-5.31
X2.25Y-1.75
X2.26Y-5.31
X2.35Y-1.75
X2.36Y-5.31
X2.46Y-5.31
X2.7776Y-5.3209
X2.8776Y-5.3209
X2.9776Y-5.3209
X3.0776Y-5.3209
X3.2Y-3.47
X3.2Y-3.57
X3.2Y-3.67
X3.3Y-3.47
X3.3Y-3.57
X3.3Y-3.67
X4.91Y-2.22
X4.91Y-2.32
X4.91Y-2.42
X5.05Y-2.22
X5.05Y-2.32
X5.05Y-2.42
T5
X1.6339Y-3.3071
X1.6339Y-3.563
X1.6339Y-3.8189
X1.6339Y-4.0748
X1.6339Y-4.3307
X1.6339Y-4.5866
X1.6339Y-4.8425
X1.6339Y-5.0984
X1.811Y-3.3071
X1.811Y-3.563
X1.811Y-3.8189
X1.811Y-4.0748
X1.811Y-4.3307
X1.811Y-4.5866
X1.811Y-4.8425
X1.811Y-5.0984
X2.2Y-2.35
X2.5Y-2.35
X3.5846Y-5.0917
X3.5846Y-5.3476
X3.7618Y-5.0917
X3.7618Y-5.3476
X5.05Y-3.41
X5.05Y-3.55
X5.05Y-3.69
X5.05Y-3.83
X5.35Y-3.41
X5.35Y-3.55
X5.35Y-3.69
X5.35Y-3.83
T6
X2.78Y-1.73
X2.9769Y-1.73
X3.1737Y-1.73
X4.6963Y-5.33
X4.8931Y-5.33
X5.09Y-5.33
T7
X1.85Y-2.75
X1.85Y-2.95
X3.52Y-1.8
X3.72Y-1.8
X5.28Y-4.29
X5.28Y-4.49
X5.29Y-2.04
X5.29Y-2.24
T4
X1.7638Y-2.2606G85X1.7638Y-2.3394
G05
X1.8425Y-2.485G85X1.9213Y-2.485
G05
X2.Y-2.2606G85X2.Y-2.3394
G05
T0
M30
