G04 #@! TF.FileFunction,Soldermask,Top*
%FSLAX46Y46*%
G04 Gerber Fmt 4.6, Leading zero omitted, Abs format (unit mm)*
G04 Created by KiCad (PCBNEW 4.0.7) date 01/09/22 14:43:10*
%MOMM*%
%LPD*%
G01*
G04 APERTURE LIST*
%ADD10C,0.100000*%
%ADD11C,1.924000*%
%ADD12C,1.920000*%
%ADD13R,1.920000X1.920000*%
%ADD14R,2.100000X2.100000*%
%ADD15O,2.100000X2.100000*%
%ADD16C,2.000000*%
%ADD17O,2.000000X2.000000*%
%ADD18R,2.000000X2.000000*%
%ADD19C,2.900000*%
%ADD20R,2.600000X2.600000*%
%ADD21O,2.600000X2.600000*%
%ADD22R,2.200000X2.200000*%
%ADD23C,2.200000*%
%ADD24R,2.900000X2.900000*%
%ADD25O,2.900000X2.900000*%
%ADD26R,3.400000X3.400000*%
%ADD27C,3.400000*%
%ADD28R,3.900000X3.900000*%
%ADD29R,2.400000X3.900000*%
%ADD30C,2.400000*%
%ADD31O,2.200000X2.200000*%
%ADD32C,1.900000*%
%ADD33R,1.800000X0.700000*%
%ADD34C,2.500000*%
%ADD35O,2.400000X3.900000*%
%ADD36O,4.400000X2.400000*%
%ADD37C,3.448000*%
%ADD38C,1.840000*%
%ADD39C,5.400000*%
%ADD40C,0.254000*%
G04 APERTURE END LIST*
D10*
D11*
X164515000Y-127030000D03*
X160705000Y-127030000D03*
D12*
X91530000Y-120840000D03*
X94070000Y-120840000D03*
D13*
X88990000Y-120840000D03*
D14*
X172825000Y-115805000D03*
D15*
X170285000Y-115805000D03*
D16*
X52085000Y-94855000D03*
D17*
X59705000Y-94855000D03*
D14*
X175855000Y-107145000D03*
D15*
X175855000Y-109685000D03*
X175855000Y-112225000D03*
D16*
X180435000Y-69295000D03*
D17*
X188055000Y-69295000D03*
D16*
X124405000Y-101045000D03*
X121905000Y-101045000D03*
X75185000Y-67215000D03*
X75185000Y-69715000D03*
D18*
X89795000Y-73985000D03*
D16*
X92295000Y-73985000D03*
X80390000Y-116510000D03*
D17*
X88010000Y-116510000D03*
D16*
X162250000Y-89630000D03*
X162250000Y-92130000D03*
D12*
X164330000Y-95910000D03*
X161790000Y-95910000D03*
D13*
X166870000Y-95910000D03*
D16*
X149145000Y-92595000D03*
D17*
X149145000Y-84975000D03*
D16*
X179715000Y-74335000D03*
D17*
X187335000Y-74335000D03*
D16*
X187305000Y-95105000D03*
D17*
X179685000Y-95105000D03*
D18*
X124300000Y-127650000D03*
D17*
X116680000Y-120030000D03*
X124300000Y-125110000D03*
X116680000Y-122570000D03*
X124300000Y-122570000D03*
X116680000Y-125110000D03*
X124300000Y-120030000D03*
X116680000Y-127650000D03*
D19*
X123830000Y-141240000D03*
X118830000Y-141240000D03*
X128830000Y-141240000D03*
D16*
X117825000Y-105700000D03*
D17*
X117825000Y-113320000D03*
D18*
X158800000Y-115775000D03*
D17*
X151180000Y-115775000D03*
D14*
X140475000Y-91525000D03*
D15*
X140475000Y-88985000D03*
X140475000Y-86445000D03*
D16*
X111700000Y-89380000D03*
D17*
X119320000Y-89380000D03*
D16*
X121175000Y-105700000D03*
D17*
X121175000Y-113320000D03*
D16*
X89390000Y-96930000D03*
X89390000Y-99430000D03*
X69170000Y-86730000D03*
X69170000Y-91730000D03*
X65880000Y-86730000D03*
X65880000Y-91730000D03*
X65045000Y-94405000D03*
X70045000Y-94405000D03*
X65085000Y-98065000D03*
X70085000Y-98065000D03*
X69300000Y-122700000D03*
X71800000Y-122700000D03*
X62215000Y-122795000D03*
X64715000Y-122795000D03*
D18*
X108270000Y-85380000D03*
D16*
X108270000Y-82880000D03*
X112825000Y-85725000D03*
X112825000Y-83225000D03*
D18*
X81700000Y-137000000D03*
D16*
X79200000Y-137000000D03*
X60800000Y-132700000D03*
X58300000Y-132700000D03*
X52500000Y-132700000D03*
X55000000Y-132700000D03*
D18*
X63100000Y-137600000D03*
D16*
X63100000Y-140100000D03*
X127265000Y-68645000D03*
X122265000Y-68645000D03*
X129875000Y-69725000D03*
X134875000Y-69725000D03*
X165870000Y-81930000D03*
X165870000Y-79430000D03*
X116500000Y-133100000D03*
X116500000Y-135600000D03*
X187525000Y-120125000D03*
X185025000Y-120125000D03*
X172400000Y-123600000D03*
X167400000Y-123600000D03*
X172400000Y-126900000D03*
X167400000Y-126900000D03*
X172400000Y-130200000D03*
X167400000Y-130200000D03*
X102575000Y-117700000D03*
X105075000Y-117700000D03*
X89990000Y-134890000D03*
X92490000Y-134890000D03*
X113325000Y-122500000D03*
X113325000Y-127500000D03*
D20*
X54400000Y-78540000D03*
D21*
X62020000Y-78540000D03*
D18*
X89860000Y-66410000D03*
D17*
X82240000Y-66410000D03*
D22*
X63095000Y-90855000D03*
D23*
X60555000Y-90855000D03*
D24*
X133470000Y-89660000D03*
D25*
X133470000Y-82040000D03*
D24*
X136880000Y-89720000D03*
D25*
X136880000Y-82100000D03*
D26*
X68195000Y-61835000D03*
D27*
X63115000Y-61835000D03*
D28*
X54955000Y-67305000D03*
X54955000Y-61305000D03*
D29*
X50255000Y-64305000D03*
D14*
X66695000Y-76495000D03*
D15*
X69235000Y-76495000D03*
X71775000Y-76495000D03*
X74315000Y-76495000D03*
D26*
X69700000Y-138800000D03*
D27*
X74780000Y-138800000D03*
D16*
X65575000Y-83655000D03*
D17*
X75735000Y-83655000D03*
D16*
X65575000Y-80155000D03*
D17*
X75735000Y-80155000D03*
D16*
X109380000Y-88920000D03*
D17*
X99220000Y-88920000D03*
D16*
X103075000Y-101475000D03*
D17*
X103075000Y-91315000D03*
D12*
X141500000Y-133760000D03*
X141500000Y-131220000D03*
D13*
X141500000Y-136300000D03*
D12*
X120950000Y-72390000D03*
X118410000Y-72390000D03*
D13*
X123490000Y-72390000D03*
D12*
X174945000Y-78755000D03*
X177485000Y-78755000D03*
D13*
X172405000Y-78755000D03*
D19*
X90750000Y-141310000D03*
X85750000Y-141310000D03*
X95750000Y-141310000D03*
D30*
X78825000Y-73615000D03*
X78825000Y-69115000D03*
X85325000Y-73615000D03*
X85325000Y-69115000D03*
X70745000Y-113075000D03*
X75245000Y-113075000D03*
X70745000Y-119575000D03*
X75245000Y-119575000D03*
X54325000Y-112815000D03*
X58825000Y-112815000D03*
X54325000Y-119315000D03*
X58825000Y-119315000D03*
X54445000Y-122985000D03*
X58945000Y-122985000D03*
X54445000Y-129485000D03*
X58945000Y-129485000D03*
X62365000Y-112925000D03*
X66865000Y-112925000D03*
X62365000Y-119425000D03*
X66865000Y-119425000D03*
D22*
X83670000Y-59660000D03*
D31*
X86210000Y-59660000D03*
X88750000Y-59660000D03*
D32*
X74045000Y-91985000D03*
X74045000Y-96865000D03*
X117420000Y-78870000D03*
X117420000Y-83750000D03*
D18*
X78675000Y-77165000D03*
D17*
X86295000Y-110185000D03*
X78675000Y-79705000D03*
X86295000Y-107645000D03*
X78675000Y-82245000D03*
X86295000Y-105105000D03*
X78675000Y-84785000D03*
X86295000Y-102565000D03*
X78675000Y-87325000D03*
X86295000Y-100025000D03*
X78675000Y-89865000D03*
X86295000Y-97485000D03*
X78675000Y-92405000D03*
X86295000Y-94945000D03*
X78675000Y-94945000D03*
X86295000Y-92405000D03*
X78675000Y-97485000D03*
X86295000Y-89865000D03*
X78675000Y-100025000D03*
X86295000Y-87325000D03*
X78675000Y-102565000D03*
X86295000Y-84785000D03*
X78675000Y-105105000D03*
X86295000Y-82245000D03*
X78675000Y-107645000D03*
X86295000Y-79705000D03*
X78675000Y-110185000D03*
X86295000Y-77165000D03*
D14*
X97030000Y-108260000D03*
D15*
X97030000Y-110800000D03*
X94490000Y-108260000D03*
X94490000Y-110800000D03*
X91950000Y-108260000D03*
X91950000Y-110800000D03*
D16*
X75900000Y-125600000D03*
X75900000Y-128100000D03*
D18*
X86300000Y-131700000D03*
D17*
X78680000Y-124080000D03*
X86300000Y-129160000D03*
X78680000Y-126620000D03*
X86300000Y-126620000D03*
X78680000Y-129160000D03*
X86300000Y-124080000D03*
X78680000Y-131700000D03*
D12*
X184855000Y-90665000D03*
X182315000Y-90665000D03*
D13*
X187395000Y-90665000D03*
D12*
X175015000Y-90385000D03*
X172475000Y-90385000D03*
D13*
X177555000Y-90385000D03*
D12*
X184815000Y-78635000D03*
X187355000Y-78635000D03*
D13*
X182275000Y-78635000D03*
D18*
X139775000Y-71150000D03*
D16*
X139775000Y-68650000D03*
D19*
X57775000Y-89105000D03*
X52735000Y-91605000D03*
X52735000Y-86605000D03*
D14*
X47175000Y-72185000D03*
D15*
X47175000Y-74725000D03*
X47175000Y-77265000D03*
X47175000Y-79805000D03*
X47175000Y-82345000D03*
X47175000Y-84885000D03*
X47175000Y-87425000D03*
X47175000Y-89965000D03*
X47175000Y-92505000D03*
X47175000Y-95045000D03*
X47175000Y-97585000D03*
X47175000Y-100125000D03*
X47175000Y-102665000D03*
X47175000Y-105205000D03*
X47175000Y-107745000D03*
X47175000Y-110285000D03*
D16*
X50905000Y-79285000D03*
X50905000Y-81785000D03*
D14*
X101610000Y-108200000D03*
D15*
X101610000Y-105660000D03*
D16*
X89880000Y-63400000D03*
D17*
X82260000Y-63400000D03*
D16*
X52005000Y-98225000D03*
D17*
X59625000Y-98225000D03*
D16*
X65465000Y-109385000D03*
D17*
X65465000Y-101765000D03*
D16*
X75215000Y-109415000D03*
D17*
X75215000Y-101795000D03*
D16*
X99685000Y-91845000D03*
D17*
X99685000Y-99465000D03*
D16*
X147905000Y-61835000D03*
D17*
X147905000Y-69455000D03*
D16*
X137100000Y-66350000D03*
D17*
X129480000Y-66350000D03*
D16*
X65200000Y-129800000D03*
D17*
X72820000Y-129800000D03*
D16*
X62165000Y-109355000D03*
D17*
X62165000Y-101735000D03*
D16*
X55495000Y-109345000D03*
D17*
X55495000Y-101725000D03*
D16*
X144435000Y-75735000D03*
D17*
X144435000Y-68115000D03*
D16*
X112930000Y-78400000D03*
D17*
X112930000Y-70780000D03*
D16*
X111975000Y-67700000D03*
D17*
X119595000Y-67700000D03*
D16*
X133870000Y-73190000D03*
D17*
X126250000Y-73190000D03*
D16*
X152400000Y-130500000D03*
D17*
X152400000Y-122880000D03*
D16*
X109950000Y-123475000D03*
D17*
X109950000Y-131095000D03*
D16*
X103375000Y-123375000D03*
D17*
X103375000Y-130995000D03*
D16*
X106600000Y-125700000D03*
D17*
X106600000Y-133320000D03*
D16*
X71955000Y-109365000D03*
D17*
X71955000Y-101745000D03*
D16*
X85750000Y-119750000D03*
D17*
X78130000Y-119750000D03*
D16*
X95970000Y-137880000D03*
D17*
X95970000Y-130260000D03*
D16*
X68675000Y-109385000D03*
D17*
X68675000Y-101765000D03*
D16*
X89700000Y-124200000D03*
D17*
X89700000Y-131820000D03*
D16*
X103100000Y-141700000D03*
D17*
X103100000Y-134080000D03*
D16*
X112100000Y-134100000D03*
D17*
X112100000Y-141720000D03*
D16*
X169795000Y-74375000D03*
D17*
X177415000Y-74375000D03*
D16*
X177230000Y-94810000D03*
D17*
X169610000Y-94810000D03*
D16*
X52275000Y-109325000D03*
D17*
X52275000Y-101705000D03*
D16*
X58825000Y-109345000D03*
D17*
X58825000Y-101725000D03*
D16*
X99900000Y-122900000D03*
D17*
X99900000Y-130520000D03*
D16*
X68585000Y-70295000D03*
X66085000Y-70295000D03*
X112050000Y-119725000D03*
X109550000Y-119725000D03*
D18*
X114035000Y-106075000D03*
D17*
X106415000Y-106075000D03*
D18*
X114025000Y-108855000D03*
D17*
X106405000Y-108855000D03*
D16*
X110255000Y-99755000D03*
D17*
X110255000Y-92135000D03*
D16*
X106925000Y-99715000D03*
D17*
X106925000Y-92095000D03*
D16*
X129500000Y-94900000D03*
D17*
X137120000Y-94900000D03*
D16*
X129550000Y-98175000D03*
D17*
X137170000Y-98175000D03*
D33*
X121025000Y-95675000D03*
X121025000Y-96175000D03*
X121025000Y-96675000D03*
X121025000Y-97175000D03*
X121025000Y-97675000D03*
X125425000Y-97675000D03*
X125425000Y-97175000D03*
X125425000Y-96675000D03*
X125425000Y-96175000D03*
X125425000Y-95675000D03*
D32*
X115000000Y-95225000D03*
X115000000Y-100105000D03*
X181945000Y-129425000D03*
X181945000Y-126885000D03*
D34*
X187025000Y-124345000D03*
X187025000Y-134505000D03*
D26*
X184673000Y-131711000D03*
D27*
X184673000Y-126631000D03*
D20*
X180605000Y-65885000D03*
D21*
X188225000Y-65885000D03*
D23*
X187775000Y-106465000D03*
X187775000Y-116625000D03*
X187775000Y-111545000D03*
X180175000Y-111545000D03*
X180175000Y-106465000D03*
X180175000Y-116625000D03*
X187775000Y-98845000D03*
X180175000Y-98845000D03*
D16*
X140350000Y-116275000D03*
X142850000Y-116275000D03*
D18*
X158450000Y-105625000D03*
D17*
X158450000Y-113245000D03*
D18*
X148325000Y-105800000D03*
D17*
X155945000Y-105800000D03*
D18*
X148675000Y-116050000D03*
D17*
X148675000Y-108430000D03*
D16*
X137575000Y-116250000D03*
D17*
X129955000Y-116250000D03*
D16*
X145700000Y-140800000D03*
D17*
X153320000Y-140800000D03*
D16*
X170210000Y-105050000D03*
D17*
X170210000Y-112670000D03*
D18*
X169875000Y-69455000D03*
D16*
X169875000Y-66955000D03*
D20*
X172975000Y-62105000D03*
D21*
X180595000Y-62105000D03*
D12*
X157275000Y-69445000D03*
X157275000Y-71985000D03*
D13*
X157275000Y-66905000D03*
D16*
X167585000Y-59145000D03*
D17*
X175205000Y-59145000D03*
D14*
X165265000Y-66695000D03*
D15*
X165265000Y-69235000D03*
D18*
X107600000Y-137000000D03*
D16*
X107600000Y-139500000D03*
D18*
X113155000Y-115105000D03*
D16*
X110655000Y-115105000D03*
D32*
X166815000Y-106615000D03*
X166815000Y-114235000D03*
X164275000Y-106615000D03*
X164275000Y-114235000D03*
X161735000Y-106615000D03*
X161735000Y-114235000D03*
X154545000Y-101645000D03*
X146925000Y-101645000D03*
X154545000Y-99105000D03*
X146925000Y-99105000D03*
X154545000Y-96565000D03*
X146925000Y-96565000D03*
D14*
X171940000Y-134080000D03*
D15*
X169400000Y-134080000D03*
D11*
X178375000Y-140285000D03*
X170755000Y-140285000D03*
X174501500Y-137491000D03*
X174501500Y-143079000D03*
D22*
X162800000Y-141500000D03*
D23*
X165340000Y-141500000D03*
D16*
X157300000Y-134600000D03*
D17*
X157300000Y-142220000D03*
D14*
X172725000Y-119485000D03*
D15*
X170185000Y-119485000D03*
D18*
X156305000Y-82495000D03*
D17*
X148685000Y-82495000D03*
D16*
X108900000Y-75475000D03*
X108900000Y-77975000D03*
X165820000Y-92400000D03*
D17*
X165820000Y-84780000D03*
D16*
X152445000Y-85045000D03*
D17*
X152445000Y-92665000D03*
D16*
X154455000Y-75105000D03*
X156955000Y-75105000D03*
X155625000Y-85045000D03*
D17*
X155625000Y-92665000D03*
D16*
X122100000Y-89250000D03*
X124600000Y-89250000D03*
D18*
X147800000Y-136200000D03*
D16*
X147800000Y-133700000D03*
D18*
X140400000Y-140200000D03*
D16*
X142900000Y-140200000D03*
X145825000Y-89725000D03*
X145825000Y-92225000D03*
D18*
X135300000Y-128500000D03*
D16*
X135300000Y-131000000D03*
X130500000Y-132700000D03*
X130500000Y-130200000D03*
X130200000Y-102075000D03*
X132700000Y-102075000D03*
X145875000Y-83350000D03*
X145875000Y-85850000D03*
D20*
X164985000Y-59875000D03*
D21*
X157365000Y-59875000D03*
D16*
X148700000Y-120400000D03*
D17*
X148700000Y-130560000D03*
D12*
X132760000Y-106675000D03*
X130220000Y-106675000D03*
D13*
X135300000Y-106675000D03*
D12*
X140800000Y-125260000D03*
X140800000Y-122720000D03*
D13*
X140800000Y-127800000D03*
D12*
X142245000Y-64765000D03*
X144785000Y-64765000D03*
D13*
X139705000Y-64765000D03*
D12*
X176995000Y-67615000D03*
X176995000Y-65075000D03*
D13*
X176995000Y-70155000D03*
D16*
X143000000Y-102500000D03*
D17*
X143000000Y-94880000D03*
D16*
X125300000Y-111550000D03*
D17*
X132920000Y-111550000D03*
D16*
X142175000Y-105800000D03*
D17*
X142175000Y-113420000D03*
D16*
X145075000Y-120550000D03*
D17*
X145075000Y-128170000D03*
D16*
X133700000Y-141800000D03*
D17*
X133700000Y-134180000D03*
D16*
X138875000Y-113475000D03*
D17*
X138875000Y-105855000D03*
D16*
X136900000Y-134200000D03*
D17*
X136900000Y-141820000D03*
D16*
X141800000Y-120100000D03*
D17*
X134180000Y-120100000D03*
D16*
X116575000Y-116600000D03*
D17*
X124195000Y-116600000D03*
D16*
X127100000Y-132300000D03*
D17*
X119480000Y-132300000D03*
D16*
X137575000Y-62975000D03*
D17*
X129955000Y-62975000D03*
D16*
X158645000Y-91135000D03*
D17*
X158645000Y-98755000D03*
D16*
X144195000Y-78655000D03*
D17*
X151815000Y-78655000D03*
D16*
X140455000Y-81645000D03*
D17*
X140455000Y-74025000D03*
D16*
X139875000Y-102425000D03*
D17*
X139875000Y-94805000D03*
D32*
X123250000Y-78830000D03*
X123250000Y-83710000D03*
D16*
X152400000Y-132800000D03*
X152400000Y-137800000D03*
D35*
X107225000Y-63225000D03*
X93525000Y-63225000D03*
D18*
X99075000Y-66075000D03*
D16*
X101675000Y-66075000D03*
X96975000Y-66075000D03*
X103775000Y-66075000D03*
X96975000Y-68875000D03*
X103775000Y-68875000D03*
D36*
X100375000Y-62425000D03*
D16*
X95570000Y-72240000D03*
D17*
X95570000Y-79860000D03*
D16*
X99300000Y-79840000D03*
D17*
X99300000Y-72220000D03*
D37*
X152165000Y-63645000D03*
X179835000Y-84695000D03*
D22*
X126115000Y-61455000D03*
D23*
X123575000Y-61455000D03*
D16*
X137575000Y-59675000D03*
D17*
X129955000Y-59675000D03*
D16*
X169220000Y-87190000D03*
X169220000Y-92190000D03*
D12*
X47335000Y-118835000D03*
X47335000Y-116295000D03*
D13*
X47335000Y-121375000D03*
D16*
X51165000Y-120055000D03*
D17*
X51165000Y-112435000D03*
D16*
X166835000Y-63005000D03*
X169335000Y-63005000D03*
X161860000Y-67170000D03*
D17*
X161860000Y-74790000D03*
D38*
X113325000Y-60575000D03*
X115865000Y-60575000D03*
X118405000Y-60575000D03*
D16*
X169180000Y-77340000D03*
D17*
X169180000Y-84960000D03*
D16*
X150765000Y-58785000D03*
D17*
X140605000Y-58785000D03*
D39*
X45425000Y-60465000D03*
X185425000Y-60465000D03*
X185425000Y-140465000D03*
X45425000Y-140465000D03*
D16*
X70600000Y-133000000D03*
X75600000Y-133000000D03*
X63985000Y-67305000D03*
X61485000Y-67305000D03*
D32*
X53690000Y-72230000D03*
X61310000Y-72230000D03*
X53690000Y-74770000D03*
X61310000Y-74770000D03*
X128890000Y-78910000D03*
X128890000Y-83790000D03*
D16*
X152000000Y-120100000D03*
X157000000Y-120100000D03*
D20*
X177200000Y-98180000D03*
D21*
X169580000Y-98180000D03*
D16*
X75710000Y-87050000D03*
X73210000Y-87050000D03*
X93930000Y-96950000D03*
D17*
X93930000Y-104570000D03*
D14*
X93170000Y-93170000D03*
D15*
X93170000Y-90630000D03*
X93170000Y-88090000D03*
X93170000Y-85550000D03*
D16*
X177680000Y-102110000D03*
D17*
X164980000Y-102110000D03*
D16*
X89725000Y-82825000D03*
X89725000Y-87825000D03*
D18*
X55900000Y-140200000D03*
D16*
X55900000Y-137700000D03*
X72600000Y-126400000D03*
D17*
X62440000Y-126400000D03*
D14*
X97680000Y-119560000D03*
X164200000Y-136400000D03*
X179900000Y-58900000D03*
D18*
X93350000Y-125960000D03*
D16*
X95850000Y-125960000D03*
D18*
X77530000Y-61230000D03*
D16*
X74030000Y-61230000D03*
D11*
X179185000Y-127520000D03*
X175375000Y-127520000D03*
X101475000Y-82120000D03*
X105285000Y-82120000D03*
X158635000Y-81450000D03*
X162445000Y-81450000D03*
D40*
G36*
X187873000Y-88373000D02*
X171627000Y-88373000D01*
X171627000Y-80627000D01*
X187873000Y-80627000D01*
X187873000Y-88373000D01*
X187873000Y-88373000D01*
G37*
X187873000Y-88373000D02*
X171627000Y-88373000D01*
X171627000Y-80627000D01*
X187873000Y-80627000D01*
X187873000Y-88373000D01*
G36*
X154873000Y-72873000D02*
X149627000Y-72873000D01*
X149627000Y-66627000D01*
X154873000Y-66627000D01*
X154873000Y-72873000D01*
X154873000Y-72873000D01*
G37*
X154873000Y-72873000D02*
X149627000Y-72873000D01*
X149627000Y-66627000D01*
X154873000Y-66627000D01*
X154873000Y-72873000D01*
M02*
