M48
;DRILL file {KiCad 4.0.7} date 10/09/21 18:31:47
;FORMAT={-:-/ absolute / inch / decimal}
FMAT,2
INCH,TZ
T1C0.016
T2C0.028
T3C0.031
T4C0.035
T5C0.039
T6C0.043
T7C0.047
T8C0.060
%
G90
G05
M72
T1
X2.076Y-4.5287
T2
X1.62Y-4.25
X1.63Y-3.6
X1.64Y-4.87
X1.65Y-2.94
X1.92Y-4.25
X1.93Y-3.6
X1.94Y-4.87
X1.95Y-2.94
X2.14Y-4.79
X2.1602Y-4.8906
X2.1602Y-5.1138
X2.1626Y-5.0016
X2.44Y-4.79
X2.4602Y-4.8906
X2.4602Y-5.1138
X2.4626Y-5.0016
X2.5409Y-1.9425
X2.6894Y-3.1665
X2.6898Y-4.5831
X2.6925Y-3.0673
X2.74Y-3.31
X2.8409Y-1.9425
X2.9894Y-3.1665
X2.9898Y-4.5831
X2.9925Y-3.0673
X3.0067Y-5.1106
X3.04Y-3.31
X3.08Y-2.9
X3.1Y-3.03
X3.15Y-4.4488
X3.3067Y-5.1106
X3.38Y-2.9
X3.4Y-3.03
X3.45Y-4.4488
X3.58Y-2.77
X3.8059Y-3.9799
X3.8059Y-4.2799
X3.88Y-2.77
X3.88Y-5.11
X3.93Y-3.98
X3.93Y-4.28
X3.9976Y-4.3543
X3.9976Y-4.6543
X4.06Y-2.23
X4.06Y-2.35
X4.06Y-2.46
X4.06Y-2.58
X4.06Y-2.69
X4.1315Y-3.5465
X4.1358Y-3.4319
X4.18Y-5.11
X4.189Y-4.497
X4.1911Y-4.6122
X4.2768Y-4.7358
X4.2768Y-5.0358
X4.28Y-5.38
X4.36Y-2.23
X4.36Y-2.35
X4.36Y-2.46
X4.36Y-2.58
X4.36Y-2.69
X4.38Y-4.06
X4.38Y-4.36
X4.39Y-4.77
X4.39Y-4.87
X4.4315Y-3.5465
X4.4358Y-3.4319
X4.45Y-3.05
X4.489Y-4.497
X4.4911Y-4.6122
X4.5Y-4.06
X4.5Y-4.36
X4.56Y-4.97
X4.56Y-5.27
X4.58Y-5.38
X4.6Y-4.18
X4.69Y-4.77
X4.69Y-4.87
X4.75Y-3.05
X4.79Y-4.87
X4.81Y-3.15
X4.86Y-2.69
X4.86Y-2.99
X4.89Y-2.58
X4.9Y-4.18
X4.9303Y-3.5969
X4.9303Y-3.8969
X5.09Y-4.87
X5.11Y-3.15
X5.19Y-2.58
X5.25Y-2.69
X5.25Y-2.99
X5.44Y-2.42
X5.44Y-2.72
T3
X1.689Y-5.1299
X1.6916Y-4.99
X1.7232Y-3.7323
X1.7232Y-4.3713
X1.7516Y-3.07
X1.7874Y-5.1299
X1.79Y-4.99
X1.8217Y-3.7323
X1.8217Y-4.3713
X1.85Y-3.07
X2.15Y-3.25
X2.15Y-3.35
X2.15Y-3.45
X2.15Y-3.55
X2.15Y-3.65
X2.15Y-3.75
X2.15Y-3.85
X2.15Y-3.95
X2.15Y-4.05
X2.15Y-4.15
X2.15Y-4.25
X2.15Y-4.35
X2.15Y-4.45
X2.15Y-4.55
X2.25Y-2.1
X2.3484Y-2.1
X2.45Y-3.25
X2.45Y-3.35
X2.45Y-3.45
X2.45Y-3.55
X2.45Y-3.65
X2.45Y-3.75
X2.45Y-3.85
X2.45Y-3.95
X2.45Y-4.05
X2.45Y-4.15
X2.45Y-4.25
X2.45Y-4.35
X2.45Y-4.45
X2.45Y-4.55
X2.55Y-2.1
X2.5921Y-4.7024
X2.6Y-3.97
X2.6484Y-2.1
X2.6524Y-4.4567
X2.69Y-4.3
X2.6984Y-3.97
X2.7083Y-2.4244
X2.7083Y-2.5244
X2.7083Y-2.6244
X2.7083Y-2.7244
X2.71Y-3.5479
X2.71Y-3.74
X2.7884Y-4.3
X2.8126Y-2.1886
X2.8616Y-2.94
X2.89Y-3.4
X2.89Y-3.5969
X2.89Y-3.7231
X2.89Y-3.92
X2.8921Y-4.7024
X2.911Y-2.1886
X2.96Y-2.94
X2.9831Y-4.1602
X3.0083Y-2.4244
X3.0083Y-2.5244
X3.0083Y-2.6244
X3.0083Y-2.7244
X3.0524Y-4.4567
X3.0815Y-4.1602
X3.13Y-4.59
X3.15Y-2.4616
X3.15Y-2.56
X3.2264Y-4.1075
X3.2284Y-4.59
X3.26Y-2.78
X3.31Y-2.1016
X3.31Y-2.2
X3.3264Y-4.1075
X3.34Y-3.21
X3.3584Y-2.78
X3.3665Y-4.8059
X3.3709Y-4.6634
X3.4264Y-4.1075
X3.53Y-2.5516
X3.53Y-2.65
X3.54Y-2.94
X3.63Y-2.04
X3.63Y-2.44
X3.64Y-2.94
X3.6409Y-4.1606
X3.6409Y-4.2591
X3.6731Y-2.65
X3.6831Y-3.86
X3.74Y-2.94
X3.74Y-3.21
X3.7665Y-4.8059
X3.7709Y-4.6634
X3.87Y-2.65
X3.87Y-5.23
X3.8716Y-3.1
X3.88Y-3.86
X3.88Y-5.37
X3.9Y-2.039
X3.9Y-2.439
X3.9Y-3.29
X3.9203Y-1.6585
X3.9203Y-1.8553
X3.95Y-2.91
X3.97Y-3.1
X3.987Y-4.8106
X3.987Y-5.0075
X3.9984Y-3.29
X4.063Y-4.0305
X4.072Y-1.9752
X4.072Y-2.0736
X4.1114Y-4.8106
X4.1114Y-5.0075
X4.12Y-3.26
X4.14Y-1.77
X4.1431Y-3.1
X4.17Y-5.23
X4.18Y-5.37
X4.1939Y-1.9931
X4.22Y-3.26
X4.2598Y-4.0305
X4.29Y-5.1416
X4.29Y-5.24
X4.32Y-3.26
X4.34Y-3.1
X4.35Y-2.91
X4.3907Y-1.9931
X4.5Y-2.82
X4.5Y-3.22
X4.51Y-2.62
X4.5197Y-2.4197
X4.5358Y-2.226
X4.54Y-1.77
X4.56Y-2.
X4.5984Y-3.22
X4.6Y-2.82
X4.61Y-2.62
X4.6126Y-3.6591
X4.6126Y-3.7575
X4.6197Y-2.4197
X4.6331Y-4.06
X4.6358Y-2.226
X4.6551Y-3.4343
X4.68Y-4.33
X4.68Y-4.63
X4.7Y-1.77
X4.7Y-2.82
X4.71Y-2.62
X4.7197Y-2.4197
X4.7358Y-2.226
X4.7569Y-2.
X4.78Y-4.33
X4.78Y-4.63
X4.8118Y-3.6516
X4.8118Y-3.75
X4.83Y-4.06
X4.8472Y-3.4343
X4.88Y-4.33
X4.88Y-4.63
X4.94Y-3.26
X4.98Y-2.69
X4.98Y-2.99
X4.98Y-4.33
X4.98Y-4.63
X5.1Y-1.77
X5.12Y-2.69
X5.12Y-2.99
X5.1369Y-3.26
X5.1416Y-4.74
X5.22Y-2.43
X5.24Y-4.74
X5.26Y-4.9
X5.3016Y-3.16
X5.3184Y-2.43
X5.3584Y-4.9
X5.4Y-3.16
T4
X2.9449Y-1.9469
X3.0449Y-1.9469
X4.12Y-4.24
X4.12Y-4.34
X5.42Y-2.83
X5.42Y-2.93
T5
X2.0071Y-5.3835
X2.1071Y-5.3835
X2.15Y-1.75
X2.2071Y-5.3835
X2.25Y-1.75
X2.3071Y-5.3835
X2.35Y-1.75
X2.4071Y-5.3835
X2.5071Y-5.3835
X2.6071Y-5.3835
X2.7071Y-5.3835
X2.8071Y-5.3835
X2.9071Y-5.3835
X3.0071Y-5.3835
X3.1071Y-5.3835
X3.2Y-3.47
X3.2Y-3.57
X3.2Y-3.67
X3.2071Y-5.3835
X3.3Y-3.47
X3.3Y-3.57
X3.3Y-3.67
X3.3071Y-5.3835
X3.4071Y-5.3835
X3.5055Y-4.9772
X3.5071Y-5.3835
X3.6055Y-4.9772
X3.7055Y-4.9772
X3.8055Y-4.9772
X4.9Y-2.
X4.9Y-2.1
X4.9Y-2.2
X5.05Y-2.
X5.05Y-2.1
X5.05Y-2.2
T6
X1.6828Y-4.5
X1.6828Y-4.7559
X1.6928Y-3.87
X1.6928Y-4.1259
X1.7128Y-2.57
X1.7128Y-2.8259
X1.7128Y-3.21
X1.7128Y-3.4659
X1.86Y-4.5
X1.86Y-4.7559
X1.87Y-3.87
X1.87Y-4.1259
X1.89Y-2.57
X1.89Y-2.8259
X1.89Y-3.21
X1.89Y-3.4659
X2.1815Y-2.3209
X2.4815Y-2.3209
X2.9941Y-4.7228
X2.9941Y-4.9
X3.25Y-4.7228
X3.25Y-4.9
X5.05Y-3.41
X5.05Y-3.55
X5.05Y-3.69
X5.05Y-3.83
X5.35Y-3.41
X5.35Y-3.55
X5.35Y-3.69
X5.35Y-3.83
T7
X2.6555Y-4.9268
X2.7539Y-5.1252
X2.78Y-1.73
X2.8524Y-4.9268
X2.9769Y-1.73
X3.1737Y-1.73
X4.6963Y-5.33
X4.8931Y-5.33
X5.09Y-5.33
T8
X2.23Y-2.58
X2.43Y-2.58
X3.4528Y-1.7972
X3.6528Y-1.7972
X5.28Y-4.29
X5.28Y-4.49
X5.29Y-2.04
X5.29Y-2.24
T5
X1.7438Y-2.0806G85X1.7438Y-2.1594
G05
X1.8225Y-2.305G85X1.9013Y-2.305
G05
X1.98Y-2.0806G85X1.98Y-2.1594
G05
T0
M30
