G04 #@! TF.FileFunction,Soldermask,Top*
%FSLAX46Y46*%
G04 Gerber Fmt 4.6, Leading zero omitted, Abs format (unit mm)*
G04 Created by KiCad (PCBNEW 4.0.7) date 10/09/21 18:31:45*
%MOMM*%
%LPD*%
G01*
G04 APERTURE LIST*
%ADD10C,0.100000*%
%ADD11R,2.000000X2.000000*%
%ADD12C,2.000000*%
%ADD13R,3.400000X3.400000*%
%ADD14C,3.400000*%
%ADD15C,1.800000*%
%ADD16O,1.800000X1.800000*%
%ADD17O,2.000000X2.000000*%
%ADD18R,2.600000X2.600000*%
%ADD19O,2.600000X2.600000*%
%ADD20R,2.200000X2.200000*%
%ADD21C,2.200000*%
%ADD22R,3.900000X3.900000*%
%ADD23C,3.448000*%
%ADD24R,2.100000X2.100000*%
%ADD25O,2.100000X2.100000*%
%ADD26C,1.920000*%
%ADD27R,1.920000X1.920000*%
%ADD28C,2.900000*%
%ADD29C,2.400000*%
%ADD30O,2.200000X2.200000*%
%ADD31C,1.900000*%
G04 APERTURE END LIST*
D10*
D11*
X100838000Y-78740000D03*
D12*
X98338000Y-78740000D03*
D13*
X134366000Y-51816000D03*
D14*
X134366000Y-56896000D03*
D15*
X87630000Y-113000000D03*
D16*
X80010000Y-113000000D03*
D11*
X126492000Y-109982000D03*
D17*
X118872000Y-117602000D03*
X123952000Y-109982000D03*
X121412000Y-117602000D03*
X121412000Y-109982000D03*
X123952000Y-117602000D03*
X118872000Y-109982000D03*
X126492000Y-117602000D03*
D12*
X82804000Y-70612000D03*
X85304000Y-70612000D03*
X66040000Y-100838000D03*
X68540000Y-100838000D03*
X79502000Y-116586000D03*
X82002000Y-116586000D03*
D11*
X57150000Y-53340000D03*
D12*
X59650000Y-53340000D03*
X104430000Y-122190000D03*
X104430000Y-127190000D03*
X101270000Y-122190000D03*
X101270000Y-127190000D03*
D11*
X64770000Y-53340000D03*
D12*
X67270000Y-53340000D03*
X133604000Y-124460000D03*
X136104000Y-124460000D03*
X73406000Y-99568000D03*
X73406000Y-94568000D03*
X73406000Y-86360000D03*
X73406000Y-91360000D03*
X45466000Y-126746000D03*
X42966000Y-126746000D03*
X46270000Y-111030000D03*
X43770000Y-111030000D03*
D11*
X117160000Y-95440000D03*
D12*
X117160000Y-92940000D03*
X122220000Y-95250000D03*
X122220000Y-92750000D03*
D11*
X71440000Y-55590000D03*
D12*
X73940000Y-55590000D03*
X46270000Y-94800000D03*
X43770000Y-94800000D03*
X46990000Y-77978000D03*
X44490000Y-77978000D03*
D11*
X84074000Y-55880000D03*
D12*
X84074000Y-53380000D03*
X89662000Y-67310000D03*
X89662000Y-64810000D03*
X110236000Y-78740000D03*
X105236000Y-78740000D03*
X125476000Y-82804000D03*
X130476000Y-82804000D03*
X114300000Y-81788000D03*
X116800000Y-81788000D03*
X133096000Y-120396000D03*
X130596000Y-120396000D03*
X103430000Y-52670000D03*
X103430000Y-50170000D03*
X99575000Y-42125000D03*
X99575000Y-47125000D03*
X106525000Y-50625000D03*
X111525000Y-50625000D03*
X108966000Y-133096000D03*
X108966000Y-130596000D03*
X115824000Y-50800000D03*
X120824000Y-50800000D03*
X68326000Y-109220000D03*
X70826000Y-109220000D03*
X75770000Y-105670000D03*
X78270000Y-105670000D03*
X75184000Y-74676000D03*
X72684000Y-74676000D03*
X122682000Y-103124000D03*
X117682000Y-103124000D03*
D18*
X55410000Y-58950000D03*
D19*
X63030000Y-58950000D03*
D11*
X73460000Y-119440000D03*
D17*
X65840000Y-119440000D03*
D20*
X77340000Y-49450000D03*
D21*
X74800000Y-49450000D03*
D18*
X128270000Y-90170000D03*
D19*
X135890000Y-90170000D03*
D18*
X128270000Y-93726000D03*
D19*
X135890000Y-93726000D03*
D18*
X128270000Y-97282000D03*
D19*
X135890000Y-97282000D03*
D18*
X128270000Y-86614000D03*
D19*
X135890000Y-86614000D03*
D11*
X106172000Y-136398000D03*
D17*
X98552000Y-136398000D03*
D11*
X98298000Y-132842000D03*
D17*
X105918000Y-132842000D03*
D13*
X61722000Y-65532000D03*
D14*
X56642000Y-65532000D03*
D22*
X50292000Y-53848000D03*
X44292000Y-53848000D03*
X47292000Y-58548000D03*
D23*
X44000000Y-44000000D03*
X44000000Y-136000000D03*
D24*
X96660000Y-126420000D03*
D25*
X94120000Y-126420000D03*
X91580000Y-126420000D03*
X89040000Y-126420000D03*
D23*
X136000000Y-136000000D03*
X136000000Y-44000000D03*
D13*
X134112000Y-114046000D03*
D14*
X134112000Y-108966000D03*
D13*
X87700000Y-45650000D03*
D14*
X92780000Y-45650000D03*
D12*
X95780000Y-118450000D03*
D17*
X85620000Y-118450000D03*
D12*
X95670000Y-122070000D03*
D17*
X85510000Y-122070000D03*
D12*
X94996000Y-81534000D03*
D17*
X84836000Y-81534000D03*
D12*
X92202000Y-51816000D03*
D17*
X92202000Y-61976000D03*
D12*
X110490000Y-73914000D03*
D17*
X100330000Y-73914000D03*
D12*
X99060000Y-61950000D03*
D17*
X99060000Y-51790000D03*
D12*
X105156000Y-44958000D03*
D17*
X115316000Y-44958000D03*
D12*
X119380000Y-44958000D03*
D17*
X129540000Y-44958000D03*
D12*
X77530000Y-113200000D03*
D17*
X67370000Y-113200000D03*
D26*
X92456000Y-74676000D03*
X94996000Y-74676000D03*
D27*
X89916000Y-74676000D03*
D26*
X107188000Y-82804000D03*
X104648000Y-82804000D03*
D27*
X109728000Y-82804000D03*
D26*
X117750000Y-56540000D03*
X120290000Y-56540000D03*
D27*
X115210000Y-56540000D03*
D26*
X84490000Y-104330000D03*
X81950000Y-104330000D03*
D27*
X87030000Y-104330000D03*
D15*
X75940000Y-116410000D03*
D16*
X68320000Y-116410000D03*
D15*
X83990000Y-129810000D03*
D16*
X76370000Y-129810000D03*
D15*
X54930000Y-127040000D03*
D16*
X62550000Y-127040000D03*
D15*
X64540000Y-49340000D03*
D16*
X72160000Y-49340000D03*
D15*
X108630000Y-127910000D03*
D16*
X108630000Y-120290000D03*
D15*
X49276000Y-123698000D03*
D16*
X41656000Y-123698000D03*
D15*
X77216000Y-84074000D03*
D16*
X69596000Y-84074000D03*
D15*
X125230000Y-91360000D03*
D16*
X125230000Y-98980000D03*
D15*
X96670000Y-101090000D03*
D16*
X96670000Y-108710000D03*
D15*
X78232000Y-73660000D03*
D16*
X85852000Y-73660000D03*
D15*
X49022000Y-91440000D03*
D16*
X41402000Y-91440000D03*
D15*
X49530000Y-74676000D03*
D16*
X41910000Y-74676000D03*
D15*
X99822000Y-108712000D03*
D16*
X99822000Y-101092000D03*
D15*
X105050000Y-87170000D03*
D16*
X112670000Y-87170000D03*
D15*
X104940000Y-90080000D03*
D16*
X112560000Y-90080000D03*
D15*
X129794000Y-80010000D03*
D16*
X122174000Y-80010000D03*
D15*
X111506000Y-123698000D03*
D16*
X119126000Y-123698000D03*
D15*
X119126000Y-121158000D03*
D16*
X111506000Y-121158000D03*
D15*
X103124000Y-56642000D03*
D16*
X110744000Y-56642000D03*
D15*
X120650000Y-77470000D03*
D16*
X113030000Y-77470000D03*
D15*
X98552000Y-70358000D03*
D16*
X90932000Y-70358000D03*
D15*
X124460000Y-106172000D03*
D16*
X116840000Y-106172000D03*
D15*
X114300000Y-110744000D03*
D16*
X114300000Y-103124000D03*
D15*
X108712000Y-136652000D03*
D16*
X116332000Y-136652000D03*
D15*
X121666000Y-123698000D03*
D16*
X129286000Y-123698000D03*
D15*
X106400000Y-114225000D03*
D16*
X114020000Y-114225000D03*
D15*
X98552000Y-129794000D03*
D16*
X106172000Y-129794000D03*
D15*
X54870000Y-129890000D03*
D16*
X62490000Y-129890000D03*
D15*
X76010000Y-77910000D03*
D16*
X68390000Y-77910000D03*
D15*
X68310000Y-80430000D03*
D16*
X75930000Y-80430000D03*
D15*
X114075000Y-117150000D03*
D16*
X106455000Y-117150000D03*
D15*
X48768000Y-107950000D03*
D16*
X41148000Y-107950000D03*
D15*
X86360000Y-76962000D03*
D16*
X78740000Y-76962000D03*
D28*
X75612000Y-43942000D03*
X80612000Y-43942000D03*
X70612000Y-43942000D03*
D29*
X82550000Y-119960000D03*
X82550000Y-124460000D03*
X76050000Y-119960000D03*
X76050000Y-124460000D03*
X42744000Y-114300000D03*
X47244000Y-114300000D03*
X42744000Y-120800000D03*
X47244000Y-120800000D03*
X43506000Y-81534000D03*
X48006000Y-81534000D03*
X43506000Y-88034000D03*
X48006000Y-88034000D03*
X43506000Y-65278000D03*
X48006000Y-65278000D03*
X43506000Y-71778000D03*
X48006000Y-71778000D03*
X42998000Y-98298000D03*
X47498000Y-98298000D03*
X42998000Y-104798000D03*
X47498000Y-104798000D03*
D20*
X54610000Y-44450000D03*
D30*
X57150000Y-44450000D03*
X59690000Y-44450000D03*
D31*
X68834000Y-94996000D03*
X68834000Y-90116000D03*
X118240000Y-87230000D03*
X123120000Y-87230000D03*
D11*
X62230000Y-115570000D03*
D17*
X54610000Y-82550000D03*
X62230000Y-113030000D03*
X54610000Y-85090000D03*
X62230000Y-110490000D03*
X54610000Y-87630000D03*
X62230000Y-107950000D03*
X54610000Y-90170000D03*
X62230000Y-105410000D03*
X54610000Y-92710000D03*
X62230000Y-102870000D03*
X54610000Y-95250000D03*
X62230000Y-100330000D03*
X54610000Y-97790000D03*
X62230000Y-97790000D03*
X54610000Y-100330000D03*
X62230000Y-95250000D03*
X54610000Y-102870000D03*
X62230000Y-92710000D03*
X54610000Y-105410000D03*
X62230000Y-90170000D03*
X54610000Y-107950000D03*
X62230000Y-87630000D03*
X54610000Y-110490000D03*
X62230000Y-85090000D03*
X54610000Y-113030000D03*
X62230000Y-82550000D03*
X54610000Y-115570000D03*
D24*
X83820000Y-93218000D03*
D25*
X81280000Y-93218000D03*
X83820000Y-90678000D03*
X81280000Y-90678000D03*
X83820000Y-88138000D03*
X81280000Y-88138000D03*
D12*
X80010000Y-65024000D03*
X80010000Y-62524000D03*
D11*
X68790000Y-61580000D03*
D17*
X76410000Y-69200000D03*
X68790000Y-64120000D03*
X76410000Y-66660000D03*
X68790000Y-66660000D03*
X76410000Y-64120000D03*
X68790000Y-69200000D03*
X76410000Y-61580000D03*
D12*
X98298000Y-67310000D03*
X93298000Y-67310000D03*
X99060000Y-83566000D03*
X101560000Y-83566000D03*
D20*
X104648000Y-107696000D03*
D21*
X104648000Y-110236000D03*
D28*
X124286000Y-135382000D03*
X119286000Y-135382000D03*
X129286000Y-135382000D03*
D15*
X101540000Y-118220000D03*
D16*
X101540000Y-110600000D03*
D15*
X111252000Y-110744000D03*
D16*
X111252000Y-103124000D03*
D15*
X115824000Y-126238000D03*
D16*
X115824000Y-133858000D03*
D12*
X132588000Y-61722000D03*
X135088000Y-61722000D03*
X137160000Y-80264000D03*
X134660000Y-80264000D03*
D11*
X126492000Y-75946000D03*
D17*
X126492000Y-68326000D03*
D11*
X130048000Y-68326000D03*
D17*
X130048000Y-75946000D03*
D20*
X137668000Y-74422000D03*
D21*
X137668000Y-71882000D03*
D24*
X124460000Y-50800000D03*
D25*
X124460000Y-53340000D03*
X124460000Y-55880000D03*
D15*
X123444000Y-68326000D03*
D16*
X123444000Y-75946000D03*
D15*
X133350000Y-75946000D03*
D16*
X133350000Y-68326000D03*
D15*
X138176000Y-69088000D03*
D16*
X138176000Y-61468000D03*
D24*
X128270000Y-55880000D03*
D25*
X128270000Y-53340000D03*
X128270000Y-50800000D03*
D15*
X131826000Y-65532000D03*
D16*
X124206000Y-65532000D03*
D12*
X108200000Y-102375000D03*
X103200000Y-102375000D03*
D26*
X116840000Y-71628000D03*
X119380000Y-71628000D03*
D27*
X114300000Y-71628000D03*
D26*
X117094000Y-66548000D03*
X119634000Y-66548000D03*
D27*
X114554000Y-66548000D03*
D26*
X117340000Y-61460000D03*
X119880000Y-61460000D03*
D27*
X114800000Y-61460000D03*
D15*
X110744000Y-59690000D03*
D16*
X103124000Y-59690000D03*
D15*
X110744000Y-68326000D03*
D16*
X103124000Y-68326000D03*
D15*
X110744000Y-65532000D03*
D16*
X103124000Y-65532000D03*
D15*
X110744000Y-62484000D03*
D16*
X103124000Y-62484000D03*
D12*
X98552000Y-98044000D03*
X93552000Y-98044000D03*
D11*
X92480000Y-108180000D03*
D12*
X92480000Y-105680000D03*
D15*
X54356000Y-121666000D03*
D16*
X61976000Y-121666000D03*
D15*
X54870000Y-124220000D03*
D16*
X62490000Y-124220000D03*
D28*
X69950000Y-130180000D03*
X67450000Y-125140000D03*
X72450000Y-125140000D03*
D24*
X50980000Y-136740000D03*
D25*
X53520000Y-136740000D03*
X56060000Y-136740000D03*
X58600000Y-136740000D03*
X61140000Y-136740000D03*
X63680000Y-136740000D03*
X66220000Y-136740000D03*
X68760000Y-136740000D03*
X71300000Y-136740000D03*
X73840000Y-136740000D03*
X76380000Y-136740000D03*
X78920000Y-136740000D03*
X81460000Y-136740000D03*
X84000000Y-136740000D03*
X86540000Y-136740000D03*
X89080000Y-136740000D03*
D12*
X42900000Y-130300000D03*
X45400000Y-130300000D03*
M02*
