G04 #@! TF.FileFunction,Soldermask,Bot*
%FSLAX46Y46*%
G04 Gerber Fmt 4.6, Leading zero omitted, Abs format (unit mm)*
G04 Created by KiCad (PCBNEW 4.0.7) date 10/10/21 00:05:05*
%MOMM*%
%LPD*%
G01*
G04 APERTURE LIST*
%ADD10C,0.100000*%
%ADD11C,2.000000*%
%ADD12O,2.000000X2.000000*%
%ADD13R,2.000000X2.000000*%
%ADD14R,3.400000X3.400000*%
%ADD15C,3.400000*%
%ADD16R,2.600000X2.600000*%
%ADD17O,2.600000X2.600000*%
%ADD18R,2.200000X2.200000*%
%ADD19C,2.200000*%
%ADD20R,3.900000X3.900000*%
%ADD21C,3.448000*%
%ADD22R,2.100000X2.100000*%
%ADD23O,2.100000X2.100000*%
%ADD24C,1.920000*%
%ADD25R,1.920000X1.920000*%
%ADD26C,2.900000*%
%ADD27C,2.400000*%
%ADD28O,2.200000X2.200000*%
%ADD29C,1.900000*%
G04 APERTURE END LIST*
D10*
D11*
X138684000Y-71628000D03*
D12*
X125984000Y-71628000D03*
D13*
X100838000Y-78740000D03*
D11*
X98338000Y-78740000D03*
D14*
X135636000Y-51816000D03*
D15*
X135636000Y-56896000D03*
D13*
X126492000Y-109982000D03*
D12*
X118872000Y-117602000D03*
X123952000Y-109982000D03*
X121412000Y-117602000D03*
X121412000Y-109982000D03*
X123952000Y-117602000D03*
X118872000Y-109982000D03*
X126492000Y-117602000D03*
D11*
X82804000Y-70612000D03*
X85304000Y-70612000D03*
X66040000Y-100838000D03*
X68540000Y-100838000D03*
X79502000Y-116586000D03*
X82002000Y-116586000D03*
D13*
X57150000Y-53340000D03*
D11*
X59650000Y-53340000D03*
X104430000Y-122190000D03*
X104430000Y-127190000D03*
X101270000Y-122190000D03*
X101270000Y-127190000D03*
D13*
X64770000Y-53340000D03*
D11*
X67270000Y-53340000D03*
X132830000Y-112150000D03*
X135330000Y-112150000D03*
X73406000Y-99568000D03*
X73406000Y-94568000D03*
X73406000Y-86360000D03*
X73406000Y-91360000D03*
X45820000Y-111820000D03*
X43320000Y-111820000D03*
X45880000Y-108460000D03*
X43380000Y-108460000D03*
D13*
X101346000Y-89916000D03*
D11*
X101346000Y-87416000D03*
X109300000Y-97570000D03*
X106800000Y-97570000D03*
D13*
X71440000Y-55590000D03*
D11*
X73940000Y-55590000D03*
X45720000Y-75930000D03*
X43220000Y-75930000D03*
X45570000Y-73000000D03*
X43070000Y-73000000D03*
D13*
X84074000Y-55880000D03*
D11*
X84074000Y-53380000D03*
X90678000Y-67310000D03*
X90678000Y-64810000D03*
X110236000Y-78740000D03*
X105236000Y-78740000D03*
X122270000Y-85940000D03*
X127270000Y-85940000D03*
X114300000Y-81788000D03*
X116800000Y-81788000D03*
X129286000Y-120904000D03*
X126786000Y-120904000D03*
X102300000Y-53125000D03*
X102300000Y-50625000D03*
X99575000Y-42125000D03*
X99575000Y-47125000D03*
X105350000Y-50300000D03*
X110350000Y-50300000D03*
X108966000Y-133096000D03*
X108966000Y-130596000D03*
X116425000Y-49975000D03*
X121425000Y-49975000D03*
X68326000Y-109220000D03*
X70826000Y-109220000D03*
X93472000Y-106934000D03*
X93472000Y-104434000D03*
X75890000Y-76920000D03*
X73390000Y-76920000D03*
X122682000Y-103124000D03*
X117682000Y-103124000D03*
D16*
X55410000Y-58950000D03*
D17*
X63030000Y-58950000D03*
D13*
X73460000Y-119440000D03*
D12*
X65840000Y-119440000D03*
D18*
X77340000Y-49450000D03*
D19*
X74800000Y-49450000D03*
D16*
X126960000Y-96900000D03*
D17*
X126960000Y-89280000D03*
D16*
X130590000Y-96950000D03*
D17*
X130590000Y-89330000D03*
D16*
X134220000Y-96900000D03*
D17*
X134220000Y-89280000D03*
D16*
X123270000Y-96900000D03*
D17*
X123270000Y-89280000D03*
D13*
X106172000Y-136398000D03*
D12*
X98552000Y-136398000D03*
D13*
X98298000Y-132842000D03*
D12*
X105918000Y-132842000D03*
D14*
X61722000Y-65532000D03*
D15*
X56642000Y-65532000D03*
D20*
X50292000Y-53848000D03*
X44292000Y-53848000D03*
X47292000Y-58548000D03*
D21*
X44000000Y-44000000D03*
X44000000Y-136000000D03*
D22*
X96660000Y-126420000D03*
D23*
X94120000Y-126420000D03*
X91580000Y-126420000D03*
X89040000Y-126420000D03*
D21*
X136000000Y-136000000D03*
X136000000Y-44000000D03*
D14*
X134366000Y-107442000D03*
D15*
X134366000Y-102362000D03*
D14*
X87700000Y-45650000D03*
D15*
X92780000Y-45650000D03*
D11*
X95780000Y-118450000D03*
D12*
X85620000Y-118450000D03*
D11*
X95670000Y-122070000D03*
D12*
X85510000Y-122070000D03*
D11*
X99822000Y-93472000D03*
D12*
X89662000Y-93472000D03*
D11*
X92202000Y-51816000D03*
D12*
X92202000Y-61976000D03*
D11*
X108712000Y-73914000D03*
D12*
X98552000Y-73914000D03*
D11*
X97750000Y-62000000D03*
D12*
X97750000Y-51840000D03*
D11*
X103675000Y-44950000D03*
D12*
X113835000Y-44950000D03*
D11*
X119380000Y-44958000D03*
D12*
X129540000Y-44958000D03*
D11*
X77530000Y-113200000D03*
D12*
X67370000Y-113200000D03*
D24*
X92456000Y-74676000D03*
X94996000Y-74676000D03*
D25*
X89916000Y-74676000D03*
D24*
X107188000Y-82804000D03*
X104648000Y-82804000D03*
D25*
X109728000Y-82804000D03*
D24*
X117750000Y-56540000D03*
X120290000Y-56540000D03*
D25*
X115210000Y-56540000D03*
D24*
X84490000Y-104330000D03*
X81950000Y-104330000D03*
D25*
X87030000Y-104330000D03*
D26*
X75612000Y-43942000D03*
X80612000Y-43942000D03*
X70612000Y-43942000D03*
D27*
X82550000Y-119960000D03*
X82550000Y-124460000D03*
X76050000Y-119960000D03*
X76050000Y-124460000D03*
X42630000Y-115100000D03*
X47130000Y-115100000D03*
X42630000Y-121600000D03*
X47130000Y-121600000D03*
X42740000Y-79060000D03*
X47240000Y-79060000D03*
X42740000Y-85560000D03*
X47240000Y-85560000D03*
X43280000Y-63310000D03*
X47780000Y-63310000D03*
X43280000Y-69810000D03*
X47780000Y-69810000D03*
X42780000Y-98720000D03*
X47280000Y-98720000D03*
X42780000Y-105220000D03*
X47280000Y-105220000D03*
D18*
X54610000Y-44450000D03*
D28*
X57150000Y-44450000D03*
X59690000Y-44450000D03*
D29*
X68834000Y-94996000D03*
X68834000Y-90116000D03*
X118240000Y-87230000D03*
X118240000Y-92110000D03*
D13*
X62230000Y-115570000D03*
D12*
X54610000Y-82550000D03*
X62230000Y-113030000D03*
X54610000Y-85090000D03*
X62230000Y-110490000D03*
X54610000Y-87630000D03*
X62230000Y-107950000D03*
X54610000Y-90170000D03*
X62230000Y-105410000D03*
X54610000Y-92710000D03*
X62230000Y-102870000D03*
X54610000Y-95250000D03*
X62230000Y-100330000D03*
X54610000Y-97790000D03*
X62230000Y-97790000D03*
X54610000Y-100330000D03*
X62230000Y-95250000D03*
X54610000Y-102870000D03*
X62230000Y-92710000D03*
X54610000Y-105410000D03*
X62230000Y-90170000D03*
X54610000Y-107950000D03*
X62230000Y-87630000D03*
X54610000Y-110490000D03*
X62230000Y-85090000D03*
X54610000Y-113030000D03*
X62230000Y-82550000D03*
X54610000Y-115570000D03*
D22*
X83820000Y-93218000D03*
D23*
X81280000Y-93218000D03*
X83820000Y-90678000D03*
X81280000Y-90678000D03*
X83820000Y-88138000D03*
X81280000Y-88138000D03*
D11*
X80010000Y-65024000D03*
X80010000Y-62524000D03*
D13*
X68790000Y-61580000D03*
D12*
X76410000Y-69200000D03*
X68790000Y-64120000D03*
X76410000Y-66660000D03*
X68790000Y-66660000D03*
X76410000Y-64120000D03*
X68790000Y-69200000D03*
X76410000Y-61580000D03*
D11*
X98298000Y-67310000D03*
X93298000Y-67310000D03*
X99060000Y-83566000D03*
X101560000Y-83566000D03*
D18*
X104648000Y-107696000D03*
D19*
X104648000Y-110236000D03*
D26*
X135220000Y-122350000D03*
X135220000Y-127350000D03*
X135220000Y-117350000D03*
D11*
X126746000Y-59436000D03*
X124246000Y-59436000D03*
X137414000Y-82804000D03*
X134914000Y-82804000D03*
D13*
X134366000Y-75184000D03*
D12*
X126746000Y-75184000D03*
D13*
X123444000Y-62484000D03*
D12*
X123444000Y-70104000D03*
D18*
X137414000Y-79756000D03*
D19*
X137414000Y-77216000D03*
D22*
X124460000Y-50800000D03*
D23*
X124460000Y-53340000D03*
X124460000Y-55880000D03*
D22*
X128270000Y-55880000D03*
D23*
X128270000Y-53340000D03*
X128270000Y-50800000D03*
D11*
X108200000Y-102375000D03*
X103200000Y-102375000D03*
D24*
X116840000Y-71628000D03*
X119380000Y-71628000D03*
D25*
X114300000Y-71628000D03*
D24*
X117260000Y-66450000D03*
X119800000Y-66450000D03*
D25*
X114720000Y-66450000D03*
D24*
X117340000Y-61460000D03*
X119880000Y-61460000D03*
D25*
X114800000Y-61460000D03*
D11*
X103632000Y-97536000D03*
X98632000Y-97536000D03*
D13*
X93218000Y-113030000D03*
D11*
X93218000Y-110530000D03*
D26*
X69950000Y-130180000D03*
X67450000Y-125140000D03*
X72450000Y-125140000D03*
D22*
X53480000Y-136460000D03*
D23*
X56020000Y-136460000D03*
X58560000Y-136460000D03*
X61100000Y-136460000D03*
X63640000Y-136460000D03*
X66180000Y-136460000D03*
X68720000Y-136460000D03*
X71260000Y-136460000D03*
X73800000Y-136460000D03*
X76340000Y-136460000D03*
X78880000Y-136460000D03*
X81420000Y-136460000D03*
X83960000Y-136460000D03*
X86500000Y-136460000D03*
X89040000Y-136460000D03*
X91580000Y-136460000D03*
D11*
X42900000Y-130300000D03*
X45400000Y-130300000D03*
D22*
X89590000Y-88370000D03*
D23*
X89590000Y-85830000D03*
D11*
X75940000Y-116410000D03*
D12*
X68320000Y-116410000D03*
D11*
X83990000Y-129810000D03*
D12*
X76370000Y-129810000D03*
D11*
X54930000Y-127040000D03*
D12*
X62550000Y-127040000D03*
D11*
X64540000Y-49340000D03*
D12*
X72160000Y-49340000D03*
D11*
X108712000Y-127508000D03*
D12*
X108712000Y-119888000D03*
D11*
X49260000Y-126760000D03*
D12*
X41640000Y-126760000D03*
D11*
X78740000Y-99314000D03*
D12*
X78740000Y-106934000D03*
D11*
X87630000Y-113000000D03*
D12*
X80010000Y-113000000D03*
D11*
X119920000Y-97450000D03*
D12*
X112300000Y-97450000D03*
D11*
X96670000Y-101090000D03*
D12*
X96670000Y-108710000D03*
D11*
X78232000Y-73660000D03*
D12*
X85852000Y-73660000D03*
D11*
X43240000Y-88390000D03*
D12*
X43240000Y-96010000D03*
D11*
X50830000Y-72470000D03*
D12*
X58450000Y-72470000D03*
D11*
X99822000Y-108712000D03*
D12*
X99822000Y-101092000D03*
D11*
X105890000Y-87560000D03*
D12*
X113510000Y-87560000D03*
D11*
X105890000Y-90920000D03*
D12*
X113510000Y-90920000D03*
D11*
X129032000Y-82550000D03*
D12*
X121412000Y-82550000D03*
D11*
X111506000Y-123698000D03*
D12*
X119126000Y-123698000D03*
D11*
X119126000Y-121158000D03*
D12*
X111506000Y-121158000D03*
D11*
X103124000Y-56642000D03*
D12*
X110744000Y-56642000D03*
D11*
X120650000Y-77470000D03*
D12*
X113030000Y-77470000D03*
D11*
X97536000Y-70358000D03*
D12*
X89916000Y-70358000D03*
D11*
X124460000Y-106172000D03*
D12*
X116840000Y-106172000D03*
D11*
X108712000Y-136652000D03*
D12*
X116332000Y-136652000D03*
D11*
X122174000Y-123952000D03*
D12*
X129794000Y-123952000D03*
D11*
X106400000Y-114225000D03*
D12*
X114020000Y-114225000D03*
D11*
X98552000Y-129794000D03*
D12*
X106172000Y-129794000D03*
D11*
X54870000Y-129890000D03*
D12*
X62490000Y-129890000D03*
D11*
X76454000Y-80264000D03*
D12*
X68834000Y-80264000D03*
D11*
X68834000Y-83566000D03*
D12*
X76454000Y-83566000D03*
D11*
X114075000Y-117150000D03*
D12*
X106455000Y-117150000D03*
D11*
X46410000Y-96050000D03*
D12*
X46410000Y-88430000D03*
D11*
X86530000Y-80200000D03*
D12*
X78910000Y-80200000D03*
D11*
X110744000Y-110744000D03*
D12*
X110744000Y-103124000D03*
D11*
X113380000Y-126570000D03*
D12*
X113380000Y-134190000D03*
D11*
X132588000Y-78486000D03*
D12*
X124968000Y-78486000D03*
D11*
X110744000Y-59690000D03*
D12*
X103124000Y-59690000D03*
D11*
X110744000Y-68326000D03*
D12*
X103124000Y-68326000D03*
D11*
X110744000Y-65532000D03*
D12*
X103124000Y-65532000D03*
D11*
X110744000Y-62484000D03*
D12*
X103124000Y-62484000D03*
D11*
X54356000Y-121666000D03*
D12*
X61976000Y-121666000D03*
D11*
X54870000Y-124220000D03*
D12*
X62490000Y-124220000D03*
D11*
X114046000Y-110744000D03*
D12*
X114046000Y-103124000D03*
D11*
X101540000Y-118220000D03*
D12*
X101540000Y-110600000D03*
D13*
X118110000Y-127000000D03*
D11*
X118110000Y-129500000D03*
X125984000Y-67564000D03*
D12*
X138684000Y-67564000D03*
D11*
X138684000Y-63246000D03*
D12*
X125984000Y-63246000D03*
D11*
X52070000Y-64770000D03*
X52070000Y-62270000D03*
D22*
X113375000Y-51575000D03*
D23*
X113375000Y-49035000D03*
M02*
