G04 #@! TF.FileFunction,Copper,L2,Bot,Signal*
%FSLAX46Y46*%
G04 Gerber Fmt 4.6, Leading zero omitted, Abs format (unit mm)*
G04 Created by KiCad (PCBNEW 4.0.7) date 01/28/23 10:43:27*
%MOMM*%
%LPD*%
G01*
G04 APERTURE LIST*
%ADD10C,0.100000*%
%ADD11C,1.600000*%
%ADD12O,2.000000X1.000000*%
%ADD13O,1.000000X2.000000*%
%ADD14O,2.000000X1.500000*%
%ADD15O,1.500000X2.000000*%
%ADD16O,1.600000X1.600000*%
%ADD17C,2.000000*%
%ADD18C,5.000000*%
%ADD19R,1.700000X1.700000*%
%ADD20O,1.700000X1.700000*%
%ADD21R,1.600000X1.600000*%
%ADD22R,3.000000X3.000000*%
%ADD23C,3.000000*%
%ADD24C,0.350000*%
%ADD25C,0.500000*%
%ADD26C,0.250000*%
G04 APERTURE END LIST*
D10*
D11*
X109610000Y-76610000D03*
X109610000Y-81610000D03*
D12*
X98500000Y-142850000D03*
D13*
X103300000Y-138450000D03*
X93300000Y-134950000D03*
D14*
X102800000Y-131550000D03*
D15*
X95900000Y-135950000D03*
D11*
X48930000Y-134170000D03*
D16*
X48930000Y-126550000D03*
D11*
X58680000Y-134170000D03*
D16*
X58680000Y-126550000D03*
D11*
X86000000Y-126850000D03*
X86000000Y-124350000D03*
X70100000Y-129980000D03*
X70100000Y-127480000D03*
X70140000Y-135620000D03*
X70140000Y-133120000D03*
X85970000Y-130260000D03*
X85970000Y-132760000D03*
D17*
X74330000Y-130270000D03*
X74330000Y-125770000D03*
X80830000Y-130270000D03*
X80830000Y-125770000D03*
X64540000Y-143360000D03*
X64540000Y-138860000D03*
X71040000Y-143360000D03*
X71040000Y-138860000D03*
X84090000Y-143220000D03*
X84090000Y-138720000D03*
X90590000Y-143220000D03*
X90590000Y-138720000D03*
X74300000Y-138270000D03*
X74300000Y-133770000D03*
X80800000Y-138270000D03*
X80800000Y-133770000D03*
D11*
X45640000Y-134150000D03*
D16*
X45640000Y-126530000D03*
D11*
X65210000Y-134190000D03*
D16*
X65210000Y-126570000D03*
D11*
X42330000Y-134130000D03*
D16*
X42330000Y-126510000D03*
D11*
X52220000Y-134190000D03*
D16*
X52220000Y-126570000D03*
D11*
X61940000Y-134190000D03*
D16*
X61940000Y-126570000D03*
D11*
X55470000Y-134170000D03*
D16*
X55470000Y-126550000D03*
D18*
X45500000Y-60500000D03*
X45500000Y-140500000D03*
X128500000Y-60500000D03*
X128500000Y-140500000D03*
D19*
X66500000Y-76500000D03*
D20*
X69040000Y-76500000D03*
X71580000Y-76500000D03*
X74120000Y-76500000D03*
D19*
X42750000Y-66000000D03*
D20*
X45290000Y-66000000D03*
X47830000Y-66000000D03*
X50370000Y-66000000D03*
X52910000Y-66000000D03*
X55450000Y-66000000D03*
X57990000Y-66000000D03*
X60530000Y-66000000D03*
X63070000Y-66000000D03*
X65610000Y-66000000D03*
X68150000Y-66000000D03*
X70690000Y-66000000D03*
X73230000Y-66000000D03*
X75770000Y-66000000D03*
X78310000Y-66000000D03*
X80850000Y-66000000D03*
D11*
X106510000Y-139200000D03*
X106510000Y-141700000D03*
D12*
X119140000Y-58810000D03*
D13*
X114340000Y-63210000D03*
X124340000Y-66710000D03*
D14*
X114840000Y-70110000D03*
D15*
X121740000Y-65710000D03*
D12*
X101340000Y-58780000D03*
D13*
X96540000Y-63180000D03*
X106540000Y-66680000D03*
D14*
X97040000Y-70080000D03*
D15*
X103940000Y-65680000D03*
D19*
X88860000Y-75960000D03*
D20*
X88860000Y-78500000D03*
X88860000Y-81040000D03*
D19*
X83130000Y-75970000D03*
D20*
X83130000Y-78510000D03*
X83130000Y-81050000D03*
D11*
X113550000Y-80860000D03*
D16*
X123710000Y-80860000D03*
D11*
X113600000Y-77390000D03*
D16*
X123760000Y-77390000D03*
D11*
X90410000Y-89800000D03*
D16*
X98030000Y-89800000D03*
D11*
X90250000Y-86610000D03*
D16*
X97870000Y-86610000D03*
D11*
X87450000Y-93770000D03*
D16*
X87450000Y-86150000D03*
D11*
X94110000Y-104780000D03*
D16*
X94110000Y-97160000D03*
D11*
X77370000Y-85360000D03*
D16*
X69750000Y-85360000D03*
D11*
X69700000Y-81880000D03*
D16*
X77320000Y-81880000D03*
D11*
X123890000Y-74040000D03*
X118890000Y-74040000D03*
X106600000Y-129580000D03*
X106600000Y-134580000D03*
D21*
X90810000Y-111090000D03*
D11*
X88310000Y-111090000D03*
D21*
X82410000Y-111020000D03*
D11*
X84910000Y-111020000D03*
X81560000Y-97430000D03*
X84060000Y-97430000D03*
X83990000Y-104720000D03*
X83990000Y-102220000D03*
X73300000Y-108320000D03*
X78300000Y-108320000D03*
X71860000Y-93880000D03*
X76860000Y-93880000D03*
D12*
X116050000Y-142970000D03*
D13*
X120850000Y-138570000D03*
X110850000Y-135070000D03*
D14*
X120350000Y-131670000D03*
D15*
X113450000Y-136070000D03*
D19*
X64120000Y-111790000D03*
D20*
X66660000Y-111790000D03*
D19*
X65320000Y-93650000D03*
D20*
X67860000Y-93650000D03*
D11*
X101700000Y-115730000D03*
D16*
X91540000Y-115730000D03*
D11*
X69840000Y-114720000D03*
D16*
X77460000Y-114720000D03*
D11*
X67360000Y-108360000D03*
D16*
X59740000Y-108360000D03*
D11*
X87550000Y-97190000D03*
D16*
X87550000Y-104810000D03*
D11*
X90830000Y-104780000D03*
D16*
X90830000Y-97160000D03*
D11*
X78450000Y-111670000D03*
D16*
X70830000Y-111670000D03*
D11*
X62250000Y-97120000D03*
D16*
X62250000Y-104740000D03*
D11*
X58980000Y-97040000D03*
D16*
X58980000Y-104660000D03*
D11*
X65620000Y-97030000D03*
D16*
X65620000Y-104650000D03*
D11*
X77730000Y-90410000D03*
D16*
X70110000Y-90410000D03*
D11*
X83930000Y-93800000D03*
D16*
X83930000Y-86180000D03*
D11*
X80620000Y-86180000D03*
D16*
X80620000Y-93800000D03*
D21*
X77730000Y-104940000D03*
D16*
X70110000Y-97320000D03*
X75190000Y-104940000D03*
X72650000Y-97320000D03*
X72650000Y-104940000D03*
X75190000Y-97320000D03*
X70110000Y-104940000D03*
X77730000Y-97320000D03*
D22*
X128020000Y-128930000D03*
D23*
X128020000Y-134010000D03*
D11*
X101690000Y-121420000D03*
D16*
X91530000Y-121420000D03*
D11*
X101650000Y-124850000D03*
D16*
X94030000Y-124850000D03*
D19*
X46500000Y-72500000D03*
D20*
X46500000Y-75040000D03*
X46500000Y-77580000D03*
X46500000Y-80120000D03*
X46500000Y-82660000D03*
X46500000Y-85200000D03*
X46500000Y-87740000D03*
X46500000Y-90280000D03*
X46500000Y-92820000D03*
X46500000Y-95360000D03*
X46500000Y-97900000D03*
X46500000Y-100440000D03*
X46500000Y-102980000D03*
X46500000Y-105520000D03*
X46500000Y-108060000D03*
X46500000Y-110600000D03*
X46500000Y-113140000D03*
X46500000Y-115680000D03*
X46500000Y-118220000D03*
X46500000Y-120760000D03*
D11*
X97450000Y-97230000D03*
X99950000Y-97230000D03*
X36080000Y-137690000D03*
X38580000Y-137690000D03*
X35760000Y-134110000D03*
D16*
X35760000Y-126490000D03*
D11*
X39040000Y-134110000D03*
D16*
X39040000Y-126490000D03*
D17*
X53370000Y-143140000D03*
X53370000Y-138640000D03*
X59870000Y-143140000D03*
X59870000Y-138640000D03*
D19*
X49040000Y-72500000D03*
D20*
X49040000Y-75040000D03*
X49040000Y-77580000D03*
X49040000Y-80120000D03*
X49040000Y-82660000D03*
X49040000Y-85200000D03*
X49040000Y-87740000D03*
X49040000Y-90280000D03*
X49040000Y-92820000D03*
X49040000Y-95360000D03*
X49040000Y-97900000D03*
X49040000Y-100440000D03*
X49040000Y-102980000D03*
X49040000Y-105520000D03*
X49040000Y-108060000D03*
X49040000Y-110600000D03*
X49040000Y-113140000D03*
X49040000Y-115680000D03*
X49040000Y-118220000D03*
X49040000Y-120760000D03*
D24*
X39040000Y-126490000D02*
X39040000Y-128020000D01*
X39040000Y-128020000D02*
X38260000Y-128800000D01*
D25*
X45400000Y-128800000D02*
X38260000Y-128800000D01*
X38260000Y-128800000D02*
X34310000Y-128800000D01*
X37460000Y-123790000D02*
X40480000Y-122710000D01*
X34230000Y-124870000D02*
X37460000Y-123790000D01*
X33420000Y-125680000D02*
X34230000Y-124870000D01*
X33420000Y-127910000D02*
X33420000Y-125680000D01*
X34310000Y-128800000D02*
X33420000Y-127910000D01*
D24*
X46500000Y-75040000D02*
X45590000Y-75040000D01*
X45290000Y-67970000D02*
X45290000Y-66000000D01*
X44360000Y-68900000D02*
X45290000Y-67970000D01*
X44360000Y-73810000D02*
X44360000Y-68900000D01*
X45590000Y-75040000D02*
X44360000Y-73810000D01*
D25*
X97450000Y-97230000D02*
X94180000Y-97230000D01*
X94180000Y-97230000D02*
X94110000Y-97160000D01*
X65210000Y-126570000D02*
X65210000Y-125790000D01*
X65210000Y-125790000D02*
X68620000Y-122380000D01*
X97120000Y-100170000D02*
X94110000Y-97160000D01*
X97120000Y-126460000D02*
X97120000Y-100170000D01*
X95780000Y-127800000D02*
X97120000Y-126460000D01*
X91750000Y-127800000D02*
X95780000Y-127800000D01*
X86330000Y-122380000D02*
X91750000Y-127800000D01*
X68620000Y-122380000D02*
X86330000Y-122380000D01*
D24*
X94110000Y-97160000D02*
X94110000Y-97390000D01*
X94110000Y-97390000D02*
X92480000Y-99020000D01*
X92480000Y-99020000D02*
X89380000Y-99020000D01*
X89380000Y-99020000D02*
X87550000Y-97190000D01*
X87550000Y-97190000D02*
X87550000Y-93870000D01*
X87550000Y-93870000D02*
X87450000Y-93770000D01*
X45640000Y-126530000D02*
X45640000Y-127980000D01*
X45640000Y-127980000D02*
X44820000Y-128800000D01*
X52220000Y-126570000D02*
X52220000Y-127680000D01*
X52220000Y-127680000D02*
X51100000Y-128800000D01*
X58680000Y-126550000D02*
X58680000Y-127370000D01*
X58680000Y-127370000D02*
X57250000Y-128800000D01*
D25*
X65210000Y-126570000D02*
X65210000Y-127400000D01*
X40480000Y-82620000D02*
X46500000Y-75040000D01*
X40480000Y-122710000D02*
X40480000Y-82620000D01*
X63810000Y-128800000D02*
X59740000Y-128800000D01*
X59740000Y-128800000D02*
X57250000Y-128800000D01*
X57250000Y-128800000D02*
X51100000Y-128800000D01*
X51100000Y-128800000D02*
X45400000Y-128800000D01*
X45400000Y-128800000D02*
X44820000Y-128800000D01*
X65210000Y-127400000D02*
X63810000Y-128800000D01*
D24*
X46100000Y-74930000D02*
X46990000Y-74930000D01*
X46320000Y-74930000D02*
X46990000Y-74930000D01*
X46210000Y-74930000D02*
X46990000Y-74930000D01*
D25*
X47040000Y-74880000D02*
X46990000Y-74930000D01*
D24*
X87550000Y-97190000D02*
X87550000Y-96660000D01*
X87550000Y-96660000D02*
X86560000Y-95670000D01*
X81560000Y-97430000D02*
X77840000Y-97430000D01*
X77840000Y-97430000D02*
X77730000Y-97320000D01*
X83320000Y-95670000D02*
X81560000Y-97430000D01*
X86560000Y-95670000D02*
X83320000Y-95670000D01*
D25*
X106510000Y-141700000D02*
X124320000Y-141700000D01*
X125200000Y-136830000D02*
X128020000Y-134010000D01*
X125200000Y-140820000D02*
X125200000Y-136830000D01*
X124320000Y-141700000D02*
X125200000Y-140820000D01*
X98500000Y-142850000D02*
X105360000Y-142850000D01*
X105360000Y-142850000D02*
X106510000Y-141700000D01*
X98500000Y-142850000D02*
X97970000Y-142850000D01*
D24*
X74300000Y-133770000D02*
X74300000Y-133730000D01*
X74300000Y-133730000D02*
X72450000Y-131880000D01*
X71240000Y-127480000D02*
X70100000Y-127480000D01*
X72450000Y-128690000D02*
X71240000Y-127480000D01*
X72450000Y-131880000D02*
X72450000Y-128690000D01*
X52220000Y-134190000D02*
X52220000Y-132070000D01*
X68190000Y-127480000D02*
X70100000Y-127480000D01*
X67560000Y-128110000D02*
X68190000Y-127480000D01*
X67560000Y-129250000D02*
X67560000Y-128110000D01*
X65990000Y-130820000D02*
X67560000Y-129250000D01*
X53470000Y-130820000D02*
X65990000Y-130820000D01*
X52220000Y-132070000D02*
X53470000Y-130820000D01*
X52220000Y-134190000D02*
X48950000Y-134190000D01*
X48950000Y-134190000D02*
X48930000Y-134170000D01*
D26*
X69700000Y-127880000D02*
X70100000Y-127480000D01*
X48950000Y-134190000D02*
X48930000Y-134170000D01*
D24*
X70100000Y-127480000D02*
X70420000Y-127480000D01*
X74300000Y-133430000D02*
X74300000Y-133770000D01*
X70100000Y-127480000D02*
X70100000Y-126900000D01*
X80800000Y-133770000D02*
X74300000Y-133770000D01*
X62980000Y-129890000D02*
X65500000Y-129890000D01*
X67710000Y-125770000D02*
X74330000Y-125770000D01*
X66800000Y-126680000D02*
X67710000Y-125770000D01*
X66800000Y-128590000D02*
X66800000Y-126680000D01*
X65500000Y-129890000D02*
X66800000Y-128590000D01*
X45640000Y-134150000D02*
X45640000Y-133450000D01*
X45640000Y-133450000D02*
X49200000Y-129890000D01*
X49200000Y-129890000D02*
X62980000Y-129890000D01*
X45640000Y-134150000D02*
X42350000Y-134150000D01*
X42350000Y-134150000D02*
X42330000Y-134130000D01*
D26*
X42350000Y-134150000D02*
X42330000Y-134130000D01*
D24*
X86000000Y-124350000D02*
X82250000Y-124350000D01*
X82250000Y-124350000D02*
X80830000Y-125770000D01*
X80830000Y-125770000D02*
X74330000Y-125770000D01*
X75160000Y-135860000D02*
X73240000Y-135860000D01*
X65210000Y-135590000D02*
X65210000Y-134190000D01*
X66500000Y-137070000D02*
X65210000Y-135590000D01*
X72220000Y-137070000D02*
X66500000Y-137070000D01*
X73240000Y-135860000D02*
X72220000Y-137070000D01*
X84090000Y-138720000D02*
X84090000Y-137690000D01*
X82260000Y-135860000D02*
X75160000Y-135860000D01*
X84090000Y-137690000D02*
X82260000Y-135860000D01*
X65210000Y-134190000D02*
X61940000Y-134190000D01*
D26*
X84090000Y-138720000D02*
X84090000Y-138210000D01*
D24*
X85970000Y-132760000D02*
X85890000Y-136920000D01*
X85890000Y-136920000D02*
X84090000Y-138720000D01*
X84090000Y-138720000D02*
X84090000Y-138710000D01*
X90590000Y-138720000D02*
X84090000Y-138720000D01*
X85970000Y-132760000D02*
X85970000Y-132920000D01*
X46990000Y-100580000D02*
X46990000Y-100330000D01*
X46500000Y-100440000D02*
X46680000Y-100440000D01*
X46680000Y-100440000D02*
X47960000Y-99160000D01*
X70690000Y-67060000D02*
X70690000Y-66000000D01*
X69910000Y-67840000D02*
X70690000Y-67060000D01*
X67590000Y-67840000D02*
X69910000Y-67840000D01*
X66590000Y-68840000D02*
X67590000Y-67840000D01*
X55330000Y-68840000D02*
X66590000Y-68840000D01*
X54120000Y-70050000D02*
X55330000Y-68840000D01*
X54120000Y-79920000D02*
X54120000Y-70050000D01*
X52670000Y-81370000D02*
X54120000Y-79920000D01*
X52670000Y-96540000D02*
X52670000Y-81370000D01*
X50050000Y-99160000D02*
X52670000Y-96540000D01*
X47960000Y-99160000D02*
X50050000Y-99160000D01*
X47650000Y-124890000D02*
X44770000Y-124890000D01*
X44950000Y-100440000D02*
X46500000Y-100440000D01*
X42820000Y-102910000D02*
X44950000Y-100440000D01*
X42820000Y-122600000D02*
X42820000Y-102910000D01*
X44770000Y-124890000D02*
X42820000Y-122600000D01*
X48930000Y-126550000D02*
X48930000Y-126170000D01*
X48930000Y-126170000D02*
X47650000Y-124890000D01*
D26*
X48930000Y-126550000D02*
X48930000Y-126510000D01*
D24*
X46500000Y-97900000D02*
X46610000Y-97900000D01*
X46610000Y-97900000D02*
X47900000Y-96610000D01*
X66030000Y-68120000D02*
X68150000Y-66000000D01*
X55020000Y-68120000D02*
X66030000Y-68120000D01*
X53540000Y-69600000D02*
X55020000Y-68120000D01*
X53540000Y-79480000D02*
X53540000Y-69600000D01*
X52060002Y-80959998D02*
X53540000Y-79480000D01*
X52060002Y-95219998D02*
X52060002Y-80959998D01*
X50670000Y-96610000D02*
X52060002Y-95219998D01*
X47900000Y-96610000D02*
X50670000Y-96610000D01*
X42330000Y-126510000D02*
X42330000Y-124690000D01*
X42100000Y-102490000D02*
X46050000Y-97900000D01*
X42100000Y-123820000D02*
X42100000Y-102490000D01*
X42330000Y-124690000D02*
X42100000Y-123820000D01*
X46050000Y-97900000D02*
X46500000Y-97900000D01*
X42060000Y-126510000D02*
X42330000Y-126510000D01*
D26*
X42330000Y-126510000D02*
X41630000Y-126510000D01*
D24*
X45780000Y-97900000D02*
X46500000Y-97900000D01*
X46500000Y-105520000D02*
X46710000Y-105520000D01*
X46710000Y-105520000D02*
X47990000Y-104240000D01*
X73930000Y-67840000D02*
X75770000Y-66000000D01*
X72650000Y-67840000D02*
X73930000Y-67840000D01*
X71220000Y-69270000D02*
X72650000Y-67840000D01*
X68240000Y-69270000D02*
X71220000Y-69270000D01*
X67410000Y-70100000D02*
X68240000Y-69270000D01*
X56270000Y-70100000D02*
X67410000Y-70100000D01*
X55230002Y-71139998D02*
X56270000Y-70100000D01*
X55230002Y-80629998D02*
X55230002Y-71139998D01*
X53810002Y-82049998D02*
X55230002Y-80629998D01*
X53810002Y-100759998D02*
X53810002Y-82049998D01*
X50330000Y-104240000D02*
X53810002Y-100759998D01*
X47990000Y-104240000D02*
X50330000Y-104240000D01*
X49490000Y-123270000D02*
X45730000Y-123270000D01*
X44230000Y-107070000D02*
X45780000Y-105520000D01*
X44230000Y-121770000D02*
X44230000Y-107070000D01*
X45730000Y-123270000D02*
X44230000Y-121770000D01*
X45780000Y-105520000D02*
X46500000Y-105520000D01*
X61940000Y-126570000D02*
X61860000Y-126570000D01*
X61860000Y-126570000D02*
X58560000Y-123270000D01*
X58560000Y-123270000D02*
X49490000Y-123270000D01*
D26*
X61940000Y-126570000D02*
X61390000Y-126570000D01*
X46480000Y-105500000D02*
X46500000Y-105520000D01*
D24*
X46030000Y-105520000D02*
X46500000Y-105520000D01*
X47150000Y-102870000D02*
X46990000Y-102870000D01*
X46500000Y-102980000D02*
X46670000Y-102980000D01*
X46670000Y-102980000D02*
X47960000Y-101690000D01*
X70640000Y-68590000D02*
X73230000Y-66000000D01*
X67950000Y-68590000D02*
X70640000Y-68590000D01*
X67050000Y-69490000D02*
X67950000Y-68590000D01*
X55930000Y-69490000D02*
X67050000Y-69490000D01*
X54680000Y-70740000D02*
X55930000Y-69490000D01*
X54680000Y-80210000D02*
X54680000Y-70740000D01*
X53260000Y-81630000D02*
X54680000Y-80210000D01*
X53260000Y-99410000D02*
X53260000Y-81630000D01*
X50980000Y-101690000D02*
X53260000Y-99410000D01*
X47960000Y-101690000D02*
X50980000Y-101690000D01*
X51470000Y-124220000D02*
X45540000Y-124220000D01*
X43560000Y-105390000D02*
X45770000Y-102980000D01*
X43560000Y-122040000D02*
X43560000Y-105390000D01*
X45540000Y-124220000D02*
X43560000Y-122040000D01*
X45770000Y-102980000D02*
X46500000Y-102980000D01*
X55470000Y-126550000D02*
X55470000Y-125770000D01*
X55470000Y-125770000D02*
X53920000Y-124220000D01*
X53920000Y-124220000D02*
X51470000Y-124220000D01*
D26*
X55470000Y-126550000D02*
X55270000Y-126550000D01*
D24*
X64540000Y-138860000D02*
X64540000Y-137020000D01*
X60170000Y-135660000D02*
X58680000Y-134170000D01*
X63180000Y-135660000D02*
X60170000Y-135660000D01*
X64540000Y-137020000D02*
X63180000Y-135660000D01*
X70140000Y-133120000D02*
X68500000Y-133120000D01*
X68500000Y-133120000D02*
X67790000Y-132410000D01*
X67790000Y-132410000D02*
X60440000Y-132410000D01*
X60440000Y-132410000D02*
X58680000Y-134170000D01*
X58680000Y-134170000D02*
X55470000Y-134170000D01*
X64540000Y-138860000D02*
X71040000Y-138860000D01*
X46500000Y-80120000D02*
X46500000Y-79590000D01*
X46500000Y-79590000D02*
X47250000Y-78840000D01*
X50370000Y-69160000D02*
X50370000Y-66000000D01*
X51610000Y-70400000D02*
X50370000Y-69160000D01*
X51610000Y-77530000D02*
X51610000Y-70400000D01*
X50300000Y-78840000D02*
X51610000Y-77530000D01*
X47250000Y-78840000D02*
X50300000Y-78840000D01*
X41380000Y-122550000D02*
X41360000Y-123460000D01*
X37700000Y-124550000D02*
X35760000Y-126490000D01*
X40580000Y-124540000D02*
X37700000Y-124550000D01*
X41360000Y-123460000D02*
X40580000Y-124540000D01*
X35760000Y-126490000D02*
X35760000Y-126230000D01*
X41380000Y-122550000D02*
X41380000Y-101460000D01*
X41380000Y-101460000D02*
X43730000Y-98040000D01*
X43730000Y-98040000D02*
X43730000Y-82080000D01*
X43730000Y-82080000D02*
X45690000Y-80120000D01*
X45690000Y-80120000D02*
X46500000Y-80120000D01*
X46500000Y-85200000D02*
X46920000Y-85200000D01*
X46920000Y-85200000D02*
X48190000Y-83930000D01*
X48190000Y-83930000D02*
X50780000Y-83930000D01*
X50780000Y-83930000D02*
X51510000Y-83200000D01*
X51510000Y-83200000D02*
X51510000Y-80120000D01*
X51510000Y-80120000D02*
X52880000Y-78750000D01*
X52880000Y-78750000D02*
X52880000Y-68570000D01*
X52880000Y-68570000D02*
X55450000Y-66000000D01*
X50150000Y-69910000D02*
X48730000Y-69910000D01*
X48730000Y-69910000D02*
X47830000Y-69010000D01*
X46240000Y-77470000D02*
X46990000Y-77470000D01*
X46300000Y-77470000D02*
X46990000Y-77470000D01*
X46500000Y-77580000D02*
X46500000Y-77540000D01*
X46500000Y-77540000D02*
X47730000Y-76310000D01*
X47730000Y-76310000D02*
X50150000Y-76310000D01*
X50150000Y-76310000D02*
X51020000Y-75440000D01*
X51020000Y-75440000D02*
X51020000Y-70780000D01*
X51020000Y-70780000D02*
X50150000Y-69910000D01*
X47830000Y-69010000D02*
X47830000Y-66000000D01*
X46500000Y-82660000D02*
X46500000Y-82550000D01*
X46500000Y-82550000D02*
X47670000Y-81380000D01*
X52230000Y-66680000D02*
X52910000Y-66000000D01*
X52230000Y-78200000D02*
X52230000Y-66680000D01*
X50850000Y-79580000D02*
X52230000Y-78200000D01*
X50850000Y-80590000D02*
X50850000Y-79580000D01*
X50060000Y-81380000D02*
X50850000Y-80590000D01*
X47670000Y-81380000D02*
X50060000Y-81380000D01*
X46500000Y-82660000D02*
X47100000Y-82660000D01*
X46990000Y-107950000D02*
X46220000Y-107950000D01*
X46990000Y-107950000D02*
X46320000Y-107950000D01*
X46500000Y-108060000D02*
X46500000Y-107770000D01*
X46500000Y-107770000D02*
X47480000Y-106790000D01*
X47480000Y-106790000D02*
X50710000Y-106790000D01*
X50710000Y-106790000D02*
X54440000Y-103060000D01*
X54440000Y-103060000D02*
X54440000Y-82350000D01*
X54440000Y-82350000D02*
X55780004Y-81009996D01*
X55780004Y-81009996D02*
X55780004Y-71589996D01*
X55780004Y-71589996D02*
X56650000Y-70720000D01*
X56650000Y-70720000D02*
X67780000Y-70720000D01*
X67780000Y-70720000D02*
X68570000Y-69930000D01*
X68570000Y-69930000D02*
X71510000Y-69930000D01*
X71510000Y-69930000D02*
X73010000Y-68430000D01*
X73010000Y-68430000D02*
X74770000Y-68430000D01*
X74770000Y-68430000D02*
X75660000Y-67540000D01*
X75660000Y-67540000D02*
X76770000Y-67540000D01*
X76770000Y-67540000D02*
X78310000Y-66000000D01*
X46500000Y-110600000D02*
X46500000Y-110440000D01*
X46500000Y-110440000D02*
X47630000Y-109310000D01*
X47630000Y-109310000D02*
X50170000Y-109310000D01*
X50170000Y-109310000D02*
X54990002Y-104489998D01*
X54990002Y-104489998D02*
X54990002Y-82679998D01*
X54990002Y-82679998D02*
X56360000Y-81310000D01*
X56360000Y-81310000D02*
X56360000Y-72050000D01*
X56360000Y-72050000D02*
X57139998Y-71270002D01*
X57139998Y-71270002D02*
X68229998Y-71270002D01*
X68229998Y-71270002D02*
X68970000Y-70530000D01*
X68970000Y-70530000D02*
X71687820Y-70530000D01*
X71687820Y-70530000D02*
X73147820Y-69070000D01*
X73147820Y-69070000D02*
X75060000Y-69070000D01*
X75060000Y-69070000D02*
X75730000Y-68400000D01*
X75730000Y-68400000D02*
X78450000Y-68400000D01*
X78450000Y-68400000D02*
X80850000Y-66000000D01*
X66500000Y-76500000D02*
X66500000Y-75850000D01*
X66500000Y-75850000D02*
X69120000Y-73230000D01*
X69120000Y-73230000D02*
X91170000Y-73230000D01*
X91170000Y-73230000D02*
X94370000Y-70030000D01*
X94370000Y-70030000D02*
X94370000Y-60730000D01*
X94370000Y-60730000D02*
X96320000Y-58780000D01*
X96320000Y-58780000D02*
X101340000Y-58780000D01*
X69040000Y-76500000D02*
X69040000Y-78710000D01*
X67340000Y-82950000D02*
X69750000Y-85360000D01*
X67340000Y-80410000D02*
X67340000Y-82950000D01*
X69040000Y-78710000D02*
X67340000Y-80410000D01*
X71580000Y-76500000D02*
X71580000Y-80000000D01*
X71580000Y-80000000D02*
X69700000Y-81880000D01*
D25*
X101650000Y-124850000D02*
X101650000Y-125270000D01*
X101650000Y-125270000D02*
X100090000Y-126830000D01*
X100090000Y-135240000D02*
X103300000Y-138450000D01*
X100090000Y-126830000D02*
X100090000Y-135240000D01*
X101690000Y-121420000D02*
X101690000Y-124810000D01*
X101690000Y-124810000D02*
X101650000Y-124850000D01*
X93300000Y-134950000D02*
X93300000Y-137680000D01*
X102490000Y-139260000D02*
X103300000Y-138450000D01*
X94880000Y-139260000D02*
X102490000Y-139260000D01*
X93300000Y-137680000D02*
X94880000Y-139260000D01*
X103300000Y-138450000D02*
X105760000Y-138450000D01*
X105760000Y-138450000D02*
X106510000Y-139200000D01*
D24*
X124340000Y-66710000D02*
X124340000Y-69050000D01*
X124340000Y-69050000D02*
X119350000Y-74040000D01*
X119350000Y-74040000D02*
X118890000Y-74040000D01*
X118890000Y-74040000D02*
X116950000Y-74040000D01*
X116950000Y-74040000D02*
X113600000Y-77390000D01*
X114340000Y-63210000D02*
X114340000Y-63820000D01*
X114340000Y-63820000D02*
X117160000Y-66640000D01*
X117160000Y-66640000D02*
X117160000Y-71430000D01*
X117160000Y-71430000D02*
X114370000Y-74220000D01*
X114370000Y-74220000D02*
X113000000Y-74220000D01*
X113000000Y-74220000D02*
X111330000Y-75890000D01*
X111330000Y-75890000D02*
X111330000Y-78640000D01*
X111330000Y-78640000D02*
X113550000Y-80860000D01*
X113550000Y-80860000D02*
X110360000Y-80860000D01*
X110360000Y-80860000D02*
X109610000Y-81610000D01*
X96540000Y-63180000D02*
X97660000Y-63180000D01*
X96560000Y-75960000D02*
X88860000Y-75960000D01*
X99020000Y-73500000D02*
X96560000Y-75960000D01*
X99020000Y-64540000D02*
X99020000Y-73500000D01*
X97660000Y-63180000D02*
X99020000Y-64540000D01*
X88860000Y-75960000D02*
X83140000Y-75960000D01*
X83140000Y-75960000D02*
X83130000Y-75970000D01*
X83130000Y-75970000D02*
X83750000Y-75970000D01*
X106540000Y-66680000D02*
X106540000Y-76680000D01*
X102180000Y-81040000D02*
X88860000Y-81040000D01*
X106540000Y-76680000D02*
X102180000Y-81040000D01*
X83130000Y-81050000D02*
X88850000Y-81050000D01*
X88850000Y-81050000D02*
X88860000Y-81040000D01*
X88860000Y-78500000D02*
X88600000Y-78500000D01*
X88600000Y-78500000D02*
X87350000Y-79770000D01*
X87350000Y-79770000D02*
X81810000Y-79770000D01*
X81810000Y-79770000D02*
X79720000Y-81840000D01*
X79720000Y-81840000D02*
X79720000Y-83010000D01*
X79720000Y-83010000D02*
X77370000Y-85360000D01*
X83130000Y-78510000D02*
X79280000Y-78510000D01*
X77320000Y-80470000D02*
X77320000Y-81880000D01*
X79280000Y-78510000D02*
X77320000Y-80470000D01*
X123710000Y-80860000D02*
X123710000Y-83560000D01*
X117470000Y-89800000D02*
X98030000Y-89800000D01*
X123710000Y-83560000D02*
X117470000Y-89800000D01*
X123760000Y-77390000D02*
X122100000Y-77390000D01*
X117650000Y-86610000D02*
X97870000Y-86610000D01*
X120820000Y-83440000D02*
X117650000Y-86610000D01*
X120820000Y-78670000D02*
X120820000Y-83440000D01*
X122100000Y-77390000D02*
X120820000Y-78670000D01*
X106600000Y-134580000D02*
X106420000Y-134580000D01*
X106420000Y-134580000D02*
X104940000Y-133100000D01*
X104940000Y-118970000D02*
X101700000Y-115730000D01*
X104940000Y-133100000D02*
X104940000Y-118970000D01*
X120850000Y-138570000D02*
X119520000Y-138570000D01*
X119520000Y-138570000D02*
X119250000Y-138300000D01*
X107800000Y-134580000D02*
X106600000Y-134580000D01*
X111520000Y-138300000D02*
X107800000Y-134580000D01*
X119250000Y-138300000D02*
X111520000Y-138300000D01*
X91540000Y-115730000D02*
X91540000Y-111820000D01*
X91540000Y-111820000D02*
X90810000Y-111090000D01*
X94110000Y-104780000D02*
X94110000Y-107560000D01*
X94110000Y-107560000D02*
X90810000Y-110860000D01*
X90810000Y-110860000D02*
X90810000Y-111090000D01*
X88310000Y-111090000D02*
X84980000Y-111090000D01*
X84980000Y-111090000D02*
X84910000Y-111020000D01*
X82410000Y-111020000D02*
X82410000Y-111380000D01*
X82410000Y-111380000D02*
X79070000Y-114720000D01*
X79070000Y-114720000D02*
X77460000Y-114720000D01*
X72650000Y-104940000D02*
X72650000Y-99860000D01*
X72650000Y-99860000D02*
X71980000Y-99190000D01*
X83990000Y-102220000D02*
X83990000Y-102010000D01*
X83990000Y-102010000D02*
X81170000Y-99190000D01*
X71980000Y-99190000D02*
X70110000Y-97320000D01*
X81170000Y-99190000D02*
X71980000Y-99190000D01*
X87550000Y-104810000D02*
X87550000Y-104470000D01*
X87550000Y-104470000D02*
X85300000Y-102220000D01*
X85300000Y-102220000D02*
X83990000Y-102220000D01*
X90830000Y-104780000D02*
X87580000Y-104780000D01*
X87580000Y-104780000D02*
X87550000Y-104810000D01*
X73300000Y-108320000D02*
X67400000Y-108320000D01*
X67400000Y-108320000D02*
X67360000Y-108360000D01*
X73300000Y-108320000D02*
X73300000Y-109200000D01*
X73300000Y-109200000D02*
X70830000Y-111670000D01*
X75190000Y-104940000D02*
X75190000Y-106430000D01*
X75190000Y-106430000D02*
X73300000Y-108320000D01*
X67360000Y-108360000D02*
X67360000Y-111090000D01*
X67360000Y-111090000D02*
X66660000Y-111790000D01*
X67480000Y-108240000D02*
X67360000Y-108360000D01*
X75190000Y-105420000D02*
X75190000Y-104940000D01*
X64110000Y-114570000D02*
X61410000Y-114570000D01*
X58120000Y-105520000D02*
X58980000Y-104660000D01*
X58120000Y-111280000D02*
X58120000Y-105520000D01*
X61410000Y-114570000D02*
X58120000Y-111280000D01*
X78450000Y-111670000D02*
X75400000Y-111670000D01*
X65160000Y-114570000D02*
X64110000Y-114570000D01*
X67400000Y-116810000D02*
X65160000Y-114570000D01*
X71980000Y-116810000D02*
X67400000Y-116810000D01*
X73800000Y-114990000D02*
X71980000Y-116810000D01*
X73800000Y-113270000D02*
X73800000Y-114990000D01*
X75400000Y-111670000D02*
X73800000Y-113270000D01*
X78300000Y-108320000D02*
X78300000Y-111520000D01*
X78300000Y-111520000D02*
X78450000Y-111670000D01*
X77730000Y-104940000D02*
X77730000Y-107750000D01*
X77730000Y-107750000D02*
X78300000Y-108320000D01*
X62250000Y-104740000D02*
X59060000Y-104740000D01*
X59060000Y-104740000D02*
X58980000Y-104660000D01*
X71860000Y-93880000D02*
X68090000Y-93880000D01*
X68090000Y-93880000D02*
X67860000Y-93650000D01*
X67860000Y-93650000D02*
X67860000Y-94790000D01*
X67860000Y-94790000D02*
X65620000Y-97030000D01*
X71860000Y-93880000D02*
X71860000Y-92160000D01*
X71860000Y-92160000D02*
X70110000Y-90410000D01*
X72650000Y-97320000D02*
X72650000Y-94670000D01*
X72650000Y-94670000D02*
X71860000Y-93880000D01*
X76860000Y-93880000D02*
X76460000Y-93880000D01*
X76460000Y-93880000D02*
X75190000Y-95150000D01*
X75190000Y-95150000D02*
X75190000Y-97320000D01*
X80620000Y-93800000D02*
X83930000Y-93800000D01*
X76860000Y-93880000D02*
X80540000Y-93880000D01*
X80540000Y-93880000D02*
X80620000Y-93800000D01*
X77730000Y-90410000D02*
X77730000Y-93010000D01*
X77730000Y-93010000D02*
X76860000Y-93880000D01*
X69840000Y-114720000D02*
X67050000Y-114720000D01*
X67050000Y-114720000D02*
X64120000Y-111790000D01*
X59740000Y-108360000D02*
X60690000Y-108360000D01*
X60690000Y-108360000D02*
X64120000Y-111790000D01*
X65320000Y-93650000D02*
X65320000Y-94050000D01*
X65320000Y-94050000D02*
X62250000Y-97120000D01*
X65620000Y-104650000D02*
X65620000Y-103480000D01*
X62250000Y-100110000D02*
X62250000Y-97120000D01*
X65620000Y-103480000D02*
X62250000Y-100110000D01*
D25*
X102800000Y-131550000D02*
X102800000Y-134450000D01*
X125600000Y-128930000D02*
X128020000Y-128930000D01*
X123550000Y-130980000D02*
X125600000Y-128930000D01*
X123550000Y-139920000D02*
X123550000Y-130980000D01*
X122760000Y-140710000D02*
X123550000Y-139920000D01*
X110870000Y-140710000D02*
X122760000Y-140710000D01*
X108630000Y-138470000D02*
X110870000Y-140710000D01*
X108630000Y-137550000D02*
X108630000Y-138470000D01*
X107930000Y-136850000D02*
X108630000Y-137550000D01*
X105200000Y-136850000D02*
X107930000Y-136850000D01*
X102800000Y-134450000D02*
X105200000Y-136850000D01*
X46500000Y-120760000D02*
X46500000Y-121440000D01*
X46500000Y-121440000D02*
X47520000Y-122460000D01*
X53590000Y-122460000D02*
X54630000Y-121420000D01*
X47520000Y-122460000D02*
X53590000Y-122460000D01*
X91530000Y-121420000D02*
X54630000Y-121420000D01*
X94030000Y-124850000D02*
X94030000Y-123920000D01*
X94030000Y-123920000D02*
X91530000Y-121420000D01*
D24*
X46500000Y-118220000D02*
X46500000Y-117910000D01*
X46500000Y-117910000D02*
X47450000Y-116960000D01*
X47450000Y-116960000D02*
X50900000Y-116960000D01*
X50900000Y-116960000D02*
X57050000Y-110810000D01*
X57050000Y-110810000D02*
X57050000Y-94360000D01*
X57050000Y-94360000D02*
X63090000Y-88320000D01*
X63090000Y-88320000D02*
X86950000Y-88320000D01*
X86950000Y-88320000D02*
X87605000Y-87665000D01*
X87450000Y-86150000D02*
X87450000Y-87510000D01*
X87450000Y-87510000D02*
X87605000Y-87665000D01*
X87605000Y-87665000D02*
X89740000Y-89800000D01*
X89740000Y-89800000D02*
X90410000Y-89800000D01*
X46500000Y-115680000D02*
X46860000Y-115680000D01*
X46860000Y-115680000D02*
X48140000Y-114400000D01*
X48140000Y-114400000D02*
X50270000Y-114400000D01*
X50270000Y-114400000D02*
X56200000Y-108470000D01*
X56200000Y-108470000D02*
X56200000Y-93260000D01*
X56200000Y-93260000D02*
X61980000Y-87480000D01*
X61980000Y-87480000D02*
X82630000Y-87480000D01*
X82630000Y-87480000D02*
X83930000Y-86180000D01*
X90250000Y-86610000D02*
X90250000Y-85840000D01*
X90250000Y-85840000D02*
X89040000Y-84630000D01*
X89040000Y-84630000D02*
X85480000Y-84630000D01*
X85480000Y-84630000D02*
X83930000Y-86180000D01*
X53370000Y-138640000D02*
X53370000Y-138560000D01*
X53370000Y-138560000D02*
X51470000Y-136660000D01*
X41590000Y-136660000D02*
X39040000Y-134110000D01*
X51470000Y-136660000D02*
X41590000Y-136660000D01*
X59870000Y-138640000D02*
X53370000Y-138640000D01*
X39040000Y-134110000D02*
X35760000Y-134110000D01*
X38580000Y-137690000D02*
X38580000Y-134570000D01*
X38580000Y-134570000D02*
X39040000Y-134110000D01*
M02*
