%TF.GenerationSoftware,KiCad,Pcbnew,(6.0.11)*%
%TF.CreationDate,2023-02-05T16:49:20-06:00*%
%TF.ProjectId,BitBangDisplay,42697442-616e-4674-9469-73706c61792e,rev?*%
%TF.SameCoordinates,Original*%
%TF.FileFunction,Soldermask,Bot*%
%TF.FilePolarity,Negative*%
%FSLAX46Y46*%
G04 Gerber Fmt 4.6, Leading zero omitted, Abs format (unit mm)*
G04 Created by KiCad (PCBNEW (6.0.11)) date 2023-02-05 16:49:20*
%MOMM*%
%LPD*%
G01*
G04 APERTURE LIST*
G04 Aperture macros list*
%AMRoundRect*
0 Rectangle with rounded corners*
0 $1 Rounding radius*
0 $2 $3 $4 $5 $6 $7 $8 $9 X,Y pos of 4 corners*
0 Add a 4 corners polygon primitive as box body*
4,1,4,$2,$3,$4,$5,$6,$7,$8,$9,$2,$3,0*
0 Add four circle primitives for the rounded corners*
1,1,$1+$1,$2,$3*
1,1,$1+$1,$4,$5*
1,1,$1+$1,$6,$7*
1,1,$1+$1,$8,$9*
0 Add four rect primitives between the rounded corners*
20,1,$1+$1,$2,$3,$4,$5,0*
20,1,$1+$1,$4,$5,$6,$7,0*
20,1,$1+$1,$6,$7,$8,$9,0*
20,1,$1+$1,$8,$9,$2,$3,0*%
G04 Aperture macros list end*
%ADD10C,2.000000*%
%ADD11O,2.400000X1.400000*%
%ADD12O,1.400000X2.400000*%
%ADD13O,2.400000X1.900000*%
%ADD14O,1.900000X2.400000*%
%ADD15O,2.000000X2.000000*%
%ADD16C,2.400000*%
%ADD17C,5.400000*%
%ADD18RoundRect,0.200000X0.850000X-0.850000X0.850000X0.850000X-0.850000X0.850000X-0.850000X-0.850000X0*%
%ADD19O,2.100000X2.100000*%
%ADD20O,5.900000X4.400000*%
%ADD21C,4.400000*%
%ADD22C,3.900000*%
%ADD23RoundRect,0.200000X-0.850000X-0.850000X0.850000X-0.850000X0.850000X0.850000X-0.850000X0.850000X0*%
%ADD24RoundRect,0.200000X0.800000X0.800000X-0.800000X0.800000X-0.800000X-0.800000X0.800000X-0.800000X0*%
%ADD25RoundRect,0.200000X-0.800000X-0.800000X0.800000X-0.800000X0.800000X0.800000X-0.800000X0.800000X0*%
%ADD26RoundRect,0.200000X0.800000X-0.800000X0.800000X0.800000X-0.800000X0.800000X-0.800000X-0.800000X0*%
%ADD27RoundRect,0.200000X-1.500000X1.500000X-1.500000X-1.500000X1.500000X-1.500000X1.500000X1.500000X0*%
%ADD28C,3.400000*%
%ADD29RoundRect,0.200000X0.850000X0.850000X-0.850000X0.850000X-0.850000X-0.850000X0.850000X-0.850000X0*%
G04 APERTURE END LIST*
D10*
%TO.C,C3*%
X109610000Y-76610000D03*
X109610000Y-81610000D03*
%TD*%
D11*
%TO.C,J2*%
X98500000Y-142850000D03*
D12*
X103300000Y-138450000D03*
X93300000Y-134950000D03*
D13*
X102800000Y-131550000D03*
D14*
X95900000Y-135950000D03*
%TD*%
D10*
%TO.C,R3*%
X48930000Y-134170000D03*
D15*
X48930000Y-126550000D03*
%TD*%
D10*
%TO.C,R12*%
X58680000Y-134170000D03*
D15*
X58680000Y-126550000D03*
%TD*%
D10*
%TO.C,C10*%
X86000000Y-126850000D03*
X86000000Y-124350000D03*
%TD*%
%TO.C,C11*%
X70100000Y-129980000D03*
X70100000Y-127480000D03*
%TD*%
%TO.C,C16*%
X70140000Y-135620000D03*
X70140000Y-133120000D03*
%TD*%
%TO.C,C17*%
X85970000Y-130260000D03*
X85970000Y-132760000D03*
%TD*%
D16*
%TO.C,SW2*%
X74330000Y-130270000D03*
X74330000Y-125770000D03*
X80830000Y-130270000D03*
X80830000Y-125770000D03*
%TD*%
%TO.C,SW3*%
X64540000Y-143360000D03*
X64540000Y-138860000D03*
X71040000Y-143360000D03*
X71040000Y-138860000D03*
%TD*%
%TO.C,SW4*%
X84090000Y-143220000D03*
X84090000Y-138720000D03*
X90590000Y-143220000D03*
X90590000Y-138720000D03*
%TD*%
%TO.C,SW5*%
X74300000Y-138270000D03*
X74300000Y-133770000D03*
X80800000Y-138270000D03*
X80800000Y-133770000D03*
%TD*%
D10*
%TO.C,R6*%
X45640000Y-134150000D03*
D15*
X45640000Y-126530000D03*
%TD*%
D10*
%TO.C,R13*%
X65210000Y-134190000D03*
D15*
X65210000Y-126570000D03*
%TD*%
D10*
%TO.C,R29*%
X42330000Y-134130000D03*
D15*
X42330000Y-126510000D03*
%TD*%
D10*
%TO.C,R33*%
X52220000Y-134190000D03*
D15*
X52220000Y-126570000D03*
%TD*%
D10*
%TO.C,R46*%
X61940000Y-134190000D03*
D15*
X61940000Y-126570000D03*
%TD*%
D10*
%TO.C,R47*%
X55470000Y-134170000D03*
D15*
X55470000Y-126550000D03*
%TD*%
D17*
%TO.C,J3*%
X45500000Y-60500000D03*
%TD*%
%TO.C,J7*%
X45500000Y-140500000D03*
%TD*%
%TO.C,J20*%
X128500000Y-60500000D03*
%TD*%
%TO.C,J21*%
X128500000Y-140500000D03*
%TD*%
D18*
%TO.C,J1*%
X66500000Y-76500000D03*
D19*
X69040000Y-76500000D03*
X71580000Y-76500000D03*
X74120000Y-76500000D03*
%TD*%
D18*
%TO.C,U1*%
X42750000Y-66000000D03*
D19*
X45290000Y-66000000D03*
X47830000Y-66000000D03*
X50370000Y-66000000D03*
X52910000Y-66000000D03*
X55450000Y-66000000D03*
X57990000Y-66000000D03*
X60530000Y-66000000D03*
X63070000Y-66000000D03*
X65610000Y-66000000D03*
X68150000Y-66000000D03*
X70690000Y-66000000D03*
X73230000Y-66000000D03*
X75770000Y-66000000D03*
X78310000Y-66000000D03*
X80850000Y-66000000D03*
%TD*%
D20*
%TO.C,J4*%
X36000000Y-66000000D03*
%TD*%
D21*
%TO.C,J5*%
X128000000Y-66000000D03*
%TD*%
D22*
%TO.C,J6*%
X110500000Y-66000000D03*
%TD*%
%TO.C,J8*%
X111500000Y-97000000D03*
%TD*%
D21*
%TO.C,J9*%
X128000000Y-120500000D03*
%TD*%
%TO.C,J11*%
X35000000Y-120500000D03*
%TD*%
D22*
%TO.C,J12*%
X36500000Y-97000000D03*
%TD*%
D10*
%TO.C,C1*%
X106510000Y-139200000D03*
X106510000Y-141700000D03*
%TD*%
D11*
%TO.C,J13*%
X119140000Y-58810000D03*
D12*
X114340000Y-63210000D03*
X124340000Y-66710000D03*
D13*
X114840000Y-70110000D03*
D14*
X121740000Y-65710000D03*
%TD*%
D11*
%TO.C,J14*%
X101340000Y-58780000D03*
D12*
X96540000Y-63180000D03*
X106540000Y-66680000D03*
D13*
X97040000Y-70080000D03*
D14*
X103940000Y-65680000D03*
%TD*%
D23*
%TO.C,JP1*%
X88860000Y-75960000D03*
D19*
X88860000Y-78500000D03*
X88860000Y-81040000D03*
%TD*%
D23*
%TO.C,JP2*%
X83130000Y-75970000D03*
D19*
X83130000Y-78510000D03*
X83130000Y-81050000D03*
%TD*%
D10*
%TO.C,L1*%
X113550000Y-80860000D03*
D15*
X123710000Y-80860000D03*
%TD*%
D10*
%TO.C,L2*%
X113600000Y-77390000D03*
D15*
X123760000Y-77390000D03*
%TD*%
D10*
%TO.C,R1*%
X90410000Y-89800000D03*
D15*
X98030000Y-89800000D03*
%TD*%
D10*
%TO.C,R2*%
X90250000Y-86610000D03*
D15*
X97870000Y-86610000D03*
%TD*%
D10*
%TO.C,R4*%
X87450000Y-93770000D03*
D15*
X87450000Y-86150000D03*
%TD*%
D10*
%TO.C,R5*%
X94110000Y-104780000D03*
D15*
X94110000Y-97160000D03*
%TD*%
D10*
%TO.C,R7*%
X77370000Y-85360000D03*
D15*
X69750000Y-85360000D03*
%TD*%
D10*
%TO.C,R8*%
X69700000Y-81880000D03*
D15*
X77320000Y-81880000D03*
%TD*%
D10*
%TO.C,C2*%
X123890000Y-74040000D03*
X118890000Y-74040000D03*
%TD*%
%TO.C,C4*%
X106600000Y-129580000D03*
X106600000Y-134580000D03*
%TD*%
D24*
%TO.C,C5*%
X90810000Y-111090000D03*
D10*
X88310000Y-111090000D03*
%TD*%
D25*
%TO.C,C6*%
X82410000Y-111020000D03*
D10*
X84910000Y-111020000D03*
%TD*%
%TO.C,C7*%
X81560000Y-97430000D03*
X84060000Y-97430000D03*
%TD*%
%TO.C,C8*%
X83990000Y-104720000D03*
X83990000Y-102220000D03*
%TD*%
%TO.C,C9*%
X73300000Y-108320000D03*
X78300000Y-108320000D03*
%TD*%
%TO.C,C12*%
X71860000Y-93880000D03*
X76860000Y-93880000D03*
%TD*%
D11*
%TO.C,J15*%
X116050000Y-142970000D03*
D12*
X120850000Y-138570000D03*
X110850000Y-135070000D03*
D13*
X120350000Y-131670000D03*
D14*
X113450000Y-136070000D03*
%TD*%
D18*
%TO.C,JP3*%
X64120000Y-111790000D03*
D19*
X66660000Y-111790000D03*
%TD*%
D18*
%TO.C,JP4*%
X65320000Y-93650000D03*
D19*
X67860000Y-93650000D03*
%TD*%
D10*
%TO.C,L3*%
X101700000Y-115730000D03*
D15*
X91540000Y-115730000D03*
%TD*%
D10*
%TO.C,R9*%
X69840000Y-114720000D03*
D15*
X77460000Y-114720000D03*
%TD*%
D10*
%TO.C,R10*%
X67360000Y-108360000D03*
D15*
X59740000Y-108360000D03*
%TD*%
D10*
%TO.C,R11*%
X87550000Y-97190000D03*
D15*
X87550000Y-104810000D03*
%TD*%
D10*
%TO.C,R14*%
X90830000Y-104780000D03*
D15*
X90830000Y-97160000D03*
%TD*%
D10*
%TO.C,R15*%
X78450000Y-111670000D03*
D15*
X70830000Y-111670000D03*
%TD*%
D10*
%TO.C,R16*%
X62250000Y-97120000D03*
D15*
X62250000Y-104740000D03*
%TD*%
D10*
%TO.C,R17*%
X58980000Y-97040000D03*
D15*
X58980000Y-104660000D03*
%TD*%
D10*
%TO.C,R18*%
X65620000Y-97030000D03*
D15*
X65620000Y-104650000D03*
%TD*%
D10*
%TO.C,R19*%
X77730000Y-90410000D03*
D15*
X70110000Y-90410000D03*
%TD*%
D10*
%TO.C,R20*%
X83930000Y-93800000D03*
D15*
X83930000Y-86180000D03*
%TD*%
D10*
%TO.C,R21*%
X80620000Y-86180000D03*
D15*
X80620000Y-93800000D03*
%TD*%
D26*
%TO.C,U2*%
X77730000Y-104940000D03*
D15*
X70110000Y-97320000D03*
X75190000Y-104940000D03*
X72650000Y-97320000D03*
X72650000Y-104940000D03*
X75190000Y-97320000D03*
X70110000Y-104940000D03*
X77730000Y-97320000D03*
%TD*%
D27*
%TO.C,J16*%
X128020000Y-128930000D03*
D28*
X128020000Y-134010000D03*
%TD*%
D10*
%TO.C,L4*%
X101690000Y-121420000D03*
D15*
X91530000Y-121420000D03*
%TD*%
D10*
%TO.C,R22*%
X101650000Y-124850000D03*
D15*
X94030000Y-124850000D03*
%TD*%
D29*
%TO.C,U5*%
X46500000Y-72500000D03*
D19*
X46500000Y-75040000D03*
X46500000Y-77580000D03*
X46500000Y-80120000D03*
X46500000Y-82660000D03*
X46500000Y-85200000D03*
X46500000Y-87740000D03*
X46500000Y-90280000D03*
X46500000Y-92820000D03*
X46500000Y-95360000D03*
X46500000Y-97900000D03*
X46500000Y-100440000D03*
X46500000Y-102980000D03*
X46500000Y-105520000D03*
X46500000Y-108060000D03*
X46500000Y-110600000D03*
X46500000Y-113140000D03*
X46500000Y-115680000D03*
X46500000Y-118220000D03*
X46500000Y-120760000D03*
%TD*%
D10*
%TO.C,C13*%
X97450000Y-97230000D03*
X99950000Y-97230000D03*
%TD*%
%TO.C,C14*%
X36080000Y-137690000D03*
X38580000Y-137690000D03*
%TD*%
%TO.C,R23*%
X35760000Y-134110000D03*
D15*
X35760000Y-126490000D03*
%TD*%
D10*
%TO.C,R24*%
X39040000Y-134110000D03*
D15*
X39040000Y-126490000D03*
%TD*%
D16*
%TO.C,SW1*%
X53370000Y-143140000D03*
X53370000Y-138640000D03*
X59870000Y-143140000D03*
X59870000Y-138640000D03*
%TD*%
D29*
%TO.C,J10*%
X49040000Y-72500000D03*
D19*
X49040000Y-75040000D03*
X49040000Y-77580000D03*
X49040000Y-80120000D03*
X49040000Y-82660000D03*
X49040000Y-85200000D03*
X49040000Y-87740000D03*
X49040000Y-90280000D03*
X49040000Y-92820000D03*
X49040000Y-95360000D03*
X49040000Y-97900000D03*
X49040000Y-100440000D03*
X49040000Y-102980000D03*
X49040000Y-105520000D03*
X49040000Y-108060000D03*
X49040000Y-110600000D03*
X49040000Y-113140000D03*
X49040000Y-115680000D03*
X49040000Y-118220000D03*
X49040000Y-120760000D03*
%TD*%
M02*
