G04 #@! TF.FileFunction,Soldermask,Top*
%FSLAX46Y46*%
G04 Gerber Fmt 4.6, Leading zero omitted, Abs format (unit mm)*
G04 Created by KiCad (PCBNEW 4.0.7) date 01/20/22 12:36:13*
%MOMM*%
%LPD*%
G01*
G04 APERTURE LIST*
%ADD10C,0.100000*%
%ADD11C,2.000000*%
%ADD12O,2.000000X2.000000*%
%ADD13C,2.400000*%
%ADD14R,2.100000X2.100000*%
%ADD15O,2.100000X2.100000*%
%ADD16C,5.400000*%
%ADD17O,2.400000X1.400000*%
%ADD18O,1.400000X2.400000*%
%ADD19O,2.400000X1.900000*%
%ADD20O,1.900000X2.400000*%
%ADD21O,5.900000X4.400000*%
%ADD22C,4.400000*%
%ADD23C,3.900000*%
%ADD24R,2.000000X2.000000*%
%ADD25R,3.400000X3.400000*%
%ADD26C,3.400000*%
G04 APERTURE END LIST*
D10*
D11*
X48960000Y-126420000D03*
D12*
X48960000Y-118800000D03*
D11*
X58830000Y-126340000D03*
D12*
X58830000Y-118720000D03*
D11*
X86000000Y-126850000D03*
X86000000Y-124350000D03*
X70460000Y-132410000D03*
X70460000Y-129910000D03*
X59890000Y-142070000D03*
X59890000Y-139570000D03*
X85970000Y-130260000D03*
X85970000Y-132760000D03*
D13*
X74330000Y-130270000D03*
X74330000Y-125770000D03*
X80830000Y-130270000D03*
X80830000Y-125770000D03*
X64540000Y-143360000D03*
X64540000Y-138860000D03*
X71040000Y-143360000D03*
X71040000Y-138860000D03*
X84090000Y-143220000D03*
X84090000Y-138720000D03*
X90590000Y-143220000D03*
X90590000Y-138720000D03*
X74300000Y-138270000D03*
X74300000Y-133770000D03*
X80800000Y-138270000D03*
X80800000Y-133770000D03*
D14*
X46500000Y-72500000D03*
D15*
X46500000Y-75040000D03*
X46500000Y-77580000D03*
X46500000Y-80120000D03*
X46500000Y-82660000D03*
X46500000Y-85200000D03*
X46500000Y-87740000D03*
X46500000Y-90280000D03*
X46500000Y-92820000D03*
X46500000Y-95360000D03*
X46500000Y-97900000D03*
X46500000Y-100440000D03*
X46500000Y-102980000D03*
X46500000Y-105520000D03*
X46500000Y-108060000D03*
X46500000Y-110600000D03*
D11*
X45680000Y-126420000D03*
D12*
X45680000Y-118800000D03*
D11*
X65380000Y-126340000D03*
D12*
X65380000Y-118720000D03*
D11*
X42480000Y-126380000D03*
D12*
X42480000Y-118760000D03*
D11*
X52200000Y-126420000D03*
D12*
X52200000Y-118800000D03*
D11*
X62100000Y-126340000D03*
D12*
X62100000Y-118720000D03*
D11*
X55510000Y-126380000D03*
D12*
X55510000Y-118760000D03*
D16*
X45500000Y-60500000D03*
X45500000Y-140500000D03*
D14*
X93500000Y-92500000D03*
D15*
X93500000Y-89960000D03*
X93500000Y-87420000D03*
X93500000Y-84880000D03*
D14*
X60452000Y-84836000D03*
D15*
X60452000Y-87376000D03*
X60452000Y-89916000D03*
X60452000Y-92456000D03*
D16*
X128500000Y-60500000D03*
X128500000Y-140500000D03*
D14*
X65500000Y-133500000D03*
D15*
X62960000Y-133500000D03*
D14*
X66500000Y-76500000D03*
D15*
X69040000Y-76500000D03*
X71580000Y-76500000D03*
X74120000Y-76500000D03*
D14*
X41000000Y-67000000D03*
D15*
X43540000Y-67000000D03*
X46080000Y-67000000D03*
X48620000Y-67000000D03*
X51160000Y-67000000D03*
X53700000Y-67000000D03*
X56240000Y-67000000D03*
X58780000Y-67000000D03*
X61320000Y-67000000D03*
X63860000Y-67000000D03*
X66400000Y-67000000D03*
X68940000Y-67000000D03*
X71480000Y-67000000D03*
X74020000Y-67000000D03*
X76560000Y-67000000D03*
X79100000Y-67000000D03*
D17*
X98500000Y-142850000D03*
D18*
X103300000Y-138450000D03*
X93300000Y-134950000D03*
D19*
X102800000Y-131550000D03*
D20*
X95900000Y-135950000D03*
D21*
X36000000Y-67000000D03*
D22*
X128000000Y-67000000D03*
D23*
X110500000Y-67000000D03*
X110500000Y-98000000D03*
D22*
X128000000Y-121500000D03*
X35000000Y-121500000D03*
D23*
X35500000Y-98000000D03*
D11*
X106510000Y-139200000D03*
X106510000Y-141700000D03*
D17*
X100930000Y-58930000D03*
D18*
X96130000Y-63330000D03*
X106130000Y-66830000D03*
D19*
X96630000Y-70230000D03*
D20*
X103530000Y-65830000D03*
D11*
X98240000Y-74660000D03*
X98240000Y-79660000D03*
D17*
X88200000Y-58930000D03*
D18*
X83400000Y-63330000D03*
X93400000Y-66830000D03*
D19*
X83900000Y-70230000D03*
D20*
X90800000Y-65830000D03*
D14*
X88860000Y-75960000D03*
D15*
X88860000Y-78500000D03*
X88860000Y-81040000D03*
D14*
X83130000Y-75970000D03*
D15*
X83130000Y-78510000D03*
X83130000Y-81050000D03*
D11*
X101090000Y-77510000D03*
D12*
X111250000Y-77510000D03*
D11*
X101090000Y-81030000D03*
D12*
X111250000Y-81030000D03*
D11*
X111330000Y-92540000D03*
D12*
X111330000Y-84920000D03*
D11*
X107960000Y-92540000D03*
D12*
X107960000Y-84920000D03*
D11*
X104660000Y-92540000D03*
D12*
X104660000Y-84920000D03*
D11*
X101480000Y-100360000D03*
D12*
X101480000Y-92740000D03*
D11*
X77370000Y-85360000D03*
D12*
X69750000Y-85360000D03*
D11*
X69700000Y-81880000D03*
D12*
X77320000Y-81880000D03*
D11*
X114050000Y-74040000D03*
X109050000Y-74040000D03*
X106600000Y-129580000D03*
X106600000Y-134580000D03*
D24*
X90810000Y-111090000D03*
D11*
X88310000Y-111090000D03*
D24*
X82410000Y-111020000D03*
D11*
X84910000Y-111020000D03*
X81560000Y-97430000D03*
X84060000Y-97430000D03*
X83990000Y-104720000D03*
X83990000Y-102220000D03*
X73300000Y-108320000D03*
X78300000Y-108320000D03*
X71860000Y-93880000D03*
X76860000Y-93880000D03*
D17*
X116050000Y-142970000D03*
D18*
X120850000Y-138570000D03*
X110850000Y-135070000D03*
D19*
X120350000Y-131670000D03*
D20*
X113450000Y-136070000D03*
D14*
X64120000Y-111790000D03*
D15*
X66660000Y-111790000D03*
D14*
X65320000Y-93650000D03*
D15*
X67860000Y-93650000D03*
D11*
X121080000Y-128050000D03*
D12*
X110920000Y-128050000D03*
D11*
X69840000Y-114720000D03*
D12*
X77460000Y-114720000D03*
D11*
X67360000Y-108360000D03*
D12*
X59740000Y-108360000D03*
D11*
X87550000Y-97190000D03*
D12*
X87550000Y-104810000D03*
D11*
X90830000Y-104780000D03*
D12*
X90830000Y-97160000D03*
D11*
X78450000Y-111670000D03*
D12*
X70830000Y-111670000D03*
D11*
X62250000Y-97120000D03*
D12*
X62250000Y-104740000D03*
D11*
X58980000Y-97040000D03*
D12*
X58980000Y-104660000D03*
D11*
X65620000Y-97030000D03*
D12*
X65620000Y-104650000D03*
D11*
X77730000Y-90410000D03*
D12*
X70110000Y-90410000D03*
D11*
X83930000Y-93800000D03*
D12*
X83930000Y-86180000D03*
D11*
X80620000Y-86180000D03*
D12*
X80620000Y-93800000D03*
D24*
X77730000Y-104940000D03*
D12*
X70110000Y-97320000D03*
X75190000Y-104940000D03*
X72650000Y-97320000D03*
X72650000Y-104940000D03*
X75190000Y-97320000D03*
X70110000Y-104940000D03*
X77730000Y-97320000D03*
D25*
X128020000Y-128930000D03*
D26*
X128020000Y-134010000D03*
M02*
