M48
;DRILL file {KiCad 4.0.7} date 01/19/22 20:21:02
;FORMAT={-:-/ absolute / metric / decimal}
FMAT,2
METRIC,TZ
T1C0.750
T2C0.800
T3C1.000
T4C1.100
T5C3.048
%
G90
G05
M71
T2
X42.48Y-118.76
X42.48Y-126.38
X45.68Y-118.8
X45.68Y-126.42
X48.96Y-118.8
X48.96Y-126.42
X52.2Y-118.8
X52.2Y-126.42
X55.51Y-118.76
X55.51Y-126.38
X58.83Y-118.72
X58.83Y-126.34
X58.98Y-97.04
X58.98Y-104.66
X59.74Y-108.36
X59.89Y-139.57
X59.89Y-142.07
X62.1Y-118.72
X62.1Y-126.34
X62.25Y-97.12
X62.25Y-104.74
X65.38Y-118.72
X65.38Y-126.34
X65.62Y-97.03
X65.62Y-104.65
X67.36Y-108.36
X69.7Y-81.88
X69.75Y-85.36
X69.84Y-114.72
X70.11Y-90.41
X70.11Y-97.32
X70.11Y-104.94
X70.46Y-129.91
X70.46Y-132.41
X70.83Y-111.67
X71.86Y-93.88
X72.65Y-97.32
X72.65Y-104.94
X73.3Y-108.32
X75.19Y-97.32
X75.19Y-104.94
X76.86Y-93.88
X77.32Y-81.88
X77.37Y-85.36
X77.46Y-114.72
X77.73Y-90.41
X77.73Y-97.32
X77.73Y-104.94
X78.3Y-108.32
X78.45Y-111.67
X80.62Y-86.18
X80.62Y-93.8
X81.56Y-97.43
X82.41Y-111.02
X83.93Y-86.18
X83.93Y-93.8
X83.99Y-102.22
X83.99Y-104.72
X84.06Y-97.43
X84.91Y-111.02
X85.97Y-130.26
X85.97Y-132.76
X86.Y-124.35
X86.Y-126.85
X87.55Y-97.19
X87.55Y-104.81
X88.31Y-111.09
X90.81Y-111.09
X90.83Y-97.16
X90.83Y-104.78
X98.24Y-74.66
X98.24Y-79.66
X101.09Y-77.51
X101.09Y-81.03
X101.48Y-92.74
X101.48Y-100.36
X104.66Y-84.92
X104.66Y-92.54
X106.51Y-139.2
X106.51Y-141.7
X107.96Y-84.92
X107.96Y-92.54
X109.05Y-74.04
X110.92Y-128.05
X111.25Y-77.51
X111.25Y-81.03
X111.33Y-84.92
X111.33Y-92.54
X114.05Y-74.04
X121.08Y-128.05
X124.63Y-130.87
X124.63Y-135.87
T3
X41.Y-67.
X43.54Y-67.
X46.08Y-67.
X46.5Y-72.5
X46.5Y-75.04
X46.5Y-77.58
X46.5Y-80.12
X46.5Y-82.66
X46.5Y-85.2
X46.5Y-87.74
X46.5Y-90.28
X46.5Y-92.82
X46.5Y-95.36
X46.5Y-97.9
X46.5Y-100.44
X46.5Y-102.98
X46.5Y-105.52
X46.5Y-108.06
X46.5Y-110.6
X48.62Y-67.
X51.16Y-67.
X53.7Y-67.
X56.24Y-67.
X58.78Y-67.
X60.452Y-84.836
X60.452Y-87.376
X60.452Y-89.916
X60.452Y-92.456
X61.32Y-67.
X62.96Y-133.5
X63.86Y-67.
X64.12Y-111.79
X65.32Y-93.65
X65.5Y-133.5
X66.4Y-67.
X66.5Y-76.5
X66.66Y-111.79
X67.86Y-93.65
X68.94Y-67.
X69.04Y-76.5
X71.48Y-67.
X71.58Y-76.5
X74.02Y-67.
X74.12Y-76.5
X76.56Y-67.
X79.1Y-67.
X83.13Y-75.97
X83.13Y-78.51
X83.13Y-81.05
X88.86Y-75.96
X88.86Y-78.5
X88.86Y-81.04
X93.5Y-84.88
X93.5Y-87.42
X93.5Y-89.96
X93.5Y-92.5
T4
X64.54Y-138.86
X64.54Y-143.36
X71.04Y-138.86
X71.04Y-143.36
X74.3Y-133.77
X74.3Y-138.27
X74.33Y-125.77
X74.33Y-130.27
X80.8Y-133.77
X80.8Y-138.27
X80.83Y-125.77
X80.83Y-130.27
X84.09Y-138.72
X84.09Y-143.22
X90.59Y-138.72
X90.59Y-143.22
T5
X45.5Y-60.5
X45.5Y-140.5
X128.5Y-60.5
X128.5Y-140.5
T1
X83.4Y-62.955G85X83.4Y-63.705
G05
X87.825Y-58.93G85X88.575Y-58.93
G05
X93.3Y-135.325G85X93.3Y-134.575
G05
X93.4Y-66.455G85X93.4Y-67.205
G05
X96.13Y-62.955G85X96.13Y-63.705
G05
X98.875Y-142.85G85X98.125Y-142.85
G05
X100.555Y-58.93G85X101.305Y-58.93
G05
X103.3Y-138.825G85X103.3Y-138.075
G05
X106.13Y-66.455G85X106.13Y-67.205
G05
X110.85Y-135.445G85X110.85Y-134.695
G05
X116.425Y-142.97G85X115.675Y-142.97
G05
X120.85Y-138.945G85X120.85Y-138.195
G05
T3
X83.65Y-70.23G85X84.15Y-70.23
G05
X90.8Y-65.58G85X90.8Y-66.08
G05
X95.9Y-136.2G85X95.9Y-135.7
G05
X96.38Y-70.23G85X96.88Y-70.23
G05
X103.05Y-131.55G85X102.55Y-131.55
G05
X103.53Y-65.58G85X103.53Y-66.08
G05
X113.45Y-136.32G85X113.45Y-135.82
G05
X120.6Y-131.67G85X120.1Y-131.67
G05
T0
M30
