G04 #@! TF.FileFunction,Legend,Bot*
%FSLAX46Y46*%
G04 Gerber Fmt 4.6, Leading zero omitted, Abs format (unit mm)*
G04 Created by KiCad (PCBNEW 4.0.7) date 01/20/22 12:36:13*
%MOMM*%
%LPD*%
G01*
G04 APERTURE LIST*
%ADD10C,0.100000*%
%ADD11C,0.150000*%
%ADD12C,0.120000*%
G04 APERTURE END LIST*
D10*
D11*
X79674285Y-105502381D02*
X80245714Y-105502381D01*
X79960000Y-105502381D02*
X79960000Y-104502381D01*
X80055238Y-104645238D01*
X80150476Y-104740476D01*
X80245714Y-104788095D01*
X75740476Y-101622381D02*
X76216667Y-101622381D01*
X76216667Y-100622381D01*
X75407143Y-101622381D02*
X75407143Y-100622381D01*
X75073809Y-101336667D01*
X74740476Y-100622381D01*
X74740476Y-101622381D01*
X74359524Y-100622381D02*
X73740476Y-100622381D01*
X74073810Y-101003333D01*
X73930952Y-101003333D01*
X73835714Y-101050952D01*
X73788095Y-101098571D01*
X73740476Y-101193810D01*
X73740476Y-101431905D01*
X73788095Y-101527143D01*
X73835714Y-101574762D01*
X73930952Y-101622381D01*
X74216667Y-101622381D01*
X74311905Y-101574762D01*
X74359524Y-101527143D01*
X72835714Y-100622381D02*
X73311905Y-100622381D01*
X73359524Y-101098571D01*
X73311905Y-101050952D01*
X73216667Y-101003333D01*
X72978571Y-101003333D01*
X72883333Y-101050952D01*
X72835714Y-101098571D01*
X72788095Y-101193810D01*
X72788095Y-101431905D01*
X72835714Y-101527143D01*
X72883333Y-101574762D01*
X72978571Y-101622381D01*
X73216667Y-101622381D01*
X73311905Y-101574762D01*
X73359524Y-101527143D01*
X72216667Y-101050952D02*
X72311905Y-101003333D01*
X72359524Y-100955714D01*
X72407143Y-100860476D01*
X72407143Y-100812857D01*
X72359524Y-100717619D01*
X72311905Y-100670000D01*
X72216667Y-100622381D01*
X72026190Y-100622381D01*
X71930952Y-100670000D01*
X71883333Y-100717619D01*
X71835714Y-100812857D01*
X71835714Y-100860476D01*
X71883333Y-100955714D01*
X71930952Y-101003333D01*
X72026190Y-101050952D01*
X72216667Y-101050952D01*
X72311905Y-101098571D01*
X72359524Y-101146190D01*
X72407143Y-101241429D01*
X72407143Y-101431905D01*
X72359524Y-101527143D01*
X72311905Y-101574762D01*
X72216667Y-101622381D01*
X72026190Y-101622381D01*
X71930952Y-101574762D01*
X71883333Y-101527143D01*
X71835714Y-101431905D01*
X71835714Y-101241429D01*
X71883333Y-101146190D01*
X71930952Y-101098571D01*
X72026190Y-101050952D01*
D12*
X49940000Y-125820000D02*
X50270000Y-125820000D01*
X50270000Y-125820000D02*
X50270000Y-119400000D01*
X50270000Y-119400000D02*
X49940000Y-119400000D01*
X47980000Y-125820000D02*
X47650000Y-125820000D01*
X47650000Y-125820000D02*
X47650000Y-119400000D01*
X47650000Y-119400000D02*
X47980000Y-119400000D01*
X59810000Y-125740000D02*
X60140000Y-125740000D01*
X60140000Y-125740000D02*
X60140000Y-119320000D01*
X60140000Y-119320000D02*
X59810000Y-119320000D01*
X57850000Y-125740000D02*
X57520000Y-125740000D01*
X57520000Y-125740000D02*
X57520000Y-119320000D01*
X57520000Y-119320000D02*
X57850000Y-119320000D01*
X87310000Y-128160000D02*
X87310000Y-123040000D01*
X84690000Y-128160000D02*
X84690000Y-123040000D01*
X87310000Y-128160000D02*
X84690000Y-128160000D01*
X87310000Y-123040000D02*
X84690000Y-123040000D01*
X71770000Y-133720000D02*
X71770000Y-128600000D01*
X69150000Y-133720000D02*
X69150000Y-128600000D01*
X71770000Y-133720000D02*
X69150000Y-133720000D01*
X71770000Y-128600000D02*
X69150000Y-128600000D01*
X61200000Y-143380000D02*
X61200000Y-138260000D01*
X58580000Y-143380000D02*
X58580000Y-138260000D01*
X61200000Y-143380000D02*
X58580000Y-143380000D01*
X61200000Y-138260000D02*
X58580000Y-138260000D01*
X84660000Y-128950000D02*
X84660000Y-134070000D01*
X87280000Y-128950000D02*
X87280000Y-134070000D01*
X84660000Y-128950000D02*
X87280000Y-128950000D01*
X84660000Y-134070000D02*
X87280000Y-134070000D01*
X46660000Y-125820000D02*
X46990000Y-125820000D01*
X46990000Y-125820000D02*
X46990000Y-119400000D01*
X46990000Y-119400000D02*
X46660000Y-119400000D01*
X44700000Y-125820000D02*
X44370000Y-125820000D01*
X44370000Y-125820000D02*
X44370000Y-119400000D01*
X44370000Y-119400000D02*
X44700000Y-119400000D01*
X66360000Y-125740000D02*
X66690000Y-125740000D01*
X66690000Y-125740000D02*
X66690000Y-119320000D01*
X66690000Y-119320000D02*
X66360000Y-119320000D01*
X64400000Y-125740000D02*
X64070000Y-125740000D01*
X64070000Y-125740000D02*
X64070000Y-119320000D01*
X64070000Y-119320000D02*
X64400000Y-119320000D01*
X43460000Y-125780000D02*
X43790000Y-125780000D01*
X43790000Y-125780000D02*
X43790000Y-119360000D01*
X43790000Y-119360000D02*
X43460000Y-119360000D01*
X41500000Y-125780000D02*
X41170000Y-125780000D01*
X41170000Y-125780000D02*
X41170000Y-119360000D01*
X41170000Y-119360000D02*
X41500000Y-119360000D01*
X53180000Y-125820000D02*
X53510000Y-125820000D01*
X53510000Y-125820000D02*
X53510000Y-119400000D01*
X53510000Y-119400000D02*
X53180000Y-119400000D01*
X51220000Y-125820000D02*
X50890000Y-125820000D01*
X50890000Y-125820000D02*
X50890000Y-119400000D01*
X50890000Y-119400000D02*
X51220000Y-119400000D01*
X63080000Y-125740000D02*
X63410000Y-125740000D01*
X63410000Y-125740000D02*
X63410000Y-119320000D01*
X63410000Y-119320000D02*
X63080000Y-119320000D01*
X61120000Y-125740000D02*
X60790000Y-125740000D01*
X60790000Y-125740000D02*
X60790000Y-119320000D01*
X60790000Y-119320000D02*
X61120000Y-119320000D01*
X56490000Y-125780000D02*
X56820000Y-125780000D01*
X56820000Y-125780000D02*
X56820000Y-119360000D01*
X56820000Y-119360000D02*
X56490000Y-119360000D01*
X54530000Y-125780000D02*
X54200000Y-125780000D01*
X54200000Y-125780000D02*
X54200000Y-119360000D01*
X54200000Y-119360000D02*
X54530000Y-119360000D01*
X105200000Y-137890000D02*
X105200000Y-143010000D01*
X107820000Y-137890000D02*
X107820000Y-143010000D01*
X105200000Y-137890000D02*
X107820000Y-137890000D01*
X105200000Y-143010000D02*
X107820000Y-143010000D01*
X96930000Y-74600000D02*
X96930000Y-79720000D01*
X99550000Y-74600000D02*
X99550000Y-79720000D01*
X96930000Y-74600000D02*
X97244000Y-74600000D01*
X99236000Y-74600000D02*
X99550000Y-74600000D01*
X96930000Y-79720000D02*
X97244000Y-79720000D01*
X99236000Y-79720000D02*
X99550000Y-79720000D01*
X102810000Y-78920000D02*
X102810000Y-76100000D01*
X102810000Y-76100000D02*
X109530000Y-76100000D01*
X109530000Y-76100000D02*
X109530000Y-78920000D01*
X109530000Y-78920000D02*
X102810000Y-78920000D01*
X102070000Y-77510000D02*
X102810000Y-77510000D01*
X110270000Y-77510000D02*
X109530000Y-77510000D01*
X102810000Y-82440000D02*
X102810000Y-79620000D01*
X102810000Y-79620000D02*
X109530000Y-79620000D01*
X109530000Y-79620000D02*
X109530000Y-82440000D01*
X109530000Y-82440000D02*
X102810000Y-82440000D01*
X102070000Y-81030000D02*
X102810000Y-81030000D01*
X110270000Y-81030000D02*
X109530000Y-81030000D01*
X112310000Y-91940000D02*
X112640000Y-91940000D01*
X112640000Y-91940000D02*
X112640000Y-85520000D01*
X112640000Y-85520000D02*
X112310000Y-85520000D01*
X110350000Y-91940000D02*
X110020000Y-91940000D01*
X110020000Y-91940000D02*
X110020000Y-85520000D01*
X110020000Y-85520000D02*
X110350000Y-85520000D01*
X108940000Y-91940000D02*
X109270000Y-91940000D01*
X109270000Y-91940000D02*
X109270000Y-85520000D01*
X109270000Y-85520000D02*
X108940000Y-85520000D01*
X106980000Y-91940000D02*
X106650000Y-91940000D01*
X106650000Y-91940000D02*
X106650000Y-85520000D01*
X106650000Y-85520000D02*
X106980000Y-85520000D01*
X105640000Y-91940000D02*
X105970000Y-91940000D01*
X105970000Y-91940000D02*
X105970000Y-85520000D01*
X105970000Y-85520000D02*
X105640000Y-85520000D01*
X103680000Y-91940000D02*
X103350000Y-91940000D01*
X103350000Y-91940000D02*
X103350000Y-85520000D01*
X103350000Y-85520000D02*
X103680000Y-85520000D01*
X102460000Y-99760000D02*
X102790000Y-99760000D01*
X102790000Y-99760000D02*
X102790000Y-93340000D01*
X102790000Y-93340000D02*
X102460000Y-93340000D01*
X100500000Y-99760000D02*
X100170000Y-99760000D01*
X100170000Y-99760000D02*
X100170000Y-93340000D01*
X100170000Y-93340000D02*
X100500000Y-93340000D01*
X76770000Y-84380000D02*
X76770000Y-84050000D01*
X76770000Y-84050000D02*
X70350000Y-84050000D01*
X70350000Y-84050000D02*
X70350000Y-84380000D01*
X76770000Y-86340000D02*
X76770000Y-86670000D01*
X76770000Y-86670000D02*
X70350000Y-86670000D01*
X70350000Y-86670000D02*
X70350000Y-86340000D01*
X70300000Y-82860000D02*
X70300000Y-83190000D01*
X70300000Y-83190000D02*
X76720000Y-83190000D01*
X76720000Y-83190000D02*
X76720000Y-82860000D01*
X70300000Y-80900000D02*
X70300000Y-80570000D01*
X70300000Y-80570000D02*
X76720000Y-80570000D01*
X76720000Y-80570000D02*
X76720000Y-80900000D01*
X114110000Y-72730000D02*
X108990000Y-72730000D01*
X114110000Y-75350000D02*
X108990000Y-75350000D01*
X114110000Y-72730000D02*
X114110000Y-73044000D01*
X114110000Y-75036000D02*
X114110000Y-75350000D01*
X108990000Y-72730000D02*
X108990000Y-73044000D01*
X108990000Y-75036000D02*
X108990000Y-75350000D01*
X105290000Y-129520000D02*
X105290000Y-134640000D01*
X107910000Y-129520000D02*
X107910000Y-134640000D01*
X105290000Y-129520000D02*
X105604000Y-129520000D01*
X107596000Y-129520000D02*
X107910000Y-129520000D01*
X105290000Y-134640000D02*
X105604000Y-134640000D01*
X107596000Y-134640000D02*
X107910000Y-134640000D01*
X87254278Y-109910277D02*
G75*
G02X91865580Y-109910000I2305722J-1179723D01*
G01*
X87254278Y-112269723D02*
G75*
G03X91865580Y-112270000I2305722J1179723D01*
G01*
X87254278Y-112269723D02*
G75*
G02X87254420Y-109910000I2305722J1179723D01*
G01*
X89560000Y-108540000D02*
X89560000Y-113640000D01*
X89520000Y-108540000D02*
X89520000Y-113640000D01*
X89480000Y-108541000D02*
X89480000Y-113639000D01*
X89440000Y-108542000D02*
X89440000Y-113638000D01*
X89400000Y-108544000D02*
X89400000Y-113636000D01*
X89360000Y-108547000D02*
X89360000Y-113633000D01*
X89320000Y-108551000D02*
X89320000Y-113629000D01*
X89280000Y-108555000D02*
X89280000Y-110110000D01*
X89280000Y-112070000D02*
X89280000Y-113625000D01*
X89240000Y-108559000D02*
X89240000Y-110110000D01*
X89240000Y-112070000D02*
X89240000Y-113621000D01*
X89200000Y-108565000D02*
X89200000Y-110110000D01*
X89200000Y-112070000D02*
X89200000Y-113615000D01*
X89160000Y-108571000D02*
X89160000Y-110110000D01*
X89160000Y-112070000D02*
X89160000Y-113609000D01*
X89120000Y-108577000D02*
X89120000Y-110110000D01*
X89120000Y-112070000D02*
X89120000Y-113603000D01*
X89080000Y-108584000D02*
X89080000Y-110110000D01*
X89080000Y-112070000D02*
X89080000Y-113596000D01*
X89040000Y-108592000D02*
X89040000Y-110110000D01*
X89040000Y-112070000D02*
X89040000Y-113588000D01*
X89000000Y-108601000D02*
X89000000Y-110110000D01*
X89000000Y-112070000D02*
X89000000Y-113579000D01*
X88960000Y-108610000D02*
X88960000Y-110110000D01*
X88960000Y-112070000D02*
X88960000Y-113570000D01*
X88920000Y-108620000D02*
X88920000Y-110110000D01*
X88920000Y-112070000D02*
X88920000Y-113560000D01*
X88880000Y-108630000D02*
X88880000Y-110110000D01*
X88880000Y-112070000D02*
X88880000Y-113550000D01*
X88839000Y-108642000D02*
X88839000Y-110110000D01*
X88839000Y-112070000D02*
X88839000Y-113538000D01*
X88799000Y-108654000D02*
X88799000Y-110110000D01*
X88799000Y-112070000D02*
X88799000Y-113526000D01*
X88759000Y-108666000D02*
X88759000Y-110110000D01*
X88759000Y-112070000D02*
X88759000Y-113514000D01*
X88719000Y-108680000D02*
X88719000Y-110110000D01*
X88719000Y-112070000D02*
X88719000Y-113500000D01*
X88679000Y-108694000D02*
X88679000Y-110110000D01*
X88679000Y-112070000D02*
X88679000Y-113486000D01*
X88639000Y-108708000D02*
X88639000Y-110110000D01*
X88639000Y-112070000D02*
X88639000Y-113472000D01*
X88599000Y-108724000D02*
X88599000Y-110110000D01*
X88599000Y-112070000D02*
X88599000Y-113456000D01*
X88559000Y-108740000D02*
X88559000Y-110110000D01*
X88559000Y-112070000D02*
X88559000Y-113440000D01*
X88519000Y-108757000D02*
X88519000Y-110110000D01*
X88519000Y-112070000D02*
X88519000Y-113423000D01*
X88479000Y-108775000D02*
X88479000Y-110110000D01*
X88479000Y-112070000D02*
X88479000Y-113405000D01*
X88439000Y-108794000D02*
X88439000Y-110110000D01*
X88439000Y-112070000D02*
X88439000Y-113386000D01*
X88399000Y-108814000D02*
X88399000Y-110110000D01*
X88399000Y-112070000D02*
X88399000Y-113366000D01*
X88359000Y-108834000D02*
X88359000Y-110110000D01*
X88359000Y-112070000D02*
X88359000Y-113346000D01*
X88319000Y-108856000D02*
X88319000Y-110110000D01*
X88319000Y-112070000D02*
X88319000Y-113324000D01*
X88279000Y-108878000D02*
X88279000Y-110110000D01*
X88279000Y-112070000D02*
X88279000Y-113302000D01*
X88239000Y-108901000D02*
X88239000Y-110110000D01*
X88239000Y-112070000D02*
X88239000Y-113279000D01*
X88199000Y-108925000D02*
X88199000Y-110110000D01*
X88199000Y-112070000D02*
X88199000Y-113255000D01*
X88159000Y-108950000D02*
X88159000Y-110110000D01*
X88159000Y-112070000D02*
X88159000Y-113230000D01*
X88119000Y-108977000D02*
X88119000Y-110110000D01*
X88119000Y-112070000D02*
X88119000Y-113203000D01*
X88079000Y-109004000D02*
X88079000Y-110110000D01*
X88079000Y-112070000D02*
X88079000Y-113176000D01*
X88039000Y-109032000D02*
X88039000Y-110110000D01*
X88039000Y-112070000D02*
X88039000Y-113148000D01*
X87999000Y-109062000D02*
X87999000Y-110110000D01*
X87999000Y-112070000D02*
X87999000Y-113118000D01*
X87959000Y-109093000D02*
X87959000Y-110110000D01*
X87959000Y-112070000D02*
X87959000Y-113087000D01*
X87919000Y-109125000D02*
X87919000Y-110110000D01*
X87919000Y-112070000D02*
X87919000Y-113055000D01*
X87879000Y-109158000D02*
X87879000Y-110110000D01*
X87879000Y-112070000D02*
X87879000Y-113022000D01*
X87839000Y-109193000D02*
X87839000Y-110110000D01*
X87839000Y-112070000D02*
X87839000Y-112987000D01*
X87799000Y-109229000D02*
X87799000Y-110110000D01*
X87799000Y-112070000D02*
X87799000Y-112951000D01*
X87759000Y-109267000D02*
X87759000Y-110110000D01*
X87759000Y-112070000D02*
X87759000Y-112913000D01*
X87719000Y-109307000D02*
X87719000Y-110110000D01*
X87719000Y-112070000D02*
X87719000Y-112873000D01*
X87679000Y-109348000D02*
X87679000Y-110110000D01*
X87679000Y-112070000D02*
X87679000Y-112832000D01*
X87639000Y-109391000D02*
X87639000Y-110110000D01*
X87639000Y-112070000D02*
X87639000Y-112789000D01*
X87599000Y-109436000D02*
X87599000Y-110110000D01*
X87599000Y-112070000D02*
X87599000Y-112744000D01*
X87559000Y-109484000D02*
X87559000Y-110110000D01*
X87559000Y-112070000D02*
X87559000Y-112696000D01*
X87519000Y-109534000D02*
X87519000Y-110110000D01*
X87519000Y-112070000D02*
X87519000Y-112646000D01*
X87479000Y-109586000D02*
X87479000Y-110110000D01*
X87479000Y-112070000D02*
X87479000Y-112594000D01*
X87439000Y-109642000D02*
X87439000Y-110110000D01*
X87439000Y-112070000D02*
X87439000Y-112538000D01*
X87399000Y-109700000D02*
X87399000Y-110110000D01*
X87399000Y-112070000D02*
X87399000Y-112480000D01*
X87359000Y-109763000D02*
X87359000Y-110110000D01*
X87359000Y-112070000D02*
X87359000Y-112417000D01*
X87319000Y-109829000D02*
X87319000Y-112351000D01*
X87279000Y-109901000D02*
X87279000Y-112279000D01*
X87239000Y-109978000D02*
X87239000Y-112202000D01*
X87199000Y-110062000D02*
X87199000Y-112118000D01*
X87159000Y-110156000D02*
X87159000Y-112024000D01*
X87119000Y-110261000D02*
X87119000Y-111919000D01*
X87079000Y-110383000D02*
X87079000Y-111797000D01*
X87039000Y-110531000D02*
X87039000Y-111649000D01*
X86999000Y-110736000D02*
X86999000Y-111444000D01*
X93010000Y-111090000D02*
X91810000Y-111090000D01*
X92410000Y-110440000D02*
X92410000Y-111740000D01*
X85965722Y-112199723D02*
G75*
G02X81354420Y-112200000I-2305722J1179723D01*
G01*
X85965722Y-109840277D02*
G75*
G03X81354420Y-109840000I-2305722J-1179723D01*
G01*
X85965722Y-109840277D02*
G75*
G02X85965580Y-112200000I-2305722J-1179723D01*
G01*
X83660000Y-113570000D02*
X83660000Y-108470000D01*
X83700000Y-113570000D02*
X83700000Y-108470000D01*
X83740000Y-113569000D02*
X83740000Y-108471000D01*
X83780000Y-113568000D02*
X83780000Y-108472000D01*
X83820000Y-113566000D02*
X83820000Y-108474000D01*
X83860000Y-113563000D02*
X83860000Y-108477000D01*
X83900000Y-113559000D02*
X83900000Y-108481000D01*
X83940000Y-113555000D02*
X83940000Y-112000000D01*
X83940000Y-110040000D02*
X83940000Y-108485000D01*
X83980000Y-113551000D02*
X83980000Y-112000000D01*
X83980000Y-110040000D02*
X83980000Y-108489000D01*
X84020000Y-113545000D02*
X84020000Y-112000000D01*
X84020000Y-110040000D02*
X84020000Y-108495000D01*
X84060000Y-113539000D02*
X84060000Y-112000000D01*
X84060000Y-110040000D02*
X84060000Y-108501000D01*
X84100000Y-113533000D02*
X84100000Y-112000000D01*
X84100000Y-110040000D02*
X84100000Y-108507000D01*
X84140000Y-113526000D02*
X84140000Y-112000000D01*
X84140000Y-110040000D02*
X84140000Y-108514000D01*
X84180000Y-113518000D02*
X84180000Y-112000000D01*
X84180000Y-110040000D02*
X84180000Y-108522000D01*
X84220000Y-113509000D02*
X84220000Y-112000000D01*
X84220000Y-110040000D02*
X84220000Y-108531000D01*
X84260000Y-113500000D02*
X84260000Y-112000000D01*
X84260000Y-110040000D02*
X84260000Y-108540000D01*
X84300000Y-113490000D02*
X84300000Y-112000000D01*
X84300000Y-110040000D02*
X84300000Y-108550000D01*
X84340000Y-113480000D02*
X84340000Y-112000000D01*
X84340000Y-110040000D02*
X84340000Y-108560000D01*
X84381000Y-113468000D02*
X84381000Y-112000000D01*
X84381000Y-110040000D02*
X84381000Y-108572000D01*
X84421000Y-113456000D02*
X84421000Y-112000000D01*
X84421000Y-110040000D02*
X84421000Y-108584000D01*
X84461000Y-113444000D02*
X84461000Y-112000000D01*
X84461000Y-110040000D02*
X84461000Y-108596000D01*
X84501000Y-113430000D02*
X84501000Y-112000000D01*
X84501000Y-110040000D02*
X84501000Y-108610000D01*
X84541000Y-113416000D02*
X84541000Y-112000000D01*
X84541000Y-110040000D02*
X84541000Y-108624000D01*
X84581000Y-113402000D02*
X84581000Y-112000000D01*
X84581000Y-110040000D02*
X84581000Y-108638000D01*
X84621000Y-113386000D02*
X84621000Y-112000000D01*
X84621000Y-110040000D02*
X84621000Y-108654000D01*
X84661000Y-113370000D02*
X84661000Y-112000000D01*
X84661000Y-110040000D02*
X84661000Y-108670000D01*
X84701000Y-113353000D02*
X84701000Y-112000000D01*
X84701000Y-110040000D02*
X84701000Y-108687000D01*
X84741000Y-113335000D02*
X84741000Y-112000000D01*
X84741000Y-110040000D02*
X84741000Y-108705000D01*
X84781000Y-113316000D02*
X84781000Y-112000000D01*
X84781000Y-110040000D02*
X84781000Y-108724000D01*
X84821000Y-113296000D02*
X84821000Y-112000000D01*
X84821000Y-110040000D02*
X84821000Y-108744000D01*
X84861000Y-113276000D02*
X84861000Y-112000000D01*
X84861000Y-110040000D02*
X84861000Y-108764000D01*
X84901000Y-113254000D02*
X84901000Y-112000000D01*
X84901000Y-110040000D02*
X84901000Y-108786000D01*
X84941000Y-113232000D02*
X84941000Y-112000000D01*
X84941000Y-110040000D02*
X84941000Y-108808000D01*
X84981000Y-113209000D02*
X84981000Y-112000000D01*
X84981000Y-110040000D02*
X84981000Y-108831000D01*
X85021000Y-113185000D02*
X85021000Y-112000000D01*
X85021000Y-110040000D02*
X85021000Y-108855000D01*
X85061000Y-113160000D02*
X85061000Y-112000000D01*
X85061000Y-110040000D02*
X85061000Y-108880000D01*
X85101000Y-113133000D02*
X85101000Y-112000000D01*
X85101000Y-110040000D02*
X85101000Y-108907000D01*
X85141000Y-113106000D02*
X85141000Y-112000000D01*
X85141000Y-110040000D02*
X85141000Y-108934000D01*
X85181000Y-113078000D02*
X85181000Y-112000000D01*
X85181000Y-110040000D02*
X85181000Y-108962000D01*
X85221000Y-113048000D02*
X85221000Y-112000000D01*
X85221000Y-110040000D02*
X85221000Y-108992000D01*
X85261000Y-113017000D02*
X85261000Y-112000000D01*
X85261000Y-110040000D02*
X85261000Y-109023000D01*
X85301000Y-112985000D02*
X85301000Y-112000000D01*
X85301000Y-110040000D02*
X85301000Y-109055000D01*
X85341000Y-112952000D02*
X85341000Y-112000000D01*
X85341000Y-110040000D02*
X85341000Y-109088000D01*
X85381000Y-112917000D02*
X85381000Y-112000000D01*
X85381000Y-110040000D02*
X85381000Y-109123000D01*
X85421000Y-112881000D02*
X85421000Y-112000000D01*
X85421000Y-110040000D02*
X85421000Y-109159000D01*
X85461000Y-112843000D02*
X85461000Y-112000000D01*
X85461000Y-110040000D02*
X85461000Y-109197000D01*
X85501000Y-112803000D02*
X85501000Y-112000000D01*
X85501000Y-110040000D02*
X85501000Y-109237000D01*
X85541000Y-112762000D02*
X85541000Y-112000000D01*
X85541000Y-110040000D02*
X85541000Y-109278000D01*
X85581000Y-112719000D02*
X85581000Y-112000000D01*
X85581000Y-110040000D02*
X85581000Y-109321000D01*
X85621000Y-112674000D02*
X85621000Y-112000000D01*
X85621000Y-110040000D02*
X85621000Y-109366000D01*
X85661000Y-112626000D02*
X85661000Y-112000000D01*
X85661000Y-110040000D02*
X85661000Y-109414000D01*
X85701000Y-112576000D02*
X85701000Y-112000000D01*
X85701000Y-110040000D02*
X85701000Y-109464000D01*
X85741000Y-112524000D02*
X85741000Y-112000000D01*
X85741000Y-110040000D02*
X85741000Y-109516000D01*
X85781000Y-112468000D02*
X85781000Y-112000000D01*
X85781000Y-110040000D02*
X85781000Y-109572000D01*
X85821000Y-112410000D02*
X85821000Y-112000000D01*
X85821000Y-110040000D02*
X85821000Y-109630000D01*
X85861000Y-112347000D02*
X85861000Y-112000000D01*
X85861000Y-110040000D02*
X85861000Y-109693000D01*
X85901000Y-112281000D02*
X85901000Y-109759000D01*
X85941000Y-112209000D02*
X85941000Y-109831000D01*
X85981000Y-112132000D02*
X85981000Y-109908000D01*
X86021000Y-112048000D02*
X86021000Y-109992000D01*
X86061000Y-111954000D02*
X86061000Y-110086000D01*
X86101000Y-111849000D02*
X86101000Y-110191000D01*
X86141000Y-111727000D02*
X86141000Y-110313000D01*
X86181000Y-111579000D02*
X86181000Y-110461000D01*
X86221000Y-111374000D02*
X86221000Y-110666000D01*
X80210000Y-111020000D02*
X81410000Y-111020000D01*
X80810000Y-111670000D02*
X80810000Y-110370000D01*
X80250000Y-98740000D02*
X85370000Y-98740000D01*
X80250000Y-96120000D02*
X85370000Y-96120000D01*
X80250000Y-98740000D02*
X80250000Y-96120000D01*
X85370000Y-98740000D02*
X85370000Y-96120000D01*
X85300000Y-106030000D02*
X85300000Y-100910000D01*
X82680000Y-106030000D02*
X82680000Y-100910000D01*
X85300000Y-106030000D02*
X82680000Y-106030000D01*
X85300000Y-100910000D02*
X82680000Y-100910000D01*
X73240000Y-109630000D02*
X78360000Y-109630000D01*
X73240000Y-107010000D02*
X78360000Y-107010000D01*
X73240000Y-109630000D02*
X73240000Y-109316000D01*
X73240000Y-107324000D02*
X73240000Y-107010000D01*
X78360000Y-109630000D02*
X78360000Y-109316000D01*
X78360000Y-107324000D02*
X78360000Y-107010000D01*
X71800000Y-95190000D02*
X76920000Y-95190000D01*
X71800000Y-92570000D02*
X76920000Y-92570000D01*
X71800000Y-95190000D02*
X71800000Y-94876000D01*
X71800000Y-92884000D02*
X71800000Y-92570000D01*
X76920000Y-95190000D02*
X76920000Y-94876000D01*
X76920000Y-92884000D02*
X76920000Y-92570000D01*
X119360000Y-126640000D02*
X119360000Y-129460000D01*
X119360000Y-129460000D02*
X112640000Y-129460000D01*
X112640000Y-129460000D02*
X112640000Y-126640000D01*
X112640000Y-126640000D02*
X119360000Y-126640000D01*
X120100000Y-128050000D02*
X119360000Y-128050000D01*
X111900000Y-128050000D02*
X112640000Y-128050000D01*
X66760000Y-107380000D02*
X66760000Y-107050000D01*
X66760000Y-107050000D02*
X60340000Y-107050000D01*
X60340000Y-107050000D02*
X60340000Y-107380000D01*
X66760000Y-109340000D02*
X66760000Y-109670000D01*
X66760000Y-109670000D02*
X60340000Y-109670000D01*
X60340000Y-109670000D02*
X60340000Y-109340000D01*
X86570000Y-97790000D02*
X86240000Y-97790000D01*
X86240000Y-97790000D02*
X86240000Y-104210000D01*
X86240000Y-104210000D02*
X86570000Y-104210000D01*
X88530000Y-97790000D02*
X88860000Y-97790000D01*
X88860000Y-97790000D02*
X88860000Y-104210000D01*
X88860000Y-104210000D02*
X88530000Y-104210000D01*
X91810000Y-104180000D02*
X92140000Y-104180000D01*
X92140000Y-104180000D02*
X92140000Y-97760000D01*
X92140000Y-97760000D02*
X91810000Y-97760000D01*
X89850000Y-104180000D02*
X89520000Y-104180000D01*
X89520000Y-104180000D02*
X89520000Y-97760000D01*
X89520000Y-97760000D02*
X89850000Y-97760000D01*
X77850000Y-110690000D02*
X77850000Y-110360000D01*
X77850000Y-110360000D02*
X71430000Y-110360000D01*
X71430000Y-110360000D02*
X71430000Y-110690000D01*
X77850000Y-112650000D02*
X77850000Y-112980000D01*
X77850000Y-112980000D02*
X71430000Y-112980000D01*
X71430000Y-112980000D02*
X71430000Y-112650000D01*
X61270000Y-97720000D02*
X60940000Y-97720000D01*
X60940000Y-97720000D02*
X60940000Y-104140000D01*
X60940000Y-104140000D02*
X61270000Y-104140000D01*
X63230000Y-97720000D02*
X63560000Y-97720000D01*
X63560000Y-97720000D02*
X63560000Y-104140000D01*
X63560000Y-104140000D02*
X63230000Y-104140000D01*
X58000000Y-97640000D02*
X57670000Y-97640000D01*
X57670000Y-97640000D02*
X57670000Y-104060000D01*
X57670000Y-104060000D02*
X58000000Y-104060000D01*
X59960000Y-97640000D02*
X60290000Y-97640000D01*
X60290000Y-97640000D02*
X60290000Y-104060000D01*
X60290000Y-104060000D02*
X59960000Y-104060000D01*
X64640000Y-97630000D02*
X64310000Y-97630000D01*
X64310000Y-97630000D02*
X64310000Y-104050000D01*
X64310000Y-104050000D02*
X64640000Y-104050000D01*
X66600000Y-97630000D02*
X66930000Y-97630000D01*
X66930000Y-97630000D02*
X66930000Y-104050000D01*
X66930000Y-104050000D02*
X66600000Y-104050000D01*
X77130000Y-89430000D02*
X77130000Y-89100000D01*
X77130000Y-89100000D02*
X70710000Y-89100000D01*
X70710000Y-89100000D02*
X70710000Y-89430000D01*
X77130000Y-91390000D02*
X77130000Y-91720000D01*
X77130000Y-91720000D02*
X70710000Y-91720000D01*
X70710000Y-91720000D02*
X70710000Y-91390000D01*
X84910000Y-93200000D02*
X85240000Y-93200000D01*
X85240000Y-93200000D02*
X85240000Y-86780000D01*
X85240000Y-86780000D02*
X84910000Y-86780000D01*
X82950000Y-93200000D02*
X82620000Y-93200000D01*
X82620000Y-93200000D02*
X82620000Y-86780000D01*
X82620000Y-86780000D02*
X82950000Y-86780000D01*
X79640000Y-86780000D02*
X79310000Y-86780000D01*
X79310000Y-86780000D02*
X79310000Y-93200000D01*
X79310000Y-93200000D02*
X79640000Y-93200000D01*
X81600000Y-86780000D02*
X81930000Y-86780000D01*
X81930000Y-86780000D02*
X81930000Y-93200000D01*
X81930000Y-93200000D02*
X81600000Y-93200000D01*
X79060000Y-100130000D02*
G75*
G03X79060000Y-102130000I0J-1000000D01*
G01*
X79060000Y-102130000D02*
X79060000Y-103780000D01*
X79060000Y-103780000D02*
X68780000Y-103780000D01*
X68780000Y-103780000D02*
X68780000Y-98480000D01*
X68780000Y-98480000D02*
X79060000Y-98480000D01*
X79060000Y-98480000D02*
X79060000Y-100130000D01*
X79120000Y-106270000D02*
X68720000Y-106270000D01*
X68720000Y-106270000D02*
X68720000Y-95990000D01*
X68720000Y-95990000D02*
X79120000Y-95990000D01*
X79120000Y-95990000D02*
X79120000Y-106270000D01*
D11*
X49452381Y-122509334D02*
X48976190Y-122176000D01*
X49452381Y-121937905D02*
X48452381Y-121937905D01*
X48452381Y-122318858D01*
X48500000Y-122414096D01*
X48547619Y-122461715D01*
X48642857Y-122509334D01*
X48785714Y-122509334D01*
X48880952Y-122461715D01*
X48928571Y-122414096D01*
X48976190Y-122318858D01*
X48976190Y-121937905D01*
X48452381Y-122842667D02*
X48452381Y-123461715D01*
X48833333Y-123128381D01*
X48833333Y-123271239D01*
X48880952Y-123366477D01*
X48928571Y-123414096D01*
X49023810Y-123461715D01*
X49261905Y-123461715D01*
X49357143Y-123414096D01*
X49404762Y-123366477D01*
X49452381Y-123271239D01*
X49452381Y-122985524D01*
X49404762Y-122890286D01*
X49357143Y-122842667D01*
X59282381Y-121887143D02*
X58806190Y-121553809D01*
X59282381Y-121315714D02*
X58282381Y-121315714D01*
X58282381Y-121696667D01*
X58330000Y-121791905D01*
X58377619Y-121839524D01*
X58472857Y-121887143D01*
X58615714Y-121887143D01*
X58710952Y-121839524D01*
X58758571Y-121791905D01*
X58806190Y-121696667D01*
X58806190Y-121315714D01*
X59282381Y-122839524D02*
X59282381Y-122268095D01*
X59282381Y-122553809D02*
X58282381Y-122553809D01*
X58425238Y-122458571D01*
X58520476Y-122363333D01*
X58568095Y-122268095D01*
X58377619Y-123220476D02*
X58330000Y-123268095D01*
X58282381Y-123363333D01*
X58282381Y-123601429D01*
X58330000Y-123696667D01*
X58377619Y-123744286D01*
X58472857Y-123791905D01*
X58568095Y-123791905D01*
X58710952Y-123744286D01*
X59282381Y-123172857D01*
X59282381Y-123791905D01*
X86642857Y-122507143D02*
X86690476Y-122554762D01*
X86833333Y-122602381D01*
X86928571Y-122602381D01*
X87071429Y-122554762D01*
X87166667Y-122459524D01*
X87214286Y-122364286D01*
X87261905Y-122173810D01*
X87261905Y-122030952D01*
X87214286Y-121840476D01*
X87166667Y-121745238D01*
X87071429Y-121650000D01*
X86928571Y-121602381D01*
X86833333Y-121602381D01*
X86690476Y-121650000D01*
X86642857Y-121697619D01*
X85690476Y-122602381D02*
X86261905Y-122602381D01*
X85976191Y-122602381D02*
X85976191Y-121602381D01*
X86071429Y-121745238D01*
X86166667Y-121840476D01*
X86261905Y-121888095D01*
X85071429Y-121602381D02*
X84976190Y-121602381D01*
X84880952Y-121650000D01*
X84833333Y-121697619D01*
X84785714Y-121792857D01*
X84738095Y-121983333D01*
X84738095Y-122221429D01*
X84785714Y-122411905D01*
X84833333Y-122507143D01*
X84880952Y-122554762D01*
X84976190Y-122602381D01*
X85071429Y-122602381D01*
X85166667Y-122554762D01*
X85214286Y-122507143D01*
X85261905Y-122411905D01*
X85309524Y-122221429D01*
X85309524Y-121983333D01*
X85261905Y-121792857D01*
X85214286Y-121697619D01*
X85166667Y-121650000D01*
X85071429Y-121602381D01*
X71262857Y-128027143D02*
X71310476Y-128074762D01*
X71453333Y-128122381D01*
X71548571Y-128122381D01*
X71691429Y-128074762D01*
X71786667Y-127979524D01*
X71834286Y-127884286D01*
X71881905Y-127693810D01*
X71881905Y-127550952D01*
X71834286Y-127360476D01*
X71786667Y-127265238D01*
X71691429Y-127170000D01*
X71548571Y-127122381D01*
X71453333Y-127122381D01*
X71310476Y-127170000D01*
X71262857Y-127217619D01*
X70310476Y-128122381D02*
X70881905Y-128122381D01*
X70596191Y-128122381D02*
X70596191Y-127122381D01*
X70691429Y-127265238D01*
X70786667Y-127360476D01*
X70881905Y-127408095D01*
X69358095Y-128122381D02*
X69929524Y-128122381D01*
X69643810Y-128122381D02*
X69643810Y-127122381D01*
X69739048Y-127265238D01*
X69834286Y-127360476D01*
X69929524Y-127408095D01*
X57897143Y-140087143D02*
X57944762Y-140039524D01*
X57992381Y-139896667D01*
X57992381Y-139801429D01*
X57944762Y-139658571D01*
X57849524Y-139563333D01*
X57754286Y-139515714D01*
X57563810Y-139468095D01*
X57420952Y-139468095D01*
X57230476Y-139515714D01*
X57135238Y-139563333D01*
X57040000Y-139658571D01*
X56992381Y-139801429D01*
X56992381Y-139896667D01*
X57040000Y-140039524D01*
X57087619Y-140087143D01*
X57992381Y-141039524D02*
X57992381Y-140468095D01*
X57992381Y-140753809D02*
X56992381Y-140753809D01*
X57135238Y-140658571D01*
X57230476Y-140563333D01*
X57278095Y-140468095D01*
X56992381Y-141896667D02*
X56992381Y-141706190D01*
X57040000Y-141610952D01*
X57087619Y-141563333D01*
X57230476Y-141468095D01*
X57420952Y-141420476D01*
X57801905Y-141420476D01*
X57897143Y-141468095D01*
X57944762Y-141515714D01*
X57992381Y-141610952D01*
X57992381Y-141801429D01*
X57944762Y-141896667D01*
X57897143Y-141944286D01*
X57801905Y-141991905D01*
X57563810Y-141991905D01*
X57468571Y-141944286D01*
X57420952Y-141896667D01*
X57373333Y-141801429D01*
X57373333Y-141610952D01*
X57420952Y-141515714D01*
X57468571Y-141468095D01*
X57563810Y-141420476D01*
X86532857Y-135507143D02*
X86580476Y-135554762D01*
X86723333Y-135602381D01*
X86818571Y-135602381D01*
X86961429Y-135554762D01*
X87056667Y-135459524D01*
X87104286Y-135364286D01*
X87151905Y-135173810D01*
X87151905Y-135030952D01*
X87104286Y-134840476D01*
X87056667Y-134745238D01*
X86961429Y-134650000D01*
X86818571Y-134602381D01*
X86723333Y-134602381D01*
X86580476Y-134650000D01*
X86532857Y-134697619D01*
X85580476Y-135602381D02*
X86151905Y-135602381D01*
X85866191Y-135602381D02*
X85866191Y-134602381D01*
X85961429Y-134745238D01*
X86056667Y-134840476D01*
X86151905Y-134888095D01*
X85247143Y-134602381D02*
X84580476Y-134602381D01*
X85009048Y-135602381D01*
X46132381Y-122443334D02*
X45656190Y-122110000D01*
X46132381Y-121871905D02*
X45132381Y-121871905D01*
X45132381Y-122252858D01*
X45180000Y-122348096D01*
X45227619Y-122395715D01*
X45322857Y-122443334D01*
X45465714Y-122443334D01*
X45560952Y-122395715D01*
X45608571Y-122348096D01*
X45656190Y-122252858D01*
X45656190Y-121871905D01*
X45132381Y-123300477D02*
X45132381Y-123110000D01*
X45180000Y-123014762D01*
X45227619Y-122967143D01*
X45370476Y-122871905D01*
X45560952Y-122824286D01*
X45941905Y-122824286D01*
X46037143Y-122871905D01*
X46084762Y-122919524D01*
X46132381Y-123014762D01*
X46132381Y-123205239D01*
X46084762Y-123300477D01*
X46037143Y-123348096D01*
X45941905Y-123395715D01*
X45703810Y-123395715D01*
X45608571Y-123348096D01*
X45560952Y-123300477D01*
X45513333Y-123205239D01*
X45513333Y-123014762D01*
X45560952Y-122919524D01*
X45608571Y-122871905D01*
X45703810Y-122824286D01*
X65832381Y-121633143D02*
X65356190Y-121299809D01*
X65832381Y-121061714D02*
X64832381Y-121061714D01*
X64832381Y-121442667D01*
X64880000Y-121537905D01*
X64927619Y-121585524D01*
X65022857Y-121633143D01*
X65165714Y-121633143D01*
X65260952Y-121585524D01*
X65308571Y-121537905D01*
X65356190Y-121442667D01*
X65356190Y-121061714D01*
X65832381Y-122585524D02*
X65832381Y-122014095D01*
X65832381Y-122299809D02*
X64832381Y-122299809D01*
X64975238Y-122204571D01*
X65070476Y-122109333D01*
X65118095Y-122014095D01*
X64832381Y-122918857D02*
X64832381Y-123537905D01*
X65213333Y-123204571D01*
X65213333Y-123347429D01*
X65260952Y-123442667D01*
X65308571Y-123490286D01*
X65403810Y-123537905D01*
X65641905Y-123537905D01*
X65737143Y-123490286D01*
X65784762Y-123442667D01*
X65832381Y-123347429D01*
X65832381Y-123061714D01*
X65784762Y-122966476D01*
X65737143Y-122918857D01*
X43028381Y-121933143D02*
X42552190Y-121599809D01*
X43028381Y-121361714D02*
X42028381Y-121361714D01*
X42028381Y-121742667D01*
X42076000Y-121837905D01*
X42123619Y-121885524D01*
X42218857Y-121933143D01*
X42361714Y-121933143D01*
X42456952Y-121885524D01*
X42504571Y-121837905D01*
X42552190Y-121742667D01*
X42552190Y-121361714D01*
X42123619Y-122314095D02*
X42076000Y-122361714D01*
X42028381Y-122456952D01*
X42028381Y-122695048D01*
X42076000Y-122790286D01*
X42123619Y-122837905D01*
X42218857Y-122885524D01*
X42314095Y-122885524D01*
X42456952Y-122837905D01*
X43028381Y-122266476D01*
X43028381Y-122885524D01*
X43028381Y-123361714D02*
X43028381Y-123552190D01*
X42980762Y-123647429D01*
X42933143Y-123695048D01*
X42790286Y-123790286D01*
X42599810Y-123837905D01*
X42218857Y-123837905D01*
X42123619Y-123790286D01*
X42076000Y-123742667D01*
X42028381Y-123647429D01*
X42028381Y-123456952D01*
X42076000Y-123361714D01*
X42123619Y-123314095D01*
X42218857Y-123266476D01*
X42456952Y-123266476D01*
X42552190Y-123314095D01*
X42599810Y-123361714D01*
X42647429Y-123456952D01*
X42647429Y-123647429D01*
X42599810Y-123742667D01*
X42552190Y-123790286D01*
X42456952Y-123837905D01*
X52652381Y-121967143D02*
X52176190Y-121633809D01*
X52652381Y-121395714D02*
X51652381Y-121395714D01*
X51652381Y-121776667D01*
X51700000Y-121871905D01*
X51747619Y-121919524D01*
X51842857Y-121967143D01*
X51985714Y-121967143D01*
X52080952Y-121919524D01*
X52128571Y-121871905D01*
X52176190Y-121776667D01*
X52176190Y-121395714D01*
X51652381Y-122300476D02*
X51652381Y-122919524D01*
X52033333Y-122586190D01*
X52033333Y-122729048D01*
X52080952Y-122824286D01*
X52128571Y-122871905D01*
X52223810Y-122919524D01*
X52461905Y-122919524D01*
X52557143Y-122871905D01*
X52604762Y-122824286D01*
X52652381Y-122729048D01*
X52652381Y-122443333D01*
X52604762Y-122348095D01*
X52557143Y-122300476D01*
X51652381Y-123252857D02*
X51652381Y-123871905D01*
X52033333Y-123538571D01*
X52033333Y-123681429D01*
X52080952Y-123776667D01*
X52128571Y-123824286D01*
X52223810Y-123871905D01*
X52461905Y-123871905D01*
X52557143Y-123824286D01*
X52604762Y-123776667D01*
X52652381Y-123681429D01*
X52652381Y-123395714D01*
X52604762Y-123300476D01*
X52557143Y-123252857D01*
X62552381Y-121633143D02*
X62076190Y-121299809D01*
X62552381Y-121061714D02*
X61552381Y-121061714D01*
X61552381Y-121442667D01*
X61600000Y-121537905D01*
X61647619Y-121585524D01*
X61742857Y-121633143D01*
X61885714Y-121633143D01*
X61980952Y-121585524D01*
X62028571Y-121537905D01*
X62076190Y-121442667D01*
X62076190Y-121061714D01*
X61885714Y-122490286D02*
X62552381Y-122490286D01*
X61504762Y-122252190D02*
X62219048Y-122014095D01*
X62219048Y-122633143D01*
X61552381Y-123442667D02*
X61552381Y-123252190D01*
X61600000Y-123156952D01*
X61647619Y-123109333D01*
X61790476Y-123014095D01*
X61980952Y-122966476D01*
X62361905Y-122966476D01*
X62457143Y-123014095D01*
X62504762Y-123061714D01*
X62552381Y-123156952D01*
X62552381Y-123347429D01*
X62504762Y-123442667D01*
X62457143Y-123490286D01*
X62361905Y-123537905D01*
X62123810Y-123537905D01*
X62028571Y-123490286D01*
X61980952Y-123442667D01*
X61933333Y-123347429D01*
X61933333Y-123156952D01*
X61980952Y-123061714D01*
X62028571Y-123014095D01*
X62123810Y-122966476D01*
X55976381Y-121933143D02*
X55500190Y-121599809D01*
X55976381Y-121361714D02*
X54976381Y-121361714D01*
X54976381Y-121742667D01*
X55024000Y-121837905D01*
X55071619Y-121885524D01*
X55166857Y-121933143D01*
X55309714Y-121933143D01*
X55404952Y-121885524D01*
X55452571Y-121837905D01*
X55500190Y-121742667D01*
X55500190Y-121361714D01*
X55309714Y-122790286D02*
X55976381Y-122790286D01*
X54928762Y-122552190D02*
X55643048Y-122314095D01*
X55643048Y-122933143D01*
X54976381Y-123218857D02*
X54976381Y-123885524D01*
X55976381Y-123456952D01*
X106506666Y-137097143D02*
X106554285Y-137144762D01*
X106697142Y-137192381D01*
X106792380Y-137192381D01*
X106935238Y-137144762D01*
X107030476Y-137049524D01*
X107078095Y-136954286D01*
X107125714Y-136763810D01*
X107125714Y-136620952D01*
X107078095Y-136430476D01*
X107030476Y-136335238D01*
X106935238Y-136240000D01*
X106792380Y-136192381D01*
X106697142Y-136192381D01*
X106554285Y-136240000D01*
X106506666Y-136287619D01*
X105554285Y-137192381D02*
X106125714Y-137192381D01*
X105840000Y-137192381D02*
X105840000Y-136192381D01*
X105935238Y-136335238D01*
X106030476Y-136430476D01*
X106125714Y-136478095D01*
X98657143Y-77063334D02*
X98704762Y-77015715D01*
X98752381Y-76872858D01*
X98752381Y-76777620D01*
X98704762Y-76634762D01*
X98609524Y-76539524D01*
X98514286Y-76491905D01*
X98323810Y-76444286D01*
X98180952Y-76444286D01*
X97990476Y-76491905D01*
X97895238Y-76539524D01*
X97800000Y-76634762D01*
X97752381Y-76777620D01*
X97752381Y-76872858D01*
X97800000Y-77015715D01*
X97847619Y-77063334D01*
X97752381Y-77396667D02*
X97752381Y-78015715D01*
X98133333Y-77682381D01*
X98133333Y-77825239D01*
X98180952Y-77920477D01*
X98228571Y-77968096D01*
X98323810Y-78015715D01*
X98561905Y-78015715D01*
X98657143Y-77968096D01*
X98704762Y-77920477D01*
X98752381Y-77825239D01*
X98752381Y-77539524D01*
X98704762Y-77444286D01*
X98657143Y-77396667D01*
X106336666Y-77842381D02*
X106812857Y-77842381D01*
X106812857Y-76842381D01*
X105479523Y-77842381D02*
X106050952Y-77842381D01*
X105765238Y-77842381D02*
X105765238Y-76842381D01*
X105860476Y-76985238D01*
X105955714Y-77080476D01*
X106050952Y-77128095D01*
X106136666Y-81482381D02*
X106612857Y-81482381D01*
X106612857Y-80482381D01*
X105850952Y-80577619D02*
X105803333Y-80530000D01*
X105708095Y-80482381D01*
X105469999Y-80482381D01*
X105374761Y-80530000D01*
X105327142Y-80577619D01*
X105279523Y-80672857D01*
X105279523Y-80768095D01*
X105327142Y-80910952D01*
X105898571Y-81482381D01*
X105279523Y-81482381D01*
X111842381Y-88543334D02*
X111366190Y-88210000D01*
X111842381Y-87971905D02*
X110842381Y-87971905D01*
X110842381Y-88352858D01*
X110890000Y-88448096D01*
X110937619Y-88495715D01*
X111032857Y-88543334D01*
X111175714Y-88543334D01*
X111270952Y-88495715D01*
X111318571Y-88448096D01*
X111366190Y-88352858D01*
X111366190Y-87971905D01*
X111842381Y-89495715D02*
X111842381Y-88924286D01*
X111842381Y-89210000D02*
X110842381Y-89210000D01*
X110985238Y-89114762D01*
X111080476Y-89019524D01*
X111128095Y-88924286D01*
X108412381Y-88673334D02*
X107936190Y-88340000D01*
X108412381Y-88101905D02*
X107412381Y-88101905D01*
X107412381Y-88482858D01*
X107460000Y-88578096D01*
X107507619Y-88625715D01*
X107602857Y-88673334D01*
X107745714Y-88673334D01*
X107840952Y-88625715D01*
X107888571Y-88578096D01*
X107936190Y-88482858D01*
X107936190Y-88101905D01*
X107507619Y-89054286D02*
X107460000Y-89101905D01*
X107412381Y-89197143D01*
X107412381Y-89435239D01*
X107460000Y-89530477D01*
X107507619Y-89578096D01*
X107602857Y-89625715D01*
X107698095Y-89625715D01*
X107840952Y-89578096D01*
X108412381Y-89006667D01*
X108412381Y-89625715D01*
X105292381Y-88543334D02*
X104816190Y-88210000D01*
X105292381Y-87971905D02*
X104292381Y-87971905D01*
X104292381Y-88352858D01*
X104340000Y-88448096D01*
X104387619Y-88495715D01*
X104482857Y-88543334D01*
X104625714Y-88543334D01*
X104720952Y-88495715D01*
X104768571Y-88448096D01*
X104816190Y-88352858D01*
X104816190Y-87971905D01*
X104625714Y-89400477D02*
X105292381Y-89400477D01*
X104244762Y-89162381D02*
X104959048Y-88924286D01*
X104959048Y-89543334D01*
X101942381Y-96473334D02*
X101466190Y-96140000D01*
X101942381Y-95901905D02*
X100942381Y-95901905D01*
X100942381Y-96282858D01*
X100990000Y-96378096D01*
X101037619Y-96425715D01*
X101132857Y-96473334D01*
X101275714Y-96473334D01*
X101370952Y-96425715D01*
X101418571Y-96378096D01*
X101466190Y-96282858D01*
X101466190Y-95901905D01*
X100942381Y-97378096D02*
X100942381Y-96901905D01*
X101418571Y-96854286D01*
X101370952Y-96901905D01*
X101323333Y-96997143D01*
X101323333Y-97235239D01*
X101370952Y-97330477D01*
X101418571Y-97378096D01*
X101513810Y-97425715D01*
X101751905Y-97425715D01*
X101847143Y-97378096D01*
X101894762Y-97330477D01*
X101942381Y-97235239D01*
X101942381Y-96997143D01*
X101894762Y-96901905D01*
X101847143Y-96854286D01*
X73846666Y-85872381D02*
X74180000Y-85396190D01*
X74418095Y-85872381D02*
X74418095Y-84872381D01*
X74037142Y-84872381D01*
X73941904Y-84920000D01*
X73894285Y-84967619D01*
X73846666Y-85062857D01*
X73846666Y-85205714D01*
X73894285Y-85300952D01*
X73941904Y-85348571D01*
X74037142Y-85396190D01*
X74418095Y-85396190D01*
X73513333Y-84872381D02*
X72846666Y-84872381D01*
X73275238Y-85872381D01*
X73616666Y-82392381D02*
X73950000Y-81916190D01*
X74188095Y-82392381D02*
X74188095Y-81392381D01*
X73807142Y-81392381D01*
X73711904Y-81440000D01*
X73664285Y-81487619D01*
X73616666Y-81582857D01*
X73616666Y-81725714D01*
X73664285Y-81820952D01*
X73711904Y-81868571D01*
X73807142Y-81916190D01*
X74188095Y-81916190D01*
X73045238Y-81820952D02*
X73140476Y-81773333D01*
X73188095Y-81725714D01*
X73235714Y-81630476D01*
X73235714Y-81582857D01*
X73188095Y-81487619D01*
X73140476Y-81440000D01*
X73045238Y-81392381D01*
X72854761Y-81392381D01*
X72759523Y-81440000D01*
X72711904Y-81487619D01*
X72664285Y-81582857D01*
X72664285Y-81630476D01*
X72711904Y-81725714D01*
X72759523Y-81773333D01*
X72854761Y-81820952D01*
X73045238Y-81820952D01*
X73140476Y-81868571D01*
X73188095Y-81916190D01*
X73235714Y-82011429D01*
X73235714Y-82201905D01*
X73188095Y-82297143D01*
X73140476Y-82344762D01*
X73045238Y-82392381D01*
X72854761Y-82392381D01*
X72759523Y-82344762D01*
X72711904Y-82297143D01*
X72664285Y-82201905D01*
X72664285Y-82011429D01*
X72711904Y-81916190D01*
X72759523Y-81868571D01*
X72854761Y-81820952D01*
X111696666Y-74357143D02*
X111744285Y-74404762D01*
X111887142Y-74452381D01*
X111982380Y-74452381D01*
X112125238Y-74404762D01*
X112220476Y-74309524D01*
X112268095Y-74214286D01*
X112315714Y-74023810D01*
X112315714Y-73880952D01*
X112268095Y-73690476D01*
X112220476Y-73595238D01*
X112125238Y-73500000D01*
X111982380Y-73452381D01*
X111887142Y-73452381D01*
X111744285Y-73500000D01*
X111696666Y-73547619D01*
X111315714Y-73547619D02*
X111268095Y-73500000D01*
X111172857Y-73452381D01*
X110934761Y-73452381D01*
X110839523Y-73500000D01*
X110791904Y-73547619D01*
X110744285Y-73642857D01*
X110744285Y-73738095D01*
X110791904Y-73880952D01*
X111363333Y-74452381D01*
X110744285Y-74452381D01*
X106847143Y-131873334D02*
X106894762Y-131825715D01*
X106942381Y-131682858D01*
X106942381Y-131587620D01*
X106894762Y-131444762D01*
X106799524Y-131349524D01*
X106704286Y-131301905D01*
X106513810Y-131254286D01*
X106370952Y-131254286D01*
X106180476Y-131301905D01*
X106085238Y-131349524D01*
X105990000Y-131444762D01*
X105942381Y-131587620D01*
X105942381Y-131682858D01*
X105990000Y-131825715D01*
X106037619Y-131873334D01*
X106275714Y-132730477D02*
X106942381Y-132730477D01*
X105894762Y-132492381D02*
X106609048Y-132254286D01*
X106609048Y-132873334D01*
X89636666Y-115307143D02*
X89684285Y-115354762D01*
X89827142Y-115402381D01*
X89922380Y-115402381D01*
X90065238Y-115354762D01*
X90160476Y-115259524D01*
X90208095Y-115164286D01*
X90255714Y-114973810D01*
X90255714Y-114830952D01*
X90208095Y-114640476D01*
X90160476Y-114545238D01*
X90065238Y-114450000D01*
X89922380Y-114402381D01*
X89827142Y-114402381D01*
X89684285Y-114450000D01*
X89636666Y-114497619D01*
X88731904Y-114402381D02*
X89208095Y-114402381D01*
X89255714Y-114878571D01*
X89208095Y-114830952D01*
X89112857Y-114783333D01*
X88874761Y-114783333D01*
X88779523Y-114830952D01*
X88731904Y-114878571D01*
X88684285Y-114973810D01*
X88684285Y-115211905D01*
X88731904Y-115307143D01*
X88779523Y-115354762D01*
X88874761Y-115402381D01*
X89112857Y-115402381D01*
X89208095Y-115354762D01*
X89255714Y-115307143D01*
X83826666Y-115187143D02*
X83874285Y-115234762D01*
X84017142Y-115282381D01*
X84112380Y-115282381D01*
X84255238Y-115234762D01*
X84350476Y-115139524D01*
X84398095Y-115044286D01*
X84445714Y-114853810D01*
X84445714Y-114710952D01*
X84398095Y-114520476D01*
X84350476Y-114425238D01*
X84255238Y-114330000D01*
X84112380Y-114282381D01*
X84017142Y-114282381D01*
X83874285Y-114330000D01*
X83826666Y-114377619D01*
X82969523Y-114282381D02*
X83160000Y-114282381D01*
X83255238Y-114330000D01*
X83302857Y-114377619D01*
X83398095Y-114520476D01*
X83445714Y-114710952D01*
X83445714Y-115091905D01*
X83398095Y-115187143D01*
X83350476Y-115234762D01*
X83255238Y-115282381D01*
X83064761Y-115282381D01*
X82969523Y-115234762D01*
X82921904Y-115187143D01*
X82874285Y-115091905D01*
X82874285Y-114853810D01*
X82921904Y-114758571D01*
X82969523Y-114710952D01*
X83064761Y-114663333D01*
X83255238Y-114663333D01*
X83350476Y-114710952D01*
X83398095Y-114758571D01*
X83445714Y-114853810D01*
X82946666Y-100067143D02*
X82994285Y-100114762D01*
X83137142Y-100162381D01*
X83232380Y-100162381D01*
X83375238Y-100114762D01*
X83470476Y-100019524D01*
X83518095Y-99924286D01*
X83565714Y-99733810D01*
X83565714Y-99590952D01*
X83518095Y-99400476D01*
X83470476Y-99305238D01*
X83375238Y-99210000D01*
X83232380Y-99162381D01*
X83137142Y-99162381D01*
X82994285Y-99210000D01*
X82946666Y-99257619D01*
X82613333Y-99162381D02*
X81946666Y-99162381D01*
X82375238Y-100162381D01*
X84126666Y-107337143D02*
X84174285Y-107384762D01*
X84317142Y-107432381D01*
X84412380Y-107432381D01*
X84555238Y-107384762D01*
X84650476Y-107289524D01*
X84698095Y-107194286D01*
X84745714Y-107003810D01*
X84745714Y-106860952D01*
X84698095Y-106670476D01*
X84650476Y-106575238D01*
X84555238Y-106480000D01*
X84412380Y-106432381D01*
X84317142Y-106432381D01*
X84174285Y-106480000D01*
X84126666Y-106527619D01*
X83555238Y-106860952D02*
X83650476Y-106813333D01*
X83698095Y-106765714D01*
X83745714Y-106670476D01*
X83745714Y-106622857D01*
X83698095Y-106527619D01*
X83650476Y-106480000D01*
X83555238Y-106432381D01*
X83364761Y-106432381D01*
X83269523Y-106480000D01*
X83221904Y-106527619D01*
X83174285Y-106622857D01*
X83174285Y-106670476D01*
X83221904Y-106765714D01*
X83269523Y-106813333D01*
X83364761Y-106860952D01*
X83555238Y-106860952D01*
X83650476Y-106908571D01*
X83698095Y-106956190D01*
X83745714Y-107051429D01*
X83745714Y-107241905D01*
X83698095Y-107337143D01*
X83650476Y-107384762D01*
X83555238Y-107432381D01*
X83364761Y-107432381D01*
X83269523Y-107384762D01*
X83221904Y-107337143D01*
X83174285Y-107241905D01*
X83174285Y-107051429D01*
X83221904Y-106956190D01*
X83269523Y-106908571D01*
X83364761Y-106860952D01*
X75926666Y-108787143D02*
X75974285Y-108834762D01*
X76117142Y-108882381D01*
X76212380Y-108882381D01*
X76355238Y-108834762D01*
X76450476Y-108739524D01*
X76498095Y-108644286D01*
X76545714Y-108453810D01*
X76545714Y-108310952D01*
X76498095Y-108120476D01*
X76450476Y-108025238D01*
X76355238Y-107930000D01*
X76212380Y-107882381D01*
X76117142Y-107882381D01*
X75974285Y-107930000D01*
X75926666Y-107977619D01*
X75450476Y-108882381D02*
X75260000Y-108882381D01*
X75164761Y-108834762D01*
X75117142Y-108787143D01*
X75021904Y-108644286D01*
X74974285Y-108453810D01*
X74974285Y-108072857D01*
X75021904Y-107977619D01*
X75069523Y-107930000D01*
X75164761Y-107882381D01*
X75355238Y-107882381D01*
X75450476Y-107930000D01*
X75498095Y-107977619D01*
X75545714Y-108072857D01*
X75545714Y-108310952D01*
X75498095Y-108406190D01*
X75450476Y-108453810D01*
X75355238Y-108501429D01*
X75164761Y-108501429D01*
X75069523Y-108453810D01*
X75021904Y-108406190D01*
X74974285Y-108310952D01*
X75072857Y-94287143D02*
X75120476Y-94334762D01*
X75263333Y-94382381D01*
X75358571Y-94382381D01*
X75501429Y-94334762D01*
X75596667Y-94239524D01*
X75644286Y-94144286D01*
X75691905Y-93953810D01*
X75691905Y-93810952D01*
X75644286Y-93620476D01*
X75596667Y-93525238D01*
X75501429Y-93430000D01*
X75358571Y-93382381D01*
X75263333Y-93382381D01*
X75120476Y-93430000D01*
X75072857Y-93477619D01*
X74120476Y-94382381D02*
X74691905Y-94382381D01*
X74406191Y-94382381D02*
X74406191Y-93382381D01*
X74501429Y-93525238D01*
X74596667Y-93620476D01*
X74691905Y-93668095D01*
X73739524Y-93477619D02*
X73691905Y-93430000D01*
X73596667Y-93382381D01*
X73358571Y-93382381D01*
X73263333Y-93430000D01*
X73215714Y-93477619D01*
X73168095Y-93572857D01*
X73168095Y-93668095D01*
X73215714Y-93810952D01*
X73787143Y-94382381D01*
X73168095Y-94382381D01*
X116266666Y-128422381D02*
X116742857Y-128422381D01*
X116742857Y-127422381D01*
X116028571Y-127422381D02*
X115409523Y-127422381D01*
X115742857Y-127803333D01*
X115599999Y-127803333D01*
X115504761Y-127850952D01*
X115457142Y-127898571D01*
X115409523Y-127993810D01*
X115409523Y-128231905D01*
X115457142Y-128327143D01*
X115504761Y-128374762D01*
X115599999Y-128422381D01*
X115885714Y-128422381D01*
X115980952Y-128374762D01*
X116028571Y-128327143D01*
X64262857Y-108702381D02*
X64596191Y-108226190D01*
X64834286Y-108702381D02*
X64834286Y-107702381D01*
X64453333Y-107702381D01*
X64358095Y-107750000D01*
X64310476Y-107797619D01*
X64262857Y-107892857D01*
X64262857Y-108035714D01*
X64310476Y-108130952D01*
X64358095Y-108178571D01*
X64453333Y-108226190D01*
X64834286Y-108226190D01*
X63310476Y-108702381D02*
X63881905Y-108702381D01*
X63596191Y-108702381D02*
X63596191Y-107702381D01*
X63691429Y-107845238D01*
X63786667Y-107940476D01*
X63881905Y-107988095D01*
X62691429Y-107702381D02*
X62596190Y-107702381D01*
X62500952Y-107750000D01*
X62453333Y-107797619D01*
X62405714Y-107892857D01*
X62358095Y-108083333D01*
X62358095Y-108321429D01*
X62405714Y-108511905D01*
X62453333Y-108607143D01*
X62500952Y-108654762D01*
X62596190Y-108702381D01*
X62691429Y-108702381D01*
X62786667Y-108654762D01*
X62834286Y-108607143D01*
X62881905Y-108511905D01*
X62929524Y-108321429D01*
X62929524Y-108083333D01*
X62881905Y-107892857D01*
X62834286Y-107797619D01*
X62786667Y-107750000D01*
X62691429Y-107702381D01*
X87832381Y-100347143D02*
X87356190Y-100013809D01*
X87832381Y-99775714D02*
X86832381Y-99775714D01*
X86832381Y-100156667D01*
X86880000Y-100251905D01*
X86927619Y-100299524D01*
X87022857Y-100347143D01*
X87165714Y-100347143D01*
X87260952Y-100299524D01*
X87308571Y-100251905D01*
X87356190Y-100156667D01*
X87356190Y-99775714D01*
X87832381Y-101299524D02*
X87832381Y-100728095D01*
X87832381Y-101013809D02*
X86832381Y-101013809D01*
X86975238Y-100918571D01*
X87070476Y-100823333D01*
X87118095Y-100728095D01*
X87832381Y-102251905D02*
X87832381Y-101680476D01*
X87832381Y-101966190D02*
X86832381Y-101966190D01*
X86975238Y-101870952D01*
X87070476Y-101775714D01*
X87118095Y-101680476D01*
X91452381Y-100447143D02*
X90976190Y-100113809D01*
X91452381Y-99875714D02*
X90452381Y-99875714D01*
X90452381Y-100256667D01*
X90500000Y-100351905D01*
X90547619Y-100399524D01*
X90642857Y-100447143D01*
X90785714Y-100447143D01*
X90880952Y-100399524D01*
X90928571Y-100351905D01*
X90976190Y-100256667D01*
X90976190Y-99875714D01*
X91452381Y-101399524D02*
X91452381Y-100828095D01*
X91452381Y-101113809D02*
X90452381Y-101113809D01*
X90595238Y-101018571D01*
X90690476Y-100923333D01*
X90738095Y-100828095D01*
X90785714Y-102256667D02*
X91452381Y-102256667D01*
X90404762Y-102018571D02*
X91119048Y-101780476D01*
X91119048Y-102399524D01*
X75512857Y-112012381D02*
X75846191Y-111536190D01*
X76084286Y-112012381D02*
X76084286Y-111012381D01*
X75703333Y-111012381D01*
X75608095Y-111060000D01*
X75560476Y-111107619D01*
X75512857Y-111202857D01*
X75512857Y-111345714D01*
X75560476Y-111440952D01*
X75608095Y-111488571D01*
X75703333Y-111536190D01*
X76084286Y-111536190D01*
X74560476Y-112012381D02*
X75131905Y-112012381D01*
X74846191Y-112012381D02*
X74846191Y-111012381D01*
X74941429Y-111155238D01*
X75036667Y-111250476D01*
X75131905Y-111298095D01*
X73655714Y-111012381D02*
X74131905Y-111012381D01*
X74179524Y-111488571D01*
X74131905Y-111440952D01*
X74036667Y-111393333D01*
X73798571Y-111393333D01*
X73703333Y-111440952D01*
X73655714Y-111488571D01*
X73608095Y-111583810D01*
X73608095Y-111821905D01*
X73655714Y-111917143D01*
X73703333Y-111964762D01*
X73798571Y-112012381D01*
X74036667Y-112012381D01*
X74131905Y-111964762D01*
X74179524Y-111917143D01*
X62652381Y-100277143D02*
X62176190Y-99943809D01*
X62652381Y-99705714D02*
X61652381Y-99705714D01*
X61652381Y-100086667D01*
X61700000Y-100181905D01*
X61747619Y-100229524D01*
X61842857Y-100277143D01*
X61985714Y-100277143D01*
X62080952Y-100229524D01*
X62128571Y-100181905D01*
X62176190Y-100086667D01*
X62176190Y-99705714D01*
X62652381Y-101229524D02*
X62652381Y-100658095D01*
X62652381Y-100943809D02*
X61652381Y-100943809D01*
X61795238Y-100848571D01*
X61890476Y-100753333D01*
X61938095Y-100658095D01*
X61652381Y-102086667D02*
X61652381Y-101896190D01*
X61700000Y-101800952D01*
X61747619Y-101753333D01*
X61890476Y-101658095D01*
X62080952Y-101610476D01*
X62461905Y-101610476D01*
X62557143Y-101658095D01*
X62604762Y-101705714D01*
X62652381Y-101800952D01*
X62652381Y-101991429D01*
X62604762Y-102086667D01*
X62557143Y-102134286D01*
X62461905Y-102181905D01*
X62223810Y-102181905D01*
X62128571Y-102134286D01*
X62080952Y-102086667D01*
X62033333Y-101991429D01*
X62033333Y-101800952D01*
X62080952Y-101705714D01*
X62128571Y-101658095D01*
X62223810Y-101610476D01*
X59322381Y-100087143D02*
X58846190Y-99753809D01*
X59322381Y-99515714D02*
X58322381Y-99515714D01*
X58322381Y-99896667D01*
X58370000Y-99991905D01*
X58417619Y-100039524D01*
X58512857Y-100087143D01*
X58655714Y-100087143D01*
X58750952Y-100039524D01*
X58798571Y-99991905D01*
X58846190Y-99896667D01*
X58846190Y-99515714D01*
X59322381Y-101039524D02*
X59322381Y-100468095D01*
X59322381Y-100753809D02*
X58322381Y-100753809D01*
X58465238Y-100658571D01*
X58560476Y-100563333D01*
X58608095Y-100468095D01*
X58322381Y-101372857D02*
X58322381Y-102039524D01*
X59322381Y-101610952D01*
X65962381Y-99907143D02*
X65486190Y-99573809D01*
X65962381Y-99335714D02*
X64962381Y-99335714D01*
X64962381Y-99716667D01*
X65010000Y-99811905D01*
X65057619Y-99859524D01*
X65152857Y-99907143D01*
X65295714Y-99907143D01*
X65390952Y-99859524D01*
X65438571Y-99811905D01*
X65486190Y-99716667D01*
X65486190Y-99335714D01*
X65962381Y-100859524D02*
X65962381Y-100288095D01*
X65962381Y-100573809D02*
X64962381Y-100573809D01*
X65105238Y-100478571D01*
X65200476Y-100383333D01*
X65248095Y-100288095D01*
X65390952Y-101430952D02*
X65343333Y-101335714D01*
X65295714Y-101288095D01*
X65200476Y-101240476D01*
X65152857Y-101240476D01*
X65057619Y-101288095D01*
X65010000Y-101335714D01*
X64962381Y-101430952D01*
X64962381Y-101621429D01*
X65010000Y-101716667D01*
X65057619Y-101764286D01*
X65152857Y-101811905D01*
X65200476Y-101811905D01*
X65295714Y-101764286D01*
X65343333Y-101716667D01*
X65390952Y-101621429D01*
X65390952Y-101430952D01*
X65438571Y-101335714D01*
X65486190Y-101288095D01*
X65581429Y-101240476D01*
X65771905Y-101240476D01*
X65867143Y-101288095D01*
X65914762Y-101335714D01*
X65962381Y-101430952D01*
X65962381Y-101621429D01*
X65914762Y-101716667D01*
X65867143Y-101764286D01*
X65771905Y-101811905D01*
X65581429Y-101811905D01*
X65486190Y-101764286D01*
X65438571Y-101716667D01*
X65390952Y-101621429D01*
X74742857Y-90812381D02*
X75076191Y-90336190D01*
X75314286Y-90812381D02*
X75314286Y-89812381D01*
X74933333Y-89812381D01*
X74838095Y-89860000D01*
X74790476Y-89907619D01*
X74742857Y-90002857D01*
X74742857Y-90145714D01*
X74790476Y-90240952D01*
X74838095Y-90288571D01*
X74933333Y-90336190D01*
X75314286Y-90336190D01*
X73790476Y-90812381D02*
X74361905Y-90812381D01*
X74076191Y-90812381D02*
X74076191Y-89812381D01*
X74171429Y-89955238D01*
X74266667Y-90050476D01*
X74361905Y-90098095D01*
X73314286Y-90812381D02*
X73123810Y-90812381D01*
X73028571Y-90764762D01*
X72980952Y-90717143D01*
X72885714Y-90574286D01*
X72838095Y-90383810D01*
X72838095Y-90002857D01*
X72885714Y-89907619D01*
X72933333Y-89860000D01*
X73028571Y-89812381D01*
X73219048Y-89812381D01*
X73314286Y-89860000D01*
X73361905Y-89907619D01*
X73409524Y-90002857D01*
X73409524Y-90240952D01*
X73361905Y-90336190D01*
X73314286Y-90383810D01*
X73219048Y-90431429D01*
X73028571Y-90431429D01*
X72933333Y-90383810D01*
X72885714Y-90336190D01*
X72838095Y-90240952D01*
X84432381Y-89457143D02*
X83956190Y-89123809D01*
X84432381Y-88885714D02*
X83432381Y-88885714D01*
X83432381Y-89266667D01*
X83480000Y-89361905D01*
X83527619Y-89409524D01*
X83622857Y-89457143D01*
X83765714Y-89457143D01*
X83860952Y-89409524D01*
X83908571Y-89361905D01*
X83956190Y-89266667D01*
X83956190Y-88885714D01*
X83527619Y-89838095D02*
X83480000Y-89885714D01*
X83432381Y-89980952D01*
X83432381Y-90219048D01*
X83480000Y-90314286D01*
X83527619Y-90361905D01*
X83622857Y-90409524D01*
X83718095Y-90409524D01*
X83860952Y-90361905D01*
X84432381Y-89790476D01*
X84432381Y-90409524D01*
X83432381Y-91028571D02*
X83432381Y-91123810D01*
X83480000Y-91219048D01*
X83527619Y-91266667D01*
X83622857Y-91314286D01*
X83813333Y-91361905D01*
X84051429Y-91361905D01*
X84241905Y-91314286D01*
X84337143Y-91266667D01*
X84384762Y-91219048D01*
X84432381Y-91123810D01*
X84432381Y-91028571D01*
X84384762Y-90933333D01*
X84337143Y-90885714D01*
X84241905Y-90838095D01*
X84051429Y-90790476D01*
X83813333Y-90790476D01*
X83622857Y-90838095D01*
X83527619Y-90885714D01*
X83480000Y-90933333D01*
X83432381Y-91028571D01*
X80962381Y-89337143D02*
X80486190Y-89003809D01*
X80962381Y-88765714D02*
X79962381Y-88765714D01*
X79962381Y-89146667D01*
X80010000Y-89241905D01*
X80057619Y-89289524D01*
X80152857Y-89337143D01*
X80295714Y-89337143D01*
X80390952Y-89289524D01*
X80438571Y-89241905D01*
X80486190Y-89146667D01*
X80486190Y-88765714D01*
X80057619Y-89718095D02*
X80010000Y-89765714D01*
X79962381Y-89860952D01*
X79962381Y-90099048D01*
X80010000Y-90194286D01*
X80057619Y-90241905D01*
X80152857Y-90289524D01*
X80248095Y-90289524D01*
X80390952Y-90241905D01*
X80962381Y-89670476D01*
X80962381Y-90289524D01*
X80962381Y-91241905D02*
X80962381Y-90670476D01*
X80962381Y-90956190D02*
X79962381Y-90956190D01*
X80105238Y-90860952D01*
X80200476Y-90765714D01*
X80248095Y-90670476D01*
X79512381Y-100368095D02*
X80321905Y-100368095D01*
X80417143Y-100415714D01*
X80464762Y-100463333D01*
X80512381Y-100558571D01*
X80512381Y-100749048D01*
X80464762Y-100844286D01*
X80417143Y-100891905D01*
X80321905Y-100939524D01*
X79512381Y-100939524D01*
X79607619Y-101368095D02*
X79560000Y-101415714D01*
X79512381Y-101510952D01*
X79512381Y-101749048D01*
X79560000Y-101844286D01*
X79607619Y-101891905D01*
X79702857Y-101939524D01*
X79798095Y-101939524D01*
X79940952Y-101891905D01*
X80512381Y-101320476D01*
X80512381Y-101939524D01*
M02*
