%TF.GenerationSoftware,KiCad,Pcbnew,(6.0.11)*%
%TF.CreationDate,2023-02-05T16:49:19-06:00*%
%TF.ProjectId,BitBangDisplay,42697442-616e-4674-9469-73706c61792e,rev?*%
%TF.SameCoordinates,Original*%
%TF.FileFunction,Legend,Bot*%
%TF.FilePolarity,Positive*%
%FSLAX46Y46*%
G04 Gerber Fmt 4.6, Leading zero omitted, Abs format (unit mm)*
G04 Created by KiCad (PCBNEW (6.0.11)) date 2023-02-05 16:49:19*
%MOMM*%
%LPD*%
G01*
G04 APERTURE LIST*
%ADD10C,0.150000*%
%ADD11C,0.120000*%
G04 APERTURE END LIST*
D10*
X44205714Y-120994761D02*
X44062857Y-121042380D01*
X43824761Y-121042380D01*
X43729523Y-120994761D01*
X43681904Y-120947142D01*
X43634285Y-120851904D01*
X43634285Y-120756666D01*
X43681904Y-120661428D01*
X43729523Y-120613809D01*
X43824761Y-120566190D01*
X44015238Y-120518571D01*
X44110476Y-120470952D01*
X44158095Y-120423333D01*
X44205714Y-120328095D01*
X44205714Y-120232857D01*
X44158095Y-120137619D01*
X44110476Y-120090000D01*
X44015238Y-120042380D01*
X43777142Y-120042380D01*
X43634285Y-120090000D01*
X43205714Y-121042380D02*
X43205714Y-120042380D01*
X42824761Y-120042380D01*
X42729523Y-120090000D01*
X42681904Y-120137619D01*
X42634285Y-120232857D01*
X42634285Y-120375714D01*
X42681904Y-120470952D01*
X42729523Y-120518571D01*
X42824761Y-120566190D01*
X43205714Y-120566190D01*
X42205714Y-121042380D02*
X42205714Y-120042380D01*
X41634285Y-121042380D02*
X42062857Y-120470952D01*
X41634285Y-120042380D02*
X42205714Y-120613809D01*
X44063809Y-118552380D02*
X44063809Y-117552380D01*
X43682857Y-117552380D01*
X43587619Y-117600000D01*
X43540000Y-117647619D01*
X43492380Y-117742857D01*
X43492380Y-117885714D01*
X43540000Y-117980952D01*
X43587619Y-118028571D01*
X43682857Y-118076190D01*
X44063809Y-118076190D01*
X43206666Y-117552380D02*
X42635238Y-117552380D01*
X42920952Y-118552380D02*
X42920952Y-117552380D01*
X42444761Y-117552380D02*
X41873333Y-117552380D01*
X42159047Y-118552380D02*
X42159047Y-117552380D01*
X44071428Y-116032380D02*
X44071428Y-115032380D01*
X43738095Y-115746666D01*
X43404761Y-115032380D01*
X43404761Y-116032380D01*
X42928571Y-116032380D02*
X42928571Y-115032380D01*
X41880952Y-115937142D02*
X41928571Y-115984761D01*
X42071428Y-116032380D01*
X42166666Y-116032380D01*
X42309523Y-115984761D01*
X42404761Y-115889523D01*
X42452380Y-115794285D01*
X42500000Y-115603809D01*
X42500000Y-115460952D01*
X42452380Y-115270476D01*
X42404761Y-115175238D01*
X42309523Y-115080000D01*
X42166666Y-115032380D01*
X42071428Y-115032380D01*
X41928571Y-115080000D01*
X41880952Y-115127619D01*
X43811904Y-112620000D02*
X43907142Y-112572380D01*
X44050000Y-112572380D01*
X44192857Y-112620000D01*
X44288095Y-112715238D01*
X44335714Y-112810476D01*
X44383333Y-113000952D01*
X44383333Y-113143809D01*
X44335714Y-113334285D01*
X44288095Y-113429523D01*
X44192857Y-113524761D01*
X44050000Y-113572380D01*
X43954761Y-113572380D01*
X43811904Y-113524761D01*
X43764285Y-113477142D01*
X43764285Y-113143809D01*
X43954761Y-113143809D01*
X43335714Y-113572380D02*
X43335714Y-112572380D01*
X42764285Y-113572380D01*
X42764285Y-112572380D01*
X42288095Y-113572380D02*
X42288095Y-112572380D01*
X42050000Y-112572380D01*
X41907142Y-112620000D01*
X41811904Y-112715238D01*
X41764285Y-112810476D01*
X41716666Y-113000952D01*
X41716666Y-113143809D01*
X41764285Y-113334285D01*
X41811904Y-113429523D01*
X41907142Y-113524761D01*
X42050000Y-113572380D01*
X42288095Y-113572380D01*
X43780476Y-110862380D02*
X43780476Y-109862380D01*
X43209047Y-110862380D02*
X43637619Y-110290952D01*
X43209047Y-109862380D02*
X43780476Y-110433809D01*
X42828095Y-110576666D02*
X42351904Y-110576666D01*
X42923333Y-110862380D02*
X42590000Y-109862380D01*
X42256666Y-110862380D01*
X43811904Y-108106666D02*
X43335714Y-108106666D01*
X43907142Y-108392380D02*
X43573809Y-107392380D01*
X43240476Y-108392380D01*
X42907142Y-108392380D02*
X42907142Y-107392380D01*
X42335714Y-108392380D01*
X42335714Y-107392380D01*
X79674285Y-105502380D02*
X80245714Y-105502380D01*
X79960000Y-105502380D02*
X79960000Y-104502380D01*
X80055238Y-104645238D01*
X80150476Y-104740476D01*
X80245714Y-104788095D01*
X75740476Y-101622380D02*
X76216666Y-101622380D01*
X76216666Y-100622380D01*
X75407142Y-101622380D02*
X75407142Y-100622380D01*
X75073809Y-101336666D01*
X74740476Y-100622380D01*
X74740476Y-101622380D01*
X74359523Y-100622380D02*
X73740476Y-100622380D01*
X74073809Y-101003333D01*
X73930952Y-101003333D01*
X73835714Y-101050952D01*
X73788095Y-101098571D01*
X73740476Y-101193809D01*
X73740476Y-101431904D01*
X73788095Y-101527142D01*
X73835714Y-101574761D01*
X73930952Y-101622380D01*
X74216666Y-101622380D01*
X74311904Y-101574761D01*
X74359523Y-101527142D01*
X72835714Y-100622380D02*
X73311904Y-100622380D01*
X73359523Y-101098571D01*
X73311904Y-101050952D01*
X73216666Y-101003333D01*
X72978571Y-101003333D01*
X72883333Y-101050952D01*
X72835714Y-101098571D01*
X72788095Y-101193809D01*
X72788095Y-101431904D01*
X72835714Y-101527142D01*
X72883333Y-101574761D01*
X72978571Y-101622380D01*
X73216666Y-101622380D01*
X73311904Y-101574761D01*
X73359523Y-101527142D01*
X72216666Y-101050952D02*
X72311904Y-101003333D01*
X72359523Y-100955714D01*
X72407142Y-100860476D01*
X72407142Y-100812857D01*
X72359523Y-100717619D01*
X72311904Y-100670000D01*
X72216666Y-100622380D01*
X72026190Y-100622380D01*
X71930952Y-100670000D01*
X71883333Y-100717619D01*
X71835714Y-100812857D01*
X71835714Y-100860476D01*
X71883333Y-100955714D01*
X71930952Y-101003333D01*
X72026190Y-101050952D01*
X72216666Y-101050952D01*
X72311904Y-101098571D01*
X72359523Y-101146190D01*
X72407142Y-101241428D01*
X72407142Y-101431904D01*
X72359523Y-101527142D01*
X72311904Y-101574761D01*
X72216666Y-101622380D01*
X72026190Y-101622380D01*
X71930952Y-101574761D01*
X71883333Y-101527142D01*
X71835714Y-101431904D01*
X71835714Y-101241428D01*
X71883333Y-101146190D01*
X71930952Y-101098571D01*
X72026190Y-101050952D01*
X44023095Y-77582142D02*
X44070714Y-77629761D01*
X44213571Y-77677380D01*
X44308809Y-77677380D01*
X44451666Y-77629761D01*
X44546904Y-77534523D01*
X44594523Y-77439285D01*
X44642142Y-77248809D01*
X44642142Y-77105952D01*
X44594523Y-76915476D01*
X44546904Y-76820238D01*
X44451666Y-76725000D01*
X44308809Y-76677380D01*
X44213571Y-76677380D01*
X44070714Y-76725000D01*
X44023095Y-76772619D01*
X43404047Y-76677380D02*
X43213571Y-76677380D01*
X43118333Y-76725000D01*
X43023095Y-76820238D01*
X42975476Y-77010714D01*
X42975476Y-77344047D01*
X43023095Y-77534523D01*
X43118333Y-77629761D01*
X43213571Y-77677380D01*
X43404047Y-77677380D01*
X43499285Y-77629761D01*
X43594523Y-77534523D01*
X43642142Y-77344047D01*
X43642142Y-77010714D01*
X43594523Y-76820238D01*
X43499285Y-76725000D01*
X43404047Y-76677380D01*
X42546904Y-77677380D02*
X42546904Y-76677380D01*
X41975476Y-77677380D01*
X41975476Y-76677380D01*
X44303095Y-105887380D02*
X44303095Y-104887380D01*
X44065000Y-104887380D01*
X43922142Y-104935000D01*
X43826904Y-105030238D01*
X43779285Y-105125476D01*
X43731666Y-105315952D01*
X43731666Y-105458809D01*
X43779285Y-105649285D01*
X43826904Y-105744523D01*
X43922142Y-105839761D01*
X44065000Y-105887380D01*
X44303095Y-105887380D01*
X42969761Y-105363571D02*
X42826904Y-105411190D01*
X42779285Y-105458809D01*
X42731666Y-105554047D01*
X42731666Y-105696904D01*
X42779285Y-105792142D01*
X42826904Y-105839761D01*
X42922142Y-105887380D01*
X43303095Y-105887380D01*
X43303095Y-104887380D01*
X42969761Y-104887380D01*
X42874523Y-104935000D01*
X42826904Y-104982619D01*
X42779285Y-105077857D01*
X42779285Y-105173095D01*
X42826904Y-105268333D01*
X42874523Y-105315952D01*
X42969761Y-105363571D01*
X43303095Y-105363571D01*
X42398333Y-104887380D02*
X41731666Y-104887380D01*
X42160238Y-105887380D01*
X44303095Y-103127380D02*
X44303095Y-102127380D01*
X44065000Y-102127380D01*
X43922142Y-102175000D01*
X43826904Y-102270238D01*
X43779285Y-102365476D01*
X43731666Y-102555952D01*
X43731666Y-102698809D01*
X43779285Y-102889285D01*
X43826904Y-102984523D01*
X43922142Y-103079761D01*
X44065000Y-103127380D01*
X44303095Y-103127380D01*
X42969761Y-102603571D02*
X42826904Y-102651190D01*
X42779285Y-102698809D01*
X42731666Y-102794047D01*
X42731666Y-102936904D01*
X42779285Y-103032142D01*
X42826904Y-103079761D01*
X42922142Y-103127380D01*
X43303095Y-103127380D01*
X43303095Y-102127380D01*
X42969761Y-102127380D01*
X42874523Y-102175000D01*
X42826904Y-102222619D01*
X42779285Y-102317857D01*
X42779285Y-102413095D01*
X42826904Y-102508333D01*
X42874523Y-102555952D01*
X42969761Y-102603571D01*
X43303095Y-102603571D01*
X41874523Y-102127380D02*
X42065000Y-102127380D01*
X42160238Y-102175000D01*
X42207857Y-102222619D01*
X42303095Y-102365476D01*
X42350714Y-102555952D01*
X42350714Y-102936904D01*
X42303095Y-103032142D01*
X42255476Y-103079761D01*
X42160238Y-103127380D01*
X41969761Y-103127380D01*
X41874523Y-103079761D01*
X41826904Y-103032142D01*
X41779285Y-102936904D01*
X41779285Y-102698809D01*
X41826904Y-102603571D01*
X41874523Y-102555952D01*
X41969761Y-102508333D01*
X42160238Y-102508333D01*
X42255476Y-102555952D01*
X42303095Y-102603571D01*
X42350714Y-102698809D01*
X44393095Y-100467380D02*
X44393095Y-99467380D01*
X44155000Y-99467380D01*
X44012142Y-99515000D01*
X43916904Y-99610238D01*
X43869285Y-99705476D01*
X43821666Y-99895952D01*
X43821666Y-100038809D01*
X43869285Y-100229285D01*
X43916904Y-100324523D01*
X44012142Y-100419761D01*
X44155000Y-100467380D01*
X44393095Y-100467380D01*
X43059761Y-99943571D02*
X42916904Y-99991190D01*
X42869285Y-100038809D01*
X42821666Y-100134047D01*
X42821666Y-100276904D01*
X42869285Y-100372142D01*
X42916904Y-100419761D01*
X43012142Y-100467380D01*
X43393095Y-100467380D01*
X43393095Y-99467380D01*
X43059761Y-99467380D01*
X42964523Y-99515000D01*
X42916904Y-99562619D01*
X42869285Y-99657857D01*
X42869285Y-99753095D01*
X42916904Y-99848333D01*
X42964523Y-99895952D01*
X43059761Y-99943571D01*
X43393095Y-99943571D01*
X41916904Y-99467380D02*
X42393095Y-99467380D01*
X42440714Y-99943571D01*
X42393095Y-99895952D01*
X42297857Y-99848333D01*
X42059761Y-99848333D01*
X41964523Y-99895952D01*
X41916904Y-99943571D01*
X41869285Y-100038809D01*
X41869285Y-100276904D01*
X41916904Y-100372142D01*
X41964523Y-100419761D01*
X42059761Y-100467380D01*
X42297857Y-100467380D01*
X42393095Y-100419761D01*
X42440714Y-100372142D01*
X44303095Y-97977380D02*
X44303095Y-96977380D01*
X44065000Y-96977380D01*
X43922142Y-97025000D01*
X43826904Y-97120238D01*
X43779285Y-97215476D01*
X43731666Y-97405952D01*
X43731666Y-97548809D01*
X43779285Y-97739285D01*
X43826904Y-97834523D01*
X43922142Y-97929761D01*
X44065000Y-97977380D01*
X44303095Y-97977380D01*
X42969761Y-97453571D02*
X42826904Y-97501190D01*
X42779285Y-97548809D01*
X42731666Y-97644047D01*
X42731666Y-97786904D01*
X42779285Y-97882142D01*
X42826904Y-97929761D01*
X42922142Y-97977380D01*
X43303095Y-97977380D01*
X43303095Y-96977380D01*
X42969761Y-96977380D01*
X42874523Y-97025000D01*
X42826904Y-97072619D01*
X42779285Y-97167857D01*
X42779285Y-97263095D01*
X42826904Y-97358333D01*
X42874523Y-97405952D01*
X42969761Y-97453571D01*
X43303095Y-97453571D01*
X41874523Y-97310714D02*
X41874523Y-97977380D01*
X42112619Y-96929761D02*
X42350714Y-97644047D01*
X41731666Y-97644047D01*
X43286904Y-82647380D02*
X43620238Y-82171190D01*
X43858333Y-82647380D02*
X43858333Y-81647380D01*
X43477380Y-81647380D01*
X43382142Y-81695000D01*
X43334523Y-81742619D01*
X43286904Y-81837857D01*
X43286904Y-81980714D01*
X43334523Y-82075952D01*
X43382142Y-82123571D01*
X43477380Y-82171190D01*
X43858333Y-82171190D01*
X42953571Y-81647380D02*
X42715476Y-82647380D01*
X42525000Y-81933095D01*
X42334523Y-82647380D01*
X42096428Y-81647380D01*
X42879285Y-84723571D02*
X42545952Y-84723571D01*
X42403095Y-85247380D02*
X42879285Y-85247380D01*
X42879285Y-84247380D01*
X42403095Y-84247380D01*
X43161666Y-80137380D02*
X43495000Y-79661190D01*
X43733095Y-80137380D02*
X43733095Y-79137380D01*
X43352142Y-79137380D01*
X43256904Y-79185000D01*
X43209285Y-79232619D01*
X43161666Y-79327857D01*
X43161666Y-79470714D01*
X43209285Y-79565952D01*
X43256904Y-79613571D01*
X43352142Y-79661190D01*
X43733095Y-79661190D01*
X42780714Y-80089761D02*
X42637857Y-80137380D01*
X42399761Y-80137380D01*
X42304523Y-80089761D01*
X42256904Y-80042142D01*
X42209285Y-79946904D01*
X42209285Y-79851666D01*
X42256904Y-79756428D01*
X42304523Y-79708809D01*
X42399761Y-79661190D01*
X42590238Y-79613571D01*
X42685476Y-79565952D01*
X42733095Y-79518333D01*
X42780714Y-79423095D01*
X42780714Y-79327857D01*
X42733095Y-79232619D01*
X42685476Y-79185000D01*
X42590238Y-79137380D01*
X42352142Y-79137380D01*
X42209285Y-79185000D01*
X44190714Y-74706428D02*
X43428809Y-74706428D01*
X43809761Y-75087380D02*
X43809761Y-74325476D01*
X42476428Y-74087380D02*
X42952619Y-74087380D01*
X43000238Y-74563571D01*
X42952619Y-74515952D01*
X42857380Y-74468333D01*
X42619285Y-74468333D01*
X42524047Y-74515952D01*
X42476428Y-74563571D01*
X42428809Y-74658809D01*
X42428809Y-74896904D01*
X42476428Y-74992142D01*
X42524047Y-75039761D01*
X42619285Y-75087380D01*
X42857380Y-75087380D01*
X42952619Y-75039761D01*
X43000238Y-74992142D01*
X42143095Y-74087380D02*
X41809761Y-75087380D01*
X41476428Y-74087380D01*
X43886904Y-71585000D02*
X43982142Y-71537380D01*
X44125000Y-71537380D01*
X44267857Y-71585000D01*
X44363095Y-71680238D01*
X44410714Y-71775476D01*
X44458333Y-71965952D01*
X44458333Y-72108809D01*
X44410714Y-72299285D01*
X44363095Y-72394523D01*
X44267857Y-72489761D01*
X44125000Y-72537380D01*
X44029761Y-72537380D01*
X43886904Y-72489761D01*
X43839285Y-72442142D01*
X43839285Y-72108809D01*
X44029761Y-72108809D01*
X43410714Y-72537380D02*
X43410714Y-71537380D01*
X42839285Y-72537380D01*
X42839285Y-71537380D01*
X42363095Y-72537380D02*
X42363095Y-71537380D01*
X42125000Y-71537380D01*
X41982142Y-71585000D01*
X41886904Y-71680238D01*
X41839285Y-71775476D01*
X41791666Y-71965952D01*
X41791666Y-72108809D01*
X41839285Y-72299285D01*
X41886904Y-72394523D01*
X41982142Y-72489761D01*
X42125000Y-72537380D01*
X42363095Y-72537380D01*
%TO.C,C3*%
X110027142Y-79013333D02*
X110074761Y-78965714D01*
X110122380Y-78822857D01*
X110122380Y-78727619D01*
X110074761Y-78584761D01*
X109979523Y-78489523D01*
X109884285Y-78441904D01*
X109693809Y-78394285D01*
X109550952Y-78394285D01*
X109360476Y-78441904D01*
X109265238Y-78489523D01*
X109170000Y-78584761D01*
X109122380Y-78727619D01*
X109122380Y-78822857D01*
X109170000Y-78965714D01*
X109217619Y-79013333D01*
X109122380Y-79346666D02*
X109122380Y-79965714D01*
X109503333Y-79632380D01*
X109503333Y-79775238D01*
X109550952Y-79870476D01*
X109598571Y-79918095D01*
X109693809Y-79965714D01*
X109931904Y-79965714D01*
X110027142Y-79918095D01*
X110074761Y-79870476D01*
X110122380Y-79775238D01*
X110122380Y-79489523D01*
X110074761Y-79394285D01*
X110027142Y-79346666D01*
%TO.C,R3*%
X49422380Y-130259333D02*
X48946190Y-129926000D01*
X49422380Y-129687904D02*
X48422380Y-129687904D01*
X48422380Y-130068857D01*
X48470000Y-130164095D01*
X48517619Y-130211714D01*
X48612857Y-130259333D01*
X48755714Y-130259333D01*
X48850952Y-130211714D01*
X48898571Y-130164095D01*
X48946190Y-130068857D01*
X48946190Y-129687904D01*
X48422380Y-130592666D02*
X48422380Y-131211714D01*
X48803333Y-130878380D01*
X48803333Y-131021238D01*
X48850952Y-131116476D01*
X48898571Y-131164095D01*
X48993809Y-131211714D01*
X49231904Y-131211714D01*
X49327142Y-131164095D01*
X49374761Y-131116476D01*
X49422380Y-131021238D01*
X49422380Y-130735523D01*
X49374761Y-130640285D01*
X49327142Y-130592666D01*
%TO.C,R12*%
X59132380Y-129717142D02*
X58656190Y-129383809D01*
X59132380Y-129145714D02*
X58132380Y-129145714D01*
X58132380Y-129526666D01*
X58180000Y-129621904D01*
X58227619Y-129669523D01*
X58322857Y-129717142D01*
X58465714Y-129717142D01*
X58560952Y-129669523D01*
X58608571Y-129621904D01*
X58656190Y-129526666D01*
X58656190Y-129145714D01*
X59132380Y-130669523D02*
X59132380Y-130098095D01*
X59132380Y-130383809D02*
X58132380Y-130383809D01*
X58275238Y-130288571D01*
X58370476Y-130193333D01*
X58418095Y-130098095D01*
X58227619Y-131050476D02*
X58180000Y-131098095D01*
X58132380Y-131193333D01*
X58132380Y-131431428D01*
X58180000Y-131526666D01*
X58227619Y-131574285D01*
X58322857Y-131621904D01*
X58418095Y-131621904D01*
X58560952Y-131574285D01*
X59132380Y-131002857D01*
X59132380Y-131621904D01*
%TO.C,C10*%
X86642857Y-122507142D02*
X86690476Y-122554761D01*
X86833333Y-122602380D01*
X86928571Y-122602380D01*
X87071428Y-122554761D01*
X87166666Y-122459523D01*
X87214285Y-122364285D01*
X87261904Y-122173809D01*
X87261904Y-122030952D01*
X87214285Y-121840476D01*
X87166666Y-121745238D01*
X87071428Y-121650000D01*
X86928571Y-121602380D01*
X86833333Y-121602380D01*
X86690476Y-121650000D01*
X86642857Y-121697619D01*
X85690476Y-122602380D02*
X86261904Y-122602380D01*
X85976190Y-122602380D02*
X85976190Y-121602380D01*
X86071428Y-121745238D01*
X86166666Y-121840476D01*
X86261904Y-121888095D01*
X85071428Y-121602380D02*
X84976190Y-121602380D01*
X84880952Y-121650000D01*
X84833333Y-121697619D01*
X84785714Y-121792857D01*
X84738095Y-121983333D01*
X84738095Y-122221428D01*
X84785714Y-122411904D01*
X84833333Y-122507142D01*
X84880952Y-122554761D01*
X84976190Y-122602380D01*
X85071428Y-122602380D01*
X85166666Y-122554761D01*
X85214285Y-122507142D01*
X85261904Y-122411904D01*
X85309523Y-122221428D01*
X85309523Y-121983333D01*
X85261904Y-121792857D01*
X85214285Y-121697619D01*
X85166666Y-121650000D01*
X85071428Y-121602380D01*
%TO.C,C11*%
X68407142Y-128147142D02*
X68454761Y-128099523D01*
X68502380Y-127956666D01*
X68502380Y-127861428D01*
X68454761Y-127718571D01*
X68359523Y-127623333D01*
X68264285Y-127575714D01*
X68073809Y-127528095D01*
X67930952Y-127528095D01*
X67740476Y-127575714D01*
X67645238Y-127623333D01*
X67550000Y-127718571D01*
X67502380Y-127861428D01*
X67502380Y-127956666D01*
X67550000Y-128099523D01*
X67597619Y-128147142D01*
X68502380Y-129099523D02*
X68502380Y-128528095D01*
X68502380Y-128813809D02*
X67502380Y-128813809D01*
X67645238Y-128718571D01*
X67740476Y-128623333D01*
X67788095Y-128528095D01*
X68502380Y-130051904D02*
X68502380Y-129480476D01*
X68502380Y-129766190D02*
X67502380Y-129766190D01*
X67645238Y-129670952D01*
X67740476Y-129575714D01*
X67788095Y-129480476D01*
%TO.C,C16*%
X68327142Y-133617142D02*
X68374761Y-133569523D01*
X68422380Y-133426666D01*
X68422380Y-133331428D01*
X68374761Y-133188571D01*
X68279523Y-133093333D01*
X68184285Y-133045714D01*
X67993809Y-132998095D01*
X67850952Y-132998095D01*
X67660476Y-133045714D01*
X67565238Y-133093333D01*
X67470000Y-133188571D01*
X67422380Y-133331428D01*
X67422380Y-133426666D01*
X67470000Y-133569523D01*
X67517619Y-133617142D01*
X68422380Y-134569523D02*
X68422380Y-133998095D01*
X68422380Y-134283809D02*
X67422380Y-134283809D01*
X67565238Y-134188571D01*
X67660476Y-134093333D01*
X67708095Y-133998095D01*
X67422380Y-135426666D02*
X67422380Y-135236190D01*
X67470000Y-135140952D01*
X67517619Y-135093333D01*
X67660476Y-134998095D01*
X67850952Y-134950476D01*
X68231904Y-134950476D01*
X68327142Y-134998095D01*
X68374761Y-135045714D01*
X68422380Y-135140952D01*
X68422380Y-135331428D01*
X68374761Y-135426666D01*
X68327142Y-135474285D01*
X68231904Y-135521904D01*
X67993809Y-135521904D01*
X67898571Y-135474285D01*
X67850952Y-135426666D01*
X67803333Y-135331428D01*
X67803333Y-135140952D01*
X67850952Y-135045714D01*
X67898571Y-134998095D01*
X67993809Y-134950476D01*
%TO.C,C17*%
X86532857Y-135507142D02*
X86580476Y-135554761D01*
X86723333Y-135602380D01*
X86818571Y-135602380D01*
X86961428Y-135554761D01*
X87056666Y-135459523D01*
X87104285Y-135364285D01*
X87151904Y-135173809D01*
X87151904Y-135030952D01*
X87104285Y-134840476D01*
X87056666Y-134745238D01*
X86961428Y-134650000D01*
X86818571Y-134602380D01*
X86723333Y-134602380D01*
X86580476Y-134650000D01*
X86532857Y-134697619D01*
X85580476Y-135602380D02*
X86151904Y-135602380D01*
X85866190Y-135602380D02*
X85866190Y-134602380D01*
X85961428Y-134745238D01*
X86056666Y-134840476D01*
X86151904Y-134888095D01*
X85247142Y-134602380D02*
X84580476Y-134602380D01*
X85009047Y-135602380D01*
%TO.C,R6*%
X46092380Y-130173333D02*
X45616190Y-129840000D01*
X46092380Y-129601904D02*
X45092380Y-129601904D01*
X45092380Y-129982857D01*
X45140000Y-130078095D01*
X45187619Y-130125714D01*
X45282857Y-130173333D01*
X45425714Y-130173333D01*
X45520952Y-130125714D01*
X45568571Y-130078095D01*
X45616190Y-129982857D01*
X45616190Y-129601904D01*
X45092380Y-131030476D02*
X45092380Y-130840000D01*
X45140000Y-130744761D01*
X45187619Y-130697142D01*
X45330476Y-130601904D01*
X45520952Y-130554285D01*
X45901904Y-130554285D01*
X45997142Y-130601904D01*
X46044761Y-130649523D01*
X46092380Y-130744761D01*
X46092380Y-130935238D01*
X46044761Y-131030476D01*
X45997142Y-131078095D01*
X45901904Y-131125714D01*
X45663809Y-131125714D01*
X45568571Y-131078095D01*
X45520952Y-131030476D01*
X45473333Y-130935238D01*
X45473333Y-130744761D01*
X45520952Y-130649523D01*
X45568571Y-130601904D01*
X45663809Y-130554285D01*
%TO.C,R13*%
X65662380Y-129483142D02*
X65186190Y-129149809D01*
X65662380Y-128911714D02*
X64662380Y-128911714D01*
X64662380Y-129292666D01*
X64710000Y-129387904D01*
X64757619Y-129435523D01*
X64852857Y-129483142D01*
X64995714Y-129483142D01*
X65090952Y-129435523D01*
X65138571Y-129387904D01*
X65186190Y-129292666D01*
X65186190Y-128911714D01*
X65662380Y-130435523D02*
X65662380Y-129864095D01*
X65662380Y-130149809D02*
X64662380Y-130149809D01*
X64805238Y-130054571D01*
X64900476Y-129959333D01*
X64948095Y-129864095D01*
X64662380Y-130768857D02*
X64662380Y-131387904D01*
X65043333Y-131054571D01*
X65043333Y-131197428D01*
X65090952Y-131292666D01*
X65138571Y-131340285D01*
X65233809Y-131387904D01*
X65471904Y-131387904D01*
X65567142Y-131340285D01*
X65614761Y-131292666D01*
X65662380Y-131197428D01*
X65662380Y-130911714D01*
X65614761Y-130816476D01*
X65567142Y-130768857D01*
%TO.C,R29*%
X42878380Y-129683142D02*
X42402190Y-129349809D01*
X42878380Y-129111714D02*
X41878380Y-129111714D01*
X41878380Y-129492666D01*
X41926000Y-129587904D01*
X41973619Y-129635523D01*
X42068857Y-129683142D01*
X42211714Y-129683142D01*
X42306952Y-129635523D01*
X42354571Y-129587904D01*
X42402190Y-129492666D01*
X42402190Y-129111714D01*
X41973619Y-130064095D02*
X41926000Y-130111714D01*
X41878380Y-130206952D01*
X41878380Y-130445047D01*
X41926000Y-130540285D01*
X41973619Y-130587904D01*
X42068857Y-130635523D01*
X42164095Y-130635523D01*
X42306952Y-130587904D01*
X42878380Y-130016476D01*
X42878380Y-130635523D01*
X42878380Y-131111714D02*
X42878380Y-131302190D01*
X42830761Y-131397428D01*
X42783142Y-131445047D01*
X42640285Y-131540285D01*
X42449809Y-131587904D01*
X42068857Y-131587904D01*
X41973619Y-131540285D01*
X41926000Y-131492666D01*
X41878380Y-131397428D01*
X41878380Y-131206952D01*
X41926000Y-131111714D01*
X41973619Y-131064095D01*
X42068857Y-131016476D01*
X42306952Y-131016476D01*
X42402190Y-131064095D01*
X42449809Y-131111714D01*
X42497428Y-131206952D01*
X42497428Y-131397428D01*
X42449809Y-131492666D01*
X42402190Y-131540285D01*
X42306952Y-131587904D01*
%TO.C,R33*%
X52672380Y-129737142D02*
X52196190Y-129403809D01*
X52672380Y-129165714D02*
X51672380Y-129165714D01*
X51672380Y-129546666D01*
X51720000Y-129641904D01*
X51767619Y-129689523D01*
X51862857Y-129737142D01*
X52005714Y-129737142D01*
X52100952Y-129689523D01*
X52148571Y-129641904D01*
X52196190Y-129546666D01*
X52196190Y-129165714D01*
X51672380Y-130070476D02*
X51672380Y-130689523D01*
X52053333Y-130356190D01*
X52053333Y-130499047D01*
X52100952Y-130594285D01*
X52148571Y-130641904D01*
X52243809Y-130689523D01*
X52481904Y-130689523D01*
X52577142Y-130641904D01*
X52624761Y-130594285D01*
X52672380Y-130499047D01*
X52672380Y-130213333D01*
X52624761Y-130118095D01*
X52577142Y-130070476D01*
X51672380Y-131022857D02*
X51672380Y-131641904D01*
X52053333Y-131308571D01*
X52053333Y-131451428D01*
X52100952Y-131546666D01*
X52148571Y-131594285D01*
X52243809Y-131641904D01*
X52481904Y-131641904D01*
X52577142Y-131594285D01*
X52624761Y-131546666D01*
X52672380Y-131451428D01*
X52672380Y-131165714D01*
X52624761Y-131070476D01*
X52577142Y-131022857D01*
%TO.C,R46*%
X62392380Y-129483142D02*
X61916190Y-129149809D01*
X62392380Y-128911714D02*
X61392380Y-128911714D01*
X61392380Y-129292666D01*
X61440000Y-129387904D01*
X61487619Y-129435523D01*
X61582857Y-129483142D01*
X61725714Y-129483142D01*
X61820952Y-129435523D01*
X61868571Y-129387904D01*
X61916190Y-129292666D01*
X61916190Y-128911714D01*
X61725714Y-130340285D02*
X62392380Y-130340285D01*
X61344761Y-130102190D02*
X62059047Y-129864095D01*
X62059047Y-130483142D01*
X61392380Y-131292666D02*
X61392380Y-131102190D01*
X61440000Y-131006952D01*
X61487619Y-130959333D01*
X61630476Y-130864095D01*
X61820952Y-130816476D01*
X62201904Y-130816476D01*
X62297142Y-130864095D01*
X62344761Y-130911714D01*
X62392380Y-131006952D01*
X62392380Y-131197428D01*
X62344761Y-131292666D01*
X62297142Y-131340285D01*
X62201904Y-131387904D01*
X61963809Y-131387904D01*
X61868571Y-131340285D01*
X61820952Y-131292666D01*
X61773333Y-131197428D01*
X61773333Y-131006952D01*
X61820952Y-130911714D01*
X61868571Y-130864095D01*
X61963809Y-130816476D01*
%TO.C,R47*%
X55936380Y-129723142D02*
X55460190Y-129389809D01*
X55936380Y-129151714D02*
X54936380Y-129151714D01*
X54936380Y-129532666D01*
X54984000Y-129627904D01*
X55031619Y-129675523D01*
X55126857Y-129723142D01*
X55269714Y-129723142D01*
X55364952Y-129675523D01*
X55412571Y-129627904D01*
X55460190Y-129532666D01*
X55460190Y-129151714D01*
X55269714Y-130580285D02*
X55936380Y-130580285D01*
X54888761Y-130342190D02*
X55603047Y-130104095D01*
X55603047Y-130723142D01*
X54936380Y-131008857D02*
X54936380Y-131675523D01*
X55936380Y-131246952D01*
%TO.C,C1*%
X106506666Y-137097142D02*
X106554285Y-137144761D01*
X106697142Y-137192380D01*
X106792380Y-137192380D01*
X106935238Y-137144761D01*
X107030476Y-137049523D01*
X107078095Y-136954285D01*
X107125714Y-136763809D01*
X107125714Y-136620952D01*
X107078095Y-136430476D01*
X107030476Y-136335238D01*
X106935238Y-136240000D01*
X106792380Y-136192380D01*
X106697142Y-136192380D01*
X106554285Y-136240000D01*
X106506666Y-136287619D01*
X105554285Y-137192380D02*
X106125714Y-137192380D01*
X105840000Y-137192380D02*
X105840000Y-136192380D01*
X105935238Y-136335238D01*
X106030476Y-136430476D01*
X106125714Y-136478095D01*
%TO.C,L1*%
X118796666Y-81192380D02*
X119272857Y-81192380D01*
X119272857Y-80192380D01*
X117939523Y-81192380D02*
X118510952Y-81192380D01*
X118225238Y-81192380D02*
X118225238Y-80192380D01*
X118320476Y-80335238D01*
X118415714Y-80430476D01*
X118510952Y-80478095D01*
%TO.C,L2*%
X118646666Y-77842380D02*
X119122857Y-77842380D01*
X119122857Y-76842380D01*
X118360952Y-76937619D02*
X118313333Y-76890000D01*
X118218095Y-76842380D01*
X117980000Y-76842380D01*
X117884761Y-76890000D01*
X117837142Y-76937619D01*
X117789523Y-77032857D01*
X117789523Y-77128095D01*
X117837142Y-77270952D01*
X118408571Y-77842380D01*
X117789523Y-77842380D01*
%TO.C,R1*%
X94406666Y-90312380D02*
X94740000Y-89836190D01*
X94978095Y-90312380D02*
X94978095Y-89312380D01*
X94597142Y-89312380D01*
X94501904Y-89360000D01*
X94454285Y-89407619D01*
X94406666Y-89502857D01*
X94406666Y-89645714D01*
X94454285Y-89740952D01*
X94501904Y-89788571D01*
X94597142Y-89836190D01*
X94978095Y-89836190D01*
X93454285Y-90312380D02*
X94025714Y-90312380D01*
X93740000Y-90312380D02*
X93740000Y-89312380D01*
X93835238Y-89455238D01*
X93930476Y-89550476D01*
X94025714Y-89598095D01*
%TO.C,R2*%
X94116666Y-87062380D02*
X94450000Y-86586190D01*
X94688095Y-87062380D02*
X94688095Y-86062380D01*
X94307142Y-86062380D01*
X94211904Y-86110000D01*
X94164285Y-86157619D01*
X94116666Y-86252857D01*
X94116666Y-86395714D01*
X94164285Y-86490952D01*
X94211904Y-86538571D01*
X94307142Y-86586190D01*
X94688095Y-86586190D01*
X93735714Y-86157619D02*
X93688095Y-86110000D01*
X93592857Y-86062380D01*
X93354761Y-86062380D01*
X93259523Y-86110000D01*
X93211904Y-86157619D01*
X93164285Y-86252857D01*
X93164285Y-86348095D01*
X93211904Y-86490952D01*
X93783333Y-87062380D01*
X93164285Y-87062380D01*
%TO.C,R4*%
X88082380Y-89773333D02*
X87606190Y-89440000D01*
X88082380Y-89201904D02*
X87082380Y-89201904D01*
X87082380Y-89582857D01*
X87130000Y-89678095D01*
X87177619Y-89725714D01*
X87272857Y-89773333D01*
X87415714Y-89773333D01*
X87510952Y-89725714D01*
X87558571Y-89678095D01*
X87606190Y-89582857D01*
X87606190Y-89201904D01*
X87415714Y-90630476D02*
X88082380Y-90630476D01*
X87034761Y-90392380D02*
X87749047Y-90154285D01*
X87749047Y-90773333D01*
%TO.C,R5*%
X94572380Y-100893333D02*
X94096190Y-100560000D01*
X94572380Y-100321904D02*
X93572380Y-100321904D01*
X93572380Y-100702857D01*
X93620000Y-100798095D01*
X93667619Y-100845714D01*
X93762857Y-100893333D01*
X93905714Y-100893333D01*
X94000952Y-100845714D01*
X94048571Y-100798095D01*
X94096190Y-100702857D01*
X94096190Y-100321904D01*
X93572380Y-101798095D02*
X93572380Y-101321904D01*
X94048571Y-101274285D01*
X94000952Y-101321904D01*
X93953333Y-101417142D01*
X93953333Y-101655238D01*
X94000952Y-101750476D01*
X94048571Y-101798095D01*
X94143809Y-101845714D01*
X94381904Y-101845714D01*
X94477142Y-101798095D01*
X94524761Y-101750476D01*
X94572380Y-101655238D01*
X94572380Y-101417142D01*
X94524761Y-101321904D01*
X94477142Y-101274285D01*
%TO.C,R7*%
X73846666Y-85872380D02*
X74180000Y-85396190D01*
X74418095Y-85872380D02*
X74418095Y-84872380D01*
X74037142Y-84872380D01*
X73941904Y-84920000D01*
X73894285Y-84967619D01*
X73846666Y-85062857D01*
X73846666Y-85205714D01*
X73894285Y-85300952D01*
X73941904Y-85348571D01*
X74037142Y-85396190D01*
X74418095Y-85396190D01*
X73513333Y-84872380D02*
X72846666Y-84872380D01*
X73275238Y-85872380D01*
%TO.C,R8*%
X73616666Y-82392380D02*
X73950000Y-81916190D01*
X74188095Y-82392380D02*
X74188095Y-81392380D01*
X73807142Y-81392380D01*
X73711904Y-81440000D01*
X73664285Y-81487619D01*
X73616666Y-81582857D01*
X73616666Y-81725714D01*
X73664285Y-81820952D01*
X73711904Y-81868571D01*
X73807142Y-81916190D01*
X74188095Y-81916190D01*
X73045238Y-81820952D02*
X73140476Y-81773333D01*
X73188095Y-81725714D01*
X73235714Y-81630476D01*
X73235714Y-81582857D01*
X73188095Y-81487619D01*
X73140476Y-81440000D01*
X73045238Y-81392380D01*
X72854761Y-81392380D01*
X72759523Y-81440000D01*
X72711904Y-81487619D01*
X72664285Y-81582857D01*
X72664285Y-81630476D01*
X72711904Y-81725714D01*
X72759523Y-81773333D01*
X72854761Y-81820952D01*
X73045238Y-81820952D01*
X73140476Y-81868571D01*
X73188095Y-81916190D01*
X73235714Y-82011428D01*
X73235714Y-82201904D01*
X73188095Y-82297142D01*
X73140476Y-82344761D01*
X73045238Y-82392380D01*
X72854761Y-82392380D01*
X72759523Y-82344761D01*
X72711904Y-82297142D01*
X72664285Y-82201904D01*
X72664285Y-82011428D01*
X72711904Y-81916190D01*
X72759523Y-81868571D01*
X72854761Y-81820952D01*
%TO.C,C2*%
X121536666Y-74357142D02*
X121584285Y-74404761D01*
X121727142Y-74452380D01*
X121822380Y-74452380D01*
X121965238Y-74404761D01*
X122060476Y-74309523D01*
X122108095Y-74214285D01*
X122155714Y-74023809D01*
X122155714Y-73880952D01*
X122108095Y-73690476D01*
X122060476Y-73595238D01*
X121965238Y-73500000D01*
X121822380Y-73452380D01*
X121727142Y-73452380D01*
X121584285Y-73500000D01*
X121536666Y-73547619D01*
X121155714Y-73547619D02*
X121108095Y-73500000D01*
X121012857Y-73452380D01*
X120774761Y-73452380D01*
X120679523Y-73500000D01*
X120631904Y-73547619D01*
X120584285Y-73642857D01*
X120584285Y-73738095D01*
X120631904Y-73880952D01*
X121203333Y-74452380D01*
X120584285Y-74452380D01*
%TO.C,C4*%
X106847142Y-131873333D02*
X106894761Y-131825714D01*
X106942380Y-131682857D01*
X106942380Y-131587619D01*
X106894761Y-131444761D01*
X106799523Y-131349523D01*
X106704285Y-131301904D01*
X106513809Y-131254285D01*
X106370952Y-131254285D01*
X106180476Y-131301904D01*
X106085238Y-131349523D01*
X105990000Y-131444761D01*
X105942380Y-131587619D01*
X105942380Y-131682857D01*
X105990000Y-131825714D01*
X106037619Y-131873333D01*
X106275714Y-132730476D02*
X106942380Y-132730476D01*
X105894761Y-132492380D02*
X106609047Y-132254285D01*
X106609047Y-132873333D01*
%TO.C,C5*%
X89636666Y-115307142D02*
X89684285Y-115354761D01*
X89827142Y-115402380D01*
X89922380Y-115402380D01*
X90065238Y-115354761D01*
X90160476Y-115259523D01*
X90208095Y-115164285D01*
X90255714Y-114973809D01*
X90255714Y-114830952D01*
X90208095Y-114640476D01*
X90160476Y-114545238D01*
X90065238Y-114450000D01*
X89922380Y-114402380D01*
X89827142Y-114402380D01*
X89684285Y-114450000D01*
X89636666Y-114497619D01*
X88731904Y-114402380D02*
X89208095Y-114402380D01*
X89255714Y-114878571D01*
X89208095Y-114830952D01*
X89112857Y-114783333D01*
X88874761Y-114783333D01*
X88779523Y-114830952D01*
X88731904Y-114878571D01*
X88684285Y-114973809D01*
X88684285Y-115211904D01*
X88731904Y-115307142D01*
X88779523Y-115354761D01*
X88874761Y-115402380D01*
X89112857Y-115402380D01*
X89208095Y-115354761D01*
X89255714Y-115307142D01*
%TO.C,C6*%
X83826666Y-115187142D02*
X83874285Y-115234761D01*
X84017142Y-115282380D01*
X84112380Y-115282380D01*
X84255238Y-115234761D01*
X84350476Y-115139523D01*
X84398095Y-115044285D01*
X84445714Y-114853809D01*
X84445714Y-114710952D01*
X84398095Y-114520476D01*
X84350476Y-114425238D01*
X84255238Y-114330000D01*
X84112380Y-114282380D01*
X84017142Y-114282380D01*
X83874285Y-114330000D01*
X83826666Y-114377619D01*
X82969523Y-114282380D02*
X83160000Y-114282380D01*
X83255238Y-114330000D01*
X83302857Y-114377619D01*
X83398095Y-114520476D01*
X83445714Y-114710952D01*
X83445714Y-115091904D01*
X83398095Y-115187142D01*
X83350476Y-115234761D01*
X83255238Y-115282380D01*
X83064761Y-115282380D01*
X82969523Y-115234761D01*
X82921904Y-115187142D01*
X82874285Y-115091904D01*
X82874285Y-114853809D01*
X82921904Y-114758571D01*
X82969523Y-114710952D01*
X83064761Y-114663333D01*
X83255238Y-114663333D01*
X83350476Y-114710952D01*
X83398095Y-114758571D01*
X83445714Y-114853809D01*
%TO.C,C7*%
X82946666Y-100067142D02*
X82994285Y-100114761D01*
X83137142Y-100162380D01*
X83232380Y-100162380D01*
X83375238Y-100114761D01*
X83470476Y-100019523D01*
X83518095Y-99924285D01*
X83565714Y-99733809D01*
X83565714Y-99590952D01*
X83518095Y-99400476D01*
X83470476Y-99305238D01*
X83375238Y-99210000D01*
X83232380Y-99162380D01*
X83137142Y-99162380D01*
X82994285Y-99210000D01*
X82946666Y-99257619D01*
X82613333Y-99162380D02*
X81946666Y-99162380D01*
X82375238Y-100162380D01*
%TO.C,C8*%
X84126666Y-107337142D02*
X84174285Y-107384761D01*
X84317142Y-107432380D01*
X84412380Y-107432380D01*
X84555238Y-107384761D01*
X84650476Y-107289523D01*
X84698095Y-107194285D01*
X84745714Y-107003809D01*
X84745714Y-106860952D01*
X84698095Y-106670476D01*
X84650476Y-106575238D01*
X84555238Y-106480000D01*
X84412380Y-106432380D01*
X84317142Y-106432380D01*
X84174285Y-106480000D01*
X84126666Y-106527619D01*
X83555238Y-106860952D02*
X83650476Y-106813333D01*
X83698095Y-106765714D01*
X83745714Y-106670476D01*
X83745714Y-106622857D01*
X83698095Y-106527619D01*
X83650476Y-106480000D01*
X83555238Y-106432380D01*
X83364761Y-106432380D01*
X83269523Y-106480000D01*
X83221904Y-106527619D01*
X83174285Y-106622857D01*
X83174285Y-106670476D01*
X83221904Y-106765714D01*
X83269523Y-106813333D01*
X83364761Y-106860952D01*
X83555238Y-106860952D01*
X83650476Y-106908571D01*
X83698095Y-106956190D01*
X83745714Y-107051428D01*
X83745714Y-107241904D01*
X83698095Y-107337142D01*
X83650476Y-107384761D01*
X83555238Y-107432380D01*
X83364761Y-107432380D01*
X83269523Y-107384761D01*
X83221904Y-107337142D01*
X83174285Y-107241904D01*
X83174285Y-107051428D01*
X83221904Y-106956190D01*
X83269523Y-106908571D01*
X83364761Y-106860952D01*
%TO.C,C9*%
X75926666Y-108787142D02*
X75974285Y-108834761D01*
X76117142Y-108882380D01*
X76212380Y-108882380D01*
X76355238Y-108834761D01*
X76450476Y-108739523D01*
X76498095Y-108644285D01*
X76545714Y-108453809D01*
X76545714Y-108310952D01*
X76498095Y-108120476D01*
X76450476Y-108025238D01*
X76355238Y-107930000D01*
X76212380Y-107882380D01*
X76117142Y-107882380D01*
X75974285Y-107930000D01*
X75926666Y-107977619D01*
X75450476Y-108882380D02*
X75260000Y-108882380D01*
X75164761Y-108834761D01*
X75117142Y-108787142D01*
X75021904Y-108644285D01*
X74974285Y-108453809D01*
X74974285Y-108072857D01*
X75021904Y-107977619D01*
X75069523Y-107930000D01*
X75164761Y-107882380D01*
X75355238Y-107882380D01*
X75450476Y-107930000D01*
X75498095Y-107977619D01*
X75545714Y-108072857D01*
X75545714Y-108310952D01*
X75498095Y-108406190D01*
X75450476Y-108453809D01*
X75355238Y-108501428D01*
X75164761Y-108501428D01*
X75069523Y-108453809D01*
X75021904Y-108406190D01*
X74974285Y-108310952D01*
%TO.C,C12*%
X75072857Y-94287142D02*
X75120476Y-94334761D01*
X75263333Y-94382380D01*
X75358571Y-94382380D01*
X75501428Y-94334761D01*
X75596666Y-94239523D01*
X75644285Y-94144285D01*
X75691904Y-93953809D01*
X75691904Y-93810952D01*
X75644285Y-93620476D01*
X75596666Y-93525238D01*
X75501428Y-93430000D01*
X75358571Y-93382380D01*
X75263333Y-93382380D01*
X75120476Y-93430000D01*
X75072857Y-93477619D01*
X74120476Y-94382380D02*
X74691904Y-94382380D01*
X74406190Y-94382380D02*
X74406190Y-93382380D01*
X74501428Y-93525238D01*
X74596666Y-93620476D01*
X74691904Y-93668095D01*
X73739523Y-93477619D02*
X73691904Y-93430000D01*
X73596666Y-93382380D01*
X73358571Y-93382380D01*
X73263333Y-93430000D01*
X73215714Y-93477619D01*
X73168095Y-93572857D01*
X73168095Y-93668095D01*
X73215714Y-93810952D01*
X73787142Y-94382380D01*
X73168095Y-94382380D01*
%TO.C,L3*%
X96886666Y-116102380D02*
X97362857Y-116102380D01*
X97362857Y-115102380D01*
X96648571Y-115102380D02*
X96029523Y-115102380D01*
X96362857Y-115483333D01*
X96220000Y-115483333D01*
X96124761Y-115530952D01*
X96077142Y-115578571D01*
X96029523Y-115673809D01*
X96029523Y-115911904D01*
X96077142Y-116007142D01*
X96124761Y-116054761D01*
X96220000Y-116102380D01*
X96505714Y-116102380D01*
X96600952Y-116054761D01*
X96648571Y-116007142D01*
%TO.C,R9*%
X73686666Y-115222380D02*
X74020000Y-114746190D01*
X74258095Y-115222380D02*
X74258095Y-114222380D01*
X73877142Y-114222380D01*
X73781904Y-114270000D01*
X73734285Y-114317619D01*
X73686666Y-114412857D01*
X73686666Y-114555714D01*
X73734285Y-114650952D01*
X73781904Y-114698571D01*
X73877142Y-114746190D01*
X74258095Y-114746190D01*
X73210476Y-115222380D02*
X73020000Y-115222380D01*
X72924761Y-115174761D01*
X72877142Y-115127142D01*
X72781904Y-114984285D01*
X72734285Y-114793809D01*
X72734285Y-114412857D01*
X72781904Y-114317619D01*
X72829523Y-114270000D01*
X72924761Y-114222380D01*
X73115238Y-114222380D01*
X73210476Y-114270000D01*
X73258095Y-114317619D01*
X73305714Y-114412857D01*
X73305714Y-114650952D01*
X73258095Y-114746190D01*
X73210476Y-114793809D01*
X73115238Y-114841428D01*
X72924761Y-114841428D01*
X72829523Y-114793809D01*
X72781904Y-114746190D01*
X72734285Y-114650952D01*
%TO.C,R10*%
X64262857Y-108702380D02*
X64596190Y-108226190D01*
X64834285Y-108702380D02*
X64834285Y-107702380D01*
X64453333Y-107702380D01*
X64358095Y-107750000D01*
X64310476Y-107797619D01*
X64262857Y-107892857D01*
X64262857Y-108035714D01*
X64310476Y-108130952D01*
X64358095Y-108178571D01*
X64453333Y-108226190D01*
X64834285Y-108226190D01*
X63310476Y-108702380D02*
X63881904Y-108702380D01*
X63596190Y-108702380D02*
X63596190Y-107702380D01*
X63691428Y-107845238D01*
X63786666Y-107940476D01*
X63881904Y-107988095D01*
X62691428Y-107702380D02*
X62596190Y-107702380D01*
X62500952Y-107750000D01*
X62453333Y-107797619D01*
X62405714Y-107892857D01*
X62358095Y-108083333D01*
X62358095Y-108321428D01*
X62405714Y-108511904D01*
X62453333Y-108607142D01*
X62500952Y-108654761D01*
X62596190Y-108702380D01*
X62691428Y-108702380D01*
X62786666Y-108654761D01*
X62834285Y-108607142D01*
X62881904Y-108511904D01*
X62929523Y-108321428D01*
X62929523Y-108083333D01*
X62881904Y-107892857D01*
X62834285Y-107797619D01*
X62786666Y-107750000D01*
X62691428Y-107702380D01*
%TO.C,R11*%
X87832380Y-100347142D02*
X87356190Y-100013809D01*
X87832380Y-99775714D02*
X86832380Y-99775714D01*
X86832380Y-100156666D01*
X86880000Y-100251904D01*
X86927619Y-100299523D01*
X87022857Y-100347142D01*
X87165714Y-100347142D01*
X87260952Y-100299523D01*
X87308571Y-100251904D01*
X87356190Y-100156666D01*
X87356190Y-99775714D01*
X87832380Y-101299523D02*
X87832380Y-100728095D01*
X87832380Y-101013809D02*
X86832380Y-101013809D01*
X86975238Y-100918571D01*
X87070476Y-100823333D01*
X87118095Y-100728095D01*
X87832380Y-102251904D02*
X87832380Y-101680476D01*
X87832380Y-101966190D02*
X86832380Y-101966190D01*
X86975238Y-101870952D01*
X87070476Y-101775714D01*
X87118095Y-101680476D01*
%TO.C,R14*%
X91452380Y-100447142D02*
X90976190Y-100113809D01*
X91452380Y-99875714D02*
X90452380Y-99875714D01*
X90452380Y-100256666D01*
X90500000Y-100351904D01*
X90547619Y-100399523D01*
X90642857Y-100447142D01*
X90785714Y-100447142D01*
X90880952Y-100399523D01*
X90928571Y-100351904D01*
X90976190Y-100256666D01*
X90976190Y-99875714D01*
X91452380Y-101399523D02*
X91452380Y-100828095D01*
X91452380Y-101113809D02*
X90452380Y-101113809D01*
X90595238Y-101018571D01*
X90690476Y-100923333D01*
X90738095Y-100828095D01*
X90785714Y-102256666D02*
X91452380Y-102256666D01*
X90404761Y-102018571D02*
X91119047Y-101780476D01*
X91119047Y-102399523D01*
%TO.C,R15*%
X75512857Y-112012380D02*
X75846190Y-111536190D01*
X76084285Y-112012380D02*
X76084285Y-111012380D01*
X75703333Y-111012380D01*
X75608095Y-111060000D01*
X75560476Y-111107619D01*
X75512857Y-111202857D01*
X75512857Y-111345714D01*
X75560476Y-111440952D01*
X75608095Y-111488571D01*
X75703333Y-111536190D01*
X76084285Y-111536190D01*
X74560476Y-112012380D02*
X75131904Y-112012380D01*
X74846190Y-112012380D02*
X74846190Y-111012380D01*
X74941428Y-111155238D01*
X75036666Y-111250476D01*
X75131904Y-111298095D01*
X73655714Y-111012380D02*
X74131904Y-111012380D01*
X74179523Y-111488571D01*
X74131904Y-111440952D01*
X74036666Y-111393333D01*
X73798571Y-111393333D01*
X73703333Y-111440952D01*
X73655714Y-111488571D01*
X73608095Y-111583809D01*
X73608095Y-111821904D01*
X73655714Y-111917142D01*
X73703333Y-111964761D01*
X73798571Y-112012380D01*
X74036666Y-112012380D01*
X74131904Y-111964761D01*
X74179523Y-111917142D01*
%TO.C,R16*%
X62652380Y-100277142D02*
X62176190Y-99943809D01*
X62652380Y-99705714D02*
X61652380Y-99705714D01*
X61652380Y-100086666D01*
X61700000Y-100181904D01*
X61747619Y-100229523D01*
X61842857Y-100277142D01*
X61985714Y-100277142D01*
X62080952Y-100229523D01*
X62128571Y-100181904D01*
X62176190Y-100086666D01*
X62176190Y-99705714D01*
X62652380Y-101229523D02*
X62652380Y-100658095D01*
X62652380Y-100943809D02*
X61652380Y-100943809D01*
X61795238Y-100848571D01*
X61890476Y-100753333D01*
X61938095Y-100658095D01*
X61652380Y-102086666D02*
X61652380Y-101896190D01*
X61700000Y-101800952D01*
X61747619Y-101753333D01*
X61890476Y-101658095D01*
X62080952Y-101610476D01*
X62461904Y-101610476D01*
X62557142Y-101658095D01*
X62604761Y-101705714D01*
X62652380Y-101800952D01*
X62652380Y-101991428D01*
X62604761Y-102086666D01*
X62557142Y-102134285D01*
X62461904Y-102181904D01*
X62223809Y-102181904D01*
X62128571Y-102134285D01*
X62080952Y-102086666D01*
X62033333Y-101991428D01*
X62033333Y-101800952D01*
X62080952Y-101705714D01*
X62128571Y-101658095D01*
X62223809Y-101610476D01*
%TO.C,R17*%
X59322380Y-100087142D02*
X58846190Y-99753809D01*
X59322380Y-99515714D02*
X58322380Y-99515714D01*
X58322380Y-99896666D01*
X58370000Y-99991904D01*
X58417619Y-100039523D01*
X58512857Y-100087142D01*
X58655714Y-100087142D01*
X58750952Y-100039523D01*
X58798571Y-99991904D01*
X58846190Y-99896666D01*
X58846190Y-99515714D01*
X59322380Y-101039523D02*
X59322380Y-100468095D01*
X59322380Y-100753809D02*
X58322380Y-100753809D01*
X58465238Y-100658571D01*
X58560476Y-100563333D01*
X58608095Y-100468095D01*
X58322380Y-101372857D02*
X58322380Y-102039523D01*
X59322380Y-101610952D01*
%TO.C,R18*%
X65962380Y-99907142D02*
X65486190Y-99573809D01*
X65962380Y-99335714D02*
X64962380Y-99335714D01*
X64962380Y-99716666D01*
X65010000Y-99811904D01*
X65057619Y-99859523D01*
X65152857Y-99907142D01*
X65295714Y-99907142D01*
X65390952Y-99859523D01*
X65438571Y-99811904D01*
X65486190Y-99716666D01*
X65486190Y-99335714D01*
X65962380Y-100859523D02*
X65962380Y-100288095D01*
X65962380Y-100573809D02*
X64962380Y-100573809D01*
X65105238Y-100478571D01*
X65200476Y-100383333D01*
X65248095Y-100288095D01*
X65390952Y-101430952D02*
X65343333Y-101335714D01*
X65295714Y-101288095D01*
X65200476Y-101240476D01*
X65152857Y-101240476D01*
X65057619Y-101288095D01*
X65010000Y-101335714D01*
X64962380Y-101430952D01*
X64962380Y-101621428D01*
X65010000Y-101716666D01*
X65057619Y-101764285D01*
X65152857Y-101811904D01*
X65200476Y-101811904D01*
X65295714Y-101764285D01*
X65343333Y-101716666D01*
X65390952Y-101621428D01*
X65390952Y-101430952D01*
X65438571Y-101335714D01*
X65486190Y-101288095D01*
X65581428Y-101240476D01*
X65771904Y-101240476D01*
X65867142Y-101288095D01*
X65914761Y-101335714D01*
X65962380Y-101430952D01*
X65962380Y-101621428D01*
X65914761Y-101716666D01*
X65867142Y-101764285D01*
X65771904Y-101811904D01*
X65581428Y-101811904D01*
X65486190Y-101764285D01*
X65438571Y-101716666D01*
X65390952Y-101621428D01*
%TO.C,R19*%
X74742857Y-90812380D02*
X75076190Y-90336190D01*
X75314285Y-90812380D02*
X75314285Y-89812380D01*
X74933333Y-89812380D01*
X74838095Y-89860000D01*
X74790476Y-89907619D01*
X74742857Y-90002857D01*
X74742857Y-90145714D01*
X74790476Y-90240952D01*
X74838095Y-90288571D01*
X74933333Y-90336190D01*
X75314285Y-90336190D01*
X73790476Y-90812380D02*
X74361904Y-90812380D01*
X74076190Y-90812380D02*
X74076190Y-89812380D01*
X74171428Y-89955238D01*
X74266666Y-90050476D01*
X74361904Y-90098095D01*
X73314285Y-90812380D02*
X73123809Y-90812380D01*
X73028571Y-90764761D01*
X72980952Y-90717142D01*
X72885714Y-90574285D01*
X72838095Y-90383809D01*
X72838095Y-90002857D01*
X72885714Y-89907619D01*
X72933333Y-89860000D01*
X73028571Y-89812380D01*
X73219047Y-89812380D01*
X73314285Y-89860000D01*
X73361904Y-89907619D01*
X73409523Y-90002857D01*
X73409523Y-90240952D01*
X73361904Y-90336190D01*
X73314285Y-90383809D01*
X73219047Y-90431428D01*
X73028571Y-90431428D01*
X72933333Y-90383809D01*
X72885714Y-90336190D01*
X72838095Y-90240952D01*
%TO.C,R20*%
X84432380Y-89457142D02*
X83956190Y-89123809D01*
X84432380Y-88885714D02*
X83432380Y-88885714D01*
X83432380Y-89266666D01*
X83480000Y-89361904D01*
X83527619Y-89409523D01*
X83622857Y-89457142D01*
X83765714Y-89457142D01*
X83860952Y-89409523D01*
X83908571Y-89361904D01*
X83956190Y-89266666D01*
X83956190Y-88885714D01*
X83527619Y-89838095D02*
X83480000Y-89885714D01*
X83432380Y-89980952D01*
X83432380Y-90219047D01*
X83480000Y-90314285D01*
X83527619Y-90361904D01*
X83622857Y-90409523D01*
X83718095Y-90409523D01*
X83860952Y-90361904D01*
X84432380Y-89790476D01*
X84432380Y-90409523D01*
X83432380Y-91028571D02*
X83432380Y-91123809D01*
X83480000Y-91219047D01*
X83527619Y-91266666D01*
X83622857Y-91314285D01*
X83813333Y-91361904D01*
X84051428Y-91361904D01*
X84241904Y-91314285D01*
X84337142Y-91266666D01*
X84384761Y-91219047D01*
X84432380Y-91123809D01*
X84432380Y-91028571D01*
X84384761Y-90933333D01*
X84337142Y-90885714D01*
X84241904Y-90838095D01*
X84051428Y-90790476D01*
X83813333Y-90790476D01*
X83622857Y-90838095D01*
X83527619Y-90885714D01*
X83480000Y-90933333D01*
X83432380Y-91028571D01*
%TO.C,R21*%
X80962380Y-89337142D02*
X80486190Y-89003809D01*
X80962380Y-88765714D02*
X79962380Y-88765714D01*
X79962380Y-89146666D01*
X80010000Y-89241904D01*
X80057619Y-89289523D01*
X80152857Y-89337142D01*
X80295714Y-89337142D01*
X80390952Y-89289523D01*
X80438571Y-89241904D01*
X80486190Y-89146666D01*
X80486190Y-88765714D01*
X80057619Y-89718095D02*
X80010000Y-89765714D01*
X79962380Y-89860952D01*
X79962380Y-90099047D01*
X80010000Y-90194285D01*
X80057619Y-90241904D01*
X80152857Y-90289523D01*
X80248095Y-90289523D01*
X80390952Y-90241904D01*
X80962380Y-89670476D01*
X80962380Y-90289523D01*
X80962380Y-91241904D02*
X80962380Y-90670476D01*
X80962380Y-90956190D02*
X79962380Y-90956190D01*
X80105238Y-90860952D01*
X80200476Y-90765714D01*
X80248095Y-90670476D01*
%TO.C,U2*%
X79512380Y-100368095D02*
X80321904Y-100368095D01*
X80417142Y-100415714D01*
X80464761Y-100463333D01*
X80512380Y-100558571D01*
X80512380Y-100749047D01*
X80464761Y-100844285D01*
X80417142Y-100891904D01*
X80321904Y-100939523D01*
X79512380Y-100939523D01*
X79607619Y-101368095D02*
X79560000Y-101415714D01*
X79512380Y-101510952D01*
X79512380Y-101749047D01*
X79560000Y-101844285D01*
X79607619Y-101891904D01*
X79702857Y-101939523D01*
X79798095Y-101939523D01*
X79940952Y-101891904D01*
X80512380Y-101320476D01*
X80512380Y-101939523D01*
%TO.C,L4*%
X97096666Y-121952380D02*
X97572857Y-121952380D01*
X97572857Y-120952380D01*
X96334761Y-121285714D02*
X96334761Y-121952380D01*
X96572857Y-120904761D02*
X96810952Y-121619047D01*
X96191904Y-121619047D01*
%TO.C,R22*%
X98502857Y-125087379D02*
X98836190Y-124611189D01*
X99074285Y-125087379D02*
X99074285Y-124087379D01*
X98693333Y-124087379D01*
X98598095Y-124134999D01*
X98550476Y-124182618D01*
X98502857Y-124277856D01*
X98502857Y-124420713D01*
X98550476Y-124515951D01*
X98598095Y-124563570D01*
X98693333Y-124611189D01*
X99074285Y-124611189D01*
X98121904Y-124182618D02*
X98074285Y-124134999D01*
X97979047Y-124087379D01*
X97740952Y-124087379D01*
X97645714Y-124134999D01*
X97598095Y-124182618D01*
X97550476Y-124277856D01*
X97550476Y-124373094D01*
X97598095Y-124515951D01*
X98169523Y-125087379D01*
X97550476Y-125087379D01*
X97169523Y-124182618D02*
X97121904Y-124134999D01*
X97026666Y-124087379D01*
X96788571Y-124087379D01*
X96693333Y-124134999D01*
X96645714Y-124182618D01*
X96598095Y-124277856D01*
X96598095Y-124373094D01*
X96645714Y-124515951D01*
X97217142Y-125087379D01*
X96598095Y-125087379D01*
%TO.C,U5*%
X47261904Y-69622380D02*
X47261904Y-70431904D01*
X47214285Y-70527142D01*
X47166666Y-70574761D01*
X47071428Y-70622380D01*
X46880952Y-70622380D01*
X46785714Y-70574761D01*
X46738095Y-70527142D01*
X46690476Y-70431904D01*
X46690476Y-69622380D01*
X45738095Y-69622380D02*
X46214285Y-69622380D01*
X46261904Y-70098571D01*
X46214285Y-70050952D01*
X46119047Y-70003333D01*
X45880952Y-70003333D01*
X45785714Y-70050952D01*
X45738095Y-70098571D01*
X45690476Y-70193809D01*
X45690476Y-70431904D01*
X45738095Y-70527142D01*
X45785714Y-70574761D01*
X45880952Y-70622380D01*
X46119047Y-70622380D01*
X46214285Y-70574761D01*
X46261904Y-70527142D01*
%TO.C,C13*%
X99342857Y-100147142D02*
X99390476Y-100194761D01*
X99533333Y-100242380D01*
X99628571Y-100242380D01*
X99771428Y-100194761D01*
X99866666Y-100099523D01*
X99914285Y-100004285D01*
X99961904Y-99813809D01*
X99961904Y-99670952D01*
X99914285Y-99480476D01*
X99866666Y-99385238D01*
X99771428Y-99290000D01*
X99628571Y-99242380D01*
X99533333Y-99242380D01*
X99390476Y-99290000D01*
X99342857Y-99337619D01*
X98390476Y-100242380D02*
X98961904Y-100242380D01*
X98676190Y-100242380D02*
X98676190Y-99242380D01*
X98771428Y-99385238D01*
X98866666Y-99480476D01*
X98961904Y-99528095D01*
X98057142Y-99242380D02*
X97438095Y-99242380D01*
X97771428Y-99623333D01*
X97628571Y-99623333D01*
X97533333Y-99670952D01*
X97485714Y-99718571D01*
X97438095Y-99813809D01*
X97438095Y-100051904D01*
X97485714Y-100147142D01*
X97533333Y-100194761D01*
X97628571Y-100242380D01*
X97914285Y-100242380D01*
X98009523Y-100194761D01*
X98057142Y-100147142D01*
%TO.C,C14*%
X37972857Y-140607142D02*
X38020476Y-140654761D01*
X38163333Y-140702380D01*
X38258571Y-140702380D01*
X38401428Y-140654761D01*
X38496666Y-140559523D01*
X38544285Y-140464285D01*
X38591904Y-140273809D01*
X38591904Y-140130952D01*
X38544285Y-139940476D01*
X38496666Y-139845238D01*
X38401428Y-139750000D01*
X38258571Y-139702380D01*
X38163333Y-139702380D01*
X38020476Y-139750000D01*
X37972857Y-139797619D01*
X37020476Y-140702380D02*
X37591904Y-140702380D01*
X37306190Y-140702380D02*
X37306190Y-139702380D01*
X37401428Y-139845238D01*
X37496666Y-139940476D01*
X37591904Y-139988095D01*
X36163333Y-140035714D02*
X36163333Y-140702380D01*
X36401428Y-139654761D02*
X36639523Y-140369047D01*
X36020476Y-140369047D01*
%TO.C,R23*%
X36292380Y-129697142D02*
X35816190Y-129363809D01*
X36292380Y-129125714D02*
X35292380Y-129125714D01*
X35292380Y-129506666D01*
X35340000Y-129601904D01*
X35387619Y-129649523D01*
X35482857Y-129697142D01*
X35625714Y-129697142D01*
X35720952Y-129649523D01*
X35768571Y-129601904D01*
X35816190Y-129506666D01*
X35816190Y-129125714D01*
X35387619Y-130078095D02*
X35340000Y-130125714D01*
X35292380Y-130220952D01*
X35292380Y-130459047D01*
X35340000Y-130554285D01*
X35387619Y-130601904D01*
X35482857Y-130649523D01*
X35578095Y-130649523D01*
X35720952Y-130601904D01*
X36292380Y-130030476D01*
X36292380Y-130649523D01*
X35292380Y-130982857D02*
X35292380Y-131601904D01*
X35673333Y-131268571D01*
X35673333Y-131411428D01*
X35720952Y-131506666D01*
X35768571Y-131554285D01*
X35863809Y-131601904D01*
X36101904Y-131601904D01*
X36197142Y-131554285D01*
X36244761Y-131506666D01*
X36292380Y-131411428D01*
X36292380Y-131125714D01*
X36244761Y-131030476D01*
X36197142Y-130982857D01*
%TO.C,R24*%
X39552380Y-129817142D02*
X39076190Y-129483809D01*
X39552380Y-129245714D02*
X38552380Y-129245714D01*
X38552380Y-129626666D01*
X38600000Y-129721904D01*
X38647619Y-129769523D01*
X38742857Y-129817142D01*
X38885714Y-129817142D01*
X38980952Y-129769523D01*
X39028571Y-129721904D01*
X39076190Y-129626666D01*
X39076190Y-129245714D01*
X38647619Y-130198095D02*
X38600000Y-130245714D01*
X38552380Y-130340952D01*
X38552380Y-130579047D01*
X38600000Y-130674285D01*
X38647619Y-130721904D01*
X38742857Y-130769523D01*
X38838095Y-130769523D01*
X38980952Y-130721904D01*
X39552380Y-130150476D01*
X39552380Y-130769523D01*
X38885714Y-131626666D02*
X39552380Y-131626666D01*
X38504761Y-131388571D02*
X39219047Y-131150476D01*
X39219047Y-131769523D01*
D11*
%TO.C,C3*%
X108300000Y-76550000D02*
X108300000Y-81670000D01*
X110920000Y-76550000D02*
X110920000Y-81670000D01*
X108300000Y-76550000D02*
X108614000Y-76550000D01*
X110606000Y-76550000D02*
X110920000Y-76550000D01*
X108300000Y-81670000D02*
X108614000Y-81670000D01*
X110606000Y-81670000D02*
X110920000Y-81670000D01*
%TO.C,R3*%
X49910000Y-133570000D02*
X50240000Y-133570000D01*
X50240000Y-133570000D02*
X50240000Y-127150000D01*
X50240000Y-127150000D02*
X49910000Y-127150000D01*
X47950000Y-133570000D02*
X47620000Y-133570000D01*
X47620000Y-133570000D02*
X47620000Y-127150000D01*
X47620000Y-127150000D02*
X47950000Y-127150000D01*
%TO.C,R12*%
X59660000Y-133570000D02*
X59990000Y-133570000D01*
X59990000Y-133570000D02*
X59990000Y-127150000D01*
X59990000Y-127150000D02*
X59660000Y-127150000D01*
X57700000Y-133570000D02*
X57370000Y-133570000D01*
X57370000Y-133570000D02*
X57370000Y-127150000D01*
X57370000Y-127150000D02*
X57700000Y-127150000D01*
%TO.C,C10*%
X87310000Y-128160000D02*
X87310000Y-123040000D01*
X84690000Y-128160000D02*
X84690000Y-123040000D01*
X87310000Y-128160000D02*
X84690000Y-128160000D01*
X87310000Y-123040000D02*
X84690000Y-123040000D01*
%TO.C,C11*%
X71410000Y-131290000D02*
X71410000Y-126170000D01*
X68790000Y-131290000D02*
X68790000Y-126170000D01*
X71410000Y-131290000D02*
X68790000Y-131290000D01*
X71410000Y-126170000D02*
X68790000Y-126170000D01*
%TO.C,C16*%
X71450000Y-136930000D02*
X71450000Y-131810000D01*
X68830000Y-136930000D02*
X68830000Y-131810000D01*
X71450000Y-136930000D02*
X68830000Y-136930000D01*
X71450000Y-131810000D02*
X68830000Y-131810000D01*
%TO.C,C17*%
X84660000Y-128950000D02*
X84660000Y-134070000D01*
X87280000Y-128950000D02*
X87280000Y-134070000D01*
X84660000Y-128950000D02*
X87280000Y-128950000D01*
X84660000Y-134070000D02*
X87280000Y-134070000D01*
%TO.C,R6*%
X46620000Y-133550000D02*
X46950000Y-133550000D01*
X46950000Y-133550000D02*
X46950000Y-127130000D01*
X46950000Y-127130000D02*
X46620000Y-127130000D01*
X44660000Y-133550000D02*
X44330000Y-133550000D01*
X44330000Y-133550000D02*
X44330000Y-127130000D01*
X44330000Y-127130000D02*
X44660000Y-127130000D01*
%TO.C,R13*%
X66190000Y-133590000D02*
X66520000Y-133590000D01*
X66520000Y-133590000D02*
X66520000Y-127170000D01*
X66520000Y-127170000D02*
X66190000Y-127170000D01*
X64230000Y-133590000D02*
X63900000Y-133590000D01*
X63900000Y-133590000D02*
X63900000Y-127170000D01*
X63900000Y-127170000D02*
X64230000Y-127170000D01*
%TO.C,R29*%
X43310000Y-133530000D02*
X43640000Y-133530000D01*
X43640000Y-133530000D02*
X43640000Y-127110000D01*
X43640000Y-127110000D02*
X43310000Y-127110000D01*
X41350000Y-133530000D02*
X41020000Y-133530000D01*
X41020000Y-133530000D02*
X41020000Y-127110000D01*
X41020000Y-127110000D02*
X41350000Y-127110000D01*
%TO.C,R33*%
X53200000Y-133590000D02*
X53530000Y-133590000D01*
X53530000Y-133590000D02*
X53530000Y-127170000D01*
X53530000Y-127170000D02*
X53200000Y-127170000D01*
X51240000Y-133590000D02*
X50910000Y-133590000D01*
X50910000Y-133590000D02*
X50910000Y-127170000D01*
X50910000Y-127170000D02*
X51240000Y-127170000D01*
%TO.C,R46*%
X62920000Y-133590000D02*
X63250000Y-133590000D01*
X63250000Y-133590000D02*
X63250000Y-127170000D01*
X63250000Y-127170000D02*
X62920000Y-127170000D01*
X60960000Y-133590000D02*
X60630000Y-133590000D01*
X60630000Y-133590000D02*
X60630000Y-127170000D01*
X60630000Y-127170000D02*
X60960000Y-127170000D01*
%TO.C,R47*%
X56450000Y-133570000D02*
X56780000Y-133570000D01*
X56780000Y-133570000D02*
X56780000Y-127150000D01*
X56780000Y-127150000D02*
X56450000Y-127150000D01*
X54490000Y-133570000D02*
X54160000Y-133570000D01*
X54160000Y-133570000D02*
X54160000Y-127150000D01*
X54160000Y-127150000D02*
X54490000Y-127150000D01*
%TO.C,C1*%
X105200000Y-137890000D02*
X105200000Y-143010000D01*
X107820000Y-137890000D02*
X107820000Y-143010000D01*
X105200000Y-137890000D02*
X107820000Y-137890000D01*
X105200000Y-143010000D02*
X107820000Y-143010000D01*
%TO.C,L1*%
X115270000Y-82270000D02*
X115270000Y-79450000D01*
X115270000Y-79450000D02*
X121990000Y-79450000D01*
X121990000Y-79450000D02*
X121990000Y-82270000D01*
X121990000Y-82270000D02*
X115270000Y-82270000D01*
X114530000Y-80860000D02*
X115270000Y-80860000D01*
X122730000Y-80860000D02*
X121990000Y-80860000D01*
%TO.C,L2*%
X115320000Y-78800000D02*
X115320000Y-75980000D01*
X115320000Y-75980000D02*
X122040000Y-75980000D01*
X122040000Y-75980000D02*
X122040000Y-78800000D01*
X122040000Y-78800000D02*
X115320000Y-78800000D01*
X114580000Y-77390000D02*
X115320000Y-77390000D01*
X122780000Y-77390000D02*
X122040000Y-77390000D01*
%TO.C,R1*%
X91010000Y-90780000D02*
X91010000Y-91110000D01*
X91010000Y-91110000D02*
X97430000Y-91110000D01*
X97430000Y-91110000D02*
X97430000Y-90780000D01*
X91010000Y-88820000D02*
X91010000Y-88490000D01*
X91010000Y-88490000D02*
X97430000Y-88490000D01*
X97430000Y-88490000D02*
X97430000Y-88820000D01*
%TO.C,R2*%
X90850000Y-87590000D02*
X90850000Y-87920000D01*
X90850000Y-87920000D02*
X97270000Y-87920000D01*
X97270000Y-87920000D02*
X97270000Y-87590000D01*
X90850000Y-85630000D02*
X90850000Y-85300000D01*
X90850000Y-85300000D02*
X97270000Y-85300000D01*
X97270000Y-85300000D02*
X97270000Y-85630000D01*
%TO.C,R4*%
X88430000Y-93170000D02*
X88760000Y-93170000D01*
X88760000Y-93170000D02*
X88760000Y-86750000D01*
X88760000Y-86750000D02*
X88430000Y-86750000D01*
X86470000Y-93170000D02*
X86140000Y-93170000D01*
X86140000Y-93170000D02*
X86140000Y-86750000D01*
X86140000Y-86750000D02*
X86470000Y-86750000D01*
%TO.C,R5*%
X95090000Y-104180000D02*
X95420000Y-104180000D01*
X95420000Y-104180000D02*
X95420000Y-97760000D01*
X95420000Y-97760000D02*
X95090000Y-97760000D01*
X93130000Y-104180000D02*
X92800000Y-104180000D01*
X92800000Y-104180000D02*
X92800000Y-97760000D01*
X92800000Y-97760000D02*
X93130000Y-97760000D01*
%TO.C,R7*%
X76770000Y-84380000D02*
X76770000Y-84050000D01*
X76770000Y-84050000D02*
X70350000Y-84050000D01*
X70350000Y-84050000D02*
X70350000Y-84380000D01*
X76770000Y-86340000D02*
X76770000Y-86670000D01*
X76770000Y-86670000D02*
X70350000Y-86670000D01*
X70350000Y-86670000D02*
X70350000Y-86340000D01*
%TO.C,R8*%
X70300000Y-82860000D02*
X70300000Y-83190000D01*
X70300000Y-83190000D02*
X76720000Y-83190000D01*
X76720000Y-83190000D02*
X76720000Y-82860000D01*
X70300000Y-80900000D02*
X70300000Y-80570000D01*
X70300000Y-80570000D02*
X76720000Y-80570000D01*
X76720000Y-80570000D02*
X76720000Y-80900000D01*
%TO.C,C2*%
X123950000Y-72730000D02*
X118830000Y-72730000D01*
X123950000Y-75350000D02*
X118830000Y-75350000D01*
X123950000Y-72730000D02*
X123950000Y-73044000D01*
X123950000Y-75036000D02*
X123950000Y-75350000D01*
X118830000Y-72730000D02*
X118830000Y-73044000D01*
X118830000Y-75036000D02*
X118830000Y-75350000D01*
%TO.C,C4*%
X105290000Y-129520000D02*
X105290000Y-134640000D01*
X107910000Y-129520000D02*
X107910000Y-134640000D01*
X105290000Y-129520000D02*
X105604000Y-129520000D01*
X107596000Y-129520000D02*
X107910000Y-129520000D01*
X105290000Y-134640000D02*
X105604000Y-134640000D01*
X107596000Y-134640000D02*
X107910000Y-134640000D01*
%TO.C,C5*%
X91865580Y-109910000D02*
G75*
G03*
X87254278Y-109910278I-2305580J-1180000D01*
G01*
X87254278Y-112269722D02*
G75*
G03*
X91865580Y-112270000I2305722J1179722D01*
G01*
X87254420Y-109910000D02*
G75*
G03*
X87254278Y-112269722I2305580J-1180000D01*
G01*
X89560000Y-108540000D02*
X89560000Y-113640000D01*
X89520000Y-108540000D02*
X89520000Y-113640000D01*
X89480000Y-108541000D02*
X89480000Y-113639000D01*
X89440000Y-108542000D02*
X89440000Y-113638000D01*
X89400000Y-108544000D02*
X89400000Y-113636000D01*
X89360000Y-108547000D02*
X89360000Y-113633000D01*
X89320000Y-108551000D02*
X89320000Y-113629000D01*
X89280000Y-108555000D02*
X89280000Y-110110000D01*
X89280000Y-112070000D02*
X89280000Y-113625000D01*
X89240000Y-108559000D02*
X89240000Y-110110000D01*
X89240000Y-112070000D02*
X89240000Y-113621000D01*
X89200000Y-108565000D02*
X89200000Y-110110000D01*
X89200000Y-112070000D02*
X89200000Y-113615000D01*
X89160000Y-108571000D02*
X89160000Y-110110000D01*
X89160000Y-112070000D02*
X89160000Y-113609000D01*
X89120000Y-108577000D02*
X89120000Y-110110000D01*
X89120000Y-112070000D02*
X89120000Y-113603000D01*
X89080000Y-108584000D02*
X89080000Y-110110000D01*
X89080000Y-112070000D02*
X89080000Y-113596000D01*
X89040000Y-108592000D02*
X89040000Y-110110000D01*
X89040000Y-112070000D02*
X89040000Y-113588000D01*
X89000000Y-108601000D02*
X89000000Y-110110000D01*
X89000000Y-112070000D02*
X89000000Y-113579000D01*
X88960000Y-108610000D02*
X88960000Y-110110000D01*
X88960000Y-112070000D02*
X88960000Y-113570000D01*
X88920000Y-108620000D02*
X88920000Y-110110000D01*
X88920000Y-112070000D02*
X88920000Y-113560000D01*
X88880000Y-108630000D02*
X88880000Y-110110000D01*
X88880000Y-112070000D02*
X88880000Y-113550000D01*
X88839000Y-108642000D02*
X88839000Y-110110000D01*
X88839000Y-112070000D02*
X88839000Y-113538000D01*
X88799000Y-108654000D02*
X88799000Y-110110000D01*
X88799000Y-112070000D02*
X88799000Y-113526000D01*
X88759000Y-108666000D02*
X88759000Y-110110000D01*
X88759000Y-112070000D02*
X88759000Y-113514000D01*
X88719000Y-108680000D02*
X88719000Y-110110000D01*
X88719000Y-112070000D02*
X88719000Y-113500000D01*
X88679000Y-108694000D02*
X88679000Y-110110000D01*
X88679000Y-112070000D02*
X88679000Y-113486000D01*
X88639000Y-108708000D02*
X88639000Y-110110000D01*
X88639000Y-112070000D02*
X88639000Y-113472000D01*
X88599000Y-108724000D02*
X88599000Y-110110000D01*
X88599000Y-112070000D02*
X88599000Y-113456000D01*
X88559000Y-108740000D02*
X88559000Y-110110000D01*
X88559000Y-112070000D02*
X88559000Y-113440000D01*
X88519000Y-108757000D02*
X88519000Y-110110000D01*
X88519000Y-112070000D02*
X88519000Y-113423000D01*
X88479000Y-108775000D02*
X88479000Y-110110000D01*
X88479000Y-112070000D02*
X88479000Y-113405000D01*
X88439000Y-108794000D02*
X88439000Y-110110000D01*
X88439000Y-112070000D02*
X88439000Y-113386000D01*
X88399000Y-108814000D02*
X88399000Y-110110000D01*
X88399000Y-112070000D02*
X88399000Y-113366000D01*
X88359000Y-108834000D02*
X88359000Y-110110000D01*
X88359000Y-112070000D02*
X88359000Y-113346000D01*
X88319000Y-108856000D02*
X88319000Y-110110000D01*
X88319000Y-112070000D02*
X88319000Y-113324000D01*
X88279000Y-108878000D02*
X88279000Y-110110000D01*
X88279000Y-112070000D02*
X88279000Y-113302000D01*
X88239000Y-108901000D02*
X88239000Y-110110000D01*
X88239000Y-112070000D02*
X88239000Y-113279000D01*
X88199000Y-108925000D02*
X88199000Y-110110000D01*
X88199000Y-112070000D02*
X88199000Y-113255000D01*
X88159000Y-108950000D02*
X88159000Y-110110000D01*
X88159000Y-112070000D02*
X88159000Y-113230000D01*
X88119000Y-108977000D02*
X88119000Y-110110000D01*
X88119000Y-112070000D02*
X88119000Y-113203000D01*
X88079000Y-109004000D02*
X88079000Y-110110000D01*
X88079000Y-112070000D02*
X88079000Y-113176000D01*
X88039000Y-109032000D02*
X88039000Y-110110000D01*
X88039000Y-112070000D02*
X88039000Y-113148000D01*
X87999000Y-109062000D02*
X87999000Y-110110000D01*
X87999000Y-112070000D02*
X87999000Y-113118000D01*
X87959000Y-109093000D02*
X87959000Y-110110000D01*
X87959000Y-112070000D02*
X87959000Y-113087000D01*
X87919000Y-109125000D02*
X87919000Y-110110000D01*
X87919000Y-112070000D02*
X87919000Y-113055000D01*
X87879000Y-109158000D02*
X87879000Y-110110000D01*
X87879000Y-112070000D02*
X87879000Y-113022000D01*
X87839000Y-109193000D02*
X87839000Y-110110000D01*
X87839000Y-112070000D02*
X87839000Y-112987000D01*
X87799000Y-109229000D02*
X87799000Y-110110000D01*
X87799000Y-112070000D02*
X87799000Y-112951000D01*
X87759000Y-109267000D02*
X87759000Y-110110000D01*
X87759000Y-112070000D02*
X87759000Y-112913000D01*
X87719000Y-109307000D02*
X87719000Y-110110000D01*
X87719000Y-112070000D02*
X87719000Y-112873000D01*
X87679000Y-109348000D02*
X87679000Y-110110000D01*
X87679000Y-112070000D02*
X87679000Y-112832000D01*
X87639000Y-109391000D02*
X87639000Y-110110000D01*
X87639000Y-112070000D02*
X87639000Y-112789000D01*
X87599000Y-109436000D02*
X87599000Y-110110000D01*
X87599000Y-112070000D02*
X87599000Y-112744000D01*
X87559000Y-109484000D02*
X87559000Y-110110000D01*
X87559000Y-112070000D02*
X87559000Y-112696000D01*
X87519000Y-109534000D02*
X87519000Y-110110000D01*
X87519000Y-112070000D02*
X87519000Y-112646000D01*
X87479000Y-109586000D02*
X87479000Y-110110000D01*
X87479000Y-112070000D02*
X87479000Y-112594000D01*
X87439000Y-109642000D02*
X87439000Y-110110000D01*
X87439000Y-112070000D02*
X87439000Y-112538000D01*
X87399000Y-109700000D02*
X87399000Y-110110000D01*
X87399000Y-112070000D02*
X87399000Y-112480000D01*
X87359000Y-109763000D02*
X87359000Y-110110000D01*
X87359000Y-112070000D02*
X87359000Y-112417000D01*
X87319000Y-109829000D02*
X87319000Y-112351000D01*
X87279000Y-109901000D02*
X87279000Y-112279000D01*
X87239000Y-109978000D02*
X87239000Y-112202000D01*
X87199000Y-110062000D02*
X87199000Y-112118000D01*
X87159000Y-110156000D02*
X87159000Y-112024000D01*
X87119000Y-110261000D02*
X87119000Y-111919000D01*
X87079000Y-110383000D02*
X87079000Y-111797000D01*
X87039000Y-110531000D02*
X87039000Y-111649000D01*
X86999000Y-110736000D02*
X86999000Y-111444000D01*
X93010000Y-111090000D02*
X91810000Y-111090000D01*
X92410000Y-110440000D02*
X92410000Y-111740000D01*
%TO.C,C6*%
X81354420Y-112200000D02*
G75*
G03*
X85965722Y-112199722I2305580J1180000D01*
G01*
X85965722Y-109840278D02*
G75*
G03*
X81354420Y-109840000I-2305722J-1179722D01*
G01*
X85965580Y-112200000D02*
G75*
G03*
X85965722Y-109840278I-2305580J1180000D01*
G01*
X83660000Y-113570000D02*
X83660000Y-108470000D01*
X83700000Y-113570000D02*
X83700000Y-108470000D01*
X83740000Y-113569000D02*
X83740000Y-108471000D01*
X83780000Y-113568000D02*
X83780000Y-108472000D01*
X83820000Y-113566000D02*
X83820000Y-108474000D01*
X83860000Y-113563000D02*
X83860000Y-108477000D01*
X83900000Y-113559000D02*
X83900000Y-108481000D01*
X83940000Y-113555000D02*
X83940000Y-112000000D01*
X83940000Y-110040000D02*
X83940000Y-108485000D01*
X83980000Y-113551000D02*
X83980000Y-112000000D01*
X83980000Y-110040000D02*
X83980000Y-108489000D01*
X84020000Y-113545000D02*
X84020000Y-112000000D01*
X84020000Y-110040000D02*
X84020000Y-108495000D01*
X84060000Y-113539000D02*
X84060000Y-112000000D01*
X84060000Y-110040000D02*
X84060000Y-108501000D01*
X84100000Y-113533000D02*
X84100000Y-112000000D01*
X84100000Y-110040000D02*
X84100000Y-108507000D01*
X84140000Y-113526000D02*
X84140000Y-112000000D01*
X84140000Y-110040000D02*
X84140000Y-108514000D01*
X84180000Y-113518000D02*
X84180000Y-112000000D01*
X84180000Y-110040000D02*
X84180000Y-108522000D01*
X84220000Y-113509000D02*
X84220000Y-112000000D01*
X84220000Y-110040000D02*
X84220000Y-108531000D01*
X84260000Y-113500000D02*
X84260000Y-112000000D01*
X84260000Y-110040000D02*
X84260000Y-108540000D01*
X84300000Y-113490000D02*
X84300000Y-112000000D01*
X84300000Y-110040000D02*
X84300000Y-108550000D01*
X84340000Y-113480000D02*
X84340000Y-112000000D01*
X84340000Y-110040000D02*
X84340000Y-108560000D01*
X84381000Y-113468000D02*
X84381000Y-112000000D01*
X84381000Y-110040000D02*
X84381000Y-108572000D01*
X84421000Y-113456000D02*
X84421000Y-112000000D01*
X84421000Y-110040000D02*
X84421000Y-108584000D01*
X84461000Y-113444000D02*
X84461000Y-112000000D01*
X84461000Y-110040000D02*
X84461000Y-108596000D01*
X84501000Y-113430000D02*
X84501000Y-112000000D01*
X84501000Y-110040000D02*
X84501000Y-108610000D01*
X84541000Y-113416000D02*
X84541000Y-112000000D01*
X84541000Y-110040000D02*
X84541000Y-108624000D01*
X84581000Y-113402000D02*
X84581000Y-112000000D01*
X84581000Y-110040000D02*
X84581000Y-108638000D01*
X84621000Y-113386000D02*
X84621000Y-112000000D01*
X84621000Y-110040000D02*
X84621000Y-108654000D01*
X84661000Y-113370000D02*
X84661000Y-112000000D01*
X84661000Y-110040000D02*
X84661000Y-108670000D01*
X84701000Y-113353000D02*
X84701000Y-112000000D01*
X84701000Y-110040000D02*
X84701000Y-108687000D01*
X84741000Y-113335000D02*
X84741000Y-112000000D01*
X84741000Y-110040000D02*
X84741000Y-108705000D01*
X84781000Y-113316000D02*
X84781000Y-112000000D01*
X84781000Y-110040000D02*
X84781000Y-108724000D01*
X84821000Y-113296000D02*
X84821000Y-112000000D01*
X84821000Y-110040000D02*
X84821000Y-108744000D01*
X84861000Y-113276000D02*
X84861000Y-112000000D01*
X84861000Y-110040000D02*
X84861000Y-108764000D01*
X84901000Y-113254000D02*
X84901000Y-112000000D01*
X84901000Y-110040000D02*
X84901000Y-108786000D01*
X84941000Y-113232000D02*
X84941000Y-112000000D01*
X84941000Y-110040000D02*
X84941000Y-108808000D01*
X84981000Y-113209000D02*
X84981000Y-112000000D01*
X84981000Y-110040000D02*
X84981000Y-108831000D01*
X85021000Y-113185000D02*
X85021000Y-112000000D01*
X85021000Y-110040000D02*
X85021000Y-108855000D01*
X85061000Y-113160000D02*
X85061000Y-112000000D01*
X85061000Y-110040000D02*
X85061000Y-108880000D01*
X85101000Y-113133000D02*
X85101000Y-112000000D01*
X85101000Y-110040000D02*
X85101000Y-108907000D01*
X85141000Y-113106000D02*
X85141000Y-112000000D01*
X85141000Y-110040000D02*
X85141000Y-108934000D01*
X85181000Y-113078000D02*
X85181000Y-112000000D01*
X85181000Y-110040000D02*
X85181000Y-108962000D01*
X85221000Y-113048000D02*
X85221000Y-112000000D01*
X85221000Y-110040000D02*
X85221000Y-108992000D01*
X85261000Y-113017000D02*
X85261000Y-112000000D01*
X85261000Y-110040000D02*
X85261000Y-109023000D01*
X85301000Y-112985000D02*
X85301000Y-112000000D01*
X85301000Y-110040000D02*
X85301000Y-109055000D01*
X85341000Y-112952000D02*
X85341000Y-112000000D01*
X85341000Y-110040000D02*
X85341000Y-109088000D01*
X85381000Y-112917000D02*
X85381000Y-112000000D01*
X85381000Y-110040000D02*
X85381000Y-109123000D01*
X85421000Y-112881000D02*
X85421000Y-112000000D01*
X85421000Y-110040000D02*
X85421000Y-109159000D01*
X85461000Y-112843000D02*
X85461000Y-112000000D01*
X85461000Y-110040000D02*
X85461000Y-109197000D01*
X85501000Y-112803000D02*
X85501000Y-112000000D01*
X85501000Y-110040000D02*
X85501000Y-109237000D01*
X85541000Y-112762000D02*
X85541000Y-112000000D01*
X85541000Y-110040000D02*
X85541000Y-109278000D01*
X85581000Y-112719000D02*
X85581000Y-112000000D01*
X85581000Y-110040000D02*
X85581000Y-109321000D01*
X85621000Y-112674000D02*
X85621000Y-112000000D01*
X85621000Y-110040000D02*
X85621000Y-109366000D01*
X85661000Y-112626000D02*
X85661000Y-112000000D01*
X85661000Y-110040000D02*
X85661000Y-109414000D01*
X85701000Y-112576000D02*
X85701000Y-112000000D01*
X85701000Y-110040000D02*
X85701000Y-109464000D01*
X85741000Y-112524000D02*
X85741000Y-112000000D01*
X85741000Y-110040000D02*
X85741000Y-109516000D01*
X85781000Y-112468000D02*
X85781000Y-112000000D01*
X85781000Y-110040000D02*
X85781000Y-109572000D01*
X85821000Y-112410000D02*
X85821000Y-112000000D01*
X85821000Y-110040000D02*
X85821000Y-109630000D01*
X85861000Y-112347000D02*
X85861000Y-112000000D01*
X85861000Y-110040000D02*
X85861000Y-109693000D01*
X85901000Y-112281000D02*
X85901000Y-109759000D01*
X85941000Y-112209000D02*
X85941000Y-109831000D01*
X85981000Y-112132000D02*
X85981000Y-109908000D01*
X86021000Y-112048000D02*
X86021000Y-109992000D01*
X86061000Y-111954000D02*
X86061000Y-110086000D01*
X86101000Y-111849000D02*
X86101000Y-110191000D01*
X86141000Y-111727000D02*
X86141000Y-110313000D01*
X86181000Y-111579000D02*
X86181000Y-110461000D01*
X86221000Y-111374000D02*
X86221000Y-110666000D01*
X80210000Y-111020000D02*
X81410000Y-111020000D01*
X80810000Y-111670000D02*
X80810000Y-110370000D01*
%TO.C,C7*%
X80250000Y-98740000D02*
X85370000Y-98740000D01*
X80250000Y-96120000D02*
X85370000Y-96120000D01*
X80250000Y-98740000D02*
X80250000Y-96120000D01*
X85370000Y-98740000D02*
X85370000Y-96120000D01*
%TO.C,C8*%
X85300000Y-106030000D02*
X85300000Y-100910000D01*
X82680000Y-106030000D02*
X82680000Y-100910000D01*
X85300000Y-106030000D02*
X82680000Y-106030000D01*
X85300000Y-100910000D02*
X82680000Y-100910000D01*
%TO.C,C9*%
X73240000Y-109630000D02*
X78360000Y-109630000D01*
X73240000Y-107010000D02*
X78360000Y-107010000D01*
X73240000Y-109630000D02*
X73240000Y-109316000D01*
X73240000Y-107324000D02*
X73240000Y-107010000D01*
X78360000Y-109630000D02*
X78360000Y-109316000D01*
X78360000Y-107324000D02*
X78360000Y-107010000D01*
%TO.C,C12*%
X71800000Y-95190000D02*
X76920000Y-95190000D01*
X71800000Y-92570000D02*
X76920000Y-92570000D01*
X71800000Y-95190000D02*
X71800000Y-94876000D01*
X71800000Y-92884000D02*
X71800000Y-92570000D01*
X76920000Y-95190000D02*
X76920000Y-94876000D01*
X76920000Y-92884000D02*
X76920000Y-92570000D01*
%TO.C,L3*%
X99980000Y-114320000D02*
X99980000Y-117140000D01*
X99980000Y-117140000D02*
X93260000Y-117140000D01*
X93260000Y-117140000D02*
X93260000Y-114320000D01*
X93260000Y-114320000D02*
X99980000Y-114320000D01*
X100720000Y-115730000D02*
X99980000Y-115730000D01*
X92520000Y-115730000D02*
X93260000Y-115730000D01*
%TO.C,R9*%
X70440000Y-115700000D02*
X70440000Y-116030000D01*
X70440000Y-116030000D02*
X76860000Y-116030000D01*
X76860000Y-116030000D02*
X76860000Y-115700000D01*
X70440000Y-113740000D02*
X70440000Y-113410000D01*
X70440000Y-113410000D02*
X76860000Y-113410000D01*
X76860000Y-113410000D02*
X76860000Y-113740000D01*
%TO.C,R10*%
X66760000Y-107380000D02*
X66760000Y-107050000D01*
X66760000Y-107050000D02*
X60340000Y-107050000D01*
X60340000Y-107050000D02*
X60340000Y-107380000D01*
X66760000Y-109340000D02*
X66760000Y-109670000D01*
X66760000Y-109670000D02*
X60340000Y-109670000D01*
X60340000Y-109670000D02*
X60340000Y-109340000D01*
%TO.C,R11*%
X86570000Y-97790000D02*
X86240000Y-97790000D01*
X86240000Y-97790000D02*
X86240000Y-104210000D01*
X86240000Y-104210000D02*
X86570000Y-104210000D01*
X88530000Y-97790000D02*
X88860000Y-97790000D01*
X88860000Y-97790000D02*
X88860000Y-104210000D01*
X88860000Y-104210000D02*
X88530000Y-104210000D01*
%TO.C,R14*%
X91810000Y-104180000D02*
X92140000Y-104180000D01*
X92140000Y-104180000D02*
X92140000Y-97760000D01*
X92140000Y-97760000D02*
X91810000Y-97760000D01*
X89850000Y-104180000D02*
X89520000Y-104180000D01*
X89520000Y-104180000D02*
X89520000Y-97760000D01*
X89520000Y-97760000D02*
X89850000Y-97760000D01*
%TO.C,R15*%
X77850000Y-110690000D02*
X77850000Y-110360000D01*
X77850000Y-110360000D02*
X71430000Y-110360000D01*
X71430000Y-110360000D02*
X71430000Y-110690000D01*
X77850000Y-112650000D02*
X77850000Y-112980000D01*
X77850000Y-112980000D02*
X71430000Y-112980000D01*
X71430000Y-112980000D02*
X71430000Y-112650000D01*
%TO.C,R16*%
X61270000Y-97720000D02*
X60940000Y-97720000D01*
X60940000Y-97720000D02*
X60940000Y-104140000D01*
X60940000Y-104140000D02*
X61270000Y-104140000D01*
X63230000Y-97720000D02*
X63560000Y-97720000D01*
X63560000Y-97720000D02*
X63560000Y-104140000D01*
X63560000Y-104140000D02*
X63230000Y-104140000D01*
%TO.C,R17*%
X58000000Y-97640000D02*
X57670000Y-97640000D01*
X57670000Y-97640000D02*
X57670000Y-104060000D01*
X57670000Y-104060000D02*
X58000000Y-104060000D01*
X59960000Y-97640000D02*
X60290000Y-97640000D01*
X60290000Y-97640000D02*
X60290000Y-104060000D01*
X60290000Y-104060000D02*
X59960000Y-104060000D01*
%TO.C,R18*%
X64640000Y-97630000D02*
X64310000Y-97630000D01*
X64310000Y-97630000D02*
X64310000Y-104050000D01*
X64310000Y-104050000D02*
X64640000Y-104050000D01*
X66600000Y-97630000D02*
X66930000Y-97630000D01*
X66930000Y-97630000D02*
X66930000Y-104050000D01*
X66930000Y-104050000D02*
X66600000Y-104050000D01*
%TO.C,R19*%
X77130000Y-89430000D02*
X77130000Y-89100000D01*
X77130000Y-89100000D02*
X70710000Y-89100000D01*
X70710000Y-89100000D02*
X70710000Y-89430000D01*
X77130000Y-91390000D02*
X77130000Y-91720000D01*
X77130000Y-91720000D02*
X70710000Y-91720000D01*
X70710000Y-91720000D02*
X70710000Y-91390000D01*
%TO.C,R20*%
X84910000Y-93200000D02*
X85240000Y-93200000D01*
X85240000Y-93200000D02*
X85240000Y-86780000D01*
X85240000Y-86780000D02*
X84910000Y-86780000D01*
X82950000Y-93200000D02*
X82620000Y-93200000D01*
X82620000Y-93200000D02*
X82620000Y-86780000D01*
X82620000Y-86780000D02*
X82950000Y-86780000D01*
%TO.C,R21*%
X79640000Y-86780000D02*
X79310000Y-86780000D01*
X79310000Y-86780000D02*
X79310000Y-93200000D01*
X79310000Y-93200000D02*
X79640000Y-93200000D01*
X81600000Y-86780000D02*
X81930000Y-86780000D01*
X81930000Y-86780000D02*
X81930000Y-93200000D01*
X81930000Y-93200000D02*
X81600000Y-93200000D01*
%TO.C,U2*%
X79060000Y-100130000D02*
G75*
G03*
X79060000Y-102130000I0J-1000000D01*
G01*
X79060000Y-102130000D02*
X79060000Y-103780000D01*
X79060000Y-103780000D02*
X68780000Y-103780000D01*
X68780000Y-103780000D02*
X68780000Y-98480000D01*
X68780000Y-98480000D02*
X79060000Y-98480000D01*
X79060000Y-98480000D02*
X79060000Y-100130000D01*
X79120000Y-106270000D02*
X68720000Y-106270000D01*
X68720000Y-106270000D02*
X68720000Y-95990000D01*
X68720000Y-95990000D02*
X79120000Y-95990000D01*
X79120000Y-95990000D02*
X79120000Y-106270000D01*
%TO.C,L4*%
X99970000Y-120010000D02*
X99970000Y-122830000D01*
X99970000Y-122830000D02*
X93250000Y-122830000D01*
X93250000Y-122830000D02*
X93250000Y-120010000D01*
X93250000Y-120010000D02*
X99970000Y-120010000D01*
X100710000Y-121420000D02*
X99970000Y-121420000D01*
X92510000Y-121420000D02*
X93250000Y-121420000D01*
%TO.C,R22*%
X101050000Y-123870000D02*
X101050000Y-123540000D01*
X101050000Y-123540000D02*
X94630000Y-123540000D01*
X94630000Y-123540000D02*
X94630000Y-123870000D01*
X101050000Y-125830000D02*
X101050000Y-126160000D01*
X101050000Y-126160000D02*
X94630000Y-126160000D01*
X94630000Y-126160000D02*
X94630000Y-125830000D01*
%TO.C,U5*%
X47830000Y-122090000D02*
X45170000Y-122090000D01*
X47830000Y-73770000D02*
X47830000Y-122090000D01*
X45170000Y-73770000D02*
X45170000Y-122090000D01*
X47830000Y-73770000D02*
X45170000Y-73770000D01*
X47830000Y-72500000D02*
X47830000Y-71170000D01*
X47830000Y-71170000D02*
X46500000Y-71170000D01*
%TO.C,C13*%
X96140000Y-98540000D02*
X101260000Y-98540000D01*
X96140000Y-95920000D02*
X101260000Y-95920000D01*
X96140000Y-98540000D02*
X96140000Y-95920000D01*
X101260000Y-98540000D02*
X101260000Y-95920000D01*
%TO.C,C14*%
X34770000Y-139000000D02*
X39890000Y-139000000D01*
X34770000Y-136380000D02*
X39890000Y-136380000D01*
X34770000Y-139000000D02*
X34770000Y-136380000D01*
X39890000Y-139000000D02*
X39890000Y-136380000D01*
%TO.C,R23*%
X36740000Y-133510000D02*
X37070000Y-133510000D01*
X37070000Y-133510000D02*
X37070000Y-127090000D01*
X37070000Y-127090000D02*
X36740000Y-127090000D01*
X34780000Y-133510000D02*
X34450000Y-133510000D01*
X34450000Y-133510000D02*
X34450000Y-127090000D01*
X34450000Y-127090000D02*
X34780000Y-127090000D01*
%TO.C,R24*%
X40020000Y-133510000D02*
X40350000Y-133510000D01*
X40350000Y-133510000D02*
X40350000Y-127090000D01*
X40350000Y-127090000D02*
X40020000Y-127090000D01*
X38060000Y-133510000D02*
X37730000Y-133510000D01*
X37730000Y-133510000D02*
X37730000Y-127090000D01*
X37730000Y-127090000D02*
X38060000Y-127090000D01*
%TO.C,J10*%
X50370000Y-122090000D02*
X47710000Y-122090000D01*
X50370000Y-73770000D02*
X50370000Y-122090000D01*
X47710000Y-73770000D02*
X47710000Y-122090000D01*
X50370000Y-73770000D02*
X47710000Y-73770000D01*
X50370000Y-72500000D02*
X50370000Y-71170000D01*
X50370000Y-71170000D02*
X49040000Y-71170000D01*
%TD*%
M02*
