M48
; DRILL file {KiCad (6.0.11)} date Tue Apr  4 23:09:16 2023
; FORMAT={-:-/ absolute / inch / decimal}
; #@! TF.CreationDate,2023-04-04T23:09:16-05:00
; #@! TF.GenerationSoftware,Kicad,Pcbnew,(6.0.11)
; #@! TF.FileFunction,Plated,1,2,PTH
FMAT,2
INCH
; #@! TA.AperFunction,Plated,PTH,ComponentDrill
T1C0.0295
; #@! TA.AperFunction,Plated,PTH,ComponentDrill
T2C0.0315
; #@! TA.AperFunction,Plated,PTH,ComponentDrill
T3C0.0394
; #@! TA.AperFunction,Plated,PTH,ComponentDrill
T4C0.0433
; #@! TA.AperFunction,Plated,PTH,ComponentDrill
T5C0.0598
; #@! TA.AperFunction,Plated,PTH,ComponentDrill
T6C0.1200
%
G90
G05
T2
X1.4079Y-4.9799
X1.4079Y-5.2799
X1.4205Y-5.4209
X1.5189Y-5.4209
X1.537Y-4.9799
X1.537Y-5.2799
X1.6665Y-4.9807
X1.6665Y-5.2807
X1.7969Y-4.9815
X1.7969Y-5.2815
X1.9264Y-4.9823
X1.9264Y-5.2823
X2.0559Y-4.9831
X2.0559Y-5.2831
X2.1839Y-4.9823
X2.1839Y-5.2823
X2.3102Y-4.9823
X2.3102Y-5.2823
X2.322Y-3.8205
X2.322Y-4.1205
X2.352Y-4.2661
X2.4386Y-4.9831
X2.4386Y-5.2831
X2.4508Y-3.8236
X2.4508Y-4.1236
X2.5673Y-4.9831
X2.5673Y-5.2831
X2.5835Y-3.8201
X2.5835Y-4.1201
X2.652Y-4.2661
X2.7441Y-3.2236
X2.7461Y-3.3606
X2.7496Y-4.5165
X2.7598Y-5.0189
X2.7598Y-5.1173
X2.7602Y-3.5594
X2.7602Y-3.8315
X2.7602Y-4.1315
X2.7614Y-5.2409
X2.7614Y-5.3394
X2.7886Y-4.3965
X2.8291Y-3.6961
X2.8602Y-3.8315
X2.8602Y-4.1315
X2.8858Y-4.2646
X2.9602Y-3.8315
X2.9602Y-4.1315
X3.026Y-3.6961
X3.0441Y-3.2236
X3.0461Y-3.3606
X3.0496Y-4.5165
X3.0602Y-3.5594
X3.0602Y-3.8315
X3.0602Y-4.1315
X3.0827Y-4.2646
X3.0886Y-4.3965
X3.174Y-3.3929
X3.174Y-3.6929
X3.211Y-3.8358
X3.2445Y-4.3709
X3.3043Y-3.3929
X3.3043Y-3.6929
X3.3067Y-4.0244
X3.3067Y-4.1228
X3.3094Y-3.8358
X3.3429Y-4.3709
X3.3846Y-5.1283
X3.3846Y-5.2268
X3.3858Y-4.8957
X3.3858Y-4.9941
X3.4429Y-3.3917
X3.4429Y-3.6917
X3.4469Y-3.8264
X3.4469Y-4.1264
X3.4768Y-4.3736
X3.5531Y-3.4098
X3.5594Y-3.5354
X3.5752Y-4.3736
X3.576Y-3.8252
X3.576Y-4.1252
X3.6035Y-4.7803
X3.6039Y-4.5563
X3.702Y-4.9154
X3.7051Y-3.8252
X3.7051Y-4.1252
X3.8366Y-3.828
X3.8531Y-3.4098
X3.8594Y-3.5354
X3.935Y-3.828
X4.002Y-4.9154
X4.0035Y-4.7803
X4.0039Y-4.5563
X4.1933Y-5.4803
X4.1933Y-5.5787
X4.1969Y-5.1016
X4.1969Y-5.2984
X4.3154Y-3.0161
X4.3154Y-3.213
X4.4705Y-3.1835
X4.4724Y-3.0469
X4.6807Y-2.915
X4.8705Y-3.1835
X4.8724Y-3.0469
X4.8776Y-2.915
T3
X1.6831Y-2.5984
X1.7831Y-2.5984
X1.8307Y-2.8543
X1.8307Y-2.9543
X1.8307Y-3.0543
X1.8307Y-3.1543
X1.8307Y-3.2543
X1.8307Y-3.3543
X1.8307Y-3.4543
X1.8307Y-3.5543
X1.8307Y-3.6543
X1.8307Y-3.7543
X1.8307Y-3.8543
X1.8307Y-3.9543
X1.8307Y-4.0543
X1.8307Y-4.1543
X1.8307Y-4.2543
X1.8307Y-4.3543
X1.8307Y-4.4543
X1.8307Y-4.5543
X1.8307Y-4.6543
X1.8307Y-4.7543
X1.8831Y-2.5984
X1.9307Y-2.8543
X1.9307Y-2.9543
X1.9307Y-3.0543
X1.9307Y-3.1543
X1.9307Y-3.2543
X1.9307Y-3.3543
X1.9307Y-3.4543
X1.9307Y-3.5543
X1.9307Y-3.6543
X1.9307Y-3.7543
X1.9307Y-3.8543
X1.9307Y-3.9543
X1.9307Y-4.0543
X1.9307Y-4.1543
X1.9307Y-4.2543
X1.9307Y-4.3543
X1.9307Y-4.4543
X1.9307Y-4.5543
X1.9307Y-4.6543
X1.9307Y-4.7543
X1.9831Y-2.5984
X2.0831Y-2.5984
X2.1831Y-2.5984
X2.2831Y-2.5984
X2.3831Y-2.5984
X2.4831Y-2.5984
X2.5244Y-4.4012
X2.5717Y-3.687
X2.5831Y-2.5984
X2.6181Y-3.0118
X2.6244Y-4.4012
X2.6717Y-3.687
X2.6831Y-2.5984
X2.7181Y-3.0118
X2.7831Y-2.5984
X2.8181Y-3.0118
X2.8831Y-2.5984
X2.9181Y-3.0118
X2.9831Y-2.5984
X3.0831Y-2.5984
X3.1831Y-2.5984
X3.2728Y-2.9909
X3.2728Y-3.0909
X3.2728Y-3.1909
X3.4984Y-2.9906
X3.4984Y-3.0906
X3.4984Y-3.1906
T4
X2.1012Y-5.4583
X2.1012Y-5.6354
X2.3571Y-5.4583
X2.3571Y-5.6354
X2.5409Y-5.4669
X2.5409Y-5.6441
X2.7969Y-5.4669
X2.7969Y-5.6441
X2.9252Y-5.2665
X2.9252Y-5.4437
X2.9264Y-4.9516
X2.9264Y-5.1287
X3.1811Y-5.2665
X3.1811Y-5.4437
X3.1823Y-4.9516
X3.1823Y-5.1287
X3.3106Y-5.4614
X3.3106Y-5.6386
X3.5665Y-5.4614
X3.5665Y-5.6386
T5
X5.0402Y-5.076
X5.0402Y-5.276
T6
X1.7913Y-2.3819
X1.7913Y-5.5315
X5.0591Y-2.3819
X5.0591Y-5.5315
T1
G00X3.6732Y-5.3278
M15
G01X3.6732Y-5.2982
M16
G05
G00X3.8008Y-2.4726
M15
G01X3.8008Y-2.5022
M16
G05
G00X3.8927Y-5.624
M15
G01X3.8632Y-5.624
M16
G05
G00X3.975Y-2.3142
M15
G01X4.0045Y-2.3142
M16
G05
G00X4.0669Y-5.4656
M15
G01X4.0669Y-5.436
M16
G05
G00X4.1945Y-2.6104
M15
G01X4.1945Y-2.64
M16
G05
G00X4.3642Y-5.3325
M15
G01X4.3642Y-5.303
M16
G05
G00X4.5016Y-2.4738
M15
G01X4.5016Y-2.5033
M16
G05
G00X4.5837Y-5.6287
M15
G01X4.5541Y-5.6287
M16
G05
G00X4.6758Y-2.3154
M15
G01X4.7053Y-2.3154
M16
G05
G00X4.7579Y-5.4703
M15
G01X4.7579Y-5.4407
M16
G05
G00X4.8953Y-2.6116
M15
G01X4.8953Y-2.6411
M16
G05
T3
G00X3.7756Y-5.3622
M15
G01X3.7756Y-5.3425
M16
G05
G00X3.8106Y-2.7591
M15
G01X3.8303Y-2.7591
M16
G05
G00X4.0571Y-5.1791
M15
G01X4.0374Y-5.1791
M16
G05
G00X4.0921Y-2.576
M15
G01X4.0921Y-2.5957
M16
G05
G00X4.4665Y-5.3669
M15
G01X4.4665Y-5.3472
M16
G05
G00X4.5114Y-2.7602
M15
G01X4.5311Y-2.7602
M16
G05
G00X4.748Y-5.1839
M15
G01X4.7283Y-5.1839
M16
G05
G00X4.7929Y-2.5772
M15
G01X4.7929Y-2.5969
M16
G05
T0
M30
