%TF.GenerationSoftware,KiCad,Pcbnew,(6.0.11)*%
%TF.CreationDate,2023-08-06T21:45:53-05:00*%
%TF.ProjectId,BitBangDisplay,42697442-616e-4674-9469-73706c61792e,rev?*%
%TF.SameCoordinates,Original*%
%TF.FileFunction,Legend,Top*%
%TF.FilePolarity,Positive*%
%FSLAX46Y46*%
G04 Gerber Fmt 4.6, Leading zero omitted, Abs format (unit mm)*
G04 Created by KiCad (PCBNEW (6.0.11)) date 2023-08-06 21:45:53*
%MOMM*%
%LPD*%
G01*
G04 APERTURE LIST*
%ADD10C,0.150000*%
%ADD11C,0.120000*%
%ADD12C,0.100000*%
G04 APERTURE END LIST*
D10*
X66170000Y-73971904D02*
X66122380Y-74067142D01*
X66122380Y-74210000D01*
X66170000Y-74352857D01*
X66265238Y-74448095D01*
X66360476Y-74495714D01*
X66550952Y-74543333D01*
X66693809Y-74543333D01*
X66884285Y-74495714D01*
X66979523Y-74448095D01*
X67074761Y-74352857D01*
X67122380Y-74210000D01*
X67122380Y-74114761D01*
X67074761Y-73971904D01*
X67027142Y-73924285D01*
X66693809Y-73924285D01*
X66693809Y-74114761D01*
X67122380Y-73495714D02*
X66122380Y-73495714D01*
X67122380Y-72924285D01*
X66122380Y-72924285D01*
X67122380Y-72448095D02*
X66122380Y-72448095D01*
X66122380Y-72210000D01*
X66170000Y-72067142D01*
X66265238Y-71971904D01*
X66360476Y-71924285D01*
X66550952Y-71876666D01*
X66693809Y-71876666D01*
X66884285Y-71924285D01*
X66979523Y-71971904D01*
X67074761Y-72067142D01*
X67122380Y-72210000D01*
X67122380Y-72448095D01*
X125357380Y-116285238D02*
X124881190Y-116618571D01*
X125357380Y-116856666D02*
X124357380Y-116856666D01*
X124357380Y-116475714D01*
X124405000Y-116380476D01*
X124452619Y-116332857D01*
X124547857Y-116285238D01*
X124690714Y-116285238D01*
X124785952Y-116332857D01*
X124833571Y-116380476D01*
X124881190Y-116475714D01*
X124881190Y-116856666D01*
X124833571Y-115523333D02*
X124833571Y-115856666D01*
X125357380Y-115856666D02*
X124357380Y-115856666D01*
X124357380Y-115380476D01*
X124833571Y-114666190D02*
X124881190Y-114523333D01*
X124928809Y-114475714D01*
X125024047Y-114428095D01*
X125166904Y-114428095D01*
X125262142Y-114475714D01*
X125309761Y-114523333D01*
X125357380Y-114618571D01*
X125357380Y-114999523D01*
X124357380Y-114999523D01*
X124357380Y-114666190D01*
X124405000Y-114570952D01*
X124452619Y-114523333D01*
X124547857Y-114475714D01*
X124643095Y-114475714D01*
X124738333Y-114523333D01*
X124785952Y-114570952D01*
X124833571Y-114666190D01*
X124833571Y-114999523D01*
X125357380Y-113999523D02*
X124690714Y-113999523D01*
X124357380Y-113999523D02*
X124405000Y-114047142D01*
X124452619Y-113999523D01*
X124405000Y-113951904D01*
X124357380Y-113999523D01*
X124452619Y-113999523D01*
X124690714Y-113666190D02*
X124690714Y-113285238D01*
X124357380Y-113523333D02*
X125214523Y-113523333D01*
X125309761Y-113475714D01*
X125357380Y-113380476D01*
X125357380Y-113285238D01*
X124833571Y-112618571D02*
X124881190Y-112475714D01*
X124928809Y-112428095D01*
X125024047Y-112380476D01*
X125166904Y-112380476D01*
X125262142Y-112428095D01*
X125309761Y-112475714D01*
X125357380Y-112570952D01*
X125357380Y-112951904D01*
X124357380Y-112951904D01*
X124357380Y-112618571D01*
X124405000Y-112523333D01*
X124452619Y-112475714D01*
X124547857Y-112428095D01*
X124643095Y-112428095D01*
X124738333Y-112475714D01*
X124785952Y-112523333D01*
X124833571Y-112618571D01*
X124833571Y-112951904D01*
X125357380Y-111523333D02*
X124833571Y-111523333D01*
X124738333Y-111570952D01*
X124690714Y-111666190D01*
X124690714Y-111856666D01*
X124738333Y-111951904D01*
X125309761Y-111523333D02*
X125357380Y-111618571D01*
X125357380Y-111856666D01*
X125309761Y-111951904D01*
X125214523Y-111999523D01*
X125119285Y-111999523D01*
X125024047Y-111951904D01*
X124976428Y-111856666D01*
X124976428Y-111618571D01*
X124928809Y-111523333D01*
X124690714Y-111047142D02*
X125357380Y-111047142D01*
X124785952Y-111047142D02*
X124738333Y-110999523D01*
X124690714Y-110904285D01*
X124690714Y-110761428D01*
X124738333Y-110666190D01*
X124833571Y-110618571D01*
X125357380Y-110618571D01*
X124690714Y-109713809D02*
X125500238Y-109713809D01*
X125595476Y-109761428D01*
X125643095Y-109809047D01*
X125690714Y-109904285D01*
X125690714Y-110047142D01*
X125643095Y-110142380D01*
X125309761Y-109713809D02*
X125357380Y-109809047D01*
X125357380Y-109999523D01*
X125309761Y-110094761D01*
X125262142Y-110142380D01*
X125166904Y-110190000D01*
X124881190Y-110190000D01*
X124785952Y-110142380D01*
X124738333Y-110094761D01*
X124690714Y-109999523D01*
X124690714Y-109809047D01*
X124738333Y-109713809D01*
X125309761Y-108856666D02*
X125357380Y-108951904D01*
X125357380Y-109142380D01*
X125309761Y-109237619D01*
X125214523Y-109285238D01*
X124833571Y-109285238D01*
X124738333Y-109237619D01*
X124690714Y-109142380D01*
X124690714Y-108951904D01*
X124738333Y-108856666D01*
X124833571Y-108809047D01*
X124928809Y-108809047D01*
X125024047Y-109285238D01*
X125357380Y-108380476D02*
X124690714Y-108380476D01*
X124881190Y-108380476D02*
X124785952Y-108332857D01*
X124738333Y-108285238D01*
X124690714Y-108190000D01*
X124690714Y-108094761D01*
X125357380Y-106999523D02*
X124357380Y-106999523D01*
X124357380Y-106761428D01*
X124405000Y-106618571D01*
X124500238Y-106523333D01*
X124595476Y-106475714D01*
X124785952Y-106428095D01*
X124928809Y-106428095D01*
X125119285Y-106475714D01*
X125214523Y-106523333D01*
X125309761Y-106618571D01*
X125357380Y-106761428D01*
X125357380Y-106999523D01*
X125357380Y-105999523D02*
X124690714Y-105999523D01*
X124357380Y-105999523D02*
X124405000Y-106047142D01*
X124452619Y-105999523D01*
X124405000Y-105951904D01*
X124357380Y-105999523D01*
X124452619Y-105999523D01*
X125309761Y-105570952D02*
X125357380Y-105475714D01*
X125357380Y-105285238D01*
X125309761Y-105190000D01*
X125214523Y-105142380D01*
X125166904Y-105142380D01*
X125071666Y-105190000D01*
X125024047Y-105285238D01*
X125024047Y-105428095D01*
X124976428Y-105523333D01*
X124881190Y-105570952D01*
X124833571Y-105570952D01*
X124738333Y-105523333D01*
X124690714Y-105428095D01*
X124690714Y-105285238D01*
X124738333Y-105190000D01*
X124690714Y-104713809D02*
X125690714Y-104713809D01*
X124738333Y-104713809D02*
X124690714Y-104618571D01*
X124690714Y-104428095D01*
X124738333Y-104332857D01*
X124785952Y-104285238D01*
X124881190Y-104237619D01*
X125166904Y-104237619D01*
X125262142Y-104285238D01*
X125309761Y-104332857D01*
X125357380Y-104428095D01*
X125357380Y-104618571D01*
X125309761Y-104713809D01*
X125357380Y-103666190D02*
X125309761Y-103761428D01*
X125214523Y-103809047D01*
X124357380Y-103809047D01*
X125357380Y-102856666D02*
X124833571Y-102856666D01*
X124738333Y-102904285D01*
X124690714Y-102999523D01*
X124690714Y-103190000D01*
X124738333Y-103285238D01*
X125309761Y-102856666D02*
X125357380Y-102951904D01*
X125357380Y-103190000D01*
X125309761Y-103285238D01*
X125214523Y-103332857D01*
X125119285Y-103332857D01*
X125024047Y-103285238D01*
X124976428Y-103190000D01*
X124976428Y-102951904D01*
X124928809Y-102856666D01*
X124690714Y-102475714D02*
X125357380Y-102237619D01*
X124690714Y-101999523D02*
X125357380Y-102237619D01*
X125595476Y-102332857D01*
X125643095Y-102380476D01*
X125690714Y-102475714D01*
X124357380Y-100999523D02*
X125357380Y-100666190D01*
X124357380Y-100332857D01*
X124357380Y-100094761D02*
X124357380Y-99475714D01*
X124738333Y-99809047D01*
X124738333Y-99666190D01*
X124785952Y-99570952D01*
X124833571Y-99523333D01*
X124928809Y-99475714D01*
X125166904Y-99475714D01*
X125262142Y-99523333D01*
X125309761Y-99570952D01*
X125357380Y-99666190D01*
X125357380Y-99951904D01*
X125309761Y-100047142D01*
X125262142Y-100094761D01*
X126443571Y-114332857D02*
X126491190Y-114190000D01*
X126538809Y-114142380D01*
X126634047Y-114094761D01*
X126776904Y-114094761D01*
X126872142Y-114142380D01*
X126919761Y-114190000D01*
X126967380Y-114285238D01*
X126967380Y-114666190D01*
X125967380Y-114666190D01*
X125967380Y-114332857D01*
X126015000Y-114237619D01*
X126062619Y-114190000D01*
X126157857Y-114142380D01*
X126253095Y-114142380D01*
X126348333Y-114190000D01*
X126395952Y-114237619D01*
X126443571Y-114332857D01*
X126443571Y-114666190D01*
X126491190Y-113475714D02*
X126967380Y-113475714D01*
X125967380Y-113809047D02*
X126491190Y-113475714D01*
X125967380Y-113142380D01*
X126967380Y-112047142D02*
X125967380Y-112047142D01*
X125967380Y-111809047D01*
X126015000Y-111666190D01*
X126110238Y-111570952D01*
X126205476Y-111523333D01*
X126395952Y-111475714D01*
X126538809Y-111475714D01*
X126729285Y-111523333D01*
X126824523Y-111570952D01*
X126919761Y-111666190D01*
X126967380Y-111809047D01*
X126967380Y-112047142D01*
X126681666Y-111094761D02*
X126681666Y-110618571D01*
X126967380Y-111190000D02*
X125967380Y-110856666D01*
X126967380Y-110523333D01*
X126967380Y-110190000D02*
X125967380Y-110190000D01*
X126967380Y-109618571D01*
X125967380Y-109618571D01*
X126967380Y-109142380D02*
X125967380Y-109142380D01*
X126443571Y-108666190D02*
X126443571Y-108332857D01*
X126967380Y-108190000D02*
X126967380Y-108666190D01*
X125967380Y-108666190D01*
X125967380Y-108190000D01*
X126967380Y-107285238D02*
X126967380Y-107761428D01*
X125967380Y-107761428D01*
X126967380Y-106190000D02*
X125967380Y-106190000D01*
X126681666Y-105856666D01*
X125967380Y-105523333D01*
X126967380Y-105523333D01*
X126681666Y-105094761D02*
X126681666Y-104618571D01*
X126967380Y-105190000D02*
X125967380Y-104856666D01*
X126967380Y-104523333D01*
X126967380Y-103618571D02*
X126491190Y-103951904D01*
X126967380Y-104190000D02*
X125967380Y-104190000D01*
X125967380Y-103809047D01*
X126015000Y-103713809D01*
X126062619Y-103666190D01*
X126157857Y-103618571D01*
X126300714Y-103618571D01*
X126395952Y-103666190D01*
X126443571Y-103713809D01*
X126491190Y-103809047D01*
X126491190Y-104190000D01*
X126967380Y-103190000D02*
X125967380Y-103190000D01*
X126967380Y-102618571D02*
X126395952Y-103047142D01*
X125967380Y-102618571D02*
X126538809Y-103190000D01*
X126919761Y-102237619D02*
X126967380Y-102094761D01*
X126967380Y-101856666D01*
X126919761Y-101761428D01*
X126872142Y-101713809D01*
X126776904Y-101666190D01*
X126681666Y-101666190D01*
X126586428Y-101713809D01*
X126538809Y-101761428D01*
X126491190Y-101856666D01*
X126443571Y-102047142D01*
X126395952Y-102142380D01*
X126348333Y-102190000D01*
X126253095Y-102237619D01*
X126157857Y-102237619D01*
X126062619Y-102190000D01*
X126015000Y-102142380D01*
X125967380Y-102047142D01*
X125967380Y-101809047D01*
X126015000Y-101666190D01*
X128577380Y-110118571D02*
X127577380Y-110118571D01*
X128577380Y-109547142D02*
X128005952Y-109975714D01*
X127577380Y-109547142D02*
X128148809Y-110118571D01*
X127577380Y-109213809D02*
X128577380Y-108975714D01*
X127863095Y-108785238D01*
X128577380Y-108594761D01*
X127577380Y-108356666D01*
X127910714Y-107547142D02*
X128577380Y-107547142D01*
X127529761Y-107785238D02*
X128244047Y-108023333D01*
X128244047Y-107404285D01*
X127577380Y-107166190D02*
X127577380Y-106594761D01*
X128577380Y-106880476D02*
X127577380Y-106880476D01*
X128577380Y-106261428D02*
X127577380Y-106261428D01*
X130092142Y-113023333D02*
X130139761Y-113070952D01*
X130187380Y-113213809D01*
X130187380Y-113309047D01*
X130139761Y-113451904D01*
X130044523Y-113547142D01*
X129949285Y-113594761D01*
X129758809Y-113642380D01*
X129615952Y-113642380D01*
X129425476Y-113594761D01*
X129330238Y-113547142D01*
X129235000Y-113451904D01*
X129187380Y-113309047D01*
X129187380Y-113213809D01*
X129235000Y-113070952D01*
X129282619Y-113023333D01*
X130092142Y-112023333D02*
X130139761Y-112070952D01*
X130187380Y-112213809D01*
X130187380Y-112309047D01*
X130139761Y-112451904D01*
X130044523Y-112547142D01*
X129949285Y-112594761D01*
X129758809Y-112642380D01*
X129615952Y-112642380D01*
X129425476Y-112594761D01*
X129330238Y-112547142D01*
X129235000Y-112451904D01*
X129187380Y-112309047D01*
X129187380Y-112213809D01*
X129235000Y-112070952D01*
X129282619Y-112023333D01*
X129806428Y-111594761D02*
X129806428Y-110832857D01*
X129663571Y-110023333D02*
X129711190Y-109880476D01*
X129758809Y-109832857D01*
X129854047Y-109785238D01*
X129996904Y-109785238D01*
X130092142Y-109832857D01*
X130139761Y-109880476D01*
X130187380Y-109975714D01*
X130187380Y-110356666D01*
X129187380Y-110356666D01*
X129187380Y-110023333D01*
X129235000Y-109928095D01*
X129282619Y-109880476D01*
X129377857Y-109832857D01*
X129473095Y-109832857D01*
X129568333Y-109880476D01*
X129615952Y-109928095D01*
X129663571Y-110023333D01*
X129663571Y-110356666D01*
X129711190Y-109166190D02*
X130187380Y-109166190D01*
X129187380Y-109499523D02*
X129711190Y-109166190D01*
X129187380Y-108832857D01*
X129806428Y-108499523D02*
X129806428Y-107737619D01*
X130139761Y-107309047D02*
X130187380Y-107166190D01*
X130187380Y-106928095D01*
X130139761Y-106832857D01*
X130092142Y-106785238D01*
X129996904Y-106737619D01*
X129901666Y-106737619D01*
X129806428Y-106785238D01*
X129758809Y-106832857D01*
X129711190Y-106928095D01*
X129663571Y-107118571D01*
X129615952Y-107213809D01*
X129568333Y-107261428D01*
X129473095Y-107309047D01*
X129377857Y-107309047D01*
X129282619Y-107261428D01*
X129235000Y-107213809D01*
X129187380Y-107118571D01*
X129187380Y-106880476D01*
X129235000Y-106737619D01*
X129901666Y-106356666D02*
X129901666Y-105880476D01*
X130187380Y-106451904D02*
X129187380Y-106118571D01*
X130187380Y-105785238D01*
X129520714Y-104261428D02*
X130187380Y-104261428D01*
X129139761Y-104499523D02*
X129854047Y-104737619D01*
X129854047Y-104118571D01*
X130092142Y-103737619D02*
X130139761Y-103690000D01*
X130187380Y-103737619D01*
X130139761Y-103785238D01*
X130092142Y-103737619D01*
X130187380Y-103737619D01*
X129187380Y-103070952D02*
X129187380Y-102975714D01*
X129235000Y-102880476D01*
X129282619Y-102832857D01*
X129377857Y-102785238D01*
X129568333Y-102737619D01*
X129806428Y-102737619D01*
X129996904Y-102785238D01*
X130092142Y-102832857D01*
X130139761Y-102880476D01*
X130187380Y-102975714D01*
X130187380Y-103070952D01*
X130139761Y-103166190D01*
X130092142Y-103213809D01*
X129996904Y-103261428D01*
X129806428Y-103309047D01*
X129568333Y-103309047D01*
X129377857Y-103261428D01*
X129282619Y-103213809D01*
X129235000Y-103166190D01*
X129187380Y-103070952D01*
X69827380Y-73851666D02*
X69351190Y-74185000D01*
X69827380Y-74423095D02*
X68827380Y-74423095D01*
X68827380Y-74042142D01*
X68875000Y-73946904D01*
X68922619Y-73899285D01*
X69017857Y-73851666D01*
X69160714Y-73851666D01*
X69255952Y-73899285D01*
X69303571Y-73946904D01*
X69351190Y-74042142D01*
X69351190Y-74423095D01*
X68827380Y-73518333D02*
X69827380Y-72851666D01*
X68827380Y-72851666D02*
X69827380Y-73518333D01*
X71327380Y-74546904D02*
X71327380Y-73975476D01*
X72327380Y-74261190D02*
X71327380Y-74261190D01*
X71327380Y-73737380D02*
X72327380Y-73070714D01*
X71327380Y-73070714D02*
X72327380Y-73737380D01*
X43055714Y-69252380D02*
X42484285Y-69252380D01*
X42770000Y-69252380D02*
X42770000Y-68252380D01*
X42674761Y-68395238D01*
X42579523Y-68490476D01*
X42484285Y-68538095D01*
X94587142Y-128149761D02*
X94730000Y-128197380D01*
X94968095Y-128197380D01*
X95063333Y-128149761D01*
X95110952Y-128102142D01*
X95158571Y-128006904D01*
X95158571Y-127911666D01*
X95110952Y-127816428D01*
X95063333Y-127768809D01*
X94968095Y-127721190D01*
X94777619Y-127673571D01*
X94682380Y-127625952D01*
X94634761Y-127578333D01*
X94587142Y-127483095D01*
X94587142Y-127387857D01*
X94634761Y-127292619D01*
X94682380Y-127245000D01*
X94777619Y-127197380D01*
X95015714Y-127197380D01*
X95158571Y-127245000D01*
X95587142Y-128197380D02*
X95587142Y-127197380D01*
X95968095Y-127197380D01*
X96063333Y-127245000D01*
X96110952Y-127292619D01*
X96158571Y-127387857D01*
X96158571Y-127530714D01*
X96110952Y-127625952D01*
X96063333Y-127673571D01*
X95968095Y-127721190D01*
X95587142Y-127721190D01*
X96587142Y-127673571D02*
X96920476Y-127673571D01*
X97063333Y-128197380D02*
X96587142Y-128197380D01*
X96587142Y-127197380D01*
X97063333Y-127197380D01*
X97444285Y-127911666D02*
X97920476Y-127911666D01*
X97349047Y-128197380D02*
X97682380Y-127197380D01*
X98015714Y-128197380D01*
X98349047Y-128197380D02*
X98349047Y-127197380D01*
X98920476Y-128197380D02*
X98491904Y-127625952D01*
X98920476Y-127197380D02*
X98349047Y-127768809D01*
X99349047Y-127673571D02*
X99682380Y-127673571D01*
X99825238Y-128197380D02*
X99349047Y-128197380D01*
X99349047Y-127197380D01*
X99825238Y-127197380D01*
X100825238Y-128197380D02*
X100491904Y-127721190D01*
X100253809Y-128197380D02*
X100253809Y-127197380D01*
X100634761Y-127197380D01*
X100730000Y-127245000D01*
X100777619Y-127292619D01*
X100825238Y-127387857D01*
X100825238Y-127530714D01*
X100777619Y-127625952D01*
X100730000Y-127673571D01*
X100634761Y-127721190D01*
X100253809Y-127721190D01*
X101968095Y-127149761D02*
X101110952Y-128435476D01*
X94039523Y-129807380D02*
X94039523Y-128807380D01*
X94039523Y-129283571D02*
X94610952Y-129283571D01*
X94610952Y-129807380D02*
X94610952Y-128807380D01*
X95087142Y-129283571D02*
X95420476Y-129283571D01*
X95563333Y-129807380D02*
X95087142Y-129807380D01*
X95087142Y-128807380D01*
X95563333Y-128807380D01*
X95944285Y-129521666D02*
X96420476Y-129521666D01*
X95849047Y-129807380D02*
X96182380Y-128807380D01*
X96515714Y-129807380D01*
X96849047Y-129807380D02*
X96849047Y-128807380D01*
X97087142Y-128807380D01*
X97230000Y-128855000D01*
X97325238Y-128950238D01*
X97372857Y-129045476D01*
X97420476Y-129235952D01*
X97420476Y-129378809D01*
X97372857Y-129569285D01*
X97325238Y-129664523D01*
X97230000Y-129759761D01*
X97087142Y-129807380D01*
X96849047Y-129807380D01*
X97849047Y-129807380D02*
X97849047Y-128807380D01*
X98230000Y-128807380D01*
X98325238Y-128855000D01*
X98372857Y-128902619D01*
X98420476Y-128997857D01*
X98420476Y-129140714D01*
X98372857Y-129235952D01*
X98325238Y-129283571D01*
X98230000Y-129331190D01*
X97849047Y-129331190D01*
X98849047Y-129807380D02*
X98849047Y-128807380D01*
X98849047Y-129283571D02*
X99420476Y-129283571D01*
X99420476Y-129807380D02*
X99420476Y-128807380D01*
X100087142Y-128807380D02*
X100277619Y-128807380D01*
X100372857Y-128855000D01*
X100468095Y-128950238D01*
X100515714Y-129140714D01*
X100515714Y-129474047D01*
X100468095Y-129664523D01*
X100372857Y-129759761D01*
X100277619Y-129807380D01*
X100087142Y-129807380D01*
X99991904Y-129759761D01*
X99896666Y-129664523D01*
X99849047Y-129474047D01*
X99849047Y-129140714D01*
X99896666Y-128950238D01*
X99991904Y-128855000D01*
X100087142Y-128807380D01*
X100944285Y-129807380D02*
X100944285Y-128807380D01*
X101515714Y-129807380D01*
X101515714Y-128807380D01*
X101991904Y-129283571D02*
X102325238Y-129283571D01*
X102468095Y-129807380D02*
X101991904Y-129807380D01*
X101991904Y-128807380D01*
X102468095Y-128807380D01*
X74822380Y-74472857D02*
X73822380Y-74472857D01*
X73822380Y-74234761D01*
X73870000Y-74091904D01*
X73965238Y-73996666D01*
X74060476Y-73949047D01*
X74250952Y-73901428D01*
X74393809Y-73901428D01*
X74584285Y-73949047D01*
X74679523Y-73996666D01*
X74774761Y-74091904D01*
X74822380Y-74234761D01*
X74822380Y-74472857D01*
X73822380Y-73615714D02*
X73822380Y-73044285D01*
X74822380Y-73330000D02*
X73822380Y-73330000D01*
X74822380Y-72139523D02*
X74346190Y-72472857D01*
X74822380Y-72710952D02*
X73822380Y-72710952D01*
X73822380Y-72330000D01*
X73870000Y-72234761D01*
X73917619Y-72187142D01*
X74012857Y-72139523D01*
X74155714Y-72139523D01*
X74250952Y-72187142D01*
X74298571Y-72234761D01*
X74346190Y-72330000D01*
X74346190Y-72710952D01*
X110977142Y-128447380D02*
X110977142Y-127447380D01*
X111310476Y-128161666D01*
X111643809Y-127447380D01*
X111643809Y-128447380D01*
X112120000Y-128447380D02*
X112120000Y-127447380D01*
X113167619Y-128352142D02*
X113120000Y-128399761D01*
X112977142Y-128447380D01*
X112881904Y-128447380D01*
X112739047Y-128399761D01*
X112643809Y-128304523D01*
X112596190Y-128209285D01*
X112548571Y-128018809D01*
X112548571Y-127875952D01*
X112596190Y-127685476D01*
X112643809Y-127590238D01*
X112739047Y-127495000D01*
X112881904Y-127447380D01*
X112977142Y-127447380D01*
X113120000Y-127495000D01*
X113167619Y-127542619D01*
X114167619Y-128447380D02*
X113834285Y-127971190D01*
X113596190Y-128447380D02*
X113596190Y-127447380D01*
X113977142Y-127447380D01*
X114072380Y-127495000D01*
X114120000Y-127542619D01*
X114167619Y-127637857D01*
X114167619Y-127780714D01*
X114120000Y-127875952D01*
X114072380Y-127923571D01*
X113977142Y-127971190D01*
X113596190Y-127971190D01*
X114786666Y-127447380D02*
X114977142Y-127447380D01*
X115072380Y-127495000D01*
X115167619Y-127590238D01*
X115215238Y-127780714D01*
X115215238Y-128114047D01*
X115167619Y-128304523D01*
X115072380Y-128399761D01*
X114977142Y-128447380D01*
X114786666Y-128447380D01*
X114691428Y-128399761D01*
X114596190Y-128304523D01*
X114548571Y-128114047D01*
X114548571Y-127780714D01*
X114596190Y-127590238D01*
X114691428Y-127495000D01*
X114786666Y-127447380D01*
X115643809Y-128447380D02*
X115643809Y-127447380D01*
X116024761Y-127447380D01*
X116120000Y-127495000D01*
X116167619Y-127542619D01*
X116215238Y-127637857D01*
X116215238Y-127780714D01*
X116167619Y-127875952D01*
X116120000Y-127923571D01*
X116024761Y-127971190D01*
X115643809Y-127971190D01*
X116643809Y-128447380D02*
X116643809Y-127447380D01*
X116643809Y-127923571D02*
X117215238Y-127923571D01*
X117215238Y-128447380D02*
X117215238Y-127447380D01*
X117881904Y-127447380D02*
X118072380Y-127447380D01*
X118167619Y-127495000D01*
X118262857Y-127590238D01*
X118310476Y-127780714D01*
X118310476Y-128114047D01*
X118262857Y-128304523D01*
X118167619Y-128399761D01*
X118072380Y-128447380D01*
X117881904Y-128447380D01*
X117786666Y-128399761D01*
X117691428Y-128304523D01*
X117643809Y-128114047D01*
X117643809Y-127780714D01*
X117691428Y-127590238D01*
X117786666Y-127495000D01*
X117881904Y-127447380D01*
X118739047Y-128447380D02*
X118739047Y-127447380D01*
X119310476Y-128447380D01*
X119310476Y-127447380D01*
X119786666Y-127923571D02*
X120119999Y-127923571D01*
X120262857Y-128447380D02*
X119786666Y-128447380D01*
X119786666Y-127447380D01*
X120262857Y-127447380D01*
X121405714Y-127399761D02*
X120548571Y-128685476D01*
X114072380Y-130057380D02*
X113596190Y-130057380D01*
X113596190Y-129057380D01*
X114405714Y-130057380D02*
X114405714Y-129057380D01*
X114881904Y-130057380D02*
X114881904Y-129057380D01*
X115453333Y-130057380D01*
X115453333Y-129057380D01*
X115929523Y-129533571D02*
X116262857Y-129533571D01*
X116405714Y-130057380D02*
X115929523Y-130057380D01*
X115929523Y-129057380D01*
X116405714Y-129057380D01*
X117596190Y-130057380D02*
X117596190Y-129057380D01*
X118072380Y-130057380D02*
X118072380Y-129057380D01*
X118643809Y-130057380D01*
X118643809Y-129057380D01*
X124875714Y-124467380D02*
X124875714Y-123467380D01*
X125351904Y-124467380D02*
X125351904Y-123467380D01*
X125923333Y-124467380D01*
X125923333Y-123467380D01*
X126256666Y-123467380D02*
X126828095Y-123467380D01*
X126542380Y-124467380D02*
X126542380Y-123467380D01*
X127161428Y-123943571D02*
X127494761Y-123943571D01*
X127637619Y-124467380D02*
X127161428Y-124467380D01*
X127161428Y-123467380D01*
X127637619Y-123467380D01*
X128637619Y-124467380D02*
X128304285Y-123991190D01*
X128066190Y-124467380D02*
X128066190Y-123467380D01*
X128447142Y-123467380D01*
X128542380Y-123515000D01*
X128590000Y-123562619D01*
X128637619Y-123657857D01*
X128637619Y-123800714D01*
X128590000Y-123895952D01*
X128542380Y-123943571D01*
X128447142Y-123991190D01*
X128066190Y-123991190D01*
X129066190Y-124467380D02*
X129066190Y-123467380D01*
X129637619Y-124467380D01*
X129637619Y-123467380D01*
X130066190Y-124181666D02*
X130542380Y-124181666D01*
X129970952Y-124467380D02*
X130304285Y-123467380D01*
X130637619Y-124467380D01*
X131447142Y-124467380D02*
X130970952Y-124467380D01*
X130970952Y-123467380D01*
X124970952Y-126029761D02*
X125113809Y-126077380D01*
X125351904Y-126077380D01*
X125447142Y-126029761D01*
X125494761Y-125982142D01*
X125542380Y-125886904D01*
X125542380Y-125791666D01*
X125494761Y-125696428D01*
X125447142Y-125648809D01*
X125351904Y-125601190D01*
X125161428Y-125553571D01*
X125066190Y-125505952D01*
X125018571Y-125458333D01*
X124970952Y-125363095D01*
X124970952Y-125267857D01*
X125018571Y-125172619D01*
X125066190Y-125125000D01*
X125161428Y-125077380D01*
X125399523Y-125077380D01*
X125542380Y-125125000D01*
X125970952Y-126077380D02*
X125970952Y-125077380D01*
X126351904Y-125077380D01*
X126447142Y-125125000D01*
X126494761Y-125172619D01*
X126542380Y-125267857D01*
X126542380Y-125410714D01*
X126494761Y-125505952D01*
X126447142Y-125553571D01*
X126351904Y-125601190D01*
X125970952Y-125601190D01*
X126970952Y-125553571D02*
X127304285Y-125553571D01*
X127447142Y-126077380D02*
X126970952Y-126077380D01*
X126970952Y-125077380D01*
X127447142Y-125077380D01*
X127828095Y-125791666D02*
X128304285Y-125791666D01*
X127732857Y-126077380D02*
X128066190Y-125077380D01*
X128399523Y-126077380D01*
X128732857Y-126077380D02*
X128732857Y-125077380D01*
X129304285Y-126077380D02*
X128875714Y-125505952D01*
X129304285Y-125077380D02*
X128732857Y-125648809D01*
X129732857Y-125553571D02*
X130066190Y-125553571D01*
X130209047Y-126077380D02*
X129732857Y-126077380D01*
X129732857Y-125077380D01*
X130209047Y-125077380D01*
X131209047Y-126077380D02*
X130875714Y-125601190D01*
X130637619Y-126077380D02*
X130637619Y-125077380D01*
X131018571Y-125077380D01*
X131113809Y-125125000D01*
X131161428Y-125172619D01*
X131209047Y-125267857D01*
X131209047Y-125410714D01*
X131161428Y-125505952D01*
X131113809Y-125553571D01*
X131018571Y-125601190D01*
X130637619Y-125601190D01*
X64940714Y-74327380D02*
X64369285Y-74327380D01*
X64655000Y-74327380D02*
X64655000Y-73327380D01*
X64559761Y-73470238D01*
X64464523Y-73565476D01*
X64369285Y-73613095D01*
X94749619Y-71683619D02*
X94749619Y-72683619D01*
X94368666Y-72683619D01*
X94273428Y-72636000D01*
X94225809Y-72588380D01*
X94178190Y-72493142D01*
X94178190Y-72350285D01*
X94225809Y-72255047D01*
X94273428Y-72207428D01*
X94368666Y-72159809D01*
X94749619Y-72159809D01*
X93797238Y-71969333D02*
X93321047Y-71969333D01*
X93892476Y-71683619D02*
X93559142Y-72683619D01*
X93225809Y-71683619D01*
X92892476Y-71683619D02*
X92892476Y-72683619D01*
X92654380Y-72683619D01*
X92511523Y-72636000D01*
X92416285Y-72540761D01*
X92368666Y-72445523D01*
X92321047Y-72255047D01*
X92321047Y-72112190D01*
X92368666Y-71921714D01*
X92416285Y-71826476D01*
X92511523Y-71731238D01*
X92654380Y-71683619D01*
X92892476Y-71683619D01*
X91892476Y-71683619D02*
X91892476Y-72683619D01*
X91654380Y-72683619D01*
X91511523Y-72636000D01*
X91416285Y-72540761D01*
X91368666Y-72445523D01*
X91321047Y-72255047D01*
X91321047Y-72112190D01*
X91368666Y-71921714D01*
X91416285Y-71826476D01*
X91511523Y-71731238D01*
X91654380Y-71683619D01*
X91892476Y-71683619D01*
X90416285Y-71683619D02*
X90892476Y-71683619D01*
X90892476Y-72683619D01*
X90082952Y-72207428D02*
X89749619Y-72207428D01*
X89606761Y-71683619D02*
X90082952Y-71683619D01*
X90082952Y-72683619D01*
X89606761Y-72683619D01*
X104211238Y-72937619D02*
X104211238Y-72128095D01*
X104163619Y-72032857D01*
X104116000Y-71985238D01*
X104020761Y-71937619D01*
X103830285Y-71937619D01*
X103735047Y-71985238D01*
X103687428Y-72032857D01*
X103639809Y-72128095D01*
X103639809Y-72937619D01*
X103211238Y-72223333D02*
X102735047Y-72223333D01*
X103306476Y-71937619D02*
X102973142Y-72937619D01*
X102639809Y-71937619D01*
X101735047Y-71937619D02*
X102068380Y-72413809D01*
X102306476Y-71937619D02*
X102306476Y-72937619D01*
X101925523Y-72937619D01*
X101830285Y-72890000D01*
X101782666Y-72842380D01*
X101735047Y-72747142D01*
X101735047Y-72604285D01*
X101782666Y-72509047D01*
X101830285Y-72461428D01*
X101925523Y-72413809D01*
X102306476Y-72413809D01*
X101449333Y-72937619D02*
X100877904Y-72937619D01*
X101163619Y-71937619D02*
X101163619Y-72937619D01*
%TO.C,SW2*%
X76156666Y-128304761D02*
X76299523Y-128352380D01*
X76537619Y-128352380D01*
X76632857Y-128304761D01*
X76680476Y-128257142D01*
X76728095Y-128161904D01*
X76728095Y-128066666D01*
X76680476Y-127971428D01*
X76632857Y-127923809D01*
X76537619Y-127876190D01*
X76347142Y-127828571D01*
X76251904Y-127780952D01*
X76204285Y-127733333D01*
X76156666Y-127638095D01*
X76156666Y-127542857D01*
X76204285Y-127447619D01*
X76251904Y-127400000D01*
X76347142Y-127352380D01*
X76585238Y-127352380D01*
X76728095Y-127400000D01*
X77061428Y-127352380D02*
X77299523Y-128352380D01*
X77490000Y-127638095D01*
X77680476Y-128352380D01*
X77918571Y-127352380D01*
X78251904Y-127447619D02*
X78299523Y-127400000D01*
X78394761Y-127352380D01*
X78632857Y-127352380D01*
X78728095Y-127400000D01*
X78775714Y-127447619D01*
X78823333Y-127542857D01*
X78823333Y-127638095D01*
X78775714Y-127780952D01*
X78204285Y-128352380D01*
X78823333Y-128352380D01*
%TO.C,SW3*%
X66508666Y-141550761D02*
X66651523Y-141598380D01*
X66889619Y-141598380D01*
X66984857Y-141550761D01*
X67032476Y-141503142D01*
X67080095Y-141407904D01*
X67080095Y-141312666D01*
X67032476Y-141217428D01*
X66984857Y-141169809D01*
X66889619Y-141122190D01*
X66699142Y-141074571D01*
X66603904Y-141026952D01*
X66556285Y-140979333D01*
X66508666Y-140884095D01*
X66508666Y-140788857D01*
X66556285Y-140693619D01*
X66603904Y-140646000D01*
X66699142Y-140598380D01*
X66937238Y-140598380D01*
X67080095Y-140646000D01*
X67413428Y-140598380D02*
X67651523Y-141598380D01*
X67842000Y-140884095D01*
X68032476Y-141598380D01*
X68270571Y-140598380D01*
X68556285Y-140598380D02*
X69175333Y-140598380D01*
X68842000Y-140979333D01*
X68984857Y-140979333D01*
X69080095Y-141026952D01*
X69127714Y-141074571D01*
X69175333Y-141169809D01*
X69175333Y-141407904D01*
X69127714Y-141503142D01*
X69080095Y-141550761D01*
X68984857Y-141598380D01*
X68699142Y-141598380D01*
X68603904Y-141550761D01*
X68556285Y-141503142D01*
%TO.C,SW4*%
X86058666Y-141410761D02*
X86201523Y-141458380D01*
X86439619Y-141458380D01*
X86534857Y-141410761D01*
X86582476Y-141363142D01*
X86630095Y-141267904D01*
X86630095Y-141172666D01*
X86582476Y-141077428D01*
X86534857Y-141029809D01*
X86439619Y-140982190D01*
X86249142Y-140934571D01*
X86153904Y-140886952D01*
X86106285Y-140839333D01*
X86058666Y-140744095D01*
X86058666Y-140648857D01*
X86106285Y-140553619D01*
X86153904Y-140506000D01*
X86249142Y-140458380D01*
X86487238Y-140458380D01*
X86630095Y-140506000D01*
X86963428Y-140458380D02*
X87201523Y-141458380D01*
X87392000Y-140744095D01*
X87582476Y-141458380D01*
X87820571Y-140458380D01*
X88630095Y-140791714D02*
X88630095Y-141458380D01*
X88392000Y-140410761D02*
X88153904Y-141125047D01*
X88772952Y-141125047D01*
%TO.C,SW5*%
X76286666Y-136384761D02*
X76429523Y-136432380D01*
X76667619Y-136432380D01*
X76762857Y-136384761D01*
X76810476Y-136337142D01*
X76858095Y-136241904D01*
X76858095Y-136146666D01*
X76810476Y-136051428D01*
X76762857Y-136003809D01*
X76667619Y-135956190D01*
X76477142Y-135908571D01*
X76381904Y-135860952D01*
X76334285Y-135813333D01*
X76286666Y-135718095D01*
X76286666Y-135622857D01*
X76334285Y-135527619D01*
X76381904Y-135480000D01*
X76477142Y-135432380D01*
X76715238Y-135432380D01*
X76858095Y-135480000D01*
X77191428Y-135432380D02*
X77429523Y-136432380D01*
X77620000Y-135718095D01*
X77810476Y-136432380D01*
X78048571Y-135432380D01*
X78905714Y-135432380D02*
X78429523Y-135432380D01*
X78381904Y-135908571D01*
X78429523Y-135860952D01*
X78524761Y-135813333D01*
X78762857Y-135813333D01*
X78858095Y-135860952D01*
X78905714Y-135908571D01*
X78953333Y-136003809D01*
X78953333Y-136241904D01*
X78905714Y-136337142D01*
X78858095Y-136384761D01*
X78762857Y-136432380D01*
X78524761Y-136432380D01*
X78429523Y-136384761D01*
X78381904Y-136337142D01*
%TO.C,J1*%
X63622380Y-76833333D02*
X64336666Y-76833333D01*
X64479523Y-76880952D01*
X64574761Y-76976190D01*
X64622380Y-77119047D01*
X64622380Y-77214285D01*
X64622380Y-75833333D02*
X64622380Y-76404761D01*
X64622380Y-76119047D02*
X63622380Y-76119047D01*
X63765238Y-76214285D01*
X63860476Y-76309523D01*
X63908095Y-76404761D01*
%TO.C,J2*%
X98166666Y-139202380D02*
X98166666Y-139916666D01*
X98119047Y-140059523D01*
X98023809Y-140154761D01*
X97880952Y-140202380D01*
X97785714Y-140202380D01*
X98595238Y-139297619D02*
X98642857Y-139250000D01*
X98738095Y-139202380D01*
X98976190Y-139202380D01*
X99071428Y-139250000D01*
X99119047Y-139297619D01*
X99166666Y-139392857D01*
X99166666Y-139488095D01*
X99119047Y-139630952D01*
X98547619Y-140202380D01*
X99166666Y-140202380D01*
%TO.C,J13*%
X89520476Y-61662380D02*
X89520476Y-62376666D01*
X89472857Y-62519523D01*
X89377619Y-62614761D01*
X89234761Y-62662380D01*
X89139523Y-62662380D01*
X90520476Y-62662380D02*
X89949047Y-62662380D01*
X90234761Y-62662380D02*
X90234761Y-61662380D01*
X90139523Y-61805238D01*
X90044285Y-61900476D01*
X89949047Y-61948095D01*
X90853809Y-61662380D02*
X91472857Y-61662380D01*
X91139523Y-62043333D01*
X91282380Y-62043333D01*
X91377619Y-62090952D01*
X91425238Y-62138571D01*
X91472857Y-62233809D01*
X91472857Y-62471904D01*
X91425238Y-62567142D01*
X91377619Y-62614761D01*
X91282380Y-62662380D01*
X90996666Y-62662380D01*
X90901428Y-62614761D01*
X90853809Y-62567142D01*
%TO.C,J14*%
X101990476Y-61682380D02*
X101990476Y-62396666D01*
X101942857Y-62539523D01*
X101847619Y-62634761D01*
X101704761Y-62682380D01*
X101609523Y-62682380D01*
X102990476Y-62682380D02*
X102419047Y-62682380D01*
X102704761Y-62682380D02*
X102704761Y-61682380D01*
X102609523Y-61825238D01*
X102514285Y-61920476D01*
X102419047Y-61968095D01*
X103847619Y-62015714D02*
X103847619Y-62682380D01*
X103609523Y-61634761D02*
X103371428Y-62349047D01*
X103990476Y-62349047D01*
%TO.C,JP1*%
X88026666Y-73082380D02*
X88026666Y-73796666D01*
X87979047Y-73939523D01*
X87883809Y-74034761D01*
X87740952Y-74082380D01*
X87645714Y-74082380D01*
X88502857Y-74082380D02*
X88502857Y-73082380D01*
X88883809Y-73082380D01*
X88979047Y-73130000D01*
X89026666Y-73177619D01*
X89074285Y-73272857D01*
X89074285Y-73415714D01*
X89026666Y-73510952D01*
X88979047Y-73558571D01*
X88883809Y-73606190D01*
X88502857Y-73606190D01*
X90026666Y-74082380D02*
X89455238Y-74082380D01*
X89740952Y-74082380D02*
X89740952Y-73082380D01*
X89645714Y-73225238D01*
X89550476Y-73320476D01*
X89455238Y-73368095D01*
%TO.C,JP2*%
X82296666Y-73092380D02*
X82296666Y-73806666D01*
X82249047Y-73949523D01*
X82153809Y-74044761D01*
X82010952Y-74092380D01*
X81915714Y-74092380D01*
X82772857Y-74092380D02*
X82772857Y-73092380D01*
X83153809Y-73092380D01*
X83249047Y-73140000D01*
X83296666Y-73187619D01*
X83344285Y-73282857D01*
X83344285Y-73425714D01*
X83296666Y-73520952D01*
X83249047Y-73568571D01*
X83153809Y-73616190D01*
X82772857Y-73616190D01*
X83725238Y-73187619D02*
X83772857Y-73140000D01*
X83868095Y-73092380D01*
X84106190Y-73092380D01*
X84201428Y-73140000D01*
X84249047Y-73187619D01*
X84296666Y-73282857D01*
X84296666Y-73378095D01*
X84249047Y-73520952D01*
X83677619Y-74092380D01*
X84296666Y-74092380D01*
%TO.C,J15*%
X115240476Y-139322380D02*
X115240476Y-140036666D01*
X115192857Y-140179523D01*
X115097619Y-140274761D01*
X114954761Y-140322380D01*
X114859523Y-140322380D01*
X116240476Y-140322380D02*
X115669047Y-140322380D01*
X115954761Y-140322380D02*
X115954761Y-139322380D01*
X115859523Y-139465238D01*
X115764285Y-139560476D01*
X115669047Y-139608095D01*
X117145238Y-139322380D02*
X116669047Y-139322380D01*
X116621428Y-139798571D01*
X116669047Y-139750952D01*
X116764285Y-139703333D01*
X117002380Y-139703333D01*
X117097619Y-139750952D01*
X117145238Y-139798571D01*
X117192857Y-139893809D01*
X117192857Y-140131904D01*
X117145238Y-140227142D01*
X117097619Y-140274761D01*
X117002380Y-140322380D01*
X116764285Y-140322380D01*
X116669047Y-140274761D01*
X116621428Y-140227142D01*
%TO.C,JP3*%
X61242380Y-112623333D02*
X61956666Y-112623333D01*
X62099523Y-112670952D01*
X62194761Y-112766190D01*
X62242380Y-112909047D01*
X62242380Y-113004285D01*
X62242380Y-112147142D02*
X61242380Y-112147142D01*
X61242380Y-111766190D01*
X61290000Y-111670952D01*
X61337619Y-111623333D01*
X61432857Y-111575714D01*
X61575714Y-111575714D01*
X61670952Y-111623333D01*
X61718571Y-111670952D01*
X61766190Y-111766190D01*
X61766190Y-112147142D01*
X61242380Y-111242380D02*
X61242380Y-110623333D01*
X61623333Y-110956666D01*
X61623333Y-110813809D01*
X61670952Y-110718571D01*
X61718571Y-110670952D01*
X61813809Y-110623333D01*
X62051904Y-110623333D01*
X62147142Y-110670952D01*
X62194761Y-110718571D01*
X62242380Y-110813809D01*
X62242380Y-111099523D01*
X62194761Y-111194761D01*
X62147142Y-111242380D01*
%TO.C,JP4*%
X62442380Y-94483333D02*
X63156666Y-94483333D01*
X63299523Y-94530952D01*
X63394761Y-94626190D01*
X63442380Y-94769047D01*
X63442380Y-94864285D01*
X63442380Y-94007142D02*
X62442380Y-94007142D01*
X62442380Y-93626190D01*
X62490000Y-93530952D01*
X62537619Y-93483333D01*
X62632857Y-93435714D01*
X62775714Y-93435714D01*
X62870952Y-93483333D01*
X62918571Y-93530952D01*
X62966190Y-93626190D01*
X62966190Y-94007142D01*
X62775714Y-92578571D02*
X63442380Y-92578571D01*
X62394761Y-92816666D02*
X63109047Y-93054761D01*
X63109047Y-92435714D01*
%TO.C,J16*%
X130092380Y-132409523D02*
X130806666Y-132409523D01*
X130949523Y-132457142D01*
X131044761Y-132552380D01*
X131092380Y-132695238D01*
X131092380Y-132790476D01*
X131092380Y-131409523D02*
X131092380Y-131980952D01*
X131092380Y-131695238D02*
X130092380Y-131695238D01*
X130235238Y-131790476D01*
X130330476Y-131885714D01*
X130378095Y-131980952D01*
X130092380Y-130552380D02*
X130092380Y-130742857D01*
X130140000Y-130838095D01*
X130187619Y-130885714D01*
X130330476Y-130980952D01*
X130520952Y-131028571D01*
X130901904Y-131028571D01*
X130997142Y-130980952D01*
X131044761Y-130933333D01*
X131092380Y-130838095D01*
X131092380Y-130647619D01*
X131044761Y-130552380D01*
X130997142Y-130504761D01*
X130901904Y-130457142D01*
X130663809Y-130457142D01*
X130568571Y-130504761D01*
X130520952Y-130552380D01*
X130473333Y-130647619D01*
X130473333Y-130838095D01*
X130520952Y-130933333D01*
X130568571Y-130980952D01*
X130663809Y-131028571D01*
%TO.C,SW1*%
X55216666Y-141304761D02*
X55359523Y-141352380D01*
X55597619Y-141352380D01*
X55692857Y-141304761D01*
X55740476Y-141257142D01*
X55788095Y-141161904D01*
X55788095Y-141066666D01*
X55740476Y-140971428D01*
X55692857Y-140923809D01*
X55597619Y-140876190D01*
X55407142Y-140828571D01*
X55311904Y-140780952D01*
X55264285Y-140733333D01*
X55216666Y-140638095D01*
X55216666Y-140542857D01*
X55264285Y-140447619D01*
X55311904Y-140400000D01*
X55407142Y-140352380D01*
X55645238Y-140352380D01*
X55788095Y-140400000D01*
X56121428Y-140352380D02*
X56359523Y-141352380D01*
X56550000Y-140638095D01*
X56740476Y-141352380D01*
X56978571Y-140352380D01*
X57883333Y-141352380D02*
X57311904Y-141352380D01*
X57597619Y-141352380D02*
X57597619Y-140352380D01*
X57502380Y-140495238D01*
X57407142Y-140590476D01*
X57311904Y-140638095D01*
D11*
%TO.C,SW2*%
X81080000Y-128770000D02*
X81080000Y-127270000D01*
X75330000Y-131270000D02*
X79830000Y-131270000D01*
X74080000Y-127270000D02*
X74080000Y-128770000D01*
X79830000Y-124770000D02*
X75330000Y-124770000D01*
%TO.C,SW3*%
X65540000Y-144360000D02*
X70040000Y-144360000D01*
X70040000Y-137860000D02*
X65540000Y-137860000D01*
X71290000Y-141860000D02*
X71290000Y-140360000D01*
X64290000Y-140360000D02*
X64290000Y-141860000D01*
%TO.C,SW4*%
X89590000Y-137720000D02*
X85090000Y-137720000D01*
X85090000Y-144220000D02*
X89590000Y-144220000D01*
X83840000Y-140220000D02*
X83840000Y-141720000D01*
X90840000Y-141720000D02*
X90840000Y-140220000D01*
%TO.C,SW5*%
X79800000Y-132770000D02*
X75300000Y-132770000D01*
X74050000Y-135270000D02*
X74050000Y-136770000D01*
X81050000Y-136770000D02*
X81050000Y-135270000D01*
X75300000Y-139270000D02*
X79800000Y-139270000D01*
%TO.C,J3*%
X47786000Y-60500000D02*
G75*
G03*
X47786000Y-60500000I-2286000J0D01*
G01*
%TO.C,J7*%
X47786000Y-140500000D02*
G75*
G03*
X47786000Y-140500000I-2286000J0D01*
G01*
%TO.C,J20*%
X130786000Y-60500000D02*
G75*
G03*
X130786000Y-60500000I-2286000J0D01*
G01*
%TO.C,J21*%
X130786000Y-140500000D02*
G75*
G03*
X130786000Y-140500000I-2286000J0D01*
G01*
%TO.C,J1*%
X65170000Y-77830000D02*
X65170000Y-76500000D01*
X67770000Y-77830000D02*
X67770000Y-75170000D01*
X75450000Y-77830000D02*
X75450000Y-75170000D01*
X67770000Y-75170000D02*
X75450000Y-75170000D01*
X66500000Y-77830000D02*
X65170000Y-77830000D01*
X67770000Y-77830000D02*
X75450000Y-77830000D01*
%TO.C,U1*%
X44020000Y-67330000D02*
X82180000Y-67330000D01*
X82180000Y-67330000D02*
X82180000Y-64670000D01*
X42750000Y-67330000D02*
X41420000Y-67330000D01*
X44020000Y-64670000D02*
X82180000Y-64670000D01*
X41420000Y-67330000D02*
X41420000Y-66000000D01*
X44020000Y-67330000D02*
X44020000Y-64670000D01*
D12*
%TO.C,J2*%
X94900000Y-148150000D02*
X94900000Y-144550000D01*
X102100000Y-144750000D02*
X102100000Y-148150000D01*
X98500000Y-144550000D02*
X104500000Y-144550000D01*
X104500000Y-144550000D02*
X104500000Y-130350000D01*
X92500000Y-144550000D02*
X98500000Y-144550000D01*
X104500000Y-130350000D02*
X92500000Y-130350000D01*
X92500000Y-130350000D02*
X92500000Y-144550000D01*
X102100000Y-148150000D02*
X94900000Y-148150000D01*
%TO.C,J13*%
X96330000Y-71610000D02*
X96330000Y-57410000D01*
X86730000Y-53810000D02*
X93930000Y-53810000D01*
X86730000Y-57210000D02*
X86730000Y-53810000D01*
X96330000Y-57410000D02*
X90330000Y-57410000D01*
X93930000Y-53810000D02*
X93930000Y-57410000D01*
X90330000Y-57410000D02*
X84330000Y-57410000D01*
X84330000Y-71610000D02*
X96330000Y-71610000D01*
X84330000Y-57410000D02*
X84330000Y-71610000D01*
%TO.C,J14*%
X96800000Y-57430000D02*
X96800000Y-71630000D01*
X106400000Y-53830000D02*
X106400000Y-57430000D01*
X96800000Y-71630000D02*
X108800000Y-71630000D01*
X99200000Y-53830000D02*
X106400000Y-53830000D01*
X102800000Y-57430000D02*
X96800000Y-57430000D01*
X99200000Y-57230000D02*
X99200000Y-53830000D01*
X108800000Y-57430000D02*
X102800000Y-57430000D01*
X108800000Y-71630000D02*
X108800000Y-57430000D01*
D11*
%TO.C,JP1*%
X87530000Y-74630000D02*
X88860000Y-74630000D01*
X90190000Y-77230000D02*
X90190000Y-82370000D01*
X87530000Y-77230000D02*
X87530000Y-82370000D01*
X87530000Y-75960000D02*
X87530000Y-74630000D01*
X87530000Y-82370000D02*
X90190000Y-82370000D01*
X87530000Y-77230000D02*
X90190000Y-77230000D01*
%TO.C,JP2*%
X81800000Y-75970000D02*
X81800000Y-74640000D01*
X81800000Y-77240000D02*
X84460000Y-77240000D01*
X81800000Y-74640000D02*
X83130000Y-74640000D01*
X81800000Y-77240000D02*
X81800000Y-82380000D01*
X84460000Y-77240000D02*
X84460000Y-82380000D01*
X81800000Y-82380000D02*
X84460000Y-82380000D01*
D12*
%TO.C,J15*%
X116050000Y-144670000D02*
X122050000Y-144670000D01*
X110050000Y-130470000D02*
X110050000Y-144670000D01*
X110050000Y-144670000D02*
X116050000Y-144670000D01*
X112450000Y-148270000D02*
X112450000Y-144670000D01*
X119650000Y-148270000D02*
X112450000Y-148270000D01*
X119650000Y-144870000D02*
X119650000Y-148270000D01*
X122050000Y-130470000D02*
X110050000Y-130470000D01*
X122050000Y-144670000D02*
X122050000Y-130470000D01*
D11*
%TO.C,JP3*%
X65390000Y-113120000D02*
X65390000Y-110460000D01*
X65390000Y-110460000D02*
X67990000Y-110460000D01*
X67990000Y-113120000D02*
X67990000Y-110460000D01*
X62790000Y-113120000D02*
X62790000Y-111790000D01*
X65390000Y-113120000D02*
X67990000Y-113120000D01*
X64120000Y-113120000D02*
X62790000Y-113120000D01*
%TO.C,JP4*%
X65320000Y-94980000D02*
X63990000Y-94980000D01*
X69190000Y-94980000D02*
X69190000Y-92320000D01*
X66590000Y-94980000D02*
X66590000Y-92320000D01*
X66590000Y-92320000D02*
X69190000Y-92320000D01*
X63990000Y-94980000D02*
X63990000Y-93650000D01*
X66590000Y-94980000D02*
X69190000Y-94980000D01*
%TO.C,J16*%
X125480000Y-136550000D02*
X125480000Y-126390000D01*
X124210000Y-126390000D02*
X124210000Y-136550000D01*
X131830000Y-126390000D02*
X124210000Y-126390000D01*
X131830000Y-136550000D02*
X131830000Y-126390000D01*
X124210000Y-136550000D02*
X131830000Y-136550000D01*
%TO.C,SW1*%
X54370000Y-144140000D02*
X58870000Y-144140000D01*
X60120000Y-141640000D02*
X60120000Y-140140000D01*
X58870000Y-137640000D02*
X54370000Y-137640000D01*
X53120000Y-140140000D02*
X53120000Y-141640000D01*
%TD*%
M02*
