G04 #@! TF.FileFunction,Copper,L2,Bot,Signal*
%FSLAX46Y46*%
G04 Gerber Fmt 4.6, Leading zero omitted, Abs format (unit mm)*
G04 Created by KiCad (PCBNEW 4.0.7) date 01/20/22 12:36:13*
%MOMM*%
%LPD*%
G01*
G04 APERTURE LIST*
%ADD10C,0.100000*%
%ADD11C,1.600000*%
%ADD12O,1.600000X1.600000*%
%ADD13C,2.000000*%
%ADD14R,1.700000X1.700000*%
%ADD15O,1.700000X1.700000*%
%ADD16C,5.000000*%
%ADD17O,2.000000X1.000000*%
%ADD18O,1.000000X2.000000*%
%ADD19O,2.000000X1.500000*%
%ADD20O,1.500000X2.000000*%
%ADD21R,1.600000X1.600000*%
%ADD22R,3.000000X3.000000*%
%ADD23C,3.000000*%
%ADD24C,0.350000*%
%ADD25C,0.500000*%
G04 APERTURE END LIST*
D10*
D11*
X48960000Y-126420000D03*
D12*
X48960000Y-118800000D03*
D11*
X58830000Y-126340000D03*
D12*
X58830000Y-118720000D03*
D11*
X86000000Y-126850000D03*
X86000000Y-124350000D03*
X70460000Y-132410000D03*
X70460000Y-129910000D03*
X59890000Y-142070000D03*
X59890000Y-139570000D03*
X85970000Y-130260000D03*
X85970000Y-132760000D03*
D13*
X74330000Y-130270000D03*
X74330000Y-125770000D03*
X80830000Y-130270000D03*
X80830000Y-125770000D03*
X64540000Y-143360000D03*
X64540000Y-138860000D03*
X71040000Y-143360000D03*
X71040000Y-138860000D03*
X84090000Y-143220000D03*
X84090000Y-138720000D03*
X90590000Y-143220000D03*
X90590000Y-138720000D03*
X74300000Y-138270000D03*
X74300000Y-133770000D03*
X80800000Y-138270000D03*
X80800000Y-133770000D03*
D14*
X46500000Y-72500000D03*
D15*
X46500000Y-75040000D03*
X46500000Y-77580000D03*
X46500000Y-80120000D03*
X46500000Y-82660000D03*
X46500000Y-85200000D03*
X46500000Y-87740000D03*
X46500000Y-90280000D03*
X46500000Y-92820000D03*
X46500000Y-95360000D03*
X46500000Y-97900000D03*
X46500000Y-100440000D03*
X46500000Y-102980000D03*
X46500000Y-105520000D03*
X46500000Y-108060000D03*
X46500000Y-110600000D03*
D11*
X45680000Y-126420000D03*
D12*
X45680000Y-118800000D03*
D11*
X65380000Y-126340000D03*
D12*
X65380000Y-118720000D03*
D11*
X42480000Y-126380000D03*
D12*
X42480000Y-118760000D03*
D11*
X52200000Y-126420000D03*
D12*
X52200000Y-118800000D03*
D11*
X62100000Y-126340000D03*
D12*
X62100000Y-118720000D03*
D11*
X55510000Y-126380000D03*
D12*
X55510000Y-118760000D03*
D16*
X45500000Y-60500000D03*
X45500000Y-140500000D03*
D14*
X93500000Y-92500000D03*
D15*
X93500000Y-89960000D03*
X93500000Y-87420000D03*
X93500000Y-84880000D03*
D14*
X60452000Y-84836000D03*
D15*
X60452000Y-87376000D03*
X60452000Y-89916000D03*
X60452000Y-92456000D03*
D16*
X128500000Y-60500000D03*
X128500000Y-140500000D03*
D14*
X65500000Y-133500000D03*
D15*
X62960000Y-133500000D03*
D14*
X66500000Y-76500000D03*
D15*
X69040000Y-76500000D03*
X71580000Y-76500000D03*
X74120000Y-76500000D03*
D14*
X41000000Y-67000000D03*
D15*
X43540000Y-67000000D03*
X46080000Y-67000000D03*
X48620000Y-67000000D03*
X51160000Y-67000000D03*
X53700000Y-67000000D03*
X56240000Y-67000000D03*
X58780000Y-67000000D03*
X61320000Y-67000000D03*
X63860000Y-67000000D03*
X66400000Y-67000000D03*
X68940000Y-67000000D03*
X71480000Y-67000000D03*
X74020000Y-67000000D03*
X76560000Y-67000000D03*
X79100000Y-67000000D03*
D17*
X98500000Y-142850000D03*
D18*
X103300000Y-138450000D03*
X93300000Y-134950000D03*
D19*
X102800000Y-131550000D03*
D20*
X95900000Y-135950000D03*
D11*
X106510000Y-139200000D03*
X106510000Y-141700000D03*
D17*
X100930000Y-58930000D03*
D18*
X96130000Y-63330000D03*
X106130000Y-66830000D03*
D19*
X96630000Y-70230000D03*
D20*
X103530000Y-65830000D03*
D11*
X98240000Y-74660000D03*
X98240000Y-79660000D03*
D17*
X88200000Y-58930000D03*
D18*
X83400000Y-63330000D03*
X93400000Y-66830000D03*
D19*
X83900000Y-70230000D03*
D20*
X90800000Y-65830000D03*
D14*
X88860000Y-75960000D03*
D15*
X88860000Y-78500000D03*
X88860000Y-81040000D03*
D14*
X83130000Y-75970000D03*
D15*
X83130000Y-78510000D03*
X83130000Y-81050000D03*
D11*
X101090000Y-77510000D03*
D12*
X111250000Y-77510000D03*
D11*
X101090000Y-81030000D03*
D12*
X111250000Y-81030000D03*
D11*
X111330000Y-92540000D03*
D12*
X111330000Y-84920000D03*
D11*
X107960000Y-92540000D03*
D12*
X107960000Y-84920000D03*
D11*
X104660000Y-92540000D03*
D12*
X104660000Y-84920000D03*
D11*
X101480000Y-100360000D03*
D12*
X101480000Y-92740000D03*
D11*
X77370000Y-85360000D03*
D12*
X69750000Y-85360000D03*
D11*
X69700000Y-81880000D03*
D12*
X77320000Y-81880000D03*
D11*
X114050000Y-74040000D03*
X109050000Y-74040000D03*
X106600000Y-129580000D03*
X106600000Y-134580000D03*
D21*
X90810000Y-111090000D03*
D11*
X88310000Y-111090000D03*
D21*
X82410000Y-111020000D03*
D11*
X84910000Y-111020000D03*
X81560000Y-97430000D03*
X84060000Y-97430000D03*
X83990000Y-104720000D03*
X83990000Y-102220000D03*
X73300000Y-108320000D03*
X78300000Y-108320000D03*
X71860000Y-93880000D03*
X76860000Y-93880000D03*
D17*
X116050000Y-142970000D03*
D18*
X120850000Y-138570000D03*
X110850000Y-135070000D03*
D19*
X120350000Y-131670000D03*
D20*
X113450000Y-136070000D03*
D14*
X64120000Y-111790000D03*
D15*
X66660000Y-111790000D03*
D14*
X65320000Y-93650000D03*
D15*
X67860000Y-93650000D03*
D11*
X121080000Y-128050000D03*
D12*
X110920000Y-128050000D03*
D11*
X69840000Y-114720000D03*
D12*
X77460000Y-114720000D03*
D11*
X67360000Y-108360000D03*
D12*
X59740000Y-108360000D03*
D11*
X87550000Y-97190000D03*
D12*
X87550000Y-104810000D03*
D11*
X90830000Y-104780000D03*
D12*
X90830000Y-97160000D03*
D11*
X78450000Y-111670000D03*
D12*
X70830000Y-111670000D03*
D11*
X62250000Y-97120000D03*
D12*
X62250000Y-104740000D03*
D11*
X58980000Y-97040000D03*
D12*
X58980000Y-104660000D03*
D11*
X65620000Y-97030000D03*
D12*
X65620000Y-104650000D03*
D11*
X77730000Y-90410000D03*
D12*
X70110000Y-90410000D03*
D11*
X83930000Y-93800000D03*
D12*
X83930000Y-86180000D03*
D11*
X80620000Y-86180000D03*
D12*
X80620000Y-93800000D03*
D21*
X77730000Y-104940000D03*
D12*
X70110000Y-97320000D03*
X75190000Y-104940000D03*
X72650000Y-97320000D03*
X72650000Y-104940000D03*
X75190000Y-97320000D03*
X70110000Y-104940000D03*
X77730000Y-97320000D03*
D22*
X128020000Y-128930000D03*
D23*
X128020000Y-134010000D03*
D24*
X58760000Y-118690000D02*
X58760000Y-120460000D01*
X58760000Y-120460000D02*
X58140000Y-121080000D01*
X52280000Y-118770000D02*
X52280000Y-120270000D01*
X52280000Y-120270000D02*
X51470000Y-121080000D01*
X65350000Y-118770000D02*
X65350000Y-119630000D01*
X63900000Y-121080000D02*
X58140000Y-121080000D01*
X65350000Y-119630000D02*
X63900000Y-121080000D01*
X58140000Y-121080000D02*
X51470000Y-121080000D01*
X51470000Y-121080000D02*
X44660000Y-121080000D01*
X45550000Y-118870000D02*
X45550000Y-120190000D01*
X45550000Y-120190000D02*
X44660000Y-121080000D01*
X44480000Y-75040000D02*
X46500000Y-75040000D01*
X44660000Y-121080000D02*
X40580000Y-121080000D01*
X40580000Y-121080000D02*
X39580000Y-120080000D01*
X39580000Y-120080000D02*
X39580000Y-79940000D01*
X39580000Y-79940000D02*
X44480000Y-75040000D01*
X52280000Y-118770000D02*
X52280000Y-118060000D01*
X65350000Y-118310000D02*
X65350000Y-118770000D01*
X46500000Y-75040000D02*
X45040000Y-75040000D01*
X45040000Y-75040000D02*
X43540000Y-73540000D01*
X43540000Y-73540000D02*
X43540000Y-67000000D01*
X46100000Y-74930000D02*
X46990000Y-74930000D01*
X46320000Y-74930000D02*
X46990000Y-74930000D01*
X46210000Y-74930000D02*
X46990000Y-74930000D01*
D25*
X47040000Y-74880000D02*
X46990000Y-74930000D01*
D24*
X70460000Y-129910000D02*
X61930000Y-129910000D01*
X53960000Y-124660000D02*
X52200000Y-126420000D01*
X59540000Y-124660000D02*
X53960000Y-124660000D01*
X60240000Y-125360000D02*
X59540000Y-124660000D01*
X60240000Y-128220000D02*
X60240000Y-125360000D01*
X61930000Y-129910000D02*
X60240000Y-128220000D01*
X70460000Y-129910000D02*
X70780000Y-129910000D01*
X70780000Y-129910000D02*
X74300000Y-133430000D01*
X74300000Y-133430000D02*
X74300000Y-133770000D01*
X70460000Y-129910000D02*
X70460000Y-129330000D01*
X80800000Y-133770000D02*
X74300000Y-133770000D01*
X52200000Y-126420000D02*
X48960000Y-126420000D01*
X74330000Y-125770000D02*
X72390000Y-125770000D01*
X48120000Y-123980000D02*
X45680000Y-126420000D01*
X70600000Y-123980000D02*
X48120000Y-123980000D01*
X72390000Y-125770000D02*
X70600000Y-123980000D01*
X86000000Y-124350000D02*
X82250000Y-124350000D01*
X82250000Y-124350000D02*
X80830000Y-125770000D01*
X80830000Y-125770000D02*
X74330000Y-125770000D01*
X45680000Y-126420000D02*
X42520000Y-126420000D01*
X42520000Y-126420000D02*
X42480000Y-126380000D01*
X83740000Y-129030000D02*
X83740000Y-130530000D01*
X83740000Y-130530000D02*
X85970000Y-132760000D01*
X66730000Y-127690000D02*
X65380000Y-126340000D01*
X82400000Y-127690000D02*
X66730000Y-127690000D01*
X83740000Y-129030000D02*
X82400000Y-127690000D01*
X85970000Y-132760000D02*
X85890000Y-136920000D01*
X85890000Y-136920000D02*
X84090000Y-138720000D01*
X84090000Y-138720000D02*
X84090000Y-138710000D01*
X90590000Y-138720000D02*
X84090000Y-138720000D01*
X85970000Y-132760000D02*
X85970000Y-132920000D01*
X65380000Y-126340000D02*
X62100000Y-126340000D01*
X48960000Y-118800000D02*
X48960000Y-118070000D01*
X48960000Y-118070000D02*
X47480000Y-116590000D01*
X47480000Y-116590000D02*
X42410000Y-116590000D01*
X42410000Y-116590000D02*
X41410000Y-115590000D01*
X41410000Y-115590000D02*
X41410000Y-101850000D01*
X41410000Y-101850000D02*
X42820000Y-100440000D01*
X42820000Y-100440000D02*
X46500000Y-100440000D01*
X46500000Y-100440000D02*
X49480000Y-100440000D01*
X68940000Y-68360000D02*
X68940000Y-67000000D01*
X67840000Y-69460000D02*
X68940000Y-68360000D01*
X56160000Y-69460000D02*
X67840000Y-69460000D01*
X54990000Y-70630000D02*
X56160000Y-69460000D01*
X52700000Y-70630000D02*
X54990000Y-70630000D01*
X51770000Y-71560000D02*
X52700000Y-70630000D01*
X51770000Y-98150000D02*
X51770000Y-71560000D01*
X49480000Y-100440000D02*
X51770000Y-98150000D01*
X46990000Y-100580000D02*
X46990000Y-100330000D01*
X42480000Y-118760000D02*
X42270000Y-118760000D01*
X42270000Y-118760000D02*
X40690000Y-117180000D01*
X40690000Y-117180000D02*
X40690000Y-99740000D01*
X40690000Y-99740000D02*
X42530000Y-97900000D01*
X42530000Y-97900000D02*
X46500000Y-97900000D01*
X46500000Y-97900000D02*
X48450000Y-97900000D01*
X66400000Y-67890000D02*
X66400000Y-67000000D01*
X65550000Y-68740000D02*
X66400000Y-67890000D01*
X55980000Y-68740000D02*
X65550000Y-68740000D01*
X54800000Y-69920000D02*
X55980000Y-68740000D01*
X52060000Y-69920000D02*
X54800000Y-69920000D01*
X51170000Y-70810000D02*
X52060000Y-69920000D01*
X51170000Y-95180000D02*
X51170000Y-70810000D01*
X48450000Y-97900000D02*
X51170000Y-95180000D01*
X45780000Y-97900000D02*
X46500000Y-97900000D01*
X62100000Y-118720000D02*
X61990000Y-118720000D01*
X61990000Y-118720000D02*
X58140000Y-114870000D01*
X58140000Y-114870000D02*
X44690000Y-114870000D01*
X44690000Y-114870000D02*
X43280000Y-113460000D01*
X43280000Y-113460000D02*
X43280000Y-106870000D01*
X43280000Y-106870000D02*
X44630000Y-105520000D01*
X44630000Y-105520000D02*
X46500000Y-105520000D01*
X46500000Y-105520000D02*
X51780000Y-105520000D01*
X74020000Y-69580000D02*
X74020000Y-67000000D01*
X72910000Y-70690000D02*
X74020000Y-69580000D01*
X56740000Y-70690000D02*
X72910000Y-70690000D01*
X55620000Y-71810000D02*
X56740000Y-70690000D01*
X54180000Y-71810000D02*
X55620000Y-71810000D01*
X53280000Y-72710000D02*
X54180000Y-71810000D01*
X53280000Y-104020000D02*
X53280000Y-72710000D01*
X51780000Y-105520000D02*
X53280000Y-104020000D01*
X46030000Y-105520000D02*
X46500000Y-105520000D01*
X55510000Y-118760000D02*
X55510000Y-117650000D01*
X44850000Y-102980000D02*
X46500000Y-102980000D01*
X42250000Y-105580000D02*
X44850000Y-102980000D01*
X42250000Y-114260000D02*
X42250000Y-105580000D01*
X43780000Y-115790000D02*
X42250000Y-114260000D01*
X53650000Y-115790000D02*
X43780000Y-115790000D01*
X55510000Y-117650000D02*
X53650000Y-115790000D01*
X46500000Y-102980000D02*
X50710000Y-102980000D01*
X71480000Y-68940000D02*
X71480000Y-67000000D01*
X70290000Y-70130000D02*
X71480000Y-68940000D01*
X56380000Y-70130000D02*
X70290000Y-70130000D01*
X55290000Y-71220000D02*
X56380000Y-70130000D01*
X53400000Y-71220000D02*
X55290000Y-71220000D01*
X52540000Y-72080000D02*
X53400000Y-71220000D01*
X52540000Y-101150000D02*
X52540000Y-72080000D01*
X50710000Y-102980000D02*
X52540000Y-101150000D01*
X47150000Y-102870000D02*
X46990000Y-102870000D01*
X58830000Y-126340000D02*
X58830000Y-138510000D01*
X58830000Y-138510000D02*
X59890000Y-139570000D01*
X64540000Y-138860000D02*
X60600000Y-138860000D01*
X60600000Y-138860000D02*
X59890000Y-139570000D01*
X64540000Y-138860000D02*
X71040000Y-138860000D01*
X58830000Y-126340000D02*
X55550000Y-126340000D01*
X55550000Y-126340000D02*
X55510000Y-126380000D01*
X46500000Y-80120000D02*
X47760000Y-80120000D01*
X48620000Y-70020000D02*
X48620000Y-67000000D01*
X49120000Y-70520000D02*
X48620000Y-70020000D01*
X49120000Y-78760000D02*
X49120000Y-70520000D01*
X47760000Y-80120000D02*
X49120000Y-78760000D01*
X46500000Y-85200000D02*
X47350000Y-85200000D01*
X47350000Y-85200000D02*
X50410000Y-82140000D01*
X50410000Y-82140000D02*
X50410000Y-70710000D01*
X50410000Y-70710000D02*
X51890000Y-69230000D01*
X51890000Y-69230000D02*
X53300000Y-69230000D01*
X53300000Y-69230000D02*
X53700000Y-68830000D01*
X53700000Y-68830000D02*
X53700000Y-67000000D01*
X47160000Y-84920000D02*
X46990000Y-85090000D01*
X46500000Y-77580000D02*
X47340000Y-77580000D01*
X47340000Y-77580000D02*
X48480000Y-76440000D01*
X48480000Y-76440000D02*
X48480000Y-71280000D01*
X48480000Y-71280000D02*
X47550000Y-70350000D01*
X47550000Y-70350000D02*
X46670000Y-70350000D01*
X46670000Y-70350000D02*
X46080000Y-69760000D01*
X46080000Y-69760000D02*
X46080000Y-67000000D01*
X46240000Y-77470000D02*
X46990000Y-77470000D01*
X46300000Y-77470000D02*
X46990000Y-77470000D01*
X46500000Y-82660000D02*
X47100000Y-82660000D01*
X47100000Y-82660000D02*
X49820000Y-79940000D01*
X49820000Y-79940000D02*
X49820000Y-70070000D01*
X49820000Y-70070000D02*
X51160000Y-68730000D01*
X51160000Y-68730000D02*
X51160000Y-67000000D01*
X46500000Y-108060000D02*
X51960000Y-108060000D01*
X76560000Y-69540000D02*
X76560000Y-67000000D01*
X74690000Y-71410000D02*
X76560000Y-69540000D01*
X57150000Y-71410000D02*
X74690000Y-71410000D01*
X56140000Y-72420000D02*
X57150000Y-71410000D01*
X55010000Y-72420000D02*
X56140000Y-72420000D01*
X54030000Y-73400000D02*
X55010000Y-72420000D01*
X54030000Y-105990000D02*
X54030000Y-73400000D01*
X51960000Y-108060000D02*
X54030000Y-105990000D01*
X46990000Y-107950000D02*
X46220000Y-107950000D01*
X46990000Y-107950000D02*
X46320000Y-107950000D01*
X54820000Y-106000000D02*
X54820000Y-106500000D01*
X54820000Y-106500000D02*
X50720000Y-110600000D01*
X46500000Y-110600000D02*
X50720000Y-110600000D01*
X79100000Y-69380000D02*
X79100000Y-67000000D01*
X76260000Y-72220000D02*
X79100000Y-69380000D01*
X57280000Y-72220000D02*
X76260000Y-72220000D01*
X54820000Y-74680000D02*
X57280000Y-72220000D01*
X54820000Y-106500000D02*
X54820000Y-106000000D01*
X54820000Y-106000000D02*
X54820000Y-74680000D01*
X66500000Y-76500000D02*
X66500000Y-75080000D01*
X83410000Y-58930000D02*
X88200000Y-58930000D01*
X81420000Y-60920000D02*
X83410000Y-58930000D01*
X81420000Y-71050000D02*
X81420000Y-60920000D01*
X77950000Y-74520000D02*
X81420000Y-71050000D01*
X67060000Y-74520000D02*
X77950000Y-74520000D01*
X66500000Y-75080000D02*
X67060000Y-74520000D01*
X69040000Y-76500000D02*
X69040000Y-78710000D01*
X67340000Y-82950000D02*
X69750000Y-85360000D01*
X67340000Y-80410000D02*
X67340000Y-82950000D01*
X69040000Y-78710000D02*
X67340000Y-80410000D01*
X71580000Y-76500000D02*
X71580000Y-80000000D01*
X71580000Y-80000000D02*
X69700000Y-81880000D01*
X93500000Y-92500000D02*
X95050000Y-92500000D01*
X109800000Y-94300000D02*
X111330000Y-92770000D01*
X96850000Y-94300000D02*
X109800000Y-94300000D01*
X95050000Y-92500000D02*
X96850000Y-94300000D01*
X111330000Y-92770000D02*
X111330000Y-92540000D01*
X104660000Y-84920000D02*
X104660000Y-85190000D01*
X104660000Y-85190000D02*
X111330000Y-91860000D01*
X111330000Y-91860000D02*
X111330000Y-92540000D01*
X111330000Y-92950000D02*
X111330000Y-92540000D01*
X93530000Y-92530000D02*
X93500000Y-92500000D01*
X93530000Y-92470000D02*
X93500000Y-92500000D01*
X93500000Y-87420000D02*
X104220000Y-87420000D01*
X107960000Y-91160000D02*
X107960000Y-92540000D01*
X104220000Y-87420000D02*
X107960000Y-91160000D01*
X107960000Y-92540000D02*
X107960000Y-93170000D01*
X92950000Y-87420000D02*
X93500000Y-87420000D01*
X93500000Y-87420000D02*
X89090000Y-87420000D01*
X87850000Y-86180000D02*
X83930000Y-86180000D01*
X89090000Y-87420000D02*
X87850000Y-86180000D01*
D25*
X93392000Y-87456000D02*
X93472000Y-87376000D01*
X93300000Y-134950000D02*
X93300000Y-137950000D01*
X93300000Y-137950000D02*
X94265000Y-138915000D01*
X65500000Y-133500000D02*
X65830000Y-133500000D01*
X65830000Y-133500000D02*
X68010000Y-135680000D01*
X68010000Y-135680000D02*
X77650000Y-135680000D01*
X77650000Y-135680000D02*
X78730000Y-136760000D01*
X78730000Y-136760000D02*
X78730000Y-139080000D01*
X78730000Y-139080000D02*
X80360000Y-140710000D01*
X80360000Y-140710000D02*
X92470000Y-140710000D01*
X92470000Y-140710000D02*
X94265000Y-138915000D01*
X94265000Y-138915000D02*
X94730000Y-138450000D01*
X94730000Y-138450000D02*
X103300000Y-138450000D01*
X103300000Y-138450000D02*
X105760000Y-138450000D01*
X105760000Y-138450000D02*
X106510000Y-139200000D01*
X106510000Y-141700000D02*
X124320000Y-141700000D01*
X125200000Y-136830000D02*
X128020000Y-134010000D01*
X125200000Y-140820000D02*
X125200000Y-136830000D01*
X124320000Y-141700000D02*
X125200000Y-140820000D01*
X62960000Y-133500000D02*
X62960000Y-133600000D01*
X62960000Y-133600000D02*
X65930000Y-136570000D01*
X65930000Y-136570000D02*
X76770000Y-136570000D01*
X76770000Y-136570000D02*
X77620000Y-137420000D01*
X77620000Y-137420000D02*
X77620000Y-139870000D01*
X77620000Y-139870000D02*
X79350000Y-141600000D01*
X79350000Y-141600000D02*
X94740000Y-141600000D01*
X94740000Y-141600000D02*
X95990000Y-142850000D01*
X95990000Y-142850000D02*
X98500000Y-142850000D01*
X98500000Y-142850000D02*
X105360000Y-142850000D01*
X105360000Y-142850000D02*
X106510000Y-141700000D01*
X98500000Y-142850000D02*
X97970000Y-142850000D01*
D24*
X109050000Y-74040000D02*
X108020000Y-74040000D01*
X108020000Y-74040000D02*
X106130000Y-75930000D01*
X101090000Y-81030000D02*
X102310000Y-81030000D01*
X106130000Y-77210000D02*
X106130000Y-75930000D01*
X106130000Y-75930000D02*
X106130000Y-66830000D01*
X102310000Y-81030000D02*
X106130000Y-77210000D01*
X101090000Y-77510000D02*
X100390000Y-77510000D01*
X100390000Y-77510000D02*
X98240000Y-79660000D01*
X101090000Y-77510000D02*
X101090000Y-68290000D01*
X101090000Y-68290000D02*
X96130000Y-63330000D01*
X87550000Y-97190000D02*
X87550000Y-96660000D01*
X87550000Y-96660000D02*
X86560000Y-95670000D01*
X104660000Y-92540000D02*
X101680000Y-92540000D01*
X101680000Y-92540000D02*
X101480000Y-92740000D01*
X81560000Y-97430000D02*
X77840000Y-97430000D01*
X77840000Y-97430000D02*
X77730000Y-97320000D01*
X93500000Y-89960000D02*
X92410000Y-89960000D01*
X83320000Y-95670000D02*
X81560000Y-97430000D01*
X86700000Y-95670000D02*
X86560000Y-95670000D01*
X86560000Y-95670000D02*
X83320000Y-95670000D01*
X92410000Y-89960000D02*
X86700000Y-95670000D01*
X93500000Y-89960000D02*
X102080000Y-89960000D01*
X102080000Y-89960000D02*
X104660000Y-92540000D01*
D25*
X93472000Y-89916000D02*
X93234000Y-89916000D01*
D24*
X88860000Y-75960000D02*
X83140000Y-75960000D01*
X83140000Y-75960000D02*
X83130000Y-75970000D01*
X83130000Y-75970000D02*
X83750000Y-75970000D01*
X83750000Y-75970000D02*
X85880000Y-73840000D01*
X85880000Y-73840000D02*
X85880000Y-65810000D01*
X85880000Y-65810000D02*
X83400000Y-63330000D01*
X88860000Y-81040000D02*
X91270000Y-81040000D01*
X93400000Y-78910000D02*
X93400000Y-66830000D01*
X91270000Y-81040000D02*
X93400000Y-78910000D01*
X83130000Y-81050000D02*
X88850000Y-81050000D01*
X88850000Y-81050000D02*
X88860000Y-81040000D01*
X88860000Y-78500000D02*
X88600000Y-78500000D01*
X88600000Y-78500000D02*
X87350000Y-79770000D01*
X87350000Y-79770000D02*
X81810000Y-79770000D01*
X81810000Y-79770000D02*
X79720000Y-81840000D01*
X79720000Y-81840000D02*
X79720000Y-83010000D01*
X79720000Y-83010000D02*
X77370000Y-85360000D01*
X83130000Y-78510000D02*
X79280000Y-78510000D01*
X77320000Y-80470000D02*
X77320000Y-81880000D01*
X79280000Y-78510000D02*
X77320000Y-80470000D01*
X111330000Y-84920000D02*
X111330000Y-84760000D01*
X111330000Y-84760000D02*
X112930000Y-83160000D01*
X112930000Y-83160000D02*
X112930000Y-79190000D01*
X112930000Y-79190000D02*
X111250000Y-77510000D01*
X111250000Y-81030000D02*
X111250000Y-81630000D01*
X111250000Y-81630000D02*
X107960000Y-84920000D01*
X120850000Y-138570000D02*
X119520000Y-138570000D01*
X119520000Y-138570000D02*
X119250000Y-138300000D01*
X107800000Y-134580000D02*
X106600000Y-134580000D01*
X111520000Y-138300000D02*
X107800000Y-134580000D01*
X119250000Y-138300000D02*
X111520000Y-138300000D01*
X121080000Y-128050000D02*
X119640000Y-128050000D01*
X117920000Y-136970000D02*
X119520000Y-138570000D01*
X117920000Y-129770000D02*
X117920000Y-136970000D01*
X119640000Y-128050000D02*
X117920000Y-129770000D01*
X110920000Y-128050000D02*
X93650000Y-128050000D01*
X90810000Y-125210000D02*
X90810000Y-111090000D01*
X93650000Y-128050000D02*
X90810000Y-125210000D01*
X101480000Y-100360000D02*
X95930000Y-100360000D01*
X93460000Y-108440000D02*
X90810000Y-111090000D01*
X93460000Y-102830000D02*
X93460000Y-108440000D01*
X95930000Y-100360000D02*
X93460000Y-102830000D01*
X88310000Y-111090000D02*
X84980000Y-111090000D01*
X84980000Y-111090000D02*
X84910000Y-111020000D01*
X82410000Y-111020000D02*
X82410000Y-111380000D01*
X82410000Y-111380000D02*
X79070000Y-114720000D01*
X79070000Y-114720000D02*
X77460000Y-114720000D01*
X72650000Y-104940000D02*
X72650000Y-99860000D01*
X72650000Y-99860000D02*
X71980000Y-99190000D01*
X83990000Y-102220000D02*
X83990000Y-102010000D01*
X83990000Y-102010000D02*
X81170000Y-99190000D01*
X71980000Y-99190000D02*
X70110000Y-97320000D01*
X81170000Y-99190000D02*
X71980000Y-99190000D01*
X87550000Y-104810000D02*
X87550000Y-104470000D01*
X87550000Y-104470000D02*
X85300000Y-102220000D01*
X85300000Y-102220000D02*
X83990000Y-102220000D01*
X90830000Y-104780000D02*
X87580000Y-104780000D01*
X87580000Y-104780000D02*
X87550000Y-104810000D01*
X73300000Y-108320000D02*
X67400000Y-108320000D01*
X67400000Y-108320000D02*
X67360000Y-108360000D01*
X73300000Y-108320000D02*
X73300000Y-109200000D01*
X73300000Y-109200000D02*
X70830000Y-111670000D01*
X75190000Y-104940000D02*
X75190000Y-106430000D01*
X75190000Y-106430000D02*
X73300000Y-108320000D01*
X67360000Y-108360000D02*
X67360000Y-111090000D01*
X67360000Y-111090000D02*
X66660000Y-111790000D01*
X67480000Y-108240000D02*
X67360000Y-108360000D01*
X75190000Y-105420000D02*
X75190000Y-104940000D01*
X78450000Y-111670000D02*
X75400000Y-111670000D01*
X57300000Y-106340000D02*
X58980000Y-104660000D01*
X57300000Y-111940000D02*
X57300000Y-106340000D01*
X59930000Y-114570000D02*
X57300000Y-111940000D01*
X65160000Y-114570000D02*
X59930000Y-114570000D01*
X67400000Y-116810000D02*
X65160000Y-114570000D01*
X71980000Y-116810000D02*
X67400000Y-116810000D01*
X73800000Y-114990000D02*
X71980000Y-116810000D01*
X73800000Y-113270000D02*
X73800000Y-114990000D01*
X75400000Y-111670000D02*
X73800000Y-113270000D01*
X78300000Y-108320000D02*
X78300000Y-111520000D01*
X78300000Y-111520000D02*
X78450000Y-111670000D01*
X77730000Y-104940000D02*
X77730000Y-107750000D01*
X77730000Y-107750000D02*
X78300000Y-108320000D01*
X62250000Y-104740000D02*
X59060000Y-104740000D01*
X59060000Y-104740000D02*
X58980000Y-104660000D01*
X71860000Y-93880000D02*
X68090000Y-93880000D01*
X68090000Y-93880000D02*
X67860000Y-93650000D01*
X67860000Y-93650000D02*
X67860000Y-94790000D01*
X67860000Y-94790000D02*
X65620000Y-97030000D01*
X71860000Y-93880000D02*
X71860000Y-92160000D01*
X71860000Y-92160000D02*
X70110000Y-90410000D01*
X72650000Y-97320000D02*
X72650000Y-94670000D01*
X72650000Y-94670000D02*
X71860000Y-93880000D01*
X76860000Y-93880000D02*
X76460000Y-93880000D01*
X76460000Y-93880000D02*
X75190000Y-95150000D01*
X75190000Y-95150000D02*
X75190000Y-97320000D01*
X80620000Y-93800000D02*
X83930000Y-93800000D01*
X76860000Y-93880000D02*
X80540000Y-93880000D01*
X80540000Y-93880000D02*
X80620000Y-93800000D01*
X77730000Y-90410000D02*
X77730000Y-93010000D01*
X77730000Y-93010000D02*
X76860000Y-93880000D01*
X69840000Y-114720000D02*
X67050000Y-114720000D01*
X67050000Y-114720000D02*
X64120000Y-111790000D01*
X59740000Y-108360000D02*
X60690000Y-108360000D01*
X60690000Y-108360000D02*
X64120000Y-111790000D01*
X65320000Y-93650000D02*
X65320000Y-94050000D01*
X65320000Y-94050000D02*
X62250000Y-97120000D01*
X65620000Y-104650000D02*
X65620000Y-103480000D01*
X62250000Y-100110000D02*
X62250000Y-97120000D01*
X65620000Y-103480000D02*
X62250000Y-100110000D01*
D25*
X102800000Y-131550000D02*
X102800000Y-134450000D01*
X125600000Y-128930000D02*
X128020000Y-128930000D01*
X123550000Y-130980000D02*
X125600000Y-128930000D01*
X123550000Y-139920000D02*
X123550000Y-130980000D01*
X122760000Y-140710000D02*
X123550000Y-139920000D01*
X110870000Y-140710000D02*
X122760000Y-140710000D01*
X108630000Y-138470000D02*
X110870000Y-140710000D01*
X108630000Y-137550000D02*
X108630000Y-138470000D01*
X107930000Y-136850000D02*
X108630000Y-137550000D01*
X105200000Y-136850000D02*
X107930000Y-136850000D01*
X102800000Y-134450000D02*
X105200000Y-136850000D01*
M02*
