G04 #@! TF.FileFunction,Copper,L1,Top,Signal*
%FSLAX46Y46*%
G04 Gerber Fmt 4.6, Leading zero omitted, Abs format (unit mm)*
G04 Created by KiCad (PCBNEW 4.0.7) date 02/05/23 11:49:14*
%MOMM*%
%LPD*%
G01*
G04 APERTURE LIST*
%ADD10C,0.100000*%
%ADD11C,2.400000*%
%ADD12C,1.600000*%
%ADD13R,1.700000X1.700000*%
%ADD14O,1.700000X1.700000*%
%ADD15C,1.000000*%
G04 APERTURE END LIST*
D10*
D11*
X129720000Y-99739705D03*
X122337583Y-112786425D03*
D12*
X147940000Y-90330000D03*
X147940000Y-95330000D03*
X129400000Y-91360000D03*
X124400000Y-91360000D03*
X129420000Y-94720000D03*
X124420000Y-94720000D03*
X121580000Y-90450000D03*
X121580000Y-95450000D03*
X126200000Y-98180000D03*
X121200000Y-98180000D03*
X147701000Y-107442000D03*
X147701000Y-112442000D03*
D11*
X143868600Y-93639452D03*
X140114472Y-108152326D03*
D13*
X132588000Y-111760000D03*
D14*
X135128000Y-111760000D03*
X137668000Y-111760000D03*
X140208000Y-111760000D03*
D13*
X132588000Y-91440000D03*
D14*
X135128000Y-91440000D03*
X137668000Y-91440000D03*
X140208000Y-91440000D03*
D12*
X133096000Y-101854000D03*
X134806101Y-106552463D03*
D15*
X140208000Y-91440000D02*
X141960000Y-92190000D01*
X141960000Y-92190000D02*
X143868600Y-93068600D01*
X143868600Y-93068600D02*
X143868600Y-93639452D01*
X143657269Y-93572819D02*
X144876819Y-93596819D01*
X144876819Y-93596819D02*
X147940000Y-95330000D01*
X137668000Y-91440000D02*
X140208000Y-91440000D01*
X129400000Y-91360000D02*
X129400000Y-94700000D01*
X129400000Y-94700000D02*
X129420000Y-94720000D01*
X140114472Y-108152326D02*
X140114472Y-104554472D01*
X130280000Y-94720000D02*
X129420000Y-94720000D01*
X140114472Y-104554472D02*
X130280000Y-94720000D01*
X140114472Y-108152326D02*
X140114472Y-107856472D01*
X139752547Y-107933274D02*
X139283274Y-107933274D01*
X124420000Y-94720000D02*
X124420000Y-91380000D01*
X124420000Y-91380000D02*
X124400000Y-91360000D01*
X133096000Y-101854000D02*
X132342295Y-101854000D01*
X132342295Y-101854000D02*
X129720000Y-99739705D01*
X126200000Y-98180000D02*
X127830000Y-98960000D01*
X127830000Y-98960000D02*
X129720000Y-99739705D01*
X133604000Y-101854000D02*
X133053705Y-101854000D01*
X124420000Y-94720000D02*
X124420000Y-95670000D01*
X124420000Y-95670000D02*
X126200000Y-98180000D01*
X124420000Y-94720000D02*
X124420000Y-94860000D01*
X124420000Y-94720000D02*
X122850000Y-94720000D01*
X122850000Y-94720000D02*
X121580000Y-95450000D01*
X134170000Y-107340000D02*
X133520000Y-107720000D01*
X131430000Y-109270000D02*
X122337583Y-112786425D01*
X133520000Y-107720000D02*
X131430000Y-109270000D01*
X134170000Y-107340000D02*
X134540000Y-106854000D01*
X137668000Y-110490000D02*
X137668000Y-111760000D01*
X134540000Y-106854000D02*
X137668000Y-110490000D01*
X121200000Y-98180000D02*
X121200000Y-111648842D01*
X121200000Y-111648842D02*
X122337583Y-112786425D01*
X121930000Y-112118842D02*
X122337583Y-112786425D01*
X140208000Y-111760000D02*
X147019000Y-111760000D01*
X147019000Y-111760000D02*
X147701000Y-112442000D01*
X137668000Y-111760000D02*
X140208000Y-111760000D01*
M02*
