G04 #@! TF.FileFunction,Copper,L2,Bot,Signal*
%FSLAX46Y46*%
G04 Gerber Fmt 4.6, Leading zero omitted, Abs format (unit mm)*
G04 Created by KiCad (PCBNEW 4.0.7) date 02/05/23 11:49:14*
%MOMM*%
%LPD*%
G01*
G04 APERTURE LIST*
%ADD10C,0.100000*%
%ADD11C,2.400000*%
%ADD12C,1.600000*%
%ADD13R,1.700000X1.700000*%
%ADD14O,1.700000X1.700000*%
%ADD15C,0.250000*%
%ADD16C,0.500000*%
G04 APERTURE END LIST*
D10*
D11*
X129720000Y-99739705D03*
X122337583Y-112786425D03*
D12*
X147940000Y-90330000D03*
X147940000Y-95330000D03*
X129400000Y-91360000D03*
X124400000Y-91360000D03*
X129420000Y-94720000D03*
X124420000Y-94720000D03*
X121580000Y-90450000D03*
X121580000Y-95450000D03*
X126200000Y-98180000D03*
X121200000Y-98180000D03*
X147701000Y-107442000D03*
X147701000Y-112442000D03*
D11*
X143868600Y-93639452D03*
X140114472Y-108152326D03*
D13*
X132588000Y-111760000D03*
D14*
X135128000Y-111760000D03*
X137668000Y-111760000D03*
X140208000Y-111760000D03*
D13*
X132588000Y-91440000D03*
D14*
X135128000Y-91440000D03*
X137668000Y-91440000D03*
X140208000Y-91440000D03*
D12*
X133096000Y-101854000D03*
X134806101Y-106552463D03*
D15*
X148020000Y-90250000D02*
X147940000Y-90330000D01*
X148190000Y-90080000D02*
X147940000Y-90330000D01*
D16*
G36*
X120914881Y-89219195D02*
X121580000Y-89884315D01*
X122245119Y-89219195D01*
X122221378Y-89150000D01*
X147325686Y-89150000D01*
X147940000Y-89764315D01*
X148554314Y-89150000D01*
X149610000Y-89150000D01*
X149610000Y-114558000D01*
X123156400Y-114558000D01*
X123440726Y-114440519D01*
X123989749Y-113892454D01*
X124287244Y-113176006D01*
X124287921Y-112400248D01*
X124277283Y-112374500D01*
X130980000Y-112374500D01*
X130980000Y-112760776D01*
X131095399Y-113039373D01*
X131308628Y-113252602D01*
X131587225Y-113368000D01*
X131973500Y-113368000D01*
X132163000Y-113178500D01*
X132163000Y-112185000D01*
X133013000Y-112185000D01*
X133013000Y-113178500D01*
X133202500Y-113368000D01*
X133588775Y-113368000D01*
X133867372Y-113252602D01*
X134080601Y-113039373D01*
X134103756Y-112983472D01*
X134465631Y-113225241D01*
X134703000Y-113113336D01*
X134703000Y-112185000D01*
X133013000Y-112185000D01*
X132163000Y-112185000D01*
X131169500Y-112185000D01*
X130980000Y-112374500D01*
X124277283Y-112374500D01*
X123991677Y-111683282D01*
X123443612Y-111134259D01*
X122727164Y-110836764D01*
X121951406Y-110836087D01*
X121234440Y-111132331D01*
X120685417Y-111680396D01*
X120387922Y-112396844D01*
X120387245Y-113172602D01*
X120683489Y-113889568D01*
X121231554Y-114438591D01*
X121519123Y-114558000D01*
X119630000Y-114558000D01*
X119630000Y-110759224D01*
X130980000Y-110759224D01*
X130980000Y-111145500D01*
X131169500Y-111335000D01*
X132163000Y-111335000D01*
X132163000Y-110341500D01*
X133013000Y-110341500D01*
X133013000Y-111335000D01*
X134703000Y-111335000D01*
X134703000Y-110406664D01*
X135553000Y-110406664D01*
X135553000Y-111335000D01*
X135978000Y-111335000D01*
X135978000Y-112185000D01*
X135553000Y-112185000D01*
X135553000Y-113113336D01*
X135790369Y-113225241D01*
X136112534Y-113010002D01*
X136667261Y-113010002D01*
X137055707Y-113269553D01*
X137668000Y-113391346D01*
X138280293Y-113269553D01*
X138799371Y-112922717D01*
X138938000Y-112715244D01*
X139076629Y-112922717D01*
X139595707Y-113269553D01*
X140208000Y-113391346D01*
X140820293Y-113269553D01*
X141339371Y-112922717D01*
X141455470Y-112748961D01*
X146150732Y-112748961D01*
X146386208Y-113318857D01*
X146821849Y-113755260D01*
X147391333Y-113991730D01*
X148007961Y-113992268D01*
X148577857Y-113756792D01*
X149014260Y-113321151D01*
X149250730Y-112751667D01*
X149251268Y-112135039D01*
X149015792Y-111565143D01*
X148580151Y-111128740D01*
X148010667Y-110892270D01*
X147394039Y-110891732D01*
X146824143Y-111127208D01*
X146387740Y-111562849D01*
X146151270Y-112132333D01*
X146150732Y-112748961D01*
X141455470Y-112748961D01*
X141686207Y-112403639D01*
X141808000Y-111791346D01*
X141808000Y-111728654D01*
X141686207Y-111116361D01*
X141339371Y-110597283D01*
X140820293Y-110250447D01*
X140208000Y-110128654D01*
X139595707Y-110250447D01*
X139076629Y-110597283D01*
X138938000Y-110804756D01*
X138799371Y-110597283D01*
X138280293Y-110250447D01*
X137668000Y-110128654D01*
X137055707Y-110250447D01*
X136667261Y-110509998D01*
X136112534Y-110509998D01*
X135790369Y-110294759D01*
X135553000Y-110406664D01*
X134703000Y-110406664D01*
X134465631Y-110294759D01*
X134103756Y-110536528D01*
X134080601Y-110480627D01*
X133867372Y-110267398D01*
X133588775Y-110152000D01*
X133202500Y-110152000D01*
X133013000Y-110341500D01*
X132163000Y-110341500D01*
X131973500Y-110152000D01*
X131587225Y-110152000D01*
X131308628Y-110267398D01*
X131095399Y-110480627D01*
X130980000Y-110759224D01*
X119630000Y-110759224D01*
X119630000Y-108538503D01*
X138164134Y-108538503D01*
X138460378Y-109255469D01*
X139008443Y-109804492D01*
X139724891Y-110101987D01*
X140500649Y-110102664D01*
X141217615Y-109806420D01*
X141766638Y-109258355D01*
X142009779Y-108672805D01*
X147035881Y-108672805D01*
X147120983Y-108920846D01*
X147731064Y-109030239D01*
X148281017Y-108920846D01*
X148366119Y-108672805D01*
X147701000Y-108007685D01*
X147035881Y-108672805D01*
X142009779Y-108672805D01*
X142064133Y-108541907D01*
X142064810Y-107766149D01*
X141943297Y-107472064D01*
X146112761Y-107472064D01*
X146222154Y-108022017D01*
X146470195Y-108107119D01*
X147135315Y-107442000D01*
X148266685Y-107442000D01*
X148931805Y-108107119D01*
X149179846Y-108022017D01*
X149289239Y-107411936D01*
X149179846Y-106861983D01*
X148931805Y-106776881D01*
X148266685Y-107442000D01*
X147135315Y-107442000D01*
X146470195Y-106776881D01*
X146222154Y-106861983D01*
X146112761Y-107472064D01*
X141943297Y-107472064D01*
X141768566Y-107049183D01*
X141220501Y-106500160D01*
X140524596Y-106211195D01*
X147035881Y-106211195D01*
X147701000Y-106876315D01*
X148366119Y-106211195D01*
X148281017Y-105963154D01*
X147670936Y-105853761D01*
X147120983Y-105963154D01*
X147035881Y-106211195D01*
X140524596Y-106211195D01*
X140504053Y-106202665D01*
X139728295Y-106201988D01*
X139011329Y-106498232D01*
X138462306Y-107046297D01*
X138164811Y-107762745D01*
X138164134Y-108538503D01*
X119630000Y-108538503D01*
X119630000Y-106859424D01*
X133255833Y-106859424D01*
X133491309Y-107429320D01*
X133926950Y-107865723D01*
X134496434Y-108102193D01*
X135113062Y-108102731D01*
X135682958Y-107867255D01*
X136119361Y-107431614D01*
X136355831Y-106862130D01*
X136356369Y-106245502D01*
X136120893Y-105675606D01*
X135685252Y-105239203D01*
X135115768Y-105002733D01*
X134499140Y-105002195D01*
X133929244Y-105237671D01*
X133492841Y-105673312D01*
X133256371Y-106242796D01*
X133255833Y-106859424D01*
X119630000Y-106859424D01*
X119630000Y-102160961D01*
X131545732Y-102160961D01*
X131781208Y-102730857D01*
X132216849Y-103167260D01*
X132786333Y-103403730D01*
X133402961Y-103404268D01*
X133972857Y-103168792D01*
X134409260Y-102733151D01*
X134645730Y-102163667D01*
X134646268Y-101547039D01*
X134410792Y-100977143D01*
X133975151Y-100540740D01*
X133405667Y-100304270D01*
X132789039Y-100303732D01*
X132219143Y-100539208D01*
X131782740Y-100974849D01*
X131546270Y-101544333D01*
X131545732Y-102160961D01*
X119630000Y-102160961D01*
X119630000Y-100125882D01*
X127769662Y-100125882D01*
X128065906Y-100842848D01*
X128613971Y-101391871D01*
X129330419Y-101689366D01*
X130106177Y-101690043D01*
X130823143Y-101393799D01*
X131372166Y-100845734D01*
X131669661Y-100129286D01*
X131670338Y-99353528D01*
X131374094Y-98636562D01*
X130826029Y-98087539D01*
X130109581Y-97790044D01*
X129333823Y-97789367D01*
X128616857Y-98085611D01*
X128067834Y-98633676D01*
X127770339Y-99350124D01*
X127769662Y-100125882D01*
X119630000Y-100125882D01*
X119630000Y-98486961D01*
X119649732Y-98486961D01*
X119885208Y-99056857D01*
X120320849Y-99493260D01*
X120890333Y-99729730D01*
X121506961Y-99730268D01*
X122076857Y-99494792D01*
X122513260Y-99059151D01*
X122749730Y-98489667D01*
X122749732Y-98486961D01*
X124649732Y-98486961D01*
X124885208Y-99056857D01*
X125320849Y-99493260D01*
X125890333Y-99729730D01*
X126506961Y-99730268D01*
X127076857Y-99494792D01*
X127513260Y-99059151D01*
X127749730Y-98489667D01*
X127750268Y-97873039D01*
X127514792Y-97303143D01*
X127079151Y-96866740D01*
X126509667Y-96630270D01*
X125893039Y-96629732D01*
X125323143Y-96865208D01*
X124886740Y-97300849D01*
X124650270Y-97870333D01*
X124649732Y-98486961D01*
X122749732Y-98486961D01*
X122750268Y-97873039D01*
X122514792Y-97303143D01*
X122117398Y-96905054D01*
X122456857Y-96764792D01*
X122893260Y-96329151D01*
X123129730Y-95759667D01*
X123129851Y-95621543D01*
X123540849Y-96033260D01*
X124110333Y-96269730D01*
X124726961Y-96270268D01*
X125296857Y-96034792D01*
X125733260Y-95599151D01*
X125969730Y-95029667D01*
X125969732Y-95026961D01*
X127869732Y-95026961D01*
X128105208Y-95596857D01*
X128540849Y-96033260D01*
X129110333Y-96269730D01*
X129726961Y-96270268D01*
X130296857Y-96034792D01*
X130695383Y-95636961D01*
X146389732Y-95636961D01*
X146625208Y-96206857D01*
X147060849Y-96643260D01*
X147630333Y-96879730D01*
X148246961Y-96880268D01*
X148816857Y-96644792D01*
X149253260Y-96209151D01*
X149489730Y-95639667D01*
X149490268Y-95023039D01*
X149254792Y-94453143D01*
X148819151Y-94016740D01*
X148249667Y-93780270D01*
X147633039Y-93779732D01*
X147063143Y-94015208D01*
X146626740Y-94450849D01*
X146390270Y-95020333D01*
X146389732Y-95636961D01*
X130695383Y-95636961D01*
X130733260Y-95599151D01*
X130969730Y-95029667D01*
X130970268Y-94413039D01*
X130810194Y-94025629D01*
X141918262Y-94025629D01*
X142214506Y-94742595D01*
X142762571Y-95291618D01*
X143479019Y-95589113D01*
X144254777Y-95589790D01*
X144971743Y-95293546D01*
X145520766Y-94745481D01*
X145818261Y-94029033D01*
X145818938Y-93253275D01*
X145522694Y-92536309D01*
X144974629Y-91987286D01*
X144258181Y-91689791D01*
X143482423Y-91689114D01*
X142765457Y-91985358D01*
X142216434Y-92533423D01*
X141918939Y-93249871D01*
X141918262Y-94025629D01*
X130810194Y-94025629D01*
X130734792Y-93843143D01*
X130299151Y-93406740D01*
X129729667Y-93170270D01*
X129113039Y-93169732D01*
X128543143Y-93405208D01*
X128106740Y-93840849D01*
X127870270Y-94410333D01*
X127869732Y-95026961D01*
X125969732Y-95026961D01*
X125970268Y-94413039D01*
X125734792Y-93843143D01*
X125299151Y-93406740D01*
X124729667Y-93170270D01*
X124113039Y-93169732D01*
X123543143Y-93405208D01*
X123106740Y-93840849D01*
X122870270Y-94410333D01*
X122870149Y-94548457D01*
X122459151Y-94136740D01*
X121889667Y-93900270D01*
X121273039Y-93899732D01*
X120703143Y-94135208D01*
X120266740Y-94570849D01*
X120030270Y-95140333D01*
X120029732Y-95756961D01*
X120265208Y-96326857D01*
X120662602Y-96724946D01*
X120323143Y-96865208D01*
X119886740Y-97300849D01*
X119650270Y-97870333D01*
X119649732Y-98486961D01*
X119630000Y-98486961D01*
X119630000Y-91680805D01*
X120914881Y-91680805D01*
X120999983Y-91928846D01*
X121610064Y-92038239D01*
X122160017Y-91928846D01*
X122245119Y-91680805D01*
X121580000Y-91015685D01*
X120914881Y-91680805D01*
X119630000Y-91680805D01*
X119630000Y-90480064D01*
X119991761Y-90480064D01*
X120101154Y-91030017D01*
X120349195Y-91115119D01*
X121014315Y-90450000D01*
X122145685Y-90450000D01*
X122810805Y-91115119D01*
X122850225Y-91101594D01*
X122849732Y-91666961D01*
X123085208Y-92236857D01*
X123520849Y-92673260D01*
X124090333Y-92909730D01*
X124706961Y-92910268D01*
X125276857Y-92674792D01*
X125713260Y-92239151D01*
X125949730Y-91669667D01*
X125949732Y-91666961D01*
X127849732Y-91666961D01*
X128085208Y-92236857D01*
X128520849Y-92673260D01*
X129090333Y-92909730D01*
X129706961Y-92910268D01*
X130276857Y-92674792D01*
X130713260Y-92239151D01*
X130789933Y-92054500D01*
X130980000Y-92054500D01*
X130980000Y-92440776D01*
X131095399Y-92719373D01*
X131308628Y-92932602D01*
X131587225Y-93048000D01*
X131973500Y-93048000D01*
X132163000Y-92858500D01*
X132163000Y-91865000D01*
X133013000Y-91865000D01*
X133013000Y-92858500D01*
X133202500Y-93048000D01*
X133588775Y-93048000D01*
X133867372Y-92932602D01*
X134080601Y-92719373D01*
X134103756Y-92663472D01*
X134465631Y-92905241D01*
X134703000Y-92793336D01*
X134703000Y-91865000D01*
X133013000Y-91865000D01*
X132163000Y-91865000D01*
X131169500Y-91865000D01*
X130980000Y-92054500D01*
X130789933Y-92054500D01*
X130949730Y-91669667D01*
X130950268Y-91053039D01*
X130714792Y-90483143D01*
X130670950Y-90439224D01*
X130980000Y-90439224D01*
X130980000Y-90825500D01*
X131169500Y-91015000D01*
X132163000Y-91015000D01*
X132163000Y-90021500D01*
X133013000Y-90021500D01*
X133013000Y-91015000D01*
X134703000Y-91015000D01*
X134703000Y-90086664D01*
X135553000Y-90086664D01*
X135553000Y-91015000D01*
X135978000Y-91015000D01*
X135978000Y-91865000D01*
X135553000Y-91865000D01*
X135553000Y-92793336D01*
X135790369Y-92905241D01*
X136112534Y-92690002D01*
X136667261Y-92690002D01*
X137055707Y-92949553D01*
X137668000Y-93071346D01*
X138280293Y-92949553D01*
X138799371Y-92602717D01*
X138938000Y-92395244D01*
X139076629Y-92602717D01*
X139595707Y-92949553D01*
X140208000Y-93071346D01*
X140820293Y-92949553D01*
X141339371Y-92602717D01*
X141686207Y-92083639D01*
X141790205Y-91560805D01*
X147274881Y-91560805D01*
X147359983Y-91808846D01*
X147970064Y-91918239D01*
X148520017Y-91808846D01*
X148605119Y-91560805D01*
X147940000Y-90895685D01*
X147274881Y-91560805D01*
X141790205Y-91560805D01*
X141808000Y-91471346D01*
X141808000Y-91408654D01*
X141686207Y-90796361D01*
X141394684Y-90360064D01*
X146351761Y-90360064D01*
X146461154Y-90910017D01*
X146709195Y-90995119D01*
X147374315Y-90330000D01*
X148505685Y-90330000D01*
X149170805Y-90995119D01*
X149418846Y-90910017D01*
X149528239Y-90299936D01*
X149418846Y-89749983D01*
X149170805Y-89664881D01*
X148505685Y-90330000D01*
X147374315Y-90330000D01*
X146709195Y-89664881D01*
X146461154Y-89749983D01*
X146351761Y-90360064D01*
X141394684Y-90360064D01*
X141339371Y-90277283D01*
X140820293Y-89930447D01*
X140208000Y-89808654D01*
X139595707Y-89930447D01*
X139076629Y-90277283D01*
X138938000Y-90484756D01*
X138799371Y-90277283D01*
X138280293Y-89930447D01*
X137668000Y-89808654D01*
X137055707Y-89930447D01*
X136667261Y-90189998D01*
X136112534Y-90189998D01*
X135790369Y-89974759D01*
X135553000Y-90086664D01*
X134703000Y-90086664D01*
X134465631Y-89974759D01*
X134103756Y-90216528D01*
X134080601Y-90160627D01*
X133867372Y-89947398D01*
X133588775Y-89832000D01*
X133202500Y-89832000D01*
X133013000Y-90021500D01*
X132163000Y-90021500D01*
X131973500Y-89832000D01*
X131587225Y-89832000D01*
X131308628Y-89947398D01*
X131095399Y-90160627D01*
X130980000Y-90439224D01*
X130670950Y-90439224D01*
X130279151Y-90046740D01*
X129709667Y-89810270D01*
X129093039Y-89809732D01*
X128523143Y-90045208D01*
X128086740Y-90480849D01*
X127850270Y-91050333D01*
X127849732Y-91666961D01*
X125949732Y-91666961D01*
X125950268Y-91053039D01*
X125714792Y-90483143D01*
X125279151Y-90046740D01*
X124709667Y-89810270D01*
X124093039Y-89809732D01*
X123523143Y-90045208D01*
X123164846Y-90402879D01*
X123058846Y-89869983D01*
X122810805Y-89784881D01*
X122145685Y-90450000D01*
X121014315Y-90450000D01*
X120349195Y-89784881D01*
X120101154Y-89869983D01*
X119991761Y-90480064D01*
X119630000Y-90480064D01*
X119630000Y-89150000D01*
X120938622Y-89150000D01*
X120914881Y-89219195D01*
X120914881Y-89219195D01*
G37*
X120914881Y-89219195D02*
X121580000Y-89884315D01*
X122245119Y-89219195D01*
X122221378Y-89150000D01*
X147325686Y-89150000D01*
X147940000Y-89764315D01*
X148554314Y-89150000D01*
X149610000Y-89150000D01*
X149610000Y-114558000D01*
X123156400Y-114558000D01*
X123440726Y-114440519D01*
X123989749Y-113892454D01*
X124287244Y-113176006D01*
X124287921Y-112400248D01*
X124277283Y-112374500D01*
X130980000Y-112374500D01*
X130980000Y-112760776D01*
X131095399Y-113039373D01*
X131308628Y-113252602D01*
X131587225Y-113368000D01*
X131973500Y-113368000D01*
X132163000Y-113178500D01*
X132163000Y-112185000D01*
X133013000Y-112185000D01*
X133013000Y-113178500D01*
X133202500Y-113368000D01*
X133588775Y-113368000D01*
X133867372Y-113252602D01*
X134080601Y-113039373D01*
X134103756Y-112983472D01*
X134465631Y-113225241D01*
X134703000Y-113113336D01*
X134703000Y-112185000D01*
X133013000Y-112185000D01*
X132163000Y-112185000D01*
X131169500Y-112185000D01*
X130980000Y-112374500D01*
X124277283Y-112374500D01*
X123991677Y-111683282D01*
X123443612Y-111134259D01*
X122727164Y-110836764D01*
X121951406Y-110836087D01*
X121234440Y-111132331D01*
X120685417Y-111680396D01*
X120387922Y-112396844D01*
X120387245Y-113172602D01*
X120683489Y-113889568D01*
X121231554Y-114438591D01*
X121519123Y-114558000D01*
X119630000Y-114558000D01*
X119630000Y-110759224D01*
X130980000Y-110759224D01*
X130980000Y-111145500D01*
X131169500Y-111335000D01*
X132163000Y-111335000D01*
X132163000Y-110341500D01*
X133013000Y-110341500D01*
X133013000Y-111335000D01*
X134703000Y-111335000D01*
X134703000Y-110406664D01*
X135553000Y-110406664D01*
X135553000Y-111335000D01*
X135978000Y-111335000D01*
X135978000Y-112185000D01*
X135553000Y-112185000D01*
X135553000Y-113113336D01*
X135790369Y-113225241D01*
X136112534Y-113010002D01*
X136667261Y-113010002D01*
X137055707Y-113269553D01*
X137668000Y-113391346D01*
X138280293Y-113269553D01*
X138799371Y-112922717D01*
X138938000Y-112715244D01*
X139076629Y-112922717D01*
X139595707Y-113269553D01*
X140208000Y-113391346D01*
X140820293Y-113269553D01*
X141339371Y-112922717D01*
X141455470Y-112748961D01*
X146150732Y-112748961D01*
X146386208Y-113318857D01*
X146821849Y-113755260D01*
X147391333Y-113991730D01*
X148007961Y-113992268D01*
X148577857Y-113756792D01*
X149014260Y-113321151D01*
X149250730Y-112751667D01*
X149251268Y-112135039D01*
X149015792Y-111565143D01*
X148580151Y-111128740D01*
X148010667Y-110892270D01*
X147394039Y-110891732D01*
X146824143Y-111127208D01*
X146387740Y-111562849D01*
X146151270Y-112132333D01*
X146150732Y-112748961D01*
X141455470Y-112748961D01*
X141686207Y-112403639D01*
X141808000Y-111791346D01*
X141808000Y-111728654D01*
X141686207Y-111116361D01*
X141339371Y-110597283D01*
X140820293Y-110250447D01*
X140208000Y-110128654D01*
X139595707Y-110250447D01*
X139076629Y-110597283D01*
X138938000Y-110804756D01*
X138799371Y-110597283D01*
X138280293Y-110250447D01*
X137668000Y-110128654D01*
X137055707Y-110250447D01*
X136667261Y-110509998D01*
X136112534Y-110509998D01*
X135790369Y-110294759D01*
X135553000Y-110406664D01*
X134703000Y-110406664D01*
X134465631Y-110294759D01*
X134103756Y-110536528D01*
X134080601Y-110480627D01*
X133867372Y-110267398D01*
X133588775Y-110152000D01*
X133202500Y-110152000D01*
X133013000Y-110341500D01*
X132163000Y-110341500D01*
X131973500Y-110152000D01*
X131587225Y-110152000D01*
X131308628Y-110267398D01*
X131095399Y-110480627D01*
X130980000Y-110759224D01*
X119630000Y-110759224D01*
X119630000Y-108538503D01*
X138164134Y-108538503D01*
X138460378Y-109255469D01*
X139008443Y-109804492D01*
X139724891Y-110101987D01*
X140500649Y-110102664D01*
X141217615Y-109806420D01*
X141766638Y-109258355D01*
X142009779Y-108672805D01*
X147035881Y-108672805D01*
X147120983Y-108920846D01*
X147731064Y-109030239D01*
X148281017Y-108920846D01*
X148366119Y-108672805D01*
X147701000Y-108007685D01*
X147035881Y-108672805D01*
X142009779Y-108672805D01*
X142064133Y-108541907D01*
X142064810Y-107766149D01*
X141943297Y-107472064D01*
X146112761Y-107472064D01*
X146222154Y-108022017D01*
X146470195Y-108107119D01*
X147135315Y-107442000D01*
X148266685Y-107442000D01*
X148931805Y-108107119D01*
X149179846Y-108022017D01*
X149289239Y-107411936D01*
X149179846Y-106861983D01*
X148931805Y-106776881D01*
X148266685Y-107442000D01*
X147135315Y-107442000D01*
X146470195Y-106776881D01*
X146222154Y-106861983D01*
X146112761Y-107472064D01*
X141943297Y-107472064D01*
X141768566Y-107049183D01*
X141220501Y-106500160D01*
X140524596Y-106211195D01*
X147035881Y-106211195D01*
X147701000Y-106876315D01*
X148366119Y-106211195D01*
X148281017Y-105963154D01*
X147670936Y-105853761D01*
X147120983Y-105963154D01*
X147035881Y-106211195D01*
X140524596Y-106211195D01*
X140504053Y-106202665D01*
X139728295Y-106201988D01*
X139011329Y-106498232D01*
X138462306Y-107046297D01*
X138164811Y-107762745D01*
X138164134Y-108538503D01*
X119630000Y-108538503D01*
X119630000Y-106859424D01*
X133255833Y-106859424D01*
X133491309Y-107429320D01*
X133926950Y-107865723D01*
X134496434Y-108102193D01*
X135113062Y-108102731D01*
X135682958Y-107867255D01*
X136119361Y-107431614D01*
X136355831Y-106862130D01*
X136356369Y-106245502D01*
X136120893Y-105675606D01*
X135685252Y-105239203D01*
X135115768Y-105002733D01*
X134499140Y-105002195D01*
X133929244Y-105237671D01*
X133492841Y-105673312D01*
X133256371Y-106242796D01*
X133255833Y-106859424D01*
X119630000Y-106859424D01*
X119630000Y-102160961D01*
X131545732Y-102160961D01*
X131781208Y-102730857D01*
X132216849Y-103167260D01*
X132786333Y-103403730D01*
X133402961Y-103404268D01*
X133972857Y-103168792D01*
X134409260Y-102733151D01*
X134645730Y-102163667D01*
X134646268Y-101547039D01*
X134410792Y-100977143D01*
X133975151Y-100540740D01*
X133405667Y-100304270D01*
X132789039Y-100303732D01*
X132219143Y-100539208D01*
X131782740Y-100974849D01*
X131546270Y-101544333D01*
X131545732Y-102160961D01*
X119630000Y-102160961D01*
X119630000Y-100125882D01*
X127769662Y-100125882D01*
X128065906Y-100842848D01*
X128613971Y-101391871D01*
X129330419Y-101689366D01*
X130106177Y-101690043D01*
X130823143Y-101393799D01*
X131372166Y-100845734D01*
X131669661Y-100129286D01*
X131670338Y-99353528D01*
X131374094Y-98636562D01*
X130826029Y-98087539D01*
X130109581Y-97790044D01*
X129333823Y-97789367D01*
X128616857Y-98085611D01*
X128067834Y-98633676D01*
X127770339Y-99350124D01*
X127769662Y-100125882D01*
X119630000Y-100125882D01*
X119630000Y-98486961D01*
X119649732Y-98486961D01*
X119885208Y-99056857D01*
X120320849Y-99493260D01*
X120890333Y-99729730D01*
X121506961Y-99730268D01*
X122076857Y-99494792D01*
X122513260Y-99059151D01*
X122749730Y-98489667D01*
X122749732Y-98486961D01*
X124649732Y-98486961D01*
X124885208Y-99056857D01*
X125320849Y-99493260D01*
X125890333Y-99729730D01*
X126506961Y-99730268D01*
X127076857Y-99494792D01*
X127513260Y-99059151D01*
X127749730Y-98489667D01*
X127750268Y-97873039D01*
X127514792Y-97303143D01*
X127079151Y-96866740D01*
X126509667Y-96630270D01*
X125893039Y-96629732D01*
X125323143Y-96865208D01*
X124886740Y-97300849D01*
X124650270Y-97870333D01*
X124649732Y-98486961D01*
X122749732Y-98486961D01*
X122750268Y-97873039D01*
X122514792Y-97303143D01*
X122117398Y-96905054D01*
X122456857Y-96764792D01*
X122893260Y-96329151D01*
X123129730Y-95759667D01*
X123129851Y-95621543D01*
X123540849Y-96033260D01*
X124110333Y-96269730D01*
X124726961Y-96270268D01*
X125296857Y-96034792D01*
X125733260Y-95599151D01*
X125969730Y-95029667D01*
X125969732Y-95026961D01*
X127869732Y-95026961D01*
X128105208Y-95596857D01*
X128540849Y-96033260D01*
X129110333Y-96269730D01*
X129726961Y-96270268D01*
X130296857Y-96034792D01*
X130695383Y-95636961D01*
X146389732Y-95636961D01*
X146625208Y-96206857D01*
X147060849Y-96643260D01*
X147630333Y-96879730D01*
X148246961Y-96880268D01*
X148816857Y-96644792D01*
X149253260Y-96209151D01*
X149489730Y-95639667D01*
X149490268Y-95023039D01*
X149254792Y-94453143D01*
X148819151Y-94016740D01*
X148249667Y-93780270D01*
X147633039Y-93779732D01*
X147063143Y-94015208D01*
X146626740Y-94450849D01*
X146390270Y-95020333D01*
X146389732Y-95636961D01*
X130695383Y-95636961D01*
X130733260Y-95599151D01*
X130969730Y-95029667D01*
X130970268Y-94413039D01*
X130810194Y-94025629D01*
X141918262Y-94025629D01*
X142214506Y-94742595D01*
X142762571Y-95291618D01*
X143479019Y-95589113D01*
X144254777Y-95589790D01*
X144971743Y-95293546D01*
X145520766Y-94745481D01*
X145818261Y-94029033D01*
X145818938Y-93253275D01*
X145522694Y-92536309D01*
X144974629Y-91987286D01*
X144258181Y-91689791D01*
X143482423Y-91689114D01*
X142765457Y-91985358D01*
X142216434Y-92533423D01*
X141918939Y-93249871D01*
X141918262Y-94025629D01*
X130810194Y-94025629D01*
X130734792Y-93843143D01*
X130299151Y-93406740D01*
X129729667Y-93170270D01*
X129113039Y-93169732D01*
X128543143Y-93405208D01*
X128106740Y-93840849D01*
X127870270Y-94410333D01*
X127869732Y-95026961D01*
X125969732Y-95026961D01*
X125970268Y-94413039D01*
X125734792Y-93843143D01*
X125299151Y-93406740D01*
X124729667Y-93170270D01*
X124113039Y-93169732D01*
X123543143Y-93405208D01*
X123106740Y-93840849D01*
X122870270Y-94410333D01*
X122870149Y-94548457D01*
X122459151Y-94136740D01*
X121889667Y-93900270D01*
X121273039Y-93899732D01*
X120703143Y-94135208D01*
X120266740Y-94570849D01*
X120030270Y-95140333D01*
X120029732Y-95756961D01*
X120265208Y-96326857D01*
X120662602Y-96724946D01*
X120323143Y-96865208D01*
X119886740Y-97300849D01*
X119650270Y-97870333D01*
X119649732Y-98486961D01*
X119630000Y-98486961D01*
X119630000Y-91680805D01*
X120914881Y-91680805D01*
X120999983Y-91928846D01*
X121610064Y-92038239D01*
X122160017Y-91928846D01*
X122245119Y-91680805D01*
X121580000Y-91015685D01*
X120914881Y-91680805D01*
X119630000Y-91680805D01*
X119630000Y-90480064D01*
X119991761Y-90480064D01*
X120101154Y-91030017D01*
X120349195Y-91115119D01*
X121014315Y-90450000D01*
X122145685Y-90450000D01*
X122810805Y-91115119D01*
X122850225Y-91101594D01*
X122849732Y-91666961D01*
X123085208Y-92236857D01*
X123520849Y-92673260D01*
X124090333Y-92909730D01*
X124706961Y-92910268D01*
X125276857Y-92674792D01*
X125713260Y-92239151D01*
X125949730Y-91669667D01*
X125949732Y-91666961D01*
X127849732Y-91666961D01*
X128085208Y-92236857D01*
X128520849Y-92673260D01*
X129090333Y-92909730D01*
X129706961Y-92910268D01*
X130276857Y-92674792D01*
X130713260Y-92239151D01*
X130789933Y-92054500D01*
X130980000Y-92054500D01*
X130980000Y-92440776D01*
X131095399Y-92719373D01*
X131308628Y-92932602D01*
X131587225Y-93048000D01*
X131973500Y-93048000D01*
X132163000Y-92858500D01*
X132163000Y-91865000D01*
X133013000Y-91865000D01*
X133013000Y-92858500D01*
X133202500Y-93048000D01*
X133588775Y-93048000D01*
X133867372Y-92932602D01*
X134080601Y-92719373D01*
X134103756Y-92663472D01*
X134465631Y-92905241D01*
X134703000Y-92793336D01*
X134703000Y-91865000D01*
X133013000Y-91865000D01*
X132163000Y-91865000D01*
X131169500Y-91865000D01*
X130980000Y-92054500D01*
X130789933Y-92054500D01*
X130949730Y-91669667D01*
X130950268Y-91053039D01*
X130714792Y-90483143D01*
X130670950Y-90439224D01*
X130980000Y-90439224D01*
X130980000Y-90825500D01*
X131169500Y-91015000D01*
X132163000Y-91015000D01*
X132163000Y-90021500D01*
X133013000Y-90021500D01*
X133013000Y-91015000D01*
X134703000Y-91015000D01*
X134703000Y-90086664D01*
X135553000Y-90086664D01*
X135553000Y-91015000D01*
X135978000Y-91015000D01*
X135978000Y-91865000D01*
X135553000Y-91865000D01*
X135553000Y-92793336D01*
X135790369Y-92905241D01*
X136112534Y-92690002D01*
X136667261Y-92690002D01*
X137055707Y-92949553D01*
X137668000Y-93071346D01*
X138280293Y-92949553D01*
X138799371Y-92602717D01*
X138938000Y-92395244D01*
X139076629Y-92602717D01*
X139595707Y-92949553D01*
X140208000Y-93071346D01*
X140820293Y-92949553D01*
X141339371Y-92602717D01*
X141686207Y-92083639D01*
X141790205Y-91560805D01*
X147274881Y-91560805D01*
X147359983Y-91808846D01*
X147970064Y-91918239D01*
X148520017Y-91808846D01*
X148605119Y-91560805D01*
X147940000Y-90895685D01*
X147274881Y-91560805D01*
X141790205Y-91560805D01*
X141808000Y-91471346D01*
X141808000Y-91408654D01*
X141686207Y-90796361D01*
X141394684Y-90360064D01*
X146351761Y-90360064D01*
X146461154Y-90910017D01*
X146709195Y-90995119D01*
X147374315Y-90330000D01*
X148505685Y-90330000D01*
X149170805Y-90995119D01*
X149418846Y-90910017D01*
X149528239Y-90299936D01*
X149418846Y-89749983D01*
X149170805Y-89664881D01*
X148505685Y-90330000D01*
X147374315Y-90330000D01*
X146709195Y-89664881D01*
X146461154Y-89749983D01*
X146351761Y-90360064D01*
X141394684Y-90360064D01*
X141339371Y-90277283D01*
X140820293Y-89930447D01*
X140208000Y-89808654D01*
X139595707Y-89930447D01*
X139076629Y-90277283D01*
X138938000Y-90484756D01*
X138799371Y-90277283D01*
X138280293Y-89930447D01*
X137668000Y-89808654D01*
X137055707Y-89930447D01*
X136667261Y-90189998D01*
X136112534Y-90189998D01*
X135790369Y-89974759D01*
X135553000Y-90086664D01*
X134703000Y-90086664D01*
X134465631Y-89974759D01*
X134103756Y-90216528D01*
X134080601Y-90160627D01*
X133867372Y-89947398D01*
X133588775Y-89832000D01*
X133202500Y-89832000D01*
X133013000Y-90021500D01*
X132163000Y-90021500D01*
X131973500Y-89832000D01*
X131587225Y-89832000D01*
X131308628Y-89947398D01*
X131095399Y-90160627D01*
X130980000Y-90439224D01*
X130670950Y-90439224D01*
X130279151Y-90046740D01*
X129709667Y-89810270D01*
X129093039Y-89809732D01*
X128523143Y-90045208D01*
X128086740Y-90480849D01*
X127850270Y-91050333D01*
X127849732Y-91666961D01*
X125949732Y-91666961D01*
X125950268Y-91053039D01*
X125714792Y-90483143D01*
X125279151Y-90046740D01*
X124709667Y-89810270D01*
X124093039Y-89809732D01*
X123523143Y-90045208D01*
X123164846Y-90402879D01*
X123058846Y-89869983D01*
X122810805Y-89784881D01*
X122145685Y-90450000D01*
X121014315Y-90450000D01*
X120349195Y-89784881D01*
X120101154Y-89869983D01*
X119991761Y-90480064D01*
X119630000Y-90480064D01*
X119630000Y-89150000D01*
X120938622Y-89150000D01*
X120914881Y-89219195D01*
M02*
