%TF.GenerationSoftware,KiCad,Pcbnew,(6.0.11)*%
%TF.CreationDate,2023-03-05T11:31:22-06:00*%
%TF.ProjectId,SerialResonantFilter,53657269-616c-4526-9573-6f6e616e7446,rev?*%
%TF.SameCoordinates,Original*%
%TF.FileFunction,Legend,Top*%
%TF.FilePolarity,Positive*%
%FSLAX46Y46*%
G04 Gerber Fmt 4.6, Leading zero omitted, Abs format (unit mm)*
G04 Created by KiCad (PCBNEW (6.0.11)) date 2023-03-05 11:31:22*
%MOMM*%
%LPD*%
G01*
G04 APERTURE LIST*
%ADD10C,5.000000*%
%ADD11C,0.150000*%
%ADD12C,0.120000*%
G04 APERTURE END LIST*
D10*
X143954500Y-109982000D02*
X143954500Y-111061500D01*
D11*
X125643333Y-106792380D02*
X125167142Y-106792380D01*
X125167142Y-105792380D01*
X125881428Y-105792380D02*
X126500476Y-105792380D01*
X126167142Y-106173333D01*
X126310000Y-106173333D01*
X126405238Y-106220952D01*
X126452857Y-106268571D01*
X126500476Y-106363809D01*
X126500476Y-106601904D01*
X126452857Y-106697142D01*
X126405238Y-106744761D01*
X126310000Y-106792380D01*
X126024285Y-106792380D01*
X125929047Y-106744761D01*
X125881428Y-106697142D01*
X132059047Y-94038571D02*
X132201904Y-94086190D01*
X132249523Y-94133809D01*
X132297142Y-94229047D01*
X132297142Y-94371904D01*
X132249523Y-94467142D01*
X132201904Y-94514761D01*
X132106666Y-94562380D01*
X131725714Y-94562380D01*
X131725714Y-93562380D01*
X132059047Y-93562380D01*
X132154285Y-93610000D01*
X132201904Y-93657619D01*
X132249523Y-93752857D01*
X132249523Y-93848095D01*
X132201904Y-93943333D01*
X132154285Y-93990952D01*
X132059047Y-94038571D01*
X131725714Y-94038571D01*
X132678095Y-94276666D02*
X133154285Y-94276666D01*
X132582857Y-94562380D02*
X132916190Y-93562380D01*
X133249523Y-94562380D01*
X133582857Y-94562380D02*
X133582857Y-93562380D01*
X134154285Y-94562380D01*
X134154285Y-93562380D01*
X134630476Y-94562380D02*
X134630476Y-93562380D01*
X134868571Y-93562380D01*
X135011428Y-93610000D01*
X135106666Y-93705238D01*
X135154285Y-93800476D01*
X135201904Y-93990952D01*
X135201904Y-94133809D01*
X135154285Y-94324285D01*
X135106666Y-94419523D01*
X135011428Y-94514761D01*
X134868571Y-94562380D01*
X134630476Y-94562380D01*
X131797142Y-96172380D02*
X131797142Y-95172380D01*
X132178095Y-95172380D01*
X132273333Y-95220000D01*
X132320952Y-95267619D01*
X132368571Y-95362857D01*
X132368571Y-95505714D01*
X132320952Y-95600952D01*
X132273333Y-95648571D01*
X132178095Y-95696190D01*
X131797142Y-95696190D01*
X132749523Y-95886666D02*
X133225714Y-95886666D01*
X132654285Y-96172380D02*
X132987619Y-95172380D01*
X133320952Y-96172380D01*
X133606666Y-96124761D02*
X133749523Y-96172380D01*
X133987619Y-96172380D01*
X134082857Y-96124761D01*
X134130476Y-96077142D01*
X134178095Y-95981904D01*
X134178095Y-95886666D01*
X134130476Y-95791428D01*
X134082857Y-95743809D01*
X133987619Y-95696190D01*
X133797142Y-95648571D01*
X133701904Y-95600952D01*
X133654285Y-95553333D01*
X133606666Y-95458095D01*
X133606666Y-95362857D01*
X133654285Y-95267619D01*
X133701904Y-95220000D01*
X133797142Y-95172380D01*
X134035238Y-95172380D01*
X134178095Y-95220000D01*
X134559047Y-96124761D02*
X134701904Y-96172380D01*
X134940000Y-96172380D01*
X135035238Y-96124761D01*
X135082857Y-96077142D01*
X135130476Y-95981904D01*
X135130476Y-95886666D01*
X135082857Y-95791428D01*
X135035238Y-95743809D01*
X134940000Y-95696190D01*
X134749523Y-95648571D01*
X134654285Y-95600952D01*
X134606666Y-95553333D01*
X134559047Y-95458095D01*
X134559047Y-95362857D01*
X134606666Y-95267619D01*
X134654285Y-95220000D01*
X134749523Y-95172380D01*
X134987619Y-95172380D01*
X135130476Y-95220000D01*
X131606666Y-97258571D02*
X131273333Y-97258571D01*
X131273333Y-97782380D02*
X131273333Y-96782380D01*
X131749523Y-96782380D01*
X132130476Y-97782380D02*
X132130476Y-96782380D01*
X133082857Y-97782380D02*
X132606666Y-97782380D01*
X132606666Y-96782380D01*
X133273333Y-96782380D02*
X133844761Y-96782380D01*
X133559047Y-97782380D02*
X133559047Y-96782380D01*
X134178095Y-97258571D02*
X134511428Y-97258571D01*
X134654285Y-97782380D02*
X134178095Y-97782380D01*
X134178095Y-96782380D01*
X134654285Y-96782380D01*
X135654285Y-97782380D02*
X135320952Y-97306190D01*
X135082857Y-97782380D02*
X135082857Y-96782380D01*
X135463809Y-96782380D01*
X135559047Y-96830000D01*
X135606666Y-96877619D01*
X135654285Y-96972857D01*
X135654285Y-97115714D01*
X135606666Y-97210952D01*
X135559047Y-97258571D01*
X135463809Y-97306190D01*
X135082857Y-97306190D01*
X143192380Y-91873809D02*
X142192380Y-91873809D01*
X143192380Y-91397619D02*
X142192380Y-91397619D01*
X143192380Y-90826190D01*
X142192380Y-90826190D01*
X143192380Y-90350000D02*
X142192380Y-90350000D01*
X142192380Y-89969047D01*
X142240000Y-89873809D01*
X142287619Y-89826190D01*
X142382857Y-89778571D01*
X142525714Y-89778571D01*
X142620952Y-89826190D01*
X142668571Y-89873809D01*
X142716190Y-89969047D01*
X142716190Y-90350000D01*
X128260000Y-112532380D02*
X128450476Y-112532380D01*
X128545714Y-112580000D01*
X128640952Y-112675238D01*
X128688571Y-112865714D01*
X128688571Y-113199047D01*
X128640952Y-113389523D01*
X128545714Y-113484761D01*
X128450476Y-113532380D01*
X128260000Y-113532380D01*
X128164761Y-113484761D01*
X128069523Y-113389523D01*
X128021904Y-113199047D01*
X128021904Y-112865714D01*
X128069523Y-112675238D01*
X128164761Y-112580000D01*
X128260000Y-112532380D01*
X129117142Y-112532380D02*
X129117142Y-113341904D01*
X129164761Y-113437142D01*
X129212380Y-113484761D01*
X129307619Y-113532380D01*
X129498095Y-113532380D01*
X129593333Y-113484761D01*
X129640952Y-113437142D01*
X129688571Y-113341904D01*
X129688571Y-112532380D01*
X130021904Y-112532380D02*
X130593333Y-112532380D01*
X130307619Y-113532380D02*
X130307619Y-112532380D01*
X141713333Y-101452380D02*
X141237142Y-101452380D01*
X141237142Y-100452380D01*
X141999047Y-100547619D02*
X142046666Y-100500000D01*
X142141904Y-100452380D01*
X142380000Y-100452380D01*
X142475238Y-100500000D01*
X142522857Y-100547619D01*
X142570476Y-100642857D01*
X142570476Y-100738095D01*
X142522857Y-100880952D01*
X141951428Y-101452380D01*
X142570476Y-101452380D01*
%TO.C,C1*%
X146057142Y-90686666D02*
X146104761Y-90734285D01*
X146152380Y-90877142D01*
X146152380Y-90972380D01*
X146104761Y-91115238D01*
X146009523Y-91210476D01*
X145914285Y-91258095D01*
X145723809Y-91305714D01*
X145580952Y-91305714D01*
X145390476Y-91258095D01*
X145295238Y-91210476D01*
X145200000Y-91115238D01*
X145152380Y-90972380D01*
X145152380Y-90877142D01*
X145200000Y-90734285D01*
X145247619Y-90686666D01*
X146152380Y-89734285D02*
X146152380Y-90305714D01*
X146152380Y-90020000D02*
X145152380Y-90020000D01*
X145295238Y-90115238D01*
X145390476Y-90210476D01*
X145438095Y-90305714D01*
%TO.C,C2*%
X130213333Y-90077142D02*
X130165714Y-90124761D01*
X130022857Y-90172380D01*
X129927619Y-90172380D01*
X129784761Y-90124761D01*
X129689523Y-90029523D01*
X129641904Y-89934285D01*
X129594285Y-89743809D01*
X129594285Y-89600952D01*
X129641904Y-89410476D01*
X129689523Y-89315238D01*
X129784761Y-89220000D01*
X129927619Y-89172380D01*
X130022857Y-89172380D01*
X130165714Y-89220000D01*
X130213333Y-89267619D01*
X130594285Y-89267619D02*
X130641904Y-89220000D01*
X130737142Y-89172380D01*
X130975238Y-89172380D01*
X131070476Y-89220000D01*
X131118095Y-89267619D01*
X131165714Y-89362857D01*
X131165714Y-89458095D01*
X131118095Y-89600952D01*
X130546666Y-90172380D01*
X131165714Y-90172380D01*
%TO.C,C3*%
X129543333Y-97307142D02*
X129495714Y-97354761D01*
X129352857Y-97402380D01*
X129257619Y-97402380D01*
X129114761Y-97354761D01*
X129019523Y-97259523D01*
X128971904Y-97164285D01*
X128924285Y-96973809D01*
X128924285Y-96830952D01*
X128971904Y-96640476D01*
X129019523Y-96545238D01*
X129114761Y-96450000D01*
X129257619Y-96402380D01*
X129352857Y-96402380D01*
X129495714Y-96450000D01*
X129543333Y-96497619D01*
X129876666Y-96402380D02*
X130495714Y-96402380D01*
X130162380Y-96783333D01*
X130305238Y-96783333D01*
X130400476Y-96830952D01*
X130448095Y-96878571D01*
X130495714Y-96973809D01*
X130495714Y-97211904D01*
X130448095Y-97307142D01*
X130400476Y-97354761D01*
X130305238Y-97402380D01*
X130019523Y-97402380D01*
X129924285Y-97354761D01*
X129876666Y-97307142D01*
%TO.C,C4*%
X120377142Y-93026666D02*
X120424761Y-93074285D01*
X120472380Y-93217142D01*
X120472380Y-93312380D01*
X120424761Y-93455238D01*
X120329523Y-93550476D01*
X120234285Y-93598095D01*
X120043809Y-93645714D01*
X119900952Y-93645714D01*
X119710476Y-93598095D01*
X119615238Y-93550476D01*
X119520000Y-93455238D01*
X119472380Y-93312380D01*
X119472380Y-93217142D01*
X119520000Y-93074285D01*
X119567619Y-93026666D01*
X119805714Y-92169523D02*
X120472380Y-92169523D01*
X119424761Y-92407619D02*
X120139047Y-92645714D01*
X120139047Y-92026666D01*
%TO.C,C5*%
X128287142Y-98316666D02*
X128334761Y-98364285D01*
X128382380Y-98507142D01*
X128382380Y-98602380D01*
X128334761Y-98745238D01*
X128239523Y-98840476D01*
X128144285Y-98888095D01*
X127953809Y-98935714D01*
X127810952Y-98935714D01*
X127620476Y-98888095D01*
X127525238Y-98840476D01*
X127430000Y-98745238D01*
X127382380Y-98602380D01*
X127382380Y-98507142D01*
X127430000Y-98364285D01*
X127477619Y-98316666D01*
X127382380Y-97411904D02*
X127382380Y-97888095D01*
X127858571Y-97935714D01*
X127810952Y-97888095D01*
X127763333Y-97792857D01*
X127763333Y-97554761D01*
X127810952Y-97459523D01*
X127858571Y-97411904D01*
X127953809Y-97364285D01*
X128191904Y-97364285D01*
X128287142Y-97411904D01*
X128334761Y-97459523D01*
X128382380Y-97554761D01*
X128382380Y-97792857D01*
X128334761Y-97888095D01*
X128287142Y-97935714D01*
%TO.C,C6*%
X147534333Y-106027142D02*
X147486714Y-106074761D01*
X147343857Y-106122380D01*
X147248619Y-106122380D01*
X147105761Y-106074761D01*
X147010523Y-105979523D01*
X146962904Y-105884285D01*
X146915285Y-105693809D01*
X146915285Y-105550952D01*
X146962904Y-105360476D01*
X147010523Y-105265238D01*
X147105761Y-105170000D01*
X147248619Y-105122380D01*
X147343857Y-105122380D01*
X147486714Y-105170000D01*
X147534333Y-105217619D01*
X148391476Y-105122380D02*
X148201000Y-105122380D01*
X148105761Y-105170000D01*
X148058142Y-105217619D01*
X147962904Y-105360476D01*
X147915285Y-105550952D01*
X147915285Y-105931904D01*
X147962904Y-106027142D01*
X148010523Y-106074761D01*
X148105761Y-106122380D01*
X148296238Y-106122380D01*
X148391476Y-106074761D01*
X148439095Y-106027142D01*
X148486714Y-105931904D01*
X148486714Y-105693809D01*
X148439095Y-105598571D01*
X148391476Y-105550952D01*
X148296238Y-105503333D01*
X148105761Y-105503333D01*
X148010523Y-105550952D01*
X147962904Y-105598571D01*
X147915285Y-105693809D01*
%TO.C,C7*%
X135685534Y-108702607D02*
X135657074Y-108763641D01*
X135539118Y-108857249D01*
X135449624Y-108889822D01*
X135299095Y-108893935D01*
X135177027Y-108837014D01*
X135099707Y-108763806D01*
X134989813Y-108601103D01*
X134940953Y-108466861D01*
X134920553Y-108271586D01*
X134932727Y-108165804D01*
X134989649Y-108043737D01*
X135107604Y-107950129D01*
X135197098Y-107917556D01*
X135347627Y-107913443D01*
X135408661Y-107941904D01*
X135689318Y-107738403D02*
X136315780Y-107510389D01*
X136255075Y-108596662D01*
%TO.C,J1*%
X133816666Y-108672380D02*
X133816666Y-109386666D01*
X133769047Y-109529523D01*
X133673809Y-109624761D01*
X133530952Y-109672380D01*
X133435714Y-109672380D01*
X134816666Y-109672380D02*
X134245238Y-109672380D01*
X134530952Y-109672380D02*
X134530952Y-108672380D01*
X134435714Y-108815238D01*
X134340476Y-108910476D01*
X134245238Y-108958095D01*
%TO.C,J2*%
X143552380Y-90763333D02*
X144266666Y-90763333D01*
X144409523Y-90810952D01*
X144504761Y-90906190D01*
X144552380Y-91049047D01*
X144552380Y-91144285D01*
X143647619Y-90334761D02*
X143600000Y-90287142D01*
X143552380Y-90191904D01*
X143552380Y-89953809D01*
X143600000Y-89858571D01*
X143647619Y-89810952D01*
X143742857Y-89763333D01*
X143838095Y-89763333D01*
X143980952Y-89810952D01*
X144552380Y-90382380D01*
X144552380Y-89763333D01*
D12*
%TO.C,C1*%
X146944000Y-90270000D02*
X146630000Y-90270000D01*
X149250000Y-95390000D02*
X148936000Y-95390000D01*
X149250000Y-90270000D02*
X149250000Y-95390000D01*
X149250000Y-90270000D02*
X148936000Y-90270000D01*
X146944000Y-95390000D02*
X146630000Y-95390000D01*
X146630000Y-90270000D02*
X146630000Y-95390000D01*
%TO.C,C2*%
X129460000Y-90364000D02*
X129460000Y-90050000D01*
X124340000Y-92670000D02*
X124340000Y-92356000D01*
X129460000Y-92670000D02*
X124340000Y-92670000D01*
X129460000Y-92670000D02*
X129460000Y-92356000D01*
X124340000Y-90364000D02*
X124340000Y-90050000D01*
X129460000Y-90050000D02*
X124340000Y-90050000D01*
%TO.C,C3*%
X129480000Y-93724000D02*
X129480000Y-93410000D01*
X124360000Y-96030000D02*
X124360000Y-95716000D01*
X129480000Y-96030000D02*
X124360000Y-96030000D01*
X129480000Y-96030000D02*
X129480000Y-95716000D01*
X124360000Y-93724000D02*
X124360000Y-93410000D01*
X129480000Y-93410000D02*
X124360000Y-93410000D01*
%TO.C,C4*%
X120674000Y-90400000D02*
X120360000Y-90400000D01*
X122980000Y-95520000D02*
X122666000Y-95520000D01*
X122980000Y-90400000D02*
X122980000Y-95520000D01*
X122980000Y-90400000D02*
X122666000Y-90400000D01*
X120674000Y-95520000D02*
X120360000Y-95520000D01*
X120360000Y-90400000D02*
X120360000Y-95520000D01*
%TO.C,C5*%
X126260000Y-97184000D02*
X126260000Y-96870000D01*
X121140000Y-99490000D02*
X121140000Y-99176000D01*
X126260000Y-99490000D02*
X121140000Y-99490000D01*
X126260000Y-99490000D02*
X126260000Y-99176000D01*
X121140000Y-97184000D02*
X121140000Y-96870000D01*
X126260000Y-96870000D02*
X121140000Y-96870000D01*
%TO.C,C6*%
X146705000Y-107382000D02*
X146391000Y-107382000D01*
X149011000Y-112502000D02*
X148697000Y-112502000D01*
X149011000Y-107382000D02*
X149011000Y-112502000D01*
X149011000Y-107382000D02*
X148697000Y-107382000D01*
X146705000Y-112502000D02*
X146391000Y-112502000D01*
X146391000Y-107382000D02*
X146391000Y-112502000D01*
%TO.C,C7*%
X131844481Y-102245665D02*
X133595625Y-107056891D01*
X133890688Y-106949497D02*
X133595625Y-107056891D01*
X134306476Y-101349572D02*
X134011413Y-101456966D01*
X134306476Y-101349572D02*
X136057619Y-106160798D01*
X136057619Y-106160798D02*
X135762556Y-106268193D01*
X132139545Y-102138271D02*
X131844481Y-102245665D01*
%TO.C,L2*%
X148377811Y-100845258D02*
G75*
G03*
X148377811Y-100845258I-6440001J0D01*
G01*
X145695910Y-100845258D02*
G75*
G03*
X145695910Y-100845258I-3758100J0D01*
G01*
%TO.C,L3*%
X129748100Y-106200254D02*
G75*
G03*
X129748100Y-106200254I-3758100J0D01*
G01*
X132430000Y-106200254D02*
G75*
G03*
X132430000Y-106200254I-6440000J0D01*
G01*
%TO.C,J1*%
X133858000Y-113090000D02*
X133858000Y-110430000D01*
X133858000Y-110430000D02*
X141538000Y-110430000D01*
X132588000Y-113090000D02*
X131258000Y-113090000D01*
X141538000Y-113090000D02*
X141538000Y-110430000D01*
X131258000Y-113090000D02*
X131258000Y-111760000D01*
X133858000Y-113090000D02*
X141538000Y-113090000D01*
%TO.C,J2*%
X132588000Y-92770000D02*
X131258000Y-92770000D01*
X141538000Y-92770000D02*
X141538000Y-90110000D01*
X133858000Y-92770000D02*
X133858000Y-90110000D01*
X131258000Y-92770000D02*
X131258000Y-91440000D01*
X133858000Y-92770000D02*
X141538000Y-92770000D01*
X133858000Y-90110000D02*
X141538000Y-90110000D01*
%TD*%
M02*
