%TF.GenerationSoftware,KiCad,Pcbnew,(6.0.11)*%
%TF.CreationDate,2023-02-05T17:00:42-06:00*%
%TF.ProjectId,SerialResonantFilter,53657269-616c-4526-9573-6f6e616e7446,rev?*%
%TF.SameCoordinates,Original*%
%TF.FileFunction,Copper,L1,Top*%
%TF.FilePolarity,Positive*%
%FSLAX46Y46*%
G04 Gerber Fmt 4.6, Leading zero omitted, Abs format (unit mm)*
G04 Created by KiCad (PCBNEW (6.0.11)) date 2023-02-05 17:00:42*
%MOMM*%
%LPD*%
G01*
G04 APERTURE LIST*
%TA.AperFunction,ComponentPad*%
%ADD10C,2.400000*%
%TD*%
%TA.AperFunction,ComponentPad*%
%ADD11C,1.600000*%
%TD*%
%TA.AperFunction,ComponentPad*%
%ADD12R,1.700000X1.700000*%
%TD*%
%TA.AperFunction,ComponentPad*%
%ADD13O,1.700000X1.700000*%
%TD*%
%TA.AperFunction,Conductor*%
%ADD14C,1.000000*%
%TD*%
G04 APERTURE END LIST*
D10*
%TO.P,L3,1*%
%TO.N,Net-(C2-Pad2)*%
X129720000Y-99739705D03*
%TO.P,L3,2*%
%TO.N,Net-(C7-Pad2)*%
X122337583Y-112786425D03*
%TD*%
D11*
%TO.P,C1,1*%
%TO.N,GND*%
X147940000Y-90330000D03*
%TO.P,C1,2*%
%TO.N,Net-(C1-Pad2)*%
X147940000Y-95330000D03*
%TD*%
%TO.P,C2,1*%
%TO.N,Net-(C3-Pad1)*%
X129400000Y-91360000D03*
%TO.P,C2,2*%
%TO.N,Net-(C2-Pad2)*%
X124400000Y-91360000D03*
%TD*%
%TO.P,C3,1*%
%TO.N,Net-(C3-Pad1)*%
X129420000Y-94720000D03*
%TO.P,C3,2*%
%TO.N,Net-(C2-Pad2)*%
X124420000Y-94720000D03*
%TD*%
%TO.P,C4,1*%
%TO.N,GND*%
X121580000Y-90450000D03*
%TO.P,C4,2*%
%TO.N,Net-(C2-Pad2)*%
X121580000Y-95450000D03*
%TD*%
%TO.P,C5,1*%
%TO.N,Net-(C2-Pad2)*%
X126200000Y-98180000D03*
%TO.P,C5,2*%
%TO.N,Net-(C7-Pad2)*%
X121200000Y-98180000D03*
%TD*%
%TO.P,C6,1*%
%TO.N,GND*%
X147701000Y-107442000D03*
%TO.P,C6,2*%
%TO.N,Net-(C7-Pad2)*%
X147701000Y-112442000D03*
%TD*%
D10*
%TO.P,L2,1*%
%TO.N,Net-(C1-Pad2)*%
X143868600Y-93639452D03*
%TO.P,L2,2*%
%TO.N,Net-(C3-Pad1)*%
X140114472Y-108152326D03*
%TD*%
D12*
%TO.P,J1,1,Pin_1*%
%TO.N,GND*%
X132588000Y-111760000D03*
D13*
%TO.P,J1,2,Pin_2*%
X135128000Y-111760000D03*
%TO.P,J1,3,Pin_3*%
%TO.N,Net-(C7-Pad2)*%
X137668000Y-111760000D03*
%TO.P,J1,4,Pin_4*%
X140208000Y-111760000D03*
%TD*%
D12*
%TO.P,J2,1,Pin_1*%
%TO.N,GND*%
X132588000Y-91440000D03*
D13*
%TO.P,J2,2,Pin_2*%
X135128000Y-91440000D03*
%TO.P,J2,3,Pin_3*%
%TO.N,Net-(C1-Pad2)*%
X137668000Y-91440000D03*
%TO.P,J2,4,Pin_4*%
X140208000Y-91440000D03*
%TD*%
D11*
%TO.P,C7,1*%
%TO.N,Net-(C2-Pad2)*%
X133096000Y-101854000D03*
%TO.P,C7,2*%
%TO.N,Net-(C7-Pad2)*%
X134806101Y-106552463D03*
%TD*%
D14*
%TO.N,Net-(C1-Pad2)*%
X140208000Y-91440000D02*
X141960000Y-92190000D01*
X141960000Y-92190000D02*
X143868600Y-93068600D01*
X143868600Y-93068600D02*
X143868600Y-93639452D01*
X143657269Y-93572819D02*
X144876819Y-93596819D01*
X144876819Y-93596819D02*
X147940000Y-95330000D01*
X137668000Y-91440000D02*
X140208000Y-91440000D01*
%TO.N,Net-(C3-Pad1)*%
X129400000Y-91360000D02*
X129400000Y-94700000D01*
X129400000Y-94700000D02*
X129420000Y-94720000D01*
X140114472Y-108152326D02*
X140114472Y-104554472D01*
X130280000Y-94720000D02*
X129420000Y-94720000D01*
X140114472Y-104554472D02*
X130280000Y-94720000D01*
%TO.N,Net-(C2-Pad2)*%
X124420000Y-94720000D02*
X124420000Y-91380000D01*
X124420000Y-91380000D02*
X124400000Y-91360000D01*
X133096000Y-101854000D02*
X132342295Y-101854000D01*
X132342295Y-101854000D02*
X129720000Y-99739705D01*
X126200000Y-98180000D02*
X127830000Y-98960000D01*
X127830000Y-98960000D02*
X129720000Y-99739705D01*
X124420000Y-94720000D02*
X124420000Y-95670000D01*
X124420000Y-95670000D02*
X126200000Y-98180000D01*
X124420000Y-94720000D02*
X124420000Y-94860000D01*
X124420000Y-94720000D02*
X122850000Y-94720000D01*
X122850000Y-94720000D02*
X121580000Y-95450000D01*
%TO.N,Net-(C7-Pad2)*%
X134170000Y-107340000D02*
X133520000Y-107720000D01*
X131430000Y-109270000D02*
X122337583Y-112786425D01*
X133520000Y-107720000D02*
X131430000Y-109270000D01*
X134170000Y-107340000D02*
X134540000Y-106854000D01*
X137668000Y-110490000D02*
X137668000Y-111760000D01*
X134540000Y-106854000D02*
X137668000Y-110490000D01*
X121200000Y-98180000D02*
X121200000Y-111648842D01*
X121200000Y-111648842D02*
X122337583Y-112786425D01*
X121930000Y-112118842D02*
X122337583Y-112786425D01*
X140208000Y-111760000D02*
X147019000Y-111760000D01*
X147019000Y-111760000D02*
X147701000Y-112442000D01*
X137668000Y-111760000D02*
X140208000Y-111760000D01*
%TD*%
M02*
