M48
;DRILL file {KiCad 4.0.7} date 02/05/23 11:49:17
;FORMAT={-:-/ absolute / metric / decimal}
FMAT,2
METRIC,TZ
T1C0.800
T2C1.000
T3C1.200
%
G90
G05
M71
T1
X121.2Y-98.18
X121.58Y-90.45
X121.58Y-95.45
X124.4Y-91.36
X124.42Y-94.72
X126.2Y-98.18
X129.4Y-91.36
X129.42Y-94.72
X133.096Y-101.854
X134.806Y-106.552
X147.701Y-107.442
X147.701Y-112.442
X147.94Y-90.33
X147.94Y-95.33
T2
X132.588Y-91.44
X132.588Y-111.76
X135.128Y-91.44
X135.128Y-111.76
X137.668Y-91.44
X137.668Y-111.76
X140.208Y-91.44
X140.208Y-111.76
T3
X122.338Y-112.786
X129.72Y-99.74
X140.114Y-108.152
X143.869Y-93.639
T0
M30
