%TF.GenerationSoftware,KiCad,Pcbnew,(6.0.11)*%
%TF.CreationDate,2023-03-05T11:31:22-06:00*%
%TF.ProjectId,SerialResonantFilter,53657269-616c-4526-9573-6f6e616e7446,rev?*%
%TF.SameCoordinates,Original*%
%TF.FileFunction,Copper,L1,Top*%
%TF.FilePolarity,Positive*%
%FSLAX46Y46*%
G04 Gerber Fmt 4.6, Leading zero omitted, Abs format (unit mm)*
G04 Created by KiCad (PCBNEW (6.0.11)) date 2023-03-05 11:31:22*
%MOMM*%
%LPD*%
G01*
G04 APERTURE LIST*
G04 Aperture macros list*
%AMRotRect*
0 Rectangle, with rotation*
0 The origin of the aperture is its center*
0 $1 length*
0 $2 width*
0 $3 Rotation angle, in degrees counterclockwise*
0 Add horizontal line*
21,1,$1,$2,0,0,$3*%
G04 Aperture macros list end*
%TA.AperFunction,ComponentPad*%
%ADD10C,1.600000*%
%TD*%
%TA.AperFunction,SMDPad,CuDef*%
%ADD11R,1.524000X1.524000*%
%TD*%
%TA.AperFunction,SMDPad,CuDef*%
%ADD12RotRect,1.524000X1.524000X290.000000*%
%TD*%
%TA.AperFunction,ComponentPad*%
%ADD13C,2.400000*%
%TD*%
%TA.AperFunction,ComponentPad*%
%ADD14R,1.700000X1.700000*%
%TD*%
%TA.AperFunction,ComponentPad*%
%ADD15O,1.700000X1.700000*%
%TD*%
%TA.AperFunction,Conductor*%
%ADD16C,1.000000*%
%TD*%
G04 APERTURE END LIST*
D10*
%TO.P,C1,1*%
%TO.N,GND*%
X147940000Y-90330000D03*
D11*
X147940000Y-91730000D03*
D10*
%TO.P,C1,2*%
%TO.N,Net-(C1-Pad2)*%
X147940000Y-95330000D03*
D11*
X147940000Y-93930000D03*
%TD*%
D10*
%TO.P,C2,1*%
%TO.N,Net-(C2-Pad1)*%
X129400000Y-91360000D03*
D11*
X128000000Y-91360000D03*
D10*
%TO.P,C2,2*%
%TO.N,Net-(C2-Pad2)*%
X124400000Y-91360000D03*
D11*
X125800000Y-91360000D03*
%TD*%
D10*
%TO.P,C3,1*%
%TO.N,Net-(C2-Pad1)*%
X129420000Y-94720000D03*
D11*
X128020000Y-94720000D03*
D10*
%TO.P,C3,2*%
%TO.N,Net-(C2-Pad2)*%
X124420000Y-94720000D03*
D11*
X125820000Y-94720000D03*
%TD*%
D10*
%TO.P,C4,1*%
%TO.N,GND*%
X121670000Y-90460000D03*
D11*
X121670000Y-91860000D03*
D10*
%TO.P,C4,2*%
%TO.N,Net-(C2-Pad2)*%
X121670000Y-95460000D03*
D11*
X121670000Y-94060000D03*
%TD*%
D10*
%TO.P,C5,1*%
%TO.N,Net-(C2-Pad2)*%
X126200000Y-98180000D03*
D11*
X124800000Y-98180000D03*
D10*
%TO.P,C5,2*%
%TO.N,Net-(C5-Pad2)*%
X121200000Y-98180000D03*
D11*
X122600000Y-98180000D03*
%TD*%
D10*
%TO.P,C6,1*%
%TO.N,GND*%
X147701000Y-107442000D03*
D11*
X147701000Y-108842000D03*
D10*
%TO.P,C6,2*%
%TO.N,Net-(C5-Pad2)*%
X147701000Y-112442000D03*
D11*
X147701000Y-111042000D03*
%TD*%
D12*
%TO.P,C7,2*%
%TO.N,Net-(C5-Pad2)*%
X134327273Y-105236893D03*
D10*
X134806101Y-106552463D03*
D12*
%TO.P,C7,1*%
%TO.N,Net-(C2-Pad2)*%
X133574828Y-103169570D03*
D10*
X133096000Y-101854000D03*
%TD*%
D13*
%TO.P,L2,1*%
%TO.N,Net-(C1-Pad2)*%
X143868600Y-93639452D03*
%TO.P,L2,2*%
%TO.N,Net-(C2-Pad1)*%
X140114472Y-108152326D03*
%TD*%
%TO.P,L3,1*%
%TO.N,Net-(C2-Pad2)*%
X129720000Y-99739705D03*
%TO.P,L3,2*%
%TO.N,Net-(C5-Pad2)*%
X122337583Y-112786425D03*
%TD*%
D14*
%TO.P,J1,1,Pin_1*%
%TO.N,GND*%
X132588000Y-111760000D03*
D15*
%TO.P,J1,2,Pin_2*%
X135128000Y-111760000D03*
%TO.P,J1,3,Pin_3*%
%TO.N,Net-(C5-Pad2)*%
X137668000Y-111760000D03*
%TO.P,J1,4,Pin_4*%
X140208000Y-111760000D03*
%TD*%
D14*
%TO.P,J2,1,Pin_1*%
%TO.N,GND*%
X132588000Y-91440000D03*
D15*
%TO.P,J2,2,Pin_2*%
X135128000Y-91440000D03*
%TO.P,J2,3,Pin_3*%
%TO.N,Net-(C1-Pad2)*%
X137668000Y-91440000D03*
%TO.P,J2,4,Pin_4*%
X140208000Y-91440000D03*
%TD*%
D16*
%TO.N,Net-(C2-Pad2)*%
X122410000Y-94720000D02*
X121670000Y-95460000D01*
X124420000Y-94720000D02*
X122410000Y-94720000D01*
%TO.N,Net-(C1-Pad2)*%
X144876819Y-93596819D02*
X147940000Y-95330000D01*
X141960000Y-92190000D02*
X143868600Y-93068600D01*
X143868600Y-93068600D02*
X143868600Y-93639452D01*
X140208000Y-91440000D02*
X141960000Y-92190000D01*
X143657269Y-93572819D02*
X144876819Y-93596819D01*
X137668000Y-91440000D02*
X140208000Y-91440000D01*
%TO.N,Net-(C2-Pad2)*%
X124420000Y-95670000D02*
X126200000Y-98180000D01*
X127830000Y-98960000D02*
X129720000Y-99739705D01*
X132342295Y-101854000D02*
X129720000Y-99739705D01*
X124420000Y-91380000D02*
X124400000Y-91360000D01*
X124420000Y-94720000D02*
X124420000Y-95670000D01*
X126200000Y-98180000D02*
X127830000Y-98960000D01*
X124420000Y-94720000D02*
X124420000Y-94860000D01*
X133096000Y-101854000D02*
X132342295Y-101854000D01*
X124420000Y-94720000D02*
X124420000Y-91380000D01*
%TO.N,Net-(C2-Pad1)*%
X140114472Y-104554472D02*
X130280000Y-94720000D01*
X130280000Y-94720000D02*
X129420000Y-94720000D01*
X129400000Y-94700000D02*
X129420000Y-94720000D01*
X140114472Y-108152326D02*
X140114472Y-104554472D01*
X129400000Y-91360000D02*
X129400000Y-94700000D01*
%TO.N,Net-(C5-Pad2)*%
X147019000Y-111760000D02*
X147701000Y-112442000D01*
X121930000Y-112118842D02*
X122337583Y-112786425D01*
X121200000Y-111648842D02*
X122337583Y-112786425D01*
X134540000Y-106854000D02*
X137668000Y-110490000D01*
X137668000Y-110490000D02*
X137668000Y-111760000D01*
X133520000Y-107720000D02*
X131430000Y-109270000D01*
X131430000Y-109270000D02*
X122337583Y-112786425D01*
X134170000Y-107340000D02*
X133520000Y-107720000D01*
X137668000Y-111760000D02*
X140208000Y-111760000D01*
X134170000Y-107340000D02*
X134540000Y-106854000D01*
X121200000Y-98180000D02*
X121200000Y-111648842D01*
X140208000Y-111760000D02*
X147019000Y-111760000D01*
%TD*%
M02*
