%TF.GenerationSoftware,KiCad,Pcbnew,(6.0.11)*%
%TF.CreationDate,2023-03-05T01:47:04-06:00*%
%TF.ProjectId,SerialResonantFilter,53657269-616c-4526-9573-6f6e616e7446,rev?*%
%TF.SameCoordinates,Original*%
%TF.FileFunction,Copper,L2,Bot*%
%TF.FilePolarity,Positive*%
%FSLAX46Y46*%
G04 Gerber Fmt 4.6, Leading zero omitted, Abs format (unit mm)*
G04 Created by KiCad (PCBNEW (6.0.11)) date 2023-03-05 01:47:04*
%MOMM*%
%LPD*%
G01*
G04 APERTURE LIST*
%TA.AperFunction,ComponentPad*%
%ADD10C,1.600000*%
%TD*%
%TA.AperFunction,ComponentPad*%
%ADD11C,2.400000*%
%TD*%
%TA.AperFunction,ComponentPad*%
%ADD12R,1.700000X1.700000*%
%TD*%
%TA.AperFunction,ComponentPad*%
%ADD13O,1.700000X1.700000*%
%TD*%
G04 APERTURE END LIST*
D10*
%TO.P,C7,1*%
%TO.N,Net-(C2-Pad2)*%
X133096000Y-101854000D03*
%TO.P,C7,2*%
%TO.N,Net-(C5-Pad2)*%
X134806101Y-106552463D03*
%TD*%
%TO.P,C6,1*%
%TO.N,GND*%
X147701000Y-107442000D03*
%TO.P,C6,2*%
%TO.N,Net-(C5-Pad2)*%
X147701000Y-112442000D03*
%TD*%
%TO.P,C5,1*%
%TO.N,Net-(C2-Pad2)*%
X126200000Y-98180000D03*
%TO.P,C5,2*%
%TO.N,Net-(C5-Pad2)*%
X121200000Y-98180000D03*
%TD*%
%TO.P,C4,1*%
%TO.N,GND*%
X121580000Y-90450000D03*
%TO.P,C4,2*%
%TO.N,Net-(C2-Pad2)*%
X121580000Y-95450000D03*
%TD*%
%TO.P,C3,1*%
%TO.N,Net-(C2-Pad1)*%
X129420000Y-94720000D03*
%TO.P,C3,2*%
%TO.N,Net-(C2-Pad2)*%
X124420000Y-94720000D03*
%TD*%
%TO.P,C2,1*%
%TO.N,Net-(C2-Pad1)*%
X129400000Y-91360000D03*
%TO.P,C2,2*%
%TO.N,Net-(C2-Pad2)*%
X124400000Y-91360000D03*
%TD*%
%TO.P,C1,1*%
%TO.N,GND*%
X147940000Y-90330000D03*
%TO.P,C1,2*%
%TO.N,Net-(C1-Pad2)*%
X147940000Y-95330000D03*
%TD*%
D11*
%TO.P,L2,1*%
%TO.N,Net-(C1-Pad2)*%
X143868600Y-93639452D03*
%TO.P,L2,2*%
%TO.N,Net-(C2-Pad1)*%
X140114472Y-108152326D03*
%TD*%
%TO.P,L3,1*%
%TO.N,Net-(C2-Pad2)*%
X129720000Y-99739705D03*
%TO.P,L3,2*%
%TO.N,Net-(C5-Pad2)*%
X122337583Y-112786425D03*
%TD*%
D12*
%TO.P,J1,1,Pin_1*%
%TO.N,GND*%
X132588000Y-111760000D03*
D13*
%TO.P,J1,2,Pin_2*%
X135128000Y-111760000D03*
%TO.P,J1,3,Pin_3*%
%TO.N,Net-(C5-Pad2)*%
X137668000Y-111760000D03*
%TO.P,J1,4,Pin_4*%
X140208000Y-111760000D03*
%TD*%
D12*
%TO.P,J2,1,Pin_1*%
%TO.N,GND*%
X132588000Y-91440000D03*
D13*
%TO.P,J2,2,Pin_2*%
X135128000Y-91440000D03*
%TO.P,J2,3,Pin_3*%
%TO.N,Net-(C1-Pad2)*%
X137668000Y-91440000D03*
%TO.P,J2,4,Pin_4*%
X140208000Y-91440000D03*
%TD*%
%TA.AperFunction,Conductor*%
%TO.N,GND*%
G36*
X146634651Y-89419454D02*
G01*
X146715433Y-89473430D01*
X146769409Y-89554212D01*
X146788363Y-89649500D01*
X146769409Y-89744788D01*
X146765033Y-89754732D01*
X146710783Y-89871072D01*
X146703375Y-89891424D01*
X146649763Y-90091507D01*
X146646004Y-90112824D01*
X146627951Y-90319173D01*
X146627952Y-90340833D01*
X146639478Y-90472582D01*
X146644859Y-90491043D01*
X146655085Y-90483545D01*
X146808629Y-90330000D01*
X147665198Y-89473431D01*
X147745979Y-89419454D01*
X147841268Y-89400500D01*
X148038731Y-89400500D01*
X148134019Y-89419454D01*
X148214801Y-89473430D01*
X149071371Y-90330000D01*
X149221044Y-90479674D01*
X149248834Y-90498242D01*
X149317534Y-90566940D01*
X149354715Y-90656700D01*
X149359500Y-90705280D01*
X149359500Y-94309174D01*
X149340546Y-94404462D01*
X149286570Y-94485244D01*
X149205788Y-94539220D01*
X149110500Y-94558174D01*
X149015212Y-94539220D01*
X148934430Y-94485244D01*
X148779139Y-94329953D01*
X148592734Y-94199432D01*
X148386496Y-94103261D01*
X148166692Y-94044365D01*
X148155864Y-94043418D01*
X148155860Y-94043417D01*
X147950836Y-94025480D01*
X147940000Y-94024532D01*
X147929164Y-94025480D01*
X147724140Y-94043417D01*
X147724136Y-94043418D01*
X147713308Y-94044365D01*
X147493504Y-94103261D01*
X147287266Y-94199432D01*
X147100861Y-94329953D01*
X146939953Y-94490861D01*
X146809432Y-94677266D01*
X146713261Y-94883504D01*
X146654365Y-95103308D01*
X146653418Y-95114136D01*
X146653417Y-95114140D01*
X146645618Y-95203285D01*
X146634532Y-95330000D01*
X146635480Y-95340836D01*
X146645031Y-95450000D01*
X146654365Y-95556692D01*
X146713261Y-95776496D01*
X146809432Y-95982734D01*
X146939953Y-96169139D01*
X147100861Y-96330047D01*
X147287266Y-96460568D01*
X147493504Y-96556739D01*
X147713308Y-96615635D01*
X147724136Y-96616582D01*
X147724140Y-96616583D01*
X147929164Y-96634520D01*
X147940000Y-96635468D01*
X147950836Y-96634520D01*
X148155860Y-96616583D01*
X148155864Y-96616582D01*
X148166692Y-96615635D01*
X148386496Y-96556739D01*
X148592734Y-96460568D01*
X148779139Y-96330047D01*
X148934430Y-96174756D01*
X149015212Y-96120780D01*
X149110500Y-96101826D01*
X149205788Y-96120780D01*
X149286570Y-96174756D01*
X149340546Y-96255538D01*
X149359500Y-96350826D01*
X149359500Y-107057392D01*
X149340546Y-107152680D01*
X149286570Y-107233462D01*
X149205788Y-107287438D01*
X149110500Y-107306392D01*
X149015212Y-107287438D01*
X148999544Y-107279923D01*
X148996237Y-107280887D01*
X148985915Y-107288455D01*
X148849714Y-107424657D01*
X148838125Y-107442001D01*
X148849711Y-107459340D01*
X148982041Y-107591671D01*
X149000394Y-107603934D01*
X149027427Y-107598557D01*
X149061929Y-107584267D01*
X149159084Y-107584270D01*
X149248842Y-107621452D01*
X149317540Y-107690152D01*
X149354717Y-107779913D01*
X149359500Y-107828484D01*
X149359500Y-111798253D01*
X149340546Y-111893541D01*
X149286570Y-111974323D01*
X149205788Y-112028299D01*
X149110500Y-112047253D01*
X149015212Y-112028299D01*
X148934430Y-111974323D01*
X148884830Y-111903485D01*
X148836166Y-111799126D01*
X148836164Y-111799122D01*
X148831568Y-111789266D01*
X148701047Y-111602861D01*
X148540139Y-111441953D01*
X148353734Y-111311432D01*
X148147496Y-111215261D01*
X148110426Y-111205328D01*
X147938190Y-111159178D01*
X147938191Y-111159178D01*
X147927692Y-111156365D01*
X147916864Y-111155418D01*
X147916860Y-111155417D01*
X147711836Y-111137480D01*
X147701000Y-111136532D01*
X147690164Y-111137480D01*
X147485140Y-111155417D01*
X147485136Y-111155418D01*
X147474308Y-111156365D01*
X147463809Y-111159178D01*
X147463810Y-111159178D01*
X147291575Y-111205328D01*
X147254504Y-111215261D01*
X147048266Y-111311432D01*
X146861861Y-111441953D01*
X146700953Y-111602861D01*
X146570432Y-111789266D01*
X146474261Y-111995504D01*
X146415365Y-112215308D01*
X146414418Y-112226136D01*
X146414417Y-112226140D01*
X146396759Y-112427973D01*
X146395532Y-112442000D01*
X146396480Y-112452836D01*
X146409181Y-112598005D01*
X146415365Y-112668692D01*
X146418178Y-112679190D01*
X146465678Y-112856462D01*
X146474261Y-112888496D01*
X146570432Y-113094734D01*
X146576670Y-113103642D01*
X146576670Y-113103643D01*
X146583178Y-113112938D01*
X146700953Y-113281139D01*
X146861861Y-113442047D01*
X147048266Y-113572568D01*
X147254504Y-113668739D01*
X147474308Y-113727635D01*
X147485136Y-113728582D01*
X147485140Y-113728583D01*
X147690164Y-113746520D01*
X147701000Y-113747468D01*
X147711836Y-113746520D01*
X147916860Y-113728583D01*
X147916864Y-113728582D01*
X147927692Y-113727635D01*
X148147496Y-113668739D01*
X148353734Y-113572568D01*
X148540139Y-113442047D01*
X148701047Y-113281139D01*
X148818822Y-113112938D01*
X148825330Y-113103643D01*
X148825330Y-113103642D01*
X148831568Y-113094734D01*
X148836166Y-113084874D01*
X148884830Y-112980515D01*
X148942278Y-112902165D01*
X149025338Y-112851763D01*
X149121362Y-112836984D01*
X149215732Y-112860077D01*
X149294082Y-112917525D01*
X149344484Y-113000585D01*
X149359500Y-113085747D01*
X149359500Y-114058500D01*
X149340546Y-114153788D01*
X149286570Y-114234570D01*
X149205788Y-114288546D01*
X149110500Y-114307500D01*
X123815081Y-114307500D01*
X123719793Y-114288546D01*
X123639011Y-114234570D01*
X123585035Y-114153788D01*
X123566081Y-114058500D01*
X123585035Y-113963212D01*
X123627874Y-113894322D01*
X123693379Y-113819629D01*
X123693387Y-113819619D01*
X123699471Y-113812681D01*
X123836202Y-113600109D01*
X123848609Y-113572568D01*
X123936218Y-113378081D01*
X123940011Y-113369661D01*
X124008617Y-113126401D01*
X124010204Y-113113931D01*
X124020969Y-113029309D01*
X124040514Y-112875672D01*
X124042162Y-112812740D01*
X124042688Y-112792665D01*
X124042688Y-112792657D01*
X124042851Y-112786425D01*
X124032813Y-112651346D01*
X131230001Y-112651346D01*
X131230729Y-112664792D01*
X131235062Y-112704685D01*
X131242228Y-112734826D01*
X131281600Y-112839850D01*
X131298469Y-112870660D01*
X131364453Y-112958703D01*
X131389297Y-112983547D01*
X131477340Y-113049531D01*
X131508150Y-113066400D01*
X131613178Y-113105773D01*
X131643309Y-113112938D01*
X131683214Y-113117273D01*
X131696650Y-113118000D01*
X131713473Y-113118000D01*
X131733931Y-113113931D01*
X131738000Y-113093473D01*
X131738000Y-113093472D01*
X133438000Y-113093472D01*
X133442069Y-113113930D01*
X133462527Y-113117999D01*
X133479346Y-113117999D01*
X133492792Y-113117271D01*
X133532685Y-113112938D01*
X133562826Y-113105772D01*
X133667850Y-113066400D01*
X133698660Y-113049531D01*
X133786703Y-112983547D01*
X133811547Y-112958703D01*
X133888172Y-112856462D01*
X133889145Y-112857192D01*
X133939286Y-112797329D01*
X134025424Y-112752391D01*
X134122202Y-112743838D01*
X134214886Y-112772971D01*
X134254369Y-112799804D01*
X134259130Y-112803757D01*
X134276073Y-112812937D01*
X134276179Y-112812740D01*
X134278000Y-112800702D01*
X134278000Y-112797329D01*
X135978000Y-112797329D01*
X135981760Y-112816231D01*
X135986578Y-112815273D01*
X135989511Y-112813647D01*
X135999217Y-112806724D01*
X136014773Y-112793579D01*
X136158477Y-112650374D01*
X136171672Y-112634870D01*
X136199943Y-112595526D01*
X136270940Y-112529204D01*
X136361912Y-112495100D01*
X136459011Y-112498406D01*
X136547454Y-112538617D01*
X136606121Y-112598005D01*
X136629505Y-112631401D01*
X136796599Y-112798495D01*
X136805497Y-112804725D01*
X136805500Y-112804728D01*
X136939205Y-112898349D01*
X136990170Y-112934035D01*
X137000015Y-112938626D01*
X137000017Y-112938627D01*
X137076945Y-112974499D01*
X137204337Y-113033903D01*
X137214835Y-113036716D01*
X137214838Y-113036717D01*
X137262662Y-113049531D01*
X137432592Y-113095063D01*
X137443425Y-113096011D01*
X137443426Y-113096011D01*
X137555005Y-113105773D01*
X137648250Y-113113931D01*
X137657165Y-113114711D01*
X137668000Y-113115659D01*
X137678835Y-113114711D01*
X137687751Y-113113931D01*
X137780995Y-113105773D01*
X137892574Y-113096011D01*
X137892575Y-113096011D01*
X137903408Y-113095063D01*
X138073338Y-113049531D01*
X138121162Y-113036717D01*
X138121165Y-113036716D01*
X138131663Y-113033903D01*
X138259055Y-112974499D01*
X138335983Y-112938627D01*
X138335985Y-112938626D01*
X138345830Y-112934035D01*
X138396795Y-112898349D01*
X138530500Y-112804728D01*
X138530503Y-112804725D01*
X138539401Y-112798495D01*
X138706495Y-112631401D01*
X138734032Y-112592074D01*
X138804211Y-112524891D01*
X138894760Y-112489678D01*
X138991892Y-112491797D01*
X139080819Y-112530925D01*
X139141968Y-112592074D01*
X139169505Y-112631401D01*
X139336599Y-112798495D01*
X139345497Y-112804725D01*
X139345500Y-112804728D01*
X139479205Y-112898349D01*
X139530170Y-112934035D01*
X139540015Y-112938626D01*
X139540017Y-112938627D01*
X139616945Y-112974499D01*
X139744337Y-113033903D01*
X139754835Y-113036716D01*
X139754838Y-113036717D01*
X139802662Y-113049531D01*
X139972592Y-113095063D01*
X139983425Y-113096011D01*
X139983426Y-113096011D01*
X140095005Y-113105773D01*
X140188250Y-113113931D01*
X140197165Y-113114711D01*
X140208000Y-113115659D01*
X140218835Y-113114711D01*
X140227751Y-113113931D01*
X140320995Y-113105773D01*
X140432574Y-113096011D01*
X140432575Y-113096011D01*
X140443408Y-113095063D01*
X140613338Y-113049531D01*
X140661162Y-113036717D01*
X140661165Y-113036716D01*
X140671663Y-113033903D01*
X140799055Y-112974499D01*
X140875983Y-112938627D01*
X140875985Y-112938626D01*
X140885830Y-112934035D01*
X140936795Y-112898349D01*
X141070500Y-112804728D01*
X141070503Y-112804725D01*
X141079401Y-112798495D01*
X141246495Y-112631401D01*
X141382035Y-112437829D01*
X141447768Y-112296865D01*
X141477307Y-112233520D01*
X141477309Y-112233516D01*
X141481903Y-112223663D01*
X141543063Y-111995408D01*
X141563659Y-111760000D01*
X141543063Y-111524592D01*
X141481903Y-111296337D01*
X141444097Y-111215261D01*
X141386631Y-111092027D01*
X141382035Y-111082171D01*
X141246495Y-110888599D01*
X141079401Y-110721505D01*
X141070503Y-110715275D01*
X141070500Y-110715272D01*
X140894729Y-110592196D01*
X140894728Y-110592195D01*
X140885830Y-110585965D01*
X140875985Y-110581374D01*
X140875983Y-110581373D01*
X140779651Y-110536453D01*
X140671663Y-110486097D01*
X140661165Y-110483284D01*
X140661162Y-110483283D01*
X140550381Y-110453600D01*
X140443408Y-110424937D01*
X140432575Y-110423989D01*
X140432574Y-110423989D01*
X140227762Y-110406070D01*
X140208000Y-110404341D01*
X140188238Y-110406070D01*
X139983426Y-110423989D01*
X139983425Y-110423989D01*
X139972592Y-110424937D01*
X139744337Y-110486097D01*
X139734484Y-110490691D01*
X139734480Y-110490693D01*
X139636349Y-110536453D01*
X139530171Y-110585965D01*
X139336599Y-110721505D01*
X139169505Y-110888599D01*
X139141968Y-110927926D01*
X139071789Y-110995109D01*
X138981240Y-111030322D01*
X138884108Y-111028203D01*
X138795181Y-110989075D01*
X138734032Y-110927926D01*
X138706495Y-110888599D01*
X138539401Y-110721505D01*
X138530503Y-110715275D01*
X138530500Y-110715272D01*
X138354729Y-110592196D01*
X138354728Y-110592195D01*
X138345830Y-110585965D01*
X138335985Y-110581374D01*
X138335983Y-110581373D01*
X138239651Y-110536453D01*
X138131663Y-110486097D01*
X138121165Y-110483284D01*
X138121162Y-110483283D01*
X138010381Y-110453600D01*
X137903408Y-110424937D01*
X137892575Y-110423989D01*
X137892574Y-110423989D01*
X137687762Y-110406070D01*
X137668000Y-110404341D01*
X137648238Y-110406070D01*
X137443426Y-110423989D01*
X137443425Y-110423989D01*
X137432592Y-110424937D01*
X137204337Y-110486097D01*
X137194484Y-110490691D01*
X137194480Y-110490693D01*
X137096349Y-110536453D01*
X136990171Y-110585965D01*
X136796599Y-110721505D01*
X136629505Y-110888599D01*
X136623270Y-110897504D01*
X136623268Y-110897506D01*
X136618698Y-110904033D01*
X136607849Y-110919527D01*
X136537671Y-110986710D01*
X136447122Y-111021924D01*
X136349990Y-111019807D01*
X136261063Y-110980679D01*
X136206603Y-110928638D01*
X136200741Y-110921027D01*
X136064209Y-110770980D01*
X136049305Y-110757082D01*
X135997246Y-110715968D01*
X135980085Y-110707206D01*
X135979271Y-110708800D01*
X135978000Y-110717961D01*
X135978000Y-112797329D01*
X134278000Y-112797329D01*
X134278000Y-112634527D01*
X134273931Y-112614069D01*
X134253473Y-112610000D01*
X134092079Y-112610000D01*
X134055354Y-112617305D01*
X133958201Y-112617305D01*
X133921475Y-112610000D01*
X133462527Y-112610000D01*
X133442069Y-112614069D01*
X133438000Y-112634527D01*
X133438000Y-113093472D01*
X131738000Y-113093472D01*
X131738000Y-112634527D01*
X131733931Y-112614069D01*
X131713473Y-112610000D01*
X131254528Y-112610000D01*
X131234070Y-112614069D01*
X131230001Y-112634527D01*
X131230001Y-112651346D01*
X124032813Y-112651346D01*
X124031902Y-112639087D01*
X124024805Y-112543587D01*
X124024805Y-112543586D01*
X124024120Y-112534370D01*
X123968339Y-112287853D01*
X123876733Y-112052288D01*
X123751314Y-111832851D01*
X123745602Y-111825605D01*
X123745597Y-111825598D01*
X123600554Y-111641613D01*
X123600550Y-111641609D01*
X123594838Y-111634363D01*
X123410743Y-111461183D01*
X123403164Y-111455925D01*
X123403160Y-111455922D01*
X123210666Y-111322384D01*
X123210664Y-111322383D01*
X123203072Y-111317116D01*
X123194783Y-111313028D01*
X123194779Y-111313026D01*
X122984674Y-111209414D01*
X122984672Y-111209413D01*
X122976388Y-111205328D01*
X122832215Y-111159178D01*
X122744469Y-111131090D01*
X122744462Y-111131088D01*
X122735670Y-111128274D01*
X122613719Y-111108413D01*
X122495322Y-111089130D01*
X122495316Y-111089129D01*
X122486207Y-111087646D01*
X122476977Y-111087525D01*
X122476975Y-111087525D01*
X122303284Y-111085252D01*
X122233479Y-111084338D01*
X122224324Y-111085584D01*
X122224323Y-111085584D01*
X121992190Y-111117175D01*
X121992184Y-111117176D01*
X121983038Y-111118421D01*
X121740386Y-111189148D01*
X121732007Y-111193011D01*
X121732001Y-111193013D01*
X121519243Y-111291096D01*
X121510853Y-111294964D01*
X121299482Y-111433545D01*
X121292593Y-111439694D01*
X121292590Y-111439696D01*
X121118470Y-111595104D01*
X121110916Y-111601846D01*
X120949298Y-111796171D01*
X120927040Y-111832851D01*
X120822967Y-112004357D01*
X120822964Y-112004363D01*
X120818178Y-112012250D01*
X120814609Y-112020761D01*
X120814607Y-112020765D01*
X120726015Y-112232033D01*
X120720437Y-112245336D01*
X120658222Y-112490308D01*
X120632899Y-112741786D01*
X120636307Y-112812740D01*
X120643319Y-112958703D01*
X120645026Y-112994245D01*
X120694335Y-113242138D01*
X120697456Y-113250830D01*
X120697456Y-113250831D01*
X120768349Y-113448284D01*
X120779743Y-113480020D01*
X120784115Y-113488157D01*
X120784117Y-113488161D01*
X120881146Y-113668739D01*
X120899375Y-113702665D01*
X120904902Y-113710067D01*
X120904903Y-113710068D01*
X121050601Y-113905181D01*
X121049143Y-113906270D01*
X121090993Y-113979498D01*
X121103251Y-114075877D01*
X121077693Y-114169610D01*
X121018211Y-114246428D01*
X120933860Y-114294635D01*
X120854858Y-114307500D01*
X120129500Y-114307500D01*
X120034212Y-114288546D01*
X119953430Y-114234570D01*
X119899454Y-114153788D01*
X119880500Y-114058500D01*
X119880500Y-110885473D01*
X131230000Y-110885473D01*
X131234069Y-110905931D01*
X131254527Y-110910000D01*
X131713473Y-110910000D01*
X131733931Y-110905931D01*
X131738000Y-110885473D01*
X133438000Y-110885473D01*
X133442069Y-110905931D01*
X133462527Y-110910000D01*
X133921476Y-110910000D01*
X133951469Y-110904034D01*
X134048624Y-110904033D01*
X134063551Y-110908640D01*
X134076709Y-110910000D01*
X134253473Y-110910000D01*
X134273931Y-110905931D01*
X134278000Y-110885473D01*
X134278000Y-110724465D01*
X134274240Y-110705565D01*
X134270952Y-110706219D01*
X134265472Y-110709345D01*
X134243698Y-110725693D01*
X134156117Y-110767749D01*
X134059109Y-110773088D01*
X133967442Y-110740897D01*
X133895072Y-110676077D01*
X133879745Y-110652293D01*
X133811547Y-110561297D01*
X133786703Y-110536453D01*
X133698660Y-110470469D01*
X133667850Y-110453600D01*
X133562822Y-110414227D01*
X133532691Y-110407062D01*
X133492786Y-110402727D01*
X133479350Y-110402000D01*
X133462527Y-110402000D01*
X133442069Y-110406069D01*
X133438000Y-110426527D01*
X133438000Y-110885473D01*
X131738000Y-110885473D01*
X131738000Y-110426528D01*
X131733931Y-110406070D01*
X131713473Y-110402001D01*
X131696654Y-110402001D01*
X131683208Y-110402729D01*
X131643315Y-110407062D01*
X131613174Y-110414228D01*
X131508150Y-110453600D01*
X131477340Y-110470469D01*
X131389297Y-110536453D01*
X131364453Y-110561297D01*
X131298469Y-110649340D01*
X131281600Y-110680150D01*
X131242227Y-110785178D01*
X131235062Y-110815309D01*
X131230727Y-110855214D01*
X131230000Y-110868650D01*
X131230000Y-110885473D01*
X119880500Y-110885473D01*
X119880500Y-108107687D01*
X138409788Y-108107687D01*
X138421915Y-108360146D01*
X138471224Y-108608039D01*
X138474345Y-108616731D01*
X138474345Y-108616732D01*
X138513905Y-108726915D01*
X138556632Y-108845921D01*
X138561004Y-108854058D01*
X138561006Y-108854062D01*
X138625330Y-108973773D01*
X138676264Y-109068566D01*
X138827490Y-109271082D01*
X139006989Y-109449022D01*
X139014441Y-109454486D01*
X139111901Y-109525946D01*
X139210818Y-109598475D01*
X139218982Y-109602771D01*
X139218988Y-109602774D01*
X139327864Y-109660056D01*
X139434498Y-109716159D01*
X139673116Y-109799488D01*
X139921430Y-109846632D01*
X139930652Y-109846994D01*
X139930658Y-109846995D01*
X140047707Y-109851593D01*
X140173985Y-109856555D01*
X140183160Y-109855550D01*
X140183165Y-109855550D01*
X140416049Y-109830045D01*
X140416053Y-109830044D01*
X140425232Y-109829039D01*
X140669653Y-109764689D01*
X140901877Y-109664917D01*
X140909729Y-109660058D01*
X140909733Y-109660056D01*
X141108944Y-109536780D01*
X141116803Y-109531917D01*
X141309710Y-109368609D01*
X141395240Y-109271082D01*
X141470274Y-109185522D01*
X141470275Y-109185520D01*
X141476360Y-109178582D01*
X141613091Y-108966010D01*
X141715338Y-108739030D01*
X147540646Y-108739030D01*
X147552968Y-108742045D01*
X147690164Y-108754048D01*
X147711836Y-108754048D01*
X147843582Y-108742522D01*
X147862043Y-108737141D01*
X147854545Y-108726915D01*
X147718343Y-108590714D01*
X147700999Y-108579125D01*
X147683660Y-108590711D01*
X147551329Y-108723041D01*
X147540646Y-108739030D01*
X141715338Y-108739030D01*
X141716900Y-108735562D01*
X141785506Y-108492302D01*
X141817403Y-108241573D01*
X141819740Y-108152326D01*
X141801009Y-107900271D01*
X141745228Y-107653754D01*
X141669625Y-107459340D01*
X141667096Y-107452836D01*
X146388952Y-107452836D01*
X146400478Y-107584582D01*
X146405859Y-107603043D01*
X146416085Y-107595545D01*
X146552286Y-107459343D01*
X146563875Y-107441999D01*
X146552289Y-107424660D01*
X146419959Y-107292329D01*
X146403970Y-107281646D01*
X146400955Y-107293968D01*
X146388952Y-107431164D01*
X146388952Y-107452836D01*
X141667096Y-107452836D01*
X141656974Y-107426808D01*
X141656973Y-107426805D01*
X141653622Y-107418189D01*
X141528203Y-107198752D01*
X141522491Y-107191506D01*
X141522486Y-107191499D01*
X141377443Y-107007514D01*
X141377439Y-107007510D01*
X141371727Y-107000264D01*
X141187632Y-106827084D01*
X141180053Y-106821826D01*
X141180049Y-106821823D01*
X140987555Y-106688285D01*
X140987553Y-106688284D01*
X140979961Y-106683017D01*
X140971672Y-106678929D01*
X140971668Y-106678927D01*
X140761563Y-106575315D01*
X140761561Y-106575314D01*
X140753277Y-106571229D01*
X140660800Y-106541627D01*
X140521358Y-106496991D01*
X140521351Y-106496989D01*
X140512559Y-106494175D01*
X140390608Y-106474314D01*
X140272211Y-106455031D01*
X140272205Y-106455030D01*
X140263096Y-106453547D01*
X140253866Y-106453426D01*
X140253864Y-106453426D01*
X140080173Y-106451153D01*
X140010368Y-106450239D01*
X140001213Y-106451485D01*
X140001212Y-106451485D01*
X139769079Y-106483076D01*
X139769073Y-106483077D01*
X139759927Y-106484322D01*
X139517275Y-106555049D01*
X139508896Y-106558912D01*
X139508890Y-106558914D01*
X139296132Y-106656997D01*
X139287742Y-106660865D01*
X139280014Y-106665932D01*
X139091308Y-106789653D01*
X139076371Y-106799446D01*
X139069482Y-106805595D01*
X139069479Y-106805597D01*
X139045405Y-106827084D01*
X138887805Y-106967747D01*
X138726187Y-107162072D01*
X138671498Y-107252196D01*
X138599856Y-107370258D01*
X138599853Y-107370264D01*
X138595067Y-107378151D01*
X138591498Y-107386662D01*
X138591496Y-107386666D01*
X138561020Y-107459343D01*
X138497326Y-107611237D01*
X138435111Y-107856209D01*
X138409788Y-108107687D01*
X119880500Y-108107687D01*
X119880500Y-106552463D01*
X133500633Y-106552463D01*
X133501581Y-106563299D01*
X133509779Y-106656997D01*
X133520466Y-106779155D01*
X133579362Y-106998959D01*
X133675533Y-107205197D01*
X133806054Y-107391602D01*
X133966962Y-107552510D01*
X134153367Y-107683031D01*
X134359605Y-107779202D01*
X134579409Y-107838098D01*
X134590237Y-107839045D01*
X134590241Y-107839046D01*
X134795265Y-107856983D01*
X134806101Y-107857931D01*
X134816937Y-107856983D01*
X135021961Y-107839046D01*
X135021965Y-107839045D01*
X135032793Y-107838098D01*
X135252597Y-107779202D01*
X135458835Y-107683031D01*
X135645240Y-107552510D01*
X135806148Y-107391602D01*
X135936669Y-107205197D01*
X136032840Y-106998959D01*
X136091736Y-106779155D01*
X136102424Y-106656997D01*
X136110621Y-106563299D01*
X136111569Y-106552463D01*
X136106716Y-106496991D01*
X136092684Y-106336603D01*
X136092683Y-106336599D01*
X136091736Y-106325771D01*
X136043797Y-106146859D01*
X147539957Y-106146859D01*
X147547455Y-106157085D01*
X147683657Y-106293286D01*
X147701001Y-106304875D01*
X147718340Y-106293289D01*
X147850671Y-106160959D01*
X147861354Y-106144970D01*
X147849032Y-106141955D01*
X147711836Y-106129952D01*
X147690164Y-106129952D01*
X147558418Y-106141478D01*
X147539957Y-106146859D01*
X136043797Y-106146859D01*
X136032840Y-106105967D01*
X135936669Y-105899729D01*
X135806148Y-105713324D01*
X135645240Y-105552416D01*
X135458835Y-105421895D01*
X135252597Y-105325724D01*
X135032793Y-105266828D01*
X135021965Y-105265881D01*
X135021961Y-105265880D01*
X134816937Y-105247943D01*
X134806101Y-105246995D01*
X134795265Y-105247943D01*
X134590241Y-105265880D01*
X134590237Y-105265881D01*
X134579409Y-105266828D01*
X134359605Y-105325724D01*
X134153367Y-105421895D01*
X133966962Y-105552416D01*
X133806054Y-105713324D01*
X133675533Y-105899729D01*
X133579362Y-106105967D01*
X133520466Y-106325771D01*
X133519519Y-106336599D01*
X133519518Y-106336603D01*
X133505486Y-106496991D01*
X133500633Y-106552463D01*
X119880500Y-106552463D01*
X119880500Y-101854000D01*
X131790532Y-101854000D01*
X131810365Y-102080692D01*
X131869261Y-102300496D01*
X131965432Y-102506734D01*
X132095953Y-102693139D01*
X132256861Y-102854047D01*
X132443266Y-102984568D01*
X132649504Y-103080739D01*
X132869308Y-103139635D01*
X132880136Y-103140582D01*
X132880140Y-103140583D01*
X133085164Y-103158520D01*
X133096000Y-103159468D01*
X133106836Y-103158520D01*
X133311860Y-103140583D01*
X133311864Y-103140582D01*
X133322692Y-103139635D01*
X133542496Y-103080739D01*
X133748734Y-102984568D01*
X133935139Y-102854047D01*
X134096047Y-102693139D01*
X134226568Y-102506734D01*
X134322739Y-102300496D01*
X134381635Y-102080692D01*
X134401468Y-101854000D01*
X134381635Y-101627308D01*
X134329939Y-101434374D01*
X134325552Y-101418002D01*
X134325552Y-101418001D01*
X134322739Y-101407504D01*
X134226568Y-101201266D01*
X134215777Y-101185854D01*
X134197842Y-101160240D01*
X134096047Y-101014861D01*
X133935139Y-100853953D01*
X133748734Y-100723432D01*
X133542496Y-100627261D01*
X133322692Y-100568365D01*
X133311864Y-100567418D01*
X133311860Y-100567417D01*
X133106836Y-100549480D01*
X133096000Y-100548532D01*
X133085164Y-100549480D01*
X132880140Y-100567417D01*
X132880136Y-100567418D01*
X132869308Y-100568365D01*
X132649504Y-100627261D01*
X132443266Y-100723432D01*
X132256861Y-100853953D01*
X132095953Y-101014861D01*
X131994158Y-101160240D01*
X131976224Y-101185854D01*
X131965432Y-101201266D01*
X131869261Y-101407504D01*
X131866448Y-101418001D01*
X131866448Y-101418002D01*
X131862061Y-101434374D01*
X131810365Y-101627308D01*
X131790532Y-101854000D01*
X119880500Y-101854000D01*
X119880500Y-99695066D01*
X128015316Y-99695066D01*
X128027443Y-99947525D01*
X128076752Y-100195418D01*
X128162160Y-100433300D01*
X128166532Y-100441437D01*
X128166534Y-100441441D01*
X128230858Y-100561152D01*
X128281792Y-100655945D01*
X128433018Y-100858461D01*
X128612517Y-101036401D01*
X128619969Y-101041865D01*
X128717429Y-101113325D01*
X128816346Y-101185854D01*
X128824510Y-101190150D01*
X128824516Y-101190153D01*
X128864372Y-101211122D01*
X129040026Y-101303538D01*
X129278644Y-101386867D01*
X129526958Y-101434011D01*
X129536180Y-101434373D01*
X129536186Y-101434374D01*
X129653236Y-101438973D01*
X129779513Y-101443934D01*
X129788688Y-101442929D01*
X129788693Y-101442929D01*
X130021577Y-101417424D01*
X130021581Y-101417423D01*
X130030760Y-101416418D01*
X130275181Y-101352068D01*
X130507405Y-101252296D01*
X130515257Y-101247437D01*
X130515261Y-101247435D01*
X130714472Y-101124159D01*
X130722331Y-101119296D01*
X130915238Y-100955988D01*
X131000768Y-100858461D01*
X131075802Y-100772901D01*
X131075803Y-100772899D01*
X131081888Y-100765961D01*
X131218619Y-100553389D01*
X131322428Y-100322941D01*
X131391034Y-100079681D01*
X131422931Y-99828952D01*
X131425268Y-99739705D01*
X131406537Y-99487650D01*
X131350756Y-99241133D01*
X131297537Y-99104281D01*
X131262502Y-99014187D01*
X131262501Y-99014184D01*
X131259150Y-99005568D01*
X131133731Y-98786131D01*
X131128019Y-98778885D01*
X131128014Y-98778878D01*
X130982971Y-98594893D01*
X130982967Y-98594889D01*
X130977255Y-98587643D01*
X130793160Y-98414463D01*
X130785581Y-98409205D01*
X130785577Y-98409202D01*
X130593083Y-98275664D01*
X130593081Y-98275663D01*
X130585489Y-98270396D01*
X130577200Y-98266308D01*
X130577196Y-98266306D01*
X130367091Y-98162694D01*
X130367089Y-98162693D01*
X130358805Y-98158608D01*
X130275178Y-98131839D01*
X130126886Y-98084370D01*
X130126879Y-98084368D01*
X130118087Y-98081554D01*
X129996136Y-98061693D01*
X129877739Y-98042410D01*
X129877733Y-98042409D01*
X129868624Y-98040926D01*
X129859394Y-98040805D01*
X129859392Y-98040805D01*
X129685701Y-98038532D01*
X129615896Y-98037618D01*
X129606741Y-98038864D01*
X129606740Y-98038864D01*
X129374607Y-98070455D01*
X129374601Y-98070456D01*
X129365455Y-98071701D01*
X129122803Y-98142428D01*
X129114424Y-98146291D01*
X129114418Y-98146293D01*
X128901660Y-98244376D01*
X128893270Y-98248244D01*
X128681899Y-98386825D01*
X128675010Y-98392974D01*
X128675007Y-98392976D01*
X128643845Y-98420789D01*
X128493333Y-98555126D01*
X128331715Y-98749451D01*
X128309457Y-98786131D01*
X128205384Y-98957637D01*
X128205381Y-98957643D01*
X128200595Y-98965530D01*
X128197026Y-98974041D01*
X128197024Y-98974045D01*
X128181850Y-99010231D01*
X128102854Y-99198616D01*
X128040639Y-99443588D01*
X128015316Y-99695066D01*
X119880500Y-99695066D01*
X119880500Y-99300826D01*
X119899454Y-99205538D01*
X119953430Y-99124756D01*
X120034212Y-99070780D01*
X120129500Y-99051826D01*
X120224788Y-99070780D01*
X120305570Y-99124756D01*
X120360861Y-99180047D01*
X120547266Y-99310568D01*
X120753504Y-99406739D01*
X120973308Y-99465635D01*
X120984136Y-99466582D01*
X120984140Y-99466583D01*
X121189164Y-99484520D01*
X121200000Y-99485468D01*
X121210836Y-99484520D01*
X121415860Y-99466583D01*
X121415864Y-99466582D01*
X121426692Y-99465635D01*
X121646496Y-99406739D01*
X121852734Y-99310568D01*
X122039139Y-99180047D01*
X122200047Y-99019139D01*
X122330568Y-98832734D01*
X122426739Y-98626496D01*
X122485635Y-98406692D01*
X122487817Y-98381758D01*
X122504520Y-98190836D01*
X122505468Y-98180000D01*
X124894532Y-98180000D01*
X124895480Y-98190836D01*
X124912184Y-98381758D01*
X124914365Y-98406692D01*
X124973261Y-98626496D01*
X125069432Y-98832734D01*
X125199953Y-99019139D01*
X125360861Y-99180047D01*
X125547266Y-99310568D01*
X125753504Y-99406739D01*
X125973308Y-99465635D01*
X125984136Y-99466582D01*
X125984140Y-99466583D01*
X126189164Y-99484520D01*
X126200000Y-99485468D01*
X126210836Y-99484520D01*
X126415860Y-99466583D01*
X126415864Y-99466582D01*
X126426692Y-99465635D01*
X126646496Y-99406739D01*
X126852734Y-99310568D01*
X127039139Y-99180047D01*
X127200047Y-99019139D01*
X127330568Y-98832734D01*
X127426739Y-98626496D01*
X127485635Y-98406692D01*
X127487817Y-98381758D01*
X127504520Y-98190836D01*
X127505468Y-98180000D01*
X127501955Y-98139844D01*
X127486583Y-97964140D01*
X127486582Y-97964136D01*
X127485635Y-97953308D01*
X127426739Y-97733504D01*
X127330568Y-97527266D01*
X127200047Y-97340861D01*
X127039139Y-97179953D01*
X126852734Y-97049432D01*
X126646496Y-96953261D01*
X126426692Y-96894365D01*
X126415864Y-96893418D01*
X126415860Y-96893417D01*
X126210836Y-96875480D01*
X126200000Y-96874532D01*
X126189164Y-96875480D01*
X125984140Y-96893417D01*
X125984136Y-96893418D01*
X125973308Y-96894365D01*
X125753504Y-96953261D01*
X125547266Y-97049432D01*
X125360861Y-97179953D01*
X125199953Y-97340861D01*
X125069432Y-97527266D01*
X124973261Y-97733504D01*
X124914365Y-97953308D01*
X124913418Y-97964136D01*
X124913417Y-97964140D01*
X124898045Y-98139844D01*
X124894532Y-98180000D01*
X122505468Y-98180000D01*
X122501955Y-98139844D01*
X122486583Y-97964140D01*
X122486582Y-97964136D01*
X122485635Y-97953308D01*
X122426739Y-97733504D01*
X122330568Y-97527266D01*
X122200047Y-97340861D01*
X122039139Y-97179953D01*
X121952821Y-97119513D01*
X121885637Y-97049331D01*
X121850425Y-96958782D01*
X121852544Y-96861650D01*
X121891673Y-96772723D01*
X121961855Y-96705539D01*
X122010477Y-96681561D01*
X122015994Y-96679553D01*
X122026496Y-96676739D01*
X122036349Y-96672145D01*
X122036353Y-96672143D01*
X122222878Y-96585164D01*
X122232734Y-96580568D01*
X122419139Y-96450047D01*
X122580047Y-96289139D01*
X122710568Y-96102734D01*
X122806739Y-95896496D01*
X122865635Y-95676692D01*
X122876720Y-95549991D01*
X122903906Y-95456717D01*
X122964718Y-95380948D01*
X123049896Y-95334217D01*
X123146474Y-95323641D01*
X123239748Y-95350827D01*
X123315517Y-95411639D01*
X123328734Y-95428863D01*
X123419953Y-95559139D01*
X123580861Y-95720047D01*
X123767266Y-95850568D01*
X123973504Y-95946739D01*
X124193308Y-96005635D01*
X124204136Y-96006582D01*
X124204140Y-96006583D01*
X124409164Y-96024520D01*
X124420000Y-96025468D01*
X124430836Y-96024520D01*
X124635860Y-96006583D01*
X124635864Y-96006582D01*
X124646692Y-96005635D01*
X124866496Y-95946739D01*
X125072734Y-95850568D01*
X125259139Y-95720047D01*
X125420047Y-95559139D01*
X125550568Y-95372734D01*
X125646739Y-95166496D01*
X125659239Y-95119847D01*
X125702822Y-94957190D01*
X125705635Y-94946692D01*
X125710230Y-94894177D01*
X125724520Y-94730836D01*
X125725468Y-94720000D01*
X128114532Y-94720000D01*
X128115480Y-94730836D01*
X128129771Y-94894177D01*
X128134365Y-94946692D01*
X128137178Y-94957190D01*
X128180762Y-95119847D01*
X128193261Y-95166496D01*
X128289432Y-95372734D01*
X128419953Y-95559139D01*
X128580861Y-95720047D01*
X128767266Y-95850568D01*
X128973504Y-95946739D01*
X129193308Y-96005635D01*
X129204136Y-96006582D01*
X129204140Y-96006583D01*
X129409164Y-96024520D01*
X129420000Y-96025468D01*
X129430836Y-96024520D01*
X129635860Y-96006583D01*
X129635864Y-96006582D01*
X129646692Y-96005635D01*
X129866496Y-95946739D01*
X130072734Y-95850568D01*
X130259139Y-95720047D01*
X130420047Y-95559139D01*
X130550568Y-95372734D01*
X130646739Y-95166496D01*
X130659239Y-95119847D01*
X130702822Y-94957190D01*
X130705635Y-94946692D01*
X130710230Y-94894177D01*
X130724520Y-94730836D01*
X130725468Y-94720000D01*
X130705635Y-94493308D01*
X130646739Y-94273504D01*
X130550568Y-94067266D01*
X130420047Y-93880861D01*
X130259139Y-93719953D01*
X130080419Y-93594813D01*
X142163916Y-93594813D01*
X142176043Y-93847272D01*
X142225352Y-94095165D01*
X142228473Y-94103857D01*
X142228473Y-94103858D01*
X142307410Y-94323716D01*
X142310760Y-94333047D01*
X142315132Y-94341184D01*
X142315134Y-94341188D01*
X142396872Y-94493308D01*
X142430392Y-94555692D01*
X142435919Y-94563094D01*
X142435920Y-94563095D01*
X142528536Y-94687122D01*
X142581618Y-94758208D01*
X142761117Y-94936148D01*
X142768569Y-94941612D01*
X142866029Y-95013072D01*
X142964946Y-95085601D01*
X142973110Y-95089897D01*
X142973116Y-95089900D01*
X143045839Y-95128161D01*
X143188626Y-95203285D01*
X143427244Y-95286614D01*
X143675558Y-95333758D01*
X143684780Y-95334120D01*
X143684786Y-95334121D01*
X143801836Y-95338720D01*
X143928113Y-95343681D01*
X143937288Y-95342676D01*
X143937293Y-95342676D01*
X144170177Y-95317171D01*
X144170181Y-95317170D01*
X144179360Y-95316165D01*
X144423781Y-95251815D01*
X144656005Y-95152043D01*
X144663857Y-95147184D01*
X144663861Y-95147182D01*
X144863072Y-95023906D01*
X144870931Y-95019043D01*
X145063838Y-94855735D01*
X145149368Y-94758208D01*
X145224402Y-94672648D01*
X145224403Y-94672646D01*
X145230488Y-94665708D01*
X145367219Y-94453136D01*
X145371463Y-94443716D01*
X145467235Y-94231108D01*
X145471028Y-94222688D01*
X145521320Y-94044365D01*
X145537124Y-93988329D01*
X145537125Y-93988325D01*
X145539634Y-93979428D01*
X145571531Y-93728699D01*
X145573868Y-93639452D01*
X145557224Y-93415480D01*
X145555822Y-93396614D01*
X145555822Y-93396613D01*
X145555137Y-93387397D01*
X145499356Y-93140880D01*
X145407750Y-92905315D01*
X145282331Y-92685878D01*
X145276619Y-92678632D01*
X145276614Y-92678625D01*
X145131571Y-92494640D01*
X145131567Y-92494636D01*
X145125855Y-92487390D01*
X144941760Y-92314210D01*
X144934181Y-92308952D01*
X144934177Y-92308949D01*
X144741683Y-92175411D01*
X144741681Y-92175410D01*
X144734089Y-92170143D01*
X144725800Y-92166055D01*
X144725796Y-92166053D01*
X144515691Y-92062441D01*
X144515689Y-92062440D01*
X144507405Y-92058355D01*
X144392716Y-92021643D01*
X144275486Y-91984117D01*
X144275479Y-91984115D01*
X144266687Y-91981301D01*
X144144736Y-91961440D01*
X144026339Y-91942157D01*
X144026333Y-91942156D01*
X144017224Y-91940673D01*
X144007994Y-91940552D01*
X144007992Y-91940552D01*
X143834301Y-91938279D01*
X143764496Y-91937365D01*
X143755341Y-91938611D01*
X143755340Y-91938611D01*
X143523207Y-91970202D01*
X143523201Y-91970203D01*
X143514055Y-91971448D01*
X143271403Y-92042175D01*
X143263024Y-92046038D01*
X143263018Y-92046040D01*
X143087971Y-92126738D01*
X143041870Y-92147991D01*
X142955083Y-92204891D01*
X142843566Y-92278005D01*
X142830499Y-92286572D01*
X142823610Y-92292721D01*
X142823607Y-92292723D01*
X142794069Y-92319087D01*
X142641933Y-92454873D01*
X142480315Y-92649198D01*
X142431568Y-92729531D01*
X142353984Y-92857384D01*
X142353981Y-92857390D01*
X142349195Y-92865277D01*
X142345626Y-92873788D01*
X142345624Y-92873792D01*
X142328791Y-92913934D01*
X142251454Y-93098363D01*
X142189239Y-93343335D01*
X142188313Y-93352535D01*
X142164921Y-93584836D01*
X142163916Y-93594813D01*
X130080419Y-93594813D01*
X130072734Y-93589432D01*
X129866496Y-93493261D01*
X129646692Y-93434365D01*
X129635864Y-93433418D01*
X129635860Y-93433417D01*
X129430836Y-93415480D01*
X129420000Y-93414532D01*
X129409164Y-93415480D01*
X129204140Y-93433417D01*
X129204136Y-93433418D01*
X129193308Y-93434365D01*
X128973504Y-93493261D01*
X128767266Y-93589432D01*
X128580861Y-93719953D01*
X128419953Y-93880861D01*
X128289432Y-94067266D01*
X128193261Y-94273504D01*
X128134365Y-94493308D01*
X128114532Y-94720000D01*
X125725468Y-94720000D01*
X125705635Y-94493308D01*
X125646739Y-94273504D01*
X125550568Y-94067266D01*
X125420047Y-93880861D01*
X125259139Y-93719953D01*
X125072734Y-93589432D01*
X124866496Y-93493261D01*
X124646692Y-93434365D01*
X124635864Y-93433418D01*
X124635860Y-93433417D01*
X124430836Y-93415480D01*
X124420000Y-93414532D01*
X124409164Y-93415480D01*
X124204140Y-93433417D01*
X124204136Y-93433418D01*
X124193308Y-93434365D01*
X123973504Y-93493261D01*
X123767266Y-93589432D01*
X123580861Y-93719953D01*
X123419953Y-93880861D01*
X123289432Y-94067266D01*
X123193261Y-94273504D01*
X123134365Y-94493308D01*
X123133418Y-94504136D01*
X123133417Y-94504140D01*
X123123280Y-94620009D01*
X123096094Y-94713283D01*
X123035282Y-94789052D01*
X122950104Y-94835783D01*
X122853526Y-94846359D01*
X122760252Y-94819173D01*
X122684483Y-94758361D01*
X122671266Y-94741137D01*
X122580047Y-94610861D01*
X122419139Y-94449953D01*
X122258737Y-94337639D01*
X122241643Y-94325670D01*
X122241642Y-94325670D01*
X122232734Y-94319432D01*
X122026496Y-94223261D01*
X121806692Y-94164365D01*
X121795864Y-94163418D01*
X121795860Y-94163417D01*
X121590836Y-94145480D01*
X121580000Y-94144532D01*
X121569164Y-94145480D01*
X121364140Y-94163417D01*
X121364136Y-94163418D01*
X121353308Y-94164365D01*
X121133504Y-94223261D01*
X120927266Y-94319432D01*
X120918358Y-94325670D01*
X120918357Y-94325670D01*
X120901263Y-94337639D01*
X120740861Y-94449953D01*
X120579953Y-94610861D01*
X120449432Y-94797266D01*
X120444836Y-94807122D01*
X120355170Y-94999410D01*
X120297721Y-95077760D01*
X120214662Y-95128161D01*
X120118638Y-95142940D01*
X120024267Y-95119847D01*
X119945917Y-95062398D01*
X119895516Y-94979339D01*
X119880500Y-94894177D01*
X119880500Y-91747030D01*
X121419645Y-91747030D01*
X121431964Y-91750044D01*
X121569164Y-91762048D01*
X121590836Y-91762048D01*
X121722582Y-91750522D01*
X121741043Y-91745141D01*
X121733545Y-91734915D01*
X121597341Y-91598711D01*
X121580000Y-91587124D01*
X121562659Y-91598711D01*
X121430327Y-91731043D01*
X121419645Y-91747030D01*
X119880500Y-91747030D01*
X119880500Y-91360000D01*
X123094532Y-91360000D01*
X123114365Y-91586692D01*
X123173261Y-91806496D01*
X123269432Y-92012734D01*
X123399953Y-92199139D01*
X123560861Y-92360047D01*
X123651965Y-92423838D01*
X123728359Y-92477329D01*
X123747266Y-92490568D01*
X123953504Y-92586739D01*
X124173308Y-92645635D01*
X124184136Y-92646582D01*
X124184140Y-92646583D01*
X124389164Y-92664520D01*
X124400000Y-92665468D01*
X124410836Y-92664520D01*
X124615860Y-92646583D01*
X124615864Y-92646582D01*
X124626692Y-92645635D01*
X124846496Y-92586739D01*
X125052734Y-92490568D01*
X125071642Y-92477329D01*
X125148035Y-92423838D01*
X125239139Y-92360047D01*
X125400047Y-92199139D01*
X125530568Y-92012734D01*
X125626739Y-91806496D01*
X125685635Y-91586692D01*
X125705468Y-91360000D01*
X128094532Y-91360000D01*
X128114365Y-91586692D01*
X128173261Y-91806496D01*
X128269432Y-92012734D01*
X128399953Y-92199139D01*
X128560861Y-92360047D01*
X128651965Y-92423838D01*
X128728359Y-92477329D01*
X128747266Y-92490568D01*
X128953504Y-92586739D01*
X129173308Y-92645635D01*
X129184136Y-92646582D01*
X129184140Y-92646583D01*
X129389164Y-92664520D01*
X129400000Y-92665468D01*
X129410836Y-92664520D01*
X129615860Y-92646583D01*
X129615864Y-92646582D01*
X129626692Y-92645635D01*
X129846496Y-92586739D01*
X130052734Y-92490568D01*
X130071642Y-92477329D01*
X130148035Y-92423838D01*
X130239139Y-92360047D01*
X130267840Y-92331346D01*
X131230001Y-92331346D01*
X131230729Y-92344792D01*
X131235062Y-92384685D01*
X131242228Y-92414826D01*
X131281600Y-92519850D01*
X131298469Y-92550660D01*
X131364453Y-92638703D01*
X131389297Y-92663547D01*
X131477340Y-92729531D01*
X131508150Y-92746400D01*
X131613178Y-92785773D01*
X131643309Y-92792938D01*
X131683214Y-92797273D01*
X131696650Y-92798000D01*
X131713473Y-92798000D01*
X131733931Y-92793931D01*
X131738000Y-92773473D01*
X131738000Y-92773472D01*
X133438000Y-92773472D01*
X133442069Y-92793930D01*
X133462527Y-92797999D01*
X133479346Y-92797999D01*
X133492792Y-92797271D01*
X133532685Y-92792938D01*
X133562826Y-92785772D01*
X133667850Y-92746400D01*
X133698660Y-92729531D01*
X133786703Y-92663547D01*
X133811547Y-92638703D01*
X133888172Y-92536462D01*
X133889145Y-92537192D01*
X133939286Y-92477329D01*
X134025424Y-92432391D01*
X134122202Y-92423838D01*
X134214886Y-92452971D01*
X134254369Y-92479804D01*
X134259130Y-92483757D01*
X134276073Y-92492937D01*
X134276179Y-92492740D01*
X134278000Y-92480702D01*
X134278000Y-92477329D01*
X135978000Y-92477329D01*
X135981760Y-92496231D01*
X135986578Y-92495273D01*
X135989511Y-92493647D01*
X135999217Y-92486724D01*
X136014773Y-92473579D01*
X136158477Y-92330374D01*
X136171672Y-92314870D01*
X136199943Y-92275526D01*
X136270940Y-92209204D01*
X136361912Y-92175100D01*
X136459011Y-92178406D01*
X136547454Y-92218617D01*
X136606121Y-92278005D01*
X136629505Y-92311401D01*
X136796599Y-92478495D01*
X136805497Y-92484725D01*
X136805500Y-92484728D01*
X136981271Y-92607804D01*
X136990170Y-92614035D01*
X137000015Y-92618626D01*
X137000017Y-92618627D01*
X137050349Y-92642097D01*
X137204337Y-92713903D01*
X137214835Y-92716716D01*
X137214838Y-92716717D01*
X137262662Y-92729531D01*
X137432592Y-92775063D01*
X137443425Y-92776011D01*
X137443426Y-92776011D01*
X137555005Y-92785773D01*
X137648250Y-92793931D01*
X137657165Y-92794711D01*
X137668000Y-92795659D01*
X137678835Y-92794711D01*
X137687751Y-92793931D01*
X137780995Y-92785773D01*
X137892574Y-92776011D01*
X137892575Y-92776011D01*
X137903408Y-92775063D01*
X138073338Y-92729531D01*
X138121162Y-92716717D01*
X138121165Y-92716716D01*
X138131663Y-92713903D01*
X138285651Y-92642097D01*
X138335983Y-92618627D01*
X138335985Y-92618626D01*
X138345830Y-92614035D01*
X138354729Y-92607804D01*
X138530500Y-92484728D01*
X138530503Y-92484725D01*
X138539401Y-92478495D01*
X138706495Y-92311401D01*
X138734032Y-92272074D01*
X138804211Y-92204891D01*
X138894760Y-92169678D01*
X138991892Y-92171797D01*
X139080819Y-92210925D01*
X139141968Y-92272074D01*
X139169505Y-92311401D01*
X139336599Y-92478495D01*
X139345497Y-92484725D01*
X139345500Y-92484728D01*
X139521271Y-92607804D01*
X139530170Y-92614035D01*
X139540015Y-92618626D01*
X139540017Y-92618627D01*
X139590349Y-92642097D01*
X139744337Y-92713903D01*
X139754835Y-92716716D01*
X139754838Y-92716717D01*
X139802662Y-92729531D01*
X139972592Y-92775063D01*
X139983425Y-92776011D01*
X139983426Y-92776011D01*
X140095005Y-92785773D01*
X140188250Y-92793931D01*
X140197165Y-92794711D01*
X140208000Y-92795659D01*
X140218835Y-92794711D01*
X140227751Y-92793931D01*
X140320995Y-92785773D01*
X140432574Y-92776011D01*
X140432575Y-92776011D01*
X140443408Y-92775063D01*
X140613338Y-92729531D01*
X140661162Y-92716717D01*
X140661165Y-92716716D01*
X140671663Y-92713903D01*
X140825651Y-92642097D01*
X140875983Y-92618627D01*
X140875985Y-92618626D01*
X140885830Y-92614035D01*
X140894729Y-92607804D01*
X141070500Y-92484728D01*
X141070503Y-92484725D01*
X141079401Y-92478495D01*
X141246495Y-92311401D01*
X141348268Y-92166053D01*
X141375797Y-92126738D01*
X141375798Y-92126737D01*
X141382035Y-92117829D01*
X141407863Y-92062441D01*
X141477307Y-91913520D01*
X141477309Y-91913516D01*
X141481903Y-91903663D01*
X141543063Y-91675408D01*
X141547296Y-91627030D01*
X147779645Y-91627030D01*
X147791964Y-91630044D01*
X147929164Y-91642048D01*
X147950836Y-91642048D01*
X148082582Y-91630522D01*
X148101043Y-91625141D01*
X148093545Y-91614915D01*
X147957341Y-91478711D01*
X147940000Y-91467124D01*
X147922659Y-91478711D01*
X147790327Y-91611043D01*
X147779645Y-91627030D01*
X141547296Y-91627030D01*
X141563659Y-91440000D01*
X141543063Y-91204592D01*
X141481903Y-90976337D01*
X141452604Y-90913504D01*
X141386631Y-90772027D01*
X141382035Y-90762171D01*
X141246495Y-90568599D01*
X141079401Y-90401505D01*
X141070503Y-90395275D01*
X141070500Y-90395272D01*
X140894729Y-90272196D01*
X140894728Y-90272195D01*
X140885830Y-90265965D01*
X140875985Y-90261374D01*
X140875983Y-90261373D01*
X140769045Y-90211507D01*
X140671663Y-90166097D01*
X140661165Y-90163284D01*
X140661162Y-90163283D01*
X140549116Y-90133261D01*
X140443408Y-90104937D01*
X140432575Y-90103989D01*
X140432574Y-90103989D01*
X140227762Y-90086070D01*
X140208000Y-90084341D01*
X140188238Y-90086070D01*
X139983426Y-90103989D01*
X139983425Y-90103989D01*
X139972592Y-90104937D01*
X139744337Y-90166097D01*
X139734484Y-90170691D01*
X139734480Y-90170693D01*
X139595138Y-90235670D01*
X139530171Y-90265965D01*
X139336599Y-90401505D01*
X139169505Y-90568599D01*
X139141968Y-90607926D01*
X139071789Y-90675109D01*
X138981240Y-90710322D01*
X138884108Y-90708203D01*
X138795181Y-90669075D01*
X138734032Y-90607926D01*
X138706495Y-90568599D01*
X138539401Y-90401505D01*
X138530503Y-90395275D01*
X138530500Y-90395272D01*
X138354729Y-90272196D01*
X138354728Y-90272195D01*
X138345830Y-90265965D01*
X138335985Y-90261374D01*
X138335983Y-90261373D01*
X138229045Y-90211507D01*
X138131663Y-90166097D01*
X138121165Y-90163284D01*
X138121162Y-90163283D01*
X138009116Y-90133261D01*
X137903408Y-90104937D01*
X137892575Y-90103989D01*
X137892574Y-90103989D01*
X137687762Y-90086070D01*
X137668000Y-90084341D01*
X137648238Y-90086070D01*
X137443426Y-90103989D01*
X137443425Y-90103989D01*
X137432592Y-90104937D01*
X137204337Y-90166097D01*
X137194484Y-90170691D01*
X137194480Y-90170693D01*
X137055138Y-90235670D01*
X136990171Y-90265965D01*
X136796599Y-90401505D01*
X136629505Y-90568599D01*
X136623270Y-90577504D01*
X136623268Y-90577506D01*
X136620074Y-90582068D01*
X136607849Y-90599527D01*
X136537671Y-90666710D01*
X136447122Y-90701924D01*
X136349990Y-90699807D01*
X136261063Y-90660679D01*
X136206603Y-90608638D01*
X136200741Y-90601027D01*
X136064209Y-90450980D01*
X136049305Y-90437082D01*
X135997246Y-90395968D01*
X135980085Y-90387206D01*
X135979271Y-90388800D01*
X135978000Y-90397961D01*
X135978000Y-92477329D01*
X134278000Y-92477329D01*
X134278000Y-92314527D01*
X134273931Y-92294069D01*
X134253473Y-92290000D01*
X134092079Y-92290000D01*
X134055354Y-92297305D01*
X133958201Y-92297305D01*
X133921475Y-92290000D01*
X133462527Y-92290000D01*
X133442069Y-92294069D01*
X133438000Y-92314527D01*
X133438000Y-92773472D01*
X131738000Y-92773472D01*
X131738000Y-92314527D01*
X131733931Y-92294069D01*
X131713473Y-92290000D01*
X131254528Y-92290000D01*
X131234070Y-92294069D01*
X131230001Y-92314527D01*
X131230001Y-92331346D01*
X130267840Y-92331346D01*
X130400047Y-92199139D01*
X130530568Y-92012734D01*
X130626739Y-91806496D01*
X130685635Y-91586692D01*
X130705468Y-91360000D01*
X130704520Y-91349164D01*
X130686583Y-91144140D01*
X130686582Y-91144136D01*
X130685635Y-91133308D01*
X130626739Y-90913504D01*
X130542591Y-90733049D01*
X130535164Y-90717122D01*
X130530568Y-90707266D01*
X130431284Y-90565473D01*
X131230000Y-90565473D01*
X131234069Y-90585931D01*
X131254527Y-90590000D01*
X131713473Y-90590000D01*
X131733931Y-90585931D01*
X131738000Y-90565473D01*
X133438000Y-90565473D01*
X133442069Y-90585931D01*
X133462527Y-90590000D01*
X133921476Y-90590000D01*
X133951469Y-90584034D01*
X134048624Y-90584033D01*
X134063551Y-90588640D01*
X134076709Y-90590000D01*
X134253473Y-90590000D01*
X134273931Y-90585931D01*
X134278000Y-90565473D01*
X134278000Y-90404465D01*
X134274240Y-90385565D01*
X134270952Y-90386219D01*
X134265472Y-90389345D01*
X134243698Y-90405693D01*
X134156117Y-90447749D01*
X134059109Y-90453088D01*
X133967442Y-90420897D01*
X133895072Y-90356077D01*
X133879745Y-90332293D01*
X133811547Y-90241297D01*
X133786703Y-90216453D01*
X133698660Y-90150469D01*
X133667850Y-90133600D01*
X133562822Y-90094227D01*
X133532691Y-90087062D01*
X133492786Y-90082727D01*
X133479350Y-90082000D01*
X133462527Y-90082000D01*
X133442069Y-90086069D01*
X133438000Y-90106527D01*
X133438000Y-90565473D01*
X131738000Y-90565473D01*
X131738000Y-90106528D01*
X131733931Y-90086070D01*
X131713473Y-90082001D01*
X131696654Y-90082001D01*
X131683208Y-90082729D01*
X131643315Y-90087062D01*
X131613174Y-90094228D01*
X131508150Y-90133600D01*
X131477340Y-90150469D01*
X131389297Y-90216453D01*
X131364453Y-90241297D01*
X131298469Y-90329340D01*
X131281600Y-90360150D01*
X131242227Y-90465178D01*
X131235062Y-90495309D01*
X131230727Y-90535214D01*
X131230000Y-90548650D01*
X131230000Y-90565473D01*
X130431284Y-90565473D01*
X130400047Y-90520861D01*
X130239139Y-90359953D01*
X130052734Y-90229432D01*
X129846496Y-90133261D01*
X129626692Y-90074365D01*
X129615864Y-90073418D01*
X129615860Y-90073417D01*
X129410836Y-90055480D01*
X129400000Y-90054532D01*
X129389164Y-90055480D01*
X129184140Y-90073417D01*
X129184136Y-90073418D01*
X129173308Y-90074365D01*
X128953504Y-90133261D01*
X128747266Y-90229432D01*
X128560861Y-90359953D01*
X128399953Y-90520861D01*
X128269432Y-90707266D01*
X128264836Y-90717122D01*
X128257409Y-90733049D01*
X128173261Y-90913504D01*
X128114365Y-91133308D01*
X128113418Y-91144136D01*
X128113417Y-91144140D01*
X128095480Y-91349164D01*
X128094532Y-91360000D01*
X125705468Y-91360000D01*
X125704520Y-91349164D01*
X125686583Y-91144140D01*
X125686582Y-91144136D01*
X125685635Y-91133308D01*
X125626739Y-90913504D01*
X125542591Y-90733049D01*
X125535164Y-90717122D01*
X125530568Y-90707266D01*
X125400047Y-90520861D01*
X125239139Y-90359953D01*
X125052734Y-90229432D01*
X124846496Y-90133261D01*
X124626692Y-90074365D01*
X124615864Y-90073418D01*
X124615860Y-90073417D01*
X124410836Y-90055480D01*
X124400000Y-90054532D01*
X124389164Y-90055480D01*
X124184140Y-90073417D01*
X124184136Y-90073418D01*
X124173308Y-90074365D01*
X123953504Y-90133261D01*
X123747266Y-90229432D01*
X123560861Y-90359953D01*
X123399953Y-90520861D01*
X123393716Y-90529769D01*
X123345017Y-90599318D01*
X123274836Y-90666502D01*
X123184287Y-90701715D01*
X123121170Y-90700338D01*
X123138042Y-90717211D01*
X123175222Y-90806970D01*
X123175221Y-90904125D01*
X123171522Y-90919992D01*
X123117178Y-91122807D01*
X123117177Y-91122815D01*
X123114365Y-91133308D01*
X123113418Y-91144136D01*
X123113417Y-91144140D01*
X123095480Y-91349164D01*
X123094532Y-91360000D01*
X119880500Y-91360000D01*
X119880500Y-90812114D01*
X119899454Y-90716826D01*
X119953430Y-90636044D01*
X120034212Y-90582068D01*
X120129500Y-90563114D01*
X120224788Y-90582068D01*
X120249268Y-90593810D01*
X120282180Y-90611866D01*
X120284763Y-90611113D01*
X120295085Y-90603545D01*
X120448629Y-90450000D01*
X121403930Y-89494700D01*
X121484711Y-89440723D01*
X121579999Y-89421769D01*
X121675287Y-89440723D01*
X121756070Y-89494699D01*
X122711371Y-90450000D01*
X122861043Y-90599673D01*
X122879394Y-90611935D01*
X122882429Y-90611331D01*
X122951191Y-90611332D01*
X122931044Y-90590286D01*
X122895831Y-90499737D01*
X122892048Y-90456489D01*
X122892049Y-90439171D01*
X122873996Y-90232824D01*
X122870237Y-90211507D01*
X122816625Y-90011424D01*
X122809221Y-89991081D01*
X122721680Y-89803349D01*
X122705417Y-89775181D01*
X122708052Y-89773660D01*
X122677134Y-89703401D01*
X122675012Y-89606269D01*
X122710221Y-89515719D01*
X122777403Y-89445536D01*
X122866329Y-89406404D01*
X122920230Y-89400500D01*
X146539363Y-89400500D01*
X146634651Y-89419454D01*
G37*
%TD.AperFunction*%
%TD*%
M02*
