%TF.GenerationSoftware,KiCad,Pcbnew,(6.0.11)*%
%TF.CreationDate,2023-05-06T11:24:47-05:00*%
%TF.ProjectId,SerialResonantFilter,53657269-616c-4526-9573-6f6e616e7446,rev?*%
%TF.SameCoordinates,Original*%
%TF.FileFunction,Soldermask,Top*%
%TF.FilePolarity,Negative*%
%FSLAX46Y46*%
G04 Gerber Fmt 4.6, Leading zero omitted, Abs format (unit mm)*
G04 Created by KiCad (PCBNEW (6.0.11)) date 2023-05-06 11:24:47*
%MOMM*%
%LPD*%
G01*
G04 APERTURE LIST*
G04 Aperture macros list*
%AMRoundRect*
0 Rectangle with rounded corners*
0 $1 Rounding radius*
0 $2 $3 $4 $5 $6 $7 $8 $9 X,Y pos of 4 corners*
0 Add a 4 corners polygon primitive as box body*
4,1,4,$2,$3,$4,$5,$6,$7,$8,$9,$2,$3,0*
0 Add four circle primitives for the rounded corners*
1,1,$1+$1,$2,$3*
1,1,$1+$1,$4,$5*
1,1,$1+$1,$6,$7*
1,1,$1+$1,$8,$9*
0 Add four rect primitives between the rounded corners*
20,1,$1+$1,$2,$3,$4,$5,0*
20,1,$1+$1,$4,$5,$6,$7,0*
20,1,$1+$1,$6,$7,$8,$9,0*
20,1,$1+$1,$8,$9,$2,$3,0*%
G04 Aperture macros list end*
%ADD10C,2.000000*%
%ADD11RoundRect,0.581000X-0.381000X0.381000X-0.381000X-0.381000X0.381000X-0.381000X0.381000X0.381000X0*%
%ADD12RoundRect,0.581000X0.381000X0.381000X-0.381000X0.381000X-0.381000X-0.381000X0.381000X-0.381000X0*%
%ADD13RoundRect,0.581000X-0.488333X0.227713X-0.227713X-0.488333X0.488333X-0.227713X0.227713X0.488333X0*%
%ADD14C,2.800000*%
%ADD15RoundRect,0.200000X0.850000X-0.850000X0.850000X0.850000X-0.850000X0.850000X-0.850000X-0.850000X0*%
%ADD16O,2.100000X2.100000*%
G04 APERTURE END LIST*
D10*
%TO.C,C1*%
X147940000Y-90330000D03*
D11*
X147940000Y-91130000D03*
D10*
X147940000Y-95330000D03*
D11*
X147940000Y-94530000D03*
%TD*%
D10*
%TO.C,C2*%
X129400000Y-91360000D03*
D12*
X128600000Y-91360000D03*
D10*
X124400000Y-91360000D03*
D12*
X125200000Y-91360000D03*
%TD*%
D10*
%TO.C,C3*%
X129420000Y-94720000D03*
D12*
X128620000Y-94720000D03*
D10*
X124420000Y-94720000D03*
D12*
X125220000Y-94720000D03*
%TD*%
D11*
%TO.C,C4*%
X121670000Y-94660000D03*
D10*
X121670000Y-95460000D03*
D11*
X121670000Y-91260000D03*
D10*
X121670000Y-90460000D03*
%TD*%
%TO.C,C5*%
X126200000Y-98180000D03*
D12*
X125400000Y-98180000D03*
D10*
X121200000Y-98180000D03*
D12*
X122000000Y-98180000D03*
%TD*%
D10*
%TO.C,C6*%
X147701000Y-107442000D03*
D11*
X147701000Y-108242000D03*
D10*
X147701000Y-112442000D03*
D11*
X147701000Y-111642000D03*
%TD*%
D10*
%TO.C,C7*%
X133096000Y-101854000D03*
D13*
X133369616Y-102605754D03*
D10*
X134806101Y-106552463D03*
D13*
X134532485Y-105800709D03*
%TD*%
D14*
%TO.C,L2*%
X143868600Y-93639452D03*
X140114472Y-108152326D03*
%TD*%
%TO.C,L3*%
X129720000Y-99739705D03*
X122337583Y-112786425D03*
%TD*%
D15*
%TO.C,J1*%
X132588000Y-111760000D03*
D16*
X135128000Y-111760000D03*
X137668000Y-111760000D03*
X140208000Y-111760000D03*
%TD*%
D15*
%TO.C,J2*%
X132588000Y-91440000D03*
D16*
X135128000Y-91440000D03*
X137668000Y-91440000D03*
X140208000Y-91440000D03*
%TD*%
M02*
