G04 #@! TF.FileFunction,Legend,Top*
%FSLAX46Y46*%
G04 Gerber Fmt 4.6, Leading zero omitted, Abs format (unit mm)*
G04 Created by KiCad (PCBNEW 4.0.7) date 02/05/23 11:49:14*
%MOMM*%
%LPD*%
G01*
G04 APERTURE LIST*
%ADD10C,0.100000*%
%ADD11C,0.150000*%
%ADD12C,5.000000*%
%ADD13C,0.120000*%
G04 APERTURE END LIST*
D10*
D11*
X141713334Y-101452381D02*
X141237143Y-101452381D01*
X141237143Y-100452381D01*
X141999048Y-100547619D02*
X142046667Y-100500000D01*
X142141905Y-100452381D01*
X142380001Y-100452381D01*
X142475239Y-100500000D01*
X142522858Y-100547619D01*
X142570477Y-100642857D01*
X142570477Y-100738095D01*
X142522858Y-100880952D01*
X141951429Y-101452381D01*
X142570477Y-101452381D01*
X125643334Y-106792381D02*
X125167143Y-106792381D01*
X125167143Y-105792381D01*
X125881429Y-105792381D02*
X126500477Y-105792381D01*
X126167143Y-106173333D01*
X126310001Y-106173333D01*
X126405239Y-106220952D01*
X126452858Y-106268571D01*
X126500477Y-106363810D01*
X126500477Y-106601905D01*
X126452858Y-106697143D01*
X126405239Y-106744762D01*
X126310001Y-106792381D01*
X126024286Y-106792381D01*
X125929048Y-106744762D01*
X125881429Y-106697143D01*
D12*
X143954500Y-109982000D02*
X143954500Y-111061500D01*
D11*
X132059048Y-93998571D02*
X132201905Y-94046190D01*
X132249524Y-94093810D01*
X132297143Y-94189048D01*
X132297143Y-94331905D01*
X132249524Y-94427143D01*
X132201905Y-94474762D01*
X132106667Y-94522381D01*
X131725714Y-94522381D01*
X131725714Y-93522381D01*
X132059048Y-93522381D01*
X132154286Y-93570000D01*
X132201905Y-93617619D01*
X132249524Y-93712857D01*
X132249524Y-93808095D01*
X132201905Y-93903333D01*
X132154286Y-93950952D01*
X132059048Y-93998571D01*
X131725714Y-93998571D01*
X132678095Y-94236667D02*
X133154286Y-94236667D01*
X132582857Y-94522381D02*
X132916190Y-93522381D01*
X133249524Y-94522381D01*
X133582857Y-94522381D02*
X133582857Y-93522381D01*
X134154286Y-94522381D01*
X134154286Y-93522381D01*
X134630476Y-94522381D02*
X134630476Y-93522381D01*
X134868571Y-93522381D01*
X135011429Y-93570000D01*
X135106667Y-93665238D01*
X135154286Y-93760476D01*
X135201905Y-93950952D01*
X135201905Y-94093810D01*
X135154286Y-94284286D01*
X135106667Y-94379524D01*
X135011429Y-94474762D01*
X134868571Y-94522381D01*
X134630476Y-94522381D01*
X131797143Y-96172381D02*
X131797143Y-95172381D01*
X132178096Y-95172381D01*
X132273334Y-95220000D01*
X132320953Y-95267619D01*
X132368572Y-95362857D01*
X132368572Y-95505714D01*
X132320953Y-95600952D01*
X132273334Y-95648571D01*
X132178096Y-95696190D01*
X131797143Y-95696190D01*
X132749524Y-95886667D02*
X133225715Y-95886667D01*
X132654286Y-96172381D02*
X132987619Y-95172381D01*
X133320953Y-96172381D01*
X133606667Y-96124762D02*
X133749524Y-96172381D01*
X133987620Y-96172381D01*
X134082858Y-96124762D01*
X134130477Y-96077143D01*
X134178096Y-95981905D01*
X134178096Y-95886667D01*
X134130477Y-95791429D01*
X134082858Y-95743810D01*
X133987620Y-95696190D01*
X133797143Y-95648571D01*
X133701905Y-95600952D01*
X133654286Y-95553333D01*
X133606667Y-95458095D01*
X133606667Y-95362857D01*
X133654286Y-95267619D01*
X133701905Y-95220000D01*
X133797143Y-95172381D01*
X134035239Y-95172381D01*
X134178096Y-95220000D01*
X134559048Y-96124762D02*
X134701905Y-96172381D01*
X134940001Y-96172381D01*
X135035239Y-96124762D01*
X135082858Y-96077143D01*
X135130477Y-95981905D01*
X135130477Y-95886667D01*
X135082858Y-95791429D01*
X135035239Y-95743810D01*
X134940001Y-95696190D01*
X134749524Y-95648571D01*
X134654286Y-95600952D01*
X134606667Y-95553333D01*
X134559048Y-95458095D01*
X134559048Y-95362857D01*
X134606667Y-95267619D01*
X134654286Y-95220000D01*
X134749524Y-95172381D01*
X134987620Y-95172381D01*
X135130477Y-95220000D01*
X131606667Y-97298571D02*
X131273333Y-97298571D01*
X131273333Y-97822381D02*
X131273333Y-96822381D01*
X131749524Y-96822381D01*
X132130476Y-97822381D02*
X132130476Y-96822381D01*
X133082857Y-97822381D02*
X132606666Y-97822381D01*
X132606666Y-96822381D01*
X133273333Y-96822381D02*
X133844762Y-96822381D01*
X133559047Y-97822381D02*
X133559047Y-96822381D01*
X134178095Y-97298571D02*
X134511429Y-97298571D01*
X134654286Y-97822381D02*
X134178095Y-97822381D01*
X134178095Y-96822381D01*
X134654286Y-96822381D01*
X135654286Y-97822381D02*
X135320952Y-97346190D01*
X135082857Y-97822381D02*
X135082857Y-96822381D01*
X135463810Y-96822381D01*
X135559048Y-96870000D01*
X135606667Y-96917619D01*
X135654286Y-97012857D01*
X135654286Y-97155714D01*
X135606667Y-97250952D01*
X135559048Y-97298571D01*
X135463810Y-97346190D01*
X135082857Y-97346190D01*
X143192381Y-91873809D02*
X142192381Y-91873809D01*
X143192381Y-91397619D02*
X142192381Y-91397619D01*
X143192381Y-90826190D01*
X142192381Y-90826190D01*
X143192381Y-90350000D02*
X142192381Y-90350000D01*
X142192381Y-89969047D01*
X142240000Y-89873809D01*
X142287619Y-89826190D01*
X142382857Y-89778571D01*
X142525714Y-89778571D01*
X142620952Y-89826190D01*
X142668571Y-89873809D01*
X142716190Y-89969047D01*
X142716190Y-90350000D01*
X128260000Y-112532381D02*
X128450477Y-112532381D01*
X128545715Y-112580000D01*
X128640953Y-112675238D01*
X128688572Y-112865714D01*
X128688572Y-113199048D01*
X128640953Y-113389524D01*
X128545715Y-113484762D01*
X128450477Y-113532381D01*
X128260000Y-113532381D01*
X128164762Y-113484762D01*
X128069524Y-113389524D01*
X128021905Y-113199048D01*
X128021905Y-112865714D01*
X128069524Y-112675238D01*
X128164762Y-112580000D01*
X128260000Y-112532381D01*
X129117143Y-112532381D02*
X129117143Y-113341905D01*
X129164762Y-113437143D01*
X129212381Y-113484762D01*
X129307619Y-113532381D01*
X129498096Y-113532381D01*
X129593334Y-113484762D01*
X129640953Y-113437143D01*
X129688572Y-113341905D01*
X129688572Y-112532381D01*
X130021905Y-112532381D02*
X130593334Y-112532381D01*
X130307619Y-113532381D02*
X130307619Y-112532381D01*
D13*
X132430000Y-106200254D02*
G75*
G03X132430000Y-106200254I-6440000J0D01*
G01*
X129748100Y-106200254D02*
G75*
G03X129748100Y-106200254I-3758100J0D01*
G01*
X149250000Y-90270000D02*
X149250000Y-95390000D01*
X146630000Y-90270000D02*
X146630000Y-95390000D01*
X149250000Y-90270000D02*
X148936000Y-90270000D01*
X146944000Y-90270000D02*
X146630000Y-90270000D01*
X149250000Y-95390000D02*
X148936000Y-95390000D01*
X146944000Y-95390000D02*
X146630000Y-95390000D01*
X129460000Y-92670000D02*
X124340000Y-92670000D01*
X129460000Y-90050000D02*
X124340000Y-90050000D01*
X129460000Y-92670000D02*
X129460000Y-92356000D01*
X129460000Y-90364000D02*
X129460000Y-90050000D01*
X124340000Y-92670000D02*
X124340000Y-92356000D01*
X124340000Y-90364000D02*
X124340000Y-90050000D01*
X129480000Y-96030000D02*
X124360000Y-96030000D01*
X129480000Y-93410000D02*
X124360000Y-93410000D01*
X129480000Y-96030000D02*
X129480000Y-95716000D01*
X129480000Y-93724000D02*
X129480000Y-93410000D01*
X124360000Y-96030000D02*
X124360000Y-95716000D01*
X124360000Y-93724000D02*
X124360000Y-93410000D01*
X122890000Y-90390000D02*
X122890000Y-95510000D01*
X120270000Y-90390000D02*
X120270000Y-95510000D01*
X122890000Y-90390000D02*
X122576000Y-90390000D01*
X120584000Y-90390000D02*
X120270000Y-90390000D01*
X122890000Y-95510000D02*
X122576000Y-95510000D01*
X120584000Y-95510000D02*
X120270000Y-95510000D01*
X126260000Y-99490000D02*
X121140000Y-99490000D01*
X126260000Y-96870000D02*
X121140000Y-96870000D01*
X126260000Y-99490000D02*
X126260000Y-99176000D01*
X126260000Y-97184000D02*
X126260000Y-96870000D01*
X121140000Y-99490000D02*
X121140000Y-99176000D01*
X121140000Y-97184000D02*
X121140000Y-96870000D01*
X149011000Y-107382000D02*
X149011000Y-112502000D01*
X146391000Y-107382000D02*
X146391000Y-112502000D01*
X149011000Y-107382000D02*
X148697000Y-107382000D01*
X146705000Y-107382000D02*
X146391000Y-107382000D01*
X149011000Y-112502000D02*
X148697000Y-112502000D01*
X146705000Y-112502000D02*
X146391000Y-112502000D01*
X148377811Y-100845258D02*
G75*
G03X148377811Y-100845258I-6440001J0D01*
G01*
X145695910Y-100845258D02*
G75*
G03X145695910Y-100845258I-3758100J0D01*
G01*
X141538000Y-113090000D02*
X141538000Y-110430000D01*
X133858000Y-113090000D02*
X141538000Y-113090000D01*
X133858000Y-110430000D02*
X141538000Y-110430000D01*
X133858000Y-113090000D02*
X133858000Y-110430000D01*
X132588000Y-113090000D02*
X131258000Y-113090000D01*
X131258000Y-113090000D02*
X131258000Y-111760000D01*
X141538000Y-92770000D02*
X141538000Y-90110000D01*
X133858000Y-92770000D02*
X141538000Y-92770000D01*
X133858000Y-90110000D02*
X141538000Y-90110000D01*
X133858000Y-92770000D02*
X133858000Y-90110000D01*
X132588000Y-92770000D02*
X131258000Y-92770000D01*
X131258000Y-92770000D02*
X131258000Y-91440000D01*
X134306476Y-101349572D02*
X136057619Y-106160798D01*
X131844481Y-102245665D02*
X133595625Y-107056891D01*
X134306476Y-101349572D02*
X134011413Y-101456966D01*
X132139545Y-102138271D02*
X131844481Y-102245665D01*
X136057619Y-106160798D02*
X135762556Y-106268193D01*
X133890688Y-106949497D02*
X133595625Y-107056891D01*
D11*
X148297143Y-93036666D02*
X148344762Y-93084285D01*
X148392381Y-93227142D01*
X148392381Y-93322380D01*
X148344762Y-93465238D01*
X148249524Y-93560476D01*
X148154286Y-93608095D01*
X147963810Y-93655714D01*
X147820952Y-93655714D01*
X147630476Y-93608095D01*
X147535238Y-93560476D01*
X147440000Y-93465238D01*
X147392381Y-93322380D01*
X147392381Y-93227142D01*
X147440000Y-93084285D01*
X147487619Y-93036666D01*
X148392381Y-92084285D02*
X148392381Y-92655714D01*
X148392381Y-92370000D02*
X147392381Y-92370000D01*
X147535238Y-92465238D01*
X147630476Y-92560476D01*
X147678095Y-92655714D01*
X126693334Y-91717143D02*
X126645715Y-91764762D01*
X126502858Y-91812381D01*
X126407620Y-91812381D01*
X126264762Y-91764762D01*
X126169524Y-91669524D01*
X126121905Y-91574286D01*
X126074286Y-91383810D01*
X126074286Y-91240952D01*
X126121905Y-91050476D01*
X126169524Y-90955238D01*
X126264762Y-90860000D01*
X126407620Y-90812381D01*
X126502858Y-90812381D01*
X126645715Y-90860000D01*
X126693334Y-90907619D01*
X127074286Y-90907619D02*
X127121905Y-90860000D01*
X127217143Y-90812381D01*
X127455239Y-90812381D01*
X127550477Y-90860000D01*
X127598096Y-90907619D01*
X127645715Y-91002857D01*
X127645715Y-91098095D01*
X127598096Y-91240952D01*
X127026667Y-91812381D01*
X127645715Y-91812381D01*
X126713334Y-95077143D02*
X126665715Y-95124762D01*
X126522858Y-95172381D01*
X126427620Y-95172381D01*
X126284762Y-95124762D01*
X126189524Y-95029524D01*
X126141905Y-94934286D01*
X126094286Y-94743810D01*
X126094286Y-94600952D01*
X126141905Y-94410476D01*
X126189524Y-94315238D01*
X126284762Y-94220000D01*
X126427620Y-94172381D01*
X126522858Y-94172381D01*
X126665715Y-94220000D01*
X126713334Y-94267619D01*
X127046667Y-94172381D02*
X127665715Y-94172381D01*
X127332381Y-94553333D01*
X127475239Y-94553333D01*
X127570477Y-94600952D01*
X127618096Y-94648571D01*
X127665715Y-94743810D01*
X127665715Y-94981905D01*
X127618096Y-95077143D01*
X127570477Y-95124762D01*
X127475239Y-95172381D01*
X127189524Y-95172381D01*
X127094286Y-95124762D01*
X127046667Y-95077143D01*
X121937143Y-93156666D02*
X121984762Y-93204285D01*
X122032381Y-93347142D01*
X122032381Y-93442380D01*
X121984762Y-93585238D01*
X121889524Y-93680476D01*
X121794286Y-93728095D01*
X121603810Y-93775714D01*
X121460952Y-93775714D01*
X121270476Y-93728095D01*
X121175238Y-93680476D01*
X121080000Y-93585238D01*
X121032381Y-93442380D01*
X121032381Y-93347142D01*
X121080000Y-93204285D01*
X121127619Y-93156666D01*
X121365714Y-92299523D02*
X122032381Y-92299523D01*
X120984762Y-92537619D02*
X121699048Y-92775714D01*
X121699048Y-92156666D01*
X123493334Y-98537143D02*
X123445715Y-98584762D01*
X123302858Y-98632381D01*
X123207620Y-98632381D01*
X123064762Y-98584762D01*
X122969524Y-98489524D01*
X122921905Y-98394286D01*
X122874286Y-98203810D01*
X122874286Y-98060952D01*
X122921905Y-97870476D01*
X122969524Y-97775238D01*
X123064762Y-97680000D01*
X123207620Y-97632381D01*
X123302858Y-97632381D01*
X123445715Y-97680000D01*
X123493334Y-97727619D01*
X124398096Y-97632381D02*
X123921905Y-97632381D01*
X123874286Y-98108571D01*
X123921905Y-98060952D01*
X124017143Y-98013333D01*
X124255239Y-98013333D01*
X124350477Y-98060952D01*
X124398096Y-98108571D01*
X124445715Y-98203810D01*
X124445715Y-98441905D01*
X124398096Y-98537143D01*
X124350477Y-98584762D01*
X124255239Y-98632381D01*
X124017143Y-98632381D01*
X123921905Y-98584762D01*
X123874286Y-98537143D01*
X148065143Y-110020666D02*
X148112762Y-110068285D01*
X148160381Y-110211142D01*
X148160381Y-110306380D01*
X148112762Y-110449238D01*
X148017524Y-110544476D01*
X147922286Y-110592095D01*
X147731810Y-110639714D01*
X147588952Y-110639714D01*
X147398476Y-110592095D01*
X147303238Y-110544476D01*
X147208000Y-110449238D01*
X147160381Y-110306380D01*
X147160381Y-110211142D01*
X147208000Y-110068285D01*
X147255619Y-110020666D01*
X147160381Y-109163523D02*
X147160381Y-109354000D01*
X147208000Y-109449238D01*
X147255619Y-109496857D01*
X147398476Y-109592095D01*
X147588952Y-109639714D01*
X147969905Y-109639714D01*
X148065143Y-109592095D01*
X148112762Y-109544476D01*
X148160381Y-109449238D01*
X148160381Y-109258761D01*
X148112762Y-109163523D01*
X148065143Y-109115904D01*
X147969905Y-109068285D01*
X147731810Y-109068285D01*
X147636571Y-109115904D01*
X147588952Y-109163523D01*
X147541333Y-109258761D01*
X147541333Y-109449238D01*
X147588952Y-109544476D01*
X147636571Y-109592095D01*
X147731810Y-109639714D01*
X133816667Y-108672381D02*
X133816667Y-109386667D01*
X133769047Y-109529524D01*
X133673809Y-109624762D01*
X133530952Y-109672381D01*
X133435714Y-109672381D01*
X134816667Y-109672381D02*
X134245238Y-109672381D01*
X134530952Y-109672381D02*
X134530952Y-108672381D01*
X134435714Y-108815238D01*
X134340476Y-108910476D01*
X134245238Y-108958095D01*
X143552381Y-90763333D02*
X144266667Y-90763333D01*
X144409524Y-90810953D01*
X144504762Y-90906191D01*
X144552381Y-91049048D01*
X144552381Y-91144286D01*
X143647619Y-90334762D02*
X143600000Y-90287143D01*
X143552381Y-90191905D01*
X143552381Y-89953809D01*
X143600000Y-89858571D01*
X143647619Y-89810952D01*
X143742857Y-89763333D01*
X143838095Y-89763333D01*
X143980952Y-89810952D01*
X144552381Y-90382381D01*
X144552381Y-89763333D01*
X133534122Y-104262753D02*
X133473088Y-104234293D01*
X133379481Y-104116338D01*
X133346908Y-104026843D01*
X133342795Y-103876314D01*
X133399716Y-103754246D01*
X133472924Y-103676926D01*
X133635626Y-103567032D01*
X133769869Y-103518172D01*
X133965144Y-103497772D01*
X134070925Y-103509946D01*
X134192993Y-103566867D01*
X134286600Y-103684823D01*
X134319174Y-103774318D01*
X134323287Y-103924846D01*
X134294826Y-103985880D01*
X134498327Y-104266537D02*
X134726341Y-104892999D01*
X133640068Y-104832293D01*
M02*
