%TF.GenerationSoftware,KiCad,Pcbnew,(6.0.11)*%
%TF.CreationDate,2023-02-05T16:58:01-06:00*%
%TF.ProjectId,PortableTerminal,506f7274-6162-46c6-9554-65726d696e61,rev?*%
%TF.SameCoordinates,Original*%
%TF.FileFunction,Legend,Top*%
%TF.FilePolarity,Positive*%
%FSLAX46Y46*%
G04 Gerber Fmt 4.6, Leading zero omitted, Abs format (unit mm)*
G04 Created by KiCad (PCBNEW (6.0.11)) date 2023-02-05 16:58:01*
%MOMM*%
%LPD*%
G01*
G04 APERTURE LIST*
%ADD10C,0.150000*%
%ADD11C,0.200000*%
%ADD12C,0.120000*%
%ADD13C,0.250000*%
%ADD14C,0.300000*%
%ADD15C,1.000000*%
%ADD16C,2.100000*%
%ADD17C,1.500000*%
G04 APERTURE END LIST*
D10*
X126265714Y-114472380D02*
X125694285Y-114472380D01*
X125980000Y-114472380D02*
X125980000Y-113472380D01*
X125884761Y-113615238D01*
X125789523Y-113710476D01*
X125694285Y-113758095D01*
X119622380Y-108895714D02*
X119622380Y-108229047D01*
X120622380Y-108657619D01*
X119955714Y-107419523D02*
X120622380Y-107419523D01*
X119574761Y-107657619D02*
X120289047Y-107895714D01*
X120289047Y-107276666D01*
X120622380Y-106895714D02*
X119622380Y-106895714D01*
X120098571Y-106895714D02*
X120098571Y-106324285D01*
X120622380Y-106324285D02*
X119622380Y-106324285D01*
X120527142Y-105276666D02*
X120574761Y-105324285D01*
X120622380Y-105467142D01*
X120622380Y-105562380D01*
X120574761Y-105705238D01*
X120479523Y-105800476D01*
X120384285Y-105848095D01*
X120193809Y-105895714D01*
X120050952Y-105895714D01*
X119860476Y-105848095D01*
X119765238Y-105800476D01*
X119670000Y-105705238D01*
X119622380Y-105562380D01*
X119622380Y-105467142D01*
X119670000Y-105324285D01*
X119717619Y-105276666D01*
X119622380Y-104943333D02*
X119622380Y-104276666D01*
X120622380Y-104705238D01*
X119955714Y-103467142D02*
X120622380Y-103467142D01*
X119574761Y-103705238D02*
X120289047Y-103943333D01*
X120289047Y-103324285D01*
X52413333Y-108396190D02*
X52413333Y-108872380D01*
X52127619Y-108300952D02*
X53127619Y-108634285D01*
X52127619Y-108967619D01*
X53127619Y-109300952D02*
X52318095Y-109300952D01*
X52222857Y-109348571D01*
X52175238Y-109396190D01*
X52127619Y-109491428D01*
X52127619Y-109681904D01*
X52175238Y-109777142D01*
X52222857Y-109824761D01*
X52318095Y-109872380D01*
X53127619Y-109872380D01*
X52127619Y-110348571D02*
X53127619Y-110348571D01*
X53127619Y-110586666D01*
X53080000Y-110729523D01*
X52984761Y-110824761D01*
X52889523Y-110872380D01*
X52699047Y-110920000D01*
X52556190Y-110920000D01*
X52365714Y-110872380D01*
X52270476Y-110824761D01*
X52175238Y-110729523D01*
X52127619Y-110586666D01*
X52127619Y-110348571D01*
X52127619Y-111348571D02*
X53127619Y-111348571D01*
X53127619Y-112015238D02*
X53127619Y-112205714D01*
X53080000Y-112300952D01*
X52984761Y-112396190D01*
X52794285Y-112443809D01*
X52460952Y-112443809D01*
X52270476Y-112396190D01*
X52175238Y-112300952D01*
X52127619Y-112205714D01*
X52127619Y-112015238D01*
X52175238Y-111920000D01*
X52270476Y-111824761D01*
X52460952Y-111777142D01*
X52794285Y-111777142D01*
X52984761Y-111824761D01*
X53080000Y-111920000D01*
X53127619Y-112015238D01*
X98383809Y-104962380D02*
X98383809Y-103962380D01*
X99431428Y-104867142D02*
X99383809Y-104914761D01*
X99240952Y-104962380D01*
X99145714Y-104962380D01*
X99002857Y-104914761D01*
X98907619Y-104819523D01*
X98860000Y-104724285D01*
X98812380Y-104533809D01*
X98812380Y-104390952D01*
X98860000Y-104200476D01*
X98907619Y-104105238D01*
X99002857Y-104010000D01*
X99145714Y-103962380D01*
X99240952Y-103962380D01*
X99383809Y-104010000D01*
X99431428Y-104057619D01*
X99812380Y-104914761D02*
X99955238Y-104962380D01*
X100193333Y-104962380D01*
X100288571Y-104914761D01*
X100336190Y-104867142D01*
X100383809Y-104771904D01*
X100383809Y-104676666D01*
X100336190Y-104581428D01*
X100288571Y-104533809D01*
X100193333Y-104486190D01*
X100002857Y-104438571D01*
X99907619Y-104390952D01*
X99860000Y-104343333D01*
X99812380Y-104248095D01*
X99812380Y-104152857D01*
X99860000Y-104057619D01*
X99907619Y-104010000D01*
X100002857Y-103962380D01*
X100240952Y-103962380D01*
X100383809Y-104010000D01*
X100812380Y-104962380D02*
X100812380Y-103962380D01*
X101193333Y-103962380D01*
X101288571Y-104010000D01*
X101336190Y-104057619D01*
X101383809Y-104152857D01*
X101383809Y-104295714D01*
X101336190Y-104390952D01*
X101288571Y-104438571D01*
X101193333Y-104486190D01*
X100812380Y-104486190D01*
X77422476Y-137231428D02*
X78184380Y-137231428D01*
X77803428Y-137612380D02*
X77803428Y-136850476D01*
X78517714Y-136612380D02*
X78851047Y-137612380D01*
X79184380Y-136612380D01*
X92789523Y-68984761D02*
X92932380Y-69032380D01*
X93170476Y-69032380D01*
X93265714Y-68984761D01*
X93313333Y-68937142D01*
X93360952Y-68841904D01*
X93360952Y-68746666D01*
X93313333Y-68651428D01*
X93265714Y-68603809D01*
X93170476Y-68556190D01*
X92980000Y-68508571D01*
X92884761Y-68460952D01*
X92837142Y-68413333D01*
X92789523Y-68318095D01*
X92789523Y-68222857D01*
X92837142Y-68127619D01*
X92884761Y-68080000D01*
X92980000Y-68032380D01*
X93218095Y-68032380D01*
X93360952Y-68080000D01*
X94360952Y-68937142D02*
X94313333Y-68984761D01*
X94170476Y-69032380D01*
X94075238Y-69032380D01*
X93932380Y-68984761D01*
X93837142Y-68889523D01*
X93789523Y-68794285D01*
X93741904Y-68603809D01*
X93741904Y-68460952D01*
X93789523Y-68270476D01*
X93837142Y-68175238D01*
X93932380Y-68080000D01*
X94075238Y-68032380D01*
X94170476Y-68032380D01*
X94313333Y-68080000D01*
X94360952Y-68127619D01*
X95265714Y-69032380D02*
X94789523Y-69032380D01*
X94789523Y-68032380D01*
X104664404Y-135123571D02*
X104331071Y-135123571D01*
X104331071Y-135647380D02*
X104331071Y-134647380D01*
X104807261Y-134647380D01*
X105759642Y-135647380D02*
X105426309Y-135171190D01*
X105188214Y-135647380D02*
X105188214Y-134647380D01*
X105569166Y-134647380D01*
X105664404Y-134695000D01*
X105712023Y-134742619D01*
X105759642Y-134837857D01*
X105759642Y-134980714D01*
X105712023Y-135075952D01*
X105664404Y-135123571D01*
X105569166Y-135171190D01*
X105188214Y-135171190D01*
X106188214Y-135123571D02*
X106521547Y-135123571D01*
X106664404Y-135647380D02*
X106188214Y-135647380D01*
X106188214Y-134647380D01*
X106664404Y-134647380D01*
X107759642Y-135742619D02*
X107664404Y-135695000D01*
X107569166Y-135599761D01*
X107426309Y-135456904D01*
X107331071Y-135409285D01*
X107235833Y-135409285D01*
X107283452Y-135647380D02*
X107188214Y-135599761D01*
X107092976Y-135504523D01*
X107045357Y-135314047D01*
X107045357Y-134980714D01*
X107092976Y-134790238D01*
X107188214Y-134695000D01*
X107283452Y-134647380D01*
X107473928Y-134647380D01*
X107569166Y-134695000D01*
X107664404Y-134790238D01*
X107712023Y-134980714D01*
X107712023Y-135314047D01*
X107664404Y-135504523D01*
X107569166Y-135599761D01*
X107473928Y-135647380D01*
X107283452Y-135647380D01*
X105950119Y-137162142D02*
X105902500Y-137209761D01*
X105759642Y-137257380D01*
X105664404Y-137257380D01*
X105521547Y-137209761D01*
X105426309Y-137114523D01*
X105378690Y-137019285D01*
X105331071Y-136828809D01*
X105331071Y-136685952D01*
X105378690Y-136495476D01*
X105426309Y-136400238D01*
X105521547Y-136305000D01*
X105664404Y-136257380D01*
X105759642Y-136257380D01*
X105902500Y-136305000D01*
X105950119Y-136352619D01*
X106235833Y-136257380D02*
X106807261Y-136257380D01*
X106521547Y-137257380D02*
X106521547Y-136257380D01*
X107712023Y-137257380D02*
X107378690Y-136781190D01*
X107140595Y-137257380D02*
X107140595Y-136257380D01*
X107521547Y-136257380D01*
X107616785Y-136305000D01*
X107664404Y-136352619D01*
X107712023Y-136447857D01*
X107712023Y-136590714D01*
X107664404Y-136685952D01*
X107616785Y-136733571D01*
X107521547Y-136781190D01*
X107140595Y-136781190D01*
X74295142Y-73858380D02*
X74295142Y-72858380D01*
X74533238Y-72858380D01*
X74676095Y-72906000D01*
X74771333Y-73001238D01*
X74818952Y-73096476D01*
X74866571Y-73286952D01*
X74866571Y-73429809D01*
X74818952Y-73620285D01*
X74771333Y-73715523D01*
X74676095Y-73810761D01*
X74533238Y-73858380D01*
X74295142Y-73858380D01*
X75152285Y-72858380D02*
X75723714Y-72858380D01*
X75438000Y-73858380D02*
X75438000Y-72858380D01*
X76628476Y-73858380D02*
X76295142Y-73382190D01*
X76057047Y-73858380D02*
X76057047Y-72858380D01*
X76438000Y-72858380D01*
X76533238Y-72906000D01*
X76580857Y-72953619D01*
X76628476Y-73048857D01*
X76628476Y-73191714D01*
X76580857Y-73286952D01*
X76533238Y-73334571D01*
X76438000Y-73382190D01*
X76057047Y-73382190D01*
X78285714Y-75452380D02*
X77714285Y-75452380D01*
X78000000Y-75452380D02*
X78000000Y-74452380D01*
X77904761Y-74595238D01*
X77809523Y-74690476D01*
X77714285Y-74738095D01*
X88495619Y-137358380D02*
X88495619Y-136358380D01*
X88828952Y-137072666D01*
X89162285Y-136358380D01*
X89162285Y-137358380D01*
X89638476Y-137358380D02*
X89638476Y-136358380D01*
X90686095Y-137263142D02*
X90638476Y-137310761D01*
X90495619Y-137358380D01*
X90400380Y-137358380D01*
X90257523Y-137310761D01*
X90162285Y-137215523D01*
X90114666Y-137120285D01*
X90067047Y-136929809D01*
X90067047Y-136786952D01*
X90114666Y-136596476D01*
X90162285Y-136501238D01*
X90257523Y-136406000D01*
X90400380Y-136358380D01*
X90495619Y-136358380D01*
X90638476Y-136406000D01*
X90686095Y-136453619D01*
X91686095Y-137358380D02*
X91352761Y-136882190D01*
X91114666Y-137358380D02*
X91114666Y-136358380D01*
X91495619Y-136358380D01*
X91590857Y-136406000D01*
X91638476Y-136453619D01*
X91686095Y-136548857D01*
X91686095Y-136691714D01*
X91638476Y-136786952D01*
X91590857Y-136834571D01*
X91495619Y-136882190D01*
X91114666Y-136882190D01*
X92305142Y-136358380D02*
X92495619Y-136358380D01*
X92590857Y-136406000D01*
X92686095Y-136501238D01*
X92733714Y-136691714D01*
X92733714Y-137025047D01*
X92686095Y-137215523D01*
X92590857Y-137310761D01*
X92495619Y-137358380D01*
X92305142Y-137358380D01*
X92209904Y-137310761D01*
X92114666Y-137215523D01*
X92067047Y-137025047D01*
X92067047Y-136691714D01*
X92114666Y-136501238D01*
X92209904Y-136406000D01*
X92305142Y-136358380D01*
X93876571Y-137310761D02*
X94019428Y-137358380D01*
X94257523Y-137358380D01*
X94352761Y-137310761D01*
X94400380Y-137263142D01*
X94448000Y-137167904D01*
X94448000Y-137072666D01*
X94400380Y-136977428D01*
X94352761Y-136929809D01*
X94257523Y-136882190D01*
X94067047Y-136834571D01*
X93971809Y-136786952D01*
X93924190Y-136739333D01*
X93876571Y-136644095D01*
X93876571Y-136548857D01*
X93924190Y-136453619D01*
X93971809Y-136406000D01*
X94067047Y-136358380D01*
X94305142Y-136358380D01*
X94448000Y-136406000D01*
X94876571Y-137358380D02*
X94876571Y-136358380D01*
X95114666Y-136358380D01*
X95257523Y-136406000D01*
X95352761Y-136501238D01*
X95400380Y-136596476D01*
X95448000Y-136786952D01*
X95448000Y-136929809D01*
X95400380Y-137120285D01*
X95352761Y-137215523D01*
X95257523Y-137310761D01*
X95114666Y-137358380D01*
X94876571Y-137358380D01*
X55995714Y-130297380D02*
X56662380Y-130297380D01*
X56233809Y-131297380D01*
X57043333Y-130916428D02*
X57805238Y-130916428D01*
X58805238Y-131297380D02*
X58233809Y-131297380D01*
X58519523Y-131297380D02*
X58519523Y-130297380D01*
X58424285Y-130440238D01*
X58329047Y-130535476D01*
X58233809Y-130583095D01*
X59186190Y-130392619D02*
X59233809Y-130345000D01*
X59329047Y-130297380D01*
X59567142Y-130297380D01*
X59662380Y-130345000D01*
X59710000Y-130392619D01*
X59757619Y-130487857D01*
X59757619Y-130583095D01*
X59710000Y-130725952D01*
X59138571Y-131297380D01*
X59757619Y-131297380D01*
X60805238Y-130297380D02*
X61138571Y-131297380D01*
X61471904Y-130297380D01*
X61805238Y-131297380D02*
X61805238Y-130297380D01*
X62043333Y-130297380D01*
X62186190Y-130345000D01*
X62281428Y-130440238D01*
X62329047Y-130535476D01*
X62376666Y-130725952D01*
X62376666Y-130868809D01*
X62329047Y-131059285D01*
X62281428Y-131154523D01*
X62186190Y-131249761D01*
X62043333Y-131297380D01*
X61805238Y-131297380D01*
X63376666Y-131202142D02*
X63329047Y-131249761D01*
X63186190Y-131297380D01*
X63090952Y-131297380D01*
X62948095Y-131249761D01*
X62852857Y-131154523D01*
X62805238Y-131059285D01*
X62757619Y-130868809D01*
X62757619Y-130725952D01*
X62805238Y-130535476D01*
X62852857Y-130440238D01*
X62948095Y-130345000D01*
X63090952Y-130297380D01*
X63186190Y-130297380D01*
X63329047Y-130345000D01*
X63376666Y-130392619D01*
X57686190Y-132907380D02*
X57686190Y-131907380D01*
X58067142Y-131907380D01*
X58162380Y-131955000D01*
X58210000Y-132002619D01*
X58257619Y-132097857D01*
X58257619Y-132240714D01*
X58210000Y-132335952D01*
X58162380Y-132383571D01*
X58067142Y-132431190D01*
X57686190Y-132431190D01*
X58686190Y-132907380D02*
X58686190Y-131907380D01*
X59162380Y-132907380D02*
X59162380Y-131907380D01*
X59733809Y-132907380D01*
X59733809Y-131907380D01*
X60971904Y-132526428D02*
X61733809Y-132526428D01*
X61352857Y-132907380D02*
X61352857Y-132145476D01*
X92765714Y-71524761D02*
X92908571Y-71572380D01*
X93146666Y-71572380D01*
X93241904Y-71524761D01*
X93289523Y-71477142D01*
X93337142Y-71381904D01*
X93337142Y-71286666D01*
X93289523Y-71191428D01*
X93241904Y-71143809D01*
X93146666Y-71096190D01*
X92956190Y-71048571D01*
X92860952Y-71000952D01*
X92813333Y-70953333D01*
X92765714Y-70858095D01*
X92765714Y-70762857D01*
X92813333Y-70667619D01*
X92860952Y-70620000D01*
X92956190Y-70572380D01*
X93194285Y-70572380D01*
X93337142Y-70620000D01*
X93765714Y-71572380D02*
X93765714Y-70572380D01*
X94003809Y-70572380D01*
X94146666Y-70620000D01*
X94241904Y-70715238D01*
X94289523Y-70810476D01*
X94337142Y-71000952D01*
X94337142Y-71143809D01*
X94289523Y-71334285D01*
X94241904Y-71429523D01*
X94146666Y-71524761D01*
X94003809Y-71572380D01*
X93765714Y-71572380D01*
X94718095Y-71286666D02*
X95194285Y-71286666D01*
X94622857Y-71572380D02*
X94956190Y-70572380D01*
X95289523Y-71572380D01*
X75271333Y-76652380D02*
X74938000Y-76176190D01*
X74699904Y-76652380D02*
X74699904Y-75652380D01*
X75080857Y-75652380D01*
X75176095Y-75700000D01*
X75223714Y-75747619D01*
X75271333Y-75842857D01*
X75271333Y-75985714D01*
X75223714Y-76080952D01*
X75176095Y-76128571D01*
X75080857Y-76176190D01*
X74699904Y-76176190D01*
X75604666Y-75652380D02*
X76271333Y-76652380D01*
X76271333Y-75652380D02*
X75604666Y-76652380D01*
X52125619Y-79899619D02*
X53125619Y-79899619D01*
X53125619Y-80280571D01*
X53078000Y-80375809D01*
X53030380Y-80423428D01*
X52935142Y-80471047D01*
X52792285Y-80471047D01*
X52697047Y-80423428D01*
X52649428Y-80375809D01*
X52601809Y-80280571D01*
X52601809Y-79899619D01*
X52173238Y-80852000D02*
X52125619Y-80994857D01*
X52125619Y-81232952D01*
X52173238Y-81328190D01*
X52220857Y-81375809D01*
X52316095Y-81423428D01*
X52411333Y-81423428D01*
X52506571Y-81375809D01*
X52554190Y-81328190D01*
X52601809Y-81232952D01*
X52649428Y-81042476D01*
X52697047Y-80947238D01*
X52744666Y-80899619D01*
X52839904Y-80852000D01*
X52935142Y-80852000D01*
X53030380Y-80899619D01*
X53078000Y-80947238D01*
X53125619Y-81042476D01*
X53125619Y-81280571D01*
X53078000Y-81423428D01*
X53173238Y-82566285D02*
X51887523Y-81709142D01*
X53030380Y-82852000D02*
X53078000Y-82899619D01*
X53125619Y-82994857D01*
X53125619Y-83232952D01*
X53078000Y-83328190D01*
X53030380Y-83375809D01*
X52935142Y-83423428D01*
X52839904Y-83423428D01*
X52697047Y-83375809D01*
X52125619Y-82804380D01*
X52125619Y-83423428D01*
X52125619Y-84613904D02*
X53125619Y-84613904D01*
X52125619Y-85185333D02*
X52697047Y-84756761D01*
X53125619Y-85185333D02*
X52554190Y-84613904D01*
X52649428Y-85613904D02*
X52649428Y-85947238D01*
X52125619Y-86090095D02*
X52125619Y-85613904D01*
X53125619Y-85613904D01*
X53125619Y-86090095D01*
X52601809Y-86709142D02*
X52125619Y-86709142D01*
X53125619Y-86375809D02*
X52601809Y-86709142D01*
X53125619Y-87042476D01*
X52649428Y-87709142D02*
X52601809Y-87852000D01*
X52554190Y-87899619D01*
X52458952Y-87947238D01*
X52316095Y-87947238D01*
X52220857Y-87899619D01*
X52173238Y-87852000D01*
X52125619Y-87756761D01*
X52125619Y-87375809D01*
X53125619Y-87375809D01*
X53125619Y-87709142D01*
X53078000Y-87804380D01*
X53030380Y-87852000D01*
X52935142Y-87899619D01*
X52839904Y-87899619D01*
X52744666Y-87852000D01*
X52697047Y-87804380D01*
X52649428Y-87709142D01*
X52649428Y-87375809D01*
X53125619Y-88566285D02*
X53125619Y-88756761D01*
X53078000Y-88852000D01*
X52982761Y-88947238D01*
X52792285Y-88994857D01*
X52458952Y-88994857D01*
X52268476Y-88947238D01*
X52173238Y-88852000D01*
X52125619Y-88756761D01*
X52125619Y-88566285D01*
X52173238Y-88471047D01*
X52268476Y-88375809D01*
X52458952Y-88328190D01*
X52792285Y-88328190D01*
X52982761Y-88375809D01*
X53078000Y-88471047D01*
X53125619Y-88566285D01*
X52411333Y-89375809D02*
X52411333Y-89852000D01*
X52125619Y-89280571D02*
X53125619Y-89613904D01*
X52125619Y-89947238D01*
X52125619Y-90852000D02*
X52601809Y-90518666D01*
X52125619Y-90280571D02*
X53125619Y-90280571D01*
X53125619Y-90661523D01*
X53078000Y-90756761D01*
X53030380Y-90804380D01*
X52935142Y-90852000D01*
X52792285Y-90852000D01*
X52697047Y-90804380D01*
X52649428Y-90756761D01*
X52601809Y-90661523D01*
X52601809Y-90280571D01*
X52125619Y-91280571D02*
X53125619Y-91280571D01*
X53125619Y-91518666D01*
X53078000Y-91661523D01*
X52982761Y-91756761D01*
X52887523Y-91804380D01*
X52697047Y-91852000D01*
X52554190Y-91852000D01*
X52363714Y-91804380D01*
X52268476Y-91756761D01*
X52173238Y-91661523D01*
X52125619Y-91518666D01*
X52125619Y-91280571D01*
X111626666Y-70772380D02*
X111626666Y-69772380D01*
X112007619Y-69772380D01*
X112102857Y-69820000D01*
X112150476Y-69867619D01*
X112198095Y-69962857D01*
X112198095Y-70105714D01*
X112150476Y-70200952D01*
X112102857Y-70248571D01*
X112007619Y-70296190D01*
X111626666Y-70296190D01*
X112817142Y-69772380D02*
X113007619Y-69772380D01*
X113102857Y-69820000D01*
X113198095Y-69915238D01*
X113245714Y-70105714D01*
X113245714Y-70439047D01*
X113198095Y-70629523D01*
X113102857Y-70724761D01*
X113007619Y-70772380D01*
X112817142Y-70772380D01*
X112721904Y-70724761D01*
X112626666Y-70629523D01*
X112579047Y-70439047D01*
X112579047Y-70105714D01*
X112626666Y-69915238D01*
X112721904Y-69820000D01*
X112817142Y-69772380D01*
X114245714Y-70772380D02*
X113912380Y-70296190D01*
X113674285Y-70772380D02*
X113674285Y-69772380D01*
X114055238Y-69772380D01*
X114150476Y-69820000D01*
X114198095Y-69867619D01*
X114245714Y-69962857D01*
X114245714Y-70105714D01*
X114198095Y-70200952D01*
X114150476Y-70248571D01*
X114055238Y-70296190D01*
X113674285Y-70296190D01*
X114531428Y-69772380D02*
X115102857Y-69772380D01*
X114817142Y-70772380D02*
X114817142Y-69772380D01*
X115388571Y-70486666D02*
X115864761Y-70486666D01*
X115293333Y-70772380D02*
X115626666Y-69772380D01*
X115960000Y-70772380D01*
X116626666Y-70248571D02*
X116769523Y-70296190D01*
X116817142Y-70343809D01*
X116864761Y-70439047D01*
X116864761Y-70581904D01*
X116817142Y-70677142D01*
X116769523Y-70724761D01*
X116674285Y-70772380D01*
X116293333Y-70772380D01*
X116293333Y-69772380D01*
X116626666Y-69772380D01*
X116721904Y-69820000D01*
X116769523Y-69867619D01*
X116817142Y-69962857D01*
X116817142Y-70058095D01*
X116769523Y-70153333D01*
X116721904Y-70200952D01*
X116626666Y-70248571D01*
X116293333Y-70248571D01*
X117769523Y-70772380D02*
X117293333Y-70772380D01*
X117293333Y-69772380D01*
X118102857Y-70248571D02*
X118436190Y-70248571D01*
X118579047Y-70772380D02*
X118102857Y-70772380D01*
X118102857Y-69772380D01*
X118579047Y-69772380D01*
X119721904Y-70724761D02*
X119864761Y-70772380D01*
X120102857Y-70772380D01*
X120198095Y-70724761D01*
X120245714Y-70677142D01*
X120293333Y-70581904D01*
X120293333Y-70486666D01*
X120245714Y-70391428D01*
X120198095Y-70343809D01*
X120102857Y-70296190D01*
X119912380Y-70248571D01*
X119817142Y-70200952D01*
X119769523Y-70153333D01*
X119721904Y-70058095D01*
X119721904Y-69962857D01*
X119769523Y-69867619D01*
X119817142Y-69820000D01*
X119912380Y-69772380D01*
X120150476Y-69772380D01*
X120293333Y-69820000D01*
X120721904Y-70248571D02*
X121055238Y-70248571D01*
X121198095Y-70772380D02*
X120721904Y-70772380D01*
X120721904Y-69772380D01*
X121198095Y-69772380D01*
X122198095Y-70772380D02*
X121864761Y-70296190D01*
X121626666Y-70772380D02*
X121626666Y-69772380D01*
X122007619Y-69772380D01*
X122102857Y-69820000D01*
X122150476Y-69867619D01*
X122198095Y-69962857D01*
X122198095Y-70105714D01*
X122150476Y-70200952D01*
X122102857Y-70248571D01*
X122007619Y-70296190D01*
X121626666Y-70296190D01*
X122626666Y-70772380D02*
X122626666Y-69772380D01*
X123055238Y-70486666D02*
X123531428Y-70486666D01*
X122960000Y-70772380D02*
X123293333Y-69772380D01*
X123626666Y-70772380D01*
X124436190Y-70772380D02*
X123960000Y-70772380D01*
X123960000Y-69772380D01*
X113269523Y-71382380D02*
X113840952Y-71382380D01*
X113555238Y-72382380D02*
X113555238Y-71382380D01*
X114174285Y-71858571D02*
X114507619Y-71858571D01*
X114650476Y-72382380D02*
X114174285Y-72382380D01*
X114174285Y-71382380D01*
X114650476Y-71382380D01*
X115650476Y-72382380D02*
X115317142Y-71906190D01*
X115079047Y-72382380D02*
X115079047Y-71382380D01*
X115460000Y-71382380D01*
X115555238Y-71430000D01*
X115602857Y-71477619D01*
X115650476Y-71572857D01*
X115650476Y-71715714D01*
X115602857Y-71810952D01*
X115555238Y-71858571D01*
X115460000Y-71906190D01*
X115079047Y-71906190D01*
X116079047Y-72382380D02*
X116079047Y-71382380D01*
X116412380Y-72096666D01*
X116745714Y-71382380D01*
X116745714Y-72382380D01*
X117221904Y-72382380D02*
X117221904Y-71382380D01*
X117698095Y-72382380D02*
X117698095Y-71382380D01*
X118269523Y-72382380D01*
X118269523Y-71382380D01*
X118698095Y-72096666D02*
X119174285Y-72096666D01*
X118602857Y-72382380D02*
X118936190Y-71382380D01*
X119269523Y-72382380D01*
X120079047Y-72382380D02*
X119602857Y-72382380D01*
X119602857Y-71382380D01*
X121031428Y-71382380D02*
X121364761Y-72382380D01*
X121698095Y-71382380D01*
X121936190Y-71382380D02*
X122555238Y-71382380D01*
X122221904Y-71763333D01*
X122364761Y-71763333D01*
X122460000Y-71810952D01*
X122507619Y-71858571D01*
X122555238Y-71953809D01*
X122555238Y-72191904D01*
X122507619Y-72287142D01*
X122460000Y-72334761D01*
X122364761Y-72382380D01*
X122079047Y-72382380D01*
X121983809Y-72334761D01*
X121936190Y-72287142D01*
X111817142Y-73468571D02*
X111960000Y-73516190D01*
X112007619Y-73563809D01*
X112055238Y-73659047D01*
X112055238Y-73801904D01*
X112007619Y-73897142D01*
X111960000Y-73944761D01*
X111864761Y-73992380D01*
X111483809Y-73992380D01*
X111483809Y-72992380D01*
X111817142Y-72992380D01*
X111912380Y-73040000D01*
X111960000Y-73087619D01*
X112007619Y-73182857D01*
X112007619Y-73278095D01*
X111960000Y-73373333D01*
X111912380Y-73420952D01*
X111817142Y-73468571D01*
X111483809Y-73468571D01*
X112674285Y-73516190D02*
X112674285Y-73992380D01*
X112340952Y-72992380D02*
X112674285Y-73516190D01*
X113007619Y-72992380D01*
X114102857Y-73992380D02*
X114102857Y-72992380D01*
X114340952Y-72992380D01*
X114483809Y-73040000D01*
X114579047Y-73135238D01*
X114626666Y-73230476D01*
X114674285Y-73420952D01*
X114674285Y-73563809D01*
X114626666Y-73754285D01*
X114579047Y-73849523D01*
X114483809Y-73944761D01*
X114340952Y-73992380D01*
X114102857Y-73992380D01*
X115055238Y-73706666D02*
X115531428Y-73706666D01*
X114960000Y-73992380D02*
X115293333Y-72992380D01*
X115626666Y-73992380D01*
X115960000Y-73992380D02*
X115960000Y-72992380D01*
X116531428Y-73992380D01*
X116531428Y-72992380D01*
X117007619Y-73992380D02*
X117007619Y-72992380D01*
X117483809Y-73468571D02*
X117817142Y-73468571D01*
X117960000Y-73992380D02*
X117483809Y-73992380D01*
X117483809Y-72992380D01*
X117960000Y-72992380D01*
X118864761Y-73992380D02*
X118388571Y-73992380D01*
X118388571Y-72992380D01*
X119960000Y-73992380D02*
X119960000Y-72992380D01*
X120293333Y-73706666D01*
X120626666Y-72992380D01*
X120626666Y-73992380D01*
X121055238Y-73706666D02*
X121531428Y-73706666D01*
X120960000Y-73992380D02*
X121293333Y-72992380D01*
X121626666Y-73992380D01*
X122531428Y-73992380D02*
X122198095Y-73516190D01*
X121960000Y-73992380D02*
X121960000Y-72992380D01*
X122340952Y-72992380D01*
X122436190Y-73040000D01*
X122483809Y-73087619D01*
X122531428Y-73182857D01*
X122531428Y-73325714D01*
X122483809Y-73420952D01*
X122436190Y-73468571D01*
X122340952Y-73516190D01*
X121960000Y-73516190D01*
X122960000Y-73992380D02*
X122960000Y-72992380D01*
X123531428Y-73992380D02*
X123102857Y-73420952D01*
X123531428Y-72992380D02*
X122960000Y-73563809D01*
X123912380Y-73944761D02*
X124055238Y-73992380D01*
X124293333Y-73992380D01*
X124388571Y-73944761D01*
X124436190Y-73897142D01*
X124483809Y-73801904D01*
X124483809Y-73706666D01*
X124436190Y-73611428D01*
X124388571Y-73563809D01*
X124293333Y-73516190D01*
X124102857Y-73468571D01*
X124007619Y-73420952D01*
X123960000Y-73373333D01*
X123912380Y-73278095D01*
X123912380Y-73182857D01*
X123960000Y-73087619D01*
X124007619Y-73040000D01*
X124102857Y-72992380D01*
X124340952Y-72992380D01*
X124483809Y-73040000D01*
X116031428Y-75602380D02*
X116031428Y-74602380D01*
X116602857Y-75602380D02*
X116174285Y-75030952D01*
X116602857Y-74602380D02*
X116031428Y-75173809D01*
X116936190Y-74602380D02*
X117174285Y-75602380D01*
X117364761Y-74888095D01*
X117555238Y-75602380D01*
X117793333Y-74602380D01*
X118602857Y-74935714D02*
X118602857Y-75602380D01*
X118364761Y-74554761D02*
X118126666Y-75269047D01*
X118745714Y-75269047D01*
X118983809Y-74602380D02*
X119555238Y-74602380D01*
X119269523Y-75602380D02*
X119269523Y-74602380D01*
X119888571Y-75602380D02*
X119888571Y-74602380D01*
X113126666Y-77117142D02*
X113079047Y-77164761D01*
X112936190Y-77212380D01*
X112840952Y-77212380D01*
X112698095Y-77164761D01*
X112602857Y-77069523D01*
X112555238Y-76974285D01*
X112507619Y-76783809D01*
X112507619Y-76640952D01*
X112555238Y-76450476D01*
X112602857Y-76355238D01*
X112698095Y-76260000D01*
X112840952Y-76212380D01*
X112936190Y-76212380D01*
X113079047Y-76260000D01*
X113126666Y-76307619D01*
X114126666Y-77117142D02*
X114079047Y-77164761D01*
X113936190Y-77212380D01*
X113840952Y-77212380D01*
X113698095Y-77164761D01*
X113602857Y-77069523D01*
X113555238Y-76974285D01*
X113507619Y-76783809D01*
X113507619Y-76640952D01*
X113555238Y-76450476D01*
X113602857Y-76355238D01*
X113698095Y-76260000D01*
X113840952Y-76212380D01*
X113936190Y-76212380D01*
X114079047Y-76260000D01*
X114126666Y-76307619D01*
X114555238Y-76831428D02*
X115317142Y-76831428D01*
X116126666Y-76688571D02*
X116269523Y-76736190D01*
X116317142Y-76783809D01*
X116364761Y-76879047D01*
X116364761Y-77021904D01*
X116317142Y-77117142D01*
X116269523Y-77164761D01*
X116174285Y-77212380D01*
X115793333Y-77212380D01*
X115793333Y-76212380D01*
X116126666Y-76212380D01*
X116221904Y-76260000D01*
X116269523Y-76307619D01*
X116317142Y-76402857D01*
X116317142Y-76498095D01*
X116269523Y-76593333D01*
X116221904Y-76640952D01*
X116126666Y-76688571D01*
X115793333Y-76688571D01*
X116983809Y-76736190D02*
X116983809Y-77212380D01*
X116650476Y-76212380D02*
X116983809Y-76736190D01*
X117317142Y-76212380D01*
X117650476Y-76831428D02*
X118412380Y-76831428D01*
X118840952Y-77164761D02*
X118983809Y-77212380D01*
X119221904Y-77212380D01*
X119317142Y-77164761D01*
X119364761Y-77117142D01*
X119412380Y-77021904D01*
X119412380Y-76926666D01*
X119364761Y-76831428D01*
X119317142Y-76783809D01*
X119221904Y-76736190D01*
X119031428Y-76688571D01*
X118936190Y-76640952D01*
X118888571Y-76593333D01*
X118840952Y-76498095D01*
X118840952Y-76402857D01*
X118888571Y-76307619D01*
X118936190Y-76260000D01*
X119031428Y-76212380D01*
X119269523Y-76212380D01*
X119412380Y-76260000D01*
X119793333Y-76926666D02*
X120269523Y-76926666D01*
X119698095Y-77212380D02*
X120031428Y-76212380D01*
X120364761Y-77212380D01*
X121888571Y-76545714D02*
X121888571Y-77212380D01*
X121650476Y-76164761D02*
X121412380Y-76879047D01*
X122031428Y-76879047D01*
X122412380Y-77117142D02*
X122460000Y-77164761D01*
X122412380Y-77212380D01*
X122364761Y-77164761D01*
X122412380Y-77117142D01*
X122412380Y-77212380D01*
X123079047Y-76212380D02*
X123174285Y-76212380D01*
X123269523Y-76260000D01*
X123317142Y-76307619D01*
X123364761Y-76402857D01*
X123412380Y-76593333D01*
X123412380Y-76831428D01*
X123364761Y-77021904D01*
X123317142Y-77117142D01*
X123269523Y-77164761D01*
X123174285Y-77212380D01*
X123079047Y-77212380D01*
X122983809Y-77164761D01*
X122936190Y-77117142D01*
X122888571Y-77021904D01*
X122840952Y-76831428D01*
X122840952Y-76593333D01*
X122888571Y-76402857D01*
X122936190Y-76307619D01*
X122983809Y-76260000D01*
X123079047Y-76212380D01*
X74676095Y-78192380D02*
X75247523Y-78192380D01*
X74961809Y-79192380D02*
X74961809Y-78192380D01*
X75485619Y-78192380D02*
X76152285Y-79192380D01*
X76152285Y-78192380D02*
X75485619Y-79192380D01*
X74676095Y-80780000D02*
X74580857Y-80732380D01*
X74438000Y-80732380D01*
X74295142Y-80780000D01*
X74199904Y-80875238D01*
X74152285Y-80970476D01*
X74104666Y-81160952D01*
X74104666Y-81303809D01*
X74152285Y-81494285D01*
X74199904Y-81589523D01*
X74295142Y-81684761D01*
X74438000Y-81732380D01*
X74533238Y-81732380D01*
X74676095Y-81684761D01*
X74723714Y-81637142D01*
X74723714Y-81303809D01*
X74533238Y-81303809D01*
X75152285Y-81732380D02*
X75152285Y-80732380D01*
X75723714Y-81732380D01*
X75723714Y-80732380D01*
X76199904Y-81732380D02*
X76199904Y-80732380D01*
X76438000Y-80732380D01*
X76580857Y-80780000D01*
X76676095Y-80875238D01*
X76723714Y-80970476D01*
X76771333Y-81160952D01*
X76771333Y-81303809D01*
X76723714Y-81494285D01*
X76676095Y-81589523D01*
X76580857Y-81684761D01*
X76438000Y-81732380D01*
X76199904Y-81732380D01*
X94377238Y-78843142D02*
X94329619Y-78890761D01*
X94186761Y-78938380D01*
X94091523Y-78938380D01*
X93948666Y-78890761D01*
X93853428Y-78795523D01*
X93805809Y-78700285D01*
X93758190Y-78509809D01*
X93758190Y-78366952D01*
X93805809Y-78176476D01*
X93853428Y-78081238D01*
X93948666Y-77986000D01*
X94091523Y-77938380D01*
X94186761Y-77938380D01*
X94329619Y-77986000D01*
X94377238Y-78033619D01*
X94996285Y-77938380D02*
X95186761Y-77938380D01*
X95282000Y-77986000D01*
X95377238Y-78081238D01*
X95424857Y-78271714D01*
X95424857Y-78605047D01*
X95377238Y-78795523D01*
X95282000Y-78890761D01*
X95186761Y-78938380D01*
X94996285Y-78938380D01*
X94901047Y-78890761D01*
X94805809Y-78795523D01*
X94758190Y-78605047D01*
X94758190Y-78271714D01*
X94805809Y-78081238D01*
X94901047Y-77986000D01*
X94996285Y-77938380D01*
X95853428Y-78938380D02*
X95853428Y-77938380D01*
X96424857Y-78938380D01*
X96424857Y-77938380D01*
X96758190Y-77938380D02*
X97329619Y-77938380D01*
X97043904Y-78938380D02*
X97043904Y-77938380D01*
X98234380Y-78938380D02*
X97901047Y-78462190D01*
X97662952Y-78938380D02*
X97662952Y-77938380D01*
X98043904Y-77938380D01*
X98139142Y-77986000D01*
X98186761Y-78033619D01*
X98234380Y-78128857D01*
X98234380Y-78271714D01*
X98186761Y-78366952D01*
X98139142Y-78414571D01*
X98043904Y-78462190D01*
X97662952Y-78462190D01*
X98615333Y-78652666D02*
X99091523Y-78652666D01*
X98520095Y-78938380D02*
X98853428Y-77938380D01*
X99186761Y-78938380D01*
X99472476Y-78890761D02*
X99615333Y-78938380D01*
X99853428Y-78938380D01*
X99948666Y-78890761D01*
X99996285Y-78843142D01*
X100043904Y-78747904D01*
X100043904Y-78652666D01*
X99996285Y-78557428D01*
X99948666Y-78509809D01*
X99853428Y-78462190D01*
X99662952Y-78414571D01*
X99567714Y-78366952D01*
X99520095Y-78319333D01*
X99472476Y-78224095D01*
X99472476Y-78128857D01*
X99520095Y-78033619D01*
X99567714Y-77986000D01*
X99662952Y-77938380D01*
X99901047Y-77938380D01*
X100043904Y-77986000D01*
X100329619Y-77938380D02*
X100901047Y-77938380D01*
X100615333Y-78938380D02*
X100615333Y-77938380D01*
X53127619Y-122672380D02*
X52127619Y-123005714D01*
X53127619Y-123339047D01*
X52127619Y-123672380D02*
X53127619Y-123672380D01*
X52127619Y-124148571D02*
X53127619Y-124148571D01*
X53127619Y-124386666D01*
X53080000Y-124529523D01*
X52984761Y-124624761D01*
X52889523Y-124672380D01*
X52699047Y-124720000D01*
X52556190Y-124720000D01*
X52365714Y-124672380D01*
X52270476Y-124624761D01*
X52175238Y-124529523D01*
X52127619Y-124386666D01*
X52127619Y-124148571D01*
X52651428Y-125148571D02*
X52651428Y-125481904D01*
X52127619Y-125624761D02*
X52127619Y-125148571D01*
X53127619Y-125148571D01*
X53127619Y-125624761D01*
X53127619Y-126243809D02*
X53127619Y-126434285D01*
X53080000Y-126529523D01*
X52984761Y-126624761D01*
X52794285Y-126672380D01*
X52460952Y-126672380D01*
X52270476Y-126624761D01*
X52175238Y-126529523D01*
X52127619Y-126434285D01*
X52127619Y-126243809D01*
X52175238Y-126148571D01*
X52270476Y-126053333D01*
X52460952Y-126005714D01*
X52794285Y-126005714D01*
X52984761Y-126053333D01*
X53080000Y-126148571D01*
X53127619Y-126243809D01*
X63063619Y-73096380D02*
X62730285Y-72620190D01*
X62492190Y-73096380D02*
X62492190Y-72096380D01*
X62873142Y-72096380D01*
X62968380Y-72144000D01*
X63016000Y-72191619D01*
X63063619Y-72286857D01*
X63063619Y-72429714D01*
X63016000Y-72524952D01*
X62968380Y-72572571D01*
X62873142Y-72620190D01*
X62492190Y-72620190D01*
X63492190Y-72572571D02*
X63825523Y-72572571D01*
X63968380Y-73096380D02*
X63492190Y-73096380D01*
X63492190Y-72096380D01*
X63968380Y-72096380D01*
X64349333Y-73048761D02*
X64492190Y-73096380D01*
X64730285Y-73096380D01*
X64825523Y-73048761D01*
X64873142Y-73001142D01*
X64920761Y-72905904D01*
X64920761Y-72810666D01*
X64873142Y-72715428D01*
X64825523Y-72667809D01*
X64730285Y-72620190D01*
X64539809Y-72572571D01*
X64444571Y-72524952D01*
X64396952Y-72477333D01*
X64349333Y-72382095D01*
X64349333Y-72286857D01*
X64396952Y-72191619D01*
X64444571Y-72144000D01*
X64539809Y-72096380D01*
X64777904Y-72096380D01*
X64920761Y-72144000D01*
X65349333Y-72572571D02*
X65682666Y-72572571D01*
X65825523Y-73096380D02*
X65349333Y-73096380D01*
X65349333Y-72096380D01*
X65825523Y-72096380D01*
X66111238Y-72096380D02*
X66682666Y-72096380D01*
X66396952Y-73096380D02*
X66396952Y-72096380D01*
X82550095Y-136660000D02*
X82454857Y-136612380D01*
X82312000Y-136612380D01*
X82169142Y-136660000D01*
X82073904Y-136755238D01*
X82026285Y-136850476D01*
X81978666Y-137040952D01*
X81978666Y-137183809D01*
X82026285Y-137374285D01*
X82073904Y-137469523D01*
X82169142Y-137564761D01*
X82312000Y-137612380D01*
X82407238Y-137612380D01*
X82550095Y-137564761D01*
X82597714Y-137517142D01*
X82597714Y-137183809D01*
X82407238Y-137183809D01*
X83026285Y-137612380D02*
X83026285Y-136612380D01*
X83597714Y-137612380D01*
X83597714Y-136612380D01*
X84073904Y-137612380D02*
X84073904Y-136612380D01*
X84312000Y-136612380D01*
X84454857Y-136660000D01*
X84550095Y-136755238D01*
X84597714Y-136850476D01*
X84645333Y-137040952D01*
X84645333Y-137183809D01*
X84597714Y-137374285D01*
X84550095Y-137469523D01*
X84454857Y-137564761D01*
X84312000Y-137612380D01*
X84073904Y-137612380D01*
X79833333Y-115452380D02*
X79357142Y-115452380D01*
X79357142Y-114452380D01*
X80166666Y-115452380D02*
X80166666Y-114452380D01*
X80500000Y-115166666D01*
X80833333Y-114452380D01*
X80833333Y-115452380D01*
X81214285Y-114452380D02*
X81880952Y-114452380D01*
X81452380Y-115452380D01*
X82404761Y-114880952D02*
X82309523Y-114833333D01*
X82261904Y-114785714D01*
X82214285Y-114690476D01*
X82214285Y-114642857D01*
X82261904Y-114547619D01*
X82309523Y-114500000D01*
X82404761Y-114452380D01*
X82595238Y-114452380D01*
X82690476Y-114500000D01*
X82738095Y-114547619D01*
X82785714Y-114642857D01*
X82785714Y-114690476D01*
X82738095Y-114785714D01*
X82690476Y-114833333D01*
X82595238Y-114880952D01*
X82404761Y-114880952D01*
X82309523Y-114928571D01*
X82261904Y-114976190D01*
X82214285Y-115071428D01*
X82214285Y-115261904D01*
X82261904Y-115357142D01*
X82309523Y-115404761D01*
X82404761Y-115452380D01*
X82595238Y-115452380D01*
X82690476Y-115404761D01*
X82738095Y-115357142D01*
X82785714Y-115261904D01*
X82785714Y-115071428D01*
X82738095Y-114976190D01*
X82690476Y-114928571D01*
X82595238Y-114880952D01*
X83404761Y-114452380D02*
X83500000Y-114452380D01*
X83595238Y-114500000D01*
X83642857Y-114547619D01*
X83690476Y-114642857D01*
X83738095Y-114833333D01*
X83738095Y-115071428D01*
X83690476Y-115261904D01*
X83642857Y-115357142D01*
X83595238Y-115404761D01*
X83500000Y-115452380D01*
X83404761Y-115452380D01*
X83309523Y-115404761D01*
X83261904Y-115357142D01*
X83214285Y-115261904D01*
X83166666Y-115071428D01*
X83166666Y-114833333D01*
X83214285Y-114642857D01*
X83261904Y-114547619D01*
X83309523Y-114500000D01*
X83404761Y-114452380D01*
X84642857Y-114452380D02*
X84166666Y-114452380D01*
X84119047Y-114928571D01*
X84166666Y-114880952D01*
X84261904Y-114833333D01*
X84500000Y-114833333D01*
X84595238Y-114880952D01*
X84642857Y-114928571D01*
X84690476Y-115023809D01*
X84690476Y-115261904D01*
X84642857Y-115357142D01*
X84595238Y-115404761D01*
X84500000Y-115452380D01*
X84261904Y-115452380D01*
X84166666Y-115404761D01*
X84119047Y-115357142D01*
X92694285Y-73985428D02*
X93456190Y-73985428D01*
X93075238Y-74366380D02*
X93075238Y-73604476D01*
X94408571Y-73366380D02*
X93932380Y-73366380D01*
X93884761Y-73842571D01*
X93932380Y-73794952D01*
X94027619Y-73747333D01*
X94265714Y-73747333D01*
X94360952Y-73794952D01*
X94408571Y-73842571D01*
X94456190Y-73937809D01*
X94456190Y-74175904D01*
X94408571Y-74271142D01*
X94360952Y-74318761D01*
X94265714Y-74366380D01*
X94027619Y-74366380D01*
X93932380Y-74318761D01*
X93884761Y-74271142D01*
X94741904Y-73366380D02*
X95075238Y-74366380D01*
X95408571Y-73366380D01*
X93218095Y-65286000D02*
X93122857Y-65238380D01*
X92980000Y-65238380D01*
X92837142Y-65286000D01*
X92741904Y-65381238D01*
X92694285Y-65476476D01*
X92646666Y-65666952D01*
X92646666Y-65809809D01*
X92694285Y-66000285D01*
X92741904Y-66095523D01*
X92837142Y-66190761D01*
X92980000Y-66238380D01*
X93075238Y-66238380D01*
X93218095Y-66190761D01*
X93265714Y-66143142D01*
X93265714Y-65809809D01*
X93075238Y-65809809D01*
X93694285Y-66238380D02*
X93694285Y-65238380D01*
X94265714Y-66238380D01*
X94265714Y-65238380D01*
X94741904Y-66238380D02*
X94741904Y-65238380D01*
X94980000Y-65238380D01*
X95122857Y-65286000D01*
X95218095Y-65381238D01*
X95265714Y-65476476D01*
X95313333Y-65666952D01*
X95313333Y-65809809D01*
X95265714Y-66000285D01*
X95218095Y-66095523D01*
X95122857Y-66190761D01*
X94980000Y-66238380D01*
X94741904Y-66238380D01*
X93750190Y-88574571D02*
X94083523Y-88574571D01*
X94226380Y-89098380D02*
X93750190Y-89098380D01*
X93750190Y-88098380D01*
X94226380Y-88098380D01*
X94559714Y-88098380D02*
X95226380Y-89098380D01*
X95226380Y-88098380D02*
X94559714Y-89098380D01*
X95464476Y-88098380D02*
X96035904Y-88098380D01*
X95750190Y-89098380D02*
X95750190Y-88098380D01*
X97131142Y-89098380D02*
X97131142Y-88098380D01*
X97512095Y-88098380D01*
X97607333Y-88146000D01*
X97654952Y-88193619D01*
X97702571Y-88288857D01*
X97702571Y-88431714D01*
X97654952Y-88526952D01*
X97607333Y-88574571D01*
X97512095Y-88622190D01*
X97131142Y-88622190D01*
X98035904Y-88098380D02*
X98274000Y-89098380D01*
X98464476Y-88384095D01*
X98654952Y-89098380D01*
X98893047Y-88098380D01*
X99845428Y-89098380D02*
X99512095Y-88622190D01*
X99274000Y-89098380D02*
X99274000Y-88098380D01*
X99654952Y-88098380D01*
X99750190Y-88146000D01*
X99797809Y-88193619D01*
X99845428Y-88288857D01*
X99845428Y-88431714D01*
X99797809Y-88526952D01*
X99750190Y-88574571D01*
X99654952Y-88622190D01*
X99274000Y-88622190D01*
X76675714Y-116962380D02*
X76104285Y-116962380D01*
X76390000Y-116962380D02*
X76390000Y-115962380D01*
X76294761Y-116105238D01*
X76199523Y-116200476D01*
X76104285Y-116248095D01*
X82216666Y-99662857D02*
X82216666Y-99186666D01*
X82502380Y-99758095D02*
X81502380Y-99424761D01*
X82502380Y-99091428D01*
X81502380Y-98900952D02*
X81502380Y-98329523D01*
X82502380Y-98615238D02*
X81502380Y-98615238D01*
X82502380Y-97996190D02*
X81502380Y-97996190D01*
X82216666Y-97662857D01*
X81502380Y-97329523D01*
X82502380Y-97329523D01*
X81978571Y-96853333D02*
X81978571Y-96520000D01*
X82502380Y-96377142D02*
X82502380Y-96853333D01*
X81502380Y-96853333D01*
X81502380Y-96377142D01*
X81550000Y-95424761D02*
X81502380Y-95520000D01*
X81502380Y-95662857D01*
X81550000Y-95805714D01*
X81645238Y-95900952D01*
X81740476Y-95948571D01*
X81930952Y-95996190D01*
X82073809Y-95996190D01*
X82264285Y-95948571D01*
X82359523Y-95900952D01*
X82454761Y-95805714D01*
X82502380Y-95662857D01*
X82502380Y-95567619D01*
X82454761Y-95424761D01*
X82407142Y-95377142D01*
X82073809Y-95377142D01*
X82073809Y-95567619D01*
X82216666Y-94996190D02*
X82216666Y-94520000D01*
X82502380Y-95091428D02*
X81502380Y-94758095D01*
X82502380Y-94424761D01*
X81502380Y-94186666D02*
X81502380Y-93567619D01*
X81883333Y-93900952D01*
X81883333Y-93758095D01*
X81930952Y-93662857D01*
X81978571Y-93615238D01*
X82073809Y-93567619D01*
X82311904Y-93567619D01*
X82407142Y-93615238D01*
X82454761Y-93662857D01*
X82502380Y-93758095D01*
X82502380Y-94043809D01*
X82454761Y-94139047D01*
X82407142Y-94186666D01*
X81597619Y-93186666D02*
X81550000Y-93139047D01*
X81502380Y-93043809D01*
X81502380Y-92805714D01*
X81550000Y-92710476D01*
X81597619Y-92662857D01*
X81692857Y-92615238D01*
X81788095Y-92615238D01*
X81930952Y-92662857D01*
X82502380Y-93234285D01*
X82502380Y-92615238D01*
X81930952Y-92043809D02*
X81883333Y-92139047D01*
X81835714Y-92186666D01*
X81740476Y-92234285D01*
X81692857Y-92234285D01*
X81597619Y-92186666D01*
X81550000Y-92139047D01*
X81502380Y-92043809D01*
X81502380Y-91853333D01*
X81550000Y-91758095D01*
X81597619Y-91710476D01*
X81692857Y-91662857D01*
X81740476Y-91662857D01*
X81835714Y-91710476D01*
X81883333Y-91758095D01*
X81930952Y-91853333D01*
X81930952Y-92043809D01*
X81978571Y-92139047D01*
X82026190Y-92186666D01*
X82121428Y-92234285D01*
X82311904Y-92234285D01*
X82407142Y-92186666D01*
X82454761Y-92139047D01*
X82502380Y-92043809D01*
X82502380Y-91853333D01*
X82454761Y-91758095D01*
X82407142Y-91710476D01*
X82311904Y-91662857D01*
X82121428Y-91662857D01*
X82026190Y-91710476D01*
X81978571Y-91758095D01*
X81930952Y-91853333D01*
X82502380Y-91234285D02*
X81502380Y-91234285D01*
X81502380Y-90853333D01*
X81550000Y-90758095D01*
X81597619Y-90710476D01*
X81692857Y-90662857D01*
X81835714Y-90662857D01*
X81930952Y-90710476D01*
X81978571Y-90758095D01*
X82026190Y-90853333D01*
X82026190Y-91234285D01*
X82121428Y-90234285D02*
X82121428Y-89472380D01*
X82502380Y-88996190D02*
X81502380Y-88996190D01*
X81502380Y-88615238D01*
X81550000Y-88520000D01*
X81597619Y-88472380D01*
X81692857Y-88424761D01*
X81835714Y-88424761D01*
X81930952Y-88472380D01*
X81978571Y-88520000D01*
X82026190Y-88615238D01*
X82026190Y-88996190D01*
X81502380Y-87996190D02*
X82311904Y-87996190D01*
X82407142Y-87948571D01*
X82454761Y-87900952D01*
X82502380Y-87805714D01*
X82502380Y-87615238D01*
X82454761Y-87520000D01*
X82407142Y-87472380D01*
X82311904Y-87424761D01*
X81502380Y-87424761D01*
X97855714Y-95242380D02*
X97284285Y-95242380D01*
X97570000Y-95242380D02*
X97570000Y-94242380D01*
X97474761Y-94385238D01*
X97379523Y-94480476D01*
X97284285Y-94528095D01*
X88074666Y-70048380D02*
X88074666Y-69048380D01*
X88455619Y-69048380D01*
X88550857Y-69096000D01*
X88598476Y-69143619D01*
X88646095Y-69238857D01*
X88646095Y-69381714D01*
X88598476Y-69476952D01*
X88550857Y-69524571D01*
X88455619Y-69572190D01*
X88074666Y-69572190D01*
X88979428Y-69048380D02*
X89217523Y-70048380D01*
X89408000Y-69334095D01*
X89598476Y-70048380D01*
X89836571Y-69048380D01*
X90788952Y-70048380D02*
X90455619Y-69572190D01*
X90217523Y-70048380D02*
X90217523Y-69048380D01*
X90598476Y-69048380D01*
X90693714Y-69096000D01*
X90741333Y-69143619D01*
X90788952Y-69238857D01*
X90788952Y-69381714D01*
X90741333Y-69476952D01*
X90693714Y-69524571D01*
X90598476Y-69572190D01*
X90217523Y-69572190D01*
%TO.C,C1*%
X75753333Y-120287142D02*
X75705714Y-120334761D01*
X75562857Y-120382380D01*
X75467619Y-120382380D01*
X75324761Y-120334761D01*
X75229523Y-120239523D01*
X75181904Y-120144285D01*
X75134285Y-119953809D01*
X75134285Y-119810952D01*
X75181904Y-119620476D01*
X75229523Y-119525238D01*
X75324761Y-119430000D01*
X75467619Y-119382380D01*
X75562857Y-119382380D01*
X75705714Y-119430000D01*
X75753333Y-119477619D01*
X76705714Y-120382380D02*
X76134285Y-120382380D01*
X76420000Y-120382380D02*
X76420000Y-119382380D01*
X76324761Y-119525238D01*
X76229523Y-119620476D01*
X76134285Y-119668095D01*
%TO.C,C2*%
X70667142Y-66846666D02*
X70714761Y-66894285D01*
X70762380Y-67037142D01*
X70762380Y-67132380D01*
X70714761Y-67275238D01*
X70619523Y-67370476D01*
X70524285Y-67418095D01*
X70333809Y-67465714D01*
X70190952Y-67465714D01*
X70000476Y-67418095D01*
X69905238Y-67370476D01*
X69810000Y-67275238D01*
X69762380Y-67132380D01*
X69762380Y-67037142D01*
X69810000Y-66894285D01*
X69857619Y-66846666D01*
X69857619Y-66465714D02*
X69810000Y-66418095D01*
X69762380Y-66322857D01*
X69762380Y-66084761D01*
X69810000Y-65989523D01*
X69857619Y-65941904D01*
X69952857Y-65894285D01*
X70048095Y-65894285D01*
X70190952Y-65941904D01*
X70762380Y-66513333D01*
X70762380Y-65894285D01*
%TO.C,C3*%
X55713333Y-76303142D02*
X55665714Y-76350761D01*
X55522857Y-76398380D01*
X55427619Y-76398380D01*
X55284761Y-76350761D01*
X55189523Y-76255523D01*
X55141904Y-76160285D01*
X55094285Y-75969809D01*
X55094285Y-75826952D01*
X55141904Y-75636476D01*
X55189523Y-75541238D01*
X55284761Y-75446000D01*
X55427619Y-75398380D01*
X55522857Y-75398380D01*
X55665714Y-75446000D01*
X55713333Y-75493619D01*
X56046666Y-75398380D02*
X56665714Y-75398380D01*
X56332380Y-75779333D01*
X56475238Y-75779333D01*
X56570476Y-75826952D01*
X56618095Y-75874571D01*
X56665714Y-75969809D01*
X56665714Y-76207904D01*
X56618095Y-76303142D01*
X56570476Y-76350761D01*
X56475238Y-76398380D01*
X56189523Y-76398380D01*
X56094285Y-76350761D01*
X56046666Y-76303142D01*
%TO.C,C4*%
X72973333Y-85337142D02*
X72925714Y-85384761D01*
X72782857Y-85432380D01*
X72687619Y-85432380D01*
X72544761Y-85384761D01*
X72449523Y-85289523D01*
X72401904Y-85194285D01*
X72354285Y-85003809D01*
X72354285Y-84860952D01*
X72401904Y-84670476D01*
X72449523Y-84575238D01*
X72544761Y-84480000D01*
X72687619Y-84432380D01*
X72782857Y-84432380D01*
X72925714Y-84480000D01*
X72973333Y-84527619D01*
X73830476Y-84765714D02*
X73830476Y-85432380D01*
X73592380Y-84384761D02*
X73354285Y-85099047D01*
X73973333Y-85099047D01*
%TO.C,C5*%
X68977142Y-89706666D02*
X69024761Y-89754285D01*
X69072380Y-89897142D01*
X69072380Y-89992380D01*
X69024761Y-90135238D01*
X68929523Y-90230476D01*
X68834285Y-90278095D01*
X68643809Y-90325714D01*
X68500952Y-90325714D01*
X68310476Y-90278095D01*
X68215238Y-90230476D01*
X68120000Y-90135238D01*
X68072380Y-89992380D01*
X68072380Y-89897142D01*
X68120000Y-89754285D01*
X68167619Y-89706666D01*
X68072380Y-88801904D02*
X68072380Y-89278095D01*
X68548571Y-89325714D01*
X68500952Y-89278095D01*
X68453333Y-89182857D01*
X68453333Y-88944761D01*
X68500952Y-88849523D01*
X68548571Y-88801904D01*
X68643809Y-88754285D01*
X68881904Y-88754285D01*
X68977142Y-88801904D01*
X69024761Y-88849523D01*
X69072380Y-88944761D01*
X69072380Y-89182857D01*
X69024761Y-89278095D01*
X68977142Y-89325714D01*
%TO.C,C6*%
X68807142Y-97286666D02*
X68854761Y-97334285D01*
X68902380Y-97477142D01*
X68902380Y-97572380D01*
X68854761Y-97715238D01*
X68759523Y-97810476D01*
X68664285Y-97858095D01*
X68473809Y-97905714D01*
X68330952Y-97905714D01*
X68140476Y-97858095D01*
X68045238Y-97810476D01*
X67950000Y-97715238D01*
X67902380Y-97572380D01*
X67902380Y-97477142D01*
X67950000Y-97334285D01*
X67997619Y-97286666D01*
X67902380Y-96429523D02*
X67902380Y-96620000D01*
X67950000Y-96715238D01*
X67997619Y-96762857D01*
X68140476Y-96858095D01*
X68330952Y-96905714D01*
X68711904Y-96905714D01*
X68807142Y-96858095D01*
X68854761Y-96810476D01*
X68902380Y-96715238D01*
X68902380Y-96524761D01*
X68854761Y-96429523D01*
X68807142Y-96381904D01*
X68711904Y-96334285D01*
X68473809Y-96334285D01*
X68378571Y-96381904D01*
X68330952Y-96429523D01*
X68283333Y-96524761D01*
X68283333Y-96715238D01*
X68330952Y-96810476D01*
X68378571Y-96858095D01*
X68473809Y-96905714D01*
%TO.C,C7*%
X101347142Y-115466666D02*
X101394761Y-115514285D01*
X101442380Y-115657142D01*
X101442380Y-115752380D01*
X101394761Y-115895238D01*
X101299523Y-115990476D01*
X101204285Y-116038095D01*
X101013809Y-116085714D01*
X100870952Y-116085714D01*
X100680476Y-116038095D01*
X100585238Y-115990476D01*
X100490000Y-115895238D01*
X100442380Y-115752380D01*
X100442380Y-115657142D01*
X100490000Y-115514285D01*
X100537619Y-115466666D01*
X100442380Y-115133333D02*
X100442380Y-114466666D01*
X101442380Y-114895238D01*
%TO.C,C8*%
X86313333Y-119997142D02*
X86265714Y-120044761D01*
X86122857Y-120092380D01*
X86027619Y-120092380D01*
X85884761Y-120044761D01*
X85789523Y-119949523D01*
X85741904Y-119854285D01*
X85694285Y-119663809D01*
X85694285Y-119520952D01*
X85741904Y-119330476D01*
X85789523Y-119235238D01*
X85884761Y-119140000D01*
X86027619Y-119092380D01*
X86122857Y-119092380D01*
X86265714Y-119140000D01*
X86313333Y-119187619D01*
X86884761Y-119520952D02*
X86789523Y-119473333D01*
X86741904Y-119425714D01*
X86694285Y-119330476D01*
X86694285Y-119282857D01*
X86741904Y-119187619D01*
X86789523Y-119140000D01*
X86884761Y-119092380D01*
X87075238Y-119092380D01*
X87170476Y-119140000D01*
X87218095Y-119187619D01*
X87265714Y-119282857D01*
X87265714Y-119330476D01*
X87218095Y-119425714D01*
X87170476Y-119473333D01*
X87075238Y-119520952D01*
X86884761Y-119520952D01*
X86789523Y-119568571D01*
X86741904Y-119616190D01*
X86694285Y-119711428D01*
X86694285Y-119901904D01*
X86741904Y-119997142D01*
X86789523Y-120044761D01*
X86884761Y-120092380D01*
X87075238Y-120092380D01*
X87170476Y-120044761D01*
X87218095Y-119997142D01*
X87265714Y-119901904D01*
X87265714Y-119711428D01*
X87218095Y-119616190D01*
X87170476Y-119568571D01*
X87075238Y-119520952D01*
%TO.C,D1*%
X78790380Y-69410095D02*
X77790380Y-69410095D01*
X77790380Y-69172000D01*
X77838000Y-69029142D01*
X77933238Y-68933904D01*
X78028476Y-68886285D01*
X78218952Y-68838666D01*
X78361809Y-68838666D01*
X78552285Y-68886285D01*
X78647523Y-68933904D01*
X78742761Y-69029142D01*
X78790380Y-69172000D01*
X78790380Y-69410095D01*
X78790380Y-67886285D02*
X78790380Y-68457714D01*
X78790380Y-68172000D02*
X77790380Y-68172000D01*
X77933238Y-68267238D01*
X78028476Y-68362476D01*
X78076095Y-68457714D01*
%TO.C,D2*%
X89766380Y-99606095D02*
X88766380Y-99606095D01*
X88766380Y-99368000D01*
X88814000Y-99225142D01*
X88909238Y-99129904D01*
X89004476Y-99082285D01*
X89194952Y-99034666D01*
X89337809Y-99034666D01*
X89528285Y-99082285D01*
X89623523Y-99129904D01*
X89718761Y-99225142D01*
X89766380Y-99368000D01*
X89766380Y-99606095D01*
X88861619Y-98653714D02*
X88814000Y-98606095D01*
X88766380Y-98510857D01*
X88766380Y-98272761D01*
X88814000Y-98177523D01*
X88861619Y-98129904D01*
X88956857Y-98082285D01*
X89052095Y-98082285D01*
X89194952Y-98129904D01*
X89766380Y-98701333D01*
X89766380Y-98082285D01*
%TO.C,D3*%
X89832380Y-110038095D02*
X88832380Y-110038095D01*
X88832380Y-109800000D01*
X88880000Y-109657142D01*
X88975238Y-109561904D01*
X89070476Y-109514285D01*
X89260952Y-109466666D01*
X89403809Y-109466666D01*
X89594285Y-109514285D01*
X89689523Y-109561904D01*
X89784761Y-109657142D01*
X89832380Y-109800000D01*
X89832380Y-110038095D01*
X88832380Y-109133333D02*
X88832380Y-108514285D01*
X89213333Y-108847619D01*
X89213333Y-108704761D01*
X89260952Y-108609523D01*
X89308571Y-108561904D01*
X89403809Y-108514285D01*
X89641904Y-108514285D01*
X89737142Y-108561904D01*
X89784761Y-108609523D01*
X89832380Y-108704761D01*
X89832380Y-108990476D01*
X89784761Y-109085714D01*
X89737142Y-109133333D01*
%TO.C,J1*%
X73822380Y-138243333D02*
X74536666Y-138243333D01*
X74679523Y-138290952D01*
X74774761Y-138386190D01*
X74822380Y-138529047D01*
X74822380Y-138624285D01*
X74822380Y-137243333D02*
X74822380Y-137814761D01*
X74822380Y-137529047D02*
X73822380Y-137529047D01*
X73965238Y-137624285D01*
X74060476Y-137719523D01*
X74108095Y-137814761D01*
%TO.C,J4*%
X99386666Y-94282380D02*
X99386666Y-94996666D01*
X99339047Y-95139523D01*
X99243809Y-95234761D01*
X99100952Y-95282380D01*
X99005714Y-95282380D01*
X100291428Y-94615714D02*
X100291428Y-95282380D01*
X100053333Y-94234761D02*
X99815238Y-94949047D01*
X100434285Y-94949047D01*
%TO.C,J7*%
X97456666Y-63162380D02*
X97456666Y-63876666D01*
X97409047Y-64019523D01*
X97313809Y-64114761D01*
X97170952Y-64162380D01*
X97075714Y-64162380D01*
X97837619Y-63162380D02*
X98504285Y-63162380D01*
X98075714Y-64162380D01*
%TO.C,J8*%
X71802666Y-83062380D02*
X71802666Y-83776666D01*
X71755047Y-83919523D01*
X71659809Y-84014761D01*
X71516952Y-84062380D01*
X71421714Y-84062380D01*
X72421714Y-83490952D02*
X72326476Y-83443333D01*
X72278857Y-83395714D01*
X72231238Y-83300476D01*
X72231238Y-83252857D01*
X72278857Y-83157619D01*
X72326476Y-83110000D01*
X72421714Y-83062380D01*
X72612190Y-83062380D01*
X72707428Y-83110000D01*
X72755047Y-83157619D01*
X72802666Y-83252857D01*
X72802666Y-83300476D01*
X72755047Y-83395714D01*
X72707428Y-83443333D01*
X72612190Y-83490952D01*
X72421714Y-83490952D01*
X72326476Y-83538571D01*
X72278857Y-83586190D01*
X72231238Y-83681428D01*
X72231238Y-83871904D01*
X72278857Y-83967142D01*
X72326476Y-84014761D01*
X72421714Y-84062380D01*
X72612190Y-84062380D01*
X72707428Y-84014761D01*
X72755047Y-83967142D01*
X72802666Y-83871904D01*
X72802666Y-83681428D01*
X72755047Y-83586190D01*
X72707428Y-83538571D01*
X72612190Y-83490952D01*
%TO.C,JP1*%
X92602380Y-91973333D02*
X93316666Y-91973333D01*
X93459523Y-92020952D01*
X93554761Y-92116190D01*
X93602380Y-92259047D01*
X93602380Y-92354285D01*
X93602380Y-91497142D02*
X92602380Y-91497142D01*
X92602380Y-91116190D01*
X92650000Y-91020952D01*
X92697619Y-90973333D01*
X92792857Y-90925714D01*
X92935714Y-90925714D01*
X93030952Y-90973333D01*
X93078571Y-91020952D01*
X93126190Y-91116190D01*
X93126190Y-91497142D01*
X93602380Y-89973333D02*
X93602380Y-90544761D01*
X93602380Y-90259047D02*
X92602380Y-90259047D01*
X92745238Y-90354285D01*
X92840476Y-90449523D01*
X92888095Y-90544761D01*
%TO.C,P1*%
X65476380Y-85828095D02*
X64476380Y-85828095D01*
X64476380Y-85447142D01*
X64524000Y-85351904D01*
X64571619Y-85304285D01*
X64666857Y-85256666D01*
X64809714Y-85256666D01*
X64904952Y-85304285D01*
X64952571Y-85351904D01*
X65000190Y-85447142D01*
X65000190Y-85828095D01*
X65476380Y-84304285D02*
X65476380Y-84875714D01*
X65476380Y-84590000D02*
X64476380Y-84590000D01*
X64619238Y-84685238D01*
X64714476Y-84780476D01*
X64762095Y-84875714D01*
%TO.C,R1*%
X81962380Y-68676666D02*
X81486190Y-69010000D01*
X81962380Y-69248095D02*
X80962380Y-69248095D01*
X80962380Y-68867142D01*
X81010000Y-68771904D01*
X81057619Y-68724285D01*
X81152857Y-68676666D01*
X81295714Y-68676666D01*
X81390952Y-68724285D01*
X81438571Y-68771904D01*
X81486190Y-68867142D01*
X81486190Y-69248095D01*
X81962380Y-67724285D02*
X81962380Y-68295714D01*
X81962380Y-68010000D02*
X80962380Y-68010000D01*
X81105238Y-68105238D01*
X81200476Y-68200476D01*
X81248095Y-68295714D01*
%TO.C,R2*%
X105608380Y-69040666D02*
X105132190Y-69374000D01*
X105608380Y-69612095D02*
X104608380Y-69612095D01*
X104608380Y-69231142D01*
X104656000Y-69135904D01*
X104703619Y-69088285D01*
X104798857Y-69040666D01*
X104941714Y-69040666D01*
X105036952Y-69088285D01*
X105084571Y-69135904D01*
X105132190Y-69231142D01*
X105132190Y-69612095D01*
X104703619Y-68659714D02*
X104656000Y-68612095D01*
X104608380Y-68516857D01*
X104608380Y-68278761D01*
X104656000Y-68183523D01*
X104703619Y-68135904D01*
X104798857Y-68088285D01*
X104894095Y-68088285D01*
X105036952Y-68135904D01*
X105608380Y-68707333D01*
X105608380Y-68088285D01*
%TO.C,R3*%
X102162380Y-68930666D02*
X101686190Y-69264000D01*
X102162380Y-69502095D02*
X101162380Y-69502095D01*
X101162380Y-69121142D01*
X101210000Y-69025904D01*
X101257619Y-68978285D01*
X101352857Y-68930666D01*
X101495714Y-68930666D01*
X101590952Y-68978285D01*
X101638571Y-69025904D01*
X101686190Y-69121142D01*
X101686190Y-69502095D01*
X101162380Y-68597333D02*
X101162380Y-67978285D01*
X101543333Y-68311619D01*
X101543333Y-68168761D01*
X101590952Y-68073523D01*
X101638571Y-68025904D01*
X101733809Y-67978285D01*
X101971904Y-67978285D01*
X102067142Y-68025904D01*
X102114761Y-68073523D01*
X102162380Y-68168761D01*
X102162380Y-68454476D01*
X102114761Y-68549714D01*
X102067142Y-68597333D01*
%TO.C,R4*%
X68713333Y-107712380D02*
X68380000Y-107236190D01*
X68141904Y-107712380D02*
X68141904Y-106712380D01*
X68522857Y-106712380D01*
X68618095Y-106760000D01*
X68665714Y-106807619D01*
X68713333Y-106902857D01*
X68713333Y-107045714D01*
X68665714Y-107140952D01*
X68618095Y-107188571D01*
X68522857Y-107236190D01*
X68141904Y-107236190D01*
X69570476Y-107045714D02*
X69570476Y-107712380D01*
X69332380Y-106664761D02*
X69094285Y-107379047D01*
X69713333Y-107379047D01*
%TO.C,R5*%
X57203333Y-118102380D02*
X56870000Y-117626190D01*
X56631904Y-118102380D02*
X56631904Y-117102380D01*
X57012857Y-117102380D01*
X57108095Y-117150000D01*
X57155714Y-117197619D01*
X57203333Y-117292857D01*
X57203333Y-117435714D01*
X57155714Y-117530952D01*
X57108095Y-117578571D01*
X57012857Y-117626190D01*
X56631904Y-117626190D01*
X58108095Y-117102380D02*
X57631904Y-117102380D01*
X57584285Y-117578571D01*
X57631904Y-117530952D01*
X57727142Y-117483333D01*
X57965238Y-117483333D01*
X58060476Y-117530952D01*
X58108095Y-117578571D01*
X58155714Y-117673809D01*
X58155714Y-117911904D01*
X58108095Y-118007142D01*
X58060476Y-118054761D01*
X57965238Y-118102380D01*
X57727142Y-118102380D01*
X57631904Y-118054761D01*
X57584285Y-118007142D01*
%TO.C,R6*%
X109164380Y-69180666D02*
X108688190Y-69514000D01*
X109164380Y-69752095D02*
X108164380Y-69752095D01*
X108164380Y-69371142D01*
X108212000Y-69275904D01*
X108259619Y-69228285D01*
X108354857Y-69180666D01*
X108497714Y-69180666D01*
X108592952Y-69228285D01*
X108640571Y-69275904D01*
X108688190Y-69371142D01*
X108688190Y-69752095D01*
X108164380Y-68323523D02*
X108164380Y-68514000D01*
X108212000Y-68609238D01*
X108259619Y-68656857D01*
X108402476Y-68752095D01*
X108592952Y-68799714D01*
X108973904Y-68799714D01*
X109069142Y-68752095D01*
X109116761Y-68704476D01*
X109164380Y-68609238D01*
X109164380Y-68418761D01*
X109116761Y-68323523D01*
X109069142Y-68275904D01*
X108973904Y-68228285D01*
X108735809Y-68228285D01*
X108640571Y-68275904D01*
X108592952Y-68323523D01*
X108545333Y-68418761D01*
X108545333Y-68609238D01*
X108592952Y-68704476D01*
X108640571Y-68752095D01*
X108735809Y-68799714D01*
%TO.C,R7*%
X68233333Y-117382380D02*
X67900000Y-116906190D01*
X67661904Y-117382380D02*
X67661904Y-116382380D01*
X68042857Y-116382380D01*
X68138095Y-116430000D01*
X68185714Y-116477619D01*
X68233333Y-116572857D01*
X68233333Y-116715714D01*
X68185714Y-116810952D01*
X68138095Y-116858571D01*
X68042857Y-116906190D01*
X67661904Y-116906190D01*
X68566666Y-116382380D02*
X69233333Y-116382380D01*
X68804761Y-117382380D01*
%TO.C,R8*%
X68473333Y-114192380D02*
X68140000Y-113716190D01*
X67901904Y-114192380D02*
X67901904Y-113192380D01*
X68282857Y-113192380D01*
X68378095Y-113240000D01*
X68425714Y-113287619D01*
X68473333Y-113382857D01*
X68473333Y-113525714D01*
X68425714Y-113620952D01*
X68378095Y-113668571D01*
X68282857Y-113716190D01*
X67901904Y-113716190D01*
X69044761Y-113620952D02*
X68949523Y-113573333D01*
X68901904Y-113525714D01*
X68854285Y-113430476D01*
X68854285Y-113382857D01*
X68901904Y-113287619D01*
X68949523Y-113240000D01*
X69044761Y-113192380D01*
X69235238Y-113192380D01*
X69330476Y-113240000D01*
X69378095Y-113287619D01*
X69425714Y-113382857D01*
X69425714Y-113430476D01*
X69378095Y-113525714D01*
X69330476Y-113573333D01*
X69235238Y-113620952D01*
X69044761Y-113620952D01*
X68949523Y-113668571D01*
X68901904Y-113716190D01*
X68854285Y-113811428D01*
X68854285Y-114001904D01*
X68901904Y-114097142D01*
X68949523Y-114144761D01*
X69044761Y-114192380D01*
X69235238Y-114192380D01*
X69330476Y-114144761D01*
X69378095Y-114097142D01*
X69425714Y-114001904D01*
X69425714Y-113811428D01*
X69378095Y-113716190D01*
X69330476Y-113668571D01*
X69235238Y-113620952D01*
%TO.C,R9*%
X92702380Y-110956666D02*
X92226190Y-111290000D01*
X92702380Y-111528095D02*
X91702380Y-111528095D01*
X91702380Y-111147142D01*
X91750000Y-111051904D01*
X91797619Y-111004285D01*
X91892857Y-110956666D01*
X92035714Y-110956666D01*
X92130952Y-111004285D01*
X92178571Y-111051904D01*
X92226190Y-111147142D01*
X92226190Y-111528095D01*
X92702380Y-110480476D02*
X92702380Y-110290000D01*
X92654761Y-110194761D01*
X92607142Y-110147142D01*
X92464285Y-110051904D01*
X92273809Y-110004285D01*
X91892857Y-110004285D01*
X91797619Y-110051904D01*
X91750000Y-110099523D01*
X91702380Y-110194761D01*
X91702380Y-110385238D01*
X91750000Y-110480476D01*
X91797619Y-110528095D01*
X91892857Y-110575714D01*
X92130952Y-110575714D01*
X92226190Y-110528095D01*
X92273809Y-110480476D01*
X92321428Y-110385238D01*
X92321428Y-110194761D01*
X92273809Y-110099523D01*
X92226190Y-110051904D01*
X92130952Y-110004285D01*
%TO.C,R10*%
X117592380Y-83522857D02*
X117116190Y-83856190D01*
X117592380Y-84094285D02*
X116592380Y-84094285D01*
X116592380Y-83713333D01*
X116640000Y-83618095D01*
X116687619Y-83570476D01*
X116782857Y-83522857D01*
X116925714Y-83522857D01*
X117020952Y-83570476D01*
X117068571Y-83618095D01*
X117116190Y-83713333D01*
X117116190Y-84094285D01*
X117592380Y-82570476D02*
X117592380Y-83141904D01*
X117592380Y-82856190D02*
X116592380Y-82856190D01*
X116735238Y-82951428D01*
X116830476Y-83046666D01*
X116878095Y-83141904D01*
X116592380Y-81951428D02*
X116592380Y-81856190D01*
X116640000Y-81760952D01*
X116687619Y-81713333D01*
X116782857Y-81665714D01*
X116973333Y-81618095D01*
X117211428Y-81618095D01*
X117401904Y-81665714D01*
X117497142Y-81713333D01*
X117544761Y-81760952D01*
X117592380Y-81856190D01*
X117592380Y-81951428D01*
X117544761Y-82046666D01*
X117497142Y-82094285D01*
X117401904Y-82141904D01*
X117211428Y-82189523D01*
X116973333Y-82189523D01*
X116782857Y-82141904D01*
X116687619Y-82094285D01*
X116640000Y-82046666D01*
X116592380Y-81951428D01*
%TO.C,R11*%
X120932380Y-83562857D02*
X120456190Y-83896190D01*
X120932380Y-84134285D02*
X119932380Y-84134285D01*
X119932380Y-83753333D01*
X119980000Y-83658095D01*
X120027619Y-83610476D01*
X120122857Y-83562857D01*
X120265714Y-83562857D01*
X120360952Y-83610476D01*
X120408571Y-83658095D01*
X120456190Y-83753333D01*
X120456190Y-84134285D01*
X120932380Y-82610476D02*
X120932380Y-83181904D01*
X120932380Y-82896190D02*
X119932380Y-82896190D01*
X120075238Y-82991428D01*
X120170476Y-83086666D01*
X120218095Y-83181904D01*
X120932380Y-81658095D02*
X120932380Y-82229523D01*
X120932380Y-81943809D02*
X119932380Y-81943809D01*
X120075238Y-82039047D01*
X120170476Y-82134285D01*
X120218095Y-82229523D01*
%TO.C,R12*%
X110982380Y-83152857D02*
X110506190Y-83486190D01*
X110982380Y-83724285D02*
X109982380Y-83724285D01*
X109982380Y-83343333D01*
X110030000Y-83248095D01*
X110077619Y-83200476D01*
X110172857Y-83152857D01*
X110315714Y-83152857D01*
X110410952Y-83200476D01*
X110458571Y-83248095D01*
X110506190Y-83343333D01*
X110506190Y-83724285D01*
X110982380Y-82200476D02*
X110982380Y-82771904D01*
X110982380Y-82486190D02*
X109982380Y-82486190D01*
X110125238Y-82581428D01*
X110220476Y-82676666D01*
X110268095Y-82771904D01*
X110077619Y-81819523D02*
X110030000Y-81771904D01*
X109982380Y-81676666D01*
X109982380Y-81438571D01*
X110030000Y-81343333D01*
X110077619Y-81295714D01*
X110172857Y-81248095D01*
X110268095Y-81248095D01*
X110410952Y-81295714D01*
X110982380Y-81867142D01*
X110982380Y-81248095D01*
%TO.C,R13*%
X114382380Y-83132857D02*
X113906190Y-83466190D01*
X114382380Y-83704285D02*
X113382380Y-83704285D01*
X113382380Y-83323333D01*
X113430000Y-83228095D01*
X113477619Y-83180476D01*
X113572857Y-83132857D01*
X113715714Y-83132857D01*
X113810952Y-83180476D01*
X113858571Y-83228095D01*
X113906190Y-83323333D01*
X113906190Y-83704285D01*
X114382380Y-82180476D02*
X114382380Y-82751904D01*
X114382380Y-82466190D02*
X113382380Y-82466190D01*
X113525238Y-82561428D01*
X113620476Y-82656666D01*
X113668095Y-82751904D01*
X113382380Y-81847142D02*
X113382380Y-81228095D01*
X113763333Y-81561428D01*
X113763333Y-81418571D01*
X113810952Y-81323333D01*
X113858571Y-81275714D01*
X113953809Y-81228095D01*
X114191904Y-81228095D01*
X114287142Y-81275714D01*
X114334761Y-81323333D01*
X114382380Y-81418571D01*
X114382380Y-81704285D01*
X114334761Y-81799523D01*
X114287142Y-81847142D01*
%TO.C,R14*%
X107322380Y-93482857D02*
X106846190Y-93816190D01*
X107322380Y-94054285D02*
X106322380Y-94054285D01*
X106322380Y-93673333D01*
X106370000Y-93578095D01*
X106417619Y-93530476D01*
X106512857Y-93482857D01*
X106655714Y-93482857D01*
X106750952Y-93530476D01*
X106798571Y-93578095D01*
X106846190Y-93673333D01*
X106846190Y-94054285D01*
X107322380Y-92530476D02*
X107322380Y-93101904D01*
X107322380Y-92816190D02*
X106322380Y-92816190D01*
X106465238Y-92911428D01*
X106560476Y-93006666D01*
X106608095Y-93101904D01*
X106655714Y-91673333D02*
X107322380Y-91673333D01*
X106274761Y-91911428D02*
X106989047Y-92149523D01*
X106989047Y-91530476D01*
%TO.C,R15*%
X110322380Y-93542857D02*
X109846190Y-93876190D01*
X110322380Y-94114285D02*
X109322380Y-94114285D01*
X109322380Y-93733333D01*
X109370000Y-93638095D01*
X109417619Y-93590476D01*
X109512857Y-93542857D01*
X109655714Y-93542857D01*
X109750952Y-93590476D01*
X109798571Y-93638095D01*
X109846190Y-93733333D01*
X109846190Y-94114285D01*
X110322380Y-92590476D02*
X110322380Y-93161904D01*
X110322380Y-92876190D02*
X109322380Y-92876190D01*
X109465238Y-92971428D01*
X109560476Y-93066666D01*
X109608095Y-93161904D01*
X109322380Y-91685714D02*
X109322380Y-92161904D01*
X109798571Y-92209523D01*
X109750952Y-92161904D01*
X109703333Y-92066666D01*
X109703333Y-91828571D01*
X109750952Y-91733333D01*
X109798571Y-91685714D01*
X109893809Y-91638095D01*
X110131904Y-91638095D01*
X110227142Y-91685714D01*
X110274761Y-91733333D01*
X110322380Y-91828571D01*
X110322380Y-92066666D01*
X110274761Y-92161904D01*
X110227142Y-92209523D01*
%TO.C,R16*%
X57642380Y-100202857D02*
X57166190Y-100536190D01*
X57642380Y-100774285D02*
X56642380Y-100774285D01*
X56642380Y-100393333D01*
X56690000Y-100298095D01*
X56737619Y-100250476D01*
X56832857Y-100202857D01*
X56975714Y-100202857D01*
X57070952Y-100250476D01*
X57118571Y-100298095D01*
X57166190Y-100393333D01*
X57166190Y-100774285D01*
X57642380Y-99250476D02*
X57642380Y-99821904D01*
X57642380Y-99536190D02*
X56642380Y-99536190D01*
X56785238Y-99631428D01*
X56880476Y-99726666D01*
X56928095Y-99821904D01*
X56642380Y-98393333D02*
X56642380Y-98583809D01*
X56690000Y-98679047D01*
X56737619Y-98726666D01*
X56880476Y-98821904D01*
X57070952Y-98869523D01*
X57451904Y-98869523D01*
X57547142Y-98821904D01*
X57594761Y-98774285D01*
X57642380Y-98679047D01*
X57642380Y-98488571D01*
X57594761Y-98393333D01*
X57547142Y-98345714D01*
X57451904Y-98298095D01*
X57213809Y-98298095D01*
X57118571Y-98345714D01*
X57070952Y-98393333D01*
X57023333Y-98488571D01*
X57023333Y-98679047D01*
X57070952Y-98774285D01*
X57118571Y-98821904D01*
X57213809Y-98869523D01*
%TO.C,R17*%
X54592380Y-100022857D02*
X54116190Y-100356190D01*
X54592380Y-100594285D02*
X53592380Y-100594285D01*
X53592380Y-100213333D01*
X53640000Y-100118095D01*
X53687619Y-100070476D01*
X53782857Y-100022857D01*
X53925714Y-100022857D01*
X54020952Y-100070476D01*
X54068571Y-100118095D01*
X54116190Y-100213333D01*
X54116190Y-100594285D01*
X54592380Y-99070476D02*
X54592380Y-99641904D01*
X54592380Y-99356190D02*
X53592380Y-99356190D01*
X53735238Y-99451428D01*
X53830476Y-99546666D01*
X53878095Y-99641904D01*
X53592380Y-98737142D02*
X53592380Y-98070476D01*
X54592380Y-98499047D01*
%TO.C,RV1*%
X93348380Y-83947238D02*
X92872190Y-84280571D01*
X93348380Y-84518666D02*
X92348380Y-84518666D01*
X92348380Y-84137714D01*
X92396000Y-84042476D01*
X92443619Y-83994857D01*
X92538857Y-83947238D01*
X92681714Y-83947238D01*
X92776952Y-83994857D01*
X92824571Y-84042476D01*
X92872190Y-84137714D01*
X92872190Y-84518666D01*
X92348380Y-83661523D02*
X93348380Y-83328190D01*
X92348380Y-82994857D01*
X93348380Y-82137714D02*
X93348380Y-82709142D01*
X93348380Y-82423428D02*
X92348380Y-82423428D01*
X92491238Y-82518666D01*
X92586476Y-82613904D01*
X92634095Y-82709142D01*
%TO.C,SW1*%
X63182666Y-68730761D02*
X63325523Y-68778380D01*
X63563619Y-68778380D01*
X63658857Y-68730761D01*
X63706476Y-68683142D01*
X63754095Y-68587904D01*
X63754095Y-68492666D01*
X63706476Y-68397428D01*
X63658857Y-68349809D01*
X63563619Y-68302190D01*
X63373142Y-68254571D01*
X63277904Y-68206952D01*
X63230285Y-68159333D01*
X63182666Y-68064095D01*
X63182666Y-67968857D01*
X63230285Y-67873619D01*
X63277904Y-67826000D01*
X63373142Y-67778380D01*
X63611238Y-67778380D01*
X63754095Y-67826000D01*
X64087428Y-67778380D02*
X64325523Y-68778380D01*
X64516000Y-68064095D01*
X64706476Y-68778380D01*
X64944571Y-67778380D01*
X65849333Y-68778380D02*
X65277904Y-68778380D01*
X65563619Y-68778380D02*
X65563619Y-67778380D01*
X65468380Y-67921238D01*
X65373142Y-68016476D01*
X65277904Y-68064095D01*
%TO.C,U1*%
X81378095Y-112682380D02*
X81378095Y-113491904D01*
X81425714Y-113587142D01*
X81473333Y-113634761D01*
X81568571Y-113682380D01*
X81759047Y-113682380D01*
X81854285Y-113634761D01*
X81901904Y-113587142D01*
X81949523Y-113491904D01*
X81949523Y-112682380D01*
X82949523Y-113682380D02*
X82378095Y-113682380D01*
X82663809Y-113682380D02*
X82663809Y-112682380D01*
X82568571Y-112825238D01*
X82473333Y-112920476D01*
X82378095Y-112968095D01*
%TO.C,U2*%
X81534095Y-74338380D02*
X81534095Y-75147904D01*
X81581714Y-75243142D01*
X81629333Y-75290761D01*
X81724571Y-75338380D01*
X81915047Y-75338380D01*
X82010285Y-75290761D01*
X82057904Y-75243142D01*
X82105523Y-75147904D01*
X82105523Y-74338380D01*
X82534095Y-74433619D02*
X82581714Y-74386000D01*
X82676952Y-74338380D01*
X82915047Y-74338380D01*
X83010285Y-74386000D01*
X83057904Y-74433619D01*
X83105523Y-74528857D01*
X83105523Y-74624095D01*
X83057904Y-74766952D01*
X82486476Y-75338380D01*
X83105523Y-75338380D01*
%TO.C,U3*%
X127238095Y-111782380D02*
X127238095Y-112591904D01*
X127285714Y-112687142D01*
X127333333Y-112734761D01*
X127428571Y-112782380D01*
X127619047Y-112782380D01*
X127714285Y-112734761D01*
X127761904Y-112687142D01*
X127809523Y-112591904D01*
X127809523Y-111782380D01*
X128190476Y-111782380D02*
X128809523Y-111782380D01*
X128476190Y-112163333D01*
X128619047Y-112163333D01*
X128714285Y-112210952D01*
X128761904Y-112258571D01*
X128809523Y-112353809D01*
X128809523Y-112591904D01*
X128761904Y-112687142D01*
X128714285Y-112734761D01*
X128619047Y-112782380D01*
X128333333Y-112782380D01*
X128238095Y-112734761D01*
X128190476Y-112687142D01*
%TO.C,U4*%
X95548095Y-128252380D02*
X95548095Y-129061904D01*
X95595714Y-129157142D01*
X95643333Y-129204761D01*
X95738571Y-129252380D01*
X95929047Y-129252380D01*
X96024285Y-129204761D01*
X96071904Y-129157142D01*
X96119523Y-129061904D01*
X96119523Y-128252380D01*
X97024285Y-128585714D02*
X97024285Y-129252380D01*
X96786190Y-128204761D02*
X96548095Y-128919047D01*
X97167142Y-128919047D01*
%TO.C,Y1*%
X73136190Y-95436190D02*
X73612380Y-95436190D01*
X72612380Y-95769523D02*
X73136190Y-95436190D01*
X72612380Y-95102857D01*
X73612380Y-94245714D02*
X73612380Y-94817142D01*
X73612380Y-94531428D02*
X72612380Y-94531428D01*
X72755238Y-94626666D01*
X72850476Y-94721904D01*
X72898095Y-94817142D01*
%TO.C,D4*%
X91941904Y-64662380D02*
X91941904Y-63662380D01*
X92180000Y-63662380D01*
X92322857Y-63710000D01*
X92418095Y-63805238D01*
X92465714Y-63900476D01*
X92513333Y-64090952D01*
X92513333Y-64233809D01*
X92465714Y-64424285D01*
X92418095Y-64519523D01*
X92322857Y-64614761D01*
X92180000Y-64662380D01*
X91941904Y-64662380D01*
X93370476Y-63995714D02*
X93370476Y-64662380D01*
X93132380Y-63614761D02*
X92894285Y-64329047D01*
X93513333Y-64329047D01*
%TO.C,R18*%
X85288380Y-69476857D02*
X84812190Y-69810190D01*
X85288380Y-70048285D02*
X84288380Y-70048285D01*
X84288380Y-69667333D01*
X84336000Y-69572095D01*
X84383619Y-69524476D01*
X84478857Y-69476857D01*
X84621714Y-69476857D01*
X84716952Y-69524476D01*
X84764571Y-69572095D01*
X84812190Y-69667333D01*
X84812190Y-70048285D01*
X85288380Y-68524476D02*
X85288380Y-69095904D01*
X85288380Y-68810190D02*
X84288380Y-68810190D01*
X84431238Y-68905428D01*
X84526476Y-69000666D01*
X84574095Y-69095904D01*
X84716952Y-67953047D02*
X84669333Y-68048285D01*
X84621714Y-68095904D01*
X84526476Y-68143523D01*
X84478857Y-68143523D01*
X84383619Y-68095904D01*
X84336000Y-68048285D01*
X84288380Y-67953047D01*
X84288380Y-67762571D01*
X84336000Y-67667333D01*
X84383619Y-67619714D01*
X84478857Y-67572095D01*
X84526476Y-67572095D01*
X84621714Y-67619714D01*
X84669333Y-67667333D01*
X84716952Y-67762571D01*
X84716952Y-67953047D01*
X84764571Y-68048285D01*
X84812190Y-68095904D01*
X84907428Y-68143523D01*
X85097904Y-68143523D01*
X85193142Y-68095904D01*
X85240761Y-68048285D01*
X85288380Y-67953047D01*
X85288380Y-67762571D01*
X85240761Y-67667333D01*
X85193142Y-67619714D01*
X85097904Y-67572095D01*
X84907428Y-67572095D01*
X84812190Y-67619714D01*
X84764571Y-67667333D01*
X84716952Y-67762571D01*
%TO.C,Q1*%
X62267619Y-101481238D02*
X62220000Y-101576476D01*
X62124761Y-101671714D01*
X61981904Y-101814571D01*
X61934285Y-101909809D01*
X61934285Y-102005047D01*
X62172380Y-101957428D02*
X62124761Y-102052666D01*
X62029523Y-102147904D01*
X61839047Y-102195523D01*
X61505714Y-102195523D01*
X61315238Y-102147904D01*
X61220000Y-102052666D01*
X61172380Y-101957428D01*
X61172380Y-101766952D01*
X61220000Y-101671714D01*
X61315238Y-101576476D01*
X61505714Y-101528857D01*
X61839047Y-101528857D01*
X62029523Y-101576476D01*
X62124761Y-101671714D01*
X62172380Y-101766952D01*
X62172380Y-101957428D01*
X62172380Y-100576476D02*
X62172380Y-101147904D01*
X62172380Y-100862190D02*
X61172380Y-100862190D01*
X61315238Y-100957428D01*
X61410476Y-101052666D01*
X61458095Y-101147904D01*
%TO.C,R19*%
X71347142Y-102872380D02*
X71013809Y-102396190D01*
X70775714Y-102872380D02*
X70775714Y-101872380D01*
X71156666Y-101872380D01*
X71251904Y-101920000D01*
X71299523Y-101967619D01*
X71347142Y-102062857D01*
X71347142Y-102205714D01*
X71299523Y-102300952D01*
X71251904Y-102348571D01*
X71156666Y-102396190D01*
X70775714Y-102396190D01*
X72299523Y-102872380D02*
X71728095Y-102872380D01*
X72013809Y-102872380D02*
X72013809Y-101872380D01*
X71918571Y-102015238D01*
X71823333Y-102110476D01*
X71728095Y-102158095D01*
X72775714Y-102872380D02*
X72966190Y-102872380D01*
X73061428Y-102824761D01*
X73109047Y-102777142D01*
X73204285Y-102634285D01*
X73251904Y-102443809D01*
X73251904Y-102062857D01*
X73204285Y-101967619D01*
X73156666Y-101920000D01*
X73061428Y-101872380D01*
X72870952Y-101872380D01*
X72775714Y-101920000D01*
X72728095Y-101967619D01*
X72680476Y-102062857D01*
X72680476Y-102300952D01*
X72728095Y-102396190D01*
X72775714Y-102443809D01*
X72870952Y-102491428D01*
X73061428Y-102491428D01*
X73156666Y-102443809D01*
X73204285Y-102396190D01*
X73251904Y-102300952D01*
%TO.C,JP2*%
X65790380Y-96845333D02*
X66504666Y-96845333D01*
X66647523Y-96892952D01*
X66742761Y-96988190D01*
X66790380Y-97131047D01*
X66790380Y-97226285D01*
X66790380Y-96369142D02*
X65790380Y-96369142D01*
X65790380Y-95988190D01*
X65838000Y-95892952D01*
X65885619Y-95845333D01*
X65980857Y-95797714D01*
X66123714Y-95797714D01*
X66218952Y-95845333D01*
X66266571Y-95892952D01*
X66314190Y-95988190D01*
X66314190Y-96369142D01*
X65885619Y-95416761D02*
X65838000Y-95369142D01*
X65790380Y-95273904D01*
X65790380Y-95035809D01*
X65838000Y-94940571D01*
X65885619Y-94892952D01*
X65980857Y-94845333D01*
X66076095Y-94845333D01*
X66218952Y-94892952D01*
X66790380Y-95464380D01*
X66790380Y-94845333D01*
%TO.C,R20*%
X69182380Y-81662857D02*
X68706190Y-81996190D01*
X69182380Y-82234285D02*
X68182380Y-82234285D01*
X68182380Y-81853333D01*
X68230000Y-81758095D01*
X68277619Y-81710476D01*
X68372857Y-81662857D01*
X68515714Y-81662857D01*
X68610952Y-81710476D01*
X68658571Y-81758095D01*
X68706190Y-81853333D01*
X68706190Y-82234285D01*
X68277619Y-81281904D02*
X68230000Y-81234285D01*
X68182380Y-81139047D01*
X68182380Y-80900952D01*
X68230000Y-80805714D01*
X68277619Y-80758095D01*
X68372857Y-80710476D01*
X68468095Y-80710476D01*
X68610952Y-80758095D01*
X69182380Y-81329523D01*
X69182380Y-80710476D01*
X68182380Y-80091428D02*
X68182380Y-79996190D01*
X68230000Y-79900952D01*
X68277619Y-79853333D01*
X68372857Y-79805714D01*
X68563333Y-79758095D01*
X68801428Y-79758095D01*
X68991904Y-79805714D01*
X69087142Y-79853333D01*
X69134761Y-79900952D01*
X69182380Y-79996190D01*
X69182380Y-80091428D01*
X69134761Y-80186666D01*
X69087142Y-80234285D01*
X68991904Y-80281904D01*
X68801428Y-80329523D01*
X68563333Y-80329523D01*
X68372857Y-80281904D01*
X68277619Y-80234285D01*
X68230000Y-80186666D01*
X68182380Y-80091428D01*
%TO.C,J11*%
X80100476Y-135152380D02*
X80100476Y-135866666D01*
X80052857Y-136009523D01*
X79957619Y-136104761D01*
X79814761Y-136152380D01*
X79719523Y-136152380D01*
X81100476Y-136152380D02*
X80529047Y-136152380D01*
X80814761Y-136152380D02*
X80814761Y-135152380D01*
X80719523Y-135295238D01*
X80624285Y-135390476D01*
X80529047Y-135438095D01*
X82052857Y-136152380D02*
X81481428Y-136152380D01*
X81767142Y-136152380D02*
X81767142Y-135152380D01*
X81671904Y-135295238D01*
X81576666Y-135390476D01*
X81481428Y-135438095D01*
%TO.C,Q2*%
X105424761Y-75755619D02*
X105329523Y-75708000D01*
X105234285Y-75612761D01*
X105091428Y-75469904D01*
X104996190Y-75422285D01*
X104900952Y-75422285D01*
X104948571Y-75660380D02*
X104853333Y-75612761D01*
X104758095Y-75517523D01*
X104710476Y-75327047D01*
X104710476Y-74993714D01*
X104758095Y-74803238D01*
X104853333Y-74708000D01*
X104948571Y-74660380D01*
X105139047Y-74660380D01*
X105234285Y-74708000D01*
X105329523Y-74803238D01*
X105377142Y-74993714D01*
X105377142Y-75327047D01*
X105329523Y-75517523D01*
X105234285Y-75612761D01*
X105139047Y-75660380D01*
X104948571Y-75660380D01*
X105758095Y-74755619D02*
X105805714Y-74708000D01*
X105900952Y-74660380D01*
X106139047Y-74660380D01*
X106234285Y-74708000D01*
X106281904Y-74755619D01*
X106329523Y-74850857D01*
X106329523Y-74946095D01*
X106281904Y-75088952D01*
X105710476Y-75660380D01*
X106329523Y-75660380D01*
%TO.C,R21*%
X95892380Y-109212857D02*
X95416190Y-109546190D01*
X95892380Y-109784285D02*
X94892380Y-109784285D01*
X94892380Y-109403333D01*
X94940000Y-109308095D01*
X94987619Y-109260476D01*
X95082857Y-109212857D01*
X95225714Y-109212857D01*
X95320952Y-109260476D01*
X95368571Y-109308095D01*
X95416190Y-109403333D01*
X95416190Y-109784285D01*
X94987619Y-108831904D02*
X94940000Y-108784285D01*
X94892380Y-108689047D01*
X94892380Y-108450952D01*
X94940000Y-108355714D01*
X94987619Y-108308095D01*
X95082857Y-108260476D01*
X95178095Y-108260476D01*
X95320952Y-108308095D01*
X95892380Y-108879523D01*
X95892380Y-108260476D01*
X95892380Y-107308095D02*
X95892380Y-107879523D01*
X95892380Y-107593809D02*
X94892380Y-107593809D01*
X95035238Y-107689047D01*
X95130476Y-107784285D01*
X95178095Y-107879523D01*
%TO.C,C9*%
X105137142Y-129496666D02*
X105184761Y-129544285D01*
X105232380Y-129687142D01*
X105232380Y-129782380D01*
X105184761Y-129925238D01*
X105089523Y-130020476D01*
X104994285Y-130068095D01*
X104803809Y-130115714D01*
X104660952Y-130115714D01*
X104470476Y-130068095D01*
X104375238Y-130020476D01*
X104280000Y-129925238D01*
X104232380Y-129782380D01*
X104232380Y-129687142D01*
X104280000Y-129544285D01*
X104327619Y-129496666D01*
X105232380Y-129020476D02*
X105232380Y-128830000D01*
X105184761Y-128734761D01*
X105137142Y-128687142D01*
X104994285Y-128591904D01*
X104803809Y-128544285D01*
X104422857Y-128544285D01*
X104327619Y-128591904D01*
X104280000Y-128639523D01*
X104232380Y-128734761D01*
X104232380Y-128925238D01*
X104280000Y-129020476D01*
X104327619Y-129068095D01*
X104422857Y-129115714D01*
X104660952Y-129115714D01*
X104756190Y-129068095D01*
X104803809Y-129020476D01*
X104851428Y-128925238D01*
X104851428Y-128734761D01*
X104803809Y-128639523D01*
X104756190Y-128591904D01*
X104660952Y-128544285D01*
%TO.C,C10*%
X115057142Y-117542857D02*
X115104761Y-117590476D01*
X115152380Y-117733333D01*
X115152380Y-117828571D01*
X115104761Y-117971428D01*
X115009523Y-118066666D01*
X114914285Y-118114285D01*
X114723809Y-118161904D01*
X114580952Y-118161904D01*
X114390476Y-118114285D01*
X114295238Y-118066666D01*
X114200000Y-117971428D01*
X114152380Y-117828571D01*
X114152380Y-117733333D01*
X114200000Y-117590476D01*
X114247619Y-117542857D01*
X115152380Y-116590476D02*
X115152380Y-117161904D01*
X115152380Y-116876190D02*
X114152380Y-116876190D01*
X114295238Y-116971428D01*
X114390476Y-117066666D01*
X114438095Y-117161904D01*
X114152380Y-115971428D02*
X114152380Y-115876190D01*
X114200000Y-115780952D01*
X114247619Y-115733333D01*
X114342857Y-115685714D01*
X114533333Y-115638095D01*
X114771428Y-115638095D01*
X114961904Y-115685714D01*
X115057142Y-115733333D01*
X115104761Y-115780952D01*
X115152380Y-115876190D01*
X115152380Y-115971428D01*
X115104761Y-116066666D01*
X115057142Y-116114285D01*
X114961904Y-116161904D01*
X114771428Y-116209523D01*
X114533333Y-116209523D01*
X114342857Y-116161904D01*
X114247619Y-116114285D01*
X114200000Y-116066666D01*
X114152380Y-115971428D01*
%TO.C,D5*%
X110282380Y-123928095D02*
X109282380Y-123928095D01*
X109282380Y-123690000D01*
X109330000Y-123547142D01*
X109425238Y-123451904D01*
X109520476Y-123404285D01*
X109710952Y-123356666D01*
X109853809Y-123356666D01*
X110044285Y-123404285D01*
X110139523Y-123451904D01*
X110234761Y-123547142D01*
X110282380Y-123690000D01*
X110282380Y-123928095D01*
X109282380Y-122451904D02*
X109282380Y-122928095D01*
X109758571Y-122975714D01*
X109710952Y-122928095D01*
X109663333Y-122832857D01*
X109663333Y-122594761D01*
X109710952Y-122499523D01*
X109758571Y-122451904D01*
X109853809Y-122404285D01*
X110091904Y-122404285D01*
X110187142Y-122451904D01*
X110234761Y-122499523D01*
X110282380Y-122594761D01*
X110282380Y-122832857D01*
X110234761Y-122928095D01*
X110187142Y-122975714D01*
%TO.C,D6*%
X124981904Y-117152380D02*
X124981904Y-116152380D01*
X125220000Y-116152380D01*
X125362857Y-116200000D01*
X125458095Y-116295238D01*
X125505714Y-116390476D01*
X125553333Y-116580952D01*
X125553333Y-116723809D01*
X125505714Y-116914285D01*
X125458095Y-117009523D01*
X125362857Y-117104761D01*
X125220000Y-117152380D01*
X124981904Y-117152380D01*
X126410476Y-116152380D02*
X126220000Y-116152380D01*
X126124761Y-116200000D01*
X126077142Y-116247619D01*
X125981904Y-116390476D01*
X125934285Y-116580952D01*
X125934285Y-116961904D01*
X125981904Y-117057142D01*
X126029523Y-117104761D01*
X126124761Y-117152380D01*
X126315238Y-117152380D01*
X126410476Y-117104761D01*
X126458095Y-117057142D01*
X126505714Y-116961904D01*
X126505714Y-116723809D01*
X126458095Y-116628571D01*
X126410476Y-116580952D01*
X126315238Y-116533333D01*
X126124761Y-116533333D01*
X126029523Y-116580952D01*
X125981904Y-116628571D01*
X125934285Y-116723809D01*
D11*
%TO.C,J12*%
X115450476Y-134720380D02*
X115450476Y-135434666D01*
X115402857Y-135577523D01*
X115307619Y-135672761D01*
X115164761Y-135720380D01*
X115069523Y-135720380D01*
X116450476Y-135720380D02*
X115879047Y-135720380D01*
X116164761Y-135720380D02*
X116164761Y-134720380D01*
X116069523Y-134863238D01*
X115974285Y-134958476D01*
X115879047Y-135006095D01*
X116831428Y-134815619D02*
X116879047Y-134768000D01*
X116974285Y-134720380D01*
X117212380Y-134720380D01*
X117307619Y-134768000D01*
X117355238Y-134815619D01*
X117402857Y-134910857D01*
X117402857Y-135006095D01*
X117355238Y-135148952D01*
X116783809Y-135720380D01*
X117402857Y-135720380D01*
D10*
%TO.C,R22*%
X121997142Y-124542380D02*
X121663809Y-124066190D01*
X121425714Y-124542380D02*
X121425714Y-123542380D01*
X121806666Y-123542380D01*
X121901904Y-123590000D01*
X121949523Y-123637619D01*
X121997142Y-123732857D01*
X121997142Y-123875714D01*
X121949523Y-123970952D01*
X121901904Y-124018571D01*
X121806666Y-124066190D01*
X121425714Y-124066190D01*
X122378095Y-123637619D02*
X122425714Y-123590000D01*
X122520952Y-123542380D01*
X122759047Y-123542380D01*
X122854285Y-123590000D01*
X122901904Y-123637619D01*
X122949523Y-123732857D01*
X122949523Y-123828095D01*
X122901904Y-123970952D01*
X122330476Y-124542380D01*
X122949523Y-124542380D01*
X123330476Y-123637619D02*
X123378095Y-123590000D01*
X123473333Y-123542380D01*
X123711428Y-123542380D01*
X123806666Y-123590000D01*
X123854285Y-123637619D01*
X123901904Y-123732857D01*
X123901904Y-123828095D01*
X123854285Y-123970952D01*
X123282857Y-124542380D01*
X123901904Y-124542380D01*
%TO.C,R23*%
X122227142Y-120692380D02*
X121893809Y-120216190D01*
X121655714Y-120692380D02*
X121655714Y-119692380D01*
X122036666Y-119692380D01*
X122131904Y-119740000D01*
X122179523Y-119787619D01*
X122227142Y-119882857D01*
X122227142Y-120025714D01*
X122179523Y-120120952D01*
X122131904Y-120168571D01*
X122036666Y-120216190D01*
X121655714Y-120216190D01*
X122608095Y-119787619D02*
X122655714Y-119740000D01*
X122750952Y-119692380D01*
X122989047Y-119692380D01*
X123084285Y-119740000D01*
X123131904Y-119787619D01*
X123179523Y-119882857D01*
X123179523Y-119978095D01*
X123131904Y-120120952D01*
X122560476Y-120692380D01*
X123179523Y-120692380D01*
X123512857Y-119692380D02*
X124131904Y-119692380D01*
X123798571Y-120073333D01*
X123941428Y-120073333D01*
X124036666Y-120120952D01*
X124084285Y-120168571D01*
X124131904Y-120263809D01*
X124131904Y-120501904D01*
X124084285Y-120597142D01*
X124036666Y-120644761D01*
X123941428Y-120692380D01*
X123655714Y-120692380D01*
X123560476Y-120644761D01*
X123512857Y-120597142D01*
%TO.C,R24*%
X113182380Y-113432857D02*
X112706190Y-113766190D01*
X113182380Y-114004285D02*
X112182380Y-114004285D01*
X112182380Y-113623333D01*
X112230000Y-113528095D01*
X112277619Y-113480476D01*
X112372857Y-113432857D01*
X112515714Y-113432857D01*
X112610952Y-113480476D01*
X112658571Y-113528095D01*
X112706190Y-113623333D01*
X112706190Y-114004285D01*
X112277619Y-113051904D02*
X112230000Y-113004285D01*
X112182380Y-112909047D01*
X112182380Y-112670952D01*
X112230000Y-112575714D01*
X112277619Y-112528095D01*
X112372857Y-112480476D01*
X112468095Y-112480476D01*
X112610952Y-112528095D01*
X113182380Y-113099523D01*
X113182380Y-112480476D01*
X112515714Y-111623333D02*
X113182380Y-111623333D01*
X112134761Y-111861428D02*
X112849047Y-112099523D01*
X112849047Y-111480476D01*
%TO.C,R25*%
X75682380Y-109602857D02*
X75206190Y-109936190D01*
X75682380Y-110174285D02*
X74682380Y-110174285D01*
X74682380Y-109793333D01*
X74730000Y-109698095D01*
X74777619Y-109650476D01*
X74872857Y-109602857D01*
X75015714Y-109602857D01*
X75110952Y-109650476D01*
X75158571Y-109698095D01*
X75206190Y-109793333D01*
X75206190Y-110174285D01*
X74777619Y-109221904D02*
X74730000Y-109174285D01*
X74682380Y-109079047D01*
X74682380Y-108840952D01*
X74730000Y-108745714D01*
X74777619Y-108698095D01*
X74872857Y-108650476D01*
X74968095Y-108650476D01*
X75110952Y-108698095D01*
X75682380Y-109269523D01*
X75682380Y-108650476D01*
X74682380Y-107745714D02*
X74682380Y-108221904D01*
X75158571Y-108269523D01*
X75110952Y-108221904D01*
X75063333Y-108126666D01*
X75063333Y-107888571D01*
X75110952Y-107793333D01*
X75158571Y-107745714D01*
X75253809Y-107698095D01*
X75491904Y-107698095D01*
X75587142Y-107745714D01*
X75634761Y-107793333D01*
X75682380Y-107888571D01*
X75682380Y-108126666D01*
X75634761Y-108221904D01*
X75587142Y-108269523D01*
%TO.C,U5*%
X119138095Y-95352380D02*
X119138095Y-96161904D01*
X119185714Y-96257142D01*
X119233333Y-96304761D01*
X119328571Y-96352380D01*
X119519047Y-96352380D01*
X119614285Y-96304761D01*
X119661904Y-96257142D01*
X119709523Y-96161904D01*
X119709523Y-95352380D01*
X120661904Y-95352380D02*
X120185714Y-95352380D01*
X120138095Y-95828571D01*
X120185714Y-95780952D01*
X120280952Y-95733333D01*
X120519047Y-95733333D01*
X120614285Y-95780952D01*
X120661904Y-95828571D01*
X120709523Y-95923809D01*
X120709523Y-96161904D01*
X120661904Y-96257142D01*
X120614285Y-96304761D01*
X120519047Y-96352380D01*
X120280952Y-96352380D01*
X120185714Y-96304761D01*
X120138095Y-96257142D01*
%TO.C,R26*%
X113382380Y-123782857D02*
X112906190Y-124116190D01*
X113382380Y-124354285D02*
X112382380Y-124354285D01*
X112382380Y-123973333D01*
X112430000Y-123878095D01*
X112477619Y-123830476D01*
X112572857Y-123782857D01*
X112715714Y-123782857D01*
X112810952Y-123830476D01*
X112858571Y-123878095D01*
X112906190Y-123973333D01*
X112906190Y-124354285D01*
X112477619Y-123401904D02*
X112430000Y-123354285D01*
X112382380Y-123259047D01*
X112382380Y-123020952D01*
X112430000Y-122925714D01*
X112477619Y-122878095D01*
X112572857Y-122830476D01*
X112668095Y-122830476D01*
X112810952Y-122878095D01*
X113382380Y-123449523D01*
X113382380Y-122830476D01*
X112382380Y-121973333D02*
X112382380Y-122163809D01*
X112430000Y-122259047D01*
X112477619Y-122306666D01*
X112620476Y-122401904D01*
X112810952Y-122449523D01*
X113191904Y-122449523D01*
X113287142Y-122401904D01*
X113334761Y-122354285D01*
X113382380Y-122259047D01*
X113382380Y-122068571D01*
X113334761Y-121973333D01*
X113287142Y-121925714D01*
X113191904Y-121878095D01*
X112953809Y-121878095D01*
X112858571Y-121925714D01*
X112810952Y-121973333D01*
X112763333Y-122068571D01*
X112763333Y-122259047D01*
X112810952Y-122354285D01*
X112858571Y-122401904D01*
X112953809Y-122449523D01*
%TO.C,C11*%
X108807142Y-105422857D02*
X108854761Y-105470476D01*
X108902380Y-105613333D01*
X108902380Y-105708571D01*
X108854761Y-105851428D01*
X108759523Y-105946666D01*
X108664285Y-105994285D01*
X108473809Y-106041904D01*
X108330952Y-106041904D01*
X108140476Y-105994285D01*
X108045238Y-105946666D01*
X107950000Y-105851428D01*
X107902380Y-105708571D01*
X107902380Y-105613333D01*
X107950000Y-105470476D01*
X107997619Y-105422857D01*
X108902380Y-104470476D02*
X108902380Y-105041904D01*
X108902380Y-104756190D02*
X107902380Y-104756190D01*
X108045238Y-104851428D01*
X108140476Y-104946666D01*
X108188095Y-105041904D01*
X108902380Y-103518095D02*
X108902380Y-104089523D01*
X108902380Y-103803809D02*
X107902380Y-103803809D01*
X108045238Y-103899047D01*
X108140476Y-103994285D01*
X108188095Y-104089523D01*
%TO.C,D7*%
X107382380Y-123738095D02*
X106382380Y-123738095D01*
X106382380Y-123500000D01*
X106430000Y-123357142D01*
X106525238Y-123261904D01*
X106620476Y-123214285D01*
X106810952Y-123166666D01*
X106953809Y-123166666D01*
X107144285Y-123214285D01*
X107239523Y-123261904D01*
X107334761Y-123357142D01*
X107382380Y-123500000D01*
X107382380Y-123738095D01*
X106382380Y-122833333D02*
X106382380Y-122166666D01*
X107382380Y-122595238D01*
%TO.C,R27*%
X109952380Y-113642857D02*
X109476190Y-113976190D01*
X109952380Y-114214285D02*
X108952380Y-114214285D01*
X108952380Y-113833333D01*
X109000000Y-113738095D01*
X109047619Y-113690476D01*
X109142857Y-113642857D01*
X109285714Y-113642857D01*
X109380952Y-113690476D01*
X109428571Y-113738095D01*
X109476190Y-113833333D01*
X109476190Y-114214285D01*
X109047619Y-113261904D02*
X109000000Y-113214285D01*
X108952380Y-113119047D01*
X108952380Y-112880952D01*
X109000000Y-112785714D01*
X109047619Y-112738095D01*
X109142857Y-112690476D01*
X109238095Y-112690476D01*
X109380952Y-112738095D01*
X109952380Y-113309523D01*
X109952380Y-112690476D01*
X108952380Y-112357142D02*
X108952380Y-111690476D01*
X109952380Y-112119047D01*
%TO.C,R28*%
X124982380Y-91342857D02*
X124506190Y-91676190D01*
X124982380Y-91914285D02*
X123982380Y-91914285D01*
X123982380Y-91533333D01*
X124030000Y-91438095D01*
X124077619Y-91390476D01*
X124172857Y-91342857D01*
X124315714Y-91342857D01*
X124410952Y-91390476D01*
X124458571Y-91438095D01*
X124506190Y-91533333D01*
X124506190Y-91914285D01*
X124077619Y-90961904D02*
X124030000Y-90914285D01*
X123982380Y-90819047D01*
X123982380Y-90580952D01*
X124030000Y-90485714D01*
X124077619Y-90438095D01*
X124172857Y-90390476D01*
X124268095Y-90390476D01*
X124410952Y-90438095D01*
X124982380Y-91009523D01*
X124982380Y-90390476D01*
X124410952Y-89819047D02*
X124363333Y-89914285D01*
X124315714Y-89961904D01*
X124220476Y-90009523D01*
X124172857Y-90009523D01*
X124077619Y-89961904D01*
X124030000Y-89914285D01*
X123982380Y-89819047D01*
X123982380Y-89628571D01*
X124030000Y-89533333D01*
X124077619Y-89485714D01*
X124172857Y-89438095D01*
X124220476Y-89438095D01*
X124315714Y-89485714D01*
X124363333Y-89533333D01*
X124410952Y-89628571D01*
X124410952Y-89819047D01*
X124458571Y-89914285D01*
X124506190Y-89961904D01*
X124601428Y-90009523D01*
X124791904Y-90009523D01*
X124887142Y-89961904D01*
X124934761Y-89914285D01*
X124982380Y-89819047D01*
X124982380Y-89628571D01*
X124934761Y-89533333D01*
X124887142Y-89485714D01*
X124791904Y-89438095D01*
X124601428Y-89438095D01*
X124506190Y-89485714D01*
X124458571Y-89533333D01*
X124410952Y-89628571D01*
%TO.C,R29*%
X117657142Y-90172380D02*
X117323809Y-89696190D01*
X117085714Y-90172380D02*
X117085714Y-89172380D01*
X117466666Y-89172380D01*
X117561904Y-89220000D01*
X117609523Y-89267619D01*
X117657142Y-89362857D01*
X117657142Y-89505714D01*
X117609523Y-89600952D01*
X117561904Y-89648571D01*
X117466666Y-89696190D01*
X117085714Y-89696190D01*
X118038095Y-89267619D02*
X118085714Y-89220000D01*
X118180952Y-89172380D01*
X118419047Y-89172380D01*
X118514285Y-89220000D01*
X118561904Y-89267619D01*
X118609523Y-89362857D01*
X118609523Y-89458095D01*
X118561904Y-89600952D01*
X117990476Y-90172380D01*
X118609523Y-90172380D01*
X119085714Y-90172380D02*
X119276190Y-90172380D01*
X119371428Y-90124761D01*
X119419047Y-90077142D01*
X119514285Y-89934285D01*
X119561904Y-89743809D01*
X119561904Y-89362857D01*
X119514285Y-89267619D01*
X119466666Y-89220000D01*
X119371428Y-89172380D01*
X119180952Y-89172380D01*
X119085714Y-89220000D01*
X119038095Y-89267619D01*
X118990476Y-89362857D01*
X118990476Y-89600952D01*
X119038095Y-89696190D01*
X119085714Y-89743809D01*
X119180952Y-89791428D01*
X119371428Y-89791428D01*
X119466666Y-89743809D01*
X119514285Y-89696190D01*
X119561904Y-89600952D01*
%TO.C,C12*%
X88447142Y-127342857D02*
X88494761Y-127390476D01*
X88542380Y-127533333D01*
X88542380Y-127628571D01*
X88494761Y-127771428D01*
X88399523Y-127866666D01*
X88304285Y-127914285D01*
X88113809Y-127961904D01*
X87970952Y-127961904D01*
X87780476Y-127914285D01*
X87685238Y-127866666D01*
X87590000Y-127771428D01*
X87542380Y-127628571D01*
X87542380Y-127533333D01*
X87590000Y-127390476D01*
X87637619Y-127342857D01*
X88542380Y-126390476D02*
X88542380Y-126961904D01*
X88542380Y-126676190D02*
X87542380Y-126676190D01*
X87685238Y-126771428D01*
X87780476Y-126866666D01*
X87828095Y-126961904D01*
X87637619Y-126009523D02*
X87590000Y-125961904D01*
X87542380Y-125866666D01*
X87542380Y-125628571D01*
X87590000Y-125533333D01*
X87637619Y-125485714D01*
X87732857Y-125438095D01*
X87828095Y-125438095D01*
X87970952Y-125485714D01*
X88542380Y-126057142D01*
X88542380Y-125438095D01*
%TO.C,C13*%
X75857142Y-127642857D02*
X75904761Y-127690476D01*
X75952380Y-127833333D01*
X75952380Y-127928571D01*
X75904761Y-128071428D01*
X75809523Y-128166666D01*
X75714285Y-128214285D01*
X75523809Y-128261904D01*
X75380952Y-128261904D01*
X75190476Y-128214285D01*
X75095238Y-128166666D01*
X75000000Y-128071428D01*
X74952380Y-127928571D01*
X74952380Y-127833333D01*
X75000000Y-127690476D01*
X75047619Y-127642857D01*
X75952380Y-126690476D02*
X75952380Y-127261904D01*
X75952380Y-126976190D02*
X74952380Y-126976190D01*
X75095238Y-127071428D01*
X75190476Y-127166666D01*
X75238095Y-127261904D01*
X74952380Y-126357142D02*
X74952380Y-125738095D01*
X75333333Y-126071428D01*
X75333333Y-125928571D01*
X75380952Y-125833333D01*
X75428571Y-125785714D01*
X75523809Y-125738095D01*
X75761904Y-125738095D01*
X75857142Y-125785714D01*
X75904761Y-125833333D01*
X75952380Y-125928571D01*
X75952380Y-126214285D01*
X75904761Y-126309523D01*
X75857142Y-126357142D01*
%TO.C,T1*%
X70072095Y-122808380D02*
X70643523Y-122808380D01*
X70357809Y-123808380D02*
X70357809Y-122808380D01*
X71500666Y-123808380D02*
X70929238Y-123808380D01*
X71214952Y-123808380D02*
X71214952Y-122808380D01*
X71119714Y-122951238D01*
X71024476Y-123046476D01*
X70929238Y-123094095D01*
X72961285Y-121316119D02*
X73008904Y-121268500D01*
X73104142Y-121220880D01*
X73342238Y-121220880D01*
X73437476Y-121268500D01*
X73485095Y-121316119D01*
X73532714Y-121411357D01*
X73532714Y-121506595D01*
X73485095Y-121649452D01*
X72913666Y-122220880D01*
X73532714Y-122220880D01*
X67516166Y-123570380D02*
X68135214Y-123570380D01*
X67801880Y-123951333D01*
X67944738Y-123951333D01*
X68039976Y-123998952D01*
X68087595Y-124046571D01*
X68135214Y-124141809D01*
X68135214Y-124379904D01*
X68087595Y-124475142D01*
X68039976Y-124522761D01*
X67944738Y-124570380D01*
X67659023Y-124570380D01*
X67563785Y-124522761D01*
X67516166Y-124475142D01*
X68135214Y-122220880D02*
X67563785Y-122220880D01*
X67849500Y-122220880D02*
X67849500Y-121220880D01*
X67754261Y-121363738D01*
X67659023Y-121458976D01*
X67563785Y-121506595D01*
X73437476Y-123967214D02*
X73437476Y-124633880D01*
X73199380Y-123586261D02*
X72961285Y-124300547D01*
X73580333Y-124300547D01*
%TO.C,JP3*%
X126566666Y-129852380D02*
X126566666Y-130566666D01*
X126519047Y-130709523D01*
X126423809Y-130804761D01*
X126280952Y-130852380D01*
X126185714Y-130852380D01*
X127042857Y-130852380D02*
X127042857Y-129852380D01*
X127423809Y-129852380D01*
X127519047Y-129900000D01*
X127566666Y-129947619D01*
X127614285Y-130042857D01*
X127614285Y-130185714D01*
X127566666Y-130280952D01*
X127519047Y-130328571D01*
X127423809Y-130376190D01*
X127042857Y-130376190D01*
X127947619Y-129852380D02*
X128566666Y-129852380D01*
X128233333Y-130233333D01*
X128376190Y-130233333D01*
X128471428Y-130280952D01*
X128519047Y-130328571D01*
X128566666Y-130423809D01*
X128566666Y-130661904D01*
X128519047Y-130757142D01*
X128471428Y-130804761D01*
X128376190Y-130852380D01*
X128090476Y-130852380D01*
X127995238Y-130804761D01*
X127947619Y-130757142D01*
D12*
%TO.C,C1*%
X77500000Y-122760000D02*
X75945000Y-122760000D01*
X80876000Y-123361000D02*
X79460000Y-123361000D01*
X81015000Y-122760000D02*
X79460000Y-122760000D01*
X80692000Y-123761000D02*
X79460000Y-123761000D01*
X80916000Y-123241000D02*
X79460000Y-123241000D01*
X79984000Y-124561000D02*
X79460000Y-124561000D01*
X80222000Y-124361000D02*
X79460000Y-124361000D01*
X78834000Y-125041000D02*
X78126000Y-125041000D01*
X80830000Y-123481000D02*
X79460000Y-123481000D01*
X80978000Y-123000000D02*
X79460000Y-123000000D01*
X80795000Y-123561000D02*
X79460000Y-123561000D01*
X80179000Y-124401000D02*
X79460000Y-124401000D01*
X77500000Y-124321000D02*
X76697000Y-124321000D01*
X80756000Y-123641000D02*
X79460000Y-123641000D01*
X80890000Y-123321000D02*
X79460000Y-123321000D01*
X77500000Y-122840000D02*
X75955000Y-122840000D01*
X80508000Y-124041000D02*
X79460000Y-124041000D01*
X77500000Y-124401000D02*
X76781000Y-124401000D01*
X77500000Y-123881000D02*
X76340000Y-123881000D01*
X80620000Y-123881000D02*
X79460000Y-123881000D01*
X80714000Y-123721000D02*
X79460000Y-123721000D01*
X77500000Y-124641000D02*
X77090000Y-124641000D01*
X77500000Y-122800000D02*
X75949000Y-122800000D01*
X77500000Y-123921000D02*
X76367000Y-123921000D01*
X77500000Y-123000000D02*
X75982000Y-123000000D01*
X77500000Y-123601000D02*
X76184000Y-123601000D01*
X80538000Y-124001000D02*
X79460000Y-124001000D01*
X77500000Y-123841000D02*
X76315000Y-123841000D01*
X77500000Y-123160000D02*
X76020000Y-123160000D01*
X81030000Y-122480000D02*
X75930000Y-122480000D01*
X81030000Y-122520000D02*
X75930000Y-122520000D01*
X77500000Y-124241000D02*
X76619000Y-124241000D01*
X80776000Y-123601000D02*
X79460000Y-123601000D01*
X77500000Y-124441000D02*
X76826000Y-124441000D01*
X77500000Y-122920000D02*
X75967000Y-122920000D01*
X77500000Y-123761000D02*
X76268000Y-123761000D01*
X77500000Y-124281000D02*
X76657000Y-124281000D01*
X78480000Y-119030000D02*
X78480000Y-120230000D01*
X77500000Y-124601000D02*
X77032000Y-124601000D01*
X79130000Y-119630000D02*
X77830000Y-119630000D01*
X77500000Y-124121000D02*
X76515000Y-124121000D01*
X77500000Y-123321000D02*
X76070000Y-123321000D01*
X79508000Y-124841000D02*
X77452000Y-124841000D01*
X80960000Y-123080000D02*
X79460000Y-123080000D01*
X81005000Y-122840000D02*
X79460000Y-122840000D01*
X77500000Y-123801000D02*
X76291000Y-123801000D01*
X80928000Y-123201000D02*
X79460000Y-123201000D01*
X77500000Y-123401000D02*
X76098000Y-123401000D01*
X81011000Y-122800000D02*
X79460000Y-122800000D01*
X80813000Y-123521000D02*
X79460000Y-123521000D01*
X80412000Y-124161000D02*
X79460000Y-124161000D01*
X80303000Y-124281000D02*
X79460000Y-124281000D01*
X81029000Y-122560000D02*
X75931000Y-122560000D01*
X80904000Y-123281000D02*
X79460000Y-123281000D01*
X80950000Y-123120000D02*
X79460000Y-123120000D01*
X77500000Y-124681000D02*
X77153000Y-124681000D01*
X79592000Y-124801000D02*
X77368000Y-124801000D01*
X79928000Y-124601000D02*
X79460000Y-124601000D01*
X79039000Y-125001000D02*
X77921000Y-125001000D01*
X77500000Y-124521000D02*
X76924000Y-124521000D01*
X80669000Y-123801000D02*
X79460000Y-123801000D01*
X77500000Y-124481000D02*
X76874000Y-124481000D01*
X77500000Y-122880000D02*
X75961000Y-122880000D01*
X79741000Y-124721000D02*
X77219000Y-124721000D01*
X80263000Y-124321000D02*
X79460000Y-124321000D01*
X77500000Y-123241000D02*
X76044000Y-123241000D01*
X77500000Y-124561000D02*
X76976000Y-124561000D01*
X80645000Y-123841000D02*
X79460000Y-123841000D01*
X80566000Y-123961000D02*
X79460000Y-123961000D01*
X77500000Y-124001000D02*
X76422000Y-124001000D01*
X77500000Y-122960000D02*
X75974000Y-122960000D01*
X79870000Y-124641000D02*
X79460000Y-124641000D01*
X79187000Y-124961000D02*
X77773000Y-124961000D01*
X77500000Y-123481000D02*
X76130000Y-123481000D01*
X80940000Y-123160000D02*
X79460000Y-123160000D01*
X79309000Y-124921000D02*
X77651000Y-124921000D01*
X80134000Y-124441000D02*
X79460000Y-124441000D01*
X80993000Y-122920000D02*
X79460000Y-122920000D01*
X77500000Y-124161000D02*
X76548000Y-124161000D01*
X80036000Y-124521000D02*
X79460000Y-124521000D01*
X77500000Y-123521000D02*
X76147000Y-123521000D01*
X80999000Y-122880000D02*
X79460000Y-122880000D01*
X80341000Y-124241000D02*
X79460000Y-124241000D01*
X81026000Y-122640000D02*
X75934000Y-122640000D01*
X80986000Y-122960000D02*
X79460000Y-122960000D01*
X80846000Y-123441000D02*
X79460000Y-123441000D01*
X77500000Y-123361000D02*
X76084000Y-123361000D01*
X81028000Y-122600000D02*
X75932000Y-122600000D01*
X77500000Y-123281000D02*
X76056000Y-123281000D01*
X80377000Y-124201000D02*
X79460000Y-124201000D01*
X77500000Y-123681000D02*
X76224000Y-123681000D01*
X77500000Y-123441000D02*
X76114000Y-123441000D01*
X80593000Y-123921000D02*
X79460000Y-123921000D01*
X77500000Y-123641000D02*
X76204000Y-123641000D01*
X77500000Y-123201000D02*
X76032000Y-123201000D01*
X79807000Y-124681000D02*
X79460000Y-124681000D01*
X79669000Y-124761000D02*
X77291000Y-124761000D01*
X80445000Y-124121000D02*
X79460000Y-124121000D01*
X77500000Y-123961000D02*
X76394000Y-123961000D01*
X80969000Y-123040000D02*
X79460000Y-123040000D01*
X77500000Y-123080000D02*
X76000000Y-123080000D01*
X81023000Y-122680000D02*
X75937000Y-122680000D01*
X81019000Y-122720000D02*
X75941000Y-122720000D01*
X80736000Y-123681000D02*
X79460000Y-123681000D01*
X80862000Y-123401000D02*
X79460000Y-123401000D01*
X77500000Y-123040000D02*
X75991000Y-123040000D01*
X77500000Y-124041000D02*
X76452000Y-124041000D01*
X80477000Y-124081000D02*
X79460000Y-124081000D01*
X77500000Y-124201000D02*
X76583000Y-124201000D01*
X77500000Y-123120000D02*
X76010000Y-123120000D01*
X77500000Y-123561000D02*
X76165000Y-123561000D01*
X77500000Y-124081000D02*
X76483000Y-124081000D01*
X77500000Y-124361000D02*
X76738000Y-124361000D01*
X80086000Y-124481000D02*
X79460000Y-124481000D01*
X79414000Y-124881000D02*
X77546000Y-124881000D01*
X77500000Y-123721000D02*
X76246000Y-123721000D01*
X79659722Y-124785722D02*
G75*
G03*
X79660000Y-120174420I-1179722J2305722D01*
G01*
X77300278Y-124785722D02*
G75*
G03*
X79660000Y-124785580I1179722J2305722D01*
G01*
X77300000Y-120174420D02*
G75*
G03*
X77300278Y-124785722I1180000J-2305580D01*
G01*
%TO.C,C2*%
X76480000Y-65590000D02*
X71360000Y-65590000D01*
X76480000Y-68210000D02*
X71360000Y-68210000D01*
X76480000Y-68210000D02*
X76480000Y-65590000D01*
X71360000Y-68210000D02*
X71360000Y-65590000D01*
%TO.C,C3*%
X53475000Y-71890000D02*
X55020000Y-71890000D01*
X53766000Y-71009000D02*
X55020000Y-71009000D01*
X54739000Y-70009000D02*
X57261000Y-70009000D01*
X56980000Y-70049000D02*
X57327000Y-70049000D01*
X53481000Y-71850000D02*
X55020000Y-71850000D01*
X54139000Y-70489000D02*
X55020000Y-70489000D01*
X53494000Y-71770000D02*
X55020000Y-71770000D01*
X56980000Y-70569000D02*
X57932000Y-70569000D01*
X56980000Y-70409000D02*
X57783000Y-70409000D01*
X56980000Y-70649000D02*
X57997000Y-70649000D01*
X53942000Y-70729000D02*
X55020000Y-70729000D01*
X54003000Y-70649000D02*
X55020000Y-70649000D01*
X56980000Y-70249000D02*
X57606000Y-70249000D01*
X53457000Y-72050000D02*
X58543000Y-72050000D01*
X56980000Y-71570000D02*
X58460000Y-71570000D01*
X54035000Y-70609000D02*
X55020000Y-70609000D01*
X56980000Y-71850000D02*
X58519000Y-71850000D01*
X55646000Y-69689000D02*
X56354000Y-69689000D01*
X56980000Y-71810000D02*
X58513000Y-71810000D01*
X54346000Y-70289000D02*
X55020000Y-70289000D01*
X56980000Y-71329000D02*
X58382000Y-71329000D01*
X53540000Y-71570000D02*
X55020000Y-71570000D01*
X53811000Y-70929000D02*
X55020000Y-70929000D01*
X53685000Y-71169000D02*
X55020000Y-71169000D01*
X56980000Y-71770000D02*
X58506000Y-71770000D01*
X53788000Y-70969000D02*
X55020000Y-70969000D01*
X56980000Y-70129000D02*
X57448000Y-70129000D01*
X53564000Y-71489000D02*
X55020000Y-71489000D01*
X56980000Y-70489000D02*
X57861000Y-70489000D01*
X54217000Y-70409000D02*
X55020000Y-70409000D01*
X56980000Y-70209000D02*
X57556000Y-70209000D01*
X56980000Y-71970000D02*
X58535000Y-71970000D01*
X56980000Y-71489000D02*
X58436000Y-71489000D01*
X54258000Y-70369000D02*
X55020000Y-70369000D01*
X56980000Y-70329000D02*
X57699000Y-70329000D01*
X54068000Y-70569000D02*
X55020000Y-70569000D01*
X55171000Y-69809000D02*
X56829000Y-69809000D01*
X56980000Y-71730000D02*
X58498000Y-71730000D01*
X56980000Y-71690000D02*
X58489000Y-71690000D01*
X56980000Y-71249000D02*
X58350000Y-71249000D01*
X53914000Y-70769000D02*
X55020000Y-70769000D01*
X54496000Y-70169000D02*
X55020000Y-70169000D01*
X56980000Y-71650000D02*
X58480000Y-71650000D01*
X53590000Y-71409000D02*
X55020000Y-71409000D01*
X53634000Y-71289000D02*
X55020000Y-71289000D01*
X53520000Y-71650000D02*
X55020000Y-71650000D01*
X53552000Y-71529000D02*
X55020000Y-71529000D01*
X53667000Y-71209000D02*
X55020000Y-71209000D01*
X53511000Y-71690000D02*
X55020000Y-71690000D01*
X56980000Y-71449000D02*
X58424000Y-71449000D01*
X53452000Y-72130000D02*
X58548000Y-72130000D01*
X56980000Y-71930000D02*
X58531000Y-71930000D01*
X54610000Y-70089000D02*
X55020000Y-70089000D01*
X56980000Y-71169000D02*
X58315000Y-71169000D01*
X53604000Y-71369000D02*
X55020000Y-71369000D01*
X53454000Y-72090000D02*
X58546000Y-72090000D01*
X56980000Y-71129000D02*
X58296000Y-71129000D01*
X56980000Y-70369000D02*
X57742000Y-70369000D01*
X56980000Y-70929000D02*
X58189000Y-70929000D01*
X53465000Y-71970000D02*
X55020000Y-71970000D01*
X56980000Y-70289000D02*
X57654000Y-70289000D01*
X56980000Y-70529000D02*
X57897000Y-70529000D01*
X53576000Y-71449000D02*
X55020000Y-71449000D01*
X56980000Y-70089000D02*
X57390000Y-70089000D01*
X56980000Y-70969000D02*
X58212000Y-70969000D01*
X54552000Y-70129000D02*
X55020000Y-70129000D01*
X53451000Y-72170000D02*
X58549000Y-72170000D01*
X56980000Y-70169000D02*
X57504000Y-70169000D01*
X54673000Y-70049000D02*
X55020000Y-70049000D01*
X53469000Y-71930000D02*
X55020000Y-71930000D01*
X56980000Y-70449000D02*
X57823000Y-70449000D01*
X56980000Y-71369000D02*
X58396000Y-71369000D01*
X53450000Y-72250000D02*
X58550000Y-72250000D01*
X54103000Y-70529000D02*
X55020000Y-70529000D01*
X53887000Y-70809000D02*
X55020000Y-70809000D01*
X53650000Y-71249000D02*
X55020000Y-71249000D01*
X56980000Y-71289000D02*
X58366000Y-71289000D01*
X56980000Y-71610000D02*
X58470000Y-71610000D01*
X56980000Y-71409000D02*
X58410000Y-71409000D01*
X53860000Y-70849000D02*
X55020000Y-70849000D01*
X56980000Y-70849000D02*
X58140000Y-70849000D01*
X53487000Y-71810000D02*
X55020000Y-71810000D01*
X56980000Y-71529000D02*
X58448000Y-71529000D01*
X53618000Y-71329000D02*
X55020000Y-71329000D01*
X56980000Y-70689000D02*
X58028000Y-70689000D01*
X53972000Y-70689000D02*
X55020000Y-70689000D01*
X53450000Y-72210000D02*
X58550000Y-72210000D01*
X53530000Y-71610000D02*
X55020000Y-71610000D01*
X54972000Y-69889000D02*
X57028000Y-69889000D01*
X56980000Y-71089000D02*
X58276000Y-71089000D01*
X56980000Y-71209000D02*
X58333000Y-71209000D01*
X56980000Y-70889000D02*
X58165000Y-70889000D01*
X53461000Y-72010000D02*
X58539000Y-72010000D01*
X53704000Y-71129000D02*
X55020000Y-71129000D01*
X55441000Y-69729000D02*
X56559000Y-69729000D01*
X54888000Y-69929000D02*
X57112000Y-69929000D01*
X56980000Y-70729000D02*
X58058000Y-70729000D01*
X54811000Y-69969000D02*
X57189000Y-69969000D01*
X56980000Y-71049000D02*
X58256000Y-71049000D01*
X56980000Y-71009000D02*
X58234000Y-71009000D01*
X53744000Y-71049000D02*
X55020000Y-71049000D01*
X56980000Y-70769000D02*
X58086000Y-70769000D01*
X54177000Y-70449000D02*
X55020000Y-70449000D01*
X55066000Y-69849000D02*
X56934000Y-69849000D01*
X55293000Y-69769000D02*
X56707000Y-69769000D01*
X53724000Y-71089000D02*
X55020000Y-71089000D01*
X54301000Y-70329000D02*
X55020000Y-70329000D01*
X53502000Y-71730000D02*
X55020000Y-71730000D01*
X56980000Y-70609000D02*
X57965000Y-70609000D01*
X53835000Y-70889000D02*
X55020000Y-70889000D01*
X56980000Y-71890000D02*
X58525000Y-71890000D01*
X56000000Y-75700000D02*
X56000000Y-74500000D01*
X54394000Y-70249000D02*
X55020000Y-70249000D01*
X55350000Y-75100000D02*
X56650000Y-75100000D01*
X56980000Y-70809000D02*
X58113000Y-70809000D01*
X54444000Y-70209000D02*
X55020000Y-70209000D01*
X54820278Y-69944278D02*
G75*
G03*
X54820000Y-74555580I1179722J-2305722D01*
G01*
X57179722Y-69944278D02*
G75*
G03*
X54820000Y-69944420I-1179722J-2305722D01*
G01*
X57180000Y-74555580D02*
G75*
G03*
X57179722Y-69944278I-1180000J2305580D01*
G01*
%TO.C,C4*%
X75710000Y-88510000D02*
X70590000Y-88510000D01*
X75710000Y-85890000D02*
X70590000Y-85890000D01*
X75710000Y-88510000D02*
X75710000Y-85890000D01*
X70590000Y-88510000D02*
X70590000Y-85890000D01*
%TO.C,C5*%
X69870000Y-92230000D02*
X69556000Y-92230000D01*
X67250000Y-87110000D02*
X67250000Y-92230000D01*
X67564000Y-92230000D02*
X67250000Y-92230000D01*
X69870000Y-87110000D02*
X69870000Y-92230000D01*
X67564000Y-87110000D02*
X67250000Y-87110000D01*
X69870000Y-87110000D02*
X69556000Y-87110000D01*
%TO.C,C6*%
X69870000Y-94540000D02*
X69870000Y-99660000D01*
X67250000Y-94540000D02*
X67250000Y-99660000D01*
X69870000Y-94540000D02*
X69556000Y-94540000D01*
X69870000Y-99660000D02*
X69556000Y-99660000D01*
X67564000Y-99660000D02*
X67250000Y-99660000D01*
X67564000Y-94540000D02*
X67250000Y-94540000D01*
%TO.C,C7*%
X94840000Y-114030000D02*
X94840000Y-116650000D01*
X94840000Y-114030000D02*
X99960000Y-114030000D01*
X99960000Y-114030000D02*
X99960000Y-116650000D01*
X94840000Y-116650000D02*
X99960000Y-116650000D01*
%TO.C,C8*%
X83269000Y-121370000D02*
X83269000Y-120000000D01*
X84230000Y-124900000D02*
X84230000Y-119800000D01*
X82589000Y-124282000D02*
X82589000Y-123330000D01*
X83750000Y-121370000D02*
X83750000Y-119852000D01*
X83630000Y-124820000D02*
X83630000Y-123330000D01*
X82789000Y-121370000D02*
X82789000Y-120264000D01*
X83990000Y-124885000D02*
X83990000Y-123330000D01*
X83429000Y-124760000D02*
X83429000Y-123330000D01*
X83109000Y-124626000D02*
X83109000Y-123330000D01*
X83830000Y-124863000D02*
X83830000Y-123330000D01*
X83469000Y-121370000D02*
X83469000Y-119926000D01*
X82629000Y-121370000D02*
X82629000Y-120385000D01*
X82869000Y-124490000D02*
X82869000Y-123330000D01*
X82109000Y-123740000D02*
X82109000Y-123330000D01*
X83910000Y-121370000D02*
X83910000Y-119825000D01*
X83029000Y-121370000D02*
X83029000Y-120116000D01*
X83149000Y-121370000D02*
X83149000Y-120054000D01*
X83870000Y-121370000D02*
X83870000Y-119831000D01*
X82389000Y-124092000D02*
X82389000Y-123330000D01*
X82469000Y-121370000D02*
X82469000Y-120527000D01*
X82309000Y-121370000D02*
X82309000Y-120696000D01*
X82269000Y-123956000D02*
X82269000Y-123330000D01*
X82029000Y-123611000D02*
X82029000Y-121089000D01*
X83509000Y-121370000D02*
X83509000Y-119914000D01*
X84110000Y-124896000D02*
X84110000Y-119804000D01*
X81789000Y-123057000D02*
X81789000Y-121643000D01*
X83469000Y-124774000D02*
X83469000Y-123330000D01*
X82909000Y-121370000D02*
X82909000Y-120185000D01*
X83830000Y-121370000D02*
X83830000Y-119837000D01*
X83229000Y-124683000D02*
X83229000Y-123330000D01*
X82349000Y-124049000D02*
X82349000Y-123330000D01*
X83389000Y-124746000D02*
X83389000Y-123330000D01*
X84270000Y-124900000D02*
X84270000Y-119800000D01*
X83109000Y-121370000D02*
X83109000Y-120074000D01*
X82509000Y-121370000D02*
X82509000Y-120489000D01*
X83149000Y-124646000D02*
X83149000Y-123330000D01*
X82189000Y-123854000D02*
X82189000Y-123330000D01*
X82549000Y-121370000D02*
X82549000Y-120453000D01*
X83790000Y-124856000D02*
X83790000Y-123330000D01*
X83590000Y-124810000D02*
X83590000Y-123330000D01*
X84190000Y-124899000D02*
X84190000Y-119801000D01*
X84070000Y-124893000D02*
X84070000Y-119807000D01*
X83590000Y-121370000D02*
X83590000Y-119890000D01*
X83429000Y-121370000D02*
X83429000Y-119940000D01*
X83710000Y-121370000D02*
X83710000Y-119861000D01*
X82309000Y-124004000D02*
X82309000Y-123330000D01*
X83670000Y-121370000D02*
X83670000Y-119870000D01*
X84030000Y-124889000D02*
X84030000Y-119811000D01*
X82589000Y-121370000D02*
X82589000Y-120418000D01*
X83750000Y-124848000D02*
X83750000Y-123330000D01*
X84150000Y-124898000D02*
X84150000Y-119802000D01*
X87120000Y-123000000D02*
X87120000Y-121700000D01*
X83389000Y-121370000D02*
X83389000Y-119954000D01*
X87720000Y-122350000D02*
X86520000Y-122350000D01*
X82989000Y-124562000D02*
X82989000Y-123330000D01*
X83670000Y-124830000D02*
X83670000Y-123330000D01*
X82949000Y-121370000D02*
X82949000Y-120161000D01*
X81709000Y-122704000D02*
X81709000Y-121996000D01*
X83710000Y-124839000D02*
X83710000Y-123330000D01*
X82189000Y-121370000D02*
X82189000Y-120846000D01*
X83069000Y-124606000D02*
X83069000Y-123330000D01*
X83309000Y-121370000D02*
X83309000Y-119984000D01*
X83990000Y-121370000D02*
X83990000Y-119815000D01*
X82949000Y-124539000D02*
X82949000Y-123330000D01*
X81829000Y-123179000D02*
X81829000Y-121521000D01*
X83349000Y-121370000D02*
X83349000Y-119968000D01*
X82429000Y-121370000D02*
X82429000Y-120567000D01*
X81869000Y-123284000D02*
X81869000Y-121416000D01*
X82709000Y-121370000D02*
X82709000Y-120322000D01*
X82829000Y-124463000D02*
X82829000Y-123330000D01*
X81749000Y-122909000D02*
X81749000Y-121791000D01*
X83189000Y-121370000D02*
X83189000Y-120035000D01*
X82749000Y-121370000D02*
X82749000Y-120292000D01*
X83269000Y-124700000D02*
X83269000Y-123330000D01*
X82229000Y-121370000D02*
X82229000Y-120794000D01*
X81949000Y-123462000D02*
X81949000Y-121238000D01*
X82069000Y-123677000D02*
X82069000Y-123330000D01*
X83549000Y-124798000D02*
X83549000Y-123330000D01*
X82269000Y-121370000D02*
X82269000Y-120744000D01*
X82829000Y-121370000D02*
X82829000Y-120237000D01*
X81909000Y-123378000D02*
X81909000Y-121322000D01*
X82549000Y-124247000D02*
X82549000Y-123330000D01*
X82669000Y-124347000D02*
X82669000Y-123330000D01*
X82149000Y-123798000D02*
X82149000Y-123330000D01*
X82069000Y-121370000D02*
X82069000Y-121023000D01*
X83549000Y-121370000D02*
X83549000Y-119902000D01*
X82109000Y-121370000D02*
X82109000Y-120960000D01*
X82789000Y-124436000D02*
X82789000Y-123330000D01*
X82629000Y-124315000D02*
X82629000Y-123330000D01*
X82389000Y-121370000D02*
X82389000Y-120608000D01*
X82709000Y-124378000D02*
X82709000Y-123330000D01*
X82349000Y-121370000D02*
X82349000Y-120651000D01*
X82869000Y-121370000D02*
X82869000Y-120210000D01*
X82509000Y-124211000D02*
X82509000Y-123330000D01*
X82149000Y-121370000D02*
X82149000Y-120902000D01*
X81989000Y-123539000D02*
X81989000Y-121161000D01*
X83509000Y-124786000D02*
X83509000Y-123330000D01*
X82429000Y-124133000D02*
X82429000Y-123330000D01*
X83870000Y-124869000D02*
X83870000Y-123330000D01*
X82909000Y-124515000D02*
X82909000Y-123330000D01*
X83790000Y-121370000D02*
X83790000Y-119844000D01*
X82989000Y-121370000D02*
X82989000Y-120138000D01*
X83189000Y-124665000D02*
X83189000Y-123330000D01*
X83029000Y-124584000D02*
X83029000Y-123330000D01*
X83069000Y-121370000D02*
X83069000Y-120094000D01*
X83950000Y-124881000D02*
X83950000Y-123330000D01*
X82749000Y-124408000D02*
X82749000Y-123330000D01*
X83349000Y-124732000D02*
X83349000Y-123330000D01*
X83950000Y-121370000D02*
X83950000Y-119819000D01*
X83630000Y-121370000D02*
X83630000Y-119880000D01*
X83309000Y-124716000D02*
X83309000Y-123330000D01*
X82469000Y-124173000D02*
X82469000Y-123330000D01*
X82229000Y-123906000D02*
X82229000Y-123330000D01*
X82669000Y-121370000D02*
X82669000Y-120353000D01*
X83910000Y-124875000D02*
X83910000Y-123330000D01*
X83229000Y-121370000D02*
X83229000Y-120017000D01*
X86575580Y-121170000D02*
G75*
G03*
X81964278Y-121170278I-2305580J-1180000D01*
G01*
X81964278Y-121170278D02*
G75*
G03*
X81964420Y-123530000I2305722J-1179722D01*
G01*
X81964278Y-123529722D02*
G75*
G03*
X86575580Y-123530000I2305722J1179722D01*
G01*
%TO.C,D1*%
X79390000Y-66560000D02*
X77270000Y-66560000D01*
X77270000Y-70680000D02*
X79390000Y-70680000D01*
X77270000Y-66560000D02*
X77270000Y-70680000D01*
X78330000Y-65790000D02*
X78330000Y-66560000D01*
X78330000Y-71450000D02*
X78330000Y-70680000D01*
X77270000Y-70020000D02*
X79390000Y-70020000D01*
X79390000Y-70680000D02*
X79390000Y-66560000D01*
%TO.C,D2*%
X89340000Y-101620000D02*
X89340000Y-100850000D01*
X88280000Y-100190000D02*
X90400000Y-100190000D01*
X90400000Y-96730000D02*
X88280000Y-96730000D01*
X89340000Y-95960000D02*
X89340000Y-96730000D01*
X90400000Y-100850000D02*
X90400000Y-96730000D01*
X88280000Y-96730000D02*
X88280000Y-100850000D01*
X88280000Y-100850000D02*
X90400000Y-100850000D01*
%TO.C,D3*%
X89380000Y-112180000D02*
X89380000Y-111410000D01*
X90440000Y-107290000D02*
X88320000Y-107290000D01*
X88320000Y-107290000D02*
X88320000Y-111410000D01*
X90440000Y-111410000D02*
X90440000Y-107290000D01*
X89380000Y-106520000D02*
X89380000Y-107290000D01*
X88320000Y-110750000D02*
X90440000Y-110750000D01*
X88320000Y-111410000D02*
X90440000Y-111410000D01*
%TO.C,J1*%
X73220000Y-134460000D02*
X73220000Y-143260000D01*
X64020000Y-128560000D02*
X66620000Y-128560000D01*
X70520000Y-128560000D02*
X73220000Y-128560000D01*
X64020000Y-143260000D02*
X64020000Y-128560000D01*
X73220000Y-143260000D02*
X64020000Y-143260000D01*
X73220000Y-128560000D02*
X73220000Y-130460000D01*
%TO.C,J4*%
X97120000Y-98430000D02*
X99720000Y-98430000D01*
X97120000Y-98430000D02*
X97120000Y-103570000D01*
X97120000Y-103570000D02*
X102320000Y-103570000D01*
X99720000Y-98430000D02*
X99720000Y-95830000D01*
X97120000Y-95830000D02*
X98450000Y-95830000D01*
X99720000Y-95830000D02*
X102320000Y-95830000D01*
X102320000Y-95830000D02*
X102320000Y-103570000D01*
X97120000Y-97160000D02*
X97120000Y-95830000D01*
%TO.C,J7*%
X96460000Y-66040000D02*
X96460000Y-64710000D01*
X96460000Y-67310000D02*
X96460000Y-74990000D01*
X96460000Y-67310000D02*
X99120000Y-67310000D01*
X99120000Y-67310000D02*
X99120000Y-74990000D01*
X96460000Y-74990000D02*
X99120000Y-74990000D01*
X96460000Y-64710000D02*
X97790000Y-64710000D01*
%TO.C,J8*%
X73466000Y-82610000D02*
X72136000Y-82610000D01*
X73466000Y-72330000D02*
X70806000Y-72330000D01*
X70806000Y-80010000D02*
X70806000Y-72330000D01*
X73466000Y-80010000D02*
X73466000Y-72330000D01*
X73466000Y-81280000D02*
X73466000Y-82610000D01*
X73466000Y-80010000D02*
X70806000Y-80010000D01*
D11*
%TO.C,J9*%
X63340000Y-105310000D02*
X63340000Y-115310000D01*
X53340000Y-115310000D02*
X53340000Y-105310000D01*
X53340000Y-105310000D02*
X63340000Y-105310000D01*
X63340000Y-115310000D02*
X53340000Y-115310000D01*
%TO.C,J10*%
X63340000Y-119950000D02*
X63340000Y-129950000D01*
X53340000Y-129950000D02*
X53340000Y-119950000D01*
X53340000Y-119950000D02*
X63340000Y-119950000D01*
X63340000Y-129950000D02*
X53340000Y-129950000D01*
D12*
%TO.C,JP1*%
X96750000Y-92470000D02*
X99350000Y-92470000D01*
X94150000Y-92470000D02*
X94150000Y-91140000D01*
X96750000Y-92470000D02*
X96750000Y-89810000D01*
X95480000Y-92470000D02*
X94150000Y-92470000D01*
X99350000Y-92470000D02*
X99350000Y-89810000D01*
X96750000Y-89810000D02*
X99350000Y-89810000D01*
%TO.C,P1*%
X53430000Y-77210000D02*
X53430000Y-93410000D01*
X66430000Y-77210000D02*
X53430000Y-77210000D01*
X66430000Y-93410000D02*
X53430000Y-93410000D01*
X66430000Y-77210000D02*
X66430000Y-93410000D01*
%TO.C,R1*%
X80480000Y-65290000D02*
X80150000Y-65290000D01*
X82770000Y-65290000D02*
X82770000Y-71710000D01*
X82770000Y-71710000D02*
X82440000Y-71710000D01*
X82440000Y-65290000D02*
X82770000Y-65290000D01*
X80150000Y-71710000D02*
X80480000Y-71710000D01*
X80150000Y-65290000D02*
X80150000Y-71710000D01*
%TO.C,R2*%
X106466000Y-72044000D02*
X106136000Y-72044000D01*
X103846000Y-65624000D02*
X103846000Y-72044000D01*
X104176000Y-65624000D02*
X103846000Y-65624000D01*
X106466000Y-65624000D02*
X106466000Y-72044000D01*
X106136000Y-65624000D02*
X106466000Y-65624000D01*
X103846000Y-72044000D02*
X104176000Y-72044000D01*
%TO.C,R3*%
X100290000Y-65624000D02*
X100290000Y-72044000D01*
X100620000Y-65624000D02*
X100290000Y-65624000D01*
X102910000Y-65624000D02*
X102910000Y-72044000D01*
X102580000Y-65624000D02*
X102910000Y-65624000D01*
X102910000Y-72044000D02*
X102580000Y-72044000D01*
X100290000Y-72044000D02*
X100620000Y-72044000D01*
%TO.C,R4*%
X65520000Y-108350000D02*
X65520000Y-108680000D01*
X71940000Y-106060000D02*
X71940000Y-106390000D01*
X71940000Y-108680000D02*
X71940000Y-108350000D01*
X65520000Y-106060000D02*
X71940000Y-106060000D01*
X65520000Y-108680000D02*
X71940000Y-108680000D01*
X65520000Y-106390000D02*
X65520000Y-106060000D01*
%TO.C,R5*%
X60700000Y-116340000D02*
X60700000Y-116670000D01*
X54280000Y-116670000D02*
X54280000Y-116340000D01*
X54280000Y-118630000D02*
X54280000Y-118960000D01*
X54280000Y-116340000D02*
X60700000Y-116340000D01*
X54280000Y-118960000D02*
X60700000Y-118960000D01*
X60700000Y-118960000D02*
X60700000Y-118630000D01*
%TO.C,R6*%
X107402000Y-65624000D02*
X107732000Y-65624000D01*
X110022000Y-72044000D02*
X110022000Y-65624000D01*
X110022000Y-65624000D02*
X109692000Y-65624000D01*
X109692000Y-72044000D02*
X110022000Y-72044000D01*
X107732000Y-72044000D02*
X107402000Y-72044000D01*
X107402000Y-72044000D02*
X107402000Y-65624000D01*
%TO.C,R7*%
X65250000Y-118240000D02*
X71670000Y-118240000D01*
X65250000Y-115620000D02*
X71670000Y-115620000D01*
X71670000Y-115620000D02*
X71670000Y-115950000D01*
X65250000Y-117910000D02*
X65250000Y-118240000D01*
X71670000Y-118240000D02*
X71670000Y-117910000D01*
X65250000Y-115950000D02*
X65250000Y-115620000D01*
%TO.C,R8*%
X71700000Y-115000000D02*
X71700000Y-114670000D01*
X71700000Y-112380000D02*
X71700000Y-112710000D01*
X65280000Y-112710000D02*
X65280000Y-112380000D01*
X65280000Y-114670000D02*
X65280000Y-115000000D01*
X65280000Y-115000000D02*
X71700000Y-115000000D01*
X65280000Y-112380000D02*
X71700000Y-112380000D01*
%TO.C,R9*%
X91020000Y-114030000D02*
X91350000Y-114030000D01*
X93310000Y-107610000D02*
X93640000Y-107610000D01*
X91020000Y-107610000D02*
X91020000Y-114030000D01*
X93640000Y-107610000D02*
X93640000Y-114030000D01*
X93640000Y-114030000D02*
X93310000Y-114030000D01*
X91350000Y-107610000D02*
X91020000Y-107610000D01*
%TO.C,R10*%
X118160000Y-85900000D02*
X118490000Y-85900000D01*
X116200000Y-85900000D02*
X115870000Y-85900000D01*
X115870000Y-85900000D02*
X115870000Y-79480000D01*
X118490000Y-85900000D02*
X118490000Y-79480000D01*
X118490000Y-79480000D02*
X118160000Y-79480000D01*
X115870000Y-79480000D02*
X116200000Y-79480000D01*
%TO.C,R11*%
X121700000Y-85890000D02*
X121370000Y-85890000D01*
X119080000Y-79470000D02*
X119080000Y-85890000D01*
X119410000Y-79470000D02*
X119080000Y-79470000D01*
X119080000Y-85890000D02*
X119410000Y-85890000D01*
X121700000Y-79470000D02*
X121700000Y-85890000D01*
X121370000Y-79470000D02*
X121700000Y-79470000D01*
%TO.C,R12*%
X109560000Y-85880000D02*
X109230000Y-85880000D01*
X111850000Y-85880000D02*
X111850000Y-79460000D01*
X109230000Y-79460000D02*
X109560000Y-79460000D01*
X111850000Y-79460000D02*
X111520000Y-79460000D01*
X111520000Y-85880000D02*
X111850000Y-85880000D01*
X109230000Y-85880000D02*
X109230000Y-79460000D01*
%TO.C,R13*%
X115180000Y-85880000D02*
X114850000Y-85880000D01*
X112890000Y-79460000D02*
X112560000Y-79460000D01*
X114850000Y-79460000D02*
X115180000Y-79460000D01*
X112560000Y-79460000D02*
X112560000Y-85880000D01*
X115180000Y-79460000D02*
X115180000Y-85880000D01*
X112560000Y-85880000D02*
X112890000Y-85880000D01*
%TO.C,R14*%
X108120000Y-89640000D02*
X108120000Y-96060000D01*
X108120000Y-96060000D02*
X107790000Y-96060000D01*
X105500000Y-96060000D02*
X105830000Y-96060000D01*
X107790000Y-89640000D02*
X108120000Y-89640000D01*
X105830000Y-89640000D02*
X105500000Y-89640000D01*
X105500000Y-89640000D02*
X105500000Y-96060000D01*
%TO.C,R15*%
X111340000Y-96100000D02*
X111340000Y-89680000D01*
X108720000Y-96100000D02*
X108720000Y-89680000D01*
X111010000Y-96100000D02*
X111340000Y-96100000D01*
X108720000Y-89680000D02*
X109050000Y-89680000D01*
X109050000Y-96100000D02*
X108720000Y-96100000D01*
X111340000Y-89680000D02*
X111010000Y-89680000D01*
%TO.C,R16*%
X58500000Y-96110000D02*
X58170000Y-96110000D01*
X55880000Y-102530000D02*
X55880000Y-96110000D01*
X55880000Y-96110000D02*
X56210000Y-96110000D01*
X58500000Y-102530000D02*
X58500000Y-96110000D01*
X58170000Y-102530000D02*
X58500000Y-102530000D01*
X56210000Y-102530000D02*
X55880000Y-102530000D01*
%TO.C,R17*%
X55280000Y-102480000D02*
X54950000Y-102480000D01*
X54950000Y-96060000D02*
X55280000Y-96060000D01*
X55280000Y-96060000D02*
X55280000Y-102480000D01*
X52660000Y-96060000D02*
X52660000Y-102480000D01*
X52990000Y-96060000D02*
X52660000Y-96060000D01*
X52660000Y-102480000D02*
X52990000Y-102480000D01*
%TO.C,RV1*%
X100896000Y-81452000D02*
X100896000Y-84752000D01*
X100596000Y-87252000D02*
X100596000Y-87502000D01*
X95696000Y-87252000D02*
X95696000Y-87502000D01*
X100596000Y-87502000D02*
X99346000Y-87502000D01*
X94396000Y-87502000D02*
X94396000Y-87252000D01*
X99546000Y-79952000D02*
X100896000Y-81452000D01*
X100846000Y-87002000D02*
X100846000Y-87252000D01*
X95446000Y-79952000D02*
X96346000Y-79952000D01*
X99346000Y-87502000D02*
X99346000Y-87252000D01*
X98646000Y-79952000D02*
X99546000Y-79952000D01*
X94096000Y-81402000D02*
X95446000Y-79952000D01*
X94096000Y-84752000D02*
X94096000Y-81402000D01*
X95696000Y-87502000D02*
X94396000Y-87502000D01*
X100846000Y-87252000D02*
X100596000Y-87252000D01*
X99346000Y-87252000D02*
X95696000Y-87252000D01*
X94096000Y-87252000D02*
X94096000Y-87002000D01*
X94396000Y-87252000D02*
X94096000Y-87252000D01*
%TO.C,SW1*%
X62318000Y-71612000D02*
X66818000Y-71612000D01*
X66818000Y-65112000D02*
X62318000Y-65112000D01*
X61068000Y-67612000D02*
X61068000Y-69112000D01*
X68068000Y-69112000D02*
X68068000Y-67612000D01*
%TO.C,U1*%
X77020000Y-114230000D02*
X77020000Y-118871000D01*
X83991000Y-114230000D02*
X83991000Y-115740000D01*
X77020000Y-118871000D02*
X87260000Y-118871000D01*
X87260000Y-114230000D02*
X87260000Y-118871000D01*
X77020000Y-114230000D02*
X87260000Y-114230000D01*
X77020000Y-115740000D02*
X87260000Y-115740000D01*
X80290000Y-114230000D02*
X80290000Y-115740000D01*
%TO.C,U2*%
X77156000Y-75826000D02*
X77156000Y-111626000D01*
X77156000Y-111626000D02*
X87436000Y-111626000D01*
X84946000Y-111566000D02*
X84946000Y-75886000D01*
X79646000Y-75886000D02*
X79646000Y-111566000D01*
X87436000Y-75826000D02*
X77156000Y-75826000D01*
X87436000Y-111626000D02*
X87436000Y-75826000D01*
X84946000Y-75886000D02*
X83296000Y-75886000D01*
X79646000Y-111566000D02*
X84946000Y-111566000D01*
X81296000Y-75886000D02*
X79646000Y-75886000D01*
X81296000Y-75886000D02*
G75*
G03*
X83296000Y-75886000I1000000J0D01*
G01*
%TO.C,U3*%
X129330000Y-108730000D02*
X129330000Y-70570000D01*
X129330000Y-110000000D02*
X129330000Y-111330000D01*
X129330000Y-111330000D02*
X128000000Y-111330000D01*
X126670000Y-108730000D02*
X126670000Y-70570000D01*
X129330000Y-70570000D02*
X126670000Y-70570000D01*
X129330000Y-108730000D02*
X126670000Y-108730000D01*
D13*
%TO.C,U4*%
X100360000Y-136100000D02*
X100660000Y-136400000D01*
X99960000Y-135900000D02*
X100360000Y-136100000D01*
X100660000Y-136400000D02*
X103660000Y-136400000D01*
X99360000Y-135800000D02*
X99960000Y-135900000D01*
X88960000Y-135700000D02*
X98660000Y-135700000D01*
X103660000Y-136400000D02*
X103660000Y-121900000D01*
X88960000Y-121900000D02*
X88960000Y-135700000D01*
X98660000Y-135700000D02*
X99360000Y-135800000D01*
X88960000Y-121900000D02*
X103660000Y-121900000D01*
D12*
%TO.C,Y1*%
X70735000Y-98025000D02*
X70735000Y-91775000D01*
X75785000Y-98025000D02*
X75785000Y-91775000D01*
X70735000Y-98025000D02*
G75*
G03*
X75785000Y-98025000I2525000J0D01*
G01*
X75785000Y-91775000D02*
G75*
G03*
X70735000Y-91775000I-2525000J0D01*
G01*
%TO.C,D4*%
X90488000Y-67854000D02*
X90644000Y-67854000D01*
X88172000Y-67854000D02*
X88328000Y-67854000D01*
X90488000Y-67334961D02*
G75*
G03*
X90487837Y-65252870I-1080000J1040961D01*
G01*
X90643516Y-67854000D02*
G75*
G03*
X90486608Y-64621665I-1235516J1560000D01*
G01*
X88329392Y-64621665D02*
G75*
G03*
X88172484Y-67854000I1078608J-1672335D01*
G01*
X88328163Y-65252870D02*
G75*
G03*
X88328000Y-67334961I1079837J-1041130D01*
G01*
%TO.C,R18*%
X86146000Y-65624000D02*
X86146000Y-72044000D01*
X83526000Y-65624000D02*
X83526000Y-72044000D01*
X86146000Y-72044000D02*
X85816000Y-72044000D01*
X83526000Y-72044000D02*
X83856000Y-72044000D01*
X85816000Y-65624000D02*
X86146000Y-65624000D01*
X83856000Y-65624000D02*
X83526000Y-65624000D01*
%TO.C,Q1*%
X62410000Y-99840000D02*
X62410000Y-103440000D01*
X65358807Y-103996400D02*
G75*
G03*
X66860000Y-101640000I-1098807J2356400D01*
G01*
X62410000Y-103440000D02*
G75*
G03*
X63137205Y-103964184I1850000J1800000D01*
G01*
X63137205Y-99315816D02*
G75*
G03*
X62410000Y-99840000I1122795J-2324184D01*
G01*
X66860000Y-101640000D02*
G75*
G03*
X65358807Y-99283600I-2600000J0D01*
G01*
%TO.C,R19*%
X75130000Y-103800000D02*
X75130000Y-103470000D01*
X75130000Y-101180000D02*
X75130000Y-101510000D01*
X68710000Y-101510000D02*
X68710000Y-101180000D01*
X68710000Y-103800000D02*
X75130000Y-103800000D01*
X68710000Y-103470000D02*
X68710000Y-103800000D01*
X68710000Y-101180000D02*
X75130000Y-101180000D01*
%TO.C,JP2*%
X62738000Y-94682000D02*
X62738000Y-97342000D01*
X64008000Y-94682000D02*
X65338000Y-94682000D01*
X62738000Y-94682000D02*
X60138000Y-94682000D01*
X62738000Y-97342000D02*
X60138000Y-97342000D01*
X60138000Y-94682000D02*
X60138000Y-97342000D01*
X65338000Y-94682000D02*
X65338000Y-96012000D01*
%TO.C,R20*%
X69710000Y-84230000D02*
X70040000Y-84230000D01*
X70040000Y-77810000D02*
X69710000Y-77810000D01*
X67750000Y-84230000D02*
X67420000Y-84230000D01*
X70040000Y-84230000D02*
X70040000Y-77810000D01*
X67420000Y-84230000D02*
X67420000Y-77810000D01*
X67420000Y-77810000D02*
X67750000Y-77810000D01*
%TO.C,J11*%
X85852000Y-135128000D02*
X75692000Y-135128000D01*
X85852000Y-128778000D02*
X75692000Y-128778000D01*
X85852000Y-136398000D02*
X85852000Y-128778000D01*
X75692000Y-128778000D02*
X75692000Y-136398000D01*
X75692000Y-136398000D02*
X85852000Y-136398000D01*
%TO.C,Q2*%
X107370000Y-81580000D02*
X107370000Y-77980000D01*
X106642795Y-82104184D02*
G75*
G03*
X107370000Y-81580000I-1122795J2324184D01*
G01*
X102920000Y-79780000D02*
G75*
G03*
X104421193Y-82136400I2600000J0D01*
G01*
X107370000Y-77980000D02*
G75*
G03*
X106642795Y-77455816I-1850000J-1800000D01*
G01*
X104421193Y-77423600D02*
G75*
G03*
X102920000Y-79780000I1098807J-2356400D01*
G01*
%TO.C,R21*%
X94570000Y-111890000D02*
X94240000Y-111890000D01*
X96860000Y-111890000D02*
X96860000Y-105470000D01*
X94240000Y-111890000D02*
X94240000Y-105470000D01*
X96860000Y-105470000D02*
X96530000Y-105470000D01*
X94240000Y-105470000D02*
X94570000Y-105470000D01*
X96530000Y-111890000D02*
X96860000Y-111890000D01*
%TO.C,C9*%
X108380000Y-133340000D02*
X105760000Y-133340000D01*
X108380000Y-128220000D02*
X105760000Y-128220000D01*
X105760000Y-128220000D02*
X105760000Y-133340000D01*
X108380000Y-128220000D02*
X108380000Y-133340000D01*
%TO.C,C10*%
X115390000Y-115590000D02*
X115390000Y-118210000D01*
X115390000Y-115590000D02*
X120510000Y-115590000D01*
X115390000Y-118210000D02*
X120510000Y-118210000D01*
X120510000Y-115590000D02*
X120510000Y-118210000D01*
%TO.C,D5*%
X109830000Y-120400000D02*
X109830000Y-121170000D01*
X109830000Y-126060000D02*
X109830000Y-125290000D01*
X110890000Y-125290000D02*
X110890000Y-121170000D01*
X110890000Y-121170000D02*
X108770000Y-121170000D01*
X108770000Y-121170000D02*
X108770000Y-125290000D01*
X108770000Y-125290000D02*
X110890000Y-125290000D01*
X110890000Y-121830000D02*
X108770000Y-121830000D01*
%TO.C,D6*%
X127090000Y-117760000D02*
X127090000Y-115640000D01*
X127750000Y-117760000D02*
X127750000Y-115640000D01*
X128520000Y-116700000D02*
X127750000Y-116700000D01*
X127750000Y-115640000D02*
X123630000Y-115640000D01*
X123630000Y-117760000D02*
X127750000Y-117760000D01*
X123630000Y-115640000D02*
X123630000Y-117760000D01*
X122860000Y-116700000D02*
X123630000Y-116700000D01*
D14*
%TO.C,J12*%
X108860000Y-142380000D02*
X123660000Y-142380000D01*
X108860000Y-128680000D02*
X123660000Y-128680000D01*
X123660000Y-142380000D02*
X123660000Y-128680000D01*
X108860000Y-128680000D02*
X108860000Y-142380000D01*
D12*
%TO.C,R22*%
X127410000Y-125860000D02*
X127410000Y-122540000D01*
X117480000Y-124200000D02*
X118290000Y-124200000D01*
X127410000Y-122540000D02*
X118290000Y-122540000D01*
X118290000Y-122540000D02*
X118290000Y-125860000D01*
X118290000Y-125860000D02*
X127410000Y-125860000D01*
X128220000Y-124200000D02*
X127410000Y-124200000D01*
%TO.C,R23*%
X128220000Y-120300000D02*
X127410000Y-120300000D01*
X118290000Y-121960000D02*
X127410000Y-121960000D01*
X118290000Y-118640000D02*
X118290000Y-121960000D01*
X127410000Y-121960000D02*
X127410000Y-118640000D01*
X127410000Y-118640000D02*
X118290000Y-118640000D01*
X117480000Y-120300000D02*
X118290000Y-120300000D01*
%TO.C,R24*%
X111390000Y-116020000D02*
X111720000Y-116020000D01*
X111720000Y-109600000D02*
X111390000Y-109600000D01*
X113680000Y-109600000D02*
X114010000Y-109600000D01*
X111390000Y-109600000D02*
X111390000Y-116020000D01*
X114010000Y-109600000D02*
X114010000Y-116020000D01*
X114010000Y-116020000D02*
X113680000Y-116020000D01*
%TO.C,R25*%
X76510000Y-105770000D02*
X76510000Y-112190000D01*
X76510000Y-112190000D02*
X76180000Y-112190000D01*
X73890000Y-112190000D02*
X74220000Y-112190000D01*
X73890000Y-105770000D02*
X73890000Y-112190000D01*
X76180000Y-105770000D02*
X76510000Y-105770000D01*
X74220000Y-105770000D02*
X73890000Y-105770000D01*
%TO.C,U5*%
X114820000Y-97030000D02*
X114820000Y-115050000D01*
X114820000Y-115050000D02*
X125100000Y-115050000D01*
X125100000Y-115050000D02*
X125100000Y-97030000D01*
X125100000Y-97030000D02*
X114820000Y-97030000D01*
X120960000Y-114990000D02*
X122610000Y-114990000D01*
X122610000Y-114990000D02*
X122610000Y-97090000D01*
X117310000Y-114990000D02*
X118960000Y-114990000D01*
X122610000Y-97090000D02*
X117310000Y-97090000D01*
X117310000Y-97090000D02*
X117310000Y-114990000D01*
X120960000Y-114990000D02*
G75*
G03*
X118960000Y-114990000I-1000000J0D01*
G01*
%TO.C,R26*%
X111540000Y-120020000D02*
X111540000Y-126440000D01*
X111870000Y-120020000D02*
X111540000Y-120020000D01*
X113830000Y-120020000D02*
X114160000Y-120020000D01*
X114160000Y-120020000D02*
X114160000Y-126440000D01*
X114160000Y-126440000D02*
X113830000Y-126440000D01*
X111540000Y-126440000D02*
X111870000Y-126440000D01*
%TO.C,C11*%
X109700000Y-107340000D02*
X109700000Y-102220000D01*
X109700000Y-107340000D02*
X112320000Y-107340000D01*
X109700000Y-102220000D02*
X112320000Y-102220000D01*
X112320000Y-107340000D02*
X112320000Y-102220000D01*
%TO.C,D7*%
X107990000Y-124870000D02*
X107990000Y-120750000D01*
X107990000Y-121410000D02*
X105870000Y-121410000D01*
X105870000Y-124870000D02*
X107990000Y-124870000D01*
X107990000Y-120750000D02*
X105870000Y-120750000D01*
X106930000Y-119980000D02*
X106930000Y-120750000D01*
X105870000Y-120750000D02*
X105870000Y-124870000D01*
X106930000Y-125640000D02*
X106930000Y-124870000D01*
%TO.C,R27*%
X110480000Y-109600000D02*
X110810000Y-109600000D01*
X110810000Y-116020000D02*
X110480000Y-116020000D01*
X108520000Y-109600000D02*
X108190000Y-109600000D01*
X108190000Y-116020000D02*
X108520000Y-116020000D01*
X108190000Y-109600000D02*
X108190000Y-116020000D01*
X110810000Y-109600000D02*
X110810000Y-116020000D01*
%TO.C,R28*%
X125840000Y-87300000D02*
X125840000Y-93720000D01*
X125510000Y-87300000D02*
X125840000Y-87300000D01*
X125840000Y-93720000D02*
X125510000Y-93720000D01*
X123220000Y-87300000D02*
X123220000Y-93720000D01*
X123550000Y-87300000D02*
X123220000Y-87300000D01*
X123220000Y-93720000D02*
X123550000Y-93720000D01*
%TO.C,R29*%
X114900000Y-91030000D02*
X121320000Y-91030000D01*
X114900000Y-88740000D02*
X114900000Y-88410000D01*
X114900000Y-90700000D02*
X114900000Y-91030000D01*
X121320000Y-91030000D02*
X121320000Y-90700000D01*
X114900000Y-88410000D02*
X121320000Y-88410000D01*
X121320000Y-88410000D02*
X121320000Y-88740000D01*
%TO.C,C12*%
X86900000Y-125620000D02*
X86900000Y-128240000D01*
X81780000Y-125620000D02*
X86900000Y-125620000D01*
X81780000Y-128240000D02*
X86900000Y-128240000D01*
X81780000Y-125620000D02*
X81780000Y-128240000D01*
%TO.C,C13*%
X81310000Y-128310000D02*
X76190000Y-128310000D01*
X76190000Y-128310000D02*
X76190000Y-125690000D01*
X81310000Y-125690000D02*
X76190000Y-125690000D01*
X81310000Y-128310000D02*
X81310000Y-125690000D01*
D10*
%TO.C,T1*%
X68294000Y-122594000D02*
X67278000Y-122594000D01*
X68294000Y-124880000D02*
X67278000Y-124880000D01*
X72866000Y-124880000D02*
X73628000Y-124880000D01*
X72866000Y-122594000D02*
X73628000Y-122594000D01*
X72866000Y-122594000D02*
G75*
G03*
X72104000Y-121832000I-762000J0D01*
G01*
X72104000Y-121832000D02*
G75*
G03*
X71342000Y-122594000I0J-762000D01*
G01*
X70580000Y-121832000D02*
G75*
G03*
X69818000Y-122594000I1J-762001D01*
G01*
X71342000Y-122594000D02*
G75*
G03*
X70580000Y-121832000I-762001J-1D01*
G01*
X69056000Y-121832000D02*
G75*
G03*
X68294000Y-122594000I1J-762001D01*
G01*
X69818000Y-122594000D02*
G75*
G03*
X69056000Y-121832000I-762001J-1D01*
G01*
X69818000Y-124880000D02*
G75*
G03*
X69056000Y-124118000I-762001J-1D01*
G01*
X72866000Y-124880000D02*
G75*
G03*
X72104000Y-124118000I-762000J0D01*
G01*
X72104000Y-124118000D02*
G75*
G03*
X71342000Y-124880000I0J-762000D01*
G01*
X70580000Y-124118000D02*
G75*
G03*
X69818000Y-124880000I1J-762001D01*
G01*
X69056000Y-124118000D02*
G75*
G03*
X68294000Y-124880000I1J-762001D01*
G01*
X71342000Y-124880000D02*
G75*
G03*
X70580000Y-124118000I-762001J-1D01*
G01*
D12*
%TO.C,JP3*%
X127330000Y-126570000D02*
X124730000Y-126570000D01*
X127330000Y-126570000D02*
X127330000Y-129230000D01*
X129930000Y-126570000D02*
X129930000Y-127900000D01*
X124730000Y-126570000D02*
X124730000Y-129230000D01*
X128600000Y-126570000D02*
X129930000Y-126570000D01*
X127330000Y-129230000D02*
X124730000Y-129230000D01*
%TO.C,J2*%
X57286000Y-66000000D02*
G75*
G03*
X57286000Y-66000000I-2286000J0D01*
G01*
%TO.C,J3*%
X57286000Y-135000000D02*
G75*
G03*
X57286000Y-135000000I-2286000J0D01*
G01*
%TO.C,J5*%
X130286000Y-66000000D02*
G75*
G03*
X130286000Y-66000000I-2286000J0D01*
G01*
%TO.C,J6*%
X130286000Y-135000000D02*
G75*
G03*
X130286000Y-135000000I-2286000J0D01*
G01*
%TD*%
D15*
%TO.C,U4*%
X99360000Y-132000000D03*
X91360000Y-132000000D03*
%TD*%
D16*
%TO.C,J12*%
X111180000Y-135080000D03*
X121340000Y-135080000D03*
D17*
X116260000Y-130000000D03*
X118800000Y-130000000D03*
%TD*%
M02*
