M48
; DRILL file {KiCad (6.0.11)} date Sun Feb  5 16:58:04 2023
; FORMAT={-:-/ absolute / inch / decimal}
; #@! TF.CreationDate,2023-02-05T16:58:04-06:00
; #@! TF.GenerationSoftware,Kicad,Pcbnew,(6.0.11)
; #@! TF.FileFunction,Plated,1,2,PTH
FMAT,2
INCH
; #@! TA.AperFunction,Plated,PTH,ViaDrill
T1C0.0157
; #@! TA.AperFunction,Plated,PTH,ComponentDrill
T2C0.0315
; #@! TA.AperFunction,Plated,PTH,ComponentDrill
T3C0.0354
; #@! TA.AperFunction,Plated,PTH,ComponentDrill
T4C0.0394
; #@! TA.AperFunction,Plated,PTH,ComponentDrill
T5C0.0433
; #@! TA.AperFunction,Plated,PTH,ComponentDrill
T6C0.0472
; #@! TA.AperFunction,Plated,PTH,ComponentDrill
T7C0.0591
; #@! TA.AperFunction,Plated,PTH,ComponentDrill
T8C0.0598
; #@! TA.AperFunction,Plated,PTH,ComponentDrill
T9C0.1200
%
G90
G05
T1
X3.21Y-3.15
X3.5091Y-4.3803
X3.574Y-4.7091
X3.7567Y-4.8535
X3.7972Y-3.813
X3.8209Y-4.8862
X3.8358Y-4.6961
X4.06Y-3.84
X4.06Y-3.99
X4.0606Y-4.211
X4.1228Y-4.3417
X4.2469Y-4.2622
X4.2795Y-4.1969
T2
X2.1134Y-4.6319
X2.1248Y-3.7583
X2.1248Y-4.0583
X2.2047Y-2.7953
X2.2047Y-2.8937
X2.2516Y-3.7602
X2.2516Y-4.0602
X2.4134Y-4.6319
X2.4421Y-3.2248
X2.4421Y-3.3075
X2.4421Y-3.4098
X2.4421Y-3.4925
X2.5299Y-3.9016
X2.5299Y-4.0016
X2.5299Y-4.1016
X2.5453Y-4.6035
X2.5465Y-4.476
X2.5524Y-3.2248
X2.5524Y-3.4925
X2.5559Y-4.2272
X2.6287Y-4.8165
X2.6287Y-4.9165
X2.6815Y-4.035
X2.6992Y-3.4319
X2.6992Y-3.6287
X2.6992Y-3.7244
X2.6992Y-3.9213
X2.7059Y-3.0398
X2.7059Y-3.3398
X2.8307Y-3.4331
X2.8453Y-4.6035
X2.8465Y-4.476
X2.8559Y-4.2272
X2.861Y-2.6339
X2.8843Y-3.6402
X2.8843Y-3.8323
X2.9287Y-4.8165
X2.9287Y-4.9165
X2.9291Y-3.4331
X2.9594Y-2.6339
X2.9606Y-4.1406
X2.9606Y-4.4406
X2.9815Y-4.035
X3.0512Y-5.0
X3.0839Y-2.5516
X3.0839Y-2.8516
X3.0898Y-4.7728
X3.0898Y-4.8713
X3.09Y-3.04
X3.09Y-3.14
X3.09Y-3.24
X3.09Y-3.34
X3.09Y-3.44
X3.09Y-3.54
X3.09Y-3.64
X3.09Y-3.74
X3.09Y-3.84
X3.09Y-3.94
X3.09Y-4.04
X3.09Y-4.14
X3.09Y-4.24
X3.09Y-4.34
X3.1496Y-5.0
X3.2071Y-2.5469
X3.2071Y-2.8469
X3.2685Y-4.8169
X3.2713Y-4.9972
X3.34Y-2.56
X3.34Y-2.86
X3.3669Y-4.8169
X3.3697Y-4.9972
X3.39Y-3.04
X3.39Y-3.14
X3.39Y-3.24
X3.39Y-3.34
X3.39Y-3.44
X3.39Y-3.54
X3.39Y-3.64
X3.39Y-3.74
X3.39Y-3.84
X3.39Y-3.94
X3.39Y-4.04
X3.39Y-4.14
X3.39Y-4.24
X3.39Y-4.34
X3.5173Y-3.7394
X3.5173Y-4.0394
X3.5189Y-4.1551
X3.5189Y-4.4551
X3.635Y-4.213
X3.635Y-4.513
X3.7618Y-4.1287
X3.7618Y-4.4287
X3.7854Y-4.5409
X3.8839Y-4.5409
X4.0Y-2.56
X4.0Y-2.86
X4.14Y-2.56
X4.14Y-2.86
X4.1543Y-3.0409
X4.1543Y-3.1409
X4.1543Y-3.2409
X4.2051Y-3.5055
X4.2051Y-3.8055
X4.2098Y-4.685
X4.2098Y-4.985
X4.2154Y-5.0996
X4.2154Y-5.198
X4.28Y-2.56
X4.28Y-2.86
X4.311Y-4.2913
X4.311Y-4.5913
X4.324Y-4.7016
X4.324Y-5.0016
X4.3319Y-3.5071
X4.3319Y-3.8071
X4.352Y-3.1047
X4.352Y-3.4047
X4.3705Y-4.076
X4.3705Y-4.1744
X4.437Y-4.2913
X4.437Y-4.5913
X4.4429Y-4.7016
X4.4429Y-5.0016
X4.4831Y-3.1047
X4.4831Y-3.4047
X4.5Y-3.5323
X4.5728Y-3.8748
X4.5728Y-3.9748
X4.5728Y-4.0748
X4.5728Y-4.1748
X4.5728Y-4.2748
X4.5728Y-4.3748
X4.5728Y-4.4748
X4.5866Y-4.7362
X4.5866Y-4.8898
X4.5945Y-4.6024
X4.6134Y-3.1055
X4.6134Y-3.4055
X4.6929Y-4.6024
X4.7398Y-3.1051
X4.7398Y-3.4051
X4.7984Y-4.5945
X4.8Y-3.5323
X4.8728Y-3.8748
X4.8728Y-3.9748
X4.8728Y-4.0748
X4.8728Y-4.1748
X4.8728Y-4.2748
X4.8728Y-4.3748
X4.8728Y-4.4748
X4.9028Y-3.4134
X4.9028Y-3.7134
X5.0866Y-4.7362
X5.0866Y-4.8898
X5.0984Y-4.5945
T3
X3.52Y-2.56
X3.52Y-2.66
X4.5772Y-5.1181
X4.6772Y-5.1181
T4
X2.42Y-3.78
X2.52Y-3.78
X2.84Y-2.9
X2.84Y-3.0
X2.84Y-3.1
X2.84Y-3.2
X3.1339Y-4.6004
X3.2339Y-4.6004
X3.3339Y-4.6004
X3.7591Y-3.5882
X3.85Y-2.6
X3.85Y-2.7
X3.85Y-2.8
X3.85Y-2.9
X3.8591Y-3.5882
X3.876Y-3.8252
X3.876Y-3.9252
X3.876Y-4.0252
X3.976Y-3.8252
X3.976Y-3.9252
X3.976Y-4.0252
X4.963Y-5.0354
X5.0394Y-2.8307
X5.0394Y-2.9307
X5.0394Y-3.0307
X5.0394Y-3.1307
X5.0394Y-3.2307
X5.0394Y-3.3307
X5.0394Y-3.4307
X5.0394Y-3.5307
X5.0394Y-3.6307
X5.0394Y-3.7307
X5.0394Y-3.8307
X5.0394Y-3.9307
X5.0394Y-4.0307
X5.0394Y-4.1307
X5.0394Y-4.2307
X5.0394Y-4.3307
X5.063Y-5.0354
T5
X2.4141Y-2.6028
X2.4141Y-2.78
X2.67Y-2.6028
X2.67Y-2.78
T6
X3.74Y-3.38
X3.8384Y-3.1816
X3.9369Y-3.38
T8
X3.08Y-5.22
X3.28Y-5.22
X4.4872Y-5.2255
X4.6872Y-5.2255
T9
X2.1654Y-2.5984
X2.1654Y-5.315
X5.0394Y-2.5984
X5.0394Y-5.315
T4
G00X2.2984Y-3.3193
M15
G01X2.2984Y-3.398
M16
G05
G00X2.3594Y-3.089
M15
G01X2.3004Y-3.089
M16
G05
G00X2.3594Y-3.6283
M15
G01X2.3004Y-3.6283
M16
G05
G00X2.6622Y-5.0969
M15
G01X2.7409Y-5.0969
M16
G05
G00X2.6622Y-5.3331
M15
G01X2.7409Y-5.3331
M16
G05
G00X2.8866Y-5.2543
M15
G01X2.8866Y-5.1756
M16
G05
T7
G00X2.2575Y-4.3626
M15
G01X2.2575Y-4.3232
M16
G05
G00X2.2575Y-4.939
M15
G01X2.2575Y-4.8996
M16
G05
G00X2.4346Y-4.3429
M15
G01X2.474Y-4.3429
M16
G05
G00X2.4346Y-4.9193
M15
G01X2.474Y-4.9193
M16
G05
T0
M30
