G04 #@! TF.FileFunction,Copper,L2,Bot,Signal*
%FSLAX46Y46*%
G04 Gerber Fmt 4.6, Leading zero omitted, Abs format (unit mm)*
G04 Created by KiCad (PCBNEW 4.0.7) date 11/12/21 15:50:16*
%MOMM*%
%LPD*%
G01*
G04 APERTURE LIST*
%ADD10C,0.100000*%
%ADD11C,1.600000*%
%ADD12O,1.600000X1.600000*%
%ADD13R,1.600000X1.600000*%
%ADD14R,3.500000X3.500000*%
%ADD15C,4.064000*%
%ADD16R,1.700000X1.700000*%
%ADD17O,1.700000X1.700000*%
%ADD18O,2.500000X3.500000*%
%ADD19O,3.500000X2.500000*%
%ADD20O,3.500000X2.000000*%
%ADD21O,2.000000X4.000000*%
%ADD22C,2.500000*%
%ADD23C,2.000000*%
%ADD24R,1.800000X1.800000*%
%ADD25O,1.800000X1.800000*%
%ADD26C,1.500000*%
%ADD27C,1.800000*%
%ADD28C,1.520000*%
%ADD29R,1.520000X1.520000*%
%ADD30R,3.000000X3.000000*%
%ADD31C,3.000000*%
%ADD32C,0.600000*%
%ADD33C,0.500000*%
%ADD34C,0.350000*%
G04 APERTURE END LIST*
D10*
D11*
X92840000Y-104910000D03*
D12*
X92840000Y-112530000D03*
D13*
X69342000Y-121920000D03*
D11*
X66842000Y-121920000D03*
X75170000Y-66900000D03*
X72670000Y-66900000D03*
D13*
X56000000Y-73500000D03*
D11*
X56000000Y-71000000D03*
X74400000Y-87200000D03*
X71900000Y-87200000D03*
X68560000Y-87170000D03*
X68560000Y-92170000D03*
X68560000Y-94600000D03*
X68560000Y-99600000D03*
X96230000Y-112600000D03*
X98730000Y-112600000D03*
D13*
X82296000Y-124206000D03*
D11*
X82296000Y-126706000D03*
D13*
X78330000Y-72430000D03*
D12*
X78330000Y-64810000D03*
D13*
X89340000Y-102600000D03*
D12*
X89340000Y-94980000D03*
D13*
X89380000Y-113160000D03*
D12*
X89380000Y-105540000D03*
D14*
X68580000Y-127508000D03*
X68580000Y-133508000D03*
X73280000Y-130508000D03*
D15*
X113030000Y-66040000D03*
X55000000Y-66000000D03*
D16*
X98552000Y-100330000D03*
D17*
X101092000Y-100330000D03*
X98552000Y-102870000D03*
X101092000Y-102870000D03*
X98552000Y-105410000D03*
X101092000Y-105410000D03*
D15*
X113000000Y-135000000D03*
X55000000Y-135000000D03*
D16*
X97790000Y-66040000D03*
D17*
X97790000Y-68580000D03*
X97790000Y-71120000D03*
X97790000Y-73660000D03*
D16*
X72136000Y-81280000D03*
D17*
X72136000Y-78740000D03*
X72136000Y-76200000D03*
X72136000Y-73660000D03*
D18*
X57340000Y-111420000D03*
D19*
X62340000Y-111420000D03*
D18*
X57340000Y-124050000D03*
D19*
X62340000Y-124050000D03*
D16*
X95504000Y-92964000D03*
D17*
X98044000Y-92964000D03*
D20*
X59180000Y-78460000D03*
X59180000Y-92160000D03*
D13*
X62030000Y-86610000D03*
D11*
X62030000Y-84010000D03*
X62030000Y-88710000D03*
X62030000Y-81910000D03*
X64830000Y-88710000D03*
X64830000Y-81910000D03*
D21*
X58380000Y-85310000D03*
D11*
X81460000Y-64690000D03*
D12*
X81460000Y-72310000D03*
D11*
X105156000Y-65024000D03*
D12*
X105156000Y-72644000D03*
D11*
X101600000Y-65024000D03*
D12*
X101600000Y-72644000D03*
D11*
X65990000Y-107100000D03*
D12*
X73610000Y-107100000D03*
D11*
X73650000Y-110420000D03*
D12*
X66030000Y-110420000D03*
D11*
X108712000Y-72644000D03*
D12*
X108712000Y-65024000D03*
D11*
X65970000Y-116930000D03*
D12*
X73590000Y-116930000D03*
D11*
X65990000Y-113660000D03*
D12*
X73610000Y-113660000D03*
D11*
X112522000Y-119126000D03*
D12*
X104902000Y-119126000D03*
D11*
X104902000Y-115824000D03*
D12*
X112522000Y-115824000D03*
D11*
X106110000Y-111440000D03*
D12*
X106110000Y-103820000D03*
D11*
X109270000Y-103820000D03*
D12*
X109270000Y-111440000D03*
D11*
X112522000Y-125730000D03*
D12*
X104902000Y-125730000D03*
D11*
X104902000Y-122428000D03*
D12*
X112522000Y-122428000D03*
D11*
X57404000Y-103886000D03*
D12*
X57404000Y-96266000D03*
D11*
X54102000Y-96266000D03*
D12*
X54102000Y-103886000D03*
D22*
X97496000Y-83352000D03*
X99996000Y-88392000D03*
X94996000Y-88392000D03*
D23*
X67818000Y-66112000D03*
X67818000Y-70612000D03*
X61318000Y-66112000D03*
X61318000Y-70612000D03*
D24*
X77470000Y-118872000D03*
D25*
X80010000Y-118872000D03*
X82550000Y-118872000D03*
D13*
X78486000Y-77216000D03*
D12*
X86106000Y-110236000D03*
X78486000Y-79756000D03*
X86106000Y-107696000D03*
X78486000Y-82296000D03*
X86106000Y-105156000D03*
X78486000Y-84836000D03*
X86106000Y-102616000D03*
X78486000Y-87376000D03*
X86106000Y-100076000D03*
X78486000Y-89916000D03*
X86106000Y-97536000D03*
X78486000Y-92456000D03*
X86106000Y-94996000D03*
X78486000Y-94996000D03*
X86106000Y-92456000D03*
X78486000Y-97536000D03*
X86106000Y-89916000D03*
X78486000Y-100076000D03*
X86106000Y-87376000D03*
X78486000Y-102616000D03*
X86106000Y-84836000D03*
X78486000Y-105156000D03*
X86106000Y-82296000D03*
X78486000Y-107696000D03*
X86106000Y-79756000D03*
X78486000Y-110236000D03*
X86106000Y-77216000D03*
D16*
X113030000Y-109220000D03*
D17*
X113030000Y-106680000D03*
X113030000Y-104140000D03*
X113030000Y-101600000D03*
X113030000Y-99060000D03*
X113030000Y-96520000D03*
X113030000Y-93980000D03*
X113030000Y-91440000D03*
X113030000Y-88900000D03*
X113030000Y-86360000D03*
X113030000Y-83820000D03*
X113030000Y-81280000D03*
X113030000Y-78740000D03*
X113030000Y-76200000D03*
X113030000Y-73660000D03*
X113030000Y-71120000D03*
D26*
X73260000Y-97340000D03*
X73260000Y-92460000D03*
D24*
X89408000Y-67564000D03*
D27*
X89408000Y-65024000D03*
D11*
X84836000Y-65024000D03*
D12*
X84836000Y-72644000D03*
D28*
X64262000Y-101854000D03*
X64262000Y-104394000D03*
D29*
X64262000Y-99314000D03*
D11*
X68150000Y-102920000D03*
D12*
X75770000Y-102920000D03*
D16*
X64008000Y-96012000D03*
D17*
X61468000Y-96012000D03*
D11*
X68730000Y-84830000D03*
D12*
X68730000Y-77210000D03*
D30*
X78232000Y-132588000D03*
D31*
X83312000Y-132588000D03*
D32*
X81534000Y-80010000D03*
X93726000Y-118872000D03*
X90280000Y-119450000D03*
X94742000Y-124460000D03*
X92710000Y-124714000D03*
X96266000Y-124206000D03*
X107270000Y-107270000D03*
X102870000Y-107370000D03*
X102260000Y-110340000D03*
X104960000Y-109440000D03*
D33*
X77470000Y-120650000D02*
X77470000Y-131826000D01*
X77470000Y-131826000D02*
X78232000Y-132588000D01*
X69342000Y-121920000D02*
X69342000Y-126746000D01*
X69342000Y-126746000D02*
X68580000Y-127508000D01*
X69342000Y-121920000D02*
X76708000Y-121920000D01*
X77470000Y-121158000D02*
X77470000Y-120650000D01*
X77470000Y-120650000D02*
X77470000Y-118872000D01*
X76708000Y-121920000D02*
X77470000Y-121158000D01*
X69596000Y-122174000D02*
X69342000Y-121920000D01*
D34*
X72092000Y-81686000D02*
X72086000Y-81680000D01*
X67818000Y-66112000D02*
X68000000Y-66112000D01*
X68000000Y-66112000D02*
X69342000Y-64770000D01*
X75170000Y-66026000D02*
X75170000Y-66900000D01*
X73914000Y-64770000D02*
X75170000Y-66026000D01*
X69342000Y-64770000D02*
X73914000Y-64770000D01*
X67818000Y-66112000D02*
X61318000Y-66112000D01*
X68000000Y-66112000D02*
X68580000Y-65532000D01*
X98552000Y-105410000D02*
X98640000Y-105410000D01*
X98640000Y-105410000D02*
X99830000Y-104220000D01*
X99830000Y-97060000D02*
X96774000Y-94004000D01*
X99830000Y-104220000D02*
X99830000Y-97060000D01*
X87630000Y-91186000D02*
X88392000Y-91186000D01*
X97282000Y-90424000D02*
X96774000Y-90932000D01*
X97282000Y-87122000D02*
X97282000Y-90424000D01*
X96266000Y-86106000D02*
X97282000Y-87122000D01*
X93472000Y-86106000D02*
X96266000Y-86106000D01*
X88392000Y-91186000D02*
X93472000Y-86106000D01*
X81534000Y-89408000D02*
X81534000Y-80010000D01*
X83312000Y-91186000D02*
X81534000Y-89408000D01*
X87630000Y-91186000D02*
X83312000Y-91186000D01*
X96774000Y-94004000D02*
X96774000Y-90932000D01*
X78330000Y-64810000D02*
X77260000Y-64810000D01*
X77260000Y-64810000D02*
X75170000Y-66900000D01*
X81460000Y-64690000D02*
X78450000Y-64690000D01*
X78450000Y-64690000D02*
X78330000Y-64810000D01*
X75170000Y-66900000D02*
X75170000Y-73900000D01*
X75170000Y-73900000D02*
X78486000Y-77216000D01*
X75280000Y-66790000D02*
X75170000Y-66900000D01*
X72670000Y-66900000D02*
X72670000Y-73126000D01*
X72670000Y-73126000D02*
X72136000Y-73660000D01*
X72036000Y-73560000D02*
X72136000Y-73660000D01*
D33*
X82296000Y-124206000D02*
X82296000Y-119126000D01*
X82296000Y-119126000D02*
X82550000Y-118872000D01*
X74168000Y-120904000D02*
X74676000Y-120904000D01*
X82550000Y-117094000D02*
X82550000Y-118872000D01*
X81534000Y-116078000D02*
X82550000Y-117094000D01*
X77216000Y-116078000D02*
X81534000Y-116078000D01*
X75946000Y-117348000D02*
X77216000Y-116078000D01*
X75946000Y-119634000D02*
X75946000Y-117348000D01*
X74676000Y-120904000D02*
X75946000Y-119634000D01*
X86614000Y-122936000D02*
X82550000Y-118872000D01*
X86614000Y-123698000D02*
X86614000Y-122936000D01*
D34*
X57404000Y-103886000D02*
X54102000Y-103886000D01*
X64008000Y-103124000D02*
X61976000Y-103124000D01*
X61214000Y-103886000D02*
X57404000Y-103886000D01*
X61976000Y-103124000D02*
X61214000Y-103886000D01*
D33*
X61976000Y-99690000D02*
X61976000Y-98234000D01*
X66640000Y-90690000D02*
X67668000Y-89662000D01*
X66640000Y-96590000D02*
X66640000Y-90690000D01*
X65500000Y-97730000D02*
X66640000Y-96590000D01*
X62480000Y-97730000D02*
X65500000Y-97730000D01*
X61976000Y-98234000D02*
X62480000Y-97730000D01*
D34*
X66810000Y-80300000D02*
X67430000Y-80300000D01*
X68730000Y-79000000D02*
X68730000Y-77210000D01*
X67430000Y-80300000D02*
X68730000Y-79000000D01*
X80450000Y-85190000D02*
X80450000Y-84030000D01*
X63640000Y-80300000D02*
X62030000Y-81910000D01*
X66810000Y-80300000D02*
X63640000Y-80300000D01*
X67990000Y-81480000D02*
X66810000Y-80300000D01*
X69730000Y-81480000D02*
X67990000Y-81480000D01*
X71800000Y-83550000D02*
X69730000Y-81480000D01*
X79970000Y-83550000D02*
X71800000Y-83550000D01*
X80450000Y-84030000D02*
X79970000Y-83550000D01*
D33*
X78486000Y-92456000D02*
X77496000Y-92456000D01*
X74400000Y-89360000D02*
X74400000Y-87200000D01*
X77496000Y-92456000D02*
X74400000Y-89360000D01*
X74168000Y-120904000D02*
X71882000Y-120904000D01*
X71882000Y-120904000D02*
X68580000Y-117602000D01*
X68580000Y-117602000D02*
X68580000Y-105918000D01*
X68580000Y-105918000D02*
X65786000Y-103124000D01*
X65786000Y-103124000D02*
X64008000Y-103124000D01*
X64008000Y-103124000D02*
X62738000Y-103124000D01*
X62738000Y-103124000D02*
X61976000Y-102362000D01*
X61976000Y-102362000D02*
X61976000Y-99690000D01*
X67564000Y-89662000D02*
X71938000Y-89662000D01*
X71938000Y-89662000D02*
X74400000Y-87200000D01*
X78486000Y-92456000D02*
X78316000Y-92456000D01*
X115433002Y-109083002D02*
X113030000Y-106680000D01*
X115433002Y-129168998D02*
X115433002Y-109083002D01*
X114300000Y-130302000D02*
X115433002Y-129168998D01*
X93218000Y-130302000D02*
X114300000Y-130302000D01*
X86614000Y-123698000D02*
X93218000Y-130302000D01*
D34*
X80450000Y-90492000D02*
X78486000Y-92456000D01*
X80450000Y-84820000D02*
X80450000Y-85190000D01*
X80450000Y-85190000D02*
X80450000Y-90492000D01*
X80450000Y-84820000D02*
X80450000Y-77690000D01*
X97610000Y-73840000D02*
X95670000Y-73840000D01*
X80450000Y-77690000D02*
X80450000Y-76600000D01*
X80450000Y-73320000D02*
X81460000Y-72310000D01*
X80450000Y-76600000D02*
X80450000Y-73320000D01*
X95670000Y-73840000D02*
X88490000Y-81020000D01*
X88490000Y-81020000D02*
X83780000Y-81020000D01*
X83780000Y-81020000D02*
X80450000Y-77690000D01*
D33*
X95504000Y-92964000D02*
X91356000Y-92964000D01*
X91356000Y-92964000D02*
X89340000Y-94980000D01*
X86106000Y-97536000D02*
X86784000Y-97536000D01*
X86784000Y-97536000D02*
X89340000Y-94980000D01*
X78486000Y-92456000D02*
X79866000Y-92456000D01*
X82746000Y-97536000D02*
X86106000Y-97536000D01*
X81830000Y-96620000D02*
X82746000Y-97536000D01*
X81830000Y-94420000D02*
X81830000Y-96620000D01*
X79866000Y-92456000D02*
X81830000Y-94420000D01*
D34*
X94996000Y-88392000D02*
X94996000Y-92456000D01*
X94996000Y-92456000D02*
X95504000Y-92964000D01*
X81460000Y-72310000D02*
X84502000Y-72310000D01*
X84502000Y-72310000D02*
X84836000Y-72644000D01*
X108712000Y-72644000D02*
X105156000Y-72644000D01*
X101600000Y-72644000D02*
X105156000Y-72644000D01*
X97790000Y-73660000D02*
X100584000Y-73660000D01*
X100584000Y-73660000D02*
X101600000Y-72644000D01*
X56000000Y-73500000D02*
X56000000Y-73950000D01*
X56000000Y-73950000D02*
X58290000Y-76240000D01*
X97790000Y-73660000D02*
X97610000Y-73840000D01*
X86170000Y-97600000D02*
X86106000Y-97536000D01*
X81490000Y-72280000D02*
X81460000Y-72310000D01*
X81530000Y-72240000D02*
X81460000Y-72310000D01*
X81460000Y-72310000D02*
X78450000Y-72310000D01*
X78450000Y-72310000D02*
X78330000Y-72430000D01*
X62030000Y-81910000D02*
X62660000Y-81910000D01*
X62030000Y-77420000D02*
X62030000Y-81910000D01*
X60850000Y-76240000D02*
X62030000Y-77420000D01*
X58290000Y-76240000D02*
X60850000Y-76240000D01*
X73260000Y-92460000D02*
X73664000Y-92460000D01*
X73664000Y-92460000D02*
X75692000Y-94488000D01*
X76962000Y-97536000D02*
X78486000Y-97536000D01*
X75692000Y-96266000D02*
X76962000Y-97536000D01*
X75692000Y-94488000D02*
X75692000Y-96266000D01*
X73260000Y-92460000D02*
X68850000Y-92460000D01*
X68850000Y-92460000D02*
X68560000Y-92170000D01*
X73260000Y-97340000D02*
X73464000Y-97340000D01*
X73464000Y-97340000D02*
X74422000Y-98298000D01*
X75946000Y-100076000D02*
X78486000Y-100076000D01*
X74422000Y-98552000D02*
X75946000Y-100076000D01*
X74422000Y-98298000D02*
X74422000Y-98552000D01*
X73260000Y-97340000D02*
X70820000Y-97340000D01*
X70820000Y-97340000D02*
X68560000Y-99600000D01*
X92840000Y-112530000D02*
X92840000Y-114684000D01*
X93726000Y-115570000D02*
X93726000Y-118872000D01*
X92840000Y-114684000D02*
X93726000Y-115570000D01*
X96230000Y-112600000D02*
X92910000Y-112600000D01*
X92910000Y-112600000D02*
X92840000Y-112530000D01*
X89380000Y-113160000D02*
X92210000Y-113160000D01*
X92210000Y-113160000D02*
X92840000Y-112530000D01*
X92770000Y-112600000D02*
X92840000Y-112530000D01*
X93040000Y-112730000D02*
X92840000Y-112530000D01*
X89340000Y-102600000D02*
X89340000Y-105500000D01*
X89340000Y-105500000D02*
X89380000Y-105540000D01*
X89460000Y-102720000D02*
X89340000Y-102600000D01*
X73914000Y-118950000D02*
X74598000Y-118950000D01*
X90280000Y-116188000D02*
X90280000Y-119450000D01*
X89662000Y-115570000D02*
X90280000Y-116188000D01*
X88646000Y-115570000D02*
X89662000Y-115570000D01*
X87630000Y-114554000D02*
X88646000Y-115570000D01*
X87630000Y-114300000D02*
X87630000Y-114554000D01*
X86106000Y-112776000D02*
X87630000Y-114300000D01*
X78994000Y-112776000D02*
X86106000Y-112776000D01*
X75184000Y-116586000D02*
X78994000Y-112776000D01*
X75184000Y-118364000D02*
X75184000Y-116586000D01*
X74598000Y-118950000D02*
X75184000Y-118364000D01*
X73406000Y-118950000D02*
X73914000Y-118950000D01*
X73914000Y-118950000D02*
X74344000Y-118950000D01*
X90170000Y-119340000D02*
X90280000Y-119450000D01*
X79040000Y-103880000D02*
X77700000Y-103880000D01*
X72730000Y-105720000D02*
X71500000Y-106950000D01*
X76240000Y-105720000D02*
X72730000Y-105720000D01*
X77090000Y-104870000D02*
X76240000Y-105720000D01*
X77090000Y-104490000D02*
X77090000Y-104870000D01*
X77700000Y-103880000D02*
X77090000Y-104490000D01*
X71500000Y-106950000D02*
X71500000Y-117680000D01*
X86106000Y-102616000D02*
X85194000Y-102616000D01*
X72770000Y-118950000D02*
X73406000Y-118950000D01*
X71500000Y-117680000D02*
X72770000Y-118950000D01*
X83930000Y-103880000D02*
X79040000Y-103880000D01*
X85194000Y-102616000D02*
X83930000Y-103880000D01*
X86106000Y-102616000D02*
X85326000Y-102616000D01*
X85326000Y-102616000D02*
X84550000Y-101840000D01*
X84550000Y-101840000D02*
X84550000Y-99370000D01*
X84550000Y-99370000D02*
X85110000Y-98810000D01*
X85110000Y-98810000D02*
X97032000Y-98810000D01*
X97032000Y-98810000D02*
X98552000Y-100330000D01*
D33*
X98044000Y-92964000D02*
X98552000Y-92964000D01*
X98552000Y-92964000D02*
X101092000Y-95504000D01*
X101092000Y-95504000D02*
X101092000Y-100330000D01*
D34*
X98044000Y-92964000D02*
X98298000Y-92964000D01*
X86106000Y-100076000D02*
X94316000Y-100076000D01*
X97110000Y-102870000D02*
X98552000Y-102870000D01*
X94316000Y-100076000D02*
X97110000Y-102870000D01*
X105810000Y-104120000D02*
X106110000Y-103820000D01*
X104090000Y-108870000D02*
X104090000Y-105868000D01*
X104090000Y-105868000D02*
X101092000Y-102870000D01*
X104090000Y-109830000D02*
X104090000Y-108870000D01*
X89390000Y-108440000D02*
X86106000Y-105156000D01*
X103660000Y-108440000D02*
X89390000Y-108440000D01*
X104090000Y-108870000D02*
X103660000Y-108440000D01*
X104090000Y-109900000D02*
X104090000Y-109830000D01*
X86106000Y-105156000D02*
X86106000Y-105216000D01*
X101092000Y-102870000D02*
X101092000Y-102538000D01*
X106450000Y-117578000D02*
X104902000Y-119126000D01*
X106450000Y-114520000D02*
X106450000Y-117578000D01*
X104090000Y-112160000D02*
X106450000Y-114520000D01*
X104090000Y-109900000D02*
X104090000Y-112160000D01*
X86106000Y-105156000D02*
X86106000Y-105186000D01*
X86106000Y-105156000D02*
X86346000Y-105156000D01*
X86106000Y-105156000D02*
X85134000Y-105156000D01*
X85134000Y-105156000D02*
X83890000Y-106400000D01*
X83890000Y-106400000D02*
X74310000Y-106400000D01*
X74310000Y-106400000D02*
X73610000Y-107100000D01*
X86106000Y-77216000D02*
X87884000Y-77216000D01*
X96520000Y-68580000D02*
X97790000Y-68580000D01*
X87884000Y-77216000D02*
X96520000Y-68580000D01*
X101600000Y-65024000D02*
X101600000Y-67564000D01*
X100584000Y-68580000D02*
X97790000Y-68580000D01*
X101600000Y-67564000D02*
X100584000Y-68580000D01*
X86106000Y-79756000D02*
X87376000Y-79756000D01*
X96012000Y-71120000D02*
X97790000Y-71120000D01*
X87376000Y-79756000D02*
X96012000Y-71120000D01*
X97790000Y-71120000D02*
X100076000Y-71120000D01*
X105156000Y-66040000D02*
X105156000Y-65024000D01*
X100076000Y-71120000D02*
X105156000Y-66040000D01*
X72136000Y-78740000D02*
X72898000Y-78740000D01*
X72898000Y-78740000D02*
X76454000Y-82296000D01*
X76454000Y-82296000D02*
X78486000Y-82296000D01*
X72136000Y-78740000D02*
X71440000Y-78650000D01*
X72092000Y-79146000D02*
X72086000Y-79140000D01*
X72136000Y-76200000D02*
X73406000Y-76200000D01*
X76708000Y-79502000D02*
X78232000Y-79502000D01*
X73406000Y-76200000D02*
X76708000Y-79502000D01*
X78232000Y-79502000D02*
X78486000Y-79756000D01*
X62340000Y-111420000D02*
X65030000Y-111420000D01*
X65030000Y-111420000D02*
X66030000Y-110420000D01*
X64262000Y-105372000D02*
X65990000Y-107100000D01*
X64262000Y-104394000D02*
X64262000Y-105372000D01*
X65990000Y-107100000D02*
X65990000Y-110380000D01*
X65990000Y-110380000D02*
X66030000Y-110420000D01*
X65970000Y-116930000D02*
X64160000Y-116930000D01*
X62340000Y-118750000D02*
X62340000Y-124050000D01*
X64160000Y-116930000D02*
X62340000Y-118750000D01*
X65990000Y-113660000D02*
X65990000Y-116910000D01*
X65990000Y-116910000D02*
X65970000Y-116930000D01*
X58380000Y-85310000D02*
X58380000Y-91360000D01*
X58380000Y-91360000D02*
X59180000Y-92160000D01*
X58380000Y-85310000D02*
X58380000Y-79260000D01*
X58380000Y-79260000D02*
X59180000Y-78460000D01*
X54102000Y-96266000D02*
X54102000Y-96012000D01*
X54102000Y-96012000D02*
X56134000Y-93980000D01*
X56134000Y-93980000D02*
X60706000Y-93980000D01*
X60706000Y-93980000D02*
X62230000Y-92456000D01*
X62230000Y-92456000D02*
X62230000Y-91694000D01*
X62230000Y-91694000D02*
X60452000Y-89916000D01*
X60452000Y-89916000D02*
X60452000Y-87376000D01*
X60452000Y-87376000D02*
X61218000Y-86610000D01*
X61218000Y-86610000D02*
X62030000Y-86610000D01*
X78486000Y-84836000D02*
X77996000Y-84836000D01*
X77996000Y-84836000D02*
X77489998Y-84329998D01*
X77489998Y-84329998D02*
X71519998Y-84329998D01*
X71519998Y-84329998D02*
X69950000Y-82760000D01*
X69950000Y-82760000D02*
X66690000Y-82760000D01*
X66690000Y-82760000D02*
X64920000Y-84530000D01*
X64920000Y-84530000D02*
X64920000Y-85790000D01*
X64920000Y-85790000D02*
X64100000Y-86610000D01*
X64100000Y-86610000D02*
X62030000Y-86610000D01*
X57404000Y-96266000D02*
X57404000Y-95250000D01*
X62992000Y-91186000D02*
X64830000Y-89348000D01*
X62992000Y-92710000D02*
X62992000Y-91186000D01*
X60960000Y-94742000D02*
X62992000Y-92710000D01*
X57912000Y-94742000D02*
X60960000Y-94742000D01*
X57404000Y-95250000D02*
X57912000Y-94742000D01*
X64830000Y-89348000D02*
X64830000Y-88710000D01*
X64830000Y-88710000D02*
X64420000Y-88710000D01*
X78486000Y-87376000D02*
X77826000Y-87376000D01*
X77826000Y-87376000D02*
X75330000Y-84880000D01*
X75330000Y-84880000D02*
X71020000Y-84880000D01*
X71020000Y-84880000D02*
X69550000Y-83410000D01*
X69550000Y-83410000D02*
X67000000Y-83410000D01*
X67000000Y-83410000D02*
X66080000Y-84330000D01*
X66080000Y-84330000D02*
X66080000Y-87460000D01*
X66080000Y-87460000D02*
X64830000Y-88710000D01*
X64830000Y-88710000D02*
X65010000Y-88710000D01*
X108712000Y-65024000D02*
X108712000Y-67564000D01*
X111252000Y-73660000D02*
X113030000Y-73660000D01*
X110236000Y-72644000D02*
X111252000Y-73660000D01*
X110236000Y-69088000D02*
X110236000Y-72644000D01*
X108712000Y-67564000D02*
X110236000Y-69088000D01*
X86106000Y-110236000D02*
X84976000Y-110236000D01*
X76600000Y-113920000D02*
X73590000Y-116930000D01*
X76600000Y-109660000D02*
X76600000Y-113920000D01*
X77290000Y-108970000D02*
X76600000Y-109660000D01*
X83710000Y-108970000D02*
X77290000Y-108970000D01*
X84976000Y-110236000D02*
X83710000Y-108970000D01*
X78486000Y-107696000D02*
X77194000Y-107696000D01*
X75770000Y-111500000D02*
X73610000Y-113660000D01*
X75770000Y-109120000D02*
X75770000Y-111500000D01*
X77194000Y-107696000D02*
X75770000Y-109120000D01*
X112522000Y-119126000D02*
X113284000Y-119126000D01*
X113284000Y-119126000D02*
X114046000Y-120142000D01*
X98806000Y-128524000D02*
X94742000Y-124460000D01*
X113030000Y-128524000D02*
X98806000Y-128524000D01*
X114046000Y-127254000D02*
X113030000Y-128524000D01*
X114046000Y-120142000D02*
X114046000Y-127254000D01*
X112522000Y-119126000D02*
X112536000Y-119126000D01*
X112522000Y-115824000D02*
X112522000Y-119126000D01*
X109270000Y-111440000D02*
X111948000Y-111440000D01*
X97282000Y-129286000D02*
X92710000Y-124714000D01*
X113284000Y-129286000D02*
X97282000Y-129286000D01*
X114600000Y-127762000D02*
X113284000Y-129286000D01*
X114600000Y-114300000D02*
X114600000Y-127762000D01*
X111948000Y-111440000D02*
X114600000Y-114300000D01*
X109270000Y-111440000D02*
X109270000Y-111680000D01*
X109270000Y-111440000D02*
X106110000Y-111440000D01*
X112522000Y-125730000D02*
X112268000Y-125730000D01*
X112268000Y-125730000D02*
X110236000Y-127762000D01*
X99822000Y-127762000D02*
X96266000Y-124206000D01*
X110236000Y-127762000D02*
X99822000Y-127762000D01*
X112522000Y-125730000D02*
X112522000Y-122428000D01*
X100600000Y-109460000D02*
X102760000Y-109460000D01*
X103300000Y-112400000D02*
X103330000Y-112400000D01*
X103300000Y-110000000D02*
X103300000Y-112400000D01*
X102760000Y-109460000D02*
X103300000Y-110000000D01*
X86106000Y-107696000D02*
X86106000Y-107776000D01*
X86106000Y-107776000D02*
X87790000Y-109460000D01*
X103330000Y-124158000D02*
X104902000Y-125730000D01*
X103330000Y-112400000D02*
X103330000Y-124158000D01*
X87790000Y-109460000D02*
X100600000Y-109460000D01*
X86106000Y-107696000D02*
X86696000Y-107696000D01*
X97496000Y-83352000D02*
X101452000Y-83352000D01*
X115210000Y-102380000D02*
X113150000Y-104140000D01*
X115210000Y-86080000D02*
X115210000Y-102380000D01*
X113900000Y-85070000D02*
X115210000Y-86080000D01*
X103170000Y-85070000D02*
X113900000Y-85070000D01*
X101452000Y-83352000D02*
X103170000Y-85070000D01*
X113150000Y-104140000D02*
X113030000Y-104140000D01*
X86106000Y-89916000D02*
X86106000Y-89614000D01*
X86106000Y-89614000D02*
X97350000Y-78370000D01*
X109920000Y-81460000D02*
X112280000Y-83820000D01*
X109920000Y-78750000D02*
X109920000Y-81460000D01*
X109540000Y-78370000D02*
X109920000Y-78750000D01*
X97350000Y-78370000D02*
X109540000Y-78370000D01*
X112280000Y-83820000D02*
X113030000Y-83820000D01*
X86106000Y-89916000D02*
X86614000Y-89916000D01*
X86106000Y-87376000D02*
X86744000Y-87376000D01*
X86744000Y-87376000D02*
X96890000Y-77230000D01*
X111840000Y-81280000D02*
X113030000Y-81280000D01*
X110830000Y-80270000D02*
X111840000Y-81280000D01*
X110830000Y-78030000D02*
X110830000Y-80270000D01*
X110030000Y-77230000D02*
X110830000Y-78030000D01*
X96890000Y-77230000D02*
X110030000Y-77230000D01*
X86106000Y-87376000D02*
X86868000Y-87376000D01*
X86106000Y-84836000D02*
X87664000Y-84836000D01*
X111480000Y-77190000D02*
X113030000Y-78740000D01*
X111480000Y-76750000D02*
X111480000Y-77190000D01*
X110980000Y-76250000D02*
X111480000Y-76750000D01*
X96250000Y-76250000D02*
X110980000Y-76250000D01*
X87664000Y-84836000D02*
X96250000Y-76250000D01*
X78486000Y-105156000D02*
X83884000Y-105156000D01*
X111130000Y-101600000D02*
X113030000Y-101600000D01*
X110660000Y-102070000D02*
X111130000Y-101600000D01*
X110660000Y-105410000D02*
X110660000Y-102070000D01*
X108830000Y-107240000D02*
X110660000Y-105410000D01*
X107300000Y-107240000D02*
X108830000Y-107240000D01*
X107270000Y-107270000D02*
X107300000Y-107240000D01*
X97420000Y-107370000D02*
X102870000Y-107370000D01*
X96200000Y-106150000D02*
X97420000Y-107370000D01*
X96200000Y-104170000D02*
X96200000Y-106150000D01*
X92870000Y-100840000D02*
X96200000Y-104170000D01*
X88560000Y-100840000D02*
X92870000Y-100840000D01*
X87800000Y-101600000D02*
X88560000Y-100840000D01*
X87800000Y-103110000D02*
X87800000Y-101600000D01*
X87030000Y-103880000D02*
X87800000Y-103110000D01*
X85160000Y-103880000D02*
X87030000Y-103880000D01*
X83884000Y-105156000D02*
X85160000Y-103880000D01*
X86106000Y-82296000D02*
X88944000Y-82296000D01*
X112160000Y-75330000D02*
X113030000Y-76200000D01*
X95910000Y-75330000D02*
X112160000Y-75330000D01*
X88944000Y-82296000D02*
X95910000Y-75330000D01*
X86106000Y-82296000D02*
X86868000Y-82296000D01*
X78486000Y-110236000D02*
X78486000Y-110446000D01*
X78486000Y-110446000D02*
X80170000Y-112130000D01*
X80170000Y-112130000D02*
X86900000Y-112130000D01*
X86900000Y-112130000D02*
X88690000Y-110340000D01*
X88690000Y-110340000D02*
X102260000Y-110340000D01*
X104960000Y-109440000D02*
X105250000Y-109150000D01*
X105250000Y-109150000D02*
X108360000Y-109150000D01*
X108360000Y-109150000D02*
X111500000Y-106010000D01*
X111500000Y-106010000D02*
X111500000Y-103550000D01*
X111500000Y-103550000D02*
X112180000Y-102870000D01*
X112180000Y-102870000D02*
X113750000Y-102870000D01*
X113750000Y-102870000D02*
X114550000Y-102070000D01*
X114550000Y-102070000D02*
X114550000Y-98040000D01*
X114550000Y-98040000D02*
X113030000Y-96520000D01*
X84836000Y-65024000D02*
X89408000Y-65024000D01*
X64262000Y-101854000D02*
X67084000Y-101854000D01*
X67084000Y-101854000D02*
X68150000Y-102920000D01*
X78486000Y-102616000D02*
X76074000Y-102616000D01*
X76074000Y-102616000D02*
X75770000Y-102920000D01*
X64008000Y-96012000D02*
X64488000Y-96012000D01*
X64488000Y-96012000D02*
X65786000Y-94234000D01*
X65786000Y-94234000D02*
X65786000Y-90424000D01*
X65786000Y-90424000D02*
X66802000Y-89408000D01*
X66802000Y-89408000D02*
X66802000Y-86106000D01*
X66802000Y-86106000D02*
X68078000Y-84830000D01*
X68078000Y-84830000D02*
X68730000Y-84830000D01*
X78486000Y-89916000D02*
X76296000Y-89916000D01*
X69570000Y-85670000D02*
X68730000Y-84830000D01*
X74760000Y-85670000D02*
X69570000Y-85670000D01*
X75850000Y-86760000D02*
X74760000Y-85670000D01*
X75850000Y-89470000D02*
X75850000Y-86760000D01*
X76296000Y-89916000D02*
X75850000Y-89470000D01*
M02*
