G04 #@! TF.FileFunction,Soldermask,Bot*
%FSLAX46Y46*%
G04 Gerber Fmt 4.6, Leading zero omitted, Abs format (unit mm)*
G04 Created by KiCad (PCBNEW 4.0.7) date 01/02/22 19:18:36*
%MOMM*%
%LPD*%
G01*
G04 APERTURE LIST*
%ADD10C,0.100000*%
%ADD11C,2.000000*%
%ADD12O,2.000000X2.000000*%
%ADD13R,2.000000X2.000000*%
%ADD14R,3.900000X3.900000*%
%ADD15C,4.464000*%
%ADD16R,2.100000X2.100000*%
%ADD17O,2.100000X2.100000*%
%ADD18O,2.400000X2.400000*%
%ADD19O,2.900000X3.900000*%
%ADD20O,3.900000X2.900000*%
%ADD21O,3.900000X2.400000*%
%ADD22O,2.400000X4.400000*%
%ADD23C,2.900000*%
%ADD24C,2.400000*%
%ADD25R,2.200000X2.200000*%
%ADD26O,2.200000X2.200000*%
%ADD27C,1.400000*%
%ADD28C,1.900000*%
%ADD29C,2.200000*%
%ADD30C,1.920000*%
%ADD31R,1.920000X1.920000*%
%ADD32R,3.400000X3.400000*%
%ADD33C,3.400000*%
%ADD34C,2.500000*%
G04 APERTURE END LIST*
D10*
D11*
X113870000Y-78860000D03*
D12*
X113870000Y-86480000D03*
D11*
X92330000Y-107010000D03*
D12*
X92330000Y-114630000D03*
D13*
X69342000Y-121920000D03*
D11*
X66842000Y-121920000D03*
X75170000Y-66900000D03*
X72670000Y-66900000D03*
D13*
X56000000Y-73500000D03*
D11*
X56000000Y-71000000D03*
X74400000Y-87200000D03*
X71900000Y-87200000D03*
X68560000Y-87170000D03*
X68560000Y-92170000D03*
X68560000Y-94600000D03*
X68560000Y-99600000D03*
X96150000Y-115340000D03*
X98650000Y-115340000D03*
D13*
X82296000Y-124206000D03*
D11*
X82296000Y-126706000D03*
D13*
X78330000Y-72430000D03*
D12*
X78330000Y-64810000D03*
D13*
X89340000Y-102600000D03*
D12*
X89340000Y-94980000D03*
D13*
X89380000Y-113160000D03*
D12*
X89380000Y-105540000D03*
D14*
X68580000Y-127508000D03*
X68580000Y-133508000D03*
X73280000Y-130508000D03*
D15*
X128000000Y-66000000D03*
X55000000Y-66000000D03*
D16*
X98450000Y-97160000D03*
D17*
X100990000Y-97160000D03*
X98450000Y-99700000D03*
X100990000Y-99700000D03*
X98450000Y-102240000D03*
X100990000Y-102240000D03*
D15*
X128000000Y-135000000D03*
X55000000Y-135000000D03*
D16*
X97790000Y-66040000D03*
D17*
X97790000Y-68580000D03*
X97790000Y-71120000D03*
X97790000Y-73660000D03*
D16*
X72136000Y-81280000D03*
D17*
X72136000Y-78740000D03*
X72136000Y-76200000D03*
X72136000Y-73660000D03*
D18*
X53840000Y-114810000D03*
X53840000Y-105810000D03*
D19*
X57340000Y-110310000D03*
D20*
X62340000Y-110310000D03*
D18*
X53840000Y-129450000D03*
X53840000Y-120450000D03*
D19*
X57340000Y-124950000D03*
D20*
X62340000Y-124950000D03*
D16*
X95480000Y-91140000D03*
D17*
X98020000Y-91140000D03*
D21*
X59180000Y-78460000D03*
X59180000Y-92160000D03*
D13*
X62030000Y-86610000D03*
D11*
X62030000Y-84010000D03*
X62030000Y-88710000D03*
X62030000Y-81910000D03*
X64830000Y-88710000D03*
X64830000Y-81910000D03*
D22*
X58380000Y-85310000D03*
D11*
X81460000Y-64690000D03*
D12*
X81460000Y-72310000D03*
D11*
X105156000Y-65024000D03*
D12*
X105156000Y-72644000D03*
D11*
X101600000Y-65024000D03*
D12*
X101600000Y-72644000D03*
D11*
X64920000Y-107370000D03*
D12*
X72540000Y-107370000D03*
D11*
X53680000Y-117650000D03*
D12*
X61300000Y-117650000D03*
D11*
X108712000Y-72644000D03*
D12*
X108712000Y-65024000D03*
D11*
X64650000Y-116930000D03*
D12*
X72270000Y-116930000D03*
D11*
X64680000Y-113690000D03*
D12*
X72300000Y-113690000D03*
D11*
X117180000Y-86500000D03*
D12*
X117180000Y-78880000D03*
D11*
X120390000Y-78870000D03*
D12*
X120390000Y-86490000D03*
D11*
X110540000Y-86480000D03*
D12*
X110540000Y-78860000D03*
D11*
X106810000Y-89040000D03*
D12*
X106810000Y-96660000D03*
D11*
X110030000Y-96700000D03*
D12*
X110030000Y-89080000D03*
D11*
X57190000Y-103130000D03*
D12*
X57190000Y-95510000D03*
D11*
X53970000Y-95460000D03*
D12*
X53970000Y-103080000D03*
D23*
X97496000Y-80812000D03*
X99996000Y-85852000D03*
X94996000Y-85852000D03*
D24*
X67818000Y-66112000D03*
X67818000Y-70612000D03*
X61318000Y-66112000D03*
X61318000Y-70612000D03*
D25*
X77470000Y-118872000D03*
D26*
X80010000Y-118872000D03*
X82550000Y-118872000D03*
D13*
X78486000Y-77216000D03*
D12*
X86106000Y-110236000D03*
X78486000Y-79756000D03*
X86106000Y-107696000D03*
X78486000Y-82296000D03*
X86106000Y-105156000D03*
X78486000Y-84836000D03*
X86106000Y-102616000D03*
X78486000Y-87376000D03*
X86106000Y-100076000D03*
X78486000Y-89916000D03*
X86106000Y-97536000D03*
X78486000Y-92456000D03*
X86106000Y-94996000D03*
X78486000Y-94996000D03*
X86106000Y-92456000D03*
X78486000Y-97536000D03*
X86106000Y-89916000D03*
X78486000Y-100076000D03*
X86106000Y-87376000D03*
X78486000Y-102616000D03*
X86106000Y-84836000D03*
X78486000Y-105156000D03*
X86106000Y-82296000D03*
X78486000Y-107696000D03*
X86106000Y-79756000D03*
X78486000Y-110236000D03*
X86106000Y-77216000D03*
D16*
X128000000Y-110000000D03*
D17*
X128000000Y-107460000D03*
X128000000Y-104920000D03*
X128000000Y-102380000D03*
X128000000Y-99840000D03*
X128000000Y-97300000D03*
X128000000Y-94760000D03*
X128000000Y-92220000D03*
X128000000Y-89680000D03*
X128000000Y-87140000D03*
X128000000Y-84600000D03*
X128000000Y-82060000D03*
X128000000Y-79520000D03*
X128000000Y-76980000D03*
X128000000Y-74440000D03*
X128000000Y-71900000D03*
D27*
X89792000Y-132204000D03*
X97792000Y-132204000D03*
D28*
X73260000Y-97340000D03*
X73260000Y-92460000D03*
D25*
X89408000Y-67564000D03*
D29*
X89408000Y-65024000D03*
D11*
X84836000Y-65024000D03*
D12*
X84836000Y-72644000D03*
D30*
X64260000Y-101640000D03*
X64260000Y-104180000D03*
D31*
X64260000Y-99100000D03*
D11*
X68110000Y-102490000D03*
D12*
X75730000Y-102490000D03*
D16*
X64008000Y-96012000D03*
D17*
X61468000Y-96012000D03*
D11*
X68730000Y-84830000D03*
D12*
X68730000Y-77210000D03*
D32*
X78232000Y-132588000D03*
D33*
X83312000Y-132588000D03*
D30*
X105520000Y-79780000D03*
X105520000Y-77240000D03*
D31*
X105520000Y-82320000D03*
D11*
X95550000Y-112490000D03*
D12*
X95550000Y-104870000D03*
D11*
X107070000Y-129530000D03*
X107070000Y-132030000D03*
X116250000Y-117080000D03*
X118750000Y-117080000D03*
D13*
X109830000Y-119420000D03*
D12*
X109830000Y-127040000D03*
D13*
X129050000Y-116940000D03*
D12*
X121430000Y-116940000D03*
D28*
X116260000Y-130000000D03*
X118800000Y-130000000D03*
D34*
X121340000Y-135080000D03*
X111180000Y-135080000D03*
D32*
X113974000Y-132728000D03*
D33*
X119054000Y-132728000D03*
D11*
X128550000Y-125870000D03*
D12*
X115850000Y-125870000D03*
D11*
X128520000Y-121870000D03*
D12*
X115820000Y-121870000D03*
D11*
X112990000Y-108910000D03*
D12*
X112990000Y-116530000D03*
D11*
X75200000Y-105170000D03*
D12*
X75200000Y-112790000D03*
D13*
X123770000Y-113660000D03*
D12*
X116150000Y-98420000D03*
X123770000Y-111120000D03*
X116150000Y-100960000D03*
X123770000Y-108580000D03*
X116150000Y-103500000D03*
X123770000Y-106040000D03*
X116150000Y-106040000D03*
X123770000Y-103500000D03*
X116150000Y-108580000D03*
X123770000Y-100960000D03*
X116150000Y-111120000D03*
X123770000Y-98420000D03*
X116150000Y-113660000D03*
D11*
X112850000Y-119420000D03*
D12*
X112850000Y-127040000D03*
D11*
X111010000Y-106030000D03*
X111010000Y-103530000D03*
D13*
X106930000Y-119000000D03*
D12*
X106930000Y-126620000D03*
D11*
X109720000Y-108990000D03*
D12*
X109720000Y-116610000D03*
D11*
X124530000Y-86700000D03*
D12*
X124530000Y-94320000D03*
D11*
X114300000Y-89720000D03*
D12*
X121920000Y-89720000D03*
M02*
