G04 #@! TF.FileFunction,Legend,Top*
%FSLAX46Y46*%
G04 Gerber Fmt 4.6, Leading zero omitted, Abs format (unit mm)*
G04 Created by KiCad (PCBNEW 4.0.7) date 01/02/22 20:16:04*
%MOMM*%
%LPD*%
G01*
G04 APERTURE LIST*
%ADD10C,0.100000*%
%ADD11C,0.150000*%
%ADD12C,0.120000*%
%ADD13C,0.200000*%
%ADD14C,0.250000*%
%ADD15C,0.300000*%
G04 APERTURE END LIST*
D10*
D11*
X104761905Y-135103571D02*
X104428571Y-135103571D01*
X104428571Y-135627381D02*
X104428571Y-134627381D01*
X104904762Y-134627381D01*
X105857143Y-135627381D02*
X105523809Y-135151190D01*
X105285714Y-135627381D02*
X105285714Y-134627381D01*
X105666667Y-134627381D01*
X105761905Y-134675000D01*
X105809524Y-134722619D01*
X105857143Y-134817857D01*
X105857143Y-134960714D01*
X105809524Y-135055952D01*
X105761905Y-135103571D01*
X105666667Y-135151190D01*
X105285714Y-135151190D01*
X106285714Y-135103571D02*
X106619048Y-135103571D01*
X106761905Y-135627381D02*
X106285714Y-135627381D01*
X106285714Y-134627381D01*
X106761905Y-134627381D01*
X107857143Y-135722619D02*
X107761905Y-135675000D01*
X107666667Y-135579762D01*
X107523810Y-135436905D01*
X107428571Y-135389286D01*
X107333333Y-135389286D01*
X107380952Y-135627381D02*
X107285714Y-135579762D01*
X107190476Y-135484524D01*
X107142857Y-135294048D01*
X107142857Y-134960714D01*
X107190476Y-134770238D01*
X107285714Y-134675000D01*
X107380952Y-134627381D01*
X107571429Y-134627381D01*
X107666667Y-134675000D01*
X107761905Y-134770238D01*
X107809524Y-134960714D01*
X107809524Y-135294048D01*
X107761905Y-135484524D01*
X107666667Y-135579762D01*
X107571429Y-135627381D01*
X107380952Y-135627381D01*
X106047619Y-137182143D02*
X106000000Y-137229762D01*
X105857143Y-137277381D01*
X105761905Y-137277381D01*
X105619047Y-137229762D01*
X105523809Y-137134524D01*
X105476190Y-137039286D01*
X105428571Y-136848810D01*
X105428571Y-136705952D01*
X105476190Y-136515476D01*
X105523809Y-136420238D01*
X105619047Y-136325000D01*
X105761905Y-136277381D01*
X105857143Y-136277381D01*
X106000000Y-136325000D01*
X106047619Y-136372619D01*
X106333333Y-136277381D02*
X106904762Y-136277381D01*
X106619047Y-137277381D02*
X106619047Y-136277381D01*
X107809524Y-137277381D02*
X107476190Y-136801190D01*
X107238095Y-137277381D02*
X107238095Y-136277381D01*
X107619048Y-136277381D01*
X107714286Y-136325000D01*
X107761905Y-136372619D01*
X107809524Y-136467857D01*
X107809524Y-136610714D01*
X107761905Y-136705952D01*
X107714286Y-136753571D01*
X107619048Y-136801190D01*
X107238095Y-136801190D01*
X119622381Y-108895714D02*
X119622381Y-108229047D01*
X120622381Y-108657619D01*
X119955714Y-107419523D02*
X120622381Y-107419523D01*
X119574762Y-107657619D02*
X120289048Y-107895714D01*
X120289048Y-107276666D01*
X120622381Y-106895714D02*
X119622381Y-106895714D01*
X120098571Y-106895714D02*
X120098571Y-106324285D01*
X120622381Y-106324285D02*
X119622381Y-106324285D01*
X120527143Y-105276666D02*
X120574762Y-105324285D01*
X120622381Y-105467142D01*
X120622381Y-105562380D01*
X120574762Y-105705238D01*
X120479524Y-105800476D01*
X120384286Y-105848095D01*
X120193810Y-105895714D01*
X120050952Y-105895714D01*
X119860476Y-105848095D01*
X119765238Y-105800476D01*
X119670000Y-105705238D01*
X119622381Y-105562380D01*
X119622381Y-105467142D01*
X119670000Y-105324285D01*
X119717619Y-105276666D01*
X119622381Y-104943333D02*
X119622381Y-104276666D01*
X120622381Y-104705238D01*
X119955714Y-103467142D02*
X120622381Y-103467142D01*
X119574762Y-103705238D02*
X120289048Y-103943333D01*
X120289048Y-103324285D01*
X126265715Y-114472381D02*
X125694286Y-114472381D01*
X125980000Y-114472381D02*
X125980000Y-113472381D01*
X125884762Y-113615238D01*
X125789524Y-113710476D01*
X125694286Y-113758095D01*
X97855715Y-95242381D02*
X97284286Y-95242381D01*
X97570000Y-95242381D02*
X97570000Y-94242381D01*
X97474762Y-94385238D01*
X97379524Y-94480476D01*
X97284286Y-94528095D01*
X82550096Y-136660000D02*
X82454858Y-136612381D01*
X82312001Y-136612381D01*
X82169143Y-136660000D01*
X82073905Y-136755238D01*
X82026286Y-136850476D01*
X81978667Y-137040952D01*
X81978667Y-137183810D01*
X82026286Y-137374286D01*
X82073905Y-137469524D01*
X82169143Y-137564762D01*
X82312001Y-137612381D01*
X82407239Y-137612381D01*
X82550096Y-137564762D01*
X82597715Y-137517143D01*
X82597715Y-137183810D01*
X82407239Y-137183810D01*
X83026286Y-137612381D02*
X83026286Y-136612381D01*
X83597715Y-137612381D01*
X83597715Y-136612381D01*
X84073905Y-137612381D02*
X84073905Y-136612381D01*
X84312000Y-136612381D01*
X84454858Y-136660000D01*
X84550096Y-136755238D01*
X84597715Y-136850476D01*
X84645334Y-137040952D01*
X84645334Y-137183810D01*
X84597715Y-137374286D01*
X84550096Y-137469524D01*
X84454858Y-137564762D01*
X84312000Y-137612381D01*
X84073905Y-137612381D01*
X77422476Y-137231429D02*
X78184381Y-137231429D01*
X77803429Y-137612381D02*
X77803429Y-136850476D01*
X78517714Y-136612381D02*
X78851047Y-137612381D01*
X79184381Y-136612381D01*
X79813334Y-113862381D02*
X79337143Y-113862381D01*
X79337143Y-112862381D01*
X80146667Y-113862381D02*
X80146667Y-112862381D01*
X80480001Y-113576667D01*
X80813334Y-112862381D01*
X80813334Y-113862381D01*
X81194286Y-112862381D02*
X81860953Y-112862381D01*
X81432381Y-113862381D01*
X82384762Y-113290952D02*
X82289524Y-113243333D01*
X82241905Y-113195714D01*
X82194286Y-113100476D01*
X82194286Y-113052857D01*
X82241905Y-112957619D01*
X82289524Y-112910000D01*
X82384762Y-112862381D01*
X82575239Y-112862381D01*
X82670477Y-112910000D01*
X82718096Y-112957619D01*
X82765715Y-113052857D01*
X82765715Y-113100476D01*
X82718096Y-113195714D01*
X82670477Y-113243333D01*
X82575239Y-113290952D01*
X82384762Y-113290952D01*
X82289524Y-113338571D01*
X82241905Y-113386190D01*
X82194286Y-113481429D01*
X82194286Y-113671905D01*
X82241905Y-113767143D01*
X82289524Y-113814762D01*
X82384762Y-113862381D01*
X82575239Y-113862381D01*
X82670477Y-113814762D01*
X82718096Y-113767143D01*
X82765715Y-113671905D01*
X82765715Y-113481429D01*
X82718096Y-113386190D01*
X82670477Y-113338571D01*
X82575239Y-113290952D01*
X83384762Y-112862381D02*
X83480001Y-112862381D01*
X83575239Y-112910000D01*
X83622858Y-112957619D01*
X83670477Y-113052857D01*
X83718096Y-113243333D01*
X83718096Y-113481429D01*
X83670477Y-113671905D01*
X83622858Y-113767143D01*
X83575239Y-113814762D01*
X83480001Y-113862381D01*
X83384762Y-113862381D01*
X83289524Y-113814762D01*
X83241905Y-113767143D01*
X83194286Y-113671905D01*
X83146667Y-113481429D01*
X83146667Y-113243333D01*
X83194286Y-113052857D01*
X83241905Y-112957619D01*
X83289524Y-112910000D01*
X83384762Y-112862381D01*
X84622858Y-112862381D02*
X84146667Y-112862381D01*
X84099048Y-113338571D01*
X84146667Y-113290952D01*
X84241905Y-113243333D01*
X84480001Y-113243333D01*
X84575239Y-113290952D01*
X84622858Y-113338571D01*
X84670477Y-113433810D01*
X84670477Y-113671905D01*
X84622858Y-113767143D01*
X84575239Y-113814762D01*
X84480001Y-113862381D01*
X84241905Y-113862381D01*
X84146667Y-113814762D01*
X84099048Y-113767143D01*
X76675715Y-116962381D02*
X76104286Y-116962381D01*
X76390000Y-116962381D02*
X76390000Y-115962381D01*
X76294762Y-116105238D01*
X76199524Y-116200476D01*
X76104286Y-116248095D01*
X78285715Y-75452381D02*
X77714286Y-75452381D01*
X78000000Y-75452381D02*
X78000000Y-74452381D01*
X77904762Y-74595238D01*
X77809524Y-74690476D01*
X77714286Y-74738095D01*
X63063619Y-73096381D02*
X62730285Y-72620190D01*
X62492190Y-73096381D02*
X62492190Y-72096381D01*
X62873143Y-72096381D01*
X62968381Y-72144000D01*
X63016000Y-72191619D01*
X63063619Y-72286857D01*
X63063619Y-72429714D01*
X63016000Y-72524952D01*
X62968381Y-72572571D01*
X62873143Y-72620190D01*
X62492190Y-72620190D01*
X63492190Y-72572571D02*
X63825524Y-72572571D01*
X63968381Y-73096381D02*
X63492190Y-73096381D01*
X63492190Y-72096381D01*
X63968381Y-72096381D01*
X64349333Y-73048762D02*
X64492190Y-73096381D01*
X64730286Y-73096381D01*
X64825524Y-73048762D01*
X64873143Y-73001143D01*
X64920762Y-72905905D01*
X64920762Y-72810667D01*
X64873143Y-72715429D01*
X64825524Y-72667810D01*
X64730286Y-72620190D01*
X64539809Y-72572571D01*
X64444571Y-72524952D01*
X64396952Y-72477333D01*
X64349333Y-72382095D01*
X64349333Y-72286857D01*
X64396952Y-72191619D01*
X64444571Y-72144000D01*
X64539809Y-72096381D01*
X64777905Y-72096381D01*
X64920762Y-72144000D01*
X65349333Y-72572571D02*
X65682667Y-72572571D01*
X65825524Y-73096381D02*
X65349333Y-73096381D01*
X65349333Y-72096381D01*
X65825524Y-72096381D01*
X66111238Y-72096381D02*
X66682667Y-72096381D01*
X66396952Y-73096381D02*
X66396952Y-72096381D01*
X111626666Y-70692381D02*
X111626666Y-69692381D01*
X112007619Y-69692381D01*
X112102857Y-69740000D01*
X112150476Y-69787619D01*
X112198095Y-69882857D01*
X112198095Y-70025714D01*
X112150476Y-70120952D01*
X112102857Y-70168571D01*
X112007619Y-70216190D01*
X111626666Y-70216190D01*
X112817142Y-69692381D02*
X113007619Y-69692381D01*
X113102857Y-69740000D01*
X113198095Y-69835238D01*
X113245714Y-70025714D01*
X113245714Y-70359048D01*
X113198095Y-70549524D01*
X113102857Y-70644762D01*
X113007619Y-70692381D01*
X112817142Y-70692381D01*
X112721904Y-70644762D01*
X112626666Y-70549524D01*
X112579047Y-70359048D01*
X112579047Y-70025714D01*
X112626666Y-69835238D01*
X112721904Y-69740000D01*
X112817142Y-69692381D01*
X114245714Y-70692381D02*
X113912380Y-70216190D01*
X113674285Y-70692381D02*
X113674285Y-69692381D01*
X114055238Y-69692381D01*
X114150476Y-69740000D01*
X114198095Y-69787619D01*
X114245714Y-69882857D01*
X114245714Y-70025714D01*
X114198095Y-70120952D01*
X114150476Y-70168571D01*
X114055238Y-70216190D01*
X113674285Y-70216190D01*
X114531428Y-69692381D02*
X115102857Y-69692381D01*
X114817142Y-70692381D02*
X114817142Y-69692381D01*
X115388571Y-70406667D02*
X115864762Y-70406667D01*
X115293333Y-70692381D02*
X115626666Y-69692381D01*
X115960000Y-70692381D01*
X116626667Y-70168571D02*
X116769524Y-70216190D01*
X116817143Y-70263810D01*
X116864762Y-70359048D01*
X116864762Y-70501905D01*
X116817143Y-70597143D01*
X116769524Y-70644762D01*
X116674286Y-70692381D01*
X116293333Y-70692381D01*
X116293333Y-69692381D01*
X116626667Y-69692381D01*
X116721905Y-69740000D01*
X116769524Y-69787619D01*
X116817143Y-69882857D01*
X116817143Y-69978095D01*
X116769524Y-70073333D01*
X116721905Y-70120952D01*
X116626667Y-70168571D01*
X116293333Y-70168571D01*
X117769524Y-70692381D02*
X117293333Y-70692381D01*
X117293333Y-69692381D01*
X118102857Y-70168571D02*
X118436191Y-70168571D01*
X118579048Y-70692381D02*
X118102857Y-70692381D01*
X118102857Y-69692381D01*
X118579048Y-69692381D01*
X119721905Y-70644762D02*
X119864762Y-70692381D01*
X120102858Y-70692381D01*
X120198096Y-70644762D01*
X120245715Y-70597143D01*
X120293334Y-70501905D01*
X120293334Y-70406667D01*
X120245715Y-70311429D01*
X120198096Y-70263810D01*
X120102858Y-70216190D01*
X119912381Y-70168571D01*
X119817143Y-70120952D01*
X119769524Y-70073333D01*
X119721905Y-69978095D01*
X119721905Y-69882857D01*
X119769524Y-69787619D01*
X119817143Y-69740000D01*
X119912381Y-69692381D01*
X120150477Y-69692381D01*
X120293334Y-69740000D01*
X120721905Y-70168571D02*
X121055239Y-70168571D01*
X121198096Y-70692381D02*
X120721905Y-70692381D01*
X120721905Y-69692381D01*
X121198096Y-69692381D01*
X122198096Y-70692381D02*
X121864762Y-70216190D01*
X121626667Y-70692381D02*
X121626667Y-69692381D01*
X122007620Y-69692381D01*
X122102858Y-69740000D01*
X122150477Y-69787619D01*
X122198096Y-69882857D01*
X122198096Y-70025714D01*
X122150477Y-70120952D01*
X122102858Y-70168571D01*
X122007620Y-70216190D01*
X121626667Y-70216190D01*
X122626667Y-70692381D02*
X122626667Y-69692381D01*
X123055238Y-70406667D02*
X123531429Y-70406667D01*
X122960000Y-70692381D02*
X123293333Y-69692381D01*
X123626667Y-70692381D01*
X124436191Y-70692381D02*
X123960000Y-70692381D01*
X123960000Y-69692381D01*
X113269524Y-71342381D02*
X113840953Y-71342381D01*
X113555238Y-72342381D02*
X113555238Y-71342381D01*
X114174286Y-71818571D02*
X114507620Y-71818571D01*
X114650477Y-72342381D02*
X114174286Y-72342381D01*
X114174286Y-71342381D01*
X114650477Y-71342381D01*
X115650477Y-72342381D02*
X115317143Y-71866190D01*
X115079048Y-72342381D02*
X115079048Y-71342381D01*
X115460001Y-71342381D01*
X115555239Y-71390000D01*
X115602858Y-71437619D01*
X115650477Y-71532857D01*
X115650477Y-71675714D01*
X115602858Y-71770952D01*
X115555239Y-71818571D01*
X115460001Y-71866190D01*
X115079048Y-71866190D01*
X116079048Y-72342381D02*
X116079048Y-71342381D01*
X116412382Y-72056667D01*
X116745715Y-71342381D01*
X116745715Y-72342381D01*
X117221905Y-72342381D02*
X117221905Y-71342381D01*
X117698095Y-72342381D02*
X117698095Y-71342381D01*
X118269524Y-72342381D01*
X118269524Y-71342381D01*
X118698095Y-72056667D02*
X119174286Y-72056667D01*
X118602857Y-72342381D02*
X118936190Y-71342381D01*
X119269524Y-72342381D01*
X120079048Y-72342381D02*
X119602857Y-72342381D01*
X119602857Y-71342381D01*
X121031429Y-71342381D02*
X121364762Y-72342381D01*
X121698096Y-71342381D01*
X121936191Y-71342381D02*
X122555239Y-71342381D01*
X122221905Y-71723333D01*
X122364763Y-71723333D01*
X122460001Y-71770952D01*
X122507620Y-71818571D01*
X122555239Y-71913810D01*
X122555239Y-72151905D01*
X122507620Y-72247143D01*
X122460001Y-72294762D01*
X122364763Y-72342381D01*
X122079048Y-72342381D01*
X121983810Y-72294762D01*
X121936191Y-72247143D01*
X111817143Y-73468571D02*
X111960000Y-73516190D01*
X112007619Y-73563810D01*
X112055238Y-73659048D01*
X112055238Y-73801905D01*
X112007619Y-73897143D01*
X111960000Y-73944762D01*
X111864762Y-73992381D01*
X111483809Y-73992381D01*
X111483809Y-72992381D01*
X111817143Y-72992381D01*
X111912381Y-73040000D01*
X111960000Y-73087619D01*
X112007619Y-73182857D01*
X112007619Y-73278095D01*
X111960000Y-73373333D01*
X111912381Y-73420952D01*
X111817143Y-73468571D01*
X111483809Y-73468571D01*
X112674285Y-73516190D02*
X112674285Y-73992381D01*
X112340952Y-72992381D02*
X112674285Y-73516190D01*
X113007619Y-72992381D01*
X114102857Y-73992381D02*
X114102857Y-72992381D01*
X114340952Y-72992381D01*
X114483810Y-73040000D01*
X114579048Y-73135238D01*
X114626667Y-73230476D01*
X114674286Y-73420952D01*
X114674286Y-73563810D01*
X114626667Y-73754286D01*
X114579048Y-73849524D01*
X114483810Y-73944762D01*
X114340952Y-73992381D01*
X114102857Y-73992381D01*
X115055238Y-73706667D02*
X115531429Y-73706667D01*
X114960000Y-73992381D02*
X115293333Y-72992381D01*
X115626667Y-73992381D01*
X115960000Y-73992381D02*
X115960000Y-72992381D01*
X116531429Y-73992381D01*
X116531429Y-72992381D01*
X117007619Y-73992381D02*
X117007619Y-72992381D01*
X117483809Y-73468571D02*
X117817143Y-73468571D01*
X117960000Y-73992381D02*
X117483809Y-73992381D01*
X117483809Y-72992381D01*
X117960000Y-72992381D01*
X118864762Y-73992381D02*
X118388571Y-73992381D01*
X118388571Y-72992381D01*
X119960000Y-73992381D02*
X119960000Y-72992381D01*
X120293334Y-73706667D01*
X120626667Y-72992381D01*
X120626667Y-73992381D01*
X121055238Y-73706667D02*
X121531429Y-73706667D01*
X120960000Y-73992381D02*
X121293333Y-72992381D01*
X121626667Y-73992381D01*
X122531429Y-73992381D02*
X122198095Y-73516190D01*
X121960000Y-73992381D02*
X121960000Y-72992381D01*
X122340953Y-72992381D01*
X122436191Y-73040000D01*
X122483810Y-73087619D01*
X122531429Y-73182857D01*
X122531429Y-73325714D01*
X122483810Y-73420952D01*
X122436191Y-73468571D01*
X122340953Y-73516190D01*
X121960000Y-73516190D01*
X122960000Y-73992381D02*
X122960000Y-72992381D01*
X123531429Y-73992381D02*
X123102857Y-73420952D01*
X123531429Y-72992381D02*
X122960000Y-73563810D01*
X123912381Y-73944762D02*
X124055238Y-73992381D01*
X124293334Y-73992381D01*
X124388572Y-73944762D01*
X124436191Y-73897143D01*
X124483810Y-73801905D01*
X124483810Y-73706667D01*
X124436191Y-73611429D01*
X124388572Y-73563810D01*
X124293334Y-73516190D01*
X124102857Y-73468571D01*
X124007619Y-73420952D01*
X123960000Y-73373333D01*
X123912381Y-73278095D01*
X123912381Y-73182857D01*
X123960000Y-73087619D01*
X124007619Y-73040000D01*
X124102857Y-72992381D01*
X124340953Y-72992381D01*
X124483810Y-73040000D01*
X116031429Y-75642381D02*
X116031429Y-74642381D01*
X116602858Y-75642381D02*
X116174286Y-75070952D01*
X116602858Y-74642381D02*
X116031429Y-75213810D01*
X116936191Y-74642381D02*
X117174286Y-75642381D01*
X117364763Y-74928095D01*
X117555239Y-75642381D01*
X117793334Y-74642381D01*
X118602858Y-74975714D02*
X118602858Y-75642381D01*
X118364762Y-74594762D02*
X118126667Y-75309048D01*
X118745715Y-75309048D01*
X118983810Y-74642381D02*
X119555239Y-74642381D01*
X119269524Y-75642381D02*
X119269524Y-74642381D01*
X119888572Y-75642381D02*
X119888572Y-74642381D01*
X113126667Y-77197143D02*
X113079048Y-77244762D01*
X112936191Y-77292381D01*
X112840953Y-77292381D01*
X112698095Y-77244762D01*
X112602857Y-77149524D01*
X112555238Y-77054286D01*
X112507619Y-76863810D01*
X112507619Y-76720952D01*
X112555238Y-76530476D01*
X112602857Y-76435238D01*
X112698095Y-76340000D01*
X112840953Y-76292381D01*
X112936191Y-76292381D01*
X113079048Y-76340000D01*
X113126667Y-76387619D01*
X114126667Y-77197143D02*
X114079048Y-77244762D01*
X113936191Y-77292381D01*
X113840953Y-77292381D01*
X113698095Y-77244762D01*
X113602857Y-77149524D01*
X113555238Y-77054286D01*
X113507619Y-76863810D01*
X113507619Y-76720952D01*
X113555238Y-76530476D01*
X113602857Y-76435238D01*
X113698095Y-76340000D01*
X113840953Y-76292381D01*
X113936191Y-76292381D01*
X114079048Y-76340000D01*
X114126667Y-76387619D01*
X114555238Y-76911429D02*
X115317143Y-76911429D01*
X116126667Y-76768571D02*
X116269524Y-76816190D01*
X116317143Y-76863810D01*
X116364762Y-76959048D01*
X116364762Y-77101905D01*
X116317143Y-77197143D01*
X116269524Y-77244762D01*
X116174286Y-77292381D01*
X115793333Y-77292381D01*
X115793333Y-76292381D01*
X116126667Y-76292381D01*
X116221905Y-76340000D01*
X116269524Y-76387619D01*
X116317143Y-76482857D01*
X116317143Y-76578095D01*
X116269524Y-76673333D01*
X116221905Y-76720952D01*
X116126667Y-76768571D01*
X115793333Y-76768571D01*
X116983809Y-76816190D02*
X116983809Y-77292381D01*
X116650476Y-76292381D02*
X116983809Y-76816190D01*
X117317143Y-76292381D01*
X117650476Y-76911429D02*
X118412381Y-76911429D01*
X118840952Y-77244762D02*
X118983809Y-77292381D01*
X119221905Y-77292381D01*
X119317143Y-77244762D01*
X119364762Y-77197143D01*
X119412381Y-77101905D01*
X119412381Y-77006667D01*
X119364762Y-76911429D01*
X119317143Y-76863810D01*
X119221905Y-76816190D01*
X119031428Y-76768571D01*
X118936190Y-76720952D01*
X118888571Y-76673333D01*
X118840952Y-76578095D01*
X118840952Y-76482857D01*
X118888571Y-76387619D01*
X118936190Y-76340000D01*
X119031428Y-76292381D01*
X119269524Y-76292381D01*
X119412381Y-76340000D01*
X119793333Y-77006667D02*
X120269524Y-77006667D01*
X119698095Y-77292381D02*
X120031428Y-76292381D01*
X120364762Y-77292381D01*
X121888572Y-76625714D02*
X121888572Y-77292381D01*
X121650476Y-76244762D02*
X121412381Y-76959048D01*
X122031429Y-76959048D01*
X122412381Y-77197143D02*
X122460000Y-77244762D01*
X122412381Y-77292381D01*
X122364762Y-77244762D01*
X122412381Y-77197143D01*
X122412381Y-77292381D01*
X123079047Y-76292381D02*
X123174286Y-76292381D01*
X123269524Y-76340000D01*
X123317143Y-76387619D01*
X123364762Y-76482857D01*
X123412381Y-76673333D01*
X123412381Y-76911429D01*
X123364762Y-77101905D01*
X123317143Y-77197143D01*
X123269524Y-77244762D01*
X123174286Y-77292381D01*
X123079047Y-77292381D01*
X122983809Y-77244762D01*
X122936190Y-77197143D01*
X122888571Y-77101905D01*
X122840952Y-76911429D01*
X122840952Y-76673333D01*
X122888571Y-76482857D01*
X122936190Y-76387619D01*
X122983809Y-76340000D01*
X123079047Y-76292381D01*
X55995714Y-130277381D02*
X56662381Y-130277381D01*
X56233809Y-131277381D01*
X57043333Y-130896429D02*
X57805238Y-130896429D01*
X58805238Y-131277381D02*
X58233809Y-131277381D01*
X58519523Y-131277381D02*
X58519523Y-130277381D01*
X58424285Y-130420238D01*
X58329047Y-130515476D01*
X58233809Y-130563095D01*
X59186190Y-130372619D02*
X59233809Y-130325000D01*
X59329047Y-130277381D01*
X59567143Y-130277381D01*
X59662381Y-130325000D01*
X59710000Y-130372619D01*
X59757619Y-130467857D01*
X59757619Y-130563095D01*
X59710000Y-130705952D01*
X59138571Y-131277381D01*
X59757619Y-131277381D01*
X60805238Y-130277381D02*
X61138571Y-131277381D01*
X61471905Y-130277381D01*
X61805238Y-131277381D02*
X61805238Y-130277381D01*
X62043333Y-130277381D01*
X62186191Y-130325000D01*
X62281429Y-130420238D01*
X62329048Y-130515476D01*
X62376667Y-130705952D01*
X62376667Y-130848810D01*
X62329048Y-131039286D01*
X62281429Y-131134524D01*
X62186191Y-131229762D01*
X62043333Y-131277381D01*
X61805238Y-131277381D01*
X63376667Y-131182143D02*
X63329048Y-131229762D01*
X63186191Y-131277381D01*
X63090953Y-131277381D01*
X62948095Y-131229762D01*
X62852857Y-131134524D01*
X62805238Y-131039286D01*
X62757619Y-130848810D01*
X62757619Y-130705952D01*
X62805238Y-130515476D01*
X62852857Y-130420238D01*
X62948095Y-130325000D01*
X63090953Y-130277381D01*
X63186191Y-130277381D01*
X63329048Y-130325000D01*
X63376667Y-130372619D01*
X57686191Y-132927381D02*
X57686191Y-131927381D01*
X58067144Y-131927381D01*
X58162382Y-131975000D01*
X58210001Y-132022619D01*
X58257620Y-132117857D01*
X58257620Y-132260714D01*
X58210001Y-132355952D01*
X58162382Y-132403571D01*
X58067144Y-132451190D01*
X57686191Y-132451190D01*
X58686191Y-132927381D02*
X58686191Y-131927381D01*
X59162381Y-132927381D02*
X59162381Y-131927381D01*
X59733810Y-132927381D01*
X59733810Y-131927381D01*
X60971905Y-132546429D02*
X61733810Y-132546429D01*
X61352858Y-132927381D02*
X61352858Y-132165476D01*
X88495619Y-137358381D02*
X88495619Y-136358381D01*
X88828953Y-137072667D01*
X89162286Y-136358381D01*
X89162286Y-137358381D01*
X89638476Y-137358381D02*
X89638476Y-136358381D01*
X90686095Y-137263143D02*
X90638476Y-137310762D01*
X90495619Y-137358381D01*
X90400381Y-137358381D01*
X90257523Y-137310762D01*
X90162285Y-137215524D01*
X90114666Y-137120286D01*
X90067047Y-136929810D01*
X90067047Y-136786952D01*
X90114666Y-136596476D01*
X90162285Y-136501238D01*
X90257523Y-136406000D01*
X90400381Y-136358381D01*
X90495619Y-136358381D01*
X90638476Y-136406000D01*
X90686095Y-136453619D01*
X91686095Y-137358381D02*
X91352761Y-136882190D01*
X91114666Y-137358381D02*
X91114666Y-136358381D01*
X91495619Y-136358381D01*
X91590857Y-136406000D01*
X91638476Y-136453619D01*
X91686095Y-136548857D01*
X91686095Y-136691714D01*
X91638476Y-136786952D01*
X91590857Y-136834571D01*
X91495619Y-136882190D01*
X91114666Y-136882190D01*
X92305142Y-136358381D02*
X92495619Y-136358381D01*
X92590857Y-136406000D01*
X92686095Y-136501238D01*
X92733714Y-136691714D01*
X92733714Y-137025048D01*
X92686095Y-137215524D01*
X92590857Y-137310762D01*
X92495619Y-137358381D01*
X92305142Y-137358381D01*
X92209904Y-137310762D01*
X92114666Y-137215524D01*
X92067047Y-137025048D01*
X92067047Y-136691714D01*
X92114666Y-136501238D01*
X92209904Y-136406000D01*
X92305142Y-136358381D01*
X93876571Y-137310762D02*
X94019428Y-137358381D01*
X94257524Y-137358381D01*
X94352762Y-137310762D01*
X94400381Y-137263143D01*
X94448000Y-137167905D01*
X94448000Y-137072667D01*
X94400381Y-136977429D01*
X94352762Y-136929810D01*
X94257524Y-136882190D01*
X94067047Y-136834571D01*
X93971809Y-136786952D01*
X93924190Y-136739333D01*
X93876571Y-136644095D01*
X93876571Y-136548857D01*
X93924190Y-136453619D01*
X93971809Y-136406000D01*
X94067047Y-136358381D01*
X94305143Y-136358381D01*
X94448000Y-136406000D01*
X94876571Y-137358381D02*
X94876571Y-136358381D01*
X95114666Y-136358381D01*
X95257524Y-136406000D01*
X95352762Y-136501238D01*
X95400381Y-136596476D01*
X95448000Y-136786952D01*
X95448000Y-136929810D01*
X95400381Y-137120286D01*
X95352762Y-137215524D01*
X95257524Y-137310762D01*
X95114666Y-137358381D01*
X94876571Y-137358381D01*
X98383810Y-104962381D02*
X98383810Y-103962381D01*
X99431429Y-104867143D02*
X99383810Y-104914762D01*
X99240953Y-104962381D01*
X99145715Y-104962381D01*
X99002857Y-104914762D01*
X98907619Y-104819524D01*
X98860000Y-104724286D01*
X98812381Y-104533810D01*
X98812381Y-104390952D01*
X98860000Y-104200476D01*
X98907619Y-104105238D01*
X99002857Y-104010000D01*
X99145715Y-103962381D01*
X99240953Y-103962381D01*
X99383810Y-104010000D01*
X99431429Y-104057619D01*
X99812381Y-104914762D02*
X99955238Y-104962381D01*
X100193334Y-104962381D01*
X100288572Y-104914762D01*
X100336191Y-104867143D01*
X100383810Y-104771905D01*
X100383810Y-104676667D01*
X100336191Y-104581429D01*
X100288572Y-104533810D01*
X100193334Y-104486190D01*
X100002857Y-104438571D01*
X99907619Y-104390952D01*
X99860000Y-104343333D01*
X99812381Y-104248095D01*
X99812381Y-104152857D01*
X99860000Y-104057619D01*
X99907619Y-104010000D01*
X100002857Y-103962381D01*
X100240953Y-103962381D01*
X100383810Y-104010000D01*
X100812381Y-104962381D02*
X100812381Y-103962381D01*
X101193334Y-103962381D01*
X101288572Y-104010000D01*
X101336191Y-104057619D01*
X101383810Y-104152857D01*
X101383810Y-104295714D01*
X101336191Y-104390952D01*
X101288572Y-104438571D01*
X101193334Y-104486190D01*
X100812381Y-104486190D01*
X93750190Y-88574571D02*
X94083524Y-88574571D01*
X94226381Y-89098381D02*
X93750190Y-89098381D01*
X93750190Y-88098381D01*
X94226381Y-88098381D01*
X94559714Y-88098381D02*
X95226381Y-89098381D01*
X95226381Y-88098381D02*
X94559714Y-89098381D01*
X95464476Y-88098381D02*
X96035905Y-88098381D01*
X95750190Y-89098381D02*
X95750190Y-88098381D01*
X97131143Y-89098381D02*
X97131143Y-88098381D01*
X97512096Y-88098381D01*
X97607334Y-88146000D01*
X97654953Y-88193619D01*
X97702572Y-88288857D01*
X97702572Y-88431714D01*
X97654953Y-88526952D01*
X97607334Y-88574571D01*
X97512096Y-88622190D01*
X97131143Y-88622190D01*
X98035905Y-88098381D02*
X98274000Y-89098381D01*
X98464477Y-88384095D01*
X98654953Y-89098381D01*
X98893048Y-88098381D01*
X99845429Y-89098381D02*
X99512095Y-88622190D01*
X99274000Y-89098381D02*
X99274000Y-88098381D01*
X99654953Y-88098381D01*
X99750191Y-88146000D01*
X99797810Y-88193619D01*
X99845429Y-88288857D01*
X99845429Y-88431714D01*
X99797810Y-88526952D01*
X99750191Y-88574571D01*
X99654953Y-88622190D01*
X99274000Y-88622190D01*
X94377238Y-78843143D02*
X94329619Y-78890762D01*
X94186762Y-78938381D01*
X94091524Y-78938381D01*
X93948666Y-78890762D01*
X93853428Y-78795524D01*
X93805809Y-78700286D01*
X93758190Y-78509810D01*
X93758190Y-78366952D01*
X93805809Y-78176476D01*
X93853428Y-78081238D01*
X93948666Y-77986000D01*
X94091524Y-77938381D01*
X94186762Y-77938381D01*
X94329619Y-77986000D01*
X94377238Y-78033619D01*
X94996285Y-77938381D02*
X95186762Y-77938381D01*
X95282000Y-77986000D01*
X95377238Y-78081238D01*
X95424857Y-78271714D01*
X95424857Y-78605048D01*
X95377238Y-78795524D01*
X95282000Y-78890762D01*
X95186762Y-78938381D01*
X94996285Y-78938381D01*
X94901047Y-78890762D01*
X94805809Y-78795524D01*
X94758190Y-78605048D01*
X94758190Y-78271714D01*
X94805809Y-78081238D01*
X94901047Y-77986000D01*
X94996285Y-77938381D01*
X95853428Y-78938381D02*
X95853428Y-77938381D01*
X96424857Y-78938381D01*
X96424857Y-77938381D01*
X96758190Y-77938381D02*
X97329619Y-77938381D01*
X97043904Y-78938381D02*
X97043904Y-77938381D01*
X98234381Y-78938381D02*
X97901047Y-78462190D01*
X97662952Y-78938381D02*
X97662952Y-77938381D01*
X98043905Y-77938381D01*
X98139143Y-77986000D01*
X98186762Y-78033619D01*
X98234381Y-78128857D01*
X98234381Y-78271714D01*
X98186762Y-78366952D01*
X98139143Y-78414571D01*
X98043905Y-78462190D01*
X97662952Y-78462190D01*
X98615333Y-78652667D02*
X99091524Y-78652667D01*
X98520095Y-78938381D02*
X98853428Y-77938381D01*
X99186762Y-78938381D01*
X99472476Y-78890762D02*
X99615333Y-78938381D01*
X99853429Y-78938381D01*
X99948667Y-78890762D01*
X99996286Y-78843143D01*
X100043905Y-78747905D01*
X100043905Y-78652667D01*
X99996286Y-78557429D01*
X99948667Y-78509810D01*
X99853429Y-78462190D01*
X99662952Y-78414571D01*
X99567714Y-78366952D01*
X99520095Y-78319333D01*
X99472476Y-78224095D01*
X99472476Y-78128857D01*
X99520095Y-78033619D01*
X99567714Y-77986000D01*
X99662952Y-77938381D01*
X99901048Y-77938381D01*
X100043905Y-77986000D01*
X100329619Y-77938381D02*
X100901048Y-77938381D01*
X100615333Y-78938381D02*
X100615333Y-77938381D01*
X88074667Y-70048381D02*
X88074667Y-69048381D01*
X88455620Y-69048381D01*
X88550858Y-69096000D01*
X88598477Y-69143619D01*
X88646096Y-69238857D01*
X88646096Y-69381714D01*
X88598477Y-69476952D01*
X88550858Y-69524571D01*
X88455620Y-69572190D01*
X88074667Y-69572190D01*
X88979429Y-69048381D02*
X89217524Y-70048381D01*
X89408001Y-69334095D01*
X89598477Y-70048381D01*
X89836572Y-69048381D01*
X90788953Y-70048381D02*
X90455619Y-69572190D01*
X90217524Y-70048381D02*
X90217524Y-69048381D01*
X90598477Y-69048381D01*
X90693715Y-69096000D01*
X90741334Y-69143619D01*
X90788953Y-69238857D01*
X90788953Y-69381714D01*
X90741334Y-69476952D01*
X90693715Y-69524571D01*
X90598477Y-69572190D01*
X90217524Y-69572190D01*
X93218096Y-65286000D02*
X93122858Y-65238381D01*
X92980001Y-65238381D01*
X92837143Y-65286000D01*
X92741905Y-65381238D01*
X92694286Y-65476476D01*
X92646667Y-65666952D01*
X92646667Y-65809810D01*
X92694286Y-66000286D01*
X92741905Y-66095524D01*
X92837143Y-66190762D01*
X92980001Y-66238381D01*
X93075239Y-66238381D01*
X93218096Y-66190762D01*
X93265715Y-66143143D01*
X93265715Y-65809810D01*
X93075239Y-65809810D01*
X93694286Y-66238381D02*
X93694286Y-65238381D01*
X94265715Y-66238381D01*
X94265715Y-65238381D01*
X94741905Y-66238381D02*
X94741905Y-65238381D01*
X94980000Y-65238381D01*
X95122858Y-65286000D01*
X95218096Y-65381238D01*
X95265715Y-65476476D01*
X95313334Y-65666952D01*
X95313334Y-65809810D01*
X95265715Y-66000286D01*
X95218096Y-66095524D01*
X95122858Y-66190762D01*
X94980000Y-66238381D01*
X94741905Y-66238381D01*
X92789524Y-68984762D02*
X92932381Y-69032381D01*
X93170477Y-69032381D01*
X93265715Y-68984762D01*
X93313334Y-68937143D01*
X93360953Y-68841905D01*
X93360953Y-68746667D01*
X93313334Y-68651429D01*
X93265715Y-68603810D01*
X93170477Y-68556190D01*
X92980000Y-68508571D01*
X92884762Y-68460952D01*
X92837143Y-68413333D01*
X92789524Y-68318095D01*
X92789524Y-68222857D01*
X92837143Y-68127619D01*
X92884762Y-68080000D01*
X92980000Y-68032381D01*
X93218096Y-68032381D01*
X93360953Y-68080000D01*
X94360953Y-68937143D02*
X94313334Y-68984762D01*
X94170477Y-69032381D01*
X94075239Y-69032381D01*
X93932381Y-68984762D01*
X93837143Y-68889524D01*
X93789524Y-68794286D01*
X93741905Y-68603810D01*
X93741905Y-68460952D01*
X93789524Y-68270476D01*
X93837143Y-68175238D01*
X93932381Y-68080000D01*
X94075239Y-68032381D01*
X94170477Y-68032381D01*
X94313334Y-68080000D01*
X94360953Y-68127619D01*
X95265715Y-69032381D02*
X94789524Y-69032381D01*
X94789524Y-68032381D01*
X92765714Y-71524762D02*
X92908571Y-71572381D01*
X93146667Y-71572381D01*
X93241905Y-71524762D01*
X93289524Y-71477143D01*
X93337143Y-71381905D01*
X93337143Y-71286667D01*
X93289524Y-71191429D01*
X93241905Y-71143810D01*
X93146667Y-71096190D01*
X92956190Y-71048571D01*
X92860952Y-71000952D01*
X92813333Y-70953333D01*
X92765714Y-70858095D01*
X92765714Y-70762857D01*
X92813333Y-70667619D01*
X92860952Y-70620000D01*
X92956190Y-70572381D01*
X93194286Y-70572381D01*
X93337143Y-70620000D01*
X93765714Y-71572381D02*
X93765714Y-70572381D01*
X94003809Y-70572381D01*
X94146667Y-70620000D01*
X94241905Y-70715238D01*
X94289524Y-70810476D01*
X94337143Y-71000952D01*
X94337143Y-71143810D01*
X94289524Y-71334286D01*
X94241905Y-71429524D01*
X94146667Y-71524762D01*
X94003809Y-71572381D01*
X93765714Y-71572381D01*
X94718095Y-71286667D02*
X95194286Y-71286667D01*
X94622857Y-71572381D02*
X94956190Y-70572381D01*
X95289524Y-71572381D01*
X92694286Y-73985429D02*
X93456191Y-73985429D01*
X93075239Y-74366381D02*
X93075239Y-73604476D01*
X94408572Y-73366381D02*
X93932381Y-73366381D01*
X93884762Y-73842571D01*
X93932381Y-73794952D01*
X94027619Y-73747333D01*
X94265715Y-73747333D01*
X94360953Y-73794952D01*
X94408572Y-73842571D01*
X94456191Y-73937810D01*
X94456191Y-74175905D01*
X94408572Y-74271143D01*
X94360953Y-74318762D01*
X94265715Y-74366381D01*
X94027619Y-74366381D01*
X93932381Y-74318762D01*
X93884762Y-74271143D01*
X94741905Y-73366381D02*
X95075238Y-74366381D01*
X95408572Y-73366381D01*
X74295143Y-73858381D02*
X74295143Y-72858381D01*
X74533238Y-72858381D01*
X74676096Y-72906000D01*
X74771334Y-73001238D01*
X74818953Y-73096476D01*
X74866572Y-73286952D01*
X74866572Y-73429810D01*
X74818953Y-73620286D01*
X74771334Y-73715524D01*
X74676096Y-73810762D01*
X74533238Y-73858381D01*
X74295143Y-73858381D01*
X75152286Y-72858381D02*
X75723715Y-72858381D01*
X75438000Y-73858381D02*
X75438000Y-72858381D01*
X76628477Y-73858381D02*
X76295143Y-73382190D01*
X76057048Y-73858381D02*
X76057048Y-72858381D01*
X76438001Y-72858381D01*
X76533239Y-72906000D01*
X76580858Y-72953619D01*
X76628477Y-73048857D01*
X76628477Y-73191714D01*
X76580858Y-73286952D01*
X76533239Y-73334571D01*
X76438001Y-73382190D01*
X76057048Y-73382190D01*
X75271334Y-76652381D02*
X74938000Y-76176190D01*
X74699905Y-76652381D02*
X74699905Y-75652381D01*
X75080858Y-75652381D01*
X75176096Y-75700000D01*
X75223715Y-75747619D01*
X75271334Y-75842857D01*
X75271334Y-75985714D01*
X75223715Y-76080952D01*
X75176096Y-76128571D01*
X75080858Y-76176190D01*
X74699905Y-76176190D01*
X75604667Y-75652381D02*
X76271334Y-76652381D01*
X76271334Y-75652381D02*
X75604667Y-76652381D01*
X74676095Y-78192381D02*
X75247524Y-78192381D01*
X74961809Y-79192381D02*
X74961809Y-78192381D01*
X75485619Y-78192381D02*
X76152286Y-79192381D01*
X76152286Y-78192381D02*
X75485619Y-79192381D01*
X74676096Y-80780000D02*
X74580858Y-80732381D01*
X74438001Y-80732381D01*
X74295143Y-80780000D01*
X74199905Y-80875238D01*
X74152286Y-80970476D01*
X74104667Y-81160952D01*
X74104667Y-81303810D01*
X74152286Y-81494286D01*
X74199905Y-81589524D01*
X74295143Y-81684762D01*
X74438001Y-81732381D01*
X74533239Y-81732381D01*
X74676096Y-81684762D01*
X74723715Y-81637143D01*
X74723715Y-81303810D01*
X74533239Y-81303810D01*
X75152286Y-81732381D02*
X75152286Y-80732381D01*
X75723715Y-81732381D01*
X75723715Y-80732381D01*
X76199905Y-81732381D02*
X76199905Y-80732381D01*
X76438000Y-80732381D01*
X76580858Y-80780000D01*
X76676096Y-80875238D01*
X76723715Y-80970476D01*
X76771334Y-81160952D01*
X76771334Y-81303810D01*
X76723715Y-81494286D01*
X76676096Y-81589524D01*
X76580858Y-81684762D01*
X76438000Y-81732381D01*
X76199905Y-81732381D01*
X52125619Y-79899619D02*
X53125619Y-79899619D01*
X53125619Y-80280572D01*
X53078000Y-80375810D01*
X53030381Y-80423429D01*
X52935143Y-80471048D01*
X52792286Y-80471048D01*
X52697048Y-80423429D01*
X52649429Y-80375810D01*
X52601810Y-80280572D01*
X52601810Y-79899619D01*
X52173238Y-80852000D02*
X52125619Y-80994857D01*
X52125619Y-81232953D01*
X52173238Y-81328191D01*
X52220857Y-81375810D01*
X52316095Y-81423429D01*
X52411333Y-81423429D01*
X52506571Y-81375810D01*
X52554190Y-81328191D01*
X52601810Y-81232953D01*
X52649429Y-81042476D01*
X52697048Y-80947238D01*
X52744667Y-80899619D01*
X52839905Y-80852000D01*
X52935143Y-80852000D01*
X53030381Y-80899619D01*
X53078000Y-80947238D01*
X53125619Y-81042476D01*
X53125619Y-81280572D01*
X53078000Y-81423429D01*
X53173238Y-82566286D02*
X51887524Y-81709143D01*
X53030381Y-82852000D02*
X53078000Y-82899619D01*
X53125619Y-82994857D01*
X53125619Y-83232953D01*
X53078000Y-83328191D01*
X53030381Y-83375810D01*
X52935143Y-83423429D01*
X52839905Y-83423429D01*
X52697048Y-83375810D01*
X52125619Y-82804381D01*
X52125619Y-83423429D01*
X52125619Y-84613905D02*
X53125619Y-84613905D01*
X52125619Y-85185334D02*
X52697048Y-84756762D01*
X53125619Y-85185334D02*
X52554190Y-84613905D01*
X52649429Y-85613905D02*
X52649429Y-85947239D01*
X52125619Y-86090096D02*
X52125619Y-85613905D01*
X53125619Y-85613905D01*
X53125619Y-86090096D01*
X52601810Y-86709143D02*
X52125619Y-86709143D01*
X53125619Y-86375810D02*
X52601810Y-86709143D01*
X53125619Y-87042477D01*
X52649429Y-87709144D02*
X52601810Y-87852001D01*
X52554190Y-87899620D01*
X52458952Y-87947239D01*
X52316095Y-87947239D01*
X52220857Y-87899620D01*
X52173238Y-87852001D01*
X52125619Y-87756763D01*
X52125619Y-87375810D01*
X53125619Y-87375810D01*
X53125619Y-87709144D01*
X53078000Y-87804382D01*
X53030381Y-87852001D01*
X52935143Y-87899620D01*
X52839905Y-87899620D01*
X52744667Y-87852001D01*
X52697048Y-87804382D01*
X52649429Y-87709144D01*
X52649429Y-87375810D01*
X53125619Y-88566286D02*
X53125619Y-88756763D01*
X53078000Y-88852001D01*
X52982762Y-88947239D01*
X52792286Y-88994858D01*
X52458952Y-88994858D01*
X52268476Y-88947239D01*
X52173238Y-88852001D01*
X52125619Y-88756763D01*
X52125619Y-88566286D01*
X52173238Y-88471048D01*
X52268476Y-88375810D01*
X52458952Y-88328191D01*
X52792286Y-88328191D01*
X52982762Y-88375810D01*
X53078000Y-88471048D01*
X53125619Y-88566286D01*
X52411333Y-89375810D02*
X52411333Y-89852001D01*
X52125619Y-89280572D02*
X53125619Y-89613905D01*
X52125619Y-89947239D01*
X52125619Y-90852001D02*
X52601810Y-90518667D01*
X52125619Y-90280572D02*
X53125619Y-90280572D01*
X53125619Y-90661525D01*
X53078000Y-90756763D01*
X53030381Y-90804382D01*
X52935143Y-90852001D01*
X52792286Y-90852001D01*
X52697048Y-90804382D01*
X52649429Y-90756763D01*
X52601810Y-90661525D01*
X52601810Y-90280572D01*
X52125619Y-91280572D02*
X53125619Y-91280572D01*
X53125619Y-91518667D01*
X53078000Y-91661525D01*
X52982762Y-91756763D01*
X52887524Y-91804382D01*
X52697048Y-91852001D01*
X52554190Y-91852001D01*
X52363714Y-91804382D01*
X52268476Y-91756763D01*
X52173238Y-91661525D01*
X52125619Y-91518667D01*
X52125619Y-91280572D01*
X52413333Y-108396191D02*
X52413333Y-108872382D01*
X52127619Y-108300953D02*
X53127619Y-108634286D01*
X52127619Y-108967620D01*
X53127619Y-109300953D02*
X52318095Y-109300953D01*
X52222857Y-109348572D01*
X52175238Y-109396191D01*
X52127619Y-109491429D01*
X52127619Y-109681906D01*
X52175238Y-109777144D01*
X52222857Y-109824763D01*
X52318095Y-109872382D01*
X53127619Y-109872382D01*
X52127619Y-110348572D02*
X53127619Y-110348572D01*
X53127619Y-110586667D01*
X53080000Y-110729525D01*
X52984762Y-110824763D01*
X52889524Y-110872382D01*
X52699048Y-110920001D01*
X52556190Y-110920001D01*
X52365714Y-110872382D01*
X52270476Y-110824763D01*
X52175238Y-110729525D01*
X52127619Y-110586667D01*
X52127619Y-110348572D01*
X52127619Y-111348572D02*
X53127619Y-111348572D01*
X53127619Y-112015238D02*
X53127619Y-112205715D01*
X53080000Y-112300953D01*
X52984762Y-112396191D01*
X52794286Y-112443810D01*
X52460952Y-112443810D01*
X52270476Y-112396191D01*
X52175238Y-112300953D01*
X52127619Y-112205715D01*
X52127619Y-112015238D01*
X52175238Y-111920000D01*
X52270476Y-111824762D01*
X52460952Y-111777143D01*
X52794286Y-111777143D01*
X52984762Y-111824762D01*
X53080000Y-111920000D01*
X53127619Y-112015238D01*
X53127619Y-122672381D02*
X52127619Y-123005714D01*
X53127619Y-123339048D01*
X52127619Y-123672381D02*
X53127619Y-123672381D01*
X52127619Y-124148571D02*
X53127619Y-124148571D01*
X53127619Y-124386666D01*
X53080000Y-124529524D01*
X52984762Y-124624762D01*
X52889524Y-124672381D01*
X52699048Y-124720000D01*
X52556190Y-124720000D01*
X52365714Y-124672381D01*
X52270476Y-124624762D01*
X52175238Y-124529524D01*
X52127619Y-124386666D01*
X52127619Y-124148571D01*
X52651429Y-125148571D02*
X52651429Y-125481905D01*
X52127619Y-125624762D02*
X52127619Y-125148571D01*
X53127619Y-125148571D01*
X53127619Y-125624762D01*
X53127619Y-126243809D02*
X53127619Y-126434286D01*
X53080000Y-126529524D01*
X52984762Y-126624762D01*
X52794286Y-126672381D01*
X52460952Y-126672381D01*
X52270476Y-126624762D01*
X52175238Y-126529524D01*
X52127619Y-126434286D01*
X52127619Y-126243809D01*
X52175238Y-126148571D01*
X52270476Y-126053333D01*
X52460952Y-126005714D01*
X52794286Y-126005714D01*
X52984762Y-126053333D01*
X53080000Y-126148571D01*
X53127619Y-126243809D01*
X82216667Y-99662857D02*
X82216667Y-99186666D01*
X82502381Y-99758095D02*
X81502381Y-99424762D01*
X82502381Y-99091428D01*
X81502381Y-98900952D02*
X81502381Y-98329523D01*
X82502381Y-98615238D02*
X81502381Y-98615238D01*
X82502381Y-97996190D02*
X81502381Y-97996190D01*
X82216667Y-97662856D01*
X81502381Y-97329523D01*
X82502381Y-97329523D01*
X81978571Y-96853333D02*
X81978571Y-96519999D01*
X82502381Y-96377142D02*
X82502381Y-96853333D01*
X81502381Y-96853333D01*
X81502381Y-96377142D01*
X81550000Y-95424761D02*
X81502381Y-95519999D01*
X81502381Y-95662856D01*
X81550000Y-95805714D01*
X81645238Y-95900952D01*
X81740476Y-95948571D01*
X81930952Y-95996190D01*
X82073810Y-95996190D01*
X82264286Y-95948571D01*
X82359524Y-95900952D01*
X82454762Y-95805714D01*
X82502381Y-95662856D01*
X82502381Y-95567618D01*
X82454762Y-95424761D01*
X82407143Y-95377142D01*
X82073810Y-95377142D01*
X82073810Y-95567618D01*
X82216667Y-94996190D02*
X82216667Y-94519999D01*
X82502381Y-95091428D02*
X81502381Y-94758095D01*
X82502381Y-94424761D01*
X81502381Y-94186666D02*
X81502381Y-93567618D01*
X81883333Y-93900952D01*
X81883333Y-93758094D01*
X81930952Y-93662856D01*
X81978571Y-93615237D01*
X82073810Y-93567618D01*
X82311905Y-93567618D01*
X82407143Y-93615237D01*
X82454762Y-93662856D01*
X82502381Y-93758094D01*
X82502381Y-94043809D01*
X82454762Y-94139047D01*
X82407143Y-94186666D01*
X81597619Y-93186666D02*
X81550000Y-93139047D01*
X81502381Y-93043809D01*
X81502381Y-92805713D01*
X81550000Y-92710475D01*
X81597619Y-92662856D01*
X81692857Y-92615237D01*
X81788095Y-92615237D01*
X81930952Y-92662856D01*
X82502381Y-93234285D01*
X82502381Y-92615237D01*
X81930952Y-92043809D02*
X81883333Y-92139047D01*
X81835714Y-92186666D01*
X81740476Y-92234285D01*
X81692857Y-92234285D01*
X81597619Y-92186666D01*
X81550000Y-92139047D01*
X81502381Y-92043809D01*
X81502381Y-91853332D01*
X81550000Y-91758094D01*
X81597619Y-91710475D01*
X81692857Y-91662856D01*
X81740476Y-91662856D01*
X81835714Y-91710475D01*
X81883333Y-91758094D01*
X81930952Y-91853332D01*
X81930952Y-92043809D01*
X81978571Y-92139047D01*
X82026190Y-92186666D01*
X82121429Y-92234285D01*
X82311905Y-92234285D01*
X82407143Y-92186666D01*
X82454762Y-92139047D01*
X82502381Y-92043809D01*
X82502381Y-91853332D01*
X82454762Y-91758094D01*
X82407143Y-91710475D01*
X82311905Y-91662856D01*
X82121429Y-91662856D01*
X82026190Y-91710475D01*
X81978571Y-91758094D01*
X81930952Y-91853332D01*
X82502381Y-91234285D02*
X81502381Y-91234285D01*
X81502381Y-90853332D01*
X81550000Y-90758094D01*
X81597619Y-90710475D01*
X81692857Y-90662856D01*
X81835714Y-90662856D01*
X81930952Y-90710475D01*
X81978571Y-90758094D01*
X82026190Y-90853332D01*
X82026190Y-91234285D01*
X82121429Y-90234285D02*
X82121429Y-89472380D01*
X82502381Y-88996190D02*
X81502381Y-88996190D01*
X81502381Y-88615237D01*
X81550000Y-88519999D01*
X81597619Y-88472380D01*
X81692857Y-88424761D01*
X81835714Y-88424761D01*
X81930952Y-88472380D01*
X81978571Y-88519999D01*
X82026190Y-88615237D01*
X82026190Y-88996190D01*
X81502381Y-87996190D02*
X82311905Y-87996190D01*
X82407143Y-87948571D01*
X82454762Y-87900952D01*
X82502381Y-87805714D01*
X82502381Y-87615237D01*
X82454762Y-87519999D01*
X82407143Y-87472380D01*
X82311905Y-87424761D01*
X81502381Y-87424761D01*
D12*
X114850000Y-79460000D02*
X115180000Y-79460000D01*
X115180000Y-79460000D02*
X115180000Y-85880000D01*
X115180000Y-85880000D02*
X114850000Y-85880000D01*
X112890000Y-79460000D02*
X112560000Y-79460000D01*
X112560000Y-79460000D02*
X112560000Y-85880000D01*
X112560000Y-85880000D02*
X112890000Y-85880000D01*
X93310000Y-107610000D02*
X93640000Y-107610000D01*
X93640000Y-107610000D02*
X93640000Y-114030000D01*
X93640000Y-114030000D02*
X93310000Y-114030000D01*
X91350000Y-107610000D02*
X91020000Y-107610000D01*
X91020000Y-107610000D02*
X91020000Y-114030000D01*
X91020000Y-114030000D02*
X91350000Y-114030000D01*
X79659723Y-124785722D02*
G75*
G03X79660000Y-120174420I-1179723J2305722D01*
G01*
X77300277Y-124785722D02*
G75*
G02X77300000Y-120174420I1179723J2305722D01*
G01*
X77300277Y-124785722D02*
G75*
G03X79660000Y-124785580I1179723J2305722D01*
G01*
X81030000Y-122480000D02*
X75930000Y-122480000D01*
X81030000Y-122520000D02*
X75930000Y-122520000D01*
X81029000Y-122560000D02*
X75931000Y-122560000D01*
X81028000Y-122600000D02*
X75932000Y-122600000D01*
X81026000Y-122640000D02*
X75934000Y-122640000D01*
X81023000Y-122680000D02*
X75937000Y-122680000D01*
X81019000Y-122720000D02*
X75941000Y-122720000D01*
X81015000Y-122760000D02*
X79460000Y-122760000D01*
X77500000Y-122760000D02*
X75945000Y-122760000D01*
X81011000Y-122800000D02*
X79460000Y-122800000D01*
X77500000Y-122800000D02*
X75949000Y-122800000D01*
X81005000Y-122840000D02*
X79460000Y-122840000D01*
X77500000Y-122840000D02*
X75955000Y-122840000D01*
X80999000Y-122880000D02*
X79460000Y-122880000D01*
X77500000Y-122880000D02*
X75961000Y-122880000D01*
X80993000Y-122920000D02*
X79460000Y-122920000D01*
X77500000Y-122920000D02*
X75967000Y-122920000D01*
X80986000Y-122960000D02*
X79460000Y-122960000D01*
X77500000Y-122960000D02*
X75974000Y-122960000D01*
X80978000Y-123000000D02*
X79460000Y-123000000D01*
X77500000Y-123000000D02*
X75982000Y-123000000D01*
X80969000Y-123040000D02*
X79460000Y-123040000D01*
X77500000Y-123040000D02*
X75991000Y-123040000D01*
X80960000Y-123080000D02*
X79460000Y-123080000D01*
X77500000Y-123080000D02*
X76000000Y-123080000D01*
X80950000Y-123120000D02*
X79460000Y-123120000D01*
X77500000Y-123120000D02*
X76010000Y-123120000D01*
X80940000Y-123160000D02*
X79460000Y-123160000D01*
X77500000Y-123160000D02*
X76020000Y-123160000D01*
X80928000Y-123201000D02*
X79460000Y-123201000D01*
X77500000Y-123201000D02*
X76032000Y-123201000D01*
X80916000Y-123241000D02*
X79460000Y-123241000D01*
X77500000Y-123241000D02*
X76044000Y-123241000D01*
X80904000Y-123281000D02*
X79460000Y-123281000D01*
X77500000Y-123281000D02*
X76056000Y-123281000D01*
X80890000Y-123321000D02*
X79460000Y-123321000D01*
X77500000Y-123321000D02*
X76070000Y-123321000D01*
X80876000Y-123361000D02*
X79460000Y-123361000D01*
X77500000Y-123361000D02*
X76084000Y-123361000D01*
X80862000Y-123401000D02*
X79460000Y-123401000D01*
X77500000Y-123401000D02*
X76098000Y-123401000D01*
X80846000Y-123441000D02*
X79460000Y-123441000D01*
X77500000Y-123441000D02*
X76114000Y-123441000D01*
X80830000Y-123481000D02*
X79460000Y-123481000D01*
X77500000Y-123481000D02*
X76130000Y-123481000D01*
X80813000Y-123521000D02*
X79460000Y-123521000D01*
X77500000Y-123521000D02*
X76147000Y-123521000D01*
X80795000Y-123561000D02*
X79460000Y-123561000D01*
X77500000Y-123561000D02*
X76165000Y-123561000D01*
X80776000Y-123601000D02*
X79460000Y-123601000D01*
X77500000Y-123601000D02*
X76184000Y-123601000D01*
X80756000Y-123641000D02*
X79460000Y-123641000D01*
X77500000Y-123641000D02*
X76204000Y-123641000D01*
X80736000Y-123681000D02*
X79460000Y-123681000D01*
X77500000Y-123681000D02*
X76224000Y-123681000D01*
X80714000Y-123721000D02*
X79460000Y-123721000D01*
X77500000Y-123721000D02*
X76246000Y-123721000D01*
X80692000Y-123761000D02*
X79460000Y-123761000D01*
X77500000Y-123761000D02*
X76268000Y-123761000D01*
X80669000Y-123801000D02*
X79460000Y-123801000D01*
X77500000Y-123801000D02*
X76291000Y-123801000D01*
X80645000Y-123841000D02*
X79460000Y-123841000D01*
X77500000Y-123841000D02*
X76315000Y-123841000D01*
X80620000Y-123881000D02*
X79460000Y-123881000D01*
X77500000Y-123881000D02*
X76340000Y-123881000D01*
X80593000Y-123921000D02*
X79460000Y-123921000D01*
X77500000Y-123921000D02*
X76367000Y-123921000D01*
X80566000Y-123961000D02*
X79460000Y-123961000D01*
X77500000Y-123961000D02*
X76394000Y-123961000D01*
X80538000Y-124001000D02*
X79460000Y-124001000D01*
X77500000Y-124001000D02*
X76422000Y-124001000D01*
X80508000Y-124041000D02*
X79460000Y-124041000D01*
X77500000Y-124041000D02*
X76452000Y-124041000D01*
X80477000Y-124081000D02*
X79460000Y-124081000D01*
X77500000Y-124081000D02*
X76483000Y-124081000D01*
X80445000Y-124121000D02*
X79460000Y-124121000D01*
X77500000Y-124121000D02*
X76515000Y-124121000D01*
X80412000Y-124161000D02*
X79460000Y-124161000D01*
X77500000Y-124161000D02*
X76548000Y-124161000D01*
X80377000Y-124201000D02*
X79460000Y-124201000D01*
X77500000Y-124201000D02*
X76583000Y-124201000D01*
X80341000Y-124241000D02*
X79460000Y-124241000D01*
X77500000Y-124241000D02*
X76619000Y-124241000D01*
X80303000Y-124281000D02*
X79460000Y-124281000D01*
X77500000Y-124281000D02*
X76657000Y-124281000D01*
X80263000Y-124321000D02*
X79460000Y-124321000D01*
X77500000Y-124321000D02*
X76697000Y-124321000D01*
X80222000Y-124361000D02*
X79460000Y-124361000D01*
X77500000Y-124361000D02*
X76738000Y-124361000D01*
X80179000Y-124401000D02*
X79460000Y-124401000D01*
X77500000Y-124401000D02*
X76781000Y-124401000D01*
X80134000Y-124441000D02*
X79460000Y-124441000D01*
X77500000Y-124441000D02*
X76826000Y-124441000D01*
X80086000Y-124481000D02*
X79460000Y-124481000D01*
X77500000Y-124481000D02*
X76874000Y-124481000D01*
X80036000Y-124521000D02*
X79460000Y-124521000D01*
X77500000Y-124521000D02*
X76924000Y-124521000D01*
X79984000Y-124561000D02*
X79460000Y-124561000D01*
X77500000Y-124561000D02*
X76976000Y-124561000D01*
X79928000Y-124601000D02*
X79460000Y-124601000D01*
X77500000Y-124601000D02*
X77032000Y-124601000D01*
X79870000Y-124641000D02*
X79460000Y-124641000D01*
X77500000Y-124641000D02*
X77090000Y-124641000D01*
X79807000Y-124681000D02*
X79460000Y-124681000D01*
X77500000Y-124681000D02*
X77153000Y-124681000D01*
X79741000Y-124721000D02*
X77219000Y-124721000D01*
X79669000Y-124761000D02*
X77291000Y-124761000D01*
X79592000Y-124801000D02*
X77368000Y-124801000D01*
X79508000Y-124841000D02*
X77452000Y-124841000D01*
X79414000Y-124881000D02*
X77546000Y-124881000D01*
X79309000Y-124921000D02*
X77651000Y-124921000D01*
X79187000Y-124961000D02*
X77773000Y-124961000D01*
X79039000Y-125001000D02*
X77921000Y-125001000D01*
X78834000Y-125041000D02*
X78126000Y-125041000D01*
X78480000Y-119030000D02*
X78480000Y-120230000D01*
X79130000Y-119630000D02*
X77830000Y-119630000D01*
X76480000Y-68210000D02*
X71360000Y-68210000D01*
X76480000Y-65590000D02*
X71360000Y-65590000D01*
X76480000Y-68210000D02*
X76480000Y-65590000D01*
X71360000Y-68210000D02*
X71360000Y-65590000D01*
X54820277Y-69944278D02*
G75*
G03X54820000Y-74555580I1179723J-2305722D01*
G01*
X57179723Y-69944278D02*
G75*
G02X57180000Y-74555580I-1179723J-2305722D01*
G01*
X57179723Y-69944278D02*
G75*
G03X54820000Y-69944420I-1179723J-2305722D01*
G01*
X53450000Y-72250000D02*
X58550000Y-72250000D01*
X53450000Y-72210000D02*
X58550000Y-72210000D01*
X53451000Y-72170000D02*
X58549000Y-72170000D01*
X53452000Y-72130000D02*
X58548000Y-72130000D01*
X53454000Y-72090000D02*
X58546000Y-72090000D01*
X53457000Y-72050000D02*
X58543000Y-72050000D01*
X53461000Y-72010000D02*
X58539000Y-72010000D01*
X53465000Y-71970000D02*
X55020000Y-71970000D01*
X56980000Y-71970000D02*
X58535000Y-71970000D01*
X53469000Y-71930000D02*
X55020000Y-71930000D01*
X56980000Y-71930000D02*
X58531000Y-71930000D01*
X53475000Y-71890000D02*
X55020000Y-71890000D01*
X56980000Y-71890000D02*
X58525000Y-71890000D01*
X53481000Y-71850000D02*
X55020000Y-71850000D01*
X56980000Y-71850000D02*
X58519000Y-71850000D01*
X53487000Y-71810000D02*
X55020000Y-71810000D01*
X56980000Y-71810000D02*
X58513000Y-71810000D01*
X53494000Y-71770000D02*
X55020000Y-71770000D01*
X56980000Y-71770000D02*
X58506000Y-71770000D01*
X53502000Y-71730000D02*
X55020000Y-71730000D01*
X56980000Y-71730000D02*
X58498000Y-71730000D01*
X53511000Y-71690000D02*
X55020000Y-71690000D01*
X56980000Y-71690000D02*
X58489000Y-71690000D01*
X53520000Y-71650000D02*
X55020000Y-71650000D01*
X56980000Y-71650000D02*
X58480000Y-71650000D01*
X53530000Y-71610000D02*
X55020000Y-71610000D01*
X56980000Y-71610000D02*
X58470000Y-71610000D01*
X53540000Y-71570000D02*
X55020000Y-71570000D01*
X56980000Y-71570000D02*
X58460000Y-71570000D01*
X53552000Y-71529000D02*
X55020000Y-71529000D01*
X56980000Y-71529000D02*
X58448000Y-71529000D01*
X53564000Y-71489000D02*
X55020000Y-71489000D01*
X56980000Y-71489000D02*
X58436000Y-71489000D01*
X53576000Y-71449000D02*
X55020000Y-71449000D01*
X56980000Y-71449000D02*
X58424000Y-71449000D01*
X53590000Y-71409000D02*
X55020000Y-71409000D01*
X56980000Y-71409000D02*
X58410000Y-71409000D01*
X53604000Y-71369000D02*
X55020000Y-71369000D01*
X56980000Y-71369000D02*
X58396000Y-71369000D01*
X53618000Y-71329000D02*
X55020000Y-71329000D01*
X56980000Y-71329000D02*
X58382000Y-71329000D01*
X53634000Y-71289000D02*
X55020000Y-71289000D01*
X56980000Y-71289000D02*
X58366000Y-71289000D01*
X53650000Y-71249000D02*
X55020000Y-71249000D01*
X56980000Y-71249000D02*
X58350000Y-71249000D01*
X53667000Y-71209000D02*
X55020000Y-71209000D01*
X56980000Y-71209000D02*
X58333000Y-71209000D01*
X53685000Y-71169000D02*
X55020000Y-71169000D01*
X56980000Y-71169000D02*
X58315000Y-71169000D01*
X53704000Y-71129000D02*
X55020000Y-71129000D01*
X56980000Y-71129000D02*
X58296000Y-71129000D01*
X53724000Y-71089000D02*
X55020000Y-71089000D01*
X56980000Y-71089000D02*
X58276000Y-71089000D01*
X53744000Y-71049000D02*
X55020000Y-71049000D01*
X56980000Y-71049000D02*
X58256000Y-71049000D01*
X53766000Y-71009000D02*
X55020000Y-71009000D01*
X56980000Y-71009000D02*
X58234000Y-71009000D01*
X53788000Y-70969000D02*
X55020000Y-70969000D01*
X56980000Y-70969000D02*
X58212000Y-70969000D01*
X53811000Y-70929000D02*
X55020000Y-70929000D01*
X56980000Y-70929000D02*
X58189000Y-70929000D01*
X53835000Y-70889000D02*
X55020000Y-70889000D01*
X56980000Y-70889000D02*
X58165000Y-70889000D01*
X53860000Y-70849000D02*
X55020000Y-70849000D01*
X56980000Y-70849000D02*
X58140000Y-70849000D01*
X53887000Y-70809000D02*
X55020000Y-70809000D01*
X56980000Y-70809000D02*
X58113000Y-70809000D01*
X53914000Y-70769000D02*
X55020000Y-70769000D01*
X56980000Y-70769000D02*
X58086000Y-70769000D01*
X53942000Y-70729000D02*
X55020000Y-70729000D01*
X56980000Y-70729000D02*
X58058000Y-70729000D01*
X53972000Y-70689000D02*
X55020000Y-70689000D01*
X56980000Y-70689000D02*
X58028000Y-70689000D01*
X54003000Y-70649000D02*
X55020000Y-70649000D01*
X56980000Y-70649000D02*
X57997000Y-70649000D01*
X54035000Y-70609000D02*
X55020000Y-70609000D01*
X56980000Y-70609000D02*
X57965000Y-70609000D01*
X54068000Y-70569000D02*
X55020000Y-70569000D01*
X56980000Y-70569000D02*
X57932000Y-70569000D01*
X54103000Y-70529000D02*
X55020000Y-70529000D01*
X56980000Y-70529000D02*
X57897000Y-70529000D01*
X54139000Y-70489000D02*
X55020000Y-70489000D01*
X56980000Y-70489000D02*
X57861000Y-70489000D01*
X54177000Y-70449000D02*
X55020000Y-70449000D01*
X56980000Y-70449000D02*
X57823000Y-70449000D01*
X54217000Y-70409000D02*
X55020000Y-70409000D01*
X56980000Y-70409000D02*
X57783000Y-70409000D01*
X54258000Y-70369000D02*
X55020000Y-70369000D01*
X56980000Y-70369000D02*
X57742000Y-70369000D01*
X54301000Y-70329000D02*
X55020000Y-70329000D01*
X56980000Y-70329000D02*
X57699000Y-70329000D01*
X54346000Y-70289000D02*
X55020000Y-70289000D01*
X56980000Y-70289000D02*
X57654000Y-70289000D01*
X54394000Y-70249000D02*
X55020000Y-70249000D01*
X56980000Y-70249000D02*
X57606000Y-70249000D01*
X54444000Y-70209000D02*
X55020000Y-70209000D01*
X56980000Y-70209000D02*
X57556000Y-70209000D01*
X54496000Y-70169000D02*
X55020000Y-70169000D01*
X56980000Y-70169000D02*
X57504000Y-70169000D01*
X54552000Y-70129000D02*
X55020000Y-70129000D01*
X56980000Y-70129000D02*
X57448000Y-70129000D01*
X54610000Y-70089000D02*
X55020000Y-70089000D01*
X56980000Y-70089000D02*
X57390000Y-70089000D01*
X54673000Y-70049000D02*
X55020000Y-70049000D01*
X56980000Y-70049000D02*
X57327000Y-70049000D01*
X54739000Y-70009000D02*
X57261000Y-70009000D01*
X54811000Y-69969000D02*
X57189000Y-69969000D01*
X54888000Y-69929000D02*
X57112000Y-69929000D01*
X54972000Y-69889000D02*
X57028000Y-69889000D01*
X55066000Y-69849000D02*
X56934000Y-69849000D01*
X55171000Y-69809000D02*
X56829000Y-69809000D01*
X55293000Y-69769000D02*
X56707000Y-69769000D01*
X55441000Y-69729000D02*
X56559000Y-69729000D01*
X55646000Y-69689000D02*
X56354000Y-69689000D01*
X56000000Y-75700000D02*
X56000000Y-74500000D01*
X55350000Y-75100000D02*
X56650000Y-75100000D01*
X75710000Y-88510000D02*
X70590000Y-88510000D01*
X75710000Y-85890000D02*
X70590000Y-85890000D01*
X75710000Y-88510000D02*
X75710000Y-85890000D01*
X70590000Y-88510000D02*
X70590000Y-85890000D01*
X69870000Y-87110000D02*
X69870000Y-92230000D01*
X67250000Y-87110000D02*
X67250000Y-92230000D01*
X69870000Y-87110000D02*
X69556000Y-87110000D01*
X67564000Y-87110000D02*
X67250000Y-87110000D01*
X69870000Y-92230000D02*
X69556000Y-92230000D01*
X67564000Y-92230000D02*
X67250000Y-92230000D01*
X69870000Y-94540000D02*
X69870000Y-99660000D01*
X67250000Y-94540000D02*
X67250000Y-99660000D01*
X69870000Y-94540000D02*
X69556000Y-94540000D01*
X67564000Y-94540000D02*
X67250000Y-94540000D01*
X69870000Y-99660000D02*
X69556000Y-99660000D01*
X67564000Y-99660000D02*
X67250000Y-99660000D01*
X94840000Y-114030000D02*
X99960000Y-114030000D01*
X94840000Y-116650000D02*
X99960000Y-116650000D01*
X94840000Y-114030000D02*
X94840000Y-116650000D01*
X99960000Y-114030000D02*
X99960000Y-116650000D01*
X81964278Y-123529723D02*
G75*
G03X86575580Y-123530000I2305722J1179723D01*
G01*
X81964278Y-121170277D02*
G75*
G02X86575580Y-121170000I2305722J-1179723D01*
G01*
X81964278Y-121170277D02*
G75*
G03X81964420Y-123530000I2305722J-1179723D01*
G01*
X84270000Y-124900000D02*
X84270000Y-119800000D01*
X84230000Y-124900000D02*
X84230000Y-119800000D01*
X84190000Y-124899000D02*
X84190000Y-119801000D01*
X84150000Y-124898000D02*
X84150000Y-119802000D01*
X84110000Y-124896000D02*
X84110000Y-119804000D01*
X84070000Y-124893000D02*
X84070000Y-119807000D01*
X84030000Y-124889000D02*
X84030000Y-119811000D01*
X83990000Y-124885000D02*
X83990000Y-123330000D01*
X83990000Y-121370000D02*
X83990000Y-119815000D01*
X83950000Y-124881000D02*
X83950000Y-123330000D01*
X83950000Y-121370000D02*
X83950000Y-119819000D01*
X83910000Y-124875000D02*
X83910000Y-123330000D01*
X83910000Y-121370000D02*
X83910000Y-119825000D01*
X83870000Y-124869000D02*
X83870000Y-123330000D01*
X83870000Y-121370000D02*
X83870000Y-119831000D01*
X83830000Y-124863000D02*
X83830000Y-123330000D01*
X83830000Y-121370000D02*
X83830000Y-119837000D01*
X83790000Y-124856000D02*
X83790000Y-123330000D01*
X83790000Y-121370000D02*
X83790000Y-119844000D01*
X83750000Y-124848000D02*
X83750000Y-123330000D01*
X83750000Y-121370000D02*
X83750000Y-119852000D01*
X83710000Y-124839000D02*
X83710000Y-123330000D01*
X83710000Y-121370000D02*
X83710000Y-119861000D01*
X83670000Y-124830000D02*
X83670000Y-123330000D01*
X83670000Y-121370000D02*
X83670000Y-119870000D01*
X83630000Y-124820000D02*
X83630000Y-123330000D01*
X83630000Y-121370000D02*
X83630000Y-119880000D01*
X83590000Y-124810000D02*
X83590000Y-123330000D01*
X83590000Y-121370000D02*
X83590000Y-119890000D01*
X83549000Y-124798000D02*
X83549000Y-123330000D01*
X83549000Y-121370000D02*
X83549000Y-119902000D01*
X83509000Y-124786000D02*
X83509000Y-123330000D01*
X83509000Y-121370000D02*
X83509000Y-119914000D01*
X83469000Y-124774000D02*
X83469000Y-123330000D01*
X83469000Y-121370000D02*
X83469000Y-119926000D01*
X83429000Y-124760000D02*
X83429000Y-123330000D01*
X83429000Y-121370000D02*
X83429000Y-119940000D01*
X83389000Y-124746000D02*
X83389000Y-123330000D01*
X83389000Y-121370000D02*
X83389000Y-119954000D01*
X83349000Y-124732000D02*
X83349000Y-123330000D01*
X83349000Y-121370000D02*
X83349000Y-119968000D01*
X83309000Y-124716000D02*
X83309000Y-123330000D01*
X83309000Y-121370000D02*
X83309000Y-119984000D01*
X83269000Y-124700000D02*
X83269000Y-123330000D01*
X83269000Y-121370000D02*
X83269000Y-120000000D01*
X83229000Y-124683000D02*
X83229000Y-123330000D01*
X83229000Y-121370000D02*
X83229000Y-120017000D01*
X83189000Y-124665000D02*
X83189000Y-123330000D01*
X83189000Y-121370000D02*
X83189000Y-120035000D01*
X83149000Y-124646000D02*
X83149000Y-123330000D01*
X83149000Y-121370000D02*
X83149000Y-120054000D01*
X83109000Y-124626000D02*
X83109000Y-123330000D01*
X83109000Y-121370000D02*
X83109000Y-120074000D01*
X83069000Y-124606000D02*
X83069000Y-123330000D01*
X83069000Y-121370000D02*
X83069000Y-120094000D01*
X83029000Y-124584000D02*
X83029000Y-123330000D01*
X83029000Y-121370000D02*
X83029000Y-120116000D01*
X82989000Y-124562000D02*
X82989000Y-123330000D01*
X82989000Y-121370000D02*
X82989000Y-120138000D01*
X82949000Y-124539000D02*
X82949000Y-123330000D01*
X82949000Y-121370000D02*
X82949000Y-120161000D01*
X82909000Y-124515000D02*
X82909000Y-123330000D01*
X82909000Y-121370000D02*
X82909000Y-120185000D01*
X82869000Y-124490000D02*
X82869000Y-123330000D01*
X82869000Y-121370000D02*
X82869000Y-120210000D01*
X82829000Y-124463000D02*
X82829000Y-123330000D01*
X82829000Y-121370000D02*
X82829000Y-120237000D01*
X82789000Y-124436000D02*
X82789000Y-123330000D01*
X82789000Y-121370000D02*
X82789000Y-120264000D01*
X82749000Y-124408000D02*
X82749000Y-123330000D01*
X82749000Y-121370000D02*
X82749000Y-120292000D01*
X82709000Y-124378000D02*
X82709000Y-123330000D01*
X82709000Y-121370000D02*
X82709000Y-120322000D01*
X82669000Y-124347000D02*
X82669000Y-123330000D01*
X82669000Y-121370000D02*
X82669000Y-120353000D01*
X82629000Y-124315000D02*
X82629000Y-123330000D01*
X82629000Y-121370000D02*
X82629000Y-120385000D01*
X82589000Y-124282000D02*
X82589000Y-123330000D01*
X82589000Y-121370000D02*
X82589000Y-120418000D01*
X82549000Y-124247000D02*
X82549000Y-123330000D01*
X82549000Y-121370000D02*
X82549000Y-120453000D01*
X82509000Y-124211000D02*
X82509000Y-123330000D01*
X82509000Y-121370000D02*
X82509000Y-120489000D01*
X82469000Y-124173000D02*
X82469000Y-123330000D01*
X82469000Y-121370000D02*
X82469000Y-120527000D01*
X82429000Y-124133000D02*
X82429000Y-123330000D01*
X82429000Y-121370000D02*
X82429000Y-120567000D01*
X82389000Y-124092000D02*
X82389000Y-123330000D01*
X82389000Y-121370000D02*
X82389000Y-120608000D01*
X82349000Y-124049000D02*
X82349000Y-123330000D01*
X82349000Y-121370000D02*
X82349000Y-120651000D01*
X82309000Y-124004000D02*
X82309000Y-123330000D01*
X82309000Y-121370000D02*
X82309000Y-120696000D01*
X82269000Y-123956000D02*
X82269000Y-123330000D01*
X82269000Y-121370000D02*
X82269000Y-120744000D01*
X82229000Y-123906000D02*
X82229000Y-123330000D01*
X82229000Y-121370000D02*
X82229000Y-120794000D01*
X82189000Y-123854000D02*
X82189000Y-123330000D01*
X82189000Y-121370000D02*
X82189000Y-120846000D01*
X82149000Y-123798000D02*
X82149000Y-123330000D01*
X82149000Y-121370000D02*
X82149000Y-120902000D01*
X82109000Y-123740000D02*
X82109000Y-123330000D01*
X82109000Y-121370000D02*
X82109000Y-120960000D01*
X82069000Y-123677000D02*
X82069000Y-123330000D01*
X82069000Y-121370000D02*
X82069000Y-121023000D01*
X82029000Y-123611000D02*
X82029000Y-121089000D01*
X81989000Y-123539000D02*
X81989000Y-121161000D01*
X81949000Y-123462000D02*
X81949000Y-121238000D01*
X81909000Y-123378000D02*
X81909000Y-121322000D01*
X81869000Y-123284000D02*
X81869000Y-121416000D01*
X81829000Y-123179000D02*
X81829000Y-121521000D01*
X81789000Y-123057000D02*
X81789000Y-121643000D01*
X81749000Y-122909000D02*
X81749000Y-121791000D01*
X81709000Y-122704000D02*
X81709000Y-121996000D01*
X87720000Y-122350000D02*
X86520000Y-122350000D01*
X87120000Y-123000000D02*
X87120000Y-121700000D01*
X77270000Y-70680000D02*
X79390000Y-70680000D01*
X79390000Y-70680000D02*
X79390000Y-66560000D01*
X79390000Y-66560000D02*
X77270000Y-66560000D01*
X77270000Y-66560000D02*
X77270000Y-70680000D01*
X78330000Y-71450000D02*
X78330000Y-70680000D01*
X78330000Y-65790000D02*
X78330000Y-66560000D01*
X77270000Y-70020000D02*
X79390000Y-70020000D01*
X88280000Y-100850000D02*
X90400000Y-100850000D01*
X90400000Y-100850000D02*
X90400000Y-96730000D01*
X90400000Y-96730000D02*
X88280000Y-96730000D01*
X88280000Y-96730000D02*
X88280000Y-100850000D01*
X89340000Y-101620000D02*
X89340000Y-100850000D01*
X89340000Y-95960000D02*
X89340000Y-96730000D01*
X88280000Y-100190000D02*
X90400000Y-100190000D01*
X88320000Y-111410000D02*
X90440000Y-111410000D01*
X90440000Y-111410000D02*
X90440000Y-107290000D01*
X90440000Y-107290000D02*
X88320000Y-107290000D01*
X88320000Y-107290000D02*
X88320000Y-111410000D01*
X89380000Y-112180000D02*
X89380000Y-111410000D01*
X89380000Y-106520000D02*
X89380000Y-107290000D01*
X88320000Y-110750000D02*
X90440000Y-110750000D01*
X73220000Y-134460000D02*
X73220000Y-143260000D01*
X73220000Y-143260000D02*
X64020000Y-143260000D01*
X70520000Y-128560000D02*
X73220000Y-128560000D01*
X73220000Y-128560000D02*
X73220000Y-130460000D01*
X64020000Y-143260000D02*
X64020000Y-128560000D01*
X64020000Y-128560000D02*
X66620000Y-128560000D01*
X130286000Y-66000000D02*
G75*
G03X130286000Y-66000000I-2286000J0D01*
G01*
X57286000Y-66000000D02*
G75*
G03X57286000Y-66000000I-2286000J0D01*
G01*
X97120000Y-103570000D02*
X102320000Y-103570000D01*
X97120000Y-98430000D02*
X97120000Y-103570000D01*
X102320000Y-95830000D02*
X102320000Y-103570000D01*
X97120000Y-98430000D02*
X99720000Y-98430000D01*
X99720000Y-98430000D02*
X99720000Y-95830000D01*
X99720000Y-95830000D02*
X102320000Y-95830000D01*
X97120000Y-97160000D02*
X97120000Y-95830000D01*
X97120000Y-95830000D02*
X98450000Y-95830000D01*
X130286000Y-135000000D02*
G75*
G03X130286000Y-135000000I-2286000J0D01*
G01*
X57286000Y-135000000D02*
G75*
G03X57286000Y-135000000I-2286000J0D01*
G01*
X96460000Y-74990000D02*
X99120000Y-74990000D01*
X96460000Y-67310000D02*
X96460000Y-74990000D01*
X99120000Y-67310000D02*
X99120000Y-74990000D01*
X96460000Y-67310000D02*
X99120000Y-67310000D01*
X96460000Y-66040000D02*
X96460000Y-64710000D01*
X96460000Y-64710000D02*
X97790000Y-64710000D01*
X73466000Y-72330000D02*
X70806000Y-72330000D01*
X73466000Y-80010000D02*
X73466000Y-72330000D01*
X70806000Y-80010000D02*
X70806000Y-72330000D01*
X73466000Y-80010000D02*
X70806000Y-80010000D01*
X73466000Y-81280000D02*
X73466000Y-82610000D01*
X73466000Y-82610000D02*
X72136000Y-82610000D01*
D13*
X53340000Y-115310000D02*
X53340000Y-105310000D01*
X53340000Y-105310000D02*
X63340000Y-105310000D01*
X63340000Y-105310000D02*
X63340000Y-115310000D01*
X63340000Y-115310000D02*
X53340000Y-115310000D01*
X53340000Y-129950000D02*
X53340000Y-119950000D01*
X53340000Y-119950000D02*
X63340000Y-119950000D01*
X63340000Y-119950000D02*
X63340000Y-129950000D01*
X63340000Y-129950000D02*
X53340000Y-129950000D01*
D12*
X99350000Y-92470000D02*
X99350000Y-89810000D01*
X96750000Y-92470000D02*
X99350000Y-92470000D01*
X96750000Y-89810000D02*
X99350000Y-89810000D01*
X96750000Y-92470000D02*
X96750000Y-89810000D01*
X95480000Y-92470000D02*
X94150000Y-92470000D01*
X94150000Y-92470000D02*
X94150000Y-91140000D01*
X66430000Y-93410000D02*
X53430000Y-93410000D01*
X66430000Y-77210000D02*
X53430000Y-77210000D01*
X66430000Y-77210000D02*
X66430000Y-93410000D01*
X53430000Y-77210000D02*
X53430000Y-93410000D01*
X82440000Y-65290000D02*
X82770000Y-65290000D01*
X82770000Y-65290000D02*
X82770000Y-71710000D01*
X82770000Y-71710000D02*
X82440000Y-71710000D01*
X80480000Y-65290000D02*
X80150000Y-65290000D01*
X80150000Y-65290000D02*
X80150000Y-71710000D01*
X80150000Y-71710000D02*
X80480000Y-71710000D01*
X106136000Y-65624000D02*
X106466000Y-65624000D01*
X106466000Y-65624000D02*
X106466000Y-72044000D01*
X106466000Y-72044000D02*
X106136000Y-72044000D01*
X104176000Y-65624000D02*
X103846000Y-65624000D01*
X103846000Y-65624000D02*
X103846000Y-72044000D01*
X103846000Y-72044000D02*
X104176000Y-72044000D01*
X102580000Y-65624000D02*
X102910000Y-65624000D01*
X102910000Y-65624000D02*
X102910000Y-72044000D01*
X102910000Y-72044000D02*
X102580000Y-72044000D01*
X100620000Y-65624000D02*
X100290000Y-65624000D01*
X100290000Y-65624000D02*
X100290000Y-72044000D01*
X100290000Y-72044000D02*
X100620000Y-72044000D01*
X65520000Y-106390000D02*
X65520000Y-106060000D01*
X65520000Y-106060000D02*
X71940000Y-106060000D01*
X71940000Y-106060000D02*
X71940000Y-106390000D01*
X65520000Y-108350000D02*
X65520000Y-108680000D01*
X65520000Y-108680000D02*
X71940000Y-108680000D01*
X71940000Y-108680000D02*
X71940000Y-108350000D01*
X54280000Y-116670000D02*
X54280000Y-116340000D01*
X54280000Y-116340000D02*
X60700000Y-116340000D01*
X60700000Y-116340000D02*
X60700000Y-116670000D01*
X54280000Y-118630000D02*
X54280000Y-118960000D01*
X54280000Y-118960000D02*
X60700000Y-118960000D01*
X60700000Y-118960000D02*
X60700000Y-118630000D01*
X107732000Y-72044000D02*
X107402000Y-72044000D01*
X107402000Y-72044000D02*
X107402000Y-65624000D01*
X107402000Y-65624000D02*
X107732000Y-65624000D01*
X109692000Y-72044000D02*
X110022000Y-72044000D01*
X110022000Y-72044000D02*
X110022000Y-65624000D01*
X110022000Y-65624000D02*
X109692000Y-65624000D01*
X65250000Y-115950000D02*
X65250000Y-115620000D01*
X65250000Y-115620000D02*
X71670000Y-115620000D01*
X71670000Y-115620000D02*
X71670000Y-115950000D01*
X65250000Y-117910000D02*
X65250000Y-118240000D01*
X65250000Y-118240000D02*
X71670000Y-118240000D01*
X71670000Y-118240000D02*
X71670000Y-117910000D01*
X65280000Y-112710000D02*
X65280000Y-112380000D01*
X65280000Y-112380000D02*
X71700000Y-112380000D01*
X71700000Y-112380000D02*
X71700000Y-112710000D01*
X65280000Y-114670000D02*
X65280000Y-115000000D01*
X65280000Y-115000000D02*
X71700000Y-115000000D01*
X71700000Y-115000000D02*
X71700000Y-114670000D01*
X116200000Y-85900000D02*
X115870000Y-85900000D01*
X115870000Y-85900000D02*
X115870000Y-79480000D01*
X115870000Y-79480000D02*
X116200000Y-79480000D01*
X118160000Y-85900000D02*
X118490000Y-85900000D01*
X118490000Y-85900000D02*
X118490000Y-79480000D01*
X118490000Y-79480000D02*
X118160000Y-79480000D01*
X121370000Y-79470000D02*
X121700000Y-79470000D01*
X121700000Y-79470000D02*
X121700000Y-85890000D01*
X121700000Y-85890000D02*
X121370000Y-85890000D01*
X119410000Y-79470000D02*
X119080000Y-79470000D01*
X119080000Y-79470000D02*
X119080000Y-85890000D01*
X119080000Y-85890000D02*
X119410000Y-85890000D01*
X109560000Y-85880000D02*
X109230000Y-85880000D01*
X109230000Y-85880000D02*
X109230000Y-79460000D01*
X109230000Y-79460000D02*
X109560000Y-79460000D01*
X111520000Y-85880000D02*
X111850000Y-85880000D01*
X111850000Y-85880000D02*
X111850000Y-79460000D01*
X111850000Y-79460000D02*
X111520000Y-79460000D01*
X107790000Y-89640000D02*
X108120000Y-89640000D01*
X108120000Y-89640000D02*
X108120000Y-96060000D01*
X108120000Y-96060000D02*
X107790000Y-96060000D01*
X105830000Y-89640000D02*
X105500000Y-89640000D01*
X105500000Y-89640000D02*
X105500000Y-96060000D01*
X105500000Y-96060000D02*
X105830000Y-96060000D01*
X109050000Y-96100000D02*
X108720000Y-96100000D01*
X108720000Y-96100000D02*
X108720000Y-89680000D01*
X108720000Y-89680000D02*
X109050000Y-89680000D01*
X111010000Y-96100000D02*
X111340000Y-96100000D01*
X111340000Y-96100000D02*
X111340000Y-89680000D01*
X111340000Y-89680000D02*
X111010000Y-89680000D01*
X56210000Y-102530000D02*
X55880000Y-102530000D01*
X55880000Y-102530000D02*
X55880000Y-96110000D01*
X55880000Y-96110000D02*
X56210000Y-96110000D01*
X58170000Y-102530000D02*
X58500000Y-102530000D01*
X58500000Y-102530000D02*
X58500000Y-96110000D01*
X58500000Y-96110000D02*
X58170000Y-96110000D01*
X54950000Y-96060000D02*
X55280000Y-96060000D01*
X55280000Y-96060000D02*
X55280000Y-102480000D01*
X55280000Y-102480000D02*
X54950000Y-102480000D01*
X52990000Y-96060000D02*
X52660000Y-96060000D01*
X52660000Y-96060000D02*
X52660000Y-102480000D01*
X52660000Y-102480000D02*
X52990000Y-102480000D01*
X100846000Y-87002000D02*
X100846000Y-87252000D01*
X100846000Y-87252000D02*
X100596000Y-87252000D01*
X100596000Y-87252000D02*
X100596000Y-87502000D01*
X100596000Y-87502000D02*
X99346000Y-87502000D01*
X99346000Y-87502000D02*
X99346000Y-87252000D01*
X99346000Y-87252000D02*
X95696000Y-87252000D01*
X95696000Y-87252000D02*
X95696000Y-87502000D01*
X95696000Y-87502000D02*
X94396000Y-87502000D01*
X94396000Y-87502000D02*
X94396000Y-87252000D01*
X94396000Y-87252000D02*
X94096000Y-87252000D01*
X94096000Y-87252000D02*
X94096000Y-87002000D01*
X98646000Y-79952000D02*
X99546000Y-79952000D01*
X99546000Y-79952000D02*
X100896000Y-81452000D01*
X100896000Y-81452000D02*
X100896000Y-84752000D01*
X94096000Y-84752000D02*
X94096000Y-81402000D01*
X94096000Y-81402000D02*
X95446000Y-79952000D01*
X95446000Y-79952000D02*
X96346000Y-79952000D01*
X66818000Y-65112000D02*
X62318000Y-65112000D01*
X68068000Y-69112000D02*
X68068000Y-67612000D01*
X62318000Y-71612000D02*
X66818000Y-71612000D01*
X61068000Y-67612000D02*
X61068000Y-69112000D01*
X77020000Y-114230000D02*
X87260000Y-114230000D01*
X77020000Y-118871000D02*
X87260000Y-118871000D01*
X77020000Y-114230000D02*
X77020000Y-118871000D01*
X87260000Y-114230000D02*
X87260000Y-118871000D01*
X77020000Y-115740000D02*
X87260000Y-115740000D01*
X80290000Y-114230000D02*
X80290000Y-115740000D01*
X83991000Y-114230000D02*
X83991000Y-115740000D01*
X83296000Y-75886000D02*
G75*
G02X81296000Y-75886000I-1000000J0D01*
G01*
X81296000Y-75886000D02*
X79646000Y-75886000D01*
X79646000Y-75886000D02*
X79646000Y-111566000D01*
X79646000Y-111566000D02*
X84946000Y-111566000D01*
X84946000Y-111566000D02*
X84946000Y-75886000D01*
X84946000Y-75886000D02*
X83296000Y-75886000D01*
X77156000Y-75826000D02*
X77156000Y-111626000D01*
X77156000Y-111626000D02*
X87436000Y-111626000D01*
X87436000Y-111626000D02*
X87436000Y-75826000D01*
X87436000Y-75826000D02*
X77156000Y-75826000D01*
X129330000Y-70570000D02*
X126670000Y-70570000D01*
X129330000Y-108730000D02*
X129330000Y-70570000D01*
X126670000Y-108730000D02*
X126670000Y-70570000D01*
X129330000Y-108730000D02*
X126670000Y-108730000D01*
X129330000Y-110000000D02*
X129330000Y-111330000D01*
X129330000Y-111330000D02*
X128000000Y-111330000D01*
D14*
X88960000Y-135700000D02*
X98660000Y-135700000D01*
X98660000Y-135700000D02*
X99360000Y-135800000D01*
X99360000Y-135800000D02*
X99960000Y-135900000D01*
X99960000Y-135900000D02*
X100360000Y-136100000D01*
X100360000Y-136100000D02*
X100660000Y-136400000D01*
X100660000Y-136400000D02*
X103660000Y-136400000D01*
X103660000Y-136400000D02*
X103660000Y-121900000D01*
X88960000Y-121900000D02*
X103660000Y-121900000D01*
X88960000Y-121900000D02*
X88960000Y-135700000D01*
D12*
X70735000Y-98025000D02*
X70735000Y-91775000D01*
X75785000Y-98025000D02*
X75785000Y-91775000D01*
X75785000Y-98025000D02*
G75*
G02X70735000Y-98025000I-2525000J0D01*
G01*
X75785000Y-91775000D02*
G75*
G03X70735000Y-91775000I-2525000J0D01*
G01*
X88329392Y-64621665D02*
G75*
G03X88172484Y-67854000I1078608J-1672335D01*
G01*
X90486608Y-64621665D02*
G75*
G02X90643516Y-67854000I-1078608J-1672335D01*
G01*
X88328163Y-65252870D02*
G75*
G03X88328000Y-67334961I1079837J-1041130D01*
G01*
X90487837Y-65252870D02*
G75*
G02X90488000Y-67334961I-1079837J-1041130D01*
G01*
X88172000Y-67854000D02*
X88328000Y-67854000D01*
X90488000Y-67854000D02*
X90644000Y-67854000D01*
X85816000Y-65624000D02*
X86146000Y-65624000D01*
X86146000Y-65624000D02*
X86146000Y-72044000D01*
X86146000Y-72044000D02*
X85816000Y-72044000D01*
X83856000Y-65624000D02*
X83526000Y-65624000D01*
X83526000Y-65624000D02*
X83526000Y-72044000D01*
X83526000Y-72044000D02*
X83856000Y-72044000D01*
X62410000Y-99840000D02*
X62410000Y-103440000D01*
X63137205Y-99315816D02*
G75*
G03X62410000Y-99840000I1122795J-2324184D01*
G01*
X65358807Y-99283600D02*
G75*
G02X66860000Y-101640000I-1098807J-2356400D01*
G01*
X65358807Y-103996400D02*
G75*
G03X66860000Y-101640000I-1098807J2356400D01*
G01*
X63137205Y-103964184D02*
G75*
G02X62410000Y-103440000I1122795J2324184D01*
G01*
X68710000Y-101510000D02*
X68710000Y-101180000D01*
X68710000Y-101180000D02*
X75130000Y-101180000D01*
X75130000Y-101180000D02*
X75130000Y-101510000D01*
X68710000Y-103470000D02*
X68710000Y-103800000D01*
X68710000Y-103800000D02*
X75130000Y-103800000D01*
X75130000Y-103800000D02*
X75130000Y-103470000D01*
X60138000Y-94682000D02*
X60138000Y-97342000D01*
X62738000Y-94682000D02*
X60138000Y-94682000D01*
X62738000Y-97342000D02*
X60138000Y-97342000D01*
X62738000Y-94682000D02*
X62738000Y-97342000D01*
X64008000Y-94682000D02*
X65338000Y-94682000D01*
X65338000Y-94682000D02*
X65338000Y-96012000D01*
X67750000Y-84230000D02*
X67420000Y-84230000D01*
X67420000Y-84230000D02*
X67420000Y-77810000D01*
X67420000Y-77810000D02*
X67750000Y-77810000D01*
X69710000Y-84230000D02*
X70040000Y-84230000D01*
X70040000Y-84230000D02*
X70040000Y-77810000D01*
X70040000Y-77810000D02*
X69710000Y-77810000D01*
X85852000Y-135128000D02*
X75692000Y-135128000D01*
X85852000Y-136398000D02*
X85852000Y-128778000D01*
X85852000Y-128778000D02*
X75692000Y-128778000D01*
X75692000Y-128778000D02*
X75692000Y-136398000D01*
X75692000Y-136398000D02*
X85852000Y-136398000D01*
X107370000Y-81580000D02*
X107370000Y-77980000D01*
X106642795Y-82104184D02*
G75*
G03X107370000Y-81580000I-1122795J2324184D01*
G01*
X104421193Y-82136400D02*
G75*
G02X102920000Y-79780000I1098807J2356400D01*
G01*
X104421193Y-77423600D02*
G75*
G03X102920000Y-79780000I1098807J-2356400D01*
G01*
X106642795Y-77455816D02*
G75*
G02X107370000Y-77980000I-1122795J-2324184D01*
G01*
X94570000Y-111890000D02*
X94240000Y-111890000D01*
X94240000Y-111890000D02*
X94240000Y-105470000D01*
X94240000Y-105470000D02*
X94570000Y-105470000D01*
X96530000Y-111890000D02*
X96860000Y-111890000D01*
X96860000Y-111890000D02*
X96860000Y-105470000D01*
X96860000Y-105470000D02*
X96530000Y-105470000D01*
X108380000Y-128220000D02*
X108380000Y-133340000D01*
X105760000Y-128220000D02*
X105760000Y-133340000D01*
X108380000Y-128220000D02*
X105760000Y-128220000D01*
X108380000Y-133340000D02*
X105760000Y-133340000D01*
X114940000Y-115770000D02*
X120060000Y-115770000D01*
X114940000Y-118390000D02*
X120060000Y-118390000D01*
X114940000Y-115770000D02*
X114940000Y-118390000D01*
X120060000Y-115770000D02*
X120060000Y-118390000D01*
X110890000Y-121170000D02*
X108770000Y-121170000D01*
X108770000Y-121170000D02*
X108770000Y-125290000D01*
X108770000Y-125290000D02*
X110890000Y-125290000D01*
X110890000Y-125290000D02*
X110890000Y-121170000D01*
X109830000Y-120400000D02*
X109830000Y-121170000D01*
X109830000Y-126060000D02*
X109830000Y-125290000D01*
X110890000Y-121830000D02*
X108770000Y-121830000D01*
X127300000Y-118000000D02*
X127300000Y-115880000D01*
X127300000Y-115880000D02*
X123180000Y-115880000D01*
X123180000Y-115880000D02*
X123180000Y-118000000D01*
X123180000Y-118000000D02*
X127300000Y-118000000D01*
X128070000Y-116940000D02*
X127300000Y-116940000D01*
X122410000Y-116940000D02*
X123180000Y-116940000D01*
X126640000Y-118000000D02*
X126640000Y-115880000D01*
D15*
X123660000Y-142380000D02*
X123660000Y-128680000D01*
X108860000Y-128680000D02*
X108860000Y-142380000D01*
X108860000Y-128680000D02*
X123660000Y-128680000D01*
X108860000Y-142380000D02*
X123660000Y-142380000D01*
D12*
X126760000Y-127530000D02*
X126760000Y-124210000D01*
X126760000Y-124210000D02*
X117640000Y-124210000D01*
X117640000Y-124210000D02*
X117640000Y-127530000D01*
X117640000Y-127530000D02*
X126760000Y-127530000D01*
X127570000Y-125870000D02*
X126760000Y-125870000D01*
X116830000Y-125870000D02*
X117640000Y-125870000D01*
X126730000Y-123530000D02*
X126730000Y-120210000D01*
X126730000Y-120210000D02*
X117610000Y-120210000D01*
X117610000Y-120210000D02*
X117610000Y-123530000D01*
X117610000Y-123530000D02*
X126730000Y-123530000D01*
X127540000Y-121870000D02*
X126730000Y-121870000D01*
X116800000Y-121870000D02*
X117610000Y-121870000D01*
X113970000Y-109510000D02*
X114300000Y-109510000D01*
X114300000Y-109510000D02*
X114300000Y-115930000D01*
X114300000Y-115930000D02*
X113970000Y-115930000D01*
X112010000Y-109510000D02*
X111680000Y-109510000D01*
X111680000Y-109510000D02*
X111680000Y-115930000D01*
X111680000Y-115930000D02*
X112010000Y-115930000D01*
X76180000Y-105770000D02*
X76510000Y-105770000D01*
X76510000Y-105770000D02*
X76510000Y-112190000D01*
X76510000Y-112190000D02*
X76180000Y-112190000D01*
X74220000Y-105770000D02*
X73890000Y-105770000D01*
X73890000Y-105770000D02*
X73890000Y-112190000D01*
X73890000Y-112190000D02*
X74220000Y-112190000D01*
X118960000Y-114990000D02*
G75*
G02X120960000Y-114990000I1000000J0D01*
G01*
X120960000Y-114990000D02*
X122610000Y-114990000D01*
X122610000Y-114990000D02*
X122610000Y-97090000D01*
X122610000Y-97090000D02*
X117310000Y-97090000D01*
X117310000Y-97090000D02*
X117310000Y-114990000D01*
X117310000Y-114990000D02*
X118960000Y-114990000D01*
X125100000Y-115050000D02*
X125100000Y-97030000D01*
X125100000Y-97030000D02*
X114820000Y-97030000D01*
X114820000Y-97030000D02*
X114820000Y-115050000D01*
X114820000Y-115050000D02*
X125100000Y-115050000D01*
X113830000Y-120020000D02*
X114160000Y-120020000D01*
X114160000Y-120020000D02*
X114160000Y-126440000D01*
X114160000Y-126440000D02*
X113830000Y-126440000D01*
X111870000Y-120020000D02*
X111540000Y-120020000D01*
X111540000Y-120020000D02*
X111540000Y-126440000D01*
X111540000Y-126440000D02*
X111870000Y-126440000D01*
X109700000Y-107340000D02*
X109700000Y-102220000D01*
X112320000Y-107340000D02*
X112320000Y-102220000D01*
X109700000Y-107340000D02*
X112320000Y-107340000D01*
X109700000Y-102220000D02*
X112320000Y-102220000D01*
X107990000Y-120750000D02*
X105870000Y-120750000D01*
X105870000Y-120750000D02*
X105870000Y-124870000D01*
X105870000Y-124870000D02*
X107990000Y-124870000D01*
X107990000Y-124870000D02*
X107990000Y-120750000D01*
X106930000Y-119980000D02*
X106930000Y-120750000D01*
X106930000Y-125640000D02*
X106930000Y-124870000D01*
X107990000Y-121410000D02*
X105870000Y-121410000D01*
X110700000Y-109590000D02*
X111030000Y-109590000D01*
X111030000Y-109590000D02*
X111030000Y-116010000D01*
X111030000Y-116010000D02*
X110700000Y-116010000D01*
X108740000Y-109590000D02*
X108410000Y-109590000D01*
X108410000Y-109590000D02*
X108410000Y-116010000D01*
X108410000Y-116010000D02*
X108740000Y-116010000D01*
X125510000Y-87300000D02*
X125840000Y-87300000D01*
X125840000Y-87300000D02*
X125840000Y-93720000D01*
X125840000Y-93720000D02*
X125510000Y-93720000D01*
X123550000Y-87300000D02*
X123220000Y-87300000D01*
X123220000Y-87300000D02*
X123220000Y-93720000D01*
X123220000Y-93720000D02*
X123550000Y-93720000D01*
X114900000Y-88740000D02*
X114900000Y-88410000D01*
X114900000Y-88410000D02*
X121320000Y-88410000D01*
X121320000Y-88410000D02*
X121320000Y-88740000D01*
X114900000Y-90700000D02*
X114900000Y-91030000D01*
X114900000Y-91030000D02*
X121320000Y-91030000D01*
X121320000Y-91030000D02*
X121320000Y-90700000D01*
X81780000Y-125620000D02*
X86900000Y-125620000D01*
X81780000Y-128240000D02*
X86900000Y-128240000D01*
X81780000Y-125620000D02*
X81780000Y-128240000D01*
X86900000Y-125620000D02*
X86900000Y-128240000D01*
X81310000Y-128310000D02*
X76190000Y-128310000D01*
X81310000Y-125690000D02*
X76190000Y-125690000D01*
X81310000Y-128310000D02*
X81310000Y-125690000D01*
X76190000Y-128310000D02*
X76190000Y-125690000D01*
D11*
X68294000Y-122594000D02*
X67278000Y-122594000D01*
X72866000Y-122594000D02*
X73628000Y-122594000D01*
X68294000Y-124880000D02*
X67278000Y-124880000D01*
X72866000Y-124880000D02*
X73628000Y-124880000D01*
X72866000Y-124880000D02*
G75*
G03X72104000Y-124118000I-762000J0D01*
G01*
X72104000Y-124118000D02*
G75*
G03X71342000Y-124880000I0J-762000D01*
G01*
X71342000Y-124880000D02*
G75*
G03X70580000Y-124118000I-762000J0D01*
G01*
X70580000Y-124118000D02*
G75*
G03X69818000Y-124880000I0J-762000D01*
G01*
X69818000Y-124880000D02*
G75*
G03X69056000Y-124118000I-762000J0D01*
G01*
X69056000Y-124118000D02*
G75*
G03X68294000Y-124880000I0J-762000D01*
G01*
X72104000Y-121832000D02*
G75*
G03X71342000Y-122594000I0J-762000D01*
G01*
X72866000Y-122594000D02*
G75*
G03X72104000Y-121832000I-762000J0D01*
G01*
X71342000Y-122594000D02*
G75*
G03X70580000Y-121832000I-762000J0D01*
G01*
X70580000Y-121832000D02*
G75*
G03X69818000Y-122594000I0J-762000D01*
G01*
X69818000Y-122594000D02*
G75*
G03X69056000Y-121832000I-762000J0D01*
G01*
X69056000Y-121832000D02*
G75*
G03X68294000Y-122594000I0J-762000D01*
G01*
X114382381Y-83132857D02*
X113906190Y-83466191D01*
X114382381Y-83704286D02*
X113382381Y-83704286D01*
X113382381Y-83323333D01*
X113430000Y-83228095D01*
X113477619Y-83180476D01*
X113572857Y-83132857D01*
X113715714Y-83132857D01*
X113810952Y-83180476D01*
X113858571Y-83228095D01*
X113906190Y-83323333D01*
X113906190Y-83704286D01*
X114382381Y-82180476D02*
X114382381Y-82751905D01*
X114382381Y-82466191D02*
X113382381Y-82466191D01*
X113525238Y-82561429D01*
X113620476Y-82656667D01*
X113668095Y-82751905D01*
X113382381Y-81847143D02*
X113382381Y-81228095D01*
X113763333Y-81561429D01*
X113763333Y-81418571D01*
X113810952Y-81323333D01*
X113858571Y-81275714D01*
X113953810Y-81228095D01*
X114191905Y-81228095D01*
X114287143Y-81275714D01*
X114334762Y-81323333D01*
X114382381Y-81418571D01*
X114382381Y-81704286D01*
X114334762Y-81799524D01*
X114287143Y-81847143D01*
X92702381Y-110956666D02*
X92226190Y-111290000D01*
X92702381Y-111528095D02*
X91702381Y-111528095D01*
X91702381Y-111147142D01*
X91750000Y-111051904D01*
X91797619Y-111004285D01*
X91892857Y-110956666D01*
X92035714Y-110956666D01*
X92130952Y-111004285D01*
X92178571Y-111051904D01*
X92226190Y-111147142D01*
X92226190Y-111528095D01*
X92702381Y-110480476D02*
X92702381Y-110290000D01*
X92654762Y-110194761D01*
X92607143Y-110147142D01*
X92464286Y-110051904D01*
X92273810Y-110004285D01*
X91892857Y-110004285D01*
X91797619Y-110051904D01*
X91750000Y-110099523D01*
X91702381Y-110194761D01*
X91702381Y-110385238D01*
X91750000Y-110480476D01*
X91797619Y-110528095D01*
X91892857Y-110575714D01*
X92130952Y-110575714D01*
X92226190Y-110528095D01*
X92273810Y-110480476D01*
X92321429Y-110385238D01*
X92321429Y-110194761D01*
X92273810Y-110099523D01*
X92226190Y-110051904D01*
X92130952Y-110004285D01*
X75753334Y-120287143D02*
X75705715Y-120334762D01*
X75562858Y-120382381D01*
X75467620Y-120382381D01*
X75324762Y-120334762D01*
X75229524Y-120239524D01*
X75181905Y-120144286D01*
X75134286Y-119953810D01*
X75134286Y-119810952D01*
X75181905Y-119620476D01*
X75229524Y-119525238D01*
X75324762Y-119430000D01*
X75467620Y-119382381D01*
X75562858Y-119382381D01*
X75705715Y-119430000D01*
X75753334Y-119477619D01*
X76705715Y-120382381D02*
X76134286Y-120382381D01*
X76420000Y-120382381D02*
X76420000Y-119382381D01*
X76324762Y-119525238D01*
X76229524Y-119620476D01*
X76134286Y-119668095D01*
X70667143Y-66846666D02*
X70714762Y-66894285D01*
X70762381Y-67037142D01*
X70762381Y-67132380D01*
X70714762Y-67275238D01*
X70619524Y-67370476D01*
X70524286Y-67418095D01*
X70333810Y-67465714D01*
X70190952Y-67465714D01*
X70000476Y-67418095D01*
X69905238Y-67370476D01*
X69810000Y-67275238D01*
X69762381Y-67132380D01*
X69762381Y-67037142D01*
X69810000Y-66894285D01*
X69857619Y-66846666D01*
X69857619Y-66465714D02*
X69810000Y-66418095D01*
X69762381Y-66322857D01*
X69762381Y-66084761D01*
X69810000Y-65989523D01*
X69857619Y-65941904D01*
X69952857Y-65894285D01*
X70048095Y-65894285D01*
X70190952Y-65941904D01*
X70762381Y-66513333D01*
X70762381Y-65894285D01*
X55713334Y-76303143D02*
X55665715Y-76350762D01*
X55522858Y-76398381D01*
X55427620Y-76398381D01*
X55284762Y-76350762D01*
X55189524Y-76255524D01*
X55141905Y-76160286D01*
X55094286Y-75969810D01*
X55094286Y-75826952D01*
X55141905Y-75636476D01*
X55189524Y-75541238D01*
X55284762Y-75446000D01*
X55427620Y-75398381D01*
X55522858Y-75398381D01*
X55665715Y-75446000D01*
X55713334Y-75493619D01*
X56046667Y-75398381D02*
X56665715Y-75398381D01*
X56332381Y-75779333D01*
X56475239Y-75779333D01*
X56570477Y-75826952D01*
X56618096Y-75874571D01*
X56665715Y-75969810D01*
X56665715Y-76207905D01*
X56618096Y-76303143D01*
X56570477Y-76350762D01*
X56475239Y-76398381D01*
X56189524Y-76398381D01*
X56094286Y-76350762D01*
X56046667Y-76303143D01*
X72973334Y-85337143D02*
X72925715Y-85384762D01*
X72782858Y-85432381D01*
X72687620Y-85432381D01*
X72544762Y-85384762D01*
X72449524Y-85289524D01*
X72401905Y-85194286D01*
X72354286Y-85003810D01*
X72354286Y-84860952D01*
X72401905Y-84670476D01*
X72449524Y-84575238D01*
X72544762Y-84480000D01*
X72687620Y-84432381D01*
X72782858Y-84432381D01*
X72925715Y-84480000D01*
X72973334Y-84527619D01*
X73830477Y-84765714D02*
X73830477Y-85432381D01*
X73592381Y-84384762D02*
X73354286Y-85099048D01*
X73973334Y-85099048D01*
X68977143Y-89706666D02*
X69024762Y-89754285D01*
X69072381Y-89897142D01*
X69072381Y-89992380D01*
X69024762Y-90135238D01*
X68929524Y-90230476D01*
X68834286Y-90278095D01*
X68643810Y-90325714D01*
X68500952Y-90325714D01*
X68310476Y-90278095D01*
X68215238Y-90230476D01*
X68120000Y-90135238D01*
X68072381Y-89992380D01*
X68072381Y-89897142D01*
X68120000Y-89754285D01*
X68167619Y-89706666D01*
X68072381Y-88801904D02*
X68072381Y-89278095D01*
X68548571Y-89325714D01*
X68500952Y-89278095D01*
X68453333Y-89182857D01*
X68453333Y-88944761D01*
X68500952Y-88849523D01*
X68548571Y-88801904D01*
X68643810Y-88754285D01*
X68881905Y-88754285D01*
X68977143Y-88801904D01*
X69024762Y-88849523D01*
X69072381Y-88944761D01*
X69072381Y-89182857D01*
X69024762Y-89278095D01*
X68977143Y-89325714D01*
X68807143Y-97286666D02*
X68854762Y-97334285D01*
X68902381Y-97477142D01*
X68902381Y-97572380D01*
X68854762Y-97715238D01*
X68759524Y-97810476D01*
X68664286Y-97858095D01*
X68473810Y-97905714D01*
X68330952Y-97905714D01*
X68140476Y-97858095D01*
X68045238Y-97810476D01*
X67950000Y-97715238D01*
X67902381Y-97572380D01*
X67902381Y-97477142D01*
X67950000Y-97334285D01*
X67997619Y-97286666D01*
X67902381Y-96429523D02*
X67902381Y-96620000D01*
X67950000Y-96715238D01*
X67997619Y-96762857D01*
X68140476Y-96858095D01*
X68330952Y-96905714D01*
X68711905Y-96905714D01*
X68807143Y-96858095D01*
X68854762Y-96810476D01*
X68902381Y-96715238D01*
X68902381Y-96524761D01*
X68854762Y-96429523D01*
X68807143Y-96381904D01*
X68711905Y-96334285D01*
X68473810Y-96334285D01*
X68378571Y-96381904D01*
X68330952Y-96429523D01*
X68283333Y-96524761D01*
X68283333Y-96715238D01*
X68330952Y-96810476D01*
X68378571Y-96858095D01*
X68473810Y-96905714D01*
X101347143Y-115466666D02*
X101394762Y-115514285D01*
X101442381Y-115657142D01*
X101442381Y-115752380D01*
X101394762Y-115895238D01*
X101299524Y-115990476D01*
X101204286Y-116038095D01*
X101013810Y-116085714D01*
X100870952Y-116085714D01*
X100680476Y-116038095D01*
X100585238Y-115990476D01*
X100490000Y-115895238D01*
X100442381Y-115752380D01*
X100442381Y-115657142D01*
X100490000Y-115514285D01*
X100537619Y-115466666D01*
X100442381Y-115133333D02*
X100442381Y-114466666D01*
X101442381Y-114895238D01*
X86313334Y-119997143D02*
X86265715Y-120044762D01*
X86122858Y-120092381D01*
X86027620Y-120092381D01*
X85884762Y-120044762D01*
X85789524Y-119949524D01*
X85741905Y-119854286D01*
X85694286Y-119663810D01*
X85694286Y-119520952D01*
X85741905Y-119330476D01*
X85789524Y-119235238D01*
X85884762Y-119140000D01*
X86027620Y-119092381D01*
X86122858Y-119092381D01*
X86265715Y-119140000D01*
X86313334Y-119187619D01*
X86884762Y-119520952D02*
X86789524Y-119473333D01*
X86741905Y-119425714D01*
X86694286Y-119330476D01*
X86694286Y-119282857D01*
X86741905Y-119187619D01*
X86789524Y-119140000D01*
X86884762Y-119092381D01*
X87075239Y-119092381D01*
X87170477Y-119140000D01*
X87218096Y-119187619D01*
X87265715Y-119282857D01*
X87265715Y-119330476D01*
X87218096Y-119425714D01*
X87170477Y-119473333D01*
X87075239Y-119520952D01*
X86884762Y-119520952D01*
X86789524Y-119568571D01*
X86741905Y-119616190D01*
X86694286Y-119711429D01*
X86694286Y-119901905D01*
X86741905Y-119997143D01*
X86789524Y-120044762D01*
X86884762Y-120092381D01*
X87075239Y-120092381D01*
X87170477Y-120044762D01*
X87218096Y-119997143D01*
X87265715Y-119901905D01*
X87265715Y-119711429D01*
X87218096Y-119616190D01*
X87170477Y-119568571D01*
X87075239Y-119520952D01*
X78790381Y-69410095D02*
X77790381Y-69410095D01*
X77790381Y-69172000D01*
X77838000Y-69029142D01*
X77933238Y-68933904D01*
X78028476Y-68886285D01*
X78218952Y-68838666D01*
X78361810Y-68838666D01*
X78552286Y-68886285D01*
X78647524Y-68933904D01*
X78742762Y-69029142D01*
X78790381Y-69172000D01*
X78790381Y-69410095D01*
X78790381Y-67886285D02*
X78790381Y-68457714D01*
X78790381Y-68172000D02*
X77790381Y-68172000D01*
X77933238Y-68267238D01*
X78028476Y-68362476D01*
X78076095Y-68457714D01*
X89766381Y-99606095D02*
X88766381Y-99606095D01*
X88766381Y-99368000D01*
X88814000Y-99225142D01*
X88909238Y-99129904D01*
X89004476Y-99082285D01*
X89194952Y-99034666D01*
X89337810Y-99034666D01*
X89528286Y-99082285D01*
X89623524Y-99129904D01*
X89718762Y-99225142D01*
X89766381Y-99368000D01*
X89766381Y-99606095D01*
X88861619Y-98653714D02*
X88814000Y-98606095D01*
X88766381Y-98510857D01*
X88766381Y-98272761D01*
X88814000Y-98177523D01*
X88861619Y-98129904D01*
X88956857Y-98082285D01*
X89052095Y-98082285D01*
X89194952Y-98129904D01*
X89766381Y-98701333D01*
X89766381Y-98082285D01*
X89832381Y-110038095D02*
X88832381Y-110038095D01*
X88832381Y-109800000D01*
X88880000Y-109657142D01*
X88975238Y-109561904D01*
X89070476Y-109514285D01*
X89260952Y-109466666D01*
X89403810Y-109466666D01*
X89594286Y-109514285D01*
X89689524Y-109561904D01*
X89784762Y-109657142D01*
X89832381Y-109800000D01*
X89832381Y-110038095D01*
X88832381Y-109133333D02*
X88832381Y-108514285D01*
X89213333Y-108847619D01*
X89213333Y-108704761D01*
X89260952Y-108609523D01*
X89308571Y-108561904D01*
X89403810Y-108514285D01*
X89641905Y-108514285D01*
X89737143Y-108561904D01*
X89784762Y-108609523D01*
X89832381Y-108704761D01*
X89832381Y-108990476D01*
X89784762Y-109085714D01*
X89737143Y-109133333D01*
X73822381Y-138243333D02*
X74536667Y-138243333D01*
X74679524Y-138290953D01*
X74774762Y-138386191D01*
X74822381Y-138529048D01*
X74822381Y-138624286D01*
X74822381Y-137243333D02*
X74822381Y-137814762D01*
X74822381Y-137529048D02*
X73822381Y-137529048D01*
X73965238Y-137624286D01*
X74060476Y-137719524D01*
X74108095Y-137814762D01*
X99386667Y-94282381D02*
X99386667Y-94996667D01*
X99339047Y-95139524D01*
X99243809Y-95234762D01*
X99100952Y-95282381D01*
X99005714Y-95282381D01*
X100291429Y-94615714D02*
X100291429Y-95282381D01*
X100053333Y-94234762D02*
X99815238Y-94949048D01*
X100434286Y-94949048D01*
X97456667Y-63162381D02*
X97456667Y-63876667D01*
X97409047Y-64019524D01*
X97313809Y-64114762D01*
X97170952Y-64162381D01*
X97075714Y-64162381D01*
X97837619Y-63162381D02*
X98504286Y-63162381D01*
X98075714Y-64162381D01*
X71802667Y-83062381D02*
X71802667Y-83776667D01*
X71755047Y-83919524D01*
X71659809Y-84014762D01*
X71516952Y-84062381D01*
X71421714Y-84062381D01*
X72421714Y-83490952D02*
X72326476Y-83443333D01*
X72278857Y-83395714D01*
X72231238Y-83300476D01*
X72231238Y-83252857D01*
X72278857Y-83157619D01*
X72326476Y-83110000D01*
X72421714Y-83062381D01*
X72612191Y-83062381D01*
X72707429Y-83110000D01*
X72755048Y-83157619D01*
X72802667Y-83252857D01*
X72802667Y-83300476D01*
X72755048Y-83395714D01*
X72707429Y-83443333D01*
X72612191Y-83490952D01*
X72421714Y-83490952D01*
X72326476Y-83538571D01*
X72278857Y-83586190D01*
X72231238Y-83681429D01*
X72231238Y-83871905D01*
X72278857Y-83967143D01*
X72326476Y-84014762D01*
X72421714Y-84062381D01*
X72612191Y-84062381D01*
X72707429Y-84014762D01*
X72755048Y-83967143D01*
X72802667Y-83871905D01*
X72802667Y-83681429D01*
X72755048Y-83586190D01*
X72707429Y-83538571D01*
X72612191Y-83490952D01*
X92602381Y-91973333D02*
X93316667Y-91973333D01*
X93459524Y-92020953D01*
X93554762Y-92116191D01*
X93602381Y-92259048D01*
X93602381Y-92354286D01*
X93602381Y-91497143D02*
X92602381Y-91497143D01*
X92602381Y-91116190D01*
X92650000Y-91020952D01*
X92697619Y-90973333D01*
X92792857Y-90925714D01*
X92935714Y-90925714D01*
X93030952Y-90973333D01*
X93078571Y-91020952D01*
X93126190Y-91116190D01*
X93126190Y-91497143D01*
X93602381Y-89973333D02*
X93602381Y-90544762D01*
X93602381Y-90259048D02*
X92602381Y-90259048D01*
X92745238Y-90354286D01*
X92840476Y-90449524D01*
X92888095Y-90544762D01*
X65476381Y-85828095D02*
X64476381Y-85828095D01*
X64476381Y-85447142D01*
X64524000Y-85351904D01*
X64571619Y-85304285D01*
X64666857Y-85256666D01*
X64809714Y-85256666D01*
X64904952Y-85304285D01*
X64952571Y-85351904D01*
X65000190Y-85447142D01*
X65000190Y-85828095D01*
X65476381Y-84304285D02*
X65476381Y-84875714D01*
X65476381Y-84590000D02*
X64476381Y-84590000D01*
X64619238Y-84685238D01*
X64714476Y-84780476D01*
X64762095Y-84875714D01*
X81962381Y-68676666D02*
X81486190Y-69010000D01*
X81962381Y-69248095D02*
X80962381Y-69248095D01*
X80962381Y-68867142D01*
X81010000Y-68771904D01*
X81057619Y-68724285D01*
X81152857Y-68676666D01*
X81295714Y-68676666D01*
X81390952Y-68724285D01*
X81438571Y-68771904D01*
X81486190Y-68867142D01*
X81486190Y-69248095D01*
X81962381Y-67724285D02*
X81962381Y-68295714D01*
X81962381Y-68010000D02*
X80962381Y-68010000D01*
X81105238Y-68105238D01*
X81200476Y-68200476D01*
X81248095Y-68295714D01*
X105608381Y-69040666D02*
X105132190Y-69374000D01*
X105608381Y-69612095D02*
X104608381Y-69612095D01*
X104608381Y-69231142D01*
X104656000Y-69135904D01*
X104703619Y-69088285D01*
X104798857Y-69040666D01*
X104941714Y-69040666D01*
X105036952Y-69088285D01*
X105084571Y-69135904D01*
X105132190Y-69231142D01*
X105132190Y-69612095D01*
X104703619Y-68659714D02*
X104656000Y-68612095D01*
X104608381Y-68516857D01*
X104608381Y-68278761D01*
X104656000Y-68183523D01*
X104703619Y-68135904D01*
X104798857Y-68088285D01*
X104894095Y-68088285D01*
X105036952Y-68135904D01*
X105608381Y-68707333D01*
X105608381Y-68088285D01*
X102162381Y-68930666D02*
X101686190Y-69264000D01*
X102162381Y-69502095D02*
X101162381Y-69502095D01*
X101162381Y-69121142D01*
X101210000Y-69025904D01*
X101257619Y-68978285D01*
X101352857Y-68930666D01*
X101495714Y-68930666D01*
X101590952Y-68978285D01*
X101638571Y-69025904D01*
X101686190Y-69121142D01*
X101686190Y-69502095D01*
X101162381Y-68597333D02*
X101162381Y-67978285D01*
X101543333Y-68311619D01*
X101543333Y-68168761D01*
X101590952Y-68073523D01*
X101638571Y-68025904D01*
X101733810Y-67978285D01*
X101971905Y-67978285D01*
X102067143Y-68025904D01*
X102114762Y-68073523D01*
X102162381Y-68168761D01*
X102162381Y-68454476D01*
X102114762Y-68549714D01*
X102067143Y-68597333D01*
X68713334Y-107712381D02*
X68380000Y-107236190D01*
X68141905Y-107712381D02*
X68141905Y-106712381D01*
X68522858Y-106712381D01*
X68618096Y-106760000D01*
X68665715Y-106807619D01*
X68713334Y-106902857D01*
X68713334Y-107045714D01*
X68665715Y-107140952D01*
X68618096Y-107188571D01*
X68522858Y-107236190D01*
X68141905Y-107236190D01*
X69570477Y-107045714D02*
X69570477Y-107712381D01*
X69332381Y-106664762D02*
X69094286Y-107379048D01*
X69713334Y-107379048D01*
X57203334Y-118102381D02*
X56870000Y-117626190D01*
X56631905Y-118102381D02*
X56631905Y-117102381D01*
X57012858Y-117102381D01*
X57108096Y-117150000D01*
X57155715Y-117197619D01*
X57203334Y-117292857D01*
X57203334Y-117435714D01*
X57155715Y-117530952D01*
X57108096Y-117578571D01*
X57012858Y-117626190D01*
X56631905Y-117626190D01*
X58108096Y-117102381D02*
X57631905Y-117102381D01*
X57584286Y-117578571D01*
X57631905Y-117530952D01*
X57727143Y-117483333D01*
X57965239Y-117483333D01*
X58060477Y-117530952D01*
X58108096Y-117578571D01*
X58155715Y-117673810D01*
X58155715Y-117911905D01*
X58108096Y-118007143D01*
X58060477Y-118054762D01*
X57965239Y-118102381D01*
X57727143Y-118102381D01*
X57631905Y-118054762D01*
X57584286Y-118007143D01*
X109164381Y-69180666D02*
X108688190Y-69514000D01*
X109164381Y-69752095D02*
X108164381Y-69752095D01*
X108164381Y-69371142D01*
X108212000Y-69275904D01*
X108259619Y-69228285D01*
X108354857Y-69180666D01*
X108497714Y-69180666D01*
X108592952Y-69228285D01*
X108640571Y-69275904D01*
X108688190Y-69371142D01*
X108688190Y-69752095D01*
X108164381Y-68323523D02*
X108164381Y-68514000D01*
X108212000Y-68609238D01*
X108259619Y-68656857D01*
X108402476Y-68752095D01*
X108592952Y-68799714D01*
X108973905Y-68799714D01*
X109069143Y-68752095D01*
X109116762Y-68704476D01*
X109164381Y-68609238D01*
X109164381Y-68418761D01*
X109116762Y-68323523D01*
X109069143Y-68275904D01*
X108973905Y-68228285D01*
X108735810Y-68228285D01*
X108640571Y-68275904D01*
X108592952Y-68323523D01*
X108545333Y-68418761D01*
X108545333Y-68609238D01*
X108592952Y-68704476D01*
X108640571Y-68752095D01*
X108735810Y-68799714D01*
X68233334Y-117382381D02*
X67900000Y-116906190D01*
X67661905Y-117382381D02*
X67661905Y-116382381D01*
X68042858Y-116382381D01*
X68138096Y-116430000D01*
X68185715Y-116477619D01*
X68233334Y-116572857D01*
X68233334Y-116715714D01*
X68185715Y-116810952D01*
X68138096Y-116858571D01*
X68042858Y-116906190D01*
X67661905Y-116906190D01*
X68566667Y-116382381D02*
X69233334Y-116382381D01*
X68804762Y-117382381D01*
X68473334Y-114192381D02*
X68140000Y-113716190D01*
X67901905Y-114192381D02*
X67901905Y-113192381D01*
X68282858Y-113192381D01*
X68378096Y-113240000D01*
X68425715Y-113287619D01*
X68473334Y-113382857D01*
X68473334Y-113525714D01*
X68425715Y-113620952D01*
X68378096Y-113668571D01*
X68282858Y-113716190D01*
X67901905Y-113716190D01*
X69044762Y-113620952D02*
X68949524Y-113573333D01*
X68901905Y-113525714D01*
X68854286Y-113430476D01*
X68854286Y-113382857D01*
X68901905Y-113287619D01*
X68949524Y-113240000D01*
X69044762Y-113192381D01*
X69235239Y-113192381D01*
X69330477Y-113240000D01*
X69378096Y-113287619D01*
X69425715Y-113382857D01*
X69425715Y-113430476D01*
X69378096Y-113525714D01*
X69330477Y-113573333D01*
X69235239Y-113620952D01*
X69044762Y-113620952D01*
X68949524Y-113668571D01*
X68901905Y-113716190D01*
X68854286Y-113811429D01*
X68854286Y-114001905D01*
X68901905Y-114097143D01*
X68949524Y-114144762D01*
X69044762Y-114192381D01*
X69235239Y-114192381D01*
X69330477Y-114144762D01*
X69378096Y-114097143D01*
X69425715Y-114001905D01*
X69425715Y-113811429D01*
X69378096Y-113716190D01*
X69330477Y-113668571D01*
X69235239Y-113620952D01*
X117592381Y-83522857D02*
X117116190Y-83856191D01*
X117592381Y-84094286D02*
X116592381Y-84094286D01*
X116592381Y-83713333D01*
X116640000Y-83618095D01*
X116687619Y-83570476D01*
X116782857Y-83522857D01*
X116925714Y-83522857D01*
X117020952Y-83570476D01*
X117068571Y-83618095D01*
X117116190Y-83713333D01*
X117116190Y-84094286D01*
X117592381Y-82570476D02*
X117592381Y-83141905D01*
X117592381Y-82856191D02*
X116592381Y-82856191D01*
X116735238Y-82951429D01*
X116830476Y-83046667D01*
X116878095Y-83141905D01*
X116592381Y-81951429D02*
X116592381Y-81856190D01*
X116640000Y-81760952D01*
X116687619Y-81713333D01*
X116782857Y-81665714D01*
X116973333Y-81618095D01*
X117211429Y-81618095D01*
X117401905Y-81665714D01*
X117497143Y-81713333D01*
X117544762Y-81760952D01*
X117592381Y-81856190D01*
X117592381Y-81951429D01*
X117544762Y-82046667D01*
X117497143Y-82094286D01*
X117401905Y-82141905D01*
X117211429Y-82189524D01*
X116973333Y-82189524D01*
X116782857Y-82141905D01*
X116687619Y-82094286D01*
X116640000Y-82046667D01*
X116592381Y-81951429D01*
X120932381Y-83562857D02*
X120456190Y-83896191D01*
X120932381Y-84134286D02*
X119932381Y-84134286D01*
X119932381Y-83753333D01*
X119980000Y-83658095D01*
X120027619Y-83610476D01*
X120122857Y-83562857D01*
X120265714Y-83562857D01*
X120360952Y-83610476D01*
X120408571Y-83658095D01*
X120456190Y-83753333D01*
X120456190Y-84134286D01*
X120932381Y-82610476D02*
X120932381Y-83181905D01*
X120932381Y-82896191D02*
X119932381Y-82896191D01*
X120075238Y-82991429D01*
X120170476Y-83086667D01*
X120218095Y-83181905D01*
X120932381Y-81658095D02*
X120932381Y-82229524D01*
X120932381Y-81943810D02*
X119932381Y-81943810D01*
X120075238Y-82039048D01*
X120170476Y-82134286D01*
X120218095Y-82229524D01*
X110982381Y-83152857D02*
X110506190Y-83486191D01*
X110982381Y-83724286D02*
X109982381Y-83724286D01*
X109982381Y-83343333D01*
X110030000Y-83248095D01*
X110077619Y-83200476D01*
X110172857Y-83152857D01*
X110315714Y-83152857D01*
X110410952Y-83200476D01*
X110458571Y-83248095D01*
X110506190Y-83343333D01*
X110506190Y-83724286D01*
X110982381Y-82200476D02*
X110982381Y-82771905D01*
X110982381Y-82486191D02*
X109982381Y-82486191D01*
X110125238Y-82581429D01*
X110220476Y-82676667D01*
X110268095Y-82771905D01*
X110077619Y-81819524D02*
X110030000Y-81771905D01*
X109982381Y-81676667D01*
X109982381Y-81438571D01*
X110030000Y-81343333D01*
X110077619Y-81295714D01*
X110172857Y-81248095D01*
X110268095Y-81248095D01*
X110410952Y-81295714D01*
X110982381Y-81867143D01*
X110982381Y-81248095D01*
X107322381Y-93482857D02*
X106846190Y-93816191D01*
X107322381Y-94054286D02*
X106322381Y-94054286D01*
X106322381Y-93673333D01*
X106370000Y-93578095D01*
X106417619Y-93530476D01*
X106512857Y-93482857D01*
X106655714Y-93482857D01*
X106750952Y-93530476D01*
X106798571Y-93578095D01*
X106846190Y-93673333D01*
X106846190Y-94054286D01*
X107322381Y-92530476D02*
X107322381Y-93101905D01*
X107322381Y-92816191D02*
X106322381Y-92816191D01*
X106465238Y-92911429D01*
X106560476Y-93006667D01*
X106608095Y-93101905D01*
X106655714Y-91673333D02*
X107322381Y-91673333D01*
X106274762Y-91911429D02*
X106989048Y-92149524D01*
X106989048Y-91530476D01*
X110322381Y-93542857D02*
X109846190Y-93876191D01*
X110322381Y-94114286D02*
X109322381Y-94114286D01*
X109322381Y-93733333D01*
X109370000Y-93638095D01*
X109417619Y-93590476D01*
X109512857Y-93542857D01*
X109655714Y-93542857D01*
X109750952Y-93590476D01*
X109798571Y-93638095D01*
X109846190Y-93733333D01*
X109846190Y-94114286D01*
X110322381Y-92590476D02*
X110322381Y-93161905D01*
X110322381Y-92876191D02*
X109322381Y-92876191D01*
X109465238Y-92971429D01*
X109560476Y-93066667D01*
X109608095Y-93161905D01*
X109322381Y-91685714D02*
X109322381Y-92161905D01*
X109798571Y-92209524D01*
X109750952Y-92161905D01*
X109703333Y-92066667D01*
X109703333Y-91828571D01*
X109750952Y-91733333D01*
X109798571Y-91685714D01*
X109893810Y-91638095D01*
X110131905Y-91638095D01*
X110227143Y-91685714D01*
X110274762Y-91733333D01*
X110322381Y-91828571D01*
X110322381Y-92066667D01*
X110274762Y-92161905D01*
X110227143Y-92209524D01*
X57642381Y-100202857D02*
X57166190Y-100536191D01*
X57642381Y-100774286D02*
X56642381Y-100774286D01*
X56642381Y-100393333D01*
X56690000Y-100298095D01*
X56737619Y-100250476D01*
X56832857Y-100202857D01*
X56975714Y-100202857D01*
X57070952Y-100250476D01*
X57118571Y-100298095D01*
X57166190Y-100393333D01*
X57166190Y-100774286D01*
X57642381Y-99250476D02*
X57642381Y-99821905D01*
X57642381Y-99536191D02*
X56642381Y-99536191D01*
X56785238Y-99631429D01*
X56880476Y-99726667D01*
X56928095Y-99821905D01*
X56642381Y-98393333D02*
X56642381Y-98583810D01*
X56690000Y-98679048D01*
X56737619Y-98726667D01*
X56880476Y-98821905D01*
X57070952Y-98869524D01*
X57451905Y-98869524D01*
X57547143Y-98821905D01*
X57594762Y-98774286D01*
X57642381Y-98679048D01*
X57642381Y-98488571D01*
X57594762Y-98393333D01*
X57547143Y-98345714D01*
X57451905Y-98298095D01*
X57213810Y-98298095D01*
X57118571Y-98345714D01*
X57070952Y-98393333D01*
X57023333Y-98488571D01*
X57023333Y-98679048D01*
X57070952Y-98774286D01*
X57118571Y-98821905D01*
X57213810Y-98869524D01*
X54592381Y-100022857D02*
X54116190Y-100356191D01*
X54592381Y-100594286D02*
X53592381Y-100594286D01*
X53592381Y-100213333D01*
X53640000Y-100118095D01*
X53687619Y-100070476D01*
X53782857Y-100022857D01*
X53925714Y-100022857D01*
X54020952Y-100070476D01*
X54068571Y-100118095D01*
X54116190Y-100213333D01*
X54116190Y-100594286D01*
X54592381Y-99070476D02*
X54592381Y-99641905D01*
X54592381Y-99356191D02*
X53592381Y-99356191D01*
X53735238Y-99451429D01*
X53830476Y-99546667D01*
X53878095Y-99641905D01*
X53592381Y-98737143D02*
X53592381Y-98070476D01*
X54592381Y-98499048D01*
X93348381Y-83947238D02*
X92872190Y-84280572D01*
X93348381Y-84518667D02*
X92348381Y-84518667D01*
X92348381Y-84137714D01*
X92396000Y-84042476D01*
X92443619Y-83994857D01*
X92538857Y-83947238D01*
X92681714Y-83947238D01*
X92776952Y-83994857D01*
X92824571Y-84042476D01*
X92872190Y-84137714D01*
X92872190Y-84518667D01*
X92348381Y-83661524D02*
X93348381Y-83328191D01*
X92348381Y-82994857D01*
X93348381Y-82137714D02*
X93348381Y-82709143D01*
X93348381Y-82423429D02*
X92348381Y-82423429D01*
X92491238Y-82518667D01*
X92586476Y-82613905D01*
X92634095Y-82709143D01*
X63182667Y-68730762D02*
X63325524Y-68778381D01*
X63563620Y-68778381D01*
X63658858Y-68730762D01*
X63706477Y-68683143D01*
X63754096Y-68587905D01*
X63754096Y-68492667D01*
X63706477Y-68397429D01*
X63658858Y-68349810D01*
X63563620Y-68302190D01*
X63373143Y-68254571D01*
X63277905Y-68206952D01*
X63230286Y-68159333D01*
X63182667Y-68064095D01*
X63182667Y-67968857D01*
X63230286Y-67873619D01*
X63277905Y-67826000D01*
X63373143Y-67778381D01*
X63611239Y-67778381D01*
X63754096Y-67826000D01*
X64087429Y-67778381D02*
X64325524Y-68778381D01*
X64516001Y-68064095D01*
X64706477Y-68778381D01*
X64944572Y-67778381D01*
X65849334Y-68778381D02*
X65277905Y-68778381D01*
X65563619Y-68778381D02*
X65563619Y-67778381D01*
X65468381Y-67921238D01*
X65373143Y-68016476D01*
X65277905Y-68064095D01*
X81378095Y-112682381D02*
X81378095Y-113491905D01*
X81425714Y-113587143D01*
X81473333Y-113634762D01*
X81568571Y-113682381D01*
X81759048Y-113682381D01*
X81854286Y-113634762D01*
X81901905Y-113587143D01*
X81949524Y-113491905D01*
X81949524Y-112682381D01*
X82949524Y-113682381D02*
X82378095Y-113682381D01*
X82663809Y-113682381D02*
X82663809Y-112682381D01*
X82568571Y-112825238D01*
X82473333Y-112920476D01*
X82378095Y-112968095D01*
X81534095Y-74338381D02*
X81534095Y-75147905D01*
X81581714Y-75243143D01*
X81629333Y-75290762D01*
X81724571Y-75338381D01*
X81915048Y-75338381D01*
X82010286Y-75290762D01*
X82057905Y-75243143D01*
X82105524Y-75147905D01*
X82105524Y-74338381D01*
X82534095Y-74433619D02*
X82581714Y-74386000D01*
X82676952Y-74338381D01*
X82915048Y-74338381D01*
X83010286Y-74386000D01*
X83057905Y-74433619D01*
X83105524Y-74528857D01*
X83105524Y-74624095D01*
X83057905Y-74766952D01*
X82486476Y-75338381D01*
X83105524Y-75338381D01*
X127238095Y-111782381D02*
X127238095Y-112591905D01*
X127285714Y-112687143D01*
X127333333Y-112734762D01*
X127428571Y-112782381D01*
X127619048Y-112782381D01*
X127714286Y-112734762D01*
X127761905Y-112687143D01*
X127809524Y-112591905D01*
X127809524Y-111782381D01*
X128190476Y-111782381D02*
X128809524Y-111782381D01*
X128476190Y-112163333D01*
X128619048Y-112163333D01*
X128714286Y-112210952D01*
X128761905Y-112258571D01*
X128809524Y-112353810D01*
X128809524Y-112591905D01*
X128761905Y-112687143D01*
X128714286Y-112734762D01*
X128619048Y-112782381D01*
X128333333Y-112782381D01*
X128238095Y-112734762D01*
X128190476Y-112687143D01*
X95548095Y-128252381D02*
X95548095Y-129061905D01*
X95595714Y-129157143D01*
X95643333Y-129204762D01*
X95738571Y-129252381D01*
X95929048Y-129252381D01*
X96024286Y-129204762D01*
X96071905Y-129157143D01*
X96119524Y-129061905D01*
X96119524Y-128252381D01*
X97024286Y-128585714D02*
X97024286Y-129252381D01*
X96786190Y-128204762D02*
X96548095Y-128919048D01*
X97167143Y-128919048D01*
X73136190Y-95436191D02*
X73612381Y-95436191D01*
X72612381Y-95769524D02*
X73136190Y-95436191D01*
X72612381Y-95102857D01*
X73612381Y-94245714D02*
X73612381Y-94817143D01*
X73612381Y-94531429D02*
X72612381Y-94531429D01*
X72755238Y-94626667D01*
X72850476Y-94721905D01*
X72898095Y-94817143D01*
X91941905Y-64662381D02*
X91941905Y-63662381D01*
X92180000Y-63662381D01*
X92322858Y-63710000D01*
X92418096Y-63805238D01*
X92465715Y-63900476D01*
X92513334Y-64090952D01*
X92513334Y-64233810D01*
X92465715Y-64424286D01*
X92418096Y-64519524D01*
X92322858Y-64614762D01*
X92180000Y-64662381D01*
X91941905Y-64662381D01*
X93370477Y-63995714D02*
X93370477Y-64662381D01*
X93132381Y-63614762D02*
X92894286Y-64329048D01*
X93513334Y-64329048D01*
X85288381Y-69476857D02*
X84812190Y-69810191D01*
X85288381Y-70048286D02*
X84288381Y-70048286D01*
X84288381Y-69667333D01*
X84336000Y-69572095D01*
X84383619Y-69524476D01*
X84478857Y-69476857D01*
X84621714Y-69476857D01*
X84716952Y-69524476D01*
X84764571Y-69572095D01*
X84812190Y-69667333D01*
X84812190Y-70048286D01*
X85288381Y-68524476D02*
X85288381Y-69095905D01*
X85288381Y-68810191D02*
X84288381Y-68810191D01*
X84431238Y-68905429D01*
X84526476Y-69000667D01*
X84574095Y-69095905D01*
X84716952Y-67953048D02*
X84669333Y-68048286D01*
X84621714Y-68095905D01*
X84526476Y-68143524D01*
X84478857Y-68143524D01*
X84383619Y-68095905D01*
X84336000Y-68048286D01*
X84288381Y-67953048D01*
X84288381Y-67762571D01*
X84336000Y-67667333D01*
X84383619Y-67619714D01*
X84478857Y-67572095D01*
X84526476Y-67572095D01*
X84621714Y-67619714D01*
X84669333Y-67667333D01*
X84716952Y-67762571D01*
X84716952Y-67953048D01*
X84764571Y-68048286D01*
X84812190Y-68095905D01*
X84907429Y-68143524D01*
X85097905Y-68143524D01*
X85193143Y-68095905D01*
X85240762Y-68048286D01*
X85288381Y-67953048D01*
X85288381Y-67762571D01*
X85240762Y-67667333D01*
X85193143Y-67619714D01*
X85097905Y-67572095D01*
X84907429Y-67572095D01*
X84812190Y-67619714D01*
X84764571Y-67667333D01*
X84716952Y-67762571D01*
X62267619Y-101481238D02*
X62220000Y-101576476D01*
X62124762Y-101671714D01*
X61981905Y-101814571D01*
X61934286Y-101909810D01*
X61934286Y-102005048D01*
X62172381Y-101957429D02*
X62124762Y-102052667D01*
X62029524Y-102147905D01*
X61839048Y-102195524D01*
X61505714Y-102195524D01*
X61315238Y-102147905D01*
X61220000Y-102052667D01*
X61172381Y-101957429D01*
X61172381Y-101766952D01*
X61220000Y-101671714D01*
X61315238Y-101576476D01*
X61505714Y-101528857D01*
X61839048Y-101528857D01*
X62029524Y-101576476D01*
X62124762Y-101671714D01*
X62172381Y-101766952D01*
X62172381Y-101957429D01*
X62172381Y-100576476D02*
X62172381Y-101147905D01*
X62172381Y-100862191D02*
X61172381Y-100862191D01*
X61315238Y-100957429D01*
X61410476Y-101052667D01*
X61458095Y-101147905D01*
X71347143Y-102872381D02*
X71013809Y-102396190D01*
X70775714Y-102872381D02*
X70775714Y-101872381D01*
X71156667Y-101872381D01*
X71251905Y-101920000D01*
X71299524Y-101967619D01*
X71347143Y-102062857D01*
X71347143Y-102205714D01*
X71299524Y-102300952D01*
X71251905Y-102348571D01*
X71156667Y-102396190D01*
X70775714Y-102396190D01*
X72299524Y-102872381D02*
X71728095Y-102872381D01*
X72013809Y-102872381D02*
X72013809Y-101872381D01*
X71918571Y-102015238D01*
X71823333Y-102110476D01*
X71728095Y-102158095D01*
X72775714Y-102872381D02*
X72966190Y-102872381D01*
X73061429Y-102824762D01*
X73109048Y-102777143D01*
X73204286Y-102634286D01*
X73251905Y-102443810D01*
X73251905Y-102062857D01*
X73204286Y-101967619D01*
X73156667Y-101920000D01*
X73061429Y-101872381D01*
X72870952Y-101872381D01*
X72775714Y-101920000D01*
X72728095Y-101967619D01*
X72680476Y-102062857D01*
X72680476Y-102300952D01*
X72728095Y-102396190D01*
X72775714Y-102443810D01*
X72870952Y-102491429D01*
X73061429Y-102491429D01*
X73156667Y-102443810D01*
X73204286Y-102396190D01*
X73251905Y-102300952D01*
X65790381Y-96845333D02*
X66504667Y-96845333D01*
X66647524Y-96892953D01*
X66742762Y-96988191D01*
X66790381Y-97131048D01*
X66790381Y-97226286D01*
X66790381Y-96369143D02*
X65790381Y-96369143D01*
X65790381Y-95988190D01*
X65838000Y-95892952D01*
X65885619Y-95845333D01*
X65980857Y-95797714D01*
X66123714Y-95797714D01*
X66218952Y-95845333D01*
X66266571Y-95892952D01*
X66314190Y-95988190D01*
X66314190Y-96369143D01*
X65885619Y-95416762D02*
X65838000Y-95369143D01*
X65790381Y-95273905D01*
X65790381Y-95035809D01*
X65838000Y-94940571D01*
X65885619Y-94892952D01*
X65980857Y-94845333D01*
X66076095Y-94845333D01*
X66218952Y-94892952D01*
X66790381Y-95464381D01*
X66790381Y-94845333D01*
X69182381Y-81662857D02*
X68706190Y-81996191D01*
X69182381Y-82234286D02*
X68182381Y-82234286D01*
X68182381Y-81853333D01*
X68230000Y-81758095D01*
X68277619Y-81710476D01*
X68372857Y-81662857D01*
X68515714Y-81662857D01*
X68610952Y-81710476D01*
X68658571Y-81758095D01*
X68706190Y-81853333D01*
X68706190Y-82234286D01*
X68277619Y-81281905D02*
X68230000Y-81234286D01*
X68182381Y-81139048D01*
X68182381Y-80900952D01*
X68230000Y-80805714D01*
X68277619Y-80758095D01*
X68372857Y-80710476D01*
X68468095Y-80710476D01*
X68610952Y-80758095D01*
X69182381Y-81329524D01*
X69182381Y-80710476D01*
X68182381Y-80091429D02*
X68182381Y-79996190D01*
X68230000Y-79900952D01*
X68277619Y-79853333D01*
X68372857Y-79805714D01*
X68563333Y-79758095D01*
X68801429Y-79758095D01*
X68991905Y-79805714D01*
X69087143Y-79853333D01*
X69134762Y-79900952D01*
X69182381Y-79996190D01*
X69182381Y-80091429D01*
X69134762Y-80186667D01*
X69087143Y-80234286D01*
X68991905Y-80281905D01*
X68801429Y-80329524D01*
X68563333Y-80329524D01*
X68372857Y-80281905D01*
X68277619Y-80234286D01*
X68230000Y-80186667D01*
X68182381Y-80091429D01*
X80100477Y-135152381D02*
X80100477Y-135866667D01*
X80052857Y-136009524D01*
X79957619Y-136104762D01*
X79814762Y-136152381D01*
X79719524Y-136152381D01*
X81100477Y-136152381D02*
X80529048Y-136152381D01*
X80814762Y-136152381D02*
X80814762Y-135152381D01*
X80719524Y-135295238D01*
X80624286Y-135390476D01*
X80529048Y-135438095D01*
X82052858Y-136152381D02*
X81481429Y-136152381D01*
X81767143Y-136152381D02*
X81767143Y-135152381D01*
X81671905Y-135295238D01*
X81576667Y-135390476D01*
X81481429Y-135438095D01*
X105424762Y-75755619D02*
X105329524Y-75708000D01*
X105234286Y-75612762D01*
X105091429Y-75469905D01*
X104996190Y-75422286D01*
X104900952Y-75422286D01*
X104948571Y-75660381D02*
X104853333Y-75612762D01*
X104758095Y-75517524D01*
X104710476Y-75327048D01*
X104710476Y-74993714D01*
X104758095Y-74803238D01*
X104853333Y-74708000D01*
X104948571Y-74660381D01*
X105139048Y-74660381D01*
X105234286Y-74708000D01*
X105329524Y-74803238D01*
X105377143Y-74993714D01*
X105377143Y-75327048D01*
X105329524Y-75517524D01*
X105234286Y-75612762D01*
X105139048Y-75660381D01*
X104948571Y-75660381D01*
X105758095Y-74755619D02*
X105805714Y-74708000D01*
X105900952Y-74660381D01*
X106139048Y-74660381D01*
X106234286Y-74708000D01*
X106281905Y-74755619D01*
X106329524Y-74850857D01*
X106329524Y-74946095D01*
X106281905Y-75088952D01*
X105710476Y-75660381D01*
X106329524Y-75660381D01*
X95892381Y-109212857D02*
X95416190Y-109546191D01*
X95892381Y-109784286D02*
X94892381Y-109784286D01*
X94892381Y-109403333D01*
X94940000Y-109308095D01*
X94987619Y-109260476D01*
X95082857Y-109212857D01*
X95225714Y-109212857D01*
X95320952Y-109260476D01*
X95368571Y-109308095D01*
X95416190Y-109403333D01*
X95416190Y-109784286D01*
X94987619Y-108831905D02*
X94940000Y-108784286D01*
X94892381Y-108689048D01*
X94892381Y-108450952D01*
X94940000Y-108355714D01*
X94987619Y-108308095D01*
X95082857Y-108260476D01*
X95178095Y-108260476D01*
X95320952Y-108308095D01*
X95892381Y-108879524D01*
X95892381Y-108260476D01*
X95892381Y-107308095D02*
X95892381Y-107879524D01*
X95892381Y-107593810D02*
X94892381Y-107593810D01*
X95035238Y-107689048D01*
X95130476Y-107784286D01*
X95178095Y-107879524D01*
X105137143Y-129496666D02*
X105184762Y-129544285D01*
X105232381Y-129687142D01*
X105232381Y-129782380D01*
X105184762Y-129925238D01*
X105089524Y-130020476D01*
X104994286Y-130068095D01*
X104803810Y-130115714D01*
X104660952Y-130115714D01*
X104470476Y-130068095D01*
X104375238Y-130020476D01*
X104280000Y-129925238D01*
X104232381Y-129782380D01*
X104232381Y-129687142D01*
X104280000Y-129544285D01*
X104327619Y-129496666D01*
X105232381Y-129020476D02*
X105232381Y-128830000D01*
X105184762Y-128734761D01*
X105137143Y-128687142D01*
X104994286Y-128591904D01*
X104803810Y-128544285D01*
X104422857Y-128544285D01*
X104327619Y-128591904D01*
X104280000Y-128639523D01*
X104232381Y-128734761D01*
X104232381Y-128925238D01*
X104280000Y-129020476D01*
X104327619Y-129068095D01*
X104422857Y-129115714D01*
X104660952Y-129115714D01*
X104756190Y-129068095D01*
X104803810Y-129020476D01*
X104851429Y-128925238D01*
X104851429Y-128734761D01*
X104803810Y-128639523D01*
X104756190Y-128591904D01*
X104660952Y-128544285D01*
X116987143Y-119687143D02*
X116939524Y-119734762D01*
X116796667Y-119782381D01*
X116701429Y-119782381D01*
X116558571Y-119734762D01*
X116463333Y-119639524D01*
X116415714Y-119544286D01*
X116368095Y-119353810D01*
X116368095Y-119210952D01*
X116415714Y-119020476D01*
X116463333Y-118925238D01*
X116558571Y-118830000D01*
X116701429Y-118782381D01*
X116796667Y-118782381D01*
X116939524Y-118830000D01*
X116987143Y-118877619D01*
X117939524Y-119782381D02*
X117368095Y-119782381D01*
X117653809Y-119782381D02*
X117653809Y-118782381D01*
X117558571Y-118925238D01*
X117463333Y-119020476D01*
X117368095Y-119068095D01*
X118558571Y-118782381D02*
X118653810Y-118782381D01*
X118749048Y-118830000D01*
X118796667Y-118877619D01*
X118844286Y-118972857D01*
X118891905Y-119163333D01*
X118891905Y-119401429D01*
X118844286Y-119591905D01*
X118796667Y-119687143D01*
X118749048Y-119734762D01*
X118653810Y-119782381D01*
X118558571Y-119782381D01*
X118463333Y-119734762D01*
X118415714Y-119687143D01*
X118368095Y-119591905D01*
X118320476Y-119401429D01*
X118320476Y-119163333D01*
X118368095Y-118972857D01*
X118415714Y-118877619D01*
X118463333Y-118830000D01*
X118558571Y-118782381D01*
X110282381Y-123928095D02*
X109282381Y-123928095D01*
X109282381Y-123690000D01*
X109330000Y-123547142D01*
X109425238Y-123451904D01*
X109520476Y-123404285D01*
X109710952Y-123356666D01*
X109853810Y-123356666D01*
X110044286Y-123404285D01*
X110139524Y-123451904D01*
X110234762Y-123547142D01*
X110282381Y-123690000D01*
X110282381Y-123928095D01*
X109282381Y-122451904D02*
X109282381Y-122928095D01*
X109758571Y-122975714D01*
X109710952Y-122928095D01*
X109663333Y-122832857D01*
X109663333Y-122594761D01*
X109710952Y-122499523D01*
X109758571Y-122451904D01*
X109853810Y-122404285D01*
X110091905Y-122404285D01*
X110187143Y-122451904D01*
X110234762Y-122499523D01*
X110282381Y-122594761D01*
X110282381Y-122832857D01*
X110234762Y-122928095D01*
X110187143Y-122975714D01*
X124531905Y-117392381D02*
X124531905Y-116392381D01*
X124770000Y-116392381D01*
X124912858Y-116440000D01*
X125008096Y-116535238D01*
X125055715Y-116630476D01*
X125103334Y-116820952D01*
X125103334Y-116963810D01*
X125055715Y-117154286D01*
X125008096Y-117249524D01*
X124912858Y-117344762D01*
X124770000Y-117392381D01*
X124531905Y-117392381D01*
X125960477Y-116392381D02*
X125770000Y-116392381D01*
X125674762Y-116440000D01*
X125627143Y-116487619D01*
X125531905Y-116630476D01*
X125484286Y-116820952D01*
X125484286Y-117201905D01*
X125531905Y-117297143D01*
X125579524Y-117344762D01*
X125674762Y-117392381D01*
X125865239Y-117392381D01*
X125960477Y-117344762D01*
X126008096Y-117297143D01*
X126055715Y-117201905D01*
X126055715Y-116963810D01*
X126008096Y-116868571D01*
X125960477Y-116820952D01*
X125865239Y-116773333D01*
X125674762Y-116773333D01*
X125579524Y-116820952D01*
X125531905Y-116868571D01*
X125484286Y-116963810D01*
D13*
X115450477Y-134720381D02*
X115450477Y-135434667D01*
X115402857Y-135577524D01*
X115307619Y-135672762D01*
X115164762Y-135720381D01*
X115069524Y-135720381D01*
X116450477Y-135720381D02*
X115879048Y-135720381D01*
X116164762Y-135720381D02*
X116164762Y-134720381D01*
X116069524Y-134863238D01*
X115974286Y-134958476D01*
X115879048Y-135006095D01*
X116831429Y-134815619D02*
X116879048Y-134768000D01*
X116974286Y-134720381D01*
X117212382Y-134720381D01*
X117307620Y-134768000D01*
X117355239Y-134815619D01*
X117402858Y-134910857D01*
X117402858Y-135006095D01*
X117355239Y-135148952D01*
X116783810Y-135720381D01*
X117402858Y-135720381D01*
D11*
X121767143Y-126432381D02*
X121433809Y-125956190D01*
X121195714Y-126432381D02*
X121195714Y-125432381D01*
X121576667Y-125432381D01*
X121671905Y-125480000D01*
X121719524Y-125527619D01*
X121767143Y-125622857D01*
X121767143Y-125765714D01*
X121719524Y-125860952D01*
X121671905Y-125908571D01*
X121576667Y-125956190D01*
X121195714Y-125956190D01*
X122148095Y-125527619D02*
X122195714Y-125480000D01*
X122290952Y-125432381D01*
X122529048Y-125432381D01*
X122624286Y-125480000D01*
X122671905Y-125527619D01*
X122719524Y-125622857D01*
X122719524Y-125718095D01*
X122671905Y-125860952D01*
X122100476Y-126432381D01*
X122719524Y-126432381D01*
X123100476Y-125527619D02*
X123148095Y-125480000D01*
X123243333Y-125432381D01*
X123481429Y-125432381D01*
X123576667Y-125480000D01*
X123624286Y-125527619D01*
X123671905Y-125622857D01*
X123671905Y-125718095D01*
X123624286Y-125860952D01*
X123052857Y-126432381D01*
X123671905Y-126432381D01*
X121507143Y-122382381D02*
X121173809Y-121906190D01*
X120935714Y-122382381D02*
X120935714Y-121382381D01*
X121316667Y-121382381D01*
X121411905Y-121430000D01*
X121459524Y-121477619D01*
X121507143Y-121572857D01*
X121507143Y-121715714D01*
X121459524Y-121810952D01*
X121411905Y-121858571D01*
X121316667Y-121906190D01*
X120935714Y-121906190D01*
X121888095Y-121477619D02*
X121935714Y-121430000D01*
X122030952Y-121382381D01*
X122269048Y-121382381D01*
X122364286Y-121430000D01*
X122411905Y-121477619D01*
X122459524Y-121572857D01*
X122459524Y-121668095D01*
X122411905Y-121810952D01*
X121840476Y-122382381D01*
X122459524Y-122382381D01*
X122792857Y-121382381D02*
X123411905Y-121382381D01*
X123078571Y-121763333D01*
X123221429Y-121763333D01*
X123316667Y-121810952D01*
X123364286Y-121858571D01*
X123411905Y-121953810D01*
X123411905Y-122191905D01*
X123364286Y-122287143D01*
X123316667Y-122334762D01*
X123221429Y-122382381D01*
X122935714Y-122382381D01*
X122840476Y-122334762D01*
X122792857Y-122287143D01*
X113472381Y-113342857D02*
X112996190Y-113676191D01*
X113472381Y-113914286D02*
X112472381Y-113914286D01*
X112472381Y-113533333D01*
X112520000Y-113438095D01*
X112567619Y-113390476D01*
X112662857Y-113342857D01*
X112805714Y-113342857D01*
X112900952Y-113390476D01*
X112948571Y-113438095D01*
X112996190Y-113533333D01*
X112996190Y-113914286D01*
X112567619Y-112961905D02*
X112520000Y-112914286D01*
X112472381Y-112819048D01*
X112472381Y-112580952D01*
X112520000Y-112485714D01*
X112567619Y-112438095D01*
X112662857Y-112390476D01*
X112758095Y-112390476D01*
X112900952Y-112438095D01*
X113472381Y-113009524D01*
X113472381Y-112390476D01*
X112805714Y-111533333D02*
X113472381Y-111533333D01*
X112424762Y-111771429D02*
X113139048Y-112009524D01*
X113139048Y-111390476D01*
X75682381Y-109602857D02*
X75206190Y-109936191D01*
X75682381Y-110174286D02*
X74682381Y-110174286D01*
X74682381Y-109793333D01*
X74730000Y-109698095D01*
X74777619Y-109650476D01*
X74872857Y-109602857D01*
X75015714Y-109602857D01*
X75110952Y-109650476D01*
X75158571Y-109698095D01*
X75206190Y-109793333D01*
X75206190Y-110174286D01*
X74777619Y-109221905D02*
X74730000Y-109174286D01*
X74682381Y-109079048D01*
X74682381Y-108840952D01*
X74730000Y-108745714D01*
X74777619Y-108698095D01*
X74872857Y-108650476D01*
X74968095Y-108650476D01*
X75110952Y-108698095D01*
X75682381Y-109269524D01*
X75682381Y-108650476D01*
X74682381Y-107745714D02*
X74682381Y-108221905D01*
X75158571Y-108269524D01*
X75110952Y-108221905D01*
X75063333Y-108126667D01*
X75063333Y-107888571D01*
X75110952Y-107793333D01*
X75158571Y-107745714D01*
X75253810Y-107698095D01*
X75491905Y-107698095D01*
X75587143Y-107745714D01*
X75634762Y-107793333D01*
X75682381Y-107888571D01*
X75682381Y-108126667D01*
X75634762Y-108221905D01*
X75587143Y-108269524D01*
X119138095Y-95352381D02*
X119138095Y-96161905D01*
X119185714Y-96257143D01*
X119233333Y-96304762D01*
X119328571Y-96352381D01*
X119519048Y-96352381D01*
X119614286Y-96304762D01*
X119661905Y-96257143D01*
X119709524Y-96161905D01*
X119709524Y-95352381D01*
X120661905Y-95352381D02*
X120185714Y-95352381D01*
X120138095Y-95828571D01*
X120185714Y-95780952D01*
X120280952Y-95733333D01*
X120519048Y-95733333D01*
X120614286Y-95780952D01*
X120661905Y-95828571D01*
X120709524Y-95923810D01*
X120709524Y-96161905D01*
X120661905Y-96257143D01*
X120614286Y-96304762D01*
X120519048Y-96352381D01*
X120280952Y-96352381D01*
X120185714Y-96304762D01*
X120138095Y-96257143D01*
X113382381Y-123782857D02*
X112906190Y-124116191D01*
X113382381Y-124354286D02*
X112382381Y-124354286D01*
X112382381Y-123973333D01*
X112430000Y-123878095D01*
X112477619Y-123830476D01*
X112572857Y-123782857D01*
X112715714Y-123782857D01*
X112810952Y-123830476D01*
X112858571Y-123878095D01*
X112906190Y-123973333D01*
X112906190Y-124354286D01*
X112477619Y-123401905D02*
X112430000Y-123354286D01*
X112382381Y-123259048D01*
X112382381Y-123020952D01*
X112430000Y-122925714D01*
X112477619Y-122878095D01*
X112572857Y-122830476D01*
X112668095Y-122830476D01*
X112810952Y-122878095D01*
X113382381Y-123449524D01*
X113382381Y-122830476D01*
X112382381Y-121973333D02*
X112382381Y-122163810D01*
X112430000Y-122259048D01*
X112477619Y-122306667D01*
X112620476Y-122401905D01*
X112810952Y-122449524D01*
X113191905Y-122449524D01*
X113287143Y-122401905D01*
X113334762Y-122354286D01*
X113382381Y-122259048D01*
X113382381Y-122068571D01*
X113334762Y-121973333D01*
X113287143Y-121925714D01*
X113191905Y-121878095D01*
X112953810Y-121878095D01*
X112858571Y-121925714D01*
X112810952Y-121973333D01*
X112763333Y-122068571D01*
X112763333Y-122259048D01*
X112810952Y-122354286D01*
X112858571Y-122401905D01*
X112953810Y-122449524D01*
X108807143Y-105422857D02*
X108854762Y-105470476D01*
X108902381Y-105613333D01*
X108902381Y-105708571D01*
X108854762Y-105851429D01*
X108759524Y-105946667D01*
X108664286Y-105994286D01*
X108473810Y-106041905D01*
X108330952Y-106041905D01*
X108140476Y-105994286D01*
X108045238Y-105946667D01*
X107950000Y-105851429D01*
X107902381Y-105708571D01*
X107902381Y-105613333D01*
X107950000Y-105470476D01*
X107997619Y-105422857D01*
X108902381Y-104470476D02*
X108902381Y-105041905D01*
X108902381Y-104756191D02*
X107902381Y-104756191D01*
X108045238Y-104851429D01*
X108140476Y-104946667D01*
X108188095Y-105041905D01*
X108902381Y-103518095D02*
X108902381Y-104089524D01*
X108902381Y-103803810D02*
X107902381Y-103803810D01*
X108045238Y-103899048D01*
X108140476Y-103994286D01*
X108188095Y-104089524D01*
X107382381Y-123738095D02*
X106382381Y-123738095D01*
X106382381Y-123500000D01*
X106430000Y-123357142D01*
X106525238Y-123261904D01*
X106620476Y-123214285D01*
X106810952Y-123166666D01*
X106953810Y-123166666D01*
X107144286Y-123214285D01*
X107239524Y-123261904D01*
X107334762Y-123357142D01*
X107382381Y-123500000D01*
X107382381Y-123738095D01*
X106382381Y-122833333D02*
X106382381Y-122166666D01*
X107382381Y-122595238D01*
X110172381Y-113632857D02*
X109696190Y-113966191D01*
X110172381Y-114204286D02*
X109172381Y-114204286D01*
X109172381Y-113823333D01*
X109220000Y-113728095D01*
X109267619Y-113680476D01*
X109362857Y-113632857D01*
X109505714Y-113632857D01*
X109600952Y-113680476D01*
X109648571Y-113728095D01*
X109696190Y-113823333D01*
X109696190Y-114204286D01*
X109267619Y-113251905D02*
X109220000Y-113204286D01*
X109172381Y-113109048D01*
X109172381Y-112870952D01*
X109220000Y-112775714D01*
X109267619Y-112728095D01*
X109362857Y-112680476D01*
X109458095Y-112680476D01*
X109600952Y-112728095D01*
X110172381Y-113299524D01*
X110172381Y-112680476D01*
X109172381Y-112347143D02*
X109172381Y-111680476D01*
X110172381Y-112109048D01*
X124982381Y-91342857D02*
X124506190Y-91676191D01*
X124982381Y-91914286D02*
X123982381Y-91914286D01*
X123982381Y-91533333D01*
X124030000Y-91438095D01*
X124077619Y-91390476D01*
X124172857Y-91342857D01*
X124315714Y-91342857D01*
X124410952Y-91390476D01*
X124458571Y-91438095D01*
X124506190Y-91533333D01*
X124506190Y-91914286D01*
X124077619Y-90961905D02*
X124030000Y-90914286D01*
X123982381Y-90819048D01*
X123982381Y-90580952D01*
X124030000Y-90485714D01*
X124077619Y-90438095D01*
X124172857Y-90390476D01*
X124268095Y-90390476D01*
X124410952Y-90438095D01*
X124982381Y-91009524D01*
X124982381Y-90390476D01*
X124410952Y-89819048D02*
X124363333Y-89914286D01*
X124315714Y-89961905D01*
X124220476Y-90009524D01*
X124172857Y-90009524D01*
X124077619Y-89961905D01*
X124030000Y-89914286D01*
X123982381Y-89819048D01*
X123982381Y-89628571D01*
X124030000Y-89533333D01*
X124077619Y-89485714D01*
X124172857Y-89438095D01*
X124220476Y-89438095D01*
X124315714Y-89485714D01*
X124363333Y-89533333D01*
X124410952Y-89628571D01*
X124410952Y-89819048D01*
X124458571Y-89914286D01*
X124506190Y-89961905D01*
X124601429Y-90009524D01*
X124791905Y-90009524D01*
X124887143Y-89961905D01*
X124934762Y-89914286D01*
X124982381Y-89819048D01*
X124982381Y-89628571D01*
X124934762Y-89533333D01*
X124887143Y-89485714D01*
X124791905Y-89438095D01*
X124601429Y-89438095D01*
X124506190Y-89485714D01*
X124458571Y-89533333D01*
X124410952Y-89628571D01*
X117657143Y-90172381D02*
X117323809Y-89696190D01*
X117085714Y-90172381D02*
X117085714Y-89172381D01*
X117466667Y-89172381D01*
X117561905Y-89220000D01*
X117609524Y-89267619D01*
X117657143Y-89362857D01*
X117657143Y-89505714D01*
X117609524Y-89600952D01*
X117561905Y-89648571D01*
X117466667Y-89696190D01*
X117085714Y-89696190D01*
X118038095Y-89267619D02*
X118085714Y-89220000D01*
X118180952Y-89172381D01*
X118419048Y-89172381D01*
X118514286Y-89220000D01*
X118561905Y-89267619D01*
X118609524Y-89362857D01*
X118609524Y-89458095D01*
X118561905Y-89600952D01*
X117990476Y-90172381D01*
X118609524Y-90172381D01*
X119085714Y-90172381D02*
X119276190Y-90172381D01*
X119371429Y-90124762D01*
X119419048Y-90077143D01*
X119514286Y-89934286D01*
X119561905Y-89743810D01*
X119561905Y-89362857D01*
X119514286Y-89267619D01*
X119466667Y-89220000D01*
X119371429Y-89172381D01*
X119180952Y-89172381D01*
X119085714Y-89220000D01*
X119038095Y-89267619D01*
X118990476Y-89362857D01*
X118990476Y-89600952D01*
X119038095Y-89696190D01*
X119085714Y-89743810D01*
X119180952Y-89791429D01*
X119371429Y-89791429D01*
X119466667Y-89743810D01*
X119514286Y-89696190D01*
X119561905Y-89600952D01*
X88447143Y-127342857D02*
X88494762Y-127390476D01*
X88542381Y-127533333D01*
X88542381Y-127628571D01*
X88494762Y-127771429D01*
X88399524Y-127866667D01*
X88304286Y-127914286D01*
X88113810Y-127961905D01*
X87970952Y-127961905D01*
X87780476Y-127914286D01*
X87685238Y-127866667D01*
X87590000Y-127771429D01*
X87542381Y-127628571D01*
X87542381Y-127533333D01*
X87590000Y-127390476D01*
X87637619Y-127342857D01*
X88542381Y-126390476D02*
X88542381Y-126961905D01*
X88542381Y-126676191D02*
X87542381Y-126676191D01*
X87685238Y-126771429D01*
X87780476Y-126866667D01*
X87828095Y-126961905D01*
X87637619Y-126009524D02*
X87590000Y-125961905D01*
X87542381Y-125866667D01*
X87542381Y-125628571D01*
X87590000Y-125533333D01*
X87637619Y-125485714D01*
X87732857Y-125438095D01*
X87828095Y-125438095D01*
X87970952Y-125485714D01*
X88542381Y-126057143D01*
X88542381Y-125438095D01*
X82627143Y-127552857D02*
X82674762Y-127600476D01*
X82722381Y-127743333D01*
X82722381Y-127838571D01*
X82674762Y-127981429D01*
X82579524Y-128076667D01*
X82484286Y-128124286D01*
X82293810Y-128171905D01*
X82150952Y-128171905D01*
X81960476Y-128124286D01*
X81865238Y-128076667D01*
X81770000Y-127981429D01*
X81722381Y-127838571D01*
X81722381Y-127743333D01*
X81770000Y-127600476D01*
X81817619Y-127552857D01*
X82722381Y-126600476D02*
X82722381Y-127171905D01*
X82722381Y-126886191D02*
X81722381Y-126886191D01*
X81865238Y-126981429D01*
X81960476Y-127076667D01*
X82008095Y-127171905D01*
X81722381Y-126267143D02*
X81722381Y-125648095D01*
X82103333Y-125981429D01*
X82103333Y-125838571D01*
X82150952Y-125743333D01*
X82198571Y-125695714D01*
X82293810Y-125648095D01*
X82531905Y-125648095D01*
X82627143Y-125695714D01*
X82674762Y-125743333D01*
X82722381Y-125838571D01*
X82722381Y-126124286D01*
X82674762Y-126219524D01*
X82627143Y-126267143D01*
X70072095Y-122808381D02*
X70643524Y-122808381D01*
X70357809Y-123808381D02*
X70357809Y-122808381D01*
X71500667Y-123808381D02*
X70929238Y-123808381D01*
X71214952Y-123808381D02*
X71214952Y-122808381D01*
X71119714Y-122951238D01*
X71024476Y-123046476D01*
X70929238Y-123094095D01*
X73437477Y-123967214D02*
X73437477Y-124633881D01*
X73199381Y-123586262D02*
X72961286Y-124300548D01*
X73580334Y-124300548D01*
X67516167Y-123570381D02*
X68135215Y-123570381D01*
X67801881Y-123951333D01*
X67944739Y-123951333D01*
X68039977Y-123998952D01*
X68087596Y-124046571D01*
X68135215Y-124141810D01*
X68135215Y-124379905D01*
X68087596Y-124475143D01*
X68039977Y-124522762D01*
X67944739Y-124570381D01*
X67659024Y-124570381D01*
X67563786Y-124522762D01*
X67516167Y-124475143D01*
X72961286Y-121316119D02*
X73008905Y-121268500D01*
X73104143Y-121220881D01*
X73342239Y-121220881D01*
X73437477Y-121268500D01*
X73485096Y-121316119D01*
X73532715Y-121411357D01*
X73532715Y-121506595D01*
X73485096Y-121649452D01*
X72913667Y-122220881D01*
X73532715Y-122220881D01*
X68135215Y-122220881D02*
X67563786Y-122220881D01*
X67849500Y-122220881D02*
X67849500Y-121220881D01*
X67754262Y-121363738D01*
X67659024Y-121458976D01*
X67563786Y-121506595D01*
M02*
