M48
;DRILL file {KiCad 4.0.7} date 01/02/22 20:16:06
;FORMAT={-:-/ absolute / metric / decimal}
FMAT,2
METRIC,TZ
T1C0.400
T2C0.800
T3C0.900
T4C1.000
T5C1.100
T6C1.200
T7C1.500
T8C1.520
%
G90
G05
M71
T1
X81.534Y-80.01
X89.13Y-111.26
X90.78Y-119.61
X95.42Y-123.28
X96.45Y-96.85
X97.05Y-124.11
X97.43Y-119.28
X103.124Y-97.536
X103.124Y-101.346
X103.14Y-106.96
X104.72Y-110.28
X107.87Y-108.26
X108.7Y-106.6
T2
X53.68Y-117.65
X53.97Y-95.46
X53.97Y-103.08
X56.Y-71.
X56.Y-73.5
X57.19Y-95.51
X57.19Y-103.13
X61.3Y-117.65
X62.03Y-81.91
X62.03Y-84.01
X62.03Y-86.61
X62.03Y-88.71
X64.26Y-99.1
X64.26Y-101.64
X64.26Y-104.18
X64.65Y-116.93
X64.68Y-113.69
X64.83Y-81.91
X64.83Y-88.71
X64.92Y-107.37
X66.77Y-122.34
X66.77Y-124.88
X68.11Y-102.49
X68.56Y-87.17
X68.56Y-92.17
X68.56Y-94.6
X68.56Y-99.6
X68.73Y-77.21
X68.73Y-84.83
X71.9Y-87.2
X72.27Y-116.93
X72.3Y-113.69
X72.54Y-107.37
X72.67Y-66.9
X73.26Y-92.46
X73.26Y-97.34
X74.39Y-122.34
X74.39Y-124.88
X74.4Y-87.2
X75.17Y-66.9
X75.2Y-105.17
X75.2Y-112.79
X75.73Y-102.49
X77.5Y-127.
X78.33Y-64.81
X78.33Y-72.43
X78.48Y-121.23
X78.48Y-123.73
X78.486Y-77.216
X78.486Y-79.756
X78.486Y-82.296
X78.486Y-84.836
X78.486Y-87.376
X78.486Y-89.916
X78.486Y-92.456
X78.486Y-94.996
X78.486Y-97.536
X78.486Y-100.076
X78.486Y-102.616
X78.486Y-105.156
X78.486Y-107.696
X78.486Y-110.236
X80.Y-127.
X81.46Y-64.69
X81.46Y-72.31
X83.02Y-122.35
X83.09Y-126.93
X84.836Y-65.024
X84.836Y-72.644
X85.52Y-122.35
X85.59Y-126.93
X86.106Y-77.216
X86.106Y-79.756
X86.106Y-82.296
X86.106Y-84.836
X86.106Y-87.376
X86.106Y-89.916
X86.106Y-92.456
X86.106Y-94.996
X86.106Y-97.536
X86.106Y-100.076
X86.106Y-102.616
X86.106Y-105.156
X86.106Y-107.696
X86.106Y-110.236
X89.34Y-94.98
X89.34Y-102.6
X89.38Y-105.54
X89.38Y-113.16
X92.33Y-107.01
X92.33Y-114.63
X95.55Y-104.87
X95.55Y-112.49
X96.15Y-115.34
X98.65Y-115.34
X101.6Y-65.024
X101.6Y-72.644
X105.156Y-65.024
X105.156Y-72.644
X105.52Y-77.24
X105.52Y-79.78
X105.52Y-82.32
X106.81Y-89.04
X106.81Y-96.66
X106.93Y-119.
X106.93Y-126.62
X107.07Y-129.53
X107.07Y-132.03
X108.712Y-65.024
X108.712Y-72.644
X109.72Y-108.99
X109.72Y-116.61
X109.83Y-119.42
X109.83Y-127.04
X110.03Y-89.08
X110.03Y-96.7
X110.54Y-78.86
X110.54Y-86.48
X111.01Y-103.53
X111.01Y-106.03
X112.85Y-119.42
X112.85Y-127.04
X112.99Y-108.91
X112.99Y-116.53
X113.87Y-78.86
X113.87Y-86.48
X114.3Y-89.72
X115.82Y-121.87
X115.85Y-125.87
X116.15Y-98.42
X116.15Y-100.96
X116.15Y-103.5
X116.15Y-106.04
X116.15Y-108.58
X116.15Y-111.12
X116.15Y-113.66
X116.25Y-117.08
X117.18Y-78.88
X117.18Y-86.5
X118.75Y-117.08
X120.39Y-78.87
X120.39Y-86.49
X121.43Y-116.94
X121.92Y-89.72
X123.77Y-98.42
X123.77Y-100.96
X123.77Y-103.5
X123.77Y-106.04
X123.77Y-108.58
X123.77Y-111.12
X123.77Y-113.66
X124.53Y-86.7
X124.53Y-94.32
X128.52Y-121.87
X128.55Y-125.87
X129.05Y-116.94
T3
X89.408Y-65.024
X89.408Y-67.564
X116.26Y-130.
X118.8Y-130.
T4
X61.468Y-96.012
X64.008Y-96.012
X72.136Y-73.66
X72.136Y-76.2
X72.136Y-78.74
X72.136Y-81.28
X79.6Y-116.85
X82.14Y-116.85
X84.68Y-116.85
X95.48Y-91.14
X97.79Y-66.04
X97.79Y-68.58
X97.79Y-71.12
X97.79Y-73.66
X98.02Y-91.14
X98.45Y-97.16
X98.45Y-99.7
X98.45Y-102.24
X100.99Y-97.16
X100.99Y-99.7
X100.99Y-102.24
X128.Y-71.9
X128.Y-74.44
X128.Y-76.98
X128.Y-79.52
X128.Y-82.06
X128.Y-84.6
X128.Y-87.14
X128.Y-89.68
X128.Y-92.22
X128.Y-94.76
X128.Y-97.3
X128.Y-99.84
X128.Y-102.38
X128.Y-104.92
X128.Y-107.46
X128.Y-110.
T5
X61.318Y-66.112
X61.318Y-70.612
X67.818Y-66.112
X67.818Y-70.612
T6
X94.996Y-85.852
X97.496Y-80.812
X99.996Y-85.852
T8
X78.232Y-132.588
X83.312Y-132.588
X113.974Y-132.728
X119.054Y-132.728
T4
X58.38Y-84.31G85X58.38Y-86.31
G05
X59.93Y-78.46G85X58.43Y-78.46
G05
X59.93Y-92.16G85X58.43Y-92.16
G05
X67.62Y-129.46G85X69.62Y-129.46
G05
X67.62Y-135.46G85X69.62Y-135.46
G05
X73.32Y-133.46G85X73.32Y-131.46
G05
T7
X57.34Y-110.81G85X57.34Y-109.81
G05
X57.34Y-125.45G85X57.34Y-124.45
G05
X61.84Y-110.31G85X62.84Y-110.31
G05
X61.84Y-124.95G85X62.84Y-124.95
G05
T0
M30
