G04 #@! TF.FileFunction,Copper,L2,Bot,Signal*
%FSLAX46Y46*%
G04 Gerber Fmt 4.6, Leading zero omitted, Abs format (unit mm)*
G04 Created by KiCad (PCBNEW 4.0.7) date 01/02/22 19:18:36*
%MOMM*%
%LPD*%
G01*
G04 APERTURE LIST*
%ADD10C,0.100000*%
%ADD11C,1.600000*%
%ADD12O,1.600000X1.600000*%
%ADD13R,1.600000X1.600000*%
%ADD14R,3.500000X3.500000*%
%ADD15C,4.064000*%
%ADD16R,1.700000X1.700000*%
%ADD17O,1.700000X1.700000*%
%ADD18O,2.500000X3.500000*%
%ADD19O,3.500000X2.500000*%
%ADD20O,3.500000X2.000000*%
%ADD21O,2.000000X4.000000*%
%ADD22C,2.500000*%
%ADD23C,2.000000*%
%ADD24R,1.800000X1.800000*%
%ADD25O,1.800000X1.800000*%
%ADD26C,1.500000*%
%ADD27C,1.800000*%
%ADD28C,1.520000*%
%ADD29R,1.520000X1.520000*%
%ADD30R,3.000000X3.000000*%
%ADD31C,3.000000*%
%ADD32C,0.600000*%
%ADD33C,0.500000*%
%ADD34C,0.350000*%
G04 APERTURE END LIST*
D10*
D11*
X113870000Y-78860000D03*
D12*
X113870000Y-86480000D03*
D11*
X92330000Y-107010000D03*
D12*
X92330000Y-114630000D03*
D13*
X69342000Y-121920000D03*
D11*
X66842000Y-121920000D03*
X75170000Y-66900000D03*
X72670000Y-66900000D03*
D13*
X56000000Y-73500000D03*
D11*
X56000000Y-71000000D03*
X74400000Y-87200000D03*
X71900000Y-87200000D03*
X68560000Y-87170000D03*
X68560000Y-92170000D03*
X68560000Y-94600000D03*
X68560000Y-99600000D03*
X96150000Y-115340000D03*
X98650000Y-115340000D03*
D13*
X82296000Y-124206000D03*
D11*
X82296000Y-126706000D03*
D13*
X78330000Y-72430000D03*
D12*
X78330000Y-64810000D03*
D13*
X89340000Y-102600000D03*
D12*
X89340000Y-94980000D03*
D13*
X89380000Y-113160000D03*
D12*
X89380000Y-105540000D03*
D14*
X68580000Y-127508000D03*
X68580000Y-133508000D03*
X73280000Y-130508000D03*
D15*
X128000000Y-66000000D03*
X55000000Y-66000000D03*
D16*
X98450000Y-97160000D03*
D17*
X100990000Y-97160000D03*
X98450000Y-99700000D03*
X100990000Y-99700000D03*
X98450000Y-102240000D03*
X100990000Y-102240000D03*
D15*
X128000000Y-135000000D03*
X55000000Y-135000000D03*
D16*
X97790000Y-66040000D03*
D17*
X97790000Y-68580000D03*
X97790000Y-71120000D03*
X97790000Y-73660000D03*
D16*
X72136000Y-81280000D03*
D17*
X72136000Y-78740000D03*
X72136000Y-76200000D03*
X72136000Y-73660000D03*
D18*
X57340000Y-110310000D03*
D19*
X62340000Y-110310000D03*
D18*
X57340000Y-124950000D03*
D19*
X62340000Y-124950000D03*
D16*
X95480000Y-91140000D03*
D17*
X98020000Y-91140000D03*
D20*
X59180000Y-78460000D03*
X59180000Y-92160000D03*
D13*
X62030000Y-86610000D03*
D11*
X62030000Y-84010000D03*
X62030000Y-88710000D03*
X62030000Y-81910000D03*
X64830000Y-88710000D03*
X64830000Y-81910000D03*
D21*
X58380000Y-85310000D03*
D11*
X81460000Y-64690000D03*
D12*
X81460000Y-72310000D03*
D11*
X105156000Y-65024000D03*
D12*
X105156000Y-72644000D03*
D11*
X101600000Y-65024000D03*
D12*
X101600000Y-72644000D03*
D11*
X64920000Y-107370000D03*
D12*
X72540000Y-107370000D03*
D11*
X53680000Y-117650000D03*
D12*
X61300000Y-117650000D03*
D11*
X108712000Y-72644000D03*
D12*
X108712000Y-65024000D03*
D11*
X64650000Y-116930000D03*
D12*
X72270000Y-116930000D03*
D11*
X64680000Y-113690000D03*
D12*
X72300000Y-113690000D03*
D11*
X117180000Y-86500000D03*
D12*
X117180000Y-78880000D03*
D11*
X120390000Y-78870000D03*
D12*
X120390000Y-86490000D03*
D11*
X110540000Y-86480000D03*
D12*
X110540000Y-78860000D03*
D11*
X106810000Y-89040000D03*
D12*
X106810000Y-96660000D03*
D11*
X110030000Y-96700000D03*
D12*
X110030000Y-89080000D03*
D11*
X57190000Y-103130000D03*
D12*
X57190000Y-95510000D03*
D11*
X53970000Y-95460000D03*
D12*
X53970000Y-103080000D03*
D22*
X97496000Y-80812000D03*
X99996000Y-85852000D03*
X94996000Y-85852000D03*
D23*
X67818000Y-66112000D03*
X67818000Y-70612000D03*
X61318000Y-66112000D03*
X61318000Y-70612000D03*
D24*
X77470000Y-118872000D03*
D25*
X80010000Y-118872000D03*
X82550000Y-118872000D03*
D13*
X78486000Y-77216000D03*
D12*
X86106000Y-110236000D03*
X78486000Y-79756000D03*
X86106000Y-107696000D03*
X78486000Y-82296000D03*
X86106000Y-105156000D03*
X78486000Y-84836000D03*
X86106000Y-102616000D03*
X78486000Y-87376000D03*
X86106000Y-100076000D03*
X78486000Y-89916000D03*
X86106000Y-97536000D03*
X78486000Y-92456000D03*
X86106000Y-94996000D03*
X78486000Y-94996000D03*
X86106000Y-92456000D03*
X78486000Y-97536000D03*
X86106000Y-89916000D03*
X78486000Y-100076000D03*
X86106000Y-87376000D03*
X78486000Y-102616000D03*
X86106000Y-84836000D03*
X78486000Y-105156000D03*
X86106000Y-82296000D03*
X78486000Y-107696000D03*
X86106000Y-79756000D03*
X78486000Y-110236000D03*
X86106000Y-77216000D03*
D16*
X128000000Y-110000000D03*
D17*
X128000000Y-107460000D03*
X128000000Y-104920000D03*
X128000000Y-102380000D03*
X128000000Y-99840000D03*
X128000000Y-97300000D03*
X128000000Y-94760000D03*
X128000000Y-92220000D03*
X128000000Y-89680000D03*
X128000000Y-87140000D03*
X128000000Y-84600000D03*
X128000000Y-82060000D03*
X128000000Y-79520000D03*
X128000000Y-76980000D03*
X128000000Y-74440000D03*
X128000000Y-71900000D03*
D26*
X73260000Y-97340000D03*
X73260000Y-92460000D03*
D24*
X89408000Y-67564000D03*
D27*
X89408000Y-65024000D03*
D11*
X84836000Y-65024000D03*
D12*
X84836000Y-72644000D03*
D28*
X64260000Y-101640000D03*
X64260000Y-104180000D03*
D29*
X64260000Y-99100000D03*
D11*
X68110000Y-102490000D03*
D12*
X75730000Y-102490000D03*
D16*
X64008000Y-96012000D03*
D17*
X61468000Y-96012000D03*
D11*
X68730000Y-84830000D03*
D12*
X68730000Y-77210000D03*
D30*
X78232000Y-132588000D03*
D31*
X83312000Y-132588000D03*
D28*
X105520000Y-79780000D03*
X105520000Y-77240000D03*
D29*
X105520000Y-82320000D03*
D11*
X95550000Y-112490000D03*
D12*
X95550000Y-104870000D03*
D11*
X107070000Y-129530000D03*
X107070000Y-132030000D03*
X116250000Y-117080000D03*
X118750000Y-117080000D03*
D13*
X109830000Y-119420000D03*
D12*
X109830000Y-127040000D03*
D13*
X129050000Y-116940000D03*
D12*
X121430000Y-116940000D03*
D26*
X116260000Y-130000000D03*
X118800000Y-130000000D03*
D30*
X113974000Y-132728000D03*
D31*
X119054000Y-132728000D03*
D11*
X128550000Y-125870000D03*
D12*
X115850000Y-125870000D03*
D11*
X128520000Y-121870000D03*
D12*
X115820000Y-121870000D03*
D11*
X112990000Y-108910000D03*
D12*
X112990000Y-116530000D03*
D11*
X75200000Y-105170000D03*
D12*
X75200000Y-112790000D03*
D13*
X123770000Y-113660000D03*
D12*
X116150000Y-98420000D03*
X123770000Y-111120000D03*
X116150000Y-100960000D03*
X123770000Y-108580000D03*
X116150000Y-103500000D03*
X123770000Y-106040000D03*
X116150000Y-106040000D03*
X123770000Y-103500000D03*
X116150000Y-108580000D03*
X123770000Y-100960000D03*
X116150000Y-111120000D03*
X123770000Y-98420000D03*
X116150000Y-113660000D03*
D11*
X112850000Y-119420000D03*
D12*
X112850000Y-127040000D03*
D11*
X111010000Y-106030000D03*
X111010000Y-103530000D03*
D13*
X106930000Y-119000000D03*
D12*
X106930000Y-126620000D03*
D11*
X109720000Y-108990000D03*
D12*
X109720000Y-116610000D03*
D11*
X124530000Y-86700000D03*
D12*
X124530000Y-94320000D03*
D11*
X114300000Y-89720000D03*
D12*
X121920000Y-89720000D03*
D32*
X96450000Y-96850000D03*
X81534000Y-80010000D03*
X90280000Y-119450000D03*
X95630000Y-124150000D03*
X93860000Y-123320000D03*
X95810000Y-119850000D03*
X108700000Y-106600000D03*
X103140000Y-106960000D03*
X107870000Y-108260000D03*
X104720000Y-110280000D03*
X103124000Y-101346000D03*
X103124000Y-97536000D03*
X89130000Y-111260000D03*
D33*
X77470000Y-120650000D02*
X77470000Y-131826000D01*
X77470000Y-131826000D02*
X78232000Y-132588000D01*
X69342000Y-121920000D02*
X69342000Y-126746000D01*
X69342000Y-126746000D02*
X68580000Y-127508000D01*
X69342000Y-121920000D02*
X76708000Y-121920000D01*
X77470000Y-121158000D02*
X77470000Y-120650000D01*
X77470000Y-120650000D02*
X77470000Y-118872000D01*
X76708000Y-121920000D02*
X77470000Y-121158000D01*
X69596000Y-122174000D02*
X69342000Y-121920000D01*
D34*
X72092000Y-81686000D02*
X72086000Y-81680000D01*
X96770000Y-93540000D02*
X96770000Y-89210000D01*
X97710000Y-88270000D02*
X96770000Y-89210000D01*
X97710000Y-84800000D02*
X97710000Y-88270000D01*
X96280000Y-83370000D02*
X97710000Y-84800000D01*
X93770000Y-83370000D02*
X96280000Y-83370000D01*
X92370000Y-84770000D02*
X93770000Y-83370000D01*
X92370000Y-86470000D02*
X92370000Y-84770000D01*
X87673000Y-91167000D02*
X92370000Y-86470000D01*
X87673000Y-91167000D02*
X83293000Y-91167000D01*
X96770000Y-94060000D02*
X96770000Y-93540000D01*
X96440000Y-94390000D02*
X96770000Y-94060000D01*
X96450000Y-96850000D02*
X96440000Y-94390000D01*
X83293000Y-91167000D02*
X81534000Y-89408000D01*
X81534000Y-89408000D02*
X81534000Y-80010000D01*
X83312000Y-91186000D02*
X83293000Y-91167000D01*
X67818000Y-66112000D02*
X68000000Y-66112000D01*
X68000000Y-66112000D02*
X69342000Y-64770000D01*
X75170000Y-66026000D02*
X75170000Y-66900000D01*
X73914000Y-64770000D02*
X75170000Y-66026000D01*
X69342000Y-64770000D02*
X73914000Y-64770000D01*
X67818000Y-66112000D02*
X61318000Y-66112000D01*
X68000000Y-66112000D02*
X68580000Y-65532000D01*
X98450000Y-102240000D02*
X98538000Y-102240000D01*
X78330000Y-64810000D02*
X77260000Y-64810000D01*
X77260000Y-64810000D02*
X75170000Y-66900000D01*
X81460000Y-64690000D02*
X78450000Y-64690000D01*
X78450000Y-64690000D02*
X78330000Y-64810000D01*
X75170000Y-66900000D02*
X75170000Y-73900000D01*
X75170000Y-73900000D02*
X78486000Y-77216000D01*
X75280000Y-66790000D02*
X75170000Y-66900000D01*
X72670000Y-66900000D02*
X72670000Y-73126000D01*
X72670000Y-73126000D02*
X72136000Y-73660000D01*
X72036000Y-73560000D02*
X72136000Y-73660000D01*
X57190000Y-103130000D02*
X62732000Y-103130000D01*
X62732000Y-103130000D02*
X62738000Y-103124000D01*
X116150000Y-103500000D02*
X116840000Y-103500000D01*
X116840000Y-103500000D02*
X117680000Y-102660000D01*
X125430000Y-105590000D02*
X124980000Y-106040000D01*
X125430000Y-97220000D02*
X125430000Y-105590000D01*
X124740000Y-96530000D02*
X125430000Y-97220000D01*
X115080000Y-96530000D02*
X124740000Y-96530000D01*
X114590000Y-97020000D02*
X115080000Y-96530000D01*
X114590000Y-98970000D02*
X114590000Y-97020000D01*
X115290000Y-99670000D02*
X114590000Y-98970000D01*
X117000000Y-99670000D02*
X115290000Y-99670000D01*
X117680000Y-100350000D02*
X117000000Y-99670000D01*
X117680000Y-102660000D02*
X117680000Y-100350000D01*
D33*
X116150000Y-113660000D02*
X115140000Y-113660000D01*
X115140000Y-113660000D02*
X114390000Y-112910000D01*
X114390000Y-112910000D02*
X114390000Y-105260000D01*
X114390000Y-105260000D02*
X116150000Y-103500000D01*
X116150000Y-113660000D02*
X116150000Y-116980000D01*
X116150000Y-116980000D02*
X116250000Y-117080000D01*
X130340000Y-116760000D02*
X129230000Y-116760000D01*
X129230000Y-116760000D02*
X129050000Y-116940000D01*
X128000000Y-107460000D02*
X126400000Y-107460000D01*
X126400000Y-107460000D02*
X124980000Y-106040000D01*
X124980000Y-106040000D02*
X123770000Y-106040000D01*
X123770000Y-113660000D02*
X116150000Y-113660000D01*
X115970000Y-116800000D02*
X116250000Y-117080000D01*
X116150000Y-111120000D02*
X116150000Y-113660000D01*
X120360000Y-137200000D02*
X123030000Y-137200000D01*
X124470000Y-132710000D02*
X124430000Y-132710000D01*
X124470000Y-135760000D02*
X124470000Y-132710000D01*
X123030000Y-137200000D02*
X124470000Y-135760000D01*
X82550000Y-118872000D02*
X82550000Y-120040000D01*
X129930000Y-107460000D02*
X128000000Y-107460000D01*
X130340000Y-107870000D02*
X129930000Y-107460000D01*
X130340000Y-127590000D02*
X130340000Y-116760000D01*
X130340000Y-116760000D02*
X130340000Y-107870000D01*
X128350000Y-129580000D02*
X130340000Y-127590000D01*
X126110000Y-129580000D02*
X128350000Y-129580000D01*
X124430000Y-131260000D02*
X126110000Y-129580000D01*
X124430000Y-132710000D02*
X124430000Y-131260000D01*
X89080000Y-137200000D02*
X120360000Y-137200000D01*
X86680000Y-134800000D02*
X89080000Y-137200000D01*
X86680000Y-124170000D02*
X86680000Y-134800000D01*
X82550000Y-120040000D02*
X86680000Y-124170000D01*
X89340000Y-94980000D02*
X89340000Y-93370000D01*
X91570000Y-91140000D02*
X95480000Y-91140000D01*
X89340000Y-93370000D02*
X91570000Y-91140000D01*
X82296000Y-124206000D02*
X82296000Y-119126000D01*
X82296000Y-119126000D02*
X82550000Y-118872000D01*
X74168000Y-120904000D02*
X74676000Y-120904000D01*
X82550000Y-117094000D02*
X82550000Y-118872000D01*
X81534000Y-116078000D02*
X82550000Y-117094000D01*
X77216000Y-116078000D02*
X81534000Y-116078000D01*
X75946000Y-117348000D02*
X77216000Y-116078000D01*
X75946000Y-119634000D02*
X75946000Y-117348000D01*
X74676000Y-120904000D02*
X75946000Y-119634000D01*
D34*
X57190000Y-103130000D02*
X53970000Y-103080000D01*
D33*
X61976000Y-99690000D02*
X61976000Y-98234000D01*
X61976000Y-102362000D02*
X61976000Y-99690000D01*
X62738000Y-103124000D02*
X61976000Y-102362000D01*
X61976000Y-98234000D02*
X62480000Y-97730000D01*
X62480000Y-97730000D02*
X65500000Y-97730000D01*
X65500000Y-97730000D02*
X66640000Y-96590000D01*
X66640000Y-96590000D02*
X66640000Y-90690000D01*
X66640000Y-90690000D02*
X67668000Y-89662000D01*
D34*
X66810000Y-80300000D02*
X67430000Y-80300000D01*
X68730000Y-79000000D02*
X68730000Y-77210000D01*
X67430000Y-80300000D02*
X68730000Y-79000000D01*
X80450000Y-85190000D02*
X80450000Y-84030000D01*
X63640000Y-80300000D02*
X62030000Y-81910000D01*
X66810000Y-80300000D02*
X63640000Y-80300000D01*
X67990000Y-81480000D02*
X66810000Y-80300000D01*
X69730000Y-81480000D02*
X67990000Y-81480000D01*
X71800000Y-83550000D02*
X69730000Y-81480000D01*
X79970000Y-83550000D02*
X71800000Y-83550000D01*
X80450000Y-84030000D02*
X79970000Y-83550000D01*
D33*
X78486000Y-92456000D02*
X77496000Y-92456000D01*
X74400000Y-89360000D02*
X74400000Y-87200000D01*
X77496000Y-92456000D02*
X74400000Y-89360000D01*
X74168000Y-120904000D02*
X71882000Y-120904000D01*
X71882000Y-120904000D02*
X68580000Y-117602000D01*
X68580000Y-117602000D02*
X68580000Y-105918000D01*
X68580000Y-105918000D02*
X65006000Y-102914000D01*
X65006000Y-102914000D02*
X63228000Y-102914000D01*
X63228000Y-102914000D02*
X62738000Y-103124000D01*
X67564000Y-89662000D02*
X71938000Y-89662000D01*
X71938000Y-89662000D02*
X74400000Y-87200000D01*
X78486000Y-92456000D02*
X78316000Y-92456000D01*
D34*
X80450000Y-90492000D02*
X78486000Y-92456000D01*
X80450000Y-84820000D02*
X80450000Y-85190000D01*
X80450000Y-85190000D02*
X80450000Y-90492000D01*
X80450000Y-84820000D02*
X80450000Y-77690000D01*
X97610000Y-73840000D02*
X95670000Y-73840000D01*
X80450000Y-77690000D02*
X80450000Y-76600000D01*
X80450000Y-73320000D02*
X81460000Y-72310000D01*
X80450000Y-76600000D02*
X80450000Y-73320000D01*
X95670000Y-73840000D02*
X88490000Y-81020000D01*
X88490000Y-81020000D02*
X83780000Y-81020000D01*
X83780000Y-81020000D02*
X80450000Y-77690000D01*
D33*
X86106000Y-97536000D02*
X86784000Y-97536000D01*
X86784000Y-97536000D02*
X89340000Y-94980000D01*
X78486000Y-92456000D02*
X79866000Y-92456000D01*
X82746000Y-97536000D02*
X86106000Y-97536000D01*
X81830000Y-96620000D02*
X82746000Y-97536000D01*
X81830000Y-94420000D02*
X81830000Y-96620000D01*
X79866000Y-92456000D02*
X81830000Y-94420000D01*
D34*
X94996000Y-85852000D02*
X94972000Y-90632000D01*
X94972000Y-90632000D02*
X95480000Y-91140000D01*
X81460000Y-72310000D02*
X84502000Y-72310000D01*
X84502000Y-72310000D02*
X84836000Y-72644000D01*
X108712000Y-72644000D02*
X105156000Y-72644000D01*
X101600000Y-72644000D02*
X105156000Y-72644000D01*
X97790000Y-73660000D02*
X100584000Y-73660000D01*
X100584000Y-73660000D02*
X101600000Y-72644000D01*
X56000000Y-73500000D02*
X56000000Y-73950000D01*
X56000000Y-73950000D02*
X58290000Y-76240000D01*
X97790000Y-73660000D02*
X97610000Y-73840000D01*
X86170000Y-97600000D02*
X86106000Y-97536000D01*
X81490000Y-72280000D02*
X81460000Y-72310000D01*
X81530000Y-72240000D02*
X81460000Y-72310000D01*
X81460000Y-72310000D02*
X78450000Y-72310000D01*
X78450000Y-72310000D02*
X78330000Y-72430000D01*
X62030000Y-81910000D02*
X62660000Y-81910000D01*
X62030000Y-77420000D02*
X62030000Y-81910000D01*
X60850000Y-76240000D02*
X62030000Y-77420000D01*
X58290000Y-76240000D02*
X60850000Y-76240000D01*
X73260000Y-92460000D02*
X73664000Y-92460000D01*
X73664000Y-92460000D02*
X75692000Y-94488000D01*
X76962000Y-97536000D02*
X78486000Y-97536000D01*
X75692000Y-96266000D02*
X76962000Y-97536000D01*
X75692000Y-94488000D02*
X75692000Y-96266000D01*
X73260000Y-92460000D02*
X68850000Y-92460000D01*
X68850000Y-92460000D02*
X68560000Y-92170000D01*
X78486000Y-100076000D02*
X75996000Y-100076000D01*
X75996000Y-100076000D02*
X73260000Y-97340000D01*
X73260000Y-97340000D02*
X73464000Y-97340000D01*
X73260000Y-97340000D02*
X70820000Y-97340000D01*
X70820000Y-97340000D02*
X68560000Y-99600000D01*
X92330000Y-114630000D02*
X95440000Y-114630000D01*
X95440000Y-114630000D02*
X96150000Y-115340000D01*
X92780000Y-115080000D02*
X92330000Y-114630000D01*
X89380000Y-113160000D02*
X90730000Y-113160000D01*
X90730000Y-113160000D02*
X92330000Y-114630000D01*
X92780000Y-115080000D02*
X92330000Y-114630000D01*
X92400000Y-114700000D02*
X92330000Y-114630000D01*
X92530000Y-114830000D02*
X92330000Y-114630000D01*
X89340000Y-102600000D02*
X89340000Y-105500000D01*
X89340000Y-105500000D02*
X89380000Y-105540000D01*
X89460000Y-102720000D02*
X89340000Y-102600000D01*
X90280000Y-119450000D02*
X89330000Y-119450000D01*
X79040000Y-103880000D02*
X77700000Y-103880000D01*
X85194000Y-102616000D02*
X83930000Y-103880000D01*
X83930000Y-103880000D02*
X79040000Y-103880000D01*
X85194000Y-102616000D02*
X86106000Y-102616000D01*
X77700000Y-103880000D02*
X77090000Y-104490000D01*
X77090000Y-105080000D02*
X77090000Y-104490000D01*
X75700000Y-106470000D02*
X77090000Y-105080000D01*
X73920000Y-106470000D02*
X75700000Y-106470000D01*
X72940000Y-105490000D02*
X73920000Y-106470000D01*
X71150000Y-105490000D02*
X72940000Y-105490000D01*
X69820000Y-106820000D02*
X71150000Y-105490000D01*
X69820000Y-117680000D02*
X69820000Y-106820000D01*
X71300000Y-119160000D02*
X69820000Y-117680000D01*
X74160000Y-119160000D02*
X71300000Y-119160000D01*
X74850000Y-118470000D02*
X74160000Y-119160000D01*
X74850000Y-116870000D02*
X74850000Y-118470000D01*
X76470000Y-115250000D02*
X74850000Y-116870000D01*
X85130000Y-115250000D02*
X76470000Y-115250000D01*
X89330000Y-119450000D02*
X85130000Y-115250000D01*
X98450000Y-97160000D02*
X97920000Y-97160000D01*
X97920000Y-97160000D02*
X97180000Y-97900000D01*
X97180000Y-97900000D02*
X88890000Y-97900000D01*
X88890000Y-97900000D02*
X88010000Y-98780000D01*
X88010000Y-98780000D02*
X85140000Y-98780000D01*
X85140000Y-98780000D02*
X84330000Y-99590000D01*
X84330000Y-99590000D02*
X84330000Y-101470000D01*
X84330000Y-101470000D02*
X85476000Y-102616000D01*
X85476000Y-102616000D02*
X86106000Y-102616000D01*
X90170000Y-119340000D02*
X90280000Y-119450000D01*
X86106000Y-102616000D02*
X85326000Y-102616000D01*
D33*
X98020000Y-91140000D02*
X99330000Y-91140000D01*
X100990000Y-92800000D02*
X100990000Y-97160000D01*
X99330000Y-91140000D02*
X100990000Y-92800000D01*
X98020000Y-91140000D02*
X98528000Y-91140000D01*
D34*
X98020000Y-91140000D02*
X98274000Y-91140000D01*
X103140000Y-98390000D02*
X103340000Y-98390000D01*
X103340000Y-98390000D02*
X104150000Y-97580000D01*
X110540000Y-80830000D02*
X110540000Y-78860000D01*
X104150000Y-97580000D02*
X104150000Y-87190000D01*
X104150000Y-87190000D02*
X110540000Y-80830000D01*
X98450000Y-99700000D02*
X98450000Y-98930000D01*
X98450000Y-98930000D02*
X98990000Y-98390000D01*
X98990000Y-98390000D02*
X103140000Y-98390000D01*
X86106000Y-100076000D02*
X98074000Y-100076000D01*
X98074000Y-100076000D02*
X98450000Y-99700000D01*
X78170000Y-106400000D02*
X76690000Y-106400000D01*
X76020000Y-107070000D02*
X72840000Y-107070000D01*
X76690000Y-106400000D02*
X76020000Y-107070000D01*
X72840000Y-107070000D02*
X72540000Y-107370000D01*
X80250000Y-106400000D02*
X78170000Y-106400000D01*
X104750000Y-98520000D02*
X104750000Y-87460000D01*
X115840000Y-80220000D02*
X117180000Y-78880000D01*
X112190000Y-80220000D02*
X115840000Y-80220000D01*
X104750000Y-87460000D02*
X112190000Y-80220000D01*
X100990000Y-99700000D02*
X103770000Y-99700000D01*
X103770000Y-99700000D02*
X104750000Y-98520000D01*
X99720000Y-109239996D02*
X102300004Y-109239996D01*
X104120000Y-105890000D02*
X104090000Y-105890000D01*
X104120000Y-107420000D02*
X104120000Y-105890000D01*
X102300004Y-109239996D02*
X104120000Y-107420000D01*
X104090000Y-105890000D02*
X104090000Y-101296000D01*
X104090000Y-101296000D02*
X102494000Y-99700000D01*
X102494000Y-99700000D02*
X100990000Y-99700000D01*
X100990000Y-99700000D02*
X100810000Y-99700000D01*
X87610000Y-107710000D02*
X87610000Y-106660000D01*
X89139996Y-109239996D02*
X87610000Y-107710000D01*
X99720000Y-109239996D02*
X89139996Y-109239996D01*
X87610000Y-106660000D02*
X86106000Y-105156000D01*
X86106000Y-105156000D02*
X86106000Y-105216000D01*
X100990000Y-99700000D02*
X100990000Y-99368000D01*
X86106000Y-105156000D02*
X86106000Y-105186000D01*
X86106000Y-105156000D02*
X86346000Y-105156000D01*
X86106000Y-105156000D02*
X85134000Y-105156000D01*
X85134000Y-105156000D02*
X83890000Y-106400000D01*
X83890000Y-106400000D02*
X80250000Y-106400000D01*
X86106000Y-77216000D02*
X87884000Y-77216000D01*
X96520000Y-68580000D02*
X97790000Y-68580000D01*
X87884000Y-77216000D02*
X96520000Y-68580000D01*
X101600000Y-65024000D02*
X101600000Y-67564000D01*
X100584000Y-68580000D02*
X97790000Y-68580000D01*
X101600000Y-67564000D02*
X100584000Y-68580000D01*
X86106000Y-79756000D02*
X87376000Y-79756000D01*
X96012000Y-71120000D02*
X97790000Y-71120000D01*
X87376000Y-79756000D02*
X96012000Y-71120000D01*
X97790000Y-71120000D02*
X100076000Y-71120000D01*
X105156000Y-66040000D02*
X105156000Y-65024000D01*
X100076000Y-71120000D02*
X105156000Y-66040000D01*
X72136000Y-78740000D02*
X72898000Y-78740000D01*
X72898000Y-78740000D02*
X76454000Y-82296000D01*
X76454000Y-82296000D02*
X78486000Y-82296000D01*
X72136000Y-78740000D02*
X71440000Y-78650000D01*
X72092000Y-79146000D02*
X72086000Y-79140000D01*
X72136000Y-76200000D02*
X73406000Y-76200000D01*
X76708000Y-79502000D02*
X78232000Y-79502000D01*
X73406000Y-76200000D02*
X76708000Y-79502000D01*
X78232000Y-79502000D02*
X78486000Y-79756000D01*
X64920000Y-107370000D02*
X64920000Y-107730000D01*
X64920000Y-107730000D02*
X62340000Y-110310000D01*
X61300000Y-117650000D02*
X61300000Y-111350000D01*
X61300000Y-111350000D02*
X62340000Y-110310000D01*
X64260000Y-104180000D02*
X64262000Y-107342000D01*
X64262000Y-107342000D02*
X64920000Y-107370000D01*
X64260000Y-104180000D02*
X64260000Y-104424000D01*
X64650000Y-116930000D02*
X65550000Y-118570000D01*
X65550000Y-118570000D02*
X65070000Y-119050000D01*
X65070000Y-119050000D02*
X65070000Y-122220000D01*
X65070000Y-122220000D02*
X62340000Y-124950000D01*
X64680000Y-113690000D02*
X64670000Y-116910000D01*
X64670000Y-116910000D02*
X64650000Y-116930000D01*
X58380000Y-85310000D02*
X58380000Y-91360000D01*
X58380000Y-91360000D02*
X59180000Y-92160000D01*
X58380000Y-85310000D02*
X58380000Y-79260000D01*
X58380000Y-79260000D02*
X59180000Y-78460000D01*
X53970000Y-95460000D02*
X53970000Y-95206000D01*
X53970000Y-95206000D02*
X56134000Y-93980000D01*
X56134000Y-93980000D02*
X60706000Y-93980000D01*
X60706000Y-93980000D02*
X62230000Y-92456000D01*
X62230000Y-92456000D02*
X62230000Y-91694000D01*
X62230000Y-91694000D02*
X60452000Y-89916000D01*
X60452000Y-89916000D02*
X60452000Y-87376000D01*
X60452000Y-87376000D02*
X61218000Y-86610000D01*
X61218000Y-86610000D02*
X62030000Y-86610000D01*
X78486000Y-84836000D02*
X77996000Y-84836000D01*
X77996000Y-84836000D02*
X77489998Y-84329998D01*
X77489998Y-84329998D02*
X71519998Y-84329998D01*
X71519998Y-84329998D02*
X69950000Y-82760000D01*
X69950000Y-82760000D02*
X66690000Y-82760000D01*
X66690000Y-82760000D02*
X64920000Y-84530000D01*
X64920000Y-84530000D02*
X64920000Y-85790000D01*
X64920000Y-85790000D02*
X64100000Y-86610000D01*
X64100000Y-86610000D02*
X62030000Y-86610000D01*
X57190000Y-95510000D02*
X57404000Y-95250000D01*
X62992000Y-91186000D02*
X64830000Y-89348000D01*
X62992000Y-92710000D02*
X62992000Y-91186000D01*
X60960000Y-94742000D02*
X62992000Y-92710000D01*
X57912000Y-94742000D02*
X60960000Y-94742000D01*
X57404000Y-95250000D02*
X57912000Y-94742000D01*
X64830000Y-89348000D02*
X64830000Y-88710000D01*
X64830000Y-88710000D02*
X64420000Y-88710000D01*
X78486000Y-87376000D02*
X77826000Y-87376000D01*
X77826000Y-87376000D02*
X75330000Y-84880000D01*
X75330000Y-84880000D02*
X71020000Y-84880000D01*
X71020000Y-84880000D02*
X69550000Y-83410000D01*
X69550000Y-83410000D02*
X67000000Y-83410000D01*
X67000000Y-83410000D02*
X66080000Y-84330000D01*
X66080000Y-84330000D02*
X66080000Y-87460000D01*
X66080000Y-87460000D02*
X64830000Y-88710000D01*
X64830000Y-88710000D02*
X65010000Y-88710000D01*
X108712000Y-65024000D02*
X118584000Y-65024000D01*
X118584000Y-65024000D02*
X128000000Y-74440000D01*
X128000000Y-74440000D02*
X128750000Y-74440000D01*
X78486000Y-107696000D02*
X74974000Y-107696000D01*
X72300000Y-110370000D02*
X72300000Y-113690000D01*
X74974000Y-107696000D02*
X72300000Y-110370000D01*
X78486000Y-107696000D02*
X77774000Y-107696000D01*
X72300000Y-113690000D02*
X72300000Y-113070000D01*
X112090000Y-89400000D02*
X112180000Y-88660000D01*
X115620000Y-88060000D02*
X117180000Y-86500000D01*
X112780000Y-88060000D02*
X115620000Y-88060000D01*
X112180000Y-88660000D02*
X112780000Y-88060000D01*
X106950000Y-109250000D02*
X106950000Y-111540000D01*
X96650000Y-124150000D02*
X95630000Y-124150000D01*
X97150002Y-123649998D02*
X96650000Y-124150000D01*
X97150002Y-119809998D02*
X97150002Y-123649998D01*
X97920000Y-119040000D02*
X97150002Y-119809998D01*
X100000000Y-119040000D02*
X97920000Y-119040000D01*
X101550002Y-117489998D02*
X100000000Y-119040000D01*
X101550002Y-114009998D02*
X101550002Y-117489998D01*
X102460000Y-113100000D02*
X101550002Y-114009998D01*
X105390000Y-113100000D02*
X102460000Y-113100000D01*
X106950000Y-111540000D02*
X105390000Y-113100000D01*
X117180000Y-86500000D02*
X117180000Y-86640000D01*
X106950000Y-101600000D02*
X106950000Y-105920000D01*
X109420000Y-99130000D02*
X106950000Y-101600000D01*
X111430000Y-99130000D02*
X109420000Y-99130000D01*
X112090000Y-98210000D02*
X111430000Y-99130000D01*
X112090000Y-89400000D02*
X112090000Y-98210000D01*
X120390000Y-86490000D02*
X117190000Y-86490000D01*
X117190000Y-86490000D02*
X117180000Y-86500000D01*
X106950000Y-105920000D02*
X106950000Y-109250000D01*
X117220000Y-86460000D02*
X117180000Y-86500000D01*
X106150000Y-111160000D02*
X106130000Y-111160000D01*
X106150000Y-105600000D02*
X106150000Y-111160000D01*
X111420000Y-87950000D02*
X111420000Y-97310000D01*
X111420000Y-97310000D02*
X110750000Y-98350000D01*
X110750000Y-98350000D02*
X109050000Y-98350000D01*
X109050000Y-98350000D02*
X106150000Y-101250000D01*
X106150000Y-101250000D02*
X106150000Y-105600000D01*
X110540000Y-86540000D02*
X111420000Y-87950000D01*
X106130000Y-111160000D02*
X104860000Y-112430000D01*
X104860000Y-112430000D02*
X101760000Y-112430000D01*
X101760000Y-112430000D02*
X101000000Y-113190000D01*
X101000000Y-113190000D02*
X101000000Y-116897820D01*
X101000000Y-116897820D02*
X99577820Y-118320000D01*
X99577820Y-118320000D02*
X97670000Y-118320000D01*
X97670000Y-118320000D02*
X96600000Y-119390000D01*
X96600000Y-119390000D02*
X96600000Y-123120000D01*
X96600000Y-123120000D02*
X96400000Y-123320000D01*
X96400000Y-123320000D02*
X93860000Y-123320000D01*
X110540000Y-86480000D02*
X110540000Y-86540000D01*
X113870000Y-86480000D02*
X110540000Y-86480000D01*
X110540000Y-86480000D02*
X110540000Y-86510000D01*
X110580000Y-86520000D02*
X110540000Y-86480000D01*
X105500000Y-110610000D02*
X105500000Y-110780000D01*
X95810000Y-118630000D02*
X95810000Y-119850000D01*
X96780000Y-117660000D02*
X95810000Y-118630000D01*
X99460000Y-117660000D02*
X96780000Y-117660000D01*
X100250000Y-116870000D02*
X99460000Y-117660000D01*
X100250000Y-112630000D02*
X100250000Y-116870000D01*
X101120000Y-111760000D02*
X100250000Y-112630000D01*
X104520000Y-111760000D02*
X101120000Y-111760000D01*
X105500000Y-110780000D02*
X104520000Y-111760000D01*
X105500000Y-105170000D02*
X105500000Y-100830000D01*
X108300000Y-90530000D02*
X106810000Y-89040000D01*
X108300000Y-98030000D02*
X108300000Y-90530000D01*
X105500000Y-100830000D02*
X108300000Y-98030000D01*
X110030000Y-89080000D02*
X106850000Y-89080000D01*
X106850000Y-89080000D02*
X106810000Y-89040000D01*
X105500000Y-104810000D02*
X105500000Y-105170000D01*
X105500000Y-105170000D02*
X105500000Y-110610000D01*
X104790000Y-101530000D02*
X104790000Y-100230000D01*
X106810000Y-98210000D02*
X106810000Y-96660000D01*
X104790000Y-100230000D02*
X106810000Y-98210000D01*
X100500002Y-109789998D02*
X103080002Y-109789998D01*
X104810000Y-106410000D02*
X104790000Y-106410000D01*
X104810000Y-108060000D02*
X104810000Y-106410000D01*
X103080002Y-109789998D02*
X104810000Y-108060000D01*
X104790000Y-104810000D02*
X104790000Y-101530000D01*
X104790000Y-106410000D02*
X104790000Y-104810000D01*
X87580000Y-109260000D02*
X87580000Y-109250000D01*
X88109998Y-109789998D02*
X87580000Y-109260000D01*
X100500002Y-109789998D02*
X88109998Y-109789998D01*
X86106000Y-107696000D02*
X86106000Y-107776000D01*
X86106000Y-107776000D02*
X87580000Y-109250000D01*
X86106000Y-107696000D02*
X86696000Y-107696000D01*
X130290000Y-93600000D02*
X130290000Y-92100000D01*
X120340000Y-89000000D02*
X121840000Y-87500000D01*
X120340000Y-90750000D02*
X120340000Y-89000000D01*
X120950000Y-91360000D02*
X120340000Y-90750000D01*
X122880000Y-91360000D02*
X120950000Y-91360000D01*
X123280000Y-90960000D02*
X122880000Y-91360000D01*
X129150000Y-90960000D02*
X123280000Y-90960000D01*
X130290000Y-92100000D02*
X129150000Y-90960000D01*
X121840000Y-77720000D02*
X121220000Y-77100000D01*
X100098000Y-80812000D02*
X102430000Y-78480000D01*
X102430000Y-78480000D02*
X106540000Y-78480000D01*
X97496000Y-80812000D02*
X100098000Y-80812000D01*
X106610000Y-78480000D02*
X107990000Y-77100000D01*
X107990000Y-77100000D02*
X121220000Y-77100000D01*
X106540000Y-78480000D02*
X106610000Y-78480000D01*
X121840000Y-87500000D02*
X121840000Y-77720000D01*
X130290000Y-93600000D02*
X130290000Y-104240000D01*
X130290000Y-104240000D02*
X129610000Y-104920000D01*
X129610000Y-104920000D02*
X128000000Y-104920000D01*
X98552000Y-80812000D02*
X97496000Y-80812000D01*
X124530000Y-86700000D02*
X124530000Y-87110000D01*
X124530000Y-87110000D02*
X121920000Y-89720000D01*
X97800000Y-77608000D02*
X101992000Y-77608000D01*
X125430000Y-82030000D02*
X128000000Y-84600000D01*
X125430000Y-79110000D02*
X125430000Y-82030000D01*
X122420000Y-75780000D02*
X125430000Y-79110000D01*
X103380000Y-75780000D02*
X122420000Y-75780000D01*
X101992000Y-77608000D02*
X103380000Y-75780000D01*
X86106000Y-89916000D02*
X86106000Y-89614000D01*
X86106000Y-89614000D02*
X97350000Y-77608000D01*
X97350000Y-77608000D02*
X97800000Y-77608000D01*
X86106000Y-89916000D02*
X86614000Y-89916000D01*
X99360000Y-76722000D02*
X101588000Y-76722000D01*
X126110000Y-78710000D02*
X126110000Y-80170000D01*
X122690000Y-75120000D02*
X126110000Y-78710000D01*
X103020000Y-75120000D02*
X122690000Y-75120000D01*
X101588000Y-76722000D02*
X103020000Y-75120000D01*
X126110000Y-80170000D02*
X128000000Y-82060000D01*
X86106000Y-87376000D02*
X86744000Y-87376000D01*
X86744000Y-87376000D02*
X96890000Y-76722000D01*
X96890000Y-76722000D02*
X99360000Y-76722000D01*
X86106000Y-87376000D02*
X86868000Y-87376000D01*
X100130000Y-75996000D02*
X100934000Y-75996000D01*
X123020002Y-74540002D02*
X128000000Y-79520000D01*
X102389998Y-74540002D02*
X123020002Y-74540002D01*
X100934000Y-75996000D02*
X102389998Y-74540002D01*
X86106000Y-84836000D02*
X87664000Y-84836000D01*
X96250000Y-75996000D02*
X100130000Y-75996000D01*
X87664000Y-84836000D02*
X96250000Y-75996000D01*
X124260000Y-92680000D02*
X125200000Y-92680000D01*
X126470000Y-100850000D02*
X128000000Y-102380000D01*
X126470000Y-93950000D02*
X126470000Y-100850000D01*
X125200000Y-92680000D02*
X126470000Y-93950000D01*
X113360000Y-94740000D02*
X113360000Y-94380000D01*
X115060000Y-92680000D02*
X124260000Y-92680000D01*
X113360000Y-94380000D02*
X115060000Y-92680000D01*
X113360000Y-98880000D02*
X113360000Y-94740000D01*
X112540000Y-100580000D02*
X113360000Y-98880000D01*
X109790000Y-100580000D02*
X112540000Y-100580000D01*
X108660000Y-101710000D02*
X109790000Y-100580000D01*
X108660000Y-106560000D02*
X108660000Y-101710000D01*
X108700000Y-106600000D02*
X108660000Y-106560000D01*
X126150000Y-100530000D02*
X128000000Y-102380000D01*
X126150000Y-97410000D02*
X126150000Y-100530000D01*
X126150000Y-97120000D02*
X126150000Y-97410000D01*
X99240000Y-108689994D02*
X101120006Y-108689994D01*
X101120006Y-108689994D02*
X102850000Y-106960000D01*
X102850000Y-106960000D02*
X103140000Y-106960000D01*
X87740000Y-104590000D02*
X87030000Y-103880000D01*
X87740000Y-106000000D02*
X87740000Y-104590000D01*
X88290000Y-106550000D02*
X87740000Y-106000000D01*
X88290000Y-107220000D02*
X88290000Y-106550000D01*
X89759994Y-108689994D02*
X88290000Y-107220000D01*
X99350006Y-108689994D02*
X99240000Y-108689994D01*
X99240000Y-108689994D02*
X89759994Y-108689994D01*
X78486000Y-105156000D02*
X83884000Y-105156000D01*
X85160000Y-103880000D02*
X87030000Y-103880000D01*
X83884000Y-105156000D02*
X85160000Y-103880000D01*
X97800000Y-75330000D02*
X100420000Y-75330000D01*
X125010000Y-73990000D02*
X128000000Y-76980000D01*
X101760000Y-73990000D02*
X125010000Y-73990000D01*
X100420000Y-75330000D02*
X101760000Y-73990000D01*
X88944000Y-82296000D02*
X95910000Y-75330000D01*
X95910000Y-75330000D02*
X97800000Y-75330000D01*
X86106000Y-82296000D02*
X88944000Y-82296000D01*
X86106000Y-82296000D02*
X86868000Y-82296000D01*
X124810000Y-91980000D02*
X125540000Y-91980000D01*
X129110000Y-97300000D02*
X128000000Y-97300000D01*
X129620000Y-96790000D02*
X129110000Y-97300000D01*
X129620000Y-94170000D02*
X129620000Y-96790000D01*
X128930000Y-93480000D02*
X129620000Y-94170000D01*
X127040000Y-93480000D02*
X128930000Y-93480000D01*
X125540000Y-91980000D02*
X127040000Y-93480000D01*
X112770000Y-94660000D02*
X112770000Y-93900000D01*
X114690000Y-91980000D02*
X124810000Y-91980000D01*
X112770000Y-93900000D02*
X114690000Y-91980000D01*
X112770000Y-98510000D02*
X112770000Y-94660000D01*
X111740000Y-99870000D02*
X112770000Y-98510000D01*
X109457820Y-99870000D02*
X111740000Y-99870000D01*
X107820000Y-101507820D02*
X109457820Y-99870000D01*
X107820000Y-108210000D02*
X107820000Y-101507820D01*
X107870000Y-108260000D02*
X107820000Y-108210000D01*
X104660000Y-110340000D02*
X104720000Y-110280000D01*
X101650000Y-110340000D02*
X104660000Y-110340000D01*
X88690000Y-110340000D02*
X101650000Y-110340000D01*
X101650000Y-110340000D02*
X102260000Y-110340000D01*
X78486000Y-110236000D02*
X78486000Y-110446000D01*
X78486000Y-110446000D02*
X80170000Y-112130000D01*
X80170000Y-112130000D02*
X86900000Y-112130000D01*
X86900000Y-112130000D02*
X88690000Y-110340000D01*
X84836000Y-65024000D02*
X89408000Y-65024000D01*
X64260000Y-101640000D02*
X67260000Y-101640000D01*
X67260000Y-101640000D02*
X68110000Y-102490000D01*
X75200000Y-105170000D02*
X75200000Y-103020000D01*
X75200000Y-103020000D02*
X75730000Y-102490000D01*
X78486000Y-102616000D02*
X75856000Y-102616000D01*
X75856000Y-102616000D02*
X75730000Y-102490000D01*
X64008000Y-96012000D02*
X64488000Y-96012000D01*
X64488000Y-96012000D02*
X65786000Y-94234000D01*
X65786000Y-94234000D02*
X65786000Y-90424000D01*
X65786000Y-90424000D02*
X66802000Y-89408000D01*
X66802000Y-89408000D02*
X66802000Y-86106000D01*
X66802000Y-86106000D02*
X68078000Y-84830000D01*
X68078000Y-84830000D02*
X68730000Y-84830000D01*
X78486000Y-89916000D02*
X76296000Y-89916000D01*
X69570000Y-85670000D02*
X68730000Y-84830000D01*
X74760000Y-85670000D02*
X69570000Y-85670000D01*
X75850000Y-86760000D02*
X74760000Y-85670000D01*
X75850000Y-89470000D02*
X75850000Y-86760000D01*
X76296000Y-89916000D02*
X75850000Y-89470000D01*
X103124000Y-97536000D02*
X103124000Y-93984000D01*
X96488000Y-104870000D02*
X97028000Y-105410000D01*
X97028000Y-105410000D02*
X101346000Y-105410000D01*
X101346000Y-105410000D02*
X103124000Y-103632000D01*
X103124000Y-103632000D02*
X103124000Y-101346000D01*
X95550000Y-104870000D02*
X96488000Y-104870000D01*
X102760000Y-81890000D02*
X105520000Y-79780000D01*
X101930000Y-82720000D02*
X102760000Y-81890000D01*
X101930000Y-92790000D02*
X101930000Y-82720000D01*
X103124000Y-93984000D02*
X101930000Y-92790000D01*
X104900000Y-79780000D02*
X105520000Y-79780000D01*
X126195000Y-85215000D02*
X126185000Y-85215000D01*
X121820000Y-76420000D02*
X124780000Y-79380000D01*
X124780000Y-79380000D02*
X124780000Y-83810000D01*
X126185000Y-85215000D02*
X124780000Y-83810000D01*
X106700000Y-76420000D02*
X121820000Y-76420000D01*
X106700000Y-76420000D02*
X105880000Y-77240000D01*
X105520000Y-77240000D02*
X105880000Y-77240000D01*
X126050000Y-85080000D02*
X126050000Y-85070000D01*
X130260000Y-74160000D02*
X128000000Y-71900000D01*
X130260000Y-85020000D02*
X130260000Y-74160000D01*
X129430000Y-85850000D02*
X130260000Y-85020000D01*
X126830000Y-85850000D02*
X129430000Y-85850000D01*
X126050000Y-85070000D02*
X126195000Y-85215000D01*
X126195000Y-85215000D02*
X126830000Y-85850000D01*
X86106000Y-110236000D02*
X85386000Y-110236000D01*
X85386000Y-110236000D02*
X84120000Y-108970000D01*
X72700000Y-115260000D02*
X72700000Y-116500000D01*
X73840000Y-114120000D02*
X72700000Y-115260000D01*
X73840000Y-110420000D02*
X73840000Y-114120000D01*
X75290000Y-108970000D02*
X73840000Y-110420000D01*
X84120000Y-108970000D02*
X75290000Y-108970000D01*
X72700000Y-116500000D02*
X72270000Y-116930000D01*
X95550000Y-112490000D02*
X95550000Y-112260000D01*
X95550000Y-112260000D02*
X94550000Y-111260000D01*
X94550000Y-111260000D02*
X89130000Y-111260000D01*
D33*
X107070000Y-129530000D02*
X112270000Y-129530000D01*
X112850000Y-128950000D02*
X112850000Y-127040000D01*
X112270000Y-129530000D02*
X112850000Y-128950000D01*
X106930000Y-126620000D02*
X106930000Y-125720000D01*
X114340000Y-124360000D02*
X115850000Y-125870000D01*
X108290000Y-124360000D02*
X114340000Y-124360000D01*
X106930000Y-125720000D02*
X108290000Y-124360000D01*
X113974000Y-132728000D02*
X107768000Y-132728000D01*
X107768000Y-132728000D02*
X107070000Y-132030000D01*
X115850000Y-125870000D02*
X115850000Y-121900000D01*
X115850000Y-121900000D02*
X115820000Y-121870000D01*
X116260000Y-130000000D02*
X116260000Y-126280000D01*
X116260000Y-126280000D02*
X115850000Y-125870000D01*
X113974000Y-132728000D02*
X113974000Y-132286000D01*
X113974000Y-132286000D02*
X116260000Y-130000000D01*
D34*
X105640000Y-113830000D02*
X108490000Y-113830000D01*
X113640000Y-103470000D02*
X116150000Y-100960000D01*
X113640000Y-106180000D02*
X113640000Y-103470000D01*
X111560000Y-108260000D02*
X113640000Y-106180000D01*
X111560000Y-110760000D02*
X111560000Y-108260000D01*
X108490000Y-113830000D02*
X111560000Y-110760000D01*
X93000000Y-125080000D02*
X91590000Y-123670000D01*
X97390000Y-125080000D02*
X93000000Y-125080000D01*
X97920000Y-124550000D02*
X97390000Y-125080000D01*
X97920000Y-120780000D02*
X97920000Y-124550000D01*
X98760000Y-119940000D02*
X97920000Y-120780000D01*
X100360000Y-119940000D02*
X98760000Y-119940000D01*
X102230000Y-118070000D02*
X100360000Y-119940000D01*
X102230000Y-114610000D02*
X102230000Y-118070000D01*
X103010000Y-113830000D02*
X102230000Y-114610000D01*
X105930000Y-113830000D02*
X105640000Y-113830000D01*
X105640000Y-113830000D02*
X103010000Y-113830000D01*
X85020000Y-112790000D02*
X75200000Y-112790000D01*
X88520000Y-116290000D02*
X85020000Y-112790000D01*
X89750000Y-116290000D02*
X88520000Y-116290000D01*
X91590000Y-118130000D02*
X89750000Y-116290000D01*
X91590000Y-123670000D02*
X91590000Y-118130000D01*
X116150000Y-98420000D02*
X117430000Y-98420000D01*
X117500000Y-108580000D02*
X116150000Y-108580000D01*
X118300000Y-107780000D02*
X117500000Y-108580000D01*
X118300000Y-99290000D02*
X118300000Y-107780000D01*
X117430000Y-98420000D02*
X118300000Y-99290000D01*
X123770000Y-100960000D02*
X123770000Y-101170000D01*
X123770000Y-101170000D02*
X122070000Y-102870000D01*
X122070000Y-102870000D02*
X122070000Y-110490000D01*
X122070000Y-110490000D02*
X122700000Y-111120000D01*
X122700000Y-111120000D02*
X123770000Y-111120000D01*
D33*
X123770000Y-108580000D02*
X124560000Y-108580000D01*
X124560000Y-108580000D02*
X125790000Y-109810000D01*
X125790000Y-109810000D02*
X125790000Y-115520000D01*
X125790000Y-115520000D02*
X124370000Y-116940000D01*
X124370000Y-116940000D02*
X121430000Y-116940000D01*
X121430000Y-116940000D02*
X118950000Y-119420000D01*
X118950000Y-119420000D02*
X112850000Y-119420000D01*
X112850000Y-119420000D02*
X112910000Y-119420000D01*
X112990000Y-116530000D02*
X112990000Y-119280000D01*
X112990000Y-119280000D02*
X112850000Y-119420000D01*
X112850000Y-119420000D02*
X109830000Y-119420000D01*
D34*
X111010000Y-106030000D02*
X111840000Y-106030000D01*
X122170000Y-95720000D02*
X124530000Y-94320000D01*
X114640000Y-95720000D02*
X122170000Y-95720000D01*
X114000000Y-96360000D02*
X114640000Y-95720000D01*
X114000000Y-101330000D02*
X114000000Y-96360000D01*
X112790000Y-102540000D02*
X114000000Y-101330000D01*
X112790000Y-105080000D02*
X112790000Y-102540000D01*
X111840000Y-106030000D02*
X112790000Y-105080000D01*
D33*
X109720000Y-108990000D02*
X109720000Y-107320000D01*
X109720000Y-107320000D02*
X111010000Y-106030000D01*
X106930000Y-119000000D02*
X106930000Y-118130000D01*
X108450000Y-116610000D02*
X109720000Y-116610000D01*
X106930000Y-118130000D02*
X108450000Y-116610000D01*
M02*
