G04 #@! TF.FileFunction,Soldermask,Bot*
%FSLAX46Y46*%
G04 Gerber Fmt 4.6, Leading zero omitted, Abs format (unit mm)*
G04 Created by KiCad (PCBNEW 4.0.7) date 11/26/21 21:26:11*
%MOMM*%
%LPD*%
G01*
G04 APERTURE LIST*
%ADD10C,0.100000*%
%ADD11C,2.000000*%
%ADD12O,2.000000X2.000000*%
%ADD13R,2.000000X2.000000*%
%ADD14R,3.900000X3.900000*%
%ADD15C,4.464000*%
%ADD16R,2.100000X2.100000*%
%ADD17O,2.100000X2.100000*%
%ADD18O,2.400000X2.400000*%
%ADD19O,2.900000X3.900000*%
%ADD20O,3.900000X2.900000*%
%ADD21O,3.900000X2.400000*%
%ADD22O,2.400000X4.400000*%
%ADD23C,2.900000*%
%ADD24C,2.400000*%
%ADD25R,2.200000X2.200000*%
%ADD26O,2.200000X2.200000*%
%ADD27C,1.400000*%
%ADD28C,1.900000*%
%ADD29C,2.200000*%
%ADD30C,1.920000*%
%ADD31R,1.920000X1.920000*%
%ADD32R,3.400000X3.400000*%
%ADD33C,3.400000*%
G04 APERTURE END LIST*
D10*
D11*
X92840000Y-104910000D03*
D12*
X92840000Y-112530000D03*
D13*
X69342000Y-121920000D03*
D11*
X66842000Y-121920000D03*
X75170000Y-66900000D03*
X72670000Y-66900000D03*
D13*
X56000000Y-73500000D03*
D11*
X56000000Y-71000000D03*
X74400000Y-87200000D03*
X71900000Y-87200000D03*
X68560000Y-87170000D03*
X68560000Y-92170000D03*
X68560000Y-94600000D03*
X68560000Y-99600000D03*
X96230000Y-112600000D03*
X98730000Y-112600000D03*
D13*
X82296000Y-124206000D03*
D11*
X82296000Y-126706000D03*
D13*
X78330000Y-72430000D03*
D12*
X78330000Y-64810000D03*
D13*
X89340000Y-102600000D03*
D12*
X89340000Y-94980000D03*
D13*
X89380000Y-113160000D03*
D12*
X89380000Y-105540000D03*
D14*
X68580000Y-127508000D03*
X68580000Y-133508000D03*
X73280000Y-130508000D03*
D15*
X113030000Y-66040000D03*
X55000000Y-66000000D03*
D16*
X98552000Y-100330000D03*
D17*
X101092000Y-100330000D03*
X98552000Y-102870000D03*
X101092000Y-102870000D03*
X98552000Y-105410000D03*
X101092000Y-105410000D03*
D15*
X113000000Y-135000000D03*
X55000000Y-135000000D03*
D16*
X97790000Y-66040000D03*
D17*
X97790000Y-68580000D03*
X97790000Y-71120000D03*
X97790000Y-73660000D03*
D16*
X72136000Y-81280000D03*
D17*
X72136000Y-78740000D03*
X72136000Y-76200000D03*
X72136000Y-73660000D03*
D18*
X53840000Y-115920000D03*
X53840000Y-106920000D03*
D19*
X57340000Y-111420000D03*
D20*
X62340000Y-111420000D03*
D18*
X53840000Y-128550000D03*
X53840000Y-119550000D03*
D19*
X57340000Y-124050000D03*
D20*
X62340000Y-124050000D03*
D16*
X95504000Y-92964000D03*
D17*
X98044000Y-92964000D03*
D21*
X59180000Y-78460000D03*
X59180000Y-92160000D03*
D13*
X62030000Y-86610000D03*
D11*
X62030000Y-84010000D03*
X62030000Y-88710000D03*
X62030000Y-81910000D03*
X64830000Y-88710000D03*
X64830000Y-81910000D03*
D22*
X58380000Y-85310000D03*
D11*
X81460000Y-64690000D03*
D12*
X81460000Y-72310000D03*
D11*
X105156000Y-65024000D03*
D12*
X105156000Y-72644000D03*
D11*
X101600000Y-65024000D03*
D12*
X101600000Y-72644000D03*
D11*
X65990000Y-107100000D03*
D12*
X73610000Y-107100000D03*
D11*
X73650000Y-110420000D03*
D12*
X66030000Y-110420000D03*
D11*
X108712000Y-72644000D03*
D12*
X108712000Y-65024000D03*
D11*
X65970000Y-116930000D03*
D12*
X73590000Y-116930000D03*
D11*
X65990000Y-113660000D03*
D12*
X73610000Y-113660000D03*
D11*
X112522000Y-119126000D03*
D12*
X104902000Y-119126000D03*
D11*
X104902000Y-115824000D03*
D12*
X112522000Y-115824000D03*
D11*
X106110000Y-111440000D03*
D12*
X106110000Y-103820000D03*
D11*
X109270000Y-103820000D03*
D12*
X109270000Y-111440000D03*
D11*
X112522000Y-125730000D03*
D12*
X104902000Y-125730000D03*
D11*
X104902000Y-122428000D03*
D12*
X112522000Y-122428000D03*
D11*
X57404000Y-103886000D03*
D12*
X57404000Y-96266000D03*
D11*
X54102000Y-96266000D03*
D12*
X54102000Y-103886000D03*
D23*
X97496000Y-83352000D03*
X99996000Y-88392000D03*
X94996000Y-88392000D03*
D24*
X67818000Y-66112000D03*
X67818000Y-70612000D03*
X61318000Y-66112000D03*
X61318000Y-70612000D03*
D25*
X77470000Y-118872000D03*
D26*
X80010000Y-118872000D03*
X82550000Y-118872000D03*
D13*
X78486000Y-77216000D03*
D12*
X86106000Y-110236000D03*
X78486000Y-79756000D03*
X86106000Y-107696000D03*
X78486000Y-82296000D03*
X86106000Y-105156000D03*
X78486000Y-84836000D03*
X86106000Y-102616000D03*
X78486000Y-87376000D03*
X86106000Y-100076000D03*
X78486000Y-89916000D03*
X86106000Y-97536000D03*
X78486000Y-92456000D03*
X86106000Y-94996000D03*
X78486000Y-94996000D03*
X86106000Y-92456000D03*
X78486000Y-97536000D03*
X86106000Y-89916000D03*
X78486000Y-100076000D03*
X86106000Y-87376000D03*
X78486000Y-102616000D03*
X86106000Y-84836000D03*
X78486000Y-105156000D03*
X86106000Y-82296000D03*
X78486000Y-107696000D03*
X86106000Y-79756000D03*
X78486000Y-110236000D03*
X86106000Y-77216000D03*
D16*
X113030000Y-109220000D03*
D17*
X113030000Y-106680000D03*
X113030000Y-104140000D03*
X113030000Y-101600000D03*
X113030000Y-99060000D03*
X113030000Y-96520000D03*
X113030000Y-93980000D03*
X113030000Y-91440000D03*
X113030000Y-88900000D03*
X113030000Y-86360000D03*
X113030000Y-83820000D03*
X113030000Y-81280000D03*
X113030000Y-78740000D03*
X113030000Y-76200000D03*
X113030000Y-73660000D03*
X113030000Y-71120000D03*
D27*
X89792000Y-132204000D03*
X97792000Y-132204000D03*
D28*
X73260000Y-97340000D03*
X73260000Y-92460000D03*
D25*
X89408000Y-67564000D03*
D29*
X89408000Y-65024000D03*
D11*
X84836000Y-65024000D03*
D12*
X84836000Y-72644000D03*
D30*
X64262000Y-101854000D03*
X64262000Y-104394000D03*
D31*
X64262000Y-99314000D03*
D11*
X68150000Y-102920000D03*
D12*
X75770000Y-102920000D03*
D16*
X64008000Y-96012000D03*
D17*
X61468000Y-96012000D03*
D11*
X68730000Y-84830000D03*
D12*
X68730000Y-77210000D03*
D32*
X78232000Y-132588000D03*
D33*
X83312000Y-132588000D03*
M02*
