M48
;DRILL file {KiCad 4.0.7} date 11/12/21 15:50:17
;FORMAT={-:-/ absolute / inch / decimal}
FMAT,2
INCH,TZ
T1C0.016
T2C0.031
T3C0.035
T4C0.039
T5C0.043
T6C0.047
T7C0.059
T8C0.060
%
G90
G05
M72
T1
X3.21Y-3.15
X3.5543Y-4.7028
X3.65Y-4.91
X3.69Y-4.68
X3.73Y-4.9
X3.79Y-4.89
X4.026Y-4.3441
X4.05Y-4.2272
X4.1323Y-4.3087
X4.2232Y-4.2232
T2
X2.13Y-3.79
X2.13Y-4.09
X2.2047Y-2.7953
X2.2047Y-2.8937
X2.26Y-3.79
X2.26Y-4.09
X2.4421Y-3.2248
X2.4421Y-3.3075
X2.4421Y-3.4098
X2.4421Y-3.4925
X2.53Y-3.91
X2.53Y-4.01
X2.53Y-4.11
X2.5524Y-3.2248
X2.5524Y-3.4925
X2.5972Y-4.6035
X2.598Y-4.2165
X2.598Y-4.4748
X2.5996Y-4.3472
X2.6316Y-4.8
X2.6831Y-4.052
X2.6992Y-3.4319
X2.6992Y-3.6287
X2.6992Y-3.7244
X2.6992Y-3.9213
X2.7059Y-3.0398
X2.7059Y-3.3398
X2.73Y-4.8
X2.8307Y-3.4331
X2.861Y-2.6339
X2.8843Y-3.6402
X2.8843Y-3.8323
X2.8972Y-4.6035
X2.898Y-4.2165
X2.898Y-4.4748
X2.8996Y-4.3472
X2.9291Y-3.4331
X2.9594Y-2.6339
X2.9831Y-4.052
X3.0839Y-2.5516
X3.0839Y-2.8516
X3.09Y-3.04
X3.09Y-3.14
X3.09Y-3.24
X3.09Y-3.34
X3.09Y-3.44
X3.09Y-3.54
X3.09Y-3.64
X3.09Y-3.74
X3.09Y-3.84
X3.09Y-3.94
X3.09Y-4.04
X3.09Y-4.14
X3.09Y-4.24
X3.09Y-4.34
X3.2071Y-2.5469
X3.2071Y-2.8469
X3.24Y-4.89
X3.24Y-4.9884
X3.34Y-2.56
X3.34Y-2.86
X3.39Y-3.04
X3.39Y-3.14
X3.39Y-3.24
X3.39Y-3.34
X3.39Y-3.44
X3.39Y-3.54
X3.39Y-3.64
X3.39Y-3.74
X3.39Y-3.84
X3.39Y-3.94
X3.39Y-4.04
X3.39Y-4.14
X3.39Y-4.24
X3.39Y-4.34
X3.5173Y-3.7394
X3.5173Y-4.0394
X3.5189Y-4.1551
X3.5189Y-4.4551
X3.6551Y-4.1303
X3.6551Y-4.4303
X3.7886Y-4.4331
X3.887Y-4.4331
X4.Y-2.56
X4.Y-2.86
X4.13Y-4.56
X4.13Y-4.69
X4.13Y-4.82
X4.13Y-4.95
X4.14Y-2.56
X4.14Y-2.86
X4.1776Y-4.0874
X4.1776Y-4.3874
X4.28Y-2.56
X4.28Y-2.86
X4.302Y-4.0874
X4.302Y-4.3874
X4.43Y-4.56
X4.43Y-4.69
X4.43Y-4.82
X4.43Y-4.95
T3
X3.52Y-2.56
X3.52Y-2.66
T4
X2.42Y-3.78
X2.52Y-3.78
X2.84Y-2.9
X2.84Y-3.
X2.84Y-3.1
X2.84Y-3.2
X3.05Y-4.68
X3.15Y-4.68
X3.25Y-4.68
X3.76Y-3.66
X3.85Y-2.6
X3.85Y-2.7
X3.85Y-2.8
X3.85Y-2.9
X3.86Y-3.66
X3.88Y-3.95
X3.88Y-4.05
X3.88Y-4.15
X3.98Y-3.95
X3.98Y-4.05
X3.98Y-4.15
X4.45Y-2.8
X4.45Y-2.9
X4.45Y-3.
X4.45Y-3.1
X4.45Y-3.2
X4.45Y-3.3
X4.45Y-3.4
X4.45Y-3.5
X4.45Y-3.6
X4.45Y-3.7
X4.45Y-3.8
X4.45Y-3.9
X4.45Y-4.
X4.45Y-4.1
X4.45Y-4.2
X4.45Y-4.3
T5
X2.4141Y-2.6028
X2.4141Y-2.78
X2.67Y-2.6028
X2.67Y-2.78
T6
X3.74Y-3.48
X3.8384Y-3.2816
X3.9369Y-3.48
T8
X3.08Y-5.22
X3.28Y-5.22
T4
X2.2984Y-3.3193G85X2.2984Y-3.398
G05
X2.3594Y-3.089G85X2.3004Y-3.089
G05
X2.3594Y-3.6283G85X2.3004Y-3.6283
G05
X2.6606Y-5.02G85X2.7394Y-5.02
G05
X2.6606Y-5.2562G85X2.7394Y-5.2562
G05
X2.885Y-5.1775G85X2.885Y-5.0987
G05
T7
X2.2575Y-4.4063G85X2.2575Y-4.3669
G05
X2.2575Y-4.9035G85X2.2575Y-4.8642
G05
X2.4346Y-4.3866G85X2.474Y-4.3866
G05
X2.4346Y-4.8839G85X2.474Y-4.8839
G05
T0
M30
