M48
; DRILL file {KiCad (6.0.11)} date Sat Aug  5 14:41:11 2023
; FORMAT={-:-/ absolute / inch / decimal}
; #@! TF.CreationDate,2023-08-05T14:41:11-05:00
; #@! TF.GenerationSoftware,Kicad,Pcbnew,(6.0.11)
; #@! TF.FileFunction,Plated,1,2,PTH
FMAT,2
INCH
; #@! TA.AperFunction,Plated,PTH,ViaDrill
T1C0.0157
; #@! TA.AperFunction,Plated,PTH,ComponentDrill
T2C0.0315
; #@! TA.AperFunction,Plated,PTH,ComponentDrill
T3C0.0394
; #@! TA.AperFunction,Plated,PTH,ComponentDrill
T4C0.0472
%
G90
G05
T1
X4.6763Y-3.8125
X4.6963Y-2.7425
X4.7293Y-1.6356
X4.7363Y-3.7525
X4.7563Y-2.6925
X4.7785Y-1.675
X5.1513Y-4.3725
X5.1796Y-2.2631
X5.2163Y-3.3825
X5.5963Y-2.6925
X5.6278Y-3.7559
X5.6563Y-2.7425
X5.6741Y-1.6356
X5.6741Y-1.6947
X5.6863Y-3.8225
T2
X4.6563Y-5.0896
X4.6632Y-4.7811
X4.6632Y-4.978
X4.7763Y-4.8296
X4.7763Y-4.9596
X4.8532Y-5.0896
X4.9732Y-4.8296
X4.9732Y-4.9596
X5.1232Y-5.2296
X5.1905Y-5.4145
X5.7104Y-4.7919
X5.7104Y-4.9888
X5.7136Y-5.4667
X5.7136Y-5.6636
T3
X5.1128Y-5.6406
X5.1132Y-4.8396
X5.1167Y-3.7915
X5.1167Y-4.5925
X5.1296Y-2.7325
X5.1296Y-3.5315
X5.1363Y-1.6825
X5.1363Y-2.4825
X5.2128Y-5.6406
X5.2132Y-4.8396
X5.2167Y-3.7915
X5.2167Y-4.5925
X5.2296Y-2.7325
X5.2296Y-3.5315
X5.2363Y-1.6825
X5.2363Y-2.4825
X5.3128Y-5.6406
X5.3132Y-4.8396
X5.3167Y-3.7915
X5.3167Y-4.5925
X5.3296Y-2.7325
X5.3296Y-3.5315
X5.3363Y-1.6825
X5.3363Y-2.4825
X5.4128Y-5.6406
X5.4132Y-4.8396
X5.4167Y-3.7915
X5.4167Y-4.5925
X5.4296Y-2.7325
X5.4296Y-3.5315
X5.4363Y-1.6825
X5.4363Y-2.4825
T4
X4.7025Y-5.6698
X4.7225Y-4.5939
X4.7256Y-3.5327
X4.7327Y-2.5003
X4.9932Y-5.1562
X5.0131Y-4.0802
X5.0163Y-3.0191
X5.0234Y-1.9866
X5.3945Y-3.3977
X5.3969Y-5.5009
X5.4176Y-4.4354
X5.4326Y-2.3404
X5.5423Y-2.8264
X5.5447Y-4.9295
X5.5654Y-3.8641
X5.5804Y-1.7691
T0
M30
