%TF.GenerationSoftware,KiCad,Pcbnew,(6.0.11)*%
%TF.CreationDate,2023-08-05T14:41:11-05:00*%
%TF.ProjectId,SerialResonantFilter,53657269-616c-4526-9573-6f6e616e7446,rev?*%
%TF.SameCoordinates,Original*%
%TF.FileFunction,Copper,L1,Top*%
%TF.FilePolarity,Positive*%
%FSLAX46Y46*%
G04 Gerber Fmt 4.6, Leading zero omitted, Abs format (unit mm)*
G04 Created by KiCad (PCBNEW (6.0.11)) date 2023-08-05 14:41:11*
%MOMM*%
%LPD*%
G01*
G04 APERTURE LIST*
G04 Aperture macros list*
%AMRoundRect*
0 Rectangle with rounded corners*
0 $1 Rounding radius*
0 $2 $3 $4 $5 $6 $7 $8 $9 X,Y pos of 4 corners*
0 Add a 4 corners polygon primitive as box body*
4,1,4,$2,$3,$4,$5,$6,$7,$8,$9,$2,$3,0*
0 Add four circle primitives for the rounded corners*
1,1,$1+$1,$2,$3*
1,1,$1+$1,$4,$5*
1,1,$1+$1,$6,$7*
1,1,$1+$1,$8,$9*
0 Add four rect primitives between the rounded corners*
20,1,$1+$1,$2,$3,$4,$5,0*
20,1,$1+$1,$4,$5,$6,$7,0*
20,1,$1+$1,$6,$7,$8,$9,0*
20,1,$1+$1,$8,$9,$2,$3,0*%
G04 Aperture macros list end*
%TA.AperFunction,SMDPad,CuDef*%
%ADD10RoundRect,0.381000X-0.381000X0.381000X-0.381000X-0.381000X0.381000X-0.381000X0.381000X0.381000X0*%
%TD*%
%TA.AperFunction,ComponentPad*%
%ADD11C,1.600000*%
%TD*%
%TA.AperFunction,SMDPad,CuDef*%
%ADD12RoundRect,0.381000X0.381000X0.381000X-0.381000X0.381000X-0.381000X-0.381000X0.381000X-0.381000X0*%
%TD*%
%TA.AperFunction,SMDPad,CuDef*%
%ADD13RoundRect,0.381000X-0.488333X0.227713X-0.227713X-0.488333X0.488333X-0.227713X0.227713X0.488333X0*%
%TD*%
%TA.AperFunction,ComponentPad*%
%ADD14C,2.400000*%
%TD*%
%TA.AperFunction,ComponentPad*%
%ADD15O,1.700000X1.700000*%
%TD*%
%TA.AperFunction,ComponentPad*%
%ADD16R,1.700000X1.700000*%
%TD*%
%TA.AperFunction,SMDPad,CuDef*%
%ADD17RoundRect,0.250000X-0.412500X-0.650000X0.412500X-0.650000X0.412500X0.650000X-0.412500X0.650000X0*%
%TD*%
%TA.AperFunction,SMDPad,CuDef*%
%ADD18RoundRect,0.250000X0.412500X0.650000X-0.412500X0.650000X-0.412500X-0.650000X0.412500X-0.650000X0*%
%TD*%
%TA.AperFunction,SMDPad,CuDef*%
%ADD19RoundRect,0.250000X-0.650000X0.412500X-0.650000X-0.412500X0.650000X-0.412500X0.650000X0.412500X0*%
%TD*%
%TA.AperFunction,ViaPad*%
%ADD20C,0.600000*%
%TD*%
%TA.AperFunction,Conductor*%
%ADD21C,1.000000*%
%TD*%
G04 APERTURE END LIST*
D10*
%TO.P,C28,2*%
%TO.N,Net-(C27-Pad2)*%
X145125000Y-143055000D03*
D11*
X145125000Y-143855000D03*
D10*
%TO.P,C28,1*%
%TO.N,GND*%
X145125000Y-139655000D03*
D11*
X145125000Y-138855000D03*
%TD*%
%TO.P,C27,1*%
%TO.N,Net-(C23-Pad2)*%
X123271000Y-129275000D03*
D12*
X122471000Y-129275000D03*
D11*
%TO.P,C27,2*%
%TO.N,Net-(C27-Pad2)*%
X118271000Y-129275000D03*
D12*
X119071000Y-129275000D03*
%TD*%
D11*
%TO.P,C26,1*%
%TO.N,Net-(C23-Pad2)*%
X130129000Y-132831000D03*
D13*
X130402616Y-133582754D03*
D11*
%TO.P,C26,2*%
%TO.N,Net-(C27-Pad2)*%
X131839101Y-137529463D03*
D13*
X131565485Y-136777709D03*
%TD*%
D11*
%TO.P,C25,1*%
%TO.N,GND*%
X118445000Y-121441000D03*
D10*
X118445000Y-122241000D03*
D11*
%TO.P,C25,2*%
%TO.N,Net-(C23-Pad2)*%
X118445000Y-126441000D03*
D10*
X118445000Y-125641000D03*
%TD*%
D12*
%TO.P,C24,2*%
%TO.N,Net-(C23-Pad2)*%
X122119000Y-122671000D03*
D11*
X121319000Y-122671000D03*
D12*
%TO.P,C24,1*%
%TO.N,Net-(C23-Pad1)*%
X125519000Y-122671000D03*
D11*
X126319000Y-122671000D03*
%TD*%
D12*
%TO.P,C23,2*%
%TO.N,Net-(C23-Pad2)*%
X122119000Y-125973000D03*
D11*
X121319000Y-125973000D03*
D12*
%TO.P,C23,1*%
%TO.N,Net-(C23-Pad1)*%
X125519000Y-125973000D03*
D11*
X126319000Y-125973000D03*
%TD*%
%TO.P,C22,1*%
%TO.N,GND*%
X145045000Y-121715000D03*
D10*
X145045000Y-122515000D03*
D11*
%TO.P,C22,2*%
%TO.N,Net-(C22-Pad2)*%
X145045000Y-126715000D03*
D10*
X145045000Y-125915000D03*
%TD*%
D14*
%TO.P,L8,1*%
%TO.N,Net-(C23-Pad2)*%
X126827000Y-130966705D03*
%TO.P,L8,2*%
%TO.N,Net-(C27-Pad2)*%
X119444583Y-144013425D03*
%TD*%
%TO.P,L7,2*%
%TO.N,Net-(C23-Pad1)*%
X137081662Y-139723163D03*
%TO.P,L7,1*%
%TO.N,Net-(C22-Pad2)*%
X140835790Y-125210289D03*
%TD*%
D15*
%TO.P,J8,4,Pin_4*%
%TO.N,Net-(C27-Pad2)*%
X137485000Y-143270000D03*
%TO.P,J8,3,Pin_3*%
X134945000Y-143270000D03*
%TO.P,J8,2,Pin_2*%
%TO.N,GND*%
X132405000Y-143270000D03*
D16*
%TO.P,J8,1,Pin_1*%
X129865000Y-143270000D03*
%TD*%
D15*
%TO.P,J7,4,Pin_4*%
%TO.N,Net-(C22-Pad2)*%
X137495000Y-122925000D03*
%TO.P,J7,3,Pin_3*%
X134955000Y-122925000D03*
%TO.P,J7,2,Pin_2*%
%TO.N,GND*%
X132415000Y-122925000D03*
D16*
%TO.P,J7,1,Pin_1*%
X129875000Y-122925000D03*
%TD*%
D14*
%TO.P,L6,1*%
%TO.N,Net-(C16-Pad2)*%
X127413338Y-76684292D03*
%TO.P,L6,2*%
%TO.N,Net-(C19-Pad2)*%
X120030921Y-89731012D03*
%TD*%
%TO.P,L5,1*%
%TO.N,Net-(C15-Pad2)*%
X140774128Y-71789876D03*
%TO.P,L5,2*%
%TO.N,Net-(C16-Pad1)*%
X137020000Y-86302750D03*
%TD*%
D16*
%TO.P,J6,1,Pin_1*%
%TO.N,GND*%
X130290838Y-89699587D03*
D15*
%TO.P,J6,2,Pin_2*%
X132830838Y-89699587D03*
%TO.P,J6,3,Pin_3*%
%TO.N,Net-(C19-Pad2)*%
X135370838Y-89699587D03*
%TO.P,J6,4,Pin_4*%
X137910838Y-89699587D03*
%TD*%
D16*
%TO.P,J5,1,Pin_1*%
%TO.N,GND*%
X130290838Y-69404587D03*
D15*
%TO.P,J5,2,Pin_2*%
X132830838Y-69404587D03*
%TO.P,J5,3,Pin_3*%
%TO.N,Net-(C15-Pad2)*%
X135370838Y-69404587D03*
%TO.P,J5,4,Pin_4*%
X137910838Y-69404587D03*
%TD*%
D17*
%TO.P,C21,1*%
%TO.N,GND*%
X131184838Y-86168587D03*
%TO.P,C21,2*%
%TO.N,Net-(C19-Pad2)*%
X134309838Y-86168587D03*
%TD*%
D18*
%TO.P,C20,1*%
%TO.N,Net-(C16-Pad2)*%
X121863838Y-75246587D03*
%TO.P,C20,2*%
%TO.N,Net-(C19-Pad2)*%
X118738838Y-75246587D03*
%TD*%
D17*
%TO.P,C19,1*%
%TO.N,Net-(C16-Pad2)*%
X129114338Y-74230587D03*
%TO.P,C19,2*%
%TO.N,Net-(C19-Pad2)*%
X132239338Y-74230587D03*
%TD*%
D19*
%TO.P,C18,1*%
%TO.N,GND*%
X119031338Y-68350087D03*
%TO.P,C18,2*%
%TO.N,Net-(C16-Pad2)*%
X119031338Y-71475087D03*
%TD*%
D18*
%TO.P,C17,1*%
%TO.N,Net-(C16-Pad1)*%
X125673838Y-68896587D03*
%TO.P,C17,2*%
%TO.N,Net-(C16-Pad2)*%
X122548838Y-68896587D03*
%TD*%
%TO.P,C16,1*%
%TO.N,Net-(C16-Pad1)*%
X125635338Y-72706587D03*
%TO.P,C16,2*%
%TO.N,Net-(C16-Pad2)*%
X122510338Y-72706587D03*
%TD*%
D19*
%TO.P,C15,1*%
%TO.N,GND*%
X143669338Y-68350087D03*
%TO.P,C15,2*%
%TO.N,Net-(C15-Pad2)*%
X143669338Y-71475087D03*
%TD*%
D15*
%TO.P,J4,4,Pin_4*%
%TO.N,Net-(C12-Pad2)*%
X137583338Y-116648587D03*
%TO.P,J4,3,Pin_3*%
X135043338Y-116648587D03*
%TO.P,J4,2,Pin_2*%
%TO.N,GND*%
X132503338Y-116648587D03*
D16*
%TO.P,J4,1,Pin_1*%
X129963338Y-116648587D03*
%TD*%
D15*
%TO.P,J3,4,Pin_4*%
%TO.N,Net-(C8-Pad2)*%
X137583338Y-96303587D03*
%TO.P,J3,3,Pin_3*%
X135043338Y-96303587D03*
%TO.P,J3,2,Pin_2*%
%TO.N,GND*%
X132503338Y-96303587D03*
D16*
%TO.P,J3,1,Pin_1*%
X129963338Y-96303587D03*
%TD*%
D14*
%TO.P,L4,2*%
%TO.N,Net-(C12-Pad2)*%
X119950921Y-116684800D03*
%TO.P,L4,1*%
%TO.N,Net-(C10-Pad2)*%
X127333338Y-103638080D03*
%TD*%
%TO.P,L1,1*%
%TO.N,Net-(C8-Pad2)*%
X141360938Y-98147039D03*
%TO.P,L1,2*%
%TO.N,Net-(C10-Pad1)*%
X137606810Y-112659913D03*
%TD*%
D17*
%TO.P,C14,1*%
%TO.N,GND*%
X131146338Y-112711587D03*
%TO.P,C14,2*%
%TO.N,Net-(C12-Pad2)*%
X134271338Y-112711587D03*
%TD*%
D18*
%TO.P,C13,1*%
%TO.N,Net-(C10-Pad2)*%
X121736838Y-102043587D03*
%TO.P,C13,2*%
%TO.N,Net-(C12-Pad2)*%
X118611838Y-102043587D03*
%TD*%
D17*
%TO.P,C12,1*%
%TO.N,Net-(C10-Pad2)*%
X129279838Y-101154587D03*
%TO.P,C12,2*%
%TO.N,Net-(C12-Pad2)*%
X132404838Y-101154587D03*
%TD*%
D19*
%TO.P,C11,1*%
%TO.N,GND*%
X118650338Y-95312587D03*
%TO.P,C11,2*%
%TO.N,Net-(C10-Pad2)*%
X118650338Y-98437587D03*
%TD*%
D18*
%TO.P,C10,1*%
%TO.N,Net-(C10-Pad1)*%
X125077338Y-95439587D03*
%TO.P,C10,2*%
%TO.N,Net-(C10-Pad2)*%
X121952338Y-95439587D03*
%TD*%
%TO.P,C9,1*%
%TO.N,Net-(C10-Pad1)*%
X125077338Y-98995587D03*
%TO.P,C9,2*%
%TO.N,Net-(C10-Pad2)*%
X121952338Y-98995587D03*
%TD*%
D19*
%TO.P,C8,1*%
%TO.N,GND*%
X144431338Y-95401087D03*
%TO.P,C8,2*%
%TO.N,Net-(C8-Pad2)*%
X144431338Y-98526087D03*
%TD*%
%TO.P,C1,1*%
%TO.N,GND*%
X145623338Y-41982087D03*
%TO.P,C1,2*%
%TO.N,Net-(C1-Pad2)*%
X145623338Y-45107087D03*
%TD*%
D18*
%TO.P,C2,1*%
%TO.N,Net-(C2-Pad1)*%
X126435838Y-42044587D03*
%TO.P,C2,2*%
%TO.N,Net-(C2-Pad2)*%
X123310838Y-42044587D03*
%TD*%
%TO.P,C3,1*%
%TO.N,Net-(C2-Pad1)*%
X126435838Y-45794587D03*
%TO.P,C3,2*%
%TO.N,Net-(C2-Pad2)*%
X123310838Y-45794587D03*
%TD*%
D19*
%TO.P,C4,1*%
%TO.N,GND*%
X119623338Y-42982087D03*
%TO.P,C4,2*%
%TO.N,Net-(C2-Pad2)*%
X119623338Y-46107087D03*
%TD*%
D18*
%TO.P,C5,1*%
%TO.N,Net-(C2-Pad2)*%
X124435838Y-49474587D03*
%TO.P,C5,2*%
%TO.N,Net-(C5-Pad2)*%
X121310838Y-49474587D03*
%TD*%
D17*
%TO.P,C6,1*%
%TO.N,GND*%
X131560838Y-59544587D03*
%TO.P,C6,2*%
%TO.N,Net-(C5-Pad2)*%
X134685838Y-59544587D03*
%TD*%
D14*
%TO.P,L2,1*%
%TO.N,Net-(C1-Pad2)*%
X141741938Y-44934039D03*
%TO.P,L2,2*%
%TO.N,Net-(C2-Pad1)*%
X137987810Y-59446913D03*
%TD*%
%TO.P,L3,1*%
%TO.N,Net-(C2-Pad2)*%
X127593338Y-50459705D03*
%TO.P,L3,2*%
%TO.N,Net-(C5-Pad2)*%
X120210921Y-63506425D03*
%TD*%
D16*
%TO.P,J1,1,Pin_1*%
%TO.N,GND*%
X130461338Y-63054587D03*
D15*
%TO.P,J1,2,Pin_2*%
X133001338Y-63054587D03*
%TO.P,J1,3,Pin_3*%
%TO.N,Net-(C5-Pad2)*%
X135541338Y-63054587D03*
%TO.P,J1,4,Pin_4*%
X138081338Y-63054587D03*
%TD*%
D16*
%TO.P,J2,1,Pin_1*%
%TO.N,GND*%
X130461338Y-42734587D03*
D15*
%TO.P,J2,2,Pin_2*%
X133001338Y-42734587D03*
%TO.P,J2,3,Pin_3*%
%TO.N,Net-(C1-Pad2)*%
X135541338Y-42734587D03*
%TO.P,J2,4,Pin_4*%
X138081338Y-42734587D03*
%TD*%
D17*
%TO.P,C7,2*%
%TO.N,Net-(C5-Pad2)*%
X131515838Y-47814587D03*
%TO.P,C7,1*%
%TO.N,Net-(C2-Pad2)*%
X128390838Y-47814587D03*
%TD*%
D20*
%TO.N,GND*%
X132493338Y-85914587D03*
X119285338Y-69658587D03*
X120809338Y-68388587D03*
X142145338Y-68388587D03*
X143669338Y-69658587D03*
X118777338Y-96836587D03*
X120301338Y-95312587D03*
X130842338Y-111060587D03*
X144431338Y-97090587D03*
X142945838Y-95401087D03*
X144123338Y-41544587D03*
X120123338Y-41544587D03*
X121373338Y-42544587D03*
X131560838Y-57482087D03*
X144123338Y-43044587D03*
%TD*%
D21*
%TO.N,Net-(C23-Pad2)*%
X121319000Y-127323000D02*
X123271000Y-129275000D01*
X121319000Y-125973000D02*
X121319000Y-127323000D01*
X118913000Y-125973000D02*
X118445000Y-126441000D01*
X121319000Y-125973000D02*
X118913000Y-125973000D01*
%TO.N,Net-(C5-Pad2)*%
X120785508Y-64081012D02*
X120210921Y-63506425D01*
X125086913Y-64081012D02*
X120785508Y-64081012D01*
X129123338Y-60044587D02*
X125086913Y-64081012D01*
X129123338Y-56264587D02*
X129123338Y-60044587D01*
X129953338Y-55434587D02*
X129123338Y-56264587D01*
X131223338Y-55434587D02*
X129953338Y-55434587D01*
X119073338Y-62368842D02*
X120210921Y-63506425D01*
X119073338Y-50844587D02*
X119073338Y-62368842D01*
%TO.N,Net-(C2-Pad2)*%
X128390838Y-49662205D02*
X127593338Y-50459705D01*
X128390838Y-47814587D02*
X128390838Y-49662205D01*
X126608220Y-49474587D02*
X127593338Y-50459705D01*
X124435838Y-49474587D02*
X126608220Y-49474587D01*
%TO.N,Net-(C5-Pad2)*%
X121310838Y-49474587D02*
X120443338Y-49474587D01*
X120443338Y-49474587D02*
X119073338Y-50844587D01*
%TO.N,GND*%
X132405000Y-143270000D02*
X129865000Y-143270000D01*
%TO.N,Net-(C10-Pad1)*%
X136225000Y-110474249D02*
X137606810Y-111856059D01*
X137606810Y-111856059D02*
X137606810Y-112659913D01*
X136225000Y-100850000D02*
X136225000Y-110474249D01*
X134370587Y-98995587D02*
X136225000Y-100850000D01*
X125077338Y-98995587D02*
X134370587Y-98995587D01*
%TO.N,Net-(C27-Pad2)*%
X131018537Y-137529463D02*
X131839101Y-137529463D01*
X124534575Y-144013425D02*
X131018537Y-137529463D01*
X119444583Y-144013425D02*
X124534575Y-144013425D01*
X134945000Y-141711000D02*
X134945000Y-143270000D01*
X131839101Y-138605101D02*
X134945000Y-141711000D01*
X131839101Y-137529463D02*
X131839101Y-138605101D01*
X137485000Y-143270000D02*
X134945000Y-143270000D01*
%TO.N,Net-(C23-Pad2)*%
X128264705Y-130966705D02*
X130129000Y-132831000D01*
X126827000Y-130966705D02*
X128264705Y-130966705D01*
X125135295Y-129275000D02*
X126827000Y-130966705D01*
X123271000Y-129275000D02*
X125135295Y-129275000D01*
%TO.N,Net-(C27-Pad2)*%
X118271000Y-129275000D02*
X118271000Y-142839842D01*
X118271000Y-142839842D02*
X119444583Y-144013425D01*
%TO.N,Net-(C23-Pad2)*%
X121319000Y-122671000D02*
X121319000Y-125973000D01*
%TO.N,Net-(C23-Pad1)*%
X126319000Y-122671000D02*
X126319000Y-125973000D01*
X128097000Y-125973000D02*
X126319000Y-125973000D01*
X137081662Y-134957662D02*
X128097000Y-125973000D01*
X137081662Y-139723163D02*
X137081662Y-134957662D01*
%TO.N,Net-(C22-Pad2)*%
X142340501Y-126715000D02*
X140835790Y-125210289D01*
X145045000Y-126715000D02*
X142340501Y-126715000D01*
X138550501Y-122925000D02*
X140835790Y-125210289D01*
X137495000Y-122925000D02*
X138550501Y-122925000D01*
X134955000Y-122925000D02*
X137495000Y-122925000D01*
%TO.N,GND*%
X132415000Y-122925000D02*
X129875000Y-122925000D01*
%TO.N,Net-(C27-Pad2)*%
X144435000Y-143165000D02*
X137590000Y-143165000D01*
X145125000Y-143855000D02*
X144435000Y-143165000D01*
X137590000Y-143165000D02*
X137485000Y-143270000D01*
%TO.N,GND*%
X132503338Y-116648587D02*
X129963338Y-116648587D01*
%TO.N,Net-(C19-Pad2)*%
X134309838Y-85445087D02*
X134309838Y-86168587D01*
X132493338Y-83628587D02*
X134309838Y-85445087D01*
X130715338Y-83628587D02*
X132493338Y-83628587D01*
X132239338Y-82104587D02*
X132239338Y-74230587D01*
X126133346Y-83628587D02*
X130715338Y-83628587D01*
X120030921Y-89731012D02*
X126133346Y-83628587D01*
X130715338Y-83628587D02*
X132239338Y-82104587D01*
X134309838Y-88638587D02*
X135370838Y-89699587D01*
X134309838Y-86168587D02*
X134309838Y-88638587D01*
X137910838Y-89699587D02*
X135370838Y-89699587D01*
%TO.N,Net-(C16-Pad2)*%
X122040838Y-71475087D02*
X122548838Y-70967087D01*
X119031338Y-71475087D02*
X122040838Y-71475087D01*
X122548838Y-70967087D02*
X122548838Y-72668087D01*
X122548838Y-68896587D02*
X122548838Y-70967087D01*
X122548838Y-72668087D02*
X122510338Y-72706587D01*
X129114338Y-74983292D02*
X127413338Y-76684292D01*
X129114338Y-74230587D02*
X129114338Y-74983292D01*
X125975633Y-75246587D02*
X121863838Y-75246587D01*
X127413338Y-76684292D02*
X125975633Y-75246587D01*
%TO.N,GND*%
X132239338Y-86168587D02*
X132493338Y-85914587D01*
X131184838Y-86168587D02*
X132239338Y-86168587D01*
X131184838Y-88805587D02*
X130290838Y-89699587D01*
X131184838Y-86168587D02*
X131184838Y-88805587D01*
%TO.N,Net-(C19-Pad2)*%
X118738838Y-88438929D02*
X120030921Y-89731012D01*
X118738838Y-75246587D02*
X118738838Y-88438929D01*
%TO.N,Net-(C16-Pad2)*%
X122510338Y-74600087D02*
X121863838Y-75246587D01*
X122510338Y-72706587D02*
X122510338Y-74600087D01*
%TO.N,GND*%
X119031338Y-69404587D02*
X119285338Y-69658587D01*
X119031338Y-68350087D02*
X119031338Y-69404587D01*
X120770838Y-68350087D02*
X120809338Y-68388587D01*
X119031338Y-68350087D02*
X120770838Y-68350087D01*
%TO.N,Net-(C16-Pad1)*%
X125673838Y-72668087D02*
X125635338Y-72706587D01*
X125673838Y-68896587D02*
X125673838Y-72668087D01*
X134271338Y-72960587D02*
X133255338Y-71944587D01*
X137020000Y-84599249D02*
X134271338Y-81850587D01*
X134271338Y-81850587D02*
X134271338Y-72960587D01*
X137020000Y-86302750D02*
X137020000Y-84599249D01*
X133255338Y-71944587D02*
X126397338Y-71944587D01*
X126397338Y-71944587D02*
X125635338Y-72706587D01*
%TO.N,GND*%
X132830838Y-69404587D02*
X130290838Y-69404587D01*
X142183838Y-68350087D02*
X142145338Y-68388587D01*
X143669338Y-68350087D02*
X142183838Y-68350087D01*
X143669338Y-68350087D02*
X143669338Y-69658587D01*
%TO.N,Net-(C15-Pad2)*%
X140774128Y-71789876D02*
X140296127Y-71789876D01*
X140296127Y-71789876D02*
X137910838Y-69404587D01*
X135370838Y-69404587D02*
X137910838Y-69404587D01*
X143669338Y-71475087D02*
X141088917Y-71475087D01*
X141088917Y-71475087D02*
X140774128Y-71789876D01*
%TO.N,GND*%
X118650338Y-96709587D02*
X118777338Y-96836587D01*
X118650338Y-95312587D02*
X118650338Y-96709587D01*
X118650338Y-95312587D02*
X120301338Y-95312587D01*
X129963338Y-116648587D02*
X129963338Y-113894587D01*
%TO.N,Net-(C12-Pad2)*%
X134271338Y-114743587D02*
X135043338Y-115515587D01*
X134271338Y-112711587D02*
X134271338Y-114743587D01*
X137583338Y-116648587D02*
X135043338Y-116648587D01*
X135043338Y-115515587D02*
X135043338Y-116648587D01*
%TO.N,GND*%
X129963338Y-113894587D02*
X131146338Y-112711587D01*
X131146338Y-111364587D02*
X130842338Y-111060587D01*
X131146338Y-112711587D02*
X131146338Y-111364587D01*
%TO.N,Net-(C10-Pad2)*%
X121952338Y-98995587D02*
X119208338Y-98995587D01*
X119208338Y-98995587D02*
X118650338Y-98437587D01*
%TO.N,GND*%
X142945838Y-95401087D02*
X144431338Y-95401087D01*
%TO.N,Net-(C8-Pad2)*%
X144431338Y-98526087D02*
X141739986Y-98526087D01*
X141739986Y-98526087D02*
X141360938Y-98147039D01*
%TO.N,GND*%
X144431338Y-95401087D02*
X144431338Y-97090587D01*
%TO.N,Net-(C12-Pad2)*%
X119950921Y-115790170D02*
X119950921Y-116684800D01*
X118777338Y-114616587D02*
X119950921Y-115790170D01*
X118777338Y-102209087D02*
X118777338Y-114616587D01*
%TO.N,Net-(C10-Pad2)*%
X121736838Y-102043587D02*
X125738845Y-102043587D01*
X121952338Y-101828087D02*
X121736838Y-102043587D01*
%TO.N,Net-(C12-Pad2)*%
X118611838Y-102043587D02*
X118777338Y-102209087D01*
%TO.N,Net-(C10-Pad2)*%
X125738845Y-102043587D02*
X127333338Y-103638080D01*
X121952338Y-98995587D02*
X121952338Y-101828087D01*
%TO.N,GND*%
X132503338Y-96303587D02*
X129963338Y-96303587D01*
%TO.N,Net-(C8-Pad2)*%
X138755486Y-96303587D02*
X140598938Y-98147039D01*
X140598938Y-98147039D02*
X141360938Y-98147039D01*
X137583338Y-96303587D02*
X138755486Y-96303587D01*
%TO.N,Net-(C10-Pad1)*%
X125077338Y-95439587D02*
X125077338Y-98995587D01*
%TO.N,Net-(C10-Pad2)*%
X121952338Y-95439587D02*
X121952338Y-98995587D01*
%TO.N,Net-(C12-Pad2)*%
X132620338Y-101370087D02*
X132404838Y-101154587D01*
X132620338Y-107631587D02*
X132620338Y-101370087D01*
X131350338Y-108901587D02*
X132620338Y-107631587D01*
%TO.N,Net-(C10-Pad2)*%
X129279838Y-101691580D02*
X127333338Y-103638080D01*
X129279838Y-101154587D02*
X129279838Y-101691580D01*
%TO.N,Net-(C12-Pad2)*%
X127921338Y-113727587D02*
X124964125Y-116684800D01*
X127921338Y-111314587D02*
X127921338Y-113727587D01*
X124964125Y-116684800D02*
X119950921Y-116684800D01*
X131350338Y-108901587D02*
X130334338Y-108901587D01*
X130334338Y-108901587D02*
X127921338Y-111314587D01*
X134271338Y-111822587D02*
X131350338Y-108901587D01*
X134271338Y-112711587D02*
X134271338Y-111822587D01*
%TO.N,Net-(C8-Pad2)*%
X137583338Y-96303587D02*
X135043338Y-96303587D01*
%TO.N,Net-(C2-Pad1)*%
X135033338Y-52894587D02*
X137987810Y-55849059D01*
X135033338Y-47814587D02*
X135033338Y-52894587D01*
X133013338Y-45794587D02*
X135033338Y-47814587D01*
X137987810Y-55849059D02*
X137987810Y-59446913D01*
X126435838Y-45794587D02*
X133013338Y-45794587D01*
%TO.N,Net-(C5-Pad2)*%
X131515838Y-55142087D02*
X131223338Y-55434587D01*
X133763338Y-55434587D02*
X131223338Y-55434587D01*
X131515838Y-47814587D02*
X131515838Y-55142087D01*
X134685838Y-56357087D02*
X133763338Y-55434587D01*
X134685838Y-59544587D02*
X134685838Y-56357087D01*
%TO.N,GND*%
X119623338Y-42982087D02*
X119623338Y-42044587D01*
X145185838Y-41982087D02*
X144123338Y-43044587D01*
X131560838Y-60607087D02*
X130461338Y-61706587D01*
X145623338Y-41982087D02*
X144560838Y-41982087D01*
X131560838Y-57482087D02*
X131560838Y-59544587D01*
X120935838Y-42982087D02*
X121373338Y-42544587D01*
X145623338Y-41982087D02*
X145185838Y-41982087D01*
X130461338Y-61706587D02*
X130461338Y-63054587D01*
X119623338Y-42982087D02*
X120935838Y-42982087D01*
X144560838Y-41982087D02*
X144123338Y-41544587D01*
X119623338Y-42044587D02*
X120123338Y-41544587D01*
X131560838Y-59544587D02*
X131560838Y-60607087D01*
%TO.N,Net-(C1-Pad2)*%
X145623338Y-45107087D02*
X141914986Y-45107087D01*
X141914986Y-45107087D02*
X141741938Y-44934039D01*
X139542486Y-42734587D02*
X141741938Y-44934039D01*
X135541338Y-42734587D02*
X138081338Y-42734587D01*
X138081338Y-42734587D02*
X139542486Y-42734587D01*
%TO.N,Net-(C2-Pad2)*%
X123310838Y-45794587D02*
X123310838Y-48349587D01*
X123310838Y-48349587D02*
X124435838Y-49474587D01*
X123310838Y-42044587D02*
X123310838Y-45794587D01*
X119623338Y-46107087D02*
X122998338Y-46107087D01*
X122998338Y-46107087D02*
X123310838Y-45794587D01*
%TO.N,Net-(C2-Pad1)*%
X126435838Y-42044587D02*
X126435838Y-45794587D01*
%TO.N,Net-(C5-Pad2)*%
X135541338Y-63054587D02*
X138081338Y-63054587D01*
X135541338Y-61212587D02*
X134685838Y-60357087D01*
X135541338Y-63054587D02*
X135541338Y-61212587D01*
X134685838Y-60357087D02*
X134685838Y-59544587D01*
%TD*%
M02*
