%TF.GenerationSoftware,KiCad,Pcbnew,(6.0.11)*%
%TF.CreationDate,2023-08-05T14:41:11-05:00*%
%TF.ProjectId,SerialResonantFilter,53657269-616c-4526-9573-6f6e616e7446,rev?*%
%TF.SameCoordinates,Original*%
%TF.FileFunction,Soldermask,Top*%
%TF.FilePolarity,Negative*%
%FSLAX46Y46*%
G04 Gerber Fmt 4.6, Leading zero omitted, Abs format (unit mm)*
G04 Created by KiCad (PCBNEW (6.0.11)) date 2023-08-05 14:41:11*
%MOMM*%
%LPD*%
G01*
G04 APERTURE LIST*
G04 Aperture macros list*
%AMRoundRect*
0 Rectangle with rounded corners*
0 $1 Rounding radius*
0 $2 $3 $4 $5 $6 $7 $8 $9 X,Y pos of 4 corners*
0 Add a 4 corners polygon primitive as box body*
4,1,4,$2,$3,$4,$5,$6,$7,$8,$9,$2,$3,0*
0 Add four circle primitives for the rounded corners*
1,1,$1+$1,$2,$3*
1,1,$1+$1,$4,$5*
1,1,$1+$1,$6,$7*
1,1,$1+$1,$8,$9*
0 Add four rect primitives between the rounded corners*
20,1,$1+$1,$2,$3,$4,$5,0*
20,1,$1+$1,$4,$5,$6,$7,0*
20,1,$1+$1,$6,$7,$8,$9,0*
20,1,$1+$1,$8,$9,$2,$3,0*%
G04 Aperture macros list end*
%ADD10RoundRect,0.581000X-0.381000X0.381000X-0.381000X-0.381000X0.381000X-0.381000X0.381000X0.381000X0*%
%ADD11C,2.000000*%
%ADD12RoundRect,0.581000X0.381000X0.381000X-0.381000X0.381000X-0.381000X-0.381000X0.381000X-0.381000X0*%
%ADD13RoundRect,0.581000X-0.488333X0.227713X-0.227713X-0.488333X0.488333X-0.227713X0.227713X0.488333X0*%
%ADD14C,2.800000*%
%ADD15O,2.100000X2.100000*%
%ADD16RoundRect,0.200000X0.850000X-0.850000X0.850000X0.850000X-0.850000X0.850000X-0.850000X-0.850000X0*%
%ADD17RoundRect,0.450000X-0.412500X-0.650000X0.412500X-0.650000X0.412500X0.650000X-0.412500X0.650000X0*%
%ADD18RoundRect,0.450000X0.412500X0.650000X-0.412500X0.650000X-0.412500X-0.650000X0.412500X-0.650000X0*%
%ADD19RoundRect,0.450000X-0.650000X0.412500X-0.650000X-0.412500X0.650000X-0.412500X0.650000X0.412500X0*%
G04 APERTURE END LIST*
D10*
%TO.C,C28*%
X145125000Y-143055000D03*
D11*
X145125000Y-143855000D03*
D10*
X145125000Y-139655000D03*
D11*
X145125000Y-138855000D03*
%TD*%
%TO.C,C27*%
X123271000Y-129275000D03*
D12*
X122471000Y-129275000D03*
D11*
X118271000Y-129275000D03*
D12*
X119071000Y-129275000D03*
%TD*%
D11*
%TO.C,C26*%
X130129000Y-132831000D03*
D13*
X130402616Y-133582754D03*
D11*
X131839101Y-137529463D03*
D13*
X131565485Y-136777709D03*
%TD*%
D11*
%TO.C,C25*%
X118445000Y-121441000D03*
D10*
X118445000Y-122241000D03*
D11*
X118445000Y-126441000D03*
D10*
X118445000Y-125641000D03*
%TD*%
D12*
%TO.C,C24*%
X122119000Y-122671000D03*
D11*
X121319000Y-122671000D03*
D12*
X125519000Y-122671000D03*
D11*
X126319000Y-122671000D03*
%TD*%
D12*
%TO.C,C23*%
X122119000Y-125973000D03*
D11*
X121319000Y-125973000D03*
D12*
X125519000Y-125973000D03*
D11*
X126319000Y-125973000D03*
%TD*%
%TO.C,C22*%
X145045000Y-121715000D03*
D10*
X145045000Y-122515000D03*
D11*
X145045000Y-126715000D03*
D10*
X145045000Y-125915000D03*
%TD*%
D14*
%TO.C,L8*%
X126827000Y-130966705D03*
X119444583Y-144013425D03*
%TD*%
%TO.C,L7*%
X137081662Y-139723163D03*
X140835790Y-125210289D03*
%TD*%
D15*
%TO.C,J8*%
X137485000Y-143270000D03*
X134945000Y-143270000D03*
X132405000Y-143270000D03*
D16*
X129865000Y-143270000D03*
%TD*%
D15*
%TO.C,J7*%
X137495000Y-122925000D03*
X134955000Y-122925000D03*
X132415000Y-122925000D03*
D16*
X129875000Y-122925000D03*
%TD*%
D14*
%TO.C,L6*%
X127413338Y-76684292D03*
X120030921Y-89731012D03*
%TD*%
%TO.C,L5*%
X140774128Y-71789876D03*
X137020000Y-86302750D03*
%TD*%
D16*
%TO.C,J6*%
X130290838Y-89699587D03*
D15*
X132830838Y-89699587D03*
X135370838Y-89699587D03*
X137910838Y-89699587D03*
%TD*%
D16*
%TO.C,J5*%
X130290838Y-69404587D03*
D15*
X132830838Y-69404587D03*
X135370838Y-69404587D03*
X137910838Y-69404587D03*
%TD*%
D17*
%TO.C,C21*%
X131184838Y-86168587D03*
X134309838Y-86168587D03*
%TD*%
D18*
%TO.C,C20*%
X121863838Y-75246587D03*
X118738838Y-75246587D03*
%TD*%
D17*
%TO.C,C19*%
X129114338Y-74230587D03*
X132239338Y-74230587D03*
%TD*%
D19*
%TO.C,C18*%
X119031338Y-68350087D03*
X119031338Y-71475087D03*
%TD*%
D18*
%TO.C,C17*%
X125673838Y-68896587D03*
X122548838Y-68896587D03*
%TD*%
%TO.C,C16*%
X125635338Y-72706587D03*
X122510338Y-72706587D03*
%TD*%
D19*
%TO.C,C15*%
X143669338Y-68350087D03*
X143669338Y-71475087D03*
%TD*%
D15*
%TO.C,J4*%
X137583338Y-116648587D03*
X135043338Y-116648587D03*
X132503338Y-116648587D03*
D16*
X129963338Y-116648587D03*
%TD*%
D15*
%TO.C,J3*%
X137583338Y-96303587D03*
X135043338Y-96303587D03*
X132503338Y-96303587D03*
D16*
X129963338Y-96303587D03*
%TD*%
D14*
%TO.C,L4*%
X119950921Y-116684800D03*
X127333338Y-103638080D03*
%TD*%
%TO.C,L1*%
X141360938Y-98147039D03*
X137606810Y-112659913D03*
%TD*%
D17*
%TO.C,C14*%
X131146338Y-112711587D03*
X134271338Y-112711587D03*
%TD*%
D18*
%TO.C,C13*%
X121736838Y-102043587D03*
X118611838Y-102043587D03*
%TD*%
D17*
%TO.C,C12*%
X129279838Y-101154587D03*
X132404838Y-101154587D03*
%TD*%
D19*
%TO.C,C11*%
X118650338Y-95312587D03*
X118650338Y-98437587D03*
%TD*%
D18*
%TO.C,C10*%
X125077338Y-95439587D03*
X121952338Y-95439587D03*
%TD*%
%TO.C,C9*%
X125077338Y-98995587D03*
X121952338Y-98995587D03*
%TD*%
D19*
%TO.C,C8*%
X144431338Y-95401087D03*
X144431338Y-98526087D03*
%TD*%
%TO.C,C1*%
X145623338Y-41982087D03*
X145623338Y-45107087D03*
%TD*%
D18*
%TO.C,C2*%
X126435838Y-42044587D03*
X123310838Y-42044587D03*
%TD*%
%TO.C,C3*%
X126435838Y-45794587D03*
X123310838Y-45794587D03*
%TD*%
D19*
%TO.C,C4*%
X119623338Y-42982087D03*
X119623338Y-46107087D03*
%TD*%
D18*
%TO.C,C5*%
X124435838Y-49474587D03*
X121310838Y-49474587D03*
%TD*%
D17*
%TO.C,C6*%
X131560838Y-59544587D03*
X134685838Y-59544587D03*
%TD*%
D14*
%TO.C,L2*%
X141741938Y-44934039D03*
X137987810Y-59446913D03*
%TD*%
%TO.C,L3*%
X127593338Y-50459705D03*
X120210921Y-63506425D03*
%TD*%
D16*
%TO.C,J1*%
X130461338Y-63054587D03*
D15*
X133001338Y-63054587D03*
X135541338Y-63054587D03*
X138081338Y-63054587D03*
%TD*%
D16*
%TO.C,J2*%
X130461338Y-42734587D03*
D15*
X133001338Y-42734587D03*
X135541338Y-42734587D03*
X138081338Y-42734587D03*
%TD*%
D17*
%TO.C,C7*%
X131515838Y-47814587D03*
X128390838Y-47814587D03*
%TD*%
M02*
