%TF.GenerationSoftware,KiCad,Pcbnew,(6.0.11)*%
%TF.CreationDate,2023-08-20T10:05:32-05:00*%
%TF.ProjectId,SerialResonantFilter,53657269-616c-4526-9573-6f6e616e7446,rev?*%
%TF.SameCoordinates,Original*%
%TF.FileFunction,Copper,L1,Top*%
%TF.FilePolarity,Positive*%
%FSLAX46Y46*%
G04 Gerber Fmt 4.6, Leading zero omitted, Abs format (unit mm)*
G04 Created by KiCad (PCBNEW (6.0.11)) date 2023-08-20 10:05:32*
%MOMM*%
%LPD*%
G01*
G04 APERTURE LIST*
G04 Aperture macros list*
%AMRoundRect*
0 Rectangle with rounded corners*
0 $1 Rounding radius*
0 $2 $3 $4 $5 $6 $7 $8 $9 X,Y pos of 4 corners*
0 Add a 4 corners polygon primitive as box body*
4,1,4,$2,$3,$4,$5,$6,$7,$8,$9,$2,$3,0*
0 Add four circle primitives for the rounded corners*
1,1,$1+$1,$2,$3*
1,1,$1+$1,$4,$5*
1,1,$1+$1,$6,$7*
1,1,$1+$1,$8,$9*
0 Add four rect primitives between the rounded corners*
20,1,$1+$1,$2,$3,$4,$5,0*
20,1,$1+$1,$4,$5,$6,$7,0*
20,1,$1+$1,$6,$7,$8,$9,0*
20,1,$1+$1,$8,$9,$2,$3,0*%
G04 Aperture macros list end*
%TA.AperFunction,SMDPad,CuDef*%
%ADD10RoundRect,0.250000X-0.412500X-0.650000X0.412500X-0.650000X0.412500X0.650000X-0.412500X0.650000X0*%
%TD*%
%TA.AperFunction,SMDPad,CuDef*%
%ADD11RoundRect,0.250000X-0.650000X0.412500X-0.650000X-0.412500X0.650000X-0.412500X0.650000X0.412500X0*%
%TD*%
%TA.AperFunction,SMDPad,CuDef*%
%ADD12RoundRect,0.250000X0.412500X0.650000X-0.412500X0.650000X-0.412500X-0.650000X0.412500X-0.650000X0*%
%TD*%
%TA.AperFunction,ComponentPad*%
%ADD13C,2.400000*%
%TD*%
%TA.AperFunction,ComponentPad*%
%ADD14R,1.700000X1.700000*%
%TD*%
%TA.AperFunction,ComponentPad*%
%ADD15O,1.700000X1.700000*%
%TD*%
%TA.AperFunction,SMDPad,CuDef*%
%ADD16RoundRect,0.250000X0.650000X-0.412500X0.650000X0.412500X-0.650000X0.412500X-0.650000X-0.412500X0*%
%TD*%
%TA.AperFunction,ComponentPad*%
%ADD17C,1.600000*%
%TD*%
%TA.AperFunction,SMDPad,CuDef*%
%ADD18RoundRect,0.381000X-0.488333X0.227713X-0.227713X-0.488333X0.488333X-0.227713X0.227713X0.488333X0*%
%TD*%
%TA.AperFunction,SMDPad,CuDef*%
%ADD19RoundRect,0.381000X-0.381000X0.381000X-0.381000X-0.381000X0.381000X-0.381000X0.381000X0.381000X0*%
%TD*%
%TA.AperFunction,SMDPad,CuDef*%
%ADD20RoundRect,0.381000X0.381000X0.381000X-0.381000X0.381000X-0.381000X-0.381000X0.381000X-0.381000X0*%
%TD*%
%TA.AperFunction,ViaPad*%
%ADD21C,0.600000*%
%TD*%
%TA.AperFunction,Conductor*%
%ADD22C,1.000000*%
%TD*%
G04 APERTURE END LIST*
D10*
%TO.P,C58,1*%
%TO.N,unconnected-(C58-Pad1)*%
X141693500Y-106680000D03*
%TO.P,C58,2*%
%TO.N,unconnected-(C58-Pad2)*%
X144818500Y-106680000D03*
%TD*%
%TO.P,C57,1*%
%TO.N,unconnected-(C57-Pad1)*%
X174713500Y-106680000D03*
%TO.P,C57,2*%
%TO.N,unconnected-(C57-Pad2)*%
X177838500Y-106680000D03*
%TD*%
%TO.P,C56,1*%
%TO.N,unconnected-(C56-Pad1)*%
X162560000Y-106680000D03*
%TO.P,C56,2*%
%TO.N,unconnected-(C56-Pad2)*%
X165685000Y-106680000D03*
%TD*%
%TO.P,C55,1*%
%TO.N,unconnected-(C55-Pad1)*%
X168656000Y-106680000D03*
%TO.P,C55,2*%
%TO.N,unconnected-(C55-Pad2)*%
X171781000Y-106680000D03*
%TD*%
%TO.P,C54,1*%
%TO.N,unconnected-(C54-Pad1)*%
X156464000Y-106680000D03*
%TO.P,C54,2*%
%TO.N,unconnected-(C54-Pad2)*%
X159589000Y-106680000D03*
%TD*%
%TO.P,C53,1*%
%TO.N,unconnected-(C53-Pad1)*%
X150329500Y-106680000D03*
%TO.P,C53,2*%
%TO.N,unconnected-(C53-Pad2)*%
X153454500Y-106680000D03*
%TD*%
%TO.P,C52,1*%
%TO.N,unconnected-(C52-Pad1)*%
X124167500Y-106680000D03*
%TO.P,C52,2*%
%TO.N,unconnected-(C52-Pad2)*%
X127292500Y-106680000D03*
%TD*%
%TO.P,C51,1*%
%TO.N,unconnected-(C51-Pad1)*%
X118160000Y-106680000D03*
%TO.P,C51,2*%
%TO.N,unconnected-(C51-Pad2)*%
X121285000Y-106680000D03*
%TD*%
%TO.P,C50,1*%
%TO.N,unconnected-(C50-Pad1)*%
X135597500Y-106680000D03*
%TO.P,C50,2*%
%TO.N,unconnected-(C50-Pad2)*%
X138722500Y-106680000D03*
%TD*%
%TO.P,C49,1*%
%TO.N,unconnected-(C49-Pad1)*%
X129882500Y-106680000D03*
%TO.P,C49,2*%
%TO.N,unconnected-(C49-Pad2)*%
X133007500Y-106680000D03*
%TD*%
D11*
%TO.P,C1,1*%
%TO.N,GND*%
X145623338Y-41982087D03*
%TO.P,C1,2*%
%TO.N,Net-(C1-Pad2)*%
X145623338Y-45107087D03*
%TD*%
D12*
%TO.P,C2,1*%
%TO.N,Net-(C2-Pad1)*%
X126435838Y-42044587D03*
%TO.P,C2,2*%
%TO.N,Net-(C2-Pad2)*%
X123310838Y-42044587D03*
%TD*%
%TO.P,C3,1*%
%TO.N,Net-(C2-Pad1)*%
X126435838Y-45794587D03*
%TO.P,C3,2*%
%TO.N,Net-(C2-Pad2)*%
X123310838Y-45794587D03*
%TD*%
D11*
%TO.P,C4,1*%
%TO.N,GND*%
X119623338Y-42982087D03*
%TO.P,C4,2*%
%TO.N,Net-(C2-Pad2)*%
X119623338Y-46107087D03*
%TD*%
D12*
%TO.P,C5,1*%
%TO.N,Net-(C2-Pad2)*%
X124435838Y-49474587D03*
%TO.P,C5,2*%
%TO.N,Net-(C5-Pad2)*%
X121310838Y-49474587D03*
%TD*%
D10*
%TO.P,C6,1*%
%TO.N,GND*%
X131560838Y-59544587D03*
%TO.P,C6,2*%
%TO.N,Net-(C5-Pad2)*%
X134685838Y-59544587D03*
%TD*%
D13*
%TO.P,L2,1*%
%TO.N,Net-(C1-Pad2)*%
X141741938Y-44934039D03*
%TO.P,L2,2*%
%TO.N,Net-(C2-Pad1)*%
X137987810Y-59446913D03*
%TD*%
%TO.P,L3,1*%
%TO.N,Net-(C2-Pad2)*%
X127593338Y-50459705D03*
%TO.P,L3,2*%
%TO.N,Net-(C5-Pad2)*%
X120210921Y-63506425D03*
%TD*%
D14*
%TO.P,J1,1,Pin_1*%
%TO.N,GND*%
X130461338Y-63054587D03*
D15*
%TO.P,J1,2,Pin_2*%
X133001338Y-63054587D03*
%TO.P,J1,3,Pin_3*%
%TO.N,Net-(C5-Pad2)*%
X135541338Y-63054587D03*
%TO.P,J1,4,Pin_4*%
X138081338Y-63054587D03*
%TD*%
D14*
%TO.P,J2,1,Pin_1*%
%TO.N,GND*%
X130461338Y-42734587D03*
D15*
%TO.P,J2,2,Pin_2*%
X133001338Y-42734587D03*
%TO.P,J2,3,Pin_3*%
%TO.N,Net-(C1-Pad2)*%
X135541338Y-42734587D03*
%TO.P,J2,4,Pin_4*%
X138081338Y-42734587D03*
%TD*%
D10*
%TO.P,C7,1*%
%TO.N,Net-(C2-Pad2)*%
X128390838Y-47814587D03*
%TO.P,C7,2*%
%TO.N,Net-(C5-Pad2)*%
X131515838Y-47814587D03*
%TD*%
D16*
%TO.P,C48,1*%
%TO.N,unconnected-(C48-Pad1)*%
X162560000Y-99010000D03*
%TO.P,C48,2*%
%TO.N,unconnected-(C48-Pad2)*%
X162560000Y-95885000D03*
%TD*%
D14*
%TO.P,J5,1,Pin_1*%
%TO.N,GND*%
X130290838Y-69404587D03*
D15*
%TO.P,J5,2,Pin_2*%
X132830838Y-69404587D03*
%TO.P,J5,3,Pin_3*%
%TO.N,Net-(C15-Pad2)*%
X135370838Y-69404587D03*
%TO.P,J5,4,Pin_4*%
X137910838Y-69404587D03*
%TD*%
D10*
%TO.P,C21,1*%
%TO.N,GND*%
X131184838Y-86168587D03*
%TO.P,C21,2*%
%TO.N,Net-(C19-Pad2)*%
X134309838Y-86168587D03*
%TD*%
D17*
%TO.P,C26,1*%
%TO.N,Net-(C23-Pad2)*%
X162560000Y-79467837D03*
D18*
X162833616Y-80219591D03*
D17*
%TO.P,C26,2*%
%TO.N,Net-(C26-Pad2)*%
X164270101Y-84166300D03*
D18*
X163996485Y-83414546D03*
%TD*%
D11*
%TO.P,C8,1*%
%TO.N,GND*%
X176862338Y-42037924D03*
%TO.P,C8,2*%
%TO.N,Net-(C8-Pad2)*%
X176862338Y-45162924D03*
%TD*%
D16*
%TO.P,C34,1*%
%TO.N,unconnected-(C34-Pad1)*%
X133223000Y-99010000D03*
%TO.P,C34,2*%
%TO.N,unconnected-(C34-Pad2)*%
X133223000Y-95885000D03*
%TD*%
D11*
%TO.P,C18,1*%
%TO.N,GND*%
X119031338Y-68350087D03*
%TO.P,C18,2*%
%TO.N,Net-(C16-Pad2)*%
X119031338Y-71475087D03*
%TD*%
D17*
%TO.P,C22,1*%
%TO.N,GND*%
X177476000Y-68351837D03*
D19*
X177476000Y-69151837D03*
D17*
%TO.P,C22,2*%
%TO.N,Net-(C22-Pad2)*%
X177476000Y-73351837D03*
D19*
X177476000Y-72551837D03*
%TD*%
D13*
%TO.P,L8,1*%
%TO.N,Net-(C23-Pad2)*%
X159258000Y-77603542D03*
%TO.P,L8,2*%
%TO.N,Net-(C26-Pad2)*%
X151875583Y-90650262D03*
%TD*%
D16*
%TO.P,C36,1*%
%TO.N,unconnected-(C36-Pad1)*%
X150368000Y-99010000D03*
%TO.P,C36,2*%
%TO.N,unconnected-(C36-Pad2)*%
X150368000Y-95885000D03*
%TD*%
%TO.P,C31,1*%
%TO.N,unconnected-(C31-Pad1)*%
X130175000Y-98971500D03*
%TO.P,C31,2*%
%TO.N,unconnected-(C31-Pad2)*%
X130175000Y-95846500D03*
%TD*%
D11*
%TO.P,C11,1*%
%TO.N,GND*%
X151081338Y-41949424D03*
%TO.P,C11,2*%
%TO.N,Net-(C10-Pad2)*%
X151081338Y-45074424D03*
%TD*%
D16*
%TO.P,C41,1*%
%TO.N,unconnected-(C41-Pad1)*%
X168656000Y-99010000D03*
%TO.P,C41,2*%
%TO.N,unconnected-(C41-Pad2)*%
X168656000Y-95885000D03*
%TD*%
D12*
%TO.P,C16,1*%
%TO.N,Net-(C16-Pad1)*%
X125635338Y-72706587D03*
%TO.P,C16,2*%
%TO.N,Net-(C16-Pad2)*%
X122510338Y-72706587D03*
%TD*%
D13*
%TO.P,L5,1*%
%TO.N,Net-(C15-Pad2)*%
X140774128Y-71789876D03*
%TO.P,L5,2*%
%TO.N,Net-(C16-Pad1)*%
X137020000Y-86302750D03*
%TD*%
%TO.P,L7,1*%
%TO.N,Net-(C22-Pad2)*%
X173266790Y-71847126D03*
%TO.P,L7,2*%
%TO.N,Net-(C23-Pad1)*%
X169512662Y-86360000D03*
%TD*%
D16*
%TO.P,C37,1*%
%TO.N,unconnected-(C37-Pad1)*%
X142367000Y-99010000D03*
%TO.P,C37,2*%
%TO.N,unconnected-(C37-Pad2)*%
X142367000Y-95885000D03*
%TD*%
%TO.P,C39,1*%
%TO.N,unconnected-(C39-Pad1)*%
X153416000Y-99010000D03*
%TO.P,C39,2*%
%TO.N,unconnected-(C39-Pad2)*%
X153416000Y-95885000D03*
%TD*%
D14*
%TO.P,J6,1,Pin_1*%
%TO.N,GND*%
X130290838Y-89699587D03*
D15*
%TO.P,J6,2,Pin_2*%
X132830838Y-89699587D03*
%TO.P,J6,3,Pin_3*%
%TO.N,Net-(C19-Pad2)*%
X135370838Y-89699587D03*
%TO.P,J6,4,Pin_4*%
X137910838Y-89699587D03*
%TD*%
D16*
%TO.P,C38,1*%
%TO.N,unconnected-(C38-Pad1)*%
X136271000Y-98971500D03*
%TO.P,C38,2*%
%TO.N,unconnected-(C38-Pad2)*%
X136271000Y-95846500D03*
%TD*%
%TO.P,C29,1*%
%TO.N,unconnected-(C29-Pad1)*%
X127127000Y-99010000D03*
%TO.P,C29,2*%
%TO.N,unconnected-(C29-Pad2)*%
X127127000Y-95885000D03*
%TD*%
%TO.P,C46,1*%
%TO.N,unconnected-(C46-Pad1)*%
X174752000Y-99010000D03*
%TO.P,C46,2*%
%TO.N,unconnected-(C46-Pad2)*%
X174752000Y-95885000D03*
%TD*%
%TO.P,C47,1*%
%TO.N,unconnected-(C47-Pad1)*%
X171704000Y-99010000D03*
%TO.P,C47,2*%
%TO.N,unconnected-(C47-Pad2)*%
X171704000Y-95885000D03*
%TD*%
D12*
%TO.P,C13,1*%
%TO.N,Net-(C10-Pad2)*%
X154167838Y-48680424D03*
%TO.P,C13,2*%
%TO.N,Net-(C12-Pad2)*%
X151042838Y-48680424D03*
%TD*%
D14*
%TO.P,J3,1,Pin_1*%
%TO.N,GND*%
X162394338Y-42940424D03*
D15*
%TO.P,J3,2,Pin_2*%
X164934338Y-42940424D03*
%TO.P,J3,3,Pin_3*%
%TO.N,Net-(C8-Pad2)*%
X167474338Y-42940424D03*
%TO.P,J3,4,Pin_4*%
X170014338Y-42940424D03*
%TD*%
D13*
%TO.P,L1,1*%
%TO.N,Net-(C8-Pad2)*%
X173791938Y-44783876D03*
%TO.P,L1,2*%
%TO.N,Net-(C10-Pad1)*%
X170037810Y-59296750D03*
%TD*%
D16*
%TO.P,C35,1*%
%TO.N,unconnected-(C35-Pad1)*%
X139319000Y-99010000D03*
%TO.P,C35,2*%
%TO.N,unconnected-(C35-Pad2)*%
X139319000Y-95885000D03*
%TD*%
D11*
%TO.P,C32,1*%
%TO.N,unconnected-(C32-Pad1)*%
X124079000Y-95885000D03*
%TO.P,C32,2*%
%TO.N,unconnected-(C32-Pad2)*%
X124079000Y-99010000D03*
%TD*%
D16*
%TO.P,C45,1*%
%TO.N,unconnected-(C45-Pad1)*%
X156464000Y-98971500D03*
%TO.P,C45,2*%
%TO.N,unconnected-(C45-Pad2)*%
X156464000Y-95846500D03*
%TD*%
D20*
%TO.P,C24,1*%
%TO.N,Net-(C23-Pad1)*%
X157950000Y-69307837D03*
D17*
X158750000Y-69307837D03*
%TO.P,C24,2*%
%TO.N,Net-(C23-Pad2)*%
X153750000Y-69307837D03*
D20*
X154550000Y-69307837D03*
%TD*%
D16*
%TO.P,C43,1*%
%TO.N,unconnected-(C43-Pad1)*%
X165608000Y-98971500D03*
%TO.P,C43,2*%
%TO.N,unconnected-(C43-Pad2)*%
X165608000Y-95846500D03*
%TD*%
D17*
%TO.P,C25,1*%
%TO.N,GND*%
X150876000Y-68077837D03*
D19*
X150876000Y-68877837D03*
%TO.P,C25,2*%
%TO.N,Net-(C23-Pad2)*%
X150876000Y-72277837D03*
D17*
X150876000Y-73077837D03*
%TD*%
D13*
%TO.P,L4,1*%
%TO.N,Net-(C10-Pad2)*%
X159764338Y-50274917D03*
%TO.P,L4,2*%
%TO.N,Net-(C12-Pad2)*%
X152381921Y-63321637D03*
%TD*%
D14*
%TO.P,J4,1,Pin_1*%
%TO.N,GND*%
X162394338Y-63285424D03*
D15*
%TO.P,J4,2,Pin_2*%
X164934338Y-63285424D03*
%TO.P,J4,3,Pin_3*%
%TO.N,Net-(C12-Pad2)*%
X167474338Y-63285424D03*
%TO.P,J4,4,Pin_4*%
X170014338Y-63285424D03*
%TD*%
D16*
%TO.P,C33,1*%
%TO.N,unconnected-(C33-Pad1)*%
X121031000Y-99010000D03*
%TO.P,C33,2*%
%TO.N,unconnected-(C33-Pad2)*%
X121031000Y-95885000D03*
%TD*%
D12*
%TO.P,C9,1*%
%TO.N,Net-(C10-Pad1)*%
X157508338Y-45632424D03*
%TO.P,C9,2*%
%TO.N,Net-(C10-Pad2)*%
X154383338Y-45632424D03*
%TD*%
D16*
%TO.P,C44,1*%
%TO.N,unconnected-(C44-Pad1)*%
X177800000Y-99010000D03*
%TO.P,C44,2*%
%TO.N,unconnected-(C44-Pad2)*%
X177800000Y-95885000D03*
%TD*%
D14*
%TO.P,J7,1,Pin_1*%
%TO.N,GND*%
X162306000Y-69561837D03*
D15*
%TO.P,J7,2,Pin_2*%
X164846000Y-69561837D03*
%TO.P,J7,3,Pin_3*%
%TO.N,Net-(C22-Pad2)*%
X167386000Y-69561837D03*
%TO.P,J7,4,Pin_4*%
X169926000Y-69561837D03*
%TD*%
D16*
%TO.P,C40,1*%
%TO.N,unconnected-(C40-Pad1)*%
X145415000Y-98971500D03*
%TO.P,C40,2*%
%TO.N,unconnected-(C40-Pad2)*%
X145415000Y-95846500D03*
%TD*%
D10*
%TO.P,C12,1*%
%TO.N,Net-(C10-Pad2)*%
X161710838Y-47791424D03*
%TO.P,C12,2*%
%TO.N,Net-(C12-Pad2)*%
X164835838Y-47791424D03*
%TD*%
D16*
%TO.P,C30,1*%
%TO.N,unconnected-(C30-Pad1)*%
X117983000Y-99010000D03*
%TO.P,C30,2*%
%TO.N,unconnected-(C30-Pad2)*%
X117983000Y-95885000D03*
%TD*%
D17*
%TO.P,C27,1*%
%TO.N,Net-(C23-Pad2)*%
X155702000Y-75911837D03*
D20*
X154902000Y-75911837D03*
D17*
%TO.P,C27,2*%
%TO.N,Net-(C26-Pad2)*%
X150702000Y-75911837D03*
D20*
X151502000Y-75911837D03*
%TD*%
D12*
%TO.P,C10,1*%
%TO.N,Net-(C10-Pad1)*%
X157508338Y-42076424D03*
%TO.P,C10,2*%
%TO.N,Net-(C10-Pad2)*%
X154383338Y-42076424D03*
%TD*%
D10*
%TO.P,C14,1*%
%TO.N,GND*%
X163577338Y-59348424D03*
%TO.P,C14,2*%
%TO.N,Net-(C12-Pad2)*%
X166702338Y-59348424D03*
%TD*%
D12*
%TO.P,C20,1*%
%TO.N,Net-(C16-Pad2)*%
X121863838Y-75246587D03*
%TO.P,C20,2*%
%TO.N,Net-(C19-Pad2)*%
X118738838Y-75246587D03*
%TD*%
D10*
%TO.P,C19,1*%
%TO.N,Net-(C16-Pad2)*%
X129114338Y-74230587D03*
%TO.P,C19,2*%
%TO.N,Net-(C19-Pad2)*%
X132239338Y-74230587D03*
%TD*%
D17*
%TO.P,C23,1*%
%TO.N,Net-(C23-Pad1)*%
X158750000Y-72609837D03*
D20*
X157950000Y-72609837D03*
%TO.P,C23,2*%
%TO.N,Net-(C23-Pad2)*%
X154550000Y-72609837D03*
D17*
X153750000Y-72609837D03*
%TD*%
%TO.P,C28,1*%
%TO.N,GND*%
X177556000Y-85491837D03*
D19*
X177556000Y-86291837D03*
D17*
%TO.P,C28,2*%
%TO.N,Net-(C26-Pad2)*%
X177556000Y-90491837D03*
D19*
X177556000Y-89691837D03*
%TD*%
D11*
%TO.P,C15,1*%
%TO.N,GND*%
X143669338Y-68350087D03*
%TO.P,C15,2*%
%TO.N,Net-(C15-Pad2)*%
X143669338Y-71475087D03*
%TD*%
D14*
%TO.P,J8,1,Pin_1*%
%TO.N,GND*%
X162296000Y-89906837D03*
D15*
%TO.P,J8,2,Pin_2*%
X164836000Y-89906837D03*
%TO.P,J8,3,Pin_3*%
%TO.N,Net-(C26-Pad2)*%
X167376000Y-89906837D03*
%TO.P,J8,4,Pin_4*%
X169916000Y-89906837D03*
%TD*%
D16*
%TO.P,C42,1*%
%TO.N,unconnected-(C42-Pad1)*%
X159512000Y-98971500D03*
%TO.P,C42,2*%
%TO.N,unconnected-(C42-Pad2)*%
X159512000Y-95846500D03*
%TD*%
D12*
%TO.P,C17,1*%
%TO.N,Net-(C16-Pad1)*%
X125673838Y-68896587D03*
%TO.P,C17,2*%
%TO.N,Net-(C16-Pad2)*%
X122548838Y-68896587D03*
%TD*%
D13*
%TO.P,L6,1*%
%TO.N,Net-(C16-Pad2)*%
X127413338Y-76684292D03*
%TO.P,L6,2*%
%TO.N,Net-(C19-Pad2)*%
X120030921Y-89731012D03*
%TD*%
D21*
%TO.N,GND*%
X144123338Y-41544587D03*
X176862338Y-43727424D03*
X119285338Y-69658587D03*
X143669338Y-69658587D03*
X175376838Y-42037924D03*
X120123338Y-41544587D03*
X163273338Y-57697424D03*
X151208338Y-43473424D03*
X120809338Y-68388587D03*
X152732338Y-41949424D03*
X121373338Y-42544587D03*
X131560838Y-57482087D03*
X142145338Y-68388587D03*
X144123338Y-43044587D03*
X132493338Y-85914587D03*
%TD*%
D22*
%TO.N,GND*%
X164934338Y-42940424D02*
X162394338Y-42940424D01*
X119623338Y-42982087D02*
X119623338Y-42044587D01*
X176862338Y-42037924D02*
X176862338Y-43727424D01*
X162394338Y-60531424D02*
X163577338Y-59348424D01*
X132239338Y-86168587D02*
X132493338Y-85914587D01*
X145185838Y-41982087D02*
X144123338Y-43044587D01*
X162394338Y-63285424D02*
X162394338Y-60531424D01*
X131184838Y-88805587D02*
X130290838Y-89699587D01*
X131560838Y-60607087D02*
X130461338Y-61706587D01*
X145623338Y-41982087D02*
X144560838Y-41982087D01*
X163577338Y-58001424D02*
X163273338Y-57697424D01*
X131560838Y-57482087D02*
X131560838Y-59544587D01*
X151081338Y-41949424D02*
X152732338Y-41949424D01*
X175376838Y-42037924D02*
X176862338Y-42037924D01*
X164934338Y-63285424D02*
X162394338Y-63285424D01*
X120770838Y-68350087D02*
X120809338Y-68388587D01*
X120935838Y-42982087D02*
X121373338Y-42544587D01*
X119031338Y-68350087D02*
X120770838Y-68350087D01*
X142183838Y-68350087D02*
X142145338Y-68388587D01*
X145623338Y-41982087D02*
X145185838Y-41982087D01*
X132830838Y-69404587D02*
X130290838Y-69404587D01*
X164846000Y-69561837D02*
X162306000Y-69561837D01*
X143669338Y-68350087D02*
X142183838Y-68350087D01*
X131184838Y-86168587D02*
X131184838Y-88805587D01*
X164836000Y-89906837D02*
X162296000Y-89906837D01*
X151081338Y-41949424D02*
X151081338Y-43346424D01*
X151081338Y-43346424D02*
X151208338Y-43473424D01*
X119031338Y-69404587D02*
X119285338Y-69658587D01*
X130461338Y-61706587D02*
X130461338Y-63054587D01*
X119623338Y-42982087D02*
X120935838Y-42982087D01*
X119031338Y-68350087D02*
X119031338Y-69404587D01*
X144560838Y-41982087D02*
X144123338Y-41544587D01*
X131184838Y-86168587D02*
X132239338Y-86168587D01*
X119623338Y-42044587D02*
X120123338Y-41544587D01*
X163577338Y-59348424D02*
X163577338Y-58001424D01*
X143669338Y-68350087D02*
X143669338Y-69658587D01*
X131560838Y-59544587D02*
X131560838Y-60607087D01*
%TO.N,Net-(C1-Pad2)*%
X145623338Y-45107087D02*
X141914986Y-45107087D01*
X141914986Y-45107087D02*
X141741938Y-44934039D01*
X139542486Y-42734587D02*
X141741938Y-44934039D01*
X135541338Y-42734587D02*
X138081338Y-42734587D01*
X138081338Y-42734587D02*
X139542486Y-42734587D01*
%TO.N,Net-(C2-Pad2)*%
X128390838Y-49662205D02*
X127593338Y-50459705D01*
X126608220Y-49474587D02*
X127593338Y-50459705D01*
X123310838Y-45794587D02*
X123310838Y-48349587D01*
X123310838Y-48349587D02*
X124435838Y-49474587D01*
X123310838Y-42044587D02*
X123310838Y-45794587D01*
X119623338Y-46107087D02*
X122998338Y-46107087D01*
X128390838Y-47814587D02*
X128390838Y-49662205D01*
X122998338Y-46107087D02*
X123310838Y-45794587D01*
X124435838Y-49474587D02*
X126608220Y-49474587D01*
%TO.N,Net-(C2-Pad1)*%
X133013338Y-45794587D02*
X135033338Y-47814587D01*
X135033338Y-52894587D02*
X137987810Y-55849059D01*
X137987810Y-55849059D02*
X137987810Y-59446913D01*
X126435838Y-42044587D02*
X126435838Y-45794587D01*
X135033338Y-47814587D02*
X135033338Y-52894587D01*
X126435838Y-45794587D02*
X133013338Y-45794587D01*
%TO.N,Net-(C5-Pad2)*%
X131223338Y-55434587D02*
X129953338Y-55434587D01*
X129123338Y-60044587D02*
X125086913Y-64081012D01*
X119073338Y-50844587D02*
X119073338Y-62368842D01*
X134685838Y-59544587D02*
X134685838Y-56357087D01*
X129953338Y-55434587D02*
X129123338Y-56264587D01*
X129123338Y-56264587D02*
X129123338Y-60044587D01*
X131515838Y-47814587D02*
X131515838Y-55142087D01*
X135541338Y-63054587D02*
X138081338Y-63054587D01*
X135541338Y-61212587D02*
X134685838Y-60357087D01*
X120785508Y-64081012D02*
X120210921Y-63506425D01*
X119073338Y-62368842D02*
X120210921Y-63506425D01*
X120443338Y-49474587D02*
X119073338Y-50844587D01*
X133763338Y-55434587D02*
X131223338Y-55434587D01*
X131515838Y-55142087D02*
X131223338Y-55434587D01*
X125086913Y-64081012D02*
X120785508Y-64081012D01*
X134685838Y-56357087D02*
X133763338Y-55434587D01*
X135541338Y-63054587D02*
X135541338Y-61212587D01*
X121310838Y-49474587D02*
X120443338Y-49474587D01*
X134685838Y-60357087D02*
X134685838Y-59544587D01*
%TO.N,Net-(C8-Pad2)*%
X176862338Y-45162924D02*
X174170986Y-45162924D01*
X171186486Y-42940424D02*
X173029938Y-44783876D01*
X173029938Y-44783876D02*
X173791938Y-44783876D01*
X174170986Y-45162924D02*
X173791938Y-44783876D01*
X170014338Y-42940424D02*
X171186486Y-42940424D01*
X170014338Y-42940424D02*
X167474338Y-42940424D01*
%TO.N,Net-(C10-Pad1)*%
X157508338Y-42076424D02*
X157508338Y-45632424D01*
X168656000Y-57111086D02*
X170037810Y-58492896D01*
X157508338Y-45632424D02*
X166801587Y-45632424D01*
X166801587Y-45632424D02*
X168656000Y-47486837D01*
X170037810Y-58492896D02*
X170037810Y-59296750D01*
X168656000Y-47486837D02*
X168656000Y-57111086D01*
%TO.N,Net-(C10-Pad2)*%
X154383338Y-45632424D02*
X151639338Y-45632424D01*
X154383338Y-48464924D02*
X154167838Y-48680424D01*
X158169845Y-48680424D02*
X159764338Y-50274917D01*
X154167838Y-48680424D02*
X158169845Y-48680424D01*
X151639338Y-45632424D02*
X151081338Y-45074424D01*
X154383338Y-42076424D02*
X154383338Y-45632424D01*
X161710838Y-48328417D02*
X159764338Y-50274917D01*
X154383338Y-45632424D02*
X154383338Y-48464924D01*
X161710838Y-47791424D02*
X161710838Y-48328417D01*
%TO.N,Net-(C12-Pad2)*%
X166702338Y-61380424D02*
X167474338Y-62152424D01*
X166702338Y-58459424D02*
X163781338Y-55538424D01*
X170014338Y-63285424D02*
X167474338Y-63285424D01*
X167474338Y-62152424D02*
X167474338Y-63285424D01*
X163781338Y-55538424D02*
X162765338Y-55538424D01*
X163781338Y-55538424D02*
X165051338Y-54268424D01*
X166702338Y-59348424D02*
X166702338Y-58459424D01*
X151208338Y-61253424D02*
X152381921Y-62427007D01*
X166702338Y-59348424D02*
X166702338Y-61380424D01*
X162765338Y-55538424D02*
X160352338Y-57951424D01*
X151042838Y-48680424D02*
X151208338Y-48845924D01*
X152381921Y-62427007D02*
X152381921Y-63321637D01*
X165051338Y-54268424D02*
X165051338Y-48006924D01*
X151208338Y-48845924D02*
X151208338Y-61253424D01*
X165051338Y-48006924D02*
X164835838Y-47791424D01*
X160352338Y-60364424D02*
X157395125Y-63321637D01*
X157395125Y-63321637D02*
X152381921Y-63321637D01*
X160352338Y-57951424D02*
X160352338Y-60364424D01*
%TO.N,Net-(C15-Pad2)*%
X141088917Y-71475087D02*
X140774128Y-71789876D01*
X143669338Y-71475087D02*
X141088917Y-71475087D01*
X140296127Y-71789876D02*
X137910838Y-69404587D01*
X135370838Y-69404587D02*
X137910838Y-69404587D01*
X140774128Y-71789876D02*
X140296127Y-71789876D01*
%TO.N,Net-(C16-Pad1)*%
X137020000Y-84599249D02*
X134271338Y-81850587D01*
X126397338Y-71944587D02*
X125635338Y-72706587D01*
X134271338Y-72960587D02*
X133255338Y-71944587D01*
X125673838Y-68896587D02*
X125673838Y-72668087D01*
X133255338Y-71944587D02*
X126397338Y-71944587D01*
X134271338Y-81850587D02*
X134271338Y-72960587D01*
X137020000Y-86302750D02*
X137020000Y-84599249D01*
X125673838Y-72668087D02*
X125635338Y-72706587D01*
%TO.N,Net-(C16-Pad2)*%
X122040838Y-71475087D02*
X122548838Y-70967087D01*
X122510338Y-74600087D02*
X121863838Y-75246587D01*
X125975633Y-75246587D02*
X121863838Y-75246587D01*
X127413338Y-76684292D02*
X125975633Y-75246587D01*
X122548838Y-72668087D02*
X122510338Y-72706587D01*
X119031338Y-71475087D02*
X122040838Y-71475087D01*
X122510338Y-72706587D02*
X122510338Y-74600087D01*
X129114338Y-74983292D02*
X127413338Y-76684292D01*
X122548838Y-70967087D02*
X122548838Y-72668087D01*
X122548838Y-68896587D02*
X122548838Y-70967087D01*
X129114338Y-74230587D02*
X129114338Y-74983292D01*
%TO.N,Net-(C19-Pad2)*%
X118738838Y-88438929D02*
X120030921Y-89731012D01*
X126133346Y-83628587D02*
X130715338Y-83628587D01*
X130715338Y-83628587D02*
X132493338Y-83628587D01*
X134309838Y-86168587D02*
X134309838Y-88638587D01*
X120030921Y-89731012D02*
X126133346Y-83628587D01*
X134309838Y-85445087D02*
X134309838Y-86168587D01*
X132239338Y-82104587D02*
X132239338Y-74230587D01*
X130715338Y-83628587D02*
X132239338Y-82104587D01*
X137910838Y-89699587D02*
X135370838Y-89699587D01*
X118738838Y-75246587D02*
X118738838Y-88438929D01*
X132493338Y-83628587D02*
X134309838Y-85445087D01*
X134309838Y-88638587D02*
X135370838Y-89699587D01*
%TO.N,Net-(C22-Pad2)*%
X177476000Y-73351837D02*
X174771501Y-73351837D01*
X167386000Y-69561837D02*
X169926000Y-69561837D01*
X174771501Y-73351837D02*
X173266790Y-71847126D01*
X169926000Y-69561837D02*
X170981501Y-69561837D01*
X170981501Y-69561837D02*
X173266790Y-71847126D01*
%TO.N,Net-(C23-Pad1)*%
X158750000Y-69307837D02*
X158750000Y-72609837D01*
X160528000Y-72609837D02*
X158750000Y-72609837D01*
X169512662Y-81594499D02*
X160528000Y-72609837D01*
X169512662Y-86360000D02*
X169512662Y-81594499D01*
%TO.N,Net-(C23-Pad2)*%
X153750000Y-73959837D02*
X155702000Y-75911837D01*
X159258000Y-77603542D02*
X160695705Y-77603542D01*
X153750000Y-72609837D02*
X151344000Y-72609837D01*
X160695705Y-77603542D02*
X162560000Y-79467837D01*
X153750000Y-72609837D02*
X153750000Y-73959837D01*
X157566295Y-75911837D02*
X159258000Y-77603542D01*
X153750000Y-69307837D02*
X153750000Y-72609837D01*
X155702000Y-75911837D02*
X157566295Y-75911837D01*
X151344000Y-72609837D02*
X150876000Y-73077837D01*
%TO.N,Net-(C26-Pad2)*%
X163449537Y-84166300D02*
X164270101Y-84166300D01*
X177556000Y-90491837D02*
X176866000Y-89801837D01*
X150702000Y-75911837D02*
X150702000Y-89476679D01*
X176866000Y-89801837D02*
X170021000Y-89801837D01*
X150702000Y-89476679D02*
X151875583Y-90650262D01*
X151875583Y-90650262D02*
X156965575Y-90650262D01*
X164270101Y-84166300D02*
X164270101Y-85241938D01*
X156965575Y-90650262D02*
X163449537Y-84166300D01*
X169916000Y-89906837D02*
X167376000Y-89906837D01*
X164270101Y-85241938D02*
X167376000Y-88347837D01*
X170021000Y-89801837D02*
X169916000Y-89906837D01*
X167376000Y-88347837D02*
X167376000Y-89906837D01*
%TD*%
M02*
