%TF.GenerationSoftware,KiCad,Pcbnew,(6.0.11)*%
%TF.CreationDate,2023-08-05T14:41:11-05:00*%
%TF.ProjectId,SerialResonantFilter,53657269-616c-4526-9573-6f6e616e7446,rev?*%
%TF.SameCoordinates,Original*%
%TF.FileFunction,Legend,Top*%
%TF.FilePolarity,Positive*%
%FSLAX46Y46*%
G04 Gerber Fmt 4.6, Leading zero omitted, Abs format (unit mm)*
G04 Created by KiCad (PCBNEW (6.0.11)) date 2023-08-05 14:41:11*
%MOMM*%
%LPD*%
G01*
G04 APERTURE LIST*
G04 Aperture macros list*
%AMRoundRect*
0 Rectangle with rounded corners*
0 $1 Rounding radius*
0 $2 $3 $4 $5 $6 $7 $8 $9 X,Y pos of 4 corners*
0 Add a 4 corners polygon primitive as box body*
4,1,4,$2,$3,$4,$5,$6,$7,$8,$9,$2,$3,0*
0 Add four circle primitives for the rounded corners*
1,1,$1+$1,$2,$3*
1,1,$1+$1,$4,$5*
1,1,$1+$1,$6,$7*
1,1,$1+$1,$8,$9*
0 Add four rect primitives between the rounded corners*
20,1,$1+$1,$2,$3,$4,$5,0*
20,1,$1+$1,$4,$5,$6,$7,0*
20,1,$1+$1,$6,$7,$8,$9,0*
20,1,$1+$1,$8,$9,$2,$3,0*%
G04 Aperture macros list end*
%ADD10C,0.150000*%
%ADD11C,4.318000*%
%ADD12C,0.120000*%
%ADD13RoundRect,0.581000X-0.381000X0.381000X-0.381000X-0.381000X0.381000X-0.381000X0.381000X0.381000X0*%
%ADD14C,2.000000*%
%ADD15RoundRect,0.581000X0.381000X0.381000X-0.381000X0.381000X-0.381000X-0.381000X0.381000X-0.381000X0*%
%ADD16RoundRect,0.581000X-0.488333X0.227713X-0.227713X-0.488333X0.488333X-0.227713X0.227713X0.488333X0*%
%ADD17C,2.800000*%
%ADD18O,2.100000X2.100000*%
%ADD19RoundRect,0.200000X0.850000X-0.850000X0.850000X0.850000X-0.850000X0.850000X-0.850000X-0.850000X0*%
%ADD20RoundRect,0.450000X-0.412500X-0.650000X0.412500X-0.650000X0.412500X0.650000X-0.412500X0.650000X0*%
%ADD21RoundRect,0.450000X0.412500X0.650000X-0.412500X0.650000X-0.412500X-0.650000X0.412500X-0.650000X0*%
%ADD22RoundRect,0.450000X-0.650000X0.412500X-0.650000X-0.412500X0.650000X-0.412500X0.650000X0.412500X0*%
G04 APERTURE END LIST*
D10*
X147320000Y-119380000D02*
X115570000Y-119380000D01*
X115570000Y-92710000D02*
X147320000Y-92710000D01*
X147320000Y-66040000D02*
X115570000Y-66040000D01*
X144884995Y-141727555D02*
X144837376Y-141775174D01*
X144694519Y-141822793D01*
X144599281Y-141822793D01*
X144456423Y-141775174D01*
X144361185Y-141679936D01*
X144313566Y-141584698D01*
X144265947Y-141394222D01*
X144265947Y-141251365D01*
X144313566Y-141060889D01*
X144361185Y-140965651D01*
X144456423Y-140870413D01*
X144599281Y-140822793D01*
X144694519Y-140822793D01*
X144837376Y-140870413D01*
X144884995Y-140918032D01*
X145742138Y-140822793D02*
X145551662Y-140822793D01*
X145456423Y-140870413D01*
X145408804Y-140918032D01*
X145313566Y-141060889D01*
X145265947Y-141251365D01*
X145265947Y-141632317D01*
X145313566Y-141727555D01*
X145361185Y-141775174D01*
X145456423Y-141822793D01*
X145646900Y-141822793D01*
X145742138Y-141775174D01*
X145789757Y-141727555D01*
X145837376Y-141632317D01*
X145837376Y-141394222D01*
X145789757Y-141298984D01*
X145742138Y-141251365D01*
X145646900Y-141203746D01*
X145456423Y-141203746D01*
X145361185Y-141251365D01*
X145313566Y-141298984D01*
X145265947Y-141394222D01*
X121128142Y-129441666D02*
X121175761Y-129489285D01*
X121223380Y-129632142D01*
X121223380Y-129727380D01*
X121175761Y-129870238D01*
X121080523Y-129965476D01*
X120985285Y-130013095D01*
X120794809Y-130060714D01*
X120651952Y-130060714D01*
X120461476Y-130013095D01*
X120366238Y-129965476D01*
X120271000Y-129870238D01*
X120223380Y-129727380D01*
X120223380Y-129632142D01*
X120271000Y-129489285D01*
X120318619Y-129441666D01*
X120223380Y-128536904D02*
X120223380Y-129013095D01*
X120699571Y-129060714D01*
X120651952Y-129013095D01*
X120604333Y-128917857D01*
X120604333Y-128679761D01*
X120651952Y-128584523D01*
X120699571Y-128536904D01*
X120794809Y-128489285D01*
X121032904Y-128489285D01*
X121128142Y-128536904D01*
X121175761Y-128584523D01*
X121223380Y-128679761D01*
X121223380Y-128917857D01*
X121175761Y-129013095D01*
X121128142Y-129060714D01*
X118184995Y-124302555D02*
X118137376Y-124350174D01*
X117994519Y-124397793D01*
X117899281Y-124397793D01*
X117756423Y-124350174D01*
X117661185Y-124254936D01*
X117613566Y-124159698D01*
X117565947Y-123969222D01*
X117565947Y-123826365D01*
X117613566Y-123635889D01*
X117661185Y-123540651D01*
X117756423Y-123445413D01*
X117899281Y-123397793D01*
X117994519Y-123397793D01*
X118137376Y-123445413D01*
X118184995Y-123493032D01*
X119042138Y-123731127D02*
X119042138Y-124397793D01*
X118804042Y-123350174D02*
X118565947Y-124064460D01*
X119184995Y-124064460D01*
X124158804Y-122862079D02*
X124206423Y-122909698D01*
X124254042Y-123052555D01*
X124254042Y-123147793D01*
X124206423Y-123290651D01*
X124111185Y-123385889D01*
X124015947Y-123433508D01*
X123825471Y-123481127D01*
X123682614Y-123481127D01*
X123492138Y-123433508D01*
X123396900Y-123385889D01*
X123301662Y-123290651D01*
X123254042Y-123147793D01*
X123254042Y-123052555D01*
X123301662Y-122909698D01*
X123349281Y-122862079D01*
X123349281Y-122481127D02*
X123301662Y-122433508D01*
X123254042Y-122338270D01*
X123254042Y-122100174D01*
X123301662Y-122004936D01*
X123349281Y-121957317D01*
X123444519Y-121909698D01*
X123539757Y-121909698D01*
X123682614Y-121957317D01*
X124254042Y-122528746D01*
X124254042Y-121909698D01*
X124258804Y-126187079D02*
X124306423Y-126234698D01*
X124354042Y-126377555D01*
X124354042Y-126472793D01*
X124306423Y-126615651D01*
X124211185Y-126710889D01*
X124115947Y-126758508D01*
X123925471Y-126806127D01*
X123782614Y-126806127D01*
X123592138Y-126758508D01*
X123496900Y-126710889D01*
X123401662Y-126615651D01*
X123354042Y-126472793D01*
X123354042Y-126377555D01*
X123401662Y-126234698D01*
X123449281Y-126187079D01*
X123354042Y-125853746D02*
X123354042Y-125234698D01*
X123734995Y-125568032D01*
X123734995Y-125425174D01*
X123782614Y-125329936D01*
X123830233Y-125282317D01*
X123925471Y-125234698D01*
X124163566Y-125234698D01*
X124258804Y-125282317D01*
X124306423Y-125329936D01*
X124354042Y-125425174D01*
X124354042Y-125710889D01*
X124306423Y-125806127D01*
X124258804Y-125853746D01*
X130709995Y-135602555D02*
X130662376Y-135650174D01*
X130519519Y-135697793D01*
X130424281Y-135697793D01*
X130281423Y-135650174D01*
X130186185Y-135554936D01*
X130138566Y-135459698D01*
X130090947Y-135269222D01*
X130090947Y-135126365D01*
X130138566Y-134935889D01*
X130186185Y-134840651D01*
X130281423Y-134745413D01*
X130424281Y-134697793D01*
X130519519Y-134697793D01*
X130662376Y-134745413D01*
X130709995Y-134793032D01*
X131043328Y-134697793D02*
X131709995Y-134697793D01*
X131281423Y-135697793D01*
X138784995Y-133272793D02*
X138308804Y-133272793D01*
X138308804Y-132272793D01*
X139070709Y-132368032D02*
X139118328Y-132320413D01*
X139213566Y-132272793D01*
X139451662Y-132272793D01*
X139546900Y-132320413D01*
X139594519Y-132368032D01*
X139642138Y-132463270D01*
X139642138Y-132558508D01*
X139594519Y-132701365D01*
X139023090Y-133272793D01*
X139642138Y-133272793D01*
X122709995Y-137897793D02*
X122233804Y-137897793D01*
X122233804Y-136897793D01*
X122948090Y-136897793D02*
X123567138Y-136897793D01*
X123233804Y-137278746D01*
X123376662Y-137278746D01*
X123471900Y-137326365D01*
X123519519Y-137373984D01*
X123567138Y-137469222D01*
X123567138Y-137707317D01*
X123519519Y-137802555D01*
X123471900Y-137850174D01*
X123376662Y-137897793D01*
X123090947Y-137897793D01*
X122995709Y-137850174D01*
X122948090Y-137802555D01*
X132526662Y-140447793D02*
X132717138Y-140447793D01*
X132812376Y-140495413D01*
X132907614Y-140590651D01*
X132955233Y-140781127D01*
X132955233Y-141114460D01*
X132907614Y-141304936D01*
X132812376Y-141400174D01*
X132717138Y-141447793D01*
X132526662Y-141447793D01*
X132431423Y-141400174D01*
X132336185Y-141304936D01*
X132288566Y-141114460D01*
X132288566Y-140781127D01*
X132336185Y-140590651D01*
X132431423Y-140495413D01*
X132526662Y-140447793D01*
X133383804Y-140447793D02*
X133383804Y-141257317D01*
X133431423Y-141352555D01*
X133479042Y-141400174D01*
X133574281Y-141447793D01*
X133764757Y-141447793D01*
X133859995Y-141400174D01*
X133907614Y-141352555D01*
X133955233Y-141257317D01*
X133955233Y-140447793D01*
X134288566Y-140447793D02*
X134859995Y-140447793D01*
X134574281Y-141447793D02*
X134574281Y-140447793D01*
X139577852Y-122497793D02*
X139577852Y-121497793D01*
X140054042Y-122497793D02*
X140054042Y-121497793D01*
X140625471Y-122497793D01*
X140625471Y-121497793D01*
X141101662Y-122497793D02*
X141101662Y-121497793D01*
X141482614Y-121497793D01*
X141577852Y-121545413D01*
X141625471Y-121593032D01*
X141673090Y-121688270D01*
X141673090Y-121831127D01*
X141625471Y-121926365D01*
X141577852Y-121973984D01*
X141482614Y-122021603D01*
X141101662Y-122021603D01*
X144878333Y-124572142D02*
X144830714Y-124619761D01*
X144687857Y-124667380D01*
X144592619Y-124667380D01*
X144449761Y-124619761D01*
X144354523Y-124524523D01*
X144306904Y-124429285D01*
X144259285Y-124238809D01*
X144259285Y-124095952D01*
X144306904Y-123905476D01*
X144354523Y-123810238D01*
X144449761Y-123715000D01*
X144592619Y-123667380D01*
X144687857Y-123667380D01*
X144830714Y-123715000D01*
X144878333Y-123762619D01*
X145830714Y-124667380D02*
X145259285Y-124667380D01*
X145545000Y-124667380D02*
X145545000Y-123667380D01*
X145449761Y-123810238D01*
X145354523Y-123905476D01*
X145259285Y-123953095D01*
X128748047Y-126069571D02*
X128890904Y-126117190D01*
X128938523Y-126164809D01*
X128986142Y-126260047D01*
X128986142Y-126402904D01*
X128938523Y-126498142D01*
X128890904Y-126545761D01*
X128795666Y-126593380D01*
X128414714Y-126593380D01*
X128414714Y-125593380D01*
X128748047Y-125593380D01*
X128843285Y-125641000D01*
X128890904Y-125688619D01*
X128938523Y-125783857D01*
X128938523Y-125879095D01*
X128890904Y-125974333D01*
X128843285Y-126021952D01*
X128748047Y-126069571D01*
X128414714Y-126069571D01*
X129367095Y-126307666D02*
X129843285Y-126307666D01*
X129271857Y-126593380D02*
X129605190Y-125593380D01*
X129938523Y-126593380D01*
X130271857Y-126593380D02*
X130271857Y-125593380D01*
X130843285Y-126593380D01*
X130843285Y-125593380D01*
X131319476Y-126593380D02*
X131319476Y-125593380D01*
X131557571Y-125593380D01*
X131700428Y-125641000D01*
X131795666Y-125736238D01*
X131843285Y-125831476D01*
X131890904Y-126021952D01*
X131890904Y-126164809D01*
X131843285Y-126355285D01*
X131795666Y-126450523D01*
X131700428Y-126545761D01*
X131557571Y-126593380D01*
X131319476Y-126593380D01*
X128486142Y-128203380D02*
X128486142Y-127203380D01*
X128867095Y-127203380D01*
X128962333Y-127251000D01*
X129009952Y-127298619D01*
X129057571Y-127393857D01*
X129057571Y-127536714D01*
X129009952Y-127631952D01*
X128962333Y-127679571D01*
X128867095Y-127727190D01*
X128486142Y-127727190D01*
X129438523Y-127917666D02*
X129914714Y-127917666D01*
X129343285Y-128203380D02*
X129676619Y-127203380D01*
X130009952Y-128203380D01*
X130295666Y-128155761D02*
X130438523Y-128203380D01*
X130676619Y-128203380D01*
X130771857Y-128155761D01*
X130819476Y-128108142D01*
X130867095Y-128012904D01*
X130867095Y-127917666D01*
X130819476Y-127822428D01*
X130771857Y-127774809D01*
X130676619Y-127727190D01*
X130486142Y-127679571D01*
X130390904Y-127631952D01*
X130343285Y-127584333D01*
X130295666Y-127489095D01*
X130295666Y-127393857D01*
X130343285Y-127298619D01*
X130390904Y-127251000D01*
X130486142Y-127203380D01*
X130724238Y-127203380D01*
X130867095Y-127251000D01*
X131248047Y-128155761D02*
X131390904Y-128203380D01*
X131629000Y-128203380D01*
X131724238Y-128155761D01*
X131771857Y-128108142D01*
X131819476Y-128012904D01*
X131819476Y-127917666D01*
X131771857Y-127822428D01*
X131724238Y-127774809D01*
X131629000Y-127727190D01*
X131438523Y-127679571D01*
X131343285Y-127631952D01*
X131295666Y-127584333D01*
X131248047Y-127489095D01*
X131248047Y-127393857D01*
X131295666Y-127298619D01*
X131343285Y-127251000D01*
X131438523Y-127203380D01*
X131676619Y-127203380D01*
X131819476Y-127251000D01*
X128295666Y-129289571D02*
X127962333Y-129289571D01*
X127962333Y-129813380D02*
X127962333Y-128813380D01*
X128438523Y-128813380D01*
X128819476Y-129813380D02*
X128819476Y-128813380D01*
X129771857Y-129813380D02*
X129295666Y-129813380D01*
X129295666Y-128813380D01*
X129962333Y-128813380D02*
X130533761Y-128813380D01*
X130248047Y-129813380D02*
X130248047Y-128813380D01*
X130867095Y-129289571D02*
X131200428Y-129289571D01*
X131343285Y-129813380D02*
X130867095Y-129813380D01*
X130867095Y-128813380D01*
X131343285Y-128813380D01*
X132343285Y-129813380D02*
X132009952Y-129337190D01*
X131771857Y-129813380D02*
X131771857Y-128813380D01*
X132152809Y-128813380D01*
X132248047Y-128861000D01*
X132295666Y-128908619D01*
X132343285Y-129003857D01*
X132343285Y-129146714D01*
X132295666Y-129241952D01*
X132248047Y-129289571D01*
X132152809Y-129337190D01*
X131771857Y-129337190D01*
D11*
X141559000Y-140451000D02*
X141559000Y-143245000D01*
D10*
X128119718Y-70174396D02*
X127119718Y-70174396D01*
X128119718Y-69698206D02*
X127119718Y-69698206D01*
X128119718Y-69126777D01*
X127119718Y-69126777D01*
X128119718Y-68650587D02*
X127119718Y-68650587D01*
X127119718Y-68269634D01*
X127167338Y-68174396D01*
X127214957Y-68126777D01*
X127310195Y-68079158D01*
X127453052Y-68079158D01*
X127548290Y-68126777D01*
X127595909Y-68174396D01*
X127643528Y-68269634D01*
X127643528Y-68650587D01*
X125905338Y-89684967D02*
X126095814Y-89684967D01*
X126191052Y-89732587D01*
X126286290Y-89827825D01*
X126333909Y-90018301D01*
X126333909Y-90351634D01*
X126286290Y-90542110D01*
X126191052Y-90637348D01*
X126095814Y-90684967D01*
X125905338Y-90684967D01*
X125810099Y-90637348D01*
X125714861Y-90542110D01*
X125667242Y-90351634D01*
X125667242Y-90018301D01*
X125714861Y-89827825D01*
X125810099Y-89732587D01*
X125905338Y-89684967D01*
X126762480Y-89684967D02*
X126762480Y-90494491D01*
X126810099Y-90589729D01*
X126857718Y-90637348D01*
X126952957Y-90684967D01*
X127143433Y-90684967D01*
X127238671Y-90637348D01*
X127286290Y-90589729D01*
X127333909Y-90494491D01*
X127333909Y-89684967D01*
X127667242Y-89684967D02*
X128238671Y-89684967D01*
X127952957Y-90684967D02*
X127952957Y-89684967D01*
X132580671Y-84747729D02*
X132533052Y-84795348D01*
X132390195Y-84842967D01*
X132294957Y-84842967D01*
X132152099Y-84795348D01*
X132056861Y-84700110D01*
X132009242Y-84604872D01*
X131961623Y-84414396D01*
X131961623Y-84271539D01*
X132009242Y-84081063D01*
X132056861Y-83985825D01*
X132152099Y-83890587D01*
X132294957Y-83842967D01*
X132390195Y-83842967D01*
X132533052Y-83890587D01*
X132580671Y-83938206D01*
X133437814Y-83842967D02*
X133247338Y-83842967D01*
X133152099Y-83890587D01*
X133104480Y-83938206D01*
X133009242Y-84081063D01*
X132961623Y-84271539D01*
X132961623Y-84652491D01*
X133009242Y-84747729D01*
X133056861Y-84795348D01*
X133152099Y-84842967D01*
X133342576Y-84842967D01*
X133437814Y-84795348D01*
X133485433Y-84747729D01*
X133533052Y-84652491D01*
X133533052Y-84414396D01*
X133485433Y-84319158D01*
X133437814Y-84271539D01*
X133342576Y-84223920D01*
X133152099Y-84223920D01*
X133056861Y-84271539D01*
X133009242Y-84319158D01*
X132961623Y-84414396D01*
X130548671Y-76365729D02*
X130501052Y-76413348D01*
X130358195Y-76460967D01*
X130262957Y-76460967D01*
X130120099Y-76413348D01*
X130024861Y-76318110D01*
X129977242Y-76222872D01*
X129929623Y-76032396D01*
X129929623Y-75889539D01*
X129977242Y-75699063D01*
X130024861Y-75603825D01*
X130120099Y-75508587D01*
X130262957Y-75460967D01*
X130358195Y-75460967D01*
X130501052Y-75508587D01*
X130548671Y-75556206D01*
X130882004Y-75460967D02*
X131548671Y-75460967D01*
X131120099Y-76460967D01*
X143502671Y-73571729D02*
X143455052Y-73619348D01*
X143312195Y-73666967D01*
X143216957Y-73666967D01*
X143074099Y-73619348D01*
X142978861Y-73524110D01*
X142931242Y-73428872D01*
X142883623Y-73238396D01*
X142883623Y-73095539D01*
X142931242Y-72905063D01*
X142978861Y-72809825D01*
X143074099Y-72714587D01*
X143216957Y-72666967D01*
X143312195Y-72666967D01*
X143455052Y-72714587D01*
X143502671Y-72762206D01*
X144455052Y-73666967D02*
X143883623Y-73666967D01*
X144169338Y-73666967D02*
X144169338Y-72666967D01*
X144074099Y-72809825D01*
X143978861Y-72905063D01*
X143883623Y-72952682D01*
X120134671Y-73825729D02*
X120087052Y-73873348D01*
X119944195Y-73920967D01*
X119848957Y-73920967D01*
X119706099Y-73873348D01*
X119610861Y-73778110D01*
X119563242Y-73682872D01*
X119515623Y-73492396D01*
X119515623Y-73349539D01*
X119563242Y-73159063D01*
X119610861Y-73063825D01*
X119706099Y-72968587D01*
X119848957Y-72920967D01*
X119944195Y-72920967D01*
X120087052Y-72968587D01*
X120134671Y-73016206D01*
X121039433Y-72920967D02*
X120563242Y-72920967D01*
X120515623Y-73397158D01*
X120563242Y-73349539D01*
X120658480Y-73301920D01*
X120896576Y-73301920D01*
X120991814Y-73349539D01*
X121039433Y-73397158D01*
X121087052Y-73492396D01*
X121087052Y-73730491D01*
X121039433Y-73825729D01*
X120991814Y-73873348D01*
X120896576Y-73920967D01*
X120658480Y-73920967D01*
X120563242Y-73873348D01*
X120515623Y-73825729D01*
X123944671Y-75095729D02*
X123897052Y-75143348D01*
X123754195Y-75190967D01*
X123658957Y-75190967D01*
X123516099Y-75143348D01*
X123420861Y-75048110D01*
X123373242Y-74952872D01*
X123325623Y-74762396D01*
X123325623Y-74619539D01*
X123373242Y-74429063D01*
X123420861Y-74333825D01*
X123516099Y-74238587D01*
X123658957Y-74190967D01*
X123754195Y-74190967D01*
X123897052Y-74238587D01*
X123944671Y-74286206D01*
X124278004Y-74190967D02*
X124897052Y-74190967D01*
X124563718Y-74571920D01*
X124706576Y-74571920D01*
X124801814Y-74619539D01*
X124849433Y-74667158D01*
X124897052Y-74762396D01*
X124897052Y-75000491D01*
X124849433Y-75095729D01*
X124801814Y-75143348D01*
X124706576Y-75190967D01*
X124420861Y-75190967D01*
X124325623Y-75143348D01*
X124278004Y-75095729D01*
X123944671Y-71285729D02*
X123897052Y-71333348D01*
X123754195Y-71380967D01*
X123658957Y-71380967D01*
X123516099Y-71333348D01*
X123420861Y-71238110D01*
X123373242Y-71142872D01*
X123325623Y-70952396D01*
X123325623Y-70809539D01*
X123373242Y-70619063D01*
X123420861Y-70523825D01*
X123516099Y-70428587D01*
X123658957Y-70380967D01*
X123754195Y-70380967D01*
X123897052Y-70428587D01*
X123944671Y-70476206D01*
X124325623Y-70476206D02*
X124373242Y-70428587D01*
X124468480Y-70380967D01*
X124706576Y-70380967D01*
X124801814Y-70428587D01*
X124849433Y-70476206D01*
X124897052Y-70571444D01*
X124897052Y-70666682D01*
X124849433Y-70809539D01*
X124278004Y-71380967D01*
X124897052Y-71380967D01*
X121166480Y-70079253D02*
X121214099Y-70126872D01*
X121261718Y-70269729D01*
X121261718Y-70364967D01*
X121214099Y-70507825D01*
X121118861Y-70603063D01*
X121023623Y-70650682D01*
X120833147Y-70698301D01*
X120690290Y-70698301D01*
X120499814Y-70650682D01*
X120404576Y-70603063D01*
X120309338Y-70507825D01*
X120261718Y-70364967D01*
X120261718Y-70269729D01*
X120309338Y-70126872D01*
X120356957Y-70079253D01*
X120595052Y-69222110D02*
X121261718Y-69222110D01*
X120214099Y-69460206D02*
X120928385Y-69698301D01*
X120928385Y-69079253D01*
X123182671Y-83572967D02*
X122706480Y-83572967D01*
X122706480Y-82572967D01*
X123420766Y-82572967D02*
X124039814Y-82572967D01*
X123706480Y-82953920D01*
X123849338Y-82953920D01*
X123944576Y-83001539D01*
X123992195Y-83049158D01*
X124039814Y-83144396D01*
X124039814Y-83382491D01*
X123992195Y-83477729D01*
X123944576Y-83525348D01*
X123849338Y-83572967D01*
X123563623Y-83572967D01*
X123468385Y-83525348D01*
X123420766Y-83477729D01*
X138422671Y-79762967D02*
X137946480Y-79762967D01*
X137946480Y-78762967D01*
X138708385Y-78858206D02*
X138756004Y-78810587D01*
X138851242Y-78762967D01*
X139089338Y-78762967D01*
X139184576Y-78810587D01*
X139232195Y-78858206D01*
X139279814Y-78953444D01*
X139279814Y-79048682D01*
X139232195Y-79191539D01*
X138660766Y-79762967D01*
X139279814Y-79762967D01*
X142145528Y-85920539D02*
X142050290Y-85872920D01*
X142002671Y-85825301D01*
X141955052Y-85730063D01*
X141955052Y-85682444D01*
X142002671Y-85587206D01*
X142050290Y-85539587D01*
X142145528Y-85491967D01*
X142336004Y-85491967D01*
X142431242Y-85539587D01*
X142478861Y-85587206D01*
X142526480Y-85682444D01*
X142526480Y-85730063D01*
X142478861Y-85825301D01*
X142431242Y-85872920D01*
X142336004Y-85920539D01*
X142145528Y-85920539D01*
X142050290Y-85968158D01*
X142002671Y-86015777D01*
X141955052Y-86111015D01*
X141955052Y-86301491D01*
X142002671Y-86396729D01*
X142050290Y-86444348D01*
X142145528Y-86491967D01*
X142336004Y-86491967D01*
X142431242Y-86444348D01*
X142478861Y-86396729D01*
X142526480Y-86301491D01*
X142526480Y-86111015D01*
X142478861Y-86015777D01*
X142431242Y-85968158D01*
X142336004Y-85920539D01*
X143145528Y-85491967D02*
X143240766Y-85491967D01*
X143336004Y-85539587D01*
X143383623Y-85587206D01*
X143431242Y-85682444D01*
X143478861Y-85872920D01*
X143478861Y-86111015D01*
X143431242Y-86301491D01*
X143383623Y-86396729D01*
X143336004Y-86444348D01*
X143240766Y-86491967D01*
X143145528Y-86491967D01*
X143050290Y-86444348D01*
X143002671Y-86396729D01*
X142955052Y-86301491D01*
X142907433Y-86111015D01*
X142907433Y-85872920D01*
X142955052Y-85682444D01*
X143002671Y-85587206D01*
X143050290Y-85539587D01*
X143145528Y-85491967D01*
X144669338Y-86491967D02*
X144669338Y-85491967D01*
X145002671Y-86206253D01*
X145336004Y-85491967D01*
X145336004Y-86491967D01*
X142288385Y-87578158D02*
X142431242Y-87625777D01*
X142478861Y-87673396D01*
X142526480Y-87768634D01*
X142526480Y-87911491D01*
X142478861Y-88006729D01*
X142431242Y-88054348D01*
X142336004Y-88101967D01*
X141955052Y-88101967D01*
X141955052Y-87101967D01*
X142288385Y-87101967D01*
X142383623Y-87149587D01*
X142431242Y-87197206D01*
X142478861Y-87292444D01*
X142478861Y-87387682D01*
X142431242Y-87482920D01*
X142383623Y-87530539D01*
X142288385Y-87578158D01*
X141955052Y-87578158D01*
X142907433Y-87816253D02*
X143383623Y-87816253D01*
X142812195Y-88101967D02*
X143145528Y-87101967D01*
X143478861Y-88101967D01*
X143812195Y-88101967D02*
X143812195Y-87101967D01*
X144383623Y-88101967D01*
X144383623Y-87101967D01*
X144859814Y-88101967D02*
X144859814Y-87101967D01*
X145097909Y-87101967D01*
X145240766Y-87149587D01*
X145336004Y-87244825D01*
X145383623Y-87340063D01*
X145431242Y-87530539D01*
X145431242Y-87673396D01*
X145383623Y-87863872D01*
X145336004Y-87959110D01*
X145240766Y-88054348D01*
X145097909Y-88101967D01*
X144859814Y-88101967D01*
X142026480Y-89711967D02*
X142026480Y-88711967D01*
X142407433Y-88711967D01*
X142502671Y-88759587D01*
X142550290Y-88807206D01*
X142597909Y-88902444D01*
X142597909Y-89045301D01*
X142550290Y-89140539D01*
X142502671Y-89188158D01*
X142407433Y-89235777D01*
X142026480Y-89235777D01*
X142978861Y-89426253D02*
X143455052Y-89426253D01*
X142883623Y-89711967D02*
X143216957Y-88711967D01*
X143550290Y-89711967D01*
X143836004Y-89664348D02*
X143978861Y-89711967D01*
X144216957Y-89711967D01*
X144312195Y-89664348D01*
X144359814Y-89616729D01*
X144407433Y-89521491D01*
X144407433Y-89426253D01*
X144359814Y-89331015D01*
X144312195Y-89283396D01*
X144216957Y-89235777D01*
X144026480Y-89188158D01*
X143931242Y-89140539D01*
X143883623Y-89092920D01*
X143836004Y-88997682D01*
X143836004Y-88902444D01*
X143883623Y-88807206D01*
X143931242Y-88759587D01*
X144026480Y-88711967D01*
X144264576Y-88711967D01*
X144407433Y-88759587D01*
X144788385Y-89664348D02*
X144931242Y-89711967D01*
X145169338Y-89711967D01*
X145264576Y-89664348D01*
X145312195Y-89616729D01*
X145359814Y-89521491D01*
X145359814Y-89426253D01*
X145312195Y-89331015D01*
X145264576Y-89283396D01*
X145169338Y-89235777D01*
X144978861Y-89188158D01*
X144883623Y-89140539D01*
X144836004Y-89092920D01*
X144788385Y-88997682D01*
X144788385Y-88902444D01*
X144836004Y-88807206D01*
X144883623Y-88759587D01*
X144978861Y-88711967D01*
X145216957Y-88711967D01*
X145359814Y-88759587D01*
X141836004Y-90798158D02*
X141502671Y-90798158D01*
X141502671Y-91321967D02*
X141502671Y-90321967D01*
X141978861Y-90321967D01*
X142359814Y-91321967D02*
X142359814Y-90321967D01*
X143312195Y-91321967D02*
X142836004Y-91321967D01*
X142836004Y-90321967D01*
X143502671Y-90321967D02*
X144074099Y-90321967D01*
X143788385Y-91321967D02*
X143788385Y-90321967D01*
X144407433Y-90798158D02*
X144740766Y-90798158D01*
X144883623Y-91321967D02*
X144407433Y-91321967D01*
X144407433Y-90321967D01*
X144883623Y-90321967D01*
X145883623Y-91321967D02*
X145550290Y-90845777D01*
X145312195Y-91321967D02*
X145312195Y-90321967D01*
X145693147Y-90321967D01*
X145788385Y-90369587D01*
X145836004Y-90417206D01*
X145883623Y-90512444D01*
X145883623Y-90655301D01*
X145836004Y-90750539D01*
X145788385Y-90798158D01*
X145693147Y-90845777D01*
X145312195Y-90845777D01*
X127738718Y-97225396D02*
X126738718Y-97225396D01*
X127738718Y-96749206D02*
X126738718Y-96749206D01*
X127738718Y-96177777D01*
X126738718Y-96177777D01*
X127738718Y-95701587D02*
X126738718Y-95701587D01*
X126738718Y-95320634D01*
X126786338Y-95225396D01*
X126833957Y-95177777D01*
X126929195Y-95130158D01*
X127072052Y-95130158D01*
X127167290Y-95177777D01*
X127214909Y-95225396D01*
X127262528Y-95320634D01*
X127262528Y-95701587D01*
X125524338Y-116608967D02*
X125714814Y-116608967D01*
X125810052Y-116656587D01*
X125905290Y-116751825D01*
X125952909Y-116942301D01*
X125952909Y-117275634D01*
X125905290Y-117466110D01*
X125810052Y-117561348D01*
X125714814Y-117608967D01*
X125524338Y-117608967D01*
X125429099Y-117561348D01*
X125333861Y-117466110D01*
X125286242Y-117275634D01*
X125286242Y-116942301D01*
X125333861Y-116751825D01*
X125429099Y-116656587D01*
X125524338Y-116608967D01*
X126381480Y-116608967D02*
X126381480Y-117418491D01*
X126429099Y-117513729D01*
X126476718Y-117561348D01*
X126571957Y-117608967D01*
X126762433Y-117608967D01*
X126857671Y-117561348D01*
X126905290Y-117513729D01*
X126952909Y-117418491D01*
X126952909Y-116608967D01*
X127286242Y-116608967D02*
X127857671Y-116608967D01*
X127571957Y-117608967D02*
X127571957Y-116608967D01*
X130675671Y-103416729D02*
X130628052Y-103464348D01*
X130485195Y-103511967D01*
X130389957Y-103511967D01*
X130247099Y-103464348D01*
X130151861Y-103369110D01*
X130104242Y-103273872D01*
X130056623Y-103083396D01*
X130056623Y-102940539D01*
X130104242Y-102750063D01*
X130151861Y-102654825D01*
X130247099Y-102559587D01*
X130389957Y-102511967D01*
X130485195Y-102511967D01*
X130628052Y-102559587D01*
X130675671Y-102607206D01*
X131009004Y-102511967D02*
X131675671Y-102511967D01*
X131247099Y-103511967D01*
X132707671Y-111290729D02*
X132660052Y-111338348D01*
X132517195Y-111385967D01*
X132421957Y-111385967D01*
X132279099Y-111338348D01*
X132183861Y-111243110D01*
X132136242Y-111147872D01*
X132088623Y-110957396D01*
X132088623Y-110814539D01*
X132136242Y-110624063D01*
X132183861Y-110528825D01*
X132279099Y-110433587D01*
X132421957Y-110385967D01*
X132517195Y-110385967D01*
X132660052Y-110433587D01*
X132707671Y-110481206D01*
X133564814Y-110385967D02*
X133374338Y-110385967D01*
X133279099Y-110433587D01*
X133231480Y-110481206D01*
X133136242Y-110624063D01*
X133088623Y-110814539D01*
X133088623Y-111195491D01*
X133136242Y-111290729D01*
X133183861Y-111338348D01*
X133279099Y-111385967D01*
X133469576Y-111385967D01*
X133564814Y-111338348D01*
X133612433Y-111290729D01*
X133660052Y-111195491D01*
X133660052Y-110957396D01*
X133612433Y-110862158D01*
X133564814Y-110814539D01*
X133469576Y-110766920D01*
X133279099Y-110766920D01*
X133183861Y-110814539D01*
X133136242Y-110862158D01*
X133088623Y-110957396D01*
X144518671Y-100495729D02*
X144471052Y-100543348D01*
X144328195Y-100590967D01*
X144232957Y-100590967D01*
X144090099Y-100543348D01*
X143994861Y-100448110D01*
X143947242Y-100352872D01*
X143899623Y-100162396D01*
X143899623Y-100019539D01*
X143947242Y-99829063D01*
X143994861Y-99733825D01*
X144090099Y-99638587D01*
X144232957Y-99590967D01*
X144328195Y-99590967D01*
X144471052Y-99638587D01*
X144518671Y-99686206D01*
X145471052Y-100590967D02*
X144899623Y-100590967D01*
X145185338Y-100590967D02*
X145185338Y-99590967D01*
X145090099Y-99733825D01*
X144994861Y-99829063D01*
X144899623Y-99876682D01*
X139057671Y-106051967D02*
X138581480Y-106051967D01*
X138581480Y-105051967D01*
X139343385Y-105147206D02*
X139391004Y-105099587D01*
X139486242Y-105051967D01*
X139724338Y-105051967D01*
X139819576Y-105099587D01*
X139867195Y-105147206D01*
X139914814Y-105242444D01*
X139914814Y-105337682D01*
X139867195Y-105480539D01*
X139295766Y-106051967D01*
X139914814Y-106051967D01*
X123182671Y-110496967D02*
X122706480Y-110496967D01*
X122706480Y-109496967D01*
X123420766Y-109496967D02*
X124039814Y-109496967D01*
X123706480Y-109877920D01*
X123849338Y-109877920D01*
X123944576Y-109925539D01*
X123992195Y-109973158D01*
X124039814Y-110068396D01*
X124039814Y-110306491D01*
X123992195Y-110401729D01*
X123944576Y-110449348D01*
X123849338Y-110496967D01*
X123563623Y-110496967D01*
X123468385Y-110449348D01*
X123420766Y-110401729D01*
X120134671Y-100622729D02*
X120087052Y-100670348D01*
X119944195Y-100717967D01*
X119848957Y-100717967D01*
X119706099Y-100670348D01*
X119610861Y-100575110D01*
X119563242Y-100479872D01*
X119515623Y-100289396D01*
X119515623Y-100146539D01*
X119563242Y-99956063D01*
X119610861Y-99860825D01*
X119706099Y-99765587D01*
X119848957Y-99717967D01*
X119944195Y-99717967D01*
X120087052Y-99765587D01*
X120134671Y-99813206D01*
X121039433Y-99717967D02*
X120563242Y-99717967D01*
X120515623Y-100194158D01*
X120563242Y-100146539D01*
X120658480Y-100098920D01*
X120896576Y-100098920D01*
X120991814Y-100146539D01*
X121039433Y-100194158D01*
X121087052Y-100289396D01*
X121087052Y-100527491D01*
X121039433Y-100622729D01*
X120991814Y-100670348D01*
X120896576Y-100717967D01*
X120658480Y-100717967D01*
X120563242Y-100670348D01*
X120515623Y-100622729D01*
X123436671Y-101257729D02*
X123389052Y-101305348D01*
X123246195Y-101352967D01*
X123150957Y-101352967D01*
X123008099Y-101305348D01*
X122912861Y-101210110D01*
X122865242Y-101114872D01*
X122817623Y-100924396D01*
X122817623Y-100781539D01*
X122865242Y-100591063D01*
X122912861Y-100495825D01*
X123008099Y-100400587D01*
X123150957Y-100352967D01*
X123246195Y-100352967D01*
X123389052Y-100400587D01*
X123436671Y-100448206D01*
X123770004Y-100352967D02*
X124389052Y-100352967D01*
X124055718Y-100733920D01*
X124198576Y-100733920D01*
X124293814Y-100781539D01*
X124341433Y-100829158D01*
X124389052Y-100924396D01*
X124389052Y-101162491D01*
X124341433Y-101257729D01*
X124293814Y-101305348D01*
X124198576Y-101352967D01*
X123912861Y-101352967D01*
X123817623Y-101305348D01*
X123770004Y-101257729D01*
X123309671Y-97574729D02*
X123262052Y-97622348D01*
X123119195Y-97669967D01*
X123023957Y-97669967D01*
X122881099Y-97622348D01*
X122785861Y-97527110D01*
X122738242Y-97431872D01*
X122690623Y-97241396D01*
X122690623Y-97098539D01*
X122738242Y-96908063D01*
X122785861Y-96812825D01*
X122881099Y-96717587D01*
X123023957Y-96669967D01*
X123119195Y-96669967D01*
X123262052Y-96717587D01*
X123309671Y-96765206D01*
X123690623Y-96765206D02*
X123738242Y-96717587D01*
X123833480Y-96669967D01*
X124071576Y-96669967D01*
X124166814Y-96717587D01*
X124214433Y-96765206D01*
X124262052Y-96860444D01*
X124262052Y-96955682D01*
X124214433Y-97098539D01*
X123643004Y-97669967D01*
X124262052Y-97669967D01*
X120785480Y-97003253D02*
X120833099Y-97050872D01*
X120880718Y-97193729D01*
X120880718Y-97288967D01*
X120833099Y-97431825D01*
X120737861Y-97527063D01*
X120642623Y-97574682D01*
X120452147Y-97622301D01*
X120309290Y-97622301D01*
X120118814Y-97574682D01*
X120023576Y-97527063D01*
X119928338Y-97431825D01*
X119880718Y-97288967D01*
X119880718Y-97193729D01*
X119928338Y-97050872D01*
X119975957Y-97003253D01*
X120214052Y-96146110D02*
X120880718Y-96146110D01*
X119833099Y-96384206D02*
X120547385Y-96622301D01*
X120547385Y-96003253D01*
X142209052Y-112257206D02*
X142256671Y-112209587D01*
X142351909Y-112161967D01*
X142590004Y-112161967D01*
X142685242Y-112209587D01*
X142732861Y-112257206D01*
X142780480Y-112352444D01*
X142780480Y-112447682D01*
X142732861Y-112590539D01*
X142161433Y-113161967D01*
X142780480Y-113161967D01*
X143399528Y-112161967D02*
X143494766Y-112161967D01*
X143590004Y-112209587D01*
X143637623Y-112257206D01*
X143685242Y-112352444D01*
X143732861Y-112542920D01*
X143732861Y-112781015D01*
X143685242Y-112971491D01*
X143637623Y-113066729D01*
X143590004Y-113114348D01*
X143494766Y-113161967D01*
X143399528Y-113161967D01*
X143304290Y-113114348D01*
X143256671Y-113066729D01*
X143209052Y-112971491D01*
X143161433Y-112781015D01*
X143161433Y-112542920D01*
X143209052Y-112352444D01*
X143256671Y-112257206D01*
X143304290Y-112209587D01*
X143399528Y-112161967D01*
X144923338Y-113161967D02*
X144923338Y-112161967D01*
X145256671Y-112876253D01*
X145590004Y-112161967D01*
X145590004Y-113161967D01*
X142542385Y-114248158D02*
X142685242Y-114295777D01*
X142732861Y-114343396D01*
X142780480Y-114438634D01*
X142780480Y-114581491D01*
X142732861Y-114676729D01*
X142685242Y-114724348D01*
X142590004Y-114771967D01*
X142209052Y-114771967D01*
X142209052Y-113771967D01*
X142542385Y-113771967D01*
X142637623Y-113819587D01*
X142685242Y-113867206D01*
X142732861Y-113962444D01*
X142732861Y-114057682D01*
X142685242Y-114152920D01*
X142637623Y-114200539D01*
X142542385Y-114248158D01*
X142209052Y-114248158D01*
X143161433Y-114486253D02*
X143637623Y-114486253D01*
X143066195Y-114771967D02*
X143399528Y-113771967D01*
X143732861Y-114771967D01*
X144066195Y-114771967D02*
X144066195Y-113771967D01*
X144637623Y-114771967D01*
X144637623Y-113771967D01*
X145113814Y-114771967D02*
X145113814Y-113771967D01*
X145351909Y-113771967D01*
X145494766Y-113819587D01*
X145590004Y-113914825D01*
X145637623Y-114010063D01*
X145685242Y-114200539D01*
X145685242Y-114343396D01*
X145637623Y-114533872D01*
X145590004Y-114629110D01*
X145494766Y-114724348D01*
X145351909Y-114771967D01*
X145113814Y-114771967D01*
X142280480Y-116381967D02*
X142280480Y-115381967D01*
X142661433Y-115381967D01*
X142756671Y-115429587D01*
X142804290Y-115477206D01*
X142851909Y-115572444D01*
X142851909Y-115715301D01*
X142804290Y-115810539D01*
X142756671Y-115858158D01*
X142661433Y-115905777D01*
X142280480Y-115905777D01*
X143232861Y-116096253D02*
X143709052Y-116096253D01*
X143137623Y-116381967D02*
X143470957Y-115381967D01*
X143804290Y-116381967D01*
X144090004Y-116334348D02*
X144232861Y-116381967D01*
X144470957Y-116381967D01*
X144566195Y-116334348D01*
X144613814Y-116286729D01*
X144661433Y-116191491D01*
X144661433Y-116096253D01*
X144613814Y-116001015D01*
X144566195Y-115953396D01*
X144470957Y-115905777D01*
X144280480Y-115858158D01*
X144185242Y-115810539D01*
X144137623Y-115762920D01*
X144090004Y-115667682D01*
X144090004Y-115572444D01*
X144137623Y-115477206D01*
X144185242Y-115429587D01*
X144280480Y-115381967D01*
X144518576Y-115381967D01*
X144661433Y-115429587D01*
X145042385Y-116334348D02*
X145185242Y-116381967D01*
X145423338Y-116381967D01*
X145518576Y-116334348D01*
X145566195Y-116286729D01*
X145613814Y-116191491D01*
X145613814Y-116096253D01*
X145566195Y-116001015D01*
X145518576Y-115953396D01*
X145423338Y-115905777D01*
X145232861Y-115858158D01*
X145137623Y-115810539D01*
X145090004Y-115762920D01*
X145042385Y-115667682D01*
X145042385Y-115572444D01*
X145090004Y-115477206D01*
X145137623Y-115429587D01*
X145232861Y-115381967D01*
X145470957Y-115381967D01*
X145613814Y-115429587D01*
X142090004Y-117468158D02*
X141756671Y-117468158D01*
X141756671Y-117991967D02*
X141756671Y-116991967D01*
X142232861Y-116991967D01*
X142613814Y-117991967D02*
X142613814Y-116991967D01*
X143566195Y-117991967D02*
X143090004Y-117991967D01*
X143090004Y-116991967D01*
X143756671Y-116991967D02*
X144328099Y-116991967D01*
X144042385Y-117991967D02*
X144042385Y-116991967D01*
X144661433Y-117468158D02*
X144994766Y-117468158D01*
X145137623Y-117991967D02*
X144661433Y-117991967D01*
X144661433Y-116991967D01*
X145137623Y-116991967D01*
X146137623Y-117991967D02*
X145804290Y-117515777D01*
X145566195Y-117991967D02*
X145566195Y-116991967D01*
X145947147Y-116991967D01*
X146042385Y-117039587D01*
X146090004Y-117087206D01*
X146137623Y-117182444D01*
X146137623Y-117325301D01*
X146090004Y-117420539D01*
X146042385Y-117468158D01*
X145947147Y-117515777D01*
X145566195Y-117515777D01*
X123516671Y-58086967D02*
X123040480Y-58086967D01*
X123040480Y-57086967D01*
X123754766Y-57086967D02*
X124373814Y-57086967D01*
X124040480Y-57467920D01*
X124183338Y-57467920D01*
X124278576Y-57515539D01*
X124326195Y-57563158D01*
X124373814Y-57658396D01*
X124373814Y-57896491D01*
X124326195Y-57991729D01*
X124278576Y-58039348D01*
X124183338Y-58086967D01*
X123897623Y-58086967D01*
X123802385Y-58039348D01*
X123754766Y-57991729D01*
X142385242Y-59165301D02*
X142385242Y-59831967D01*
X142147147Y-58784348D02*
X141909052Y-59498634D01*
X142528099Y-59498634D01*
X143099528Y-58831967D02*
X143194766Y-58831967D01*
X143290004Y-58879587D01*
X143337623Y-58927206D01*
X143385242Y-59022444D01*
X143432861Y-59212920D01*
X143432861Y-59451015D01*
X143385242Y-59641491D01*
X143337623Y-59736729D01*
X143290004Y-59784348D01*
X143194766Y-59831967D01*
X143099528Y-59831967D01*
X143004290Y-59784348D01*
X142956671Y-59736729D01*
X142909052Y-59641491D01*
X142861433Y-59451015D01*
X142861433Y-59212920D01*
X142909052Y-59022444D01*
X142956671Y-58927206D01*
X143004290Y-58879587D01*
X143099528Y-58831967D01*
X144623338Y-59831967D02*
X144623338Y-58831967D01*
X144956671Y-59546253D01*
X145290004Y-58831967D01*
X145290004Y-59831967D01*
X142242385Y-60918158D02*
X142385242Y-60965777D01*
X142432861Y-61013396D01*
X142480480Y-61108634D01*
X142480480Y-61251491D01*
X142432861Y-61346729D01*
X142385242Y-61394348D01*
X142290004Y-61441967D01*
X141909052Y-61441967D01*
X141909052Y-60441967D01*
X142242385Y-60441967D01*
X142337623Y-60489587D01*
X142385242Y-60537206D01*
X142432861Y-60632444D01*
X142432861Y-60727682D01*
X142385242Y-60822920D01*
X142337623Y-60870539D01*
X142242385Y-60918158D01*
X141909052Y-60918158D01*
X142861433Y-61156253D02*
X143337623Y-61156253D01*
X142766195Y-61441967D02*
X143099528Y-60441967D01*
X143432861Y-61441967D01*
X143766195Y-61441967D02*
X143766195Y-60441967D01*
X144337623Y-61441967D01*
X144337623Y-60441967D01*
X144813814Y-61441967D02*
X144813814Y-60441967D01*
X145051909Y-60441967D01*
X145194766Y-60489587D01*
X145290004Y-60584825D01*
X145337623Y-60680063D01*
X145385242Y-60870539D01*
X145385242Y-61013396D01*
X145337623Y-61203872D01*
X145290004Y-61299110D01*
X145194766Y-61394348D01*
X145051909Y-61441967D01*
X144813814Y-61441967D01*
X141980480Y-63051967D02*
X141980480Y-62051967D01*
X142361433Y-62051967D01*
X142456671Y-62099587D01*
X142504290Y-62147206D01*
X142551909Y-62242444D01*
X142551909Y-62385301D01*
X142504290Y-62480539D01*
X142456671Y-62528158D01*
X142361433Y-62575777D01*
X141980480Y-62575777D01*
X142932861Y-62766253D02*
X143409052Y-62766253D01*
X142837623Y-63051967D02*
X143170957Y-62051967D01*
X143504290Y-63051967D01*
X143790004Y-63004348D02*
X143932861Y-63051967D01*
X144170957Y-63051967D01*
X144266195Y-63004348D01*
X144313814Y-62956729D01*
X144361433Y-62861491D01*
X144361433Y-62766253D01*
X144313814Y-62671015D01*
X144266195Y-62623396D01*
X144170957Y-62575777D01*
X143980480Y-62528158D01*
X143885242Y-62480539D01*
X143837623Y-62432920D01*
X143790004Y-62337682D01*
X143790004Y-62242444D01*
X143837623Y-62147206D01*
X143885242Y-62099587D01*
X143980480Y-62051967D01*
X144218576Y-62051967D01*
X144361433Y-62099587D01*
X144742385Y-63004348D02*
X144885242Y-63051967D01*
X145123338Y-63051967D01*
X145218576Y-63004348D01*
X145266195Y-62956729D01*
X145313814Y-62861491D01*
X145313814Y-62766253D01*
X145266195Y-62671015D01*
X145218576Y-62623396D01*
X145123338Y-62575777D01*
X144932861Y-62528158D01*
X144837623Y-62480539D01*
X144790004Y-62432920D01*
X144742385Y-62337682D01*
X144742385Y-62242444D01*
X144790004Y-62147206D01*
X144837623Y-62099587D01*
X144932861Y-62051967D01*
X145170957Y-62051967D01*
X145313814Y-62099587D01*
X141790004Y-64138158D02*
X141456671Y-64138158D01*
X141456671Y-64661967D02*
X141456671Y-63661967D01*
X141932861Y-63661967D01*
X142313814Y-64661967D02*
X142313814Y-63661967D01*
X143266195Y-64661967D02*
X142790004Y-64661967D01*
X142790004Y-63661967D01*
X143456671Y-63661967D02*
X144028099Y-63661967D01*
X143742385Y-64661967D02*
X143742385Y-63661967D01*
X144361433Y-64138158D02*
X144694766Y-64138158D01*
X144837623Y-64661967D02*
X144361433Y-64661967D01*
X144361433Y-63661967D01*
X144837623Y-63661967D01*
X145837623Y-64661967D02*
X145504290Y-64185777D01*
X145266195Y-64661967D02*
X145266195Y-63661967D01*
X145647147Y-63661967D01*
X145742385Y-63709587D01*
X145790004Y-63757206D01*
X145837623Y-63852444D01*
X145837623Y-63995301D01*
X145790004Y-64090539D01*
X145742385Y-64138158D01*
X145647147Y-64185777D01*
X145266195Y-64185777D01*
X141065718Y-43168396D02*
X140065718Y-43168396D01*
X141065718Y-42692206D02*
X140065718Y-42692206D01*
X141065718Y-42120777D01*
X140065718Y-42120777D01*
X141065718Y-41644587D02*
X140065718Y-41644587D01*
X140065718Y-41263634D01*
X140113338Y-41168396D01*
X140160957Y-41120777D01*
X140256195Y-41073158D01*
X140399052Y-41073158D01*
X140494290Y-41120777D01*
X140541909Y-41168396D01*
X140589528Y-41263634D01*
X140589528Y-41644587D01*
X126133338Y-63826967D02*
X126323814Y-63826967D01*
X126419052Y-63874587D01*
X126514290Y-63969825D01*
X126561909Y-64160301D01*
X126561909Y-64493634D01*
X126514290Y-64684110D01*
X126419052Y-64779348D01*
X126323814Y-64826967D01*
X126133338Y-64826967D01*
X126038099Y-64779348D01*
X125942861Y-64684110D01*
X125895242Y-64493634D01*
X125895242Y-64160301D01*
X125942861Y-63969825D01*
X126038099Y-63874587D01*
X126133338Y-63826967D01*
X126990480Y-63826967D02*
X126990480Y-64636491D01*
X127038099Y-64731729D01*
X127085718Y-64779348D01*
X127180957Y-64826967D01*
X127371433Y-64826967D01*
X127466671Y-64779348D01*
X127514290Y-64731729D01*
X127561909Y-64636491D01*
X127561909Y-63826967D01*
X127895242Y-63826967D02*
X128466671Y-63826967D01*
X128180957Y-64826967D02*
X128180957Y-63826967D01*
X139586671Y-52746967D02*
X139110480Y-52746967D01*
X139110480Y-51746967D01*
X139872385Y-51842206D02*
X139920004Y-51794587D01*
X140015242Y-51746967D01*
X140253338Y-51746967D01*
X140348576Y-51794587D01*
X140396195Y-51842206D01*
X140443814Y-51937444D01*
X140443814Y-52032682D01*
X140396195Y-52175539D01*
X139824766Y-52746967D01*
X140443814Y-52746967D01*
%TO.C,C1*%
X145456671Y-47151729D02*
X145409052Y-47199348D01*
X145266195Y-47246967D01*
X145170957Y-47246967D01*
X145028099Y-47199348D01*
X144932861Y-47104110D01*
X144885242Y-47008872D01*
X144837623Y-46818396D01*
X144837623Y-46675539D01*
X144885242Y-46485063D01*
X144932861Y-46389825D01*
X145028099Y-46294587D01*
X145170957Y-46246967D01*
X145266195Y-46246967D01*
X145409052Y-46294587D01*
X145456671Y-46342206D01*
X146409052Y-47246967D02*
X145837623Y-47246967D01*
X146123338Y-47246967D02*
X146123338Y-46246967D01*
X146028099Y-46389825D01*
X145932861Y-46485063D01*
X145837623Y-46532682D01*
%TO.C,C2*%
X124706671Y-44251729D02*
X124659052Y-44299348D01*
X124516195Y-44346967D01*
X124420957Y-44346967D01*
X124278099Y-44299348D01*
X124182861Y-44204110D01*
X124135242Y-44108872D01*
X124087623Y-43918396D01*
X124087623Y-43775539D01*
X124135242Y-43585063D01*
X124182861Y-43489825D01*
X124278099Y-43394587D01*
X124420957Y-43346967D01*
X124516195Y-43346967D01*
X124659052Y-43394587D01*
X124706671Y-43442206D01*
X125087623Y-43442206D02*
X125135242Y-43394587D01*
X125230480Y-43346967D01*
X125468576Y-43346967D01*
X125563814Y-43394587D01*
X125611433Y-43442206D01*
X125659052Y-43537444D01*
X125659052Y-43632682D01*
X125611433Y-43775539D01*
X125040004Y-44346967D01*
X125659052Y-44346967D01*
%TO.C,C3*%
X124706671Y-48001729D02*
X124659052Y-48049348D01*
X124516195Y-48096967D01*
X124420957Y-48096967D01*
X124278099Y-48049348D01*
X124182861Y-47954110D01*
X124135242Y-47858872D01*
X124087623Y-47668396D01*
X124087623Y-47525539D01*
X124135242Y-47335063D01*
X124182861Y-47239825D01*
X124278099Y-47144587D01*
X124420957Y-47096967D01*
X124516195Y-47096967D01*
X124659052Y-47144587D01*
X124706671Y-47192206D01*
X125040004Y-47096967D02*
X125659052Y-47096967D01*
X125325718Y-47477920D01*
X125468576Y-47477920D01*
X125563814Y-47525539D01*
X125611433Y-47573158D01*
X125659052Y-47668396D01*
X125659052Y-47906491D01*
X125611433Y-48001729D01*
X125563814Y-48049348D01*
X125468576Y-48096967D01*
X125182861Y-48096967D01*
X125087623Y-48049348D01*
X125040004Y-48001729D01*
%TO.C,C4*%
X121830480Y-44711253D02*
X121878099Y-44758872D01*
X121925718Y-44901729D01*
X121925718Y-44996967D01*
X121878099Y-45139825D01*
X121782861Y-45235063D01*
X121687623Y-45282682D01*
X121497147Y-45330301D01*
X121354290Y-45330301D01*
X121163814Y-45282682D01*
X121068576Y-45235063D01*
X120973338Y-45139825D01*
X120925718Y-44996967D01*
X120925718Y-44901729D01*
X120973338Y-44758872D01*
X121020957Y-44711253D01*
X121259052Y-43854110D02*
X121925718Y-43854110D01*
X120878099Y-44092206D02*
X121592385Y-44330301D01*
X121592385Y-43711253D01*
%TO.C,C5*%
X119780480Y-49711253D02*
X119828099Y-49758872D01*
X119875718Y-49901729D01*
X119875718Y-49996967D01*
X119828099Y-50139825D01*
X119732861Y-50235063D01*
X119637623Y-50282682D01*
X119447147Y-50330301D01*
X119304290Y-50330301D01*
X119113814Y-50282682D01*
X119018576Y-50235063D01*
X118923338Y-50139825D01*
X118875718Y-49996967D01*
X118875718Y-49901729D01*
X118923338Y-49758872D01*
X118970957Y-49711253D01*
X118875718Y-48806491D02*
X118875718Y-49282682D01*
X119351909Y-49330301D01*
X119304290Y-49282682D01*
X119256671Y-49187444D01*
X119256671Y-48949348D01*
X119304290Y-48854110D01*
X119351909Y-48806491D01*
X119447147Y-48758872D01*
X119685242Y-48758872D01*
X119780480Y-48806491D01*
X119828099Y-48854110D01*
X119875718Y-48949348D01*
X119875718Y-49187444D01*
X119828099Y-49282682D01*
X119780480Y-49330301D01*
%TO.C,C6*%
X132956671Y-58151729D02*
X132909052Y-58199348D01*
X132766195Y-58246967D01*
X132670957Y-58246967D01*
X132528099Y-58199348D01*
X132432861Y-58104110D01*
X132385242Y-58008872D01*
X132337623Y-57818396D01*
X132337623Y-57675539D01*
X132385242Y-57485063D01*
X132432861Y-57389825D01*
X132528099Y-57294587D01*
X132670957Y-57246967D01*
X132766195Y-57246967D01*
X132909052Y-57294587D01*
X132956671Y-57342206D01*
X133813814Y-57246967D02*
X133623338Y-57246967D01*
X133528099Y-57294587D01*
X133480480Y-57342206D01*
X133385242Y-57485063D01*
X133337623Y-57675539D01*
X133337623Y-58056491D01*
X133385242Y-58151729D01*
X133432861Y-58199348D01*
X133528099Y-58246967D01*
X133718576Y-58246967D01*
X133813814Y-58199348D01*
X133861433Y-58151729D01*
X133909052Y-58056491D01*
X133909052Y-57818396D01*
X133861433Y-57723158D01*
X133813814Y-57675539D01*
X133718576Y-57627920D01*
X133528099Y-57627920D01*
X133432861Y-57675539D01*
X133385242Y-57723158D01*
X133337623Y-57818396D01*
%TO.C,C7*%
X133773957Y-47875019D02*
X133821576Y-47922638D01*
X133869195Y-48065495D01*
X133869195Y-48160733D01*
X133821576Y-48303591D01*
X133726338Y-48398829D01*
X133631100Y-48446448D01*
X133440624Y-48494067D01*
X133297767Y-48494067D01*
X133107291Y-48446448D01*
X133012053Y-48398829D01*
X132916815Y-48303591D01*
X132869195Y-48160733D01*
X132869195Y-48065495D01*
X132916815Y-47922638D01*
X132964434Y-47875019D01*
X132869195Y-47541686D02*
X132869195Y-46875019D01*
X133869195Y-47303591D01*
D12*
%TO.C,C28*%
X143815000Y-138795000D02*
X143815000Y-143915000D01*
X144129000Y-143915000D02*
X143815000Y-143915000D01*
X146435000Y-138795000D02*
X146121000Y-138795000D01*
X146435000Y-138795000D02*
X146435000Y-143915000D01*
X146435000Y-143915000D02*
X146121000Y-143915000D01*
X144129000Y-138795000D02*
X143815000Y-138795000D01*
%TO.C,C27*%
X123331000Y-128279000D02*
X123331000Y-127965000D01*
X118211000Y-130585000D02*
X118211000Y-130271000D01*
X123331000Y-130585000D02*
X118211000Y-130585000D01*
X123331000Y-130585000D02*
X123331000Y-130271000D01*
X118211000Y-128279000D02*
X118211000Y-127965000D01*
X123331000Y-127965000D02*
X118211000Y-127965000D01*
%TO.C,C26*%
X129172545Y-133115271D02*
X128877481Y-133222665D01*
X133090619Y-137137798D02*
X132795556Y-137245193D01*
X131339476Y-132326572D02*
X133090619Y-137137798D01*
X131339476Y-132326572D02*
X131044413Y-132433966D01*
X130923688Y-137926497D02*
X130628625Y-138033891D01*
X128877481Y-133222665D02*
X130628625Y-138033891D01*
%TO.C,C25*%
X117449000Y-121381000D02*
X117135000Y-121381000D01*
X119755000Y-126501000D02*
X119441000Y-126501000D01*
X119755000Y-121381000D02*
X119755000Y-126501000D01*
X119755000Y-121381000D02*
X119441000Y-121381000D01*
X117449000Y-126501000D02*
X117135000Y-126501000D01*
X117135000Y-121381000D02*
X117135000Y-126501000D01*
%TO.C,C24*%
X126379000Y-121361000D02*
X121259000Y-121361000D01*
X121259000Y-121675000D02*
X121259000Y-121361000D01*
X126379000Y-123981000D02*
X126379000Y-123667000D01*
X126379000Y-123981000D02*
X121259000Y-123981000D01*
X121259000Y-123981000D02*
X121259000Y-123667000D01*
X126379000Y-121675000D02*
X126379000Y-121361000D01*
%TO.C,C23*%
X126379000Y-124663000D02*
X121259000Y-124663000D01*
X121259000Y-124977000D02*
X121259000Y-124663000D01*
X126379000Y-127283000D02*
X126379000Y-126969000D01*
X126379000Y-127283000D02*
X121259000Y-127283000D01*
X121259000Y-127283000D02*
X121259000Y-126969000D01*
X126379000Y-124977000D02*
X126379000Y-124663000D01*
%TO.C,C22*%
X144049000Y-121655000D02*
X143735000Y-121655000D01*
X146355000Y-126775000D02*
X146041000Y-126775000D01*
X146355000Y-121655000D02*
X146355000Y-126775000D01*
X146355000Y-121655000D02*
X146041000Y-121655000D01*
X144049000Y-126775000D02*
X143735000Y-126775000D01*
X143735000Y-121655000D02*
X143735000Y-126775000D01*
%TO.C,L8*%
X129537000Y-137427254D02*
G75*
G03*
X129537000Y-137427254I-6440000J0D01*
G01*
X126855100Y-137427254D02*
G75*
G03*
X126855100Y-137427254I-3758100J0D01*
G01*
%TO.C,L7*%
X142663100Y-132416095D02*
G75*
G03*
X142663100Y-132416095I-3758100J0D01*
G01*
X145345001Y-132416095D02*
G75*
G03*
X145345001Y-132416095I-6440001J0D01*
G01*
%TO.C,J8*%
X138815000Y-144600000D02*
X138815000Y-141940000D01*
X131135000Y-141940000D02*
X138815000Y-141940000D01*
X131135000Y-144600000D02*
X131135000Y-141940000D01*
X131135000Y-144600000D02*
X138815000Y-144600000D01*
X128535000Y-141940000D02*
X129865000Y-141940000D01*
X128535000Y-143270000D02*
X128535000Y-141940000D01*
%TO.C,J7*%
X138825000Y-124255000D02*
X138825000Y-121595000D01*
X131145000Y-121595000D02*
X138825000Y-121595000D01*
X131145000Y-124255000D02*
X131145000Y-121595000D01*
X131145000Y-124255000D02*
X138825000Y-124255000D01*
X128545000Y-121595000D02*
X129875000Y-121595000D01*
X128545000Y-122925000D02*
X128545000Y-121595000D01*
%TO.C,L6*%
X130123338Y-83144841D02*
G75*
G03*
X130123338Y-83144841I-6440000J0D01*
G01*
X127441438Y-83144841D02*
G75*
G03*
X127441438Y-83144841I-3758100J0D01*
G01*
%TO.C,L5*%
X145283339Y-78995682D02*
G75*
G03*
X145283339Y-78995682I-6440001J0D01*
G01*
X142601438Y-78995682D02*
G75*
G03*
X142601438Y-78995682I-3758100J0D01*
G01*
%TO.C,J6*%
X128960838Y-89699587D02*
X128960838Y-88369587D01*
X128960838Y-88369587D02*
X130290838Y-88369587D01*
X131560838Y-91029587D02*
X139240838Y-91029587D01*
X131560838Y-91029587D02*
X131560838Y-88369587D01*
X131560838Y-88369587D02*
X139240838Y-88369587D01*
X139240838Y-91029587D02*
X139240838Y-88369587D01*
%TO.C,J5*%
X128960838Y-69404587D02*
X128960838Y-68074587D01*
X128960838Y-68074587D02*
X130290838Y-68074587D01*
X131560838Y-70734587D02*
X139240838Y-70734587D01*
X131560838Y-70734587D02*
X131560838Y-68074587D01*
X131560838Y-68074587D02*
X139240838Y-68074587D01*
X139240838Y-70734587D02*
X139240838Y-68074587D01*
%TO.C,C21*%
X132036086Y-87078587D02*
X133458590Y-87078587D01*
X132036086Y-85258587D02*
X133458590Y-85258587D01*
%TO.C,C20*%
X121012590Y-74336587D02*
X119590086Y-74336587D01*
X121012590Y-76156587D02*
X119590086Y-76156587D01*
%TO.C,C19*%
X129965586Y-75140587D02*
X131388090Y-75140587D01*
X129965586Y-73320587D02*
X131388090Y-73320587D01*
%TO.C,C18*%
X118121338Y-69201335D02*
X118121338Y-70623839D01*
X119941338Y-69201335D02*
X119941338Y-70623839D01*
%TO.C,C17*%
X124822590Y-67986587D02*
X123400086Y-67986587D01*
X124822590Y-69806587D02*
X123400086Y-69806587D01*
%TO.C,C16*%
X124784090Y-71796587D02*
X123361586Y-71796587D01*
X124784090Y-73616587D02*
X123361586Y-73616587D01*
%TO.C,C15*%
X142759338Y-69201335D02*
X142759338Y-70623839D01*
X144579338Y-69201335D02*
X144579338Y-70623839D01*
%TO.C,J4*%
X138913338Y-117978587D02*
X138913338Y-115318587D01*
X131233338Y-115318587D02*
X138913338Y-115318587D01*
X131233338Y-117978587D02*
X131233338Y-115318587D01*
X131233338Y-117978587D02*
X138913338Y-117978587D01*
X128633338Y-115318587D02*
X129963338Y-115318587D01*
X128633338Y-116648587D02*
X128633338Y-115318587D01*
%TO.C,J3*%
X138913338Y-97633587D02*
X138913338Y-94973587D01*
X131233338Y-94973587D02*
X138913338Y-94973587D01*
X131233338Y-97633587D02*
X131233338Y-94973587D01*
X131233338Y-97633587D02*
X138913338Y-97633587D01*
X128633338Y-94973587D02*
X129963338Y-94973587D01*
X128633338Y-96303587D02*
X128633338Y-94973587D01*
%TO.C,L4*%
X127361438Y-110098629D02*
G75*
G03*
X127361438Y-110098629I-3758100J0D01*
G01*
X130043338Y-110098629D02*
G75*
G03*
X130043338Y-110098629I-6440000J0D01*
G01*
%TO.C,L1*%
X145870149Y-105352845D02*
G75*
G03*
X145870149Y-105352845I-6440001J0D01*
G01*
X143188248Y-105352845D02*
G75*
G03*
X143188248Y-105352845I-3758100J0D01*
G01*
%TO.C,C14*%
X131997586Y-113621587D02*
X133420090Y-113621587D01*
X131997586Y-111801587D02*
X133420090Y-111801587D01*
%TO.C,C13*%
X120885590Y-101133587D02*
X119463086Y-101133587D01*
X120885590Y-102953587D02*
X119463086Y-102953587D01*
%TO.C,C12*%
X130131086Y-102064587D02*
X131553590Y-102064587D01*
X130131086Y-100244587D02*
X131553590Y-100244587D01*
%TO.C,C11*%
X117740338Y-96163835D02*
X117740338Y-97586339D01*
X119560338Y-96163835D02*
X119560338Y-97586339D01*
%TO.C,C10*%
X124226090Y-94529587D02*
X122803586Y-94529587D01*
X124226090Y-96349587D02*
X122803586Y-96349587D01*
%TO.C,C9*%
X124226090Y-98085587D02*
X122803586Y-98085587D01*
X124226090Y-99905587D02*
X122803586Y-99905587D01*
%TO.C,C8*%
X143521338Y-96252335D02*
X143521338Y-97674839D01*
X145341338Y-96252335D02*
X145341338Y-97674839D01*
%TO.C,C1*%
X144713338Y-42833335D02*
X144713338Y-44255839D01*
X146533338Y-42833335D02*
X146533338Y-44255839D01*
%TO.C,C2*%
X125584590Y-41134587D02*
X124162086Y-41134587D01*
X125584590Y-42954587D02*
X124162086Y-42954587D01*
%TO.C,C3*%
X125584590Y-46704587D02*
X124162086Y-46704587D01*
X125584590Y-44884587D02*
X124162086Y-44884587D01*
%TO.C,C4*%
X120533338Y-43833335D02*
X120533338Y-45255839D01*
X118713338Y-43833335D02*
X118713338Y-45255839D01*
%TO.C,C5*%
X123584590Y-48564587D02*
X122162086Y-48564587D01*
X123584590Y-50384587D02*
X122162086Y-50384587D01*
%TO.C,C6*%
X132412086Y-60454587D02*
X133834590Y-60454587D01*
X132412086Y-58634587D02*
X133834590Y-58634587D01*
%TO.C,L2*%
X146251149Y-52139845D02*
G75*
G03*
X146251149Y-52139845I-6440001J0D01*
G01*
X143569248Y-52139845D02*
G75*
G03*
X143569248Y-52139845I-3758100J0D01*
G01*
%TO.C,L3*%
X127621438Y-56920254D02*
G75*
G03*
X127621438Y-56920254I-3758100J0D01*
G01*
X130303338Y-56920254D02*
G75*
G03*
X130303338Y-56920254I-6440000J0D01*
G01*
%TO.C,J1*%
X131731338Y-64384587D02*
X131731338Y-61724587D01*
X131731338Y-61724587D02*
X139411338Y-61724587D01*
X130461338Y-64384587D02*
X129131338Y-64384587D01*
X139411338Y-64384587D02*
X139411338Y-61724587D01*
X129131338Y-64384587D02*
X129131338Y-63054587D01*
X131731338Y-64384587D02*
X139411338Y-64384587D01*
%TO.C,J2*%
X130461338Y-44064587D02*
X129131338Y-44064587D01*
X139411338Y-44064587D02*
X139411338Y-41404587D01*
X131731338Y-44064587D02*
X131731338Y-41404587D01*
X129131338Y-44064587D02*
X129131338Y-42734587D01*
X131731338Y-44064587D02*
X139411338Y-44064587D01*
X131731338Y-41404587D02*
X139411338Y-41404587D01*
%TO.C,C7*%
X129242086Y-46904587D02*
X130664590Y-46904587D01*
X129242086Y-48724587D02*
X130664590Y-48724587D01*
%TD*%
%LPC*%
D13*
%TO.C,C28*%
X145125000Y-143055000D03*
D14*
X145125000Y-143855000D03*
D13*
X145125000Y-139655000D03*
D14*
X145125000Y-138855000D03*
%TD*%
%TO.C,C27*%
X123271000Y-129275000D03*
D15*
X122471000Y-129275000D03*
D14*
X118271000Y-129275000D03*
D15*
X119071000Y-129275000D03*
%TD*%
D14*
%TO.C,C26*%
X130129000Y-132831000D03*
D16*
X130402616Y-133582754D03*
D14*
X131839101Y-137529463D03*
D16*
X131565485Y-136777709D03*
%TD*%
D14*
%TO.C,C25*%
X118445000Y-121441000D03*
D13*
X118445000Y-122241000D03*
D14*
X118445000Y-126441000D03*
D13*
X118445000Y-125641000D03*
%TD*%
D15*
%TO.C,C24*%
X122119000Y-122671000D03*
D14*
X121319000Y-122671000D03*
D15*
X125519000Y-122671000D03*
D14*
X126319000Y-122671000D03*
%TD*%
D15*
%TO.C,C23*%
X122119000Y-125973000D03*
D14*
X121319000Y-125973000D03*
D15*
X125519000Y-125973000D03*
D14*
X126319000Y-125973000D03*
%TD*%
%TO.C,C22*%
X145045000Y-121715000D03*
D13*
X145045000Y-122515000D03*
D14*
X145045000Y-126715000D03*
D13*
X145045000Y-125915000D03*
%TD*%
D17*
%TO.C,L8*%
X126827000Y-130966705D03*
X119444583Y-144013425D03*
%TD*%
%TO.C,L7*%
X137081662Y-139723163D03*
X140835790Y-125210289D03*
%TD*%
D18*
%TO.C,J8*%
X137485000Y-143270000D03*
X134945000Y-143270000D03*
X132405000Y-143270000D03*
D19*
X129865000Y-143270000D03*
%TD*%
D18*
%TO.C,J7*%
X137495000Y-122925000D03*
X134955000Y-122925000D03*
X132415000Y-122925000D03*
D19*
X129875000Y-122925000D03*
%TD*%
D17*
%TO.C,L6*%
X127413338Y-76684292D03*
X120030921Y-89731012D03*
%TD*%
%TO.C,L5*%
X140774128Y-71789876D03*
X137020000Y-86302750D03*
%TD*%
D19*
%TO.C,J6*%
X130290838Y-89699587D03*
D18*
X132830838Y-89699587D03*
X135370838Y-89699587D03*
X137910838Y-89699587D03*
%TD*%
D19*
%TO.C,J5*%
X130290838Y-69404587D03*
D18*
X132830838Y-69404587D03*
X135370838Y-69404587D03*
X137910838Y-69404587D03*
%TD*%
D20*
%TO.C,C21*%
X131184838Y-86168587D03*
X134309838Y-86168587D03*
%TD*%
D21*
%TO.C,C20*%
X121863838Y-75246587D03*
X118738838Y-75246587D03*
%TD*%
D20*
%TO.C,C19*%
X129114338Y-74230587D03*
X132239338Y-74230587D03*
%TD*%
D22*
%TO.C,C18*%
X119031338Y-68350087D03*
X119031338Y-71475087D03*
%TD*%
D21*
%TO.C,C17*%
X125673838Y-68896587D03*
X122548838Y-68896587D03*
%TD*%
%TO.C,C16*%
X125635338Y-72706587D03*
X122510338Y-72706587D03*
%TD*%
D22*
%TO.C,C15*%
X143669338Y-68350087D03*
X143669338Y-71475087D03*
%TD*%
D18*
%TO.C,J4*%
X137583338Y-116648587D03*
X135043338Y-116648587D03*
X132503338Y-116648587D03*
D19*
X129963338Y-116648587D03*
%TD*%
D18*
%TO.C,J3*%
X137583338Y-96303587D03*
X135043338Y-96303587D03*
X132503338Y-96303587D03*
D19*
X129963338Y-96303587D03*
%TD*%
D17*
%TO.C,L4*%
X119950921Y-116684800D03*
X127333338Y-103638080D03*
%TD*%
%TO.C,L1*%
X141360938Y-98147039D03*
X137606810Y-112659913D03*
%TD*%
D20*
%TO.C,C14*%
X131146338Y-112711587D03*
X134271338Y-112711587D03*
%TD*%
D21*
%TO.C,C13*%
X121736838Y-102043587D03*
X118611838Y-102043587D03*
%TD*%
D20*
%TO.C,C12*%
X129279838Y-101154587D03*
X132404838Y-101154587D03*
%TD*%
D22*
%TO.C,C11*%
X118650338Y-95312587D03*
X118650338Y-98437587D03*
%TD*%
D21*
%TO.C,C10*%
X125077338Y-95439587D03*
X121952338Y-95439587D03*
%TD*%
%TO.C,C9*%
X125077338Y-98995587D03*
X121952338Y-98995587D03*
%TD*%
D22*
%TO.C,C8*%
X144431338Y-95401087D03*
X144431338Y-98526087D03*
%TD*%
%TO.C,C1*%
X145623338Y-41982087D03*
X145623338Y-45107087D03*
%TD*%
D21*
%TO.C,C2*%
X126435838Y-42044587D03*
X123310838Y-42044587D03*
%TD*%
%TO.C,C3*%
X126435838Y-45794587D03*
X123310838Y-45794587D03*
%TD*%
D22*
%TO.C,C4*%
X119623338Y-42982087D03*
X119623338Y-46107087D03*
%TD*%
D21*
%TO.C,C5*%
X124435838Y-49474587D03*
X121310838Y-49474587D03*
%TD*%
D20*
%TO.C,C6*%
X131560838Y-59544587D03*
X134685838Y-59544587D03*
%TD*%
D17*
%TO.C,L2*%
X141741938Y-44934039D03*
X137987810Y-59446913D03*
%TD*%
%TO.C,L3*%
X127593338Y-50459705D03*
X120210921Y-63506425D03*
%TD*%
D19*
%TO.C,J1*%
X130461338Y-63054587D03*
D18*
X133001338Y-63054587D03*
X135541338Y-63054587D03*
X138081338Y-63054587D03*
%TD*%
D19*
%TO.C,J2*%
X130461338Y-42734587D03*
D18*
X133001338Y-42734587D03*
X135541338Y-42734587D03*
X138081338Y-42734587D03*
%TD*%
D20*
%TO.C,C7*%
X131515838Y-47814587D03*
X128390838Y-47814587D03*
%TD*%
M02*
